<?xml version="1.0" encoding="UTF-8" standalone="no"?><svg xmlns="http://www.w3.org/2000/svg" xmlns:xlink="http://www.w3.org/1999/xlink" contentScriptType="application/ecmascript" contentStyleType="text/css" height="254.1667px" preserveAspectRatio="none" style="width:418px;height:254px;background:#333333;" version="1.1" viewBox="0 0 418 254" width="418.75px" zoomAndPan="magnify"><defs/><g><rect fill="#48494B" height="41.2028" rx="8.3333" ry="8.3333" style="stroke:#545454;stroke-width:1.0416666666666667;" width="406.25" x="2.0833" y="2.0833"/><text fill="#C0C0C0" font-family="Open Sans,Avenir,Nunito,Arial,Helvetica,SansSerif" font-size="20.8333" lengthAdjust="spacing" textLength="383.3333" x="13.5417" y="30.5583">com.telenav.kivakit.logs.server.project</text><!--MD5=[d776228a55af1f9e7dd99d395538019c]
class KryoTypes--><rect fill="#282828" height="48.055" id="KryoTypes" rx="8.3333" ry="8.3333" style="stroke:#5E5E5E;stroke-width:1.0416666666666667;" width="106.25" x="59.8958" y="53.7028"/><rect fill="#1B1B1A" height="31.3883" rx="8.3333" ry="8.3333" style="stroke:#1B1B1A;stroke-width:1.0416666666666667;" width="106.25" x="59.8958" y="53.7028"/><rect fill="#1B1B1A" height="8.3333" style="stroke:#1B1B1A;stroke-width:1.0416666666666667;" width="106.25" x="59.8958" y="76.7578"/><rect fill="none" height="48.055" id="KryoTypes" rx="8.3333" ry="8.3333" style="stroke:#5E5E5E;stroke-width:1.0416666666666667;" width="106.25" x="59.8958" y="53.7028"/><ellipse cx="74.4792" cy="69.397" fill="#0066CF" rx="10.4167" ry="10.4167" style="stroke:#0086EF;stroke-width:1.0416666666666667;"/><path d="M76.3896,73.822 Q75.9623,74.0417 75.4924,74.1516 Q75.0224,74.2615 74.5036,74.2615 Q72.6603,74.2615 71.6899,73.0469 Q70.7194,71.8323 70.7194,69.5374 Q70.7194,67.2363 71.6899,66.0217 Q72.6603,64.8071 74.5036,64.8071 Q75.0224,64.8071 75.4985,64.917 Q75.9745,65.0269 76.3896,65.2466 L76.3896,67.2485 Q75.9257,66.8213 75.4893,66.6229 Q75.0529,66.4246 74.589,66.4246 Q73.6003,66.4246 73.0967,67.2089 Q72.5932,67.9932 72.5932,69.5374 Q72.5932,71.0754 73.0967,71.8597 Q73.6003,72.644 74.589,72.644 Q75.0529,72.644 75.4893,72.4457 Q75.9257,72.2473 76.3896,71.8201 Z " fill="#000000"/><text fill="#D8BC00" font-family="Open Sans,Avenir,Nunito,Arial,Helvetica,SansSerif" font-size="12.5" font-weight="bold" lengthAdjust="spacing" textLength="68.75" x="91.1458" y="74.1211">KryoTypes</text><line style="stroke:#5E5E5E;stroke-width:1.0416666666666667;" x1="60.9375" x2="165.1042" y1="85.0911" y2="85.0911"/><line style="stroke:#5E5E5E;stroke-width:1.0416666666666667;" x1="60.9375" x2="165.1042" y1="93.4245" y2="93.4245"/><!--MD5=[a542e6c76ed040b2430ca52bcf18a511]
class LogsServerKryoTypes--><rect codeLine="7" fill="#282828" height="83.3781" id="LogsServerKryoTypes" rx="8.3333" ry="8.3333" style="stroke:#5E5E5E;stroke-width:1.0416666666666667;" width="177.0833" x="24.4792" y="164.1195"/><rect fill="#1B1B1A" height="31.3883" rx="8.3333" ry="8.3333" style="stroke:#1B1B1A;stroke-width:1.0416666666666667;" width="177.0833" x="24.4792" y="164.1195"/><rect fill="#1B1B1A" height="8.3333" style="stroke:#1B1B1A;stroke-width:1.0416666666666667;" width="177.0833" x="24.4792" y="187.1745"/><rect codeLine="7" fill="none" height="83.3781" id="LogsServerKryoTypes" rx="8.3333" ry="8.3333" style="stroke:#5E5E5E;stroke-width:1.0416666666666667;" width="177.0833" x="24.4792" y="164.1195"/><ellipse cx="39.0625" cy="179.8136" fill="#0066CF" rx="10.4167" ry="10.4167" style="stroke:#0086EF;stroke-width:1.0416666666666667;"/><path d="M40.9729,184.2387 Q40.5457,184.4584 40.0757,184.5683 Q39.6057,184.6781 39.0869,184.6781 Q37.2437,184.6781 36.2732,183.4635 Q35.3027,182.2489 35.3027,179.954 Q35.3027,177.653 36.2732,176.4384 Q37.2437,175.2238 39.0869,175.2238 Q39.6057,175.2238 40.0818,175.3337 Q40.5579,175.4435 40.9729,175.6632 L40.9729,177.6652 Q40.509,177.238 40.0726,177.0396 Q39.6362,176.8412 39.1724,176.8412 Q38.1836,176.8412 37.6801,177.6255 Q37.1765,178.4098 37.1765,179.954 Q37.1765,181.4921 37.6801,182.2764 Q38.1836,183.0607 39.1724,183.0607 Q39.6362,183.0607 40.0726,182.8623 Q40.509,182.664 40.9729,182.2367 Z " fill="#000000"/><text fill="#D8BC00" font-family="Open Sans,Avenir,Nunito,Arial,Helvetica,SansSerif" font-size="12.5" font-weight="bold" lengthAdjust="spacing" textLength="139.5833" x="55.7292" y="184.5378">LogsServerKryoTypes</text><line style="stroke:#5E5E5E;stroke-width:1.5625;" x1="25.5208" x2="200.5208" y1="195.5078" y2="195.5078"/><ellipse cx="35.9375" cy="230.8777" fill="#84BE84" rx="3.125" ry="3.125" style="stroke:#038048;stroke-width:1.0416666666666667;"/><text fill="#D8BC00" font-family="Open Sans,Avenir,Nunito,Arial,Helvetica,SansSerif" font-size="11.4583" lengthAdjust="spacing" textLength="130.2083" x="47.3958" y="237.7889">LogsServerKryoTypes()</text><line style="stroke:#5E5E5E;stroke-width:1.0416666666666667;" x1="25.5208" x2="69.2708" y1="213.7136" y2="213.7136"/><text fill="#D8BC00" font-family="Open Sans,Avenir,Nunito,Arial,Helvetica,SansSerif" font-size="11.4583" lengthAdjust="spacing" textLength="81.25" x="72.3958" y="217.5232">(constructors)</text><line style="stroke:#5E5E5E;stroke-width:1.0416666666666667;" x1="156.7708" x2="200.5208" y1="213.7136" y2="213.7136"/><!--MD5=[79d378210367c0c6ec62ef762ddfbd1b]
class Project--><rect fill="#282828" height="48.055" id="Project" rx="8.3333" ry="8.3333" style="stroke:#5E5E5E;stroke-width:1.0416666666666667;" width="81.25" x="278.6458" y="53.7028"/><rect fill="#1B1B1A" height="31.3883" rx="8.3333" ry="8.3333" style="stroke:#1B1B1A;stroke-width:1.0416666666666667;" width="81.25" x="278.6458" y="53.7028"/><rect fill="#1B1B1A" height="8.3333" style="stroke:#1B1B1A;stroke-width:1.0416666666666667;" width="81.25" x="278.6458" y="76.7578"/><rect fill="none" height="48.055" id="Project" rx="8.3333" ry="8.3333" style="stroke:#5E5E5E;stroke-width:1.0416666666666667;" width="81.25" x="278.6458" y="53.7028"/><ellipse cx="293.2292" cy="69.397" fill="#0066CF" rx="10.4167" ry="10.4167" style="stroke:#0086EF;stroke-width:1.0416666666666667;"/><path d="M295.1396,73.822 Q294.7123,74.0417 294.2424,74.1516 Q293.7724,74.2615 293.2536,74.2615 Q291.4103,74.2615 290.4399,73.0469 Q289.4694,71.8323 289.4694,69.5374 Q289.4694,67.2363 290.4399,66.0217 Q291.4103,64.8071 293.2536,64.8071 Q293.7724,64.8071 294.2485,64.917 Q294.7245,65.0269 295.1396,65.2466 L295.1396,67.2485 Q294.6757,66.8213 294.2393,66.6229 Q293.8029,66.4246 293.339,66.4246 Q292.3503,66.4246 291.8467,67.2089 Q291.3432,67.9932 291.3432,69.5374 Q291.3432,71.0754 291.8467,71.8597 Q292.3503,72.644 293.339,72.644 Q293.8029,72.644 294.2393,72.4457 Q294.6757,72.2473 295.1396,71.8201 Z " fill="#000000"/><text fill="#D8BC00" font-family="Open Sans,Avenir,Nunito,Arial,Helvetica,SansSerif" font-size="12.5" font-weight="bold" lengthAdjust="spacing" textLength="43.75" x="309.8958" y="74.1211">Project</text><line style="stroke:#5E5E5E;stroke-width:1.0416666666666667;" x1="279.6875" x2="358.8542" y1="85.0911" y2="85.0911"/><line style="stroke:#5E5E5E;stroke-width:1.0416666666666667;" x1="279.6875" x2="358.8542" y1="93.4245" y2="93.4245"/><!--MD5=[5d34a10d6019895bb67a9cb4020a4c6a]
class LogsServerProject--><rect codeLine="14" fill="#282828" height="67.7999" id="LogsServerProject" rx="8.3333" ry="8.3333" style="stroke:#5E5E5E;stroke-width:1.0416666666666667;" width="162.5" x="238.0208" y="171.932"/><rect fill="#1B1B1A" height="31.3883" rx="8.3333" ry="8.3333" style="stroke:#1B1B1A;stroke-width:1.0416666666666667;" width="162.5" x="238.0208" y="171.932"/><rect fill="#1B1B1A" height="8.3333" style="stroke:#1B1B1A;stroke-width:1.0416666666666667;" width="162.5" x="238.0208" y="194.987"/><rect codeLine="14" fill="none" height="67.7999" id="LogsServerProject" rx="8.3333" ry="8.3333" style="stroke:#5E5E5E;stroke-width:1.0416666666666667;" width="162.5" x="238.0208" y="171.932"/><ellipse cx="257.2917" cy="187.6261" fill="#0066CF" rx="10.4167" ry="10.4167" style="stroke:#0086EF;stroke-width:1.0416666666666667;"/><path d="M259.2021,192.0512 Q258.7748,192.2709 258.3049,192.3808 Q257.8349,192.4906 257.3161,192.4906 Q255.4728,192.4906 254.5024,191.276 Q253.5319,190.0614 253.5319,187.7665 Q253.5319,185.4655 254.5024,184.2509 Q255.4728,183.0363 257.3161,183.0363 Q257.8349,183.0363 258.311,183.1462 Q258.787,183.256 259.2021,183.4757 L259.2021,185.4777 Q258.7382,185.0505 258.3018,184.8521 Q257.8654,184.6537 257.4015,184.6537 Q256.4128,184.6537 255.9092,185.438 Q255.4057,186.2223 255.4057,187.7665 Q255.4057,189.3046 255.9092,190.0889 Q256.4128,190.8732 257.4015,190.8732 Q257.8654,190.8732 258.3018,190.6748 Q258.7382,190.4765 259.2021,190.0492 Z " fill="#000000"/><text fill="#D8BC00" font-family="Open Sans,Avenir,Nunito,Arial,Helvetica,SansSerif" font-size="12.5" font-weight="bold" lengthAdjust="spacing" textLength="114.5833" x="275" y="192.3503">LogsServerProject</text><line style="stroke:#5E5E5E;stroke-width:1.5625;" x1="239.0625" x2="399.4792" y1="203.3203" y2="203.3203"/><line style="stroke:#5E5E5E;stroke-width:1.0416666666666667;" x1="239.0625" x2="399.4792" y1="211.6536" y2="211.6536"/><ellipse cx="249.4792" cy="223.112" fill="#84BE84" rx="3.125" ry="3.125" style="stroke:#038048;stroke-width:1.0416666666666667;"/><text fill="#D8BC00" font-family="Open Sans,Avenir,Nunito,Arial,Helvetica,SansSerif" font-size="11.4583" lengthAdjust="spacing" textLength="130.2083" x="260.9375" y="230.0232">LogsServerProject get()</text><!--MD5=[d158aeb61adc7946c8aaebc2b2cab858]
reverse link KryoTypes to LogsServerKryoTypes--><path codeLine="6" d="M113.0208,122.682 C113.0208,136.0778 113.0208,150.7445 113.0208,163.9215 " fill="none" id="KryoTypes-backto-LogsServerKryoTypes" style="stroke:#545454;stroke-width:1.5625;"/><polygon fill="none" points="105.7292,122.6507,113.0208,101.8174,120.3125,122.6507,105.7292,122.6507" style="stroke:#545454;stroke-width:1.5625;"/><!--MD5=[7828b060a9af6d771ad12eaa4d7517c5]
reverse link Project to LogsServerProject--><path codeLine="13" d="M319.2708,122.8695 C319.2708,138.9632 319.2708,156.859 319.2708,171.807 " fill="none" id="Project-backto-LogsServerProject" style="stroke:#545454;stroke-width:1.5625;"/><polygon fill="none" points="311.9792,122.6507,319.2708,101.8174,326.5625,122.6507,311.9792,122.6507" style="stroke:#545454;stroke-width:1.5625;"/><!--MD5=[b23184fff886641d3fcaa62e4fcf1066]
@startuml

    !include lexakai.theme
    
    title "com.telenav.kivakit.logs.server.project"
    
    KryoTypes <|- - LogsServerKryoTypes
    class LogsServerKryoTypes
    {
        - -(constructors)- -
        +LogsServerKryoTypes()
    }
    
    Project <|- - LogsServerProject
    class LogsServerProject
    {
        - -
        +LogsServerProject get()
    }
    
@enduml

@startuml









skinparam backgroundColor #333333






skinparam  {
    defaultFontName   "Open Sans,Avenir,Nunito,Arial,Helvetica,SansSerif"
    defaultFontSize   12
    defaultTextAlignment left
    shadowing false
    RoundCorner 10
    TitleFontSize 18
}

skinparam defaultFontName       "Open Sans,Avenir,Nunito,Arial,Helvetica,SansSerif"
skinparam defaultFontSize       12
skinparam dpi                   100
skinparam shadowing             false
skinparam roundcorner           16
skinparam ParticipantPadding    40
skinparam BoxPadding            40
skinparam Padding               3
skinparam ArrowColor            #545454
skinparam stereotype {
    CBackgroundColor #0066cf
    CBorderColor #0086ef
    ABackgroundColor #C8Ac00
    ABorderColor #D8Bc00
    IBackgroundColor #008400
    IBorderColor #239c23
    EBackgroundColor #cf6300
    EBorderColor #ef8300
    NBackgroundColor #3380b9
    NBorderColor #004d86
}
skinparam title {
	FontColor	                 #c0c0c0
 	BorderColor                  #545454
	FontSize	    	         20
	BorderRoundCorner            16
	BorderThickness 	         1
	BackgroundColor              #48494b
}


skinparam legend {
	BackgroundColor #303030
	BorderColor #404040
	FontColor #a0a0a0
}

	skinparam swimlane {
	BorderColor #5e5e5e
	BorderThickness 2
	TitleBackgroundColor  #6d6d6d-#484848
	TitleFontColor #303030
}

skinparam activity {
		FontColor #C8Ac00
	BorderColor #333333
	BackgroundColor #333333-#333333
	BarColor #00FF00
	StartColor #0060a8
	EndColor #0060a8
	DiamondBackgroundColor #6d6d6d-#3a3a3a
  	DiamondBorderColor #3a3a3a
  	DiamondFontColor #fefefe
}


skinparam participant {
		FontColor #C8Ac00
	BorderColor #333333
	BackgroundColor #333333-#333333
	ParticipantBorderThickness 2
}


skinparam actor {
		FontColor #C8Ac00
	BorderColor #333333
	BackgroundColor #333333-#333333
}


skinparam arrow {
	Thickness 1.5
	Color #545454
	FontColor #a0a0a0
    FontStyle bold
    MessageAlignment center
}



skinparam sequence {
	BorderColor #303030
	TitleFontColor #303030
	BackgroundColor #333333
	StartColor #303030
	EndColor #303030
	BoxBackgroundColor #333333
	BoxBorderColor #484848
	BoxFontColor #484848
	LifeLineBorderColor #484848
	LifeLineBorderThickness 2
	LifeLineBackgroundColor #3a3a3a
	GroupBorderColor #484848
	GroupFontColor #484848
	GroupHeaderFontColor #0060a8
	GroupBackgroundColor #484848
	GroupHeaderBackgroundColor #333333
	DividerBackgroundColor #484848
    DividerBorderColor #484848
    DividerBorderThickness 2
    DividerFontColor #D8Bc00
	ReferenceBackgroundColor #333333
	ReferenceBorderColor #484848
	ReferenceFontColor #fefefe
	ReferenceHeaderBackgroundColor #484848
}


skinparam partition {
	BorderColor #303030
	FontColor #333333
	BackgroundColor #333333
}


skinparam collections {
		FontColor #C8Ac00
	BorderColor #333333
	BackgroundColor #333333-#333333
}


skinparam control {
		FontColor #C8Ac00
	BorderColor #333333
	BackgroundColor #333333-#333333
}


skinparam entity {
		FontColor #C8Ac00
	BorderColor #333333
	BackgroundColor #333333-#333333
}


skinparam boundary {
		FontColor #C8Ac00
	BorderColor #333333
	BackgroundColor #333333-#333333
}


skinparam agent {
	BackgroundColor #ff8000
	BorderColor #ff9933
	FontColor #484848
}


skinparam note {
	BorderThickness 1
	BackgroundColor #1b1b1a
	BorderColor #5e5e5e
	FontSize 11
	FontColor #a0a0a0
}


skinparam artifact {
	BorderThickness 10
	BorderColor #5e5e5e
	BackgroundColor #1b1b1a
	FontColor #D8Bc00
}


skinparam component {
		FontColor #C8Ac00
	BorderColor #333333
	BackgroundColor #333333-#333333
}


skinparam interface {
	BackgroundColor  #008400
	BorderColor  #007F00
	FontColor #484848
}


skinparam storage {
	BackgroundColor #ff8000
  	BorderColor #cc6600
	FontColor #222222
}


skinparam node {
	BackgroundColor #333333
	BorderColor #333333
	FontColor #C8Ac00
}


skinparam cloud {
	BackgroundColor #484848-black
	BorderColor #484848
	FontColor #D8Bc00
}


skinparam database {
		FontColor #C8Ac00
	BorderColor #333333
	BackgroundColor #333333-#333333
	BackgroundColor  #333333
}


skinparam class {
		FontColor #C8Ac00
	BorderColor #333333
	BackgroundColor #333333-#333333
	HeaderBackgroundColor #1b1b1a
    BackgroundColor #282828
    BorderColor #5e5e5e
 	StereotypeFontColor #a0a0a0
    StereotypeFontStyle bold
	BorderThickness 1
	AttributeFontColor #D8Bc00
	AttributeFontSize 11
    FontColor #D8Bc00
    FontStyle bold
}


skinparam object {
		FontColor #C8Ac00
	BorderColor #333333
	BackgroundColor #333333-#333333
	StereotypeFontColor #484848
	BorderThickness 1
	AttributeFontColor #fefefe
	AttributeFontSize 11
}


skinparam usecase {
		FontColor #C8Ac00
	BorderColor #333333
	BackgroundColor #333333-#333333
	BorderThickness 2
	StereotypeFontColor #303030
}


skinparam rectangle {
		FontColor #C8Ac00
	BorderColor #333333
	BackgroundColor #333333-#333333
	BackgroundColor #333333
	BorderThickness 2
	StereotypeFontColor #303030
}


skinparam package {
		FontColor #C8Ac00
	BorderColor #333333
	BackgroundColor #333333-#333333
	BackgroundColor #333333
	BorderThickness 2
}


skinparam folder {
	BackgroundColor #6d6d6d
  	BorderColor #ff8000
	FontColor #ff8000
	BorderThickness 2
}


skinparam frame {
	BackgroundColor #6d6d6d
  	BorderColor #0060a8
	FontColor #0060a8
	BorderThickness 2
}


skinparam state {
		FontColor #C8Ac00
	BorderColor #333333
	BackgroundColor #333333-#333333
	StartColor #0060a8
	EndColor #0060a8
	AttributeFontColor #fefefe
	AttributeFontSize 11
}


skinparam queue {
		FontColor #C8Ac00
	BorderColor #333333
	BackgroundColor #333333-#333333
}


skinparam card {
	BackgroundColor #0060a8
	BorderColor #004d86
	FontColor $INFO_TEXT
}


skinparam file {
	BackgroundColor #6d6d6d-#484848
	BorderColor #0060a8
	FontColor #fefefe
}


skinparam stack {
		FontColor #C8Ac00
	BorderColor #333333
	BackgroundColor #333333-#333333
}

    
    title "com.telenav.kivakit.logs.server.project"
    
    KryoTypes <|- - LogsServerKryoTypes
    class LogsServerKryoTypes
    {
        - -(constructors)- -
        +LogsServerKryoTypes()
    }
    
    Project <|- - LogsServerProject
    class LogsServerProject
    {
        - -
        +LogsServerProject get()
    }
    
@enduml

PlantUML version 1.2021.01(Tue Feb 02 00:55:08 MST 2021)
(GPL source distribution)
Java Runtime: OpenJDK Runtime Environment
JVM: OpenJDK 64-Bit Server VM
Default Encoding: UTF-8
Language: en
Country: US
--></g></svg>