<?xml version="1.0" encoding="UTF-8" standalone="no"?><svg xmlns="http://www.w3.org/2000/svg" xmlns:xlink="http://www.w3.org/1999/xlink" contentScriptType="application/ecmascript" contentStyleType="text/css" height="326.0417px" preserveAspectRatio="none" style="width:1162px;height:326px;background:#333333;" version="1.1" viewBox="0 0 1162 326" width="1162.5px" zoomAndPan="magnify"><defs/><g><rect fill="#48494B" height="41.2028" rx="8.3333" ry="8.3333" style="stroke:#545454;stroke-width:1.0416666666666667;" width="542.7083" x="302.8646" y="2.0833"/><text fill="#C0C0C0" font-family="Open Sans,Avenir,Nunito,Arial,Helvetica,SansSerif" font-size="20.8333" lengthAdjust="spacing" textLength="519.7917" x="314.3229" y="30.5583">com.telenav.kivakit.conversion.core.language.object</text><!--MD5=[49cb82784bdaaeaf775aba6c21cf90c7]
class BaseConverter--><rect codeLine="7" fill="#282828" height="48.055" id="BaseConverter" rx="8.3333" ry="8.3333" style="stroke:#5E5E5E;stroke-width:1.0416666666666667;" width="131.25" x="73.4375" y="53.7028"/><rect fill="#1B1B1A" height="31.3883" rx="8.3333" ry="8.3333" style="stroke:#1B1B1A;stroke-width:1.0416666666666667;" width="131.25" x="73.4375" y="53.7028"/><rect fill="#1B1B1A" height="8.3333" style="stroke:#1B1B1A;stroke-width:1.0416666666666667;" width="131.25" x="73.4375" y="76.7578"/><rect codeLine="7" fill="none" height="48.055" id="BaseConverter" rx="8.3333" ry="8.3333" style="stroke:#5E5E5E;stroke-width:1.0416666666666667;" width="131.25" x="73.4375" y="53.7028"/><ellipse cx="88.0208" cy="69.397" fill="#C8AC00" rx="10.4167" ry="10.4167" style="stroke:#D8BC00;stroke-width:1.0416666666666667;"/><path d="M87.6139,66.099 L86.7655,69.8283 L88.4684,69.8283 Z M86.5153,64.4511 L88.7187,64.4511 L91.1784,73.5636 L89.3778,73.5636 L88.8163,71.3114 L86.4054,71.3114 L85.8561,73.5636 L84.0556,73.5636 Z " fill="#000000"/><text fill="#D8BC00" font-family="Open Sans,Avenir,Nunito,Arial,Helvetica,SansSerif" font-size="12.5" font-style="italic" font-weight="bold" lengthAdjust="spacing" textLength="93.75" x="104.6875" y="74.1211">BaseConverter</text><line style="stroke:#5E5E5E;stroke-width:1.0416666666666667;" x1="74.4792" x2="203.6458" y1="85.0911" y2="85.0911"/><line style="stroke:#5E5E5E;stroke-width:1.0416666666666667;" x1="74.4792" x2="203.6458" y1="93.4245" y2="93.4245"/><!--MD5=[762aa3d0df6a9d47bd8e105afbd066b5]
class BaseRepeater--><rect codeLine="8" fill="#282828" height="48.055" id="BaseRepeater" rx="8.3333" ry="8.3333" style="stroke:#5E5E5E;stroke-width:1.0416666666666667;" width="123.9583" x="419.7917" y="53.7028"/><rect fill="#1B1B1A" height="31.3883" rx="8.3333" ry="8.3333" style="stroke:#1B1B1A;stroke-width:1.0416666666666667;" width="123.9583" x="419.7917" y="53.7028"/><rect fill="#1B1B1A" height="8.3333" style="stroke:#1B1B1A;stroke-width:1.0416666666666667;" width="123.9583" x="419.7917" y="76.7578"/><rect codeLine="8" fill="none" height="48.055" id="BaseRepeater" rx="8.3333" ry="8.3333" style="stroke:#5E5E5E;stroke-width:1.0416666666666667;" width="123.9583" x="419.7917" y="53.7028"/><ellipse cx="434.375" cy="69.397" fill="#C8AC00" rx="10.4167" ry="10.4167" style="stroke:#D8BC00;stroke-width:1.0416666666666667;"/><path d="M433.9681,66.099 L433.1197,69.8283 L434.8226,69.8283 Z M432.8695,64.4511 L435.0728,64.4511 L437.5326,73.5636 L435.732,73.5636 L435.1705,71.3114 L432.7596,71.3114 L432.2103,73.5636 L430.4097,73.5636 Z " fill="#000000"/><text fill="#D8BC00" font-family="Open Sans,Avenir,Nunito,Arial,Helvetica,SansSerif" font-size="12.5" font-style="italic" font-weight="bold" lengthAdjust="spacing" textLength="86.4583" x="451.0417" y="74.1211">BaseRepeater</text><line style="stroke:#5E5E5E;stroke-width:1.0416666666666667;" x1="420.8333" x2="542.7083" y1="85.0911" y2="85.0911"/><line style="stroke:#5E5E5E;stroke-width:1.0416666666666667;" x1="420.8333" x2="542.7083" y1="93.4245" y2="93.4245"/><!--MD5=[186ac110902987c59bfd4cd54ce6560a]
class ConvertedProperty--><rect codeLine="10" fill="#282828" height="48.055" id="ConvertedProperty" rx="8.3333" ry="8.3333" style="stroke:#5E5E5E;stroke-width:1.0416666666666667;" width="158.3333" x="627.6042" y="53.7028"/><rect fill="#1B1B1A" height="31.3883" rx="8.3333" ry="8.3333" style="stroke:#1B1B1A;stroke-width:1.0416666666666667;" width="158.3333" x="627.6042" y="53.7028"/><rect fill="#1B1B1A" height="8.3333" style="stroke:#1B1B1A;stroke-width:1.0416666666666667;" width="158.3333" x="627.6042" y="76.7578"/><rect codeLine="10" fill="none" height="48.055" id="ConvertedProperty" rx="8.3333" ry="8.3333" style="stroke:#5E5E5E;stroke-width:1.0416666666666667;" width="158.3333" x="627.6042" y="53.7028"/><ellipse cx="642.1875" cy="69.397" fill="#3380B9" rx="10.4167" ry="10.4167" style="stroke:#004D86;stroke-width:1.0416666666666667;"/><path d="M643.9596,69.456 Q643.9596,68.7663 643.6483,68.3757 Q643.337,67.985 642.7938,67.985 Q642.2506,67.985 641.9423,68.3757 Q641.6341,68.7663 641.6341,69.456 Q641.6341,70.1518 641.9423,70.5424 Q642.2506,70.933 642.7938,70.933 Q643.337,70.933 643.6483,70.5424 Q643.9596,70.1518 643.9596,69.456 Z M645.0948,71.9584 L643.8985,71.9584 L643.8985,71.4579 Q643.6666,71.7814 643.3523,71.9309 Q643.0379,72.0805 642.5985,72.0805 Q641.5975,72.0805 640.9841,71.3603 Q640.3707,70.6401 640.3707,69.456 Q640.3707,68.278 640.981,67.5608 Q641.5914,66.8437 642.5985,66.8437 Q643.0318,66.8437 643.3614,66.9932 Q643.691,67.1427 643.8985,67.4296 L643.8985,67.1794 Q643.8985,66.3493 643.4438,65.8976 Q642.9891,65.446 642.1468,65.446 Q640.8773,65.446 640.0747,66.5629 Q639.2721,67.6799 639.2721,69.4682 Q639.2721,71.342 640.1998,72.4497 Q641.1275,73.5575 642.6717,73.5575 Q643.16,73.5575 643.6178,73.4141 Q644.0755,73.2707 644.4967,72.9838 L645.0582,74.058 Q644.5638,74.3937 643.9809,74.5616 Q643.398,74.7294 642.7327,74.7294 Q640.5965,74.7294 639.327,73.3073 Q638.0575,71.8852 638.0575,69.4682 Q638.0575,67.1061 639.1988,65.6871 Q640.3402,64.268 642.2201,64.268 Q643.5506,64.268 644.3227,65.0706 Q645.0948,65.8732 645.0948,67.2587 Z " fill="#000000"/><text fill="#D8BC00" font-family="Open Sans,Avenir,Nunito,Arial,Helvetica,SansSerif" font-size="12.5" font-weight="bold" lengthAdjust="spacing" textLength="120.8333" x="658.8542" y="74.1211">ConvertedProperty</text><line style="stroke:#5E5E5E;stroke-width:1.0416666666666667;" x1="628.6458" x2="784.8958" y1="85.0911" y2="85.0911"/><line style="stroke:#5E5E5E;stroke-width:1.0416666666666667;" x1="628.6458" x2="784.8958" y1="93.4245" y2="93.4245"/><!--MD5=[b676fe72474e639739a7db79de703f29]
class PropertySet--><rect fill="#282828" height="48.055" id="PropertySet" rx="8.3333" ry="8.3333" style="stroke:#5E5E5E;stroke-width:1.0416666666666667;" width="111.4583" x="868.75" y="53.7028"/><rect fill="#1B1B1A" height="31.3883" rx="8.3333" ry="8.3333" style="stroke:#1B1B1A;stroke-width:1.0416666666666667;" width="111.4583" x="868.75" y="53.7028"/><rect fill="#1B1B1A" height="8.3333" style="stroke:#1B1B1A;stroke-width:1.0416666666666667;" width="111.4583" x="868.75" y="76.7578"/><rect fill="none" height="48.055" id="PropertySet" rx="8.3333" ry="8.3333" style="stroke:#5E5E5E;stroke-width:1.0416666666666667;" width="111.4583" x="868.75" y="53.7028"/><ellipse cx="883.3333" cy="69.397" fill="#0066CF" rx="10.4167" ry="10.4167" style="stroke:#0086EF;stroke-width:1.0416666666666667;"/><path d="M885.2437,73.822 Q884.8165,74.0417 884.3465,74.1516 Q883.8765,74.2615 883.3577,74.2615 Q881.5145,74.2615 880.544,73.0469 Q879.5736,71.8323 879.5736,69.5374 Q879.5736,67.2363 880.544,66.0217 Q881.5145,64.8071 883.3577,64.8071 Q883.8765,64.8071 884.3526,64.917 Q884.8287,65.0269 885.2437,65.2466 L885.2437,67.2485 Q884.7799,66.8213 884.3435,66.6229 Q883.9071,66.4246 883.4432,66.4246 Q882.4544,66.4246 881.9509,67.2089 Q881.4473,67.9932 881.4473,69.5374 Q881.4473,71.0754 881.9509,71.8597 Q882.4544,72.644 883.4432,72.644 Q883.9071,72.644 884.3435,72.4457 Q884.7799,72.2473 885.2437,71.8201 Z " fill="#000000"/><text fill="#D8BC00" font-family="Open Sans,Avenir,Nunito,Arial,Helvetica,SansSerif" font-size="12.5" font-weight="bold" lengthAdjust="spacing" textLength="73.9583" x="900" y="74.1211">PropertySet</text><line style="stroke:#5E5E5E;stroke-width:1.0416666666666667;" x1="869.7917" x2="979.1667" y1="85.0911" y2="85.0911"/><line style="stroke:#5E5E5E;stroke-width:1.0416666666666667;" x1="869.7917" x2="979.1667" y1="93.4245" y2="93.4245"/><!--MD5=[daa09ae4b30109633e8cb7d78499db5f]
class ConvertedPropertySet--><rect codeLine="13" fill="#282828" height="83.3781" id="ConvertedPropertySet" rx="8.3333" ry="8.3333" style="stroke:#5E5E5E;stroke-width:1.0416666666666667;" width="462.5" x="693.2292" y="200.057"/><rect fill="#1B1B1A" height="31.3883" rx="8.3333" ry="8.3333" style="stroke:#1B1B1A;stroke-width:1.0416666666666667;" width="462.5" x="693.2292" y="200.057"/><rect fill="#1B1B1A" height="8.3333" style="stroke:#1B1B1A;stroke-width:1.0416666666666667;" width="462.5" x="693.2292" y="223.112"/><rect codeLine="13" fill="none" height="83.3781" id="ConvertedPropertySet" rx="8.3333" ry="8.3333" style="stroke:#5E5E5E;stroke-width:1.0416666666666667;" width="462.5" x="693.2292" y="200.057"/><ellipse cx="846.875" cy="215.7511" fill="#0066CF" rx="10.4167" ry="10.4167" style="stroke:#0086EF;stroke-width:1.0416666666666667;"/><path d="M848.7854,220.1762 Q848.3582,220.3959 847.8882,220.5058 Q847.4182,220.6156 846.8994,220.6156 Q845.0562,220.6156 844.0857,219.401 Q843.1152,218.1864 843.1152,215.8915 Q843.1152,213.5905 844.0857,212.3759 Q845.0562,211.1613 846.8994,211.1613 Q847.4182,211.1613 847.8943,211.2712 Q848.3704,211.381 848.7854,211.6007 L848.7854,213.6027 Q848.3215,213.1755 847.8851,212.9771 Q847.4487,212.7787 846.9849,212.7787 Q845.9961,212.7787 845.4926,213.563 Q844.989,214.3473 844.989,215.8915 Q844.989,217.4296 845.4926,218.2139 Q845.9961,218.9982 846.9849,218.9982 Q847.4487,218.9982 847.8851,218.7998 Q848.3215,218.6015 848.7854,218.1742 Z " fill="#000000"/><text fill="#D8BC00" font-family="Open Sans,Avenir,Nunito,Arial,Helvetica,SansSerif" font-size="12.5" font-weight="bold" lengthAdjust="spacing" textLength="140.625" x="869.7917" y="220.4753">ConvertedPropertySet</text><line style="stroke:#5E5E5E;stroke-width:1.5625;" x1="694.2708" x2="1154.6875" y1="231.4453" y2="231.4453"/><ellipse cx="704.6875" cy="266.8152" fill="#84BE84" rx="3.125" ry="3.125" style="stroke:#038048;stroke-width:1.0416666666666667;"/><text fill="#D8BC00" font-family="Open Sans,Avenir,Nunito,Arial,Helvetica,SansSerif" font-size="11.4583" lengthAdjust="spacing" textLength="430.2083" x="716.1458" y="273.7264">ConvertedPropertySet(PropertyNamingConvention, PropertyMemberSelector)</text><line style="stroke:#5E5E5E;stroke-width:1.0416666666666667;" x1="694.2708" x2="880.7292" y1="249.6511" y2="249.6511"/><text fill="#D8BC00" font-family="Open Sans,Avenir,Nunito,Arial,Helvetica,SansSerif" font-size="11.4583" lengthAdjust="spacing" textLength="81.25" x="883.8542" y="253.4607">(constructors)</text><line style="stroke:#5E5E5E;stroke-width:1.0416666666666667;" x1="968.2292" x2="1154.6875" y1="249.6511" y2="249.6511"/><!--MD5=[f4ee37a2640f61d3ce4d0003b6e9066c]
class ObjectConverter--><rect codeLine="20" fill="#282828" height="83.3781" id="ObjectConverter" rx="8.3333" ry="8.3333" style="stroke:#5E5E5E;stroke-width:1.0416666666666667;" width="263.5417" x="7.2917" y="200.057"/><rect fill="#1B1B1A" height="31.3883" rx="8.3333" ry="8.3333" style="stroke:#1B1B1A;stroke-width:1.0416666666666667;" width="263.5417" x="7.2917" y="200.057"/><rect fill="#1B1B1A" height="8.3333" style="stroke:#1B1B1A;stroke-width:1.0416666666666667;" width="263.5417" x="7.2917" y="223.112"/><rect codeLine="20" fill="none" height="83.3781" id="ObjectConverter" rx="8.3333" ry="8.3333" style="stroke:#5E5E5E;stroke-width:1.0416666666666667;" width="263.5417" x="7.2917" y="200.057"/><ellipse cx="56.25" cy="215.7511" fill="#0066CF" rx="10.4167" ry="10.4167" style="stroke:#0086EF;stroke-width:1.0416666666666667;"/><path d="M58.1604,220.1762 Q57.7332,220.3959 57.2632,220.5058 Q56.7932,220.6156 56.2744,220.6156 Q54.4312,220.6156 53.4607,219.401 Q52.4902,218.1864 52.4902,215.8915 Q52.4902,213.5905 53.4607,212.3759 Q54.4312,211.1613 56.2744,211.1613 Q56.7932,211.1613 57.2693,211.2712 Q57.7454,211.381 58.1604,211.6007 L58.1604,213.6027 Q57.6965,213.1755 57.2601,212.9771 Q56.8237,212.7787 56.3599,212.7787 Q55.3711,212.7787 54.8676,213.563 Q54.364,214.3473 54.364,215.8915 Q54.364,217.4296 54.8676,218.2139 Q55.3711,218.9982 56.3599,218.9982 Q56.8237,218.9982 57.2601,218.7998 Q57.6965,218.6015 58.1604,218.1742 Z " fill="#000000"/><text fill="#D8BC00" font-family="Open Sans,Avenir,Nunito,Arial,Helvetica,SansSerif" font-size="12.5" font-weight="bold" lengthAdjust="spacing" textLength="105.2083" x="79.1667" y="220.4753">ObjectConverter</text><rect fill="#333333" height="23.055" style="stroke:#A0A0A0;stroke-width:1.0416666666666667;stroke-dasharray:2.0,2.0;" width="43.75" x="230.2083" y="196.932"/><text fill="#A0A0A0" font-family="Open Sans,Avenir,Nunito,Arial,Helvetica,SansSerif" font-size="12.5" font-weight="bold" lengthAdjust="spacing" textLength="35.4167" x="234.375" y="213.1836">Value</text><line style="stroke:#5E5E5E;stroke-width:1.5625;" x1="8.3333" x2="269.7917" y1="231.4453" y2="231.4453"/><ellipse cx="18.75" cy="266.8152" fill="#84BE84" rx="3.125" ry="3.125" style="stroke:#038048;stroke-width:1.0416666666666667;"/><text fill="#D8BC00" font-family="Open Sans,Avenir,Nunito,Arial,Helvetica,SansSerif" font-size="11.4583" lengthAdjust="spacing" textLength="231.25" x="30.2083" y="273.7264">ObjectConverter(Listener, Class&lt;Value&gt;)</text><line style="stroke:#5E5E5E;stroke-width:1.0416666666666667;" x1="8.3333" x2="95.3125" y1="249.6511" y2="249.6511"/><text fill="#D8BC00" font-family="Open Sans,Avenir,Nunito,Arial,Helvetica,SansSerif" font-size="11.4583" lengthAdjust="spacing" textLength="81.25" x="98.4375" y="253.4607">(constructors)</text><line style="stroke:#5E5E5E;stroke-width:1.0416666666666667;" x1="182.8125" x2="269.7917" y1="249.6511" y2="249.6511"/><!--MD5=[a41c7a71ec1e77d6e5dd041281c68324]
class ObjectPopulator--><rect codeLine="27" fill="#282828" height="155.1127" id="ObjectPopulator" rx="8.3333" ry="8.3333" style="stroke:#5E5E5E;stroke-width:1.0416666666666667;" width="348.9583" x="307.2917" y="164.1195"/><rect fill="#1B1B1A" height="31.3883" rx="8.3333" ry="8.3333" style="stroke:#1B1B1A;stroke-width:1.0416666666666667;" width="348.9583" x="307.2917" y="164.1195"/><rect fill="#1B1B1A" height="8.3333" style="stroke:#1B1B1A;stroke-width:1.0416666666666667;" width="348.9583" x="307.2917" y="187.1745"/><rect codeLine="27" fill="none" height="155.1127" id="ObjectPopulator" rx="8.3333" ry="8.3333" style="stroke:#5E5E5E;stroke-width:1.0416666666666667;" width="348.9583" x="307.2917" y="164.1195"/><ellipse cx="422.3958" cy="179.8136" fill="#0066CF" rx="10.4167" ry="10.4167" style="stroke:#0086EF;stroke-width:1.0416666666666667;"/><path d="M424.3062,184.2387 Q423.879,184.4584 423.409,184.5683 Q422.939,184.6781 422.4202,184.6781 Q420.577,184.6781 419.6065,183.4635 Q418.6361,182.2489 418.6361,179.954 Q418.6361,177.653 419.6065,176.4384 Q420.577,175.2238 422.4202,175.2238 Q422.939,175.2238 423.4151,175.3337 Q423.8912,175.4435 424.3062,175.6632 L424.3062,177.6652 Q423.8424,177.238 423.406,177.0396 Q422.9696,176.8412 422.5057,176.8412 Q421.5169,176.8412 421.0134,177.6255 Q420.5098,178.4098 420.5098,179.954 Q420.5098,181.4921 421.0134,182.2764 Q421.5169,183.0607 422.5057,183.0607 Q422.9696,183.0607 423.406,182.8623 Q423.8424,182.664 424.3062,182.2367 Z " fill="#000000"/><text fill="#D8BC00" font-family="Open Sans,Avenir,Nunito,Arial,Helvetica,SansSerif" font-size="12.5" font-weight="bold" lengthAdjust="spacing" textLength="104.1667" x="445.3125" y="184.5378">ObjectPopulator</text><line style="stroke:#5E5E5E;stroke-width:1.5625;" x1="308.3333" x2="655.2083" y1="195.5078" y2="195.5078"/><ellipse cx="318.75" cy="230.8777" fill="#84BE84" rx="3.125" ry="3.125" style="stroke:#038048;stroke-width:1.0416666666666667;"/><text fill="#D8BC00" font-family="Open Sans,Avenir,Nunito,Arial,Helvetica,SansSerif" font-size="11.4583" lengthAdjust="spacing" textLength="316.6667" x="330.2083" y="237.7889">ObjectPopulator(PropertyFilter, Source&lt;PropertyValue&gt;)</text><line style="stroke:#5E5E5E;stroke-width:1.0416666666666667;" x1="308.3333" x2="438.0208" y1="213.7136" y2="213.7136"/><text fill="#D8BC00" font-family="Open Sans,Avenir,Nunito,Arial,Helvetica,SansSerif" font-size="11.4583" lengthAdjust="spacing" textLength="81.25" x="441.1458" y="217.5232">(constructors)</text><line style="stroke:#5E5E5E;stroke-width:1.0416666666666667;" x1="525.5208" x2="655.2083" y1="213.7136" y2="213.7136"/><line style="stroke:#5E5E5E;stroke-width:1.0416666666666667;" x1="308.3333" x2="655.2083" y1="247.4976" y2="247.4976"/><ellipse cx="318.75" cy="258.9559" fill="#84BE84" rx="3.125" ry="3.125" style="stroke:#038048;stroke-width:1.0416666666666667;"/><text fill="#D8BC00" font-family="Open Sans,Avenir,Nunito,Arial,Helvetica,SansSerif" font-size="11.4583" lengthAdjust="spacing" textLength="112.5" x="330.2083" y="265.8671">T populate(T object)</text><ellipse cx="318.75" cy="302.6123" fill="#84BE84" rx="3.125" ry="3.125" style="stroke:#038048;stroke-width:1.0416666666666667;"/><text fill="#D8BC00" font-family="Open Sans,Avenir,Nunito,Arial,Helvetica,SansSerif" font-size="11.4583" lengthAdjust="spacing" textLength="161.4583" x="330.2083" y="309.5235">boolean isOptional(Property)</text><line style="stroke:#5E5E5E;stroke-width:1.0416666666666667;" x1="308.3333" x2="455.2083" y1="285.4482" y2="285.4482"/><text fill="#D8BC00" font-family="Open Sans,Avenir,Nunito,Arial,Helvetica,SansSerif" font-size="11.4583" lengthAdjust="spacing" textLength="46.875" x="458.3333" y="289.2578">(checks)</text><line style="stroke:#5E5E5E;stroke-width:1.0416666666666667;" x1="508.3333" x2="655.2083" y1="285.4482" y2="285.4482"/><!--MD5=[5d238e01b62aaab91a24771d536d237f]
reverse link PropertySet to ConvertedPropertySet--><path codeLine="12" d="M924.4792,124.3174 C924.4792,147.9945 924.4792,176.6924 924.4792,199.6611 " fill="none" id="PropertySet-backto-ConvertedPropertySet" style="stroke:#545454;stroke-width:1.5625;"/><polygon fill="none" points="917.1875,124.3174,924.4792,103.484,931.7708,124.3174,917.1875,124.3174" style="stroke:#545454;stroke-width:1.5625;"/><!--MD5=[bf825471bb08f5f856806fdbd512d1ba]
reverse link BaseConverter to ObjectConverter--><path codeLine="19" d="M139.0625,124.3174 C139.0625,147.9945 139.0625,176.6924 139.0625,199.6611 " fill="none" id="BaseConverter-backto-ObjectConverter" style="stroke:#545454;stroke-width:1.5625;"/><polygon fill="none" points="131.7708,124.3174,139.0625,103.484,146.3542,124.3174,131.7708,124.3174" style="stroke:#545454;stroke-width:1.5625;"/><!--MD5=[ddea3ffe715687ef215e6310dd044618]
reverse link BaseRepeater to ObjectPopulator--><path codeLine="26" d="M481.7708,124.1507 C481.7708,136.4632 481.7708,150.1611 481.7708,163.6924 " fill="none" id="BaseRepeater-backto-ObjectPopulator" style="stroke:#545454;stroke-width:1.5625;"/><polygon fill="none" points="474.4792,124.3174,481.7708,103.484,489.0625,124.3174,474.4792,124.3174" style="stroke:#545454;stroke-width:1.5625;"/><!--MD5=[239c10652cf0d2dbf3490c762e4ef3d1]
@startuml

    !include lexakai.theme
    
    title "com.telenav.kivakit.conversion.core.language.object"
    
    abstract BaseConverter
    abstract BaseRepeater
    
    annotation ConvertedProperty
    
    PropertySet <|- - ConvertedPropertySet
    class ConvertedPropertySet
    {
        - -(constructors)- -
        +ConvertedPropertySet(PropertyNamingConvention, PropertyMemberSelector)
    }
    
    BaseConverter <|- - ObjectConverter
    class ObjectConverter<Value>
    {
        - -(constructors)- -
        +ObjectConverter(Listener, Class<Value>)
    }
    
    BaseRepeater <|- - ObjectPopulator
    class ObjectPopulator
    {
        - -(constructors)- -
        +ObjectPopulator(PropertyFilter, Source<PropertyValue>)
        - -
        +T populate(T object)
        - -(checks)- -
        +boolean isOptional(Property)
    }
    
@enduml

@startuml









skinparam backgroundColor #333333






skinparam  {
    defaultFontName   "Open Sans,Avenir,Nunito,Arial,Helvetica,SansSerif"
    defaultFontSize   12
    defaultTextAlignment left
    shadowing false
    RoundCorner 10
    TitleFontSize 18
}

skinparam defaultFontName       "Open Sans,Avenir,Nunito,Arial,Helvetica,SansSerif"
skinparam defaultFontSize       12
skinparam dpi                   100
skinparam shadowing             false
skinparam roundcorner           16
skinparam ParticipantPadding    40
skinparam BoxPadding            40
skinparam Padding               3
skinparam ArrowColor            #545454
skinparam stereotype {
    CBackgroundColor #0066cf
    CBorderColor #0086ef
    ABackgroundColor #C8Ac00
    ABorderColor #D8Bc00
    IBackgroundColor #008400
    IBorderColor #239c23
    EBackgroundColor #cf6300
    EBorderColor #ef8300
    NBackgroundColor #3380b9
    NBorderColor #004d86
}
skinparam title {
	FontColor	                 #c0c0c0
 	BorderColor                  #545454
	FontSize	    	         20
	BorderRoundCorner            16
	BorderThickness 	         1
	BackgroundColor              #48494b
}


skinparam legend {
	BackgroundColor #303030
	BorderColor #404040
	FontColor #a0a0a0
}

	skinparam swimlane {
	BorderColor #5e5e5e
	BorderThickness 2
	TitleBackgroundColor  #6d6d6d-#484848
	TitleFontColor #303030
}

skinparam activity {
		FontColor #C8Ac00
	BorderColor #333333
	BackgroundColor #333333-#333333
	BarColor #00FF00
	StartColor #0060a8
	EndColor #0060a8
	DiamondBackgroundColor #6d6d6d-#3a3a3a
  	DiamondBorderColor #3a3a3a
  	DiamondFontColor #fefefe
}


skinparam participant {
		FontColor #C8Ac00
	BorderColor #333333
	BackgroundColor #333333-#333333
	ParticipantBorderThickness 2
}


skinparam actor {
		FontColor #C8Ac00
	BorderColor #333333
	BackgroundColor #333333-#333333
}


skinparam arrow {
	Thickness 1.5
	Color #545454
	FontColor #a0a0a0
    FontStyle bold
    MessageAlignment center
}



skinparam sequence {
	BorderColor #303030
	TitleFontColor #303030
	BackgroundColor #333333
	StartColor #303030
	EndColor #303030
	BoxBackgroundColor #333333
	BoxBorderColor #484848
	BoxFontColor #484848
	LifeLineBorderColor #484848
	LifeLineBorderThickness 2
	LifeLineBackgroundColor #3a3a3a
	GroupBorderColor #484848
	GroupFontColor #484848
	GroupHeaderFontColor #0060a8
	GroupBackgroundColor #484848
	GroupHeaderBackgroundColor #333333
	DividerBackgroundColor #484848
    DividerBorderColor #484848
    DividerBorderThickness 2
    DividerFontColor #D8Bc00
	ReferenceBackgroundColor #333333
	ReferenceBorderColor #484848
	ReferenceFontColor #fefefe
	ReferenceHeaderBackgroundColor #484848
}


skinparam partition {
	BorderColor #303030
	FontColor #333333
	BackgroundColor #333333
}


skinparam collections {
		FontColor #C8Ac00
	BorderColor #333333
	BackgroundColor #333333-#333333
}


skinparam control {
		FontColor #C8Ac00
	BorderColor #333333
	BackgroundColor #333333-#333333
}


skinparam entity {
		FontColor #C8Ac00
	BorderColor #333333
	BackgroundColor #333333-#333333
}


skinparam boundary {
		FontColor #C8Ac00
	BorderColor #333333
	BackgroundColor #333333-#333333
}


skinparam agent {
	BackgroundColor #ff8000
	BorderColor #ff9933
	FontColor #484848
}


skinparam note {
	BorderThickness 1
	BackgroundColor #1b1b1a
	BorderColor #5e5e5e
	FontSize 11
	FontColor #a0a0a0
}


skinparam artifact {
	BorderThickness 10
	BorderColor #5e5e5e
	BackgroundColor #1b1b1a
	FontColor #D8Bc00
}


skinparam component {
		FontColor #C8Ac00
	BorderColor #333333
	BackgroundColor #333333-#333333
}


skinparam interface {
	BackgroundColor  #008400
	BorderColor  #007F00
	FontColor #484848
}


skinparam storage {
	BackgroundColor #ff8000
  	BorderColor #cc6600
	FontColor #222222
}


skinparam node {
	BackgroundColor #333333
	BorderColor #333333
	FontColor #C8Ac00
}


skinparam cloud {
	BackgroundColor #484848-black
	BorderColor #484848
	FontColor #D8Bc00
}


skinparam database {
		FontColor #C8Ac00
	BorderColor #333333
	BackgroundColor #333333-#333333
	BackgroundColor  #333333
}


skinparam class {
		FontColor #C8Ac00
	BorderColor #333333
	BackgroundColor #333333-#333333
	HeaderBackgroundColor #1b1b1a
    BackgroundColor #282828
    BorderColor #5e5e5e
 	StereotypeFontColor #a0a0a0
    StereotypeFontStyle bold
	BorderThickness 1
	AttributeFontColor #D8Bc00
	AttributeFontSize 11
    FontColor #D8Bc00
    FontStyle bold
}


skinparam object {
		FontColor #C8Ac00
	BorderColor #333333
	BackgroundColor #333333-#333333
	StereotypeFontColor #484848
	BorderThickness 1
	AttributeFontColor #fefefe
	AttributeFontSize 11
}


skinparam usecase {
		FontColor #C8Ac00
	BorderColor #333333
	BackgroundColor #333333-#333333
	BorderThickness 2
	StereotypeFontColor #303030
}


skinparam rectangle {
		FontColor #C8Ac00
	BorderColor #333333
	BackgroundColor #333333-#333333
	BackgroundColor #333333
	BorderThickness 2
	StereotypeFontColor #303030
}


skinparam package {
		FontColor #C8Ac00
	BorderColor #333333
	BackgroundColor #333333-#333333
	BackgroundColor #333333
	BorderThickness 2
}


skinparam folder {
	BackgroundColor #6d6d6d
  	BorderColor #ff8000
	FontColor #ff8000
	BorderThickness 2
}


skinparam frame {
	BackgroundColor #6d6d6d
  	BorderColor #0060a8
	FontColor #0060a8
	BorderThickness 2
}


skinparam state {
		FontColor #C8Ac00
	BorderColor #333333
	BackgroundColor #333333-#333333
	StartColor #0060a8
	EndColor #0060a8
	AttributeFontColor #fefefe
	AttributeFontSize 11
}


skinparam queue {
		FontColor #C8Ac00
	BorderColor #333333
	BackgroundColor #333333-#333333
}


skinparam card {
	BackgroundColor #0060a8
	BorderColor #004d86
	FontColor $INFO_TEXT
}


skinparam file {
	BackgroundColor #6d6d6d-#484848
	BorderColor #0060a8
	FontColor #fefefe
}


skinparam stack {
		FontColor #C8Ac00
	BorderColor #333333
	BackgroundColor #333333-#333333
}

    
    title "com.telenav.kivakit.conversion.core.language.object"
    
    abstract BaseConverter
    abstract BaseRepeater
    
    annotation ConvertedProperty
    
    PropertySet <|- - ConvertedPropertySet
    class ConvertedPropertySet
    {
        - -(constructors)- -
        +ConvertedPropertySet(PropertyNamingConvention, PropertyMemberSelector)
    }
    
    BaseConverter <|- - ObjectConverter
    class ObjectConverter<Value>
    {
        - -(constructors)- -
        +ObjectConverter(Listener, Class<Value>)
    }
    
    BaseRepeater <|- - ObjectPopulator
    class ObjectPopulator
    {
        - -(constructors)- -
        +ObjectPopulator(PropertyFilter, Source<PropertyValue>)
        - -
        +T populate(T object)
        - -(checks)- -
        +boolean isOptional(Property)
    }
    
@enduml

PlantUML version 1.2021.01(Tue Feb 02 00:55:08 MST 2021)
(GPL source distribution)
Java Runtime: OpenJDK Runtime Environment
JVM: OpenJDK 64-Bit Server VM
Default Encoding: UTF-8
Language: en
Country: US
--></g></svg>