<?xml version="1.0" encoding="UTF-8" standalone="no"?><svg xmlns="http://www.w3.org/2000/svg" xmlns:xlink="http://www.w3.org/1999/xlink" contentScriptType="application/ecmascript" contentStyleType="text/css" height="218.75px" preserveAspectRatio="none" style="width:462px;height:218px;background:#333333;" version="1.1" viewBox="0 0 462 218" width="462.5px" zoomAndPan="magnify"><defs/><g><rect fill="#48494B" height="41.2028" rx="8.3333" ry="8.3333" style="stroke:#545454;stroke-width:1.0416666666666667;" width="450" x="2.0833" y="2.0833"/><text fill="#C0C0C0" font-family="Open Sans,Avenir,Nunito,Arial,Helvetica,SansSerif" font-size="20.8333" lengthAdjust="spacing" textLength="427.0833" x="13.5417" y="30.5583">com.telenav.kivakit.mixins.internal.lexakai</text><rect codeLine="7" fill="#282828" height="48.055" id="UmlDiagramIdentifier" rx="8.3333" ry="8.3333" style="stroke:#5E5E5E;stroke-width:1.0416666666666667;" width="178.125" x="145.3125" y="53.7028"/><rect fill="#1B1B1A" height="31.3883" rx="8.3333" ry="8.3333" style="stroke:#1B1B1A;stroke-width:1.0416666666666667;" width="178.125" x="145.3125" y="53.7028"/><rect fill="#1B1B1A" height="8.3333" style="stroke:#1B1B1A;stroke-width:1.0416666666666667;" width="178.125" x="145.3125" y="76.7578"/><rect codeLine="7" fill="none" height="48.055" id="UmlDiagramIdentifier" rx="8.3333" ry="8.3333" style="stroke:#5E5E5E;stroke-width:1.0416666666666667;" width="178.125" x="145.3125" y="53.7028"/><ellipse cx="159.8958" cy="69.397" fill="#008400" rx="10.4167" ry="10.4167" style="stroke:#239C23;stroke-width:1.0416666666666667;"/><path d="M157.2998,66.5588 L157.2998,64.9719 L162.7258,64.9719 L162.7258,66.5588 L160.9131,66.5588 L160.9131,72.4976 L162.7258,72.4976 L162.7258,74.0845 L157.2998,74.0845 L157.2998,72.4976 L159.1125,72.4976 L159.1125,66.5588 Z " fill="#000000"/><text fill="#D8BC00" font-family="Open Sans,Avenir,Nunito,Arial,Helvetica,SansSerif" font-size="12.5" font-style="italic" font-weight="bold" lengthAdjust="spacing" textLength="140.625" x="176.5625" y="74.1211">UmlDiagramIdentifier</text><line style="stroke:#5E5E5E;stroke-width:1.0416666666666667;" x1="146.3542" x2="322.3958" y1="85.0911" y2="85.0911"/><line style="stroke:#5E5E5E;stroke-width:1.0416666666666667;" x1="146.3542" x2="322.3958" y1="93.4245" y2="93.4245"/><rect codeLine="10" fill="#282828" height="48.055" id="DiagramMixin" rx="8.3333" ry="8.3333" style="stroke:#5E5E5E;stroke-width:1.0416666666666667;" width="128.125" x="170.3125" y="164.1195"/><rect fill="#1B1B1A" height="31.3883" rx="8.3333" ry="8.3333" style="stroke:#1B1B1A;stroke-width:1.0416666666666667;" width="128.125" x="170.3125" y="164.1195"/><rect fill="#1B1B1A" height="8.3333" style="stroke:#1B1B1A;stroke-width:1.0416666666666667;" width="128.125" x="170.3125" y="187.1745"/><rect codeLine="10" fill="none" height="48.055" id="DiagramMixin" rx="8.3333" ry="8.3333" style="stroke:#5E5E5E;stroke-width:1.0416666666666667;" width="128.125" x="170.3125" y="164.1195"/><ellipse cx="184.8958" cy="179.8136" fill="#0066CF" rx="10.4167" ry="10.4167" style="stroke:#0086EF;stroke-width:1.0416666666666667;"/><path d="M186.8062,184.2387 Q186.379,184.4584 185.909,184.5683 Q185.439,184.6781 184.9202,184.6781 Q183.077,184.6781 182.1065,183.4635 Q181.1361,182.2489 181.1361,179.954 Q181.1361,177.653 182.1065,176.4384 Q183.077,175.2238 184.9202,175.2238 Q185.439,175.2238 185.9151,175.3337 Q186.3912,175.4435 186.8062,175.6632 L186.8062,177.6652 Q186.3424,177.238 185.906,177.0396 Q185.4696,176.8412 185.0057,176.8412 Q184.0169,176.8412 183.5134,177.6255 Q183.0098,178.4098 183.0098,179.954 Q183.0098,181.4921 183.5134,182.2764 Q184.0169,183.0607 185.0057,183.0607 Q185.4696,183.0607 185.906,182.8623 Q186.3424,182.664 186.8062,182.2367 Z " fill="#000000"/><text fill="#D8BC00" font-family="Open Sans,Avenir,Nunito,Arial,Helvetica,SansSerif" font-size="12.5" font-weight="bold" lengthAdjust="spacing" textLength="90.625" x="201.5625" y="184.5378">DiagramMixin</text><line style="stroke:#5E5E5E;stroke-width:1.0416666666666667;" x1="171.3542" x2="297.3958" y1="195.5078" y2="195.5078"/><line style="stroke:#5E5E5E;stroke-width:1.0416666666666667;" x1="171.3542" x2="297.3958" y1="203.8411" y2="203.8411"/><path codeLine="9" d="M234.375,122.6195 C234.375,136.8382 234.375,152.0361 234.375,164.0986 " fill="none" id="UmlDiagramIdentifier-backto-DiagramMixin" style="stroke:#545454;stroke-width:1.5625;"/><polygon fill="none" points="227.0833,122.5153,234.375,101.682,241.6667,122.5153,227.0833,122.5153" style="stroke:#545454;stroke-width:1.5625;"/></g></svg>
