<?xml version="1.0" encoding="UTF-8" standalone="no"?><svg xmlns="http://www.w3.org/2000/svg" xmlns:xlink="http://www.w3.org/1999/xlink" contentScriptType="application/ecmascript" contentStyleType="text/css" height="302.0833px" preserveAspectRatio="none" style="width:1557px;height:302px;background:#333333;" version="1.1" viewBox="0 0 1557 302" width="1557.2917px" zoomAndPan="magnify"><defs/><g><rect fill="#48494B" height="41.2028" rx="8.3333" ry="8.3333" style="stroke:#545454;stroke-width:1.0416666666666667;" width="409.375" x="566.9271" y="2.0833"/><text fill="#C0C0C0" font-family="Open Sans,Avenir,Nunito,Arial,Helvetica,SansSerif" font-size="20.8333" lengthAdjust="spacing" textLength="386.4583" x="578.3854" y="30.5583">com.telenav.kivakit.resource.resources</text><!--MD5=[a895581b51b0debe0fc56e5f7d686e14]
class BaseReadableResource--><rect codeLine="7" fill="#282828" height="48.055" id="BaseReadableResource" rx="8.3333" ry="8.3333" style="stroke:#5E5E5E;stroke-width:1.0416666666666667;" width="184.375" x="404.6875" y="53.7028"/><rect fill="#1B1B1A" height="31.3883" rx="8.3333" ry="8.3333" style="stroke:#1B1B1A;stroke-width:1.0416666666666667;" width="184.375" x="404.6875" y="53.7028"/><rect fill="#1B1B1A" height="8.3333" style="stroke:#1B1B1A;stroke-width:1.0416666666666667;" width="184.375" x="404.6875" y="76.7578"/><rect codeLine="7" fill="none" height="48.055" id="BaseReadableResource" rx="8.3333" ry="8.3333" style="stroke:#5E5E5E;stroke-width:1.0416666666666667;" width="184.375" x="404.6875" y="53.7028"/><ellipse cx="419.2708" cy="69.397" fill="#C8AC00" rx="10.4167" ry="10.4167" style="stroke:#D8BC00;stroke-width:1.0416666666666667;"/><path d="M418.8639,66.099 L418.0155,69.8283 L419.7184,69.8283 Z M417.7653,64.4511 L419.9687,64.4511 L422.4284,73.5636 L420.6278,73.5636 L420.0663,71.3114 L417.6554,71.3114 L417.1061,73.5636 L415.3056,73.5636 Z " fill="#000000"/><text fill="#D8BC00" font-family="Open Sans,Avenir,Nunito,Arial,Helvetica,SansSerif" font-size="12.5" font-style="italic" font-weight="bold" lengthAdjust="spacing" textLength="146.875" x="435.9375" y="74.1211">BaseReadableResource</text><line style="stroke:#5E5E5E;stroke-width:1.0416666666666667;" x1="405.7292" x2="588.0208" y1="85.0911" y2="85.0911"/><line style="stroke:#5E5E5E;stroke-width:1.0416666666666667;" x1="405.7292" x2="588.0208" y1="93.4245" y2="93.4245"/><!--MD5=[8b5151cbe93a9a6942e91a66bba84fb0]
class BaseWritableResource--><rect codeLine="8" fill="#282828" height="48.055" id="BaseWritableResource" rx="8.3333" ry="8.3333" style="stroke:#5E5E5E;stroke-width:1.0416666666666667;" width="179.1667" x="1183.3333" y="53.7028"/><rect fill="#1B1B1A" height="31.3883" rx="8.3333" ry="8.3333" style="stroke:#1B1B1A;stroke-width:1.0416666666666667;" width="179.1667" x="1183.3333" y="53.7028"/><rect fill="#1B1B1A" height="8.3333" style="stroke:#1B1B1A;stroke-width:1.0416666666666667;" width="179.1667" x="1183.3333" y="76.7578"/><rect codeLine="8" fill="none" height="48.055" id="BaseWritableResource" rx="8.3333" ry="8.3333" style="stroke:#5E5E5E;stroke-width:1.0416666666666667;" width="179.1667" x="1183.3333" y="53.7028"/><ellipse cx="1197.9167" cy="69.397" fill="#C8AC00" rx="10.4167" ry="10.4167" style="stroke:#D8BC00;stroke-width:1.0416666666666667;"/><path d="M1197.5098,66.099 L1196.6614,69.8283 L1198.3643,69.8283 Z M1196.4111,64.4511 L1198.6145,64.4511 L1201.0742,73.5636 L1199.2737,73.5636 L1198.7122,71.3114 L1196.3013,71.3114 L1195.752,73.5636 L1193.9514,73.5636 Z " fill="#000000"/><text fill="#D8BC00" font-family="Open Sans,Avenir,Nunito,Arial,Helvetica,SansSerif" font-size="12.5" font-style="italic" font-weight="bold" lengthAdjust="spacing" textLength="141.6667" x="1214.5833" y="74.1211">BaseWritableResource</text><line style="stroke:#5E5E5E;stroke-width:1.0416666666666667;" x1="1184.375" x2="1361.4583" y1="85.0911" y2="85.0911"/><line style="stroke:#5E5E5E;stroke-width:1.0416666666666667;" x1="1184.375" x2="1361.4583" y1="93.4245" y2="93.4245"/><!--MD5=[c7c826d5760f74c577bea8f7e8e38f92]
class AutoCloseable--><rect codeLine="10" fill="#282828" height="48.055" id="AutoCloseable" rx="8.3333" ry="8.3333" style="stroke:#5E5E5E;stroke-width:1.0416666666666667;" width="132.2917" x="884.8958" y="53.7028"/><rect fill="#1B1B1A" height="31.3883" rx="8.3333" ry="8.3333" style="stroke:#1B1B1A;stroke-width:1.0416666666666667;" width="132.2917" x="884.8958" y="53.7028"/><rect fill="#1B1B1A" height="8.3333" style="stroke:#1B1B1A;stroke-width:1.0416666666666667;" width="132.2917" x="884.8958" y="76.7578"/><rect codeLine="10" fill="none" height="48.055" id="AutoCloseable" rx="8.3333" ry="8.3333" style="stroke:#5E5E5E;stroke-width:1.0416666666666667;" width="132.2917" x="884.8958" y="53.7028"/><ellipse cx="899.4792" cy="69.397" fill="#008400" rx="10.4167" ry="10.4167" style="stroke:#239C23;stroke-width:1.0416666666666667;"/><path d="M896.8831,66.5588 L896.8831,64.9719 L902.3092,64.9719 L902.3092,66.5588 L900.4964,66.5588 L900.4964,72.4976 L902.3092,72.4976 L902.3092,74.0845 L896.8831,74.0845 L896.8831,72.4976 L898.6959,72.4976 L898.6959,66.5588 Z " fill="#000000"/><text fill="#D8BC00" font-family="Open Sans,Avenir,Nunito,Arial,Helvetica,SansSerif" font-size="12.5" font-style="italic" font-weight="bold" lengthAdjust="spacing" textLength="94.7917" x="916.1458" y="74.1211">AutoCloseable</text><line style="stroke:#5E5E5E;stroke-width:1.0416666666666667;" x1="885.9375" x2="1016.1458" y1="85.0911" y2="85.0911"/><line style="stroke:#5E5E5E;stroke-width:1.0416666666666667;" x1="885.9375" x2="1016.1458" y1="93.4245" y2="93.4245"/><!--MD5=[8dcff639769147260222dc2b01cd9c47]
class InputResource--><rect codeLine="14" fill="#282828" height="83.3781" id="InputResource" rx="8.3333" ry="8.3333" style="stroke:#5E5E5E;stroke-width:1.0416666666666667;" width="189.5833" x="738.5417" y="188.0778"/><rect fill="#1B1B1A" height="31.3883" rx="8.3333" ry="8.3333" style="stroke:#1B1B1A;stroke-width:1.0416666666666667;" width="189.5833" x="738.5417" y="188.0778"/><rect fill="#1B1B1A" height="8.3333" style="stroke:#1B1B1A;stroke-width:1.0416666666666667;" width="189.5833" x="738.5417" y="211.1328"/><rect codeLine="14" fill="none" height="83.3781" id="InputResource" rx="8.3333" ry="8.3333" style="stroke:#5E5E5E;stroke-width:1.0416666666666667;" width="189.5833" x="738.5417" y="188.0778"/><ellipse cx="779.8438" cy="203.772" fill="#0066CF" rx="10.4167" ry="10.4167" style="stroke:#0086EF;stroke-width:1.0416666666666667;"/><path d="M781.7542,208.197 Q781.3269,208.4167 780.8569,208.5266 Q780.387,208.6365 779.8682,208.6365 Q778.0249,208.6365 777.0544,207.4219 Q776.084,206.2073 776.084,203.9124 Q776.084,201.6113 777.0544,200.3967 Q778.0249,199.1821 779.8682,199.1821 Q780.387,199.1821 780.863,199.292 Q781.3391,199.4019 781.7542,199.6216 L781.7542,201.6235 Q781.2903,201.1963 780.8539,200.9979 Q780.4175,200.7996 779.9536,200.7996 Q778.9648,200.7996 778.4613,201.5839 Q777.9578,202.3682 777.9578,203.9124 Q777.9578,205.4504 778.4613,206.2347 Q778.9648,207.019 779.9536,207.019 Q780.4175,207.019 780.8539,206.8207 Q781.2903,206.6223 781.7542,206.1951 Z " fill="#000000"/><text fill="#D8BC00" font-family="Open Sans,Avenir,Nunito,Arial,Helvetica,SansSerif" font-size="12.5" font-weight="bold" lengthAdjust="spacing" textLength="92.7083" x="802.4479" y="208.4961">InputResource</text><line style="stroke:#5E5E5E;stroke-width:1.5625;" x1="739.5833" x2="927.0833" y1="219.4661" y2="219.4661"/><ellipse cx="750" cy="254.836" fill="#84BE84" rx="3.125" ry="3.125" style="stroke:#038048;stroke-width:1.0416666666666667;"/><text fill="#D8BC00" font-family="Open Sans,Avenir,Nunito,Arial,Helvetica,SansSerif" font-size="11.4583" lengthAdjust="spacing" textLength="157.2917" x="761.4583" y="261.7472">InputResource(InputStream)</text><line style="stroke:#5E5E5E;stroke-width:1.0416666666666667;" x1="739.5833" x2="789.5833" y1="237.6719" y2="237.6719"/><text fill="#D8BC00" font-family="Open Sans,Avenir,Nunito,Arial,Helvetica,SansSerif" font-size="11.4583" lengthAdjust="spacing" textLength="81.25" x="792.7083" y="241.4815">(constructors)</text><line style="stroke:#5E5E5E;stroke-width:1.0416666666666667;" x1="877.0833" x2="927.0833" y1="237.6719" y2="237.6719"/><!--MD5=[7fb115a82f660c0d8f26578b4bfa98e6]
class NullResource--><rect codeLine="21" fill="#282828" height="83.3781" id="NullResource" rx="8.3333" ry="8.3333" style="stroke:#5E5E5E;stroke-width:1.0416666666666667;" width="121.875" x="1211.9792" y="188.0778"/><rect fill="#1B1B1A" height="31.3883" rx="8.3333" ry="8.3333" style="stroke:#1B1B1A;stroke-width:1.0416666666666667;" width="121.875" x="1211.9792" y="188.0778"/><rect fill="#1B1B1A" height="8.3333" style="stroke:#1B1B1A;stroke-width:1.0416666666666667;" width="121.875" x="1211.9792" y="211.1328"/><rect codeLine="21" fill="none" height="83.3781" id="NullResource" rx="8.3333" ry="8.3333" style="stroke:#5E5E5E;stroke-width:1.0416666666666667;" width="121.875" x="1211.9792" y="188.0778"/><ellipse cx="1226.5625" cy="203.772" fill="#0066CF" rx="10.4167" ry="10.4167" style="stroke:#0086EF;stroke-width:1.0416666666666667;"/><path d="M1228.4729,208.197 Q1228.0457,208.4167 1227.5757,208.5266 Q1227.1057,208.6365 1226.5869,208.6365 Q1224.7437,208.6365 1223.7732,207.4219 Q1222.8027,206.2073 1222.8027,203.9124 Q1222.8027,201.6113 1223.7732,200.3967 Q1224.7437,199.1821 1226.5869,199.1821 Q1227.1057,199.1821 1227.5818,199.292 Q1228.0579,199.4019 1228.4729,199.6216 L1228.4729,201.6235 Q1228.009,201.1963 1227.5726,200.9979 Q1227.1362,200.7996 1226.6724,200.7996 Q1225.6836,200.7996 1225.1801,201.5839 Q1224.6765,202.3682 1224.6765,203.9124 Q1224.6765,205.4504 1225.1801,206.2347 Q1225.6836,207.019 1226.6724,207.019 Q1227.1362,207.019 1227.5726,206.8207 Q1228.009,206.6223 1228.4729,206.1951 Z " fill="#000000"/><text fill="#D8BC00" font-family="Open Sans,Avenir,Nunito,Arial,Helvetica,SansSerif" font-size="12.5" font-weight="bold" lengthAdjust="spacing" textLength="84.375" x="1243.2292" y="208.4961">NullResource</text><line style="stroke:#5E5E5E;stroke-width:1.5625;" x1="1213.0208" x2="1332.8125" y1="219.4661" y2="219.4661"/><ellipse cx="1223.4375" cy="254.836" fill="#84BE84" rx="3.125" ry="3.125" style="stroke:#038048;stroke-width:1.0416666666666667;"/><text fill="#D8BC00" font-family="Open Sans,Avenir,Nunito,Arial,Helvetica,SansSerif" font-size="11.4583" lengthAdjust="spacing" textLength="82.2917" x="1234.8958" y="261.7472">NullResource()</text><line style="stroke:#5E5E5E;stroke-width:1.0416666666666667;" x1="1213.0208" x2="1229.1667" y1="237.6719" y2="237.6719"/><text fill="#D8BC00" font-family="Open Sans,Avenir,Nunito,Arial,Helvetica,SansSerif" font-size="11.4583" lengthAdjust="spacing" textLength="81.25" x="1232.2917" y="241.4815">(constructors)</text><line style="stroke:#5E5E5E;stroke-width:1.0416666666666667;" x1="1316.6667" x2="1332.8125" y1="237.6719" y2="237.6719"/><!--MD5=[6f9de66e4a7e7c2b0f2439a298ede586]
class OutputResource--><rect codeLine="29" fill="#282828" height="83.3781" id="OutputResource" rx="8.3333" ry="8.3333" style="stroke:#5E5E5E;stroke-width:1.0416666666666667;" width="210.4167" x="964.5833" y="188.0778"/><rect fill="#1B1B1A" height="31.3883" rx="8.3333" ry="8.3333" style="stroke:#1B1B1A;stroke-width:1.0416666666666667;" width="210.4167" x="964.5833" y="188.0778"/><rect fill="#1B1B1A" height="8.3333" style="stroke:#1B1B1A;stroke-width:1.0416666666666667;" width="210.4167" x="964.5833" y="211.1328"/><rect codeLine="29" fill="none" height="83.3781" id="OutputResource" rx="8.3333" ry="8.3333" style="stroke:#5E5E5E;stroke-width:1.0416666666666667;" width="210.4167" x="964.5833" y="188.0778"/><ellipse cx="1010.4167" cy="203.772" fill="#0066CF" rx="10.4167" ry="10.4167" style="stroke:#0086EF;stroke-width:1.0416666666666667;"/><path d="M1012.3271,208.197 Q1011.8998,208.4167 1011.4299,208.5266 Q1010.9599,208.6365 1010.4411,208.6365 Q1008.5978,208.6365 1007.6274,207.4219 Q1006.6569,206.2073 1006.6569,203.9124 Q1006.6569,201.6113 1007.6274,200.3967 Q1008.5978,199.1821 1010.4411,199.1821 Q1010.9599,199.1821 1011.436,199.292 Q1011.912,199.4019 1012.3271,199.6216 L1012.3271,201.6235 Q1011.8632,201.1963 1011.4268,200.9979 Q1010.9904,200.7996 1010.5265,200.7996 Q1009.5378,200.7996 1009.0342,201.5839 Q1008.5307,202.3682 1008.5307,203.9124 Q1008.5307,205.4504 1009.0342,206.2347 Q1009.5378,207.019 1010.5265,207.019 Q1010.9904,207.019 1011.4268,206.8207 Q1011.8632,206.6223 1012.3271,206.1951 Z " fill="#000000"/><text fill="#D8BC00" font-family="Open Sans,Avenir,Nunito,Arial,Helvetica,SansSerif" font-size="12.5" font-weight="bold" lengthAdjust="spacing" textLength="104.1667" x="1033.3333" y="208.4961">OutputResource</text><line style="stroke:#5E5E5E;stroke-width:1.5625;" x1="965.625" x2="1173.9583" y1="219.4661" y2="219.4661"/><ellipse cx="976.0417" cy="254.836" fill="#84BE84" rx="3.125" ry="3.125" style="stroke:#038048;stroke-width:1.0416666666666667;"/><text fill="#D8BC00" font-family="Open Sans,Avenir,Nunito,Arial,Helvetica,SansSerif" font-size="11.4583" lengthAdjust="spacing" textLength="178.125" x="987.5" y="261.7472">OutputResource(OutputStream)</text><line style="stroke:#5E5E5E;stroke-width:1.0416666666666667;" x1="965.625" x2="1026.0417" y1="237.6719" y2="237.6719"/><text fill="#D8BC00" font-family="Open Sans,Avenir,Nunito,Arial,Helvetica,SansSerif" font-size="11.4583" lengthAdjust="spacing" textLength="81.25" x="1029.1667" y="241.4815">(constructors)</text><line style="stroke:#5E5E5E;stroke-width:1.0416666666666667;" x1="1113.5417" x2="1173.9583" y1="237.6719" y2="237.6719"/><!--MD5=[d8b7091fc71207719cb1ba2b583610df]
class ResourceSection--><rect codeLine="36" fill="#282828" height="83.3781" id="ResourceSection" rx="8.3333" ry="8.3333" style="stroke:#5E5E5E;stroke-width:1.0416666666666667;" width="247.9167" x="7.2917" y="188.0778"/><rect fill="#1B1B1A" height="31.3883" rx="8.3333" ry="8.3333" style="stroke:#1B1B1A;stroke-width:1.0416666666666667;" width="247.9167" x="7.2917" y="188.0778"/><rect fill="#1B1B1A" height="8.3333" style="stroke:#1B1B1A;stroke-width:1.0416666666666667;" width="247.9167" x="7.2917" y="211.1328"/><rect codeLine="36" fill="none" height="83.3781" id="ResourceSection" rx="8.3333" ry="8.3333" style="stroke:#5E5E5E;stroke-width:1.0416666666666667;" width="247.9167" x="7.2917" y="188.0778"/><ellipse cx="71.3542" cy="203.772" fill="#0066CF" rx="10.4167" ry="10.4167" style="stroke:#0086EF;stroke-width:1.0416666666666667;"/><path d="M73.2646,208.197 Q72.8373,208.4167 72.3674,208.5266 Q71.8974,208.6365 71.3786,208.6365 Q69.5353,208.6365 68.5649,207.4219 Q67.5944,206.2073 67.5944,203.9124 Q67.5944,201.6113 68.5649,200.3967 Q69.5353,199.1821 71.3786,199.1821 Q71.8974,199.1821 72.3735,199.292 Q72.8495,199.4019 73.2646,199.6216 L73.2646,201.6235 Q72.8007,201.1963 72.3643,200.9979 Q71.9279,200.7996 71.464,200.7996 Q70.4753,200.7996 69.9717,201.5839 Q69.4682,202.3682 69.4682,203.9124 Q69.4682,205.4504 69.9717,206.2347 Q70.4753,207.019 71.464,207.019 Q71.9279,207.019 72.3643,206.8207 Q72.8007,206.6223 73.2646,206.1951 Z " fill="#000000"/><text fill="#D8BC00" font-family="Open Sans,Avenir,Nunito,Arial,Helvetica,SansSerif" font-size="12.5" font-weight="bold" lengthAdjust="spacing" textLength="105.2083" x="94.2708" y="208.4961">ResourceSection</text><line style="stroke:#5E5E5E;stroke-width:1.5625;" x1="8.3333" x2="254.1667" y1="219.4661" y2="219.4661"/><ellipse cx="18.75" cy="254.836" fill="#84BE84" rx="3.125" ry="3.125" style="stroke:#038048;stroke-width:1.0416666666666667;"/><text fill="#D8BC00" font-family="Open Sans,Avenir,Nunito,Arial,Helvetica,SansSerif" font-size="11.4583" lengthAdjust="spacing" textLength="215.625" x="30.2083" y="261.7472">ResourceSection(Resource, long, long)</text><line style="stroke:#5E5E5E;stroke-width:1.0416666666666667;" x1="8.3333" x2="87.5" y1="237.6719" y2="237.6719"/><text fill="#D8BC00" font-family="Open Sans,Avenir,Nunito,Arial,Helvetica,SansSerif" font-size="11.4583" lengthAdjust="spacing" textLength="81.25" x="90.625" y="241.4815">(constructors)</text><line style="stroke:#5E5E5E;stroke-width:1.0416666666666667;" x1="175" x2="254.1667" y1="237.6719" y2="237.6719"/><!--MD5=[d5db6400288394716ad122924341cf80]
class StringOutputResource--><rect codeLine="43" fill="#282828" height="67.7999" id="StringOutputResource" rx="8.3333" ry="8.3333" style="stroke:#5E5E5E;stroke-width:1.0416666666666667;" width="180.2083" x="1370.3125" y="195.8903"/><rect fill="#1B1B1A" height="31.3883" rx="8.3333" ry="8.3333" style="stroke:#1B1B1A;stroke-width:1.0416666666666667;" width="180.2083" x="1370.3125" y="195.8903"/><rect fill="#1B1B1A" height="8.3333" style="stroke:#1B1B1A;stroke-width:1.0416666666666667;" width="180.2083" x="1370.3125" y="218.9453"/><rect codeLine="43" fill="none" height="67.7999" id="StringOutputResource" rx="8.3333" ry="8.3333" style="stroke:#5E5E5E;stroke-width:1.0416666666666667;" width="180.2083" x="1370.3125" y="195.8903"/><ellipse cx="1384.8958" cy="211.5845" fill="#0066CF" rx="10.4167" ry="10.4167" style="stroke:#0086EF;stroke-width:1.0416666666666667;"/><path d="M1386.8062,216.0095 Q1386.379,216.2292 1385.909,216.3391 Q1385.439,216.449 1384.9202,216.449 Q1383.077,216.449 1382.1065,215.2344 Q1381.1361,214.0198 1381.1361,211.7249 Q1381.1361,209.4238 1382.1065,208.2092 Q1383.077,206.9946 1384.9202,206.9946 Q1385.439,206.9946 1385.9151,207.1045 Q1386.3912,207.2144 1386.8062,207.4341 L1386.8062,209.436 Q1386.3424,209.0088 1385.906,208.8104 Q1385.4696,208.6121 1385.0057,208.6121 Q1384.0169,208.6121 1383.5134,209.3964 Q1383.0098,210.1807 1383.0098,211.7249 Q1383.0098,213.2629 1383.5134,214.0472 Q1384.0169,214.8315 1385.0057,214.8315 Q1385.4696,214.8315 1385.906,214.6332 Q1386.3424,214.4348 1386.8062,214.0076 Z " fill="#000000"/><text fill="#D8BC00" font-family="Open Sans,Avenir,Nunito,Arial,Helvetica,SansSerif" font-size="12.5" font-weight="bold" lengthAdjust="spacing" textLength="142.7083" x="1401.5625" y="216.3086">StringOutputResource</text><line style="stroke:#5E5E5E;stroke-width:1.5625;" x1="1371.3542" x2="1549.4792" y1="227.2786" y2="227.2786"/><line style="stroke:#5E5E5E;stroke-width:1.0416666666666667;" x1="1371.3542" x2="1549.4792" y1="235.612" y2="235.612"/><ellipse cx="1381.7708" cy="247.0703" fill="#84BE84" rx="3.125" ry="3.125" style="stroke:#038048;stroke-width:1.0416666666666667;"/><text fill="#D8BC00" font-family="Open Sans,Avenir,Nunito,Arial,Helvetica,SansSerif" font-size="11.4583" lengthAdjust="spacing" textLength="78.125" x="1393.2292" y="253.9815">String string()</text><!--MD5=[a89c72e9b3cafd4d10fa23b6172feae4]
class StringResource--><rect codeLine="50" fill="#282828" height="131.2012" id="StringResource" rx="8.3333" ry="8.3333" style="stroke:#5E5E5E;stroke-width:1.0416666666666667;" width="410.4167" x="291.6667" y="164.1195"/><rect fill="#1B1B1A" height="31.3883" rx="8.3333" ry="8.3333" style="stroke:#1B1B1A;stroke-width:1.0416666666666667;" width="410.4167" x="291.6667" y="164.1195"/><rect fill="#1B1B1A" height="8.3333" style="stroke:#1B1B1A;stroke-width:1.0416666666666667;" width="410.4167" x="291.6667" y="187.1745"/><rect codeLine="50" fill="none" height="131.2012" id="StringResource" rx="8.3333" ry="8.3333" style="stroke:#5E5E5E;stroke-width:1.0416666666666667;" width="410.4167" x="291.6667" y="164.1195"/><ellipse cx="441.1458" cy="179.8136" fill="#0066CF" rx="10.4167" ry="10.4167" style="stroke:#0086EF;stroke-width:1.0416666666666667;"/><path d="M443.0562,184.2387 Q442.629,184.4584 442.159,184.5683 Q441.689,184.6781 441.1702,184.6781 Q439.327,184.6781 438.3565,183.4635 Q437.3861,182.2489 437.3861,179.954 Q437.3861,177.653 438.3565,176.4384 Q439.327,175.2238 441.1702,175.2238 Q441.689,175.2238 442.1651,175.3337 Q442.6412,175.4435 443.0562,175.6632 L443.0562,177.6652 Q442.5924,177.238 442.156,177.0396 Q441.7196,176.8412 441.2557,176.8412 Q440.2669,176.8412 439.7634,177.6255 Q439.2598,178.4098 439.2598,179.954 Q439.2598,181.4921 439.7634,182.2764 Q440.2669,183.0607 441.2557,183.0607 Q441.7196,183.0607 442.156,182.8623 Q442.5924,182.664 443.0562,182.2367 Z " fill="#000000"/><text fill="#D8BC00" font-family="Open Sans,Avenir,Nunito,Arial,Helvetica,SansSerif" font-size="12.5" font-weight="bold" lengthAdjust="spacing" textLength="96.875" x="464.0625" y="184.5378">StringResource</text><line style="stroke:#5E5E5E;stroke-width:1.5625;" x1="292.7083" x2="701.0417" y1="195.5078" y2="195.5078"/><ellipse cx="303.125" cy="230.8777" fill="#84BE84" rx="3.125" ry="3.125" style="stroke:#038048;stroke-width:1.0416666666666667;"/><text fill="#D8BC00" font-family="Open Sans,Avenir,Nunito,Arial,Helvetica,SansSerif" font-size="11.4583" lengthAdjust="spacing" textLength="209.375" x="314.5833" y="237.7889">StringResource(ResourcePath, String)</text><ellipse cx="303.125" cy="250.6226" fill="#84BE84" rx="3.125" ry="3.125" style="stroke:#038048;stroke-width:1.0416666666666667;"/><text fill="#D8BC00" font-family="Open Sans,Avenir,Nunito,Arial,Helvetica,SansSerif" font-size="11.4583" lengthAdjust="spacing" textLength="127.0833" x="314.5833" y="257.5338">StringResource(String)</text><line style="stroke:#5E5E5E;stroke-width:1.0416666666666667;" x1="292.7083" x2="453.125" y1="213.7136" y2="213.7136"/><text fill="#D8BC00" font-family="Open Sans,Avenir,Nunito,Arial,Helvetica,SansSerif" font-size="11.4583" lengthAdjust="spacing" textLength="81.25" x="456.25" y="217.5232">(constructors)</text><line style="stroke:#5E5E5E;stroke-width:1.0416666666666667;" x1="540.625" x2="701.0417" y1="213.7136" y2="213.7136"/><line style="stroke:#5E5E5E;stroke-width:1.0416666666666667;" x1="292.7083" x2="701.0417" y1="267.2424" y2="267.2424"/><ellipse cx="303.125" cy="278.7008" fill="#84BE84" rx="3.125" ry="3.125" style="stroke:#038048;stroke-width:1.0416666666666667;"/><text fill="#D8BC00" font-family="Open Sans,Avenir,Nunito,Arial,Helvetica,SansSerif" font-size="11.4583" lengthAdjust="spacing" textLength="378.125" x="314.5833" y="285.612">StringResource transform(Function&lt;String,String&gt; transformation)</text><!--MD5=[6dfb3884b423d33d58f7cc8c7abfb535]
reverse link BaseReadableResource to InputResource--><path codeLine="12" d="M586.8229,109.6507 C627.9688,124.6924 676.9792,143.8799 719.7917,164.1195 C734.7604,171.1924 750.4271,179.484 765.1667,187.7236 " fill="none" id="BaseReadableResource-backto-InputResource" style="stroke:#545454;stroke-width:1.5625;"/><polygon fill="none" points="584.4063,116.5257,567.2813,102.5986,589.3542,102.807,584.4063,116.5257" style="stroke:#545454;stroke-width:1.5625;"/><!--MD5=[b5347b78a07650d133c444c21097c2f4]
reverse link AutoCloseable to InputResource--><path codeLine="13" d="M918.9167,119.6403 C902.3333,140.7653 882.1667,166.4736 865.5729,187.6195 " fill="none" id="AutoCloseable-backto-InputResource" style="stroke:#545454;stroke-width:1.5625;"/><polygon fill="none" points="913.0833,115.2653,931.6771,103.3799,924.5521,124.2757,913.0833,115.2653" style="stroke:#545454;stroke-width:1.5625;"/><!--MD5=[9ccf6f1b29adfc037ddc2e002e327a40]
reverse link BaseWritableResource to NullResource--><path codeLine="20" d="M1272.9167,124.5465 C1272.9167,144.6507 1272.9167,168.0778 1272.9167,187.6195 " fill="none" id="BaseWritableResource-backto-NullResource" style="stroke:#545454;stroke-width:1.5625;"/><polygon fill="none" points="1265.625,124.5465,1272.9167,103.7132,1280.2083,124.5465,1265.625,124.5465" style="stroke:#545454;stroke-width:1.5625;"/><!--MD5=[286fa2e5d444bd373d64663297438e73]
reverse link BaseWritableResource to OutputResource--><path codeLine="27" d="M1223.4792,115.2132 C1193.8438,137.0882 1156.1042,164.9632 1125.4271,187.6195 " fill="none" id="BaseWritableResource-backto-OutputResource" style="stroke:#545454;stroke-width:1.5625;"/><polygon fill="none" points="1218.8229,109.5882,1239.9063,103.0778,1227.4792,121.3174,1218.8229,109.5882" style="stroke:#545454;stroke-width:1.5625;"/><!--MD5=[4703662ef2ca0bf1e8a0f73d123f4072]
reverse link AutoCloseable to OutputResource--><path codeLine="28" d="M983.4479,119.6403 C1000.1771,140.7653 1020.5208,166.4736 1037.2604,187.6195 " fill="none" id="AutoCloseable-backto-OutputResource" style="stroke:#545454;stroke-width:1.5625;"/><polygon fill="none" points="977.7917,124.234,970.5729,103.3799,989.2188,115.182,977.7917,124.234" style="stroke:#545454;stroke-width:1.5625;"/><!--MD5=[7acbd6a81c9084c0aa01c5e4ab5d84a9]
reverse link BaseReadableResource to ResourceSection--><path codeLine="35" d="M411.5208,109.807 C369.5208,125.4736 318.3021,145.1403 272.9167,164.1195 C255.3333,171.4736 236.6979,179.6715 218.9063,187.6924 " fill="none" id="BaseReadableResource-backto-ResourceSection" style="stroke:#545454;stroke-width:1.5625;"/><polygon fill="none" points="408.6979,103.0778,430.7708,102.6611,413.7708,116.7445,408.6979,103.0778" style="stroke:#545454;stroke-width:1.5625;"/><!--MD5=[1792cbf084bff08c4397e271d05ce57c]
reverse link BaseWritableResource to StringOutputResource--><path codeLine="42" d="M1319.4063,115.9007 C1349.875,140.2757 1389.3646,171.8695 1418.8021,195.4111 " fill="none" id="BaseWritableResource-backto-StringOutputResource" style="stroke:#545454;stroke-width:1.5625;"/><polygon fill="none" points="1315.1563,121.8382,1303.4479,103.1299,1324.2708,110.4424,1315.1563,121.8382" style="stroke:#545454;stroke-width:1.5625;"/><!--MD5=[0f559c1caee63c79bb1093a2a7d5d518]
reverse link BaseReadableResource to StringResource--><path codeLine="49" d="M496.875,124.5465 C496.875,136.9007 496.875,150.4945 496.875,163.6715 " fill="none" id="BaseReadableResource-backto-StringResource" style="stroke:#545454;stroke-width:1.5625;"/><polygon fill="none" points="489.5833,124.5465,496.875,103.7132,504.1667,124.5465,489.5833,124.5465" style="stroke:#545454;stroke-width:1.5625;"/><!--MD5=[f53c4bbfa63ed5a0dc5d8b9790def7a8]
@startuml

    !include lexakai.theme
    
    title "com.telenav.kivakit.resource.resources"
    
    abstract BaseReadableResource
    abstract BaseWritableResource
    
    interface AutoCloseable
    
    BaseReadableResource <|- - InputResource
    AutoCloseable <|- - InputResource
    class InputResource
    {
        - -(constructors)- -
        +InputResource(InputStream)
    }
    
    BaseWritableResource <|- - NullResource
    class NullResource
    {
        - -(constructors)- -
        +NullResource()
    }
    
    BaseWritableResource <|- - OutputResource
    AutoCloseable <|- - OutputResource
    class OutputResource
    {
        - -(constructors)- -
        +OutputResource(OutputStream)
    }
    
    BaseReadableResource <|- - ResourceSection
    class ResourceSection
    {
        - -(constructors)- -
        +ResourceSection(Resource, long, long)
    }
    
    BaseWritableResource <|- - StringOutputResource
    class StringOutputResource
    {
        - -
        +String string()
    }
    
    BaseReadableResource <|- - StringResource
    class StringResource
    {
        - -(constructors)- -
        +StringResource(ResourcePath, String)
        +StringResource(String)
        - -
        +StringResource transform(Function<String,String> transformation)
    }
    
@enduml

@startuml









skinparam backgroundColor #333333






skinparam  {
    defaultFontName   "Open Sans,Avenir,Nunito,Arial,Helvetica,SansSerif"
    defaultFontSize   12
    defaultTextAlignment left
    shadowing false
    RoundCorner 10
    TitleFontSize 18
}

skinparam defaultFontName       "Open Sans,Avenir,Nunito,Arial,Helvetica,SansSerif"
skinparam defaultFontSize       12
skinparam dpi                   100
skinparam shadowing             false
skinparam roundcorner           16
skinparam ParticipantPadding    40
skinparam BoxPadding            40
skinparam Padding               3
skinparam ArrowColor            #545454
skinparam stereotype {
    CBackgroundColor #0066cf
    CBorderColor #0086ef
    ABackgroundColor #C8Ac00
    ABorderColor #D8Bc00
    IBackgroundColor #008400
    IBorderColor #239c23
    EBackgroundColor #cf6300
    EBorderColor #ef8300
    NBackgroundColor #3380b9
    NBorderColor #004d86
}
skinparam title {
	FontColor	                 #c0c0c0
 	BorderColor                  #545454
	FontSize	    	         20
	BorderRoundCorner            16
	BorderThickness 	         1
	BackgroundColor              #48494b
}


skinparam legend {
	BackgroundColor #303030
	BorderColor #404040
	FontColor #a0a0a0
}

	skinparam swimlane {
	BorderColor #5e5e5e
	BorderThickness 2
	TitleBackgroundColor  #6d6d6d-#484848
	TitleFontColor #303030
}

skinparam activity {
		FontColor #C8Ac00
	BorderColor #333333
	BackgroundColor #333333-#333333
	BarColor #00FF00
	StartColor #0060a8
	EndColor #0060a8
	DiamondBackgroundColor #6d6d6d-#3a3a3a
  	DiamondBorderColor #3a3a3a
  	DiamondFontColor #fefefe
}


skinparam participant {
		FontColor #C8Ac00
	BorderColor #333333
	BackgroundColor #333333-#333333
	ParticipantBorderThickness 2
}


skinparam actor {
		FontColor #C8Ac00
	BorderColor #333333
	BackgroundColor #333333-#333333
}


skinparam arrow {
	Thickness 1.5
	Color #545454
	FontColor #a0a0a0
    FontStyle bold
    MessageAlignment center
}



skinparam sequence {
	BorderColor #303030
	TitleFontColor #303030
	BackgroundColor #333333
	StartColor #303030
	EndColor #303030
	BoxBackgroundColor #333333
	BoxBorderColor #484848
	BoxFontColor #484848
	LifeLineBorderColor #484848
	LifeLineBorderThickness 2
	LifeLineBackgroundColor #3a3a3a
	GroupBorderColor #484848
	GroupFontColor #484848
	GroupHeaderFontColor #0060a8
	GroupBackgroundColor #484848
	GroupHeaderBackgroundColor #333333
	DividerBackgroundColor #484848
    DividerBorderColor #484848
    DividerBorderThickness 2
    DividerFontColor #D8Bc00
	ReferenceBackgroundColor #333333
	ReferenceBorderColor #484848
	ReferenceFontColor #fefefe
	ReferenceHeaderBackgroundColor #484848
}


skinparam partition {
	BorderColor #303030
	FontColor #333333
	BackgroundColor #333333
}


skinparam collections {
		FontColor #C8Ac00
	BorderColor #333333
	BackgroundColor #333333-#333333
}


skinparam control {
		FontColor #C8Ac00
	BorderColor #333333
	BackgroundColor #333333-#333333
}


skinparam entity {
		FontColor #C8Ac00
	BorderColor #333333
	BackgroundColor #333333-#333333
}


skinparam boundary {
		FontColor #C8Ac00
	BorderColor #333333
	BackgroundColor #333333-#333333
}


skinparam agent {
	BackgroundColor #ff8000
	BorderColor #ff9933
	FontColor #484848
}


skinparam note {
	BorderThickness 1
	BackgroundColor #1b1b1a
	BorderColor #5e5e5e
	FontSize 11
	FontColor #a0a0a0
}


skinparam artifact {
	BorderThickness 10
	BorderColor #5e5e5e
	BackgroundColor #1b1b1a
	FontColor #D8Bc00
}


skinparam component {
		FontColor #C8Ac00
	BorderColor #333333
	BackgroundColor #333333-#333333
}


skinparam interface {
	BackgroundColor  #008400
	BorderColor  #007F00
	FontColor #484848
}


skinparam storage {
	BackgroundColor #ff8000
  	BorderColor #cc6600
	FontColor #222222
}


skinparam node {
	BackgroundColor #333333
	BorderColor #333333
	FontColor #C8Ac00
}


skinparam cloud {
	BackgroundColor #484848-black
	BorderColor #484848
	FontColor #D8Bc00
}


skinparam database {
		FontColor #C8Ac00
	BorderColor #333333
	BackgroundColor #333333-#333333
	BackgroundColor  #333333
}


skinparam class {
		FontColor #C8Ac00
	BorderColor #333333
	BackgroundColor #333333-#333333
	HeaderBackgroundColor #1b1b1a
    BackgroundColor #282828
    BorderColor #5e5e5e
 	StereotypeFontColor #a0a0a0
    StereotypeFontStyle bold
	BorderThickness 1
	AttributeFontColor #D8Bc00
	AttributeFontSize 11
    FontColor #D8Bc00
    FontStyle bold
}


skinparam object {
		FontColor #C8Ac00
	BorderColor #333333
	BackgroundColor #333333-#333333
	StereotypeFontColor #484848
	BorderThickness 1
	AttributeFontColor #fefefe
	AttributeFontSize 11
}


skinparam usecase {
		FontColor #C8Ac00
	BorderColor #333333
	BackgroundColor #333333-#333333
	BorderThickness 2
	StereotypeFontColor #303030
}


skinparam rectangle {
		FontColor #C8Ac00
	BorderColor #333333
	BackgroundColor #333333-#333333
	BackgroundColor #333333
	BorderThickness 2
	StereotypeFontColor #303030
}


skinparam package {
		FontColor #C8Ac00
	BorderColor #333333
	BackgroundColor #333333-#333333
	BackgroundColor #333333
	BorderThickness 2
}


skinparam folder {
	BackgroundColor #6d6d6d
  	BorderColor #ff8000
	FontColor #ff8000
	BorderThickness 2
}


skinparam frame {
	BackgroundColor #6d6d6d
  	BorderColor #0060a8
	FontColor #0060a8
	BorderThickness 2
}


skinparam state {
		FontColor #C8Ac00
	BorderColor #333333
	BackgroundColor #333333-#333333
	StartColor #0060a8
	EndColor #0060a8
	AttributeFontColor #fefefe
	AttributeFontSize 11
}


skinparam queue {
		FontColor #C8Ac00
	BorderColor #333333
	BackgroundColor #333333-#333333
}


skinparam card {
	BackgroundColor #0060a8
	BorderColor #004d86
	FontColor $INFO_TEXT
}


skinparam file {
	BackgroundColor #6d6d6d-#484848
	BorderColor #0060a8
	FontColor #fefefe
}


skinparam stack {
		FontColor #C8Ac00
	BorderColor #333333
	BackgroundColor #333333-#333333
}

    
    title "com.telenav.kivakit.resource.resources"
    
    abstract BaseReadableResource
    abstract BaseWritableResource
    
    interface AutoCloseable
    
    BaseReadableResource <|- - InputResource
    AutoCloseable <|- - InputResource
    class InputResource
    {
        - -(constructors)- -
        +InputResource(InputStream)
    }
    
    BaseWritableResource <|- - NullResource
    class NullResource
    {
        - -(constructors)- -
        +NullResource()
    }
    
    BaseWritableResource <|- - OutputResource
    AutoCloseable <|- - OutputResource
    class OutputResource
    {
        - -(constructors)- -
        +OutputResource(OutputStream)
    }
    
    BaseReadableResource <|- - ResourceSection
    class ResourceSection
    {
        - -(constructors)- -
        +ResourceSection(Resource, long, long)
    }
    
    BaseWritableResource <|- - StringOutputResource
    class StringOutputResource
    {
        - -
        +String string()
    }
    
    BaseReadableResource <|- - StringResource
    class StringResource
    {
        - -(constructors)- -
        +StringResource(ResourcePath, String)
        +StringResource(String)
        - -
        +StringResource transform(Function<String,String> transformation)
    }
    
@enduml

PlantUML version 1.2021.01(Tue Feb 02 00:55:08 MST 2021)
(GPL source distribution)
Java Runtime: OpenJDK Runtime Environment
JVM: OpenJDK 64-Bit Server VM
Default Encoding: UTF-8
Language: en
Country: US
--></g></svg>