<?xml version="1.0" encoding="UTF-8" standalone="no"?><svg xmlns="http://www.w3.org/2000/svg" xmlns:xlink="http://www.w3.org/1999/xlink" contentScriptType="application/ecmascript" contentStyleType="text/css" height="317.7083px" preserveAspectRatio="none" style="width:940px;height:317px;background:#333333;" version="1.1" viewBox="0 0 940 317" width="940.625px" zoomAndPan="magnify"><defs/><g><rect fill="#48494B" height="41.2028" rx="8.3333" ry="8.3333" style="stroke:#545454;stroke-width:1.0416666666666667;" width="397.9167" x="264.3229" y="2.0833"/><text fill="#C0C0C0" font-family="Open Sans,Avenir,Nunito,Arial,Helvetica,SansSerif" font-size="20.8333" lengthAdjust="spacing" textLength="375" x="275.7813" y="30.5583">com.telenav.kivakit.serialization.gson</text><!--MD5=[60d4b10a0bf6a45532b73522ead7a0fd]
class BaseKivaKitProject--><rect codeLine="7" fill="#282828" height="48.055" id="BaseKivaKitProject" rx="8.3333" ry="8.3333" style="stroke:#5E5E5E;stroke-width:1.0416666666666667;" width="158.3333" x="25.5208" y="53.7028"/><rect fill="#1B1B1A" height="31.3883" rx="8.3333" ry="8.3333" style="stroke:#1B1B1A;stroke-width:1.0416666666666667;" width="158.3333" x="25.5208" y="53.7028"/><rect fill="#1B1B1A" height="8.3333" style="stroke:#1B1B1A;stroke-width:1.0416666666666667;" width="158.3333" x="25.5208" y="76.7578"/><rect codeLine="7" fill="none" height="48.055" id="BaseKivaKitProject" rx="8.3333" ry="8.3333" style="stroke:#5E5E5E;stroke-width:1.0416666666666667;" width="158.3333" x="25.5208" y="53.7028"/><ellipse cx="40.1042" cy="69.397" fill="#C8AC00" rx="10.4167" ry="10.4167" style="stroke:#D8BC00;stroke-width:1.0416666666666667;"/><path d="M39.6973,66.099 L38.8489,69.8283 L40.5518,69.8283 Z M38.5986,64.4511 L40.802,64.4511 L43.2617,73.5636 L41.4612,73.5636 L40.8997,71.3114 L38.4888,71.3114 L37.9395,73.5636 L36.1389,73.5636 Z " fill="#000000"/><text fill="#D8BC00" font-family="Open Sans,Avenir,Nunito,Arial,Helvetica,SansSerif" font-size="12.5" font-style="italic" font-weight="bold" lengthAdjust="spacing" textLength="120.8333" x="56.7708" y="74.1211">BaseKivaKitProject</text><line style="stroke:#5E5E5E;stroke-width:1.0416666666666667;" x1="26.5625" x2="182.8125" y1="85.0911" y2="85.0911"/><line style="stroke:#5E5E5E;stroke-width:1.0416666666666667;" x1="26.5625" x2="182.8125" y1="93.4245" y2="93.4245"/><!--MD5=[9de60207c76e1bae7fa69c76e15bc4fc]
class JsonSerializerDeserializer--><rect codeLine="9" fill="#282828" height="48.055" id="JsonSerializerDeserializer" rx="8.3333" ry="8.3333" style="stroke:#5E5E5E;stroke-width:1.0416666666666667;" width="203.125" x="272.9167" y="53.7028"/><rect fill="#1B1B1A" height="31.3883" rx="8.3333" ry="8.3333" style="stroke:#1B1B1A;stroke-width:1.0416666666666667;" width="203.125" x="272.9167" y="53.7028"/><rect fill="#1B1B1A" height="8.3333" style="stroke:#1B1B1A;stroke-width:1.0416666666666667;" width="203.125" x="272.9167" y="76.7578"/><rect codeLine="9" fill="none" height="48.055" id="JsonSerializerDeserializer" rx="8.3333" ry="8.3333" style="stroke:#5E5E5E;stroke-width:1.0416666666666667;" width="203.125" x="272.9167" y="53.7028"/><ellipse cx="287.5" cy="69.397" fill="#008400" rx="10.4167" ry="10.4167" style="stroke:#239C23;stroke-width:1.0416666666666667;"/><path d="M284.904,66.5588 L284.904,64.9719 L290.33,64.9719 L290.33,66.5588 L288.5173,66.5588 L288.5173,72.4976 L290.33,72.4976 L290.33,74.0845 L284.904,74.0845 L284.904,72.4976 L286.7167,72.4976 L286.7167,66.5588 Z " fill="#000000"/><text fill="#D8BC00" font-family="Open Sans,Avenir,Nunito,Arial,Helvetica,SansSerif" font-size="12.5" font-style="italic" font-weight="bold" lengthAdjust="spacing" textLength="165.625" x="304.1667" y="74.1211">JsonSerializerDeserializer</text><line style="stroke:#5E5E5E;stroke-width:1.0416666666666667;" x1="273.9583" x2="475" y1="85.0911" y2="85.0911"/><line style="stroke:#5E5E5E;stroke-width:1.0416666666666667;" x1="273.9583" x2="475" y1="93.4245" y2="93.4245"/><!--MD5=[8c595983eb9c43054b99135b603648e6]
class ObjectSerializer--><rect codeLine="10" fill="#282828" height="48.055" id="ObjectSerializer" rx="8.3333" ry="8.3333" style="stroke:#5E5E5E;stroke-width:1.0416666666666667;" width="138.5417" x="512.5" y="53.7028"/><rect fill="#1B1B1A" height="31.3883" rx="8.3333" ry="8.3333" style="stroke:#1B1B1A;stroke-width:1.0416666666666667;" width="138.5417" x="512.5" y="53.7028"/><rect fill="#1B1B1A" height="8.3333" style="stroke:#1B1B1A;stroke-width:1.0416666666666667;" width="138.5417" x="512.5" y="76.7578"/><rect codeLine="10" fill="none" height="48.055" id="ObjectSerializer" rx="8.3333" ry="8.3333" style="stroke:#5E5E5E;stroke-width:1.0416666666666667;" width="138.5417" x="512.5" y="53.7028"/><ellipse cx="527.0833" cy="69.397" fill="#008400" rx="10.4167" ry="10.4167" style="stroke:#239C23;stroke-width:1.0416666666666667;"/><path d="M524.4873,66.5588 L524.4873,64.9719 L529.9133,64.9719 L529.9133,66.5588 L528.1006,66.5588 L528.1006,72.4976 L529.9133,72.4976 L529.9133,74.0845 L524.4873,74.0845 L524.4873,72.4976 L526.3,72.4976 L526.3,66.5588 Z " fill="#000000"/><text fill="#D8BC00" font-family="Open Sans,Avenir,Nunito,Arial,Helvetica,SansSerif" font-size="12.5" font-style="italic" font-weight="bold" lengthAdjust="spacing" textLength="101.0417" x="543.75" y="74.1211">ObjectSerializer</text><line style="stroke:#5E5E5E;stroke-width:1.0416666666666667;" x1="513.5417" x2="650" y1="85.0911" y2="85.0911"/><line style="stroke:#5E5E5E;stroke-width:1.0416666666666667;" x1="513.5417" x2="650" y1="93.4245" y2="93.4245"/><!--MD5=[d5ffbea224cb66456f52b11f1b43a3e0]
class TryTrait--><rect codeLine="11" fill="#282828" height="48.055" id="TryTrait" rx="8.3333" ry="8.3333" style="stroke:#5E5E5E;stroke-width:1.0416666666666667;" width="88.5417" x="687.5" y="53.7028"/><rect fill="#1B1B1A" height="31.3883" rx="8.3333" ry="8.3333" style="stroke:#1B1B1A;stroke-width:1.0416666666666667;" width="88.5417" x="687.5" y="53.7028"/><rect fill="#1B1B1A" height="8.3333" style="stroke:#1B1B1A;stroke-width:1.0416666666666667;" width="88.5417" x="687.5" y="76.7578"/><rect codeLine="11" fill="none" height="48.055" id="TryTrait" rx="8.3333" ry="8.3333" style="stroke:#5E5E5E;stroke-width:1.0416666666666667;" width="88.5417" x="687.5" y="53.7028"/><ellipse cx="702.0833" cy="69.397" fill="#008400" rx="10.4167" ry="10.4167" style="stroke:#239C23;stroke-width:1.0416666666666667;"/><path d="M699.4873,66.5588 L699.4873,64.9719 L704.9133,64.9719 L704.9133,66.5588 L703.1006,66.5588 L703.1006,72.4976 L704.9133,72.4976 L704.9133,74.0845 L699.4873,74.0845 L699.4873,72.4976 L701.3,72.4976 L701.3,66.5588 Z " fill="#000000"/><text fill="#D8BC00" font-family="Open Sans,Avenir,Nunito,Arial,Helvetica,SansSerif" font-size="12.5" font-style="italic" font-weight="bold" lengthAdjust="spacing" textLength="51.0417" x="718.75" y="74.1211">TryTrait</text><line style="stroke:#5E5E5E;stroke-width:1.0416666666666667;" x1="688.5417" x2="775" y1="85.0911" y2="85.0911"/><line style="stroke:#5E5E5E;stroke-width:1.0416666666666667;" x1="688.5417" x2="775" y1="93.4245" y2="93.4245"/><!--MD5=[34eb2c3cd1bd084029c026d450c2586e]
class RegistryTrait--><rect codeLine="12" fill="#282828" height="48.055" id="RegistryTrait" rx="8.3333" ry="8.3333" style="stroke:#5E5E5E;stroke-width:1.0416666666666667;" width="120.8333" x="813.0208" y="53.7028"/><rect fill="#1B1B1A" height="31.3883" rx="8.3333" ry="8.3333" style="stroke:#1B1B1A;stroke-width:1.0416666666666667;" width="120.8333" x="813.0208" y="53.7028"/><rect fill="#1B1B1A" height="8.3333" style="stroke:#1B1B1A;stroke-width:1.0416666666666667;" width="120.8333" x="813.0208" y="76.7578"/><rect codeLine="12" fill="none" height="48.055" id="RegistryTrait" rx="8.3333" ry="8.3333" style="stroke:#5E5E5E;stroke-width:1.0416666666666667;" width="120.8333" x="813.0208" y="53.7028"/><ellipse cx="827.6042" cy="69.397" fill="#008400" rx="10.4167" ry="10.4167" style="stroke:#239C23;stroke-width:1.0416666666666667;"/><path d="M825.0081,66.5588 L825.0081,64.9719 L830.4342,64.9719 L830.4342,66.5588 L828.6214,66.5588 L828.6214,72.4976 L830.4342,72.4976 L830.4342,74.0845 L825.0081,74.0845 L825.0081,72.4976 L826.8209,72.4976 L826.8209,66.5588 Z " fill="#000000"/><text fill="#D8BC00" font-family="Open Sans,Avenir,Nunito,Arial,Helvetica,SansSerif" font-size="12.5" font-style="italic" font-weight="bold" lengthAdjust="spacing" textLength="83.3333" x="844.2708" y="74.1211">RegistryTrait</text><line style="stroke:#5E5E5E;stroke-width:1.0416666666666667;" x1="814.0625" x2="932.8125" y1="85.0911" y2="85.0911"/><line style="stroke:#5E5E5E;stroke-width:1.0416666666666667;" x1="814.0625" x2="932.8125" y1="93.4245" y2="93.4245"/><!--MD5=[50d1f76de542c51358fdf92d211dba52]
class GsonObjectSerializer--><rect codeLine="17" fill="#282828" height="103.123" id="GsonObjectSerializer" rx="8.3333" ry="8.3333" style="stroke:#5E5E5E;stroke-width:1.0416666666666667;" width="256.25" x="603.6458" y="185.9945"/><rect fill="#1B1B1A" height="31.3883" rx="8.3333" ry="8.3333" style="stroke:#1B1B1A;stroke-width:1.0416666666666667;" width="256.25" x="603.6458" y="185.9945"/><rect fill="#1B1B1A" height="8.3333" style="stroke:#1B1B1A;stroke-width:1.0416666666666667;" width="256.25" x="603.6458" y="209.0495"/><rect codeLine="17" fill="none" height="103.123" id="GsonObjectSerializer" rx="8.3333" ry="8.3333" style="stroke:#5E5E5E;stroke-width:1.0416666666666667;" width="256.25" x="603.6458" y="185.9945"/><ellipse cx="657.2917" cy="201.6886" fill="#0066CF" rx="10.4167" ry="10.4167" style="stroke:#0086EF;stroke-width:1.0416666666666667;"/><path d="M659.2021,206.1137 Q658.7748,206.3334 658.3049,206.4433 Q657.8349,206.5531 657.3161,206.5531 Q655.4728,206.5531 654.5024,205.3385 Q653.5319,204.1239 653.5319,201.829 Q653.5319,199.528 654.5024,198.3134 Q655.4728,197.0988 657.3161,197.0988 Q657.8349,197.0988 658.311,197.2087 Q658.787,197.3185 659.2021,197.5382 L659.2021,199.5402 Q658.7382,199.113 658.3018,198.9146 Q657.8654,198.7162 657.4015,198.7162 Q656.4128,198.7162 655.9092,199.5005 Q655.4057,200.2848 655.4057,201.829 Q655.4057,203.3671 655.9092,204.1514 Q656.4128,204.9357 657.4015,204.9357 Q657.8654,204.9357 658.3018,204.7373 Q658.7382,204.539 659.2021,204.1117 Z " fill="#000000"/><text fill="#D8BC00" font-family="Open Sans,Avenir,Nunito,Arial,Helvetica,SansSerif" font-size="12.5" font-weight="bold" lengthAdjust="spacing" textLength="134.375" x="680.2083" y="206.4128">GsonObjectSerializer</text><line style="stroke:#5E5E5E;stroke-width:1.5625;" x1="604.6875" x2="858.8542" y1="217.3828" y2="217.3828"/><ellipse cx="615.1042" cy="252.7527" fill="#84BE84" rx="3.125" ry="3.125" style="stroke:#038048;stroke-width:1.0416666666666667;"/><text fill="#D8BC00" font-family="Open Sans,Avenir,Nunito,Arial,Helvetica,SansSerif" font-size="11.4583" lengthAdjust="spacing" textLength="125" x="626.5625" y="259.6639">GsonObjectSerializer()</text><ellipse cx="615.1042" cy="272.4976" fill="#84BE84" rx="3.125" ry="3.125" style="stroke:#038048;stroke-width:1.0416666666666667;"/><text fill="#D8BC00" font-family="Open Sans,Avenir,Nunito,Arial,Helvetica,SansSerif" font-size="11.4583" lengthAdjust="spacing" textLength="223.9583" x="626.5625" y="279.4088">GsonObjectSerializer(ProgressReporter)</text><line style="stroke:#5E5E5E;stroke-width:1.0416666666666667;" x1="604.6875" x2="688.0208" y1="235.5886" y2="235.5886"/><text fill="#D8BC00" font-family="Open Sans,Avenir,Nunito,Arial,Helvetica,SansSerif" font-size="11.4583" lengthAdjust="spacing" textLength="81.25" x="691.1458" y="239.3982">(constructors)</text><line style="stroke:#5E5E5E;stroke-width:1.0416666666666667;" x1="775.5208" x2="858.8542" y1="235.5886" y2="235.5886"/><!--MD5=[9b392c7e96cc3f16e5a17c4c40fb40c2]
class GsonSerializationProject--><rect codeLine="25" fill="#282828" height="48.055" id="GsonSerializationProject" rx="8.3333" ry="8.3333" style="stroke:#5E5E5E;stroke-width:1.0416666666666667;" width="194.7917" x="7.2917" y="213.5986"/><rect fill="#1B1B1A" height="31.3883" rx="8.3333" ry="8.3333" style="stroke:#1B1B1A;stroke-width:1.0416666666666667;" width="194.7917" x="7.2917" y="213.5986"/><rect fill="#1B1B1A" height="8.3333" style="stroke:#1B1B1A;stroke-width:1.0416666666666667;" width="194.7917" x="7.2917" y="236.6536"/><rect codeLine="25" fill="none" height="48.055" id="GsonSerializationProject" rx="8.3333" ry="8.3333" style="stroke:#5E5E5E;stroke-width:1.0416666666666667;" width="194.7917" x="7.2917" y="213.5986"/><ellipse cx="21.875" cy="229.2928" fill="#0066CF" rx="10.4167" ry="10.4167" style="stroke:#0086EF;stroke-width:1.0416666666666667;"/><path d="M23.7854,233.7179 Q23.3582,233.9376 22.8882,234.0474 Q22.4182,234.1573 21.8994,234.1573 Q20.0562,234.1573 19.0857,232.9427 Q18.1152,231.7281 18.1152,229.4332 Q18.1152,227.1322 19.0857,225.9176 Q20.0562,224.703 21.8994,224.703 Q22.4182,224.703 22.8943,224.8128 Q23.3704,224.9227 23.7854,225.1424 L23.7854,227.1444 Q23.3215,226.7171 22.8851,226.5188 Q22.4487,226.3204 21.9849,226.3204 Q20.9961,226.3204 20.4926,227.1047 Q19.989,227.889 19.989,229.4332 Q19.989,230.9713 20.4926,231.7556 Q20.9961,232.5399 21.9849,232.5399 Q22.4487,232.5399 22.8851,232.3415 Q23.3215,232.1431 23.7854,231.7159 Z " fill="#000000"/><text fill="#D8BC00" font-family="Open Sans,Avenir,Nunito,Arial,Helvetica,SansSerif" font-size="12.5" font-weight="bold" lengthAdjust="spacing" textLength="157.2917" x="38.5417" y="234.0169">GsonSerializationProject</text><line style="stroke:#5E5E5E;stroke-width:1.0416666666666667;" x1="8.3333" x2="201.0417" y1="244.987" y2="244.987"/><line style="stroke:#5E5E5E;stroke-width:1.0416666666666667;" x1="8.3333" x2="201.0417" y1="253.3203" y2="253.3203"/><!--MD5=[3a02e24aed122bd624ab5f4d81125687]
class PrimitiveGsonSerializer--><rect codeLine="30" fill="#282828" height="146.7794" id="PrimitiveGsonSerializer" rx="8.3333" ry="8.3333" style="stroke:#5E5E5E;stroke-width:1.0416666666666667;" width="270.8333" x="239.0625" y="164.1195"/><rect fill="#1B1B1A" height="31.3883" rx="8.3333" ry="8.3333" style="stroke:#1B1B1A;stroke-width:1.0416666666666667;" width="270.8333" x="239.0625" y="164.1195"/><rect fill="#1B1B1A" height="8.3333" style="stroke:#1B1B1A;stroke-width:1.0416666666666667;" width="270.8333" x="239.0625" y="187.1745"/><rect codeLine="30" fill="none" height="146.7794" id="PrimitiveGsonSerializer" rx="8.3333" ry="8.3333" style="stroke:#5E5E5E;stroke-width:1.0416666666666667;" width="270.8333" x="239.0625" y="164.1195"/><ellipse cx="253.6458" cy="179.8136" fill="#C8AC00" rx="10.4167" ry="10.4167" style="stroke:#D8BC00;stroke-width:1.0416666666666667;"/><path d="M253.2389,176.5157 L252.3905,180.245 L254.0934,180.245 Z M252.1403,174.8678 L254.3437,174.8678 L256.8034,183.9803 L255.0028,183.9803 L254.4413,181.7281 L252.0304,181.7281 L251.4811,183.9803 L249.6806,183.9803 Z " fill="#000000"/><text fill="#D8BC00" font-family="Open Sans,Avenir,Nunito,Arial,Helvetica,SansSerif" font-size="12.5" font-style="italic" font-weight="bold" lengthAdjust="spacing" textLength="150" x="270.3125" y="184.5378">PrimitiveGsonSerializer</text><rect fill="#333333" height="23.055" style="stroke:#A0A0A0;stroke-width:1.0416666666666667;stroke-dasharray:2.0,2.0;" width="81.25" x="431.7708" y="160.9945"/><text fill="#A0A0A0" font-family="Open Sans,Avenir,Nunito,Arial,Helvetica,SansSerif" font-size="12.5" font-weight="bold" lengthAdjust="spacing" textLength="72.9167" x="435.9375" y="177.2461">T, Primitive</text><line style="stroke:#5E5E5E;stroke-width:1.5625;" x1="240.1042" x2="508.8542" y1="195.5078" y2="195.5078"/><polygon fill="#FFFF44" points="250.5208,225.6694,254.6875,229.836,250.5208,234.0027,246.3542,229.836" style="stroke:#B38D22;stroke-width:1.0416666666666667;"/><text fill="#D8BC00" font-family="Open Sans,Avenir,Nunito,Arial,Helvetica,SansSerif" font-size="11.4583" lengthAdjust="spacing" textLength="233.3333" x="261.9792" y="237.7889">PrimitiveGsonSerializer(Class&lt;Primitive&gt;)</text><line style="stroke:#5E5E5E;stroke-width:1.0416666666666667;" x1="240.1042" x2="330.7292" y1="213.7136" y2="213.7136"/><text fill="#D8BC00" font-family="Open Sans,Avenir,Nunito,Arial,Helvetica,SansSerif" font-size="11.4583" lengthAdjust="spacing" textLength="81.25" x="333.8542" y="217.5232">(constructors)</text><line style="stroke:#5E5E5E;stroke-width:1.0416666666666667;" x1="418.2292" x2="508.8542" y1="213.7136" y2="213.7136"/><polygon fill="#FFFF44" points="250.5208,269.3258,254.6875,273.4924,250.5208,277.6591,246.3542,273.4924" style="stroke:#B38D22;stroke-width:1.0416666666666667;"/><text fill="#D8BC00" font-family="Open Sans,Avenir,Nunito,Arial,Helvetica,SansSerif" font-size="11.4583" lengthAdjust="spacing" textLength="114.5833" x="261.9792" y="281.4453">T toObject(Primitive)</text><polygon fill="#FFFF44" points="250.5208,289.0706,254.6875,293.2373,250.5208,297.404,246.3542,293.2373" style="stroke:#B38D22;stroke-width:1.0416666666666667;"/><text fill="#D8BC00" font-family="Open Sans,Avenir,Nunito,Arial,Helvetica,SansSerif" font-size="11.4583" lengthAdjust="spacing" textLength="163.5417" x="261.9792" y="301.1902">Primitive toPrimitive(T object)</text><line style="stroke:#5E5E5E;stroke-width:1.0416666666666667;" x1="240.1042" x2="335.9375" y1="257.37" y2="257.37"/><text fill="#D8BC00" font-family="Open Sans,Avenir,Nunito,Arial,Helvetica,SansSerif" font-size="11.4583" lengthAdjust="spacing" textLength="70.8333" x="339.0625" y="261.1796">(conversion)</text><line style="stroke:#5E5E5E;stroke-width:1.0416666666666667;" x1="413.0208" x2="508.8542" y1="257.37" y2="257.37"/><!--MD5=[2bc9d4f4896640ed607dbecf7c2a713c]
reverse link ObjectSerializer to GsonObjectSerializer--><path codeLine="14" d="M619.3125,118.2028 C638.7396,138.6403 662.6875,163.8382 683.4792,185.7132 " fill="none" id="ObjectSerializer-backto-GsonObjectSerializer" style="stroke:#545454;stroke-width:1.5625;"/><polygon fill="none" points="614.0625,123.2549,604.9896,103.1299,624.625,113.2132,614.0625,123.2549" style="stroke:#545454;stroke-width:1.5625;"/><!--MD5=[e585bddad89777545be61145f7705223]
reverse link RegistryTrait to GsonObjectSerializer--><path codeLine="15" d="M837.7083,118.5049 C819.4063,138.8903 796.9167,163.9424 777.375,185.7132 " fill="none" id="RegistryTrait-backto-GsonObjectSerializer" style="stroke:#545454;stroke-width:1.5625;"/><polygon fill="none" points="832.1354,113.7965,851.4792,103.1611,842.9896,123.5361,832.1354,113.7965" style="stroke:#545454;stroke-width:1.5625;"/><!--MD5=[3ecf4dd6c5a90d57948748c040d40502]
reverse link TryTrait to GsonObjectSerializer--><path codeLine="16" d="M731.7708,124.1715 C731.7708,143.4215 731.7708,165.9215 731.7708,185.7132 " fill="none" id="TryTrait-backto-GsonObjectSerializer" style="stroke:#545454;stroke-width:1.5625;"/><polygon fill="none" points="724.4792,124.4007,731.7708,103.5674,739.0625,124.4007,724.4792,124.4007" style="stroke:#545454;stroke-width:1.5625;"/><!--MD5=[1296c078d14080b0e943e885000125ad]
reverse link BaseKivaKitProject to GsonSerializationProject--><path codeLine="24" d="M104.6875,124.2132 C104.6875,153.2965 104.6875,189.7861 104.6875,213.1299 " fill="none" id="BaseKivaKitProject-backto-GsonSerializationProject" style="stroke:#545454;stroke-width:1.5625;"/><polygon fill="none" points="97.3958,124.4007,104.6875,103.5674,111.9792,124.4007,97.3958,124.4007" style="stroke:#545454;stroke-width:1.5625;"/><!--MD5=[908419489a7888a637f6c6fe5a5e9086]
reverse link JsonSerializerDeserializer to PrimitiveGsonSerializer--><path codeLine="29" d="M374.4792,124.3382 C374.4792,136.7028 374.4792,150.3903 374.4792,163.8486 " fill="none" id="JsonSerializerDeserializer-backto-PrimitiveGsonSerializer" style="stroke:#545454;stroke-width:1.5625;"/><polygon fill="none" points="367.1875,124.4007,374.4792,103.5674,381.7708,124.4007,367.1875,124.4007" style="stroke:#545454;stroke-width:1.5625;"/><!--MD5=[a09b6a36f0c5f677e439bd59bef3ba53]
@startuml

    !include lexakai.theme
    
    title "com.telenav.kivakit.serialization.gson"
    
    abstract BaseKivaKitProject
    
    interface JsonSerializerDeserializer
    interface ObjectSerializer
    interface TryTrait
    interface RegistryTrait
    
    ObjectSerializer <|- - GsonObjectSerializer
    RegistryTrait <|- - GsonObjectSerializer
    TryTrait <|- - GsonObjectSerializer
    class GsonObjectSerializer
    {
        - -(constructors)- -
        +GsonObjectSerializer()
        +GsonObjectSerializer(ProgressReporter)
    }
    
    BaseKivaKitProject <|- - GsonSerializationProject
    class GsonSerializationProject
    {
    }
    
    JsonSerializerDeserializer <|- - PrimitiveGsonSerializer
    abstract class PrimitiveGsonSerializer<T, Primitive>
    {
        - -(constructors)- -
        #PrimitiveGsonSerializer(Class<Primitive>)
        - -(conversion)- -
        #T toObject(Primitive)
        #Primitive toPrimitive(T object)
    }
    
@enduml

@startuml









skinparam backgroundColor #333333






skinparam  {
    defaultFontName   "Open Sans,Avenir,Nunito,Arial,Helvetica,SansSerif"
    defaultFontSize   12
    defaultTextAlignment left
    shadowing false
    RoundCorner 10
    TitleFontSize 18
}

skinparam defaultFontName       "Open Sans,Avenir,Nunito,Arial,Helvetica,SansSerif"
skinparam defaultFontSize       12
skinparam dpi                   100
skinparam shadowing             false
skinparam roundcorner           16
skinparam ParticipantPadding    40
skinparam BoxPadding            40
skinparam Padding               3
skinparam ArrowColor            #545454
skinparam stereotype {
    CBackgroundColor #0066cf
    CBorderColor #0086ef
    ABackgroundColor #C8Ac00
    ABorderColor #D8Bc00
    IBackgroundColor #008400
    IBorderColor #239c23
    EBackgroundColor #cf6300
    EBorderColor #ef8300
    NBackgroundColor #3380b9
    NBorderColor #004d86
}
skinparam title {
	FontColor	                 #c0c0c0
 	BorderColor                  #545454
	FontSize	    	         20
	BorderRoundCorner            16
	BorderThickness 	         1
	BackgroundColor              #48494b
}


skinparam legend {
	BackgroundColor #303030
	BorderColor #404040
	FontColor #a0a0a0
}

	skinparam swimlane {
	BorderColor #5e5e5e
	BorderThickness 2
	TitleBackgroundColor  #6d6d6d-#484848
	TitleFontColor #303030
}

skinparam activity {
		FontColor #C8Ac00
	BorderColor #333333
	BackgroundColor #333333-#333333
	BarColor #00FF00
	StartColor #0060a8
	EndColor #0060a8
	DiamondBackgroundColor #6d6d6d-#3a3a3a
  	DiamondBorderColor #3a3a3a
  	DiamondFontColor #fefefe
}


skinparam participant {
		FontColor #C8Ac00
	BorderColor #333333
	BackgroundColor #333333-#333333
	ParticipantBorderThickness 2
}


skinparam actor {
		FontColor #C8Ac00
	BorderColor #333333
	BackgroundColor #333333-#333333
}


skinparam arrow {
	Thickness 1.5
	Color #545454
	FontColor #a0a0a0
    FontStyle bold
    MessageAlignment center
}



skinparam sequence {
	BorderColor #303030
	TitleFontColor #303030
	BackgroundColor #333333
	StartColor #303030
	EndColor #303030
	BoxBackgroundColor #333333
	BoxBorderColor #484848
	BoxFontColor #484848
	LifeLineBorderColor #484848
	LifeLineBorderThickness 2
	LifeLineBackgroundColor #3a3a3a
	GroupBorderColor #484848
	GroupFontColor #484848
	GroupHeaderFontColor #0060a8
	GroupBackgroundColor #484848
	GroupHeaderBackgroundColor #333333
	DividerBackgroundColor #484848
    DividerBorderColor #484848
    DividerBorderThickness 2
    DividerFontColor #D8Bc00
	ReferenceBackgroundColor #333333
	ReferenceBorderColor #484848
	ReferenceFontColor #fefefe
	ReferenceHeaderBackgroundColor #484848
}


skinparam partition {
	BorderColor #303030
	FontColor #333333
	BackgroundColor #333333
}


skinparam collections {
		FontColor #C8Ac00
	BorderColor #333333
	BackgroundColor #333333-#333333
}


skinparam control {
		FontColor #C8Ac00
	BorderColor #333333
	BackgroundColor #333333-#333333
}


skinparam entity {
		FontColor #C8Ac00
	BorderColor #333333
	BackgroundColor #333333-#333333
}


skinparam boundary {
		FontColor #C8Ac00
	BorderColor #333333
	BackgroundColor #333333-#333333
}


skinparam agent {
	BackgroundColor #ff8000
	BorderColor #ff9933
	FontColor #484848
}


skinparam note {
	BorderThickness 1
	BackgroundColor #1b1b1a
	BorderColor #5e5e5e
	FontSize 11
	FontColor #a0a0a0
}


skinparam artifact {
	BorderThickness 10
	BorderColor #5e5e5e
	BackgroundColor #1b1b1a
	FontColor #D8Bc00
}


skinparam component {
		FontColor #C8Ac00
	BorderColor #333333
	BackgroundColor #333333-#333333
}


skinparam interface {
	BackgroundColor  #008400
	BorderColor  #007F00
	FontColor #484848
}


skinparam storage {
	BackgroundColor #ff8000
  	BorderColor #cc6600
	FontColor #222222
}


skinparam node {
	BackgroundColor #333333
	BorderColor #333333
	FontColor #C8Ac00
}


skinparam cloud {
	BackgroundColor #484848-black
	BorderColor #484848
	FontColor #D8Bc00
}


skinparam database {
		FontColor #C8Ac00
	BorderColor #333333
	BackgroundColor #333333-#333333
	BackgroundColor  #333333
}


skinparam class {
		FontColor #C8Ac00
	BorderColor #333333
	BackgroundColor #333333-#333333
	HeaderBackgroundColor #1b1b1a
    BackgroundColor #282828
    BorderColor #5e5e5e
 	StereotypeFontColor #a0a0a0
    StereotypeFontStyle bold
	BorderThickness 1
	AttributeFontColor #D8Bc00
	AttributeFontSize 11
    FontColor #D8Bc00
    FontStyle bold
}


skinparam object {
		FontColor #C8Ac00
	BorderColor #333333
	BackgroundColor #333333-#333333
	StereotypeFontColor #484848
	BorderThickness 1
	AttributeFontColor #fefefe
	AttributeFontSize 11
}


skinparam usecase {
		FontColor #C8Ac00
	BorderColor #333333
	BackgroundColor #333333-#333333
	BorderThickness 2
	StereotypeFontColor #303030
}


skinparam rectangle {
		FontColor #C8Ac00
	BorderColor #333333
	BackgroundColor #333333-#333333
	BackgroundColor #333333
	BorderThickness 2
	StereotypeFontColor #303030
}


skinparam package {
		FontColor #C8Ac00
	BorderColor #333333
	BackgroundColor #333333-#333333
	BackgroundColor #333333
	BorderThickness 2
}


skinparam folder {
	BackgroundColor #6d6d6d
  	BorderColor #ff8000
	FontColor #ff8000
	BorderThickness 2
}


skinparam frame {
	BackgroundColor #6d6d6d
  	BorderColor #0060a8
	FontColor #0060a8
	BorderThickness 2
}


skinparam state {
		FontColor #C8Ac00
	BorderColor #333333
	BackgroundColor #333333-#333333
	StartColor #0060a8
	EndColor #0060a8
	AttributeFontColor #fefefe
	AttributeFontSize 11
}


skinparam queue {
		FontColor #C8Ac00
	BorderColor #333333
	BackgroundColor #333333-#333333
}


skinparam card {
	BackgroundColor #0060a8
	BorderColor #004d86
	FontColor $INFO_TEXT
}


skinparam file {
	BackgroundColor #6d6d6d-#484848
	BorderColor #0060a8
	FontColor #fefefe
}


skinparam stack {
		FontColor #C8Ac00
	BorderColor #333333
	BackgroundColor #333333-#333333
}

    
    title "com.telenav.kivakit.serialization.gson"
    
    abstract BaseKivaKitProject
    
    interface JsonSerializerDeserializer
    interface ObjectSerializer
    interface TryTrait
    interface RegistryTrait
    
    ObjectSerializer <|- - GsonObjectSerializer
    RegistryTrait <|- - GsonObjectSerializer
    TryTrait <|- - GsonObjectSerializer
    class GsonObjectSerializer
    {
        - -(constructors)- -
        +GsonObjectSerializer()
        +GsonObjectSerializer(ProgressReporter)
    }
    
    BaseKivaKitProject <|- - GsonSerializationProject
    class GsonSerializationProject
    {
    }
    
    JsonSerializerDeserializer <|- - PrimitiveGsonSerializer
    abstract class PrimitiveGsonSerializer<T, Primitive>
    {
        - -(constructors)- -
        #PrimitiveGsonSerializer(Class<Primitive>)
        - -(conversion)- -
        #T toObject(Primitive)
        #Primitive toPrimitive(T object)
    }
    
@enduml

PlantUML version 1.2021.01(Tue Feb 02 00:55:08 MST 2021)
(GPL source distribution)
Java Runtime: OpenJDK Runtime Environment
JVM: OpenJDK 64-Bit Server VM
Default Encoding: UTF-8
Language: en
Country: US
--></g></svg>