<?xml version="1.0" encoding="UTF-8" standalone="no"?><svg xmlns="http://www.w3.org/2000/svg" xmlns:xlink="http://www.w3.org/1999/xlink" contentScriptType="application/ecmascript" contentStyleType="text/css" height="218.75px" preserveAspectRatio="none" style="width:2453px;height:218px;background:#333333;" version="1.1" viewBox="0 0 2453 218" width="2453.125px" zoomAndPan="magnify"><defs/><g><rect fill="#48494B" height="41.2028" rx="8.3333" ry="8.3333" style="stroke:#545454;stroke-width:1.0416666666666667;" width="467.7083" x="985.6771" y="2.0833"/><text fill="#C0C0C0" font-family="Open Sans,Avenir,Nunito,Arial,Helvetica,SansSerif" font-size="20.8333" lengthAdjust="spacing" textLength="444.7917" x="997.1354" y="30.5583">com.telenav.kivakit.resource.internal.lexakai</text><rect codeLine="67" fill="#282828" height="48.055" id="UmlDiagramIdentifier" rx="8.3333" ry="8.3333" style="stroke:#5E5E5E;stroke-width:1.0416666666666667;" width="178.125" x="1104.6875" y="53.7028"/><rect fill="#1B1B1A" height="31.3883" rx="8.3333" ry="8.3333" style="stroke:#1B1B1A;stroke-width:1.0416666666666667;" width="178.125" x="1104.6875" y="53.7028"/><rect fill="#1B1B1A" height="8.3333" style="stroke:#1B1B1A;stroke-width:1.0416666666666667;" width="178.125" x="1104.6875" y="76.7578"/><rect codeLine="67" fill="none" height="48.055" id="UmlDiagramIdentifier" rx="8.3333" ry="8.3333" style="stroke:#5E5E5E;stroke-width:1.0416666666666667;" width="178.125" x="1104.6875" y="53.7028"/><ellipse cx="1119.2708" cy="69.397" fill="#008400" rx="10.4167" ry="10.4167" style="stroke:#239C23;stroke-width:1.0416666666666667;"/><path d="M1116.6748,66.5588 L1116.6748,64.9719 L1122.1008,64.9719 L1122.1008,66.5588 L1120.2881,66.5588 L1120.2881,72.4976 L1122.1008,72.4976 L1122.1008,74.0845 L1116.6748,74.0845 L1116.6748,72.4976 L1118.4875,72.4976 L1118.4875,66.5588 Z " fill="#000000"/><text fill="#D8BC00" font-family="Open Sans,Avenir,Nunito,Arial,Helvetica,SansSerif" font-size="12.5" font-style="italic" font-weight="bold" lengthAdjust="spacing" textLength="140.625" x="1135.9375" y="74.1211">UmlDiagramIdentifier</text><line style="stroke:#5E5E5E;stroke-width:1.0416666666666667;" x1="1105.7292" x2="1281.7708" y1="85.0911" y2="85.0911"/><line style="stroke:#5E5E5E;stroke-width:1.0416666666666667;" x1="1105.7292" x2="1281.7708" y1="93.4245" y2="93.4245"/><rect codeLine="9" fill="#282828" height="48.055" id="DiagramFileSystem" rx="8.3333" ry="8.3333" style="stroke:#5E5E5E;stroke-width:1.0416666666666667;" width="162.5" x="7.2917" y="164.1195"/><rect fill="#1B1B1A" height="31.3883" rx="8.3333" ry="8.3333" style="stroke:#1B1B1A;stroke-width:1.0416666666666667;" width="162.5" x="7.2917" y="164.1195"/><rect fill="#1B1B1A" height="8.3333" style="stroke:#1B1B1A;stroke-width:1.0416666666666667;" width="162.5" x="7.2917" y="187.1745"/><rect codeLine="9" fill="none" height="48.055" id="DiagramFileSystem" rx="8.3333" ry="8.3333" style="stroke:#5E5E5E;stroke-width:1.0416666666666667;" width="162.5" x="7.2917" y="164.1195"/><ellipse cx="21.875" cy="179.8136" fill="#008400" rx="10.4167" ry="10.4167" style="stroke:#239C23;stroke-width:1.0416666666666667;"/><path d="M19.279,176.9755 L19.279,175.3886 L24.705,175.3886 L24.705,176.9755 L22.8923,176.9755 L22.8923,182.9142 L24.705,182.9142 L24.705,184.5011 L19.279,184.5011 L19.279,182.9142 L21.0917,182.9142 L21.0917,176.9755 Z " fill="#000000"/><text fill="#D8BC00" font-family="Open Sans,Avenir,Nunito,Arial,Helvetica,SansSerif" font-size="12.5" font-style="italic" font-weight="bold" lengthAdjust="spacing" textLength="125" x="38.5417" y="184.5378">DiagramFileSystem</text><line style="stroke:#5E5E5E;stroke-width:1.0416666666666667;" x1="8.3333" x2="168.75" y1="195.5078" y2="195.5078"/><line style="stroke:#5E5E5E;stroke-width:1.0416666666666667;" x1="8.3333" x2="168.75" y1="203.8411" y2="203.8411"/><rect codeLine="15" fill="#282828" height="48.055" id="DiagramFileSystemFile" rx="8.3333" ry="8.3333" style="stroke:#5E5E5E;stroke-width:1.0416666666666667;" width="185.4167" x="206.25" y="164.1195"/><rect fill="#1B1B1A" height="31.3883" rx="8.3333" ry="8.3333" style="stroke:#1B1B1A;stroke-width:1.0416666666666667;" width="185.4167" x="206.25" y="164.1195"/><rect fill="#1B1B1A" height="8.3333" style="stroke:#1B1B1A;stroke-width:1.0416666666666667;" width="185.4167" x="206.25" y="187.1745"/><rect codeLine="15" fill="none" height="48.055" id="DiagramFileSystemFile" rx="8.3333" ry="8.3333" style="stroke:#5E5E5E;stroke-width:1.0416666666666667;" width="185.4167" x="206.25" y="164.1195"/><ellipse cx="220.8333" cy="179.8136" fill="#008400" rx="10.4167" ry="10.4167" style="stroke:#239C23;stroke-width:1.0416666666666667;"/><path d="M218.2373,176.9755 L218.2373,175.3886 L223.6633,175.3886 L223.6633,176.9755 L221.8506,176.9755 L221.8506,182.9142 L223.6633,182.9142 L223.6633,184.5011 L218.2373,184.5011 L218.2373,182.9142 L220.05,182.9142 L220.05,176.9755 Z " fill="#000000"/><text fill="#D8BC00" font-family="Open Sans,Avenir,Nunito,Arial,Helvetica,SansSerif" font-size="12.5" font-style="italic" font-weight="bold" lengthAdjust="spacing" textLength="147.9167" x="237.5" y="184.5378">DiagramFileSystemFile</text><line style="stroke:#5E5E5E;stroke-width:1.0416666666666667;" x1="207.2917" x2="390.625" y1="195.5078" y2="195.5078"/><line style="stroke:#5E5E5E;stroke-width:1.0416666666666667;" x1="207.2917" x2="390.625" y1="203.8411" y2="203.8411"/><rect codeLine="21" fill="#282828" height="48.055" id="DiagramFileSystemFolder" rx="8.3333" ry="8.3333" style="stroke:#5E5E5E;stroke-width:1.0416666666666667;" width="203.125" x="428.6458" y="164.1195"/><rect fill="#1B1B1A" height="31.3883" rx="8.3333" ry="8.3333" style="stroke:#1B1B1A;stroke-width:1.0416666666666667;" width="203.125" x="428.6458" y="164.1195"/><rect fill="#1B1B1A" height="8.3333" style="stroke:#1B1B1A;stroke-width:1.0416666666666667;" width="203.125" x="428.6458" y="187.1745"/><rect codeLine="21" fill="none" height="48.055" id="DiagramFileSystemFolder" rx="8.3333" ry="8.3333" style="stroke:#5E5E5E;stroke-width:1.0416666666666667;" width="203.125" x="428.6458" y="164.1195"/><ellipse cx="443.2292" cy="179.8136" fill="#008400" rx="10.4167" ry="10.4167" style="stroke:#239C23;stroke-width:1.0416666666666667;"/><path d="M440.6331,176.9755 L440.6331,175.3886 L446.0592,175.3886 L446.0592,176.9755 L444.2464,176.9755 L444.2464,182.9142 L446.0592,182.9142 L446.0592,184.5011 L440.6331,184.5011 L440.6331,182.9142 L442.4459,182.9142 L442.4459,176.9755 Z " fill="#000000"/><text fill="#D8BC00" font-family="Open Sans,Avenir,Nunito,Arial,Helvetica,SansSerif" font-size="12.5" font-style="italic" font-weight="bold" lengthAdjust="spacing" textLength="165.625" x="459.8958" y="184.5378">DiagramFileSystemFolder</text><line style="stroke:#5E5E5E;stroke-width:1.0416666666666667;" x1="429.6875" x2="630.7292" y1="195.5078" y2="195.5078"/><line style="stroke:#5E5E5E;stroke-width:1.0416666666666667;" x1="429.6875" x2="630.7292" y1="203.8411" y2="203.8411"/><rect codeLine="27" fill="#282828" height="48.055" id="DiagramFileSystemService" rx="8.3333" ry="8.3333" style="stroke:#5E5E5E;stroke-width:1.0416666666666667;" width="207.2917" x="668.2292" y="164.1195"/><rect fill="#1B1B1A" height="31.3883" rx="8.3333" ry="8.3333" style="stroke:#1B1B1A;stroke-width:1.0416666666666667;" width="207.2917" x="668.2292" y="164.1195"/><rect fill="#1B1B1A" height="8.3333" style="stroke:#1B1B1A;stroke-width:1.0416666666666667;" width="207.2917" x="668.2292" y="187.1745"/><rect codeLine="27" fill="none" height="48.055" id="DiagramFileSystemService" rx="8.3333" ry="8.3333" style="stroke:#5E5E5E;stroke-width:1.0416666666666667;" width="207.2917" x="668.2292" y="164.1195"/><ellipse cx="682.8125" cy="179.8136" fill="#008400" rx="10.4167" ry="10.4167" style="stroke:#239C23;stroke-width:1.0416666666666667;"/><path d="M680.2165,176.9755 L680.2165,175.3886 L685.6425,175.3886 L685.6425,176.9755 L683.8298,176.9755 L683.8298,182.9142 L685.6425,182.9142 L685.6425,184.5011 L680.2165,184.5011 L680.2165,182.9142 L682.0292,182.9142 L682.0292,176.9755 Z " fill="#000000"/><text fill="#D8BC00" font-family="Open Sans,Avenir,Nunito,Arial,Helvetica,SansSerif" font-size="12.5" font-style="italic" font-weight="bold" lengthAdjust="spacing" textLength="169.7917" x="699.4792" y="184.5378">DiagramFileSystemService</text><line style="stroke:#5E5E5E;stroke-width:1.0416666666666667;" x1="669.2708" x2="874.4792" y1="195.5078" y2="195.5078"/><line style="stroke:#5E5E5E;stroke-width:1.0416666666666667;" x1="669.2708" x2="874.4792" y1="203.8411" y2="203.8411"/><rect codeLine="33" fill="#282828" height="48.055" id="DiagramJarLauncher" rx="8.3333" ry="8.3333" style="stroke:#5E5E5E;stroke-width:1.0416666666666667;" width="168.75" x="912.5" y="164.1195"/><rect fill="#1B1B1A" height="31.3883" rx="8.3333" ry="8.3333" style="stroke:#1B1B1A;stroke-width:1.0416666666666667;" width="168.75" x="912.5" y="164.1195"/><rect fill="#1B1B1A" height="8.3333" style="stroke:#1B1B1A;stroke-width:1.0416666666666667;" width="168.75" x="912.5" y="187.1745"/><rect codeLine="33" fill="none" height="48.055" id="DiagramJarLauncher" rx="8.3333" ry="8.3333" style="stroke:#5E5E5E;stroke-width:1.0416666666666667;" width="168.75" x="912.5" y="164.1195"/><ellipse cx="927.0833" cy="179.8136" fill="#008400" rx="10.4167" ry="10.4167" style="stroke:#239C23;stroke-width:1.0416666666666667;"/><path d="M924.4873,176.9755 L924.4873,175.3886 L929.9133,175.3886 L929.9133,176.9755 L928.1006,176.9755 L928.1006,182.9142 L929.9133,182.9142 L929.9133,184.5011 L924.4873,184.5011 L924.4873,182.9142 L926.3,182.9142 L926.3,176.9755 Z " fill="#000000"/><text fill="#D8BC00" font-family="Open Sans,Avenir,Nunito,Arial,Helvetica,SansSerif" font-size="12.5" font-style="italic" font-weight="bold" lengthAdjust="spacing" textLength="131.25" x="943.75" y="184.5378">DiagramJarLauncher</text><line style="stroke:#5E5E5E;stroke-width:1.0416666666666667;" x1="913.5417" x2="1080.2083" y1="195.5078" y2="195.5078"/><line style="stroke:#5E5E5E;stroke-width:1.0416666666666667;" x1="913.5417" x2="1080.2083" y1="203.8411" y2="203.8411"/><rect codeLine="39" fill="#282828" height="48.055" id="DiagramResource" rx="8.3333" ry="8.3333" style="stroke:#5E5E5E;stroke-width:1.0416666666666667;" width="151.0417" x="1118.2292" y="164.1195"/><rect fill="#1B1B1A" height="31.3883" rx="8.3333" ry="8.3333" style="stroke:#1B1B1A;stroke-width:1.0416666666666667;" width="151.0417" x="1118.2292" y="164.1195"/><rect fill="#1B1B1A" height="8.3333" style="stroke:#1B1B1A;stroke-width:1.0416666666666667;" width="151.0417" x="1118.2292" y="187.1745"/><rect codeLine="39" fill="none" height="48.055" id="DiagramResource" rx="8.3333" ry="8.3333" style="stroke:#5E5E5E;stroke-width:1.0416666666666667;" width="151.0417" x="1118.2292" y="164.1195"/><ellipse cx="1132.8125" cy="179.8136" fill="#008400" rx="10.4167" ry="10.4167" style="stroke:#239C23;stroke-width:1.0416666666666667;"/><path d="M1130.2165,176.9755 L1130.2165,175.3886 L1135.6425,175.3886 L1135.6425,176.9755 L1133.8298,176.9755 L1133.8298,182.9142 L1135.6425,182.9142 L1135.6425,184.5011 L1130.2165,184.5011 L1130.2165,182.9142 L1132.0292,182.9142 L1132.0292,176.9755 Z " fill="#000000"/><text fill="#D8BC00" font-family="Open Sans,Avenir,Nunito,Arial,Helvetica,SansSerif" font-size="12.5" font-style="italic" font-weight="bold" lengthAdjust="spacing" textLength="113.5417" x="1149.4792" y="184.5378">DiagramResource</text><line style="stroke:#5E5E5E;stroke-width:1.0416666666666667;" x1="1119.2708" x2="1268.2292" y1="195.5078" y2="195.5078"/><line style="stroke:#5E5E5E;stroke-width:1.0416666666666667;" x1="1119.2708" x2="1268.2292" y1="203.8411" y2="203.8411"/><rect codeLine="45" fill="#282828" height="48.055" id="DiagramResourceArchive" rx="8.3333" ry="8.3333" style="stroke:#5E5E5E;stroke-width:1.0416666666666667;" width="198.9583" x="1305.7292" y="164.1195"/><rect fill="#1B1B1A" height="31.3883" rx="8.3333" ry="8.3333" style="stroke:#1B1B1A;stroke-width:1.0416666666666667;" width="198.9583" x="1305.7292" y="164.1195"/><rect fill="#1B1B1A" height="8.3333" style="stroke:#1B1B1A;stroke-width:1.0416666666666667;" width="198.9583" x="1305.7292" y="187.1745"/><rect codeLine="45" fill="none" height="48.055" id="DiagramResourceArchive" rx="8.3333" ry="8.3333" style="stroke:#5E5E5E;stroke-width:1.0416666666666667;" width="198.9583" x="1305.7292" y="164.1195"/><ellipse cx="1320.3125" cy="179.8136" fill="#008400" rx="10.4167" ry="10.4167" style="stroke:#239C23;stroke-width:1.0416666666666667;"/><path d="M1317.7165,176.9755 L1317.7165,175.3886 L1323.1425,175.3886 L1323.1425,176.9755 L1321.3298,176.9755 L1321.3298,182.9142 L1323.1425,182.9142 L1323.1425,184.5011 L1317.7165,184.5011 L1317.7165,182.9142 L1319.5292,182.9142 L1319.5292,176.9755 Z " fill="#000000"/><text fill="#D8BC00" font-family="Open Sans,Avenir,Nunito,Arial,Helvetica,SansSerif" font-size="12.5" font-style="italic" font-weight="bold" lengthAdjust="spacing" textLength="161.4583" x="1336.9792" y="184.5378">DiagramResourceArchive</text><line style="stroke:#5E5E5E;stroke-width:1.0416666666666667;" x1="1306.7708" x2="1503.6458" y1="195.5078" y2="195.5078"/><line style="stroke:#5E5E5E;stroke-width:1.0416666666666667;" x1="1306.7708" x2="1503.6458" y1="203.8411" y2="203.8411"/><rect codeLine="51" fill="#282828" height="48.055" id="DiagramResourceCompression" rx="8.3333" ry="8.3333" style="stroke:#5E5E5E;stroke-width:1.0416666666666667;" width="237.5" x="1541.6667" y="164.1195"/><rect fill="#1B1B1A" height="31.3883" rx="8.3333" ry="8.3333" style="stroke:#1B1B1A;stroke-width:1.0416666666666667;" width="237.5" x="1541.6667" y="164.1195"/><rect fill="#1B1B1A" height="8.3333" style="stroke:#1B1B1A;stroke-width:1.0416666666666667;" width="237.5" x="1541.6667" y="187.1745"/><rect codeLine="51" fill="none" height="48.055" id="DiagramResourceCompression" rx="8.3333" ry="8.3333" style="stroke:#5E5E5E;stroke-width:1.0416666666666667;" width="237.5" x="1541.6667" y="164.1195"/><ellipse cx="1556.25" cy="179.8136" fill="#008400" rx="10.4167" ry="10.4167" style="stroke:#239C23;stroke-width:1.0416666666666667;"/><path d="M1553.654,176.9755 L1553.654,175.3886 L1559.08,175.3886 L1559.08,176.9755 L1557.2673,176.9755 L1557.2673,182.9142 L1559.08,182.9142 L1559.08,184.5011 L1553.654,184.5011 L1553.654,182.9142 L1555.4667,182.9142 L1555.4667,176.9755 Z " fill="#000000"/><text fill="#D8BC00" font-family="Open Sans,Avenir,Nunito,Arial,Helvetica,SansSerif" font-size="12.5" font-style="italic" font-weight="bold" lengthAdjust="spacing" textLength="200" x="1572.9167" y="184.5378">DiagramResourceCompression</text><line style="stroke:#5E5E5E;stroke-width:1.0416666666666667;" x1="1542.7083" x2="1778.125" y1="195.5078" y2="195.5078"/><line style="stroke:#5E5E5E;stroke-width:1.0416666666666667;" x1="1542.7083" x2="1778.125" y1="203.8411" y2="203.8411"/><rect codeLine="57" fill="#282828" height="48.055" id="DiagramResourcePath" rx="8.3333" ry="8.3333" style="stroke:#5E5E5E;stroke-width:1.0416666666666667;" width="179.1667" x="1815.625" y="164.1195"/><rect fill="#1B1B1A" height="31.3883" rx="8.3333" ry="8.3333" style="stroke:#1B1B1A;stroke-width:1.0416666666666667;" width="179.1667" x="1815.625" y="164.1195"/><rect fill="#1B1B1A" height="8.3333" style="stroke:#1B1B1A;stroke-width:1.0416666666666667;" width="179.1667" x="1815.625" y="187.1745"/><rect codeLine="57" fill="none" height="48.055" id="DiagramResourcePath" rx="8.3333" ry="8.3333" style="stroke:#5E5E5E;stroke-width:1.0416666666666667;" width="179.1667" x="1815.625" y="164.1195"/><ellipse cx="1830.2083" cy="179.8136" fill="#008400" rx="10.4167" ry="10.4167" style="stroke:#239C23;stroke-width:1.0416666666666667;"/><path d="M1827.6123,176.9755 L1827.6123,175.3886 L1833.0383,175.3886 L1833.0383,176.9755 L1831.2256,176.9755 L1831.2256,182.9142 L1833.0383,182.9142 L1833.0383,184.5011 L1827.6123,184.5011 L1827.6123,182.9142 L1829.425,182.9142 L1829.425,176.9755 Z " fill="#000000"/><text fill="#D8BC00" font-family="Open Sans,Avenir,Nunito,Arial,Helvetica,SansSerif" font-size="12.5" font-style="italic" font-weight="bold" lengthAdjust="spacing" textLength="141.6667" x="1846.875" y="184.5378">DiagramResourcePath</text><line style="stroke:#5E5E5E;stroke-width:1.0416666666666667;" x1="1816.6667" x2="1993.75" y1="195.5078" y2="195.5078"/><line style="stroke:#5E5E5E;stroke-width:1.0416666666666667;" x1="1816.6667" x2="1993.75" y1="203.8411" y2="203.8411"/><rect codeLine="63" fill="#282828" height="48.055" id="DiagramResourceService" rx="8.3333" ry="8.3333" style="stroke:#5E5E5E;stroke-width:1.0416666666666667;" width="195.8333" x="2031.25" y="164.1195"/><rect fill="#1B1B1A" height="31.3883" rx="8.3333" ry="8.3333" style="stroke:#1B1B1A;stroke-width:1.0416666666666667;" width="195.8333" x="2031.25" y="164.1195"/><rect fill="#1B1B1A" height="8.3333" style="stroke:#1B1B1A;stroke-width:1.0416666666666667;" width="195.8333" x="2031.25" y="187.1745"/><rect codeLine="63" fill="none" height="48.055" id="DiagramResourceService" rx="8.3333" ry="8.3333" style="stroke:#5E5E5E;stroke-width:1.0416666666666667;" width="195.8333" x="2031.25" y="164.1195"/><ellipse cx="2045.8333" cy="179.8136" fill="#008400" rx="10.4167" ry="10.4167" style="stroke:#239C23;stroke-width:1.0416666666666667;"/><path d="M2043.2373,176.9755 L2043.2373,175.3886 L2048.6633,175.3886 L2048.6633,176.9755 L2046.8506,176.9755 L2046.8506,182.9142 L2048.6633,182.9142 L2048.6633,184.5011 L2043.2373,184.5011 L2043.2373,182.9142 L2045.05,182.9142 L2045.05,176.9755 Z " fill="#000000"/><text fill="#D8BC00" font-family="Open Sans,Avenir,Nunito,Arial,Helvetica,SansSerif" font-size="12.5" font-style="italic" font-weight="bold" lengthAdjust="spacing" textLength="158.3333" x="2062.5" y="184.5378">DiagramResourceService</text><line style="stroke:#5E5E5E;stroke-width:1.0416666666666667;" x1="2032.2917" x2="2226.0417" y1="195.5078" y2="195.5078"/><line style="stroke:#5E5E5E;stroke-width:1.0416666666666667;" x1="2032.2917" x2="2226.0417" y1="203.8411" y2="203.8411"/><rect codeLine="69" fill="#282828" height="48.055" id="DiagramResourceType" rx="8.3333" ry="8.3333" style="stroke:#5E5E5E;stroke-width:1.0416666666666667;" width="182.2917" x="2264.0625" y="164.1195"/><rect fill="#1B1B1A" height="31.3883" rx="8.3333" ry="8.3333" style="stroke:#1B1B1A;stroke-width:1.0416666666666667;" width="182.2917" x="2264.0625" y="164.1195"/><rect fill="#1B1B1A" height="8.3333" style="stroke:#1B1B1A;stroke-width:1.0416666666666667;" width="182.2917" x="2264.0625" y="187.1745"/><rect codeLine="69" fill="none" height="48.055" id="DiagramResourceType" rx="8.3333" ry="8.3333" style="stroke:#5E5E5E;stroke-width:1.0416666666666667;" width="182.2917" x="2264.0625" y="164.1195"/><ellipse cx="2278.6458" cy="179.8136" fill="#008400" rx="10.4167" ry="10.4167" style="stroke:#239C23;stroke-width:1.0416666666666667;"/><path d="M2276.0498,176.9755 L2276.0498,175.3886 L2281.4758,175.3886 L2281.4758,176.9755 L2279.6631,176.9755 L2279.6631,182.9142 L2281.4758,182.9142 L2281.4758,184.5011 L2276.0498,184.5011 L2276.0498,182.9142 L2277.8625,182.9142 L2277.8625,176.9755 Z " fill="#000000"/><text fill="#D8BC00" font-family="Open Sans,Avenir,Nunito,Arial,Helvetica,SansSerif" font-size="12.5" font-style="italic" font-weight="bold" lengthAdjust="spacing" textLength="144.7917" x="2295.3125" y="184.5378">DiagramResourceType</text><line style="stroke:#5E5E5E;stroke-width:1.0416666666666667;" x1="2265.1042" x2="2445.3125" y1="195.5078" y2="195.5078"/><line style="stroke:#5E5E5E;stroke-width:1.0416666666666667;" x1="2265.1042" x2="2445.3125" y1="203.8411" y2="203.8411"/><path codeLine="8" d="M1083.5625,82.9007 C897.7917,91.1299 510.8646,113.2236 187.5,164.1195 C181.75,165.0257 175.8438,166.0778 169.9063,167.2236 " fill="none" id="UmlDiagramIdentifier-backto-DiagramFileSystem" style="stroke:#545454;stroke-width:1.5625;"/><polygon fill="none" points="1083.2708,75.6195,1104.3958,82.0049,1083.8958,90.182,1083.2708,75.6195" style="stroke:#545454;stroke-width:1.5625;"/><path codeLine="14" d="M1083.3854,87.4424 C931.3333,100.2236 649.125,126.6507 410.4167,164.1195 C404.3646,165.0674 398.1458,166.1299 391.8854,167.2445 " fill="none" id="UmlDiagramIdentifier-backto-DiagramFileSystemFile" style="stroke:#545454;stroke-width:1.5625;"/><polygon fill="none" points="1083.0313,80.1507,1104.4063,85.6924,1084.2396,94.682,1083.0313,80.1507" style="stroke:#545454;stroke-width:1.5625;"/><path codeLine="20" d="M1083.8125,94.8799 C973.8542,111.3174 799.9792,138.0049 650,164.1195 C644.0521,165.1507 637.9479,166.2445 631.7917,167.359 " fill="none" id="UmlDiagramIdentifier-backto-DiagramFileSystemFolder" style="stroke:#545454;stroke-width:1.5625;"/><polygon fill="none" points="1082.9167,87.6403,1104.5938,91.7757,1085.0625,102.0674,1082.9167,87.6403" style="stroke:#545454;stroke-width:1.5625;"/><path codeLine="26" d="M1083.8958,106.9111 C1014.5833,124.7132 926.2083,147.4007 861.2188,164.0986 " fill="none" id="UmlDiagramIdentifier-backto-DiagramFileSystemService" style="stroke:#545454;stroke-width:1.5625;"/><polygon fill="none" points="1082.2917,99.7965,1104.2813,101.682,1085.9167,113.9215,1082.2917,99.7965" style="stroke:#545454;stroke-width:1.5625;"/><path codeLine="32" d="M1133.7292,111.7236 C1102.9479,128.6715 1066.2188,148.8799 1038.5625,164.0986 " fill="none" id="UmlDiagramIdentifier-backto-DiagramJarLauncher" style="stroke:#545454;stroke-width:1.5625;"/><polygon fill="none" points="1130.2292,105.3278,1152,101.682,1137.2604,118.109,1130.2292,105.3278" style="stroke:#545454;stroke-width:1.5625;"/><path codeLine="38" d="M1193.75,122.6195 C1193.75,136.8382 1193.75,152.0361 1193.75,164.0986 " fill="none" id="UmlDiagramIdentifier-backto-DiagramResource" style="stroke:#545454;stroke-width:1.5625;"/><polygon fill="none" points="1186.4583,122.5153,1193.75,101.682,1201.0417,122.5153,1186.4583,122.5153" style="stroke:#545454;stroke-width:1.5625;"/><path codeLine="44" d="M1257.2813,111.2445 C1290.5313,128.2861 1330.4479,148.734 1360.4271,164.0986 " fill="none" id="UmlDiagramIdentifier-backto-DiagramResourceArchive" style="stroke:#545454;stroke-width:1.5625;"/><polygon fill="none" points="1253.8125,117.6611,1238.5938,101.682,1260.4583,104.682,1253.8125,117.6611" style="stroke:#545454;stroke-width:1.5625;"/><path codeLine="50" d="M1303.1979,104.109 C1381.4167,122.2653 1485.7708,146.4945 1561.4896,164.0674 " fill="none" id="UmlDiagramIdentifier-backto-DiagramResourceCompression" style="stroke:#545454;stroke-width:1.5625;"/><polygon fill="none" points="1301.5417,111.2132,1282.8958,99.4007,1304.8438,97.0049,1301.5417,111.2132" style="stroke:#545454;stroke-width:1.5625;"/><path codeLine="56" d="M1304.1042,91.9528 C1425.5104,107.0674 1626.2083,133.682 1797.9167,164.1195 C1803.6354,165.1299 1809.5208,166.234 1815.4375,167.3799 " fill="none" id="UmlDiagramIdentifier-backto-DiagramResourcePath" style="stroke:#545454;stroke-width:1.5625;"/><polygon fill="none" points="1302.8958,99.1507,1283.1146,89.3486,1304.6875,84.6715,1302.8958,99.1507" style="stroke:#545454;stroke-width:1.5625;"/><path codeLine="62" d="M1303.7813,86.932 C1461.5104,99.4736 1760.7396,125.984 2013.5417,164.1195 C2019.3125,164.9945 2025.2292,165.9528 2031.1875,166.9736 " fill="none" id="UmlDiagramIdentifier-backto-DiagramResourceService" style="stroke:#545454;stroke-width:1.5625;"/><polygon fill="none" points="1303.1458,94.2028,1282.9479,85.2965,1304.2917,79.6611,1303.1458,94.2028" style="stroke:#545454;stroke-width:1.5625;"/><path codeLine="68" d="M1303.7917,83.0882 C1495.8229,91.7445 1904.25,114.6715 2245.8333,164.1195 C2251.7813,164.984 2257.8958,165.9736 2264.0521,167.0465 " fill="none" id="UmlDiagramIdentifier-backto-DiagramResourceType" style="stroke:#545454;stroke-width:1.5625;"/><polygon fill="none" points="1303.3438,90.3695,1282.8438,82.1611,1303.9792,75.7965,1303.3438,90.3695" style="stroke:#545454;stroke-width:1.5625;"/></g></svg>
