<?xml version="1.0" encoding="UTF-8" standalone="no"?><svg xmlns="http://www.w3.org/2000/svg" xmlns:xlink="http://www.w3.org/1999/xlink" contentScriptType="application/ecmascript" contentStyleType="text/css" height="128.125px" preserveAspectRatio="none" style="width:558px;height:128px;background:#333333;" version="1.1" viewBox="0 0 558 128" width="558.3333px" zoomAndPan="magnify"><defs/><g><rect fill="#48494B" height="41.2028" rx="8.3333" ry="8.3333" style="stroke:#545454;stroke-width:1.0416666666666667;" width="545.8333" x="2.0833" y="2.0833"/><text fill="#C0C0C0" font-family="Open Sans,Avenir,Nunito,Arial,Helvetica,SansSerif" font-size="20.8333" lengthAdjust="spacing" textLength="522.9167" x="13.5417" y="30.5583">com.telenav.kivakit.microservice.protocols.rest.gson</text><rect codeLine="7" fill="#282828" height="67.7999" id="MicroserviceGsonObjectSource" rx="8.3333" ry="8.3333" style="stroke:#5E5E5E;stroke-width:1.0416666666666667;" width="235.4167" x="157.8125" y="53.7028"/><rect fill="#1B1B1A" height="31.3883" rx="8.3333" ry="8.3333" style="stroke:#1B1B1A;stroke-width:1.0416666666666667;" width="235.4167" x="157.8125" y="53.7028"/><rect fill="#1B1B1A" height="8.3333" style="stroke:#1B1B1A;stroke-width:1.0416666666666667;" width="235.4167" x="157.8125" y="76.7578"/><rect codeLine="7" fill="none" height="67.7999" id="MicroserviceGsonObjectSource" rx="8.3333" ry="8.3333" style="stroke:#5E5E5E;stroke-width:1.0416666666666667;" width="235.4167" x="157.8125" y="53.7028"/><ellipse cx="172.3958" cy="69.397" fill="#008400" rx="10.4167" ry="10.4167" style="stroke:#239C23;stroke-width:1.0416666666666667;"/><path d="M169.7998,66.5588 L169.7998,64.9719 L175.2258,64.9719 L175.2258,66.5588 L173.4131,66.5588 L173.4131,72.4976 L175.2258,72.4976 L175.2258,74.0845 L169.7998,74.0845 L169.7998,72.4976 L171.6125,72.4976 L171.6125,66.5588 Z " fill="#000000"/><text fill="#D8BC00" font-family="Open Sans,Avenir,Nunito,Arial,Helvetica,SansSerif" font-size="12.5" font-style="italic" font-weight="bold" lengthAdjust="spacing" textLength="197.9167" x="189.0625" y="74.1211">MicroserviceGsonObjectSource</text><line style="stroke:#5E5E5E;stroke-width:1.5625;" x1="158.8542" x2="392.1875" y1="85.0911" y2="85.0911"/><line style="stroke:#5E5E5E;stroke-width:1.0416666666666667;" x1="158.8542" x2="392.1875" y1="93.4245" y2="93.4245"/><ellipse cx="169.2708" cy="104.8828" fill="#84BE84" rx="3.125" ry="3.125" style="stroke:#038048;stroke-width:1.0416666666666667;"/><text fill="#D8BC00" font-family="Open Sans,Avenir,Nunito,Arial,Helvetica,SansSerif" font-size="11.4583" lengthAdjust="spacing" textLength="112.5" x="180.7292" y="111.794">Object gsonObject()</text></g></svg>
