<?xml version="1.0" encoding="UTF-8" standalone="no"?><svg xmlns="http://www.w3.org/2000/svg" xmlns:xlink="http://www.w3.org/1999/xlink" contentScriptType="application/ecmascript" contentStyleType="text/css" height="1238.5417px" preserveAspectRatio="none" style="width:1316px;height:1238px;background:#333333;" version="1.1" viewBox="0 0 1316 1238" width="1316.6667px" zoomAndPan="magnify"><defs/><g><rect fill="#48494B" height="41.2028" rx="8.3333" ry="8.3333" style="stroke:#545454;stroke-width:1.0416666666666667;" width="756.25" x="272.9167" y="2.0833"/><text fill="#C0C0C0" font-family="Open Sans,Avenir,Nunito,Arial,Helvetica,SansSerif" font-size="20.8333" lengthAdjust="spacing" textLength="733.3333" x="284.375" y="30.5583">com.telenav.kivakit.microservice.internal.protocols.rest.plugins.jetty.filter</text><rect codeLine="7" fill="#282828" height="48.055" id="BaseComponent" rx="8.3333" ry="8.3333" style="stroke:#5E5E5E;stroke-width:1.0416666666666667;" width="143.75" x="633.3333" y="204.7445"/><rect fill="#1B1B1A" height="31.3883" rx="8.3333" ry="8.3333" style="stroke:#1B1B1A;stroke-width:1.0416666666666667;" width="143.75" x="633.3333" y="204.7445"/><rect fill="#1B1B1A" height="8.3333" style="stroke:#1B1B1A;stroke-width:1.0416666666666667;" width="143.75" x="633.3333" y="227.7995"/><rect codeLine="7" fill="none" height="48.055" id="BaseComponent" rx="8.3333" ry="8.3333" style="stroke:#5E5E5E;stroke-width:1.0416666666666667;" width="143.75" x="633.3333" y="204.7445"/><ellipse cx="647.9167" cy="220.4386" fill="#C8AC00" rx="10.4167" ry="10.4167" style="stroke:#D8BC00;stroke-width:1.0416666666666667;"/><path d="M647.5098,217.1407 L646.6614,220.87 L648.3643,220.87 Z M646.4111,215.4928 L648.6145,215.4928 L651.0742,224.6053 L649.2737,224.6053 L648.7122,222.3531 L646.3013,222.3531 L645.752,224.6053 L643.9514,224.6053 Z " fill="#000000"/><text fill="#D8BC00" font-family="Open Sans,Avenir,Nunito,Arial,Helvetica,SansSerif" font-size="12.5" font-style="italic" font-weight="bold" lengthAdjust="spacing" textLength="106.25" x="664.5833" y="225.1628">BaseComponent</text><line style="stroke:#5E5E5E;stroke-width:1.0416666666666667;" x1="634.375" x2="776.0417" y1="236.1328" y2="236.1328"/><line style="stroke:#5E5E5E;stroke-width:1.0416666666666667;" x1="634.375" x2="776.0417" y1="244.4661" y2="244.4661"/><rect codeLine="17" fill="#282828" height="111.4563" id="BaseMounted" rx="8.3333" ry="8.3333" style="stroke:#5E5E5E;stroke-width:1.0416666666666667;" width="252.0833" x="408.3333" y="449.5361"/><rect fill="#1B1B1A" height="31.3883" rx="8.3333" ry="8.3333" style="stroke:#1B1B1A;stroke-width:1.0416666666666667;" width="252.0833" x="408.3333" y="449.5361"/><rect fill="#1B1B1A" height="8.3333" style="stroke:#1B1B1A;stroke-width:1.0416666666666667;" width="252.0833" x="408.3333" y="472.5911"/><rect codeLine="17" fill="none" height="111.4563" id="BaseMounted" rx="8.3333" ry="8.3333" style="stroke:#5E5E5E;stroke-width:1.0416666666666667;" width="252.0833" x="408.3333" y="449.5361"/><ellipse cx="483.3333" cy="465.2303" fill="#C8AC00" rx="10.4167" ry="10.4167" style="stroke:#D8BC00;stroke-width:1.0416666666666667;"/><path d="M482.9264,461.9324 L482.078,465.6616 L483.7809,465.6616 Z M481.8278,460.2844 L484.0312,460.2844 L486.4909,469.397 L484.6903,469.397 L484.1288,467.1448 L481.7179,467.1448 L481.1686,469.397 L479.3681,469.397 Z " fill="#000000"/><text fill="#D8BC00" font-family="Open Sans,Avenir,Nunito,Arial,Helvetica,SansSerif" font-size="12.5" font-style="italic" font-weight="bold" lengthAdjust="spacing" textLength="87.5" x="506.25" y="469.9544">BaseMounted</text><line style="stroke:#5E5E5E;stroke-width:1.5625;" x1="409.375" x2="659.375" y1="480.9245" y2="480.9245"/><polygon fill="#FFFF44" points="419.7917,511.086,423.9583,515.2527,419.7917,519.4194,415.625,515.2527" style="stroke:#B38D22;stroke-width:1.0416666666666667;"/><text fill="#D8BC00" font-family="Open Sans,Avenir,Nunito,Arial,Helvetica,SansSerif" font-size="11.4583" lengthAdjust="spacing" textLength="145.8333" x="431.25" y="523.2056">BaseMounted(RestService)</text><line style="stroke:#5E5E5E;stroke-width:1.0416666666666667;" x1="409.375" x2="490.625" y1="499.1302" y2="499.1302"/><text fill="#D8BC00" font-family="Open Sans,Avenir,Nunito,Arial,Helvetica,SansSerif" font-size="11.4583" lengthAdjust="spacing" textLength="81.25" x="493.75" y="502.9399">(constructors)</text><line style="stroke:#5E5E5E;stroke-width:1.0416666666666667;" x1="578.125" x2="659.375" y1="499.1302" y2="499.1302"/><line style="stroke:#5E5E5E;stroke-width:1.0416666666666667;" x1="409.375" x2="659.375" y1="532.9142" y2="532.9142"/><polygon fill="#FFFF44" points="419.7917,539.1642,423.9583,543.3309,419.7917,547.4976,415.625,543.3309" style="stroke:#B38D22;stroke-width:1.0416666666666667;"/><text fill="#D8BC00" font-family="Open Sans,Avenir,Nunito,Arial,Helvetica,SansSerif" font-size="11.4583" lengthAdjust="spacing" textLength="219.7917" x="431.25" y="551.2838">void measure(RestPath, Runnable code)</text><rect codeLine="10" fill="#282828" height="48.055" id="Filter" rx="8.3333" ry="8.3333" style="stroke:#5E5E5E;stroke-width:1.0416666666666667;" width="70.8333" x="1238.5417" y="204.7445"/><rect fill="#1B1B1A" height="31.3883" rx="8.3333" ry="8.3333" style="stroke:#1B1B1A;stroke-width:1.0416666666666667;" width="70.8333" x="1238.5417" y="204.7445"/><rect fill="#1B1B1A" height="8.3333" style="stroke:#1B1B1A;stroke-width:1.0416666666666667;" width="70.8333" x="1238.5417" y="227.7995"/><rect codeLine="10" fill="none" height="48.055" id="Filter" rx="8.3333" ry="8.3333" style="stroke:#5E5E5E;stroke-width:1.0416666666666667;" width="70.8333" x="1238.5417" y="204.7445"/><ellipse cx="1253.125" cy="220.4386" fill="#008400" rx="10.4167" ry="10.4167" style="stroke:#239C23;stroke-width:1.0416666666666667;"/><path d="M1250.529,217.6005 L1250.529,216.0136 L1255.955,216.0136 L1255.955,217.6005 L1254.1423,217.6005 L1254.1423,223.5392 L1255.955,223.5392 L1255.955,225.1261 L1250.529,225.1261 L1250.529,223.5392 L1252.3417,223.5392 L1252.3417,217.6005 Z " fill="#000000"/><text fill="#D8BC00" font-family="Open Sans,Avenir,Nunito,Arial,Helvetica,SansSerif" font-size="12.5" font-style="italic" font-weight="bold" lengthAdjust="spacing" textLength="33.3333" x="1269.7917" y="225.1628">Filter</text><line style="stroke:#5E5E5E;stroke-width:1.0416666666666667;" x1="1239.5833" x2="1308.3333" y1="236.1328" y2="236.1328"/><line style="stroke:#5E5E5E;stroke-width:1.0416666666666667;" x1="1239.5833" x2="1308.3333" y1="244.4661" y2="244.4661"/><rect codeLine="11" fill="#282828" height="48.055" id="ComponentMixin" rx="8.3333" ry="8.3333" style="stroke:#5E5E5E;stroke-width:1.0416666666666667;" width="148.9583" x="913.0208" y="53.7028"/><rect fill="#1B1B1A" height="31.3883" rx="8.3333" ry="8.3333" style="stroke:#1B1B1A;stroke-width:1.0416666666666667;" width="148.9583" x="913.0208" y="53.7028"/><rect fill="#1B1B1A" height="8.3333" style="stroke:#1B1B1A;stroke-width:1.0416666666666667;" width="148.9583" x="913.0208" y="76.7578"/><rect codeLine="11" fill="none" height="48.055" id="ComponentMixin" rx="8.3333" ry="8.3333" style="stroke:#5E5E5E;stroke-width:1.0416666666666667;" width="148.9583" x="913.0208" y="53.7028"/><ellipse cx="927.6042" cy="69.397" fill="#008400" rx="10.4167" ry="10.4167" style="stroke:#239C23;stroke-width:1.0416666666666667;"/><path d="M925.0081,66.5588 L925.0081,64.9719 L930.4342,64.9719 L930.4342,66.5588 L928.6214,66.5588 L928.6214,72.4976 L930.4342,72.4976 L930.4342,74.0845 L925.0081,74.0845 L925.0081,72.4976 L926.8209,72.4976 L926.8209,66.5588 Z " fill="#000000"/><text fill="#D8BC00" font-family="Open Sans,Avenir,Nunito,Arial,Helvetica,SansSerif" font-size="12.5" font-style="italic" font-weight="bold" lengthAdjust="spacing" textLength="111.4583" x="944.2708" y="74.1211">ComponentMixin</text><line style="stroke:#5E5E5E;stroke-width:1.0416666666666667;" x1="914.0625" x2="1060.9375" y1="85.0911" y2="85.0911"/><line style="stroke:#5E5E5E;stroke-width:1.0416666666666667;" x1="914.0625" x2="1060.9375" y1="93.4245" y2="93.4245"/><rect codeLine="12" fill="#282828" height="48.055" id="TryTrait" rx="8.3333" ry="8.3333" style="stroke:#5E5E5E;stroke-width:1.0416666666666667;" width="88.5417" x="814.0625" y="204.7445"/><rect fill="#1B1B1A" height="31.3883" rx="8.3333" ry="8.3333" style="stroke:#1B1B1A;stroke-width:1.0416666666666667;" width="88.5417" x="814.0625" y="204.7445"/><rect fill="#1B1B1A" height="8.3333" style="stroke:#1B1B1A;stroke-width:1.0416666666666667;" width="88.5417" x="814.0625" y="227.7995"/><rect codeLine="12" fill="none" height="48.055" id="TryTrait" rx="8.3333" ry="8.3333" style="stroke:#5E5E5E;stroke-width:1.0416666666666667;" width="88.5417" x="814.0625" y="204.7445"/><ellipse cx="828.6458" cy="220.4386" fill="#008400" rx="10.4167" ry="10.4167" style="stroke:#239C23;stroke-width:1.0416666666666667;"/><path d="M826.0498,217.6005 L826.0498,216.0136 L831.4758,216.0136 L831.4758,217.6005 L829.6631,217.6005 L829.6631,223.5392 L831.4758,223.5392 L831.4758,225.1261 L826.0498,225.1261 L826.0498,223.5392 L827.8625,223.5392 L827.8625,217.6005 Z " fill="#000000"/><text fill="#D8BC00" font-family="Open Sans,Avenir,Nunito,Arial,Helvetica,SansSerif" font-size="12.5" font-style="italic" font-weight="bold" lengthAdjust="spacing" textLength="51.0417" x="845.3125" y="225.1628">TryTrait</text><line style="stroke:#5E5E5E;stroke-width:1.0416666666666667;" x1="815.1042" x2="901.5625" y1="236.1328" y2="236.1328"/><line style="stroke:#5E5E5E;stroke-width:1.0416666666666667;" x1="815.1042" x2="901.5625" y1="244.4661" y2="244.4661"/><rect codeLine="13" fill="#282828" height="48.055" id="RestProblemReportingTrait" rx="8.3333" ry="8.3333" style="stroke:#5E5E5E;stroke-width:1.0416666666666667;" width="212.5" x="384.375" y="204.7445"/><rect fill="#1B1B1A" height="31.3883" rx="8.3333" ry="8.3333" style="stroke:#1B1B1A;stroke-width:1.0416666666666667;" width="212.5" x="384.375" y="204.7445"/><rect fill="#1B1B1A" height="8.3333" style="stroke:#1B1B1A;stroke-width:1.0416666666666667;" width="212.5" x="384.375" y="227.7995"/><rect codeLine="13" fill="none" height="48.055" id="RestProblemReportingTrait" rx="8.3333" ry="8.3333" style="stroke:#5E5E5E;stroke-width:1.0416666666666667;" width="212.5" x="384.375" y="204.7445"/><ellipse cx="398.9583" cy="220.4386" fill="#008400" rx="10.4167" ry="10.4167" style="stroke:#239C23;stroke-width:1.0416666666666667;"/><path d="M396.3623,217.6005 L396.3623,216.0136 L401.7883,216.0136 L401.7883,217.6005 L399.9756,217.6005 L399.9756,223.5392 L401.7883,223.5392 L401.7883,225.1261 L396.3623,225.1261 L396.3623,223.5392 L398.175,223.5392 L398.175,217.6005 Z " fill="#000000"/><text fill="#D8BC00" font-family="Open Sans,Avenir,Nunito,Arial,Helvetica,SansSerif" font-size="12.5" font-style="italic" font-weight="bold" lengthAdjust="spacing" textLength="175" x="415.625" y="225.1628">RestProblemReportingTrait</text><line style="stroke:#5E5E5E;stroke-width:1.0416666666666667;" x1="385.4167" x2="595.8333" y1="236.1328" y2="236.1328"/><line style="stroke:#5E5E5E;stroke-width:1.0416666666666667;" x1="385.4167" x2="595.8333" y1="244.4661" y2="244.4661"/><rect codeLine="32" fill="#282828" height="258.0037" id="JettyMicroservletFilter" rx="8.3333" ry="8.3333" style="stroke:#5E5E5E;stroke-width:1.0416666666666667;" width="364.5833" x="871.875" y="377.1403"/><rect fill="#1B1B1A" height="31.3883" rx="8.3333" ry="8.3333" style="stroke:#1B1B1A;stroke-width:1.0416666666666667;" width="364.5833" x="871.875" y="377.1403"/><rect fill="#1B1B1A" height="8.3333" style="stroke:#1B1B1A;stroke-width:1.0416666666666667;" width="364.5833" x="871.875" y="400.1953"/><rect codeLine="32" fill="none" height="258.0037" id="JettyMicroservletFilter" rx="8.3333" ry="8.3333" style="stroke:#5E5E5E;stroke-width:1.0416666666666667;" width="364.5833" x="871.875" y="377.1403"/><ellipse cx="975.5208" cy="392.8345" fill="#0066CF" rx="10.4167" ry="10.4167" style="stroke:#0086EF;stroke-width:1.0416666666666667;"/><path d="M977.4312,397.2595 Q977.004,397.4792 976.534,397.5891 Q976.064,397.699 975.5452,397.699 Q973.702,397.699 972.7315,396.4844 Q971.7611,395.2698 971.7611,392.9749 Q971.7611,390.6738 972.7315,389.4592 Q973.702,388.2446 975.5452,388.2446 Q976.064,388.2446 976.5401,388.3545 Q977.0162,388.4644 977.4312,388.6841 L977.4312,390.686 Q976.9674,390.2588 976.531,390.0604 Q976.0946,389.8621 975.6307,389.8621 Q974.6419,389.8621 974.1384,390.6464 Q973.6348,391.4307 973.6348,392.9749 Q973.6348,394.5129 974.1384,395.2972 Q974.6419,396.0815 975.6307,396.0815 Q976.0946,396.0815 976.531,395.8832 Q976.9674,395.6848 977.4312,395.2576 Z " fill="#000000"/><text fill="#D8BC00" font-family="Open Sans,Avenir,Nunito,Arial,Helvetica,SansSerif" font-size="12.5" font-weight="bold" lengthAdjust="spacing" textLength="142.7083" x="998.4375" y="397.5586">JettyMicroservletFilter</text><line style="stroke:#5E5E5E;stroke-width:1.5625;" x1="872.9167" x2="1235.4167" y1="408.5286" y2="408.5286"/><ellipse cx="883.3333" cy="443.8985" fill="#84BE84" rx="3.125" ry="3.125" style="stroke:#038048;stroke-width:1.0416666666666667;"/><text fill="#D8BC00" font-family="Open Sans,Avenir,Nunito,Arial,Helvetica,SansSerif" font-size="11.4583" lengthAdjust="spacing" textLength="192.7083" x="894.7917" y="450.8097">JettyMicroservletFilter(RestService)</text><line style="stroke:#5E5E5E;stroke-width:1.0416666666666667;" x1="872.9167" x2="1010.4167" y1="426.7344" y2="426.7344"/><text fill="#D8BC00" font-family="Open Sans,Avenir,Nunito,Arial,Helvetica,SansSerif" font-size="11.4583" lengthAdjust="spacing" textLength="81.25" x="1013.5417" y="430.544">(constructors)</text><line style="stroke:#5E5E5E;stroke-width:1.0416666666666667;" x1="1097.9167" x2="1235.4167" y1="426.7344" y2="426.7344"/><line style="stroke:#5E5E5E;stroke-width:1.0416666666666667;" x1="872.9167" x2="1235.4167" y1="460.5184" y2="460.5184"/><ellipse cx="883.3333" cy="471.9767" fill="#84BE84" rx="3.125" ry="3.125" style="stroke:#038048;stroke-width:1.0416666666666667;"/><text fill="#D8BC00" font-family="Open Sans,Avenir,Nunito,Arial,Helvetica,SansSerif" font-size="11.4583" lengthAdjust="spacing" textLength="246.875" x="894.7917" y="478.8879">MountedMicroservlet microservlet(RestPath)</text><ellipse cx="883.3333" cy="491.7216" fill="#84BE84" rx="3.125" ry="3.125" style="stroke:#038048;stroke-width:1.0416666666666667;"/><text fill="#D8BC00" font-family="Open Sans,Avenir,Nunito,Arial,Helvetica,SansSerif" font-size="11.4583" lengthAdjust="spacing" textLength="227.0833" x="894.7917" y="498.6328">void mount(RestPath, Microservlet&lt;?,?&gt;)</text><ellipse cx="883.3333" cy="511.4665" fill="#84BE84" rx="3.125" ry="3.125" style="stroke:#038048;stroke-width:1.0416666666666667;"/><text fill="#D8BC00" font-family="Open Sans,Avenir,Nunito,Arial,Helvetica,SansSerif" font-size="11.4583" lengthAdjust="spacing" textLength="139.5833" x="894.7917" y="518.3777">void mount(MountedApi)</text><ellipse cx="883.3333" cy="531.2113" fill="#84BE84" rx="3.125" ry="3.125" style="stroke:#038048;stroke-width:1.0416666666666667;"/><text fill="#D8BC00" font-family="Open Sans,Avenir,Nunito,Arial,Helvetica,SansSerif" font-size="11.4583" lengthAdjust="spacing" textLength="229.1667" x="894.7917" y="538.1226">Collection&lt;MountedApi&gt; mountedApis()</text><ellipse cx="883.3333" cy="574.8678" fill="#84BE84" rx="3.125" ry="3.125" style="stroke:#038048;stroke-width:1.0416666666666667;"/><text fill="#D8BC00" font-family="Open Sans,Avenir,Nunito,Arial,Helvetica,SansSerif" font-size="11.4583" lengthAdjust="spacing" textLength="332.2917" x="894.7917" y="581.779">^void doFilter(ServletRequest, ServletResponse, FilterChain)</text><line style="stroke:#5E5E5E;stroke-width:1.0416666666666667;" x1="872.9167" x2="1025" y1="557.7037" y2="557.7037"/><text fill="#D8BC00" font-family="Open Sans,Avenir,Nunito,Arial,Helvetica,SansSerif" font-size="11.4583" lengthAdjust="spacing" textLength="52.0833" x="1028.125" y="561.5133">(filtering)</text><line style="stroke:#5E5E5E;stroke-width:1.0416666666666667;" x1="1083.3333" x2="1235.4167" y1="557.7037" y2="557.7037"/><ellipse cx="883.3333" cy="618.5242" fill="#84BE84" rx="3.125" ry="3.125" style="stroke:#038048;stroke-width:1.0416666666666667;"/><text fill="#D8BC00" font-family="Open Sans,Avenir,Nunito,Arial,Helvetica,SansSerif" font-size="11.4583" lengthAdjust="spacing" textLength="194.7917" x="894.7917" y="625.4354">Set&lt;RestPath&gt; microservletPaths()</text><line style="stroke:#5E5E5E;stroke-width:1.0416666666666667;" x1="872.9167" x2="1034.375" y1="601.3601" y2="601.3601"/><text fill="#D8BC00" font-family="Open Sans,Avenir,Nunito,Arial,Helvetica,SansSerif" font-size="11.4583" lengthAdjust="spacing" textLength="33.3333" x="1037.5" y="605.1697">(path)</text><line style="stroke:#5E5E5E;stroke-width:1.0416666666666667;" x1="1073.9583" x2="1235.4167" y1="601.3601" y2="601.3601"/><rect fill="#282828" height="48.055" id="JettyRestRequestCycle" rx="8.3333" ry="8.3333" style="stroke:#5E5E5E;stroke-width:1.0416666666666667;" width="182.2917" x="767.1875" y="962.0361"/><rect fill="#1B1B1A" height="31.3883" rx="8.3333" ry="8.3333" style="stroke:#1B1B1A;stroke-width:1.0416666666666667;" width="182.2917" x="767.1875" y="962.0361"/><rect fill="#1B1B1A" height="8.3333" style="stroke:#1B1B1A;stroke-width:1.0416666666666667;" width="182.2917" x="767.1875" y="985.0911"/><rect fill="none" height="48.055" id="JettyRestRequestCycle" rx="8.3333" ry="8.3333" style="stroke:#5E5E5E;stroke-width:1.0416666666666667;" width="182.2917" x="767.1875" y="962.0361"/><ellipse cx="781.7708" cy="977.7303" fill="#0066CF" rx="10.4167" ry="10.4167" style="stroke:#0086EF;stroke-width:1.0416666666666667;"/><path d="M783.6812,982.1554 Q783.254,982.3751 782.784,982.4849 Q782.314,982.5948 781.7952,982.5948 Q779.952,982.5948 778.9815,981.3802 Q778.0111,980.1656 778.0111,977.8707 Q778.0111,975.5697 778.9815,974.3551 Q779.952,973.1405 781.7952,973.1405 Q782.314,973.1405 782.7901,973.2503 Q783.2662,973.3602 783.6812,973.5799 L783.6812,975.5819 Q783.2174,975.1546 782.781,974.9563 Q782.3446,974.7579 781.8807,974.7579 Q780.8919,974.7579 780.3884,975.5422 Q779.8848,976.3265 779.8848,977.8707 Q779.8848,979.4088 780.3884,980.1931 Q780.8919,980.9774 781.8807,980.9774 Q782.3446,980.9774 782.781,980.779 Q783.2174,980.5806 783.6812,980.1534 Z " fill="#000000"/><text fill="#D8BC00" font-family="Open Sans,Avenir,Nunito,Arial,Helvetica,SansSerif" font-size="12.5" font-weight="bold" lengthAdjust="spacing" textLength="144.7917" x="798.4375" y="982.4544">JettyRestRequestCycle</text><line style="stroke:#5E5E5E;stroke-width:1.0416666666666667;" x1="768.2292" x2="948.4375" y1="993.4245" y2="993.4245"/><line style="stroke:#5E5E5E;stroke-width:1.0416666666666667;" x1="768.2292" x2="948.4375" y1="1001.7578" y2="1001.7578"/><rect fill="#282828" height="48.055" id="Microservlet" rx="8.3333" ry="8.3333" style="stroke:#5E5E5E;stroke-width:1.0416666666666667;" width="116.6667" x="1011.4583" y="962.0361"/><rect fill="#1B1B1A" height="31.3883" rx="8.3333" ry="8.3333" style="stroke:#1B1B1A;stroke-width:1.0416666666666667;" width="116.6667" x="1011.4583" y="962.0361"/><rect fill="#1B1B1A" height="8.3333" style="stroke:#1B1B1A;stroke-width:1.0416666666666667;" width="116.6667" x="1011.4583" y="985.0911"/><rect fill="none" height="48.055" id="Microservlet" rx="8.3333" ry="8.3333" style="stroke:#5E5E5E;stroke-width:1.0416666666666667;" width="116.6667" x="1011.4583" y="962.0361"/><ellipse cx="1026.0417" cy="977.7303" fill="#0066CF" rx="10.4167" ry="10.4167" style="stroke:#0086EF;stroke-width:1.0416666666666667;"/><path d="M1027.9521,982.1554 Q1027.5248,982.3751 1027.0549,982.4849 Q1026.5849,982.5948 1026.0661,982.5948 Q1024.2228,982.5948 1023.2524,981.3802 Q1022.2819,980.1656 1022.2819,977.8707 Q1022.2819,975.5697 1023.2524,974.3551 Q1024.2228,973.1405 1026.0661,973.1405 Q1026.5849,973.1405 1027.061,973.2503 Q1027.537,973.3602 1027.9521,973.5799 L1027.9521,975.5819 Q1027.4882,975.1546 1027.0518,974.9563 Q1026.6154,974.7579 1026.1515,974.7579 Q1025.1628,974.7579 1024.6592,975.5422 Q1024.1557,976.3265 1024.1557,977.8707 Q1024.1557,979.4088 1024.6592,980.1931 Q1025.1628,980.9774 1026.1515,980.9774 Q1026.6154,980.9774 1027.0518,980.779 Q1027.4882,980.5806 1027.9521,980.1534 Z " fill="#000000"/><text fill="#D8BC00" font-family="Open Sans,Avenir,Nunito,Arial,Helvetica,SansSerif" font-size="12.5" font-weight="bold" lengthAdjust="spacing" textLength="79.1667" x="1042.7083" y="982.4544">Microservlet</text><line style="stroke:#5E5E5E;stroke-width:1.0416666666666667;" x1="1012.5" x2="1127.0833" y1="993.4245" y2="993.4245"/><line style="stroke:#5E5E5E;stroke-width:1.0416666666666667;" x1="1012.5" x2="1127.0833" y1="1001.7578" y2="1001.7578"/><rect fill="#282828" height="48.055" id="RestService" rx="8.3333" ry="8.3333" style="stroke:#5E5E5E;stroke-width:1.0416666666666667;" width="110.4167" x="1189.5833" y="962.0361"/><rect fill="#1B1B1A" height="31.3883" rx="8.3333" ry="8.3333" style="stroke:#1B1B1A;stroke-width:1.0416666666666667;" width="110.4167" x="1189.5833" y="962.0361"/><rect fill="#1B1B1A" height="8.3333" style="stroke:#1B1B1A;stroke-width:1.0416666666666667;" width="110.4167" x="1189.5833" y="985.0911"/><rect fill="none" height="48.055" id="RestService" rx="8.3333" ry="8.3333" style="stroke:#5E5E5E;stroke-width:1.0416666666666667;" width="110.4167" x="1189.5833" y="962.0361"/><ellipse cx="1204.1667" cy="977.7303" fill="#0066CF" rx="10.4167" ry="10.4167" style="stroke:#0086EF;stroke-width:1.0416666666666667;"/><path d="M1206.0771,982.1554 Q1205.6498,982.3751 1205.1799,982.4849 Q1204.7099,982.5948 1204.1911,982.5948 Q1202.3478,982.5948 1201.3774,981.3802 Q1200.4069,980.1656 1200.4069,977.8707 Q1200.4069,975.5697 1201.3774,974.3551 Q1202.3478,973.1405 1204.1911,973.1405 Q1204.7099,973.1405 1205.186,973.2503 Q1205.662,973.3602 1206.0771,973.5799 L1206.0771,975.5819 Q1205.6132,975.1546 1205.1768,974.9563 Q1204.7404,974.7579 1204.2765,974.7579 Q1203.2878,974.7579 1202.7842,975.5422 Q1202.2807,976.3265 1202.2807,977.8707 Q1202.2807,979.4088 1202.7842,980.1931 Q1203.2878,980.9774 1204.2765,980.9774 Q1204.7404,980.9774 1205.1768,980.779 Q1205.6132,980.5806 1206.0771,980.1534 Z " fill="#000000"/><text fill="#D8BC00" font-family="Open Sans,Avenir,Nunito,Arial,Helvetica,SansSerif" font-size="12.5" font-weight="bold" lengthAdjust="spacing" textLength="72.9167" x="1220.8333" y="982.4544">RestService</text><line style="stroke:#5E5E5E;stroke-width:1.0416666666666667;" x1="1190.625" x2="1298.9583" y1="993.4245" y2="993.4245"/><line style="stroke:#5E5E5E;stroke-width:1.0416666666666667;" x1="1190.625" x2="1298.9583" y1="1001.7578" y2="1001.7578"/><rect fill="#282828" height="48.055" id="FilterHolder" rx="8.3333" ry="8.3333" style="stroke:#5E5E5E;stroke-width:1.0416666666666667;" width="113.5417" x="1098.4375" y="53.7028"/><rect fill="#1B1B1A" height="31.3883" rx="8.3333" ry="8.3333" style="stroke:#1B1B1A;stroke-width:1.0416666666666667;" width="113.5417" x="1098.4375" y="53.7028"/><rect fill="#1B1B1A" height="8.3333" style="stroke:#1B1B1A;stroke-width:1.0416666666666667;" width="113.5417" x="1098.4375" y="76.7578"/><rect fill="none" height="48.055" id="FilterHolder" rx="8.3333" ry="8.3333" style="stroke:#5E5E5E;stroke-width:1.0416666666666667;" width="113.5417" x="1098.4375" y="53.7028"/><ellipse cx="1113.0208" cy="69.397" fill="#0066CF" rx="10.4167" ry="10.4167" style="stroke:#0086EF;stroke-width:1.0416666666666667;"/><path d="M1114.9312,73.822 Q1114.504,74.0417 1114.034,74.1516 Q1113.564,74.2615 1113.0452,74.2615 Q1111.202,74.2615 1110.2315,73.0469 Q1109.2611,71.8323 1109.2611,69.5374 Q1109.2611,67.2363 1110.2315,66.0217 Q1111.202,64.8071 1113.0452,64.8071 Q1113.564,64.8071 1114.0401,64.917 Q1114.5162,65.0269 1114.9312,65.2466 L1114.9312,67.2485 Q1114.4674,66.8213 1114.031,66.6229 Q1113.5946,66.4246 1113.1307,66.4246 Q1112.1419,66.4246 1111.6384,67.2089 Q1111.1348,67.9932 1111.1348,69.5374 Q1111.1348,71.0754 1111.6384,71.8597 Q1112.1419,72.644 1113.1307,72.644 Q1113.5946,72.644 1114.031,72.4457 Q1114.4674,72.2473 1114.9312,71.8201 Z " fill="#000000"/><text fill="#D8BC00" font-family="Open Sans,Avenir,Nunito,Arial,Helvetica,SansSerif" font-size="12.5" font-weight="bold" lengthAdjust="spacing" textLength="76.0417" x="1129.6875" y="74.1211">FilterHolder</text><line style="stroke:#5E5E5E;stroke-width:1.0416666666666667;" x1="1099.4792" x2="1210.9375" y1="85.0911" y2="85.0911"/><line style="stroke:#5E5E5E;stroke-width:1.0416666666666667;" x1="1099.4792" x2="1210.9375" y1="93.4245" y2="93.4245"/><rect codeLine="50" fill="#282828" height="127.0345" id="JettyMicroservletFilterHolder" rx="8.3333" ry="8.3333" style="stroke:#5E5E5E;stroke-width:1.0416666666666667;" width="262.5" x="939.5833" y="165.1611"/><rect fill="#1B1B1A" height="31.3883" rx="8.3333" ry="8.3333" style="stroke:#1B1B1A;stroke-width:1.0416666666666667;" width="262.5" x="939.5833" y="165.1611"/><rect fill="#1B1B1A" height="8.3333" style="stroke:#1B1B1A;stroke-width:1.0416666666666667;" width="262.5" x="939.5833" y="188.2161"/><rect codeLine="50" fill="none" height="127.0345" id="JettyMicroservletFilterHolder" rx="8.3333" ry="8.3333" style="stroke:#5E5E5E;stroke-width:1.0416666666666667;" width="262.5" x="939.5833" y="165.1611"/><ellipse cx="971.9792" cy="180.8553" fill="#0066CF" rx="10.4167" ry="10.4167" style="stroke:#0086EF;stroke-width:1.0416666666666667;"/><path d="M973.8896,185.2804 Q973.4623,185.5001 972.9924,185.6099 Q972.5224,185.7198 972.0036,185.7198 Q970.1603,185.7198 969.1899,184.5052 Q968.2194,183.2906 968.2194,180.9957 Q968.2194,178.6947 969.1899,177.4801 Q970.1603,176.2655 972.0036,176.2655 Q972.5224,176.2655 972.9985,176.3753 Q973.4745,176.4852 973.8896,176.7049 L973.8896,178.7069 Q973.4257,178.2796 972.9893,178.0813 Q972.5529,177.8829 972.089,177.8829 Q971.1003,177.8829 970.5967,178.6672 Q970.0932,179.4515 970.0932,180.9957 Q970.0932,182.5338 970.5967,183.3181 Q971.1003,184.1024 972.089,184.1024 Q972.5529,184.1024 972.9893,183.904 Q973.4257,183.7056 973.8896,183.2784 Z " fill="#000000"/><text fill="#D8BC00" font-family="Open Sans,Avenir,Nunito,Arial,Helvetica,SansSerif" font-size="12.5" font-weight="bold" lengthAdjust="spacing" textLength="185.4167" x="992.6042" y="185.5794">JettyMicroservletFilterHolder</text><line style="stroke:#5E5E5E;stroke-width:1.5625;" x1="940.625" x2="1201.0417" y1="196.5495" y2="196.5495"/><ellipse cx="951.0417" cy="231.9194" fill="#84BE84" rx="3.125" ry="3.125" style="stroke:#038048;stroke-width:1.0416666666666667;"/><text fill="#D8BC00" font-family="Open Sans,Avenir,Nunito,Arial,Helvetica,SansSerif" font-size="11.4583" lengthAdjust="spacing" textLength="230.2083" x="962.5" y="238.8306">JettyMicroservletFilterHolder(RestService)</text><line style="stroke:#5E5E5E;stroke-width:1.0416666666666667;" x1="940.625" x2="1027.0833" y1="214.7552" y2="214.7552"/><text fill="#D8BC00" font-family="Open Sans,Avenir,Nunito,Arial,Helvetica,SansSerif" font-size="11.4583" lengthAdjust="spacing" textLength="81.25" x="1030.2083" y="218.5649">(constructors)</text><line style="stroke:#5E5E5E;stroke-width:1.0416666666666667;" x1="1114.5833" x2="1201.0417" y1="214.7552" y2="214.7552"/><ellipse cx="951.0417" cy="275.5758" fill="#84BE84" rx="3.125" ry="3.125" style="stroke:#038048;stroke-width:1.0416666666666667;"/><text fill="#D8BC00" font-family="Open Sans,Avenir,Nunito,Arial,Helvetica,SansSerif" font-size="11.4583" lengthAdjust="spacing" textLength="158.3333" x="962.5" y="282.487">JettyMicroservletFilter filter()</text><line style="stroke:#5E5E5E;stroke-width:1.0416666666666667;" x1="940.625" x2="1041.6667" y1="258.4117" y2="258.4117"/><text fill="#D8BC00" font-family="Open Sans,Avenir,Nunito,Arial,Helvetica,SansSerif" font-size="11.4583" lengthAdjust="spacing" textLength="52.0833" x="1044.7917" y="262.2213">(filtering)</text><line style="stroke:#5E5E5E;stroke-width:1.0416666666666667;" x1="1100" x2="1201.0417" y1="258.4117" y2="258.4117"/><rect codeLine="60" fill="#282828" height="491.864" id="MountedApi" rx="8.3333" ry="8.3333" style="stroke:#5E5E5E;stroke-width:1.0416666666666667;" width="365.625" x="365.1042" y="740.1611"/><rect fill="#1B1B1A" height="31.3883" rx="8.3333" ry="8.3333" style="stroke:#1B1B1A;stroke-width:1.0416666666666667;" width="365.625" x="365.1042" y="740.1611"/><rect fill="#1B1B1A" height="8.3333" style="stroke:#1B1B1A;stroke-width:1.0416666666666667;" width="365.625" x="365.1042" y="763.2161"/><rect codeLine="60" fill="none" height="491.864" id="MountedApi" rx="8.3333" ry="8.3333" style="stroke:#5E5E5E;stroke-width:1.0416666666666667;" width="365.625" x="365.1042" y="740.1611"/><ellipse cx="501.0417" cy="755.8553" fill="#0066CF" rx="10.4167" ry="10.4167" style="stroke:#0086EF;stroke-width:1.0416666666666667;"/><path d="M502.9521,760.2804 Q502.5248,760.5001 502.0549,760.6099 Q501.5849,760.7198 501.0661,760.7198 Q499.2228,760.7198 498.2524,759.5052 Q497.2819,758.2906 497.2819,755.9957 Q497.2819,753.6947 498.2524,752.4801 Q499.2228,751.2655 501.0661,751.2655 Q501.5849,751.2655 502.061,751.3753 Q502.537,751.4852 502.9521,751.7049 L502.9521,753.7069 Q502.4882,753.2796 502.0518,753.0813 Q501.6154,752.8829 501.1515,752.8829 Q500.1628,752.8829 499.6592,753.6672 Q499.1557,754.4515 499.1557,755.9957 Q499.1557,757.5338 499.6592,758.3181 Q500.1628,759.1024 501.1515,759.1024 Q501.6154,759.1024 502.0518,758.904 Q502.4882,758.7056 502.9521,758.2784 Z " fill="#000000"/><text fill="#D8BC00" font-family="Open Sans,Avenir,Nunito,Arial,Helvetica,SansSerif" font-size="12.5" font-weight="bold" lengthAdjust="spacing" textLength="79.1667" x="523.9583" y="760.5794">MountedApi</text><line style="stroke:#5E5E5E;stroke-width:1.5625;" x1="366.1458" x2="729.6875" y1="771.5495" y2="771.5495"/><ellipse cx="376.5625" cy="806.9194" fill="#84BE84" rx="3.125" ry="3.125" style="stroke:#038048;stroke-width:1.0416666666666667;"/><text fill="#D8BC00" font-family="Open Sans,Avenir,Nunito,Arial,Helvetica,SansSerif" font-size="11.4583" lengthAdjust="spacing" textLength="139.5833" x="388.0208" y="813.8306">MountedApi(RestService)</text><line style="stroke:#5E5E5E;stroke-width:1.0416666666666667;" x1="366.1458" x2="504.1667" y1="789.7552" y2="789.7552"/><text fill="#D8BC00" font-family="Open Sans,Avenir,Nunito,Arial,Helvetica,SansSerif" font-size="11.4583" lengthAdjust="spacing" textLength="81.25" x="507.2917" y="793.5649">(constructors)</text><line style="stroke:#5E5E5E;stroke-width:1.0416666666666667;" x1="591.6667" x2="729.6875" y1="789.7552" y2="789.7552"/><line style="stroke:#5E5E5E;stroke-width:1.0416666666666667;" x1="366.1458" x2="729.6875" y1="823.5392" y2="823.5392"/><ellipse cx="376.5625" cy="834.9976" fill="#84BE84" rx="3.125" ry="3.125" style="stroke:#038048;stroke-width:1.0416666666666667;"/><text fill="#D8BC00" font-family="Open Sans,Avenir,Nunito,Arial,Helvetica,SansSerif" font-size="11.4583" lengthAdjust="spacing" textLength="163.5417" x="388.0208" y="841.9088">MountedApi jar(Resource jar)</text><ellipse cx="376.5625" cy="854.7424" fill="#84BE84" rx="3.125" ry="3.125" style="stroke:#038048;stroke-width:1.0416666666666667;"/><text fill="#D8BC00" font-family="Open Sans,Avenir,Nunito,Arial,Helvetica,SansSerif" font-size="11.4583" lengthAdjust="spacing" textLength="133.3333" x="388.0208" y="861.6536">boolean maybeLaunch()</text><ellipse cx="376.5625" cy="898.3988" fill="#84BE84" rx="3.125" ry="3.125" style="stroke:#038048;stroke-width:1.0416666666666667;"/><text fill="#D8BC00" font-family="Open Sans,Avenir,Nunito,Arial,Helvetica,SansSerif" font-size="11.4583" lengthAdjust="spacing" textLength="92.7083" x="388.0208" y="905.3101">boolean isAlive()</text><ellipse cx="376.5625" cy="918.1437" fill="#84BE84" rx="3.125" ry="3.125" style="stroke:#038048;stroke-width:1.0416666666666667;"/><text fill="#D8BC00" font-family="Open Sans,Avenir,Nunito,Arial,Helvetica,SansSerif" font-size="11.4583" lengthAdjust="spacing" textLength="98.9583" x="388.0208" y="925.0549">boolean isReady()</text><line style="stroke:#5E5E5E;stroke-width:1.0416666666666667;" x1="366.1458" x2="521.3542" y1="881.2347" y2="881.2347"/><text fill="#D8BC00" font-family="Open Sans,Avenir,Nunito,Arial,Helvetica,SansSerif" font-size="11.4583" lengthAdjust="spacing" textLength="46.875" x="524.4792" y="885.0444">(checks)</text><line style="stroke:#5E5E5E;stroke-width:1.0416666666666667;" x1="574.4792" x2="729.6875" y1="881.2347" y2="881.2347"/><ellipse cx="376.5625" cy="961.8001" fill="#84BE84" rx="3.125" ry="3.125" style="stroke:#038048;stroke-width:1.0416666666666667;"/><text fill="#D8BC00" font-family="Open Sans,Avenir,Nunito,Arial,Helvetica,SansSerif" font-size="11.4583" lengthAdjust="spacing" textLength="291.6667" x="388.0208" y="968.7113">MountedApi commandLine(StringList commandLine)</text><line style="stroke:#5E5E5E;stroke-width:1.0416666666666667;" x1="366.1458" x2="478.6458" y1="944.636" y2="944.636"/><text fill="#D8BC00" font-family="Open Sans,Avenir,Nunito,Arial,Helvetica,SansSerif" font-size="11.4583" lengthAdjust="spacing" textLength="132.2917" x="481.7708" y="948.4456">(command line parsing)</text><line style="stroke:#5E5E5E;stroke-width:1.0416666666666667;" x1="617.1875" x2="729.6875" y1="944.636" y2="944.636"/><ellipse cx="376.5625" cy="1005.4565" fill="#84BE84" rx="3.125" ry="3.125" style="stroke:#038048;stroke-width:1.0416666666666667;"/><text fill="#D8BC00" font-family="Open Sans,Avenir,Nunito,Arial,Helvetica,SansSerif" font-size="11.4583" lengthAdjust="spacing" textLength="163.5417" x="388.0208" y="1012.3678">MountedApi version(Version)</text><line style="stroke:#5E5E5E;stroke-width:1.0416666666666667;" x1="366.1458" x2="519.7917" y1="988.2924" y2="988.2924"/><text fill="#D8BC00" font-family="Open Sans,Avenir,Nunito,Arial,Helvetica,SansSerif" font-size="11.4583" lengthAdjust="spacing" textLength="50" x="522.9167" y="992.1021">(identity)</text><line style="stroke:#5E5E5E;stroke-width:1.0416666666666667;" x1="576.0417" x2="729.6875" y1="988.2924" y2="988.2924"/><ellipse cx="376.5625" cy="1049.113" fill="#84BE84" rx="3.125" ry="3.125" style="stroke:#038048;stroke-width:1.0416666666666667;"/><text fill="#D8BC00" font-family="Open Sans,Avenir,Nunito,Arial,Helvetica,SansSerif" font-size="11.4583" lengthAdjust="spacing" textLength="333.3333" x="388.0208" y="1056.0242">boolean handleRequest(HttpMethod, JettyRestRequestCycle)</text><line style="stroke:#5E5E5E;stroke-width:1.0416666666666667;" x1="366.1458" x2="510.4167" y1="1031.9489" y2="1031.9489"/><text fill="#D8BC00" font-family="Open Sans,Avenir,Nunito,Arial,Helvetica,SansSerif" font-size="11.4583" lengthAdjust="spacing" textLength="68.75" x="513.5417" y="1035.7585">(messaging)</text><line style="stroke:#5E5E5E;stroke-width:1.0416666666666667;" x1="585.4167" x2="729.6875" y1="1031.9489" y2="1031.9489"/><ellipse cx="376.5625" cy="1092.7694" fill="#84BE84" rx="3.125" ry="3.125" style="stroke:#038048;stroke-width:1.0416666666666667;"/><text fill="#D8BC00" font-family="Open Sans,Avenir,Nunito,Arial,Helvetica,SansSerif" font-size="11.4583" lengthAdjust="spacing" textLength="144.7917" x="388.0208" y="1099.6806">MountedApi port(int port)</text><ellipse cx="376.5625" cy="1112.5142" fill="#84BE84" rx="3.125" ry="3.125" style="stroke:#038048;stroke-width:1.0416666666666667;"/><text fill="#D8BC00" font-family="Open Sans,Avenir,Nunito,Arial,Helvetica,SansSerif" font-size="11.4583" lengthAdjust="spacing" textLength="58.3333" x="388.0208" y="1119.4255">Port port()</text><ellipse cx="376.5625" cy="1132.2591" fill="#84BE84" rx="3.125" ry="3.125" style="stroke:#038048;stroke-width:1.0416666666666667;"/><text fill="#D8BC00" font-family="Open Sans,Avenir,Nunito,Arial,Helvetica,SansSerif" font-size="11.4583" lengthAdjust="spacing" textLength="107.2917" x="388.0208" y="1139.1703">URI uri(String path)</text><ellipse cx="376.5625" cy="1152.004" fill="#84BE84" rx="3.125" ry="3.125" style="stroke:#038048;stroke-width:1.0416666666666667;"/><text fill="#D8BC00" font-family="Open Sans,Avenir,Nunito,Arial,Helvetica,SansSerif" font-size="11.4583" lengthAdjust="spacing" textLength="45.8333" x="388.0208" y="1158.9152">URI uri()</text><line style="stroke:#5E5E5E;stroke-width:1.0416666666666667;" x1="366.1458" x2="518.2292" y1="1075.6053" y2="1075.6053"/><text fill="#D8BC00" font-family="Open Sans,Avenir,Nunito,Arial,Helvetica,SansSerif" font-size="11.4583" lengthAdjust="spacing" textLength="53.125" x="521.3542" y="1079.4149">(network)</text><line style="stroke:#5E5E5E;stroke-width:1.0416666666666667;" x1="577.6042" x2="729.6875" y1="1075.6053" y2="1075.6053"/><ellipse cx="376.5625" cy="1195.6604" fill="#84BE84" rx="3.125" ry="3.125" style="stroke:#038048;stroke-width:1.0416666666666667;"/><text fill="#D8BC00" font-family="Open Sans,Avenir,Nunito,Arial,Helvetica,SansSerif" font-size="11.4583" lengthAdjust="spacing" textLength="152.0833" x="388.0208" y="1202.5716">MountedApi path(RestPath)</text><ellipse cx="376.5625" cy="1215.4053" fill="#84BE84" rx="3.125" ry="3.125" style="stroke:#038048;stroke-width:1.0416666666666667;"/><text fill="#D8BC00" font-family="Open Sans,Avenir,Nunito,Arial,Helvetica,SansSerif" font-size="11.4583" lengthAdjust="spacing" textLength="84.375" x="388.0208" y="1222.3165">RestPath path()</text><line style="stroke:#5E5E5E;stroke-width:1.0416666666666667;" x1="366.1458" x2="528.125" y1="1178.4963" y2="1178.4963"/><text fill="#D8BC00" font-family="Open Sans,Avenir,Nunito,Arial,Helvetica,SansSerif" font-size="11.4583" lengthAdjust="spacing" textLength="33.3333" x="531.25" y="1182.3059">(path)</text><line style="stroke:#5E5E5E;stroke-width:1.0416666666666667;" x1="567.7083" x2="729.6875" y1="1178.4963" y2="1178.4963"/><rect codeLine="87" fill="#282828" height="155.1127" id="MountedMicroservlet" rx="8.3333" ry="8.3333" style="stroke:#5E5E5E;stroke-width:1.0416666666666667;" width="320.8333" x="7.2917" y="908.3903"/><rect fill="#1B1B1A" height="31.3883" rx="8.3333" ry="8.3333" style="stroke:#1B1B1A;stroke-width:1.0416666666666667;" width="320.8333" x="7.2917" y="908.3903"/><rect fill="#1B1B1A" height="8.3333" style="stroke:#1B1B1A;stroke-width:1.0416666666666667;" width="320.8333" x="7.2917" y="931.4453"/><rect codeLine="87" fill="none" height="155.1127" id="MountedMicroservlet" rx="8.3333" ry="8.3333" style="stroke:#5E5E5E;stroke-width:1.0416666666666667;" width="320.8333" x="7.2917" y="908.3903"/><ellipse cx="92.1875" cy="924.0845" fill="#0066CF" rx="10.4167" ry="10.4167" style="stroke:#0086EF;stroke-width:1.0416666666666667;"/><path d="M94.0979,928.5095 Q93.6707,928.7292 93.2007,928.8391 Q92.7307,928.949 92.2119,928.949 Q90.3687,928.949 89.3982,927.7344 Q88.4277,926.5198 88.4277,924.2249 Q88.4277,921.9238 89.3982,920.7092 Q90.3687,919.4946 92.2119,919.4946 Q92.7307,919.4946 93.2068,919.6045 Q93.6829,919.7144 94.0979,919.9341 L94.0979,921.936 Q93.634,921.5088 93.1976,921.3104 Q92.7612,921.1121 92.2974,921.1121 Q91.3086,921.1121 90.8051,921.8964 Q90.3015,922.6807 90.3015,924.2249 Q90.3015,925.7629 90.8051,926.5472 Q91.3086,927.3315 92.2974,927.3315 Q92.7612,927.3315 93.1976,927.1332 Q93.634,926.9348 94.0979,926.5076 Z " fill="#000000"/><text fill="#D8BC00" font-family="Open Sans,Avenir,Nunito,Arial,Helvetica,SansSerif" font-size="12.5" font-weight="bold" lengthAdjust="spacing" textLength="136.4583" x="115.1042" y="928.8086">MountedMicroservlet</text><line style="stroke:#5E5E5E;stroke-width:1.5625;" x1="8.3333" x2="327.0833" y1="939.7786" y2="939.7786"/><ellipse cx="18.75" cy="975.1485" fill="#84BE84" rx="3.125" ry="3.125" style="stroke:#038048;stroke-width:1.0416666666666667;"/><text fill="#D8BC00" font-family="Open Sans,Avenir,Nunito,Arial,Helvetica,SansSerif" font-size="11.4583" lengthAdjust="spacing" textLength="189.5833" x="30.2083" y="982.0597">MountedMicroservlet(RestService)</text><line style="stroke:#5E5E5E;stroke-width:1.0416666666666667;" x1="8.3333" x2="123.9583" y1="957.9844" y2="957.9844"/><text fill="#D8BC00" font-family="Open Sans,Avenir,Nunito,Arial,Helvetica,SansSerif" font-size="11.4583" lengthAdjust="spacing" textLength="81.25" x="127.0833" y="961.794">(constructors)</text><line style="stroke:#5E5E5E;stroke-width:1.0416666666666667;" x1="211.4583" x2="327.0833" y1="957.9844" y2="957.9844"/><line style="stroke:#5E5E5E;stroke-width:1.0416666666666667;" x1="8.3333" x2="327.0833" y1="991.7684" y2="991.7684"/><ellipse cx="18.75" cy="1003.2267" fill="#84BE84" rx="3.125" ry="3.125" style="stroke:#038048;stroke-width:1.0416666666666667;"/><text fill="#D8BC00" font-family="Open Sans,Avenir,Nunito,Arial,Helvetica,SansSerif" font-size="11.4583" lengthAdjust="spacing" textLength="182.2917" x="30.2083" y="1010.1379">Microservlet&lt;?,?&gt; microservlet()</text><ellipse cx="18.75" cy="1046.8831" fill="#84BE84" rx="3.125" ry="3.125" style="stroke:#038048;stroke-width:1.0416666666666667;"/><text fill="#D8BC00" font-family="Open Sans,Avenir,Nunito,Arial,Helvetica,SansSerif" font-size="11.4583" lengthAdjust="spacing" textLength="288.5417" x="30.2083" y="1053.7944">void handleRequest(HttpMethod, RestRequestCycle)</text><line style="stroke:#5E5E5E;stroke-width:1.0416666666666667;" x1="8.3333" x2="130.2083" y1="1029.719" y2="1029.719"/><text fill="#D8BC00" font-family="Open Sans,Avenir,Nunito,Arial,Helvetica,SansSerif" font-size="11.4583" lengthAdjust="spacing" textLength="68.75" x="133.3333" y="1033.5286">(messaging)</text><line style="stroke:#5E5E5E;stroke-width:1.0416666666666667;" x1="205.2083" x2="327.0833" y1="1029.719" y2="1029.719"/><path codeLine="15" d="M679.9271,270.3695 C650.375,317.8486 601.3333,396.6403 568.4375,449.484 " fill="none" id="BaseComponent-backto-BaseMounted" style="stroke:#545454;stroke-width:1.5625;"/><polygon fill="none" points="673.7396,266.5049,690.9375,252.6715,686.1146,274.2132,673.7396,266.5049" style="stroke:#545454;stroke-width:1.5625;"/><path codeLine="16" d="M497.5625,273.2549 C505.1667,320.9945 517.3958,397.7028 525.6458,449.484 " fill="none" id="RestProblemReportingTrait-backto-BaseMounted" style="stroke:#545454;stroke-width:1.5625;"/><polygon fill="none" points="490.3542,274.4007,494.2813,252.6715,504.7604,272.0986,490.3542,274.4007" style="stroke:#545454;stroke-width:1.5625;"/><path codeLine="25" d="M750.7292,265.682 C786.9896,294.3174 840.0625,336.2236 891.7292,377.0153 " fill="none" id="BaseComponent-backto-JettyMicroservletFilter" style="stroke:#545454;stroke-width:1.5625;"/><polygon fill="none" points="746.1979,271.3903,734.3646,252.7653,755.2292,259.9528,746.1979,271.3903" style="stroke:#545454;stroke-width:1.5625;"/><path codeLine="26" d="M1242.4271,269.2653 C1219.7188,297.7445 1187.6875,337.8903 1156.4792,377.0153 " fill="none" id="Filter-backto-JettyMicroservletFilter" style="stroke:#545454;stroke-width:1.5625;"/><polygon fill="none" points="1236.9063,264.5049,1255.5938,252.7653,1248.3021,273.5986,1236.9063,264.5049" style="stroke:#545454;stroke-width:1.5625;"/><path codeLine="27" d="M887,270.0778 C907.2083,298.5049 935.4688,338.2653 963.0104,377.0153 " fill="none" id="TryTrait-backto-JettyMicroservletFilter" style="stroke:#545454;stroke-width:1.5625;"/><polygon fill="none" points="880.8229,273.9632,874.6979,252.7653,892.7083,265.5153,880.8229,273.9632" style="stroke:#545454;stroke-width:1.5625;"/><path codeLine="28" d="M554.6875,262.2861 C573.9167,271.984 595.0833,282.5986 614.5833,292.2445 C698.875,333.9111 792.6042,379.4528 871.7917,417.682 " fill="none" id="RestProblemReportingTrait-backto-JettyMicroservletFilter" style="stroke:#545454;stroke-width:1.5625;"/><polygon fill="none" points="551.1771,268.682,535.875,252.7757,557.7604,255.6715,551.1771,268.682" style="stroke:#545454;stroke-width:1.5625;"/><path codeLine="29" d="M1001.9479,634.7132 C956.8646,744.6403 895.1458,895.182 869.8542,956.8695 " fill="none" id="JettyMicroservletFilter-to-JettyRestRequestCycle" style="stroke:#545454;stroke-width:1.5625;"/><polygon fill="#545454" points="867.8021,961.859,875.198,954.749,869.7672,957.0357,867.4805,951.6049,867.8021,961.859" style="stroke:#545454;stroke-width:1.5625;"/><text fill="#A0A0A0" font-family="Open Sans,Avenir,Nunito,Arial,Helvetica,SansSerif" font-size="12.5" font-weight="bold" lengthAdjust="spacing" textLength="45.8333" x="983.3333" y="702.2461">creates</text><path codeLine="30" d="M1058.7813,648.484 C1062.4375,760.0674 1067.2083,906.0153 1069.0313,961.859 " fill="none" id="JettyMicroservletFilter-backto-Microservlet" style="stroke:#545454;stroke-width:1.5625;"/><polygon fill="#333333" points="1058.3333,634.7132,1054.3751,641.0973,1058.7457,647.2064,1062.7039,640.8224,1058.3333,634.7132" style="stroke:#545454;stroke-width:1.5625;"/><text fill="#A0A0A0" font-family="Open Sans,Avenir,Nunito,Arial,Helvetica,SansSerif" font-size="12.5" font-weight="bold" lengthAdjust="spacing" textLength="111.4583" x="1064.5833" y="702.2461">mounts on paths</text><text fill="#A0A0A0" font-family="Open Sans,Avenir,Nunito,Arial,Helvetica,SansSerif" font-size="12.5" font-weight="bold" lengthAdjust="spacing" textLength="8.3333" x="1046.6748" y="658.8315">1</text><text fill="#A0A0A0" font-family="Open Sans,Avenir,Nunito,Arial,Helvetica,SansSerif" font-size="12.5" font-weight="bold" lengthAdjust="spacing" textLength="35.4167" x="1025.2261" y="947.8136">many</text><path codeLine="31" d="M1167.8854,646.5049 C1175.625,659.4215 1182.6667,672.6715 1188.5417,685.9945 C1231.0625,782.3903 1241.4688,910.109 1244,961.7757 " fill="none" id="JettyMicroservletFilter-backto-RestService" style="stroke:#545454;stroke-width:1.5625;"/><polygon fill="#333333" points="1160.6042,634.734,1160.3545,642.2415,1167.1883,645.3594,1167.438,637.852,1160.6042,634.734" style="stroke:#545454;stroke-width:1.5625;"/><path codeLine="47" d="M1131.9063,119.8382 C1123.9792,133.8382 1114.9271,149.807 1106.2708,165.0986 " fill="none" id="FilterHolder-backto-JettyMicroservletFilterHolder" style="stroke:#545454;stroke-width:1.5625;"/><polygon fill="none" points="1125.5938,116.182,1142.2083,101.6507,1138.2813,123.3695,1125.5938,116.182" style="stroke:#545454;stroke-width:1.5625;"/><path codeLine="48" d="M1010.5104,119.8382 C1018.3438,133.8382 1027.2813,149.807 1035.8333,165.0986 " fill="none" id="ComponentMixin-backto-JettyMicroservletFilterHolder" style="stroke:#545454;stroke-width:1.5625;"/><polygon fill="none" points="1004.1458,123.3903,1000.3333,101.6507,1016.875,116.2757,1004.1458,123.3903" style="stroke:#545454;stroke-width:1.5625;"/><path codeLine="49" d="M1066.2188,305.9945 C1064.8854,328.0778 1063.3854,352.807 1061.9167,377.1299 " fill="none" id="JettyMicroservletFilterHolder-backto-JettyMicroservletFilter" style="stroke:#545454;stroke-width:1.5625;"/><polygon fill="#333333" points="1067.0521,292.2653,1062.5156,298.2522,1066.2971,304.7425,1070.8337,298.7555,1067.0521,292.2653" style="stroke:#545454;stroke-width:1.5625;"/><path codeLine="58" d="M536.5208,582.2445 C537.75,625.5778 539.3646,682.5882 540.9896,740.0257 " fill="none" id="BaseMounted-backto-MountedApi" style="stroke:#545454;stroke-width:1.5625;"/><polygon fill="none" points="529.2292,582.2445,535.9271,561.2132,543.8021,581.8278,529.2292,582.2445" style="stroke:#545454;stroke-width:1.5625;"/><path codeLine="59" d="M840.9479,272.0465 C804.625,360.4111 718.3021,570.4215 648.6979,739.7653 " fill="none" id="TryTrait-backto-MountedApi" style="stroke:#545454;stroke-width:1.5625;"/><polygon fill="none" points="834.2083,269.2549,848.875,252.7549,847.6979,274.7965,834.2083,269.2549" style="stroke:#545454;stroke-width:1.5625;"/><path codeLine="86" d="M476.1458,577.2653 C438.6979,623.2965 389.3021,684.7965 346.875,740.1611 C304.2708,795.7653 257.5729,859.6611 222.5417,908.234 " fill="none" id="BaseMounted-backto-MountedMicroservlet" style="stroke:#545454;stroke-width:1.5625;"/><polygon fill="none" points="470.5417,572.5882,489.3646,561.0465,481.8542,581.807,470.5417,572.5882" style="stroke:#545454;stroke-width:1.5625;"/></g></svg>
