<?xml version="1.0" encoding="UTF-8" standalone="no"?><svg xmlns="http://www.w3.org/2000/svg" xmlns:xlink="http://www.w3.org/1999/xlink" contentScriptType="application/ecmascript" contentStyleType="text/css" height="684.375px" preserveAspectRatio="none" style="width:791px;height:684px;background:#333333;" version="1.1" viewBox="0 0 791 684" width="791.6667px" zoomAndPan="magnify"><defs/><g><rect fill="#48494B" height="41.2028" rx="8.3333" ry="8.3333" style="stroke:#545454;stroke-width:1.0416666666666667;" width="758.3333" x="9.375" y="2.0833"/><text fill="#C0C0C0" font-family="Open Sans,Avenir,Nunito,Arial,Helvetica,SansSerif" font-size="20.8333" lengthAdjust="spacing" textLength="735.4167" x="20.8333" y="30.5583">com.telenav.kivakit.microservice.internal.protocols.rest.plugins.jetty.cycle</text><rect codeLine="7" fill="#282828" height="48.055" id="BaseComponent" rx="8.3333" ry="8.3333" style="stroke:#5E5E5E;stroke-width:1.0416666666666667;" width="143.75" x="7.2917" y="53.7028"/><rect fill="#1B1B1A" height="31.3883" rx="8.3333" ry="8.3333" style="stroke:#1B1B1A;stroke-width:1.0416666666666667;" width="143.75" x="7.2917" y="53.7028"/><rect fill="#1B1B1A" height="8.3333" style="stroke:#1B1B1A;stroke-width:1.0416666666666667;" width="143.75" x="7.2917" y="76.7578"/><rect codeLine="7" fill="none" height="48.055" id="BaseComponent" rx="8.3333" ry="8.3333" style="stroke:#5E5E5E;stroke-width:1.0416666666666667;" width="143.75" x="7.2917" y="53.7028"/><ellipse cx="21.875" cy="69.397" fill="#C8AC00" rx="10.4167" ry="10.4167" style="stroke:#D8BC00;stroke-width:1.0416666666666667;"/><path d="M21.4681,66.099 L20.6197,69.8283 L22.3226,69.8283 Z M20.3695,64.4511 L22.5728,64.4511 L25.0326,73.5636 L23.232,73.5636 L22.6705,71.3114 L20.2596,71.3114 L19.7103,73.5636 L17.9097,73.5636 Z " fill="#000000"/><text fill="#D8BC00" font-family="Open Sans,Avenir,Nunito,Arial,Helvetica,SansSerif" font-size="12.5" font-style="italic" font-weight="bold" lengthAdjust="spacing" textLength="106.25" x="38.5417" y="74.1211">BaseComponent</text><line style="stroke:#5E5E5E;stroke-width:1.0416666666666667;" x1="8.3333" x2="150" y1="85.0911" y2="85.0911"/><line style="stroke:#5E5E5E;stroke-width:1.0416666666666667;" x1="8.3333" x2="150" y1="93.4245" y2="93.4245"/><rect codeLine="9" fill="#282828" height="48.055" id="RestRequestCycle" rx="8.3333" ry="8.3333" style="stroke:#5E5E5E;stroke-width:1.0416666666666667;" width="152.0833" x="539.5833" y="181.8278"/><rect fill="#1B1B1A" height="31.3883" rx="8.3333" ry="8.3333" style="stroke:#1B1B1A;stroke-width:1.0416666666666667;" width="152.0833" x="539.5833" y="181.8278"/><rect fill="#1B1B1A" height="8.3333" style="stroke:#1B1B1A;stroke-width:1.0416666666666667;" width="152.0833" x="539.5833" y="204.8828"/><rect codeLine="9" fill="none" height="48.055" id="RestRequestCycle" rx="8.3333" ry="8.3333" style="stroke:#5E5E5E;stroke-width:1.0416666666666667;" width="152.0833" x="539.5833" y="181.8278"/><ellipse cx="554.1667" cy="197.522" fill="#008400" rx="10.4167" ry="10.4167" style="stroke:#239C23;stroke-width:1.0416666666666667;"/><path d="M551.5706,194.6838 L551.5706,193.0969 L556.9967,193.0969 L556.9967,194.6838 L555.1839,194.6838 L555.1839,200.6226 L556.9967,200.6226 L556.9967,202.2095 L551.5706,202.2095 L551.5706,200.6226 L553.3834,200.6226 L553.3834,194.6838 Z " fill="#000000"/><text fill="#D8BC00" font-family="Open Sans,Avenir,Nunito,Arial,Helvetica,SansSerif" font-size="12.5" font-style="italic" font-weight="bold" lengthAdjust="spacing" textLength="114.5833" x="570.8333" y="202.2461">RestRequestCycle</text><line style="stroke:#5E5E5E;stroke-width:1.0416666666666667;" x1="540.625" x2="690.625" y1="213.2161" y2="213.2161"/><line style="stroke:#5E5E5E;stroke-width:1.0416666666666667;" x1="540.625" x2="690.625" y1="221.5495" y2="221.5495"/><rect codeLine="10" fill="#282828" height="48.055" id="RestRequest" rx="8.3333" ry="8.3333" style="stroke:#5E5E5E;stroke-width:1.0416666666666667;" width="117.7083" x="223.4375" y="53.7028"/><rect fill="#1B1B1A" height="31.3883" rx="8.3333" ry="8.3333" style="stroke:#1B1B1A;stroke-width:1.0416666666666667;" width="117.7083" x="223.4375" y="53.7028"/><rect fill="#1B1B1A" height="8.3333" style="stroke:#1B1B1A;stroke-width:1.0416666666666667;" width="117.7083" x="223.4375" y="76.7578"/><rect codeLine="10" fill="none" height="48.055" id="RestRequest" rx="8.3333" ry="8.3333" style="stroke:#5E5E5E;stroke-width:1.0416666666666667;" width="117.7083" x="223.4375" y="53.7028"/><ellipse cx="238.0208" cy="69.397" fill="#008400" rx="10.4167" ry="10.4167" style="stroke:#239C23;stroke-width:1.0416666666666667;"/><path d="M235.4248,66.5588 L235.4248,64.9719 L240.8508,64.9719 L240.8508,66.5588 L239.0381,66.5588 L239.0381,72.4976 L240.8508,72.4976 L240.8508,74.0845 L235.4248,74.0845 L235.4248,72.4976 L237.2375,72.4976 L237.2375,66.5588 Z " fill="#000000"/><text fill="#D8BC00" font-family="Open Sans,Avenir,Nunito,Arial,Helvetica,SansSerif" font-size="12.5" font-style="italic" font-weight="bold" lengthAdjust="spacing" textLength="80.2083" x="254.6875" y="74.1211">RestRequest</text><line style="stroke:#5E5E5E;stroke-width:1.0416666666666667;" x1="224.4792" x2="340.1042" y1="85.0911" y2="85.0911"/><line style="stroke:#5E5E5E;stroke-width:1.0416666666666667;" x1="224.4792" x2="340.1042" y1="93.4245" y2="93.4245"/><rect codeLine="11" fill="#282828" height="48.055" id="RestResponse" rx="8.3333" ry="8.3333" style="stroke:#5E5E5E;stroke-width:1.0416666666666667;" width="128.125" x="585.9375" y="341.7236"/><rect fill="#1B1B1A" height="31.3883" rx="8.3333" ry="8.3333" style="stroke:#1B1B1A;stroke-width:1.0416666666666667;" width="128.125" x="585.9375" y="341.7236"/><rect fill="#1B1B1A" height="8.3333" style="stroke:#1B1B1A;stroke-width:1.0416666666666667;" width="128.125" x="585.9375" y="364.7786"/><rect codeLine="11" fill="none" height="48.055" id="RestResponse" rx="8.3333" ry="8.3333" style="stroke:#5E5E5E;stroke-width:1.0416666666666667;" width="128.125" x="585.9375" y="341.7236"/><ellipse cx="600.5208" cy="357.4178" fill="#008400" rx="10.4167" ry="10.4167" style="stroke:#239C23;stroke-width:1.0416666666666667;"/><path d="M597.9248,354.5797 L597.9248,352.9928 L603.3508,352.9928 L603.3508,354.5797 L601.5381,354.5797 L601.5381,360.5184 L603.3508,360.5184 L603.3508,362.1053 L597.9248,362.1053 L597.9248,360.5184 L599.7375,360.5184 L599.7375,354.5797 Z " fill="#000000"/><text fill="#D8BC00" font-family="Open Sans,Avenir,Nunito,Arial,Helvetica,SansSerif" font-size="12.5" font-style="italic" font-weight="bold" lengthAdjust="spacing" textLength="90.625" x="617.1875" y="362.1419">RestResponse</text><line style="stroke:#5E5E5E;stroke-width:1.0416666666666667;" x1="586.9792" x2="713.0208" y1="373.112" y2="373.112"/><line style="stroke:#5E5E5E;stroke-width:1.0416666666666667;" x1="586.9792" x2="713.0208" y1="381.4453" y2="381.4453"/><rect codeLine="12" fill="#282828" height="48.055" id="TryTrait" rx="8.3333" ry="8.3333" style="stroke:#5E5E5E;stroke-width:1.0416666666666667;" width="88.5417" x="377.6042" y="53.7028"/><rect fill="#1B1B1A" height="31.3883" rx="8.3333" ry="8.3333" style="stroke:#1B1B1A;stroke-width:1.0416666666666667;" width="88.5417" x="377.6042" y="53.7028"/><rect fill="#1B1B1A" height="8.3333" style="stroke:#1B1B1A;stroke-width:1.0416666666666667;" width="88.5417" x="377.6042" y="76.7578"/><rect codeLine="12" fill="none" height="48.055" id="TryTrait" rx="8.3333" ry="8.3333" style="stroke:#5E5E5E;stroke-width:1.0416666666666667;" width="88.5417" x="377.6042" y="53.7028"/><ellipse cx="392.1875" cy="69.397" fill="#008400" rx="10.4167" ry="10.4167" style="stroke:#239C23;stroke-width:1.0416666666666667;"/><path d="M389.5915,66.5588 L389.5915,64.9719 L395.0175,64.9719 L395.0175,66.5588 L393.2048,66.5588 L393.2048,72.4976 L395.0175,72.4976 L395.0175,74.0845 L389.5915,74.0845 L389.5915,72.4976 L391.4042,72.4976 L391.4042,66.5588 Z " fill="#000000"/><text fill="#D8BC00" font-family="Open Sans,Avenir,Nunito,Arial,Helvetica,SansSerif" font-size="12.5" font-style="italic" font-weight="bold" lengthAdjust="spacing" textLength="51.0417" x="408.8542" y="74.1211">TryTrait</text><line style="stroke:#5E5E5E;stroke-width:1.0416666666666667;" x1="378.6458" x2="465.1042" y1="85.0911" y2="85.0911"/><line style="stroke:#5E5E5E;stroke-width:1.0416666666666667;" x1="378.6458" x2="465.1042" y1="93.4245" y2="93.4245"/><rect codeLine="13" fill="#282828" height="48.055" id="RestProblemReportingTrait" rx="8.3333" ry="8.3333" style="stroke:#5E5E5E;stroke-width:1.0416666666666667;" width="212.5" x="571.875" y="53.7028"/><rect fill="#1B1B1A" height="31.3883" rx="8.3333" ry="8.3333" style="stroke:#1B1B1A;stroke-width:1.0416666666666667;" width="212.5" x="571.875" y="53.7028"/><rect fill="#1B1B1A" height="8.3333" style="stroke:#1B1B1A;stroke-width:1.0416666666666667;" width="212.5" x="571.875" y="76.7578"/><rect codeLine="13" fill="none" height="48.055" id="RestProblemReportingTrait" rx="8.3333" ry="8.3333" style="stroke:#5E5E5E;stroke-width:1.0416666666666667;" width="212.5" x="571.875" y="53.7028"/><ellipse cx="586.4583" cy="69.397" fill="#008400" rx="10.4167" ry="10.4167" style="stroke:#239C23;stroke-width:1.0416666666666667;"/><path d="M583.8623,66.5588 L583.8623,64.9719 L589.2883,64.9719 L589.2883,66.5588 L587.4756,66.5588 L587.4756,72.4976 L589.2883,72.4976 L589.2883,74.0845 L583.8623,74.0845 L583.8623,72.4976 L585.675,72.4976 L585.675,66.5588 Z " fill="#000000"/><text fill="#D8BC00" font-family="Open Sans,Avenir,Nunito,Arial,Helvetica,SansSerif" font-size="12.5" font-style="italic" font-weight="bold" lengthAdjust="spacing" textLength="175" x="603.125" y="74.1211">RestProblemReportingTrait</text><line style="stroke:#5E5E5E;stroke-width:1.0416666666666667;" x1="572.9167" x2="783.3333" y1="85.0911" y2="85.0911"/><line style="stroke:#5E5E5E;stroke-width:1.0416666666666667;" x1="572.9167" x2="783.3333" y1="93.4245" y2="93.4245"/><rect codeLine="20" fill="#282828" height="83.3781" id="JettyRestRequest" rx="8.3333" ry="8.3333" style="stroke:#5E5E5E;stroke-width:1.0416666666666667;" width="368.75" x="134.375" y="164.1195"/><rect fill="#1B1B1A" height="31.3883" rx="8.3333" ry="8.3333" style="stroke:#1B1B1A;stroke-width:1.0416666666666667;" width="368.75" x="134.375" y="164.1195"/><rect fill="#1B1B1A" height="8.3333" style="stroke:#1B1B1A;stroke-width:1.0416666666666667;" width="368.75" x="134.375" y="187.1745"/><rect codeLine="20" fill="none" height="83.3781" id="JettyRestRequest" rx="8.3333" ry="8.3333" style="stroke:#5E5E5E;stroke-width:1.0416666666666667;" width="368.75" x="134.375" y="164.1195"/><ellipse cx="256.25" cy="179.8136" fill="#0066CF" rx="10.4167" ry="10.4167" style="stroke:#0086EF;stroke-width:1.0416666666666667;"/><path d="M258.1604,184.2387 Q257.7332,184.4584 257.2632,184.5683 Q256.7932,184.6781 256.2744,184.6781 Q254.4312,184.6781 253.4607,183.4635 Q252.4902,182.2489 252.4902,179.954 Q252.4902,177.653 253.4607,176.4384 Q254.4312,175.2238 256.2744,175.2238 Q256.7932,175.2238 257.2693,175.3337 Q257.7454,175.4435 258.1604,175.6632 L258.1604,177.6652 Q257.6965,177.238 257.2601,177.0396 Q256.8237,176.8412 256.3599,176.8412 Q255.3711,176.8412 254.8676,177.6255 Q254.364,178.4098 254.364,179.954 Q254.364,181.4921 254.8676,182.2764 Q255.3711,183.0607 256.3599,183.0607 Q256.8237,183.0607 257.2601,182.8623 Q257.6965,182.664 258.1604,182.2367 Z " fill="#000000"/><text fill="#D8BC00" font-family="Open Sans,Avenir,Nunito,Arial,Helvetica,SansSerif" font-size="12.5" font-weight="bold" lengthAdjust="spacing" textLength="110.4167" x="279.1667" y="184.5378">JettyRestRequest</text><line style="stroke:#5E5E5E;stroke-width:1.5625;" x1="135.4167" x2="502.0833" y1="195.5078" y2="195.5078"/><ellipse cx="145.8333" cy="230.8777" fill="#84BE84" rx="3.125" ry="3.125" style="stroke:#038048;stroke-width:1.0416666666666667;"/><text fill="#D8BC00" font-family="Open Sans,Avenir,Nunito,Arial,Helvetica,SansSerif" font-size="11.4583" lengthAdjust="spacing" textLength="336.4583" x="157.2917" y="237.7889">JettyRestRequest(JettyRestRequestCycle, HttpServletRequest)</text><line style="stroke:#5E5E5E;stroke-width:1.0416666666666667;" x1="135.4167" x2="275" y1="213.7136" y2="213.7136"/><text fill="#D8BC00" font-family="Open Sans,Avenir,Nunito,Arial,Helvetica,SansSerif" font-size="11.4583" lengthAdjust="spacing" textLength="81.25" x="278.125" y="217.5232">(constructors)</text><line style="stroke:#5E5E5E;stroke-width:1.0416666666666667;" x1="362.5" x2="502.0833" y1="213.7136" y2="213.7136"/><rect codeLine="31" fill="#282828" height="111.4563" id="JettyRestRequestCycle" rx="8.3333" ry="8.3333" style="stroke:#5E5E5E;stroke-width:1.0416666666666667;" width="461.4583" x="88.0208" y="309.9528"/><rect fill="#1B1B1A" height="31.3883" rx="8.3333" ry="8.3333" style="stroke:#1B1B1A;stroke-width:1.0416666666666667;" width="461.4583" x="88.0208" y="309.9528"/><rect fill="#1B1B1A" height="8.3333" style="stroke:#1B1B1A;stroke-width:1.0416666666666667;" width="461.4583" x="88.0208" y="333.0078"/><rect codeLine="31" fill="none" height="111.4563" id="JettyRestRequestCycle" rx="8.3333" ry="8.3333" style="stroke:#5E5E5E;stroke-width:1.0416666666666667;" width="461.4583" x="88.0208" y="309.9528"/><ellipse cx="239.0625" cy="325.647" fill="#0066CF" rx="10.4167" ry="10.4167" style="stroke:#0086EF;stroke-width:1.0416666666666667;"/><path d="M240.9729,330.072 Q240.5457,330.2917 240.0757,330.4016 Q239.6057,330.5115 239.0869,330.5115 Q237.2437,330.5115 236.2732,329.2969 Q235.3027,328.0823 235.3027,325.7874 Q235.3027,323.4863 236.2732,322.2717 Q237.2437,321.0571 239.0869,321.0571 Q239.6057,321.0571 240.0818,321.167 Q240.5579,321.2769 240.9729,321.4966 L240.9729,323.4985 Q240.509,323.0713 240.0726,322.8729 Q239.6362,322.6746 239.1724,322.6746 Q238.1836,322.6746 237.6801,323.4589 Q237.1765,324.2432 237.1765,325.7874 Q237.1765,327.3254 237.6801,328.1097 Q238.1836,328.894 239.1724,328.894 Q239.6362,328.894 240.0726,328.6957 Q240.509,328.4973 240.9729,328.0701 Z " fill="#000000"/><text fill="#D8BC00" font-family="Open Sans,Avenir,Nunito,Arial,Helvetica,SansSerif" font-size="12.5" font-weight="bold" lengthAdjust="spacing" textLength="144.7917" x="261.9792" y="330.3711">JettyRestRequestCycle</text><line style="stroke:#5E5E5E;stroke-width:1.5625;" x1="89.0625" x2="548.4375" y1="341.3411" y2="341.3411"/><ellipse cx="99.4792" cy="376.711" fill="#84BE84" rx="3.125" ry="3.125" style="stroke:#038048;stroke-width:1.0416666666666667;"/><text fill="#D8BC00" font-family="Open Sans,Avenir,Nunito,Arial,Helvetica,SansSerif" font-size="11.4583" lengthAdjust="spacing" textLength="429.1667" x="110.9375" y="383.6222">JettyRestRequestCycle(RestService, HttpServletRequest, HttpServletResponse)</text><line style="stroke:#5E5E5E;stroke-width:1.0416666666666667;" x1="89.0625" x2="275" y1="359.5469" y2="359.5469"/><text fill="#D8BC00" font-family="Open Sans,Avenir,Nunito,Arial,Helvetica,SansSerif" font-size="11.4583" lengthAdjust="spacing" textLength="81.25" x="278.125" y="363.3565">(constructors)</text><line style="stroke:#5E5E5E;stroke-width:1.0416666666666667;" x1="362.5" x2="548.4375" y1="359.5469" y2="359.5469"/><line style="stroke:#5E5E5E;stroke-width:1.0416666666666667;" x1="89.0625" x2="548.4375" y1="393.3309" y2="393.3309"/><ellipse cx="99.4792" cy="404.7892" fill="#84BE84" rx="3.125" ry="3.125" style="stroke:#038048;stroke-width:1.0416666666666667;"/><text fill="#D8BC00" font-family="Open Sans,Avenir,Nunito,Arial,Helvetica,SansSerif" font-size="11.4583" lengthAdjust="spacing" textLength="170.8333" x="110.9375" y="411.7004">void attach(Microservlet&lt;?,?&gt;)</text><rect codeLine="43" fill="#282828" height="83.3781" id="JettyRestResponse" rx="8.3333" ry="8.3333" style="stroke:#5E5E5E;stroke-width:1.0416666666666667;" width="387.5" x="125" y="483.9111"/><rect fill="#1B1B1A" height="31.3883" rx="8.3333" ry="8.3333" style="stroke:#1B1B1A;stroke-width:1.0416666666666667;" width="387.5" x="125" y="483.9111"/><rect fill="#1B1B1A" height="8.3333" style="stroke:#1B1B1A;stroke-width:1.0416666666666667;" width="387.5" x="125" y="506.9661"/><rect codeLine="43" fill="none" height="83.3781" id="JettyRestResponse" rx="8.3333" ry="8.3333" style="stroke:#5E5E5E;stroke-width:1.0416666666666667;" width="387.5" x="125" y="483.9111"/><ellipse cx="251.0417" cy="499.6053" fill="#0066CF" rx="10.4167" ry="10.4167" style="stroke:#0086EF;stroke-width:1.0416666666666667;"/><path d="M252.9521,504.0304 Q252.5248,504.2501 252.0549,504.3599 Q251.5849,504.4698 251.0661,504.4698 Q249.2228,504.4698 248.2524,503.2552 Q247.2819,502.0406 247.2819,499.7457 Q247.2819,497.4447 248.2524,496.2301 Q249.2228,495.0155 251.0661,495.0155 Q251.5849,495.0155 252.061,495.1253 Q252.537,495.2352 252.9521,495.4549 L252.9521,497.4569 Q252.4882,497.0296 252.0518,496.8313 Q251.6154,496.6329 251.1515,496.6329 Q250.1628,496.6329 249.6592,497.4172 Q249.1557,498.2015 249.1557,499.7457 Q249.1557,501.2838 249.6592,502.0681 Q250.1628,502.8524 251.1515,502.8524 Q251.6154,502.8524 252.0518,502.654 Q252.4882,502.4556 252.9521,502.0284 Z " fill="#000000"/><text fill="#D8BC00" font-family="Open Sans,Avenir,Nunito,Arial,Helvetica,SansSerif" font-size="12.5" font-weight="bold" lengthAdjust="spacing" textLength="120.8333" x="273.9583" y="504.3294">JettyRestResponse</text><line style="stroke:#5E5E5E;stroke-width:1.5625;" x1="126.0417" x2="511.4583" y1="515.2995" y2="515.2995"/><ellipse cx="136.4583" cy="550.6694" fill="#84BE84" rx="3.125" ry="3.125" style="stroke:#038048;stroke-width:1.0416666666666667;"/><text fill="#D8BC00" font-family="Open Sans,Avenir,Nunito,Arial,Helvetica,SansSerif" font-size="11.4583" lengthAdjust="spacing" textLength="355.2083" x="147.9167" y="557.5806">JettyRestResponse(JettyRestRequestCycle, HttpServletResponse)</text><line style="stroke:#5E5E5E;stroke-width:1.0416666666666667;" x1="126.0417" x2="275" y1="533.5052" y2="533.5052"/><text fill="#D8BC00" font-family="Open Sans,Avenir,Nunito,Arial,Helvetica,SansSerif" font-size="11.4583" lengthAdjust="spacing" textLength="81.25" x="278.125" y="537.3149">(constructors)</text><line style="stroke:#5E5E5E;stroke-width:1.0416666666666667;" x1="362.5" x2="511.4583" y1="533.5052" y2="533.5052"/><rect fill="#282828" height="48.055" id="MicroservletErrorResponse" rx="8.3333" ry="8.3333" style="stroke:#5E5E5E;stroke-width:1.0416666666666667;" width="210.4167" x="213.5417" y="629.7445"/><rect fill="#1B1B1A" height="31.3883" rx="8.3333" ry="8.3333" style="stroke:#1B1B1A;stroke-width:1.0416666666666667;" width="210.4167" x="213.5417" y="629.7445"/><rect fill="#1B1B1A" height="8.3333" style="stroke:#1B1B1A;stroke-width:1.0416666666666667;" width="210.4167" x="213.5417" y="652.7995"/><rect fill="none" height="48.055" id="MicroservletErrorResponse" rx="8.3333" ry="8.3333" style="stroke:#5E5E5E;stroke-width:1.0416666666666667;" width="210.4167" x="213.5417" y="629.7445"/><ellipse cx="228.125" cy="645.4386" fill="#0066CF" rx="10.4167" ry="10.4167" style="stroke:#0086EF;stroke-width:1.0416666666666667;"/><path d="M230.0354,649.8637 Q229.6082,650.0834 229.1382,650.1933 Q228.6682,650.3031 228.1494,650.3031 Q226.3062,650.3031 225.3357,649.0885 Q224.3652,647.8739 224.3652,645.579 Q224.3652,643.278 225.3357,642.0634 Q226.3062,640.8488 228.1494,640.8488 Q228.6682,640.8488 229.1443,640.9587 Q229.6204,641.0685 230.0354,641.2882 L230.0354,643.2902 Q229.5715,642.863 229.1351,642.6646 Q228.6987,642.4662 228.2349,642.4662 Q227.2461,642.4662 226.7426,643.2505 Q226.239,644.0348 226.239,645.579 Q226.239,647.1171 226.7426,647.9014 Q227.2461,648.6857 228.2349,648.6857 Q228.6987,648.6857 229.1351,648.4873 Q229.5715,648.289 230.0354,647.8617 Z " fill="#000000"/><text fill="#D8BC00" font-family="Open Sans,Avenir,Nunito,Arial,Helvetica,SansSerif" font-size="12.5" font-weight="bold" lengthAdjust="spacing" textLength="172.9167" x="244.7917" y="650.1628">MicroservletErrorResponse</text><line style="stroke:#5E5E5E;stroke-width:1.0416666666666667;" x1="214.5833" x2="422.9167" y1="661.1328" y2="661.1328"/><line style="stroke:#5E5E5E;stroke-width:1.0416666666666667;" x1="214.5833" x2="422.9167" y1="669.4661" y2="669.4661"/><path codeLine="15" d="M141.3854,111.432 C171.9583,127.5153 209.0833,147.0465 241.4583,164.0778 " fill="none" id="BaseComponent-backto-JettyRestRequest" style="stroke:#545454;stroke-width:1.5625;"/><polygon fill="none" points="137.875,117.8278,122.8333,101.6715,144.6667,104.9215,137.875,117.8278" style="stroke:#545454;stroke-width:1.5625;"/><path codeLine="16" d="M389.4583,118.3174 C377.5833,132.8382 364.1146,149.2965 352.1563,163.9215 " fill="none" id="TryTrait-backto-JettyRestRequest" style="stroke:#545454;stroke-width:1.5625;"/><polygon fill="none" points="384.125,113.3278,402.9583,101.8174,395.4063,122.5674,384.125,113.3278" style="stroke:#545454;stroke-width:1.5625;"/><path codeLine="17" d="M294.875,122.1924 C298.7813,135.7236 303.0833,150.5778 306.9375,163.9215 " fill="none" id="RestRequest-backto-JettyRestRequest" style="stroke:#545454;stroke-width:1.5625;"/><polygon fill="none" points="287.7604,123.859,288.9792,101.8174,301.7708,119.807,287.7604,123.859" style="stroke:#545454;stroke-width:1.5625;"/><path codeLine="18" d="M592.8438,108.609 C545.5729,125.1924 486.125,146.0465 434.6875,164.0778 " fill="none" id="RestProblemReportingTrait-backto-JettyRestRequest" style="stroke:#545454;stroke-width:1.5625;"/><polygon fill="none" points="590.5521,101.6924,612.625,101.6715,595.3854,115.4528,590.5521,101.6924" style="stroke:#545454;stroke-width:1.5625;"/><path codeLine="19" d="M306.0521,261.3903 C305.2813,277.0674 305.2708,294.1715 306.0417,309.859 " fill="none" id="JettyRestRequest-backto-JettyRestRequestCycle" style="stroke:#545454;stroke-width:1.5625;"/><polygon fill="#333333" points="306.9688,247.4736,302.3991,253.4353,306.1446,259.9464,310.7143,253.9848,306.9688,247.4736" style="stroke:#545454;stroke-width:1.5625;"/><path codeLine="29" d="M332.7083,296.1299 C333.0521,279.5361 332.5625,262.307 331.2292,247.4736 " fill="none" id="JettyRestRequestCycle-backto-JettyRestRequest" style="stroke:#545454;stroke-width:1.5625;"/><polygon fill="#333333" points="332.2083,309.859,336.5921,303.7593,332.6476,297.3668,328.2639,303.4665,332.2083,309.859" style="stroke:#545454;stroke-width:1.5625;"/><path codeLine="26" d="M79.1146,122.8486 C81.1667,159.432 89.1354,211.1299 115.625,247.4528 C134.0417,272.7028 159.6667,293.3382 186.5313,309.8695 " fill="none" id="BaseComponent-backto-JettyRestRequestCycle" style="stroke:#545454;stroke-width:1.5625;"/><polygon fill="none" points="71.8229,122.8486,78.4896,101.807,86.3958,122.4111,71.8229,122.8486" style="stroke:#545454;stroke-width:1.5625;"/><path codeLine="27" d="M553.9167,239.6299 C515.7188,259.932 465.7083,286.5257 421.6354,309.9528 " fill="none" id="RestRequestCycle-backto-JettyRestRequestCycle" style="stroke:#545454;stroke-width:1.5625;"/><polygon fill="none" points="550.6354,233.1195,572.4583,229.7757,557.4792,245.9945,550.6354,233.1195" style="stroke:#545454;stroke-width:1.5625;"/><path codeLine="28" d="M702.4896,120.1924 C720.5938,157.0361 737.8438,210.609 710.4167,247.4528 C698.6042,263.3174 622.7813,287.5986 540.9479,309.9424 " fill="none" id="RestProblemReportingTrait-backto-JettyRestRequestCycle" style="stroke:#545454;stroke-width:1.5625;"/><polygon fill="none" points="695.9792,123.4632,692.625,101.6507,708.8438,116.609,695.9792,123.4632" style="stroke:#545454;stroke-width:1.5625;"/><path codeLine="30" d="M305.5729,435.1924 C305.2396,451.7757 305.7083,468.984 306.9583,483.8174 " fill="none" id="JettyRestRequestCycle-backto-JettyRestResponse" style="stroke:#545454;stroke-width:1.5625;"/><polygon fill="#333333" points="306.0417,421.4736,301.6644,427.578,305.6156,433.9664,309.9929,427.862,306.0417,421.4736" style="stroke:#545454;stroke-width:1.5625;"/><path codeLine="41" d="M332.2083,469.9007 C333.0104,454.234 333.0104,437.1507 332.2083,421.4736 " fill="none" id="JettyRestResponse-backto-JettyRestRequestCycle" style="stroke:#545454;stroke-width:1.5625;"/><polygon fill="#333333" points="331.2292,483.8174,335.825,477.8758,332.108,471.3483,327.5123,477.2899,331.2292,483.8174" style="stroke:#545454;stroke-width:1.5625;"/><path codeLine="39" d="M63.2813,122.057 C40.75,191.682 8.625,329.8695 69.7917,421.4111 C88.1146,448.8382 115.2292,468.9736 144.8958,483.7653 " fill="none" id="BaseComponent-backto-JettyRestResponse" style="stroke:#545454;stroke-width:1.5625;"/><polygon fill="none" points="56.4896,119.3695,70.125,102.0049,70.2917,124.0778,56.4896,119.3695" style="stroke:#545454;stroke-width:1.5625;"/><path codeLine="40" d="M600.8125,401.6403 C590.125,408.5882 578.7292,415.5361 567.7083,421.4111 C523.9479,444.734 473.7396,466.4215 429.9271,483.8278 " fill="none" id="RestResponse-backto-JettyRestResponse" style="stroke:#545454;stroke-width:1.5625;"/><polygon fill="none" points="597.0938,395.3486,618.4479,389.7757,605.2396,407.4528,597.0938,395.3486" style="stroke:#545454;stroke-width:1.5625;"/><path codeLine="42" d="M318.75,581.4424 C318.75,598.3382 318.75,616.0361 318.75,629.5674 " fill="none" id="JettyRestResponse-backto-MicroservletErrorResponse" style="stroke:#545454;stroke-width:1.5625;"/><polygon fill="#333333" points="318.75,567.5465,314.5833,573.7965,318.75,580.0465,322.9167,573.7965,318.75,567.5465" style="stroke:#545454;stroke-width:1.5625;"/></g></svg>
