<?xml version="1.0" encoding="UTF-8" standalone="no"?><svg xmlns="http://www.w3.org/2000/svg" xmlns:xlink="http://www.w3.org/1999/xlink" contentScriptType="application/ecmascript" contentStyleType="text/css" height="218.75px" preserveAspectRatio="none" style="width:555px;height:218px;background:#333333;" version="1.1" viewBox="0 0 555 218" width="555.2083px" zoomAndPan="magnify"><defs/><g><rect fill="#48494B" height="41.2028" rx="8.3333" ry="8.3333" style="stroke:#545454;stroke-width:1.0416666666666667;" width="508.3333" x="16.4063" y="2.0833"/><text fill="#C0C0C0" font-family="Open Sans,Avenir,Nunito,Arial,Helvetica,SansSerif" font-size="20.8333" lengthAdjust="spacing" textLength="485.4167" x="27.8646" y="30.5583">com.telenav.kivakit.microservice.internal.lexakai</text><rect codeLine="19" fill="#282828" height="48.055" id="UmlDiagramIdentifier" rx="8.3333" ry="8.3333" style="stroke:#5E5E5E;stroke-width:1.0416666666666667;" width="178.125" x="164.0625" y="53.7028"/><rect fill="#1B1B1A" height="31.3883" rx="8.3333" ry="8.3333" style="stroke:#1B1B1A;stroke-width:1.0416666666666667;" width="178.125" x="164.0625" y="53.7028"/><rect fill="#1B1B1A" height="8.3333" style="stroke:#1B1B1A;stroke-width:1.0416666666666667;" width="178.125" x="164.0625" y="76.7578"/><rect codeLine="19" fill="none" height="48.055" id="UmlDiagramIdentifier" rx="8.3333" ry="8.3333" style="stroke:#5E5E5E;stroke-width:1.0416666666666667;" width="178.125" x="164.0625" y="53.7028"/><ellipse cx="178.6458" cy="69.397" fill="#008400" rx="10.4167" ry="10.4167" style="stroke:#239C23;stroke-width:1.0416666666666667;"/><path d="M176.0498,66.5588 L176.0498,64.9719 L181.4758,64.9719 L181.4758,66.5588 L179.6631,66.5588 L179.6631,72.4976 L181.4758,72.4976 L181.4758,74.0845 L176.0498,74.0845 L176.0498,72.4976 L177.8625,72.4976 L177.8625,66.5588 Z " fill="#000000"/><text fill="#D8BC00" font-family="Open Sans,Avenir,Nunito,Arial,Helvetica,SansSerif" font-size="12.5" font-style="italic" font-weight="bold" lengthAdjust="spacing" textLength="140.625" x="195.3125" y="74.1211">UmlDiagramIdentifier</text><line style="stroke:#5E5E5E;stroke-width:1.0416666666666667;" x1="165.1042" x2="341.1458" y1="85.0911" y2="85.0911"/><line style="stroke:#5E5E5E;stroke-width:1.0416666666666667;" x1="165.1042" x2="341.1458" y1="93.4245" y2="93.4245"/><rect codeLine="9" fill="#282828" height="48.055" id="DiagramJetty" rx="8.3333" ry="8.3333" style="stroke:#5E5E5E;stroke-width:1.0416666666666667;" width="122.9167" x="7.2917" y="164.1195"/><rect fill="#1B1B1A" height="31.3883" rx="8.3333" ry="8.3333" style="stroke:#1B1B1A;stroke-width:1.0416666666666667;" width="122.9167" x="7.2917" y="164.1195"/><rect fill="#1B1B1A" height="8.3333" style="stroke:#1B1B1A;stroke-width:1.0416666666666667;" width="122.9167" x="7.2917" y="187.1745"/><rect codeLine="9" fill="none" height="48.055" id="DiagramJetty" rx="8.3333" ry="8.3333" style="stroke:#5E5E5E;stroke-width:1.0416666666666667;" width="122.9167" x="7.2917" y="164.1195"/><ellipse cx="21.875" cy="179.8136" fill="#008400" rx="10.4167" ry="10.4167" style="stroke:#239C23;stroke-width:1.0416666666666667;"/><path d="M19.279,176.9755 L19.279,175.3886 L24.705,175.3886 L24.705,176.9755 L22.8923,176.9755 L22.8923,182.9142 L24.705,182.9142 L24.705,184.5011 L19.279,184.5011 L19.279,182.9142 L21.0917,182.9142 L21.0917,176.9755 Z " fill="#000000"/><text fill="#D8BC00" font-family="Open Sans,Avenir,Nunito,Arial,Helvetica,SansSerif" font-size="12.5" font-style="italic" font-weight="bold" lengthAdjust="spacing" textLength="85.4167" x="38.5417" y="184.5378">DiagramJetty</text><line style="stroke:#5E5E5E;stroke-width:1.0416666666666667;" x1="8.3333" x2="129.1667" y1="195.5078" y2="195.5078"/><line style="stroke:#5E5E5E;stroke-width:1.0416666666666667;" x1="8.3333" x2="129.1667" y1="203.8411" y2="203.8411"/><rect codeLine="15" fill="#282828" height="48.055" id="DiagramMicroservice" rx="8.3333" ry="8.3333" style="stroke:#5E5E5E;stroke-width:1.0416666666666667;" width="172.9167" x="166.6667" y="164.1195"/><rect fill="#1B1B1A" height="31.3883" rx="8.3333" ry="8.3333" style="stroke:#1B1B1A;stroke-width:1.0416666666666667;" width="172.9167" x="166.6667" y="164.1195"/><rect fill="#1B1B1A" height="8.3333" style="stroke:#1B1B1A;stroke-width:1.0416666666666667;" width="172.9167" x="166.6667" y="187.1745"/><rect codeLine="15" fill="none" height="48.055" id="DiagramMicroservice" rx="8.3333" ry="8.3333" style="stroke:#5E5E5E;stroke-width:1.0416666666666667;" width="172.9167" x="166.6667" y="164.1195"/><ellipse cx="181.25" cy="179.8136" fill="#008400" rx="10.4167" ry="10.4167" style="stroke:#239C23;stroke-width:1.0416666666666667;"/><path d="M178.654,176.9755 L178.654,175.3886 L184.08,175.3886 L184.08,176.9755 L182.2673,176.9755 L182.2673,182.9142 L184.08,182.9142 L184.08,184.5011 L178.654,184.5011 L178.654,182.9142 L180.4667,182.9142 L180.4667,176.9755 Z " fill="#000000"/><text fill="#D8BC00" font-family="Open Sans,Avenir,Nunito,Arial,Helvetica,SansSerif" font-size="12.5" font-style="italic" font-weight="bold" lengthAdjust="spacing" textLength="135.4167" x="197.9167" y="184.5378">DiagramMicroservice</text><line style="stroke:#5E5E5E;stroke-width:1.0416666666666667;" x1="167.7083" x2="338.5417" y1="195.5078" y2="195.5078"/><line style="stroke:#5E5E5E;stroke-width:1.0416666666666667;" x1="167.7083" x2="338.5417" y1="203.8411" y2="203.8411"/><rect codeLine="21" fill="#282828" height="48.055" id="DiagramMicroservlet" rx="8.3333" ry="8.3333" style="stroke:#5E5E5E;stroke-width:1.0416666666666667;" width="171.875" x="376.5625" y="164.1195"/><rect fill="#1B1B1A" height="31.3883" rx="8.3333" ry="8.3333" style="stroke:#1B1B1A;stroke-width:1.0416666666666667;" width="171.875" x="376.5625" y="164.1195"/><rect fill="#1B1B1A" height="8.3333" style="stroke:#1B1B1A;stroke-width:1.0416666666666667;" width="171.875" x="376.5625" y="187.1745"/><rect codeLine="21" fill="none" height="48.055" id="DiagramMicroservlet" rx="8.3333" ry="8.3333" style="stroke:#5E5E5E;stroke-width:1.0416666666666667;" width="171.875" x="376.5625" y="164.1195"/><ellipse cx="391.1458" cy="179.8136" fill="#008400" rx="10.4167" ry="10.4167" style="stroke:#239C23;stroke-width:1.0416666666666667;"/><path d="M388.5498,176.9755 L388.5498,175.3886 L393.9758,175.3886 L393.9758,176.9755 L392.1631,176.9755 L392.1631,182.9142 L393.9758,182.9142 L393.9758,184.5011 L388.5498,184.5011 L388.5498,182.9142 L390.3625,182.9142 L390.3625,176.9755 Z " fill="#000000"/><text fill="#D8BC00" font-family="Open Sans,Avenir,Nunito,Arial,Helvetica,SansSerif" font-size="12.5" font-style="italic" font-weight="bold" lengthAdjust="spacing" textLength="134.375" x="407.8125" y="184.5378">DiagramMicroservlet</text><line style="stroke:#5E5E5E;stroke-width:1.0416666666666667;" x1="377.6042" x2="547.3958" y1="195.5078" y2="195.5078"/><line style="stroke:#5E5E5E;stroke-width:1.0416666666666667;" x1="377.6042" x2="547.3958" y1="203.8411" y2="203.8411"/><path codeLine="8" d="M195.6875,112.4528 C167.1146,129.234 133.3229,149.0882 107.7917,164.0986 " fill="none" id="UmlDiagramIdentifier-backto-DiagramJetty" style="stroke:#545454;stroke-width:1.5625;"/><polygon fill="none" points="192.3646,105.9424,214.0208,101.682,199.7604,118.5153,192.3646,105.9424" style="stroke:#545454;stroke-width:1.5625;"/><path codeLine="14" d="M253.125,122.6195 C253.125,136.8382 253.125,152.0361 253.125,164.0986 " fill="none" id="UmlDiagramIdentifier-backto-DiagramMicroservice" style="stroke:#545454;stroke-width:1.5625;"/><polygon fill="none" points="245.8333,122.5153,253.125,101.682,260.4167,122.5153,245.8333,122.5153" style="stroke:#545454;stroke-width:1.5625;"/><path codeLine="20" d="M316.4896,111.484 C349.3229,128.4736 388.6146,148.807 418.1563,164.0986 " fill="none" id="UmlDiagramIdentifier-backto-DiagramMicroservlet" style="stroke:#545454;stroke-width:1.5625;"/><polygon fill="none" points="312.6771,117.7236,297.5313,101.682,319.3854,104.7757,312.6771,117.7236" style="stroke:#545454;stroke-width:1.5625;"/></g></svg>
