<?xml version="1.0" encoding="UTF-8" standalone="no"?><svg xmlns="http://www.w3.org/2000/svg" xmlns:xlink="http://www.w3.org/1999/xlink" contentScriptType="application/ecmascript" contentStyleType="text/css" height="403.125px" preserveAspectRatio="none" style="width:1150px;height:403px;background:#333333;" version="1.1" viewBox="0 0 1150 403" width="1150px" zoomAndPan="magnify"><defs/><g><rect fill="#48494B" height="41.2028" rx="8.3333" ry="8.3333" style="stroke:#545454;stroke-width:1.0416666666666667;" width="372.9167" x="381.25" y="2.0833"/><text fill="#C0C0C0" font-family="Open Sans,Avenir,Nunito,Arial,Helvetica,SansSerif" font-size="20.8333" lengthAdjust="spacing" textLength="350" x="392.7083" y="30.5583">com.telenav.kivakit.interfaces.code</text><polygon fill="#333333" points="986.4583,52.6611,1112.5,52.6611,1119.7917,79.8828,1132.2917,79.8828,1132.2917,197.4528,986.4583,197.4528,986.4583,52.6611" style="stroke:#333333;stroke-width:2.0833333333333335;"/><line style="stroke:#333333;stroke-width:2.0833333333333335;" x1="986.4583" x2="1119.7917" y1="79.8828" y2="79.8828"/><text fill="#C8AC00" font-family="Open Sans,Avenir,Nunito,Arial,Helvetica,SansSerif" font-size="12.5" font-weight="bold" lengthAdjust="spacing" textLength="113.5417" x="993.75" y="69.9544">FilteredLoopBody</text><rect codeLine="23" fill="#282828" height="87.5448" id="FilteredLoopBody.FilterAction" rx="8.3333" ry="8.3333" style="stroke:#5E5E5E;stroke-width:1.0416666666666667;" width="112.5" x="1003.125" y="93.2861"/><rect fill="#1B1B1A" height="31.3883" rx="8.3333" ry="8.3333" style="stroke:#1B1B1A;stroke-width:1.0416666666666667;" width="112.5" x="1003.125" y="93.2861"/><rect fill="#1B1B1A" height="8.3333" style="stroke:#1B1B1A;stroke-width:1.0416666666666667;" width="112.5" x="1003.125" y="116.3411"/><rect codeLine="23" fill="none" height="87.5448" id="FilteredLoopBody.FilterAction" rx="8.3333" ry="8.3333" style="stroke:#5E5E5E;stroke-width:1.0416666666666667;" width="112.5" x="1003.125" y="93.2861"/><ellipse cx="1017.7083" cy="108.9803" fill="#CF6300" rx="10.4167" ry="10.4167" style="stroke:#EF8300;stroke-width:1.0416666666666667;"/><path d="M1020.7642,113.6678 L1015.0879,113.6678 L1015.0879,104.5553 L1020.7642,104.5553 L1020.7642,106.1422 L1016.8884,106.1422 L1016.8884,108.1075 L1020.3979,108.1075 L1020.3979,109.6944 L1016.8884,109.6944 L1016.8884,112.0809 L1020.7642,112.0809 Z " fill="#000000"/><text fill="#D8BC00" font-family="Open Sans,Avenir,Nunito,Arial,Helvetica,SansSerif" font-size="12.5" font-weight="bold" lengthAdjust="spacing" textLength="75" x="1034.375" y="113.7044">FilterAction</text><line style="stroke:#5E5E5E;stroke-width:1.0416666666666667;" x1="1004.1667" x2="1114.5833" y1="124.6745" y2="124.6745"/><text fill="#D8BC00" font-family="Open Sans,Avenir,Nunito,Arial,Helvetica,SansSerif" font-size="11.4583" lengthAdjust="spacing" textLength="44.7917" x="1012.5" y="143.044">ACCEPT</text><text fill="#D8BC00" font-family="Open Sans,Avenir,Nunito,Arial,Helvetica,SansSerif" font-size="11.4583" lengthAdjust="spacing" textLength="38.5417" x="1012.5" y="162.7889">REJECT</text><line style="stroke:#5E5E5E;stroke-width:1.0416666666666667;" x1="1004.1667" x2="1114.5833" y1="172.4976" y2="172.4976"/><rect codeLine="7" fill="#282828" height="87.5448" id="Callback" rx="8.3333" ry="8.3333" style="stroke:#5E5E5E;stroke-width:1.0416666666666667;" width="159.375" x="124.4792" y="93.2861"/><rect fill="#1B1B1A" height="31.3883" rx="8.3333" ry="8.3333" style="stroke:#1B1B1A;stroke-width:1.0416666666666667;" width="159.375" x="124.4792" y="93.2861"/><rect fill="#1B1B1A" height="8.3333" style="stroke:#1B1B1A;stroke-width:1.0416666666666667;" width="159.375" x="124.4792" y="116.3411"/><rect codeLine="7" fill="none" height="87.5448" id="Callback" rx="8.3333" ry="8.3333" style="stroke:#5E5E5E;stroke-width:1.0416666666666667;" width="159.375" x="124.4792" y="93.2861"/><ellipse cx="148.4375" cy="108.9803" fill="#008400" rx="10.4167" ry="10.4167" style="stroke:#239C23;stroke-width:1.0416666666666667;"/><path d="M145.8415,106.1422 L145.8415,104.5553 L151.2675,104.5553 L151.2675,106.1422 L149.4548,106.1422 L149.4548,112.0809 L151.2675,112.0809 L151.2675,113.6678 L145.8415,113.6678 L145.8415,112.0809 L147.6542,112.0809 L147.6542,106.1422 Z " fill="#000000"/><text fill="#D8BC00" font-family="Open Sans,Avenir,Nunito,Arial,Helvetica,SansSerif" font-size="12.5" font-style="italic" font-weight="bold" lengthAdjust="spacing" textLength="55.2083" x="167.1875" y="113.7044">Callback</text><rect fill="#333333" height="23.055" style="stroke:#A0A0A0;stroke-width:1.0416666666666667;stroke-dasharray:2.0,2.0;" width="43.75" x="243.2292" y="90.1611"/><text fill="#A0A0A0" font-family="Open Sans,Avenir,Nunito,Arial,Helvetica,SansSerif" font-size="12.5" font-weight="bold" lengthAdjust="spacing" textLength="35.4167" x="247.3958" y="106.4128">Value</text><line style="stroke:#5E5E5E;stroke-width:1.5625;" x1="125.5208" x2="282.8125" y1="124.6745" y2="124.6745"/><line style="stroke:#5E5E5E;stroke-width:1.0416666666666667;" x1="125.5208" x2="282.8125" y1="133.0078" y2="133.0078"/><ellipse cx="135.9375" cy="144.4661" fill="#84BE84" rx="3.125" ry="3.125" style="stroke:#038048;stroke-width:1.0416666666666667;"/><text fill="#D8BC00" font-family="Open Sans,Avenir,Nunito,Arial,Helvetica,SansSerif" font-size="11.4583" lengthAdjust="spacing" textLength="110.4167" x="147.3958" y="151.3774">void callback(Value)</text><ellipse cx="135.9375" cy="164.211" fill="#84BE84" rx="3.125" ry="3.125" style="stroke:#038048;stroke-width:1.0416666666666667;"/><text fill="#D8BC00" font-family="Open Sans,Avenir,Nunito,Arial,Helvetica,SansSerif" font-size="11.4583" lengthAdjust="spacing" textLength="127.0833" x="147.3958" y="171.1222">void onCallback(Value)</text><rect codeLine="14" fill="#282828" height="131.2012" id="Code" rx="8.3333" ry="8.3333" style="stroke:#5E5E5E;stroke-width:1.0416666666666667;" width="192.7083" x="320.3125" y="71.4111"/><rect fill="#1B1B1A" height="31.3883" rx="8.3333" ry="8.3333" style="stroke:#1B1B1A;stroke-width:1.0416666666666667;" width="192.7083" x="320.3125" y="71.4111"/><rect fill="#1B1B1A" height="8.3333" style="stroke:#1B1B1A;stroke-width:1.0416666666666667;" width="192.7083" x="320.3125" y="94.4661"/><rect codeLine="14" fill="none" height="131.2012" id="Code" rx="8.3333" ry="8.3333" style="stroke:#5E5E5E;stroke-width:1.0416666666666667;" width="192.7083" x="320.3125" y="71.4111"/><ellipse cx="369.7917" cy="87.1053" fill="#008400" rx="10.4167" ry="10.4167" style="stroke:#239C23;stroke-width:1.0416666666666667;"/><path d="M367.1956,84.2672 L367.1956,82.6803 L372.6217,82.6803 L372.6217,84.2672 L370.8089,84.2672 L370.8089,90.2059 L372.6217,90.2059 L372.6217,91.7928 L367.1956,91.7928 L367.1956,90.2059 L369.0084,90.2059 L369.0084,84.2672 Z " fill="#000000"/><text fill="#D8BC00" font-family="Open Sans,Avenir,Nunito,Arial,Helvetica,SansSerif" font-size="12.5" font-style="italic" font-weight="bold" lengthAdjust="spacing" textLength="33.3333" x="392.7083" y="91.8294">Code</text><rect fill="#333333" height="23.055" style="stroke:#A0A0A0;stroke-width:1.0416666666666667;stroke-dasharray:2.0,2.0;" width="43.75" x="472.3958" y="68.2861"/><text fill="#A0A0A0" font-family="Open Sans,Avenir,Nunito,Arial,Helvetica,SansSerif" font-size="12.5" font-weight="bold" lengthAdjust="spacing" textLength="35.4167" x="476.5625" y="84.5378">Value</text><line style="stroke:#5E5E5E;stroke-width:1.5625;" x1="321.3542" x2="511.9792" y1="102.7995" y2="102.7995"/><line style="stroke:#5E5E5E;stroke-width:1.0416666666666667;" x1="321.3542" x2="511.9792" y1="111.1328" y2="111.1328"/><ellipse cx="331.7708" cy="122.5911" fill="#84BE84" rx="3.125" ry="3.125" style="stroke:#038048;stroke-width:1.0416666666666667;"/><text fill="#D8BC00" font-family="Open Sans,Avenir,Nunito,Arial,Helvetica,SansSerif" font-size="11.4583" lengthAdjust="spacing" textLength="133.3333" x="343.2292" y="129.5024">Code&lt;T&gt; of(Code&lt;T&gt;)</text><ellipse cx="331.7708" cy="142.336" fill="#84BE84" rx="3.125" ry="3.125" style="stroke:#038048;stroke-width:1.0416666666666667;"/><text fill="#D8BC00" font-family="Open Sans,Avenir,Nunito,Arial,Helvetica,SansSerif" font-size="11.4583" lengthAdjust="spacing" textLength="160.4167" x="343.2292" y="149.2472">Code&lt;T&gt; of(Runnable code)</text><ellipse cx="331.7708" cy="185.9924" fill="#84BE84" rx="3.125" ry="3.125" style="stroke:#038048;stroke-width:1.0416666666666667;"/><text fill="#D8BC00" font-family="Open Sans,Avenir,Nunito,Arial,Helvetica,SansSerif" font-size="11.4583" lengthAdjust="spacing" textLength="61.4583" x="343.2292" y="192.9036">Value run()</text><line style="stroke:#5E5E5E;stroke-width:1.0416666666666667;" x1="321.3542" x2="386.9792" y1="168.8283" y2="168.8283"/><text fill="#D8BC00" font-family="Open Sans,Avenir,Nunito,Arial,Helvetica,SansSerif" font-size="11.4583" lengthAdjust="spacing" textLength="53.125" x="390.1042" y="172.6379">(lifecycle)</text><line style="stroke:#5E5E5E;stroke-width:1.0416666666666667;" x1="446.3542" x2="511.9792" y1="168.8283" y2="168.8283"/><rect codeLine="29" fill="#282828" height="127.0345" id="FilteredLoopBody" rx="8.3333" ry="8.3333" style="stroke:#5E5E5E;stroke-width:1.0416666666666667;" width="416.6667" x="550" y="73.4945"/><rect fill="#1B1B1A" height="31.3883" rx="8.3333" ry="8.3333" style="stroke:#1B1B1A;stroke-width:1.0416666666666667;" width="416.6667" x="550" y="73.4945"/><rect fill="#1B1B1A" height="8.3333" style="stroke:#1B1B1A;stroke-width:1.0416666666666667;" width="416.6667" x="550" y="96.5495"/><rect codeLine="29" fill="none" height="127.0345" id="FilteredLoopBody" rx="8.3333" ry="8.3333" style="stroke:#5E5E5E;stroke-width:1.0416666666666667;" width="416.6667" x="550" y="73.4945"/><ellipse cx="671.3542" cy="89.1886" fill="#008400" rx="10.4167" ry="10.4167" style="stroke:#239C23;stroke-width:1.0416666666666667;"/><path d="M668.7581,86.3505 L668.7581,84.7636 L674.1842,84.7636 L674.1842,86.3505 L672.3714,86.3505 L672.3714,92.2892 L674.1842,92.2892 L674.1842,93.8761 L668.7581,93.8761 L668.7581,92.2892 L670.5709,92.2892 L670.5709,86.3505 Z " fill="#000000"/><text fill="#D8BC00" font-family="Open Sans,Avenir,Nunito,Arial,Helvetica,SansSerif" font-size="12.5" font-style="italic" font-weight="bold" lengthAdjust="spacing" textLength="113.5417" x="694.2708" y="93.9128">FilteredLoopBody</text><rect fill="#333333" height="23.055" style="stroke:#A0A0A0;stroke-width:1.0416666666666667;stroke-dasharray:2.0,2.0;" width="43.75" x="926.0417" y="70.3695"/><text fill="#A0A0A0" font-family="Open Sans,Avenir,Nunito,Arial,Helvetica,SansSerif" font-size="12.5" font-weight="bold" lengthAdjust="spacing" textLength="35.4167" x="930.2083" y="86.6211">Value</text><line style="stroke:#5E5E5E;stroke-width:1.5625;" x1="551.0417" x2="965.625" y1="104.8828" y2="104.8828"/><ellipse cx="561.4583" cy="140.2527" fill="#84BE84" rx="3.125" ry="3.125" style="stroke:#038048;stroke-width:1.0416666666666667;"/><text fill="#D8BC00" font-family="Open Sans,Avenir,Nunito,Arial,Helvetica,SansSerif" font-size="11.4583" lengthAdjust="spacing" textLength="384.375" x="572.9167" y="147.1639">void forCount(Value minimum, Value exclusiveMaximum, long count)</text><line style="stroke:#5E5E5E;stroke-width:1.0416666666666667;" x1="551.0417" x2="723.9583" y1="123.0886" y2="123.0886"/><text fill="#D8BC00" font-family="Open Sans,Avenir,Nunito,Arial,Helvetica,SansSerif" font-size="11.4583" lengthAdjust="spacing" textLength="62.5" x="727.0833" y="126.8982">(collection)</text><line style="stroke:#5E5E5E;stroke-width:1.0416666666666667;" x1="792.7083" x2="965.625" y1="123.0886" y2="123.0886"/><ellipse cx="561.4583" cy="183.9091" fill="#84BE84" rx="3.125" ry="3.125" style="stroke:#038048;stroke-width:1.0416666666666667;"/><text fill="#D8BC00" font-family="Open Sans,Avenir,Nunito,Arial,Helvetica,SansSerif" font-size="11.4583" lengthAdjust="spacing" textLength="130.2083" x="572.9167" y="190.8203">FilterAction at(Value at)</text><line style="stroke:#5E5E5E;stroke-width:1.0416666666666667;" x1="551.0417" x2="727.6042" y1="166.745" y2="166.745"/><text fill="#D8BC00" font-family="Open Sans,Avenir,Nunito,Arial,Helvetica,SansSerif" font-size="11.4583" lengthAdjust="spacing" textLength="55.2083" x="730.7292" y="170.5546">(iteration)</text><line style="stroke:#5E5E5E;stroke-width:1.0416666666666667;" x1="789.0625" x2="965.625" y1="166.745" y2="166.745"/><rect codeLine="37" fill="#282828" height="107.2896" id="LoopBody" rx="8.3333" ry="8.3333" style="stroke:#5E5E5E;stroke-width:1.0416666666666667;" width="393.75" x="7.2917" y="277.1403"/><rect fill="#1B1B1A" height="31.3883" rx="8.3333" ry="8.3333" style="stroke:#1B1B1A;stroke-width:1.0416666666666667;" width="393.75" x="7.2917" y="277.1403"/><rect fill="#1B1B1A" height="8.3333" style="stroke:#1B1B1A;stroke-width:1.0416666666666667;" width="393.75" x="7.2917" y="300.1953"/><rect codeLine="37" fill="none" height="107.2896" id="LoopBody" rx="8.3333" ry="8.3333" style="stroke:#5E5E5E;stroke-width:1.0416666666666667;" width="393.75" x="7.2917" y="277.1403"/><ellipse cx="141.6667" cy="292.8345" fill="#008400" rx="10.4167" ry="10.4167" style="stroke:#239C23;stroke-width:1.0416666666666667;"/><path d="M139.0706,289.9963 L139.0706,288.4094 L144.4967,288.4094 L144.4967,289.9963 L142.6839,289.9963 L142.6839,295.9351 L144.4967,295.9351 L144.4967,297.522 L139.0706,297.522 L139.0706,295.9351 L140.8834,295.9351 L140.8834,289.9963 Z " fill="#000000"/><text fill="#D8BC00" font-family="Open Sans,Avenir,Nunito,Arial,Helvetica,SansSerif" font-size="12.5" font-style="italic" font-weight="bold" lengthAdjust="spacing" textLength="64.5833" x="164.5833" y="297.5586">LoopBody</text><rect fill="#333333" height="23.055" style="stroke:#A0A0A0;stroke-width:1.0416666666666667;stroke-dasharray:2.0,2.0;" width="43.75" x="360.4167" y="274.0153"/><text fill="#A0A0A0" font-family="Open Sans,Avenir,Nunito,Arial,Helvetica,SansSerif" font-size="12.5" font-weight="bold" lengthAdjust="spacing" textLength="35.4167" x="364.5833" y="290.2669">Value</text><line style="stroke:#5E5E5E;stroke-width:1.5625;" x1="8.3333" x2="400" y1="308.5286" y2="308.5286"/><line style="stroke:#5E5E5E;stroke-width:1.0416666666666667;" x1="8.3333" x2="400" y1="316.862" y2="316.862"/><ellipse cx="18.75" cy="328.3203" fill="#84BE84" rx="3.125" ry="3.125" style="stroke:#038048;stroke-width:1.0416666666666667;"/><text fill="#D8BC00" font-family="Open Sans,Avenir,Nunito,Arial,Helvetica,SansSerif" font-size="11.4583" lengthAdjust="spacing" textLength="89.5833" x="30.2083" y="335.2315">void at(Value at)</text><ellipse cx="18.75" cy="348.0652" fill="#84BE84" rx="3.125" ry="3.125" style="stroke:#038048;stroke-width:1.0416666666666667;"/><text fill="#D8BC00" font-family="Open Sans,Avenir,Nunito,Arial,Helvetica,SansSerif" font-size="11.4583" lengthAdjust="spacing" textLength="361.4583" x="30.2083" y="354.9764">void forEachExclusive(Value minimum, Value exclusiveMaximum)</text><ellipse cx="18.75" cy="367.8101" fill="#84BE84" rx="3.125" ry="3.125" style="stroke:#038048;stroke-width:1.0416666666666667;"/><text fill="#D8BC00" font-family="Open Sans,Avenir,Nunito,Arial,Helvetica,SansSerif" font-size="11.4583" lengthAdjust="spacing" textLength="355.2083" x="30.2083" y="374.7213">void forEachInclusive(Value minimum, Value inclusiveMaximum)</text><rect codeLine="45" fill="#282828" height="131.2012" id="TripwireTrait" rx="8.3333" ry="8.3333" style="stroke:#5E5E5E;stroke-width:1.0416666666666667;" width="232.2917" x="438.0208" y="265.1611"/><rect fill="#1B1B1A" height="31.3883" rx="8.3333" ry="8.3333" style="stroke:#1B1B1A;stroke-width:1.0416666666666667;" width="232.2917" x="438.0208" y="265.1611"/><rect fill="#1B1B1A" height="8.3333" style="stroke:#1B1B1A;stroke-width:1.0416666666666667;" width="232.2917" x="438.0208" y="288.2161"/><rect codeLine="45" fill="none" height="131.2012" id="TripwireTrait" rx="8.3333" ry="8.3333" style="stroke:#5E5E5E;stroke-width:1.0416666666666667;" width="232.2917" x="438.0208" y="265.1611"/><ellipse cx="505.2083" cy="280.8553" fill="#008400" rx="10.4167" ry="10.4167" style="stroke:#239C23;stroke-width:1.0416666666666667;"/><path d="M502.6123,278.0172 L502.6123,276.4303 L508.0383,276.4303 L508.0383,278.0172 L506.2256,278.0172 L506.2256,283.9559 L508.0383,283.9559 L508.0383,285.5428 L502.6123,285.5428 L502.6123,283.9559 L504.425,283.9559 L504.425,278.0172 Z " fill="#000000"/><text fill="#D8BC00" font-family="Open Sans,Avenir,Nunito,Arial,Helvetica,SansSerif" font-size="12.5" font-style="italic" font-weight="bold" lengthAdjust="spacing" textLength="83.3333" x="528.125" y="285.5794">TripwireTrait</text><line style="stroke:#5E5E5E;stroke-width:1.5625;" x1="439.0625" x2="669.2708" y1="296.5495" y2="296.5495"/><line style="stroke:#5E5E5E;stroke-width:1.0416666666666667;" x1="439.0625" x2="669.2708" y1="304.8828" y2="304.8828"/><ellipse cx="449.4792" cy="316.3411" fill="#84BE84" rx="3.125" ry="3.125" style="stroke:#038048;stroke-width:1.0416666666666667;"/><text fill="#D8BC00" font-family="Open Sans,Avenir,Nunito,Arial,Helvetica,SansSerif" font-size="11.4583" lengthAdjust="spacing" textLength="200" x="460.9375" y="323.2524">boolean tripwireTripEvery(int every)</text><ellipse cx="449.4792" cy="336.086" fill="#84BE84" rx="3.125" ry="3.125" style="stroke:#038048;stroke-width:1.0416666666666667;"/><text fill="#D8BC00" font-family="Open Sans,Avenir,Nunito,Arial,Helvetica,SansSerif" font-size="11.4583" lengthAdjust="spacing" textLength="171.875" x="460.9375" y="342.9972">void tripwireTripped(int count)</text><ellipse cx="449.4792" cy="379.7424" fill="#84BE84" rx="3.125" ry="3.125" style="stroke:#038048;stroke-width:1.0416666666666667;"/><text fill="#D8BC00" font-family="Open Sans,Avenir,Nunito,Arial,Helvetica,SansSerif" font-size="11.4583" lengthAdjust="spacing" textLength="108.3333" x="460.9375" y="386.6536">void tripwireReset()</text><line style="stroke:#5E5E5E;stroke-width:1.0416666666666667;" x1="439.0625" x2="524.4792" y1="362.5783" y2="362.5783"/><text fill="#D8BC00" font-family="Open Sans,Avenir,Nunito,Arial,Helvetica,SansSerif" font-size="11.4583" lengthAdjust="spacing" textLength="53.125" x="527.6042" y="366.3879">(lifecycle)</text><line style="stroke:#5E5E5E;stroke-width:1.0416666666666667;" x1="583.8542" x2="669.2708" y1="362.5783" y2="362.5783"/></g></svg>
