<?xml version="1.0" encoding="UTF-8" standalone="no"?><svg xmlns="http://www.w3.org/2000/svg" xmlns:xlink="http://www.w3.org/1999/xlink" contentScriptType="application/ecmascript" contentStyleType="text/css" height="1108.3333px" preserveAspectRatio="none" style="width:1581px;height:1108px;background:#333333;" version="1.1" viewBox="0 0 1581 1108" width="1581.25px" zoomAndPan="magnify"><defs/><g><rect fill="#48494B" height="41.2028" rx="8.3333" ry="8.3333" style="stroke:#545454;stroke-width:1.0416666666666667;" width="420.8333" x="572.9167" y="2.0833"/><text fill="#C0C0C0" font-family="Open Sans,Avenir,Nunito,Arial,Helvetica,SansSerif" font-size="20.8333" lengthAdjust="spacing" textLength="397.9167" x="584.375" y="30.5583">com.telenav.kivakit.interfaces.collection</text><rect codeLine="7" fill="#282828" height="142.6127" id="Addable" rx="8.3333" ry="8.3333" style="stroke:#5E5E5E;stroke-width:1.0416666666666667;" width="309.375" x="7.2917" y="56.8278"/><rect fill="#1B1B1A" height="31.3883" rx="8.3333" ry="8.3333" style="stroke:#1B1B1A;stroke-width:1.0416666666666667;" width="309.375" x="7.2917" y="56.8278"/><rect fill="#1B1B1A" height="8.3333" style="stroke:#1B1B1A;stroke-width:1.0416666666666667;" width="309.375" x="7.2917" y="79.8828"/><rect codeLine="7" fill="none" height="142.6127" id="Addable" rx="8.3333" ry="8.3333" style="stroke:#5E5E5E;stroke-width:1.0416666666666667;" width="309.375" x="7.2917" y="56.8278"/><ellipse cx="105.2083" cy="72.522" fill="#008400" rx="10.4167" ry="10.4167" style="stroke:#239C23;stroke-width:1.0416666666666667;"/><path d="M102.6123,69.6838 L102.6123,68.0969 L108.0383,68.0969 L108.0383,69.6838 L106.2256,69.6838 L106.2256,75.6226 L108.0383,75.6226 L108.0383,77.2095 L102.6123,77.2095 L102.6123,75.6226 L104.425,75.6226 L104.425,69.6838 Z " fill="#000000"/><text fill="#D8BC00" font-family="Open Sans,Avenir,Nunito,Arial,Helvetica,SansSerif" font-size="12.5" font-style="italic" font-weight="bold" lengthAdjust="spacing" textLength="53.125" x="128.125" y="77.2461">Addable</text><rect fill="#333333" height="23.055" style="stroke:#A0A0A0;stroke-width:1.0416666666666667;stroke-dasharray:2.0,2.0;" width="43.75" x="276.0417" y="53.7028"/><text fill="#A0A0A0" font-family="Open Sans,Avenir,Nunito,Arial,Helvetica,SansSerif" font-size="12.5" font-weight="bold" lengthAdjust="spacing" textLength="35.4167" x="280.2083" y="69.9544">Value</text><line style="stroke:#5E5E5E;stroke-width:1.5625;" x1="8.3333" x2="315.625" y1="88.2161" y2="88.2161"/><ellipse cx="18.75" cy="123.586" fill="#84BE84" rx="3.125" ry="3.125" style="stroke:#038048;stroke-width:1.0416666666666667;"/><text fill="#D8BC00" font-family="Open Sans,Avenir,Nunito,Arial,Helvetica,SansSerif" font-size="11.4583" lengthAdjust="spacing" textLength="107.2917" x="30.2083" y="130.4972">boolean add(Value)</text><ellipse cx="18.75" cy="143.3309" fill="#84BE84" rx="3.125" ry="3.125" style="stroke:#038048;stroke-width:1.0416666666666667;"/><text fill="#D8BC00" font-family="Open Sans,Avenir,Nunito,Arial,Helvetica,SansSerif" font-size="11.4583" lengthAdjust="spacing" textLength="277.0833" x="30.2083" y="150.2421">boolean addAll(Iterator&lt;? extends Value&gt; values)</text><ellipse cx="18.75" cy="163.0758" fill="#84BE84" rx="3.125" ry="3.125" style="stroke:#038048;stroke-width:1.0416666666666667;"/><text fill="#D8BC00" font-family="Open Sans,Avenir,Nunito,Arial,Helvetica,SansSerif" font-size="11.4583" lengthAdjust="spacing" textLength="277.0833" x="30.2083" y="169.987">boolean addAll(Iterable&lt;? extends Value&gt; values)</text><ellipse cx="18.75" cy="182.8206" fill="#84BE84" rx="3.125" ry="3.125" style="stroke:#038048;stroke-width:1.0416666666666667;"/><text fill="#D8BC00" font-family="Open Sans,Avenir,Nunito,Arial,Helvetica,SansSerif" font-size="11.4583" lengthAdjust="spacing" textLength="156.25" x="30.2083" y="189.7319">boolean addIfNotNull(Value)</text><line style="stroke:#5E5E5E;stroke-width:1.0416666666666667;" x1="8.3333" x2="127.6042" y1="106.4219" y2="106.4219"/><text fill="#D8BC00" font-family="Open Sans,Avenir,Nunito,Arial,Helvetica,SansSerif" font-size="11.4583" lengthAdjust="spacing" textLength="62.5" x="130.7292" y="110.2315">(collection)</text><line style="stroke:#5E5E5E;stroke-width:1.0416666666666667;" x1="196.3542" x2="315.625" y1="106.4219" y2="106.4219"/><rect codeLine="16" fill="#282828" height="107.2896" id="Appendable" rx="8.3333" ry="8.3333" style="stroke:#5E5E5E;stroke-width:1.0416666666666667;" width="355.2083" x="353.125" y="74.5361"/><rect fill="#1B1B1A" height="31.3883" rx="8.3333" ry="8.3333" style="stroke:#1B1B1A;stroke-width:1.0416666666666667;" width="355.2083" x="353.125" y="74.5361"/><rect fill="#1B1B1A" height="8.3333" style="stroke:#1B1B1A;stroke-width:1.0416666666666667;" width="355.2083" x="353.125" y="97.5911"/><rect codeLine="16" fill="none" height="107.2896" id="Appendable" rx="8.3333" ry="8.3333" style="stroke:#5E5E5E;stroke-width:1.0416666666666667;" width="355.2083" x="353.125" y="74.5361"/><ellipse cx="475.5208" cy="90.2303" fill="#008400" rx="10.4167" ry="10.4167" style="stroke:#239C23;stroke-width:1.0416666666666667;"/><path d="M472.9248,87.3922 L472.9248,85.8053 L478.3508,85.8053 L478.3508,87.3922 L476.5381,87.3922 L476.5381,93.3309 L478.3508,93.3309 L478.3508,94.9178 L472.9248,94.9178 L472.9248,93.3309 L474.7375,93.3309 L474.7375,87.3922 Z " fill="#000000"/><text fill="#D8BC00" font-family="Open Sans,Avenir,Nunito,Arial,Helvetica,SansSerif" font-size="12.5" font-style="italic" font-weight="bold" lengthAdjust="spacing" textLength="77.0833" x="498.4375" y="94.9544">Appendable</text><rect fill="#333333" height="23.055" style="stroke:#A0A0A0;stroke-width:1.0416666666666667;stroke-dasharray:2.0,2.0;" width="16.6667" x="694.7917" y="71.4111"/><text fill="#A0A0A0" font-family="Open Sans,Avenir,Nunito,Arial,Helvetica,SansSerif" font-size="12.5" font-weight="bold" lengthAdjust="spacing" textLength="8.3333" x="698.9583" y="87.6628">T</text><line style="stroke:#5E5E5E;stroke-width:1.5625;" x1="354.1667" x2="707.2917" y1="105.9245" y2="105.9245"/><line style="stroke:#5E5E5E;stroke-width:1.0416666666666667;" x1="354.1667" x2="707.2917" y1="114.2578" y2="114.2578"/><ellipse cx="364.5833" cy="125.7161" fill="#84BE84" rx="3.125" ry="3.125" style="stroke:#038048;stroke-width:1.0416666666666667;"/><text fill="#D8BC00" font-family="Open Sans,Avenir,Nunito,Arial,Helvetica,SansSerif" font-size="11.4583" lengthAdjust="spacing" textLength="185.4167" x="376.0417" y="132.6274">Appendable&lt;T&gt; append(T value)</text><ellipse cx="364.5833" cy="145.461" fill="#84BE84" rx="3.125" ry="3.125" style="stroke:#038048;stroke-width:1.0416666666666667;"/><text fill="#D8BC00" font-family="Open Sans,Avenir,Nunito,Arial,Helvetica,SansSerif" font-size="11.4583" lengthAdjust="spacing" textLength="322.9167" x="376.0417" y="152.3722">Appendable&lt;T&gt; appendAll(Iterator&lt;? extends T&gt; values)</text><ellipse cx="364.5833" cy="165.2059" fill="#84BE84" rx="3.125" ry="3.125" style="stroke:#038048;stroke-width:1.0416666666666667;"/><text fill="#D8BC00" font-family="Open Sans,Avenir,Nunito,Arial,Helvetica,SansSerif" font-size="11.4583" lengthAdjust="spacing" textLength="322.9167" x="376.0417" y="172.1171">Appendable&lt;T&gt; appendAll(Iterable&lt;? extends T&gt; values)</text><rect codeLine="24" fill="#282828" height="83.3781" id="Clearable" rx="8.3333" ry="8.3333" style="stroke:#5E5E5E;stroke-width:1.0416666666666667;" width="97.9167" x="745.3125" y="86.5153"/><rect fill="#1B1B1A" height="31.3883" rx="8.3333" ry="8.3333" style="stroke:#1B1B1A;stroke-width:1.0416666666666667;" width="97.9167" x="745.3125" y="86.5153"/><rect fill="#1B1B1A" height="8.3333" style="stroke:#1B1B1A;stroke-width:1.0416666666666667;" width="97.9167" x="745.3125" y="109.5703"/><rect codeLine="24" fill="none" height="83.3781" id="Clearable" rx="8.3333" ry="8.3333" style="stroke:#5E5E5E;stroke-width:1.0416666666666667;" width="97.9167" x="745.3125" y="86.5153"/><ellipse cx="759.8958" cy="102.2095" fill="#008400" rx="10.4167" ry="10.4167" style="stroke:#239C23;stroke-width:1.0416666666666667;"/><path d="M757.2998,99.3713 L757.2998,97.7844 L762.7258,97.7844 L762.7258,99.3713 L760.9131,99.3713 L760.9131,105.3101 L762.7258,105.3101 L762.7258,106.897 L757.2998,106.897 L757.2998,105.3101 L759.1125,105.3101 L759.1125,99.3713 Z " fill="#000000"/><text fill="#D8BC00" font-family="Open Sans,Avenir,Nunito,Arial,Helvetica,SansSerif" font-size="12.5" font-style="italic" font-weight="bold" lengthAdjust="spacing" textLength="60.4167" x="776.5625" y="106.9336">Clearable</text><line style="stroke:#5E5E5E;stroke-width:1.5625;" x1="746.3542" x2="842.1875" y1="117.9036" y2="117.9036"/><ellipse cx="756.7708" cy="153.2735" fill="#84BE84" rx="3.125" ry="3.125" style="stroke:#038048;stroke-width:1.0416666666666667;"/><text fill="#D8BC00" font-family="Open Sans,Avenir,Nunito,Arial,Helvetica,SansSerif" font-size="11.4583" lengthAdjust="spacing" textLength="62.5" x="768.2292" y="160.1847">void clear()</text><line style="stroke:#5E5E5E;stroke-width:1.0416666666666667;" x1="746.3542" x2="759.8958" y1="136.1094" y2="136.1094"/><text fill="#D8BC00" font-family="Open Sans,Avenir,Nunito,Arial,Helvetica,SansSerif" font-size="11.4583" lengthAdjust="spacing" textLength="62.5" x="763.0208" y="139.919">(collection)</text><line style="stroke:#5E5E5E;stroke-width:1.0416666666666667;" x1="828.6458" x2="842.1875" y1="136.1094" y2="136.1094"/><rect codeLine="30" fill="#282828" height="83.3781" id="Contains" rx="8.3333" ry="8.3333" style="stroke:#5E5E5E;stroke-width:1.0416666666666667;" width="176.0417" x="73.9583" y="521.4111"/><rect fill="#1B1B1A" height="31.3883" rx="8.3333" ry="8.3333" style="stroke:#1B1B1A;stroke-width:1.0416666666666667;" width="176.0417" x="73.9583" y="521.4111"/><rect fill="#1B1B1A" height="8.3333" style="stroke:#1B1B1A;stroke-width:1.0416666666666667;" width="176.0417" x="73.9583" y="544.4661"/><rect codeLine="30" fill="none" height="83.3781" id="Contains" rx="8.3333" ry="8.3333" style="stroke:#5E5E5E;stroke-width:1.0416666666666667;" width="176.0417" x="73.9583" y="521.4111"/><ellipse cx="116.1979" cy="537.1053" fill="#008400" rx="10.4167" ry="10.4167" style="stroke:#239C23;stroke-width:1.0416666666666667;"/><path d="M113.6019,534.2672 L113.6019,532.6803 L119.0279,532.6803 L119.0279,534.2672 L117.2152,534.2672 L117.2152,540.2059 L119.0279,540.2059 L119.0279,541.7928 L113.6019,541.7928 L113.6019,540.2059 L115.4146,540.2059 L115.4146,534.2672 Z " fill="#000000"/><text fill="#D8BC00" font-family="Open Sans,Avenir,Nunito,Arial,Helvetica,SansSerif" font-size="12.5" font-style="italic" font-weight="bold" lengthAdjust="spacing" textLength="58.3333" x="139.0104" y="541.8294">Contains</text><rect fill="#333333" height="23.055" style="stroke:#A0A0A0;stroke-width:1.0416666666666667;stroke-dasharray:2.0,2.0;" width="16.6667" x="236.4583" y="518.2861"/><text fill="#A0A0A0" font-family="Open Sans,Avenir,Nunito,Arial,Helvetica,SansSerif" font-size="12.5" font-weight="bold" lengthAdjust="spacing" textLength="8.3333" x="240.625" y="534.5378">T</text><line style="stroke:#5E5E5E;stroke-width:1.5625;" x1="75" x2="248.9583" y1="552.7995" y2="552.7995"/><ellipse cx="85.4167" cy="588.1694" fill="#84BE84" rx="3.125" ry="3.125" style="stroke:#038048;stroke-width:1.0416666666666667;"/><text fill="#D8BC00" font-family="Open Sans,Avenir,Nunito,Arial,Helvetica,SansSerif" font-size="11.4583" lengthAdjust="spacing" textLength="143.75" x="96.875" y="595.0806">boolean contains(T value)</text><line style="stroke:#5E5E5E;stroke-width:1.0416666666666667;" x1="75" x2="127.6042" y1="571.0052" y2="571.0052"/><text fill="#D8BC00" font-family="Open Sans,Avenir,Nunito,Arial,Helvetica,SansSerif" font-size="11.4583" lengthAdjust="spacing" textLength="62.5" x="130.7292" y="574.8149">(collection)</text><line style="stroke:#5E5E5E;stroke-width:1.0416666666666667;" x1="196.3542" x2="248.9583" y1="571.0052" y2="571.0052"/><rect codeLine="89" fill="#282828" height="601.9999" id="Sequence" rx="8.3333" ry="8.3333" style="stroke:#5E5E5E;stroke-width:1.0416666666666667;" width="390.625" x="1179.1667" y="262.0361"/><rect fill="#1B1B1A" height="31.3883" rx="8.3333" ry="8.3333" style="stroke:#1B1B1A;stroke-width:1.0416666666666667;" width="390.625" x="1179.1667" y="262.0361"/><rect fill="#1B1B1A" height="8.3333" style="stroke:#1B1B1A;stroke-width:1.0416666666666667;" width="390.625" x="1179.1667" y="285.0911"/><rect codeLine="89" fill="none" height="601.9999" id="Sequence" rx="8.3333" ry="8.3333" style="stroke:#5E5E5E;stroke-width:1.0416666666666667;" width="390.625" x="1179.1667" y="262.0361"/><ellipse cx="1305.7292" cy="277.7303" fill="#008400" rx="10.4167" ry="10.4167" style="stroke:#239C23;stroke-width:1.0416666666666667;"/><path d="M1303.1331,274.8922 L1303.1331,273.3053 L1308.5592,273.3053 L1308.5592,274.8922 L1306.7464,274.8922 L1306.7464,280.8309 L1308.5592,280.8309 L1308.5592,282.4178 L1303.1331,282.4178 L1303.1331,280.8309 L1304.9459,280.8309 L1304.9459,274.8922 Z " fill="#000000"/><text fill="#D8BC00" font-family="Open Sans,Avenir,Nunito,Arial,Helvetica,SansSerif" font-size="12.5" font-style="italic" font-weight="bold" lengthAdjust="spacing" textLength="60.4167" x="1328.6458" y="282.4544">Sequence</text><rect fill="#333333" height="23.055" style="stroke:#A0A0A0;stroke-width:1.0416666666666667;stroke-dasharray:2.0,2.0;" width="60.4167" x="1512.5" y="258.9111"/><text fill="#A0A0A0" font-family="Open Sans,Avenir,Nunito,Arial,Helvetica,SansSerif" font-size="12.5" font-weight="bold" lengthAdjust="spacing" textLength="52.0833" x="1516.6667" y="275.1628">Element</text><line style="stroke:#5E5E5E;stroke-width:1.5625;" x1="1180.2083" x2="1568.75" y1="293.4245" y2="293.4245"/><line style="stroke:#5E5E5E;stroke-width:1.0416666666666667;" x1="1180.2083" x2="1568.75" y1="301.7578" y2="301.7578"/><ellipse cx="1190.625" cy="313.2161" fill="#84BE84" rx="3.125" ry="3.125" style="stroke:#038048;stroke-width:1.0416666666666667;"/><text fill="#D8BC00" font-family="Open Sans,Avenir,Nunito,Arial,Helvetica,SansSerif" font-size="11.4583" lengthAdjust="spacing" textLength="119.7917" x="1202.0833" y="320.1274">Set&lt;Element&gt; asSet()</text><ellipse cx="1190.625" cy="332.961" fill="#84BE84" rx="3.125" ry="3.125" style="stroke:#038048;stroke-width:1.0416666666666667;"/><text fill="#D8BC00" font-family="Open Sans,Avenir,Nunito,Arial,Helvetica,SansSerif" font-size="11.4583" lengthAdjust="spacing" textLength="82.2917" x="1202.0833" y="339.8722">Element head()</text><ellipse cx="1190.625" cy="376.6174" fill="#84BE84" rx="3.125" ry="3.125" style="stroke:#038048;stroke-width:1.0416666666666667;"/><text fill="#D8BC00" font-family="Open Sans,Avenir,Nunito,Arial,Helvetica,SansSerif" font-size="11.4583" lengthAdjust="spacing" textLength="251.0417" x="1202.0833" y="383.5286">boolean isEqualTo(Sequence&lt;Element&gt; that)</text><line style="stroke:#5E5E5E;stroke-width:1.0416666666666667;" x1="1180.2083" x2="1347.9167" y1="359.4533" y2="359.4533"/><text fill="#D8BC00" font-family="Open Sans,Avenir,Nunito,Arial,Helvetica,SansSerif" font-size="11.4583" lengthAdjust="spacing" textLength="46.875" x="1351.0417" y="363.2629">(checks)</text><line style="stroke:#5E5E5E;stroke-width:1.0416666666666667;" x1="1401.0417" x2="1568.75" y1="359.4533" y2="359.4533"/><ellipse cx="1190.625" cy="420.2738" fill="#84BE84" rx="3.125" ry="3.125" style="stroke:#038048;stroke-width:1.0416666666666667;"/><text fill="#D8BC00" font-family="Open Sans,Avenir,Nunito,Arial,Helvetica,SansSerif" font-size="11.4583" lengthAdjust="spacing" textLength="95.8333" x="1202.0833" y="427.1851">int asHashCode()</text><ellipse cx="1190.625" cy="440.0187" fill="#84BE84" rx="3.125" ry="3.125" style="stroke:#038048;stroke-width:1.0416666666666667;"/><text fill="#D8BC00" font-family="Open Sans,Avenir,Nunito,Arial,Helvetica,SansSerif" font-size="11.4583" lengthAdjust="spacing" textLength="277.0833" x="1202.0833" y="446.9299">Iterable&lt;Element&gt; asIterable(Matcher&lt;Element&gt;)</text><ellipse cx="1190.625" cy="459.7636" fill="#84BE84" rx="3.125" ry="3.125" style="stroke:#038048;stroke-width:1.0416666666666667;"/><text fill="#D8BC00" font-family="Open Sans,Avenir,Nunito,Arial,Helvetica,SansSerif" font-size="11.4583" lengthAdjust="spacing" textLength="169.7917" x="1202.0833" y="466.6748">Iterable&lt;Element&gt; asIterable()</text><ellipse cx="1190.625" cy="479.5085" fill="#84BE84" rx="3.125" ry="3.125" style="stroke:#038048;stroke-width:1.0416666666666667;"/><text fill="#D8BC00" font-family="Open Sans,Avenir,Nunito,Arial,Helvetica,SansSerif" font-size="11.4583" lengthAdjust="spacing" textLength="277.0833" x="1202.0833" y="486.4197">Iterator&lt;Element&gt; asIterator(Matcher&lt;Element&gt;)</text><ellipse cx="1190.625" cy="499.2533" fill="#84BE84" rx="3.125" ry="3.125" style="stroke:#038048;stroke-width:1.0416666666666667;"/><text fill="#D8BC00" font-family="Open Sans,Avenir,Nunito,Arial,Helvetica,SansSerif" font-size="11.4583" lengthAdjust="spacing" textLength="169.7917" x="1202.0833" y="506.1646">Iterator&lt;Element&gt; asIterator()</text><ellipse cx="1190.625" cy="518.9982" fill="#84BE84" rx="3.125" ry="3.125" style="stroke:#038048;stroke-width:1.0416666666666667;"/><text fill="#D8BC00" font-family="Open Sans,Avenir,Nunito,Arial,Helvetica,SansSerif" font-size="11.4583" lengthAdjust="spacing" textLength="126.0417" x="1202.0833" y="525.9094">List&lt;Element&gt; asList()</text><ellipse cx="1190.625" cy="538.7431" fill="#84BE84" rx="3.125" ry="3.125" style="stroke:#038048;stroke-width:1.0416666666666667;"/><text fill="#D8BC00" font-family="Open Sans,Avenir,Nunito,Arial,Helvetica,SansSerif" font-size="11.4583" lengthAdjust="spacing" textLength="78.125" x="1202.0833" y="545.6543">Element first()</text><ellipse cx="1190.625" cy="558.488" fill="#84BE84" rx="3.125" ry="3.125" style="stroke:#038048;stroke-width:1.0416666666666667;"/><text fill="#D8BC00" font-family="Open Sans,Avenir,Nunito,Arial,Helvetica,SansSerif" font-size="11.4583" lengthAdjust="spacing" textLength="203.125" x="1202.0833" y="565.3992">int indexOfFirst(Matcher&lt;Element&gt;)</text><ellipse cx="1190.625" cy="578.2328" fill="#84BE84" rx="3.125" ry="3.125" style="stroke:#038048;stroke-width:1.0416666666666667;"/><text fill="#D8BC00" font-family="Open Sans,Avenir,Nunito,Arial,Helvetica,SansSerif" font-size="11.4583" lengthAdjust="spacing" textLength="171.875" x="1202.0833" y="585.144">int indexOfFirst(Element value)</text><ellipse cx="1190.625" cy="597.9777" fill="#84BE84" rx="3.125" ry="3.125" style="stroke:#038048;stroke-width:1.0416666666666667;"/><text fill="#D8BC00" font-family="Open Sans,Avenir,Nunito,Arial,Helvetica,SansSerif" font-size="11.4583" lengthAdjust="spacing" textLength="110.4167" x="1202.0833" y="604.8889">List&lt;Element&gt; tail()</text><line style="stroke:#5E5E5E;stroke-width:1.0416666666666667;" x1="1180.2083" x2="1340.1042" y1="403.1097" y2="403.1097"/><text fill="#D8BC00" font-family="Open Sans,Avenir,Nunito,Arial,Helvetica,SansSerif" font-size="11.4583" lengthAdjust="spacing" textLength="62.5" x="1343.2292" y="406.9194">(collection)</text><line style="stroke:#5E5E5E;stroke-width:1.0416666666666667;" x1="1408.8542" x2="1568.75" y1="403.1097" y2="403.1097"/><ellipse cx="1190.625" cy="641.6341" fill="#84BE84" rx="3.125" ry="3.125" style="stroke:#038048;stroke-width:1.0416666666666667;"/><text fill="#D8BC00" font-family="Open Sans,Avenir,Nunito,Arial,Helvetica,SansSerif" font-size="11.4583" lengthAdjust="spacing" textLength="147.9167" x="1202.0833" y="648.5453">String join(char separator)</text><ellipse cx="1190.625" cy="661.379" fill="#84BE84" rx="3.125" ry="3.125" style="stroke:#038048;stroke-width:1.0416666666666667;"/><text fill="#D8BC00" font-family="Open Sans,Avenir,Nunito,Arial,Helvetica,SansSerif" font-size="11.4583" lengthAdjust="spacing" textLength="156.25" x="1202.0833" y="668.2902">String join(String separator)</text><ellipse cx="1190.625" cy="681.1239" fill="#84BE84" rx="3.125" ry="3.125" style="stroke:#038048;stroke-width:1.0416666666666667;"/><text fill="#D8BC00" font-family="Open Sans,Avenir,Nunito,Arial,Helvetica,SansSerif" font-size="11.4583" lengthAdjust="spacing" textLength="267.7083" x="1202.0833" y="688.0351">String join(String separator, String defaultValue)</text><ellipse cx="1190.625" cy="700.8687" fill="#84BE84" rx="3.125" ry="3.125" style="stroke:#038048;stroke-width:1.0416666666666667;"/><text fill="#D8BC00" font-family="Open Sans,Avenir,Nunito,Arial,Helvetica,SansSerif" font-size="11.4583" lengthAdjust="spacing" textLength="358.3333" x="1202.0833" y="707.7799">String join(String separator, Function&lt;Element,String&gt; toString)</text><line style="stroke:#5E5E5E;stroke-width:1.0416666666666667;" x1="1180.2083" x2="1344.7917" y1="624.47" y2="624.47"/><text fill="#D8BC00" font-family="Open Sans,Avenir,Nunito,Arial,Helvetica,SansSerif" font-size="11.4583" lengthAdjust="spacing" textLength="53.125" x="1347.9167" y="628.2796">(lifecycle)</text><line style="stroke:#5E5E5E;stroke-width:1.0416666666666667;" x1="1404.1667" x2="1568.75" y1="624.47" y2="624.47"/><ellipse cx="1190.625" cy="744.5251" fill="#84BE84" rx="3.125" ry="3.125" style="stroke:#038048;stroke-width:1.0416666666666667;"/><text fill="#D8BC00" font-family="Open Sans,Avenir,Nunito,Arial,Helvetica,SansSerif" font-size="11.4583" lengthAdjust="spacing" textLength="209.375" x="1202.0833" y="751.4364">boolean allMatch(Matcher&lt;Element&gt;)</text><ellipse cx="1190.625" cy="764.27" fill="#84BE84" rx="3.125" ry="3.125" style="stroke:#038048;stroke-width:1.0416666666666667;"/><text fill="#D8BC00" font-family="Open Sans,Avenir,Nunito,Arial,Helvetica,SansSerif" font-size="11.4583" lengthAdjust="spacing" textLength="216.6667" x="1202.0833" y="771.1812">boolean anyMatch(Matcher&lt;Element&gt;)</text><ellipse cx="1190.625" cy="784.0149" fill="#84BE84" rx="3.125" ry="3.125" style="stroke:#038048;stroke-width:1.0416666666666667;"/><text fill="#D8BC00" font-family="Open Sans,Avenir,Nunito,Arial,Helvetica,SansSerif" font-size="11.4583" lengthAdjust="spacing" textLength="225" x="1202.0833" y="790.9261">boolean noneMatch(Matcher&lt;Element&gt;)</text><line style="stroke:#5E5E5E;stroke-width:1.0416666666666667;" x1="1180.2083" x2="1341.1458" y1="727.361" y2="727.361"/><text fill="#D8BC00" font-family="Open Sans,Avenir,Nunito,Arial,Helvetica,SansSerif" font-size="11.4583" lengthAdjust="spacing" textLength="60.4167" x="1344.2708" y="731.1707">(matching)</text><line style="stroke:#5E5E5E;stroke-width:1.0416666666666667;" x1="1407.8125" x2="1568.75" y1="727.361" y2="727.361"/><ellipse cx="1190.625" cy="827.6713" fill="#84BE84" rx="3.125" ry="3.125" style="stroke:#038048;stroke-width:1.0416666666666667;"/><text fill="#D8BC00" font-family="Open Sans,Avenir,Nunito,Arial,Helvetica,SansSerif" font-size="11.4583" lengthAdjust="spacing" textLength="184.375" x="1202.0833" y="834.5825">Element find(Matcher&lt;Element&gt;)</text><ellipse cx="1190.625" cy="847.4162" fill="#84BE84" rx="3.125" ry="3.125" style="stroke:#038048;stroke-width:1.0416666666666667;"/><text fill="#D8BC00" font-family="Open Sans,Avenir,Nunito,Arial,Helvetica,SansSerif" font-size="11.4583" lengthAdjust="spacing" textLength="253.125" x="1202.0833" y="854.3274">Element find(Class&lt;? extends Element&gt; type)</text><line style="stroke:#5E5E5E;stroke-width:1.0416666666666667;" x1="1180.2083" x2="1348.4375" y1="810.5072" y2="810.5072"/><text fill="#D8BC00" font-family="Open Sans,Avenir,Nunito,Arial,Helvetica,SansSerif" font-size="11.4583" lengthAdjust="spacing" textLength="45.8333" x="1351.5625" y="814.3168">(search)</text><line style="stroke:#5E5E5E;stroke-width:1.0416666666666667;" x1="1400.5208" x2="1568.75" y1="810.5072" y2="810.5072"/><rect codeLine="123" fill="#282828" height="122.8678" id="Sized" rx="8.3333" ry="8.3333" style="stroke:#5E5E5E;stroke-width:1.0416666666666667;" width="155.2083" x="714.5833" y="501.6195"/><rect fill="#1B1B1A" height="31.3883" rx="8.3333" ry="8.3333" style="stroke:#1B1B1A;stroke-width:1.0416666666666667;" width="155.2083" x="714.5833" y="501.6195"/><rect fill="#1B1B1A" height="8.3333" style="stroke:#1B1B1A;stroke-width:1.0416666666666667;" width="155.2083" x="714.5833" y="524.6745"/><rect codeLine="123" fill="none" height="122.8678" id="Sized" rx="8.3333" ry="8.3333" style="stroke:#5E5E5E;stroke-width:1.0416666666666667;" width="155.2083" x="714.5833" y="501.6195"/><ellipse cx="767.7083" cy="517.3136" fill="#008400" rx="10.4167" ry="10.4167" style="stroke:#239C23;stroke-width:1.0416666666666667;"/><path d="M765.1123,514.4755 L765.1123,512.8886 L770.5383,512.8886 L770.5383,514.4755 L768.7256,514.4755 L768.7256,520.4142 L770.5383,520.4142 L770.5383,522.0011 L765.1123,522.0011 L765.1123,520.4142 L766.925,520.4142 L766.925,514.4755 Z " fill="#000000"/><text fill="#D8BC00" font-family="Open Sans,Avenir,Nunito,Arial,Helvetica,SansSerif" font-size="12.5" font-style="italic" font-weight="bold" lengthAdjust="spacing" textLength="34.375" x="790.625" y="522.0378">Sized</text><line style="stroke:#5E5E5E;stroke-width:1.5625;" x1="715.625" x2="868.75" y1="533.0078" y2="533.0078"/><ellipse cx="726.0417" cy="568.3777" fill="#84BE84" rx="3.125" ry="3.125" style="stroke:#038048;stroke-width:1.0416666666666667;"/><text fill="#D8BC00" font-family="Open Sans,Avenir,Nunito,Arial,Helvetica,SansSerif" font-size="11.4583" lengthAdjust="spacing" textLength="100" x="737.5" y="575.2889">boolean isEmpty()</text><ellipse cx="726.0417" cy="588.1226" fill="#84BE84" rx="3.125" ry="3.125" style="stroke:#038048;stroke-width:1.0416666666666667;"/><text fill="#D8BC00" font-family="Open Sans,Avenir,Nunito,Arial,Helvetica,SansSerif" font-size="11.4583" lengthAdjust="spacing" textLength="122.9167" x="737.5" y="595.0338">boolean isNonEmpty()</text><ellipse cx="726.0417" cy="607.8674" fill="#84BE84" rx="3.125" ry="3.125" style="stroke:#038048;stroke-width:1.0416666666666667;"/><text fill="#D8BC00" font-family="Open Sans,Avenir,Nunito,Arial,Helvetica,SansSerif" font-size="11.4583" lengthAdjust="spacing" textLength="47.9167" x="737.5" y="614.7786">int size()</text><line style="stroke:#5E5E5E;stroke-width:1.0416666666666667;" x1="715.625" x2="757.8125" y1="551.2136" y2="551.2136"/><text fill="#D8BC00" font-family="Open Sans,Avenir,Nunito,Arial,Helvetica,SansSerif" font-size="11.4583" lengthAdjust="spacing" textLength="62.5" x="760.9375" y="555.0232">(collection)</text><line style="stroke:#5E5E5E;stroke-width:1.0416666666666667;" x1="826.5625" x2="868.75" y1="551.2136" y2="551.2136"/><rect codeLine="40" fill="#282828" height="174.8576" id="Indexable" rx="8.3333" ry="8.3333" style="stroke:#5E5E5E;stroke-width:1.0416666666666667;" width="330.2083" x="917.7083" y="926.6195"/><rect fill="#1B1B1A" height="31.3883" rx="8.3333" ry="8.3333" style="stroke:#1B1B1A;stroke-width:1.0416666666666667;" width="330.2083" x="917.7083" y="926.6195"/><rect fill="#1B1B1A" height="8.3333" style="stroke:#1B1B1A;stroke-width:1.0416666666666667;" width="330.2083" x="917.7083" y="949.6745"/><rect codeLine="40" fill="none" height="174.8576" id="Indexable" rx="8.3333" ry="8.3333" style="stroke:#5E5E5E;stroke-width:1.0416666666666667;" width="330.2083" x="917.7083" y="926.6195"/><ellipse cx="1013.0208" cy="942.3136" fill="#008400" rx="10.4167" ry="10.4167" style="stroke:#239C23;stroke-width:1.0416666666666667;"/><path d="M1010.4248,939.4755 L1010.4248,937.8886 L1015.8508,937.8886 L1015.8508,939.4755 L1014.0381,939.4755 L1014.0381,945.4142 L1015.8508,945.4142 L1015.8508,947.0011 L1010.4248,947.0011 L1010.4248,945.4142 L1012.2375,945.4142 L1012.2375,939.4755 Z " fill="#000000"/><text fill="#D8BC00" font-family="Open Sans,Avenir,Nunito,Arial,Helvetica,SansSerif" font-size="12.5" font-style="italic" font-weight="bold" lengthAdjust="spacing" textLength="62.5" x="1035.9375" y="947.0378">Indexable</text><rect fill="#333333" height="23.055" style="stroke:#A0A0A0;stroke-width:1.0416666666666667;stroke-dasharray:2.0,2.0;" width="60.4167" x="1190.625" y="923.4945"/><text fill="#A0A0A0" font-family="Open Sans,Avenir,Nunito,Arial,Helvetica,SansSerif" font-size="12.5" font-weight="bold" lengthAdjust="spacing" textLength="52.0833" x="1194.7917" y="939.7461">Element</text><line style="stroke:#5E5E5E;stroke-width:1.5625;" x1="918.75" x2="1246.875" y1="958.0078" y2="958.0078"/><line style="stroke:#5E5E5E;stroke-width:1.0416666666666667;" x1="918.75" x2="1246.875" y1="966.3411" y2="966.3411"/><ellipse cx="929.1667" cy="977.7995" fill="#84BE84" rx="3.125" ry="3.125" style="stroke:#038048;stroke-width:1.0416666666666667;"/><text fill="#D8BC00" font-family="Open Sans,Avenir,Nunito,Arial,Helvetica,SansSerif" font-size="11.4583" lengthAdjust="spacing" textLength="121.875" x="940.625" y="984.7107">Element get(int index)</text><ellipse cx="929.1667" cy="997.5444" fill="#84BE84" rx="3.125" ry="3.125" style="stroke:#038048;stroke-width:1.0416666666666667;"/><text fill="#D8BC00" font-family="Open Sans,Avenir,Nunito,Arial,Helvetica,SansSerif" font-size="11.4583" lengthAdjust="spacing" textLength="297.9167" x="940.625" y="1004.4556">Element getOrDefault(int index, Element defaultValue)</text><ellipse cx="929.1667" cy="1041.2008" fill="#84BE84" rx="3.125" ry="3.125" style="stroke:#038048;stroke-width:1.0416666666666667;"/><text fill="#D8BC00" font-family="Open Sans,Avenir,Nunito,Arial,Helvetica,SansSerif" font-size="11.4583" lengthAdjust="spacing" textLength="252.0833" x="940.625" y="1048.112">boolean isEqualTo(Indexable&lt;Element&gt; that)</text><line style="stroke:#5E5E5E;stroke-width:1.0416666666666667;" x1="918.75" x2="1056.25" y1="1024.0367" y2="1024.0367"/><text fill="#D8BC00" font-family="Open Sans,Avenir,Nunito,Arial,Helvetica,SansSerif" font-size="11.4583" lengthAdjust="spacing" textLength="46.875" x="1059.375" y="1027.8463">(checks)</text><line style="stroke:#5E5E5E;stroke-width:1.0416666666666667;" x1="1109.375" x2="1246.875" y1="1024.0367" y2="1024.0367"/><ellipse cx="929.1667" cy="1084.8572" fill="#84BE84" rx="3.125" ry="3.125" style="stroke:#038048;stroke-width:1.0416666666666667;"/><text fill="#D8BC00" font-family="Open Sans,Avenir,Nunito,Arial,Helvetica,SansSerif" font-size="11.4583" lengthAdjust="spacing" textLength="75" x="940.625" y="1091.7684">Element last()</text><line style="stroke:#5E5E5E;stroke-width:1.0416666666666667;" x1="918.75" x2="1048.4375" y1="1067.6931" y2="1067.6931"/><text fill="#D8BC00" font-family="Open Sans,Avenir,Nunito,Arial,Helvetica,SansSerif" font-size="11.4583" lengthAdjust="spacing" textLength="62.5" x="1051.5625" y="1071.5027">(collection)</text><line style="stroke:#5E5E5E;stroke-width:1.0416666666666667;" x1="1117.1875" x2="1246.875" y1="1067.6931" y2="1067.6931"/><rect codeLine="121" fill="#282828" height="48.055" id="Quantizable" rx="8.3333" ry="8.3333" style="stroke:#5E5E5E;stroke-width:1.0416666666666667;" width="115.625" x="880.2083" y="104.2236"/><rect fill="#1B1B1A" height="31.3883" rx="8.3333" ry="8.3333" style="stroke:#1B1B1A;stroke-width:1.0416666666666667;" width="115.625" x="880.2083" y="104.2236"/><rect fill="#1B1B1A" height="8.3333" style="stroke:#1B1B1A;stroke-width:1.0416666666666667;" width="115.625" x="880.2083" y="127.2786"/><rect codeLine="121" fill="none" height="48.055" id="Quantizable" rx="8.3333" ry="8.3333" style="stroke:#5E5E5E;stroke-width:1.0416666666666667;" width="115.625" x="880.2083" y="104.2236"/><ellipse cx="894.7917" cy="119.9178" fill="#008400" rx="10.4167" ry="10.4167" style="stroke:#239C23;stroke-width:1.0416666666666667;"/><path d="M892.1956,117.0797 L892.1956,115.4928 L897.6217,115.4928 L897.6217,117.0797 L895.8089,117.0797 L895.8089,123.0184 L897.6217,123.0184 L897.6217,124.6053 L892.1956,124.6053 L892.1956,123.0184 L894.0084,123.0184 L894.0084,117.0797 Z " fill="#000000"/><text fill="#D8BC00" font-family="Open Sans,Avenir,Nunito,Arial,Helvetica,SansSerif" font-size="12.5" font-style="italic" font-weight="bold" lengthAdjust="spacing" textLength="78.125" x="911.4583" y="124.6419">Quantizable</text><line style="stroke:#5E5E5E;stroke-width:1.0416666666666667;" x1="881.25" x2="994.7917" y1="135.612" y2="135.612"/><line style="stroke:#5E5E5E;stroke-width:1.0416666666666667;" x1="881.25" x2="994.7917" y1="143.9453" y2="143.9453"/><rect codeLine="52" fill="#282828" height="48.055" id="QuantumComparable" rx="8.3333" ry="8.3333" style="stroke:#5E5E5E;stroke-width:1.0416666666666667;" width="176.0417" x="1032.2917" y="104.2236"/><rect fill="#1B1B1A" height="31.3883" rx="8.3333" ry="8.3333" style="stroke:#1B1B1A;stroke-width:1.0416666666666667;" width="176.0417" x="1032.2917" y="104.2236"/><rect fill="#1B1B1A" height="8.3333" style="stroke:#1B1B1A;stroke-width:1.0416666666666667;" width="176.0417" x="1032.2917" y="127.2786"/><rect codeLine="52" fill="none" height="48.055" id="QuantumComparable" rx="8.3333" ry="8.3333" style="stroke:#5E5E5E;stroke-width:1.0416666666666667;" width="176.0417" x="1032.2917" y="104.2236"/><ellipse cx="1046.875" cy="119.9178" fill="#008400" rx="10.4167" ry="10.4167" style="stroke:#239C23;stroke-width:1.0416666666666667;"/><path d="M1044.279,117.0797 L1044.279,115.4928 L1049.705,115.4928 L1049.705,117.0797 L1047.8923,117.0797 L1047.8923,123.0184 L1049.705,123.0184 L1049.705,124.6053 L1044.279,124.6053 L1044.279,123.0184 L1046.0917,123.0184 L1046.0917,117.0797 Z " fill="#000000"/><text fill="#D8BC00" font-family="Open Sans,Avenir,Nunito,Arial,Helvetica,SansSerif" font-size="12.5" font-style="italic" font-weight="bold" lengthAdjust="spacing" textLength="138.5417" x="1063.5417" y="124.6419">QuantumComparable</text><line style="stroke:#5E5E5E;stroke-width:1.0416666666666667;" x1="1033.3333" x2="1207.2917" y1="135.612" y2="135.612"/><line style="stroke:#5E5E5E;stroke-width:1.0416666666666667;" x1="1033.3333" x2="1207.2917" y1="143.9453" y2="143.9453"/><rect codeLine="55" fill="#282828" height="83.3781" id="Indexed" rx="8.3333" ry="8.3333" style="stroke:#5E5E5E;stroke-width:1.0416666666666667;" width="89.5833" x="1052.6042" y="521.4111"/><rect fill="#1B1B1A" height="31.3883" rx="8.3333" ry="8.3333" style="stroke:#1B1B1A;stroke-width:1.0416666666666667;" width="89.5833" x="1052.6042" y="521.4111"/><rect fill="#1B1B1A" height="8.3333" style="stroke:#1B1B1A;stroke-width:1.0416666666666667;" width="89.5833" x="1052.6042" y="544.4661"/><rect codeLine="55" fill="none" height="83.3781" id="Indexed" rx="8.3333" ry="8.3333" style="stroke:#5E5E5E;stroke-width:1.0416666666666667;" width="89.5833" x="1052.6042" y="521.4111"/><ellipse cx="1067.6563" cy="537.1053" fill="#008400" rx="10.4167" ry="10.4167" style="stroke:#239C23;stroke-width:1.0416666666666667;"/><path d="M1065.0602,534.2672 L1065.0602,532.6803 L1070.4862,532.6803 L1070.4862,534.2672 L1068.6735,534.2672 L1068.6735,540.2059 L1070.4862,540.2059 L1070.4862,541.7928 L1065.0602,541.7928 L1065.0602,540.2059 L1066.873,540.2059 L1066.873,534.2672 Z " fill="#000000"/><text fill="#D8BC00" font-family="Open Sans,Avenir,Nunito,Arial,Helvetica,SansSerif" font-size="12.5" font-style="italic" font-weight="bold" lengthAdjust="spacing" textLength="51.0417" x="1084.4271" y="541.8294">Indexed</text><line style="stroke:#5E5E5E;stroke-width:1.5625;" x1="1053.6458" x2="1141.1458" y1="552.7995" y2="552.7995"/><ellipse cx="1064.0625" cy="588.1694" fill="#84BE84" rx="3.125" ry="3.125" style="stroke:#038048;stroke-width:1.0416666666666667;"/><text fill="#D8BC00" font-family="Open Sans,Avenir,Nunito,Arial,Helvetica,SansSerif" font-size="11.4583" lengthAdjust="spacing" textLength="57.2917" x="1075.5208" y="595.0806">int index()</text><line style="stroke:#5E5E5E;stroke-width:1.0416666666666667;" x1="1053.6458" x2="1063.0208" y1="571.0052" y2="571.0052"/><text fill="#D8BC00" font-family="Open Sans,Avenir,Nunito,Arial,Helvetica,SansSerif" font-size="11.4583" lengthAdjust="spacing" textLength="62.5" x="1066.1458" y="574.8149">(collection)</text><line style="stroke:#5E5E5E;stroke-width:1.0416666666666667;" x1="1131.7708" x2="1141.1458" y1="571.0052" y2="571.0052"/><rect codeLine="61" fill="#282828" height="67.7999" id="Keyed" rx="8.3333" ry="8.3333" style="stroke:#5E5E5E;stroke-width:1.0416666666666667;" width="154.1667" x="286.9792" y="529.2236"/><rect fill="#1B1B1A" height="31.3883" rx="8.3333" ry="8.3333" style="stroke:#1B1B1A;stroke-width:1.0416666666666667;" width="154.1667" x="286.9792" y="529.2236"/><rect fill="#1B1B1A" height="8.3333" style="stroke:#1B1B1A;stroke-width:1.0416666666666667;" width="154.1667" x="286.9792" y="552.2786"/><rect codeLine="61" fill="none" height="67.7999" id="Keyed" rx="8.3333" ry="8.3333" style="stroke:#5E5E5E;stroke-width:1.0416666666666667;" width="154.1667" x="286.9792" y="529.2236"/><ellipse cx="301.5625" cy="544.9178" fill="#008400" rx="10.4167" ry="10.4167" style="stroke:#239C23;stroke-width:1.0416666666666667;"/><path d="M298.9665,542.0797 L298.9665,540.4928 L304.3925,540.4928 L304.3925,542.0797 L302.5798,542.0797 L302.5798,548.0184 L304.3925,548.0184 L304.3925,549.6053 L298.9665,549.6053 L298.9665,548.0184 L300.7792,548.0184 L300.7792,542.0797 Z " fill="#000000"/><text fill="#D8BC00" font-family="Open Sans,Avenir,Nunito,Arial,Helvetica,SansSerif" font-size="12.5" font-style="italic" font-weight="bold" lengthAdjust="spacing" textLength="39.5833" x="318.2292" y="549.6419">Keyed</text><rect fill="#333333" height="23.055" style="stroke:#A0A0A0;stroke-width:1.0416666666666667;stroke-dasharray:2.0,2.0;" width="75" x="369.2708" y="526.0986"/><text fill="#A0A0A0" font-family="Open Sans,Avenir,Nunito,Arial,Helvetica,SansSerif" font-size="12.5" font-weight="bold" lengthAdjust="spacing" textLength="66.6667" x="373.4375" y="542.3503">Key, Value</text><line style="stroke:#5E5E5E;stroke-width:1.5625;" x1="288.0208" x2="440.1042" y1="560.612" y2="560.612"/><line style="stroke:#5E5E5E;stroke-width:1.0416666666666667;" x1="288.0208" x2="440.1042" y1="568.9453" y2="568.9453"/><ellipse cx="298.4375" cy="580.4036" fill="#84BE84" rx="3.125" ry="3.125" style="stroke:#038048;stroke-width:1.0416666666666667;"/><text fill="#D8BC00" font-family="Open Sans,Avenir,Nunito,Arial,Helvetica,SansSerif" font-size="11.4583" lengthAdjust="spacing" textLength="79.1667" x="309.8958" y="587.3149">Value get(Key)</text><rect codeLine="69" fill="#282828" height="83.3781" id="LongKeyed" rx="8.3333" ry="8.3333" style="stroke:#5E5E5E;stroke-width:1.0416666666666667;" width="109.375" x="906.25" y="521.4111"/><rect fill="#1B1B1A" height="31.3883" rx="8.3333" ry="8.3333" style="stroke:#1B1B1A;stroke-width:1.0416666666666667;" width="109.375" x="906.25" y="521.4111"/><rect fill="#1B1B1A" height="8.3333" style="stroke:#1B1B1A;stroke-width:1.0416666666666667;" width="109.375" x="906.25" y="544.4661"/><rect codeLine="69" fill="none" height="83.3781" id="LongKeyed" rx="8.3333" ry="8.3333" style="stroke:#5E5E5E;stroke-width:1.0416666666666667;" width="109.375" x="906.25" y="521.4111"/><ellipse cx="920.8333" cy="537.1053" fill="#008400" rx="10.4167" ry="10.4167" style="stroke:#239C23;stroke-width:1.0416666666666667;"/><path d="M918.2373,534.2672 L918.2373,532.6803 L923.6633,532.6803 L923.6633,534.2672 L921.8506,534.2672 L921.8506,540.2059 L923.6633,540.2059 L923.6633,541.7928 L918.2373,541.7928 L918.2373,540.2059 L920.05,540.2059 L920.05,534.2672 Z " fill="#000000"/><text fill="#D8BC00" font-family="Open Sans,Avenir,Nunito,Arial,Helvetica,SansSerif" font-size="12.5" font-style="italic" font-weight="bold" lengthAdjust="spacing" textLength="71.875" x="937.5" y="541.8294">LongKeyed</text><line style="stroke:#5E5E5E;stroke-width:1.5625;" x1="907.2917" x2="1014.5833" y1="552.7995" y2="552.7995"/><ellipse cx="917.7083" cy="588.1694" fill="#84BE84" rx="3.125" ry="3.125" style="stroke:#038048;stroke-width:1.0416666666666667;"/><text fill="#D8BC00" font-family="Open Sans,Avenir,Nunito,Arial,Helvetica,SansSerif" font-size="11.4583" lengthAdjust="spacing" textLength="55.2083" x="929.1667" y="595.0806">long key()</text><line style="stroke:#5E5E5E;stroke-width:1.0416666666666667;" x1="907.2917" x2="926.5625" y1="571.0052" y2="571.0052"/><text fill="#D8BC00" font-family="Open Sans,Avenir,Nunito,Arial,Helvetica,SansSerif" font-size="11.4583" lengthAdjust="spacing" textLength="62.5" x="929.6875" y="574.8149">(collection)</text><line style="stroke:#5E5E5E;stroke-width:1.0416666666666667;" x1="995.3125" x2="1014.5833" y1="571.0052" y2="571.0052"/><rect codeLine="75" fill="#282828" height="83.3781" id="NextValue" rx="8.3333" ry="8.3333" style="stroke:#5E5E5E;stroke-width:1.0416666666666667;" width="147.9167" x="477.6042" y="521.4111"/><rect fill="#1B1B1A" height="31.3883" rx="8.3333" ry="8.3333" style="stroke:#1B1B1A;stroke-width:1.0416666666666667;" width="147.9167" x="477.6042" y="521.4111"/><rect fill="#1B1B1A" height="8.3333" style="stroke:#1B1B1A;stroke-width:1.0416666666666667;" width="147.9167" x="477.6042" y="544.4661"/><rect codeLine="75" fill="none" height="83.3781" id="NextValue" rx="8.3333" ry="8.3333" style="stroke:#5E5E5E;stroke-width:1.0416666666666667;" width="147.9167" x="477.6042" y="521.4111"/><ellipse cx="492.1875" cy="537.1053" fill="#008400" rx="10.4167" ry="10.4167" style="stroke:#239C23;stroke-width:1.0416666666666667;"/><path d="M489.5915,534.2672 L489.5915,532.6803 L495.0175,532.6803 L495.0175,534.2672 L493.2048,534.2672 L493.2048,540.2059 L495.0175,540.2059 L495.0175,541.7928 L489.5915,541.7928 L489.5915,540.2059 L491.4042,540.2059 L491.4042,534.2672 Z " fill="#000000"/><text fill="#D8BC00" font-family="Open Sans,Avenir,Nunito,Arial,Helvetica,SansSerif" font-size="12.5" font-style="italic" font-weight="bold" lengthAdjust="spacing" textLength="64.5833" x="508.8542" y="541.8294">NextValue</text><rect fill="#333333" height="23.055" style="stroke:#A0A0A0;stroke-width:1.0416666666666667;stroke-dasharray:2.0,2.0;" width="43.75" x="584.8958" y="518.2861"/><text fill="#A0A0A0" font-family="Open Sans,Avenir,Nunito,Arial,Helvetica,SansSerif" font-size="12.5" font-weight="bold" lengthAdjust="spacing" textLength="35.4167" x="589.0625" y="534.5378">Value</text><line style="stroke:#5E5E5E;stroke-width:1.5625;" x1="478.6458" x2="624.4792" y1="552.7995" y2="552.7995"/><ellipse cx="489.0625" cy="588.1694" fill="#84BE84" rx="3.125" ry="3.125" style="stroke:#038048;stroke-width:1.0416666666666667;"/><text fill="#D8BC00" font-family="Open Sans,Avenir,Nunito,Arial,Helvetica,SansSerif" font-size="11.4583" lengthAdjust="spacing" textLength="66.6667" x="500.5208" y="595.0806">Value next()</text><line style="stroke:#5E5E5E;stroke-width:1.0416666666666667;" x1="478.6458" x2="520.8333" y1="571.0052" y2="571.0052"/><text fill="#D8BC00" font-family="Open Sans,Avenir,Nunito,Arial,Helvetica,SansSerif" font-size="11.4583" lengthAdjust="spacing" textLength="55.2083" x="523.9583" y="574.8149">(iteration)</text><line style="stroke:#5E5E5E;stroke-width:1.0416666666666667;" x1="582.2917" x2="624.4792" y1="571.0052" y2="571.0052"/><rect codeLine="81" fill="#282828" height="67.7999" id="Prependable" rx="8.3333" ry="8.3333" style="stroke:#5E5E5E;stroke-width:1.0416666666666667;" width="225" x="49.4792" y="980.2653"/><rect fill="#1B1B1A" height="31.3883" rx="8.3333" ry="8.3333" style="stroke:#1B1B1A;stroke-width:1.0416666666666667;" width="225" x="49.4792" y="980.2653"/><rect fill="#1B1B1A" height="8.3333" style="stroke:#1B1B1A;stroke-width:1.0416666666666667;" width="225" x="49.4792" y="1003.3203"/><rect codeLine="81" fill="none" height="67.7999" id="Prependable" rx="8.3333" ry="8.3333" style="stroke:#5E5E5E;stroke-width:1.0416666666666667;" width="225" x="49.4792" y="980.2653"/><ellipse cx="105.7292" cy="995.9595" fill="#008400" rx="10.4167" ry="10.4167" style="stroke:#239C23;stroke-width:1.0416666666666667;"/><path d="M103.1331,993.1213 L103.1331,991.5344 L108.5592,991.5344 L108.5592,993.1213 L106.7464,993.1213 L106.7464,999.0601 L108.5592,999.0601 L108.5592,1000.647 L103.1331,1000.647 L103.1331,999.0601 L104.9459,999.0601 L104.9459,993.1213 Z " fill="#000000"/><text fill="#D8BC00" font-family="Open Sans,Avenir,Nunito,Arial,Helvetica,SansSerif" font-size="12.5" font-style="italic" font-weight="bold" lengthAdjust="spacing" textLength="79.1667" x="128.6458" y="1000.6836">Prependable</text><rect fill="#333333" height="23.055" style="stroke:#A0A0A0;stroke-width:1.0416666666666667;stroke-dasharray:2.0,2.0;" width="16.6667" x="260.9375" y="977.1403"/><text fill="#A0A0A0" font-family="Open Sans,Avenir,Nunito,Arial,Helvetica,SansSerif" font-size="12.5" font-weight="bold" lengthAdjust="spacing" textLength="8.3333" x="265.1042" y="993.3919">T</text><line style="stroke:#5E5E5E;stroke-width:1.5625;" x1="50.5208" x2="273.4375" y1="1011.6536" y2="1011.6536"/><line style="stroke:#5E5E5E;stroke-width:1.0416666666666667;" x1="50.5208" x2="273.4375" y1="1019.987" y2="1019.987"/><ellipse cx="60.9375" cy="1031.4453" fill="#84BE84" rx="3.125" ry="3.125" style="stroke:#038048;stroke-width:1.0416666666666667;"/><text fill="#D8BC00" font-family="Open Sans,Avenir,Nunito,Arial,Helvetica,SansSerif" font-size="11.4583" lengthAdjust="spacing" textLength="192.7083" x="72.3958" y="1038.3565">Prependable&lt;T&gt; prepend(T value)</text><rect codeLine="87" fill="#282828" height="48.055" id="Iterable" rx="8.3333" ry="8.3333" style="stroke:#5E5E5E;stroke-width:1.0416666666666667;" width="148.9583" x="1300" y="104.2236"/><rect fill="#1B1B1A" height="31.3883" rx="8.3333" ry="8.3333" style="stroke:#1B1B1A;stroke-width:1.0416666666666667;" width="148.9583" x="1300" y="104.2236"/><rect fill="#1B1B1A" height="8.3333" style="stroke:#1B1B1A;stroke-width:1.0416666666666667;" width="148.9583" x="1300" y="127.2786"/><rect codeLine="87" fill="none" height="48.055" id="Iterable" rx="8.3333" ry="8.3333" style="stroke:#5E5E5E;stroke-width:1.0416666666666667;" width="148.9583" x="1300" y="104.2236"/><ellipse cx="1314.5833" cy="119.9178" fill="#008400" rx="10.4167" ry="10.4167" style="stroke:#239C23;stroke-width:1.0416666666666667;"/><path d="M1311.9873,117.0797 L1311.9873,115.4928 L1317.4133,115.4928 L1317.4133,117.0797 L1315.6006,117.0797 L1315.6006,123.0184 L1317.4133,123.0184 L1317.4133,124.6053 L1311.9873,124.6053 L1311.9873,123.0184 L1313.8,123.0184 L1313.8,117.0797 Z " fill="#000000"/><text fill="#D8BC00" font-family="Open Sans,Avenir,Nunito,Arial,Helvetica,SansSerif" font-size="12.5" font-style="italic" font-weight="bold" lengthAdjust="spacing" textLength="48.9583" x="1331.25" y="124.6419">Iterable</text><rect fill="#333333" height="23.055" style="stroke:#A0A0A0;stroke-width:1.0416666666666667;stroke-dasharray:2.0,2.0;" width="60.4167" x="1391.6667" y="101.0986"/><text fill="#A0A0A0" font-family="Open Sans,Avenir,Nunito,Arial,Helvetica,SansSerif" font-size="12.5" font-weight="bold" lengthAdjust="spacing" textLength="52.0833" x="1395.8333" y="117.3503">Element</text><line style="stroke:#5E5E5E;stroke-width:1.0416666666666667;" x1="1301.0417" x2="1447.9167" y1="135.612" y2="135.612"/><line style="stroke:#5E5E5E;stroke-width:1.0416666666666667;" x1="1301.0417" x2="1447.9167" y1="143.9453" y2="143.9453"/><path codeLine="38" d="M804.375,645.3695 C817.0521,709.3695 841.7708,798.4528 888.0208,864.1195 C904.0729,886.9215 924.6667,907.807 946.4271,926.2549 " fill="none" id="Sized-backto-Indexable" style="stroke:#545454;stroke-width:1.5625;"/><polygon fill="none" points="797.1667,646.5049,800.5208,624.6924,811.5,643.8382,797.1667,646.5049" style="stroke:#545454;stroke-width:1.5625;"/><path codeLine="39" d="M1167.9167,882.0778 C1157.7917,897.6611 1148.1563,912.5049 1139.2292,926.234 " fill="none" id="Sequence-backto-Indexable" style="stroke:#545454;stroke-width:1.5625;"/><polygon fill="none" points="1162.0625,877.7028,1179.5313,864.2028,1174.2917,885.6507,1162.0625,877.7028" style="stroke:#545454;stroke-width:1.5625;"/><path codeLine="53" d="M973.0938,168.4736 C993.7292,193.5882 1018.6771,227.7653 1033.8542,262.0361 C1072.5521,349.4111 1088.2188,461.7549 1094.1354,521.0882 " fill="none" id="Quantizable-backto-Indexed" style="stroke:#545454;stroke-width:1.5625;"/><polygon fill="none" points="967.2708,172.8903,959.3438,152.2965,978.3854,163.4528,967.2708,172.8903" style="stroke:#545454;stroke-width:1.5625;"/><path codeLine="54" d="M1117.9896,173.109 C1113.5417,257.109 1103.8854,439.5465 1099.5625,521.1507 " fill="none" id="QuantumComparable-backto-Indexed" style="stroke:#545454;stroke-width:1.5625;"/><polygon fill="none" points="1110.7083,172.609,1119.0938,152.1924,1125.2813,173.3799,1110.7083,172.609" style="stroke:#545454;stroke-width:1.5625;"/><path codeLine="68" d="M940.3438,173.109 C944.7917,257.109 954.4479,439.5465 958.7708,521.1507 " fill="none" id="Quantizable-backto-LongKeyed" style="stroke:#545454;stroke-width:1.5625;"/><polygon fill="none" points="933.0521,173.3799,939.2396,152.1924,947.625,172.609,933.0521,173.3799" style="stroke:#545454;stroke-width:1.5625;"/><path codeLine="88" d="M1374.4792,173.2757 C1374.4792,196.682 1374.4792,227.7028 1374.4792,262.0361 " fill="none" id="Iterable-backto-Sequence" style="stroke:#545454;stroke-width:1.5625;"/><polygon fill="none" points="1367.1875,173.0257,1374.4792,152.1924,1381.7708,173.0257,1367.1875,173.0257" style="stroke:#545454;stroke-width:1.5625;"/><path codeLine="122" d="M921.1771,172.2757 C911.2083,198.1715 898.5104,231.859 888.0208,262.0361 C859.375,344.4111 829.2292,440.5882 810.5625,501.4007 " fill="none" id="Quantizable-backto-Sized" style="stroke:#545454;stroke-width:1.5625;"/><polygon fill="none" points="914.4792,169.3903,928.8021,152.5986,928.0729,174.6611,914.4792,169.3903" style="stroke:#545454;stroke-width:1.5625;"/></g></svg>
