<?xml version="1.0" encoding="utf-8"?>
<svg viewBox="0 0 500 500" xmlns="http://www.w3.org/2000/svg">
  <circle style="fill: rgb(216, 188, 0); stroke: rgb(66, 148, 247); stroke-width: 15px;" cx="244.538" cy="243.133" r="233.513"/>
  <g transform="matrix(1, 0, 0, 0.851257, -5.127451, 39.372696)" style="">
    <line style="stroke: rgb(66, 148, 247); stroke-width: 48.5205px;" x1="148.091" y1="485.062" x2="214.146" y2="6.633"/>
    <line style="stroke: rgb(66, 148, 247); stroke-width: 40px;" x1="290.872" y1="3.231" x2="336.361" y2="493.838"/>
    <line style="stroke: rgb(66, 148, 247); stroke-width: 48.5205px;" x1="169.98" y1="76.055" x2="332.885" y2="73.761"/>
    <line style="stroke: rgb(66, 148, 247); stroke-width: 48.5205px;" x1="150.376" y1="162.248" x2="348.836" y2="162.579"/>
    <line style="stroke: rgb(66, 148, 247); stroke-width: 48.5205px;" x1="145.586" y1="253.717" x2="362.403" y2="256.663"/>
    <line style="stroke: rgb(66, 148, 247); stroke-width: 40px;" x1="128.431" y1="357.747" x2="368.809" y2="358.866"/>
  </g>
  <g transform="matrix(0.952238, 0, 0, 0.810599, 46.190056, 48.704041)" style="">
    <line style="stroke-width: 16.262px; stroke: rgb(216, 188, 0);" x1="101.142" y1="485.95" x2="170.718" y2="2.489"/>
    <line style="stroke-width: 16.262px; stroke: rgb(216, 188, 0);" x1="253.292" y1="1.317" x2="301.063" y2="493.964"/>
    <line style="stroke-width: 16.262px; stroke: rgb(216, 188, 0);" x1="134.057" y1="65.03" x2="286.671" y2="62.847"/>
    <line style="stroke-width: 16.262px; stroke: rgb(216, 188, 0);" x1="116.519" y1="158.28" x2="303.789" y2="156.12"/>
    <line style="stroke-width: 16.262px; stroke: rgb(216, 188, 0);" x1="109.529" y1="251.829" x2="317.027" y2="254.923"/>
    <line style="stroke-width: 16.262px; stroke: rgb(216, 188, 0);" x1="88.989" y1="361.077" x2="324.434" y2="362.253"/>
  </g>
</svg>