<?xml version="1.0" encoding="UTF-8" standalone="no"?><svg xmlns="http://www.w3.org/2000/svg" xmlns:xlink="http://www.w3.org/1999/xlink" contentScriptType="application/ecmascript" contentStyleType="text/css" height="254.1667px" preserveAspectRatio="none" style="width:572px;height:254px;background:#333333;" version="1.1" viewBox="0 0 572 254" width="572.9167px" zoomAndPan="magnify"><defs/><g><rect fill="#48494B" height="41.2028" rx="8.3333" ry="8.3333" style="stroke:#545454;stroke-width:1.0416666666666667;" width="560.4167" x="2.0833" y="2.0833"/><text fill="#C0C0C0" font-family="Open Sans,Avenir,Nunito,Arial,Helvetica,SansSerif" font-size="20.8333" lengthAdjust="spacing" textLength="537.5" x="13.5417" y="30.5583">com.telenav.kivakit.logs.client.view.panels.connection</text><rect fill="#282828" height="48.055" id="KivaKitPanel" rx="8.3333" ry="8.3333" style="stroke:#5E5E5E;stroke-width:1.0416666666666667;" width="118.75" x="230.2083" y="53.7028"/><rect fill="#1B1B1A" height="31.3883" rx="8.3333" ry="8.3333" style="stroke:#1B1B1A;stroke-width:1.0416666666666667;" width="118.75" x="230.2083" y="53.7028"/><rect fill="#1B1B1A" height="8.3333" style="stroke:#1B1B1A;stroke-width:1.0416666666666667;" width="118.75" x="230.2083" y="76.7578"/><rect fill="none" height="48.055" id="KivaKitPanel" rx="8.3333" ry="8.3333" style="stroke:#5E5E5E;stroke-width:1.0416666666666667;" width="118.75" x="230.2083" y="53.7028"/><ellipse cx="244.7917" cy="69.397" fill="#0066CF" rx="10.4167" ry="10.4167" style="stroke:#0086EF;stroke-width:1.0416666666666667;"/><path d="M246.7021,73.822 Q246.2748,74.0417 245.8049,74.1516 Q245.3349,74.2615 244.8161,74.2615 Q242.9728,74.2615 242.0024,73.0469 Q241.0319,71.8323 241.0319,69.5374 Q241.0319,67.2363 242.0024,66.0217 Q242.9728,64.8071 244.8161,64.8071 Q245.3349,64.8071 245.811,64.917 Q246.287,65.0269 246.7021,65.2466 L246.7021,67.2485 Q246.2382,66.8213 245.8018,66.6229 Q245.3654,66.4246 244.9015,66.4246 Q243.9128,66.4246 243.4092,67.2089 Q242.9057,67.9932 242.9057,69.5374 Q242.9057,71.0754 243.4092,71.8597 Q243.9128,72.644 244.9015,72.644 Q245.3654,72.644 245.8018,72.4457 Q246.2382,72.2473 246.7021,71.8201 Z " fill="#000000"/><text fill="#D8BC00" font-family="Open Sans,Avenir,Nunito,Arial,Helvetica,SansSerif" font-size="12.5" font-weight="bold" lengthAdjust="spacing" textLength="81.25" x="261.4583" y="74.1211">KivaKitPanel</text><line style="stroke:#5E5E5E;stroke-width:1.0416666666666667;" x1="231.25" x2="347.9167" y1="85.0911" y2="85.0911"/><line style="stroke:#5E5E5E;stroke-width:1.0416666666666667;" x1="231.25" x2="347.9167" y1="93.4245" y2="93.4245"/><rect codeLine="8" fill="#282828" height="83.3781" id="ConnectionPanel" rx="8.3333" ry="8.3333" style="stroke:#5E5E5E;stroke-width:1.0416666666666667;" width="193.75" x="192.7083" y="164.1195"/><rect fill="#1B1B1A" height="31.3883" rx="8.3333" ry="8.3333" style="stroke:#1B1B1A;stroke-width:1.0416666666666667;" width="193.75" x="192.7083" y="164.1195"/><rect fill="#1B1B1A" height="8.3333" style="stroke:#1B1B1A;stroke-width:1.0416666666666667;" width="193.75" x="192.7083" y="187.1745"/><rect codeLine="8" fill="none" height="83.3781" id="ConnectionPanel" rx="8.3333" ry="8.3333" style="stroke:#5E5E5E;stroke-width:1.0416666666666667;" width="193.75" x="192.7083" y="164.1195"/><ellipse cx="228.8542" cy="179.8136" fill="#0066CF" rx="10.4167" ry="10.4167" style="stroke:#0086EF;stroke-width:1.0416666666666667;"/><path d="M230.7646,184.2387 Q230.3373,184.4584 229.8674,184.5683 Q229.3974,184.6781 228.8786,184.6781 Q227.0353,184.6781 226.0649,183.4635 Q225.0944,182.2489 225.0944,179.954 Q225.0944,177.653 226.0649,176.4384 Q227.0353,175.2238 228.8786,175.2238 Q229.3974,175.2238 229.8735,175.3337 Q230.3495,175.4435 230.7646,175.6632 L230.7646,177.6652 Q230.3007,177.238 229.8643,177.0396 Q229.4279,176.8412 228.964,176.8412 Q227.9753,176.8412 227.4717,177.6255 Q226.9682,178.4098 226.9682,179.954 Q226.9682,181.4921 227.4717,182.2764 Q227.9753,183.0607 228.964,183.0607 Q229.4279,183.0607 229.8643,182.8623 Q230.3007,182.664 230.7646,182.2367 Z " fill="#000000"/><text fill="#D8BC00" font-family="Open Sans,Avenir,Nunito,Arial,Helvetica,SansSerif" font-size="12.5" font-weight="bold" lengthAdjust="spacing" textLength="108.3333" x="250.3125" y="184.5378">ConnectionPanel</text><line style="stroke:#5E5E5E;stroke-width:1.5625;" x1="193.75" x2="385.4167" y1="195.5078" y2="195.5078"/><ellipse cx="204.1667" cy="230.8777" fill="#84BE84" rx="3.125" ry="3.125" style="stroke:#038048;stroke-width:1.0416666666666667;"/><text fill="#D8BC00" font-family="Open Sans,Avenir,Nunito,Arial,Helvetica,SansSerif" font-size="11.4583" lengthAdjust="spacing" textLength="161.4583" x="215.625" y="237.7889">ConnectionPanel(Connector)</text><line style="stroke:#5E5E5E;stroke-width:1.0416666666666667;" x1="193.75" x2="245.8333" y1="213.7136" y2="213.7136"/><text fill="#D8BC00" font-family="Open Sans,Avenir,Nunito,Arial,Helvetica,SansSerif" font-size="11.4583" lengthAdjust="spacing" textLength="81.25" x="248.9583" y="217.5232">(constructors)</text><line style="stroke:#5E5E5E;stroke-width:1.0416666666666667;" x1="333.3333" x2="385.4167" y1="213.7136" y2="213.7136"/><path codeLine="7" d="M289.5833,122.682 C289.5833,136.0778 289.5833,150.7445 289.5833,163.9215 " fill="none" id="KivaKitPanel-backto-ConnectionPanel" style="stroke:#545454;stroke-width:1.5625;"/><polygon fill="none" points="282.2917,122.6507,289.5833,101.8174,296.875,122.6507,282.2917,122.6507" style="stroke:#545454;stroke-width:1.5625;"/></g></svg>
