<?xml version="1.0" encoding="UTF-8" standalone="no"?><svg xmlns="http://www.w3.org/2000/svg" xmlns:xlink="http://www.w3.org/1999/xlink" contentScriptType="application/ecmascript" contentStyleType="text/css" height="341.6667px" preserveAspectRatio="none" style="width:529px;height:341px;background:#333333;" version="1.1" viewBox="0 0 529 341" width="529.1667px" zoomAndPan="magnify"><defs/><g><rect fill="#48494B" height="41.2028" rx="8.3333" ry="8.3333" style="stroke:#545454;stroke-width:1.0416666666666667;" width="516.6667" x="2.0833" y="2.0833"/><text fill="#C0C0C0" font-family="Open Sans,Avenir,Nunito,Arial,Helvetica,SansSerif" font-size="20.8333" lengthAdjust="spacing" textLength="493.75" x="13.5417" y="30.5583">com.telenav.kivakit.logs.client.view.panels.search</text><rect fill="#282828" height="48.055" id="KivaKitPanel" rx="8.3333" ry="8.3333" style="stroke:#5E5E5E;stroke-width:1.0416666666666667;" width="118.75" x="208.3333" y="53.7028"/><rect fill="#1B1B1A" height="31.3883" rx="8.3333" ry="8.3333" style="stroke:#1B1B1A;stroke-width:1.0416666666666667;" width="118.75" x="208.3333" y="53.7028"/><rect fill="#1B1B1A" height="8.3333" style="stroke:#1B1B1A;stroke-width:1.0416666666666667;" width="118.75" x="208.3333" y="76.7578"/><rect fill="none" height="48.055" id="KivaKitPanel" rx="8.3333" ry="8.3333" style="stroke:#5E5E5E;stroke-width:1.0416666666666667;" width="118.75" x="208.3333" y="53.7028"/><ellipse cx="222.9167" cy="69.397" fill="#0066CF" rx="10.4167" ry="10.4167" style="stroke:#0086EF;stroke-width:1.0416666666666667;"/><path d="M224.8271,73.822 Q224.3998,74.0417 223.9299,74.1516 Q223.4599,74.2615 222.9411,74.2615 Q221.0978,74.2615 220.1274,73.0469 Q219.1569,71.8323 219.1569,69.5374 Q219.1569,67.2363 220.1274,66.0217 Q221.0978,64.8071 222.9411,64.8071 Q223.4599,64.8071 223.936,64.917 Q224.412,65.0269 224.8271,65.2466 L224.8271,67.2485 Q224.3632,66.8213 223.9268,66.6229 Q223.4904,66.4246 223.0265,66.4246 Q222.0378,66.4246 221.5342,67.2089 Q221.0307,67.9932 221.0307,69.5374 Q221.0307,71.0754 221.5342,71.8597 Q222.0378,72.644 223.0265,72.644 Q223.4904,72.644 223.9268,72.4457 Q224.3632,72.2473 224.8271,71.8201 Z " fill="#000000"/><text fill="#D8BC00" font-family="Open Sans,Avenir,Nunito,Arial,Helvetica,SansSerif" font-size="12.5" font-weight="bold" lengthAdjust="spacing" textLength="81.25" x="239.5833" y="74.1211">KivaKitPanel</text><line style="stroke:#5E5E5E;stroke-width:1.0416666666666667;" x1="209.375" x2="326.0417" y1="85.0911" y2="85.0911"/><line style="stroke:#5E5E5E;stroke-width:1.0416666666666667;" x1="209.375" x2="326.0417" y1="93.4245" y2="93.4245"/><rect codeLine="8" fill="#282828" height="170.6909" id="SearchPanel" rx="8.3333" ry="8.3333" style="stroke:#5E5E5E;stroke-width:1.0416666666666667;" width="339.5833" x="97.9167" y="164.1195"/><rect fill="#1B1B1A" height="31.3883" rx="8.3333" ry="8.3333" style="stroke:#1B1B1A;stroke-width:1.0416666666666667;" width="339.5833" x="97.9167" y="164.1195"/><rect fill="#1B1B1A" height="8.3333" style="stroke:#1B1B1A;stroke-width:1.0416666666666667;" width="339.5833" x="97.9167" y="187.1745"/><rect codeLine="8" fill="none" height="170.6909" id="SearchPanel" rx="8.3333" ry="8.3333" style="stroke:#5E5E5E;stroke-width:1.0416666666666667;" width="339.5833" x="97.9167" y="164.1195"/><ellipse cx="222.3958" cy="179.8136" fill="#0066CF" rx="10.4167" ry="10.4167" style="stroke:#0086EF;stroke-width:1.0416666666666667;"/><path d="M224.3062,184.2387 Q223.879,184.4584 223.409,184.5683 Q222.939,184.6781 222.4202,184.6781 Q220.577,184.6781 219.6065,183.4635 Q218.6361,182.2489 218.6361,179.954 Q218.6361,177.653 219.6065,176.4384 Q220.577,175.2238 222.4202,175.2238 Q222.939,175.2238 223.4151,175.3337 Q223.8912,175.4435 224.3062,175.6632 L224.3062,177.6652 Q223.8424,177.238 223.406,177.0396 Q222.9696,176.8412 222.5057,176.8412 Q221.5169,176.8412 221.0134,177.6255 Q220.5098,178.4098 220.5098,179.954 Q220.5098,181.4921 221.0134,182.2764 Q221.5169,183.0607 222.5057,183.0607 Q222.9696,183.0607 223.406,182.8623 Q223.8424,182.664 224.3062,182.2367 Z " fill="#000000"/><text fill="#D8BC00" font-family="Open Sans,Avenir,Nunito,Arial,Helvetica,SansSerif" font-size="12.5" font-weight="bold" lengthAdjust="spacing" textLength="76.0417" x="245.3125" y="184.5378">SearchPanel</text><line style="stroke:#5E5E5E;stroke-width:1.5625;" x1="98.9583" x2="436.4583" y1="195.5078" y2="195.5078"/><ellipse cx="109.375" cy="230.8777" fill="#84BE84" rx="3.125" ry="3.125" style="stroke:#038048;stroke-width:1.0416666666666667;"/><text fill="#D8BC00" font-family="Open Sans,Avenir,Nunito,Arial,Helvetica,SansSerif" font-size="11.4583" lengthAdjust="spacing" textLength="157.2917" x="120.8333" y="237.7889">SearchPanel(ClientLogPanel)</text><line style="stroke:#5E5E5E;stroke-width:1.0416666666666667;" x1="98.9583" x2="223.9583" y1="213.7136" y2="213.7136"/><text fill="#D8BC00" font-family="Open Sans,Avenir,Nunito,Arial,Helvetica,SansSerif" font-size="11.4583" lengthAdjust="spacing" textLength="81.25" x="227.0833" y="217.5232">(constructors)</text><line style="stroke:#5E5E5E;stroke-width:1.0416666666666667;" x1="311.4583" x2="436.4583" y1="213.7136" y2="213.7136"/><ellipse cx="109.375" cy="274.5341" fill="#84BE84" rx="3.125" ry="3.125" style="stroke:#038048;stroke-width:1.0416666666666667;"/><text fill="#D8BC00" font-family="Open Sans,Avenir,Nunito,Arial,Helvetica,SansSerif" font-size="11.4583" lengthAdjust="spacing" textLength="62.5" x="120.8333" y="281.4453">void clear()</text><line style="stroke:#5E5E5E;stroke-width:1.0416666666666667;" x1="98.9583" x2="233.3333" y1="257.37" y2="257.37"/><text fill="#D8BC00" font-family="Open Sans,Avenir,Nunito,Arial,Helvetica,SansSerif" font-size="11.4583" lengthAdjust="spacing" textLength="62.5" x="236.4583" y="261.1796">(collection)</text><line style="stroke:#5E5E5E;stroke-width:1.0416666666666667;" x1="302.0833" x2="436.4583" y1="257.37" y2="257.37"/><ellipse cx="109.375" cy="318.1905" fill="#84BE84" rx="3.125" ry="3.125" style="stroke:#038048;stroke-width:1.0416666666666667;"/><text fill="#D8BC00" font-family="Open Sans,Avenir,Nunito,Arial,Helvetica,SansSerif" font-size="11.4583" lengthAdjust="spacing" textLength="307.2917" x="120.8333" y="325.1017">void updateSearchDropDowns(List&lt;LogEntry&gt; entries)</text><line style="stroke:#5E5E5E;stroke-width:1.0416666666666667;" x1="98.9583" x2="241.6667" y1="301.0264" y2="301.0264"/><text fill="#D8BC00" font-family="Open Sans,Avenir,Nunito,Arial,Helvetica,SansSerif" font-size="11.4583" lengthAdjust="spacing" textLength="45.8333" x="244.7917" y="304.836">(search)</text><line style="stroke:#5E5E5E;stroke-width:1.0416666666666667;" x1="293.75" x2="436.4583" y1="301.0264" y2="301.0264"/><path codeLine="7" d="M267.7083,123.1299 C267.7083,135.6715 267.7083,149.734 267.7083,163.7965 " fill="none" id="KivaKitPanel-backto-SearchPanel" style="stroke:#545454;stroke-width:1.5625;"/><polygon fill="none" points="260.4167,122.7861,267.7083,101.9528,275,122.7861,260.4167,122.7861" style="stroke:#545454;stroke-width:1.5625;"/></g></svg>
