<?xml version="1.0" encoding="UTF-8" standalone="no"?><svg xmlns="http://www.w3.org/2000/svg" xmlns:xlink="http://www.w3.org/1999/xlink" contentScriptType="application/ecmascript" contentStyleType="text/css" height="443.75px" preserveAspectRatio="none" style="width:689px;height:443px;background:#333333;" version="1.1" viewBox="0 0 689 443" width="689.5833px" zoomAndPan="magnify"><defs/><g><rect fill="#48494B" height="41.2028" rx="8.3333" ry="8.3333" style="stroke:#545454;stroke-width:1.0416666666666667;" width="611.4583" x="32.0313" y="2.0833"/><text fill="#C0C0C0" font-family="Open Sans,Avenir,Nunito,Arial,Helvetica,SansSerif" font-size="20.8333" lengthAdjust="spacing" textLength="588.5417" x="43.4896" y="30.5583">com.telenav.kivakit.network.core.authentication.passwords</text><!--MD5=[9aa687ed59f428548907e723dba1087a]
class BaseStringConverter--><rect codeLine="7" fill="#282828" height="48.055" id="BaseStringConverter" rx="8.3333" ry="8.3333" style="stroke:#5E5E5E;stroke-width:1.0416666666666667;" width="169.7917" x="45.3125" y="53.7028"/><rect fill="#1B1B1A" height="31.3883" rx="8.3333" ry="8.3333" style="stroke:#1B1B1A;stroke-width:1.0416666666666667;" width="169.7917" x="45.3125" y="53.7028"/><rect fill="#1B1B1A" height="8.3333" style="stroke:#1B1B1A;stroke-width:1.0416666666666667;" width="169.7917" x="45.3125" y="76.7578"/><rect codeLine="7" fill="none" height="48.055" id="BaseStringConverter" rx="8.3333" ry="8.3333" style="stroke:#5E5E5E;stroke-width:1.0416666666666667;" width="169.7917" x="45.3125" y="53.7028"/><ellipse cx="59.8958" cy="69.397" fill="#C8AC00" rx="10.4167" ry="10.4167" style="stroke:#D8BC00;stroke-width:1.0416666666666667;"/><path d="M59.4889,66.099 L58.6405,69.8283 L60.3434,69.8283 Z M58.3903,64.4511 L60.5937,64.4511 L63.0534,73.5636 L61.2528,73.5636 L60.6913,71.3114 L58.2804,71.3114 L57.7311,73.5636 L55.9306,73.5636 Z " fill="#000000"/><text fill="#D8BC00" font-family="Open Sans,Avenir,Nunito,Arial,Helvetica,SansSerif" font-size="12.5" font-style="italic" font-weight="bold" lengthAdjust="spacing" textLength="132.2917" x="76.5625" y="74.1211">BaseStringConverter</text><line style="stroke:#5E5E5E;stroke-width:1.0416666666666667;" x1="46.3542" x2="214.0625" y1="85.0911" y2="85.0911"/><line style="stroke:#5E5E5E;stroke-width:1.0416666666666667;" x1="46.3542" x2="214.0625" y1="93.4245" y2="93.4245"/><!--MD5=[2f01b1126ff33a0669651ec2488a5ef9]
class Password--><rect codeLine="9" fill="#282828" height="48.055" id="Password" rx="8.3333" ry="8.3333" style="stroke:#5E5E5E;stroke-width:1.0416666666666667;" width="98.9583" x="436.9792" y="53.7028"/><rect fill="#1B1B1A" height="31.3883" rx="8.3333" ry="8.3333" style="stroke:#1B1B1A;stroke-width:1.0416666666666667;" width="98.9583" x="436.9792" y="53.7028"/><rect fill="#1B1B1A" height="8.3333" style="stroke:#1B1B1A;stroke-width:1.0416666666666667;" width="98.9583" x="436.9792" y="76.7578"/><rect codeLine="9" fill="none" height="48.055" id="Password" rx="8.3333" ry="8.3333" style="stroke:#5E5E5E;stroke-width:1.0416666666666667;" width="98.9583" x="436.9792" y="53.7028"/><ellipse cx="451.5625" cy="69.397" fill="#008400" rx="10.4167" ry="10.4167" style="stroke:#239C23;stroke-width:1.0416666666666667;"/><path d="M448.9665,66.5588 L448.9665,64.9719 L454.3925,64.9719 L454.3925,66.5588 L452.5798,66.5588 L452.5798,72.4976 L454.3925,72.4976 L454.3925,74.0845 L448.9665,74.0845 L448.9665,72.4976 L450.7792,72.4976 L450.7792,66.5588 Z " fill="#000000"/><text fill="#D8BC00" font-family="Open Sans,Avenir,Nunito,Arial,Helvetica,SansSerif" font-size="12.5" font-style="italic" font-weight="bold" lengthAdjust="spacing" textLength="61.4583" x="468.2292" y="74.1211">Password</text><line style="stroke:#5E5E5E;stroke-width:1.0416666666666667;" x1="438.0208" x2="534.8958" y1="85.0911" y2="85.0911"/><line style="stroke:#5E5E5E;stroke-width:1.0416666666666667;" x1="438.0208" x2="534.8958" y1="93.4245" y2="93.4245"/><!--MD5=[114a269c9049b2c2dec090c34e8cbb7c]
class PlainTextPassword--><rect codeLine="19" fill="#282828" height="127.0345" id="PlainTextPassword" rx="8.3333" ry="8.3333" style="stroke:#5E5E5E;stroke-width:1.0416666666666667;" width="392.7083" x="290.1042" y="164.1195"/><rect fill="#1B1B1A" height="31.3883" rx="8.3333" ry="8.3333" style="stroke:#1B1B1A;stroke-width:1.0416666666666667;" width="392.7083" x="290.1042" y="164.1195"/><rect fill="#1B1B1A" height="8.3333" style="stroke:#1B1B1A;stroke-width:1.0416666666666667;" width="392.7083" x="290.1042" y="187.1745"/><rect codeLine="19" fill="none" height="127.0345" id="PlainTextPassword" rx="8.3333" ry="8.3333" style="stroke:#5E5E5E;stroke-width:1.0416666666666667;" width="392.7083" x="290.1042" y="164.1195"/><ellipse cx="418.75" cy="179.8136" fill="#0066CF" rx="10.4167" ry="10.4167" style="stroke:#0086EF;stroke-width:1.0416666666666667;"/><path d="M420.6604,184.2387 Q420.2332,184.4584 419.7632,184.5683 Q419.2932,184.6781 418.7744,184.6781 Q416.9312,184.6781 415.9607,183.4635 Q414.9902,182.2489 414.9902,179.954 Q414.9902,177.653 415.9607,176.4384 Q416.9312,175.2238 418.7744,175.2238 Q419.2932,175.2238 419.7693,175.3337 Q420.2454,175.4435 420.6604,175.6632 L420.6604,177.6652 Q420.1965,177.238 419.7601,177.0396 Q419.3237,176.8412 418.8599,176.8412 Q417.8711,176.8412 417.3676,177.6255 Q416.864,178.4098 416.864,179.954 Q416.864,181.4921 417.3676,182.2764 Q417.8711,183.0607 418.8599,183.0607 Q419.3237,183.0607 419.7601,182.8623 Q420.1965,182.664 420.6604,182.2367 Z " fill="#000000"/><text fill="#D8BC00" font-family="Open Sans,Avenir,Nunito,Arial,Helvetica,SansSerif" font-size="12.5" font-weight="bold" lengthAdjust="spacing" textLength="120.8333" x="441.6667" y="184.5378">PlainTextPassword</text><line style="stroke:#5E5E5E;stroke-width:1.5625;" x1="291.1458" x2="681.7708" y1="195.5078" y2="195.5078"/><polygon fill="#FFFF44" points="301.5625,225.6694,305.7292,229.836,301.5625,234.0027,297.3958,229.836" style="stroke:#B38D22;stroke-width:1.0416666666666667;"/><text fill="#D8BC00" font-family="Open Sans,Avenir,Nunito,Arial,Helvetica,SansSerif" font-size="11.4583" lengthAdjust="spacing" textLength="145.8333" x="313.0208" y="237.7889">PlainTextPassword(String)</text><line style="stroke:#5E5E5E;stroke-width:1.0416666666666667;" x1="291.1458" x2="442.7083" y1="213.7136" y2="213.7136"/><text fill="#D8BC00" font-family="Open Sans,Avenir,Nunito,Arial,Helvetica,SansSerif" font-size="11.4583" lengthAdjust="spacing" textLength="81.25" x="445.8333" y="217.5232">(constructors)</text><line style="stroke:#5E5E5E;stroke-width:1.0416666666666667;" x1="530.2083" x2="681.7708" y1="213.7136" y2="213.7136"/><ellipse cx="301.5625" cy="274.5341" fill="#84BE84" rx="3.125" ry="3.125" style="stroke:#038048;stroke-width:1.0416666666666667;"/><text fill="#D8BC00" font-family="Open Sans,Avenir,Nunito,Arial,Helvetica,SansSerif" font-size="11.4583" lengthAdjust="spacing" textLength="360.4167" x="313.0208" y="281.4453">PlainTextPassword parsePlainTextPassword(Listener, String text)</text><line style="stroke:#5E5E5E;stroke-width:1.0416666666666667;" x1="291.1458" x2="457.8125" y1="257.37" y2="257.37"/><text fill="#D8BC00" font-family="Open Sans,Avenir,Nunito,Arial,Helvetica,SansSerif" font-size="11.4583" lengthAdjust="spacing" textLength="51.0417" x="460.9375" y="261.1796">(parsing)</text><line style="stroke:#5E5E5E;stroke-width:1.0416666666666667;" x1="515.1042" x2="681.7708" y1="257.37" y2="257.37"/><!--MD5=[aa56c61dbba11fc464ede4fe00272aac]
class DigestPassword--><rect codeLine="12" fill="#282828" height="83.3781" id="DigestPassword" rx="8.3333" ry="8.3333" style="stroke:#5E5E5E;stroke-width:1.0416666666666667;" width="162.5" x="405.2083" y="353.7028"/><rect fill="#1B1B1A" height="31.3883" rx="8.3333" ry="8.3333" style="stroke:#1B1B1A;stroke-width:1.0416666666666667;" width="162.5" x="405.2083" y="353.7028"/><rect fill="#1B1B1A" height="8.3333" style="stroke:#1B1B1A;stroke-width:1.0416666666666667;" width="162.5" x="405.2083" y="376.7578"/><rect codeLine="12" fill="none" height="83.3781" id="DigestPassword" rx="8.3333" ry="8.3333" style="stroke:#5E5E5E;stroke-width:1.0416666666666667;" width="162.5" x="405.2083" y="353.7028"/><ellipse cx="429.1667" cy="369.397" fill="#0066CF" rx="10.4167" ry="10.4167" style="stroke:#0086EF;stroke-width:1.0416666666666667;"/><path d="M431.0771,373.822 Q430.6498,374.0417 430.1799,374.1516 Q429.7099,374.2615 429.1911,374.2615 Q427.3478,374.2615 426.3774,373.0469 Q425.4069,371.8323 425.4069,369.5374 Q425.4069,367.2363 426.3774,366.0217 Q427.3478,364.8071 429.1911,364.8071 Q429.7099,364.8071 430.186,364.917 Q430.662,365.0269 431.0771,365.2466 L431.0771,367.2485 Q430.6132,366.8213 430.1768,366.6229 Q429.7404,366.4246 429.2765,366.4246 Q428.2878,366.4246 427.7842,367.2089 Q427.2807,367.9932 427.2807,369.5374 Q427.2807,371.0754 427.7842,371.8597 Q428.2878,372.644 429.2765,372.644 Q429.7404,372.644 430.1768,372.4457 Q430.6132,372.2473 431.0771,371.8201 Z " fill="#000000"/><text fill="#D8BC00" font-family="Open Sans,Avenir,Nunito,Arial,Helvetica,SansSerif" font-size="12.5" font-weight="bold" lengthAdjust="spacing" textLength="104.1667" x="447.9167" y="374.1211">DigestPassword</text><line style="stroke:#5E5E5E;stroke-width:1.5625;" x1="406.25" x2="566.6667" y1="385.0911" y2="385.0911"/><ellipse cx="416.6667" cy="420.461" fill="#84BE84" rx="3.125" ry="3.125" style="stroke:#038048;stroke-width:1.0416666666666667;"/><text fill="#D8BC00" font-family="Open Sans,Avenir,Nunito,Arial,Helvetica,SansSerif" font-size="11.4583" lengthAdjust="spacing" textLength="130.2083" x="428.125" y="427.3722">DigestPassword(String)</text><line style="stroke:#5E5E5E;stroke-width:1.0416666666666667;" x1="406.25" x2="442.7083" y1="403.2969" y2="403.2969"/><text fill="#D8BC00" font-family="Open Sans,Avenir,Nunito,Arial,Helvetica,SansSerif" font-size="11.4583" lengthAdjust="spacing" textLength="81.25" x="445.8333" y="407.1065">(constructors)</text><line style="stroke:#5E5E5E;stroke-width:1.0416666666666667;" x1="530.2083" x2="566.6667" y1="403.2969" y2="403.2969"/><!--MD5=[a22a89366b3bebd9d1bb5d63f499ff71]
class PlainTextPasswordConverter--><rect codeLine="28" fill="#282828" height="83.3781" id="PlainTextPasswordConverter" rx="8.3333" ry="8.3333" style="stroke:#5E5E5E;stroke-width:1.0416666666666667;" width="245.8333" x="7.2917" y="185.9945"/><rect fill="#1B1B1A" height="31.3883" rx="8.3333" ry="8.3333" style="stroke:#1B1B1A;stroke-width:1.0416666666666667;" width="245.8333" x="7.2917" y="185.9945"/><rect fill="#1B1B1A" height="8.3333" style="stroke:#1B1B1A;stroke-width:1.0416666666666667;" width="245.8333" x="7.2917" y="209.0495"/><rect codeLine="28" fill="none" height="83.3781" id="PlainTextPasswordConverter" rx="8.3333" ry="8.3333" style="stroke:#5E5E5E;stroke-width:1.0416666666666667;" width="245.8333" x="7.2917" y="185.9945"/><ellipse cx="32.6563" cy="201.6886" fill="#0066CF" rx="10.4167" ry="10.4167" style="stroke:#0086EF;stroke-width:1.0416666666666667;"/><path d="M34.5667,206.1137 Q34.1394,206.3334 33.6694,206.4433 Q33.1995,206.5531 32.6807,206.5531 Q30.8374,206.5531 29.8669,205.3385 Q28.8965,204.1239 28.8965,201.829 Q28.8965,199.528 29.8669,198.3134 Q30.8374,197.0988 32.6807,197.0988 Q33.1995,197.0988 33.6755,197.2087 Q34.1516,197.3185 34.5667,197.5382 L34.5667,199.5402 Q34.1028,199.113 33.6664,198.9146 Q33.23,198.7162 32.7661,198.7162 Q31.7773,198.7162 31.2738,199.5005 Q30.7703,200.2848 30.7703,201.829 Q30.7703,203.3671 31.2738,204.1514 Q31.7773,204.9357 32.7661,204.9357 Q33.23,204.9357 33.6664,204.7373 Q34.1028,204.539 34.5667,204.1117 Z " fill="#000000"/><text fill="#D8BC00" font-family="Open Sans,Avenir,Nunito,Arial,Helvetica,SansSerif" font-size="12.5" font-weight="bold" lengthAdjust="spacing" textLength="184.375" x="51.7188" y="206.4128">PlainTextPasswordConverter</text><line style="stroke:#5E5E5E;stroke-width:1.5625;" x1="8.3333" x2="252.0833" y1="217.3828" y2="217.3828"/><ellipse cx="18.75" cy="252.7527" fill="#84BE84" rx="3.125" ry="3.125" style="stroke:#038048;stroke-width:1.0416666666666667;"/><text fill="#D8BC00" font-family="Open Sans,Avenir,Nunito,Arial,Helvetica,SansSerif" font-size="11.4583" lengthAdjust="spacing" textLength="213.5417" x="30.2083" y="259.6639">PlainTextPasswordConverter(Listener)</text><line style="stroke:#5E5E5E;stroke-width:1.0416666666666667;" x1="8.3333" x2="86.4583" y1="235.5886" y2="235.5886"/><text fill="#D8BC00" font-family="Open Sans,Avenir,Nunito,Arial,Helvetica,SansSerif" font-size="11.4583" lengthAdjust="spacing" textLength="81.25" x="89.5833" y="239.3982">(constructors)</text><line style="stroke:#5E5E5E;stroke-width:1.0416666666666667;" x1="173.9583" x2="252.0833" y1="235.5886" y2="235.5886"/><!--MD5=[2e9b830b971b066d7b5339520985d499]
reverse link PlainTextPassword to DigestPassword--><path codeLine="11" d="M486.4583,313.5778 C486.4583,327.3695 486.4583,341.0778 486.4583,353.1924 " fill="none" id="PlainTextPassword-backto-DigestPassword" style="stroke:#545454;stroke-width:1.5625;"/><polygon fill="none" points="479.1667,313.7236,486.4583,292.8903,493.75,313.7236,479.1667,313.7236" style="stroke:#545454;stroke-width:1.5625;"/><!--MD5=[ed560bf051555b58ce317faf923aefe0]
reverse link Password to PlainTextPassword--><path codeLine="18" d="M486.4583,123.9111 C486.4583,136.4945 486.4583,150.3903 486.4583,163.7861 " fill="none" id="Password-backto-PlainTextPassword" style="stroke:#545454;stroke-width:1.5625;"/><polygon fill="none" points="479.1667,124.2236,486.4583,103.3903,493.75,124.2236,479.1667,124.2236" style="stroke:#545454;stroke-width:1.5625;"/><!--MD5=[d63f6f38ae7fd796a0468aee322253c3]
reverse link BaseStringConverter to PlainTextPasswordConverter--><path codeLine="27" d="M130.2083,124.057 C130.2083,143.6507 130.2083,166.4215 130.2083,185.5153 " fill="none" id="BaseStringConverter-backto-PlainTextPasswordConverter" style="stroke:#545454;stroke-width:1.5625;"/><polygon fill="none" points="122.9167,124.2236,130.2083,103.3903,137.5,124.2236,122.9167,124.2236" style="stroke:#545454;stroke-width:1.5625;"/><!--MD5=[ea48da6557c53b547b086d46b58ed87d]
@startuml

    !include lexakai.theme
    
    title "com.telenav.kivakit.network.core.authentication.passwords"
    
    abstract BaseStringConverter
    
    interface Password
    
    PlainTextPassword <|- - DigestPassword
    class DigestPassword
    {
        - -(constructors)- -
        +DigestPassword(String)
    }
    
    Password <|- - PlainTextPassword
    class PlainTextPassword
    {
        - -(constructors)- -
        #PlainTextPassword(String)
        - -(parsing)- -
        +PlainTextPassword parsePlainTextPassword(Listener, String text)
    }
    
    BaseStringConverter <|- - PlainTextPasswordConverter
    class PlainTextPasswordConverter
    {
        - -(constructors)- -
        +PlainTextPasswordConverter(Listener)
    }
    
@enduml

@startuml









skinparam backgroundColor #333333






skinparam  {
    defaultFontName   "Open Sans,Avenir,Nunito,Arial,Helvetica,SansSerif"
    defaultFontSize   12
    defaultTextAlignment left
    shadowing false
    RoundCorner 10
    TitleFontSize 18
}

skinparam defaultFontName       "Open Sans,Avenir,Nunito,Arial,Helvetica,SansSerif"
skinparam defaultFontSize       12
skinparam dpi                   100
skinparam shadowing             false
skinparam roundcorner           16
skinparam ParticipantPadding    40
skinparam BoxPadding            40
skinparam Padding               3
skinparam ArrowColor            #545454
skinparam stereotype {
    CBackgroundColor #0066cf
    CBorderColor #0086ef
    ABackgroundColor #C8Ac00
    ABorderColor #D8Bc00
    IBackgroundColor #008400
    IBorderColor #239c23
    EBackgroundColor #cf6300
    EBorderColor #ef8300
    NBackgroundColor #3380b9
    NBorderColor #004d86
}
skinparam title {
	FontColor	                 #c0c0c0
 	BorderColor                  #545454
	FontSize	    	         20
	BorderRoundCorner            16
	BorderThickness 	         1
	BackgroundColor              #48494b
}


skinparam legend {
	BackgroundColor #303030
	BorderColor #404040
	FontColor #a0a0a0
}

	skinparam swimlane {
	BorderColor #5e5e5e
	BorderThickness 2
	TitleBackgroundColor  #6d6d6d-#484848
	TitleFontColor #303030
}

skinparam activity {
		FontColor #C8Ac00
	BorderColor #333333
	BackgroundColor #333333-#333333
	BarColor #00FF00
	StartColor #0060a8
	EndColor #0060a8
	DiamondBackgroundColor #6d6d6d-#3a3a3a
  	DiamondBorderColor #3a3a3a
  	DiamondFontColor #fefefe
}


skinparam participant {
		FontColor #C8Ac00
	BorderColor #333333
	BackgroundColor #333333-#333333
	ParticipantBorderThickness 2
}


skinparam actor {
		FontColor #C8Ac00
	BorderColor #333333
	BackgroundColor #333333-#333333
}


skinparam arrow {
	Thickness 1.5
	Color #545454
	FontColor #a0a0a0
    FontStyle bold
    MessageAlignment center
}



skinparam sequence {
	BorderColor #303030
	TitleFontColor #303030
	BackgroundColor #333333
	StartColor #303030
	EndColor #303030
	BoxBackgroundColor #333333
	BoxBorderColor #484848
	BoxFontColor #484848
	LifeLineBorderColor #484848
	LifeLineBorderThickness 2
	LifeLineBackgroundColor #3a3a3a
	GroupBorderColor #484848
	GroupFontColor #484848
	GroupHeaderFontColor #0060a8
	GroupBackgroundColor #484848
	GroupHeaderBackgroundColor #333333
	DividerBackgroundColor #484848
    DividerBorderColor #484848
    DividerBorderThickness 2
    DividerFontColor #D8Bc00
	ReferenceBackgroundColor #333333
	ReferenceBorderColor #484848
	ReferenceFontColor #fefefe
	ReferenceHeaderBackgroundColor #484848
}


skinparam partition {
	BorderColor #303030
	FontColor #333333
	BackgroundColor #333333
}


skinparam collections {
		FontColor #C8Ac00
	BorderColor #333333
	BackgroundColor #333333-#333333
}


skinparam control {
		FontColor #C8Ac00
	BorderColor #333333
	BackgroundColor #333333-#333333
}


skinparam entity {
		FontColor #C8Ac00
	BorderColor #333333
	BackgroundColor #333333-#333333
}


skinparam boundary {
		FontColor #C8Ac00
	BorderColor #333333
	BackgroundColor #333333-#333333
}


skinparam agent {
	BackgroundColor #ff8000
	BorderColor #ff9933
	FontColor #484848
}


skinparam note {
	BorderThickness 1
	BackgroundColor #1b1b1a
	BorderColor #5e5e5e
	FontSize 11
	FontColor #a0a0a0
}


skinparam artifact {
	BorderThickness 10
	BorderColor #5e5e5e
	BackgroundColor #1b1b1a
	FontColor #D8Bc00
}


skinparam component {
		FontColor #C8Ac00
	BorderColor #333333
	BackgroundColor #333333-#333333
}


skinparam interface {
	BackgroundColor  #008400
	BorderColor  #007F00
	FontColor #484848
}


skinparam storage {
	BackgroundColor #ff8000
  	BorderColor #cc6600
	FontColor #222222
}


skinparam node {
	BackgroundColor #333333
	BorderColor #333333
	FontColor #C8Ac00
}


skinparam cloud {
	BackgroundColor #484848-black
	BorderColor #484848
	FontColor #D8Bc00
}


skinparam database {
		FontColor #C8Ac00
	BorderColor #333333
	BackgroundColor #333333-#333333
	BackgroundColor  #333333
}


skinparam class {
		FontColor #C8Ac00
	BorderColor #333333
	BackgroundColor #333333-#333333
	HeaderBackgroundColor #1b1b1a
    BackgroundColor #282828
    BorderColor #5e5e5e
 	StereotypeFontColor #a0a0a0
    StereotypeFontStyle bold
	BorderThickness 1
	AttributeFontColor #D8Bc00
	AttributeFontSize 11
    FontColor #D8Bc00
    FontStyle bold
}


skinparam object {
		FontColor #C8Ac00
	BorderColor #333333
	BackgroundColor #333333-#333333
	StereotypeFontColor #484848
	BorderThickness 1
	AttributeFontColor #fefefe
	AttributeFontSize 11
}


skinparam usecase {
		FontColor #C8Ac00
	BorderColor #333333
	BackgroundColor #333333-#333333
	BorderThickness 2
	StereotypeFontColor #303030
}


skinparam rectangle {
		FontColor #C8Ac00
	BorderColor #333333
	BackgroundColor #333333-#333333
	BackgroundColor #333333
	BorderThickness 2
	StereotypeFontColor #303030
}


skinparam package {
		FontColor #C8Ac00
	BorderColor #333333
	BackgroundColor #333333-#333333
	BackgroundColor #333333
	BorderThickness 2
}


skinparam folder {
	BackgroundColor #6d6d6d
  	BorderColor #ff8000
	FontColor #ff8000
	BorderThickness 2
}


skinparam frame {
	BackgroundColor #6d6d6d
  	BorderColor #0060a8
	FontColor #0060a8
	BorderThickness 2
}


skinparam state {
		FontColor #C8Ac00
	BorderColor #333333
	BackgroundColor #333333-#333333
	StartColor #0060a8
	EndColor #0060a8
	AttributeFontColor #fefefe
	AttributeFontSize 11
}


skinparam queue {
		FontColor #C8Ac00
	BorderColor #333333
	BackgroundColor #333333-#333333
}


skinparam card {
	BackgroundColor #0060a8
	BorderColor #004d86
	FontColor $INFO_TEXT
}


skinparam file {
	BackgroundColor #6d6d6d-#484848
	BorderColor #0060a8
	FontColor #fefefe
}


skinparam stack {
		FontColor #C8Ac00
	BorderColor #333333
	BackgroundColor #333333-#333333
}

    
    title "com.telenav.kivakit.network.core.authentication.passwords"
    
    abstract BaseStringConverter
    
    interface Password
    
    PlainTextPassword <|- - DigestPassword
    class DigestPassword
    {
        - -(constructors)- -
        +DigestPassword(String)
    }
    
    Password <|- - PlainTextPassword
    class PlainTextPassword
    {
        - -(constructors)- -
        #PlainTextPassword(String)
        - -(parsing)- -
        +PlainTextPassword parsePlainTextPassword(Listener, String text)
    }
    
    BaseStringConverter <|- - PlainTextPasswordConverter
    class PlainTextPasswordConverter
    {
        - -(constructors)- -
        +PlainTextPasswordConverter(Listener)
    }
    
@enduml

PlantUML version 1.2021.01(Tue Feb 02 00:55:08 MST 2021)
(GPL source distribution)
Java Runtime: OpenJDK Runtime Environment
JVM: OpenJDK 64-Bit Server VM
Default Encoding: UTF-8
Language: en
Country: US
--></g></svg>