<?xml version="1.0" encoding="UTF-8" standalone="no"?><svg xmlns="http://www.w3.org/2000/svg" xmlns:xlink="http://www.w3.org/1999/xlink" contentScriptType="application/ecmascript" contentStyleType="text/css" height="218.75px" preserveAspectRatio="none" style="width:462px;height:218px;background:#333333;" version="1.1" viewBox="0 0 462 218" width="462.5px" zoomAndPan="magnify"><defs/><g><rect fill="#48494B" height="41.2028" rx="8.3333" ry="8.3333" style="stroke:#545454;stroke-width:1.0416666666666667;" width="450" x="2.0833" y="2.0833"/><text fill="#C0C0C0" font-family="Open Sans,Avenir,Nunito,Arial,Helvetica,SansSerif" font-size="20.8333" lengthAdjust="spacing" textLength="427.0833" x="13.5417" y="30.5583">com.telenav.kivakit.service.registry.lexakai</text><rect codeLine="13" fill="#282828" height="48.055" id="UmlDiagramIdentifier" rx="8.3333" ry="8.3333" style="stroke:#5E5E5E;stroke-width:1.0416666666666667;" width="178.125" x="151.0417" y="53.7028"/><rect fill="#1B1B1A" height="31.3883" rx="8.3333" ry="8.3333" style="stroke:#1B1B1A;stroke-width:1.0416666666666667;" width="178.125" x="151.0417" y="53.7028"/><rect fill="#1B1B1A" height="8.3333" style="stroke:#1B1B1A;stroke-width:1.0416666666666667;" width="178.125" x="151.0417" y="76.7578"/><rect codeLine="13" fill="none" height="48.055" id="UmlDiagramIdentifier" rx="8.3333" ry="8.3333" style="stroke:#5E5E5E;stroke-width:1.0416666666666667;" width="178.125" x="151.0417" y="53.7028"/><ellipse cx="165.625" cy="69.397" fill="#008400" rx="10.4167" ry="10.4167" style="stroke:#239C23;stroke-width:1.0416666666666667;"/><path d="M163.029,66.5588 L163.029,64.9719 L168.455,64.9719 L168.455,66.5588 L166.6423,66.5588 L166.6423,72.4976 L168.455,72.4976 L168.455,74.0845 L163.029,74.0845 L163.029,72.4976 L164.8417,72.4976 L164.8417,66.5588 Z " fill="#000000"/><text fill="#D8BC00" font-family="Open Sans,Avenir,Nunito,Arial,Helvetica,SansSerif" font-size="12.5" font-style="italic" font-weight="bold" lengthAdjust="spacing" textLength="140.625" x="182.2917" y="74.1211">UmlDiagramIdentifier</text><line style="stroke:#5E5E5E;stroke-width:1.0416666666666667;" x1="152.0833" x2="328.125" y1="85.0911" y2="85.0911"/><line style="stroke:#5E5E5E;stroke-width:1.0416666666666667;" x1="152.0833" x2="328.125" y1="93.4245" y2="93.4245"/><rect codeLine="9" fill="#282828" height="48.055" id="DiagramRegistry" rx="8.3333" ry="8.3333" style="stroke:#5E5E5E;stroke-width:1.0416666666666667;" width="145.8333" x="82.8125" y="164.1195"/><rect fill="#1B1B1A" height="31.3883" rx="8.3333" ry="8.3333" style="stroke:#1B1B1A;stroke-width:1.0416666666666667;" width="145.8333" x="82.8125" y="164.1195"/><rect fill="#1B1B1A" height="8.3333" style="stroke:#1B1B1A;stroke-width:1.0416666666666667;" width="145.8333" x="82.8125" y="187.1745"/><rect codeLine="9" fill="none" height="48.055" id="DiagramRegistry" rx="8.3333" ry="8.3333" style="stroke:#5E5E5E;stroke-width:1.0416666666666667;" width="145.8333" x="82.8125" y="164.1195"/><ellipse cx="97.3958" cy="179.8136" fill="#008400" rx="10.4167" ry="10.4167" style="stroke:#239C23;stroke-width:1.0416666666666667;"/><path d="M94.7998,176.9755 L94.7998,175.3886 L100.2258,175.3886 L100.2258,176.9755 L98.4131,176.9755 L98.4131,182.9142 L100.2258,182.9142 L100.2258,184.5011 L94.7998,184.5011 L94.7998,182.9142 L96.6125,182.9142 L96.6125,176.9755 Z " fill="#000000"/><text fill="#D8BC00" font-family="Open Sans,Avenir,Nunito,Arial,Helvetica,SansSerif" font-size="12.5" font-style="italic" font-weight="bold" lengthAdjust="spacing" textLength="108.3333" x="114.0625" y="184.5378">DiagramRegistry</text><line style="stroke:#5E5E5E;stroke-width:1.0416666666666667;" x1="83.8542" x2="227.6042" y1="195.5078" y2="195.5078"/><line style="stroke:#5E5E5E;stroke-width:1.0416666666666667;" x1="83.8542" x2="227.6042" y1="203.8411" y2="203.8411"/><rect codeLine="15" fill="#282828" height="48.055" id="DiagramRest" rx="8.3333" ry="8.3333" style="stroke:#5E5E5E;stroke-width:1.0416666666666667;" width="120.8333" x="265.1042" y="164.1195"/><rect fill="#1B1B1A" height="31.3883" rx="8.3333" ry="8.3333" style="stroke:#1B1B1A;stroke-width:1.0416666666666667;" width="120.8333" x="265.1042" y="164.1195"/><rect fill="#1B1B1A" height="8.3333" style="stroke:#1B1B1A;stroke-width:1.0416666666666667;" width="120.8333" x="265.1042" y="187.1745"/><rect codeLine="15" fill="none" height="48.055" id="DiagramRest" rx="8.3333" ry="8.3333" style="stroke:#5E5E5E;stroke-width:1.0416666666666667;" width="120.8333" x="265.1042" y="164.1195"/><ellipse cx="279.6875" cy="179.8136" fill="#008400" rx="10.4167" ry="10.4167" style="stroke:#239C23;stroke-width:1.0416666666666667;"/><path d="M277.0915,176.9755 L277.0915,175.3886 L282.5175,175.3886 L282.5175,176.9755 L280.7048,176.9755 L280.7048,182.9142 L282.5175,182.9142 L282.5175,184.5011 L277.0915,184.5011 L277.0915,182.9142 L278.9042,182.9142 L278.9042,176.9755 Z " fill="#000000"/><text fill="#D8BC00" font-family="Open Sans,Avenir,Nunito,Arial,Helvetica,SansSerif" font-size="12.5" font-style="italic" font-weight="bold" lengthAdjust="spacing" textLength="83.3333" x="296.3542" y="184.5378">DiagramRest</text><line style="stroke:#5E5E5E;stroke-width:1.0416666666666667;" x1="266.1458" x2="384.8958" y1="195.5078" y2="195.5078"/><line style="stroke:#5E5E5E;stroke-width:1.0416666666666667;" x1="266.1458" x2="384.8958" y1="203.8411" y2="203.8411"/><path codeLine="8" d="M209.0417,118.5882 C197.1042,133.9215 183.8854,150.8903 173.5938,164.0986 " fill="none" id="UmlDiagramIdentifier-backto-DiagramRegistry" style="stroke:#545454;stroke-width:1.5625;"/><polygon fill="none" points="203.6563,113.6299,222.2083,101.682,215.1667,122.5986,203.6563,113.6299" style="stroke:#545454;stroke-width:1.5625;"/><path codeLine="14" d="M271.1563,118.0882 C283.3438,133.5465 296.9063,150.7445 307.4271,164.0986 " fill="none" id="UmlDiagramIdentifier-backto-DiagramRest" style="stroke:#545454;stroke-width:1.5625;"/><polygon fill="none" points="265.3958,122.557,258.2188,101.682,276.8438,113.5257,265.3958,122.557" style="stroke:#545454;stroke-width:1.5625;"/></g></svg>
