<?xml version="1.0" encoding="UTF-8" standalone="no"?><svg xmlns="http://www.w3.org/2000/svg" xmlns:xlink="http://www.w3.org/1999/xlink" contentScriptType="application/ecmascript" contentStyleType="text/css" height="471.875px" preserveAspectRatio="none" style="width:1169px;height:471px;background:#333333;" version="1.1" viewBox="0 0 1169 471" width="1169.7917px" zoomAndPan="magnify"><defs/><g><rect fill="#48494B" height="41.2028" rx="8.3333" ry="8.3333" style="stroke:#545454;stroke-width:1.0416666666666667;" width="564.5833" x="295.3125" y="2.0833"/><text fill="#C0C0C0" font-family="Open Sans,Avenir,Nunito,Arial,Helvetica,SansSerif" font-size="20.8333" lengthAdjust="spacing" textLength="541.6667" x="306.7708" y="30.5583">com.telenav.kivakit.data.compression.codecs.huffman</text><!--MD5=[af4063f8b666854de88383954281b285]
cluster FastHuffmanDecoder.Table--><polygon fill="#333333" points="748.9583,257.3486,936.4583,257.3486,943.75,284.5703,947.9167,284.5703,947.9167,414.6403,748.9583,414.6403,748.9583,257.3486" style="stroke:#333333;stroke-width:2.0833333333333335;"/><line style="stroke:#333333;stroke-width:2.0833333333333335;" x1="748.9583" x2="943.75" y1="284.5703" y2="284.5703"/><text fill="#C8AC00" font-family="Open Sans,Avenir,Nunito,Arial,Helvetica,SansSerif" font-size="12.5" font-weight="bold" lengthAdjust="spacing" textLength="175" x="756.25" y="274.6419">FastHuffmanDecoder.Table</text><!--MD5=[b8fe5ed5f9c35b908904ec3d3ad10e60]
class FastHuffmanDecoder.Table.Entry--><rect codeLine="11" fill="#282828" height="83.3781" id="FastHuffmanDecoder.Table.Entry" rx="8.3333" ry="8.3333" style="stroke:#5E5E5E;stroke-width:1.0416666666666667;" width="129.1667" x="793.75" y="306.307"/><rect fill="#1B1B1A" height="31.3883" rx="8.3333" ry="8.3333" style="stroke:#1B1B1A;stroke-width:1.0416666666666667;" width="129.1667" x="793.75" y="306.307"/><rect fill="#1B1B1A" height="8.3333" style="stroke:#1B1B1A;stroke-width:1.0416666666666667;" width="129.1667" x="793.75" y="329.362"/><rect codeLine="11" fill="none" height="83.3781" id="FastHuffmanDecoder.Table.Entry" rx="8.3333" ry="8.3333" style="stroke:#5E5E5E;stroke-width:1.0416666666666667;" width="129.1667" x="793.75" y="306.307"/><ellipse cx="808.3333" cy="322.0011" fill="#0066CF" rx="10.4167" ry="10.4167" style="stroke:#0086EF;stroke-width:1.0416666666666667;"/><path d="M810.2437,326.4262 Q809.8165,326.6459 809.3465,326.7558 Q808.8765,326.8656 808.3577,326.8656 Q806.5145,326.8656 805.544,325.651 Q804.5736,324.4364 804.5736,322.1415 Q804.5736,319.8405 805.544,318.6259 Q806.5145,317.4113 808.3577,317.4113 Q808.8765,317.4113 809.3526,317.5212 Q809.8287,317.631 810.2437,317.8507 L810.2437,319.8527 Q809.7799,319.4255 809.3435,319.2271 Q808.9071,319.0287 808.4432,319.0287 Q807.4544,319.0287 806.9509,319.813 Q806.4473,320.5973 806.4473,322.1415 Q806.4473,323.6796 806.9509,324.4639 Q807.4544,325.2482 808.4432,325.2482 Q808.9071,325.2482 809.3435,325.0498 Q809.7799,324.8515 810.2437,324.4242 Z " fill="#000000"/><text fill="#D8BC00" font-family="Open Sans,Avenir,Nunito,Arial,Helvetica,SansSerif" font-size="12.5" font-weight="bold" lengthAdjust="spacing" textLength="33.3333" x="825" y="326.7253">Entry</text><rect fill="#333333" height="23.055" style="stroke:#A0A0A0;stroke-width:1.0416666666666667;stroke-dasharray:2.0,2.0;" width="56.25" x="869.7917" y="303.182"/><text fill="#A0A0A0" font-family="Open Sans,Avenir,Nunito,Arial,Helvetica,SansSerif" font-size="12.5" font-weight="bold" lengthAdjust="spacing" textLength="47.9167" x="873.9583" y="319.4336">Symbol</text><line style="stroke:#5E5E5E;stroke-width:1.5625;" x1="794.7917" x2="921.875" y1="337.6953" y2="337.6953"/><polygon fill="#FFFF44" points="805.2083,367.8569,809.375,372.0235,805.2083,376.1902,801.0417,372.0235" style="stroke:#B38D22;stroke-width:1.0416666666666667;"/><text fill="#D8BC00" font-family="Open Sans,Avenir,Nunito,Arial,Helvetica,SansSerif" font-size="11.4583" lengthAdjust="spacing" textLength="37.5" x="816.6667" y="379.9764">Entry()</text><line style="stroke:#5E5E5E;stroke-width:1.0416666666666667;" x1="794.7917" x2="814.5833" y1="355.9011" y2="355.9011"/><text fill="#D8BC00" font-family="Open Sans,Avenir,Nunito,Arial,Helvetica,SansSerif" font-size="11.4583" lengthAdjust="spacing" textLength="81.25" x="817.7083" y="359.7107">(constructors)</text><line style="stroke:#5E5E5E;stroke-width:1.0416666666666667;" x1="902.0833" x2="921.875" y1="355.9011" y2="355.9011"/><!--MD5=[19bab21d94a99911073f24de8dec88db]
class Codec--><rect codeLine="7" fill="#282828" height="48.055" id="Codec" rx="8.3333" ry="8.3333" style="stroke:#5E5E5E;stroke-width:1.0416666666666667;" width="77.0833" x="172.9167" y="88.5986"/><rect fill="#1B1B1A" height="31.3883" rx="8.3333" ry="8.3333" style="stroke:#1B1B1A;stroke-width:1.0416666666666667;" width="77.0833" x="172.9167" y="88.5986"/><rect fill="#1B1B1A" height="8.3333" style="stroke:#1B1B1A;stroke-width:1.0416666666666667;" width="77.0833" x="172.9167" y="111.6536"/><rect codeLine="7" fill="none" height="48.055" id="Codec" rx="8.3333" ry="8.3333" style="stroke:#5E5E5E;stroke-width:1.0416666666666667;" width="77.0833" x="172.9167" y="88.5986"/><ellipse cx="187.5" cy="104.2928" fill="#008400" rx="10.4167" ry="10.4167" style="stroke:#239C23;stroke-width:1.0416666666666667;"/><path d="M184.904,101.4547 L184.904,99.8678 L190.33,99.8678 L190.33,101.4547 L188.5173,101.4547 L188.5173,107.3934 L190.33,107.3934 L190.33,108.9803 L184.904,108.9803 L184.904,107.3934 L186.7167,107.3934 L186.7167,101.4547 Z " fill="#000000"/><text fill="#D8BC00" font-family="Open Sans,Avenir,Nunito,Arial,Helvetica,SansSerif" font-size="12.5" font-style="italic" font-weight="bold" lengthAdjust="spacing" textLength="39.5833" x="204.1667" y="109.0169">Codec</text><line style="stroke:#5E5E5E;stroke-width:1.0416666666666667;" x1="173.9583" x2="248.9583" y1="119.987" y2="119.987"/><line style="stroke:#5E5E5E;stroke-width:1.0416666666666667;" x1="173.9583" x2="248.9583" y1="128.3203" y2="128.3203"/><!--MD5=[d590cb3cf1755846c9a17bad34216c08]
class Stringable--><rect codeLine="8" fill="#282828" height="48.055" id="Stringable" rx="8.3333" ry="8.3333" style="stroke:#5E5E5E;stroke-width:1.0416666666666667;" width="103.125" x="670.3125" y="88.5986"/><rect fill="#1B1B1A" height="31.3883" rx="8.3333" ry="8.3333" style="stroke:#1B1B1A;stroke-width:1.0416666666666667;" width="103.125" x="670.3125" y="88.5986"/><rect fill="#1B1B1A" height="8.3333" style="stroke:#1B1B1A;stroke-width:1.0416666666666667;" width="103.125" x="670.3125" y="111.6536"/><rect codeLine="8" fill="none" height="48.055" id="Stringable" rx="8.3333" ry="8.3333" style="stroke:#5E5E5E;stroke-width:1.0416666666666667;" width="103.125" x="670.3125" y="88.5986"/><ellipse cx="684.8958" cy="104.2928" fill="#008400" rx="10.4167" ry="10.4167" style="stroke:#239C23;stroke-width:1.0416666666666667;"/><path d="M682.2998,101.4547 L682.2998,99.8678 L687.7258,99.8678 L687.7258,101.4547 L685.9131,101.4547 L685.9131,107.3934 L687.7258,107.3934 L687.7258,108.9803 L682.2998,108.9803 L682.2998,107.3934 L684.1125,107.3934 L684.1125,101.4547 Z " fill="#000000"/><text fill="#D8BC00" font-family="Open Sans,Avenir,Nunito,Arial,Helvetica,SansSerif" font-size="12.5" font-style="italic" font-weight="bold" lengthAdjust="spacing" textLength="65.625" x="701.5625" y="109.0169">Stringable</text><line style="stroke:#5E5E5E;stroke-width:1.0416666666666667;" x1="671.3542" x2="772.3958" y1="119.987" y2="119.987"/><line style="stroke:#5E5E5E;stroke-width:1.0416666666666667;" x1="671.3542" x2="772.3958" y1="128.3203" y2="128.3203"/><!--MD5=[c407b488d7ef18e93988e03ee4970a88]
class FastHuffmanDecoder--><rect codeLine="17" fill="#282828" height="111.4563" id="FastHuffmanDecoder" rx="8.3333" ry="8.3333" style="stroke:#5E5E5E;stroke-width:1.0416666666666667;" width="347.9167" x="810.4167" y="56.8278"/><rect fill="#1B1B1A" height="31.3883" rx="8.3333" ry="8.3333" style="stroke:#1B1B1A;stroke-width:1.0416666666666667;" width="347.9167" x="810.4167" y="56.8278"/><rect fill="#1B1B1A" height="8.3333" style="stroke:#1B1B1A;stroke-width:1.0416666666666667;" width="347.9167" x="810.4167" y="79.8828"/><rect codeLine="17" fill="none" height="111.4563" id="FastHuffmanDecoder" rx="8.3333" ry="8.3333" style="stroke:#5E5E5E;stroke-width:1.0416666666666667;" width="347.9167" x="810.4167" y="56.8278"/><ellipse cx="879.6875" cy="72.522" fill="#0066CF" rx="10.4167" ry="10.4167" style="stroke:#0086EF;stroke-width:1.0416666666666667;"/><path d="M881.5979,76.947 Q881.1707,77.1667 880.7007,77.2766 Q880.2307,77.3865 879.7119,77.3865 Q877.8687,77.3865 876.8982,76.1719 Q875.9277,74.9573 875.9277,72.6624 Q875.9277,70.3613 876.8982,69.1467 Q877.8687,67.9321 879.7119,67.9321 Q880.2307,67.9321 880.7068,68.042 Q881.1829,68.1519 881.5979,68.3716 L881.5979,70.3735 Q881.134,69.9463 880.6976,69.7479 Q880.2612,69.5496 879.7974,69.5496 Q878.8086,69.5496 878.3051,70.3339 Q877.8015,71.1182 877.8015,72.6624 Q877.8015,74.2004 878.3051,74.9847 Q878.8086,75.769 879.7974,75.769 Q880.2612,75.769 880.6976,75.5707 Q881.134,75.3723 881.5979,74.9451 Z " fill="#000000"/><text fill="#D8BC00" font-family="Open Sans,Avenir,Nunito,Arial,Helvetica,SansSerif" font-size="12.5" font-weight="bold" lengthAdjust="spacing" textLength="136.4583" x="902.6042" y="77.2461">FastHuffmanDecoder</text><rect fill="#333333" height="23.055" style="stroke:#A0A0A0;stroke-width:1.0416666666666667;stroke-dasharray:2.0,2.0;" width="56.25" x="1105.2083" y="53.7028"/><text fill="#A0A0A0" font-family="Open Sans,Avenir,Nunito,Arial,Helvetica,SansSerif" font-size="12.5" font-weight="bold" lengthAdjust="spacing" textLength="47.9167" x="1109.375" y="69.9544">Symbol</text><line style="stroke:#5E5E5E;stroke-width:1.5625;" x1="811.4583" x2="1157.2917" y1="88.2161" y2="88.2161"/><ellipse cx="821.875" cy="123.586" fill="#84BE84" rx="3.125" ry="3.125" style="stroke:#038048;stroke-width:1.0416666666666667;"/><text fill="#D8BC00" font-family="Open Sans,Avenir,Nunito,Arial,Helvetica,SansSerif" font-size="11.4583" lengthAdjust="spacing" textLength="268.75" x="833.3333" y="130.4972">FastHuffmanDecoder(HuffmanCodec&lt;Symbol&gt;)</text><line style="stroke:#5E5E5E;stroke-width:1.0416666666666667;" x1="811.4583" x2="940.625" y1="106.4219" y2="106.4219"/><text fill="#D8BC00" font-family="Open Sans,Avenir,Nunito,Arial,Helvetica,SansSerif" font-size="11.4583" lengthAdjust="spacing" textLength="81.25" x="943.75" y="110.2315">(constructors)</text><line style="stroke:#5E5E5E;stroke-width:1.0416666666666667;" x1="1028.125" x2="1157.2917" y1="106.4219" y2="106.4219"/><line style="stroke:#5E5E5E;stroke-width:1.0416666666666667;" x1="811.4583" x2="1157.2917" y1="140.2059" y2="140.2059"/><ellipse cx="821.875" cy="151.6642" fill="#84BE84" rx="3.125" ry="3.125" style="stroke:#038048;stroke-width:1.0416666666666667;"/><text fill="#D8BC00" font-family="Open Sans,Avenir,Nunito,Arial,Helvetica,SansSerif" font-size="11.4583" lengthAdjust="spacing" textLength="315.625" x="833.3333" y="158.5754">void decode(ByteList input, SymbolConsumer&lt;Symbol&gt;)</text><!--MD5=[0694993cfa3ff74ed48baeb4633f0f47]
class HuffmanCodec--><rect codeLine="26" fill="#282828" height="234.0922" id="HuffmanCodec" rx="8.3333" ry="8.3333" style="stroke:#5E5E5E;stroke-width:1.0416666666666667;" width="404.1667" x="9.375" y="230.7861"/><rect fill="#1B1B1A" height="31.3883" rx="8.3333" ry="8.3333" style="stroke:#1B1B1A;stroke-width:1.0416666666666667;" width="404.1667" x="9.375" y="230.7861"/><rect fill="#1B1B1A" height="8.3333" style="stroke:#1B1B1A;stroke-width:1.0416666666666667;" width="404.1667" x="9.375" y="253.8411"/><rect codeLine="26" fill="none" height="234.0922" id="HuffmanCodec" rx="8.3333" ry="8.3333" style="stroke:#5E5E5E;stroke-width:1.0416666666666667;" width="404.1667" x="9.375" y="230.7861"/><ellipse cx="127.0833" cy="246.4803" fill="#0066CF" rx="10.4167" ry="10.4167" style="stroke:#0086EF;stroke-width:1.0416666666666667;"/><path d="M128.9937,250.9054 Q128.5665,251.1251 128.0965,251.2349 Q127.6265,251.3448 127.1077,251.3448 Q125.2645,251.3448 124.294,250.1302 Q123.3236,248.9156 123.3236,246.6207 Q123.3236,244.3197 124.294,243.1051 Q125.2645,241.8905 127.1077,241.8905 Q127.6265,241.8905 128.1026,242.0003 Q128.5787,242.1102 128.9937,242.3299 L128.9937,244.3319 Q128.5299,243.9046 128.0935,243.7063 Q127.6571,243.5079 127.1932,243.5079 Q126.2044,243.5079 125.7009,244.2922 Q125.1973,245.0765 125.1973,246.6207 Q125.1973,248.1588 125.7009,248.9431 Q126.2044,249.7274 127.1932,249.7274 Q127.6571,249.7274 128.0935,249.529 Q128.5299,249.3306 128.9937,248.9034 Z " fill="#000000"/><text fill="#D8BC00" font-family="Open Sans,Avenir,Nunito,Arial,Helvetica,SansSerif" font-size="12.5" font-weight="bold" lengthAdjust="spacing" textLength="95.8333" x="150" y="251.2044">HuffmanCodec</text><rect fill="#333333" height="23.055" style="stroke:#A0A0A0;stroke-width:1.0416666666666667;stroke-dasharray:2.0,2.0;" width="56.25" x="360.4167" y="227.6611"/><text fill="#A0A0A0" font-family="Open Sans,Avenir,Nunito,Arial,Helvetica,SansSerif" font-size="12.5" font-weight="bold" lengthAdjust="spacing" textLength="47.9167" x="364.5833" y="243.9128">Symbol</text><line style="stroke:#5E5E5E;stroke-width:1.5625;" x1="10.4167" x2="412.5" y1="262.1745" y2="262.1745"/><polygon fill="#FFFF44" points="20.8333,292.336,25,296.5027,20.8333,300.6694,16.6667,296.5027" style="stroke:#B38D22;stroke-width:1.0416666666666667;"/><text fill="#D8BC00" font-family="Open Sans,Avenir,Nunito,Arial,Helvetica,SansSerif" font-size="11.4583" lengthAdjust="spacing" textLength="91.6667" x="32.2917" y="304.4556">HuffmanCodec()</text><line style="stroke:#5E5E5E;stroke-width:1.0416666666666667;" x1="10.4167" x2="167.7083" y1="280.3802" y2="280.3802"/><text fill="#D8BC00" font-family="Open Sans,Avenir,Nunito,Arial,Helvetica,SansSerif" font-size="11.4583" lengthAdjust="spacing" textLength="81.25" x="170.8333" y="284.1899">(constructors)</text><line style="stroke:#5E5E5E;stroke-width:1.0416666666666667;" x1="255.2083" x2="412.5" y1="280.3802" y2="280.3802"/><line style="stroke:#5E5E5E;stroke-width:1.0416666666666667;" x1="10.4167" x2="412.5" y1="314.1642" y2="314.1642"/><ellipse cx="20.8333" cy="325.6226" fill="#84BE84" rx="3.125" ry="3.125" style="stroke:#038048;stroke-width:1.0416666666666667;"/><text fill="#D8BC00" font-family="Open Sans,Avenir,Nunito,Arial,Helvetica,SansSerif" font-size="11.4583" lengthAdjust="spacing" textLength="140.625" x="32.2917" y="332.5338">Code code(Symbol value)</text><ellipse cx="20.8333" cy="345.3674" fill="#84BE84" rx="3.125" ry="3.125" style="stroke:#038048;stroke-width:1.0416666666666667;"/><text fill="#D8BC00" font-family="Open Sans,Avenir,Nunito,Arial,Helvetica,SansSerif" font-size="11.4583" lengthAdjust="spacing" textLength="264.5833" x="32.2917" y="352.2786">Set&lt;CodedSymbol&lt;Symbol&gt;&gt; codedSymbols()</text><ellipse cx="20.8333" cy="365.1123" fill="#84BE84" rx="3.125" ry="3.125" style="stroke:#038048;stroke-width:1.0416666666666667;"/><text fill="#D8BC00" font-family="Open Sans,Avenir,Nunito,Arial,Helvetica,SansSerif" font-size="11.4583" lengthAdjust="spacing" textLength="240.625" x="32.2917" y="372.0235">CodedSymbol&lt;Symbol&gt; decode(BitReader)</text><ellipse cx="20.8333" cy="384.8572" fill="#84BE84" rx="3.125" ry="3.125" style="stroke:#038048;stroke-width:1.0416666666666667;"/><text fill="#D8BC00" font-family="Open Sans,Avenir,Nunito,Arial,Helvetica,SansSerif" font-size="11.4583" lengthAdjust="spacing" textLength="186.4583" x="32.2917" y="391.7684">CodedSymbol&lt;Symbol&gt; escape()</text><ellipse cx="20.8333" cy="404.6021" fill="#84BE84" rx="3.125" ry="3.125" style="stroke:#038048;stroke-width:1.0416666666666667;"/><text fill="#D8BC00" font-family="Open Sans,Avenir,Nunito,Arial,Helvetica,SansSerif" font-size="11.4583" lengthAdjust="spacing" textLength="371.875" x="32.2917" y="411.5133">HuffmanCodec&lt;Symbol&gt; from(Symbols&lt;Symbol&gt;, Maximum bits)</text><ellipse cx="20.8333" cy="448.2585" fill="#84BE84" rx="3.125" ry="3.125" style="stroke:#038048;stroke-width:1.0416666666666667;"/><text fill="#D8BC00" font-family="Open Sans,Avenir,Nunito,Arial,Helvetica,SansSerif" font-size="11.4583" lengthAdjust="spacing" textLength="301.0417" x="32.2917" y="455.1697">PropertyMap asProperties(StringConverter&lt;Symbol&gt;)</text><line style="stroke:#5E5E5E;stroke-width:1.0416666666666667;" x1="10.4167" x2="177.0833" y1="431.0944" y2="431.0944"/><text fill="#D8BC00" font-family="Open Sans,Avenir,Nunito,Arial,Helvetica,SansSerif" font-size="11.4583" lengthAdjust="spacing" textLength="62.5" x="180.2083" y="434.904">(collection)</text><line style="stroke:#5E5E5E;stroke-width:1.0416666666666667;" x1="245.8333" x2="412.5" y1="431.0944" y2="431.0944"/><!--MD5=[464856e56007ed2ccda2d036de719e08]
class FastHuffmanDecoder.Table--><rect codeLine="41" fill="#282828" height="83.3781" id="FastHuffmanDecoder.Table" rx="8.3333" ry="8.3333" style="stroke:#5E5E5E;stroke-width:1.0416666666666667;" width="270.8333" x="450" y="306.307"/><rect fill="#1B1B1A" height="31.3883" rx="8.3333" ry="8.3333" style="stroke:#1B1B1A;stroke-width:1.0416666666666667;" width="270.8333" x="450" y="306.307"/><rect fill="#1B1B1A" height="8.3333" style="stroke:#1B1B1A;stroke-width:1.0416666666666667;" width="270.8333" x="450" y="329.362"/><rect codeLine="41" fill="none" height="83.3781" id="FastHuffmanDecoder.Table" rx="8.3333" ry="8.3333" style="stroke:#5E5E5E;stroke-width:1.0416666666666667;" width="270.8333" x="450" y="306.307"/><ellipse cx="464.5833" cy="322.0011" fill="#0066CF" rx="10.4167" ry="10.4167" style="stroke:#0086EF;stroke-width:1.0416666666666667;"/><path d="M466.4937,326.4262 Q466.0665,326.6459 465.5965,326.7558 Q465.1265,326.8656 464.6077,326.8656 Q462.7645,326.8656 461.794,325.651 Q460.8236,324.4364 460.8236,322.1415 Q460.8236,319.8405 461.794,318.6259 Q462.7645,317.4113 464.6077,317.4113 Q465.1265,317.4113 465.6026,317.5212 Q466.0787,317.631 466.4937,317.8507 L466.4937,319.8527 Q466.0299,319.4255 465.5935,319.2271 Q465.1571,319.0287 464.6932,319.0287 Q463.7044,319.0287 463.2009,319.813 Q462.6973,320.5973 462.6973,322.1415 Q462.6973,323.6796 463.2009,324.4639 Q463.7044,325.2482 464.6932,325.2482 Q465.1571,325.2482 465.5935,325.0498 Q466.0299,324.8515 466.4937,324.4242 Z " fill="#000000"/><text fill="#D8BC00" font-family="Open Sans,Avenir,Nunito,Arial,Helvetica,SansSerif" font-size="12.5" font-weight="bold" lengthAdjust="spacing" textLength="175" x="481.25" y="326.7253">FastHuffmanDecoder.Table</text><rect fill="#333333" height="23.055" style="stroke:#A0A0A0;stroke-width:1.0416666666666667;stroke-dasharray:2.0,2.0;" width="56.25" x="667.7083" y="303.182"/><text fill="#A0A0A0" font-family="Open Sans,Avenir,Nunito,Arial,Helvetica,SansSerif" font-size="12.5" font-weight="bold" lengthAdjust="spacing" textLength="47.9167" x="671.875" y="319.4336">Symbol</text><line style="stroke:#5E5E5E;stroke-width:1.5625;" x1="451.0417" x2="719.7917" y1="337.6953" y2="337.6953"/><polygon fill="#FFFF44" points="461.4583,367.8569,465.625,372.0235,461.4583,376.1902,457.2917,372.0235" style="stroke:#B38D22;stroke-width:1.0416666666666667;"/><text fill="#D8BC00" font-family="Open Sans,Avenir,Nunito,Arial,Helvetica,SansSerif" font-size="11.4583" lengthAdjust="spacing" textLength="38.5417" x="472.9167" y="379.9764">Table()</text><line style="stroke:#5E5E5E;stroke-width:1.0416666666666667;" x1="451.0417" x2="541.6667" y1="355.9011" y2="355.9011"/><text fill="#D8BC00" font-family="Open Sans,Avenir,Nunito,Arial,Helvetica,SansSerif" font-size="11.4583" lengthAdjust="spacing" textLength="81.25" x="544.7917" y="359.7107">(constructors)</text><line style="stroke:#5E5E5E;stroke-width:1.0416666666666667;" x1="629.1667" x2="719.7917" y1="355.9011" y2="355.9011"/><!--MD5=[74ec420aca61a090bed5d1c78d71417b]
reverse link Stringable to FastHuffmanDecoder.Table.Entry--><path codeLine="10" d="M746.0208,154.8799 C770.9896,197.5778 809.7396,263.8382 834.5625,306.2965 " fill="none" id="Stringable-backto-FastHuffmanDecoder.Table.Entry" style="stroke:#545454;stroke-width:1.5625;"/><polygon fill="none" points="739.6771,158.4945,735.4583,136.8278,752.2708,151.1299,739.6771,158.4945" style="stroke:#545454;stroke-width:1.5625;"/><!--MD5=[81743108a6ea9cbce914b8abe114774a]
reverse link Codec to HuffmanCodec--><path codeLine="25" d="M211.4583,157.9215 C211.4583,178.7653 211.4583,204.7028 211.4583,230.6195 " fill="none" id="Codec-backto-HuffmanCodec" style="stroke:#545454;stroke-width:1.5625;"/><polygon fill="none" points="204.1667,157.6611,211.4583,136.8278,218.75,157.6611,204.1667,157.6611" style="stroke:#545454;stroke-width:1.5625;"/><!--MD5=[b4208227dd9ae27b1cf08e19788a75c2]
reverse link Stringable to FastHuffmanDecoder.Table--><path codeLine="40" d="M697.7292,154.8799 C672.7604,197.5778 634.0104,263.8382 609.1875,306.2965 " fill="none" id="Stringable-backto-FastHuffmanDecoder.Table" style="stroke:#545454;stroke-width:1.5625;"/><polygon fill="none" points="691.4792,151.1299,708.2917,136.8278,704.0729,158.4945,691.4792,151.1299" style="stroke:#545454;stroke-width:1.5625;"/><!--MD5=[3610664b2ef8c2313ae07b3325bfa7e4]
@startuml

    !include lexakai.theme
    
    title "com.telenav.kivakit.data.compression.codecs.huffman"
    
    interface Codec
    interface Stringable
    
    Stringable <|- - FastHuffmanDecoder.Table.Entry
    class FastHuffmanDecoder.Table.Entry<Symbol>
    {
        - -(constructors)- -
        #Entry()
    }
    
    class FastHuffmanDecoder<Symbol>
    {
        - -(constructors)- -
        +FastHuffmanDecoder(HuffmanCodec<Symbol>)
        - -
        +void decode(ByteList input, SymbolConsumer<Symbol>)
    }
    
    Codec <|- - HuffmanCodec
    class HuffmanCodec<Symbol>
    {
        - -(constructors)- -
        #HuffmanCodec()
        - -
        +Code code(Symbol value)
        +Set<CodedSymbol<Symbol>> codedSymbols()
        +CodedSymbol<Symbol> decode(BitReader)
        +CodedSymbol<Symbol> escape()
        +HuffmanCodec<Symbol> from(Symbols<Symbol>, Maximum bits)
        - -(collection)- -
        +PropertyMap asProperties(StringConverter<Symbol>)
    }
    
    Stringable <|- - FastHuffmanDecoder.Table
    class FastHuffmanDecoder.Table<Symbol>
    {
        - -(constructors)- -
        #Table()
    }
    
@enduml

@startuml









skinparam backgroundColor #333333






skinparam  {
    defaultFontName   "Open Sans,Avenir,Nunito,Arial,Helvetica,SansSerif"
    defaultFontSize   12
    defaultTextAlignment left
    shadowing false
    RoundCorner 10
    TitleFontSize 18
}

skinparam defaultFontName       "Open Sans,Avenir,Nunito,Arial,Helvetica,SansSerif"
skinparam defaultFontSize       12
skinparam dpi                   100
skinparam shadowing             false
skinparam roundcorner           16
skinparam ParticipantPadding    40
skinparam BoxPadding            40
skinparam Padding               3
skinparam ArrowColor            #545454
skinparam stereotype {
    CBackgroundColor #0066cf
    CBorderColor #0086ef
    ABackgroundColor #C8Ac00
    ABorderColor #D8Bc00
    IBackgroundColor #008400
    IBorderColor #239c23
    EBackgroundColor #cf6300
    EBorderColor #ef8300
    NBackgroundColor #3380b9
    NBorderColor #004d86
}
skinparam title {
	FontColor	                 #c0c0c0
 	BorderColor                  #545454
	FontSize	    	         20
	BorderRoundCorner            16
	BorderThickness 	         1
	BackgroundColor              #48494b
}


skinparam legend {
	BackgroundColor #303030
	BorderColor #404040
	FontColor #a0a0a0
}

	skinparam swimlane {
	BorderColor #5e5e5e
	BorderThickness 2
	TitleBackgroundColor  #6d6d6d-#484848
	TitleFontColor #303030
}

skinparam activity {
		FontColor #C8Ac00
	BorderColor #333333
	BackgroundColor #333333-#333333
	BarColor #00FF00
	StartColor #0060a8
	EndColor #0060a8
	DiamondBackgroundColor #6d6d6d-#3a3a3a
  	DiamondBorderColor #3a3a3a
  	DiamondFontColor #fefefe
}


skinparam participant {
		FontColor #C8Ac00
	BorderColor #333333
	BackgroundColor #333333-#333333
	ParticipantBorderThickness 2
}


skinparam actor {
		FontColor #C8Ac00
	BorderColor #333333
	BackgroundColor #333333-#333333
}


skinparam arrow {
	Thickness 1.5
	Color #545454
	FontColor #a0a0a0
    FontStyle bold
    MessageAlignment center
}



skinparam sequence {
	BorderColor #303030
	TitleFontColor #303030
	BackgroundColor #333333
	StartColor #303030
	EndColor #303030
	BoxBackgroundColor #333333
	BoxBorderColor #484848
	BoxFontColor #484848
	LifeLineBorderColor #484848
	LifeLineBorderThickness 2
	LifeLineBackgroundColor #3a3a3a
	GroupBorderColor #484848
	GroupFontColor #484848
	GroupHeaderFontColor #0060a8
	GroupBackgroundColor #484848
	GroupHeaderBackgroundColor #333333
	DividerBackgroundColor #484848
    DividerBorderColor #484848
    DividerBorderThickness 2
    DividerFontColor #D8Bc00
	ReferenceBackgroundColor #333333
	ReferenceBorderColor #484848
	ReferenceFontColor #fefefe
	ReferenceHeaderBackgroundColor #484848
}


skinparam partition {
	BorderColor #303030
	FontColor #333333
	BackgroundColor #333333
}


skinparam collections {
		FontColor #C8Ac00
	BorderColor #333333
	BackgroundColor #333333-#333333
}


skinparam control {
		FontColor #C8Ac00
	BorderColor #333333
	BackgroundColor #333333-#333333
}


skinparam entity {
		FontColor #C8Ac00
	BorderColor #333333
	BackgroundColor #333333-#333333
}


skinparam boundary {
		FontColor #C8Ac00
	BorderColor #333333
	BackgroundColor #333333-#333333
}


skinparam agent {
	BackgroundColor #ff8000
	BorderColor #ff9933
	FontColor #484848
}


skinparam note {
	BorderThickness 1
	BackgroundColor #1b1b1a
	BorderColor #5e5e5e
	FontSize 11
	FontColor #a0a0a0
}


skinparam artifact {
	BorderThickness 10
	BorderColor #5e5e5e
	BackgroundColor #1b1b1a
	FontColor #D8Bc00
}


skinparam component {
		FontColor #C8Ac00
	BorderColor #333333
	BackgroundColor #333333-#333333
}


skinparam interface {
	BackgroundColor  #008400
	BorderColor  #007F00
	FontColor #484848
}


skinparam storage {
	BackgroundColor #ff8000
  	BorderColor #cc6600
	FontColor #222222
}


skinparam node {
	BackgroundColor #333333
	BorderColor #333333
	FontColor #C8Ac00
}


skinparam cloud {
	BackgroundColor #484848-black
	BorderColor #484848
	FontColor #D8Bc00
}


skinparam database {
		FontColor #C8Ac00
	BorderColor #333333
	BackgroundColor #333333-#333333
	BackgroundColor  #333333
}


skinparam class {
		FontColor #C8Ac00
	BorderColor #333333
	BackgroundColor #333333-#333333
	HeaderBackgroundColor #1b1b1a
    BackgroundColor #282828
    BorderColor #5e5e5e
 	StereotypeFontColor #a0a0a0
    StereotypeFontStyle bold
	BorderThickness 1
	AttributeFontColor #D8Bc00
	AttributeFontSize 11
    FontColor #D8Bc00
    FontStyle bold
}


skinparam object {
		FontColor #C8Ac00
	BorderColor #333333
	BackgroundColor #333333-#333333
	StereotypeFontColor #484848
	BorderThickness 1
	AttributeFontColor #fefefe
	AttributeFontSize 11
}


skinparam usecase {
		FontColor #C8Ac00
	BorderColor #333333
	BackgroundColor #333333-#333333
	BorderThickness 2
	StereotypeFontColor #303030
}


skinparam rectangle {
		FontColor #C8Ac00
	BorderColor #333333
	BackgroundColor #333333-#333333
	BackgroundColor #333333
	BorderThickness 2
	StereotypeFontColor #303030
}


skinparam package {
		FontColor #C8Ac00
	BorderColor #333333
	BackgroundColor #333333-#333333
	BackgroundColor #333333
	BorderThickness 2
}


skinparam folder {
	BackgroundColor #6d6d6d
  	BorderColor #ff8000
	FontColor #ff8000
	BorderThickness 2
}


skinparam frame {
	BackgroundColor #6d6d6d
  	BorderColor #0060a8
	FontColor #0060a8
	BorderThickness 2
}


skinparam state {
		FontColor #C8Ac00
	BorderColor #333333
	BackgroundColor #333333-#333333
	StartColor #0060a8
	EndColor #0060a8
	AttributeFontColor #fefefe
	AttributeFontSize 11
}


skinparam queue {
		FontColor #C8Ac00
	BorderColor #333333
	BackgroundColor #333333-#333333
}


skinparam card {
	BackgroundColor #0060a8
	BorderColor #004d86
	FontColor $INFO_TEXT
}


skinparam file {
	BackgroundColor #6d6d6d-#484848
	BorderColor #0060a8
	FontColor #fefefe
}


skinparam stack {
		FontColor #C8Ac00
	BorderColor #333333
	BackgroundColor #333333-#333333
}

    
    title "com.telenav.kivakit.data.compression.codecs.huffman"
    
    interface Codec
    interface Stringable
    
    Stringable <|- - FastHuffmanDecoder.Table.Entry
    class FastHuffmanDecoder.Table.Entry<Symbol>
    {
        - -(constructors)- -
        #Entry()
    }
    
    class FastHuffmanDecoder<Symbol>
    {
        - -(constructors)- -
        +FastHuffmanDecoder(HuffmanCodec<Symbol>)
        - -
        +void decode(ByteList input, SymbolConsumer<Symbol>)
    }
    
    Codec <|- - HuffmanCodec
    class HuffmanCodec<Symbol>
    {
        - -(constructors)- -
        #HuffmanCodec()
        - -
        +Code code(Symbol value)
        +Set<CodedSymbol<Symbol>> codedSymbols()
        +CodedSymbol<Symbol> decode(BitReader)
        +CodedSymbol<Symbol> escape()
        +HuffmanCodec<Symbol> from(Symbols<Symbol>, Maximum bits)
        - -(collection)- -
        +PropertyMap asProperties(StringConverter<Symbol>)
    }
    
    Stringable <|- - FastHuffmanDecoder.Table
    class FastHuffmanDecoder.Table<Symbol>
    {
        - -(constructors)- -
        #Table()
    }
    
@enduml

PlantUML version 1.2021.01(Tue Feb 02 00:55:08 MST 2021)
(GPL source distribution)
Java Runtime: OpenJDK Runtime Environment
JVM: OpenJDK 64-Bit Server VM
Default Encoding: UTF-8
Language: en
Country: US
--></g></svg>