<?xml version="1.0" encoding="UTF-8" standalone="no"?><svg xmlns="http://www.w3.org/2000/svg" xmlns:xlink="http://www.w3.org/1999/xlink" contentScriptType="application/ecmascript" contentStyleType="text/css" height="640.625px" preserveAspectRatio="none" style="width:1280px;height:640px;background:#333333;" version="1.1" viewBox="0 0 1280 640" width="1280.2083px" zoomAndPan="magnify"><defs/><g><rect fill="#48494B" height="41.2028" rx="8.3333" ry="8.3333" style="stroke:#545454;stroke-width:1.0416666666666667;" width="250" x="507.8125" y="2.0833"/><text fill="#C0C0C0" font-family="Open Sans,Avenir,Nunito,Arial,Helvetica,SansSerif" font-size="20.8333" lengthAdjust="spacing" textLength="227.0833" x="519.2708" y="30.5583">kivakit-network-email</text><!--MD5=[53e810a96c27d4bd25e6a3839aaba16b]
entity gson--><rect fill="#1B1B1A" height="44.93" rx="8.3333" ry="8.3333" style="stroke:#5E5E5E;stroke-width:1.5625;" width="65.625" x="880.7292" y="375.5778"/><polygon fill="#1B1B1A" points="928.6458,380.7861,928.6458,395.3695,941.1458,395.3695,941.1458,387.0361,934.8958,380.7861,928.6458,380.7861" style="stroke:#5E5E5E;stroke-width:1.5625;"/><line style="stroke:#5E5E5E;stroke-width:1.5625;" x1="934.8958" x2="934.8958" y1="380.7861" y2="387.0361"/><line style="stroke:#5E5E5E;stroke-width:1.5625;" x1="941.1458" x2="934.8958" y1="387.0361" y2="387.0361"/><text fill="#D8BC00" font-family="Open Sans,Avenir,Nunito,Arial,Helvetica,SansSerif" font-size="12.5" lengthAdjust="spacing" textLength="28.125" x="894.2708" y="404.3294">gson</text><!--MD5=[cf8915c4cc4a3841d75210ed75c73c91]
entity javax_activation--><rect fill="#1B1B1A" height="44.93" rx="8.3333" ry="8.3333" style="stroke:#5E5E5E;stroke-width:1.5625;" width="132.2917" x="48.4375" y="160.9945"/><polygon fill="#1B1B1A" points="163.0208,166.2028,163.0208,180.7861,175.5208,180.7861,175.5208,172.4528,169.2708,166.2028,163.0208,166.2028" style="stroke:#5E5E5E;stroke-width:1.5625;"/><line style="stroke:#5E5E5E;stroke-width:1.5625;" x1="169.2708" x2="169.2708" y1="166.2028" y2="172.4528"/><line style="stroke:#5E5E5E;stroke-width:1.5625;" x1="175.5208" x2="169.2708" y1="172.4528" y2="172.4528"/><text fill="#D8BC00" font-family="Open Sans,Avenir,Nunito,Arial,Helvetica,SansSerif" font-size="12.5" lengthAdjust="spacing" textLength="94.7917" x="61.9792" y="189.7461">javax_activation</text><!--MD5=[1c663fe9a961659935f939a1b6c051d3]
entity javax_mail--><rect fill="#1B1B1A" height="44.93" rx="8.3333" ry="8.3333" style="stroke:#5E5E5E;stroke-width:1.5625;" width="101.0417" x="217.1875" y="160.9945"/><polygon fill="#1B1B1A" points="300.5208,166.2028,300.5208,180.7861,313.0208,180.7861,313.0208,172.4528,306.7708,166.2028,300.5208,166.2028" style="stroke:#5E5E5E;stroke-width:1.5625;"/><line style="stroke:#5E5E5E;stroke-width:1.5625;" x1="306.7708" x2="306.7708" y1="166.2028" y2="172.4528"/><line style="stroke:#5E5E5E;stroke-width:1.5625;" x1="313.0208" x2="306.7708" y1="172.4528" y2="172.4528"/><text fill="#D8BC00" font-family="Open Sans,Avenir,Nunito,Arial,Helvetica,SansSerif" font-size="12.5" lengthAdjust="spacing" textLength="63.5417" x="230.7292" y="189.7461">javax_mail</text><!--MD5=[4aa4ddcf3dc6d6219283db0a9fd05165]
entity cactus_build_metadata--><rect fill="#1B1B1A" height="44.93" rx="8.3333" ry="8.3333" style="stroke:#5E5E5E;stroke-width:1.5625;" width="175" x="7.2917" y="482.8695"/><polygon fill="#1B1B1A" points="164.5833,488.0778,164.5833,502.6611,177.0833,502.6611,177.0833,494.3278,170.8333,488.0778,164.5833,488.0778" style="stroke:#5E5E5E;stroke-width:1.5625;"/><line style="stroke:#5E5E5E;stroke-width:1.5625;" x1="170.8333" x2="170.8333" y1="488.0778" y2="494.3278"/><line style="stroke:#5E5E5E;stroke-width:1.5625;" x1="177.0833" x2="170.8333" y1="494.3278" y2="494.3278"/><text fill="#D8BC00" font-family="Open Sans,Avenir,Nunito,Arial,Helvetica,SansSerif" font-size="12.5" lengthAdjust="spacing" textLength="137.5" x="20.8333" y="511.6211">cactus_build_metadata</text><!--MD5=[4facc4376e4b6bfc182ce14f42a813f9]
entity kivakit_collections--><rect fill="#1B1B1A" height="44.93" rx="8.3333" ry="8.3333" style="stroke:#5E5E5E;stroke-width:1.5625;" width="143.75" x="643.75" y="375.5778"/><polygon fill="#1B1B1A" points="769.7917,380.7861,769.7917,395.3695,782.2917,395.3695,782.2917,387.0361,776.0417,380.7861,769.7917,380.7861" style="stroke:#5E5E5E;stroke-width:1.5625;"/><line style="stroke:#5E5E5E;stroke-width:1.5625;" x1="776.0417" x2="776.0417" y1="380.7861" y2="387.0361"/><line style="stroke:#5E5E5E;stroke-width:1.5625;" x1="782.2917" x2="776.0417" y1="387.0361" y2="387.0361"/><text fill="#D8BC00" font-family="Open Sans,Avenir,Nunito,Arial,Helvetica,SansSerif" font-size="12.5" lengthAdjust="spacing" textLength="106.25" x="657.2917" y="404.3294">kivakit_collections</text><!--MD5=[b7af8d5b7902cf06664f76dfe0f9e426]
entity kivakit_commandline--><rect fill="#1B1B1A" height="44.93" rx="8.3333" ry="8.3333" style="stroke:#5E5E5E;stroke-width:1.5625;" width="162.5" x="448.9583" y="268.2861"/><polygon fill="#1B1B1A" points="593.75,273.4945,593.75,288.0778,606.25,288.0778,606.25,279.7445,600,273.4945,593.75,273.4945" style="stroke:#5E5E5E;stroke-width:1.5625;"/><line style="stroke:#5E5E5E;stroke-width:1.5625;" x1="600" x2="600" y1="273.4945" y2="279.7445"/><line style="stroke:#5E5E5E;stroke-width:1.5625;" x1="606.25" x2="600" y1="279.7445" y2="279.7445"/><text fill="#D8BC00" font-family="Open Sans,Avenir,Nunito,Arial,Helvetica,SansSerif" font-size="12.5" lengthAdjust="spacing" textLength="125" x="462.5" y="297.0378">kivakit_commandline</text><!--MD5=[dafc80021cd29aae9231cf20b1d6436c]
entity kivakit_conversion--><rect fill="#1B1B1A" height="44.93" rx="8.3333" ry="8.3333" style="stroke:#5E5E5E;stroke-width:1.5625;" width="145.8333" x="266.6667" y="268.2861"/><polygon fill="#1B1B1A" points="394.7917,273.4945,394.7917,288.0778,407.2917,288.0778,407.2917,279.7445,401.0417,273.4945,394.7917,273.4945" style="stroke:#5E5E5E;stroke-width:1.5625;"/><line style="stroke:#5E5E5E;stroke-width:1.5625;" x1="401.0417" x2="401.0417" y1="273.4945" y2="279.7445"/><line style="stroke:#5E5E5E;stroke-width:1.5625;" x1="407.2917" x2="401.0417" y1="279.7445" y2="279.7445"/><text fill="#D8BC00" font-family="Open Sans,Avenir,Nunito,Arial,Helvetica,SansSerif" font-size="12.5" lengthAdjust="spacing" textLength="108.3333" x="280.2083" y="297.0378">kivakit_conversion</text><!--MD5=[ae4286fb09ce878b5ed12f89a26eee54]
entity kivakit_core--><rect fill="#1B1B1A" height="44.93" rx="8.3333" ry="8.3333" style="stroke:#5E5E5E;stroke-width:1.5625;" width="108.3333" x="318.75" y="375.5778"/><polygon fill="#1B1B1A" points="409.375,380.7861,409.375,395.3695,421.875,395.3695,421.875,387.0361,415.625,380.7861,409.375,380.7861" style="stroke:#5E5E5E;stroke-width:1.5625;"/><line style="stroke:#5E5E5E;stroke-width:1.5625;" x1="415.625" x2="415.625" y1="380.7861" y2="387.0361"/><line style="stroke:#5E5E5E;stroke-width:1.5625;" x1="421.875" x2="415.625" y1="387.0361" y2="387.0361"/><text fill="#D8BC00" font-family="Open Sans,Avenir,Nunito,Arial,Helvetica,SansSerif" font-size="12.5" lengthAdjust="spacing" textLength="70.8333" x="332.2917" y="404.3294">kivakit_core</text><!--MD5=[b582392a7118229602de187c1b0722c2]
entity kivakit_interfaces--><rect fill="#1B1B1A" height="44.93" rx="8.3333" ry="8.3333" style="stroke:#5E5E5E;stroke-width:1.5625;" width="140.625" x="219.2708" y="482.8695"/><polygon fill="#1B1B1A" points="342.1875,488.0778,342.1875,502.6611,354.6875,502.6611,354.6875,494.3278,348.4375,488.0778,342.1875,488.0778" style="stroke:#5E5E5E;stroke-width:1.5625;"/><line style="stroke:#5E5E5E;stroke-width:1.5625;" x1="348.4375" x2="348.4375" y1="488.0778" y2="494.3278"/><line style="stroke:#5E5E5E;stroke-width:1.5625;" x1="354.6875" x2="348.4375" y1="494.3278" y2="494.3278"/><text fill="#D8BC00" font-family="Open Sans,Avenir,Nunito,Arial,Helvetica,SansSerif" font-size="12.5" lengthAdjust="spacing" textLength="103.125" x="232.8125" y="511.6211">kivakit_interfaces</text><!--MD5=[f41257055ff6c31a77f8312d5e694f18]
entity kivakit_mixins--><rect fill="#1B1B1A" height="44.93" rx="8.3333" ry="8.3333" style="stroke:#5E5E5E;stroke-width:1.5625;" width="120.8333" x="396.875" y="482.8695"/><polygon fill="#1B1B1A" points="500,488.0778,500,502.6611,512.5,502.6611,512.5,494.3278,506.25,488.0778,500,488.0778" style="stroke:#5E5E5E;stroke-width:1.5625;"/><line style="stroke:#5E5E5E;stroke-width:1.5625;" x1="506.25" x2="506.25" y1="488.0778" y2="494.3278"/><line style="stroke:#5E5E5E;stroke-width:1.5625;" x1="512.5" x2="506.25" y1="494.3278" y2="494.3278"/><text fill="#D8BC00" font-family="Open Sans,Avenir,Nunito,Arial,Helvetica,SansSerif" font-size="12.5" lengthAdjust="spacing" textLength="83.3333" x="410.4167" y="511.6211">kivakit_mixins</text><!--MD5=[69aef7896e565a816d1082fbfba261ce]
entity kivakit_network_core--><rect fill="#1B1B1A" height="44.93" rx="8.3333" ry="8.3333" style="stroke:#5E5E5E;stroke-width:1.5625;" width="162.5" x="355.2083" y="160.9945"/><polygon fill="#1B1B1A" points="500,166.2028,500,180.7861,512.5,180.7861,512.5,172.4528,506.25,166.2028,500,166.2028" style="stroke:#5E5E5E;stroke-width:1.5625;"/><line style="stroke:#5E5E5E;stroke-width:1.5625;" x1="506.25" x2="506.25" y1="166.2028" y2="172.4528"/><line style="stroke:#5E5E5E;stroke-width:1.5625;" x1="512.5" x2="506.25" y1="172.4528" y2="172.4528"/><text fill="#D8BC00" font-family="Open Sans,Avenir,Nunito,Arial,Helvetica,SansSerif" font-size="12.5" lengthAdjust="spacing" textLength="125" x="368.75" y="189.7461">kivakit_network_core</text><!--MD5=[d84cff18712397b12e53d50f3e2468e9]
entity kivakit_network_email--><rect fill="#1B1B1A" height="44.93" rx="8.3333" ry="8.3333" style="stroke:#5E5E5E;stroke-width:1.5625;" width="168.75" x="267.7083" y="53.7028"/><polygon fill="#1B1B1A" points="418.75,58.9111,418.75,73.4945,431.25,73.4945,431.25,65.1611,425,58.9111,418.75,58.9111" style="stroke:#5E5E5E;stroke-width:1.5625;"/><line style="stroke:#5E5E5E;stroke-width:1.5625;" x1="425" x2="425" y1="58.9111" y2="65.1611"/><line style="stroke:#5E5E5E;stroke-width:1.5625;" x1="431.25" x2="425" y1="65.1611" y2="65.1611"/><text fill="#D8BC00" font-family="Open Sans,Avenir,Nunito,Arial,Helvetica,SansSerif" font-size="12.5" lengthAdjust="spacing" textLength="131.25" x="281.25" y="82.4544">kivakit_network_email</text><!--MD5=[789122fdd47ca161e4432768ac68a470]
entity kivakit_resource--><rect fill="#1B1B1A" height="44.93" rx="8.3333" ry="8.3333" style="stroke:#5E5E5E;stroke-width:1.5625;" width="134.375" x="648.4375" y="268.2861"/><polygon fill="#1B1B1A" points="765.1042,273.4945,765.1042,288.0778,777.6042,288.0778,777.6042,279.7445,771.3542,273.4945,765.1042,273.4945" style="stroke:#5E5E5E;stroke-width:1.5625;"/><line style="stroke:#5E5E5E;stroke-width:1.5625;" x1="771.3542" x2="771.3542" y1="273.4945" y2="279.7445"/><line style="stroke:#5E5E5E;stroke-width:1.5625;" x1="777.6042" x2="771.3542" y1="279.7445" y2="279.7445"/><text fill="#D8BC00" font-family="Open Sans,Avenir,Nunito,Arial,Helvetica,SansSerif" font-size="12.5" lengthAdjust="spacing" textLength="96.875" x="661.9792" y="297.0378">kivakit_resource</text><!--MD5=[7b11bf8f6cdaefb37d9e26a0fe1bc824]
entity kivakit_serialization_gson--><rect fill="#1B1B1A" height="44.93" rx="8.3333" ry="8.3333" style="stroke:#5E5E5E;stroke-width:1.5625;" width="188.5417" x="819.2708" y="268.2861"/><polygon fill="#1B1B1A" points="990.1042,273.4945,990.1042,288.0778,1002.6042,288.0778,1002.6042,279.7445,996.3542,273.4945,990.1042,273.4945" style="stroke:#5E5E5E;stroke-width:1.5625;"/><line style="stroke:#5E5E5E;stroke-width:1.5625;" x1="996.3542" x2="996.3542" y1="273.4945" y2="279.7445"/><line style="stroke:#5E5E5E;stroke-width:1.5625;" x1="1002.6042" x2="996.3542" y1="279.7445" y2="279.7445"/><text fill="#D8BC00" font-family="Open Sans,Avenir,Nunito,Arial,Helvetica,SansSerif" font-size="12.5" lengthAdjust="spacing" textLength="151.0417" x="832.8125" y="297.0378">kivakit_serialization_gson</text><!--MD5=[89af034859c241291c45f10ab75c9d6f]
entity kivakit_serialization_properties--><rect fill="#1B1B1A" height="44.93" rx="8.3333" ry="8.3333" style="stroke:#5E5E5E;stroke-width:1.5625;" width="222.9167" x="1044.7917" y="268.2861"/><polygon fill="#1B1B1A" points="1250,273.4945,1250,288.0778,1262.5,288.0778,1262.5,279.7445,1256.25,273.4945,1250,273.4945" style="stroke:#5E5E5E;stroke-width:1.5625;"/><line style="stroke:#5E5E5E;stroke-width:1.5625;" x1="1256.25" x2="1256.25" y1="273.4945" y2="279.7445"/><line style="stroke:#5E5E5E;stroke-width:1.5625;" x1="1262.5" x2="1256.25" y1="279.7445" y2="279.7445"/><text fill="#D8BC00" font-family="Open Sans,Avenir,Nunito,Arial,Helvetica,SansSerif" font-size="12.5" lengthAdjust="spacing" textLength="185.4167" x="1058.3333" y="297.0378">kivakit_serialization_properties</text><!--MD5=[9ba95bb9e8e31957d019d7ac74b23042]
entity kivakit_settings--><rect fill="#1B1B1A" height="44.93" rx="8.3333" ry="8.3333" style="stroke:#5E5E5E;stroke-width:1.5625;" width="128.125" x="651.5625" y="160.9945"/><polygon fill="#1B1B1A" points="761.9792,166.2028,761.9792,180.7861,774.4792,180.7861,774.4792,172.4528,768.2292,166.2028,761.9792,166.2028" style="stroke:#5E5E5E;stroke-width:1.5625;"/><line style="stroke:#5E5E5E;stroke-width:1.5625;" x1="768.2292" x2="768.2292" y1="166.2028" y2="172.4528"/><line style="stroke:#5E5E5E;stroke-width:1.5625;" x1="774.4792" x2="768.2292" y1="172.4528" y2="172.4528"/><text fill="#D8BC00" font-family="Open Sans,Avenir,Nunito,Arial,Helvetica,SansSerif" font-size="12.5" lengthAdjust="spacing" textLength="90.625" x="665.1042" y="189.7461">kivakit_settings</text><!--MD5=[80d2a7f8a38f99556dcaa88e0cbe286e]
entity kivakit_validation--><rect fill="#1B1B1A" height="44.93" rx="8.3333" ry="8.3333" style="stroke:#5E5E5E;stroke-width:1.5625;" width="139.5833" x="463.5417" y="375.5778"/><polygon fill="#1B1B1A" points="585.4167,380.7861,585.4167,395.3695,597.9167,395.3695,597.9167,387.0361,591.6667,380.7861,585.4167,380.7861" style="stroke:#5E5E5E;stroke-width:1.5625;"/><line style="stroke:#5E5E5E;stroke-width:1.5625;" x1="591.6667" x2="591.6667" y1="380.7861" y2="387.0361"/><line style="stroke:#5E5E5E;stroke-width:1.5625;" x1="597.9167" x2="591.6667" y1="387.0361" y2="387.0361"/><text fill="#D8BC00" font-family="Open Sans,Avenir,Nunito,Arial,Helvetica,SansSerif" font-size="12.5" lengthAdjust="spacing" textLength="102.0833" x="477.0833" y="404.3294">kivakit_validation</text><!--MD5=[7b0fec798d1f32628676dfdf75f1f662]
entity lexakai_annotations--><rect fill="#1B1B1A" height="44.93" rx="8.3333" ry="8.3333" style="stroke:#5E5E5E;stroke-width:1.5625;" width="155.2083" x="116.1458" y="590.1611"/><polygon fill="#1B1B1A" points="253.6458,595.3695,253.6458,609.9528,266.1458,609.9528,266.1458,601.6195,259.8958,595.3695,253.6458,595.3695" style="stroke:#5E5E5E;stroke-width:1.5625;"/><line style="stroke:#5E5E5E;stroke-width:1.5625;" x1="259.8958" x2="259.8958" y1="595.3695" y2="601.6195"/><line style="stroke:#5E5E5E;stroke-width:1.5625;" x1="266.1458" x2="259.8958" y1="601.6195" y2="601.6195"/><text fill="#D8BC00" font-family="Open Sans,Avenir,Nunito,Arial,Helvetica,SansSerif" font-size="12.5" lengthAdjust="spacing" textLength="117.7083" x="129.6875" y="618.9128">lexakai_annotations</text><!--MD5=[ce55b294004802c137560c2930be5b75]
entity junit--><rect fill="#1B1B1A" height="44.93" rx="8.3333" ry="8.3333" style="stroke:#5E5E5E;stroke-width:1.5625;" width="63.5417" x="554.6875" y="482.8695"/><polygon fill="#1B1B1A" points="600.5208,488.0778,600.5208,502.6611,613.0208,502.6611,613.0208,494.3278,606.7708,488.0778,600.5208,488.0778" style="stroke:#5E5E5E;stroke-width:1.5625;"/><line style="stroke:#5E5E5E;stroke-width:1.5625;" x1="606.7708" x2="606.7708" y1="488.0778" y2="494.3278"/><line style="stroke:#5E5E5E;stroke-width:1.5625;" x1="613.0208" x2="606.7708" y1="494.3278" y2="494.3278"/><text fill="#D8BC00" font-family="Open Sans,Avenir,Nunito,Arial,Helvetica,SansSerif" font-size="12.5" lengthAdjust="spacing" textLength="26.0417" x="568.2292" y="511.6211">junit</text><!--MD5=[7f157d37bc1fd6ac970bb67ffdbc66a3]
entity hamcrest_core--><rect fill="#1B1B1A" height="44.93" rx="8.3333" ry="8.3333" style="stroke:#5E5E5E;stroke-width:1.5625;" width="125" x="523.9583" y="590.1611"/><polygon fill="#1B1B1A" points="631.25,595.3695,631.25,609.9528,643.75,609.9528,643.75,601.6195,637.5,595.3695,631.25,595.3695" style="stroke:#5E5E5E;stroke-width:1.5625;"/><line style="stroke:#5E5E5E;stroke-width:1.5625;" x1="637.5" x2="637.5" y1="595.3695" y2="601.6195"/><line style="stroke:#5E5E5E;stroke-width:1.5625;" x1="643.75" x2="637.5" y1="601.6195" y2="601.6195"/><text fill="#D8BC00" font-family="Open Sans,Avenir,Nunito,Arial,Helvetica,SansSerif" font-size="12.5" lengthAdjust="spacing" textLength="87.5" x="537.5" y="618.9128">hamcrest_core</text><!--MD5=[b728e17b4e4da6aa8cb97e9b2766c5e6]
entity annotations--><rect fill="#1B1B1A" height="44.93" rx="8.3333" ry="8.3333" style="stroke:#5E5E5E;stroke-width:1.5625;" width="106.25" x="308.3333" y="590.1611"/><polygon fill="#1B1B1A" points="396.875,595.3695,396.875,609.9528,409.375,609.9528,409.375,601.6195,403.125,595.3695,396.875,595.3695" style="stroke:#5E5E5E;stroke-width:1.5625;"/><line style="stroke:#5E5E5E;stroke-width:1.5625;" x1="403.125" x2="403.125" y1="595.3695" y2="601.6195"/><line style="stroke:#5E5E5E;stroke-width:1.5625;" x1="409.375" x2="403.125" y1="601.6195" y2="601.6195"/><text fill="#D8BC00" font-family="Open Sans,Avenir,Nunito,Arial,Helvetica,SansSerif" font-size="12.5" lengthAdjust="spacing" textLength="68.75" x="321.875" y="618.9128">annotations</text><!--MD5=[d68e7c4b3ca5f037bcb6997a0b4ed16b]
link junit to hamcrest_core--><path d="M586.4583,528.109 C586.4583,544.5778 586.4583,567.2757 586.4583,584.8278 " fill="none" id="junit-to-hamcrest_core" style="stroke:#545454;stroke-width:1.5625;"/><polygon fill="#545454" points="586.4583,590.109,590.625,580.734,586.4583,584.9007,582.2917,580.734,586.4583,590.109" style="stroke:#545454;stroke-width:1.5625;"/><!--MD5=[943c04cd0fe752834cf06c59f408a839]
link kivakit_commandline to kivakit_core--><path d="M498,313.2653 C472.3438,330.432 436.4063,354.4632 409.6354,372.3695 " fill="none" id="kivakit_commandline-to-kivakit_core" style="stroke:#545454;stroke-width:1.5625;"/><polygon fill="#545454" points="405.0833,375.4215,415.1909,373.6641,409.4101,372.5222,410.552,366.7413,405.0833,375.4215" style="stroke:#545454;stroke-width:1.5625;"/><!--MD5=[233173b8414f4008c96b85f34b766932]
link kivakit_commandline to kivakit_validation--><path d="M530.8542,313.5257 C531.3438,329.9945 532.0208,352.6924 532.5417,370.2445 " fill="none" id="kivakit_commandline-to-kivakit_validation" style="stroke:#545454;stroke-width:1.5625;"/><polygon fill="#545454" points="532.6979,375.5257,536.5951,366.0355,532.5492,370.3195,528.2652,366.2735,532.6979,375.5257" style="stroke:#545454;stroke-width:1.5625;"/><!--MD5=[a27c71d033f650a74e689916edfa2bee]
link kivakit_core to cactus_build_metadata--><path d="M318.6354,419.5465 C272.0208,437.182 204.8542,462.5882 156.2604,480.9736 " fill="none" id="kivakit_core-to-cactus_build_metadata" style="stroke:#545454;stroke-width:1.5625;"/><polygon fill="#545454" points="151.3229,482.8382,161.5656,483.4205,156.1947,480.9964,158.6188,475.6256,151.3229,482.8382" style="stroke:#545454;stroke-width:1.5625;"/><!--MD5=[3eda3c974646e0509602a12450d4fa2b]
link kivakit_core to junit--><path d="M416.6458,420.557 C455.8854,439.8903 512.8125,467.9424 549.7396,486.1299 " fill="none" id="kivakit_core-to-junit" style="stroke:#545454;stroke-width:1.5625;"/><polygon fill="#545454" points="554.5938,488.5257,548.0113,480.6566,549.9175,486.2323,544.3418,488.1385,554.5938,488.5257" style="stroke:#545454;stroke-width:1.5625;"/><!--MD5=[50e8d2e340cfb1a2dae3d5796adb8458]
link kivakit_core to kivakit_interfaces--><path d="M355.6458,420.8174 C342.375,437.5674 324,460.7653 310,478.4424 " fill="none" id="kivakit_core-to-kivakit_interfaces" style="stroke:#545454;stroke-width:1.5625;"/><polygon fill="#545454" points="306.5417,482.8174,315.62,478.0388,309.768,478.7287,309.0781,472.8767,306.5417,482.8174" style="stroke:#545454;stroke-width:1.5625;"/><!--MD5=[cc9720141deba8e1bd3912e4e0759165]
link kivakit_core to kivakit_mixins--><path d="M390.3958,420.8174 C403.8333,437.5674 422.4375,460.7653 436.6146,478.4424 " fill="none" id="kivakit_core-to-kivakit_mixins" style="stroke:#545454;stroke-width:1.5625;"/><polygon fill="#545454" points="440.125,482.8174,437.5088,472.8973,436.8659,478.7547,431.0086,478.1118,440.125,482.8174" style="stroke:#545454;stroke-width:1.5625;"/><!--MD5=[ae0cbb2eeca1523bc78b042db62e2be7]
link kivakit_interfaces to annotations--><path d="M304.4792,528.109 C315.9271,544.859 331.7708,568.057 343.8438,585.734 " fill="none" id="kivakit_interfaces-to-annotations" style="stroke:#545454;stroke-width:1.5625;"/><polygon fill="#545454" points="346.8333,590.109,344.9957,580.0157,343.8997,585.8055,338.11,584.7095,346.8333,590.109" style="stroke:#545454;stroke-width:1.5625;"/><!--MD5=[9b9898faa91efac5ccf8efb529e9a4f7]
link kivakit_interfaces to lexakai_annotations--><path d="M269.7292,528.109 C254.3333,545.0049 232.9792,568.4528 216.8229,586.182 " fill="none" id="kivakit_interfaces-to-lexakai_annotations" style="stroke:#545454;stroke-width:1.5625;"/><polygon fill="#545454" points="213.25,590.109,222.6521,586.0038,216.7654,586.266,216.5032,580.3793,213.25,590.109" style="stroke:#545454;stroke-width:1.5625;"/><!--MD5=[9bb584e9c76084b7a27dcc62deb64b83]
link kivakit_network_core to kivakit_conversion--><path d="M416.3854,206.234 C400.8229,223.1299 379.2396,246.5778 362.9063,264.307 " fill="none" id="kivakit_network_core-to-kivakit_conversion" style="stroke:#545454;stroke-width:1.5625;"/><polygon fill="#545454" points="359.3021,268.234,368.7207,264.1669,362.8329,264.4052,362.5946,258.5175,359.3021,268.234" style="stroke:#545454;stroke-width:1.5625;"/><!--MD5=[a91d00e87f385290ccd55021d1d4d9d4]
link kivakit_network_email to javax_activation--><path d="M303.7396,98.557 C264.25,116.0465 208.5,140.7445 167.7604,158.7965 " fill="none" id="kivakit_network_email-to-javax_activation" style="stroke:#545454;stroke-width:1.5625;"/><polygon fill="#545454" points="162.8646,160.9632,173.1238,160.9692,167.6252,158.8507,169.7437,153.3521,162.8646,160.9632" style="stroke:#545454;stroke-width:1.5625;"/><!--MD5=[f9e8b41bbcde75082e031be65c873394]
link kivakit_network_email to javax_mail--><path d="M334.6042,98.9424 C321.1667,115.6924 302.5625,138.8903 288.3854,156.5674 " fill="none" id="kivakit_network_email-to-javax_mail" style="stroke:#545454;stroke-width:1.5625;"/><polygon fill="#545454" points="284.875,160.9424,293.9914,156.2368,288.1341,156.8797,287.4912,151.0223,284.875,160.9424" style="stroke:#545454;stroke-width:1.5625;"/><!--MD5=[e3fde0397663a51c110c39e352b1ac4e]
link kivakit_network_email to kivakit_network_core--><path d="M369.5625,98.9424 C383,115.6924 401.6042,138.8903 415.7813,156.5674 " fill="none" id="kivakit_network_email-to-kivakit_network_core" style="stroke:#545454;stroke-width:1.5625;"/><polygon fill="#545454" points="419.2917,160.9424,416.6755,151.0223,416.0326,156.8797,410.1752,156.2368,419.2917,160.9424" style="stroke:#545454;stroke-width:1.5625;"/><!--MD5=[fe07577d9eccaa602915f30d032d709c]
link kivakit_network_email to kivakit_settings--><path d="M426.0938,98.557 C490.5,117.2028 583.1771,144.0153 646.2083,162.2549 " fill="none" id="kivakit_network_email-to-kivakit_settings" style="stroke:#545454;stroke-width:1.5625;"/><polygon fill="#545454" points="651.4479,163.7757,643.5964,157.1722,646.4439,162.3311,641.2851,165.1786,651.4479,163.7757" style="stroke:#545454;stroke-width:1.5625;"/><!--MD5=[1f920e5641e1a651a42d763be0b203c8]
link kivakit_resource to kivakit_collections--><path d="M715.625,313.5257 C715.625,329.9945 715.625,352.6924 715.625,370.2445 " fill="none" id="kivakit_resource-to-kivakit_collections" style="stroke:#545454;stroke-width:1.5625;"/><polygon fill="#545454" points="715.625,375.5257,719.7917,366.1507,715.625,370.3174,711.4583,366.1507,715.625,375.5257" style="stroke:#545454;stroke-width:1.5625;"/><!--MD5=[526b50f83d962021076ab4af7a206f26]
link kivakit_serialization_gson to gson--><path d="M913.5417,313.5257 C913.5417,329.9945 913.5417,352.6924 913.5417,370.2445 " fill="none" id="kivakit_serialization_gson-to-gson" style="stroke:#545454;stroke-width:1.5625;"/><polygon fill="#545454" points="913.5417,375.5257,917.7083,366.1507,913.5417,370.3174,909.375,366.1507,913.5417,375.5257" style="stroke:#545454;stroke-width:1.5625;"/><!--MD5=[617b6bc9ab2f7e62743114de08919b91]
link kivakit_settings to kivakit_commandline--><path d="M677.6563,205.9736 C647.1563,223.2757 604.3542,247.5674 572.7083,265.5257 " fill="none" id="kivakit_settings-to-kivakit_commandline" style="stroke:#545454;stroke-width:1.5625;"/><polygon fill="#545454" points="568.125,268.1299,578.3363,267.1398,572.6581,265.5651,574.2327,259.8869,568.125,268.1299" style="stroke:#545454;stroke-width:1.5625;"/><!--MD5=[66daae608c5d1ef9a55a9dd78110fd01]
link kivakit_settings to kivakit_resource--><path d="M715.625,206.234 C715.625,222.7028 715.625,245.4007 715.625,262.9528 " fill="none" id="kivakit_settings-to-kivakit_resource" style="stroke:#545454;stroke-width:1.5625;"/><polygon fill="#545454" points="715.625,268.234,719.7917,258.859,715.625,263.0257,711.4583,258.859,715.625,268.234" style="stroke:#545454;stroke-width:1.5625;"/><!--MD5=[db7a3e58ae015a2db9e73bbbc331f313]
link kivakit_settings to kivakit_serialization_gson--><path d="M756.1563,205.9736 C788.7083,223.2757 834.4063,247.5674 868.1771,265.5257 " fill="none" id="kivakit_settings-to-kivakit_serialization_gson" style="stroke:#545454;stroke-width:1.5625;"/><polygon fill="#545454" points="873.0625,268.1299,866.7349,260.0544,868.462,265.6882,862.8282,267.4152,873.0625,268.1299" style="stroke:#545454;stroke-width:1.5625;"/><!--MD5=[9a29ae8e9245e25ea51914d5ea8f3bfd]
link kivakit_settings to kivakit_serialization_properties--><path d="M779.6979,199.734 C853.6146,217.3799 975.8854,246.5778 1060.9688,266.8903 " fill="none" id="kivakit_settings-to-kivakit_serialization_properties" style="stroke:#545454;stroke-width:1.5625;"/><polygon fill="#545454" points="1066.5104,268.2132,1058.3563,261.9873,1061.4439,267.0062,1056.425,270.0938,1066.5104,268.2132" style="stroke:#545454;stroke-width:1.5625;"/><!--MD5=[32e69f97e2d358dd400819b72f5f63da]
@startuml

    !include lexakai.theme
    
    title "kivakit-network-email"
    
    artifact gson
    artifact javax_activation
    artifact javax_mail
    artifact cactus_build_metadata
    artifact kivakit_collections
    artifact kivakit_commandline
    artifact kivakit_conversion
    artifact kivakit_core
    artifact kivakit_interfaces
    artifact kivakit_mixins
    artifact kivakit_network_core
    artifact kivakit_network_email
    artifact kivakit_resource
    artifact kivakit_serialization_gson
    artifact kivakit_serialization_properties
    artifact kivakit_settings
    artifact kivakit_validation
    artifact lexakai_annotations
    artifact junit
    artifact hamcrest_core
    artifact annotations
    junit - -> hamcrest_core
    kivakit_commandline - -> kivakit_core
    kivakit_commandline - -> kivakit_validation
    kivakit_core - -> cactus_build_metadata
    kivakit_core - -> junit
    kivakit_core - -> kivakit_interfaces
    kivakit_core - -> kivakit_mixins
    kivakit_interfaces - -> annotations
    kivakit_interfaces - -> lexakai_annotations
    kivakit_network_core - -> kivakit_conversion
    kivakit_network_email - -> javax_activation
    kivakit_network_email - -> javax_mail
    kivakit_network_email - -> kivakit_network_core
    kivakit_network_email - -> kivakit_settings
    kivakit_resource - -> kivakit_collections
    kivakit_serialization_gson - -> gson
    kivakit_settings - -> kivakit_commandline
    kivakit_settings - -> kivakit_resource
    kivakit_settings - -> kivakit_serialization_gson
    kivakit_settings - -> kivakit_serialization_properties
    
@enduml

@startuml









skinparam backgroundColor #333333






skinparam  {
    defaultFontName   "Open Sans,Avenir,Nunito,Arial,Helvetica,SansSerif"
    defaultFontSize   12
    defaultTextAlignment left
    shadowing false
    RoundCorner 10
    TitleFontSize 18
}

skinparam defaultFontName       "Open Sans,Avenir,Nunito,Arial,Helvetica,SansSerif"
skinparam defaultFontSize       12
skinparam dpi                   100
skinparam shadowing             false
skinparam roundcorner           16
skinparam ParticipantPadding    40
skinparam BoxPadding            40
skinparam Padding               3
skinparam ArrowColor            #545454
skinparam stereotype {
    CBackgroundColor #0066cf
    CBorderColor #0086ef
    ABackgroundColor #C8Ac00
    ABorderColor #D8Bc00
    IBackgroundColor #008400
    IBorderColor #239c23
    EBackgroundColor #cf6300
    EBorderColor #ef8300
    NBackgroundColor #3380b9
    NBorderColor #004d86
}
skinparam title {
	FontColor	                 #c0c0c0
 	BorderColor                  #545454
	FontSize	    	         20
	BorderRoundCorner            16
	BorderThickness 	         1
	BackgroundColor              #48494b
}


skinparam legend {
	BackgroundColor #303030
	BorderColor #404040
	FontColor #a0a0a0
}

	skinparam swimlane {
	BorderColor #5e5e5e
	BorderThickness 2
	TitleBackgroundColor  #6d6d6d-#484848
	TitleFontColor #303030
}

skinparam activity {
		FontColor #C8Ac00
	BorderColor #333333
	BackgroundColor #333333-#333333
	BarColor #00FF00
	StartColor #0060a8
	EndColor #0060a8
	DiamondBackgroundColor #6d6d6d-#3a3a3a
  	DiamondBorderColor #3a3a3a
  	DiamondFontColor #fefefe
}


skinparam participant {
		FontColor #C8Ac00
	BorderColor #333333
	BackgroundColor #333333-#333333
	ParticipantBorderThickness 2
}


skinparam actor {
		FontColor #C8Ac00
	BorderColor #333333
	BackgroundColor #333333-#333333
}


skinparam arrow {
	Thickness 1.5
	Color #545454
	FontColor #a0a0a0
    FontStyle bold
    MessageAlignment center
}



skinparam sequence {
	BorderColor #303030
	TitleFontColor #303030
	BackgroundColor #333333
	StartColor #303030
	EndColor #303030
	BoxBackgroundColor #333333
	BoxBorderColor #484848
	BoxFontColor #484848
	LifeLineBorderColor #484848
	LifeLineBorderThickness 2
	LifeLineBackgroundColor #3a3a3a
	GroupBorderColor #484848
	GroupFontColor #484848
	GroupHeaderFontColor #0060a8
	GroupBackgroundColor #484848
	GroupHeaderBackgroundColor #333333
	DividerBackgroundColor #484848
    DividerBorderColor #484848
    DividerBorderThickness 2
    DividerFontColor #D8Bc00
	ReferenceBackgroundColor #333333
	ReferenceBorderColor #484848
	ReferenceFontColor #fefefe
	ReferenceHeaderBackgroundColor #484848
}


skinparam partition {
	BorderColor #303030
	FontColor #333333
	BackgroundColor #333333
}


skinparam collections {
		FontColor #C8Ac00
	BorderColor #333333
	BackgroundColor #333333-#333333
}


skinparam control {
		FontColor #C8Ac00
	BorderColor #333333
	BackgroundColor #333333-#333333
}


skinparam entity {
		FontColor #C8Ac00
	BorderColor #333333
	BackgroundColor #333333-#333333
}


skinparam boundary {
		FontColor #C8Ac00
	BorderColor #333333
	BackgroundColor #333333-#333333
}


skinparam agent {
	BackgroundColor #ff8000
	BorderColor #ff9933
	FontColor #484848
}


skinparam note {
	BorderThickness 1
	BackgroundColor #1b1b1a
	BorderColor #5e5e5e
	FontSize 11
	FontColor #a0a0a0
}


skinparam artifact {
	BorderThickness 10
	BorderColor #5e5e5e
	BackgroundColor #1b1b1a
	FontColor #D8Bc00
}


skinparam component {
		FontColor #C8Ac00
	BorderColor #333333
	BackgroundColor #333333-#333333
}


skinparam interface {
	BackgroundColor  #008400
	BorderColor  #007F00
	FontColor #484848
}


skinparam storage {
	BackgroundColor #ff8000
  	BorderColor #cc6600
	FontColor #222222
}


skinparam node {
	BackgroundColor #333333
	BorderColor #333333
	FontColor #C8Ac00
}


skinparam cloud {
	BackgroundColor #484848-black
	BorderColor #484848
	FontColor #D8Bc00
}


skinparam database {
		FontColor #C8Ac00
	BorderColor #333333
	BackgroundColor #333333-#333333
	BackgroundColor  #333333
}


skinparam class {
		FontColor #C8Ac00
	BorderColor #333333
	BackgroundColor #333333-#333333
	HeaderBackgroundColor #1b1b1a
    BackgroundColor #282828
    BorderColor #5e5e5e
 	StereotypeFontColor #a0a0a0
    StereotypeFontStyle bold
	BorderThickness 1
	AttributeFontColor #D8Bc00
	AttributeFontSize 11
    FontColor #D8Bc00
    FontStyle bold
}


skinparam object {
		FontColor #C8Ac00
	BorderColor #333333
	BackgroundColor #333333-#333333
	StereotypeFontColor #484848
	BorderThickness 1
	AttributeFontColor #fefefe
	AttributeFontSize 11
}


skinparam usecase {
		FontColor #C8Ac00
	BorderColor #333333
	BackgroundColor #333333-#333333
	BorderThickness 2
	StereotypeFontColor #303030
}


skinparam rectangle {
		FontColor #C8Ac00
	BorderColor #333333
	BackgroundColor #333333-#333333
	BackgroundColor #333333
	BorderThickness 2
	StereotypeFontColor #303030
}


skinparam package {
		FontColor #C8Ac00
	BorderColor #333333
	BackgroundColor #333333-#333333
	BackgroundColor #333333
	BorderThickness 2
}


skinparam folder {
	BackgroundColor #6d6d6d
  	BorderColor #ff8000
	FontColor #ff8000
	BorderThickness 2
}


skinparam frame {
	BackgroundColor #6d6d6d
  	BorderColor #0060a8
	FontColor #0060a8
	BorderThickness 2
}


skinparam state {
		FontColor #C8Ac00
	BorderColor #333333
	BackgroundColor #333333-#333333
	StartColor #0060a8
	EndColor #0060a8
	AttributeFontColor #fefefe
	AttributeFontSize 11
}


skinparam queue {
		FontColor #C8Ac00
	BorderColor #333333
	BackgroundColor #333333-#333333
}


skinparam card {
	BackgroundColor #0060a8
	BorderColor #004d86
	FontColor $INFO_TEXT
}


skinparam file {
	BackgroundColor #6d6d6d-#484848
	BorderColor #0060a8
	FontColor #fefefe
}


skinparam stack {
		FontColor #C8Ac00
	BorderColor #333333
	BackgroundColor #333333-#333333
}

    
    title "kivakit-network-email"
    
    artifact gson
    artifact javax_activation
    artifact javax_mail
    artifact cactus_build_metadata
    artifact kivakit_collections
    artifact kivakit_commandline
    artifact kivakit_conversion
    artifact kivakit_core
    artifact kivakit_interfaces
    artifact kivakit_mixins
    artifact kivakit_network_core
    artifact kivakit_network_email
    artifact kivakit_resource
    artifact kivakit_serialization_gson
    artifact kivakit_serialization_properties
    artifact kivakit_settings
    artifact kivakit_validation
    artifact lexakai_annotations
    artifact junit
    artifact hamcrest_core
    artifact annotations
    junit - -> hamcrest_core
    kivakit_commandline - -> kivakit_core
    kivakit_commandline - -> kivakit_validation
    kivakit_core - -> cactus_build_metadata
    kivakit_core - -> junit
    kivakit_core - -> kivakit_interfaces
    kivakit_core - -> kivakit_mixins
    kivakit_interfaces - -> annotations
    kivakit_interfaces - -> lexakai_annotations
    kivakit_network_core - -> kivakit_conversion
    kivakit_network_email - -> javax_activation
    kivakit_network_email - -> javax_mail
    kivakit_network_email - -> kivakit_network_core
    kivakit_network_email - -> kivakit_settings
    kivakit_resource - -> kivakit_collections
    kivakit_serialization_gson - -> gson
    kivakit_settings - -> kivakit_commandline
    kivakit_settings - -> kivakit_resource
    kivakit_settings - -> kivakit_serialization_gson
    kivakit_settings - -> kivakit_serialization_properties
    
@enduml

PlantUML version 1.2021.01(Tue Feb 02 00:55:08 MST 2021)
(GPL source distribution)
Java Runtime: OpenJDK Runtime Environment
JVM: OpenJDK 64-Bit Server VM
Default Encoding: UTF-8
Language: en
Country: US
--></g></svg>