<?xml version="1.0" encoding="UTF-8" standalone="no"?><svg xmlns="http://www.w3.org/2000/svg" xmlns:xlink="http://www.w3.org/1999/xlink" contentScriptType="application/ecmascript" contentStyleType="text/css" height="619.7917px" preserveAspectRatio="none" style="width:1063px;height:619px;background:#333333;" version="1.1" viewBox="0 0 1063 619" width="1063.5417px" zoomAndPan="magnify"><defs/><g><rect fill="#48494B" height="41.2028" rx="8.3333" ry="8.3333" style="stroke:#545454;stroke-width:1.0416666666666667;" width="439.5833" x="304.9479" y="2.0833"/><text fill="#C0C0C0" font-family="Open Sans,Avenir,Nunito,Arial,Helvetica,SansSerif" font-size="20.8333" lengthAdjust="spacing" textLength="416.6667" x="316.4063" y="30.5583">com.telenav.kivakit.commandline.parsing</text><rect codeLine="7" fill="#282828" height="48.055" id="BaseValidator" rx="8.3333" ry="8.3333" style="stroke:#5E5E5E;stroke-width:1.0416666666666667;" width="126.0417" x="406.25" y="53.7028"/><rect fill="#1B1B1A" height="31.3883" rx="8.3333" ry="8.3333" style="stroke:#1B1B1A;stroke-width:1.0416666666666667;" width="126.0417" x="406.25" y="53.7028"/><rect fill="#1B1B1A" height="8.3333" style="stroke:#1B1B1A;stroke-width:1.0416666666666667;" width="126.0417" x="406.25" y="76.7578"/><rect codeLine="7" fill="none" height="48.055" id="BaseValidator" rx="8.3333" ry="8.3333" style="stroke:#5E5E5E;stroke-width:1.0416666666666667;" width="126.0417" x="406.25" y="53.7028"/><ellipse cx="420.8333" cy="69.397" fill="#C8AC00" rx="10.4167" ry="10.4167" style="stroke:#D8BC00;stroke-width:1.0416666666666667;"/><path d="M420.4264,66.099 L419.578,69.8283 L421.2809,69.8283 Z M419.3278,64.4511 L421.5312,64.4511 L423.9909,73.5636 L422.1903,73.5636 L421.6288,71.3114 L419.2179,71.3114 L418.6686,73.5636 L416.8681,73.5636 Z " fill="#000000"/><text fill="#D8BC00" font-family="Open Sans,Avenir,Nunito,Arial,Helvetica,SansSerif" font-size="12.5" font-style="italic" font-weight="bold" lengthAdjust="spacing" textLength="88.5417" x="437.5" y="74.1211">BaseValidator</text><line style="stroke:#5E5E5E;stroke-width:1.0416666666666667;" x1="407.2917" x2="531.25" y1="85.0911" y2="85.0911"/><line style="stroke:#5E5E5E;stroke-width:1.0416666666666667;" x1="407.2917" x2="531.25" y1="93.4245" y2="93.4245"/><rect codeLine="12" fill="#282828" height="83.3781" id="ArgumentListValidator" rx="8.3333" ry="8.3333" style="stroke:#5E5E5E;stroke-width:1.0416666666666667;" width="360.4167" x="106.7708" y="164.1195"/><rect fill="#1B1B1A" height="31.3883" rx="8.3333" ry="8.3333" style="stroke:#1B1B1A;stroke-width:1.0416666666666667;" width="360.4167" x="106.7708" y="164.1195"/><rect fill="#1B1B1A" height="8.3333" style="stroke:#1B1B1A;stroke-width:1.0416666666666667;" width="360.4167" x="106.7708" y="187.1745"/><rect codeLine="12" fill="none" height="83.3781" id="ArgumentListValidator" rx="8.3333" ry="8.3333" style="stroke:#5E5E5E;stroke-width:1.0416666666666667;" width="360.4167" x="106.7708" y="164.1195"/><ellipse cx="200.5208" cy="179.8136" fill="#0066CF" rx="10.4167" ry="10.4167" style="stroke:#0086EF;stroke-width:1.0416666666666667;"/><path d="M202.4312,184.2387 Q202.004,184.4584 201.534,184.5683 Q201.064,184.6781 200.5452,184.6781 Q198.702,184.6781 197.7315,183.4635 Q196.7611,182.2489 196.7611,179.954 Q196.7611,177.653 197.7315,176.4384 Q198.702,175.2238 200.5452,175.2238 Q201.064,175.2238 201.5401,175.3337 Q202.0162,175.4435 202.4312,175.6632 L202.4312,177.6652 Q201.9674,177.238 201.531,177.0396 Q201.0946,176.8412 200.6307,176.8412 Q199.6419,176.8412 199.1384,177.6255 Q198.6348,178.4098 198.6348,179.954 Q198.6348,181.4921 199.1384,182.2764 Q199.6419,183.0607 200.6307,183.0607 Q201.0946,183.0607 201.531,182.8623 Q201.9674,182.664 202.4312,182.2367 Z " fill="#000000"/><rect fill="#F24D5C" height="6.25" style="stroke:#C82930;stroke-width:1.0416666666666667;" width="6.25" x="222.3958" y="176.1678"/><text fill="#D8BC00" font-family="Open Sans,Avenir,Nunito,Arial,Helvetica,SansSerif" font-size="12.5" font-weight="bold" lengthAdjust="spacing" textLength="146.875" x="234.8958" y="184.5378">ArgumentListValidator</text><line style="stroke:#5E5E5E;stroke-width:1.5625;" x1="107.8125" x2="466.1458" y1="195.5078" y2="195.5078"/><ellipse cx="118.2292" cy="230.8777" fill="#84BE84" rx="3.125" ry="3.125" style="stroke:#038048;stroke-width:1.0416666666666667;"/><text fill="#D8BC00" font-family="Open Sans,Avenir,Nunito,Arial,Helvetica,SansSerif" font-size="11.4583" lengthAdjust="spacing" textLength="328.125" x="129.6875" y="237.7889">ArgumentListValidator(ArgumentParserList, ArgumentList)</text><line style="stroke:#5E5E5E;stroke-width:1.0416666666666667;" x1="107.8125" x2="243.2292" y1="213.7136" y2="213.7136"/><text fill="#D8BC00" font-family="Open Sans,Avenir,Nunito,Arial,Helvetica,SansSerif" font-size="11.4583" lengthAdjust="spacing" textLength="81.25" x="246.3542" y="217.5232">(constructors)</text><line style="stroke:#5E5E5E;stroke-width:1.0416666666666667;" x1="330.7292" x2="466.1458" y1="213.7136" y2="213.7136"/><rect fill="#282828" height="48.055" id="ArgumentList" rx="8.3333" ry="8.3333" style="stroke:#5E5E5E;stroke-width:1.0416666666666667;" width="126.0417" x="7.2917" y="371.932"/><rect fill="#1B1B1A" height="31.3883" rx="8.3333" ry="8.3333" style="stroke:#1B1B1A;stroke-width:1.0416666666666667;" width="126.0417" x="7.2917" y="371.932"/><rect fill="#1B1B1A" height="8.3333" style="stroke:#1B1B1A;stroke-width:1.0416666666666667;" width="126.0417" x="7.2917" y="394.987"/><rect fill="none" height="48.055" id="ArgumentList" rx="8.3333" ry="8.3333" style="stroke:#5E5E5E;stroke-width:1.0416666666666667;" width="126.0417" x="7.2917" y="371.932"/><ellipse cx="21.875" cy="387.6261" fill="#0066CF" rx="10.4167" ry="10.4167" style="stroke:#0086EF;stroke-width:1.0416666666666667;"/><path d="M23.7854,392.0512 Q23.3582,392.2709 22.8882,392.3808 Q22.4182,392.4906 21.8994,392.4906 Q20.0562,392.4906 19.0857,391.276 Q18.1152,390.0614 18.1152,387.7665 Q18.1152,385.4655 19.0857,384.2509 Q20.0562,383.0363 21.8994,383.0363 Q22.4182,383.0363 22.8943,383.1462 Q23.3704,383.256 23.7854,383.4757 L23.7854,385.4777 Q23.3215,385.0505 22.8851,384.8521 Q22.4487,384.6537 21.9849,384.6537 Q20.9961,384.6537 20.4926,385.438 Q19.989,386.2223 19.989,387.7665 Q19.989,389.3046 20.4926,390.0889 Q20.9961,390.8732 21.9849,390.8732 Q22.4487,390.8732 22.8851,390.6748 Q23.3215,390.4765 23.7854,390.0492 Z " fill="#000000"/><text fill="#D8BC00" font-family="Open Sans,Avenir,Nunito,Arial,Helvetica,SansSerif" font-size="12.5" font-weight="bold" lengthAdjust="spacing" textLength="88.5417" x="38.5417" y="392.3503">ArgumentList</text><line style="stroke:#5E5E5E;stroke-width:1.0416666666666667;" x1="8.3333" x2="132.2917" y1="403.3203" y2="403.3203"/><line style="stroke:#5E5E5E;stroke-width:1.0416666666666667;" x1="8.3333" x2="132.2917" y1="411.6536" y2="411.6536"/><rect codeLine="19" fill="#282828" height="131.2012" id="ArgumentParserList" rx="8.3333" ry="8.3333" style="stroke:#5E5E5E;stroke-width:1.0416666666666667;" width="225" x="195.3125" y="331.307"/><rect fill="#1B1B1A" height="31.3883" rx="8.3333" ry="8.3333" style="stroke:#1B1B1A;stroke-width:1.0416666666666667;" width="225" x="195.3125" y="331.307"/><rect fill="#1B1B1A" height="8.3333" style="stroke:#1B1B1A;stroke-width:1.0416666666666667;" width="225" x="195.3125" y="354.362"/><rect codeLine="19" fill="none" height="131.2012" id="ArgumentParserList" rx="8.3333" ry="8.3333" style="stroke:#5E5E5E;stroke-width:1.0416666666666667;" width="225" x="195.3125" y="331.307"/><ellipse cx="231.4583" cy="347.0011" fill="#0066CF" rx="10.4167" ry="10.4167" style="stroke:#0086EF;stroke-width:1.0416666666666667;"/><path d="M233.3687,351.4262 Q232.9415,351.6459 232.4715,351.7558 Q232.0015,351.8656 231.4827,351.8656 Q229.6395,351.8656 228.669,350.651 Q227.6986,349.4364 227.6986,347.1415 Q227.6986,344.8405 228.669,343.6259 Q229.6395,342.4113 231.4827,342.4113 Q232.0015,342.4113 232.4776,342.5212 Q232.9537,342.631 233.3687,342.8507 L233.3687,344.8527 Q232.9049,344.4255 232.4685,344.2271 Q232.0321,344.0287 231.5682,344.0287 Q230.5794,344.0287 230.0759,344.813 Q229.5723,345.5973 229.5723,347.1415 Q229.5723,348.6796 230.0759,349.4639 Q230.5794,350.2482 231.5682,350.2482 Q232.0321,350.2482 232.4685,350.0498 Q232.9049,349.8515 233.3687,349.4242 Z " fill="#000000"/><rect fill="#F24D5C" height="6.25" style="stroke:#C82930;stroke-width:1.0416666666666667;" width="6.25" x="251.875" y="343.3553"/><text fill="#D8BC00" font-family="Open Sans,Avenir,Nunito,Arial,Helvetica,SansSerif" font-size="12.5" font-weight="bold" lengthAdjust="spacing" textLength="128.125" x="264.375" y="351.7253">ArgumentParserList</text><line style="stroke:#5E5E5E;stroke-width:1.5625;" x1="196.3542" x2="419.2708" y1="362.6953" y2="362.6953"/><line style="stroke:#5E5E5E;stroke-width:1.0416666666666667;" x1="196.3542" x2="419.2708" y1="371.0286" y2="371.0286"/><ellipse cx="206.7708" cy="382.487" fill="#84BE84" rx="3.125" ry="3.125" style="stroke:#038048;stroke-width:1.0416666666666667;"/><text fill="#D8BC00" font-family="Open Sans,Avenir,Nunito,Arial,Helvetica,SansSerif" font-size="11.4583" lengthAdjust="spacing" textLength="68.75" x="218.2292" y="389.3982">String help()</text><ellipse cx="206.7708" cy="426.1434" fill="#84BE84" rx="3.125" ry="3.125" style="stroke:#038048;stroke-width:1.0416666666666667;"/><text fill="#D8BC00" font-family="Open Sans,Avenir,Nunito,Arial,Helvetica,SansSerif" font-size="11.4583" lengthAdjust="spacing" textLength="192.7083" x="218.2292" y="433.0546">boolean add(ArgumentParser&lt;?&gt;)</text><ellipse cx="206.7708" cy="445.8883" fill="#84BE84" rx="3.125" ry="3.125" style="stroke:#038048;stroke-width:1.0416666666666667;"/><text fill="#D8BC00" font-family="Open Sans,Avenir,Nunito,Arial,Helvetica,SansSerif" font-size="11.4583" lengthAdjust="spacing" textLength="100" x="218.2292" y="452.7995">boolean isEmpty()</text><line style="stroke:#5E5E5E;stroke-width:1.0416666666666667;" x1="196.3542" x2="273.4375" y1="408.9793" y2="408.9793"/><text fill="#D8BC00" font-family="Open Sans,Avenir,Nunito,Arial,Helvetica,SansSerif" font-size="11.4583" lengthAdjust="spacing" textLength="62.5" x="276.5625" y="412.7889">(collection)</text><line style="stroke:#5E5E5E;stroke-width:1.0416666666666667;" x1="342.1875" x2="419.2708" y1="408.9793" y2="408.9793"/><rect fill="#282828" height="48.055" id="ArgumentParser" rx="8.3333" ry="8.3333" style="stroke:#5E5E5E;stroke-width:1.0416666666666667;" width="141.6667" x="236.9792" y="565.1611"/><rect fill="#1B1B1A" height="31.3883" rx="8.3333" ry="8.3333" style="stroke:#1B1B1A;stroke-width:1.0416666666666667;" width="141.6667" x="236.9792" y="565.1611"/><rect fill="#1B1B1A" height="8.3333" style="stroke:#1B1B1A;stroke-width:1.0416666666666667;" width="141.6667" x="236.9792" y="588.2161"/><rect fill="none" height="48.055" id="ArgumentParser" rx="8.3333" ry="8.3333" style="stroke:#5E5E5E;stroke-width:1.0416666666666667;" width="141.6667" x="236.9792" y="565.1611"/><ellipse cx="251.5625" cy="580.8553" fill="#0066CF" rx="10.4167" ry="10.4167" style="stroke:#0086EF;stroke-width:1.0416666666666667;"/><path d="M253.4729,585.2804 Q253.0457,585.5001 252.5757,585.6099 Q252.1057,585.7198 251.5869,585.7198 Q249.7437,585.7198 248.7732,584.5052 Q247.8027,583.2906 247.8027,580.9957 Q247.8027,578.6947 248.7732,577.4801 Q249.7437,576.2655 251.5869,576.2655 Q252.1057,576.2655 252.5818,576.3753 Q253.0579,576.4852 253.4729,576.7049 L253.4729,578.7069 Q253.009,578.2796 252.5726,578.0813 Q252.1362,577.8829 251.6724,577.8829 Q250.6836,577.8829 250.1801,578.6672 Q249.6765,579.4515 249.6765,580.9957 Q249.6765,582.5338 250.1801,583.3181 Q250.6836,584.1024 251.6724,584.1024 Q252.1362,584.1024 252.5726,583.904 Q253.009,583.7056 253.4729,583.2784 Z " fill="#000000"/><text fill="#D8BC00" font-family="Open Sans,Avenir,Nunito,Arial,Helvetica,SansSerif" font-size="12.5" font-weight="bold" lengthAdjust="spacing" textLength="104.1667" x="268.2292" y="585.5794">ArgumentParser</text><line style="stroke:#5E5E5E;stroke-width:1.0416666666666667;" x1="238.0208" x2="377.6042" y1="596.5495" y2="596.5495"/><line style="stroke:#5E5E5E;stroke-width:1.0416666666666667;" x1="238.0208" x2="377.6042" y1="604.8828" y2="604.8828"/><rect codeLine="29" fill="#282828" height="127.0345" id="SwitchList" rx="8.3333" ry="8.3333" style="stroke:#5E5E5E;stroke-width:1.0416666666666667;" width="168.75" x="547.3958" y="333.3903"/><rect fill="#1B1B1A" height="31.3883" rx="8.3333" ry="8.3333" style="stroke:#1B1B1A;stroke-width:1.0416666666666667;" width="168.75" x="547.3958" y="333.3903"/><rect fill="#1B1B1A" height="8.3333" style="stroke:#1B1B1A;stroke-width:1.0416666666666667;" width="168.75" x="547.3958" y="356.4453"/><rect codeLine="29" fill="none" height="127.0345" id="SwitchList" rx="8.3333" ry="8.3333" style="stroke:#5E5E5E;stroke-width:1.0416666666666667;" width="168.75" x="547.3958" y="333.3903"/><ellipse cx="586.3542" cy="349.0845" fill="#0066CF" rx="10.4167" ry="10.4167" style="stroke:#0086EF;stroke-width:1.0416666666666667;"/><path d="M588.2646,353.5095 Q587.8373,353.7292 587.3674,353.8391 Q586.8974,353.949 586.3786,353.949 Q584.5353,353.949 583.5649,352.7344 Q582.5944,351.5198 582.5944,349.2249 Q582.5944,346.9238 583.5649,345.7092 Q584.5353,344.4946 586.3786,344.4946 Q586.8974,344.4946 587.3735,344.6045 Q587.8495,344.7144 588.2646,344.9341 L588.2646,346.936 Q587.8007,346.5088 587.3643,346.3104 Q586.9279,346.1121 586.464,346.1121 Q585.4753,346.1121 584.9717,346.8964 Q584.4682,347.6807 584.4682,349.2249 Q584.4682,350.7629 584.9717,351.5472 Q585.4753,352.3315 586.464,352.3315 Q586.9279,352.3315 587.3643,352.1332 Q587.8007,351.9348 588.2646,351.5076 Z " fill="#000000"/><rect fill="#F24D5C" height="6.25" style="stroke:#C82930;stroke-width:1.0416666666666667;" width="6.25" x="607.3958" y="345.4386"/><text fill="#D8BC00" font-family="Open Sans,Avenir,Nunito,Arial,Helvetica,SansSerif" font-size="12.5" font-weight="bold" lengthAdjust="spacing" textLength="65.625" x="619.8958" y="353.8086">SwitchList</text><line style="stroke:#5E5E5E;stroke-width:1.5625;" x1="548.4375" x2="715.1042" y1="364.7786" y2="364.7786"/><ellipse cx="558.8542" cy="400.1485" fill="#84BE84" rx="3.125" ry="3.125" style="stroke:#038048;stroke-width:1.0416666666666667;"/><text fill="#D8BC00" font-family="Open Sans,Avenir,Nunito,Arial,Helvetica,SansSerif" font-size="11.4583" lengthAdjust="spacing" textLength="136.4583" x="570.3125" y="407.0597">void add(Switch _switch)</text><line style="stroke:#5E5E5E;stroke-width:1.0416666666666667;" x1="548.4375" x2="597.3958" y1="382.9844" y2="382.9844"/><text fill="#D8BC00" font-family="Open Sans,Avenir,Nunito,Arial,Helvetica,SansSerif" font-size="11.4583" lengthAdjust="spacing" textLength="62.5" x="600.5208" y="386.794">(collection)</text><line style="stroke:#5E5E5E;stroke-width:1.0416666666666667;" x1="666.1458" x2="715.1042" y1="382.9844" y2="382.9844"/><ellipse cx="558.8542" cy="443.8049" fill="#84BE84" rx="3.125" ry="3.125" style="stroke:#038048;stroke-width:1.0416666666666667;"/><text fill="#D8BC00" font-family="Open Sans,Avenir,Nunito,Arial,Helvetica,SansSerif" font-size="11.4583" lengthAdjust="spacing" textLength="133.3333" x="570.3125" y="450.7161">T get(SwitchParser&lt;T&gt;)</text><line style="stroke:#5E5E5E;stroke-width:1.0416666666666667;" x1="548.4375" x2="562.5" y1="426.6408" y2="426.6408"/><text fill="#D8BC00" font-family="Open Sans,Avenir,Nunito,Arial,Helvetica,SansSerif" font-size="11.4583" lengthAdjust="spacing" textLength="132.2917" x="565.625" y="430.4504">(command line parsing)</text><line style="stroke:#5E5E5E;stroke-width:1.0416666666666667;" x1="701.0417" x2="715.1042" y1="426.6408" y2="426.6408"/><rect fill="#282828" height="48.055" id="Switch" rx="8.3333" ry="8.3333" style="stroke:#5E5E5E;stroke-width:1.0416666666666667;" width="79.1667" x="592.1875" y="565.1611"/><rect fill="#1B1B1A" height="31.3883" rx="8.3333" ry="8.3333" style="stroke:#1B1B1A;stroke-width:1.0416666666666667;" width="79.1667" x="592.1875" y="565.1611"/><rect fill="#1B1B1A" height="8.3333" style="stroke:#1B1B1A;stroke-width:1.0416666666666667;" width="79.1667" x="592.1875" y="588.2161"/><rect fill="none" height="48.055" id="Switch" rx="8.3333" ry="8.3333" style="stroke:#5E5E5E;stroke-width:1.0416666666666667;" width="79.1667" x="592.1875" y="565.1611"/><ellipse cx="606.7708" cy="580.8553" fill="#0066CF" rx="10.4167" ry="10.4167" style="stroke:#0086EF;stroke-width:1.0416666666666667;"/><path d="M608.6812,585.2804 Q608.254,585.5001 607.784,585.6099 Q607.314,585.7198 606.7952,585.7198 Q604.952,585.7198 603.9815,584.5052 Q603.0111,583.2906 603.0111,580.9957 Q603.0111,578.6947 603.9815,577.4801 Q604.952,576.2655 606.7952,576.2655 Q607.314,576.2655 607.7901,576.3753 Q608.2662,576.4852 608.6812,576.7049 L608.6812,578.7069 Q608.2174,578.2796 607.781,578.0813 Q607.3446,577.8829 606.8807,577.8829 Q605.8919,577.8829 605.3884,578.6672 Q604.8848,579.4515 604.8848,580.9957 Q604.8848,582.5338 605.3884,583.3181 Q605.8919,584.1024 606.8807,584.1024 Q607.3446,584.1024 607.781,583.904 Q608.2174,583.7056 608.6812,583.2784 Z " fill="#000000"/><text fill="#D8BC00" font-family="Open Sans,Avenir,Nunito,Arial,Helvetica,SansSerif" font-size="12.5" font-weight="bold" lengthAdjust="spacing" textLength="41.6667" x="623.4375" y="585.5794">Switch</text><line style="stroke:#5E5E5E;stroke-width:1.0416666666666667;" x1="593.2292" x2="670.3125" y1="596.5495" y2="596.5495"/><line style="stroke:#5E5E5E;stroke-width:1.0416666666666667;" x1="593.2292" x2="670.3125" y1="604.8828" y2="604.8828"/><rect codeLine="40" fill="#282828" height="83.3781" id="SwitchListValidator" rx="8.3333" ry="8.3333" style="stroke:#5E5E5E;stroke-width:1.0416666666666667;" width="297.9167" x="503.6458" y="164.1195"/><rect fill="#1B1B1A" height="31.3883" rx="8.3333" ry="8.3333" style="stroke:#1B1B1A;stroke-width:1.0416666666666667;" width="297.9167" x="503.6458" y="164.1195"/><rect fill="#1B1B1A" height="8.3333" style="stroke:#1B1B1A;stroke-width:1.0416666666666667;" width="297.9167" x="503.6458" y="187.1745"/><rect codeLine="40" fill="none" height="83.3781" id="SwitchListValidator" rx="8.3333" ry="8.3333" style="stroke:#5E5E5E;stroke-width:1.0416666666666667;" width="297.9167" x="503.6458" y="164.1195"/><ellipse cx="577.6042" cy="179.8136" fill="#0066CF" rx="10.4167" ry="10.4167" style="stroke:#0086EF;stroke-width:1.0416666666666667;"/><path d="M579.5146,184.2387 Q579.0873,184.4584 578.6174,184.5683 Q578.1474,184.6781 577.6286,184.6781 Q575.7853,184.6781 574.8149,183.4635 Q573.8444,182.2489 573.8444,179.954 Q573.8444,177.653 574.8149,176.4384 Q575.7853,175.2238 577.6286,175.2238 Q578.1474,175.2238 578.6235,175.3337 Q579.0995,175.4435 579.5146,175.6632 L579.5146,177.6652 Q579.0507,177.238 578.6143,177.0396 Q578.1779,176.8412 577.714,176.8412 Q576.7253,176.8412 576.2217,177.6255 Q575.7182,178.4098 575.7182,179.954 Q575.7182,181.4921 576.2217,182.2764 Q576.7253,183.0607 577.714,183.0607 Q578.1779,183.0607 578.6143,182.8623 Q579.0507,182.664 579.5146,182.2367 Z " fill="#000000"/><rect fill="#F24D5C" height="6.25" style="stroke:#C82930;stroke-width:1.0416666666666667;" width="6.25" x="599.4792" y="176.1678"/><text fill="#D8BC00" font-family="Open Sans,Avenir,Nunito,Arial,Helvetica,SansSerif" font-size="12.5" font-weight="bold" lengthAdjust="spacing" textLength="123.9583" x="611.9792" y="184.5378">SwitchListValidator</text><line style="stroke:#5E5E5E;stroke-width:1.5625;" x1="504.6875" x2="800.5208" y1="195.5078" y2="195.5078"/><ellipse cx="515.1042" cy="230.8777" fill="#84BE84" rx="3.125" ry="3.125" style="stroke:#038048;stroke-width:1.0416666666666667;"/><text fill="#D8BC00" font-family="Open Sans,Avenir,Nunito,Arial,Helvetica,SansSerif" font-size="11.4583" lengthAdjust="spacing" textLength="265.625" x="526.5625" y="237.7889">SwitchListValidator(SwitchParserList, SwitchList)</text><line style="stroke:#5E5E5E;stroke-width:1.0416666666666667;" x1="504.6875" x2="608.8542" y1="213.7136" y2="213.7136"/><text fill="#D8BC00" font-family="Open Sans,Avenir,Nunito,Arial,Helvetica,SansSerif" font-size="11.4583" lengthAdjust="spacing" textLength="81.25" x="611.9792" y="217.5232">(constructors)</text><line style="stroke:#5E5E5E;stroke-width:1.0416666666666667;" x1="696.3542" x2="800.5208" y1="213.7136" y2="213.7136"/><rect codeLine="47" fill="#282828" height="131.2012" id="SwitchParserList" rx="8.3333" ry="8.3333" style="stroke:#5E5E5E;stroke-width:1.0416666666666667;" width="253.125" x="803.6458" y="331.307"/><rect fill="#1B1B1A" height="31.3883" rx="8.3333" ry="8.3333" style="stroke:#1B1B1A;stroke-width:1.0416666666666667;" width="253.125" x="803.6458" y="331.307"/><rect fill="#1B1B1A" height="8.3333" style="stroke:#1B1B1A;stroke-width:1.0416666666666667;" width="253.125" x="803.6458" y="354.362"/><rect codeLine="47" fill="none" height="131.2012" id="SwitchParserList" rx="8.3333" ry="8.3333" style="stroke:#5E5E5E;stroke-width:1.0416666666666667;" width="253.125" x="803.6458" y="331.307"/><ellipse cx="864.5833" cy="347.0011" fill="#0066CF" rx="10.4167" ry="10.4167" style="stroke:#0086EF;stroke-width:1.0416666666666667;"/><path d="M866.4937,351.4262 Q866.0665,351.6459 865.5965,351.7558 Q865.1265,351.8656 864.6077,351.8656 Q862.7645,351.8656 861.794,350.651 Q860.8236,349.4364 860.8236,347.1415 Q860.8236,344.8405 861.794,343.6259 Q862.7645,342.4113 864.6077,342.4113 Q865.1265,342.4113 865.6026,342.5212 Q866.0787,342.631 866.4937,342.8507 L866.4937,344.8527 Q866.0299,344.4255 865.5935,344.2271 Q865.1571,344.0287 864.6932,344.0287 Q863.7044,344.0287 863.2009,344.813 Q862.6973,345.5973 862.6973,347.1415 Q862.6973,348.6796 863.2009,349.4639 Q863.7044,350.2482 864.6932,350.2482 Q865.1571,350.2482 865.5935,350.0498 Q866.0299,349.8515 866.4937,349.4242 Z " fill="#000000"/><rect fill="#F24D5C" height="6.25" style="stroke:#C82930;stroke-width:1.0416666666666667;" width="6.25" x="886.4583" y="343.3553"/><text fill="#D8BC00" font-family="Open Sans,Avenir,Nunito,Arial,Helvetica,SansSerif" font-size="12.5" font-weight="bold" lengthAdjust="spacing" textLength="105.2083" x="898.9583" y="351.7253">SwitchParserList</text><line style="stroke:#5E5E5E;stroke-width:1.5625;" x1="804.6875" x2="1055.7292" y1="362.6953" y2="362.6953"/><line style="stroke:#5E5E5E;stroke-width:1.0416666666666667;" x1="804.6875" x2="1055.7292" y1="371.0286" y2="371.0286"/><ellipse cx="815.1042" cy="382.487" fill="#84BE84" rx="3.125" ry="3.125" style="stroke:#038048;stroke-width:1.0416666666666667;"/><text fill="#D8BC00" font-family="Open Sans,Avenir,Nunito,Arial,Helvetica,SansSerif" font-size="11.4583" lengthAdjust="spacing" textLength="68.75" x="826.5625" y="389.3982">String help()</text><ellipse cx="815.1042" cy="426.1434" fill="#84BE84" rx="3.125" ry="3.125" style="stroke:#038048;stroke-width:1.0416666666666667;"/><text fill="#D8BC00" font-family="Open Sans,Avenir,Nunito,Arial,Helvetica,SansSerif" font-size="11.4583" lengthAdjust="spacing" textLength="151.0417" x="826.5625" y="433.0546">void add(SwitchParser&lt;?&gt;)</text><ellipse cx="815.1042" cy="445.8883" fill="#84BE84" rx="3.125" ry="3.125" style="stroke:#038048;stroke-width:1.0416666666666667;"/><text fill="#D8BC00" font-family="Open Sans,Avenir,Nunito,Arial,Helvetica,SansSerif" font-size="11.4583" lengthAdjust="spacing" textLength="220.8333" x="826.5625" y="452.7995">SwitchParser&lt;?&gt; forName(String name)</text><line style="stroke:#5E5E5E;stroke-width:1.0416666666666667;" x1="804.6875" x2="860.9375" y1="408.9793" y2="408.9793"/><text fill="#D8BC00" font-family="Open Sans,Avenir,Nunito,Arial,Helvetica,SansSerif" font-size="11.4583" lengthAdjust="spacing" textLength="132.2917" x="864.0625" y="412.7889">(command line parsing)</text><line style="stroke:#5E5E5E;stroke-width:1.0416666666666667;" x1="999.4792" x2="1055.7292" y1="408.9793" y2="408.9793"/><rect fill="#282828" height="48.055" id="SwitchParser" rx="8.3333" ry="8.3333" style="stroke:#5E5E5E;stroke-width:1.0416666666666667;" width="118.75" x="871.3542" y="565.1611"/><rect fill="#1B1B1A" height="31.3883" rx="8.3333" ry="8.3333" style="stroke:#1B1B1A;stroke-width:1.0416666666666667;" width="118.75" x="871.3542" y="565.1611"/><rect fill="#1B1B1A" height="8.3333" style="stroke:#1B1B1A;stroke-width:1.0416666666666667;" width="118.75" x="871.3542" y="588.2161"/><rect fill="none" height="48.055" id="SwitchParser" rx="8.3333" ry="8.3333" style="stroke:#5E5E5E;stroke-width:1.0416666666666667;" width="118.75" x="871.3542" y="565.1611"/><ellipse cx="885.9375" cy="580.8553" fill="#0066CF" rx="10.4167" ry="10.4167" style="stroke:#0086EF;stroke-width:1.0416666666666667;"/><path d="M887.8479,585.2804 Q887.4207,585.5001 886.9507,585.6099 Q886.4807,585.7198 885.9619,585.7198 Q884.1187,585.7198 883.1482,584.5052 Q882.1777,583.2906 882.1777,580.9957 Q882.1777,578.6947 883.1482,577.4801 Q884.1187,576.2655 885.9619,576.2655 Q886.4807,576.2655 886.9568,576.3753 Q887.4329,576.4852 887.8479,576.7049 L887.8479,578.7069 Q887.384,578.2796 886.9476,578.0813 Q886.5112,577.8829 886.0474,577.8829 Q885.0586,577.8829 884.5551,578.6672 Q884.0515,579.4515 884.0515,580.9957 Q884.0515,582.5338 884.5551,583.3181 Q885.0586,584.1024 886.0474,584.1024 Q886.5112,584.1024 886.9476,583.904 Q887.384,583.7056 887.8479,583.2784 Z " fill="#000000"/><text fill="#D8BC00" font-family="Open Sans,Avenir,Nunito,Arial,Helvetica,SansSerif" font-size="12.5" font-weight="bold" lengthAdjust="spacing" textLength="81.25" x="902.6042" y="585.5794">SwitchParser</text><line style="stroke:#5E5E5E;stroke-width:1.0416666666666667;" x1="872.3958" x2="989.0625" y1="596.5495" y2="596.5495"/><line style="stroke:#5E5E5E;stroke-width:1.0416666666666667;" x1="872.3958" x2="989.0625" y1="604.8828" y2="604.8828"/><path codeLine="9" d="M418.4479,113.8382 C395.9688,129.3903 369.3854,147.7653 346.0208,163.9215 " fill="none" id="BaseValidator-backto-ArgumentListValidator" style="stroke:#545454;stroke-width:1.5625;"/><polygon fill="none" points="414.5521,107.6715,435.8333,101.8174,422.8438,119.6715,414.5521,107.6715" style="stroke:#545454;stroke-width:1.5625;"/><path codeLine="10" d="M218.4792,255.7236 C196.5208,272.2445 172.4896,291.2549 151.5625,309.9528 C129.5,329.6611 106.3646,354.2757 90.4479,371.9215 " fill="none" id="ArgumentListValidator-backto-ArgumentList" style="stroke:#545454;stroke-width:1.5625;"/><polygon fill="#333333" points="229.4063,247.5674,221.9053,247.9659,219.3881,255.0432,226.8891,254.6446,229.4063,247.5674" style="stroke:#545454;stroke-width:1.5625;"/><path codeLine="11" d="M293.0104,261.5882 C295.4063,283.3278 298.1875,308.5153 300.6771,331.1611 " fill="none" id="ArgumentListValidator-backto-ArgumentParserList" style="stroke:#545454;stroke-width:1.5625;"/><polygon fill="#333333" points="291.5,247.8486,288.0377,254.5147,292.8593,260.2745,296.3216,253.6085,291.5,247.8486" style="stroke:#545454;stroke-width:1.5625;"/><path codeLine="18" d="M307.8125,475.1611 C307.8125,507.4632 307.8125,542.6195 307.8125,564.984 " fill="none" id="ArgumentParserList-backto-ArgumentParser" style="stroke:#545454;stroke-width:1.5625;"/><polygon fill="#333333" points="307.8125,461.5361,303.6458,467.7861,307.8125,474.0361,311.9792,467.7861,307.8125,461.5361" style="stroke:#545454;stroke-width:1.5625;"/><text fill="#A0A0A0" font-family="Open Sans,Avenir,Nunito,Arial,Helvetica,SansSerif" font-size="12.5" font-weight="bold" lengthAdjust="spacing" textLength="8.3333" x="295.4655" y="485.9007">1</text><text fill="#A0A0A0" font-family="Open Sans,Avenir,Nunito,Arial,Helvetica,SansSerif" font-size="12.5" font-weight="bold" lengthAdjust="spacing" textLength="6.25" x="296.9141" y="550.9386">*</text><path codeLine="28" d="M631.7708,473.234 C631.7708,506.0257 631.7708,542.109 631.7708,564.9111 " fill="none" id="SwitchList-backto-Switch" style="stroke:#545454;stroke-width:1.5625;"/><polygon fill="#333333" points="631.7708,459.432,627.6042,465.682,631.7708,471.932,635.9375,465.682,631.7708,459.432" style="stroke:#545454;stroke-width:1.5625;"/><text fill="#A0A0A0" font-family="Open Sans,Avenir,Nunito,Arial,Helvetica,SansSerif" font-size="12.5" font-weight="bold" lengthAdjust="spacing" textLength="8.3333" x="619.3783" y="483.9964">1</text><text fill="#A0A0A0" font-family="Open Sans,Avenir,Nunito,Arial,Helvetica,SansSerif" font-size="12.5" font-weight="bold" lengthAdjust="spacing" textLength="6.25" x="620.9505" y="551.2807">*</text><path codeLine="37" d="M520.3854,113.8382 C542.9896,129.3903 569.7292,147.7653 593.2188,163.9215 " fill="none" id="BaseValidator-backto-SwitchListValidator" style="stroke:#545454;stroke-width:1.5625;"/><polygon fill="none" points="515.9375,119.6299,502.8958,101.8174,524.1979,107.6195,515.9375,119.6299" style="stroke:#545454;stroke-width:1.5625;"/><path codeLine="38" d="M646.5938,261.3278 C644.1146,283.8486 641.2292,310.0778 638.6563,333.3695 " fill="none" id="SwitchListValidator-backto-SwitchList" style="stroke:#545454;stroke-width:1.5625;"/><polygon fill="#333333" points="648.0833,247.8486,643.2617,253.6085,646.724,260.2745,651.5456,254.5147,648.0833,247.8486" style="stroke:#545454;stroke-width:1.5625;"/><path codeLine="39" d="M723.8438,255.2549 C757.8125,278.3486 798.9479,306.307 835.5521,331.1924 " fill="none" id="SwitchListValidator-backto-SwitchParserList" style="stroke:#545454;stroke-width:1.5625;"/><polygon fill="#333333" points="712.6146,247.6195,715.4402,254.5793,722.9514,254.648,720.1258,247.6881,712.6146,247.6195" style="stroke:#545454;stroke-width:1.5625;"/><path codeLine="46" d="M930.7292,475.1611 C930.7292,507.4632 930.7292,542.6195 930.7292,564.984 " fill="none" id="SwitchParserList-backto-SwitchParser" style="stroke:#545454;stroke-width:1.5625;"/><polygon fill="#333333" points="930.7292,461.5361,926.5625,467.7861,930.7292,474.0361,934.8958,467.7861,930.7292,461.5361" style="stroke:#545454;stroke-width:1.5625;"/><text fill="#A0A0A0" font-family="Open Sans,Avenir,Nunito,Arial,Helvetica,SansSerif" font-size="12.5" font-weight="bold" lengthAdjust="spacing" textLength="8.3333" x="918.4456" y="485.9007">1</text><text fill="#A0A0A0" font-family="Open Sans,Avenir,Nunito,Arial,Helvetica,SansSerif" font-size="12.5" font-weight="bold" lengthAdjust="spacing" textLength="6.25" x="919.8307" y="550.9386">*</text></g></svg>
