<?xml version="1.0" encoding="UTF-8" standalone="no"?><svg xmlns="http://www.w3.org/2000/svg" xmlns:xlink="http://www.w3.org/1999/xlink" contentScriptType="application/ecmascript" contentStyleType="text/css" height="1795.8333px" preserveAspectRatio="none" style="width:783px;height:1795px;background:#333333;" version="1.1" viewBox="0 0 783 1795" width="783.3333px" zoomAndPan="magnify"><defs/><g><rect fill="#48494B" height="41.2028" rx="8.3333" ry="8.3333" style="stroke:#545454;stroke-width:1.0416666666666667;" width="201.0417" x="284.1146" y="2.0833"/><text fill="#C0C0C0" font-family="Open Sans,Avenir,Nunito,Arial,Helvetica,SansSerif" font-size="20.8333" lengthAdjust="spacing" textLength="178.125" x="295.5729" y="30.5583">Argument Parsing</text><rect codeLine="8" fill="#282828" height="170.6909" id="Argument" rx="8.3333" ry="8.3333" style="stroke:#5E5E5E;stroke-width:1.0416666666666667;" width="186.4583" x="145.8333" y="792.7653"/><rect fill="#1B1B1A" height="31.3883" rx="8.3333" ry="8.3333" style="stroke:#1B1B1A;stroke-width:1.0416666666666667;" width="186.4583" x="145.8333" y="792.7653"/><rect fill="#1B1B1A" height="8.3333" style="stroke:#1B1B1A;stroke-width:1.0416666666666667;" width="186.4583" x="145.8333" y="815.8203"/><rect codeLine="8" fill="none" height="170.6909" id="Argument" rx="8.3333" ry="8.3333" style="stroke:#5E5E5E;stroke-width:1.0416666666666667;" width="186.4583" x="145.8333" y="792.7653"/><ellipse cx="199.4792" cy="808.4595" fill="#0066CF" rx="10.4167" ry="10.4167" style="stroke:#0086EF;stroke-width:1.0416666666666667;"/><path d="M201.3896,812.8845 Q200.9623,813.1042 200.4924,813.2141 Q200.0224,813.324 199.5036,813.324 Q197.6603,813.324 196.6899,812.1094 Q195.7194,810.8948 195.7194,808.5999 Q195.7194,806.2988 196.6899,805.0842 Q197.6603,803.8696 199.5036,803.8696 Q200.0224,803.8696 200.4985,803.9795 Q200.9745,804.0894 201.3896,804.3091 L201.3896,806.311 Q200.9257,805.8838 200.4893,805.6854 Q200.0529,805.4871 199.589,805.4871 Q198.6003,805.4871 198.0967,806.2714 Q197.5932,807.0557 197.5932,808.5999 Q197.5932,810.1379 198.0967,810.9222 Q198.6003,811.7065 199.589,811.7065 Q200.0529,811.7065 200.4893,811.5082 Q200.9257,811.3098 201.3896,810.8826 Z " fill="#000000"/><text fill="#D8BC00" font-family="Open Sans,Avenir,Nunito,Arial,Helvetica,SansSerif" font-size="12.5" font-weight="bold" lengthAdjust="spacing" textLength="64.5833" x="222.3958" y="813.1836">Argument</text><line style="stroke:#5E5E5E;stroke-width:1.5625;" x1="146.875" x2="331.25" y1="824.1536" y2="824.1536"/><ellipse cx="157.2917" cy="859.5235" fill="#84BE84" rx="3.125" ry="3.125" style="stroke:#038048;stroke-width:1.0416666666666667;"/><text fill="#D8BC00" font-family="Open Sans,Avenir,Nunito,Arial,Helvetica,SansSerif" font-size="11.4583" lengthAdjust="spacing" textLength="97.9167" x="168.75" y="866.4347">Argument(String)</text><line style="stroke:#5E5E5E;stroke-width:1.0416666666666667;" x1="146.875" x2="195.3125" y1="842.3594" y2="842.3594"/><text fill="#D8BC00" font-family="Open Sans,Avenir,Nunito,Arial,Helvetica,SansSerif" font-size="11.4583" lengthAdjust="spacing" textLength="81.25" x="198.4375" y="846.169">(constructors)</text><line style="stroke:#5E5E5E;stroke-width:1.0416666666666667;" x1="282.8125" x2="331.25" y1="842.3594" y2="842.3594"/><ellipse cx="157.2917" cy="903.1799" fill="#84BE84" rx="3.125" ry="3.125" style="stroke:#038048;stroke-width:1.0416666666666667;"/><text fill="#D8BC00" font-family="Open Sans,Avenir,Nunito,Arial,Helvetica,SansSerif" font-size="11.4583" lengthAdjust="spacing" textLength="73.9583" x="168.75" y="910.0911">String value()</text><line style="stroke:#5E5E5E;stroke-width:1.0416666666666667;" x1="146.875" x2="204.6875" y1="886.0158" y2="886.0158"/><text fill="#D8BC00" font-family="Open Sans,Avenir,Nunito,Arial,Helvetica,SansSerif" font-size="11.4583" lengthAdjust="spacing" textLength="62.5" x="207.8125" y="889.8254">(collection)</text><line style="stroke:#5E5E5E;stroke-width:1.0416666666666667;" x1="273.4375" x2="331.25" y1="886.0158" y2="886.0158"/><ellipse cx="157.2917" cy="946.8363" fill="#84BE84" rx="3.125" ry="3.125" style="stroke:#038048;stroke-width:1.0416666666666667;"/><text fill="#D8BC00" font-family="Open Sans,Avenir,Nunito,Arial,Helvetica,SansSerif" font-size="11.4583" lengthAdjust="spacing" textLength="154.1667" x="168.75" y="953.7476">T get(ArgumentParser&lt;T&gt;)</text><line style="stroke:#5E5E5E;stroke-width:1.0416666666666667;" x1="146.875" x2="169.7917" y1="929.6722" y2="929.6722"/><text fill="#D8BC00" font-family="Open Sans,Avenir,Nunito,Arial,Helvetica,SansSerif" font-size="11.4583" lengthAdjust="spacing" textLength="132.2917" x="172.9167" y="933.4819">(command line parsing)</text><line style="stroke:#5E5E5E;stroke-width:1.0416666666666667;" x1="308.3333" x2="331.25" y1="929.6722" y2="929.6722"/><rect codeLine="31" fill="#282828" height="352.5614" id="ArgumentParser" rx="8.3333" ry="8.3333" style="stroke:#5E5E5E;stroke-width:1.0416666666666667;" width="432.2917" x="109.375" y="1089.1195"/><rect fill="#1B1B1A" height="31.3883" rx="8.3333" ry="8.3333" style="stroke:#1B1B1A;stroke-width:1.0416666666666667;" width="432.2917" x="109.375" y="1089.1195"/><rect fill="#1B1B1A" height="8.3333" style="stroke:#1B1B1A;stroke-width:1.0416666666666667;" width="432.2917" x="109.375" y="1112.1745"/><rect codeLine="31" fill="none" height="352.5614" id="ArgumentParser" rx="8.3333" ry="8.3333" style="stroke:#5E5E5E;stroke-width:1.0416666666666667;" width="432.2917" x="109.375" y="1089.1195"/><ellipse cx="256.7708" cy="1104.8136" fill="#0066CF" rx="10.4167" ry="10.4167" style="stroke:#0086EF;stroke-width:1.0416666666666667;"/><path d="M258.6812,1109.2387 Q258.254,1109.4584 257.784,1109.5683 Q257.314,1109.6781 256.7952,1109.6781 Q254.952,1109.6781 253.9815,1108.4635 Q253.0111,1107.2489 253.0111,1104.954 Q253.0111,1102.653 253.9815,1101.4384 Q254.952,1100.2238 256.7952,1100.2238 Q257.314,1100.2238 257.7901,1100.3337 Q258.2662,1100.4435 258.6812,1100.6632 L258.6812,1102.6652 Q258.2174,1102.238 257.781,1102.0396 Q257.3446,1101.8412 256.8807,1101.8412 Q255.8919,1101.8412 255.3884,1102.6255 Q254.8848,1103.4098 254.8848,1104.954 Q254.8848,1106.4921 255.3884,1107.2764 Q255.8919,1108.0607 256.8807,1108.0607 Q257.3446,1108.0607 257.781,1107.8623 Q258.2174,1107.664 258.6812,1107.2367 Z " fill="#000000"/><text fill="#D8BC00" font-family="Open Sans,Avenir,Nunito,Arial,Helvetica,SansSerif" font-size="12.5" font-weight="bold" lengthAdjust="spacing" textLength="104.1667" x="279.6875" y="1109.5378">ArgumentParser</text><rect fill="#333333" height="23.055" style="stroke:#A0A0A0;stroke-width:1.0416666666666667;stroke-dasharray:2.0,2.0;" width="16.6667" x="528.125" y="1085.9945"/><text fill="#A0A0A0" font-family="Open Sans,Avenir,Nunito,Arial,Helvetica,SansSerif" font-size="12.5" font-weight="bold" lengthAdjust="spacing" textLength="8.3333" x="532.2917" y="1102.2461">T</text><line style="stroke:#5E5E5E;stroke-width:1.5625;" x1="110.4167" x2="540.625" y1="1120.5078" y2="1120.5078"/><line style="stroke:#5E5E5E;stroke-width:1.0416666666666667;" x1="110.4167" x2="540.625" y1="1128.8411" y2="1128.8411"/><ellipse cx="120.8333" cy="1140.2995" fill="#84BE84" rx="3.125" ry="3.125" style="stroke:#038048;stroke-width:1.0416666666666667;"/><text fill="#D8BC00" font-family="Open Sans,Avenir,Nunito,Arial,Helvetica,SansSerif" font-size="11.4583" lengthAdjust="spacing" textLength="108.3333" x="132.2917" y="1147.2107">String description()</text><ellipse cx="120.8333" cy="1160.0444" fill="#84BE84" rx="3.125" ry="3.125" style="stroke:#038048;stroke-width:1.0416666666666667;"/><text fill="#D8BC00" font-family="Open Sans,Avenir,Nunito,Arial,Helvetica,SansSerif" font-size="11.4583" lengthAdjust="spacing" textLength="68.75" x="132.2917" y="1166.9556">String help()</text><ellipse cx="120.8333" cy="1179.7892" fill="#84BE84" rx="3.125" ry="3.125" style="stroke:#038048;stroke-width:1.0416666666666667;"/><text fill="#D8BC00" font-family="Open Sans,Avenir,Nunito,Arial,Helvetica,SansSerif" font-size="11.4583" lengthAdjust="spacing" textLength="121.875" x="132.2917" y="1186.7004">Quantifier quantifier()</text><ellipse cx="120.8333" cy="1223.4456" fill="#84BE84" rx="3.125" ry="3.125" style="stroke:#038048;stroke-width:1.0416666666666667;"/><text fill="#D8BC00" font-family="Open Sans,Avenir,Nunito,Arial,Helvetica,SansSerif" font-size="11.4583" lengthAdjust="spacing" textLength="186.4583" x="132.2917" y="1230.3569">boolean isAllowedMultipleTimes()</text><ellipse cx="120.8333" cy="1243.1905" fill="#84BE84" rx="3.125" ry="3.125" style="stroke:#038048;stroke-width:1.0416666666666667;"/><text fill="#D8BC00" font-family="Open Sans,Avenir,Nunito,Arial,Helvetica,SansSerif" font-size="11.4583" lengthAdjust="spacing" textLength="113.5417" x="132.2917" y="1250.1017">boolean isOptional()</text><ellipse cx="120.8333" cy="1262.9354" fill="#84BE84" rx="3.125" ry="3.125" style="stroke:#038048;stroke-width:1.0416666666666667;"/><text fill="#D8BC00" font-family="Open Sans,Avenir,Nunito,Arial,Helvetica,SansSerif" font-size="11.4583" lengthAdjust="spacing" textLength="115.625" x="132.2917" y="1269.8466">boolean isRequired()</text><line style="stroke:#5E5E5E;stroke-width:1.0416666666666667;" x1="110.4167" x2="298.9583" y1="1206.2815" y2="1206.2815"/><text fill="#D8BC00" font-family="Open Sans,Avenir,Nunito,Arial,Helvetica,SansSerif" font-size="11.4583" lengthAdjust="spacing" textLength="46.875" x="302.0833" y="1210.0911">(checks)</text><line style="stroke:#5E5E5E;stroke-width:1.0416666666666667;" x1="352.0833" x2="540.625" y1="1206.2815" y2="1206.2815"/><ellipse cx="120.8333" cy="1306.5918" fill="#84BE84" rx="3.125" ry="3.125" style="stroke:#038048;stroke-width:1.0416666666666667;"/><text fill="#D8BC00" font-family="Open Sans,Avenir,Nunito,Arial,Helvetica,SansSerif" font-size="11.4583" lengthAdjust="spacing" textLength="400" x="132.2917" y="1313.503">Builder&lt;Boolean&gt; booleanArgumentParser(Listener, String description)</text><ellipse cx="120.8333" cy="1326.3367" fill="#84BE84" rx="3.125" ry="3.125" style="stroke:#038048;stroke-width:1.0416666666666667;"/><text fill="#D8BC00" font-family="Open Sans,Avenir,Nunito,Arial,Helvetica,SansSerif" font-size="11.4583" lengthAdjust="spacing" textLength="198.9583" x="132.2917" y="1333.2479">Builder&lt;T&gt; builder(Class&lt;T&gt; type)</text><ellipse cx="120.8333" cy="1346.0815" fill="#84BE84" rx="3.125" ry="3.125" style="stroke:#038048;stroke-width:1.0416666666666667;"/><text fill="#D8BC00" font-family="Open Sans,Avenir,Nunito,Arial,Helvetica,SansSerif" font-size="11.4583" lengthAdjust="spacing" textLength="196.875" x="132.2917" y="1352.9928">boolean canParse(String argument)</text><ellipse cx="120.8333" cy="1365.8264" fill="#84BE84" rx="3.125" ry="3.125" style="stroke:#038048;stroke-width:1.0416666666666667;"/><text fill="#D8BC00" font-family="Open Sans,Avenir,Nunito,Arial,Helvetica,SansSerif" font-size="11.4583" lengthAdjust="spacing" textLength="390.625" x="132.2917" y="1372.7376">Builder&lt;Integer&gt; integerArgumentParser(Listener, String description)</text><ellipse cx="120.8333" cy="1385.5713" fill="#84BE84" rx="3.125" ry="3.125" style="stroke:#038048;stroke-width:1.0416666666666667;"/><text fill="#D8BC00" font-family="Open Sans,Avenir,Nunito,Arial,Helvetica,SansSerif" font-size="11.4583" lengthAdjust="spacing" textLength="364.5833" x="132.2917" y="1392.4825">Builder&lt;Long&gt; longArgumentParser(Listener, String description)</text><ellipse cx="120.8333" cy="1405.3162" fill="#84BE84" rx="3.125" ry="3.125" style="stroke:#038048;stroke-width:1.0416666666666667;"/><text fill="#D8BC00" font-family="Open Sans,Avenir,Nunito,Arial,Helvetica,SansSerif" font-size="11.4583" lengthAdjust="spacing" textLength="378.125" x="132.2917" y="1412.2274">Builder&lt;String&gt; stringArgumentParser(Listener, String description)</text><ellipse cx="120.8333" cy="1425.061" fill="#84BE84" rx="3.125" ry="3.125" style="stroke:#038048;stroke-width:1.0416666666666667;"/><text fill="#D8BC00" font-family="Open Sans,Avenir,Nunito,Arial,Helvetica,SansSerif" font-size="11.4583" lengthAdjust="spacing" textLength="395.8333" x="132.2917" y="1431.9722">Builder&lt;Version&gt; versionArgumentParser(Listener, String description)</text><line style="stroke:#5E5E5E;stroke-width:1.0416666666666667;" x1="110.4167" x2="296.875" y1="1289.4277" y2="1289.4277"/><text fill="#D8BC00" font-family="Open Sans,Avenir,Nunito,Arial,Helvetica,SansSerif" font-size="11.4583" lengthAdjust="spacing" textLength="51.0417" x="300" y="1293.2373">(parsing)</text><line style="stroke:#5E5E5E;stroke-width:1.0416666666666667;" x1="354.1667" x2="540.625" y1="1289.4277" y2="1289.4277"/><rect codeLine="19" fill="#282828" height="146.7794" id="ArgumentList" rx="8.3333" ry="8.3333" style="stroke:#5E5E5E;stroke-width:1.0416666666666667;" width="166.6667" x="162.5" y="370.3695"/><rect fill="#1B1B1A" height="31.3883" rx="8.3333" ry="8.3333" style="stroke:#1B1B1A;stroke-width:1.0416666666666667;" width="166.6667" x="162.5" y="370.3695"/><rect fill="#1B1B1A" height="8.3333" style="stroke:#1B1B1A;stroke-width:1.0416666666666667;" width="166.6667" x="162.5" y="393.4245"/><rect codeLine="19" fill="none" height="146.7794" id="ArgumentList" rx="8.3333" ry="8.3333" style="stroke:#5E5E5E;stroke-width:1.0416666666666667;" width="166.6667" x="162.5" y="370.3695"/><ellipse cx="195.3646" cy="386.0636" fill="#0066CF" rx="10.4167" ry="10.4167" style="stroke:#0086EF;stroke-width:1.0416666666666667;"/><path d="M197.275,390.4887 Q196.8477,390.7084 196.3778,390.8183 Q195.9078,390.9281 195.389,390.9281 Q193.5457,390.9281 192.5753,389.7135 Q191.6048,388.4989 191.6048,386.204 Q191.6048,383.903 192.5753,382.6884 Q193.5457,381.4738 195.389,381.4738 Q195.9078,381.4738 196.3839,381.5837 Q196.8599,381.6935 197.275,381.9132 L197.275,383.9152 Q196.8111,383.488 196.3747,383.2896 Q195.9383,383.0912 195.4744,383.0912 Q194.4857,383.0912 193.9821,383.8755 Q193.4786,384.6598 193.4786,386.204 Q193.4786,387.7421 193.9821,388.5264 Q194.4857,389.3107 195.4744,389.3107 Q195.9383,389.3107 196.3747,389.1123 Q196.8111,388.914 197.275,388.4867 Z " fill="#000000"/><text fill="#D8BC00" font-family="Open Sans,Avenir,Nunito,Arial,Helvetica,SansSerif" font-size="12.5" font-weight="bold" lengthAdjust="spacing" textLength="88.5417" x="216.0938" y="390.7878">ArgumentList</text><line style="stroke:#5E5E5E;stroke-width:1.5625;" x1="163.5417" x2="328.125" y1="401.7578" y2="401.7578"/><ellipse cx="173.9583" cy="437.1277" fill="#84BE84" rx="3.125" ry="3.125" style="stroke:#038048;stroke-width:1.0416666666666667;"/><text fill="#D8BC00" font-family="Open Sans,Avenir,Nunito,Arial,Helvetica,SansSerif" font-size="11.4583" lengthAdjust="spacing" textLength="112.5" x="185.4167" y="444.0389">void add(Argument)</text><line style="stroke:#5E5E5E;stroke-width:1.0416666666666667;" x1="163.5417" x2="211.4583" y1="419.9636" y2="419.9636"/><text fill="#D8BC00" font-family="Open Sans,Avenir,Nunito,Arial,Helvetica,SansSerif" font-size="11.4583" lengthAdjust="spacing" textLength="62.5" x="214.5833" y="423.7732">(collection)</text><line style="stroke:#5E5E5E;stroke-width:1.0416666666666667;" x1="280.2083" x2="328.125" y1="419.9636" y2="419.9636"/><ellipse cx="173.9583" cy="480.7841" fill="#84BE84" rx="3.125" ry="3.125" style="stroke:#038048;stroke-width:1.0416666666666667;"/><text fill="#D8BC00" font-family="Open Sans,Avenir,Nunito,Arial,Helvetica,SansSerif" font-size="11.4583" lengthAdjust="spacing" textLength="90.625" x="185.4167" y="487.6953">Argument first()</text><ellipse cx="173.9583" cy="500.529" fill="#84BE84" rx="3.125" ry="3.125" style="stroke:#038048;stroke-width:1.0416666666666667;"/><text fill="#D8BC00" font-family="Open Sans,Avenir,Nunito,Arial,Helvetica,SansSerif" font-size="11.4583" lengthAdjust="spacing" textLength="134.375" x="185.4167" y="507.4402">Argument get(int index)</text><line style="stroke:#5E5E5E;stroke-width:1.0416666666666667;" x1="163.5417" x2="176.5625" y1="463.62" y2="463.62"/><text fill="#D8BC00" font-family="Open Sans,Avenir,Nunito,Arial,Helvetica,SansSerif" font-size="11.4583" lengthAdjust="spacing" textLength="132.2917" x="179.6875" y="467.4296">(command line parsing)</text><line style="stroke:#5E5E5E;stroke-width:1.0416666666666667;" x1="315.1042" x2="328.125" y1="463.62" y2="463.62"/><rect codeLine="62" fill="#282828" height="241.3371" id="ArgumentParser.Builder" rx="8.3333" ry="8.3333" style="stroke:#5E5E5E;stroke-width:1.0416666666666667;" width="281.25" x="7.2917" y="1547.4528"/><rect fill="#1B1B1A" height="31.3883" rx="8.3333" ry="8.3333" style="stroke:#1B1B1A;stroke-width:1.0416666666666667;" width="281.25" x="7.2917" y="1547.4528"/><rect fill="#1B1B1A" height="8.3333" style="stroke:#1B1B1A;stroke-width:1.0416666666666667;" width="281.25" x="7.2917" y="1570.5078"/><rect codeLine="62" fill="none" height="241.3371" id="ArgumentParser.Builder" rx="8.3333" ry="8.3333" style="stroke:#5E5E5E;stroke-width:1.0416666666666667;" width="281.25" x="7.2917" y="1547.4528"/><ellipse cx="108.3333" cy="1563.147" fill="#0066CF" rx="10.4167" ry="10.4167" style="stroke:#0086EF;stroke-width:1.0416666666666667;"/><path d="M110.2437,1567.572 Q109.8165,1567.7917 109.3465,1567.9016 Q108.8765,1568.0115 108.3577,1568.0115 Q106.5145,1568.0115 105.544,1566.7969 Q104.5736,1565.5823 104.5736,1563.2874 Q104.5736,1560.9863 105.544,1559.7717 Q106.5145,1558.5571 108.3577,1558.5571 Q108.8765,1558.5571 109.3526,1558.667 Q109.8287,1558.7769 110.2437,1558.9966 L110.2437,1560.9985 Q109.7799,1560.5713 109.3435,1560.3729 Q108.9071,1560.1746 108.4432,1560.1746 Q107.4544,1560.1746 106.9509,1560.9589 Q106.4473,1561.7432 106.4473,1563.2874 Q106.4473,1564.8254 106.9509,1565.6097 Q107.4544,1566.394 108.4432,1566.394 Q108.9071,1566.394 109.3435,1566.1957 Q109.7799,1565.9973 110.2437,1565.5701 Z " fill="#000000"/><text fill="#D8BC00" font-family="Open Sans,Avenir,Nunito,Arial,Helvetica,SansSerif" font-size="12.5" font-weight="bold" lengthAdjust="spacing" textLength="45.8333" x="131.25" y="1567.8711">Builder</text><rect fill="#333333" height="23.055" style="stroke:#A0A0A0;stroke-width:1.0416666666666667;stroke-dasharray:2.0,2.0;" width="16.6667" x="275" y="1544.3278"/><text fill="#A0A0A0" font-family="Open Sans,Avenir,Nunito,Arial,Helvetica,SansSerif" font-size="12.5" font-weight="bold" lengthAdjust="spacing" textLength="8.3333" x="279.1667" y="1560.5794">T</text><line style="stroke:#5E5E5E;stroke-width:1.5625;" x1="8.3333" x2="287.5" y1="1578.8411" y2="1578.8411"/><ellipse cx="18.75" cy="1614.211" fill="#84BE84" rx="3.125" ry="3.125" style="stroke:#038048;stroke-width:1.0416666666666667;"/><text fill="#D8BC00" font-family="Open Sans,Avenir,Nunito,Arial,Helvetica,SansSerif" font-size="11.4583" lengthAdjust="spacing" textLength="157.2917" x="30.2083" y="1621.1222">ArgumentParser&lt;T&gt; build()</text><ellipse cx="18.75" cy="1633.9559" fill="#84BE84" rx="3.125" ry="3.125" style="stroke:#038048;stroke-width:1.0416666666666667;"/><text fill="#D8BC00" font-family="Open Sans,Avenir,Nunito,Arial,Helvetica,SansSerif" font-size="11.4583" lengthAdjust="spacing" textLength="248.9583" x="30.2083" y="1640.8671">Builder&lt;T&gt; converter(Converter&lt;String,T&gt;)</text><ellipse cx="18.75" cy="1653.7008" fill="#84BE84" rx="3.125" ry="3.125" style="stroke:#038048;stroke-width:1.0416666666666667;"/><text fill="#D8BC00" font-family="Open Sans,Avenir,Nunito,Arial,Helvetica,SansSerif" font-size="11.4583" lengthAdjust="spacing" textLength="239.5833" x="30.2083" y="1660.612">Builder&lt;T&gt; description(String description)</text><ellipse cx="18.75" cy="1673.4456" fill="#84BE84" rx="3.125" ry="3.125" style="stroke:#038048;stroke-width:1.0416666666666667;"/><text fill="#D8BC00" font-family="Open Sans,Avenir,Nunito,Arial,Helvetica,SansSerif" font-size="11.4583" lengthAdjust="spacing" textLength="139.5833" x="30.2083" y="1680.3569">Builder&lt;T&gt; oneOrMore()</text><ellipse cx="18.75" cy="1693.1905" fill="#84BE84" rx="3.125" ry="3.125" style="stroke:#038048;stroke-width:1.0416666666666667;"/><text fill="#D8BC00" font-family="Open Sans,Avenir,Nunito,Arial,Helvetica,SansSerif" font-size="11.4583" lengthAdjust="spacing" textLength="121.875" x="30.2083" y="1700.1017">Builder&lt;T&gt; optional()</text><ellipse cx="18.75" cy="1712.9354" fill="#84BE84" rx="3.125" ry="3.125" style="stroke:#038048;stroke-width:1.0416666666666667;"/><text fill="#D8BC00" font-family="Open Sans,Avenir,Nunito,Arial,Helvetica,SansSerif" font-size="11.4583" lengthAdjust="spacing" textLength="123.9583" x="30.2083" y="1719.8466">Builder&lt;T&gt; required()</text><ellipse cx="18.75" cy="1732.6803" fill="#84BE84" rx="3.125" ry="3.125" style="stroke:#038048;stroke-width:1.0416666666666667;"/><text fill="#D8BC00" font-family="Open Sans,Avenir,Nunito,Arial,Helvetica,SansSerif" font-size="11.4583" lengthAdjust="spacing" textLength="138.5417" x="30.2083" y="1739.5915">Builder&lt;T&gt; twoOrMore()</text><ellipse cx="18.75" cy="1752.4251" fill="#84BE84" rx="3.125" ry="3.125" style="stroke:#038048;stroke-width:1.0416666666666667;"/><text fill="#D8BC00" font-family="Open Sans,Avenir,Nunito,Arial,Helvetica,SansSerif" font-size="11.4583" lengthAdjust="spacing" textLength="183.3333" x="30.2083" y="1759.3363">Builder&lt;T&gt; type(Class&lt;T&gt; type)</text><ellipse cx="18.75" cy="1772.17" fill="#84BE84" rx="3.125" ry="3.125" style="stroke:#038048;stroke-width:1.0416666666666667;"/><text fill="#D8BC00" font-family="Open Sans,Avenir,Nunito,Arial,Helvetica,SansSerif" font-size="11.4583" lengthAdjust="spacing" textLength="143.75" x="30.2083" y="1779.0812">Builder&lt;T&gt; zeroOrMore()</text><line style="stroke:#5E5E5E;stroke-width:1.0416666666666667;" x1="8.3333" x2="78.6458" y1="1597.0469" y2="1597.0469"/><text fill="#D8BC00" font-family="Open Sans,Avenir,Nunito,Arial,Helvetica,SansSerif" font-size="11.4583" lengthAdjust="spacing" textLength="132.2917" x="81.7708" y="1600.8565">(command line parsing)</text><line style="stroke:#5E5E5E;stroke-width:1.0416666666666667;" x1="217.1875" x2="287.5" y1="1597.0469" y2="1597.0469"/><rect codeLine="92" fill="#282828" height="146.7794" id="Quantifier" rx="8.3333" ry="8.3333" style="stroke:#5E5E5E;stroke-width:1.0416666666666667;" width="110.4167" x="325" y="1594.8486"/><rect fill="#1B1B1A" height="31.3883" rx="8.3333" ry="8.3333" style="stroke:#1B1B1A;stroke-width:1.0416666666666667;" width="110.4167" x="325" y="1594.8486"/><rect fill="#1B1B1A" height="8.3333" style="stroke:#1B1B1A;stroke-width:1.0416666666666667;" width="110.4167" x="325" y="1617.9036"/><rect codeLine="92" fill="none" height="146.7794" id="Quantifier" rx="8.3333" ry="8.3333" style="stroke:#5E5E5E;stroke-width:1.0416666666666667;" width="110.4167" x="325" y="1594.8486"/><ellipse cx="342.8646" cy="1610.5428" fill="#CF6300" rx="10.4167" ry="10.4167" style="stroke:#EF8300;stroke-width:1.0416666666666667;"/><path d="M345.9204,1615.2303 L340.2441,1615.2303 L340.2441,1606.1178 L345.9204,1606.1178 L345.9204,1607.7047 L342.0447,1607.7047 L342.0447,1609.67 L345.5542,1609.67 L345.5542,1611.2569 L342.0447,1611.2569 L342.0447,1613.6434 L345.9204,1613.6434 Z " fill="#000000"/><text fill="#D8BC00" font-family="Open Sans,Avenir,Nunito,Arial,Helvetica,SansSerif" font-size="12.5" font-weight="bold" lengthAdjust="spacing" textLength="65.625" x="360.2604" y="1615.2669">Quantifier</text><line style="stroke:#5E5E5E;stroke-width:1.0416666666666667;" x1="326.0417" x2="434.375" y1="1626.237" y2="1626.237"/><text fill="#D8BC00" font-family="Open Sans,Avenir,Nunito,Arial,Helvetica,SansSerif" font-size="11.4583" lengthAdjust="spacing" textLength="85.4167" x="334.375" y="1644.6065">ONE_OR_MORE</text><text fill="#D8BC00" font-family="Open Sans,Avenir,Nunito,Arial,Helvetica,SansSerif" font-size="11.4583" lengthAdjust="spacing" textLength="58.3333" x="334.375" y="1664.3514">OPTIONAL</text><text fill="#D8BC00" font-family="Open Sans,Avenir,Nunito,Arial,Helvetica,SansSerif" font-size="11.4583" lengthAdjust="spacing" textLength="56.25" x="334.375" y="1684.0963">REQUIRED</text><text fill="#D8BC00" font-family="Open Sans,Avenir,Nunito,Arial,Helvetica,SansSerif" font-size="11.4583" lengthAdjust="spacing" textLength="87.5" x="334.375" y="1703.8411">TWO_OR_MORE</text><text fill="#D8BC00" font-family="Open Sans,Avenir,Nunito,Arial,Helvetica,SansSerif" font-size="11.4583" lengthAdjust="spacing" textLength="91.6667" x="334.375" y="1723.586">ZERO_OR_MORE</text><line style="stroke:#5E5E5E;stroke-width:1.0416666666666667;" x1="326.0417" x2="434.375" y1="1733.2947" y2="1733.2947"/><rect fill="#282828" height="48.055" id="Converter" rx="8.3333" ry="8.3333" style="stroke:#5E5E5E;stroke-width:1.0416666666666667;" width="101.0417" x="472.3958" y="1644.3278"/><rect fill="#1B1B1A" height="31.3883" rx="8.3333" ry="8.3333" style="stroke:#1B1B1A;stroke-width:1.0416666666666667;" width="101.0417" x="472.3958" y="1644.3278"/><rect fill="#1B1B1A" height="8.3333" style="stroke:#1B1B1A;stroke-width:1.0416666666666667;" width="101.0417" x="472.3958" y="1667.3828"/><rect fill="none" height="48.055" id="Converter" rx="8.3333" ry="8.3333" style="stroke:#5E5E5E;stroke-width:1.0416666666666667;" width="101.0417" x="472.3958" y="1644.3278"/><ellipse cx="486.9792" cy="1660.022" fill="#0066CF" rx="10.4167" ry="10.4167" style="stroke:#0086EF;stroke-width:1.0416666666666667;"/><path d="M488.8896,1664.447 Q488.4623,1664.6667 487.9924,1664.7766 Q487.5224,1664.8865 487.0036,1664.8865 Q485.1603,1664.8865 484.1899,1663.6719 Q483.2194,1662.4573 483.2194,1660.1624 Q483.2194,1657.8613 484.1899,1656.6467 Q485.1603,1655.4321 487.0036,1655.4321 Q487.5224,1655.4321 487.9985,1655.542 Q488.4745,1655.6519 488.8896,1655.8716 L488.8896,1657.8735 Q488.4257,1657.4463 487.9893,1657.2479 Q487.5529,1657.0496 487.089,1657.0496 Q486.1003,1657.0496 485.5967,1657.8339 Q485.0932,1658.6182 485.0932,1660.1624 Q485.0932,1661.7004 485.5967,1662.4847 Q486.1003,1663.269 487.089,1663.269 Q487.5529,1663.269 487.9893,1663.0707 Q488.4257,1662.8723 488.8896,1662.4451 Z " fill="#000000"/><text fill="#D8BC00" font-family="Open Sans,Avenir,Nunito,Arial,Helvetica,SansSerif" font-size="12.5" font-weight="bold" lengthAdjust="spacing" textLength="63.5417" x="503.6458" y="1664.7461">Converter</text><line style="stroke:#5E5E5E;stroke-width:1.0416666666666667;" x1="473.4375" x2="572.3958" y1="1675.7161" y2="1675.7161"/><line style="stroke:#5E5E5E;stroke-width:1.0416666666666667;" x1="473.4375" x2="572.3958" y1="1684.0495" y2="1684.0495"/><rect codeLine="52" fill="#282828" height="131.2012" id="ArgumentParserList" rx="8.3333" ry="8.3333" style="stroke:#5E5E5E;stroke-width:1.0416666666666667;" width="225" x="298.9583" y="589.6403"/><rect fill="#1B1B1A" height="31.3883" rx="8.3333" ry="8.3333" style="stroke:#1B1B1A;stroke-width:1.0416666666666667;" width="225" x="298.9583" y="589.6403"/><rect fill="#1B1B1A" height="8.3333" style="stroke:#1B1B1A;stroke-width:1.0416666666666667;" width="225" x="298.9583" y="612.6953"/><rect codeLine="52" fill="none" height="131.2012" id="ArgumentParserList" rx="8.3333" ry="8.3333" style="stroke:#5E5E5E;stroke-width:1.0416666666666667;" width="225" x="298.9583" y="589.6403"/><ellipse cx="335.1042" cy="605.3345" fill="#0066CF" rx="10.4167" ry="10.4167" style="stroke:#0086EF;stroke-width:1.0416666666666667;"/><path d="M337.0146,609.7595 Q336.5873,609.9792 336.1174,610.0891 Q335.6474,610.199 335.1286,610.199 Q333.2853,610.199 332.3149,608.9844 Q331.3444,607.7698 331.3444,605.4749 Q331.3444,603.1738 332.3149,601.9592 Q333.2853,600.7446 335.1286,600.7446 Q335.6474,600.7446 336.1235,600.8545 Q336.5995,600.9644 337.0146,601.1841 L337.0146,603.186 Q336.5507,602.7588 336.1143,602.5604 Q335.6779,602.3621 335.214,602.3621 Q334.2253,602.3621 333.7217,603.1464 Q333.2182,603.9307 333.2182,605.4749 Q333.2182,607.0129 333.7217,607.7972 Q334.2253,608.5815 335.214,608.5815 Q335.6779,608.5815 336.1143,608.3832 Q336.5507,608.1848 337.0146,607.7576 Z " fill="#000000"/><rect fill="#F24D5C" height="6.25" style="stroke:#C82930;stroke-width:1.0416666666666667;" width="6.25" x="355.5208" y="601.6886"/><text fill="#D8BC00" font-family="Open Sans,Avenir,Nunito,Arial,Helvetica,SansSerif" font-size="12.5" font-weight="bold" lengthAdjust="spacing" textLength="128.125" x="368.0208" y="610.0586">ArgumentParserList</text><line style="stroke:#5E5E5E;stroke-width:1.5625;" x1="300" x2="522.9167" y1="621.0286" y2="621.0286"/><line style="stroke:#5E5E5E;stroke-width:1.0416666666666667;" x1="300" x2="522.9167" y1="629.362" y2="629.362"/><ellipse cx="310.4167" cy="640.8203" fill="#84BE84" rx="3.125" ry="3.125" style="stroke:#038048;stroke-width:1.0416666666666667;"/><text fill="#D8BC00" font-family="Open Sans,Avenir,Nunito,Arial,Helvetica,SansSerif" font-size="11.4583" lengthAdjust="spacing" textLength="68.75" x="321.875" y="647.7315">String help()</text><ellipse cx="310.4167" cy="684.4767" fill="#84BE84" rx="3.125" ry="3.125" style="stroke:#038048;stroke-width:1.0416666666666667;"/><text fill="#D8BC00" font-family="Open Sans,Avenir,Nunito,Arial,Helvetica,SansSerif" font-size="11.4583" lengthAdjust="spacing" textLength="192.7083" x="321.875" y="691.3879">boolean add(ArgumentParser&lt;?&gt;)</text><ellipse cx="310.4167" cy="704.2216" fill="#84BE84" rx="3.125" ry="3.125" style="stroke:#038048;stroke-width:1.0416666666666667;"/><text fill="#D8BC00" font-family="Open Sans,Avenir,Nunito,Arial,Helvetica,SansSerif" font-size="11.4583" lengthAdjust="spacing" textLength="100" x="321.875" y="711.1328">boolean isEmpty()</text><line style="stroke:#5E5E5E;stroke-width:1.0416666666666667;" x1="300" x2="377.0833" y1="667.3126" y2="667.3126"/><text fill="#D8BC00" font-family="Open Sans,Avenir,Nunito,Arial,Helvetica,SansSerif" font-size="11.4583" lengthAdjust="spacing" textLength="62.5" x="380.2083" y="671.1222">(collection)</text><line style="stroke:#5E5E5E;stroke-width:1.0416666666666667;" x1="445.8333" x2="522.9167" y1="667.3126" y2="667.3126"/><rect codeLine="80" fill="#282828" height="210.1807" id="CommandLineParser" rx="8.3333" ry="8.3333" style="stroke:#5E5E5E;stroke-width:1.0416666666666667;" width="297.9167" x="321.875" y="53.7028"/><rect fill="#1B1B1A" height="31.3883" rx="8.3333" ry="8.3333" style="stroke:#1B1B1A;stroke-width:1.0416666666666667;" width="297.9167" x="321.875" y="53.7028"/><rect fill="#1B1B1A" height="8.3333" style="stroke:#1B1B1A;stroke-width:1.0416666666666667;" width="297.9167" x="321.875" y="76.7578"/><rect codeLine="80" fill="none" height="210.1807" id="CommandLineParser" rx="8.3333" ry="8.3333" style="stroke:#5E5E5E;stroke-width:1.0416666666666667;" width="297.9167" x="321.875" y="53.7028"/><ellipse cx="396.875" cy="69.397" fill="#0066CF" rx="10.4167" ry="10.4167" style="stroke:#0086EF;stroke-width:1.0416666666666667;"/><path d="M398.7854,73.822 Q398.3582,74.0417 397.8882,74.1516 Q397.4182,74.2615 396.8994,74.2615 Q395.0562,74.2615 394.0857,73.0469 Q393.1152,71.8323 393.1152,69.5374 Q393.1152,67.2363 394.0857,66.0217 Q395.0562,64.8071 396.8994,64.8071 Q397.4182,64.8071 397.8943,64.917 Q398.3704,65.0269 398.7854,65.2466 L398.7854,67.2485 Q398.3215,66.8213 397.8851,66.6229 Q397.4487,66.4246 396.9849,66.4246 Q395.9961,66.4246 395.4926,67.2089 Q394.989,67.9932 394.989,69.5374 Q394.989,71.0754 395.4926,71.8597 Q395.9961,72.644 396.9849,72.644 Q397.4487,72.644 397.8851,72.4457 Q398.3215,72.2473 398.7854,71.8201 Z " fill="#000000"/><text fill="#D8BC00" font-family="Open Sans,Avenir,Nunito,Arial,Helvetica,SansSerif" font-size="12.5" font-weight="bold" lengthAdjust="spacing" textLength="133.3333" x="419.7917" y="74.1211">CommandLineParser</text><line style="stroke:#5E5E5E;stroke-width:1.5625;" x1="322.9167" x2="618.75" y1="85.0911" y2="85.0911"/><ellipse cx="333.3333" cy="120.461" fill="#84BE84" rx="3.125" ry="3.125" style="stroke:#038048;stroke-width:1.0416666666666667;"/><text fill="#D8BC00" font-family="Open Sans,Avenir,Nunito,Arial,Helvetica,SansSerif" font-size="11.4583" lengthAdjust="spacing" textLength="237.5" x="344.7917" y="127.3722">CommandLineParser(ApplicationMetadata)</text><line style="stroke:#5E5E5E;stroke-width:1.0416666666666667;" x1="322.9167" x2="427.0833" y1="103.2969" y2="103.2969"/><text fill="#D8BC00" font-family="Open Sans,Avenir,Nunito,Arial,Helvetica,SansSerif" font-size="11.4583" lengthAdjust="spacing" textLength="81.25" x="430.2083" y="107.1065">(constructors)</text><line style="stroke:#5E5E5E;stroke-width:1.0416666666666667;" x1="514.5833" x2="618.75" y1="103.2969" y2="103.2969"/><ellipse cx="333.3333" cy="164.1174" fill="#84BE84" rx="3.125" ry="3.125" style="stroke:#038048;stroke-width:1.0416666666666667;"/><text fill="#D8BC00" font-family="Open Sans,Avenir,Nunito,Arial,Helvetica,SansSerif" font-size="11.4583" lengthAdjust="spacing" textLength="265.625" x="344.7917" y="171.0286">CommandLineParser add(ArgumentParser&lt;T&gt;)</text><ellipse cx="333.3333" cy="183.8623" fill="#84BE84" rx="3.125" ry="3.125" style="stroke:#038048;stroke-width:1.0416666666666667;"/><text fill="#D8BC00" font-family="Open Sans,Avenir,Nunito,Arial,Helvetica,SansSerif" font-size="11.4583" lengthAdjust="spacing" textLength="244.7917" x="344.7917" y="190.7735">CommandLineParser add(SwitchParser&lt;T&gt;)</text><ellipse cx="333.3333" cy="203.6072" fill="#84BE84" rx="3.125" ry="3.125" style="stroke:#038048;stroke-width:1.0416666666666667;"/><text fill="#D8BC00" font-family="Open Sans,Avenir,Nunito,Arial,Helvetica,SansSerif" font-size="11.4583" lengthAdjust="spacing" textLength="228.125" x="344.7917" y="210.5184">CommandLine parse(String[] arguments)</text><line style="stroke:#5E5E5E;stroke-width:1.0416666666666667;" x1="322.9167" x2="401.5625" y1="146.9533" y2="146.9533"/><text fill="#D8BC00" font-family="Open Sans,Avenir,Nunito,Arial,Helvetica,SansSerif" font-size="11.4583" lengthAdjust="spacing" textLength="132.2917" x="404.6875" y="150.7629">(command line parsing)</text><line style="stroke:#5E5E5E;stroke-width:1.0416666666666667;" x1="540.1042" x2="618.75" y1="146.9533" y2="146.9533"/><polygon fill="#FFFF44" points="333.3333,242.0553,337.5,246.2219,333.3333,250.3886,329.1667,246.2219" style="stroke:#B38D22;stroke-width:1.0416666666666667;"/><text fill="#D8BC00" font-family="Open Sans,Avenir,Nunito,Arial,Helvetica,SansSerif" font-size="11.4583" lengthAdjust="spacing" textLength="257.2917" x="344.7917" y="254.1748">void exit(String message, Object... arguments)</text><line style="stroke:#5E5E5E;stroke-width:1.0416666666666667;" x1="322.9167" x2="441.1458" y1="230.0995" y2="230.0995"/><text fill="#D8BC00" font-family="Open Sans,Avenir,Nunito,Arial,Helvetica,SansSerif" font-size="11.4583" lengthAdjust="spacing" textLength="53.125" x="444.2708" y="233.9091">(lifecycle)</text><line style="stroke:#5E5E5E;stroke-width:1.0416666666666667;" x1="500.5208" x2="618.75" y1="230.0995" y2="230.0995"/><rect fill="#282828" height="48.055" id="CommandLine" rx="8.3333" ry="8.3333" style="stroke:#5E5E5E;stroke-width:1.0416666666666667;" width="131.25" x="465.625" y="419.3278"/><rect fill="#1B1B1A" height="31.3883" rx="8.3333" ry="8.3333" style="stroke:#1B1B1A;stroke-width:1.0416666666666667;" width="131.25" x="465.625" y="419.3278"/><rect fill="#1B1B1A" height="8.3333" style="stroke:#1B1B1A;stroke-width:1.0416666666666667;" width="131.25" x="465.625" y="442.3828"/><rect fill="none" height="48.055" id="CommandLine" rx="8.3333" ry="8.3333" style="stroke:#5E5E5E;stroke-width:1.0416666666666667;" width="131.25" x="465.625" y="419.3278"/><ellipse cx="480.2083" cy="435.022" fill="#0066CF" rx="10.4167" ry="10.4167" style="stroke:#0086EF;stroke-width:1.0416666666666667;"/><path d="M482.1187,439.447 Q481.6915,439.6667 481.2215,439.7766 Q480.7515,439.8865 480.2327,439.8865 Q478.3895,439.8865 477.419,438.6719 Q476.4486,437.4573 476.4486,435.1624 Q476.4486,432.8613 477.419,431.6467 Q478.3895,430.4321 480.2327,430.4321 Q480.7515,430.4321 481.2276,430.542 Q481.7037,430.6519 482.1187,430.8716 L482.1187,432.8735 Q481.6549,432.4463 481.2185,432.2479 Q480.7821,432.0496 480.3182,432.0496 Q479.3294,432.0496 478.8259,432.8339 Q478.3223,433.6182 478.3223,435.1624 Q478.3223,436.7004 478.8259,437.4847 Q479.3294,438.269 480.3182,438.269 Q480.7821,438.269 481.2185,438.0707 Q481.6549,437.8723 482.1187,437.4451 Z " fill="#000000"/><text fill="#D8BC00" font-family="Open Sans,Avenir,Nunito,Arial,Helvetica,SansSerif" font-size="12.5" font-weight="bold" lengthAdjust="spacing" textLength="93.75" x="496.875" y="439.7461">CommandLine</text><line style="stroke:#5E5E5E;stroke-width:1.0416666666666667;" x1="466.6667" x2="595.8333" y1="450.7161" y2="450.7161"/><line style="stroke:#5E5E5E;stroke-width:1.0416666666666667;" x1="466.6667" x2="595.8333" y1="459.0495" y2="459.0495"/><rect fill="#282828" height="48.055" id="SwitchParserList" rx="8.3333" ry="8.3333" style="stroke:#5E5E5E;stroke-width:1.0416666666666667;" width="142.7083" x="633.8542" y="419.3278"/><rect fill="#1B1B1A" height="31.3883" rx="8.3333" ry="8.3333" style="stroke:#1B1B1A;stroke-width:1.0416666666666667;" width="142.7083" x="633.8542" y="419.3278"/><rect fill="#1B1B1A" height="8.3333" style="stroke:#1B1B1A;stroke-width:1.0416666666666667;" width="142.7083" x="633.8542" y="442.3828"/><rect fill="none" height="48.055" id="SwitchParserList" rx="8.3333" ry="8.3333" style="stroke:#5E5E5E;stroke-width:1.0416666666666667;" width="142.7083" x="633.8542" y="419.3278"/><ellipse cx="648.4375" cy="435.022" fill="#0066CF" rx="10.4167" ry="10.4167" style="stroke:#0086EF;stroke-width:1.0416666666666667;"/><path d="M650.3479,439.447 Q649.9207,439.6667 649.4507,439.7766 Q648.9807,439.8865 648.4619,439.8865 Q646.6187,439.8865 645.6482,438.6719 Q644.6777,437.4573 644.6777,435.1624 Q644.6777,432.8613 645.6482,431.6467 Q646.6187,430.4321 648.4619,430.4321 Q648.9807,430.4321 649.4568,430.542 Q649.9329,430.6519 650.3479,430.8716 L650.3479,432.8735 Q649.884,432.4463 649.4476,432.2479 Q649.0112,432.0496 648.5474,432.0496 Q647.5586,432.0496 647.0551,432.8339 Q646.5515,433.6182 646.5515,435.1624 Q646.5515,436.7004 647.0551,437.4847 Q647.5586,438.269 648.5474,438.269 Q649.0112,438.269 649.4476,438.0707 Q649.884,437.8723 650.3479,437.4451 Z " fill="#000000"/><text fill="#D8BC00" font-family="Open Sans,Avenir,Nunito,Arial,Helvetica,SansSerif" font-size="12.5" font-weight="bold" lengthAdjust="spacing" textLength="105.2083" x="665.1042" y="439.7461">SwitchParserList</text><line style="stroke:#5E5E5E;stroke-width:1.0416666666666667;" x1="634.8958" x2="775.5208" y1="450.7161" y2="450.7161"/><line style="stroke:#5E5E5E;stroke-width:1.0416666666666667;" x1="634.8958" x2="775.5208" y1="459.0495" y2="459.0495"/><path codeLine="7" d="M258.3438,962.7445 C266.3646,998.432 276.0521,1041.5778 285.5625,1083.932 " fill="none" id="Argument-to-ArgumentParser" style="stroke:#545454;stroke-width:1.5625;"/><polygon fill="#545454" points="286.7292,1089.0882,288.7349,1079.027,285.5852,1084.0071,280.6051,1080.8574,286.7292,1089.0882" style="stroke:#545454;stroke-width:1.5625;"/><text fill="#A0A0A0" font-family="Open Sans,Avenir,Nunito,Arial,Helvetica,SansSerif" font-size="12.5" font-weight="bold" lengthAdjust="spacing" textLength="98.9583" x="277.0833" y="1030.3711">gets value with</text><path codeLine="18" d="M244.5938,530.0882 C243.4896,606.2757 241.8958,716.9945 240.8021,792.7549 " fill="none" id="ArgumentList-backto-Argument" style="stroke:#545454;stroke-width:1.5625;"/><polygon fill="#333333" points="244.7917,516.2861,240.5361,522.4759,244.6129,528.7849,248.8685,522.5951,244.7917,516.2861" style="stroke:#545454;stroke-width:1.5625;"/><text fill="#A0A0A0" font-family="Open Sans,Avenir,Nunito,Arial,Helvetica,SansSerif" font-size="12.5" font-weight="bold" lengthAdjust="spacing" textLength="8.3333" x="232.4219" y="540.5756">1</text><text fill="#A0A0A0" font-family="Open Sans,Avenir,Nunito,Arial,Helvetica,SansSerif" font-size="12.5" font-weight="bold" lengthAdjust="spacing" textLength="6.25" x="231.0254" y="778.6079">*</text><path codeLine="28" d="M198.2188,1441.234 C189.0208,1458.3174 180.7292,1475.807 173.9583,1493.2861 C168.0104,1508.6403 163.4167,1525.2445 159.8646,1541.8903 " fill="none" id="ArgumentParser-to-ArgumentParser.Builder" style="stroke:#545454;stroke-width:1.5625;"/><polygon fill="#545454" points="158.8021,1547.057,164.7874,1538.7246,159.8608,1541.9574,156.628,1537.0307,158.8021,1547.057" style="stroke:#545454;stroke-width:1.5625;"/><text fill="#A0A0A0" font-family="Open Sans,Avenir,Nunito,Arial,Helvetica,SansSerif" font-size="12.5" font-weight="bold" lengthAdjust="spacing" textLength="45.8333" x="178.125" y="1509.5378">creates</text><path codeLine="61" d="M217.0417,1547.307 C222.3958,1536.8903 227.5521,1526.4215 232.2917,1516.2028 C242.625,1493.9215 252.6875,1470.1507 262.1667,1446.4736 " fill="none" id="ArgumentParser.Builder-to-ArgumentParser" style="stroke:#545454;stroke-width:1.5625;"/><polygon fill="#545454" points="264.1771,1441.4215,256.8532,1448.6058,262.2607,1446.2645,264.602,1451.672,264.1771,1441.4215" style="stroke:#545454;stroke-width:1.5625;"/><text fill="#A0A0A0" font-family="Open Sans,Avenir,Nunito,Arial,Helvetica,SansSerif" font-size="12.5" font-weight="bold" lengthAdjust="spacing" textLength="45.8333" x="245.8333" y="1509.5378">creates</text><path codeLine="29" d="M351.5208,1454.8799 C358.2396,1504.6195 365.0938,1555.3382 370.4167,1594.734 " fill="none" id="ArgumentParser-backto-Quantifier" style="stroke:#545454;stroke-width:1.5625;"/><polygon fill="#333333" points="349.6771,1441.234,346.3867,1447.9866,351.3543,1453.621,354.6447,1446.8684,349.6771,1441.234" style="stroke:#545454;stroke-width:1.5625;"/><path codeLine="30" d="M418.1042,1453.7445 C454.9896,1528.8799 493.0729,1606.4424 511.5208,1644.0257 " fill="none" id="ArgumentParser-backto-Converter" style="stroke:#545454;stroke-width:1.5625;"/><polygon fill="#333333" points="411.9688,1441.234,410.9821,1448.6805,417.4764,1452.4553,418.463,1445.0088,411.9688,1441.234" style="stroke:#545454;stroke-width:1.5625;"/><text fill="#A0A0A0" font-family="Open Sans,Avenir,Nunito,Arial,Helvetica,SansSerif" font-size="12.5" font-weight="bold" lengthAdjust="spacing" textLength="133.3333" x="452.0833" y="1509.5378">converts values with</text><path codeLine="51" d="M411.5,733.984 C410.4375,811.307 405.7813,933.0986 388.5417,1037.0361 C385.7292,1053.9736 382.1667,1071.4736 378.1563,1088.8903 " fill="none" id="ArgumentParserList-backto-ArgumentParser" style="stroke:#545454;stroke-width:1.5625;"/><polygon fill="#333333" points="411.6563,720.0882,407.4143,726.2874,411.5052,732.5873,415.7471,726.3881,411.6563,720.0882" style="stroke:#545454;stroke-width:1.5625;"/><text fill="#A0A0A0" font-family="Open Sans,Avenir,Nunito,Arial,Helvetica,SansSerif" font-size="12.5" font-weight="bold" lengthAdjust="spacing" textLength="8.3333" x="399.3334" y="744.4794">1</text><text fill="#A0A0A0" font-family="Open Sans,Avenir,Nunito,Arial,Helvetica,SansSerif" font-size="12.5" font-weight="bold" lengthAdjust="spacing" textLength="6.25" x="370.8831" y="1074.8">*</text><path codeLine="76" d="M343.2813,264.2549 C333.7708,274.307 324.75,284.734 316.6667,295.3695 C300.6771,316.4111 286.9271,341.6403 275.9167,365.2028 " fill="none" id="CommandLineParser-to-ArgumentList" style="stroke:#545454;stroke-width:1.5625;"/><polygon fill="#545454" points="273.6042,370.2028,281.32,363.4414,275.7896,365.4752,273.7558,359.9447,273.6042,370.2028" style="stroke:#545454;stroke-width:1.5625;"/><text fill="#A0A0A0" font-family="Open Sans,Avenir,Nunito,Arial,Helvetica,SansSerif" font-size="12.5" font-weight="bold" lengthAdjust="spacing" textLength="58.3333" x="320.8333" y="311.6211">validates</text><path codeLine="77" d="M493.1563,264.2653 C504.6146,317.7861 517.6979,378.9007 525.1667,413.7965 " fill="none" id="CommandLineParser-to-CommandLine" style="stroke:#545454;stroke-width:1.5625;"/><polygon fill="#545454" points="526.3125,419.1715,528.4304,409.1333,525.2253,414.078,520.2806,410.8729,526.3125,419.1715" style="stroke:#545454;stroke-width:1.5625;"/><text fill="#A0A0A0" font-family="Open Sans,Avenir,Nunito,Arial,Helvetica,SansSerif" font-size="12.5" font-weight="bold" lengthAdjust="spacing" textLength="45.8333" x="509.375" y="311.6211">creates</text><path codeLine="78" d="M455.7708,277.7028 C452.7813,301.4736 449.6979,326.307 446.875,349.5361 C436.8438,432.2757 425.8333,527.7132 418.8021,589.4111 " fill="none" id="CommandLineParser-backto-ArgumentParserList" style="stroke:#545454;stroke-width:1.5625;"/><polygon fill="#333333" points="457.4688,264.234,452.5583,269.9183,455.9166,276.6373,460.8271,270.9531,457.4688,264.234" style="stroke:#545454;stroke-width:1.5625;"/><path codeLine="79" d="M566.2917,274.932 C610.875,328.6299 659.8125,387.5674 686.0521,419.1715 " fill="none" id="CommandLineParser-backto-SwitchParserList" style="stroke:#545454;stroke-width:1.5625;"/><polygon fill="#333333" points="557.4375,264.2653,558.223,271.7357,565.4209,273.8838,564.6354,266.4134,557.4375,264.2653" style="stroke:#545454;stroke-width:1.5625;"/></g></svg>
