<?xml version="1.0" encoding="UTF-8" standalone="no"?><svg xmlns="http://www.w3.org/2000/svg" xmlns:xlink="http://www.w3.org/1999/xlink" contentScriptType="application/ecmascript" contentStyleType="text/css" height="1073.9583px" preserveAspectRatio="none" style="width:737px;height:1073px;background:#333333;" version="1.1" viewBox="0 0 737 1073" width="737.5px" zoomAndPan="magnify"><defs/><g><rect fill="#48494B" height="41.2028" rx="8.3333" ry="8.3333" style="stroke:#545454;stroke-width:1.0416666666666667;" width="165.625" x="278.6458" y="2.0833"/><text fill="#C0C0C0" font-family="Open Sans,Avenir,Nunito,Arial,Helvetica,SansSerif" font-size="20.8333" lengthAdjust="spacing" textLength="142.7083" x="290.1042" y="30.5583">Switch Parsing</text><rect codeLine="7" fill="#282828" height="48.055" id="Named" rx="8.3333" ry="8.3333" style="stroke:#5E5E5E;stroke-width:1.0416666666666667;" width="82.2917" x="199.4792" y="92.2445"/><rect fill="#1B1B1A" height="31.3883" rx="8.3333" ry="8.3333" style="stroke:#1B1B1A;stroke-width:1.0416666666666667;" width="82.2917" x="199.4792" y="92.2445"/><rect fill="#1B1B1A" height="8.3333" style="stroke:#1B1B1A;stroke-width:1.0416666666666667;" width="82.2917" x="199.4792" y="115.2995"/><rect codeLine="7" fill="none" height="48.055" id="Named" rx="8.3333" ry="8.3333" style="stroke:#5E5E5E;stroke-width:1.0416666666666667;" width="82.2917" x="199.4792" y="92.2445"/><ellipse cx="214.0625" cy="107.9386" fill="#008400" rx="10.4167" ry="10.4167" style="stroke:#239C23;stroke-width:1.0416666666666667;"/><path d="M211.4665,105.1005 L211.4665,103.5136 L216.8925,103.5136 L216.8925,105.1005 L215.0798,105.1005 L215.0798,111.0392 L216.8925,111.0392 L216.8925,112.6261 L211.4665,112.6261 L211.4665,111.0392 L213.2792,111.0392 L213.2792,105.1005 Z " fill="#000000"/><text fill="#D8BC00" font-family="Open Sans,Avenir,Nunito,Arial,Helvetica,SansSerif" font-size="12.5" font-style="italic" font-weight="bold" lengthAdjust="spacing" textLength="44.7917" x="230.7292" y="112.6628">Named</text><line style="stroke:#5E5E5E;stroke-width:1.0416666666666667;" x1="200.5208" x2="280.7292" y1="123.6328" y2="123.6328"/><line style="stroke:#5E5E5E;stroke-width:1.0416666666666667;" x1="200.5208" x2="280.7292" y1="131.9661" y2="131.9661"/><rect codeLine="9" fill="#282828" height="146.7794" id="Quantifier" rx="8.3333" ry="8.3333" style="stroke:#5E5E5E;stroke-width:1.0416666666666667;" width="110.4167" x="7.2917" y="920.8903"/><rect fill="#1B1B1A" height="31.3883" rx="8.3333" ry="8.3333" style="stroke:#1B1B1A;stroke-width:1.0416666666666667;" width="110.4167" x="7.2917" y="920.8903"/><rect fill="#1B1B1A" height="8.3333" style="stroke:#1B1B1A;stroke-width:1.0416666666666667;" width="110.4167" x="7.2917" y="943.9453"/><rect codeLine="9" fill="none" height="146.7794" id="Quantifier" rx="8.3333" ry="8.3333" style="stroke:#5E5E5E;stroke-width:1.0416666666666667;" width="110.4167" x="7.2917" y="920.8903"/><ellipse cx="25.1563" cy="936.5845" fill="#CF6300" rx="10.4167" ry="10.4167" style="stroke:#EF8300;stroke-width:1.0416666666666667;"/><path d="M28.2121,941.272 L22.5358,941.272 L22.5358,932.1594 L28.2121,932.1594 L28.2121,933.7463 L24.3363,933.7463 L24.3363,935.7117 L27.8459,935.7117 L27.8459,937.2986 L24.3363,937.2986 L24.3363,939.6851 L28.2121,939.6851 Z " fill="#000000"/><text fill="#D8BC00" font-family="Open Sans,Avenir,Nunito,Arial,Helvetica,SansSerif" font-size="12.5" font-weight="bold" lengthAdjust="spacing" textLength="65.625" x="42.5521" y="941.3086">Quantifier</text><line style="stroke:#5E5E5E;stroke-width:1.0416666666666667;" x1="8.3333" x2="116.6667" y1="952.2786" y2="952.2786"/><text fill="#D8BC00" font-family="Open Sans,Avenir,Nunito,Arial,Helvetica,SansSerif" font-size="11.4583" lengthAdjust="spacing" textLength="85.4167" x="16.6667" y="970.6482">ONE_OR_MORE</text><text fill="#D8BC00" font-family="Open Sans,Avenir,Nunito,Arial,Helvetica,SansSerif" font-size="11.4583" lengthAdjust="spacing" textLength="58.3333" x="16.6667" y="990.3931">OPTIONAL</text><text fill="#D8BC00" font-family="Open Sans,Avenir,Nunito,Arial,Helvetica,SansSerif" font-size="11.4583" lengthAdjust="spacing" textLength="56.25" x="16.6667" y="1010.1379">REQUIRED</text><text fill="#D8BC00" font-family="Open Sans,Avenir,Nunito,Arial,Helvetica,SansSerif" font-size="11.4583" lengthAdjust="spacing" textLength="87.5" x="16.6667" y="1029.8828">TWO_OR_MORE</text><text fill="#D8BC00" font-family="Open Sans,Avenir,Nunito,Arial,Helvetica,SansSerif" font-size="11.4583" lengthAdjust="spacing" textLength="91.6667" x="16.6667" y="1049.6277">ZERO_OR_MORE</text><line style="stroke:#5E5E5E;stroke-width:1.0416666666666667;" x1="8.3333" x2="116.6667" y1="1059.3363" y2="1059.3363"/><rect fill="#282828" height="48.055" id="Argument" rx="8.3333" ry="8.3333" style="stroke:#5E5E5E;stroke-width:1.0416666666666667;" width="102.0833" x="318.75" y="92.2445"/><rect fill="#1B1B1A" height="31.3883" rx="8.3333" ry="8.3333" style="stroke:#1B1B1A;stroke-width:1.0416666666666667;" width="102.0833" x="318.75" y="92.2445"/><rect fill="#1B1B1A" height="8.3333" style="stroke:#1B1B1A;stroke-width:1.0416666666666667;" width="102.0833" x="318.75" y="115.2995"/><rect fill="none" height="48.055" id="Argument" rx="8.3333" ry="8.3333" style="stroke:#5E5E5E;stroke-width:1.0416666666666667;" width="102.0833" x="318.75" y="92.2445"/><ellipse cx="333.3333" cy="107.9386" fill="#0066CF" rx="10.4167" ry="10.4167" style="stroke:#0086EF;stroke-width:1.0416666666666667;"/><path d="M335.2437,112.3637 Q334.8165,112.5834 334.3465,112.6933 Q333.8765,112.8031 333.3577,112.8031 Q331.5145,112.8031 330.544,111.5885 Q329.5736,110.3739 329.5736,108.079 Q329.5736,105.778 330.544,104.5634 Q331.5145,103.3488 333.3577,103.3488 Q333.8765,103.3488 334.3526,103.4587 Q334.8287,103.5685 335.2437,103.7882 L335.2437,105.7902 Q334.7799,105.363 334.3435,105.1646 Q333.9071,104.9662 333.4432,104.9662 Q332.4544,104.9662 331.9509,105.7505 Q331.4473,106.5348 331.4473,108.079 Q331.4473,109.6171 331.9509,110.4014 Q332.4544,111.1857 333.4432,111.1857 Q333.9071,111.1857 334.3435,110.9873 Q334.7799,110.789 335.2437,110.3617 Z " fill="#000000"/><text fill="#D8BC00" font-family="Open Sans,Avenir,Nunito,Arial,Helvetica,SansSerif" font-size="12.5" font-weight="bold" lengthAdjust="spacing" textLength="64.5833" x="350" y="112.6628">Argument</text><line style="stroke:#5E5E5E;stroke-width:1.0416666666666667;" x1="319.7917" x2="419.7917" y1="123.6328" y2="123.6328"/><line style="stroke:#5E5E5E;stroke-width:1.0416666666666667;" x1="319.7917" x2="419.7917" y1="131.9661" y2="131.9661"/><rect codeLine="21" fill="#282828" height="127.0345" id="Switch" rx="8.3333" ry="8.3333" style="stroke:#5E5E5E;stroke-width:1.0416666666666667;" width="165.625" x="286.4583" y="284.9528"/><rect fill="#1B1B1A" height="31.3883" rx="8.3333" ry="8.3333" style="stroke:#1B1B1A;stroke-width:1.0416666666666667;" width="165.625" x="286.4583" y="284.9528"/><rect fill="#1B1B1A" height="8.3333" style="stroke:#1B1B1A;stroke-width:1.0416666666666667;" width="165.625" x="286.4583" y="308.0078"/><rect codeLine="21" fill="none" height="127.0345" id="Switch" rx="8.3333" ry="8.3333" style="stroke:#5E5E5E;stroke-width:1.0416666666666667;" width="165.625" x="286.4583" y="284.9528"/><ellipse cx="341.1458" cy="300.647" fill="#0066CF" rx="10.4167" ry="10.4167" style="stroke:#0086EF;stroke-width:1.0416666666666667;"/><path d="M343.0562,305.072 Q342.629,305.2917 342.159,305.4016 Q341.689,305.5115 341.1702,305.5115 Q339.327,305.5115 338.3565,304.2969 Q337.3861,303.0823 337.3861,300.7874 Q337.3861,298.4863 338.3565,297.2717 Q339.327,296.0571 341.1702,296.0571 Q341.689,296.0571 342.1651,296.167 Q342.6412,296.2769 343.0562,296.4966 L343.0562,298.4985 Q342.5924,298.0713 342.156,297.8729 Q341.7196,297.6746 341.2557,297.6746 Q340.2669,297.6746 339.7634,298.4589 Q339.2598,299.2432 339.2598,300.7874 Q339.2598,302.3254 339.7634,303.1097 Q340.2669,303.894 341.2557,303.894 Q341.7196,303.894 342.156,303.6957 Q342.5924,303.4973 343.0562,303.0701 Z " fill="#000000"/><text fill="#D8BC00" font-family="Open Sans,Avenir,Nunito,Arial,Helvetica,SansSerif" font-size="12.5" font-weight="bold" lengthAdjust="spacing" textLength="41.6667" x="364.0625" y="305.3711">Switch</text><line style="stroke:#5E5E5E;stroke-width:1.5625;" x1="287.5" x2="451.0417" y1="316.3411" y2="316.3411"/><ellipse cx="297.9167" cy="351.711" fill="#84BE84" rx="3.125" ry="3.125" style="stroke:#038048;stroke-width:1.0416666666666667;"/><text fill="#D8BC00" font-family="Open Sans,Avenir,Nunito,Arial,Helvetica,SansSerif" font-size="11.4583" lengthAdjust="spacing" textLength="116.6667" x="309.375" y="358.6222">Switch(String, String)</text><line style="stroke:#5E5E5E;stroke-width:1.0416666666666667;" x1="287.5" x2="325.5208" y1="334.5469" y2="334.5469"/><text fill="#D8BC00" font-family="Open Sans,Avenir,Nunito,Arial,Helvetica,SansSerif" font-size="11.4583" lengthAdjust="spacing" textLength="81.25" x="328.6458" y="338.3565">(constructors)</text><line style="stroke:#5E5E5E;stroke-width:1.0416666666666667;" x1="413.0208" x2="451.0417" y1="334.5469" y2="334.5469"/><ellipse cx="297.9167" cy="395.3674" fill="#84BE84" rx="3.125" ry="3.125" style="stroke:#038048;stroke-width:1.0416666666666667;"/><text fill="#D8BC00" font-family="Open Sans,Avenir,Nunito,Arial,Helvetica,SansSerif" font-size="11.4583" lengthAdjust="spacing" textLength="133.3333" x="309.375" y="402.2786">T get(SwitchParser&lt;T&gt;)</text><line style="stroke:#5E5E5E;stroke-width:1.0416666666666667;" x1="287.5" x2="300" y1="378.2033" y2="378.2033"/><text fill="#D8BC00" font-family="Open Sans,Avenir,Nunito,Arial,Helvetica,SansSerif" font-size="11.4583" lengthAdjust="spacing" textLength="132.2917" x="303.125" y="382.0129">(command line parsing)</text><line style="stroke:#5E5E5E;stroke-width:1.0416666666666667;" x1="438.5417" x2="451.0417" y1="378.2033" y2="378.2033"/><rect codeLine="45" fill="#282828" height="277.7486" id="SwitchParser" rx="8.3333" ry="8.3333" style="stroke:#5E5E5E;stroke-width:1.0416666666666667;" width="311.4583" x="213.5417" y="537.557"/><rect fill="#1B1B1A" height="31.3883" rx="8.3333" ry="8.3333" style="stroke:#1B1B1A;stroke-width:1.0416666666666667;" width="311.4583" x="213.5417" y="537.557"/><rect fill="#1B1B1A" height="8.3333" style="stroke:#1B1B1A;stroke-width:1.0416666666666667;" width="311.4583" x="213.5417" y="560.612"/><rect codeLine="45" fill="none" height="277.7486" id="SwitchParser" rx="8.3333" ry="8.3333" style="stroke:#5E5E5E;stroke-width:1.0416666666666667;" width="311.4583" x="213.5417" y="537.557"/><ellipse cx="311.9792" cy="553.2511" fill="#0066CF" rx="10.4167" ry="10.4167" style="stroke:#0086EF;stroke-width:1.0416666666666667;"/><path d="M313.8896,557.6762 Q313.4623,557.8959 312.9924,558.0058 Q312.5224,558.1156 312.0036,558.1156 Q310.1603,558.1156 309.1899,556.901 Q308.2194,555.6864 308.2194,553.3915 Q308.2194,551.0905 309.1899,549.8759 Q310.1603,548.6613 312.0036,548.6613 Q312.5224,548.6613 312.9985,548.7712 Q313.4745,548.881 313.8896,549.1007 L313.8896,551.1027 Q313.4257,550.6755 312.9893,550.4771 Q312.5529,550.2787 312.089,550.2787 Q311.1003,550.2787 310.5967,551.063 Q310.0932,551.8473 310.0932,553.3915 Q310.0932,554.9296 310.5967,555.7139 Q311.1003,556.4982 312.089,556.4982 Q312.5529,556.4982 312.9893,556.2998 Q313.4257,556.1015 313.8896,555.6742 Z " fill="#000000"/><text fill="#D8BC00" font-family="Open Sans,Avenir,Nunito,Arial,Helvetica,SansSerif" font-size="12.5" font-weight="bold" lengthAdjust="spacing" textLength="81.25" x="334.8958" y="557.9753">SwitchParser</text><rect fill="#333333" height="23.055" style="stroke:#A0A0A0;stroke-width:1.0416666666666667;stroke-dasharray:2.0,2.0;" width="16.6667" x="511.4583" y="534.432"/><text fill="#A0A0A0" font-family="Open Sans,Avenir,Nunito,Arial,Helvetica,SansSerif" font-size="12.5" font-weight="bold" lengthAdjust="spacing" textLength="8.3333" x="515.625" y="550.6836">T</text><line style="stroke:#5E5E5E;stroke-width:1.5625;" x1="214.5833" x2="523.9583" y1="568.9453" y2="568.9453"/><line style="stroke:#5E5E5E;stroke-width:1.0416666666666667;" x1="214.5833" x2="523.9583" y1="577.2786" y2="577.2786"/><ellipse cx="225" cy="588.737" fill="#84BE84" rx="3.125" ry="3.125" style="stroke:#038048;stroke-width:1.0416666666666667;"/><text fill="#D8BC00" font-family="Open Sans,Avenir,Nunito,Arial,Helvetica,SansSerif" font-size="11.4583" lengthAdjust="spacing" textLength="87.5" x="236.4583" y="595.6482">T defaultValue()</text><ellipse cx="225" cy="608.4819" fill="#84BE84" rx="3.125" ry="3.125" style="stroke:#038048;stroke-width:1.0416666666666667;"/><text fill="#D8BC00" font-family="Open Sans,Avenir,Nunito,Arial,Helvetica,SansSerif" font-size="11.4583" lengthAdjust="spacing" textLength="116.6667" x="236.4583" y="615.3931">T get(Switch _switch)</text><ellipse cx="225" cy="628.2267" fill="#84BE84" rx="3.125" ry="3.125" style="stroke:#038048;stroke-width:1.0416666666666667;"/><text fill="#D8BC00" font-family="Open Sans,Avenir,Nunito,Arial,Helvetica,SansSerif" font-size="11.4583" lengthAdjust="spacing" textLength="68.75" x="236.4583" y="635.1379">String help()</text><ellipse cx="225" cy="647.9716" fill="#84BE84" rx="3.125" ry="3.125" style="stroke:#038048;stroke-width:1.0416666666666667;"/><text fill="#D8BC00" font-family="Open Sans,Avenir,Nunito,Arial,Helvetica,SansSerif" font-size="11.4583" lengthAdjust="spacing" textLength="279.1667" x="236.4583" y="654.8828">ObjectSet&lt;T&gt; set(Switch _switch, String delimiter)</text><ellipse cx="225" cy="691.628" fill="#84BE84" rx="3.125" ry="3.125" style="stroke:#038048;stroke-width:1.0416666666666667;"/><text fill="#D8BC00" font-family="Open Sans,Avenir,Nunito,Arial,Helvetica,SansSerif" font-size="11.4583" lengthAdjust="spacing" textLength="115.625" x="236.4583" y="698.5392">boolean isRequired()</text><line style="stroke:#5E5E5E;stroke-width:1.0416666666666667;" x1="214.5833" x2="342.7083" y1="674.4639" y2="674.4639"/><text fill="#D8BC00" font-family="Open Sans,Avenir,Nunito,Arial,Helvetica,SansSerif" font-size="11.4583" lengthAdjust="spacing" textLength="46.875" x="345.8333" y="678.2735">(checks)</text><line style="stroke:#5E5E5E;stroke-width:1.0416666666666667;" x1="395.8333" x2="523.9583" y1="674.4639" y2="674.4639"/><ellipse cx="225" cy="735.2844" fill="#84BE84" rx="3.125" ry="3.125" style="stroke:#038048;stroke-width:1.0416666666666667;"/><text fill="#D8BC00" font-family="Open Sans,Avenir,Nunito,Arial,Helvetica,SansSerif" font-size="11.4583" lengthAdjust="spacing" textLength="190.625" x="236.4583" y="742.1956">ObjectList&lt;T&gt; list(Switch _switch)</text><ellipse cx="225" cy="755.0293" fill="#84BE84" rx="3.125" ry="3.125" style="stroke:#038048;stroke-width:1.0416666666666667;"/><text fill="#D8BC00" font-family="Open Sans,Avenir,Nunito,Arial,Helvetica,SansSerif" font-size="11.4583" lengthAdjust="spacing" textLength="116.6667" x="236.4583" y="761.9405">Set&lt;T&gt; validValues()</text><line style="stroke:#5E5E5E;stroke-width:1.0416666666666667;" x1="214.5833" x2="334.8958" y1="718.1203" y2="718.1203"/><text fill="#D8BC00" font-family="Open Sans,Avenir,Nunito,Arial,Helvetica,SansSerif" font-size="11.4583" lengthAdjust="spacing" textLength="62.5" x="338.0208" y="721.9299">(collection)</text><line style="stroke:#5E5E5E;stroke-width:1.0416666666666667;" x1="403.6458" x2="523.9583" y1="718.1203" y2="718.1203"/><ellipse cx="225" cy="798.6857" fill="#84BE84" rx="3.125" ry="3.125" style="stroke:#038048;stroke-width:1.0416666666666667;"/><text fill="#D8BC00" font-family="Open Sans,Avenir,Nunito,Arial,Helvetica,SansSerif" font-size="11.4583" lengthAdjust="spacing" textLength="198.9583" x="236.4583" y="805.5969">Builder&lt;T&gt; builder(Class&lt;T&gt; type)</text><line style="stroke:#5E5E5E;stroke-width:1.0416666666666667;" x1="214.5833" x2="300" y1="781.5216" y2="781.5216"/><text fill="#D8BC00" font-family="Open Sans,Avenir,Nunito,Arial,Helvetica,SansSerif" font-size="11.4583" lengthAdjust="spacing" textLength="132.2917" x="303.125" y="785.3312">(command line parsing)</text><line style="stroke:#5E5E5E;stroke-width:1.0416666666666667;" x1="438.5417" x2="523.9583" y1="781.5216" y2="781.5216"/><rect codeLine="30" fill="#282828" height="127.0345" id="SwitchList" rx="8.3333" ry="8.3333" style="stroke:#5E5E5E;stroke-width:1.0416666666666667;" width="168.75" x="482.2917" y="53.7028"/><rect fill="#1B1B1A" height="31.3883" rx="8.3333" ry="8.3333" style="stroke:#1B1B1A;stroke-width:1.0416666666666667;" width="168.75" x="482.2917" y="53.7028"/><rect fill="#1B1B1A" height="8.3333" style="stroke:#1B1B1A;stroke-width:1.0416666666666667;" width="168.75" x="482.2917" y="76.7578"/><rect codeLine="30" fill="none" height="127.0345" id="SwitchList" rx="8.3333" ry="8.3333" style="stroke:#5E5E5E;stroke-width:1.0416666666666667;" width="168.75" x="482.2917" y="53.7028"/><ellipse cx="521.25" cy="69.397" fill="#0066CF" rx="10.4167" ry="10.4167" style="stroke:#0086EF;stroke-width:1.0416666666666667;"/><path d="M523.1604,73.822 Q522.7332,74.0417 522.2632,74.1516 Q521.7932,74.2615 521.2744,74.2615 Q519.4312,74.2615 518.4607,73.0469 Q517.4902,71.8323 517.4902,69.5374 Q517.4902,67.2363 518.4607,66.0217 Q519.4312,64.8071 521.2744,64.8071 Q521.7932,64.8071 522.2693,64.917 Q522.7454,65.0269 523.1604,65.2466 L523.1604,67.2485 Q522.6965,66.8213 522.2601,66.6229 Q521.8237,66.4246 521.3599,66.4246 Q520.3711,66.4246 519.8676,67.2089 Q519.364,67.9932 519.364,69.5374 Q519.364,71.0754 519.8676,71.8597 Q520.3711,72.644 521.3599,72.644 Q521.8237,72.644 522.2601,72.4457 Q522.6965,72.2473 523.1604,71.8201 Z " fill="#000000"/><rect fill="#F24D5C" height="6.25" style="stroke:#C82930;stroke-width:1.0416666666666667;" width="6.25" x="542.2917" y="65.7511"/><text fill="#D8BC00" font-family="Open Sans,Avenir,Nunito,Arial,Helvetica,SansSerif" font-size="12.5" font-weight="bold" lengthAdjust="spacing" textLength="65.625" x="554.7917" y="74.1211">SwitchList</text><line style="stroke:#5E5E5E;stroke-width:1.5625;" x1="483.3333" x2="650" y1="85.0911" y2="85.0911"/><ellipse cx="493.75" cy="120.461" fill="#84BE84" rx="3.125" ry="3.125" style="stroke:#038048;stroke-width:1.0416666666666667;"/><text fill="#D8BC00" font-family="Open Sans,Avenir,Nunito,Arial,Helvetica,SansSerif" font-size="11.4583" lengthAdjust="spacing" textLength="136.4583" x="505.2083" y="127.3722">void add(Switch _switch)</text><line style="stroke:#5E5E5E;stroke-width:1.0416666666666667;" x1="483.3333" x2="532.2917" y1="103.2969" y2="103.2969"/><text fill="#D8BC00" font-family="Open Sans,Avenir,Nunito,Arial,Helvetica,SansSerif" font-size="11.4583" lengthAdjust="spacing" textLength="62.5" x="535.4167" y="107.1065">(collection)</text><line style="stroke:#5E5E5E;stroke-width:1.0416666666666667;" x1="601.0417" x2="650" y1="103.2969" y2="103.2969"/><ellipse cx="493.75" cy="164.1174" fill="#84BE84" rx="3.125" ry="3.125" style="stroke:#038048;stroke-width:1.0416666666666667;"/><text fill="#D8BC00" font-family="Open Sans,Avenir,Nunito,Arial,Helvetica,SansSerif" font-size="11.4583" lengthAdjust="spacing" textLength="133.3333" x="505.2083" y="171.0286">T get(SwitchParser&lt;T&gt;)</text><line style="stroke:#5E5E5E;stroke-width:1.0416666666666667;" x1="483.3333" x2="497.3958" y1="146.9533" y2="146.9533"/><text fill="#D8BC00" font-family="Open Sans,Avenir,Nunito,Arial,Helvetica,SansSerif" font-size="11.4583" lengthAdjust="spacing" textLength="132.2917" x="500.5208" y="150.7629">(command line parsing)</text><line style="stroke:#5E5E5E;stroke-width:1.0416666666666667;" x1="635.9375" x2="650" y1="146.9533" y2="146.9533"/><rect fill="#282828" height="48.055" id="SwitchParser.Builder" rx="8.3333" ry="8.3333" style="stroke:#5E5E5E;stroke-width:1.0416666666666667;" width="83.3333" x="154.1667" y="970.3695"/><rect fill="#1B1B1A" height="31.3883" rx="8.3333" ry="8.3333" style="stroke:#1B1B1A;stroke-width:1.0416666666666667;" width="83.3333" x="154.1667" y="970.3695"/><rect fill="#1B1B1A" height="8.3333" style="stroke:#1B1B1A;stroke-width:1.0416666666666667;" width="83.3333" x="154.1667" y="993.4245"/><rect fill="none" height="48.055" id="SwitchParser.Builder" rx="8.3333" ry="8.3333" style="stroke:#5E5E5E;stroke-width:1.0416666666666667;" width="83.3333" x="154.1667" y="970.3695"/><ellipse cx="168.75" cy="986.0636" fill="#0066CF" rx="10.4167" ry="10.4167" style="stroke:#0086EF;stroke-width:1.0416666666666667;"/><path d="M170.6604,990.4887 Q170.2332,990.7084 169.7632,990.8183 Q169.2932,990.9281 168.7744,990.9281 Q166.9312,990.9281 165.9607,989.7135 Q164.9902,988.4989 164.9902,986.204 Q164.9902,983.903 165.9607,982.6884 Q166.9312,981.4738 168.7744,981.4738 Q169.2932,981.4738 169.7693,981.5837 Q170.2454,981.6935 170.6604,981.9132 L170.6604,983.9152 Q170.1965,983.488 169.7601,983.2896 Q169.3237,983.0912 168.8599,983.0912 Q167.8711,983.0912 167.3676,983.8755 Q166.864,984.6598 166.864,986.204 Q166.864,987.7421 167.3676,988.5264 Q167.8711,989.3107 168.8599,989.3107 Q169.3237,989.3107 169.7601,989.1123 Q170.1965,988.914 170.6604,988.4867 Z " fill="#000000"/><text fill="#D8BC00" font-family="Open Sans,Avenir,Nunito,Arial,Helvetica,SansSerif" font-size="12.5" font-weight="bold" lengthAdjust="spacing" textLength="45.8333" x="185.4167" y="990.7878">Builder</text><line style="stroke:#5E5E5E;stroke-width:1.0416666666666667;" x1="155.2083" x2="236.4583" y1="1001.7578" y2="1001.7578"/><line style="stroke:#5E5E5E;stroke-width:1.0416666666666667;" x1="155.2083" x2="236.4583" y1="1010.0911" y2="1010.0911"/><rect fill="#282828" height="48.055" id="T" rx="8.3333" ry="8.3333" style="stroke:#5E5E5E;stroke-width:1.0416666666666667;" width="45.8333" x="386.4583" y="970.3695"/><rect fill="#1B1B1A" height="31.3883" rx="8.3333" ry="8.3333" style="stroke:#1B1B1A;stroke-width:1.0416666666666667;" width="45.8333" x="386.4583" y="970.3695"/><rect fill="#1B1B1A" height="8.3333" style="stroke:#1B1B1A;stroke-width:1.0416666666666667;" width="45.8333" x="386.4583" y="993.4245"/><rect fill="none" height="48.055" id="T" rx="8.3333" ry="8.3333" style="stroke:#5E5E5E;stroke-width:1.0416666666666667;" width="45.8333" x="386.4583" y="970.3695"/><ellipse cx="401.0417" cy="986.0636" fill="#0066CF" rx="10.4167" ry="10.4167" style="stroke:#0086EF;stroke-width:1.0416666666666667;"/><path d="M402.9521,990.4887 Q402.5248,990.7084 402.0549,990.8183 Q401.5849,990.9281 401.0661,990.9281 Q399.2228,990.9281 398.2524,989.7135 Q397.2819,988.4989 397.2819,986.204 Q397.2819,983.903 398.2524,982.6884 Q399.2228,981.4738 401.0661,981.4738 Q401.5849,981.4738 402.061,981.5837 Q402.537,981.6935 402.9521,981.9132 L402.9521,983.9152 Q402.4882,983.488 402.0518,983.2896 Q401.6154,983.0912 401.1515,983.0912 Q400.1628,983.0912 399.6592,983.8755 Q399.1557,984.6598 399.1557,986.204 Q399.1557,987.7421 399.6592,988.5264 Q400.1628,989.3107 401.1515,989.3107 Q401.6154,989.3107 402.0518,989.1123 Q402.4882,988.914 402.9521,988.4867 Z " fill="#000000"/><text fill="#D8BC00" font-family="Open Sans,Avenir,Nunito,Arial,Helvetica,SansSerif" font-size="12.5" font-weight="bold" lengthAdjust="spacing" textLength="8.3333" x="417.7083" y="990.7878">T</text><line style="stroke:#5E5E5E;stroke-width:1.0416666666666667;" x1="387.5" x2="431.25" y1="1001.7578" y2="1001.7578"/><line style="stroke:#5E5E5E;stroke-width:1.0416666666666667;" x1="387.5" x2="431.25" y1="1010.0911" y2="1010.0911"/><rect fill="#282828" height="48.055" id="StringConverter" rx="8.3333" ry="8.3333" style="stroke:#5E5E5E;stroke-width:1.0416666666666667;" width="139.5833" x="590.625" y="970.3695"/><rect fill="#1B1B1A" height="31.3883" rx="8.3333" ry="8.3333" style="stroke:#1B1B1A;stroke-width:1.0416666666666667;" width="139.5833" x="590.625" y="970.3695"/><rect fill="#1B1B1A" height="8.3333" style="stroke:#1B1B1A;stroke-width:1.0416666666666667;" width="139.5833" x="590.625" y="993.4245"/><rect fill="none" height="48.055" id="StringConverter" rx="8.3333" ry="8.3333" style="stroke:#5E5E5E;stroke-width:1.0416666666666667;" width="139.5833" x="590.625" y="970.3695"/><ellipse cx="605.2083" cy="986.0636" fill="#0066CF" rx="10.4167" ry="10.4167" style="stroke:#0086EF;stroke-width:1.0416666666666667;"/><path d="M607.1187,990.4887 Q606.6915,990.7084 606.2215,990.8183 Q605.7515,990.9281 605.2327,990.9281 Q603.3895,990.9281 602.419,989.7135 Q601.4486,988.4989 601.4486,986.204 Q601.4486,983.903 602.419,982.6884 Q603.3895,981.4738 605.2327,981.4738 Q605.7515,981.4738 606.2276,981.5837 Q606.7037,981.6935 607.1187,981.9132 L607.1187,983.9152 Q606.6549,983.488 606.2185,983.2896 Q605.7821,983.0912 605.3182,983.0912 Q604.3294,983.0912 603.8259,983.8755 Q603.3223,984.6598 603.3223,986.204 Q603.3223,987.7421 603.8259,988.5264 Q604.3294,989.3107 605.3182,989.3107 Q605.7821,989.3107 606.2185,989.1123 Q606.6549,988.914 607.1187,988.4867 Z " fill="#000000"/><text fill="#D8BC00" font-family="Open Sans,Avenir,Nunito,Arial,Helvetica,SansSerif" font-size="12.5" font-weight="bold" lengthAdjust="spacing" textLength="102.0833" x="621.875" y="990.7878">StringConverter</text><line style="stroke:#5E5E5E;stroke-width:1.0416666666666667;" x1="591.6667" x2="729.1667" y1="1001.7578" y2="1001.7578"/><line style="stroke:#5E5E5E;stroke-width:1.0416666666666667;" x1="591.6667" x2="729.1667" y1="1010.0911" y2="1010.0911"/><path codeLine="18" d="M369.7917,161.734 C369.7917,196.6611 369.7917,245.734 369.7917,284.6715 " fill="none" id="Argument-backto-Switch" style="stroke:#545454;stroke-width:1.5625;"/><polygon fill="none" points="362.5,161.4215,369.7917,140.5882,377.0833,161.4215,362.5,161.4215" style="stroke:#545454;stroke-width:1.5625;"/><path codeLine="19" d="M263.9167,158.7549 C283.6042,193.8382 312.0938,244.6195 334.5625,284.6715 " fill="none" id="Named-backto-Switch" style="stroke:#545454;stroke-width:1.5625;"/><polygon fill="none" points="257.5521,162.3174,253.7188,140.5882,270.2708,155.182,257.5521,162.3174" style="stroke:#545454;stroke-width:1.5625;"/><path codeLine="20" d="M369.7917,411.1507 C369.7917,445.3695 369.7917,489.4736 369.7917,531.7965 " fill="none" id="Switch-to-SwitchParser" style="stroke:#545454;stroke-width:1.5625;"/><polygon fill="#545454" points="369.7917,537.484,373.9583,528.109,369.7917,532.2757,365.625,528.109,369.7917,537.484" style="stroke:#545454;stroke-width:1.5625;"/><text fill="#A0A0A0" font-family="Open Sans,Avenir,Nunito,Arial,Helvetica,SansSerif" font-size="12.5" font-weight="bold" lengthAdjust="spacing" textLength="98.9583" x="373.9583" y="478.8086">gets value with</text><path codeLine="29" d="M504.625,190.5049 C478.6146,220.7861 448.6563,255.6611 423.5938,284.8278 " fill="none" id="SwitchList-backto-Switch" style="stroke:#545454;stroke-width:1.5625;"/><polygon fill="#333333" points="513.6458,180.0049,506.4122,182.0291,505.4985,189.4849,512.7322,187.4607,513.6458,180.0049" style="stroke:#545454;stroke-width:1.5625;"/><text fill="#A0A0A0" font-family="Open Sans,Avenir,Nunito,Arial,Helvetica,SansSerif" font-size="12.5" font-weight="bold" lengthAdjust="spacing" textLength="8.3333" x="494.8369" y="204.1447">1</text><text fill="#A0A0A0" font-family="Open Sans,Avenir,Nunito,Arial,Helvetica,SansSerif" font-size="12.5" font-weight="bold" lengthAdjust="spacing" textLength="6.25" x="419.7772" y="270.6494">*</text><path codeLine="38" d="M248.9479,814.8278 C237.8958,831.5986 227.8542,849.0674 219.7917,866.7236 C205.3125,898.4424 199.5833,938.4736 197.3125,964.9215 " fill="none" id="SwitchParser-to-SwitchParser.Builder" style="stroke:#545454;stroke-width:1.5625;"/><polygon fill="#545454" points="196.8854,970.3486,201.7885,961.3369,197.3019,965.157,193.4818,960.6704,196.8854,970.3486" style="stroke:#545454;stroke-width:1.5625;"/><text fill="#A0A0A0" font-family="Open Sans,Avenir,Nunito,Arial,Helvetica,SansSerif" font-size="12.5" font-weight="bold" lengthAdjust="spacing" textLength="45.8333" x="223.9583" y="882.9753">creates</text><path codeLine="39" d="M284.1042,814.8382 C277.7813,839.9736 277.5729,865.7757 288.5417,889.6403 C307.6042,931.1195 352.3646,962.2132 381.7292,979.0674 " fill="none" id="SwitchParser-to-T" style="stroke:#545454;stroke-width:1.5625;"/><polygon fill="#545454" points="386.3125,981.6403,380.1932,973.4059,381.7758,979.0819,376.0998,980.6645,386.3125,981.6403" style="stroke:#545454;stroke-width:1.5625;"/><text fill="#A0A0A0" font-family="Open Sans,Avenir,Nunito,Arial,Helvetica,SansSerif" font-size="12.5" font-weight="bold" lengthAdjust="spacing" textLength="28.125" x="292.7083" y="882.9753">gets</text><path codeLine="40" d="M359.3646,814.7861 C359.8438,839.859 361.9167,865.6611 366.6667,889.6403 C371.9583,916.3903 384.2604,944.9111 394.3021,965.2445 " fill="none" id="SwitchParser-to-T-1" style="stroke:#545454;stroke-width:1.5625;"/><polygon fill="#545454" points="396.8021,970.234,396.3231,959.986,394.4669,965.5786,388.8744,963.7223,396.8021,970.234" style="stroke:#545454;stroke-width:1.5625;"/><text fill="#A0A0A0" font-family="Open Sans,Avenir,Nunito,Arial,Helvetica,SansSerif" font-size="12.5" font-weight="bold" lengthAdjust="spacing" textLength="28.125" x="370.8333" y="882.9753">gets</text><text fill="#A0A0A0" font-family="Open Sans,Avenir,Nunito,Arial,Helvetica,SansSerif" font-size="12.5" font-weight="bold" lengthAdjust="spacing" textLength="8.3333" x="346.8583" y="839.0661">1</text><text fill="#A0A0A0" font-family="Open Sans,Avenir,Nunito,Arial,Helvetica,SansSerif" font-size="12.5" font-weight="bold" lengthAdjust="spacing" textLength="6.25" x="382.839" y="956.1988">*</text><path codeLine="41" d="M400.0313,814.932 C402.9583,832.2965 405.5,849.8799 407.2917,866.7236 C410.8646,900.3903 410.8958,939.359 410.3542,965.0674 " fill="none" id="SwitchParser-to-T-2" style="stroke:#545454;stroke-width:1.5625;"/><polygon fill="#545454" points="410.2292,970.3486,414.609,961.0713,410.3482,965.1417,406.2778,960.8809,410.2292,970.3486" style="stroke:#545454;stroke-width:1.5625;"/><text fill="#A0A0A0" font-family="Open Sans,Avenir,Nunito,Arial,Helvetica,SansSerif" font-size="12.5" font-weight="bold" lengthAdjust="spacing" textLength="28.125" x="413.5417" y="882.9753">gets</text><text fill="#A0A0A0" font-family="Open Sans,Avenir,Nunito,Arial,Helvetica,SansSerif" font-size="12.5" font-weight="bold" lengthAdjust="spacing" textLength="8.3333" x="389.9297" y="838.7552">1</text><text fill="#A0A0A0" font-family="Open Sans,Avenir,Nunito,Arial,Helvetica,SansSerif" font-size="12.5" font-weight="bold" lengthAdjust="spacing" textLength="6.25" x="399.5389" y="956.3413">*</text><path codeLine="43" d="M443.3958,827.6299 C447.7188,840.6299 451.4167,853.7757 454.1667,866.7236 C462.0625,903.8903 441.75,945.0361 425.9375,970.0257 " fill="none" id="SwitchParser-backto-T" style="stroke:#545454;stroke-width:1.5625;"/><polygon fill="#333333" points="438.875,814.6715,437.002,821.9459,442.9964,826.4726,444.8694,819.1982,438.875,814.6715" style="stroke:#545454;stroke-width:1.5625;"/><text fill="#A0A0A0" font-family="Open Sans,Avenir,Nunito,Arial,Helvetica,SansSerif" font-size="12.5" font-weight="bold" lengthAdjust="spacing" textLength="84.375" x="460.4167" y="882.9753">default value</text><path codeLine="42" d="M518.5313,824.8278 C531.8125,838.8278 544.9063,852.932 557.2917,866.7236 C588.7292,901.7236 622.7604,944.5465 642.8021,970.3382 " fill="none" id="SwitchParser-backto-StringConverter" style="stroke:#545454;stroke-width:1.5625;"/><polygon fill="#333333" points="508.8333,814.6611,510.1287,822.0602,517.4568,823.7102,516.1614,816.3112,508.8333,814.6611" style="stroke:#545454;stroke-width:1.5625;"/><text fill="#A0A0A0" font-family="Open Sans,Avenir,Nunito,Arial,Helvetica,SansSerif" font-size="12.5" font-weight="bold" lengthAdjust="spacing" textLength="133.3333" x="578.125" y="882.9753">converts values with</text><path codeLine="44" d="M226.1354,824.9424 C187.6042,864.5778 148.2292,905.0882 117.7604,936.432 " fill="none" id="SwitchParser-backto-Quantifier" style="stroke:#545454;stroke-width:1.5625;"/><polygon fill="#333333" points="235.9063,814.8903,228.5631,816.472,227.1989,823.8586,234.542,822.2769,235.9063,814.8903" style="stroke:#545454;stroke-width:1.5625;"/></g></svg>
