<?xml version="1.0" encoding="UTF-8" standalone="no"?><svg xmlns="http://www.w3.org/2000/svg" xmlns:xlink="http://www.w3.org/1999/xlink" contentScriptType="application/ecmascript" contentStyleType="text/css" height="634.375px" preserveAspectRatio="none" style="width:1110px;height:634px;background:#333333;" version="1.1" viewBox="0 0 1110 634" width="1110.4167px" zoomAndPan="magnify"><defs/><g><rect fill="#48494B" height="41.2028" rx="8.3333" ry="8.3333" style="stroke:#545454;stroke-width:1.0416666666666667;" width="344.7917" x="375.7813" y="2.0833"/><text fill="#C0C0C0" font-family="Open Sans,Avenir,Nunito,Arial,Helvetica,SansSerif" font-size="20.8333" lengthAdjust="spacing" textLength="321.875" x="387.2396" y="30.5583">com.telenav.kivakit.metrics.core</text><rect codeLine="39" fill="#282828" height="127.0345" id="Metric" rx="8.3333" ry="8.3333" style="stroke:#5E5E5E;stroke-width:1.0416666666666667;" width="140.625" x="230.7292" y="223.4945"/><rect fill="#1B1B1A" height="31.3883" rx="8.3333" ry="8.3333" style="stroke:#1B1B1A;stroke-width:1.0416666666666667;" width="140.625" x="230.7292" y="223.4945"/><rect fill="#1B1B1A" height="8.3333" style="stroke:#1B1B1A;stroke-width:1.0416666666666667;" width="140.625" x="230.7292" y="246.5495"/><rect codeLine="39" fill="none" height="127.0345" id="Metric" rx="8.3333" ry="8.3333" style="stroke:#5E5E5E;stroke-width:1.0416666666666667;" width="140.625" x="230.7292" y="223.4945"/><ellipse cx="265.4688" cy="239.1886" fill="#008400" rx="10.4167" ry="10.4167" style="stroke:#239C23;stroke-width:1.0416666666666667;"/><path d="M262.8727,236.3505 L262.8727,234.7636 L268.2987,234.7636 L268.2987,236.3505 L266.486,236.3505 L266.486,242.2892 L268.2987,242.2892 L268.2987,243.8761 L262.8727,243.8761 L262.8727,242.2892 L264.6855,242.2892 L264.6855,236.3505 Z " fill="#000000"/><text fill="#D8BC00" font-family="Open Sans,Avenir,Nunito,Arial,Helvetica,SansSerif" font-size="12.5" font-style="italic" font-weight="bold" lengthAdjust="spacing" textLength="39.5833" x="286.6146" y="243.9128">Metric</text><rect fill="#333333" height="23.055" style="stroke:#A0A0A0;stroke-width:1.0416666666666667;stroke-dasharray:2.0,2.0;" width="16.6667" x="357.8125" y="220.3695"/><text fill="#A0A0A0" font-family="Open Sans,Avenir,Nunito,Arial,Helvetica,SansSerif" font-size="12.5" font-weight="bold" lengthAdjust="spacing" textLength="8.3333" x="361.9792" y="236.6211">T</text><line style="stroke:#5E5E5E;stroke-width:1.5625;" x1="231.7708" x2="370.3125" y1="254.8828" y2="254.8828"/><line style="stroke:#5E5E5E;stroke-width:1.0416666666666667;" x1="231.7708" x2="370.3125" y1="263.2161" y2="263.2161"/><ellipse cx="242.1875" cy="274.6745" fill="#84BE84" rx="3.125" ry="3.125" style="stroke:#038048;stroke-width:1.0416666666666667;"/><text fill="#D8BC00" font-family="Open Sans,Avenir,Nunito,Arial,Helvetica,SansSerif" font-size="11.4583" lengthAdjust="spacing" textLength="108.3333" x="253.6458" y="281.5857">String description()</text><ellipse cx="242.1875" cy="294.4194" fill="#84BE84" rx="3.125" ry="3.125" style="stroke:#038048;stroke-width:1.0416666666666667;"/><text fill="#D8BC00" font-family="Open Sans,Avenir,Nunito,Arial,Helvetica,SansSerif" font-size="11.4583" lengthAdjust="spacing" textLength="94.7917" x="253.6458" y="301.3306">T measurement()</text><ellipse cx="242.1875" cy="314.1642" fill="#84BE84" rx="3.125" ry="3.125" style="stroke:#038048;stroke-width:1.0416666666666667;"/><text fill="#D8BC00" font-family="Open Sans,Avenir,Nunito,Arial,Helvetica,SansSerif" font-size="11.4583" lengthAdjust="spacing" textLength="96.875" x="253.6458" y="321.0754">MetricType type()</text><ellipse cx="242.1875" cy="333.9091" fill="#84BE84" rx="3.125" ry="3.125" style="stroke:#038048;stroke-width:1.0416666666666667;"/><text fill="#D8BC00" font-family="Open Sans,Avenir,Nunito,Arial,Helvetica,SansSerif" font-size="11.4583" lengthAdjust="spacing" textLength="66.6667" x="253.6458" y="340.8203">String unit()</text><rect codeLine="9" fill="#282828" height="48.055" id="Addable" rx="8.3333" ry="8.3333" style="stroke:#5E5E5E;stroke-width:1.0416666666666667;" width="109.375" x="33.8542" y="263.0778"/><rect fill="#1B1B1A" height="31.3883" rx="8.3333" ry="8.3333" style="stroke:#1B1B1A;stroke-width:1.0416666666666667;" width="109.375" x="33.8542" y="263.0778"/><rect fill="#1B1B1A" height="8.3333" style="stroke:#1B1B1A;stroke-width:1.0416666666666667;" width="109.375" x="33.8542" y="286.1328"/><rect codeLine="9" fill="none" height="48.055" id="Addable" rx="8.3333" ry="8.3333" style="stroke:#5E5E5E;stroke-width:1.0416666666666667;" width="109.375" x="33.8542" y="263.0778"/><ellipse cx="48.4375" cy="278.772" fill="#008400" rx="10.4167" ry="10.4167" style="stroke:#239C23;stroke-width:1.0416666666666667;"/><path d="M45.8415,275.9338 L45.8415,274.3469 L51.2675,274.3469 L51.2675,275.9338 L49.4548,275.9338 L49.4548,281.8726 L51.2675,281.8726 L51.2675,283.4595 L45.8415,283.4595 L45.8415,281.8726 L47.6542,281.8726 L47.6542,275.9338 Z " fill="#000000"/><text fill="#D8BC00" font-family="Open Sans,Avenir,Nunito,Arial,Helvetica,SansSerif" font-size="12.5" font-style="italic" font-weight="bold" lengthAdjust="spacing" textLength="53.125" x="65.1042" y="283.4961">Addable</text><rect fill="#333333" height="23.055" style="stroke:#A0A0A0;stroke-width:1.0416666666666667;stroke-dasharray:2.0,2.0;" width="16.6667" x="129.6875" y="259.9528"/><text fill="#A0A0A0" font-family="Open Sans,Avenir,Nunito,Arial,Helvetica,SansSerif" font-size="12.5" font-weight="bold" lengthAdjust="spacing" textLength="8.3333" x="133.8542" y="276.2044">T</text><line style="stroke:#5E5E5E;stroke-width:1.0416666666666667;" x1="34.8958" x2="142.1875" y1="294.4661" y2="294.4661"/><line style="stroke:#5E5E5E;stroke-width:1.0416666666666667;" x1="34.8958" x2="142.1875" y1="302.7995" y2="302.7995"/><rect codeLine="13" fill="#282828" height="48.055" id="AggregateMetric" rx="8.3333" ry="8.3333" style="stroke:#5E5E5E;stroke-width:1.0416666666666667;" width="162.5" x="7.2917" y="496.4111"/><rect fill="#1B1B1A" height="31.3883" rx="8.3333" ry="8.3333" style="stroke:#1B1B1A;stroke-width:1.0416666666666667;" width="162.5" x="7.2917" y="496.4111"/><rect fill="#1B1B1A" height="8.3333" style="stroke:#1B1B1A;stroke-width:1.0416666666666667;" width="162.5" x="7.2917" y="519.4661"/><rect codeLine="13" fill="none" height="48.055" id="AggregateMetric" rx="8.3333" ry="8.3333" style="stroke:#5E5E5E;stroke-width:1.0416666666666667;" width="162.5" x="7.2917" y="496.4111"/><ellipse cx="21.875" cy="512.1053" fill="#008400" rx="10.4167" ry="10.4167" style="stroke:#239C23;stroke-width:1.0416666666666667;"/><path d="M19.279,509.2672 L19.279,507.6803 L24.705,507.6803 L24.705,509.2672 L22.8923,509.2672 L22.8923,515.2059 L24.705,515.2059 L24.705,516.7928 L19.279,516.7928 L19.279,515.2059 L21.0917,515.2059 L21.0917,509.2672 Z " fill="#000000"/><text fill="#D8BC00" font-family="Open Sans,Avenir,Nunito,Arial,Helvetica,SansSerif" font-size="12.5" font-style="italic" font-weight="bold" lengthAdjust="spacing" textLength="106.25" x="38.5417" y="516.8294">AggregateMetric</text><rect fill="#333333" height="23.055" style="stroke:#A0A0A0;stroke-width:1.0416666666666667;stroke-dasharray:2.0,2.0;" width="16.6667" x="156.25" y="493.2861"/><text fill="#A0A0A0" font-family="Open Sans,Avenir,Nunito,Arial,Helvetica,SansSerif" font-size="12.5" font-weight="bold" lengthAdjust="spacing" textLength="8.3333" x="160.4167" y="509.5378">T</text><line style="stroke:#5E5E5E;stroke-width:1.0416666666666667;" x1="8.3333" x2="168.75" y1="527.7995" y2="527.7995"/><line style="stroke:#5E5E5E;stroke-width:1.0416666666666667;" x1="8.3333" x2="168.75" y1="536.1328" y2="536.1328"/><rect codeLine="18" fill="#282828" height="214.3473" id="BaseMetric" rx="8.3333" ry="8.3333" style="stroke:#5E5E5E;stroke-width:1.0416666666666667;" width="292.7083" x="206.7708" y="413.0778"/><rect fill="#1B1B1A" height="31.3883" rx="8.3333" ry="8.3333" style="stroke:#1B1B1A;stroke-width:1.0416666666666667;" width="292.7083" x="206.7708" y="413.0778"/><rect fill="#1B1B1A" height="8.3333" style="stroke:#1B1B1A;stroke-width:1.0416666666666667;" width="292.7083" x="206.7708" y="436.1328"/><rect codeLine="18" fill="none" height="214.3473" id="BaseMetric" rx="8.3333" ry="8.3333" style="stroke:#5E5E5E;stroke-width:1.0416666666666667;" width="292.7083" x="206.7708" y="413.0778"/><ellipse cx="301.5625" cy="428.772" fill="#C8AC00" rx="10.4167" ry="10.4167" style="stroke:#D8BC00;stroke-width:1.0416666666666667;"/><path d="M301.1556,425.474 L300.3072,429.2033 L302.0101,429.2033 Z M300.057,423.8261 L302.2603,423.8261 L304.7201,432.9386 L302.9195,432.9386 L302.358,430.6864 L299.9471,430.6864 L299.3978,432.9386 L297.5972,432.9386 Z " fill="#000000"/><text fill="#D8BC00" font-family="Open Sans,Avenir,Nunito,Arial,Helvetica,SansSerif" font-size="12.5" font-style="italic" font-weight="bold" lengthAdjust="spacing" textLength="69.7917" x="324.4792" y="433.4961">BaseMetric</text><rect fill="#333333" height="23.055" style="stroke:#A0A0A0;stroke-width:1.0416666666666667;stroke-dasharray:2.0,2.0;" width="16.6667" x="485.9375" y="409.9528"/><text fill="#A0A0A0" font-family="Open Sans,Avenir,Nunito,Arial,Helvetica,SansSerif" font-size="12.5" font-weight="bold" lengthAdjust="spacing" textLength="8.3333" x="490.1042" y="426.2044">T</text><line style="stroke:#5E5E5E;stroke-width:1.5625;" x1="207.8125" x2="498.4375" y1="444.4661" y2="444.4661"/><ellipse cx="218.2292" cy="479.836" fill="#84BE84" rx="3.125" ry="3.125" style="stroke:#038048;stroke-width:1.0416666666666667;"/><text fill="#D8BC00" font-family="Open Sans,Avenir,Nunito,Arial,Helvetica,SansSerif" font-size="11.4583" lengthAdjust="spacing" textLength="67.7083" x="229.6875" y="486.7472">BaseMetric()</text><ellipse cx="218.2292" cy="499.5809" fill="#84BE84" rx="3.125" ry="3.125" style="stroke:#038048;stroke-width:1.0416666666666667;"/><text fill="#D8BC00" font-family="Open Sans,Avenir,Nunito,Arial,Helvetica,SansSerif" font-size="11.4583" lengthAdjust="spacing" textLength="153.125" x="229.6875" y="506.4921">BaseMetric(BaseMetric&lt;T&gt;)</text><line style="stroke:#5E5E5E;stroke-width:1.0416666666666667;" x1="207.8125" x2="309.375" y1="462.6719" y2="462.6719"/><text fill="#D8BC00" font-family="Open Sans,Avenir,Nunito,Arial,Helvetica,SansSerif" font-size="11.4583" lengthAdjust="spacing" textLength="81.25" x="312.5" y="466.4815">(constructors)</text><line style="stroke:#5E5E5E;stroke-width:1.0416666666666667;" x1="396.875" x2="498.4375" y1="462.6719" y2="462.6719"/><line style="stroke:#5E5E5E;stroke-width:1.0416666666666667;" x1="207.8125" x2="498.4375" y1="516.2008" y2="516.2008"/><ellipse cx="218.2292" cy="527.6591" fill="#84BE84" rx="3.125" ry="3.125" style="stroke:#038048;stroke-width:1.0416666666666667;"/><text fill="#D8BC00" font-family="Open Sans,Avenir,Nunito,Arial,Helvetica,SansSerif" font-size="11.4583" lengthAdjust="spacing" textLength="260.4167" x="229.6875" y="534.5703">BaseMetric&lt;T&gt; description(String description)</text><ellipse cx="218.2292" cy="547.404" fill="#84BE84" rx="3.125" ry="3.125" style="stroke:#038048;stroke-width:1.0416666666666667;"/><text fill="#D8BC00" font-family="Open Sans,Avenir,Nunito,Arial,Helvetica,SansSerif" font-size="11.4583" lengthAdjust="spacing" textLength="182.2917" x="229.6875" y="554.3152">BaseMetric&lt;T&gt; type(MetricType)</text><ellipse cx="218.2292" cy="567.1488" fill="#84BE84" rx="3.125" ry="3.125" style="stroke:#038048;stroke-width:1.0416666666666667;"/><text fill="#D8BC00" font-family="Open Sans,Avenir,Nunito,Arial,Helvetica,SansSerif" font-size="11.4583" lengthAdjust="spacing" textLength="177.0833" x="229.6875" y="574.0601">BaseMetric&lt;T&gt; unit(String unit)</text><ellipse cx="218.2292" cy="610.8053" fill="#84BE84" rx="3.125" ry="3.125" style="stroke:#038048;stroke-width:1.0416666666666667;"/><text fill="#D8BC00" font-family="Open Sans,Avenir,Nunito,Arial,Helvetica,SansSerif" font-size="11.4583" lengthAdjust="spacing" textLength="193.75" x="229.6875" y="617.7165">BaseMetric&lt;T&gt; name(String name)</text><line style="stroke:#5E5E5E;stroke-width:1.0416666666666667;" x1="207.8125" x2="325" y1="593.6412" y2="593.6412"/><text fill="#D8BC00" font-family="Open Sans,Avenir,Nunito,Arial,Helvetica,SansSerif" font-size="11.4583" lengthAdjust="spacing" textLength="50" x="328.125" y="597.4508">(naming)</text><line style="stroke:#5E5E5E;stroke-width:1.0416666666666667;" x1="381.25" x2="498.4375" y1="593.6412" y2="593.6412"/><rect codeLine="31" fill="#282828" height="48.055" id="CreatedAt" rx="8.3333" ry="8.3333" style="stroke:#5E5E5E;stroke-width:1.0416666666666667;" width="102.0833" x="53.125" y="83.3903"/><rect fill="#1B1B1A" height="31.3883" rx="8.3333" ry="8.3333" style="stroke:#1B1B1A;stroke-width:1.0416666666666667;" width="102.0833" x="53.125" y="83.3903"/><rect fill="#1B1B1A" height="8.3333" style="stroke:#1B1B1A;stroke-width:1.0416666666666667;" width="102.0833" x="53.125" y="106.4453"/><rect codeLine="31" fill="none" height="48.055" id="CreatedAt" rx="8.3333" ry="8.3333" style="stroke:#5E5E5E;stroke-width:1.0416666666666667;" width="102.0833" x="53.125" y="83.3903"/><ellipse cx="67.7083" cy="99.0845" fill="#008400" rx="10.4167" ry="10.4167" style="stroke:#239C23;stroke-width:1.0416666666666667;"/><path d="M65.1123,96.2463 L65.1123,94.6594 L70.5383,94.6594 L70.5383,96.2463 L68.7256,96.2463 L68.7256,102.1851 L70.5383,102.1851 L70.5383,103.772 L65.1123,103.772 L65.1123,102.1851 L66.925,102.1851 L66.925,96.2463 Z " fill="#000000"/><text fill="#D8BC00" font-family="Open Sans,Avenir,Nunito,Arial,Helvetica,SansSerif" font-size="12.5" font-style="italic" font-weight="bold" lengthAdjust="spacing" textLength="64.5833" x="84.375" y="103.8086">CreatedAt</text><line style="stroke:#5E5E5E;stroke-width:1.0416666666666667;" x1="54.1667" x2="154.1667" y1="114.7786" y2="114.7786"/><line style="stroke:#5E5E5E;stroke-width:1.0416666666666667;" x1="54.1667" x2="154.1667" y1="123.112" y2="123.112"/><rect codeLine="32" fill="#282828" height="48.055" id="Named" rx="8.3333" ry="8.3333" style="stroke:#5E5E5E;stroke-width:1.0416666666666667;" width="82.2917" x="192.1875" y="83.3903"/><rect fill="#1B1B1A" height="31.3883" rx="8.3333" ry="8.3333" style="stroke:#1B1B1A;stroke-width:1.0416666666666667;" width="82.2917" x="192.1875" y="83.3903"/><rect fill="#1B1B1A" height="8.3333" style="stroke:#1B1B1A;stroke-width:1.0416666666666667;" width="82.2917" x="192.1875" y="106.4453"/><rect codeLine="32" fill="none" height="48.055" id="Named" rx="8.3333" ry="8.3333" style="stroke:#5E5E5E;stroke-width:1.0416666666666667;" width="82.2917" x="192.1875" y="83.3903"/><ellipse cx="206.7708" cy="99.0845" fill="#008400" rx="10.4167" ry="10.4167" style="stroke:#239C23;stroke-width:1.0416666666666667;"/><path d="M204.1748,96.2463 L204.1748,94.6594 L209.6008,94.6594 L209.6008,96.2463 L207.7881,96.2463 L207.7881,102.1851 L209.6008,102.1851 L209.6008,103.772 L204.1748,103.772 L204.1748,102.1851 L205.9875,102.1851 L205.9875,96.2463 Z " fill="#000000"/><text fill="#D8BC00" font-family="Open Sans,Avenir,Nunito,Arial,Helvetica,SansSerif" font-size="12.5" font-style="italic" font-weight="bold" lengthAdjust="spacing" textLength="44.7917" x="223.4375" y="103.8086">Named</text><line style="stroke:#5E5E5E;stroke-width:1.0416666666666667;" x1="193.2292" x2="273.4375" y1="114.7786" y2="114.7786"/><line style="stroke:#5E5E5E;stroke-width:1.0416666666666667;" x1="193.2292" x2="273.4375" y1="123.112" y2="123.112"/><rect codeLine="33" fill="#282828" height="48.055" id="Quantizable" rx="8.3333" ry="8.3333" style="stroke:#5E5E5E;stroke-width:1.0416666666666667;" width="115.625" x="310.9375" y="83.3903"/><rect fill="#1B1B1A" height="31.3883" rx="8.3333" ry="8.3333" style="stroke:#1B1B1A;stroke-width:1.0416666666666667;" width="115.625" x="310.9375" y="83.3903"/><rect fill="#1B1B1A" height="8.3333" style="stroke:#1B1B1A;stroke-width:1.0416666666666667;" width="115.625" x="310.9375" y="106.4453"/><rect codeLine="33" fill="none" height="48.055" id="Quantizable" rx="8.3333" ry="8.3333" style="stroke:#5E5E5E;stroke-width:1.0416666666666667;" width="115.625" x="310.9375" y="83.3903"/><ellipse cx="325.5208" cy="99.0845" fill="#008400" rx="10.4167" ry="10.4167" style="stroke:#239C23;stroke-width:1.0416666666666667;"/><path d="M322.9248,96.2463 L322.9248,94.6594 L328.3508,94.6594 L328.3508,96.2463 L326.5381,96.2463 L326.5381,102.1851 L328.3508,102.1851 L328.3508,103.772 L322.9248,103.772 L322.9248,102.1851 L324.7375,102.1851 L324.7375,96.2463 Z " fill="#000000"/><text fill="#D8BC00" font-family="Open Sans,Avenir,Nunito,Arial,Helvetica,SansSerif" font-size="12.5" font-style="italic" font-weight="bold" lengthAdjust="spacing" textLength="78.125" x="342.1875" y="103.8086">Quantizable</text><line style="stroke:#5E5E5E;stroke-width:1.0416666666666667;" x1="311.9792" x2="425.5208" y1="114.7786" y2="114.7786"/><line style="stroke:#5E5E5E;stroke-width:1.0416666666666667;" x1="311.9792" x2="425.5208" y1="123.112" y2="123.112"/><rect codeLine="34" fill="#282828" height="48.055" id="QuantumComparable" rx="8.3333" ry="8.3333" style="stroke:#5E5E5E;stroke-width:1.0416666666666667;" width="255.2083" x="463.0208" y="83.3903"/><rect fill="#1B1B1A" height="31.3883" rx="8.3333" ry="8.3333" style="stroke:#1B1B1A;stroke-width:1.0416666666666667;" width="255.2083" x="463.0208" y="83.3903"/><rect fill="#1B1B1A" height="8.3333" style="stroke:#1B1B1A;stroke-width:1.0416666666666667;" width="255.2083" x="463.0208" y="106.4453"/><rect codeLine="34" fill="none" height="48.055" id="QuantumComparable" rx="8.3333" ry="8.3333" style="stroke:#5E5E5E;stroke-width:1.0416666666666667;" width="255.2083" x="463.0208" y="83.3903"/><ellipse cx="477.6042" cy="99.0845" fill="#008400" rx="10.4167" ry="10.4167" style="stroke:#239C23;stroke-width:1.0416666666666667;"/><path d="M475.0081,96.2463 L475.0081,94.6594 L480.4342,94.6594 L480.4342,96.2463 L478.6214,96.2463 L478.6214,102.1851 L480.4342,102.1851 L480.4342,103.772 L475.0081,103.772 L475.0081,102.1851 L476.8209,102.1851 L476.8209,96.2463 Z " fill="#000000"/><text fill="#D8BC00" font-family="Open Sans,Avenir,Nunito,Arial,Helvetica,SansSerif" font-size="12.5" font-style="italic" font-weight="bold" lengthAdjust="spacing" textLength="138.5417" x="494.2708" y="103.8086">QuantumComparable</text><rect fill="#333333" height="23.055" style="stroke:#A0A0A0;stroke-width:1.0416666666666667;stroke-dasharray:2.0,2.0;" width="77.0833" x="644.2708" y="80.2653"/><text fill="#A0A0A0" font-family="Open Sans,Avenir,Nunito,Arial,Helvetica,SansSerif" font-size="12.5" font-weight="bold" lengthAdjust="spacing" textLength="68.75" x="648.4375" y="96.5169">Metric&lt;T&gt;</text><line style="stroke:#5E5E5E;stroke-width:1.0416666666666667;" x1="464.0625" x2="717.1875" y1="114.7786" y2="114.7786"/><line style="stroke:#5E5E5E;stroke-width:1.0416666666666667;" x1="464.0625" x2="717.1875" y1="123.112" y2="123.112"/><rect codeLine="48" fill="#282828" height="107.2896" id="Metric.MetricType" rx="8.3333" ry="8.3333" style="stroke:#5E5E5E;stroke-width:1.0416666666666667;" width="151.0417" x="754.6875" y="53.7028"/><rect fill="#1B1B1A" height="31.3883" rx="8.3333" ry="8.3333" style="stroke:#1B1B1A;stroke-width:1.0416666666666667;" width="151.0417" x="754.6875" y="53.7028"/><rect fill="#1B1B1A" height="8.3333" style="stroke:#1B1B1A;stroke-width:1.0416666666666667;" width="151.0417" x="754.6875" y="76.7578"/><rect codeLine="48" fill="none" height="107.2896" id="Metric.MetricType" rx="8.3333" ry="8.3333" style="stroke:#5E5E5E;stroke-width:1.0416666666666667;" width="151.0417" x="754.6875" y="53.7028"/><ellipse cx="769.2708" cy="69.397" fill="#CF6300" rx="10.4167" ry="10.4167" style="stroke:#EF8300;stroke-width:1.0416666666666667;"/><path d="M772.3267,74.0845 L766.6504,74.0845 L766.6504,64.9719 L772.3267,64.9719 L772.3267,66.5588 L768.4509,66.5588 L768.4509,68.5242 L771.9604,68.5242 L771.9604,70.1111 L768.4509,70.1111 L768.4509,72.4976 L772.3267,72.4976 Z " fill="#000000"/><text fill="#D8BC00" font-family="Open Sans,Avenir,Nunito,Arial,Helvetica,SansSerif" font-size="12.5" font-weight="bold" lengthAdjust="spacing" textLength="113.5417" x="785.9375" y="74.1211">Metric.MetricType</text><line style="stroke:#5E5E5E;stroke-width:1.0416666666666667;" x1="755.7292" x2="904.6875" y1="85.0911" y2="85.0911"/><text fill="#D8BC00" font-family="Open Sans,Avenir,Nunito,Arial,Helvetica,SansSerif" font-size="11.4583" lengthAdjust="spacing" textLength="41.6667" x="764.0625" y="103.4607">COUNT</text><text fill="#D8BC00" font-family="Open Sans,Avenir,Nunito,Arial,Helvetica,SansSerif" font-size="11.4583" lengthAdjust="spacing" textLength="32.2917" x="764.0625" y="123.2056">LEVEL</text><text fill="#D8BC00" font-family="Open Sans,Avenir,Nunito,Arial,Helvetica,SansSerif" font-size="11.4583" lengthAdjust="spacing" textLength="79.1667" x="764.0625" y="142.9504">OBSERVATION</text><line style="stroke:#5E5E5E;stroke-width:1.0416666666666667;" x1="755.7292" x2="904.6875" y1="152.6591" y2="152.6591"/><rect codeLine="55" fill="#282828" height="67.7999" id="MetricsReporter" rx="8.3333" ry="8.3333" style="stroke:#5E5E5E;stroke-width:1.0416666666666667;" width="161.4583" x="942.1875" y="73.4945"/><rect fill="#1B1B1A" height="31.3883" rx="8.3333" ry="8.3333" style="stroke:#1B1B1A;stroke-width:1.0416666666666667;" width="161.4583" x="942.1875" y="73.4945"/><rect fill="#1B1B1A" height="8.3333" style="stroke:#1B1B1A;stroke-width:1.0416666666666667;" width="161.4583" x="942.1875" y="96.5495"/><rect codeLine="55" fill="none" height="67.7999" id="MetricsReporter" rx="8.3333" ry="8.3333" style="stroke:#5E5E5E;stroke-width:1.0416666666666667;" width="161.4583" x="942.1875" y="73.4945"/><ellipse cx="966.6146" cy="89.1886" fill="#008400" rx="10.4167" ry="10.4167" style="stroke:#239C23;stroke-width:1.0416666666666667;"/><path d="M964.0186,86.3505 L964.0186,84.7636 L969.4446,84.7636 L969.4446,86.3505 L967.6318,86.3505 L967.6318,92.2892 L969.4446,92.2892 L969.4446,93.8761 L964.0186,93.8761 L964.0186,92.2892 L965.8313,92.2892 L965.8313,86.3505 Z " fill="#000000"/><text fill="#D8BC00" font-family="Open Sans,Avenir,Nunito,Arial,Helvetica,SansSerif" font-size="12.5" font-style="italic" font-weight="bold" lengthAdjust="spacing" textLength="102.0833" x="985.4688" y="93.9128">MetricsReporter</text><line style="stroke:#5E5E5E;stroke-width:1.5625;" x1="943.2292" x2="1102.6042" y1="104.8828" y2="104.8828"/><line style="stroke:#5E5E5E;stroke-width:1.0416666666666667;" x1="943.2292" x2="1102.6042" y1="113.2161" y2="113.2161"/><ellipse cx="953.6458" cy="124.6745" fill="#84BE84" rx="3.125" ry="3.125" style="stroke:#038048;stroke-width:1.0416666666666667;"/><text fill="#D8BC00" font-family="Open Sans,Avenir,Nunito,Arial,Helvetica,SansSerif" font-size="11.4583" lengthAdjust="spacing" textLength="129.1667" x="965.1042" y="131.5857">void report(Metric&lt;?&gt;)</text><path codeLine="11" d="M88.5417,331.9424 C88.5417,380.8903 88.5417,458.2028 88.5417,496.4007 " fill="none" id="Addable-backto-AggregateMetric" style="stroke:#545454;stroke-width:1.5625;"/><polygon fill="none" points="81.25,331.932,88.5417,311.0986,95.8333,331.932,81.25,331.932" style="stroke:#545454;stroke-width:1.5625;"/><path codeLine="12" d="M229.375,366.0674 C187.4375,411.7028 137.4375,466.1195 109.7083,496.2861 " fill="none" id="Metric-backto-AggregateMetric" style="stroke:#545454;stroke-width:1.5625;"/><polygon fill="none" points="224.0729,361.0674,243.5313,350.6611,234.8125,370.932,224.0729,361.0674" style="stroke:#545454;stroke-width:1.5625;"/><path codeLine="17" d="M319.7813,371.2861 C322.8333,384.8382 326.0313,399.0257 329.1875,413.0257 " fill="none" id="Metric-backto-BaseMetric" style="stroke:#545454;stroke-width:1.5625;"/><polygon fill="none" points="312.6042,372.5882,315.1354,350.6611,326.8229,369.3799,312.6042,372.5882" style="stroke:#545454;stroke-width:1.5625;"/><path codeLine="35" d="M249.6771,151.2757 C257.9271,172.9007 268.0833,199.5361 277.1771,223.4007 " fill="none" id="Named-backto-Metric" style="stroke:#545454;stroke-width:1.5625;"/><polygon fill="none" points="242.7917,153.6715,242.1875,131.609,256.4167,148.4736,242.7917,153.6715" style="stroke:#545454;stroke-width:1.5625;"/><path codeLine="36" d="M145.4688,145.6507 C170.4271,168.1611 202.8542,197.4215 231.6563,223.4007 " fill="none" id="CreatedAt-backto-Metric" style="stroke:#545454;stroke-width:1.5625;"/><polygon fill="none" points="140.4896,150.9736,129.9063,131.609,150.2604,140.1507,140.4896,150.9736" style="stroke:#545454;stroke-width:1.5625;"/><path codeLine="37" d="M352.4063,151.2757 C344.1563,172.9007 334,199.5361 324.9063,223.4007 " fill="none" id="Quantizable-backto-Metric" style="stroke:#545454;stroke-width:1.5625;"/><polygon fill="none" points="345.6667,148.4736,359.8958,131.609,359.2917,153.6715,345.6667,148.4736" style="stroke:#545454;stroke-width:1.5625;"/><path codeLine="38" d="M535.0729,142.4632 C488.5417,170.9945 421.8542,211.9007 371.5625,242.7445 " fill="none" id="QuantumComparable-backto-Metric" style="stroke:#545454;stroke-width:1.5625;"/><polygon fill="none" points="531.4896,136.0986,553.0625,131.432,539.1146,148.5361,531.4896,136.0986" style="stroke:#545454;stroke-width:1.5625;"/></g></svg>
