<?xml version="1.0" encoding="UTF-8" standalone="no"?><svg xmlns="http://www.w3.org/2000/svg" xmlns:xlink="http://www.w3.org/1999/xlink" contentScriptType="application/ecmascript" contentStyleType="text/css" height="218.75px" preserveAspectRatio="none" style="width:648px;height:218px;background:#333333;" version="1.1" viewBox="0 0 648 218" width="648.9583px" zoomAndPan="magnify"><defs/><g><rect fill="#48494B" height="41.2028" rx="8.3333" ry="8.3333" style="stroke:#545454;stroke-width:1.0416666666666667;" width="397.9167" x="118.2292" y="2.0833"/><text fill="#C0C0C0" font-family="Open Sans,Avenir,Nunito,Arial,Helvetica,SansSerif" font-size="20.8333" lengthAdjust="spacing" textLength="375" x="129.6875" y="30.5583">com.telenav.kivakit.serialization.yaml</text><!--MD5=[60d4b10a0bf6a45532b73522ead7a0fd]
class BaseKivaKitProject--><rect codeLine="7" fill="#282828" height="48.055" id="BaseKivaKitProject" rx="8.3333" ry="8.3333" style="stroke:#5E5E5E;stroke-width:1.0416666666666667;" width="158.3333" x="25" y="53.7028"/><rect fill="#1B1B1A" height="31.3883" rx="8.3333" ry="8.3333" style="stroke:#1B1B1A;stroke-width:1.0416666666666667;" width="158.3333" x="25" y="53.7028"/><rect fill="#1B1B1A" height="8.3333" style="stroke:#1B1B1A;stroke-width:1.0416666666666667;" width="158.3333" x="25" y="76.7578"/><rect codeLine="7" fill="none" height="48.055" id="BaseKivaKitProject" rx="8.3333" ry="8.3333" style="stroke:#5E5E5E;stroke-width:1.0416666666666667;" width="158.3333" x="25" y="53.7028"/><ellipse cx="39.5833" cy="69.397" fill="#C8AC00" rx="10.4167" ry="10.4167" style="stroke:#D8BC00;stroke-width:1.0416666666666667;"/><path d="M39.1764,66.099 L38.328,69.8283 L40.0309,69.8283 Z M38.0778,64.4511 L40.2812,64.4511 L42.7409,73.5636 L40.9403,73.5636 L40.3788,71.3114 L37.9679,71.3114 L37.4186,73.5636 L35.6181,73.5636 Z " fill="#000000"/><text fill="#D8BC00" font-family="Open Sans,Avenir,Nunito,Arial,Helvetica,SansSerif" font-size="12.5" font-style="italic" font-weight="bold" lengthAdjust="spacing" textLength="120.8333" x="56.25" y="74.1211">BaseKivaKitProject</text><line style="stroke:#5E5E5E;stroke-width:1.0416666666666667;" x1="26.0417" x2="182.2917" y1="85.0911" y2="85.0911"/><line style="stroke:#5E5E5E;stroke-width:1.0416666666666667;" x1="26.0417" x2="182.2917" y1="93.4245" y2="93.4245"/><!--MD5=[8c595983eb9c43054b99135b603648e6]
class ObjectSerializer--><rect codeLine="9" fill="#282828" height="48.055" id="ObjectSerializer" rx="8.3333" ry="8.3333" style="stroke:#5E5E5E;stroke-width:1.0416666666666667;" width="138.5417" x="220.3125" y="53.7028"/><rect fill="#1B1B1A" height="31.3883" rx="8.3333" ry="8.3333" style="stroke:#1B1B1A;stroke-width:1.0416666666666667;" width="138.5417" x="220.3125" y="53.7028"/><rect fill="#1B1B1A" height="8.3333" style="stroke:#1B1B1A;stroke-width:1.0416666666666667;" width="138.5417" x="220.3125" y="76.7578"/><rect codeLine="9" fill="none" height="48.055" id="ObjectSerializer" rx="8.3333" ry="8.3333" style="stroke:#5E5E5E;stroke-width:1.0416666666666667;" width="138.5417" x="220.3125" y="53.7028"/><ellipse cx="234.8958" cy="69.397" fill="#008400" rx="10.4167" ry="10.4167" style="stroke:#239C23;stroke-width:1.0416666666666667;"/><path d="M232.2998,66.5588 L232.2998,64.9719 L237.7258,64.9719 L237.7258,66.5588 L235.9131,66.5588 L235.9131,72.4976 L237.7258,72.4976 L237.7258,74.0845 L232.2998,74.0845 L232.2998,72.4976 L234.1125,72.4976 L234.1125,66.5588 Z " fill="#000000"/><text fill="#D8BC00" font-family="Open Sans,Avenir,Nunito,Arial,Helvetica,SansSerif" font-size="12.5" font-style="italic" font-weight="bold" lengthAdjust="spacing" textLength="101.0417" x="251.5625" y="74.1211">ObjectSerializer</text><line style="stroke:#5E5E5E;stroke-width:1.0416666666666667;" x1="221.3542" x2="357.8125" y1="85.0911" y2="85.0911"/><line style="stroke:#5E5E5E;stroke-width:1.0416666666666667;" x1="221.3542" x2="357.8125" y1="93.4245" y2="93.4245"/><!--MD5=[d5ffbea224cb66456f52b11f1b43a3e0]
class TryTrait--><rect codeLine="10" fill="#282828" height="48.055" id="TryTrait" rx="8.3333" ry="8.3333" style="stroke:#5E5E5E;stroke-width:1.0416666666666667;" width="88.5417" x="395.3125" y="53.7028"/><rect fill="#1B1B1A" height="31.3883" rx="8.3333" ry="8.3333" style="stroke:#1B1B1A;stroke-width:1.0416666666666667;" width="88.5417" x="395.3125" y="53.7028"/><rect fill="#1B1B1A" height="8.3333" style="stroke:#1B1B1A;stroke-width:1.0416666666666667;" width="88.5417" x="395.3125" y="76.7578"/><rect codeLine="10" fill="none" height="48.055" id="TryTrait" rx="8.3333" ry="8.3333" style="stroke:#5E5E5E;stroke-width:1.0416666666666667;" width="88.5417" x="395.3125" y="53.7028"/><ellipse cx="409.8958" cy="69.397" fill="#008400" rx="10.4167" ry="10.4167" style="stroke:#239C23;stroke-width:1.0416666666666667;"/><path d="M407.2998,66.5588 L407.2998,64.9719 L412.7258,64.9719 L412.7258,66.5588 L410.9131,66.5588 L410.9131,72.4976 L412.7258,72.4976 L412.7258,74.0845 L407.2998,74.0845 L407.2998,72.4976 L409.1125,72.4976 L409.1125,66.5588 Z " fill="#000000"/><text fill="#D8BC00" font-family="Open Sans,Avenir,Nunito,Arial,Helvetica,SansSerif" font-size="12.5" font-style="italic" font-weight="bold" lengthAdjust="spacing" textLength="51.0417" x="426.5625" y="74.1211">TryTrait</text><line style="stroke:#5E5E5E;stroke-width:1.0416666666666667;" x1="396.3542" x2="482.8125" y1="85.0911" y2="85.0911"/><line style="stroke:#5E5E5E;stroke-width:1.0416666666666667;" x1="396.3542" x2="482.8125" y1="93.4245" y2="93.4245"/><!--MD5=[34eb2c3cd1bd084029c026d450c2586e]
class RegistryTrait--><rect codeLine="11" fill="#282828" height="48.055" id="RegistryTrait" rx="8.3333" ry="8.3333" style="stroke:#5E5E5E;stroke-width:1.0416666666666667;" width="120.8333" x="520.8333" y="53.7028"/><rect fill="#1B1B1A" height="31.3883" rx="8.3333" ry="8.3333" style="stroke:#1B1B1A;stroke-width:1.0416666666666667;" width="120.8333" x="520.8333" y="53.7028"/><rect fill="#1B1B1A" height="8.3333" style="stroke:#1B1B1A;stroke-width:1.0416666666666667;" width="120.8333" x="520.8333" y="76.7578"/><rect codeLine="11" fill="none" height="48.055" id="RegistryTrait" rx="8.3333" ry="8.3333" style="stroke:#5E5E5E;stroke-width:1.0416666666666667;" width="120.8333" x="520.8333" y="53.7028"/><ellipse cx="535.4167" cy="69.397" fill="#008400" rx="10.4167" ry="10.4167" style="stroke:#239C23;stroke-width:1.0416666666666667;"/><path d="M532.8206,66.5588 L532.8206,64.9719 L538.2467,64.9719 L538.2467,66.5588 L536.4339,66.5588 L536.4339,72.4976 L538.2467,72.4976 L538.2467,74.0845 L532.8206,74.0845 L532.8206,72.4976 L534.6334,72.4976 L534.6334,66.5588 Z " fill="#000000"/><text fill="#D8BC00" font-family="Open Sans,Avenir,Nunito,Arial,Helvetica,SansSerif" font-size="12.5" font-style="italic" font-weight="bold" lengthAdjust="spacing" textLength="83.3333" x="552.0833" y="74.1211">RegistryTrait</text><line style="stroke:#5E5E5E;stroke-width:1.0416666666666667;" x1="521.875" x2="640.625" y1="85.0911" y2="85.0911"/><line style="stroke:#5E5E5E;stroke-width:1.0416666666666667;" x1="521.875" x2="640.625" y1="93.4245" y2="93.4245"/><!--MD5=[fc4a45d06089b680a429134ffbb81606]
class YamlObjectSerializer--><rect codeLine="16" fill="#282828" height="48.055" id="YamlObjectSerializer" rx="8.3333" ry="8.3333" style="stroke:#5E5E5E;stroke-width:1.0416666666666667;" width="170.8333" x="354.1667" y="164.1195"/><rect fill="#1B1B1A" height="31.3883" rx="8.3333" ry="8.3333" style="stroke:#1B1B1A;stroke-width:1.0416666666666667;" width="170.8333" x="354.1667" y="164.1195"/><rect fill="#1B1B1A" height="8.3333" style="stroke:#1B1B1A;stroke-width:1.0416666666666667;" width="170.8333" x="354.1667" y="187.1745"/><rect codeLine="16" fill="none" height="48.055" id="YamlObjectSerializer" rx="8.3333" ry="8.3333" style="stroke:#5E5E5E;stroke-width:1.0416666666666667;" width="170.8333" x="354.1667" y="164.1195"/><ellipse cx="368.75" cy="179.8136" fill="#0066CF" rx="10.4167" ry="10.4167" style="stroke:#0086EF;stroke-width:1.0416666666666667;"/><path d="M370.6604,184.2387 Q370.2332,184.4584 369.7632,184.5683 Q369.2932,184.6781 368.7744,184.6781 Q366.9312,184.6781 365.9607,183.4635 Q364.9902,182.2489 364.9902,179.954 Q364.9902,177.653 365.9607,176.4384 Q366.9312,175.2238 368.7744,175.2238 Q369.2932,175.2238 369.7693,175.3337 Q370.2454,175.4435 370.6604,175.6632 L370.6604,177.6652 Q370.1965,177.238 369.7601,177.0396 Q369.3237,176.8412 368.8599,176.8412 Q367.8711,176.8412 367.3676,177.6255 Q366.864,178.4098 366.864,179.954 Q366.864,181.4921 367.3676,182.2764 Q367.8711,183.0607 368.8599,183.0607 Q369.3237,183.0607 369.7601,182.8623 Q370.1965,182.664 370.6604,182.2367 Z " fill="#000000"/><text fill="#D8BC00" font-family="Open Sans,Avenir,Nunito,Arial,Helvetica,SansSerif" font-size="12.5" font-weight="bold" lengthAdjust="spacing" textLength="133.3333" x="385.4167" y="184.5378">YamlObjectSerializer</text><line style="stroke:#5E5E5E;stroke-width:1.0416666666666667;" x1="355.2083" x2="523.9583" y1="195.5078" y2="195.5078"/><line style="stroke:#5E5E5E;stroke-width:1.0416666666666667;" x1="355.2083" x2="523.9583" y1="203.8411" y2="203.8411"/><!--MD5=[f246b8852576eea861ab160dc9d2e293]
class YamlSerializationProject--><rect codeLine="21" fill="#282828" height="48.055" id="YamlSerializationProject" rx="8.3333" ry="8.3333" style="stroke:#5E5E5E;stroke-width:1.0416666666666667;" width="193.75" x="7.2917" y="164.1195"/><rect fill="#1B1B1A" height="31.3883" rx="8.3333" ry="8.3333" style="stroke:#1B1B1A;stroke-width:1.0416666666666667;" width="193.75" x="7.2917" y="164.1195"/><rect fill="#1B1B1A" height="8.3333" style="stroke:#1B1B1A;stroke-width:1.0416666666666667;" width="193.75" x="7.2917" y="187.1745"/><rect codeLine="21" fill="none" height="48.055" id="YamlSerializationProject" rx="8.3333" ry="8.3333" style="stroke:#5E5E5E;stroke-width:1.0416666666666667;" width="193.75" x="7.2917" y="164.1195"/><ellipse cx="21.875" cy="179.8136" fill="#0066CF" rx="10.4167" ry="10.4167" style="stroke:#0086EF;stroke-width:1.0416666666666667;"/><path d="M23.7854,184.2387 Q23.3582,184.4584 22.8882,184.5683 Q22.4182,184.6781 21.8994,184.6781 Q20.0562,184.6781 19.0857,183.4635 Q18.1152,182.2489 18.1152,179.954 Q18.1152,177.653 19.0857,176.4384 Q20.0562,175.2238 21.8994,175.2238 Q22.4182,175.2238 22.8943,175.3337 Q23.3704,175.4435 23.7854,175.6632 L23.7854,177.6652 Q23.3215,177.238 22.8851,177.0396 Q22.4487,176.8412 21.9849,176.8412 Q20.9961,176.8412 20.4926,177.6255 Q19.989,178.4098 19.989,179.954 Q19.989,181.4921 20.4926,182.2764 Q20.9961,183.0607 21.9849,183.0607 Q22.4487,183.0607 22.8851,182.8623 Q23.3215,182.664 23.7854,182.2367 Z " fill="#000000"/><text fill="#D8BC00" font-family="Open Sans,Avenir,Nunito,Arial,Helvetica,SansSerif" font-size="12.5" font-weight="bold" lengthAdjust="spacing" textLength="156.25" x="38.5417" y="184.5378">YamlSerializationProject</text><line style="stroke:#5E5E5E;stroke-width:1.0416666666666667;" x1="8.3333" x2="200" y1="195.5078" y2="195.5078"/><line style="stroke:#5E5E5E;stroke-width:1.0416666666666667;" x1="8.3333" x2="200" y1="203.8411" y2="203.8411"/><!--MD5=[4f9a1b4ebbe392eb91df1d902c7ff06a]
reverse link ObjectSerializer to YamlObjectSerializer--><path codeLine="13" d="M339.9063,115.0465 C362.2083,131.1611 387.7917,149.6299 407.4583,163.8382 " fill="none" id="ObjectSerializer-backto-YamlObjectSerializer" style="stroke:#545454;stroke-width:1.5625;"/><polygon fill="none" points="335.6563,120.9736,323.0417,102.8695,344.1979,109.1507,335.6563,120.9736" style="stroke:#545454;stroke-width:1.5625;"/><!--MD5=[bc02a1de9ca83b6f497651c8b6d9079a]
reverse link RegistryTrait to YamlObjectSerializer--><path codeLine="14" d="M533.0833,115.5361 C512.1667,131.5257 488.3125,149.7757 469.9271,163.8382 " fill="none" id="RegistryTrait-backto-YamlObjectSerializer" style="stroke:#545454;stroke-width:1.5625;"/><polygon fill="none" points="528.625,109.7653,549.6042,102.9007,537.4896,121.3486,528.625,109.7653" style="stroke:#545454;stroke-width:1.5625;"/><!--MD5=[262d772d3baf2f44da1bcce3f8dfd4cf]
reverse link TryTrait to YamlObjectSerializer--><path codeLine="15" d="M439.5833,124.234 C439.5833,137.8799 439.5833,152.2757 439.5833,163.8382 " fill="none" id="TryTrait-backto-YamlObjectSerializer" style="stroke:#545454;stroke-width:1.5625;"/><polygon fill="none" points="432.2917,124.3486,439.5833,103.5153,446.875,124.3486,432.2917,124.3486" style="stroke:#545454;stroke-width:1.5625;"/><!--MD5=[6072b147e80fe9911bf97919580f425f]
reverse link BaseKivaKitProject to YamlSerializationProject--><path codeLine="20" d="M104.1667,124.234 C104.1667,137.8799 104.1667,152.2757 104.1667,163.8382 " fill="none" id="BaseKivaKitProject-backto-YamlSerializationProject" style="stroke:#545454;stroke-width:1.5625;"/><polygon fill="none" points="96.875,124.3486,104.1667,103.5153,111.4583,124.3486,96.875,124.3486" style="stroke:#545454;stroke-width:1.5625;"/><!--MD5=[dd4ccf05a4b2b4e8b1dc86d0596d44b5]
@startuml

    !include lexakai.theme
    
    title "com.telenav.kivakit.serialization.yaml"
    
    abstract BaseKivaKitProject
    
    interface ObjectSerializer
    interface TryTrait
    interface RegistryTrait
    
    ObjectSerializer <|- - YamlObjectSerializer
    RegistryTrait <|- - YamlObjectSerializer
    TryTrait <|- - YamlObjectSerializer
    class YamlObjectSerializer
    {
    }
    
    BaseKivaKitProject <|- - YamlSerializationProject
    class YamlSerializationProject
    {
    }
    
@enduml

@startuml









skinparam backgroundColor #333333






skinparam  {
    defaultFontName   "Open Sans,Avenir,Nunito,Arial,Helvetica,SansSerif"
    defaultFontSize   12
    defaultTextAlignment left
    shadowing false
    RoundCorner 10
    TitleFontSize 18
}

skinparam defaultFontName       "Open Sans,Avenir,Nunito,Arial,Helvetica,SansSerif"
skinparam defaultFontSize       12
skinparam dpi                   100
skinparam shadowing             false
skinparam roundcorner           16
skinparam ParticipantPadding    40
skinparam BoxPadding            40
skinparam Padding               3
skinparam ArrowColor            #545454
skinparam stereotype {
    CBackgroundColor #0066cf
    CBorderColor #0086ef
    ABackgroundColor #C8Ac00
    ABorderColor #D8Bc00
    IBackgroundColor #008400
    IBorderColor #239c23
    EBackgroundColor #cf6300
    EBorderColor #ef8300
    NBackgroundColor #3380b9
    NBorderColor #004d86
}
skinparam title {
	FontColor	                 #c0c0c0
 	BorderColor                  #545454
	FontSize	    	         20
	BorderRoundCorner            16
	BorderThickness 	         1
	BackgroundColor              #48494b
}


skinparam legend {
	BackgroundColor #303030
	BorderColor #404040
	FontColor #a0a0a0
}

	skinparam swimlane {
	BorderColor #5e5e5e
	BorderThickness 2
	TitleBackgroundColor  #6d6d6d-#484848
	TitleFontColor #303030
}

skinparam activity {
		FontColor #C8Ac00
	BorderColor #333333
	BackgroundColor #333333-#333333
	BarColor #00FF00
	StartColor #0060a8
	EndColor #0060a8
	DiamondBackgroundColor #6d6d6d-#3a3a3a
  	DiamondBorderColor #3a3a3a
  	DiamondFontColor #fefefe
}


skinparam participant {
		FontColor #C8Ac00
	BorderColor #333333
	BackgroundColor #333333-#333333
	ParticipantBorderThickness 2
}


skinparam actor {
		FontColor #C8Ac00
	BorderColor #333333
	BackgroundColor #333333-#333333
}


skinparam arrow {
	Thickness 1.5
	Color #545454
	FontColor #a0a0a0
    FontStyle bold
    MessageAlignment center
}



skinparam sequence {
	BorderColor #303030
	TitleFontColor #303030
	BackgroundColor #333333
	StartColor #303030
	EndColor #303030
	BoxBackgroundColor #333333
	BoxBorderColor #484848
	BoxFontColor #484848
	LifeLineBorderColor #484848
	LifeLineBorderThickness 2
	LifeLineBackgroundColor #3a3a3a
	GroupBorderColor #484848
	GroupFontColor #484848
	GroupHeaderFontColor #0060a8
	GroupBackgroundColor #484848
	GroupHeaderBackgroundColor #333333
	DividerBackgroundColor #484848
    DividerBorderColor #484848
    DividerBorderThickness 2
    DividerFontColor #D8Bc00
	ReferenceBackgroundColor #333333
	ReferenceBorderColor #484848
	ReferenceFontColor #fefefe
	ReferenceHeaderBackgroundColor #484848
}


skinparam partition {
	BorderColor #303030
	FontColor #333333
	BackgroundColor #333333
}


skinparam collections {
		FontColor #C8Ac00
	BorderColor #333333
	BackgroundColor #333333-#333333
}


skinparam control {
		FontColor #C8Ac00
	BorderColor #333333
	BackgroundColor #333333-#333333
}


skinparam entity {
		FontColor #C8Ac00
	BorderColor #333333
	BackgroundColor #333333-#333333
}


skinparam boundary {
		FontColor #C8Ac00
	BorderColor #333333
	BackgroundColor #333333-#333333
}


skinparam agent {
	BackgroundColor #ff8000
	BorderColor #ff9933
	FontColor #484848
}


skinparam note {
	BorderThickness 1
	BackgroundColor #1b1b1a
	BorderColor #5e5e5e
	FontSize 11
	FontColor #a0a0a0
}


skinparam artifact {
	BorderThickness 10
	BorderColor #5e5e5e
	BackgroundColor #1b1b1a
	FontColor #D8Bc00
}


skinparam component {
		FontColor #C8Ac00
	BorderColor #333333
	BackgroundColor #333333-#333333
}


skinparam interface {
	BackgroundColor  #008400
	BorderColor  #007F00
	FontColor #484848
}


skinparam storage {
	BackgroundColor #ff8000
  	BorderColor #cc6600
	FontColor #222222
}


skinparam node {
	BackgroundColor #333333
	BorderColor #333333
	FontColor #C8Ac00
}


skinparam cloud {
	BackgroundColor #484848-black
	BorderColor #484848
	FontColor #D8Bc00
}


skinparam database {
		FontColor #C8Ac00
	BorderColor #333333
	BackgroundColor #333333-#333333
	BackgroundColor  #333333
}


skinparam class {
		FontColor #C8Ac00
	BorderColor #333333
	BackgroundColor #333333-#333333
	HeaderBackgroundColor #1b1b1a
    BackgroundColor #282828
    BorderColor #5e5e5e
 	StereotypeFontColor #a0a0a0
    StereotypeFontStyle bold
	BorderThickness 1
	AttributeFontColor #D8Bc00
	AttributeFontSize 11
    FontColor #D8Bc00
    FontStyle bold
}


skinparam object {
		FontColor #C8Ac00
	BorderColor #333333
	BackgroundColor #333333-#333333
	StereotypeFontColor #484848
	BorderThickness 1
	AttributeFontColor #fefefe
	AttributeFontSize 11
}


skinparam usecase {
		FontColor #C8Ac00
	BorderColor #333333
	BackgroundColor #333333-#333333
	BorderThickness 2
	StereotypeFontColor #303030
}


skinparam rectangle {
		FontColor #C8Ac00
	BorderColor #333333
	BackgroundColor #333333-#333333
	BackgroundColor #333333
	BorderThickness 2
	StereotypeFontColor #303030
}


skinparam package {
		FontColor #C8Ac00
	BorderColor #333333
	BackgroundColor #333333-#333333
	BackgroundColor #333333
	BorderThickness 2
}


skinparam folder {
	BackgroundColor #6d6d6d
  	BorderColor #ff8000
	FontColor #ff8000
	BorderThickness 2
}


skinparam frame {
	BackgroundColor #6d6d6d
  	BorderColor #0060a8
	FontColor #0060a8
	BorderThickness 2
}


skinparam state {
		FontColor #C8Ac00
	BorderColor #333333
	BackgroundColor #333333-#333333
	StartColor #0060a8
	EndColor #0060a8
	AttributeFontColor #fefefe
	AttributeFontSize 11
}


skinparam queue {
		FontColor #C8Ac00
	BorderColor #333333
	BackgroundColor #333333-#333333
}


skinparam card {
	BackgroundColor #0060a8
	BorderColor #004d86
	FontColor $INFO_TEXT
}


skinparam file {
	BackgroundColor #6d6d6d-#484848
	BorderColor #0060a8
	FontColor #fefefe
}


skinparam stack {
		FontColor #C8Ac00
	BorderColor #333333
	BackgroundColor #333333-#333333
}

    
    title "com.telenav.kivakit.serialization.yaml"
    
    abstract BaseKivaKitProject
    
    interface ObjectSerializer
    interface TryTrait
    interface RegistryTrait
    
    ObjectSerializer <|- - YamlObjectSerializer
    RegistryTrait <|- - YamlObjectSerializer
    TryTrait <|- - YamlObjectSerializer
    class YamlObjectSerializer
    {
    }
    
    BaseKivaKitProject <|- - YamlSerializationProject
    class YamlSerializationProject
    {
    }
    
@enduml

PlantUML version 1.2021.01(Tue Feb 02 00:55:08 MST 2021)
(GPL source distribution)
Java Runtime: OpenJDK Runtime Environment
JVM: OpenJDK 64-Bit Server VM
Default Encoding: UTF-8
Language: en
Country: US
--></g></svg>