<?xml version="1.0" encoding="UTF-8" standalone="no"?><svg xmlns="http://www.w3.org/2000/svg" xmlns:xlink="http://www.w3.org/1999/xlink" contentScriptType="application/ecmascript" contentStyleType="text/css" height="297.9167px" preserveAspectRatio="none" style="width:1104px;height:297px;background:#333333;" version="1.1" viewBox="0 0 1104 297" width="1104.1667px" zoomAndPan="magnify"><defs/><g><rect fill="#48494B" height="41.2028" rx="8.3333" ry="8.3333" style="stroke:#545454;stroke-width:1.0416666666666667;" width="521.875" x="284.1146" y="2.0833"/><text fill="#C0C0C0" font-family="Open Sans,Avenir,Nunito,Arial,Helvetica,SansSerif" font-size="20.8333" lengthAdjust="spacing" textLength="498.9583" x="295.5729" y="30.5583">com.telenav.kivakit.metrics.core.aggregates.count</text><!--MD5=[9ea888d75e80367b4e012e8d413b218f]
class AverageMetric--><rect fill="#282828" height="48.055" id="AverageMetric" rx="8.3333" ry="8.3333" style="stroke:#5E5E5E;stroke-width:1.0416666666666667;" width="129.1667" x="103.6458" y="53.7028"/><rect fill="#1B1B1A" height="31.3883" rx="8.3333" ry="8.3333" style="stroke:#1B1B1A;stroke-width:1.0416666666666667;" width="129.1667" x="103.6458" y="53.7028"/><rect fill="#1B1B1A" height="8.3333" style="stroke:#1B1B1A;stroke-width:1.0416666666666667;" width="129.1667" x="103.6458" y="76.7578"/><rect fill="none" height="48.055" id="AverageMetric" rx="8.3333" ry="8.3333" style="stroke:#5E5E5E;stroke-width:1.0416666666666667;" width="129.1667" x="103.6458" y="53.7028"/><ellipse cx="118.2292" cy="69.397" fill="#0066CF" rx="10.4167" ry="10.4167" style="stroke:#0086EF;stroke-width:1.0416666666666667;"/><path d="M120.1396,73.822 Q119.7123,74.0417 119.2424,74.1516 Q118.7724,74.2615 118.2536,74.2615 Q116.4103,74.2615 115.4399,73.0469 Q114.4694,71.8323 114.4694,69.5374 Q114.4694,67.2363 115.4399,66.0217 Q116.4103,64.8071 118.2536,64.8071 Q118.7724,64.8071 119.2485,64.917 Q119.7245,65.0269 120.1396,65.2466 L120.1396,67.2485 Q119.6757,66.8213 119.2393,66.6229 Q118.8029,66.4246 118.339,66.4246 Q117.3503,66.4246 116.8467,67.2089 Q116.3432,67.9932 116.3432,69.5374 Q116.3432,71.0754 116.8467,71.8597 Q117.3503,72.644 118.339,72.644 Q118.8029,72.644 119.2393,72.4457 Q119.6757,72.2473 120.1396,71.8201 Z " fill="#000000"/><text fill="#D8BC00" font-family="Open Sans,Avenir,Nunito,Arial,Helvetica,SansSerif" font-size="12.5" font-weight="bold" lengthAdjust="spacing" textLength="91.6667" x="134.8958" y="74.1211">AverageMetric</text><line style="stroke:#5E5E5E;stroke-width:1.0416666666666667;" x1="104.6875" x2="231.7708" y1="85.0911" y2="85.0911"/><line style="stroke:#5E5E5E;stroke-width:1.0416666666666667;" x1="104.6875" x2="231.7708" y1="93.4245" y2="93.4245"/><!--MD5=[6b983af5c0b05bc1f611b7807e60064c]
class AverageCountMetric--><rect codeLine="8" fill="#282828" height="127.0345" id="AverageCountMetric" rx="8.3333" ry="8.3333" style="stroke:#5E5E5E;stroke-width:1.0416666666666667;" width="321.875" x="7.2917" y="164.1195"/><rect fill="#1B1B1A" height="31.3883" rx="8.3333" ry="8.3333" style="stroke:#1B1B1A;stroke-width:1.0416666666666667;" width="321.875" x="7.2917" y="164.1195"/><rect fill="#1B1B1A" height="8.3333" style="stroke:#1B1B1A;stroke-width:1.0416666666666667;" width="321.875" x="7.2917" y="187.1745"/><rect codeLine="8" fill="none" height="127.0345" id="AverageCountMetric" rx="8.3333" ry="8.3333" style="stroke:#5E5E5E;stroke-width:1.0416666666666667;" width="321.875" x="7.2917" y="164.1195"/><ellipse cx="95.3125" cy="179.8136" fill="#0066CF" rx="10.4167" ry="10.4167" style="stroke:#0086EF;stroke-width:1.0416666666666667;"/><path d="M97.2229,184.2387 Q96.7957,184.4584 96.3257,184.5683 Q95.8557,184.6781 95.3369,184.6781 Q93.4937,184.6781 92.5232,183.4635 Q91.5527,182.2489 91.5527,179.954 Q91.5527,177.653 92.5232,176.4384 Q93.4937,175.2238 95.3369,175.2238 Q95.8557,175.2238 96.3318,175.3337 Q96.8079,175.4435 97.2229,175.6632 L97.2229,177.6652 Q96.759,177.238 96.3226,177.0396 Q95.8862,176.8412 95.4224,176.8412 Q94.4336,176.8412 93.9301,177.6255 Q93.4265,178.4098 93.4265,179.954 Q93.4265,181.4921 93.9301,182.2764 Q94.4336,183.0607 95.4224,183.0607 Q95.8862,183.0607 96.3226,182.8623 Q96.759,182.664 97.2229,182.2367 Z " fill="#000000"/><text fill="#D8BC00" font-family="Open Sans,Avenir,Nunito,Arial,Helvetica,SansSerif" font-size="12.5" font-weight="bold" lengthAdjust="spacing" textLength="131.25" x="118.2292" y="184.5378">AverageCountMetric</text><line style="stroke:#5E5E5E;stroke-width:1.5625;" x1="8.3333" x2="328.125" y1="195.5078" y2="195.5078"/><ellipse cx="18.75" cy="230.8777" fill="#84BE84" rx="3.125" ry="3.125" style="stroke:#038048;stroke-width:1.0416666666666667;"/><text fill="#D8BC00" font-family="Open Sans,Avenir,Nunito,Arial,Helvetica,SansSerif" font-size="11.4583" lengthAdjust="spacing" textLength="122.9167" x="30.2083" y="237.7889">AverageCountMetric()</text><line style="stroke:#5E5E5E;stroke-width:1.0416666666666667;" x1="8.3333" x2="124.4792" y1="213.7136" y2="213.7136"/><text fill="#D8BC00" font-family="Open Sans,Avenir,Nunito,Arial,Helvetica,SansSerif" font-size="11.4583" lengthAdjust="spacing" textLength="81.25" x="127.6042" y="217.5232">(constructors)</text><line style="stroke:#5E5E5E;stroke-width:1.0416666666666667;" x1="211.9792" x2="328.125" y1="213.7136" y2="213.7136"/><ellipse cx="18.75" cy="274.5341" fill="#84BE84" rx="3.125" ry="3.125" style="stroke:#038048;stroke-width:1.0416666666666667;"/><text fill="#D8BC00" font-family="Open Sans,Avenir,Nunito,Arial,Helvetica,SansSerif" font-size="11.4583" lengthAdjust="spacing" textLength="289.5833" x="30.2083" y="281.4453">AverageCountMetric description(String description)</text><line style="stroke:#5E5E5E;stroke-width:1.0416666666666667;" x1="8.3333" x2="133.8542" y1="257.37" y2="257.37"/><text fill="#D8BC00" font-family="Open Sans,Avenir,Nunito,Arial,Helvetica,SansSerif" font-size="11.4583" lengthAdjust="spacing" textLength="62.5" x="136.9792" y="261.1796">(collection)</text><line style="stroke:#5E5E5E;stroke-width:1.0416666666666667;" x1="202.6042" x2="328.125" y1="257.37" y2="257.37"/><!--MD5=[1a2dfd357f05ea0e256679025aaf8043]
class MaximumMetric--><rect fill="#282828" height="48.055" id="MaximumMetric" rx="8.3333" ry="8.3333" style="stroke:#5E5E5E;stroke-width:1.0416666666666667;" width="140.625" x="460.4167" y="53.7028"/><rect fill="#1B1B1A" height="31.3883" rx="8.3333" ry="8.3333" style="stroke:#1B1B1A;stroke-width:1.0416666666666667;" width="140.625" x="460.4167" y="53.7028"/><rect fill="#1B1B1A" height="8.3333" style="stroke:#1B1B1A;stroke-width:1.0416666666666667;" width="140.625" x="460.4167" y="76.7578"/><rect fill="none" height="48.055" id="MaximumMetric" rx="8.3333" ry="8.3333" style="stroke:#5E5E5E;stroke-width:1.0416666666666667;" width="140.625" x="460.4167" y="53.7028"/><ellipse cx="475" cy="69.397" fill="#0066CF" rx="10.4167" ry="10.4167" style="stroke:#0086EF;stroke-width:1.0416666666666667;"/><path d="M476.9104,73.822 Q476.4832,74.0417 476.0132,74.1516 Q475.5432,74.2615 475.0244,74.2615 Q473.1812,74.2615 472.2107,73.0469 Q471.2402,71.8323 471.2402,69.5374 Q471.2402,67.2363 472.2107,66.0217 Q473.1812,64.8071 475.0244,64.8071 Q475.5432,64.8071 476.0193,64.917 Q476.4954,65.0269 476.9104,65.2466 L476.9104,67.2485 Q476.4465,66.8213 476.0101,66.6229 Q475.5737,66.4246 475.1099,66.4246 Q474.1211,66.4246 473.6176,67.2089 Q473.114,67.9932 473.114,69.5374 Q473.114,71.0754 473.6176,71.8597 Q474.1211,72.644 475.1099,72.644 Q475.5737,72.644 476.0101,72.4457 Q476.4465,72.2473 476.9104,71.8201 Z " fill="#000000"/><text fill="#D8BC00" font-family="Open Sans,Avenir,Nunito,Arial,Helvetica,SansSerif" font-size="12.5" font-weight="bold" lengthAdjust="spacing" textLength="103.125" x="491.6667" y="74.1211">MaximumMetric</text><line style="stroke:#5E5E5E;stroke-width:1.0416666666666667;" x1="461.4583" x2="600" y1="85.0911" y2="85.0911"/><line style="stroke:#5E5E5E;stroke-width:1.0416666666666667;" x1="461.4583" x2="600" y1="93.4245" y2="93.4245"/><!--MD5=[dae7d5db8be58c2c2d38d6abe2d3efb9]
class MaximumCountMetric--><rect codeLine="17" fill="#282828" height="127.0345" id="MaximumCountMetric" rx="8.3333" ry="8.3333" style="stroke:#5E5E5E;stroke-width:1.0416666666666667;" width="330.2083" x="365.625" y="164.1195"/><rect fill="#1B1B1A" height="31.3883" rx="8.3333" ry="8.3333" style="stroke:#1B1B1A;stroke-width:1.0416666666666667;" width="330.2083" x="365.625" y="164.1195"/><rect fill="#1B1B1A" height="8.3333" style="stroke:#1B1B1A;stroke-width:1.0416666666666667;" width="330.2083" x="365.625" y="187.1745"/><rect codeLine="17" fill="none" height="127.0345" id="MaximumCountMetric" rx="8.3333" ry="8.3333" style="stroke:#5E5E5E;stroke-width:1.0416666666666667;" width="330.2083" x="365.625" y="164.1195"/><ellipse cx="452.0833" cy="179.8136" fill="#0066CF" rx="10.4167" ry="10.4167" style="stroke:#0086EF;stroke-width:1.0416666666666667;"/><path d="M453.9937,184.2387 Q453.5665,184.4584 453.0965,184.5683 Q452.6265,184.6781 452.1077,184.6781 Q450.2645,184.6781 449.294,183.4635 Q448.3236,182.2489 448.3236,179.954 Q448.3236,177.653 449.294,176.4384 Q450.2645,175.2238 452.1077,175.2238 Q452.6265,175.2238 453.1026,175.3337 Q453.5787,175.4435 453.9937,175.6632 L453.9937,177.6652 Q453.5299,177.238 453.0935,177.0396 Q452.6571,176.8412 452.1932,176.8412 Q451.2044,176.8412 450.7009,177.6255 Q450.1973,178.4098 450.1973,179.954 Q450.1973,181.4921 450.7009,182.2764 Q451.2044,183.0607 452.1932,183.0607 Q452.6571,183.0607 453.0935,182.8623 Q453.5299,182.664 453.9937,182.2367 Z " fill="#000000"/><text fill="#D8BC00" font-family="Open Sans,Avenir,Nunito,Arial,Helvetica,SansSerif" font-size="12.5" font-weight="bold" lengthAdjust="spacing" textLength="142.7083" x="475" y="184.5378">MaximumCountMetric</text><line style="stroke:#5E5E5E;stroke-width:1.5625;" x1="366.6667" x2="694.7917" y1="195.5078" y2="195.5078"/><ellipse cx="377.0833" cy="230.8777" fill="#84BE84" rx="3.125" ry="3.125" style="stroke:#038048;stroke-width:1.0416666666666667;"/><text fill="#D8BC00" font-family="Open Sans,Avenir,Nunito,Arial,Helvetica,SansSerif" font-size="11.4583" lengthAdjust="spacing" textLength="131.25" x="388.5417" y="237.7889">MaximumCountMetric()</text><line style="stroke:#5E5E5E;stroke-width:1.0416666666666667;" x1="366.6667" x2="486.9792" y1="213.7136" y2="213.7136"/><text fill="#D8BC00" font-family="Open Sans,Avenir,Nunito,Arial,Helvetica,SansSerif" font-size="11.4583" lengthAdjust="spacing" textLength="81.25" x="490.1042" y="217.5232">(constructors)</text><line style="stroke:#5E5E5E;stroke-width:1.0416666666666667;" x1="574.4792" x2="694.7917" y1="213.7136" y2="213.7136"/><ellipse cx="377.0833" cy="274.5341" fill="#84BE84" rx="3.125" ry="3.125" style="stroke:#038048;stroke-width:1.0416666666666667;"/><text fill="#D8BC00" font-family="Open Sans,Avenir,Nunito,Arial,Helvetica,SansSerif" font-size="11.4583" lengthAdjust="spacing" textLength="297.9167" x="388.5417" y="281.4453">MaximumCountMetric description(String description)</text><line style="stroke:#5E5E5E;stroke-width:1.0416666666666667;" x1="366.6667" x2="496.3542" y1="257.37" y2="257.37"/><text fill="#D8BC00" font-family="Open Sans,Avenir,Nunito,Arial,Helvetica,SansSerif" font-size="11.4583" lengthAdjust="spacing" textLength="62.5" x="499.4792" y="261.1796">(collection)</text><line style="stroke:#5E5E5E;stroke-width:1.0416666666666667;" x1="565.1042" x2="694.7917" y1="257.37" y2="257.37"/><!--MD5=[4f8b516d6f8b8c80d6ad59bf5839334f]
class MinimumMetric--><rect fill="#282828" height="48.055" id="MinimumMetric" rx="8.3333" ry="8.3333" style="stroke:#5E5E5E;stroke-width:1.0416666666666667;" width="138.5417" x="752.0833" y="53.7028"/><rect fill="#1B1B1A" height="31.3883" rx="8.3333" ry="8.3333" style="stroke:#1B1B1A;stroke-width:1.0416666666666667;" width="138.5417" x="752.0833" y="53.7028"/><rect fill="#1B1B1A" height="8.3333" style="stroke:#1B1B1A;stroke-width:1.0416666666666667;" width="138.5417" x="752.0833" y="76.7578"/><rect fill="none" height="48.055" id="MinimumMetric" rx="8.3333" ry="8.3333" style="stroke:#5E5E5E;stroke-width:1.0416666666666667;" width="138.5417" x="752.0833" y="53.7028"/><ellipse cx="766.6667" cy="69.397" fill="#0066CF" rx="10.4167" ry="10.4167" style="stroke:#0086EF;stroke-width:1.0416666666666667;"/><path d="M768.5771,73.822 Q768.1498,74.0417 767.6799,74.1516 Q767.2099,74.2615 766.6911,74.2615 Q764.8478,74.2615 763.8774,73.0469 Q762.9069,71.8323 762.9069,69.5374 Q762.9069,67.2363 763.8774,66.0217 Q764.8478,64.8071 766.6911,64.8071 Q767.2099,64.8071 767.686,64.917 Q768.162,65.0269 768.5771,65.2466 L768.5771,67.2485 Q768.1132,66.8213 767.6768,66.6229 Q767.2404,66.4246 766.7765,66.4246 Q765.7878,66.4246 765.2842,67.2089 Q764.7807,67.9932 764.7807,69.5374 Q764.7807,71.0754 765.2842,71.8597 Q765.7878,72.644 766.7765,72.644 Q767.2404,72.644 767.6768,72.4457 Q768.1132,72.2473 768.5771,71.8201 Z " fill="#000000"/><text fill="#D8BC00" font-family="Open Sans,Avenir,Nunito,Arial,Helvetica,SansSerif" font-size="12.5" font-weight="bold" lengthAdjust="spacing" textLength="101.0417" x="783.3333" y="74.1211">MinimumMetric</text><line style="stroke:#5E5E5E;stroke-width:1.0416666666666667;" x1="753.125" x2="889.5833" y1="85.0911" y2="85.0911"/><line style="stroke:#5E5E5E;stroke-width:1.0416666666666667;" x1="753.125" x2="889.5833" y1="93.4245" y2="93.4245"/><!--MD5=[5c19a1eff275c33548721ec23dd01433]
class MinimumCountMetric--><rect codeLine="26" fill="#282828" height="83.3781" id="MinimumCountMetric" rx="8.3333" ry="8.3333" style="stroke:#5E5E5E;stroke-width:1.0416666666666667;" width="178.125" x="732.2917" y="185.9945"/><rect fill="#1B1B1A" height="31.3883" rx="8.3333" ry="8.3333" style="stroke:#1B1B1A;stroke-width:1.0416666666666667;" width="178.125" x="732.2917" y="185.9945"/><rect fill="#1B1B1A" height="8.3333" style="stroke:#1B1B1A;stroke-width:1.0416666666666667;" width="178.125" x="732.2917" y="209.0495"/><rect codeLine="26" fill="none" height="83.3781" id="MinimumCountMetric" rx="8.3333" ry="8.3333" style="stroke:#5E5E5E;stroke-width:1.0416666666666667;" width="178.125" x="732.2917" y="185.9945"/><ellipse cx="746.875" cy="201.6886" fill="#0066CF" rx="10.4167" ry="10.4167" style="stroke:#0086EF;stroke-width:1.0416666666666667;"/><path d="M748.7854,206.1137 Q748.3582,206.3334 747.8882,206.4433 Q747.4182,206.5531 746.8994,206.5531 Q745.0562,206.5531 744.0857,205.3385 Q743.1152,204.1239 743.1152,201.829 Q743.1152,199.528 744.0857,198.3134 Q745.0562,197.0988 746.8994,197.0988 Q747.4182,197.0988 747.8943,197.2087 Q748.3704,197.3185 748.7854,197.5382 L748.7854,199.5402 Q748.3215,199.113 747.8851,198.9146 Q747.4487,198.7162 746.9849,198.7162 Q745.9961,198.7162 745.4926,199.5005 Q744.989,200.2848 744.989,201.829 Q744.989,203.3671 745.4926,204.1514 Q745.9961,204.9357 746.9849,204.9357 Q747.4487,204.9357 747.8851,204.7373 Q748.3215,204.539 748.7854,204.1117 Z " fill="#000000"/><text fill="#D8BC00" font-family="Open Sans,Avenir,Nunito,Arial,Helvetica,SansSerif" font-size="12.5" font-weight="bold" lengthAdjust="spacing" textLength="140.625" x="763.5417" y="206.4128">MinimumCountMetric</text><line style="stroke:#5E5E5E;stroke-width:1.5625;" x1="733.3333" x2="909.375" y1="217.3828" y2="217.3828"/><ellipse cx="743.75" cy="252.7527" fill="#84BE84" rx="3.125" ry="3.125" style="stroke:#038048;stroke-width:1.0416666666666667;"/><text fill="#D8BC00" font-family="Open Sans,Avenir,Nunito,Arial,Helvetica,SansSerif" font-size="11.4583" lengthAdjust="spacing" textLength="128.125" x="755.2083" y="259.6639">MinimumCountMetric()</text><line style="stroke:#5E5E5E;stroke-width:1.0416666666666667;" x1="733.3333" x2="777.6042" y1="235.5886" y2="235.5886"/><text fill="#D8BC00" font-family="Open Sans,Avenir,Nunito,Arial,Helvetica,SansSerif" font-size="11.4583" lengthAdjust="spacing" textLength="81.25" x="780.7292" y="239.3982">(constructors)</text><line style="stroke:#5E5E5E;stroke-width:1.0416666666666667;" x1="865.1042" x2="909.375" y1="235.5886" y2="235.5886"/><!--MD5=[5b9d1f421624f16eff0ff6a24dfb2877]
class TotalMetric--><rect fill="#282828" height="48.055" id="TotalMetric" rx="8.3333" ry="8.3333" style="stroke:#5E5E5E;stroke-width:1.0416666666666667;" width="110.4167" x="967.1875" y="53.7028"/><rect fill="#1B1B1A" height="31.3883" rx="8.3333" ry="8.3333" style="stroke:#1B1B1A;stroke-width:1.0416666666666667;" width="110.4167" x="967.1875" y="53.7028"/><rect fill="#1B1B1A" height="8.3333" style="stroke:#1B1B1A;stroke-width:1.0416666666666667;" width="110.4167" x="967.1875" y="76.7578"/><rect fill="none" height="48.055" id="TotalMetric" rx="8.3333" ry="8.3333" style="stroke:#5E5E5E;stroke-width:1.0416666666666667;" width="110.4167" x="967.1875" y="53.7028"/><ellipse cx="981.7708" cy="69.397" fill="#0066CF" rx="10.4167" ry="10.4167" style="stroke:#0086EF;stroke-width:1.0416666666666667;"/><path d="M983.6812,73.822 Q983.254,74.0417 982.784,74.1516 Q982.314,74.2615 981.7952,74.2615 Q979.952,74.2615 978.9815,73.0469 Q978.0111,71.8323 978.0111,69.5374 Q978.0111,67.2363 978.9815,66.0217 Q979.952,64.8071 981.7952,64.8071 Q982.314,64.8071 982.7901,64.917 Q983.2662,65.0269 983.6812,65.2466 L983.6812,67.2485 Q983.2174,66.8213 982.781,66.6229 Q982.3446,66.4246 981.8807,66.4246 Q980.8919,66.4246 980.3884,67.2089 Q979.8848,67.9932 979.8848,69.5374 Q979.8848,71.0754 980.3884,71.8597 Q980.8919,72.644 981.8807,72.644 Q982.3446,72.644 982.781,72.4457 Q983.2174,72.2473 983.6812,71.8201 Z " fill="#000000"/><text fill="#D8BC00" font-family="Open Sans,Avenir,Nunito,Arial,Helvetica,SansSerif" font-size="12.5" font-weight="bold" lengthAdjust="spacing" textLength="72.9167" x="998.4375" y="74.1211">TotalMetric</text><line style="stroke:#5E5E5E;stroke-width:1.0416666666666667;" x1="968.2292" x2="1076.5625" y1="85.0911" y2="85.0911"/><line style="stroke:#5E5E5E;stroke-width:1.0416666666666667;" x1="968.2292" x2="1076.5625" y1="93.4245" y2="93.4245"/><!--MD5=[6dce5c83f92b7a507fb556a4203e936f]
class TotalCountMetric--><rect codeLine="33" fill="#282828" height="83.3781" id="TotalCountMetric" rx="8.3333" ry="8.3333" style="stroke:#5E5E5E;stroke-width:1.0416666666666667;" width="150" x="947.3958" y="185.9945"/><rect fill="#1B1B1A" height="31.3883" rx="8.3333" ry="8.3333" style="stroke:#1B1B1A;stroke-width:1.0416666666666667;" width="150" x="947.3958" y="185.9945"/><rect fill="#1B1B1A" height="8.3333" style="stroke:#1B1B1A;stroke-width:1.0416666666666667;" width="150" x="947.3958" y="209.0495"/><rect codeLine="33" fill="none" height="83.3781" id="TotalCountMetric" rx="8.3333" ry="8.3333" style="stroke:#5E5E5E;stroke-width:1.0416666666666667;" width="150" x="947.3958" y="185.9945"/><ellipse cx="961.9792" cy="201.6886" fill="#0066CF" rx="10.4167" ry="10.4167" style="stroke:#0086EF;stroke-width:1.0416666666666667;"/><path d="M963.8896,206.1137 Q963.4623,206.3334 962.9924,206.4433 Q962.5224,206.5531 962.0036,206.5531 Q960.1603,206.5531 959.1899,205.3385 Q958.2194,204.1239 958.2194,201.829 Q958.2194,199.528 959.1899,198.3134 Q960.1603,197.0988 962.0036,197.0988 Q962.5224,197.0988 962.9985,197.2087 Q963.4745,197.3185 963.8896,197.5382 L963.8896,199.5402 Q963.4257,199.113 962.9893,198.9146 Q962.5529,198.7162 962.089,198.7162 Q961.1003,198.7162 960.5967,199.5005 Q960.0932,200.2848 960.0932,201.829 Q960.0932,203.3671 960.5967,204.1514 Q961.1003,204.9357 962.089,204.9357 Q962.5529,204.9357 962.9893,204.7373 Q963.4257,204.539 963.8896,204.1117 Z " fill="#000000"/><text fill="#D8BC00" font-family="Open Sans,Avenir,Nunito,Arial,Helvetica,SansSerif" font-size="12.5" font-weight="bold" lengthAdjust="spacing" textLength="112.5" x="978.6458" y="206.4128">TotalCountMetric</text><line style="stroke:#5E5E5E;stroke-width:1.5625;" x1="948.4375" x2="1096.3542" y1="217.3828" y2="217.3828"/><ellipse cx="958.8542" cy="252.7527" fill="#84BE84" rx="3.125" ry="3.125" style="stroke:#038048;stroke-width:1.0416666666666667;"/><text fill="#D8BC00" font-family="Open Sans,Avenir,Nunito,Arial,Helvetica,SansSerif" font-size="11.4583" lengthAdjust="spacing" textLength="105.2083" x="970.3125" y="259.6639">TotalCountMetric()</text><line style="stroke:#5E5E5E;stroke-width:1.0416666666666667;" x1="948.4375" x2="978.6458" y1="235.5886" y2="235.5886"/><text fill="#D8BC00" font-family="Open Sans,Avenir,Nunito,Arial,Helvetica,SansSerif" font-size="11.4583" lengthAdjust="spacing" textLength="81.25" x="981.7708" y="239.3982">(constructors)</text><line style="stroke:#5E5E5E;stroke-width:1.0416666666666667;" x1="1066.1458" x2="1096.3542" y1="235.5886" y2="235.5886"/><!--MD5=[a0fd4d27ee68d1a5e02ef81c3a8129a9]
reverse link AverageMetric to AverageCountMetric--><path codeLine="7" d="M168.2292,123.9111 C168.2292,136.4945 168.2292,150.3903 168.2292,163.7861 " fill="none" id="AverageMetric-backto-AverageCountMetric" style="stroke:#545454;stroke-width:1.5625;"/><polygon fill="none" points="160.9375,124.2236,168.2292,103.3903,175.5208,124.2236,160.9375,124.2236" style="stroke:#545454;stroke-width:1.5625;"/><!--MD5=[1bab5a3a42998e5320a7dcfff43b6433]
reverse link MaximumMetric to MaximumCountMetric--><path codeLine="16" d="M530.7292,123.9111 C530.7292,136.4945 530.7292,150.3903 530.7292,163.7861 " fill="none" id="MaximumMetric-backto-MaximumCountMetric" style="stroke:#545454;stroke-width:1.5625;"/><polygon fill="none" points="523.4375,124.2236,530.7292,103.3903,538.0208,124.2236,523.4375,124.2236" style="stroke:#545454;stroke-width:1.5625;"/><!--MD5=[1a1c5d3f2295b0225a533f60e9b6f610]
reverse link MinimumMetric to MinimumCountMetric--><path codeLine="25" d="M821.3542,124.057 C821.3542,143.6507 821.3542,166.4215 821.3542,185.5153 " fill="none" id="MinimumMetric-backto-MinimumCountMetric" style="stroke:#545454;stroke-width:1.5625;"/><polygon fill="none" points="814.0625,124.2236,821.3542,103.3903,828.6458,124.2236,814.0625,124.2236" style="stroke:#545454;stroke-width:1.5625;"/><!--MD5=[0c50465a209c4909fc7f4a57d75e9480]
reverse link TotalMetric to TotalCountMetric--><path codeLine="32" d="M1022.3958,124.057 C1022.3958,143.6507 1022.3958,166.4215 1022.3958,185.5153 " fill="none" id="TotalMetric-backto-TotalCountMetric" style="stroke:#545454;stroke-width:1.5625;"/><polygon fill="none" points="1015.1042,124.2236,1022.3958,103.3903,1029.6875,124.2236,1015.1042,124.2236" style="stroke:#545454;stroke-width:1.5625;"/><!--MD5=[4cb3e3811bd555f900b51d0eefe4c09a]
@startuml

    !include lexakai.theme
    
    title "com.telenav.kivakit.metrics.core.aggregates.count"
    
    AverageMetric <|- - AverageCountMetric
    class AverageCountMetric
    {
        - -(constructors)- -
        +AverageCountMetric()
        - -(collection)- -
        +AverageCountMetric description(String description)
    }
    
    MaximumMetric <|- - MaximumCountMetric
    class MaximumCountMetric
    {
        - -(constructors)- -
        +MaximumCountMetric()
        - -(collection)- -
        +MaximumCountMetric description(String description)
    }
    
    MinimumMetric <|- - MinimumCountMetric
    class MinimumCountMetric
    {
        - -(constructors)- -
        +MinimumCountMetric()
    }
    
    TotalMetric <|- - TotalCountMetric
    class TotalCountMetric
    {
        - -(constructors)- -
        +TotalCountMetric()
    }
    
@enduml

@startuml









skinparam backgroundColor #333333






skinparam  {
    defaultFontName   "Open Sans,Avenir,Nunito,Arial,Helvetica,SansSerif"
    defaultFontSize   12
    defaultTextAlignment left
    shadowing false
    RoundCorner 10
    TitleFontSize 18
}

skinparam defaultFontName       "Open Sans,Avenir,Nunito,Arial,Helvetica,SansSerif"
skinparam defaultFontSize       12
skinparam dpi                   100
skinparam shadowing             false
skinparam roundcorner           16
skinparam ParticipantPadding    40
skinparam BoxPadding            40
skinparam Padding               3
skinparam ArrowColor            #545454
skinparam stereotype {
    CBackgroundColor #0066cf
    CBorderColor #0086ef
    ABackgroundColor #C8Ac00
    ABorderColor #D8Bc00
    IBackgroundColor #008400
    IBorderColor #239c23
    EBackgroundColor #cf6300
    EBorderColor #ef8300
    NBackgroundColor #3380b9
    NBorderColor #004d86
}
skinparam title {
	FontColor	                 #c0c0c0
 	BorderColor                  #545454
	FontSize	    	         20
	BorderRoundCorner            16
	BorderThickness 	         1
	BackgroundColor              #48494b
}


skinparam legend {
	BackgroundColor #303030
	BorderColor #404040
	FontColor #a0a0a0
}

	skinparam swimlane {
	BorderColor #5e5e5e
	BorderThickness 2
	TitleBackgroundColor  #6d6d6d-#484848
	TitleFontColor #303030
}

skinparam activity {
		FontColor #C8Ac00
	BorderColor #333333
	BackgroundColor #333333-#333333
	BarColor #00FF00
	StartColor #0060a8
	EndColor #0060a8
	DiamondBackgroundColor #6d6d6d-#3a3a3a
  	DiamondBorderColor #3a3a3a
  	DiamondFontColor #fefefe
}


skinparam participant {
		FontColor #C8Ac00
	BorderColor #333333
	BackgroundColor #333333-#333333
	ParticipantBorderThickness 2
}


skinparam actor {
		FontColor #C8Ac00
	BorderColor #333333
	BackgroundColor #333333-#333333
}


skinparam arrow {
	Thickness 1.5
	Color #545454
	FontColor #a0a0a0
    FontStyle bold
    MessageAlignment center
}



skinparam sequence {
	BorderColor #303030
	TitleFontColor #303030
	BackgroundColor #333333
	StartColor #303030
	EndColor #303030
	BoxBackgroundColor #333333
	BoxBorderColor #484848
	BoxFontColor #484848
	LifeLineBorderColor #484848
	LifeLineBorderThickness 2
	LifeLineBackgroundColor #3a3a3a
	GroupBorderColor #484848
	GroupFontColor #484848
	GroupHeaderFontColor #0060a8
	GroupBackgroundColor #484848
	GroupHeaderBackgroundColor #333333
	DividerBackgroundColor #484848
    DividerBorderColor #484848
    DividerBorderThickness 2
    DividerFontColor #D8Bc00
	ReferenceBackgroundColor #333333
	ReferenceBorderColor #484848
	ReferenceFontColor #fefefe
	ReferenceHeaderBackgroundColor #484848
}


skinparam partition {
	BorderColor #303030
	FontColor #333333
	BackgroundColor #333333
}


skinparam collections {
		FontColor #C8Ac00
	BorderColor #333333
	BackgroundColor #333333-#333333
}


skinparam control {
		FontColor #C8Ac00
	BorderColor #333333
	BackgroundColor #333333-#333333
}


skinparam entity {
		FontColor #C8Ac00
	BorderColor #333333
	BackgroundColor #333333-#333333
}


skinparam boundary {
		FontColor #C8Ac00
	BorderColor #333333
	BackgroundColor #333333-#333333
}


skinparam agent {
	BackgroundColor #ff8000
	BorderColor #ff9933
	FontColor #484848
}


skinparam note {
	BorderThickness 1
	BackgroundColor #1b1b1a
	BorderColor #5e5e5e
	FontSize 11
	FontColor #a0a0a0
}


skinparam artifact {
	BorderThickness 10
	BorderColor #5e5e5e
	BackgroundColor #1b1b1a
	FontColor #D8Bc00
}


skinparam component {
		FontColor #C8Ac00
	BorderColor #333333
	BackgroundColor #333333-#333333
}


skinparam interface {
	BackgroundColor  #008400
	BorderColor  #007F00
	FontColor #484848
}


skinparam storage {
	BackgroundColor #ff8000
  	BorderColor #cc6600
	FontColor #222222
}


skinparam node {
	BackgroundColor #333333
	BorderColor #333333
	FontColor #C8Ac00
}


skinparam cloud {
	BackgroundColor #484848-black
	BorderColor #484848
	FontColor #D8Bc00
}


skinparam database {
		FontColor #C8Ac00
	BorderColor #333333
	BackgroundColor #333333-#333333
	BackgroundColor  #333333
}


skinparam class {
		FontColor #C8Ac00
	BorderColor #333333
	BackgroundColor #333333-#333333
	HeaderBackgroundColor #1b1b1a
    BackgroundColor #282828
    BorderColor #5e5e5e
 	StereotypeFontColor #a0a0a0
    StereotypeFontStyle bold
	BorderThickness 1
	AttributeFontColor #D8Bc00
	AttributeFontSize 11
    FontColor #D8Bc00
    FontStyle bold
}


skinparam object {
		FontColor #C8Ac00
	BorderColor #333333
	BackgroundColor #333333-#333333
	StereotypeFontColor #484848
	BorderThickness 1
	AttributeFontColor #fefefe
	AttributeFontSize 11
}


skinparam usecase {
		FontColor #C8Ac00
	BorderColor #333333
	BackgroundColor #333333-#333333
	BorderThickness 2
	StereotypeFontColor #303030
}


skinparam rectangle {
		FontColor #C8Ac00
	BorderColor #333333
	BackgroundColor #333333-#333333
	BackgroundColor #333333
	BorderThickness 2
	StereotypeFontColor #303030
}


skinparam package {
		FontColor #C8Ac00
	BorderColor #333333
	BackgroundColor #333333-#333333
	BackgroundColor #333333
	BorderThickness 2
}


skinparam folder {
	BackgroundColor #6d6d6d
  	BorderColor #ff8000
	FontColor #ff8000
	BorderThickness 2
}


skinparam frame {
	BackgroundColor #6d6d6d
  	BorderColor #0060a8
	FontColor #0060a8
	BorderThickness 2
}


skinparam state {
		FontColor #C8Ac00
	BorderColor #333333
	BackgroundColor #333333-#333333
	StartColor #0060a8
	EndColor #0060a8
	AttributeFontColor #fefefe
	AttributeFontSize 11
}


skinparam queue {
		FontColor #C8Ac00
	BorderColor #333333
	BackgroundColor #333333-#333333
}


skinparam card {
	BackgroundColor #0060a8
	BorderColor #004d86
	FontColor $INFO_TEXT
}


skinparam file {
	BackgroundColor #6d6d6d-#484848
	BorderColor #0060a8
	FontColor #fefefe
}


skinparam stack {
		FontColor #C8Ac00
	BorderColor #333333
	BackgroundColor #333333-#333333
}

    
    title "com.telenav.kivakit.metrics.core.aggregates.count"
    
    AverageMetric <|- - AverageCountMetric
    class AverageCountMetric
    {
        - -(constructors)- -
        +AverageCountMetric()
        - -(collection)- -
        +AverageCountMetric description(String description)
    }
    
    MaximumMetric <|- - MaximumCountMetric
    class MaximumCountMetric
    {
        - -(constructors)- -
        +MaximumCountMetric()
        - -(collection)- -
        +MaximumCountMetric description(String description)
    }
    
    MinimumMetric <|- - MinimumCountMetric
    class MinimumCountMetric
    {
        - -(constructors)- -
        +MinimumCountMetric()
    }
    
    TotalMetric <|- - TotalCountMetric
    class TotalCountMetric
    {
        - -(constructors)- -
        +TotalCountMetric()
    }
    
@enduml

PlantUML version 1.2021.01(Tue Feb 02 00:55:08 MST 2021)
(GPL source distribution)
Java Runtime: OpenJDK Runtime Environment
JVM: OpenJDK 64-Bit Server VM
Default Encoding: UTF-8
Language: en
Country: US
--></g></svg>