<?xml version="1.0" encoding="UTF-8" standalone="no"?><svg xmlns="http://www.w3.org/2000/svg" xmlns:xlink="http://www.w3.org/1999/xlink" contentScriptType="application/ecmascript" contentStyleType="text/css" height="218.75px" preserveAspectRatio="none" style="width:760px;height:218px;background:#333333;" version="1.1" viewBox="0 0 760 218" width="760.4167px" zoomAndPan="magnify"><defs/><g><rect fill="#48494B" height="41.2028" rx="8.3333" ry="8.3333" style="stroke:#545454;stroke-width:1.0416666666666667;" width="436.4583" x="154.9479" y="2.0833"/><text fill="#C0C0C0" font-family="Open Sans,Avenir,Nunito,Arial,Helvetica,SansSerif" font-size="20.8333" lengthAdjust="spacing" textLength="413.5417" x="166.4063" y="30.5583">com.telenav.kivakit.commandline.lexakai</text><rect codeLine="7" fill="#282828" height="48.055" id="UmlDiagramIdentifier" rx="8.3333" ry="8.3333" style="stroke:#5E5E5E;stroke-width:1.0416666666666667;" width="178.125" x="303.125" y="53.7028"/><rect fill="#1B1B1A" height="31.3883" rx="8.3333" ry="8.3333" style="stroke:#1B1B1A;stroke-width:1.0416666666666667;" width="178.125" x="303.125" y="53.7028"/><rect fill="#1B1B1A" height="8.3333" style="stroke:#1B1B1A;stroke-width:1.0416666666666667;" width="178.125" x="303.125" y="76.7578"/><rect codeLine="7" fill="none" height="48.055" id="UmlDiagramIdentifier" rx="8.3333" ry="8.3333" style="stroke:#5E5E5E;stroke-width:1.0416666666666667;" width="178.125" x="303.125" y="53.7028"/><ellipse cx="317.7083" cy="69.397" fill="#008400" rx="10.4167" ry="10.4167" style="stroke:#239C23;stroke-width:1.0416666666666667;"/><path d="M315.1123,66.5588 L315.1123,64.9719 L320.5383,64.9719 L320.5383,66.5588 L318.7256,66.5588 L318.7256,72.4976 L320.5383,72.4976 L320.5383,74.0845 L315.1123,74.0845 L315.1123,72.4976 L316.925,72.4976 L316.925,66.5588 Z " fill="#000000"/><text fill="#D8BC00" font-family="Open Sans,Avenir,Nunito,Arial,Helvetica,SansSerif" font-size="12.5" font-style="italic" font-weight="bold" lengthAdjust="spacing" textLength="140.625" x="334.375" y="74.1211">UmlDiagramIdentifier</text><line style="stroke:#5E5E5E;stroke-width:1.0416666666666667;" x1="304.1667" x2="480.2083" y1="85.0911" y2="85.0911"/><line style="stroke:#5E5E5E;stroke-width:1.0416666666666667;" x1="304.1667" x2="480.2083" y1="93.4245" y2="93.4245"/><rect codeLine="10" fill="#282828" height="48.055" id="DiagramArgument" rx="8.3333" ry="8.3333" style="stroke:#5E5E5E;stroke-width:1.0416666666666667;" width="157.2917" x="7.2917" y="164.1195"/><rect fill="#1B1B1A" height="31.3883" rx="8.3333" ry="8.3333" style="stroke:#1B1B1A;stroke-width:1.0416666666666667;" width="157.2917" x="7.2917" y="164.1195"/><rect fill="#1B1B1A" height="8.3333" style="stroke:#1B1B1A;stroke-width:1.0416666666666667;" width="157.2917" x="7.2917" y="187.1745"/><rect codeLine="10" fill="none" height="48.055" id="DiagramArgument" rx="8.3333" ry="8.3333" style="stroke:#5E5E5E;stroke-width:1.0416666666666667;" width="157.2917" x="7.2917" y="164.1195"/><ellipse cx="21.875" cy="179.8136" fill="#0066CF" rx="10.4167" ry="10.4167" style="stroke:#0086EF;stroke-width:1.0416666666666667;"/><path d="M23.7854,184.2387 Q23.3582,184.4584 22.8882,184.5683 Q22.4182,184.6781 21.8994,184.6781 Q20.0562,184.6781 19.0857,183.4635 Q18.1152,182.2489 18.1152,179.954 Q18.1152,177.653 19.0857,176.4384 Q20.0562,175.2238 21.8994,175.2238 Q22.4182,175.2238 22.8943,175.3337 Q23.3704,175.4435 23.7854,175.6632 L23.7854,177.6652 Q23.3215,177.238 22.8851,177.0396 Q22.4487,176.8412 21.9849,176.8412 Q20.9961,176.8412 20.4926,177.6255 Q19.989,178.4098 19.989,179.954 Q19.989,181.4921 20.4926,182.2764 Q20.9961,183.0607 21.9849,183.0607 Q22.4487,183.0607 22.8851,182.8623 Q23.3215,182.664 23.7854,182.2367 Z " fill="#000000"/><text fill="#D8BC00" font-family="Open Sans,Avenir,Nunito,Arial,Helvetica,SansSerif" font-size="12.5" font-weight="bold" lengthAdjust="spacing" textLength="119.7917" x="38.5417" y="184.5378">DiagramArgument</text><line style="stroke:#5E5E5E;stroke-width:1.0416666666666667;" x1="8.3333" x2="163.5417" y1="195.5078" y2="195.5078"/><line style="stroke:#5E5E5E;stroke-width:1.0416666666666667;" x1="8.3333" x2="163.5417" y1="203.8411" y2="203.8411"/><rect codeLine="15" fill="#282828" height="48.055" id="DiagramCommandLine" rx="8.3333" ry="8.3333" style="stroke:#5E5E5E;stroke-width:1.0416666666666667;" width="186.4583" x="201.0417" y="164.1195"/><rect fill="#1B1B1A" height="31.3883" rx="8.3333" ry="8.3333" style="stroke:#1B1B1A;stroke-width:1.0416666666666667;" width="186.4583" x="201.0417" y="164.1195"/><rect fill="#1B1B1A" height="8.3333" style="stroke:#1B1B1A;stroke-width:1.0416666666666667;" width="186.4583" x="201.0417" y="187.1745"/><rect codeLine="15" fill="none" height="48.055" id="DiagramCommandLine" rx="8.3333" ry="8.3333" style="stroke:#5E5E5E;stroke-width:1.0416666666666667;" width="186.4583" x="201.0417" y="164.1195"/><ellipse cx="215.625" cy="179.8136" fill="#0066CF" rx="10.4167" ry="10.4167" style="stroke:#0086EF;stroke-width:1.0416666666666667;"/><path d="M217.5354,184.2387 Q217.1082,184.4584 216.6382,184.5683 Q216.1682,184.6781 215.6494,184.6781 Q213.8062,184.6781 212.8357,183.4635 Q211.8652,182.2489 211.8652,179.954 Q211.8652,177.653 212.8357,176.4384 Q213.8062,175.2238 215.6494,175.2238 Q216.1682,175.2238 216.6443,175.3337 Q217.1204,175.4435 217.5354,175.6632 L217.5354,177.6652 Q217.0715,177.238 216.6351,177.0396 Q216.1987,176.8412 215.7349,176.8412 Q214.7461,176.8412 214.2426,177.6255 Q213.739,178.4098 213.739,179.954 Q213.739,181.4921 214.2426,182.2764 Q214.7461,183.0607 215.7349,183.0607 Q216.1987,183.0607 216.6351,182.8623 Q217.0715,182.664 217.5354,182.2367 Z " fill="#000000"/><text fill="#D8BC00" font-family="Open Sans,Avenir,Nunito,Arial,Helvetica,SansSerif" font-size="12.5" font-weight="bold" lengthAdjust="spacing" textLength="148.9583" x="232.2917" y="184.5378">DiagramCommandLine</text><line style="stroke:#5E5E5E;stroke-width:1.0416666666666667;" x1="202.0833" x2="386.4583" y1="195.5078" y2="195.5078"/><line style="stroke:#5E5E5E;stroke-width:1.0416666666666667;" x1="202.0833" x2="386.4583" y1="203.8411" y2="203.8411"/><rect codeLine="20" fill="#282828" height="48.055" id="DiagramSwitch" rx="8.3333" ry="8.3333" style="stroke:#5E5E5E;stroke-width:1.0416666666666667;" width="134.375" x="423.9583" y="164.1195"/><rect fill="#1B1B1A" height="31.3883" rx="8.3333" ry="8.3333" style="stroke:#1B1B1A;stroke-width:1.0416666666666667;" width="134.375" x="423.9583" y="164.1195"/><rect fill="#1B1B1A" height="8.3333" style="stroke:#1B1B1A;stroke-width:1.0416666666666667;" width="134.375" x="423.9583" y="187.1745"/><rect codeLine="20" fill="none" height="48.055" id="DiagramSwitch" rx="8.3333" ry="8.3333" style="stroke:#5E5E5E;stroke-width:1.0416666666666667;" width="134.375" x="423.9583" y="164.1195"/><ellipse cx="438.5417" cy="179.8136" fill="#0066CF" rx="10.4167" ry="10.4167" style="stroke:#0086EF;stroke-width:1.0416666666666667;"/><path d="M440.4521,184.2387 Q440.0248,184.4584 439.5549,184.5683 Q439.0849,184.6781 438.5661,184.6781 Q436.7228,184.6781 435.7524,183.4635 Q434.7819,182.2489 434.7819,179.954 Q434.7819,177.653 435.7524,176.4384 Q436.7228,175.2238 438.5661,175.2238 Q439.0849,175.2238 439.561,175.3337 Q440.037,175.4435 440.4521,175.6632 L440.4521,177.6652 Q439.9882,177.238 439.5518,177.0396 Q439.1154,176.8412 438.6515,176.8412 Q437.6628,176.8412 437.1592,177.6255 Q436.6557,178.4098 436.6557,179.954 Q436.6557,181.4921 437.1592,182.2764 Q437.6628,183.0607 438.6515,183.0607 Q439.1154,183.0607 439.5518,182.8623 Q439.9882,182.664 440.4521,182.2367 Z " fill="#000000"/><text fill="#D8BC00" font-family="Open Sans,Avenir,Nunito,Arial,Helvetica,SansSerif" font-size="12.5" font-weight="bold" lengthAdjust="spacing" textLength="96.875" x="455.2083" y="184.5378">DiagramSwitch</text><line style="stroke:#5E5E5E;stroke-width:1.0416666666666667;" x1="425" x2="557.2917" y1="195.5078" y2="195.5078"/><line style="stroke:#5E5E5E;stroke-width:1.0416666666666667;" x1="425" x2="557.2917" y1="203.8411" y2="203.8411"/><rect codeLine="25" fill="#282828" height="48.055" id="DiagramValidation" rx="8.3333" ry="8.3333" style="stroke:#5E5E5E;stroke-width:1.0416666666666667;" width="158.3333" x="595.3125" y="164.1195"/><rect fill="#1B1B1A" height="31.3883" rx="8.3333" ry="8.3333" style="stroke:#1B1B1A;stroke-width:1.0416666666666667;" width="158.3333" x="595.3125" y="164.1195"/><rect fill="#1B1B1A" height="8.3333" style="stroke:#1B1B1A;stroke-width:1.0416666666666667;" width="158.3333" x="595.3125" y="187.1745"/><rect codeLine="25" fill="none" height="48.055" id="DiagramValidation" rx="8.3333" ry="8.3333" style="stroke:#5E5E5E;stroke-width:1.0416666666666667;" width="158.3333" x="595.3125" y="164.1195"/><ellipse cx="609.8958" cy="179.8136" fill="#0066CF" rx="10.4167" ry="10.4167" style="stroke:#0086EF;stroke-width:1.0416666666666667;"/><path d="M611.8062,184.2387 Q611.379,184.4584 610.909,184.5683 Q610.439,184.6781 609.9202,184.6781 Q608.077,184.6781 607.1065,183.4635 Q606.1361,182.2489 606.1361,179.954 Q606.1361,177.653 607.1065,176.4384 Q608.077,175.2238 609.9202,175.2238 Q610.439,175.2238 610.9151,175.3337 Q611.3912,175.4435 611.8062,175.6632 L611.8062,177.6652 Q611.3424,177.238 610.906,177.0396 Q610.4696,176.8412 610.0057,176.8412 Q609.0169,176.8412 608.5134,177.6255 Q608.0098,178.4098 608.0098,179.954 Q608.0098,181.4921 608.5134,182.2764 Q609.0169,183.0607 610.0057,183.0607 Q610.4696,183.0607 610.906,182.8623 Q611.3424,182.664 611.8062,182.2367 Z " fill="#000000"/><text fill="#D8BC00" font-family="Open Sans,Avenir,Nunito,Arial,Helvetica,SansSerif" font-size="12.5" font-weight="bold" lengthAdjust="spacing" textLength="120.8333" x="626.5625" y="184.5378">DiagramValidation</text><line style="stroke:#5E5E5E;stroke-width:1.0416666666666667;" x1="596.3542" x2="752.6042" y1="195.5078" y2="195.5078"/><line style="stroke:#5E5E5E;stroke-width:1.0416666666666667;" x1="596.3542" x2="752.6042" y1="203.8411" y2="203.8411"/><path codeLine="9" d="M307.5313,108.6507 C258,126.1715 196.4479,147.9424 150.7917,164.0986 " fill="none" id="UmlDiagramIdentifier-backto-DiagramArgument" style="stroke:#545454;stroke-width:1.5625;"/><polygon fill="none" points="305.1667,101.7549,327.2396,101.682,310.0313,115.4945,305.1667,101.7549" style="stroke:#545454;stroke-width:1.5625;"/><path codeLine="14" d="M357.0313,117.5986 C342.9479,133.182 327.2083,150.5986 315.0104,164.0986 " fill="none" id="UmlDiagramIdentifier-backto-DiagramCommandLine" style="stroke:#545454;stroke-width:1.5625;"/><polygon fill="none" points="352.0417,112.2445,371.4271,101.682,362.8646,122.0257,352.0417,112.2445" style="stroke:#545454;stroke-width:1.5625;"/><path codeLine="19" d="M427.2604,117.0986 C441.6146,132.807 457.7292,150.4528 470.1875,164.0986 " fill="none" id="UmlDiagramIdentifier-backto-DiagramSwitch" style="stroke:#545454;stroke-width:1.5625;"/><polygon fill="none" points="421.8438,121.9736,413.1771,101.682,432.6042,112.1403,421.8438,121.9736" style="stroke:#545454;stroke-width:1.5625;"/><path codeLine="24" d="M471.75,109.234 C517.1354,126.6507 573.0833,148.1195 614.6979,164.0986 " fill="none" id="UmlDiagramIdentifier-backto-DiagramValidation" style="stroke:#545454;stroke-width:1.5625;"/><polygon fill="none" points="468.8958,115.9528,452.0521,101.682,474.1146,102.3382,468.8958,115.9528" style="stroke:#545454;stroke-width:1.5625;"/></g></svg>
