<?xml version="1.0" encoding="UTF-8" standalone="no"?><svg xmlns="http://www.w3.org/2000/svg" xmlns:xlink="http://www.w3.org/1999/xlink" contentScriptType="application/ecmascript" contentStyleType="text/css" height="772.9167px" preserveAspectRatio="none" style="width:1307px;height:772px;background:#333333;" version="1.1" viewBox="0 0 1307 772" width="1307.2917px" zoomAndPan="magnify"><defs/><g><rect fill="#48494B" height="41.2028" rx="8.3333" ry="8.3333" style="stroke:#545454;stroke-width:1.0416666666666667;" width="590.625" x="351.0417" y="2.0833"/><text fill="#C0C0C0" font-family="Open Sans,Avenir,Nunito,Arial,Helvetica,SansSerif" font-size="20.8333" lengthAdjust="spacing" textLength="567.7083" x="362.5" y="30.5583">com.telenav.kivakit.ui.swing.graphics.drawing.drawables</text><!--MD5=[bd844f4dd4c33de0707c5372ec4d496c]
class BaseDrawable--><rect codeLine="6" fill="#282828" height="48.055" id="BaseDrawable" rx="8.3333" ry="8.3333" style="stroke:#5E5E5E;stroke-width:1.0416666666666667;" width="128.125" x="653.6458" y="53.7028"/><rect fill="#1B1B1A" height="31.3883" rx="8.3333" ry="8.3333" style="stroke:#1B1B1A;stroke-width:1.0416666666666667;" width="128.125" x="653.6458" y="53.7028"/><rect fill="#1B1B1A" height="8.3333" style="stroke:#1B1B1A;stroke-width:1.0416666666666667;" width="128.125" x="653.6458" y="76.7578"/><rect codeLine="6" fill="none" height="48.055" id="BaseDrawable" rx="8.3333" ry="8.3333" style="stroke:#5E5E5E;stroke-width:1.0416666666666667;" width="128.125" x="653.6458" y="53.7028"/><ellipse cx="668.2292" cy="69.397" fill="#C8AC00" rx="10.4167" ry="10.4167" style="stroke:#D8BC00;stroke-width:1.0416666666666667;"/><path d="M668.3431,66.099 L667.4947,69.8283 L669.1976,69.8283 Z M667.2445,64.4511 L669.4478,64.4511 L671.9076,73.5636 L670.107,73.5636 L669.5455,71.3114 L667.1346,71.3114 L666.5853,73.5636 L664.7847,73.5636 Z " fill="#000000"/><text fill="#D8BC00" font-family="Open Sans,Avenir,Nunito,Arial,Helvetica,SansSerif" font-size="12.5" font-style="italic" font-weight="bold" lengthAdjust="spacing" textLength="90.625" x="684.8958" y="74.1211">BaseDrawable</text><line style="stroke:#5E5E5E;stroke-width:1.0416666666666667;" x1="654.6875" x2="780.7292" y1="85.0911" y2="85.0911"/><line style="stroke:#5E5E5E;stroke-width:1.0416666666666667;" x1="654.6875" x2="780.7292" y1="93.4245" y2="93.4245"/><!--MD5=[736dfa021baaf4f381c9890dd397bfe9]
class Line--><rect codeLine="58" fill="#282828" height="365.0614" id="Line" rx="8.3333" ry="8.3333" style="stroke:#5E5E5E;stroke-width:1.0416666666666667;" width="294.7917" x="19.2708" y="164.1195"/><rect fill="#1B1B1A" height="31.3883" rx="8.3333" ry="8.3333" style="stroke:#1B1B1A;stroke-width:1.0416666666666667;" width="294.7917" x="19.2708" y="164.1195"/><rect fill="#1B1B1A" height="8.3333" style="stroke:#1B1B1A;stroke-width:1.0416666666666667;" width="294.7917" x="19.2708" y="187.1745"/><rect codeLine="58" fill="none" height="365.0614" id="Line" rx="8.3333" ry="8.3333" style="stroke:#5E5E5E;stroke-width:1.0416666666666667;" width="294.7917" x="19.2708" y="164.1195"/><ellipse cx="145.8333" cy="179.8136" fill="#0066CF" rx="10.4167" ry="10.4167" style="stroke:#0086EF;stroke-width:1.0416666666666667;"/><path d="M147.7437,184.2387 Q147.3165,184.4584 146.8465,184.5683 Q146.3765,184.6781 145.8577,184.6781 Q144.0145,184.6781 143.044,183.4635 Q142.0736,182.2489 142.0736,179.954 Q142.0736,177.653 143.044,176.4384 Q144.0145,175.2238 145.8577,175.2238 Q146.3765,175.2238 146.8526,175.3337 Q147.3287,175.4435 147.7437,175.6632 L147.7437,177.6652 Q147.2799,177.238 146.8435,177.0396 Q146.4071,176.8412 145.9432,176.8412 Q144.9544,176.8412 144.4509,177.6255 Q143.9473,178.4098 143.9473,179.954 Q143.9473,181.4921 144.4509,182.2764 Q144.9544,183.0607 145.9432,183.0607 Q146.4071,183.0607 146.8435,182.8623 Q147.2799,182.664 147.7437,182.2367 Z " fill="#000000"/><text fill="#D8BC00" font-family="Open Sans,Avenir,Nunito,Arial,Helvetica,SansSerif" font-size="12.5" font-weight="bold" lengthAdjust="spacing" textLength="27.0833" x="168.75" y="184.5378">Line</text><line style="stroke:#5E5E5E;stroke-width:1.5625;" x1="20.3125" x2="313.0208" y1="195.5078" y2="195.5078"/><polygon fill="#FFFF44" points="30.7292,225.6694,34.8958,229.836,30.7292,234.0027,26.5625,229.836" style="stroke:#B38D22;stroke-width:1.0416666666666667;"/><text fill="#D8BC00" font-family="Open Sans,Avenir,Nunito,Arial,Helvetica,SansSerif" font-size="11.4583" lengthAdjust="spacing" textLength="54.1667" x="42.1875" y="237.7889">Line(Line)</text><polygon fill="#FFFF44" points="30.7292,245.4142,34.8958,249.5809,30.7292,253.7476,26.5625,249.5809" style="stroke:#B38D22;stroke-width:1.0416666666666667;"/><text fill="#D8BC00" font-family="Open Sans,Avenir,Nunito,Arial,Helvetica,SansSerif" font-size="11.4583" lengthAdjust="spacing" textLength="216.6667" x="42.1875" y="257.5338">Line(Style, Coordinate, CoordinateSize)</text><line style="stroke:#5E5E5E;stroke-width:1.0416666666666667;" x1="20.3125" x2="122.9167" y1="213.7136" y2="213.7136"/><text fill="#D8BC00" font-family="Open Sans,Avenir,Nunito,Arial,Helvetica,SansSerif" font-size="11.4583" lengthAdjust="spacing" textLength="81.25" x="126.0417" y="217.5232">(constructors)</text><line style="stroke:#5E5E5E;stroke-width:1.0416666666666667;" x1="210.4167" x2="313.0208" y1="213.7136" y2="213.7136"/><line style="stroke:#5E5E5E;stroke-width:1.0416666666666667;" x1="20.3125" x2="313.0208" y1="267.2424" y2="267.2424"/><ellipse cx="30.7292" cy="278.7008" fill="#84BE84" rx="3.125" ry="3.125" style="stroke:#038048;stroke-width:1.0416666666666667;"/><text fill="#D8BC00" font-family="Open Sans,Avenir,Nunito,Arial,Helvetica,SansSerif" font-size="11.4583" lengthAdjust="spacing" textLength="101.0417" x="42.1875" y="285.612">Coordinate from()</text><ellipse cx="30.7292" cy="298.4456" fill="#84BE84" rx="3.125" ry="3.125" style="stroke:#038048;stroke-width:1.0416666666666667;"/><text fill="#D8BC00" font-family="Open Sans,Avenir,Nunito,Arial,Helvetica,SansSerif" font-size="11.4583" lengthAdjust="spacing" textLength="262.5" x="42.1875" y="305.3569">Line line(Style, Coordinate from, Coordinate to)</text><ellipse cx="30.7292" cy="342.1021" fill="#84BE84" rx="3.125" ry="3.125" style="stroke:#038048;stroke-width:1.0416666666666667;"/><text fill="#D8BC00" font-family="Open Sans,Avenir,Nunito,Arial,Helvetica,SansSerif" font-size="11.4583" lengthAdjust="spacing" textLength="236.4583" x="42.1875" y="349.0133">CoordinateSlope angle(CoordinateSystem)</text><line style="stroke:#5E5E5E;stroke-width:1.0416666666666667;" x1="20.3125" x2="144.2708" y1="324.9379" y2="324.9379"/><text fill="#D8BC00" font-family="Open Sans,Avenir,Nunito,Arial,Helvetica,SansSerif" font-size="11.4583" lengthAdjust="spacing" textLength="38.5417" x="147.3958" y="328.7476">(angle)</text><line style="stroke:#5E5E5E;stroke-width:1.0416666666666667;" x1="189.0625" x2="313.0208" y1="324.9379" y2="324.9379"/><ellipse cx="30.7292" cy="385.7585" fill="#84BE84" rx="3.125" ry="3.125" style="stroke:#038048;stroke-width:1.0416666666666667;"/><text fill="#D8BC00" font-family="Open Sans,Avenir,Nunito,Arial,Helvetica,SansSerif" font-size="11.4583" lengthAdjust="spacing" textLength="128.125" x="42.1875" y="392.6697">CoordinateSize offset()</text><line style="stroke:#5E5E5E;stroke-width:1.0416666666666667;" x1="20.3125" x2="132.2917" y1="368.5944" y2="368.5944"/><text fill="#D8BC00" font-family="Open Sans,Avenir,Nunito,Arial,Helvetica,SansSerif" font-size="11.4583" lengthAdjust="spacing" textLength="62.5" x="135.4167" y="372.404">(collection)</text><line style="stroke:#5E5E5E;stroke-width:1.0416666666666667;" x1="201.0417" x2="313.0208" y1="368.5944" y2="368.5944"/><ellipse cx="30.7292" cy="429.4149" fill="#84BE84" rx="3.125" ry="3.125" style="stroke:#038048;stroke-width:1.0416666666666667;"/><text fill="#D8BC00" font-family="Open Sans,Avenir,Nunito,Arial,Helvetica,SansSerif" font-size="11.4583" lengthAdjust="spacing" textLength="85.4167" x="42.1875" y="436.3261">Coordinate to()</text><line style="stroke:#5E5E5E;stroke-width:1.0416666666666667;" x1="20.3125" x2="128.125" y1="412.2508" y2="412.2508"/><text fill="#D8BC00" font-family="Open Sans,Avenir,Nunito,Arial,Helvetica,SansSerif" font-size="11.4583" lengthAdjust="spacing" textLength="70.8333" x="131.25" y="416.0604">(conversion)</text><line style="stroke:#5E5E5E;stroke-width:1.0416666666666667;" x1="205.2083" x2="313.0208" y1="412.2508" y2="412.2508"/><ellipse cx="30.7292" cy="473.0713" fill="#84BE84" rx="3.125" ry="3.125" style="stroke:#038048;stroke-width:1.0416666666666667;"/><text fill="#D8BC00" font-family="Open Sans,Avenir,Nunito,Arial,Helvetica,SansSerif" font-size="11.4583" lengthAdjust="spacing" textLength="179.1667" x="42.1875" y="479.9825">Line withFrom(Coordinate from)</text><ellipse cx="30.7292" cy="492.8162" fill="#84BE84" rx="3.125" ry="3.125" style="stroke:#038048;stroke-width:1.0416666666666667;"/><text fill="#D8BC00" font-family="Open Sans,Avenir,Nunito,Arial,Helvetica,SansSerif" font-size="11.4583" lengthAdjust="spacing" textLength="211.4583" x="42.1875" y="499.7274">Line withOffset(CoordinateSize offset)</text><ellipse cx="30.7292" cy="512.561" fill="#84BE84" rx="3.125" ry="3.125" style="stroke:#038048;stroke-width:1.0416666666666667;"/><text fill="#D8BC00" font-family="Open Sans,Avenir,Nunito,Arial,Helvetica,SansSerif" font-size="11.4583" lengthAdjust="spacing" textLength="148.9583" x="42.1875" y="519.4722">Line withTo(Coordinate to)</text><line style="stroke:#5E5E5E;stroke-width:1.0416666666666667;" x1="20.3125" x2="131.25" y1="455.9072" y2="455.9072"/><text fill="#D8BC00" font-family="Open Sans,Avenir,Nunito,Arial,Helvetica,SansSerif" font-size="11.4583" lengthAdjust="spacing" textLength="64.5833" x="134.375" y="459.7168">(functional)</text><line style="stroke:#5E5E5E;stroke-width:1.0416666666666667;" x1="202.0833" x2="313.0208" y1="455.9072" y2="455.9072"/><!--MD5=[b727a74f0a0526f8ad7898b6777dff1a]
class Arrow--><rect codeLine="9" fill="#282828" height="174.8576" id="Arrow" rx="8.3333" ry="8.3333" style="stroke:#5E5E5E;stroke-width:1.0416666666666667;" width="318.75" x="7.2917" y="591.2028"/><rect fill="#1B1B1A" height="31.3883" rx="8.3333" ry="8.3333" style="stroke:#1B1B1A;stroke-width:1.0416666666666667;" width="318.75" x="7.2917" y="591.2028"/><rect fill="#1B1B1A" height="8.3333" style="stroke:#1B1B1A;stroke-width:1.0416666666666667;" width="318.75" x="7.2917" y="614.2578"/><rect codeLine="9" fill="none" height="174.8576" id="Arrow" rx="8.3333" ry="8.3333" style="stroke:#5E5E5E;stroke-width:1.0416666666666667;" width="318.75" x="7.2917" y="591.2028"/><ellipse cx="140.1042" cy="606.897" fill="#0066CF" rx="10.4167" ry="10.4167" style="stroke:#0086EF;stroke-width:1.0416666666666667;"/><path d="M142.0146,611.322 Q141.5873,611.5417 141.1174,611.6516 Q140.6474,611.7615 140.1286,611.7615 Q138.2853,611.7615 137.3149,610.5469 Q136.3444,609.3323 136.3444,607.0374 Q136.3444,604.7363 137.3149,603.5217 Q138.2853,602.3071 140.1286,602.3071 Q140.6474,602.3071 141.1235,602.417 Q141.5995,602.5269 142.0146,602.7466 L142.0146,604.7485 Q141.5507,604.3213 141.1143,604.1229 Q140.6779,603.9246 140.214,603.9246 Q139.2253,603.9246 138.7217,604.7089 Q138.2182,605.4932 138.2182,607.0374 Q138.2182,608.5754 138.7217,609.3597 Q139.2253,610.144 140.214,610.144 Q140.6779,610.144 141.1143,609.9457 Q141.5507,609.7473 142.0146,609.3201 Z " fill="#000000"/><text fill="#D8BC00" font-family="Open Sans,Avenir,Nunito,Arial,Helvetica,SansSerif" font-size="12.5" font-weight="bold" lengthAdjust="spacing" textLength="38.5417" x="163.0208" y="611.6211">Arrow</text><line style="stroke:#5E5E5E;stroke-width:1.5625;" x1="8.3333" x2="325" y1="622.5911" y2="622.5911"/><ellipse cx="18.75" cy="657.961" fill="#84BE84" rx="3.125" ry="3.125" style="stroke:#038048;stroke-width:1.0416666666666667;"/><text fill="#D8BC00" font-family="Open Sans,Avenir,Nunito,Arial,Helvetica,SansSerif" font-size="11.4583" lengthAdjust="spacing" textLength="206.25" x="30.2083" y="664.8722">Arrow(Style, Coordinate, Coordinate)</text><line style="stroke:#5E5E5E;stroke-width:1.0416666666666667;" x1="8.3333" x2="122.9167" y1="640.7969" y2="640.7969"/><text fill="#D8BC00" font-family="Open Sans,Avenir,Nunito,Arial,Helvetica,SansSerif" font-size="11.4583" lengthAdjust="spacing" textLength="81.25" x="126.0417" y="644.6065">(constructors)</text><line style="stroke:#5E5E5E;stroke-width:1.0416666666666667;" x1="210.4167" x2="325" y1="640.7969" y2="640.7969"/><line style="stroke:#5E5E5E;stroke-width:1.0416666666666667;" x1="8.3333" x2="325" y1="674.5809" y2="674.5809"/><ellipse cx="18.75" cy="686.0392" fill="#84BE84" rx="3.125" ry="3.125" style="stroke:#038048;stroke-width:1.0416666666666667;"/><text fill="#D8BC00" font-family="Open Sans,Avenir,Nunito,Arial,Helvetica,SansSerif" font-size="11.4583" lengthAdjust="spacing" textLength="286.4583" x="30.2083" y="692.9504">Arrow arrow(Style, Coordinate from, Coordinate to)</text><ellipse cx="18.75" cy="729.6956" fill="#84BE84" rx="3.125" ry="3.125" style="stroke:#038048;stroke-width:1.0416666666666667;"/><text fill="#D8BC00" font-family="Open Sans,Avenir,Nunito,Arial,Helvetica,SansSerif" font-size="11.4583" lengthAdjust="spacing" textLength="275" x="30.2083" y="736.6069">Arrow withFromArrowHead(Drawable arrowHead)</text><ellipse cx="18.75" cy="749.4405" fill="#84BE84" rx="3.125" ry="3.125" style="stroke:#038048;stroke-width:1.0416666666666667;"/><text fill="#D8BC00" font-family="Open Sans,Avenir,Nunito,Arial,Helvetica,SansSerif" font-size="11.4583" lengthAdjust="spacing" textLength="260.4167" x="30.2083" y="756.3517">Arrow withToArrowHead(Drawable arrowHead)</text><line style="stroke:#5E5E5E;stroke-width:1.0416666666666667;" x1="8.3333" x2="131.25" y1="712.5315" y2="712.5315"/><text fill="#D8BC00" font-family="Open Sans,Avenir,Nunito,Arial,Helvetica,SansSerif" font-size="11.4583" lengthAdjust="spacing" textLength="64.5833" x="134.375" y="716.3411">(functional)</text><line style="stroke:#5E5E5E;stroke-width:1.0416666666666667;" x1="202.0833" x2="325" y1="712.5315" y2="712.5315"/><!--MD5=[e54af2a3dfd72988f8d17c8016ff295d]
class Box--><rect codeLine="21" fill="#282828" height="174.8576" id="Box" rx="8.3333" ry="8.3333" style="stroke:#5E5E5E;stroke-width:1.0416666666666667;" width="193.75" x="351.0417" y="258.9111"/><rect fill="#1B1B1A" height="31.3883" rx="8.3333" ry="8.3333" style="stroke:#1B1B1A;stroke-width:1.0416666666666667;" width="193.75" x="351.0417" y="258.9111"/><rect fill="#1B1B1A" height="8.3333" style="stroke:#1B1B1A;stroke-width:1.0416666666666667;" width="193.75" x="351.0417" y="281.9661"/><rect codeLine="21" fill="none" height="174.8576" id="Box" rx="8.3333" ry="8.3333" style="stroke:#5E5E5E;stroke-width:1.0416666666666667;" width="193.75" x="351.0417" y="258.9111"/><ellipse cx="428.6458" cy="274.6053" fill="#0066CF" rx="10.4167" ry="10.4167" style="stroke:#0086EF;stroke-width:1.0416666666666667;"/><path d="M430.5562,279.0304 Q430.129,279.2501 429.659,279.3599 Q429.189,279.4698 428.6702,279.4698 Q426.827,279.4698 425.8565,278.2552 Q424.8861,277.0406 424.8861,274.7457 Q424.8861,272.4447 425.8565,271.2301 Q426.827,270.0155 428.6702,270.0155 Q429.189,270.0155 429.6651,270.1253 Q430.1412,270.2352 430.5562,270.4549 L430.5562,272.4569 Q430.0924,272.0296 429.656,271.8313 Q429.2196,271.6329 428.7557,271.6329 Q427.7669,271.6329 427.2634,272.4172 Q426.7598,273.2015 426.7598,274.7457 Q426.7598,276.2838 427.2634,277.0681 Q427.7669,277.8524 428.7557,277.8524 Q429.2196,277.8524 429.656,277.654 Q430.0924,277.4556 430.5562,277.0284 Z " fill="#000000"/><text fill="#D8BC00" font-family="Open Sans,Avenir,Nunito,Arial,Helvetica,SansSerif" font-size="12.5" font-weight="bold" lengthAdjust="spacing" textLength="23.9583" x="451.5625" y="279.3294">Box</text><line style="stroke:#5E5E5E;stroke-width:1.5625;" x1="352.0833" x2="543.75" y1="290.2995" y2="290.2995"/><polygon fill="#FFFF44" points="362.5,320.461,366.6667,324.6277,362.5,328.7944,358.3333,324.6277" style="stroke:#B38D22;stroke-width:1.0416666666666667;"/><text fill="#D8BC00" font-family="Open Sans,Avenir,Nunito,Arial,Helvetica,SansSerif" font-size="11.4583" lengthAdjust="spacing" textLength="50" x="373.9583" y="332.5806">Box(Box)</text><polygon fill="#FFFF44" points="362.5,340.2059,366.6667,344.3726,362.5,348.5392,358.3333,344.3726" style="stroke:#B38D22;stroke-width:1.0416666666666667;"/><text fill="#D8BC00" font-family="Open Sans,Avenir,Nunito,Arial,Helvetica,SansSerif" font-size="11.4583" lengthAdjust="spacing" textLength="55.2083" x="373.9583" y="352.3254">Box(Style)</text><line style="stroke:#5E5E5E;stroke-width:1.0416666666666667;" x1="352.0833" x2="404.1667" y1="308.5052" y2="308.5052"/><text fill="#D8BC00" font-family="Open Sans,Avenir,Nunito,Arial,Helvetica,SansSerif" font-size="11.4583" lengthAdjust="spacing" textLength="81.25" x="407.2917" y="312.3149">(constructors)</text><line style="stroke:#5E5E5E;stroke-width:1.0416666666666667;" x1="491.6667" x2="543.75" y1="308.5052" y2="308.5052"/><line style="stroke:#5E5E5E;stroke-width:1.0416666666666667;" x1="352.0833" x2="543.75" y1="362.0341" y2="362.0341"/><ellipse cx="362.5" cy="373.4924" fill="#84BE84" rx="3.125" ry="3.125" style="stroke:#038048;stroke-width:1.0416666666666667;"/><text fill="#D8BC00" font-family="Open Sans,Avenir,Nunito,Arial,Helvetica,SansSerif" font-size="11.4583" lengthAdjust="spacing" textLength="80.2083" x="373.9583" y="380.4036">Box box(Style)</text><ellipse cx="362.5" cy="417.1488" fill="#84BE84" rx="3.125" ry="3.125" style="stroke:#038048;stroke-width:1.0416666666666667;"/><text fill="#D8BC00" font-family="Open Sans,Avenir,Nunito,Arial,Helvetica,SansSerif" font-size="11.4583" lengthAdjust="spacing" textLength="161.4583" x="373.9583" y="424.0601">Box withSize(CoordinateSize)</text><line style="stroke:#5E5E5E;stroke-width:1.0416666666666667;" x1="352.0833" x2="413.5417" y1="399.9847" y2="399.9847"/><text fill="#D8BC00" font-family="Open Sans,Avenir,Nunito,Arial,Helvetica,SansSerif" font-size="11.4583" lengthAdjust="spacing" textLength="62.5" x="416.6667" y="403.7944">(collection)</text><line style="stroke:#5E5E5E;stroke-width:1.0416666666666667;" x1="482.2917" x2="543.75" y1="399.9847" y2="399.9847"/><!--MD5=[dd8a4c39a55de402715073e2862d1c2e]
class Dot--><rect codeLine="33" fill="#282828" height="155.1127" id="Dot" rx="8.3333" ry="8.3333" style="stroke:#5E5E5E;stroke-width:1.0416666666666667;" width="272.9167" x="581.25" y="268.807"/><rect fill="#1B1B1A" height="31.3883" rx="8.3333" ry="8.3333" style="stroke:#1B1B1A;stroke-width:1.0416666666666667;" width="272.9167" x="581.25" y="268.807"/><rect fill="#1B1B1A" height="8.3333" style="stroke:#1B1B1A;stroke-width:1.0416666666666667;" width="272.9167" x="581.25" y="291.862"/><rect codeLine="33" fill="none" height="155.1127" id="Dot" rx="8.3333" ry="8.3333" style="stroke:#5E5E5E;stroke-width:1.0416666666666667;" width="272.9167" x="581.25" y="268.807"/><ellipse cx="698.4375" cy="284.5011" fill="#0066CF" rx="10.4167" ry="10.4167" style="stroke:#0086EF;stroke-width:1.0416666666666667;"/><path d="M700.3479,288.9262 Q699.9207,289.1459 699.4507,289.2558 Q698.9807,289.3656 698.4619,289.3656 Q696.6187,289.3656 695.6482,288.151 Q694.6777,286.9364 694.6777,284.6415 Q694.6777,282.3405 695.6482,281.1259 Q696.6187,279.9113 698.4619,279.9113 Q698.9807,279.9113 699.4568,280.0212 Q699.9329,280.131 700.3479,280.3507 L700.3479,282.3527 Q699.884,281.9255 699.4476,281.7271 Q699.0112,281.5287 698.5474,281.5287 Q697.5586,281.5287 697.0551,282.313 Q696.5515,283.0973 696.5515,284.6415 Q696.5515,286.1796 697.0551,286.9639 Q697.5586,287.7482 698.5474,287.7482 Q699.0112,287.7482 699.4476,287.5498 Q699.884,287.3515 700.3479,286.9242 Z " fill="#000000"/><text fill="#D8BC00" font-family="Open Sans,Avenir,Nunito,Arial,Helvetica,SansSerif" font-size="12.5" font-weight="bold" lengthAdjust="spacing" textLength="23.9583" x="721.3542" y="289.2253">Dot</text><line style="stroke:#5E5E5E;stroke-width:1.5625;" x1="582.2917" x2="853.125" y1="300.1953" y2="300.1953"/><polygon fill="#FFFF44" points="592.7083,330.3569,596.875,334.5235,592.7083,338.6902,588.5417,334.5235" style="stroke:#B38D22;stroke-width:1.0416666666666667;"/><text fill="#D8BC00" font-family="Open Sans,Avenir,Nunito,Arial,Helvetica,SansSerif" font-size="11.4583" lengthAdjust="spacing" textLength="54.1667" x="604.1667" y="342.4764">Dot(Style)</text><line style="stroke:#5E5E5E;stroke-width:1.0416666666666667;" x1="582.2917" x2="673.9583" y1="318.4011" y2="318.4011"/><text fill="#D8BC00" font-family="Open Sans,Avenir,Nunito,Arial,Helvetica,SansSerif" font-size="11.4583" lengthAdjust="spacing" textLength="81.25" x="677.0833" y="322.2107">(constructors)</text><line style="stroke:#5E5E5E;stroke-width:1.0416666666666667;" x1="761.4583" x2="853.125" y1="318.4011" y2="318.4011"/><line style="stroke:#5E5E5E;stroke-width:1.0416666666666667;" x1="582.2917" x2="853.125" y1="352.1851" y2="352.1851"/><ellipse cx="592.7083" cy="363.6434" fill="#84BE84" rx="3.125" ry="3.125" style="stroke:#038048;stroke-width:1.0416666666666667;"/><text fill="#D8BC00" font-family="Open Sans,Avenir,Nunito,Arial,Helvetica,SansSerif" font-size="11.4583" lengthAdjust="spacing" textLength="76.0417" x="604.1667" y="370.5546">Dot dot(Style)</text><ellipse cx="592.7083" cy="407.2998" fill="#84BE84" rx="3.125" ry="3.125" style="stroke:#038048;stroke-width:1.0416666666666667;"/><text fill="#D8BC00" font-family="Open Sans,Avenir,Nunito,Arial,Helvetica,SansSerif" font-size="11.4583" lengthAdjust="spacing" textLength="240.625" x="604.1667" y="414.211">Dot withRadius(CoordinateDistance radius)</text><line style="stroke:#5E5E5E;stroke-width:1.0416666666666667;" x1="582.2917" x2="682.2917" y1="390.1357" y2="390.1357"/><text fill="#D8BC00" font-family="Open Sans,Avenir,Nunito,Arial,Helvetica,SansSerif" font-size="11.4583" lengthAdjust="spacing" textLength="64.5833" x="685.4167" y="393.9453">(functional)</text><line style="stroke:#5E5E5E;stroke-width:1.0416666666666667;" x1="753.125" x2="853.125" y1="390.1357" y2="390.1357"/><!--MD5=[e84c991d4d3bbf916ee1653c86a9249d]
class Label--><rect codeLine="44" fill="#282828" height="214.3473" id="Label" rx="8.3333" ry="8.3333" style="stroke:#5E5E5E;stroke-width:1.0416666666666667;" width="191.6667" x="890.625" y="239.1195"/><rect fill="#1B1B1A" height="31.3883" rx="8.3333" ry="8.3333" style="stroke:#1B1B1A;stroke-width:1.0416666666666667;" width="191.6667" x="890.625" y="239.1195"/><rect fill="#1B1B1A" height="8.3333" style="stroke:#1B1B1A;stroke-width:1.0416666666666667;" width="191.6667" x="890.625" y="262.1745"/><rect codeLine="44" fill="none" height="214.3473" id="Label" rx="8.3333" ry="8.3333" style="stroke:#5E5E5E;stroke-width:1.0416666666666667;" width="191.6667" x="890.625" y="239.1195"/><ellipse cx="961.9792" cy="254.8136" fill="#0066CF" rx="10.4167" ry="10.4167" style="stroke:#0086EF;stroke-width:1.0416666666666667;"/><path d="M963.8896,259.2387 Q963.4623,259.4584 962.9924,259.5683 Q962.5224,259.6781 962.0036,259.6781 Q960.1603,259.6781 959.1899,258.4635 Q958.2194,257.2489 958.2194,254.954 Q958.2194,252.653 959.1899,251.4384 Q960.1603,250.2238 962.0036,250.2238 Q962.5224,250.2238 962.9985,250.3337 Q963.4745,250.4435 963.8896,250.6632 L963.8896,252.6652 Q963.4257,252.238 962.9893,252.0396 Q962.5529,251.8412 962.089,251.8412 Q961.1003,251.8412 960.5967,252.6255 Q960.0932,253.4098 960.0932,254.954 Q960.0932,256.4921 960.5967,257.2764 Q961.1003,258.0607 962.089,258.0607 Q962.5529,258.0607 962.9893,257.8623 Q963.4257,257.664 963.8896,257.2367 Z " fill="#000000"/><text fill="#D8BC00" font-family="Open Sans,Avenir,Nunito,Arial,Helvetica,SansSerif" font-size="12.5" font-weight="bold" lengthAdjust="spacing" textLength="34.375" x="984.8958" y="259.5378">Label</text><line style="stroke:#5E5E5E;stroke-width:1.5625;" x1="891.6667" x2="1081.25" y1="270.5078" y2="270.5078"/><polygon fill="#FFFF44" points="902.0833,300.6694,906.25,304.836,902.0833,309.0027,897.9167,304.836" style="stroke:#B38D22;stroke-width:1.0416666666666667;"/><text fill="#D8BC00" font-family="Open Sans,Avenir,Nunito,Arial,Helvetica,SansSerif" font-size="11.4583" lengthAdjust="spacing" textLength="66.6667" x="913.5417" y="312.7889">Label(Label)</text><polygon fill="#FFFF44" points="902.0833,320.4142,906.25,324.5809,902.0833,328.7476,897.9167,324.5809" style="stroke:#B38D22;stroke-width:1.0416666666666667;"/><text fill="#D8BC00" font-family="Open Sans,Avenir,Nunito,Arial,Helvetica,SansSerif" font-size="11.4583" lengthAdjust="spacing" textLength="103.125" x="913.5417" y="332.5338">Label(Style, String)</text><line style="stroke:#5E5E5E;stroke-width:1.0416666666666667;" x1="891.6667" x2="942.7083" y1="288.7136" y2="288.7136"/><text fill="#D8BC00" font-family="Open Sans,Avenir,Nunito,Arial,Helvetica,SansSerif" font-size="11.4583" lengthAdjust="spacing" textLength="81.25" x="945.8333" y="292.5232">(constructors)</text><line style="stroke:#5E5E5E;stroke-width:1.0416666666666667;" x1="1030.2083" x2="1081.25" y1="288.7136" y2="288.7136"/><line style="stroke:#5E5E5E;stroke-width:1.0416666666666667;" x1="891.6667" x2="1081.25" y1="342.2424" y2="342.2424"/><ellipse cx="902.0833" cy="353.7008" fill="#84BE84" rx="3.125" ry="3.125" style="stroke:#038048;stroke-width:1.0416666666666667;"/><text fill="#D8BC00" font-family="Open Sans,Avenir,Nunito,Arial,Helvetica,SansSerif" font-size="11.4583" lengthAdjust="spacing" textLength="92.7083" x="913.5417" y="360.612">Label label(Style)</text><ellipse cx="902.0833" cy="373.4456" fill="#84BE84" rx="3.125" ry="3.125" style="stroke:#038048;stroke-width:1.0416666666666667;"/><text fill="#D8BC00" font-family="Open Sans,Avenir,Nunito,Arial,Helvetica,SansSerif" font-size="11.4583" lengthAdjust="spacing" textLength="157.2917" x="913.5417" y="380.3569">Label label(Style, String text)</text><ellipse cx="902.0833" cy="417.1021" fill="#84BE84" rx="3.125" ry="3.125" style="stroke:#038048;stroke-width:1.0416666666666667;"/><text fill="#D8BC00" font-family="Open Sans,Avenir,Nunito,Arial,Helvetica,SansSerif" font-size="11.4583" lengthAdjust="spacing" textLength="159.375" x="913.5417" y="424.0133">Label withMargin(int margin)</text><ellipse cx="902.0833" cy="436.8469" fill="#84BE84" rx="3.125" ry="3.125" style="stroke:#038048;stroke-width:1.0416666666666667;"/><text fill="#D8BC00" font-family="Open Sans,Avenir,Nunito,Arial,Helvetica,SansSerif" font-size="11.4583" lengthAdjust="spacing" textLength="146.875" x="913.5417" y="443.7581">Label withText(String text)</text><line style="stroke:#5E5E5E;stroke-width:1.0416666666666667;" x1="891.6667" x2="951.0417" y1="399.9379" y2="399.9379"/><text fill="#D8BC00" font-family="Open Sans,Avenir,Nunito,Arial,Helvetica,SansSerif" font-size="11.4583" lengthAdjust="spacing" textLength="64.5833" x="954.1667" y="403.7476">(functional)</text><line style="stroke:#5E5E5E;stroke-width:1.0416666666666667;" x1="1021.875" x2="1081.25" y1="399.9379" y2="399.9379"/><!--MD5=[02a8746eb15ecbb4566dafa16ea4db73]
class Text--><rect codeLine="79" fill="#282828" height="194.6025" id="Text" rx="8.3333" ry="8.3333" style="stroke:#5E5E5E;stroke-width:1.0416666666666667;" width="181.25" x="1118.75" y="249.0153"/><rect fill="#1B1B1A" height="31.3883" rx="8.3333" ry="8.3333" style="stroke:#1B1B1A;stroke-width:1.0416666666666667;" width="181.25" x="1118.75" y="249.0153"/><rect fill="#1B1B1A" height="8.3333" style="stroke:#1B1B1A;stroke-width:1.0416666666666667;" width="181.25" x="1118.75" y="272.0703"/><rect codeLine="79" fill="none" height="194.6025" id="Text" rx="8.3333" ry="8.3333" style="stroke:#5E5E5E;stroke-width:1.0416666666666667;" width="181.25" x="1118.75" y="249.0153"/><ellipse cx="1188.0208" cy="264.7095" fill="#0066CF" rx="10.4167" ry="10.4167" style="stroke:#0086EF;stroke-width:1.0416666666666667;"/><path d="M1189.9312,269.1345 Q1189.504,269.3542 1189.034,269.4641 Q1188.564,269.574 1188.0452,269.574 Q1186.202,269.574 1185.2315,268.3594 Q1184.2611,267.1448 1184.2611,264.8499 Q1184.2611,262.5488 1185.2315,261.3342 Q1186.202,260.1196 1188.0452,260.1196 Q1188.564,260.1196 1189.0401,260.2295 Q1189.5162,260.3394 1189.9312,260.5591 L1189.9312,262.561 Q1189.4674,262.1338 1189.031,261.9354 Q1188.5946,261.7371 1188.1307,261.7371 Q1187.1419,261.7371 1186.6384,262.5214 Q1186.1348,263.3057 1186.1348,264.8499 Q1186.1348,266.3879 1186.6384,267.1722 Q1187.1419,267.9565 1188.1307,267.9565 Q1188.5946,267.9565 1189.031,267.7582 Q1189.4674,267.5598 1189.9312,267.1326 Z " fill="#000000"/><text fill="#D8BC00" font-family="Open Sans,Avenir,Nunito,Arial,Helvetica,SansSerif" font-size="12.5" font-weight="bold" lengthAdjust="spacing" textLength="28.125" x="1210.9375" y="269.4336">Text</text><line style="stroke:#5E5E5E;stroke-width:1.5625;" x1="1119.7917" x2="1298.9583" y1="280.4036" y2="280.4036"/><polygon fill="#FFFF44" points="1130.2083,310.5652,1134.375,314.7319,1130.2083,318.8985,1126.0417,314.7319" style="stroke:#B38D22;stroke-width:1.0416666666666667;"/><text fill="#D8BC00" font-family="Open Sans,Avenir,Nunito,Arial,Helvetica,SansSerif" font-size="11.4583" lengthAdjust="spacing" textLength="98.9583" x="1141.6667" y="322.6847">Text(Style, String)</text><polygon fill="#FFFF44" points="1130.2083,330.3101,1134.375,334.4767,1130.2083,338.6434,1126.0417,334.4767" style="stroke:#B38D22;stroke-width:1.0416666666666667;"/><text fill="#D8BC00" font-family="Open Sans,Avenir,Nunito,Arial,Helvetica,SansSerif" font-size="11.4583" lengthAdjust="spacing" textLength="58.3333" x="1141.6667" y="342.4296">Text(Text)</text><line style="stroke:#5E5E5E;stroke-width:1.0416666666666667;" x1="1119.7917" x2="1165.625" y1="298.6094" y2="298.6094"/><text fill="#D8BC00" font-family="Open Sans,Avenir,Nunito,Arial,Helvetica,SansSerif" font-size="11.4583" lengthAdjust="spacing" textLength="81.25" x="1168.75" y="302.419">(constructors)</text><line style="stroke:#5E5E5E;stroke-width:1.0416666666666667;" x1="1253.125" x2="1298.9583" y1="298.6094" y2="298.6094"/><line style="stroke:#5E5E5E;stroke-width:1.0416666666666667;" x1="1119.7917" x2="1298.9583" y1="352.1383" y2="352.1383"/><ellipse cx="1130.2083" cy="363.5966" fill="#84BE84" rx="3.125" ry="3.125" style="stroke:#038048;stroke-width:1.0416666666666667;"/><text fill="#D8BC00" font-family="Open Sans,Avenir,Nunito,Arial,Helvetica,SansSerif" font-size="11.4583" lengthAdjust="spacing" textLength="148.9583" x="1141.6667" y="370.5078">Text text(Style, String text)</text><ellipse cx="1130.2083" cy="383.3415" fill="#84BE84" rx="3.125" ry="3.125" style="stroke:#038048;stroke-width:1.0416666666666667;"/><text fill="#D8BC00" font-family="Open Sans,Avenir,Nunito,Arial,Helvetica,SansSerif" font-size="11.4583" lengthAdjust="spacing" textLength="84.375" x="1141.6667" y="390.2527">Text text(Style)</text><ellipse cx="1130.2083" cy="426.9979" fill="#84BE84" rx="3.125" ry="3.125" style="stroke:#038048;stroke-width:1.0416666666666667;"/><text fill="#D8BC00" font-family="Open Sans,Avenir,Nunito,Arial,Helvetica,SansSerif" font-size="11.4583" lengthAdjust="spacing" textLength="142.7083" x="1141.6667" y="433.9091">Text withText(String text)</text><line style="stroke:#5E5E5E;stroke-width:1.0416666666666667;" x1="1119.7917" x2="1173.9583" y1="409.8338" y2="409.8338"/><text fill="#D8BC00" font-family="Open Sans,Avenir,Nunito,Arial,Helvetica,SansSerif" font-size="11.4583" lengthAdjust="spacing" textLength="64.5833" x="1177.0833" y="413.6434">(functional)</text><line style="stroke:#5E5E5E;stroke-width:1.0416666666666667;" x1="1244.7917" x2="1298.9583" y1="409.8338" y2="409.8338"/><!--MD5=[2bcf42e6d066f6cf22cd9cc35ed0c382]
reverse link Line to Arrow--><path codeLine="8" d="M166.6667,550.0465 C166.6667,564.2757 166.6667,578.109 166.6667,591.0882 " fill="none" id="Line-backto-Arrow" style="stroke:#545454;stroke-width:1.5625;"/><polygon fill="none" points="159.375,549.807,166.6667,528.9736,173.9583,549.807,159.375,549.807" style="stroke:#545454;stroke-width:1.5625;"/><!--MD5=[c8fb59f8442d0af1c234059ad5cac469]
reverse link BaseDrawable to Box--><path codeLine="20" d="M642.3021,110.9632 C615.4896,124.7757 586.3229,142.7028 563.5417,164.1195 C534.9896,190.9632 510.4063,226.2757 491.3333,258.5986 " fill="none" id="BaseDrawable-backto-Box" style="stroke:#545454;stroke-width:1.5625;"/><polygon fill="none" points="639.375,104.2757,661.2917,101.6403,645.8021,117.3695,639.375,104.2757" style="stroke:#545454;stroke-width:1.5625;"/><!--MD5=[b82ec0a26421c4848fe041c0f79dba25]
reverse link BaseDrawable to Dot--><path codeLine="32" d="M717.7083,122.734 C717.7083,162.3486 717.7083,221.4215 717.7083,268.7653 " fill="none" id="BaseDrawable-backto-Dot" style="stroke:#545454;stroke-width:1.5625;"/><polygon fill="none" points="710.4167,122.734,717.7083,101.9007,725,122.734,710.4167,122.734" style="stroke:#545454;stroke-width:1.5625;"/><!--MD5=[cd5d4e3efe5b3144a0f945a5449b3f93]
reverse link BaseDrawable to Label--><path codeLine="43" d="M794.0417,110.932 C820.9583,124.7028 850.1667,142.6195 872.9167,164.1195 C895.5833,185.5465 915.6042,212.4215 932.2708,238.8695 " fill="none" id="BaseDrawable-backto-Label" style="stroke:#545454;stroke-width:1.5625;"/><polygon fill="none" points="790.5104,117.3278,774.9688,101.6507,796.8958,104.2132,790.5104,117.3278" style="stroke:#545454;stroke-width:1.5625;"/><!--MD5=[8bac47cf8257931185f1f41fc2abc2d9]
reverse link BaseDrawable to Line--><path codeLine="57" d="M632.8125,82.9736 C551.2188,90.307 426.8438,110.2132 333.3333,164.1195 C326.8542,167.859 320.4792,171.932 314.2292,176.2757 " fill="none" id="BaseDrawable-backto-Line" style="stroke:#545454;stroke-width:1.5625;"/><polygon fill="none" points="632.2604,75.7028,653.6146,81.2861,633.4375,90.234,632.2604,75.7028" style="stroke:#545454;stroke-width:1.5625;"/><!--MD5=[f219a17654ba59780fe210ebac3032f8]
reverse link BaseDrawable to Text--><path codeLine="78" d="M802.9375,78.8382 C886.2396,83.0153 1013.0521,100.5465 1101.0417,164.1195 C1130.6042,185.484 1153.5521,217.6195 1170.5625,248.932 " fill="none" id="BaseDrawable-backto-Text" style="stroke:#545454;stroke-width:1.5625;"/><polygon fill="none" points="802.4896,86.1195,781.9583,78.0257,803.0625,71.5465,802.4896,86.1195" style="stroke:#545454;stroke-width:1.5625;"/><!--MD5=[aef23822367cd2f1440c839de477c470]
@startuml

    !include lexakai.theme
    
    title "com.telenav.kivakit.ui.swing.graphics.drawing.drawables"
    
    abstract BaseDrawable
    
    Line <|- - Arrow
    class Arrow
    {
        - -(constructors)- -
        +Arrow(Style, Coordinate, Coordinate)
        - -
        +Arrow arrow(Style, Coordinate from, Coordinate to)
        - -(functional)- -
        +Arrow withFromArrowHead(Drawable arrowHead)
        +Arrow withToArrowHead(Drawable arrowHead)
    }
    
    BaseDrawable <|- - Box
    class Box
    {
        - -(constructors)- -
        #Box(Box)
        #Box(Style)
        - -
        +Box box(Style)
        - -(collection)- -
        +Box withSize(CoordinateSize)
    }
    
    BaseDrawable <|- - Dot
    class Dot
    {
        - -(constructors)- -
        #Dot(Style)
        - -
        +Dot dot(Style)
        - -(functional)- -
        +Dot withRadius(CoordinateDistance radius)
    }
    
    BaseDrawable <|- - Label
    class Label
    {
        - -(constructors)- -
        #Label(Label)
        #Label(Style, String)
        - -
        +Label label(Style)
        +Label label(Style, String text)
        - -(functional)- -
        +Label withMargin(int margin)
        +Label withText(String text)
    }
    
    BaseDrawable <|- - Line
    class Line
    {
        - -(constructors)- -
        #Line(Line)
        #Line(Style, Coordinate, CoordinateSize)
        - -
        +Coordinate from()
        +Line line(Style, Coordinate from, Coordinate to)
        - -(angle)- -
        +CoordinateSlope angle(CoordinateSystem)
        - -(collection)- -
        +CoordinateSize offset()
        - -(conversion)- -
        +Coordinate to()
        - -(functional)- -
        +Line withFrom(Coordinate from)
        +Line withOffset(CoordinateSize offset)
        +Line withTo(Coordinate to)
    }
    
    BaseDrawable <|- - Text
    class Text
    {
        - -(constructors)- -
        #Text(Style, String)
        #Text(Text)
        - -
        +Text text(Style, String text)
        +Text text(Style)
        - -(functional)- -
        +Text withText(String text)
    }
    
@enduml

@startuml









skinparam backgroundColor #333333






skinparam  {
    defaultFontName   "Open Sans,Avenir,Nunito,Arial,Helvetica,SansSerif"
    defaultFontSize   12
    defaultTextAlignment left
    shadowing false
    RoundCorner 10
    TitleFontSize 18
}

skinparam defaultFontName       "Open Sans,Avenir,Nunito,Arial,Helvetica,SansSerif"
skinparam defaultFontSize       12
skinparam dpi                   100
skinparam shadowing             false
skinparam roundcorner           16
skinparam ParticipantPadding    40
skinparam BoxPadding            40
skinparam Padding               3
skinparam ArrowColor            #545454
skinparam stereotype {
    CBackgroundColor #0066cf
    CBorderColor #0086ef
    ABackgroundColor #C8Ac00
    ABorderColor #D8Bc00
    IBackgroundColor #008400
    IBorderColor #239c23
    EBackgroundColor #cf6300
    EBorderColor #ef8300
    NBackgroundColor #3380b9
    NBorderColor #004d86
}
skinparam title {
	FontColor	                 #c0c0c0
 	BorderColor                  #545454
	FontSize	    	         20
	BorderRoundCorner            16
	BorderThickness 	         1
	BackgroundColor              #48494b
}


skinparam legend {
	BackgroundColor #303030
	BorderColor #404040
	FontColor #a0a0a0
}

	skinparam swimlane {
	BorderColor #5e5e5e
	BorderThickness 2
	TitleBackgroundColor  #6d6d6d-#484848
	TitleFontColor #303030
}

skinparam activity {
		FontColor #C8Ac00
	BorderColor #333333
	BackgroundColor #333333-#333333
	BarColor #00FF00
	StartColor #0060a8
	EndColor #0060a8
	DiamondBackgroundColor #6d6d6d-#3a3a3a
  	DiamondBorderColor #3a3a3a
  	DiamondFontColor #fefefe
}


skinparam participant {
		FontColor #C8Ac00
	BorderColor #333333
	BackgroundColor #333333-#333333
	ParticipantBorderThickness 2
}


skinparam actor {
		FontColor #C8Ac00
	BorderColor #333333
	BackgroundColor #333333-#333333
}


skinparam arrow {
	Thickness 1.5
	Color #545454
	FontColor #a0a0a0
    FontStyle bold
    MessageAlignment center
}



skinparam sequence {
	BorderColor #303030
	TitleFontColor #303030
	BackgroundColor #333333
	StartColor #303030
	EndColor #303030
	BoxBackgroundColor #333333
	BoxBorderColor #484848
	BoxFontColor #484848
	LifeLineBorderColor #484848
	LifeLineBorderThickness 2
	LifeLineBackgroundColor #3a3a3a
	GroupBorderColor #484848
	GroupFontColor #484848
	GroupHeaderFontColor #0060a8
	GroupBackgroundColor #484848
	GroupHeaderBackgroundColor #333333
	DividerBackgroundColor #484848
    DividerBorderColor #484848
    DividerBorderThickness 2
    DividerFontColor #D8Bc00
	ReferenceBackgroundColor #333333
	ReferenceBorderColor #484848
	ReferenceFontColor #fefefe
	ReferenceHeaderBackgroundColor #484848
}


skinparam partition {
	BorderColor #303030
	FontColor #333333
	BackgroundColor #333333
}


skinparam collections {
		FontColor #C8Ac00
	BorderColor #333333
	BackgroundColor #333333-#333333
}


skinparam control {
		FontColor #C8Ac00
	BorderColor #333333
	BackgroundColor #333333-#333333
}


skinparam entity {
		FontColor #C8Ac00
	BorderColor #333333
	BackgroundColor #333333-#333333
}


skinparam boundary {
		FontColor #C8Ac00
	BorderColor #333333
	BackgroundColor #333333-#333333
}


skinparam agent {
	BackgroundColor #ff8000
	BorderColor #ff9933
	FontColor #484848
}


skinparam note {
	BorderThickness 1
	BackgroundColor #1b1b1a
	BorderColor #5e5e5e
	FontSize 11
	FontColor #a0a0a0
}


skinparam artifact {
	BorderThickness 10
	BorderColor #5e5e5e
	BackgroundColor #1b1b1a
	FontColor #D8Bc00
}


skinparam component {
		FontColor #C8Ac00
	BorderColor #333333
	BackgroundColor #333333-#333333
}


skinparam interface {
	BackgroundColor  #008400
	BorderColor  #007F00
	FontColor #484848
}


skinparam storage {
	BackgroundColor #ff8000
  	BorderColor #cc6600
	FontColor #222222
}


skinparam node {
	BackgroundColor #333333
	BorderColor #333333
	FontColor #C8Ac00
}


skinparam cloud {
	BackgroundColor #484848-black
	BorderColor #484848
	FontColor #D8Bc00
}


skinparam database {
		FontColor #C8Ac00
	BorderColor #333333
	BackgroundColor #333333-#333333
	BackgroundColor  #333333
}


skinparam class {
		FontColor #C8Ac00
	BorderColor #333333
	BackgroundColor #333333-#333333
	HeaderBackgroundColor #1b1b1a
    BackgroundColor #282828
    BorderColor #5e5e5e
 	StereotypeFontColor #a0a0a0
    StereotypeFontStyle bold
	BorderThickness 1
	AttributeFontColor #D8Bc00
	AttributeFontSize 11
    FontColor #D8Bc00
    FontStyle bold
}


skinparam object {
		FontColor #C8Ac00
	BorderColor #333333
	BackgroundColor #333333-#333333
	StereotypeFontColor #484848
	BorderThickness 1
	AttributeFontColor #fefefe
	AttributeFontSize 11
}


skinparam usecase {
		FontColor #C8Ac00
	BorderColor #333333
	BackgroundColor #333333-#333333
	BorderThickness 2
	StereotypeFontColor #303030
}


skinparam rectangle {
		FontColor #C8Ac00
	BorderColor #333333
	BackgroundColor #333333-#333333
	BackgroundColor #333333
	BorderThickness 2
	StereotypeFontColor #303030
}


skinparam package {
		FontColor #C8Ac00
	BorderColor #333333
	BackgroundColor #333333-#333333
	BackgroundColor #333333
	BorderThickness 2
}


skinparam folder {
	BackgroundColor #6d6d6d
  	BorderColor #ff8000
	FontColor #ff8000
	BorderThickness 2
}


skinparam frame {
	BackgroundColor #6d6d6d
  	BorderColor #0060a8
	FontColor #0060a8
	BorderThickness 2
}


skinparam state {
		FontColor #C8Ac00
	BorderColor #333333
	BackgroundColor #333333-#333333
	StartColor #0060a8
	EndColor #0060a8
	AttributeFontColor #fefefe
	AttributeFontSize 11
}


skinparam queue {
		FontColor #C8Ac00
	BorderColor #333333
	BackgroundColor #333333-#333333
}


skinparam card {
	BackgroundColor #0060a8
	BorderColor #004d86
	FontColor $INFO_TEXT
}


skinparam file {
	BackgroundColor #6d6d6d-#484848
	BorderColor #0060a8
	FontColor #fefefe
}


skinparam stack {
		FontColor #C8Ac00
	BorderColor #333333
	BackgroundColor #333333-#333333
}

    
    title "com.telenav.kivakit.ui.swing.graphics.drawing.drawables"
    
    abstract BaseDrawable
    
    Line <|- - Arrow
    class Arrow
    {
        - -(constructors)- -
        +Arrow(Style, Coordinate, Coordinate)
        - -
        +Arrow arrow(Style, Coordinate from, Coordinate to)
        - -(functional)- -
        +Arrow withFromArrowHead(Drawable arrowHead)
        +Arrow withToArrowHead(Drawable arrowHead)
    }
    
    BaseDrawable <|- - Box
    class Box
    {
        - -(constructors)- -
        #Box(Box)
        #Box(Style)
        - -
        +Box box(Style)
        - -(collection)- -
        +Box withSize(CoordinateSize)
    }
    
    BaseDrawable <|- - Dot
    class Dot
    {
        - -(constructors)- -
        #Dot(Style)
        - -
        +Dot dot(Style)
        - -(functional)- -
        +Dot withRadius(CoordinateDistance radius)
    }
    
    BaseDrawable <|- - Label
    class Label
    {
        - -(constructors)- -
        #Label(Label)
        #Label(Style, String)
        - -
        +Label label(Style)
        +Label label(Style, String text)
        - -(functional)- -
        +Label withMargin(int margin)
        +Label withText(String text)
    }
    
    BaseDrawable <|- - Line
    class Line
    {
        - -(constructors)- -
        #Line(Line)
        #Line(Style, Coordinate, CoordinateSize)
        - -
        +Coordinate from()
        +Line line(Style, Coordinate from, Coordinate to)
        - -(angle)- -
        +CoordinateSlope angle(CoordinateSystem)
        - -(collection)- -
        +CoordinateSize offset()
        - -(conversion)- -
        +Coordinate to()
        - -(functional)- -
        +Line withFrom(Coordinate from)
        +Line withOffset(CoordinateSize offset)
        +Line withTo(Coordinate to)
    }
    
    BaseDrawable <|- - Text
    class Text
    {
        - -(constructors)- -
        #Text(Style, String)
        #Text(Text)
        - -
        +Text text(Style, String text)
        +Text text(Style)
        - -(functional)- -
        +Text withText(String text)
    }
    
@enduml

PlantUML version 1.2021.01(Tue Feb 02 00:55:08 MST 2021)
(GPL source distribution)
Java Runtime: Java(TM) SE Runtime Environment
JVM: Java HotSpot(TM) 64-Bit Server VM
Default Encoding: UTF-8
Language: en
Country: US
--></g></svg>