<?xml version="1.0" encoding="UTF-8" standalone="no"?><svg xmlns="http://www.w3.org/2000/svg" xmlns:xlink="http://www.w3.org/1999/xlink" contentScriptType="application/ecmascript" contentStyleType="text/css" height="218.75px" preserveAspectRatio="none" style="width:554px;height:218px;background:#333333;" version="1.1" viewBox="0 0 554 218" width="554.1667px" zoomAndPan="magnify"><defs/><g><rect fill="#48494B" height="41.2028" rx="8.3333" ry="8.3333" style="stroke:#545454;stroke-width:1.0416666666666667;" width="541.6667" x="2.0833" y="2.0833"/><text fill="#C0C0C0" font-family="Open Sans,Avenir,Nunito,Arial,Helvetica,SansSerif" font-size="20.8333" lengthAdjust="spacing" textLength="518.75" x="13.5417" y="30.5583">com.telenav.kivakit.filesystems.s3fs.internal.lexakai</text><rect codeLine="7" fill="#282828" height="48.055" id="UmlDiagramIdentifier" rx="8.3333" ry="8.3333" style="stroke:#5E5E5E;stroke-width:1.0416666666666667;" width="178.125" x="191.1458" y="53.7028"/><rect fill="#1B1B1A" height="31.3883" rx="8.3333" ry="8.3333" style="stroke:#1B1B1A;stroke-width:1.0416666666666667;" width="178.125" x="191.1458" y="53.7028"/><rect fill="#1B1B1A" height="8.3333" style="stroke:#1B1B1A;stroke-width:1.0416666666666667;" width="178.125" x="191.1458" y="76.7578"/><rect codeLine="7" fill="none" height="48.055" id="UmlDiagramIdentifier" rx="8.3333" ry="8.3333" style="stroke:#5E5E5E;stroke-width:1.0416666666666667;" width="178.125" x="191.1458" y="53.7028"/><ellipse cx="205.7292" cy="69.397" fill="#008400" rx="10.4167" ry="10.4167" style="stroke:#239C23;stroke-width:1.0416666666666667;"/><path d="M203.1331,66.5588 L203.1331,64.9719 L208.5592,64.9719 L208.5592,66.5588 L206.7464,66.5588 L206.7464,72.4976 L208.5592,72.4976 L208.5592,74.0845 L203.1331,74.0845 L203.1331,72.4976 L204.9459,72.4976 L204.9459,66.5588 Z " fill="#000000"/><text fill="#D8BC00" font-family="Open Sans,Avenir,Nunito,Arial,Helvetica,SansSerif" font-size="12.5" font-style="italic" font-weight="bold" lengthAdjust="spacing" textLength="140.625" x="222.3958" y="74.1211">UmlDiagramIdentifier</text><line style="stroke:#5E5E5E;stroke-width:1.0416666666666667;" x1="192.1875" x2="368.2292" y1="85.0911" y2="85.0911"/><line style="stroke:#5E5E5E;stroke-width:1.0416666666666667;" x1="192.1875" x2="368.2292" y1="93.4245" y2="93.4245"/><rect codeLine="10" fill="#282828" height="48.055" id="DiagramS3" rx="8.3333" ry="8.3333" style="stroke:#5E5E5E;stroke-width:1.0416666666666667;" width="108.3333" x="226.0417" y="164.1195"/><rect fill="#1B1B1A" height="31.3883" rx="8.3333" ry="8.3333" style="stroke:#1B1B1A;stroke-width:1.0416666666666667;" width="108.3333" x="226.0417" y="164.1195"/><rect fill="#1B1B1A" height="8.3333" style="stroke:#1B1B1A;stroke-width:1.0416666666666667;" width="108.3333" x="226.0417" y="187.1745"/><rect codeLine="10" fill="none" height="48.055" id="DiagramS3" rx="8.3333" ry="8.3333" style="stroke:#5E5E5E;stroke-width:1.0416666666666667;" width="108.3333" x="226.0417" y="164.1195"/><ellipse cx="240.625" cy="179.8136" fill="#0066CF" rx="10.4167" ry="10.4167" style="stroke:#0086EF;stroke-width:1.0416666666666667;"/><path d="M242.5354,184.2387 Q242.1082,184.4584 241.6382,184.5683 Q241.1682,184.6781 240.6494,184.6781 Q238.8062,184.6781 237.8357,183.4635 Q236.8652,182.2489 236.8652,179.954 Q236.8652,177.653 237.8357,176.4384 Q238.8062,175.2238 240.6494,175.2238 Q241.1682,175.2238 241.6443,175.3337 Q242.1204,175.4435 242.5354,175.6632 L242.5354,177.6652 Q242.0715,177.238 241.6351,177.0396 Q241.1987,176.8412 240.7349,176.8412 Q239.7461,176.8412 239.2426,177.6255 Q238.739,178.4098 238.739,179.954 Q238.739,181.4921 239.2426,182.2764 Q239.7461,183.0607 240.7349,183.0607 Q241.1987,183.0607 241.6351,182.8623 Q242.0715,182.664 242.5354,182.2367 Z " fill="#000000"/><text fill="#D8BC00" font-family="Open Sans,Avenir,Nunito,Arial,Helvetica,SansSerif" font-size="12.5" font-weight="bold" lengthAdjust="spacing" textLength="70.8333" x="257.2917" y="184.5378">DiagramS3</text><line style="stroke:#5E5E5E;stroke-width:1.0416666666666667;" x1="227.0833" x2="333.3333" y1="195.5078" y2="195.5078"/><line style="stroke:#5E5E5E;stroke-width:1.0416666666666667;" x1="227.0833" x2="333.3333" y1="203.8411" y2="203.8411"/><path codeLine="9" d="M280.2083,122.6195 C280.2083,136.8382 280.2083,152.0361 280.2083,164.0986 " fill="none" id="UmlDiagramIdentifier-backto-DiagramS3" style="stroke:#545454;stroke-width:1.5625;"/><polygon fill="none" points="272.9167,122.5153,280.2083,101.682,287.5,122.5153,272.9167,122.5153" style="stroke:#545454;stroke-width:1.5625;"/></g></svg>
