<?xml version="1.0" encoding="UTF-8" standalone="no"?><svg xmlns="http://www.w3.org/2000/svg" xmlns:xlink="http://www.w3.org/1999/xlink" contentScriptType="application/ecmascript" contentStyleType="text/css" height="218.75px" preserveAspectRatio="none" style="width:472px;height:218px;background:#333333;" version="1.1" viewBox="0 0 472 218" width="472.9167px" zoomAndPan="magnify"><defs/><g><rect fill="#48494B" height="41.2028" rx="8.3333" ry="8.3333" style="stroke:#545454;stroke-width:1.0416666666666667;" width="460.4167" x="2.0833" y="2.0833"/><text fill="#C0C0C0" font-family="Open Sans,Avenir,Nunito,Arial,Helvetica,SansSerif" font-size="20.8333" lengthAdjust="spacing" textLength="437.5" x="13.5417" y="30.5583">com.telenav.kivakit.settings.internal.lexakai</text><rect codeLine="7" fill="#282828" height="48.055" id="UmlDiagramIdentifier" rx="8.3333" ry="8.3333" style="stroke:#5E5E5E;stroke-width:1.0416666666666667;" width="178.125" x="150.5208" y="53.7028"/><rect fill="#1B1B1A" height="31.3883" rx="8.3333" ry="8.3333" style="stroke:#1B1B1A;stroke-width:1.0416666666666667;" width="178.125" x="150.5208" y="53.7028"/><rect fill="#1B1B1A" height="8.3333" style="stroke:#1B1B1A;stroke-width:1.0416666666666667;" width="178.125" x="150.5208" y="76.7578"/><rect codeLine="7" fill="none" height="48.055" id="UmlDiagramIdentifier" rx="8.3333" ry="8.3333" style="stroke:#5E5E5E;stroke-width:1.0416666666666667;" width="178.125" x="150.5208" y="53.7028"/><ellipse cx="165.1042" cy="69.397" fill="#008400" rx="10.4167" ry="10.4167" style="stroke:#239C23;stroke-width:1.0416666666666667;"/><path d="M162.5081,66.5588 L162.5081,64.9719 L167.9342,64.9719 L167.9342,66.5588 L166.1214,66.5588 L166.1214,72.4976 L167.9342,72.4976 L167.9342,74.0845 L162.5081,74.0845 L162.5081,72.4976 L164.3209,72.4976 L164.3209,66.5588 Z " fill="#000000"/><text fill="#D8BC00" font-family="Open Sans,Avenir,Nunito,Arial,Helvetica,SansSerif" font-size="12.5" font-style="italic" font-weight="bold" lengthAdjust="spacing" textLength="140.625" x="181.7708" y="74.1211">UmlDiagramIdentifier</text><line style="stroke:#5E5E5E;stroke-width:1.0416666666666667;" x1="151.5625" x2="327.6042" y1="85.0911" y2="85.0911"/><line style="stroke:#5E5E5E;stroke-width:1.0416666666666667;" x1="151.5625" x2="327.6042" y1="93.4245" y2="93.4245"/><rect codeLine="9" fill="#282828" height="48.055" id="DiagramSettings" rx="8.3333" ry="8.3333" style="stroke:#5E5E5E;stroke-width:1.0416666666666667;" width="145.8333" x="166.6667" y="164.1195"/><rect fill="#1B1B1A" height="31.3883" rx="8.3333" ry="8.3333" style="stroke:#1B1B1A;stroke-width:1.0416666666666667;" width="145.8333" x="166.6667" y="164.1195"/><rect fill="#1B1B1A" height="8.3333" style="stroke:#1B1B1A;stroke-width:1.0416666666666667;" width="145.8333" x="166.6667" y="187.1745"/><rect codeLine="9" fill="none" height="48.055" id="DiagramSettings" rx="8.3333" ry="8.3333" style="stroke:#5E5E5E;stroke-width:1.0416666666666667;" width="145.8333" x="166.6667" y="164.1195"/><ellipse cx="181.25" cy="179.8136" fill="#008400" rx="10.4167" ry="10.4167" style="stroke:#239C23;stroke-width:1.0416666666666667;"/><path d="M178.654,176.9755 L178.654,175.3886 L184.08,175.3886 L184.08,176.9755 L182.2673,176.9755 L182.2673,182.9142 L184.08,182.9142 L184.08,184.5011 L178.654,184.5011 L178.654,182.9142 L180.4667,182.9142 L180.4667,176.9755 Z " fill="#000000"/><text fill="#D8BC00" font-family="Open Sans,Avenir,Nunito,Arial,Helvetica,SansSerif" font-size="12.5" font-style="italic" font-weight="bold" lengthAdjust="spacing" textLength="108.3333" x="197.9167" y="184.5378">DiagramSettings</text><line style="stroke:#5E5E5E;stroke-width:1.0416666666666667;" x1="167.7083" x2="311.4583" y1="195.5078" y2="195.5078"/><line style="stroke:#5E5E5E;stroke-width:1.0416666666666667;" x1="167.7083" x2="311.4583" y1="203.8411" y2="203.8411"/><path codeLine="8" d="M239.5833,122.6195 C239.5833,136.8382 239.5833,152.0361 239.5833,164.0986 " fill="none" id="UmlDiagramIdentifier-backto-DiagramSettings" style="stroke:#545454;stroke-width:1.5625;"/><polygon fill="none" points="232.2917,122.5153,239.5833,101.682,246.875,122.5153,232.2917,122.5153" style="stroke:#545454;stroke-width:1.5625;"/></g></svg>
