<?xml version="1.0" encoding="UTF-8" standalone="no"?><svg xmlns="http://www.w3.org/2000/svg" xmlns:xlink="http://www.w3.org/1999/xlink" contentScriptType="application/ecmascript" contentStyleType="text/css" height="803.125px" preserveAspectRatio="none" style="width:1409px;height:803px;background:#333333;" version="1.1" viewBox="0 0 1409 803" width="1409.375px" zoomAndPan="magnify"><defs/><g><rect fill="#48494B" height="41.2028" rx="8.3333" ry="8.3333" style="stroke:#545454;stroke-width:1.0416666666666667;" width="102.0833" x="646.3542" y="2.0833"/><text fill="#C0C0C0" font-family="Open Sans,Avenir,Nunito,Arial,Helvetica,SansSerif" font-size="20.8333" lengthAdjust="spacing" textLength="79.1667" x="657.8125" y="30.5583">Settings</text><rect codeLine="7" fill="#282828" height="48.055" id="BaseResourceSettingsStore" rx="8.3333" ry="8.3333" style="stroke:#5E5E5E;stroke-width:1.0416666666666667;" width="212.5" x="83.3333" y="53.7028"/><rect fill="#1B1B1A" height="31.3883" rx="8.3333" ry="8.3333" style="stroke:#1B1B1A;stroke-width:1.0416666666666667;" width="212.5" x="83.3333" y="53.7028"/><rect fill="#1B1B1A" height="8.3333" style="stroke:#1B1B1A;stroke-width:1.0416666666666667;" width="212.5" x="83.3333" y="76.7578"/><rect codeLine="7" fill="none" height="48.055" id="BaseResourceSettingsStore" rx="8.3333" ry="8.3333" style="stroke:#5E5E5E;stroke-width:1.0416666666666667;" width="212.5" x="83.3333" y="53.7028"/><ellipse cx="97.9167" cy="69.397" fill="#C8AC00" rx="10.4167" ry="10.4167" style="stroke:#D8BC00;stroke-width:1.0416666666666667;"/><path d="M97.5098,66.099 L96.6614,69.8283 L98.3643,69.8283 Z M96.4111,64.4511 L98.6145,64.4511 L101.0742,73.5636 L99.2737,73.5636 L98.7122,71.3114 L96.3013,71.3114 L95.752,73.5636 L93.9514,73.5636 Z " fill="#000000"/><text fill="#D8BC00" font-family="Open Sans,Avenir,Nunito,Arial,Helvetica,SansSerif" font-size="12.5" font-style="italic" font-weight="bold" lengthAdjust="spacing" textLength="175" x="114.5833" y="74.1211">BaseResourceSettingsStore</text><line style="stroke:#5E5E5E;stroke-width:1.0416666666666667;" x1="84.375" x2="294.7917" y1="85.0911" y2="85.0911"/><line style="stroke:#5E5E5E;stroke-width:1.0416666666666667;" x1="84.375" x2="294.7917" y1="93.4245" y2="93.4245"/><rect codeLine="8" fill="#282828" height="48.055" id="BaseRepeater" rx="8.3333" ry="8.3333" style="stroke:#5E5E5E;stroke-width:1.0416666666666667;" width="123.9583" x="511.9792" y="53.7028"/><rect fill="#1B1B1A" height="31.3883" rx="8.3333" ry="8.3333" style="stroke:#1B1B1A;stroke-width:1.0416666666666667;" width="123.9583" x="511.9792" y="53.7028"/><rect fill="#1B1B1A" height="8.3333" style="stroke:#1B1B1A;stroke-width:1.0416666666666667;" width="123.9583" x="511.9792" y="76.7578"/><rect codeLine="8" fill="none" height="48.055" id="BaseRepeater" rx="8.3333" ry="8.3333" style="stroke:#5E5E5E;stroke-width:1.0416666666666667;" width="123.9583" x="511.9792" y="53.7028"/><ellipse cx="526.5625" cy="69.397" fill="#C8AC00" rx="10.4167" ry="10.4167" style="stroke:#D8BC00;stroke-width:1.0416666666666667;"/><path d="M526.1556,66.099 L525.3072,69.8283 L527.0101,69.8283 Z M525.057,64.4511 L527.2603,64.4511 L529.7201,73.5636 L527.9195,73.5636 L527.358,71.3114 L524.9471,71.3114 L524.3978,73.5636 L522.5972,73.5636 Z " fill="#000000"/><text fill="#D8BC00" font-family="Open Sans,Avenir,Nunito,Arial,Helvetica,SansSerif" font-size="12.5" font-style="italic" font-weight="bold" lengthAdjust="spacing" textLength="86.4583" x="543.2292" y="74.1211">BaseRepeater</text><line style="stroke:#5E5E5E;stroke-width:1.0416666666666667;" x1="513.0208" x2="634.8958" y1="85.0911" y2="85.0911"/><line style="stroke:#5E5E5E;stroke-width:1.0416666666666667;" x1="513.0208" x2="634.8958" y1="93.4245" y2="93.4245"/><rect codeLine="10" fill="#282828" height="48.055" id="JavaTrait" rx="8.3333" ry="8.3333" style="stroke:#5E5E5E;stroke-width:1.0416666666666667;" width="94.7917" x="1149.4792" y="337.0361"/><rect fill="#1B1B1A" height="31.3883" rx="8.3333" ry="8.3333" style="stroke:#1B1B1A;stroke-width:1.0416666666666667;" width="94.7917" x="1149.4792" y="337.0361"/><rect fill="#1B1B1A" height="8.3333" style="stroke:#1B1B1A;stroke-width:1.0416666666666667;" width="94.7917" x="1149.4792" y="360.0911"/><rect codeLine="10" fill="none" height="48.055" id="JavaTrait" rx="8.3333" ry="8.3333" style="stroke:#5E5E5E;stroke-width:1.0416666666666667;" width="94.7917" x="1149.4792" y="337.0361"/><ellipse cx="1164.0625" cy="352.7303" fill="#008400" rx="10.4167" ry="10.4167" style="stroke:#239C23;stroke-width:1.0416666666666667;"/><path d="M1161.4665,349.8922 L1161.4665,348.3053 L1166.8925,348.3053 L1166.8925,349.8922 L1165.0798,349.8922 L1165.0798,355.8309 L1166.8925,355.8309 L1166.8925,357.4178 L1161.4665,357.4178 L1161.4665,355.8309 L1163.2792,355.8309 L1163.2792,349.8922 Z " fill="#000000"/><text fill="#D8BC00" font-family="Open Sans,Avenir,Nunito,Arial,Helvetica,SansSerif" font-size="12.5" font-style="italic" font-weight="bold" lengthAdjust="spacing" textLength="57.2917" x="1180.7292" y="357.4544">JavaTrait</text><line style="stroke:#5E5E5E;stroke-width:1.0416666666666667;" x1="1150.5208" x2="1243.2292" y1="368.4245" y2="368.4245"/><line style="stroke:#5E5E5E;stroke-width:1.0416666666666667;" x1="1150.5208" x2="1243.2292" y1="376.7578" y2="376.7578"/><rect codeLine="11" fill="#282828" height="48.055" id="SettingsTrait" rx="8.3333" ry="8.3333" style="stroke:#5E5E5E;stroke-width:1.0416666666666667;" width="120.8333" x="1281.25" y="337.0361"/><rect fill="#1B1B1A" height="31.3883" rx="8.3333" ry="8.3333" style="stroke:#1B1B1A;stroke-width:1.0416666666666667;" width="120.8333" x="1281.25" y="337.0361"/><rect fill="#1B1B1A" height="8.3333" style="stroke:#1B1B1A;stroke-width:1.0416666666666667;" width="120.8333" x="1281.25" y="360.0911"/><rect codeLine="11" fill="none" height="48.055" id="SettingsTrait" rx="8.3333" ry="8.3333" style="stroke:#5E5E5E;stroke-width:1.0416666666666667;" width="120.8333" x="1281.25" y="337.0361"/><ellipse cx="1295.8333" cy="352.7303" fill="#008400" rx="10.4167" ry="10.4167" style="stroke:#239C23;stroke-width:1.0416666666666667;"/><path d="M1293.2373,349.8922 L1293.2373,348.3053 L1298.6633,348.3053 L1298.6633,349.8922 L1296.8506,349.8922 L1296.8506,355.8309 L1298.6633,355.8309 L1298.6633,357.4178 L1293.2373,357.4178 L1293.2373,355.8309 L1295.05,355.8309 L1295.05,349.8922 Z " fill="#000000"/><text fill="#D8BC00" font-family="Open Sans,Avenir,Nunito,Arial,Helvetica,SansSerif" font-size="12.5" font-style="italic" font-weight="bold" lengthAdjust="spacing" textLength="83.3333" x="1312.5" y="357.4544">SettingsTrait</text><line style="stroke:#5E5E5E;stroke-width:1.0416666666666667;" x1="1282.2917" x2="1401.0417" y1="368.4245" y2="368.4245"/><line style="stroke:#5E5E5E;stroke-width:1.0416666666666667;" x1="1282.2917" x2="1401.0417" y1="376.7578" y2="376.7578"/><rect codeLine="12" fill="#282828" height="48.055" id="RegistryTrait" rx="8.3333" ry="8.3333" style="stroke:#5E5E5E;stroke-width:1.0416666666666667;" width="120.8333" x="672.9167" y="53.7028"/><rect fill="#1B1B1A" height="31.3883" rx="8.3333" ry="8.3333" style="stroke:#1B1B1A;stroke-width:1.0416666666666667;" width="120.8333" x="672.9167" y="53.7028"/><rect fill="#1B1B1A" height="8.3333" style="stroke:#1B1B1A;stroke-width:1.0416666666666667;" width="120.8333" x="672.9167" y="76.7578"/><rect codeLine="12" fill="none" height="48.055" id="RegistryTrait" rx="8.3333" ry="8.3333" style="stroke:#5E5E5E;stroke-width:1.0416666666666667;" width="120.8333" x="672.9167" y="53.7028"/><ellipse cx="687.5" cy="69.397" fill="#008400" rx="10.4167" ry="10.4167" style="stroke:#239C23;stroke-width:1.0416666666666667;"/><path d="M684.904,66.5588 L684.904,64.9719 L690.33,64.9719 L690.33,66.5588 L688.5173,66.5588 L688.5173,72.4976 L690.33,72.4976 L690.33,74.0845 L684.904,74.0845 L684.904,72.4976 L686.7167,72.4976 L686.7167,66.5588 Z " fill="#000000"/><text fill="#D8BC00" font-family="Open Sans,Avenir,Nunito,Arial,Helvetica,SansSerif" font-size="12.5" font-style="italic" font-weight="bold" lengthAdjust="spacing" textLength="83.3333" x="704.1667" y="74.1211">RegistryTrait</text><line style="stroke:#5E5E5E;stroke-width:1.0416666666666667;" x1="673.9583" x2="792.7083" y1="85.0911" y2="85.0911"/><line style="stroke:#5E5E5E;stroke-width:1.0416666666666667;" x1="673.9583" x2="792.7083" y1="93.4245" y2="93.4245"/><rect fill="#282828" height="48.055" id="MemorySettingsStore" rx="8.3333" ry="8.3333" style="stroke:#5E5E5E;stroke-width:1.0416666666666667;" width="176.0417" x="936.9792" y="337.0361"/><rect fill="#1B1B1A" height="31.3883" rx="8.3333" ry="8.3333" style="stroke:#1B1B1A;stroke-width:1.0416666666666667;" width="176.0417" x="936.9792" y="337.0361"/><rect fill="#1B1B1A" height="8.3333" style="stroke:#1B1B1A;stroke-width:1.0416666666666667;" width="176.0417" x="936.9792" y="360.0911"/><rect fill="none" height="48.055" id="MemorySettingsStore" rx="8.3333" ry="8.3333" style="stroke:#5E5E5E;stroke-width:1.0416666666666667;" width="176.0417" x="936.9792" y="337.0361"/><ellipse cx="951.5625" cy="352.7303" fill="#0066CF" rx="10.4167" ry="10.4167" style="stroke:#0086EF;stroke-width:1.0416666666666667;"/><path d="M953.4729,357.1554 Q953.0457,357.3751 952.5757,357.4849 Q952.1057,357.5948 951.5869,357.5948 Q949.7437,357.5948 948.7732,356.3802 Q947.8027,355.1656 947.8027,352.8707 Q947.8027,350.5697 948.7732,349.3551 Q949.7437,348.1405 951.5869,348.1405 Q952.1057,348.1405 952.5818,348.2503 Q953.0579,348.3602 953.4729,348.5799 L953.4729,350.5819 Q953.009,350.1546 952.5726,349.9563 Q952.1362,349.7579 951.6724,349.7579 Q950.6836,349.7579 950.1801,350.5422 Q949.6765,351.3265 949.6765,352.8707 Q949.6765,354.4088 950.1801,355.1931 Q950.6836,355.9774 951.6724,355.9774 Q952.1362,355.9774 952.5726,355.779 Q953.009,355.5806 953.4729,355.1534 Z " fill="#000000"/><text fill="#D8BC00" font-family="Open Sans,Avenir,Nunito,Arial,Helvetica,SansSerif" font-size="12.5" font-weight="bold" lengthAdjust="spacing" textLength="138.5417" x="968.2292" y="357.4544">MemorySettingsStore</text><line style="stroke:#5E5E5E;stroke-width:1.0416666666666667;" x1="938.0208" x2="1111.9792" y1="368.4245" y2="368.4245"/><line style="stroke:#5E5E5E;stroke-width:1.0416666666666667;" x1="938.0208" x2="1111.9792" y1="376.7578" y2="376.7578"/><rect codeLine="15" fill="#282828" height="155.1127" id="Deployment" rx="8.3333" ry="8.3333" style="stroke:#5E5E5E;stroke-width:1.0416666666666667;" width="621.875" x="358.3333" y="641.2028"/><rect fill="#1B1B1A" height="31.3883" rx="8.3333" ry="8.3333" style="stroke:#1B1B1A;stroke-width:1.0416666666666667;" width="621.875" x="358.3333" y="641.2028"/><rect fill="#1B1B1A" height="8.3333" style="stroke:#1B1B1A;stroke-width:1.0416666666666667;" width="621.875" x="358.3333" y="664.2578"/><rect codeLine="15" fill="none" height="155.1127" id="Deployment" rx="8.3333" ry="8.3333" style="stroke:#5E5E5E;stroke-width:1.0416666666666667;" width="621.875" x="358.3333" y="641.2028"/><ellipse cx="622.3958" cy="656.897" fill="#0066CF" rx="10.4167" ry="10.4167" style="stroke:#0086EF;stroke-width:1.0416666666666667;"/><path d="M624.3062,661.322 Q623.879,661.5417 623.409,661.6516 Q622.939,661.7615 622.4202,661.7615 Q620.577,661.7615 619.6065,660.5469 Q618.6361,659.3323 618.6361,657.0374 Q618.6361,654.7363 619.6065,653.5217 Q620.577,652.3071 622.4202,652.3071 Q622.939,652.3071 623.4151,652.417 Q623.8912,652.5269 624.3062,652.7466 L624.3062,654.7485 Q623.8424,654.3213 623.406,654.1229 Q622.9696,653.9246 622.5057,653.9246 Q621.5169,653.9246 621.0134,654.7089 Q620.5098,655.4932 620.5098,657.0374 Q620.5098,658.5754 621.0134,659.3597 Q621.5169,660.144 622.5057,660.144 Q622.9696,660.144 623.406,659.9457 Q623.8424,659.7473 624.3062,659.3201 Z " fill="#000000"/><text fill="#D8BC00" font-family="Open Sans,Avenir,Nunito,Arial,Helvetica,SansSerif" font-size="12.5" font-weight="bold" lengthAdjust="spacing" textLength="79.1667" x="645.3125" y="661.6211">Deployment</text><line style="stroke:#5E5E5E;stroke-width:1.5625;" x1="359.375" x2="979.1667" y1="672.5911" y2="672.5911"/><ellipse cx="369.7917" cy="707.961" fill="#84BE84" rx="3.125" ry="3.125" style="stroke:#038048;stroke-width:1.0416666666666667;"/><text fill="#D8BC00" font-family="Open Sans,Avenir,Nunito,Arial,Helvetica,SansSerif" font-size="11.4583" lengthAdjust="spacing" textLength="198.9583" x="381.25" y="714.8722">Deployment(Listener, String, String)</text><line style="stroke:#5E5E5E;stroke-width:1.0416666666666667;" x1="359.375" x2="625.5208" y1="690.7969" y2="690.7969"/><text fill="#D8BC00" font-family="Open Sans,Avenir,Nunito,Arial,Helvetica,SansSerif" font-size="11.4583" lengthAdjust="spacing" textLength="81.25" x="628.6458" y="694.6065">(constructors)</text><line style="stroke:#5E5E5E;stroke-width:1.0416666666666667;" x1="713.0208" x2="979.1667" y1="690.7969" y2="690.7969"/><line style="stroke:#5E5E5E;stroke-width:1.0416666666666667;" x1="359.375" x2="979.1667" y1="724.5809" y2="724.5809"/><ellipse cx="369.7917" cy="736.0392" fill="#84BE84" rx="3.125" ry="3.125" style="stroke:#038048;stroke-width:1.0416666666666667;"/><text fill="#D8BC00" font-family="Open Sans,Avenir,Nunito,Arial,Helvetica,SansSerif" font-size="11.4583" lengthAdjust="spacing" textLength="108.3333" x="381.25" y="742.9504">String description()</text><ellipse cx="369.7917" cy="779.6956" fill="#84BE84" rx="3.125" ry="3.125" style="stroke:#038048;stroke-width:1.0416666666666667;"/><text fill="#D8BC00" font-family="Open Sans,Avenir,Nunito,Arial,Helvetica,SansSerif" font-size="11.4583" lengthAdjust="spacing" textLength="589.5833" x="381.25" y="786.6069">SwitchParser.Builder&lt;Deployment&gt; deploymentSwitchParser(Listener, DeploymentSet, String switchName)</text><line style="stroke:#5E5E5E;stroke-width:1.0416666666666667;" x1="359.375" x2="600" y1="762.5315" y2="762.5315"/><text fill="#D8BC00" font-family="Open Sans,Avenir,Nunito,Arial,Helvetica,SansSerif" font-size="11.4583" lengthAdjust="spacing" textLength="132.2917" x="603.125" y="766.3411">(command line parsing)</text><line style="stroke:#5E5E5E;stroke-width:1.0416666666666667;" x1="738.5417" x2="979.1667" y1="762.5315" y2="762.5315"/><rect codeLine="28" fill="#282828" height="352.5614" id="DeploymentSet" rx="8.3333" ry="8.3333" style="stroke:#5E5E5E;stroke-width:1.0416666666666667;" width="441.6667" x="433.3333" y="184.9528"/><rect fill="#1B1B1A" height="31.3883" rx="8.3333" ry="8.3333" style="stroke:#1B1B1A;stroke-width:1.0416666666666667;" width="441.6667" x="433.3333" y="184.9528"/><rect fill="#1B1B1A" height="8.3333" style="stroke:#1B1B1A;stroke-width:1.0416666666666667;" width="441.6667" x="433.3333" y="208.0078"/><rect codeLine="28" fill="none" height="352.5614" id="DeploymentSet" rx="8.3333" ry="8.3333" style="stroke:#5E5E5E;stroke-width:1.0416666666666667;" width="441.6667" x="433.3333" y="184.9528"/><ellipse cx="597.3958" cy="200.647" fill="#0066CF" rx="10.4167" ry="10.4167" style="stroke:#0086EF;stroke-width:1.0416666666666667;"/><path d="M599.3062,205.072 Q598.879,205.2917 598.409,205.4016 Q597.939,205.5115 597.4202,205.5115 Q595.577,205.5115 594.6065,204.2969 Q593.6361,203.0823 593.6361,200.7874 Q593.6361,198.4863 594.6065,197.2717 Q595.577,196.0571 597.4202,196.0571 Q597.939,196.0571 598.4151,196.167 Q598.8912,196.2769 599.3062,196.4966 L599.3062,198.4985 Q598.8424,198.0713 598.406,197.8729 Q597.9696,197.6746 597.5057,197.6746 Q596.5169,197.6746 596.0134,198.4589 Q595.5098,199.2432 595.5098,200.7874 Q595.5098,202.3254 596.0134,203.1097 Q596.5169,203.894 597.5057,203.894 Q597.9696,203.894 598.406,203.6957 Q598.8424,203.4973 599.3062,203.0701 Z " fill="#000000"/><text fill="#D8BC00" font-family="Open Sans,Avenir,Nunito,Arial,Helvetica,SansSerif" font-size="12.5" font-weight="bold" lengthAdjust="spacing" textLength="98.9583" x="620.3125" y="205.3711">DeploymentSet</text><line style="stroke:#5E5E5E;stroke-width:1.5625;" x1="434.375" x2="873.9583" y1="216.3411" y2="216.3411"/><polygon fill="#FFFF44" points="444.7917,246.5027,448.9583,250.6694,444.7917,254.836,440.625,250.6694" style="stroke:#B38D22;stroke-width:1.0416666666666667;"/><text fill="#D8BC00" font-family="Open Sans,Avenir,Nunito,Arial,Helvetica,SansSerif" font-size="11.4583" lengthAdjust="spacing" textLength="91.6667" x="456.25" y="258.6222">DeploymentSet()</text><line style="stroke:#5E5E5E;stroke-width:1.0416666666666667;" x1="434.375" x2="610.4167" y1="234.5469" y2="234.5469"/><text fill="#D8BC00" font-family="Open Sans,Avenir,Nunito,Arial,Helvetica,SansSerif" font-size="11.4583" lengthAdjust="spacing" textLength="81.25" x="613.5417" y="238.3565">(constructors)</text><line style="stroke:#5E5E5E;stroke-width:1.0416666666666667;" x1="697.9167" x2="873.9583" y1="234.5469" y2="234.5469"/><ellipse cx="444.7917" cy="295.3674" fill="#84BE84" rx="3.125" ry="3.125" style="stroke:#038048;stroke-width:1.0416666666666667;"/><text fill="#D8BC00" font-family="Open Sans,Avenir,Nunito,Arial,Helvetica,SansSerif" font-size="11.4583" lengthAdjust="spacing" textLength="100" x="456.25" y="302.2786">boolean isEmpty()</text><ellipse cx="444.7917" cy="315.1123" fill="#84BE84" rx="3.125" ry="3.125" style="stroke:#038048;stroke-width:1.0416666666666667;"/><text fill="#D8BC00" font-family="Open Sans,Avenir,Nunito,Arial,Helvetica,SansSerif" font-size="11.4583" lengthAdjust="spacing" textLength="47.9167" x="456.25" y="322.0235">int size()</text><line style="stroke:#5E5E5E;stroke-width:1.0416666666666667;" x1="434.375" x2="619.7917" y1="278.2033" y2="278.2033"/><text fill="#D8BC00" font-family="Open Sans,Avenir,Nunito,Arial,Helvetica,SansSerif" font-size="11.4583" lengthAdjust="spacing" textLength="62.5" x="622.9167" y="282.0129">(collection)</text><line style="stroke:#5E5E5E;stroke-width:1.0416666666666667;" x1="688.5417" x2="873.9583" y1="278.2033" y2="278.2033"/><ellipse cx="444.7917" cy="358.7687" fill="#84BE84" rx="3.125" ry="3.125" style="stroke:#038048;stroke-width:1.0416666666666667;"/><text fill="#D8BC00" font-family="Open Sans,Avenir,Nunito,Arial,Helvetica,SansSerif" font-size="11.4583" lengthAdjust="spacing" textLength="346.875" x="456.25" y="365.6799">SwitchParser.Builder&lt;Deployment&gt; switchParser(String name)</text><line style="stroke:#5E5E5E;stroke-width:1.0416666666666667;" x1="434.375" x2="584.8958" y1="341.6046" y2="341.6046"/><text fill="#D8BC00" font-family="Open Sans,Avenir,Nunito,Arial,Helvetica,SansSerif" font-size="11.4583" lengthAdjust="spacing" textLength="132.2917" x="588.0208" y="345.4142">(command line parsing)</text><line style="stroke:#5E5E5E;stroke-width:1.0416666666666667;" x1="723.4375" x2="873.9583" y1="341.6046" y2="341.6046"/><ellipse cx="444.7917" cy="402.4251" fill="#84BE84" rx="3.125" ry="3.125" style="stroke:#038048;stroke-width:1.0416666666666667;"/><text fill="#D8BC00" font-family="Open Sans,Avenir,Nunito,Arial,Helvetica,SansSerif" font-size="11.4583" lengthAdjust="spacing" textLength="122.9167" x="456.25" y="409.3363">void add(Deployment)</text><ellipse cx="444.7917" cy="422.17" fill="#84BE84" rx="3.125" ry="3.125" style="stroke:#038048;stroke-width:1.0416666666666667;"/><text fill="#D8BC00" font-family="Open Sans,Avenir,Nunito,Arial,Helvetica,SansSerif" font-size="11.4583" lengthAdjust="spacing" textLength="287.5" x="456.25" y="429.0812">void addAll(Collection&lt;Deployment&gt; deployments)</text><ellipse cx="444.7917" cy="441.9149" fill="#84BE84" rx="3.125" ry="3.125" style="stroke:#038048;stroke-width:1.0416666666666667;"/><text fill="#D8BC00" font-family="Open Sans,Avenir,Nunito,Arial,Helvetica,SansSerif" font-size="11.4583" lengthAdjust="spacing" textLength="310.4167" x="456.25" y="448.8261">DeploymentSet addDeploymentsIn(ResourceFolder&lt;?&gt;)</text><ellipse cx="444.7917" cy="461.6597" fill="#84BE84" rx="3.125" ry="3.125" style="stroke:#038048;stroke-width:1.0416666666666667;"/><text fill="#D8BC00" font-family="Open Sans,Avenir,Nunito,Arial,Helvetica,SansSerif" font-size="11.4583" lengthAdjust="spacing" textLength="210.4167" x="456.25" y="468.571">Deployment deployment(String name)</text><ellipse cx="444.7917" cy="481.4046" fill="#84BE84" rx="3.125" ry="3.125" style="stroke:#038048;stroke-width:1.0416666666666667;"/><text fill="#D8BC00" font-family="Open Sans,Avenir,Nunito,Arial,Helvetica,SansSerif" font-size="11.4583" lengthAdjust="spacing" textLength="409.375" x="456.25" y="488.3158">DeploymentSet deploymentSet(Listener, Deployment, Deployment... more)</text><ellipse cx="444.7917" cy="501.1495" fill="#84BE84" rx="3.125" ry="3.125" style="stroke:#038048;stroke-width:1.0416666666666667;"/><text fill="#D8BC00" font-family="Open Sans,Avenir,Nunito,Arial,Helvetica,SansSerif" font-size="11.4583" lengthAdjust="spacing" textLength="185.4167" x="456.25" y="508.0607">Set&lt;Deployment&gt; deployments()</text><ellipse cx="444.7917" cy="520.8944" fill="#84BE84" rx="3.125" ry="3.125" style="stroke:#038048;stroke-width:1.0416666666666667;"/><text fill="#D8BC00" font-family="Open Sans,Avenir,Nunito,Arial,Helvetica,SansSerif" font-size="11.4583" lengthAdjust="spacing" textLength="365.625" x="456.25" y="527.8056">DeploymentSet loadDeploymentSet(Listener, Class&lt;?&gt; relativeTo)</text><line style="stroke:#5E5E5E;stroke-width:1.0416666666666667;" x1="434.375" x2="608.8542" y1="385.261" y2="385.261"/><text fill="#D8BC00" font-family="Open Sans,Avenir,Nunito,Arial,Helvetica,SansSerif" font-size="11.4583" lengthAdjust="spacing" textLength="84.375" x="611.9792" y="389.0706">(configuration)</text><line style="stroke:#5E5E5E;stroke-width:1.0416666666666667;" x1="699.4792" x2="873.9583" y1="385.261" y2="385.261"/><rect codeLine="48" fill="#282828" height="83.3781" id="ResourceFolderSettingsStore" rx="8.3333" ry="8.3333" style="stroke:#5E5E5E;stroke-width:1.0416666666666667;" width="364.5833" x="7.2917" y="319.3278"/><rect fill="#1B1B1A" height="31.3883" rx="8.3333" ry="8.3333" style="stroke:#1B1B1A;stroke-width:1.0416666666666667;" width="364.5833" x="7.2917" y="319.3278"/><rect fill="#1B1B1A" height="8.3333" style="stroke:#1B1B1A;stroke-width:1.0416666666666667;" width="364.5833" x="7.2917" y="342.3828"/><rect codeLine="48" fill="none" height="83.3781" id="ResourceFolderSettingsStore" rx="8.3333" ry="8.3333" style="stroke:#5E5E5E;stroke-width:1.0416666666666667;" width="364.5833" x="7.2917" y="319.3278"/><ellipse cx="89.5833" cy="335.022" fill="#0066CF" rx="10.4167" ry="10.4167" style="stroke:#0086EF;stroke-width:1.0416666666666667;"/><path d="M91.4937,339.447 Q91.0665,339.6667 90.5965,339.7766 Q90.1265,339.8865 89.6077,339.8865 Q87.7645,339.8865 86.794,338.6719 Q85.8236,337.4573 85.8236,335.1624 Q85.8236,332.8613 86.794,331.6467 Q87.7645,330.4321 89.6077,330.4321 Q90.1265,330.4321 90.6026,330.542 Q91.0787,330.6519 91.4937,330.8716 L91.4937,332.8735 Q91.0299,332.4463 90.5935,332.2479 Q90.1571,332.0496 89.6932,332.0496 Q88.7044,332.0496 88.2009,332.8339 Q87.6973,333.6182 87.6973,335.1624 Q87.6973,336.7004 88.2009,337.4847 Q88.7044,338.269 89.6932,338.269 Q90.1571,338.269 90.5935,338.0707 Q91.0299,337.8723 91.4937,337.4451 Z " fill="#000000"/><text fill="#D8BC00" font-family="Open Sans,Avenir,Nunito,Arial,Helvetica,SansSerif" font-size="12.5" font-weight="bold" lengthAdjust="spacing" textLength="185.4167" x="112.5" y="339.7461">ResourceFolderSettingsStore</text><line style="stroke:#5E5E5E;stroke-width:1.5625;" x1="8.3333" x2="370.8333" y1="350.7161" y2="350.7161"/><ellipse cx="18.75" cy="386.086" fill="#84BE84" rx="3.125" ry="3.125" style="stroke:#038048;stroke-width:1.0416666666666667;"/><text fill="#D8BC00" font-family="Open Sans,Avenir,Nunito,Arial,Helvetica,SansSerif" font-size="11.4583" lengthAdjust="spacing" textLength="332.2917" x="30.2083" y="392.9972">ResourceFolderSettingsStore(Listener, ResourceFolder&lt;?&gt;)</text><line style="stroke:#5E5E5E;stroke-width:1.0416666666666667;" x1="8.3333" x2="145.8333" y1="368.9219" y2="368.9219"/><text fill="#D8BC00" font-family="Open Sans,Avenir,Nunito,Arial,Helvetica,SansSerif" font-size="11.4583" lengthAdjust="spacing" textLength="81.25" x="148.9583" y="372.7315">(constructors)</text><line style="stroke:#5E5E5E;stroke-width:1.0416666666666667;" x1="233.3333" x2="370.8333" y1="368.9219" y2="368.9219"/><rect codeLine="57" fill="#282828" height="87.5448" id="SettingsRegistry" rx="8.3333" ry="8.3333" style="stroke:#5E5E5E;stroke-width:1.0416666666666667;" width="281.25" x="1056.25" y="674.5361"/><rect fill="#1B1B1A" height="31.3883" rx="8.3333" ry="8.3333" style="stroke:#1B1B1A;stroke-width:1.0416666666666667;" width="281.25" x="1056.25" y="674.5361"/><rect fill="#1B1B1A" height="8.3333" style="stroke:#1B1B1A;stroke-width:1.0416666666666667;" width="281.25" x="1056.25" y="697.5911"/><rect codeLine="57" fill="none" height="87.5448" id="SettingsRegistry" rx="8.3333" ry="8.3333" style="stroke:#5E5E5E;stroke-width:1.0416666666666667;" width="281.25" x="1056.25" y="674.5361"/><ellipse cx="1136.4583" cy="690.2303" fill="#0066CF" rx="10.4167" ry="10.4167" style="stroke:#0086EF;stroke-width:1.0416666666666667;"/><path d="M1138.3687,694.6554 Q1137.9415,694.8751 1137.4715,694.9849 Q1137.0015,695.0948 1136.4827,695.0948 Q1134.6395,695.0948 1133.669,693.8802 Q1132.6986,692.6656 1132.6986,690.3707 Q1132.6986,688.0697 1133.669,686.8551 Q1134.6395,685.6405 1136.4827,685.6405 Q1137.0015,685.6405 1137.4776,685.7503 Q1137.9537,685.8602 1138.3687,686.0799 L1138.3687,688.0819 Q1137.9049,687.6546 1137.4685,687.4563 Q1137.0321,687.2579 1136.5682,687.2579 Q1135.5794,687.2579 1135.0759,688.0422 Q1134.5723,688.8265 1134.5723,690.3707 Q1134.5723,691.9088 1135.0759,692.6931 Q1135.5794,693.4774 1136.5682,693.4774 Q1137.0321,693.4774 1137.4685,693.279 Q1137.9049,693.0806 1138.3687,692.6534 Z " fill="#000000"/><text fill="#D8BC00" font-family="Open Sans,Avenir,Nunito,Arial,Helvetica,SansSerif" font-size="12.5" font-weight="bold" lengthAdjust="spacing" textLength="106.25" x="1159.375" y="694.9544">SettingsRegistry</text><line style="stroke:#5E5E5E;stroke-width:1.5625;" x1="1057.2917" x2="1336.4583" y1="705.9245" y2="705.9245"/><line style="stroke:#5E5E5E;stroke-width:1.0416666666666667;" x1="1057.2917" x2="1336.4583" y1="714.2578" y2="714.2578"/><ellipse cx="1067.7083" cy="725.7161" fill="#84BE84" rx="3.125" ry="3.125" style="stroke:#038048;stroke-width:1.0416666666666667;"/><text fill="#D8BC00" font-family="Open Sans,Avenir,Nunito,Arial,Helvetica,SansSerif" font-size="11.4583" lengthAdjust="spacing" textLength="181.25" x="1079.1667" y="732.6274">SettingsRegistry globalSettings()</text><ellipse cx="1067.7083" cy="745.461" fill="#84BE84" rx="3.125" ry="3.125" style="stroke:#038048;stroke-width:1.0416666666666667;"/><text fill="#D8BC00" font-family="Open Sans,Avenir,Nunito,Arial,Helvetica,SansSerif" font-size="11.4583" lengthAdjust="spacing" textLength="248.9583" x="1079.1667" y="752.3722">SettingsRegistry settingsFor(Object ignored)</text><path codeLine="14" d="M1008.9063,404.8278 C991.3542,447.3174 960.0104,512.484 917.7083,557.8695 C888.2292,589.4945 851.1979,617.609 814.8125,641.0778 " fill="none" id="MemorySettingsStore-backto-Deployment" style="stroke:#545454;stroke-width:1.5625;"/><polygon fill="none" points="1002.25,401.8486,1016.7083,385.1715,1015.8021,407.234,1002.25,401.8486" style="stroke:#545454;stroke-width:1.5625;"/><path codeLine="25" d="M586.2604,121.8486 C591.3333,139.6299 597.5729,161.5153 604.1979,184.734 " fill="none" id="BaseRepeater-backto-DeploymentSet" style="stroke:#545454;stroke-width:1.5625;"/><polygon fill="none" points="579.2188,123.7549,580.5208,101.7236,593.25,119.7549,579.2188,123.7549" style="stroke:#545454;stroke-width:1.5625;"/><path codeLine="26" d="M721.1875,121.8486 C716.1771,139.6299 710.0208,161.5153 703.4896,184.734 " fill="none" id="RegistryTrait-backto-DeploymentSet" style="stroke:#545454;stroke-width:1.5625;"/><polygon fill="none" points="714.1875,119.7965,726.8542,101.7236,728.2292,123.7445,714.1875,119.7965" style="stroke:#545454;stroke-width:1.5625;"/><path codeLine="27" d="M662.4688,550.7549 C663.875,582.734 665.2604,614.2236 666.4375,641.057 " fill="none" id="DeploymentSet-backto-Deployment" style="stroke:#545454;stroke-width:1.5625;"/><polygon fill="#333333" points="661.8646,537.0361,657.9767,543.4633,662.4141,549.524,666.302,543.0969,661.8646,537.0361" style="stroke:#545454;stroke-width:1.5625;"/><text fill="#A0A0A0" font-family="Open Sans,Avenir,Nunito,Arial,Helvetica,SansSerif" font-size="12.5" font-weight="bold" lengthAdjust="spacing" textLength="8.3333" x="650.4259" y="561.2694">1</text><text fill="#A0A0A0" font-family="Open Sans,Avenir,Nunito,Arial,Helvetica,SansSerif" font-size="12.5" font-weight="bold" lengthAdjust="spacing" textLength="6.25" x="656.1967" y="627.0414">*</text><path codeLine="47" d="M189.5833,122.6403 C189.5833,176.4424 189.5833,266.8486 189.5833,319.1715 " fill="none" id="BaseResourceSettingsStore-backto-ResourceFolderSettingsStore" style="stroke:#545454;stroke-width:1.5625;"/><polygon fill="none" points="182.2917,122.557,189.5833,101.7236,196.875,122.557,182.2917,122.557" style="stroke:#545454;stroke-width:1.5625;"/><path codeLine="54" d="M1045.2708,403.9215 C1078.1771,471.932 1142.8958,605.682 1176.1146,674.3382 " fill="none" id="MemorySettingsStore-backto-SettingsRegistry" style="stroke:#545454;stroke-width:1.5625;"/><polygon fill="none" points="1038.6563,406.9945,1036.1458,385.0674,1051.7813,400.6507,1038.6563,406.9945" style="stroke:#545454;stroke-width:1.5625;"/><path codeLine="55" d="M1324.6354,404.3903 C1308.6563,444.0778 1284.0625,505.0361 1262.5,557.8695 C1246.3958,597.3486 1227.8854,642.2549 1214.6354,674.3174 " fill="none" id="SettingsTrait-backto-SettingsRegistry" style="stroke:#545454;stroke-width:1.5625;"/><polygon fill="none" points="1317.9063,401.5778,1332.4479,384.9736,1331.4375,407.0153,1317.9063,401.5778" style="stroke:#545454;stroke-width:1.5625;"/><path codeLine="56" d="M1196.875,406.1403 C1196.875,474.807 1196.875,606.4215 1196.875,674.3382 " fill="none" id="JavaTrait-backto-SettingsRegistry" style="stroke:#545454;stroke-width:1.5625;"/><polygon fill="none" points="1189.5833,405.9007,1196.875,385.0674,1204.1667,405.9007,1189.5833,405.9007" style="stroke:#545454;stroke-width:1.5625;"/></g></svg>
