<?xml version="1.0" encoding="UTF-8" standalone="no"?><svg xmlns="http://www.w3.org/2000/svg" xmlns:xlink="http://www.w3.org/1999/xlink" contentScriptType="application/ecmascript" contentStyleType="text/css" height="353.125px" preserveAspectRatio="none" style="width:337px;height:353px;background:#333333;" version="1.1" viewBox="0 0 337 353" width="337.5px" zoomAndPan="magnify"><defs/><g><rect fill="#48494B" height="41.2028" rx="8.3333" ry="8.3333" style="stroke:#545454;stroke-width:1.0416666666666667;" width="325" x="2.0833" y="2.0833"/><text fill="#C0C0C0" font-family="Open Sans,Avenir,Nunito,Arial,Helvetica,SansSerif" font-size="20.8333" lengthAdjust="spacing" textLength="302.0833" x="13.5417" y="30.5583">com.telenav.kivakit.logs.email</text><rect codeLine="7" fill="#282828" height="48.055" id="BaseTextLog" rx="8.3333" ry="8.3333" style="stroke:#5E5E5E;stroke-width:1.0416666666666667;" width="119.7917" x="116.4063" y="53.7028"/><rect fill="#1B1B1A" height="31.3883" rx="8.3333" ry="8.3333" style="stroke:#1B1B1A;stroke-width:1.0416666666666667;" width="119.7917" x="116.4063" y="53.7028"/><rect fill="#1B1B1A" height="8.3333" style="stroke:#1B1B1A;stroke-width:1.0416666666666667;" width="119.7917" x="116.4063" y="76.7578"/><rect codeLine="7" fill="none" height="48.055" id="BaseTextLog" rx="8.3333" ry="8.3333" style="stroke:#5E5E5E;stroke-width:1.0416666666666667;" width="119.7917" x="116.4063" y="53.7028"/><ellipse cx="130.9896" cy="69.397" fill="#C8AC00" rx="10.4167" ry="10.4167" style="stroke:#D8BC00;stroke-width:1.0416666666666667;"/><path d="M130.5827,66.099 L129.7343,69.8283 L131.4372,69.8283 Z M129.484,64.4511 L131.6874,64.4511 L134.1471,73.5636 L132.3466,73.5636 L131.7851,71.3114 L129.3742,71.3114 L128.8249,73.5636 L127.0243,73.5636 Z " fill="#000000"/><text fill="#D8BC00" font-family="Open Sans,Avenir,Nunito,Arial,Helvetica,SansSerif" font-size="12.5" font-style="italic" font-weight="bold" lengthAdjust="spacing" textLength="82.2917" x="147.6563" y="74.1211">BaseTextLog</text><line style="stroke:#5E5E5E;stroke-width:1.0416666666666667;" x1="117.4479" x2="235.1563" y1="85.0911" y2="85.0911"/><line style="stroke:#5E5E5E;stroke-width:1.0416666666666667;" x1="117.4479" x2="235.1563" y1="93.4245" y2="93.4245"/><rect codeLine="13" fill="#282828" height="48.055" id="EmailLog" rx="8.3333" ry="8.3333" style="stroke:#5E5E5E;stroke-width:1.0416666666666667;" width="96.875" x="127.8646" y="165.1611"/><rect fill="#1B1B1A" height="31.3883" rx="8.3333" ry="8.3333" style="stroke:#1B1B1A;stroke-width:1.0416666666666667;" width="96.875" x="127.8646" y="165.1611"/><rect fill="#1B1B1A" height="8.3333" style="stroke:#1B1B1A;stroke-width:1.0416666666666667;" width="96.875" x="127.8646" y="188.2161"/><rect codeLine="13" fill="none" height="48.055" id="EmailLog" rx="8.3333" ry="8.3333" style="stroke:#5E5E5E;stroke-width:1.0416666666666667;" width="96.875" x="127.8646" y="165.1611"/><ellipse cx="142.4479" cy="180.8553" fill="#0066CF" rx="10.4167" ry="10.4167" style="stroke:#0086EF;stroke-width:1.0416666666666667;"/><path d="M144.3583,185.2804 Q143.9311,185.5001 143.4611,185.6099 Q142.9911,185.7198 142.4723,185.7198 Q140.6291,185.7198 139.6586,184.5052 Q138.6882,183.2906 138.6882,180.9957 Q138.6882,178.6947 139.6586,177.4801 Q140.6291,176.2655 142.4723,176.2655 Q142.9911,176.2655 143.4672,176.3753 Q143.9433,176.4852 144.3583,176.7049 L144.3583,178.7069 Q143.8944,178.2796 143.458,178.0813 Q143.0216,177.8829 142.5578,177.8829 Q141.569,177.8829 141.0655,178.6672 Q140.5619,179.4515 140.5619,180.9957 Q140.5619,182.5338 141.0655,183.3181 Q141.569,184.1024 142.5578,184.1024 Q143.0216,184.1024 143.458,183.904 Q143.8944,183.7056 144.3583,183.2784 Z " fill="#000000"/><text fill="#D8BC00" font-family="Open Sans,Avenir,Nunito,Arial,Helvetica,SansSerif" font-size="12.5" font-weight="bold" lengthAdjust="spacing" textLength="59.375" x="159.1146" y="185.5794">EmailLog</text><line style="stroke:#5E5E5E;stroke-width:1.0416666666666667;" x1="128.9063" x2="223.6979" y1="196.5495" y2="196.5495"/><line style="stroke:#5E5E5E;stroke-width:1.0416666666666667;" x1="128.9063" x2="223.6979" y1="204.8828" y2="204.8828"/><rect fill="#282828" height="48.055" id="EmailAddress" rx="8.3333" ry="8.3333" style="stroke:#5E5E5E;stroke-width:1.0416666666666667;" width="126.0417" x="32.0313" y="298.4945"/><rect fill="#1B1B1A" height="31.3883" rx="8.3333" ry="8.3333" style="stroke:#1B1B1A;stroke-width:1.0416666666666667;" width="126.0417" x="32.0313" y="298.4945"/><rect fill="#1B1B1A" height="8.3333" style="stroke:#1B1B1A;stroke-width:1.0416666666666667;" width="126.0417" x="32.0313" y="321.5495"/><rect fill="none" height="48.055" id="EmailAddress" rx="8.3333" ry="8.3333" style="stroke:#5E5E5E;stroke-width:1.0416666666666667;" width="126.0417" x="32.0313" y="298.4945"/><ellipse cx="46.6146" cy="314.1886" fill="#0066CF" rx="10.4167" ry="10.4167" style="stroke:#0086EF;stroke-width:1.0416666666666667;"/><path d="M48.525,318.6137 Q48.0977,318.8334 47.6278,318.9433 Q47.1578,319.0531 46.639,319.0531 Q44.7957,319.0531 43.8253,317.8385 Q42.8548,316.6239 42.8548,314.329 Q42.8548,312.028 43.8253,310.8134 Q44.7957,309.5988 46.639,309.5988 Q47.1578,309.5988 47.6339,309.7087 Q48.1099,309.8185 48.525,310.0382 L48.525,312.0402 Q48.0611,311.613 47.6247,311.4146 Q47.1883,311.2162 46.7244,311.2162 Q45.7357,311.2162 45.2321,312.0005 Q44.7286,312.7848 44.7286,314.329 Q44.7286,315.8671 45.2321,316.6514 Q45.7357,317.4357 46.7244,317.4357 Q47.1883,317.4357 47.6247,317.2373 Q48.0611,317.039 48.525,316.6117 Z " fill="#000000"/><text fill="#D8BC00" font-family="Open Sans,Avenir,Nunito,Arial,Helvetica,SansSerif" font-size="12.5" font-weight="bold" lengthAdjust="spacing" textLength="88.5417" x="63.2813" y="318.9128">EmailAddress</text><line style="stroke:#5E5E5E;stroke-width:1.0416666666666667;" x1="33.0729" x2="157.0313" y1="329.8828" y2="329.8828"/><line style="stroke:#5E5E5E;stroke-width:1.0416666666666667;" x1="33.0729" x2="157.0313" y1="338.2161" y2="338.2161"/><rect fill="#282828" height="48.055" id="EmailSender" rx="8.3333" ry="8.3333" style="stroke:#5E5E5E;stroke-width:1.0416666666666667;" width="116.6667" x="195.0521" y="298.4945"/><rect fill="#1B1B1A" height="31.3883" rx="8.3333" ry="8.3333" style="stroke:#1B1B1A;stroke-width:1.0416666666666667;" width="116.6667" x="195.0521" y="298.4945"/><rect fill="#1B1B1A" height="8.3333" style="stroke:#1B1B1A;stroke-width:1.0416666666666667;" width="116.6667" x="195.0521" y="321.5495"/><rect fill="none" height="48.055" id="EmailSender" rx="8.3333" ry="8.3333" style="stroke:#5E5E5E;stroke-width:1.0416666666666667;" width="116.6667" x="195.0521" y="298.4945"/><ellipse cx="209.6354" cy="314.1886" fill="#0066CF" rx="10.4167" ry="10.4167" style="stroke:#0086EF;stroke-width:1.0416666666666667;"/><path d="M211.5458,318.6137 Q211.1186,318.8334 210.6486,318.9433 Q210.1786,319.0531 209.6598,319.0531 Q207.8166,319.0531 206.8461,317.8385 Q205.8757,316.6239 205.8757,314.329 Q205.8757,312.028 206.8461,310.8134 Q207.8166,309.5988 209.6598,309.5988 Q210.1786,309.5988 210.6547,309.7087 Q211.1308,309.8185 211.5458,310.0382 L211.5458,312.0402 Q211.0819,311.613 210.6455,311.4146 Q210.2091,311.2162 209.7453,311.2162 Q208.7565,311.2162 208.253,312.0005 Q207.7494,312.7848 207.7494,314.329 Q207.7494,315.8671 208.253,316.6514 Q208.7565,317.4357 209.7453,317.4357 Q210.2091,317.4357 210.6455,317.2373 Q211.0819,317.039 211.5458,316.6117 Z " fill="#000000"/><text fill="#D8BC00" font-family="Open Sans,Avenir,Nunito,Arial,Helvetica,SansSerif" font-size="12.5" font-weight="bold" lengthAdjust="spacing" textLength="79.1667" x="226.3021" y="318.9128">EmailSender</text><line style="stroke:#5E5E5E;stroke-width:1.0416666666666667;" x1="196.0938" x2="310.6771" y1="329.8828" y2="329.8828"/><line style="stroke:#5E5E5E;stroke-width:1.0416666666666667;" x1="196.0938" x2="310.6771" y1="338.2161" y2="338.2161"/><path codeLine="9" d="M176.3021,122.7965 C176.3021,137.1715 176.3021,152.5778 176.3021,164.807 " fill="none" id="BaseTextLog-backto-EmailLog" style="stroke:#545454;stroke-width:1.5625;"/><polygon fill="none" points="169.0104,122.4632,176.3021,101.6299,183.5938,122.4632,169.0104,122.4632" style="stroke:#545454;stroke-width:1.5625;"/><path codeLine="10" d="M116.2396,217.7653 C106.4792,224.984 97.6875,233.7861 91.9271,244.3278 C82.9375,260.7861 84.7188,282.2965 88.1667,298.4111 " fill="none" id="EmailLog-backto-EmailAddress" style="stroke:#545454;stroke-width:1.5625;"/><polygon fill="#333333" points="127.5729,210.2653,120.0614,210.2447,117.1533,217.1705,124.6649,217.1911,127.5729,210.2653" style="stroke:#545454;stroke-width:1.5625;"/><text fill="#A0A0A0" font-family="Open Sans,Avenir,Nunito,Arial,Helvetica,SansSerif" font-size="12.5" font-weight="bold" lengthAdjust="spacing" textLength="31.25" x="96.0938" y="260.5794">from</text><path codeLine="12" d="M159.2083,225.4215 C152.3438,238.7861 144.0729,253.9736 135.6771,267.2445 C129.0104,277.7757 120.9063,288.8695 113.6875,298.2549 " fill="none" id="EmailLog-backto-EmailAddress-1" style="stroke:#545454;stroke-width:1.5625;"/><polygon fill="#333333" points="165.3125,213.2965,158.7815,217.0073,159.6949,224.4631,166.2259,220.7524,165.3125,213.2965" style="stroke:#545454;stroke-width:1.5625;"/><text fill="#A0A0A0" font-family="Open Sans,Avenir,Nunito,Arial,Helvetica,SansSerif" font-size="12.5" font-weight="bold" lengthAdjust="spacing" textLength="13.5417" x="152.3438" y="260.5794">to</text><text fill="#A0A0A0" font-family="Open Sans,Avenir,Nunito,Arial,Helvetica,SansSerif" font-size="12.5" font-weight="bold" lengthAdjust="spacing" textLength="8.3333" x="149.3981" y="236.9387">1</text><text fill="#A0A0A0" font-family="Open Sans,Avenir,Nunito,Arial,Helvetica,SansSerif" font-size="12.5" font-weight="bold" lengthAdjust="spacing" textLength="6.25" x="107.3314" y="284.1942">*</text><path codeLine="11" d="M196.8333,225.1195 C210.4792,248.359 228.0208,278.2132 239.9167,298.484 " fill="none" id="EmailLog-backto-EmailSender" style="stroke:#545454;stroke-width:1.5625;"/><polygon fill="#333333" points="189.9063,213.3278,189.4783,220.8272,196.2362,224.1066,196.6641,216.6072,189.9063,213.3278" style="stroke:#545454;stroke-width:1.5625;"/></g></svg>
