<?xml version="1.0" encoding="UTF-8" standalone="no"?><svg xmlns="http://www.w3.org/2000/svg" xmlns:xlink="http://www.w3.org/1999/xlink" contentScriptType="application/ecmascript" contentStyleType="text/css" height="1230.2083px" preserveAspectRatio="none" style="width:1147px;height:1230px;background:#333333;" version="1.1" viewBox="0 0 1147 1230" width="1147.9167px" zoomAndPan="magnify"><defs/><g><rect fill="#48494B" height="41.2028" rx="8.3333" ry="8.3333" style="stroke:#545454;stroke-width:1.0416666666666667;" width="389.5833" x="371.875" y="2.0833"/><text fill="#C0C0C0" font-family="Open Sans,Avenir,Nunito,Arial,Helvetica,SansSerif" font-size="20.8333" lengthAdjust="spacing" textLength="366.6667" x="383.3333" y="30.5583">com.telenav.kivakit.resource.reading</text><rect codeLine="7" fill="#282828" height="48.055" id="BaseRepeater" rx="8.3333" ry="8.3333" style="stroke:#5E5E5E;stroke-width:1.0416666666666667;" width="123.9583" x="67.7083" y="93.2861"/><rect fill="#1B1B1A" height="31.3883" rx="8.3333" ry="8.3333" style="stroke:#1B1B1A;stroke-width:1.0416666666666667;" width="123.9583" x="67.7083" y="93.2861"/><rect fill="#1B1B1A" height="8.3333" style="stroke:#1B1B1A;stroke-width:1.0416666666666667;" width="123.9583" x="67.7083" y="116.3411"/><rect codeLine="7" fill="none" height="48.055" id="BaseRepeater" rx="8.3333" ry="8.3333" style="stroke:#5E5E5E;stroke-width:1.0416666666666667;" width="123.9583" x="67.7083" y="93.2861"/><ellipse cx="82.2917" cy="108.9803" fill="#C8AC00" rx="10.4167" ry="10.4167" style="stroke:#D8BC00;stroke-width:1.0416666666666667;"/><path d="M81.8848,105.6824 L81.0364,109.4116 L82.7393,109.4116 Z M80.7861,104.0344 L82.9895,104.0344 L85.4492,113.147 L83.6487,113.147 L83.0872,110.8948 L80.6763,110.8948 L80.127,113.147 L78.3264,113.147 Z " fill="#000000"/><text fill="#D8BC00" font-family="Open Sans,Avenir,Nunito,Arial,Helvetica,SansSerif" font-size="12.5" font-style="italic" font-weight="bold" lengthAdjust="spacing" textLength="86.4583" x="98.9583" y="113.7044">BaseRepeater</text><line style="stroke:#5E5E5E;stroke-width:1.0416666666666667;" x1="68.75" x2="190.625" y1="124.6745" y2="124.6745"/><line style="stroke:#5E5E5E;stroke-width:1.0416666666666667;" x1="68.75" x2="190.625" y1="133.0078" y2="133.0078"/><rect codeLine="9" fill="#282828" height="48.055" id="Iterable" rx="8.3333" ry="8.3333" style="stroke:#5E5E5E;stroke-width:1.0416666666666667;" width="86.4583" x="400" y="93.2861"/><rect fill="#1B1B1A" height="31.3883" rx="8.3333" ry="8.3333" style="stroke:#1B1B1A;stroke-width:1.0416666666666667;" width="86.4583" x="400" y="93.2861"/><rect fill="#1B1B1A" height="8.3333" style="stroke:#1B1B1A;stroke-width:1.0416666666666667;" width="86.4583" x="400" y="116.3411"/><rect codeLine="9" fill="none" height="48.055" id="Iterable" rx="8.3333" ry="8.3333" style="stroke:#5E5E5E;stroke-width:1.0416666666666667;" width="86.4583" x="400" y="93.2861"/><ellipse cx="414.5833" cy="108.9803" fill="#008400" rx="10.4167" ry="10.4167" style="stroke:#239C23;stroke-width:1.0416666666666667;"/><path d="M411.9873,106.1422 L411.9873,104.5553 L417.4133,104.5553 L417.4133,106.1422 L415.6006,106.1422 L415.6006,112.0809 L417.4133,112.0809 L417.4133,113.6678 L411.9873,113.6678 L411.9873,112.0809 L413.8,112.0809 L413.8,106.1422 Z " fill="#000000"/><text fill="#D8BC00" font-family="Open Sans,Avenir,Nunito,Arial,Helvetica,SansSerif" font-size="12.5" font-style="italic" font-weight="bold" lengthAdjust="spacing" textLength="48.9583" x="431.25" y="113.7044">Iterable</text><line style="stroke:#5E5E5E;stroke-width:1.0416666666666667;" x1="401.0417" x2="485.4167" y1="124.6745" y2="124.6745"/><line style="stroke:#5E5E5E;stroke-width:1.0416666666666667;" x1="401.0417" x2="485.4167" y1="133.0078" y2="133.0078"/><rect codeLine="10" fill="#282828" height="48.055" id="Resource" rx="8.3333" ry="8.3333" style="stroke:#5E5E5E;stroke-width:1.0416666666666667;" width="95.8333" x="228.6458" y="93.2861"/><rect fill="#1B1B1A" height="31.3883" rx="8.3333" ry="8.3333" style="stroke:#1B1B1A;stroke-width:1.0416666666666667;" width="95.8333" x="228.6458" y="93.2861"/><rect fill="#1B1B1A" height="8.3333" style="stroke:#1B1B1A;stroke-width:1.0416666666666667;" width="95.8333" x="228.6458" y="116.3411"/><rect codeLine="10" fill="none" height="48.055" id="Resource" rx="8.3333" ry="8.3333" style="stroke:#5E5E5E;stroke-width:1.0416666666666667;" width="95.8333" x="228.6458" y="93.2861"/><ellipse cx="243.2292" cy="108.9803" fill="#008400" rx="10.4167" ry="10.4167" style="stroke:#239C23;stroke-width:1.0416666666666667;"/><path d="M240.6331,106.1422 L240.6331,104.5553 L246.0592,104.5553 L246.0592,106.1422 L244.2464,106.1422 L244.2464,112.0809 L246.0592,112.0809 L246.0592,113.6678 L240.6331,113.6678 L240.6331,112.0809 L242.4459,112.0809 L242.4459,106.1422 Z " fill="#000000"/><text fill="#D8BC00" font-family="Open Sans,Avenir,Nunito,Arial,Helvetica,SansSerif" font-size="12.5" font-style="italic" font-weight="bold" lengthAdjust="spacing" textLength="58.3333" x="259.8958" y="113.7044">Resource</text><line style="stroke:#5E5E5E;stroke-width:1.0416666666666667;" x1="229.6875" x2="323.4375" y1="124.6745" y2="124.6745"/><line style="stroke:#5E5E5E;stroke-width:1.0416666666666667;" x1="229.6875" x2="323.4375" y1="133.0078" y2="133.0078"/><rect codeLine="14" fill="#282828" height="170.6909" id="BaseReadableResource" rx="8.3333" ry="8.3333" style="stroke:#5E5E5E;stroke-width:1.0416666666666667;" width="294.7917" x="9.375" y="264.1195"/><rect fill="#1B1B1A" height="31.3883" rx="8.3333" ry="8.3333" style="stroke:#1B1B1A;stroke-width:1.0416666666666667;" width="294.7917" x="9.375" y="264.1195"/><rect fill="#1B1B1A" height="8.3333" style="stroke:#1B1B1A;stroke-width:1.0416666666666667;" width="294.7917" x="9.375" y="287.1745"/><rect codeLine="14" fill="none" height="170.6909" id="BaseReadableResource" rx="8.3333" ry="8.3333" style="stroke:#5E5E5E;stroke-width:1.0416666666666667;" width="294.7917" x="9.375" y="264.1195"/><ellipse cx="76.0417" cy="279.8136" fill="#C8AC00" rx="10.4167" ry="10.4167" style="stroke:#D8BC00;stroke-width:1.0416666666666667;"/><path d="M75.6348,276.5157 L74.7864,280.245 L76.4893,280.245 Z M74.5361,274.8678 L76.7395,274.8678 L79.1992,283.9803 L77.3987,283.9803 L76.8372,281.7281 L74.4263,281.7281 L73.877,283.9803 L72.0764,283.9803 Z " fill="#000000"/><text fill="#D8BC00" font-family="Open Sans,Avenir,Nunito,Arial,Helvetica,SansSerif" font-size="12.5" font-style="italic" font-weight="bold" lengthAdjust="spacing" textLength="146.875" x="98.9583" y="284.5378">BaseReadableResource</text><line style="stroke:#5E5E5E;stroke-width:1.5625;" x1="10.4167" x2="303.125" y1="295.5078" y2="295.5078"/><polygon fill="#FFFF44" points="20.8333,325.6694,25,329.836,20.8333,334.0027,16.6667,329.836" style="stroke:#B38D22;stroke-width:1.0416666666666667;"/><text fill="#D8BC00" font-family="Open Sans,Avenir,Nunito,Arial,Helvetica,SansSerif" font-size="11.4583" lengthAdjust="spacing" textLength="135.4167" x="32.2917" y="337.7889">BaseReadableResource()</text><polygon fill="#FFFF44" points="20.8333,345.4142,25,349.5809,20.8333,353.7476,16.6667,349.5809" style="stroke:#B38D22;stroke-width:1.0416666666666667;"/><text fill="#D8BC00" font-family="Open Sans,Avenir,Nunito,Arial,Helvetica,SansSerif" font-size="11.4583" lengthAdjust="spacing" textLength="262.5" x="32.2917" y="357.5338">BaseReadableResource(BaseReadableResource)</text><polygon fill="#FFFF44" points="20.8333,365.1591,25,369.3258,20.8333,373.4924,16.6667,369.3258" style="stroke:#B38D22;stroke-width:1.0416666666666667;"/><text fill="#D8BC00" font-family="Open Sans,Avenir,Nunito,Arial,Helvetica,SansSerif" font-size="11.4583" lengthAdjust="spacing" textLength="211.4583" x="32.2917" y="377.2786">BaseReadableResource(ResourcePath)</text><line style="stroke:#5E5E5E;stroke-width:1.0416666666666667;" x1="10.4167" x2="113.0208" y1="313.7136" y2="313.7136"/><text fill="#D8BC00" font-family="Open Sans,Avenir,Nunito,Arial,Helvetica,SansSerif" font-size="11.4583" lengthAdjust="spacing" textLength="81.25" x="116.1458" y="317.5232">(constructors)</text><line style="stroke:#5E5E5E;stroke-width:1.0416666666666667;" x1="200.5208" x2="303.125" y1="313.7136" y2="313.7136"/><line style="stroke:#5E5E5E;stroke-width:1.0416666666666667;" x1="10.4167" x2="303.125" y1="386.9873" y2="386.9873"/><ellipse cx="20.8333" cy="398.4456" fill="#84BE84" rx="3.125" ry="3.125" style="stroke:#038048;stroke-width:1.0416666666666667;"/><text fill="#D8BC00" font-family="Open Sans,Avenir,Nunito,Arial,Helvetica,SansSerif" font-size="11.4583" lengthAdjust="spacing" textLength="207.2917" x="32.2917" y="405.3569">BaseReadableResource codec(Codec)</text><polygon fill="#FFFF44" points="20.8333,412.9822,25,417.1488,20.8333,421.3155,16.6667,417.1488" style="stroke:#B38D22;stroke-width:1.0416666666666667;"/><text fill="#D8BC00" font-family="Open Sans,Avenir,Nunito,Arial,Helvetica,SansSerif" font-size="11.4583" lengthAdjust="spacing" textLength="120.8333" x="32.2917" y="425.1017">void charset(Charset)</text><rect fill="#282828" height="48.055" id="Multicaster" rx="8.3333" ry="8.3333" style="stroke:#5E5E5E;stroke-width:1.0416666666666667;" width="109.375" x="522.9167" y="93.2861"/><rect fill="#1B1B1A" height="31.3883" rx="8.3333" ry="8.3333" style="stroke:#1B1B1A;stroke-width:1.0416666666666667;" width="109.375" x="522.9167" y="93.2861"/><rect fill="#1B1B1A" height="8.3333" style="stroke:#1B1B1A;stroke-width:1.0416666666666667;" width="109.375" x="522.9167" y="116.3411"/><rect fill="none" height="48.055" id="Multicaster" rx="8.3333" ry="8.3333" style="stroke:#5E5E5E;stroke-width:1.0416666666666667;" width="109.375" x="522.9167" y="93.2861"/><ellipse cx="537.5" cy="108.9803" fill="#0066CF" rx="10.4167" ry="10.4167" style="stroke:#0086EF;stroke-width:1.0416666666666667;"/><path d="M539.4104,113.4054 Q538.9832,113.6251 538.5132,113.7349 Q538.0432,113.8448 537.5244,113.8448 Q535.6812,113.8448 534.7107,112.6302 Q533.7402,111.4156 533.7402,109.1207 Q533.7402,106.8197 534.7107,105.6051 Q535.6812,104.3905 537.5244,104.3905 Q538.0432,104.3905 538.5193,104.5003 Q538.9954,104.6102 539.4104,104.8299 L539.4104,106.8319 Q538.9465,106.4046 538.5101,106.2063 Q538.0737,106.0079 537.6099,106.0079 Q536.6211,106.0079 536.1176,106.7922 Q535.614,107.5765 535.614,109.1207 Q535.614,110.6588 536.1176,111.4431 Q536.6211,112.2274 537.6099,112.2274 Q538.0737,112.2274 538.5101,112.029 Q538.9465,111.8306 539.4104,111.4034 Z " fill="#000000"/><text fill="#D8BC00" font-family="Open Sans,Avenir,Nunito,Arial,Helvetica,SansSerif" font-size="12.5" font-weight="bold" lengthAdjust="spacing" textLength="71.875" x="554.1667" y="113.7044">Multicaster</text><line style="stroke:#5E5E5E;stroke-width:1.0416666666666667;" x1="523.9583" x2="631.25" y1="124.6745" y2="124.6745"/><line style="stroke:#5E5E5E;stroke-width:1.0416666666666667;" x1="523.9583" x2="631.25" y1="133.0078" y2="133.0078"/><rect codeLine="27" fill="#282828" height="174.8576" id="LineReader" rx="8.3333" ry="8.3333" style="stroke:#5E5E5E;stroke-width:1.0416666666666667;" width="309.375" x="394.7917" y="262.0361"/><rect fill="#1B1B1A" height="31.3883" rx="8.3333" ry="8.3333" style="stroke:#1B1B1A;stroke-width:1.0416666666666667;" width="309.375" x="394.7917" y="262.0361"/><rect fill="#1B1B1A" height="8.3333" style="stroke:#1B1B1A;stroke-width:1.0416666666666667;" width="309.375" x="394.7917" y="285.0911"/><rect codeLine="27" fill="none" height="174.8576" id="LineReader" rx="8.3333" ry="8.3333" style="stroke:#5E5E5E;stroke-width:1.0416666666666667;" width="309.375" x="394.7917" y="262.0361"/><ellipse cx="506.7708" cy="277.7303" fill="#0066CF" rx="10.4167" ry="10.4167" style="stroke:#0086EF;stroke-width:1.0416666666666667;"/><path d="M508.6812,282.1554 Q508.254,282.3751 507.784,282.4849 Q507.314,282.5948 506.7952,282.5948 Q504.952,282.5948 503.9815,281.3802 Q503.0111,280.1656 503.0111,277.8707 Q503.0111,275.5697 503.9815,274.3551 Q504.952,273.1405 506.7952,273.1405 Q507.314,273.1405 507.7901,273.2503 Q508.2662,273.3602 508.6812,273.5799 L508.6812,275.5819 Q508.2174,275.1546 507.781,274.9563 Q507.3446,274.7579 506.8807,274.7579 Q505.8919,274.7579 505.3884,275.5422 Q504.8848,276.3265 504.8848,277.8707 Q504.8848,279.4088 505.3884,280.1931 Q505.8919,280.9774 506.8807,280.9774 Q507.3446,280.9774 507.781,280.779 Q508.2174,280.5806 508.6812,280.1534 Z " fill="#000000"/><text fill="#D8BC00" font-family="Open Sans,Avenir,Nunito,Arial,Helvetica,SansSerif" font-size="12.5" font-weight="bold" lengthAdjust="spacing" textLength="70.8333" x="529.6875" y="282.4544">LineReader</text><line style="stroke:#5E5E5E;stroke-width:1.5625;" x1="395.8333" x2="703.125" y1="293.4245" y2="293.4245"/><ellipse cx="406.25" cy="328.7944" fill="#84BE84" rx="3.125" ry="3.125" style="stroke:#038048;stroke-width:1.0416666666666667;"/><text fill="#D8BC00" font-family="Open Sans,Avenir,Nunito,Arial,Helvetica,SansSerif" font-size="11.4583" lengthAdjust="spacing" textLength="277.0833" x="417.7083" y="335.7056">LineReader(ReadableResource, ProgressReporter)</text><line style="stroke:#5E5E5E;stroke-width:1.0416666666666667;" x1="395.8333" x2="505.7292" y1="311.6302" y2="311.6302"/><text fill="#D8BC00" font-family="Open Sans,Avenir,Nunito,Arial,Helvetica,SansSerif" font-size="11.4583" lengthAdjust="spacing" textLength="81.25" x="508.8542" y="315.4399">(constructors)</text><line style="stroke:#5E5E5E;stroke-width:1.0416666666666667;" x1="593.2292" x2="703.125" y1="311.6302" y2="311.6302"/><line style="stroke:#5E5E5E;stroke-width:1.0416666666666667;" x1="395.8333" x2="703.125" y1="345.4142" y2="345.4142"/><ellipse cx="406.25" cy="356.8726" fill="#84BE84" rx="3.125" ry="3.125" style="stroke:#038048;stroke-width:1.0416666666666667;"/><text fill="#D8BC00" font-family="Open Sans,Avenir,Nunito,Arial,Helvetica,SansSerif" font-size="11.4583" lengthAdjust="spacing" textLength="171.875" x="417.7083" y="363.7838">void lines(Consumer&lt;String&gt;)</text><ellipse cx="406.25" cy="376.6174" fill="#84BE84" rx="3.125" ry="3.125" style="stroke:#038048;stroke-width:1.0416666666666667;"/><text fill="#D8BC00" font-family="Open Sans,Avenir,Nunito,Arial,Helvetica,SansSerif" font-size="11.4583" lengthAdjust="spacing" textLength="140.625" x="417.7083" y="383.5286">Stream&lt;String&gt; stream()</text><ellipse cx="406.25" cy="420.2738" fill="#84BE84" rx="3.125" ry="3.125" style="stroke:#038048;stroke-width:1.0416666666666667;"/><text fill="#D8BC00" font-family="Open Sans,Avenir,Nunito,Arial,Helvetica,SansSerif" font-size="11.4583" lengthAdjust="spacing" textLength="90.625" x="417.7083" y="427.1851">StringList lines()</text><line style="stroke:#5E5E5E;stroke-width:1.0416666666666667;" x1="395.8333" x2="515.1042" y1="403.1097" y2="403.1097"/><text fill="#D8BC00" font-family="Open Sans,Avenir,Nunito,Arial,Helvetica,SansSerif" font-size="11.4583" lengthAdjust="spacing" textLength="62.5" x="518.2292" y="406.9194">(collection)</text><line style="stroke:#5E5E5E;stroke-width:1.0416666666666667;" x1="583.8542" x2="703.125" y1="403.1097" y2="403.1097"/><rect codeLine="38" fill="#282828" height="127.0345" id="LineSource" rx="8.3333" ry="8.3333" style="stroke:#5E5E5E;stroke-width:1.0416666666666667;" width="163.5417" x="668.75" y="53.7028"/><rect fill="#1B1B1A" height="31.3883" rx="8.3333" ry="8.3333" style="stroke:#1B1B1A;stroke-width:1.0416666666666667;" width="163.5417" x="668.75" y="53.7028"/><rect fill="#1B1B1A" height="8.3333" style="stroke:#1B1B1A;stroke-width:1.0416666666666667;" width="163.5417" x="668.75" y="76.7578"/><rect codeLine="38" fill="none" height="127.0345" id="LineSource" rx="8.3333" ry="8.3333" style="stroke:#5E5E5E;stroke-width:1.0416666666666667;" width="163.5417" x="668.75" y="53.7028"/><ellipse cx="708.6458" cy="69.397" fill="#008400" rx="10.4167" ry="10.4167" style="stroke:#239C23;stroke-width:1.0416666666666667;"/><path d="M706.0498,66.5588 L706.0498,64.9719 L711.4758,64.9719 L711.4758,66.5588 L709.6631,66.5588 L709.6631,72.4976 L711.4758,72.4976 L711.4758,74.0845 L706.0498,74.0845 L706.0498,72.4976 L707.8625,72.4976 L707.8625,66.5588 Z " fill="#000000"/><text fill="#D8BC00" font-family="Open Sans,Avenir,Nunito,Arial,Helvetica,SansSerif" font-size="12.5" font-style="italic" font-weight="bold" lengthAdjust="spacing" textLength="69.7917" x="730.9375" y="74.1211">LineSource</text><line style="stroke:#5E5E5E;stroke-width:1.5625;" x1="669.7917" x2="831.25" y1="85.0911" y2="85.0911"/><ellipse cx="680.2083" cy="120.461" fill="#84BE84" rx="3.125" ry="3.125" style="stroke:#038048;stroke-width:1.0416666666666667;"/><text fill="#D8BC00" font-family="Open Sans,Avenir,Nunito,Arial,Helvetica,SansSerif" font-size="11.4583" lengthAdjust="spacing" textLength="131.25" x="691.6667" y="127.3722">Iterable&lt;String&gt; lines()</text><line style="stroke:#5E5E5E;stroke-width:1.0416666666666667;" x1="669.7917" x2="716.1458" y1="103.2969" y2="103.2969"/><text fill="#D8BC00" font-family="Open Sans,Avenir,Nunito,Arial,Helvetica,SansSerif" font-size="11.4583" lengthAdjust="spacing" textLength="62.5" x="719.2708" y="107.1065">(collection)</text><line style="stroke:#5E5E5E;stroke-width:1.0416666666666667;" x1="784.8958" x2="831.25" y1="103.2969" y2="103.2969"/><ellipse cx="680.2083" cy="164.1174" fill="#84BE84" rx="3.125" ry="3.125" style="stroke:#038048;stroke-width:1.0416666666666667;"/><text fill="#D8BC00" font-family="Open Sans,Avenir,Nunito,Arial,Helvetica,SansSerif" font-size="11.4583" lengthAdjust="spacing" textLength="131.25" x="691.6667" y="171.0286">LineReader lineReader()</text><line style="stroke:#5E5E5E;stroke-width:1.0416666666666667;" x1="669.7917" x2="730.7292" y1="146.9533" y2="146.9533"/><text fill="#D8BC00" font-family="Open Sans,Avenir,Nunito,Arial,Helvetica,SansSerif" font-size="11.4583" lengthAdjust="spacing" textLength="33.3333" x="733.8542" y="150.7629">(read)</text><line style="stroke:#5E5E5E;stroke-width:1.0416666666666667;" x1="770.3125" x2="831.25" y1="146.9533" y2="146.9533"/><rect codeLine="46" fill="#282828" height="48.055" id="ByteSized" rx="8.3333" ry="8.3333" style="stroke:#5E5E5E;stroke-width:1.0416666666666667;" width="100" x="869.2708" y="93.2861"/><rect fill="#1B1B1A" height="31.3883" rx="8.3333" ry="8.3333" style="stroke:#1B1B1A;stroke-width:1.0416666666666667;" width="100" x="869.2708" y="93.2861"/><rect fill="#1B1B1A" height="8.3333" style="stroke:#1B1B1A;stroke-width:1.0416666666666667;" width="100" x="869.2708" y="116.3411"/><rect codeLine="46" fill="none" height="48.055" id="ByteSized" rx="8.3333" ry="8.3333" style="stroke:#5E5E5E;stroke-width:1.0416666666666667;" width="100" x="869.2708" y="93.2861"/><ellipse cx="883.8542" cy="108.9803" fill="#008400" rx="10.4167" ry="10.4167" style="stroke:#239C23;stroke-width:1.0416666666666667;"/><path d="M881.2581,106.1422 L881.2581,104.5553 L886.6842,104.5553 L886.6842,106.1422 L884.8714,106.1422 L884.8714,112.0809 L886.6842,112.0809 L886.6842,113.6678 L881.2581,113.6678 L881.2581,112.0809 L883.0709,112.0809 L883.0709,106.1422 Z " fill="#000000"/><text fill="#D8BC00" font-family="Open Sans,Avenir,Nunito,Arial,Helvetica,SansSerif" font-size="12.5" font-style="italic" font-weight="bold" lengthAdjust="spacing" textLength="62.5" x="900.5208" y="113.7044">ByteSized</text><line style="stroke:#5E5E5E;stroke-width:1.0416666666666667;" x1="870.3125" x2="968.2292" y1="124.6745" y2="124.6745"/><line style="stroke:#5E5E5E;stroke-width:1.0416666666666667;" x1="870.3125" x2="968.2292" y1="133.0078" y2="133.0078"/><rect codeLine="60" fill="#282828" height="210.1807" id="Readable" rx="8.3333" ry="8.3333" style="stroke:#5E5E5E;stroke-width:1.0416666666666667;" width="302.0833" x="768.2292" y="244.3278"/><rect fill="#1B1B1A" height="31.3883" rx="8.3333" ry="8.3333" style="stroke:#1B1B1A;stroke-width:1.0416666666666667;" width="302.0833" x="768.2292" y="244.3278"/><rect fill="#1B1B1A" height="8.3333" style="stroke:#1B1B1A;stroke-width:1.0416666666666667;" width="302.0833" x="768.2292" y="267.3828"/><rect codeLine="60" fill="none" height="210.1807" id="Readable" rx="8.3333" ry="8.3333" style="stroke:#5E5E5E;stroke-width:1.0416666666666667;" width="302.0833" x="768.2292" y="244.3278"/><ellipse cx="882.8125" cy="260.022" fill="#008400" rx="10.4167" ry="10.4167" style="stroke:#239C23;stroke-width:1.0416666666666667;"/><path d="M880.2165,257.1838 L880.2165,255.5969 L885.6425,255.5969 L885.6425,257.1838 L883.8298,257.1838 L883.8298,263.1226 L885.6425,263.1226 L885.6425,264.7095 L880.2165,264.7095 L880.2165,263.1226 L882.0292,263.1226 L882.0292,257.1838 Z " fill="#000000"/><text fill="#D8BC00" font-family="Open Sans,Avenir,Nunito,Arial,Helvetica,SansSerif" font-size="12.5" font-style="italic" font-weight="bold" lengthAdjust="spacing" textLength="58.3333" x="905.7292" y="264.7461">Readable</text><line style="stroke:#5E5E5E;stroke-width:1.5625;" x1="769.2708" x2="1069.2708" y1="275.7161" y2="275.7161"/><ellipse cx="779.6875" cy="311.086" fill="#84BE84" rx="3.125" ry="3.125" style="stroke:#038048;stroke-width:1.0416666666666667;"/><text fill="#D8BC00" font-family="Open Sans,Avenir,Nunito,Arial,Helvetica,SansSerif" font-size="11.4583" lengthAdjust="spacing" textLength="115.625" x="791.1458" y="317.9972">boolean isReadable()</text><line style="stroke:#5E5E5E;stroke-width:1.0416666666666667;" x1="769.2708" x2="892.7083" y1="293.9219" y2="293.9219"/><text fill="#D8BC00" font-family="Open Sans,Avenir,Nunito,Arial,Helvetica,SansSerif" font-size="11.4583" lengthAdjust="spacing" textLength="46.875" x="895.8333" y="297.7315">(checks)</text><line style="stroke:#5E5E5E;stroke-width:1.0416666666666667;" x1="945.8333" x2="1069.2708" y1="293.9219" y2="293.9219"/><ellipse cx="779.6875" cy="354.7424" fill="#84BE84" rx="3.125" ry="3.125" style="stroke:#038048;stroke-width:1.0416666666666667;"/><text fill="#D8BC00" font-family="Open Sans,Avenir,Nunito,Arial,Helvetica,SansSerif" font-size="11.4583" lengthAdjust="spacing" textLength="102.0833" x="791.1458" y="361.6536">Bytes sizeInBytes()</text><line style="stroke:#5E5E5E;stroke-width:1.0416666666666667;" x1="769.2708" x2="887.5" y1="337.5783" y2="337.5783"/><text fill="#D8BC00" font-family="Open Sans,Avenir,Nunito,Arial,Helvetica,SansSerif" font-size="11.4583" lengthAdjust="spacing" textLength="57.2917" x="890.625" y="341.3879">(primitive)</text><line style="stroke:#5E5E5E;stroke-width:1.0416666666666667;" x1="951.0417" x2="1069.2708" y1="337.5783" y2="337.5783"/><ellipse cx="779.6875" cy="398.3988" fill="#84BE84" rx="3.125" ry="3.125" style="stroke:#038048;stroke-width:1.0416666666666667;"/><text fill="#D8BC00" font-family="Open Sans,Avenir,Nunito,Arial,Helvetica,SansSerif" font-size="11.4583" lengthAdjust="spacing" textLength="187.5" x="791.1458" y="405.3101">InputStream onOpenForReading()</text><ellipse cx="779.6875" cy="418.1437" fill="#84BE84" rx="3.125" ry="3.125" style="stroke:#038048;stroke-width:1.0416666666666667;"/><text fill="#D8BC00" font-family="Open Sans,Avenir,Nunito,Arial,Helvetica,SansSerif" font-size="11.4583" lengthAdjust="spacing" textLength="170.8333" x="791.1458" y="425.0549">InputStream openForReading()</text><ellipse cx="779.6875" cy="437.8886" fill="#84BE84" rx="3.125" ry="3.125" style="stroke:#038048;stroke-width:1.0416666666666667;"/><text fill="#D8BC00" font-family="Open Sans,Avenir,Nunito,Arial,Helvetica,SansSerif" font-size="11.4583" lengthAdjust="spacing" textLength="269.7917" x="791.1458" y="444.7998">InputStream openForReading(ProgressReporter)</text><line style="stroke:#5E5E5E;stroke-width:1.0416666666666667;" x1="769.2708" x2="899.4792" y1="381.2347" y2="381.2347"/><text fill="#D8BC00" font-family="Open Sans,Avenir,Nunito,Arial,Helvetica,SansSerif" font-size="11.4583" lengthAdjust="spacing" textLength="33.3333" x="902.6042" y="385.0444">(read)</text><line style="stroke:#5E5E5E;stroke-width:1.0416666666666667;" x1="939.0625" x2="1069.2708" y1="381.2347" y2="381.2347"/><rect codeLine="63" fill="#282828" height="258.0037" id="ReadableResource" rx="8.3333" ry="8.3333" style="stroke:#5E5E5E;stroke-width:1.0416666666666667;" width="442.7083" x="697.9167" y="518.2861"/><rect fill="#1B1B1A" height="31.3883" rx="8.3333" ry="8.3333" style="stroke:#1B1B1A;stroke-width:1.0416666666666667;" width="442.7083" x="697.9167" y="518.2861"/><rect fill="#1B1B1A" height="8.3333" style="stroke:#1B1B1A;stroke-width:1.0416666666666667;" width="442.7083" x="697.9167" y="541.3411"/><rect codeLine="63" fill="none" height="258.0037" id="ReadableResource" rx="8.3333" ry="8.3333" style="stroke:#5E5E5E;stroke-width:1.0416666666666667;" width="442.7083" x="697.9167" y="518.2861"/><ellipse cx="853.6458" cy="533.9803" fill="#008400" rx="10.4167" ry="10.4167" style="stroke:#239C23;stroke-width:1.0416666666666667;"/><path d="M851.0498,531.1422 L851.0498,529.5553 L856.4758,529.5553 L856.4758,531.1422 L854.6631,531.1422 L854.6631,537.0809 L856.4758,537.0809 L856.4758,538.6678 L851.0498,538.6678 L851.0498,537.0809 L852.8625,537.0809 L852.8625,531.1422 Z " fill="#000000"/><text fill="#D8BC00" font-family="Open Sans,Avenir,Nunito,Arial,Helvetica,SansSerif" font-size="12.5" font-style="italic" font-weight="bold" lengthAdjust="spacing" textLength="116.6667" x="876.5625" y="538.7044">ReadableResource</text><line style="stroke:#5E5E5E;stroke-width:1.5625;" x1="698.9583" x2="1139.5833" y1="549.6745" y2="549.6745"/><line style="stroke:#5E5E5E;stroke-width:1.0416666666666667;" x1="698.9583" x2="1139.5833" y1="558.0078" y2="558.0078"/><ellipse cx="709.375" cy="569.4661" fill="#84BE84" rx="3.125" ry="3.125" style="stroke:#038048;stroke-width:1.0416666666666667;"/><text fill="#D8BC00" font-family="Open Sans,Avenir,Nunito,Arial,Helvetica,SansSerif" font-size="11.4583" lengthAdjust="spacing" textLength="96.875" x="720.8333" y="576.3774">Charset charset()</text><ellipse cx="709.375" cy="589.211" fill="#84BE84" rx="3.125" ry="3.125" style="stroke:#038048;stroke-width:1.0416666666666667;"/><text fill="#D8BC00" font-family="Open Sans,Avenir,Nunito,Arial,Helvetica,SansSerif" font-size="11.4583" lengthAdjust="spacing" textLength="113.5417" x="720.8333" y="596.1222">Resource resource()</text><ellipse cx="709.375" cy="632.8674" fill="#84BE84" rx="3.125" ry="3.125" style="stroke:#038048;stroke-width:1.0416666666666667;"/><text fill="#D8BC00" font-family="Open Sans,Avenir,Nunito,Arial,Helvetica,SansSerif" font-size="11.4583" lengthAdjust="spacing" textLength="194.7917" x="720.8333" y="639.7786">StringResource asStringResource()</text><line style="stroke:#5E5E5E;stroke-width:1.0416666666666667;" x1="698.9583" x2="880.7292" y1="615.7033" y2="615.7033"/><text fill="#D8BC00" font-family="Open Sans,Avenir,Nunito,Arial,Helvetica,SansSerif" font-size="11.4583" lengthAdjust="spacing" textLength="70.8333" x="883.8542" y="619.5129">(conversion)</text><line style="stroke:#5E5E5E;stroke-width:1.0416666666666667;" x1="957.8125" x2="1139.5833" y1="615.7033" y2="615.7033"/><ellipse cx="709.375" cy="676.5238" fill="#84BE84" rx="3.125" ry="3.125" style="stroke:#038048;stroke-width:1.0416666666666667;"/><text fill="#D8BC00" font-family="Open Sans,Avenir,Nunito,Arial,Helvetica,SansSerif" font-size="11.4583" lengthAdjust="spacing" textLength="410.4167" x="720.8333" y="683.4351">void copyTo(WritableResource destination, CopyMode, ProgressReporter)</text><line style="stroke:#5E5E5E;stroke-width:1.0416666666666667;" x1="698.9583" x2="883.8542" y1="659.3597" y2="659.3597"/><text fill="#D8BC00" font-family="Open Sans,Avenir,Nunito,Arial,Helvetica,SansSerif" font-size="11.4583" lengthAdjust="spacing" textLength="64.5833" x="886.9792" y="663.1694">(filesystem)</text><line style="stroke:#5E5E5E;stroke-width:1.0416666666666667;" x1="954.6875" x2="1139.5833" y1="659.3597" y2="659.3597"/><ellipse cx="709.375" cy="720.1803" fill="#84BE84" rx="3.125" ry="3.125" style="stroke:#038048;stroke-width:1.0416666666666667;"/><text fill="#D8BC00" font-family="Open Sans,Avenir,Nunito,Arial,Helvetica,SansSerif" font-size="11.4583" lengthAdjust="spacing" textLength="237.5" x="720.8333" y="727.0915">ResourceReader reader(ProgressReporter)</text><ellipse cx="709.375" cy="739.9251" fill="#84BE84" rx="3.125" ry="3.125" style="stroke:#038048;stroke-width:1.0416666666666667;"/><text fill="#D8BC00" font-family="Open Sans,Avenir,Nunito,Arial,Helvetica,SansSerif" font-size="11.4583" lengthAdjust="spacing" textLength="287.5" x="720.8333" y="746.8363">ResourceReader reader(ProgressReporter, Charset)</text><ellipse cx="709.375" cy="759.67" fill="#84BE84" rx="3.125" ry="3.125" style="stroke:#038048;stroke-width:1.0416666666666667;"/><text fill="#D8BC00" font-family="Open Sans,Avenir,Nunito,Arial,Helvetica,SansSerif" font-size="11.4583" lengthAdjust="spacing" textLength="138.5417" x="720.8333" y="766.5812">ResourceReader reader()</text><line style="stroke:#5E5E5E;stroke-width:1.0416666666666667;" x1="698.9583" x2="899.4792" y1="703.0162" y2="703.0162"/><text fill="#D8BC00" font-family="Open Sans,Avenir,Nunito,Arial,Helvetica,SansSerif" font-size="11.4583" lengthAdjust="spacing" textLength="33.3333" x="902.6042" y="706.8258">(read)</text><line style="stroke:#5E5E5E;stroke-width:1.0416666666666667;" x1="939.0625" x2="1139.5833" y1="703.0162" y2="703.0162"/><rect codeLine="78" fill="#282828" height="360.8948" id="ResourceReader" rx="8.3333" ry="8.3333" style="stroke:#5E5E5E;stroke-width:1.0416666666666667;" width="376.0417" x="731.25" y="862.0361"/><rect fill="#1B1B1A" height="31.3883" rx="8.3333" ry="8.3333" style="stroke:#1B1B1A;stroke-width:1.0416666666666667;" width="376.0417" x="731.25" y="862.0361"/><rect fill="#1B1B1A" height="8.3333" style="stroke:#1B1B1A;stroke-width:1.0416666666666667;" width="376.0417" x="731.25" y="885.0911"/><rect codeLine="78" fill="none" height="360.8948" id="ResourceReader" rx="8.3333" ry="8.3333" style="stroke:#5E5E5E;stroke-width:1.0416666666666667;" width="376.0417" x="731.25" y="862.0361"/><ellipse cx="860.9375" cy="877.7303" fill="#0066CF" rx="10.4167" ry="10.4167" style="stroke:#0086EF;stroke-width:1.0416666666666667;"/><path d="M862.8479,882.1554 Q862.4207,882.3751 861.9507,882.4849 Q861.4807,882.5948 860.9619,882.5948 Q859.1187,882.5948 858.1482,881.3802 Q857.1777,880.1656 857.1777,877.8707 Q857.1777,875.5697 858.1482,874.3551 Q859.1187,873.1405 860.9619,873.1405 Q861.4807,873.1405 861.9568,873.2503 Q862.4329,873.3602 862.8479,873.5799 L862.8479,875.5819 Q862.384,875.1546 861.9476,874.9563 Q861.5112,874.7579 861.0474,874.7579 Q860.0586,874.7579 859.5551,875.5422 Q859.0515,876.3265 859.0515,877.8707 Q859.0515,879.4088 859.5551,880.1931 Q860.0586,880.9774 861.0474,880.9774 Q861.5112,880.9774 861.9476,880.779 Q862.384,880.5806 862.8479,880.1534 Z " fill="#000000"/><text fill="#D8BC00" font-family="Open Sans,Avenir,Nunito,Arial,Helvetica,SansSerif" font-size="12.5" font-weight="bold" lengthAdjust="spacing" textLength="102.0833" x="883.8542" y="882.4544">ResourceReader</text><line style="stroke:#5E5E5E;stroke-width:1.5625;" x1="732.2917" x2="1106.25" y1="893.4245" y2="893.4245"/><ellipse cx="742.7083" cy="928.7944" fill="#84BE84" rx="3.125" ry="3.125" style="stroke:#038048;stroke-width:1.0416666666666667;"/><text fill="#D8BC00" font-family="Open Sans,Avenir,Nunito,Arial,Helvetica,SansSerif" font-size="11.4583" lengthAdjust="spacing" textLength="306.25" x="754.1667" y="935.7056">ResourceReader(Resource, ProgressReporter, Charset)</text><line style="stroke:#5E5E5E;stroke-width:1.0416666666666667;" x1="732.2917" x2="875.5208" y1="911.6302" y2="911.6302"/><text fill="#D8BC00" font-family="Open Sans,Avenir,Nunito,Arial,Helvetica,SansSerif" font-size="11.4583" lengthAdjust="spacing" textLength="81.25" x="878.6458" y="915.4399">(constructors)</text><line style="stroke:#5E5E5E;stroke-width:1.0416666666666667;" x1="963.0208" x2="1106.25" y1="911.6302" y2="911.6302"/><line style="stroke:#5E5E5E;stroke-width:1.0416666666666667;" x1="732.2917" x2="1106.25" y1="945.4142" y2="945.4142"/><ellipse cx="742.7083" cy="956.8726" fill="#84BE84" rx="3.125" ry="3.125" style="stroke:#038048;stroke-width:1.0416666666666667;"/><text fill="#D8BC00" font-family="Open Sans,Avenir,Nunito,Arial,Helvetica,SansSerif" font-size="11.4583" lengthAdjust="spacing" textLength="329.1667" x="754.1667" y="963.7838">Set&lt;T&gt; objectSet(Converter&lt;String,T&gt;, ProgressReporter)</text><ellipse cx="742.7083" cy="976.6174" fill="#84BE84" rx="3.125" ry="3.125" style="stroke:#038048;stroke-width:1.0416666666666667;"/><text fill="#D8BC00" font-family="Open Sans,Avenir,Nunito,Arial,Helvetica,SansSerif" font-size="11.4583" lengthAdjust="spacing" textLength="177.0833" x="754.1667" y="983.5286">String string(ProgressReporter)</text><ellipse cx="742.7083" cy="1020.2738" fill="#84BE84" rx="3.125" ry="3.125" style="stroke:#038048;stroke-width:1.0416666666666667;"/><text fill="#D8BC00" font-family="Open Sans,Avenir,Nunito,Arial,Helvetica,SansSerif" font-size="11.4583" lengthAdjust="spacing" textLength="230.2083" x="754.1667" y="1027.1851">Iterable&lt;String&gt; lines(ProgressReporter)</text><ellipse cx="742.7083" cy="1040.0187" fill="#84BE84" rx="3.125" ry="3.125" style="stroke:#038048;stroke-width:1.0416666666666667;"/><text fill="#D8BC00" font-family="Open Sans,Avenir,Nunito,Arial,Helvetica,SansSerif" font-size="11.4583" lengthAdjust="spacing" textLength="131.25" x="754.1667" y="1046.9299">Iterable&lt;String&gt; lines()</text><ellipse cx="742.7083" cy="1059.7636" fill="#84BE84" rx="3.125" ry="3.125" style="stroke:#038048;stroke-width:1.0416666666666667;"/><text fill="#D8BC00" font-family="Open Sans,Avenir,Nunito,Arial,Helvetica,SansSerif" font-size="11.4583" lengthAdjust="spacing" textLength="158.3333" x="754.1667" y="1066.6748">StringList linesAsStringList()</text><ellipse cx="742.7083" cy="1079.5085" fill="#84BE84" rx="3.125" ry="3.125" style="stroke:#038048;stroke-width:1.0416666666666667;"/><text fill="#D8BC00" font-family="Open Sans,Avenir,Nunito,Arial,Helvetica,SansSerif" font-size="11.4583" lengthAdjust="spacing" textLength="257.2917" x="754.1667" y="1086.4197">StringList linesAsStringList(ProgressReporter)</text><ellipse cx="742.7083" cy="1099.2533" fill="#84BE84" rx="3.125" ry="3.125" style="stroke:#038048;stroke-width:1.0416666666666667;"/><text fill="#D8BC00" font-family="Open Sans,Avenir,Nunito,Arial,Helvetica,SansSerif" font-size="11.4583" lengthAdjust="spacing" textLength="335.4167" x="754.1667" y="1106.1646">List&lt;T&gt; objectList(Converter&lt;String,T&gt;, ProgressReporter)</text><ellipse cx="742.7083" cy="1118.9982" fill="#84BE84" rx="3.125" ry="3.125" style="stroke:#038048;stroke-width:1.0416666666666667;"/><text fill="#D8BC00" font-family="Open Sans,Avenir,Nunito,Arial,Helvetica,SansSerif" font-size="11.4583" lengthAdjust="spacing" textLength="343.75" x="754.1667" y="1125.9094">Iterable&lt;T&gt; objects(Converter&lt;String,T&gt;, ProgressReporter)</text><line style="stroke:#5E5E5E;stroke-width:1.0416666666666667;" x1="732.2917" x2="884.8958" y1="1003.1097" y2="1003.1097"/><text fill="#D8BC00" font-family="Open Sans,Avenir,Nunito,Arial,Helvetica,SansSerif" font-size="11.4583" lengthAdjust="spacing" textLength="62.5" x="888.0208" y="1006.9194">(collection)</text><line style="stroke:#5E5E5E;stroke-width:1.0416666666666667;" x1="953.6458" x2="1106.25" y1="1003.1097" y2="1003.1097"/><ellipse cx="742.7083" cy="1162.6546" fill="#84BE84" rx="3.125" ry="3.125" style="stroke:#038048;stroke-width:1.0416666666666667;"/><text fill="#D8BC00" font-family="Open Sans,Avenir,Nunito,Arial,Helvetica,SansSerif" font-size="11.4583" lengthAdjust="spacing" textLength="73.9583" x="754.1667" y="1169.5658">byte[] bytes()</text><line style="stroke:#5E5E5E;stroke-width:1.0416666666666667;" x1="732.2917" x2="887.5" y1="1145.4905" y2="1145.4905"/><text fill="#D8BC00" font-family="Open Sans,Avenir,Nunito,Arial,Helvetica,SansSerif" font-size="11.4583" lengthAdjust="spacing" textLength="57.2917" x="890.625" y="1149.3001">(primitive)</text><line style="stroke:#5E5E5E;stroke-width:1.0416666666666667;" x1="951.0417" x2="1106.25" y1="1145.4905" y2="1145.4905"/><ellipse cx="742.7083" cy="1206.311" fill="#84BE84" rx="3.125" ry="3.125" style="stroke:#038048;stroke-width:1.0416666666666667;"/><text fill="#D8BC00" font-family="Open Sans,Avenir,Nunito,Arial,Helvetica,SansSerif" font-size="11.4583" lengthAdjust="spacing" textLength="110.4167" x="754.1667" y="1213.2222">Reader textReader()</text><line style="stroke:#5E5E5E;stroke-width:1.0416666666666667;" x1="732.2917" x2="899.4792" y1="1189.1469" y2="1189.1469"/><text fill="#D8BC00" font-family="Open Sans,Avenir,Nunito,Arial,Helvetica,SansSerif" font-size="11.4583" lengthAdjust="spacing" textLength="33.3333" x="902.6042" y="1192.9565">(read)</text><line style="stroke:#5E5E5E;stroke-width:1.0416666666666667;" x1="939.0625" x2="1106.25" y1="1189.1469" y2="1189.1469"/><path codeLine="12" d="M134.9167,162.734 C138.2917,191.3903 142.7813,229.5778 146.8125,263.8695 " fill="none" id="BaseRepeater-backto-BaseReadableResource" style="stroke:#545454;stroke-width:1.5625;"/><polygon fill="none" points="127.625,163.1715,132.4375,141.6299,142.1146,161.4632,127.625,163.1715" style="stroke:#545454;stroke-width:1.5625;"/><path codeLine="13" d="M254.75,160.1924 C239.7083,189.109 219.1875,228.557 200.8021,263.8695 " fill="none" id="Resource-backto-BaseReadableResource" style="stroke:#545454;stroke-width:1.5625;"/><polygon fill="none" points="248.3333,156.7445,264.4167,141.6299,261.2708,163.4736,248.3333,156.7445" style="stroke:#545454;stroke-width:1.5625;"/><path codeLine="25" d="M572.2188,162.4111 C568.7708,190.5882 564.1875,228.0882 560.0417,262.0361 " fill="none" id="Multicaster-backto-LineReader" style="stroke:#545454;stroke-width:1.5625;"/><polygon fill="none" points="564.9896,161.4215,574.75,141.6299,579.4688,163.1924,564.9896,161.4215" style="stroke:#545454;stroke-width:1.5625;"/><path codeLine="26" d="M462.8229,160.734 C475.9063,189.0986 493.5938,227.4111 509.5729,262.0361 " fill="none" id="Iterable-backto-LineReader" style="stroke:#545454;stroke-width:1.5625;"/><polygon fill="none" points="456.1146,163.5986,454,141.6299,469.3542,157.484,456.1146,163.5986" style="stroke:#545454;stroke-width:1.5625;"/><path codeLine="47" d="M919.2708,162.5361 C919.2708,185.8174 919.2708,215.4424 919.2708,244.1507 " fill="none" id="ByteSized-backto-Readable" style="stroke:#545454;stroke-width:1.5625;"/><polygon fill="none" points="911.9792,162.4632,919.2708,141.6299,926.5625,162.4632,911.9792,162.4632" style="stroke:#545454;stroke-width:1.5625;"/><path codeLine="61" d="M919.2708,475.8486 C919.2708,489.8486 919.2708,504.1195 919.2708,518.1611 " fill="none" id="Readable-backto-ReadableResource" style="stroke:#545454;stroke-width:1.5625;"/><polygon fill="none" points="911.9792,475.7132,919.2708,454.8799,926.5625,475.7132,911.9792,475.7132" style="stroke:#545454;stroke-width:1.5625;"/><path codeLine="62" d="M919.2708,776.807 C919.2708,802.2965 919.2708,829.5257 919.2708,856.4736 " fill="none" id="ReadableResource-to-ResourceReader" style="stroke:#545454;stroke-width:1.5625;"/><polygon fill="#545454" points="919.2708,861.859,923.4375,852.484,919.2708,856.6507,915.1042,852.484,919.2708,861.859" style="stroke:#545454;stroke-width:1.5625;"/><text fill="#A0A0A0" font-family="Open Sans,Avenir,Nunito,Arial,Helvetica,SansSerif" font-size="12.5" font-weight="bold" lengthAdjust="spacing" textLength="56.25" x="923.4375" y="824.1211">provides</text></g></svg>
