<?xml version="1.0" encoding="UTF-8" standalone="no"?><svg xmlns="http://www.w3.org/2000/svg" xmlns:xlink="http://www.w3.org/1999/xlink" contentScriptType="application/ecmascript" contentStyleType="text/css" height="607.2917px" preserveAspectRatio="none" style="width:845px;height:607px;background:#333333;" version="1.1" viewBox="0 0 845 607" width="845.8333px" zoomAndPan="magnify"><defs/><g><rect fill="#48494B" height="41.2028" rx="8.3333" ry="8.3333" style="stroke:#545454;stroke-width:1.0416666666666667;" width="343.75" x="244.0104" y="2.0833"/><text fill="#C0C0C0" font-family="Open Sans,Avenir,Nunito,Arial,Helvetica,SansSerif" font-size="20.8333" lengthAdjust="spacing" textLength="320.8333" x="255.4688" y="30.5583">com.telenav.kivakit.resource.spi</text><rect codeLine="7" fill="#282828" height="48.055" id="BaseRepeater" rx="8.3333" ry="8.3333" style="stroke:#5E5E5E;stroke-width:1.0416666666666667;" width="123.9583" x="70.3125" y="53.7028"/><rect fill="#1B1B1A" height="31.3883" rx="8.3333" ry="8.3333" style="stroke:#1B1B1A;stroke-width:1.0416666666666667;" width="123.9583" x="70.3125" y="53.7028"/><rect fill="#1B1B1A" height="8.3333" style="stroke:#1B1B1A;stroke-width:1.0416666666666667;" width="123.9583" x="70.3125" y="76.7578"/><rect codeLine="7" fill="none" height="48.055" id="BaseRepeater" rx="8.3333" ry="8.3333" style="stroke:#5E5E5E;stroke-width:1.0416666666666667;" width="123.9583" x="70.3125" y="53.7028"/><ellipse cx="84.8958" cy="69.397" fill="#C8AC00" rx="10.4167" ry="10.4167" style="stroke:#D8BC00;stroke-width:1.0416666666666667;"/><path d="M84.4889,66.099 L83.6405,69.8283 L85.3434,69.8283 Z M83.3903,64.4511 L85.5937,64.4511 L88.0534,73.5636 L86.2528,73.5636 L85.6913,71.3114 L83.2804,71.3114 L82.7311,73.5636 L80.9306,73.5636 Z " fill="#000000"/><text fill="#D8BC00" font-family="Open Sans,Avenir,Nunito,Arial,Helvetica,SansSerif" font-size="12.5" font-style="italic" font-weight="bold" lengthAdjust="spacing" textLength="86.4583" x="101.5625" y="74.1211">BaseRepeater</text><line style="stroke:#5E5E5E;stroke-width:1.0416666666666667;" x1="71.3542" x2="193.2292" y1="85.0911" y2="85.0911"/><line style="stroke:#5E5E5E;stroke-width:1.0416666666666667;" x1="71.3542" x2="193.2292" y1="93.4245" y2="93.4245"/><rect codeLine="28" fill="#282828" height="48.055" id="RepeaterMixin" rx="8.3333" ry="8.3333" style="stroke:#5E5E5E;stroke-width:1.0416666666666667;" width="129.1667" x="288.5417" y="196.932"/><rect fill="#1B1B1A" height="31.3883" rx="8.3333" ry="8.3333" style="stroke:#1B1B1A;stroke-width:1.0416666666666667;" width="129.1667" x="288.5417" y="196.932"/><rect fill="#1B1B1A" height="8.3333" style="stroke:#1B1B1A;stroke-width:1.0416666666666667;" width="129.1667" x="288.5417" y="219.987"/><rect codeLine="28" fill="none" height="48.055" id="RepeaterMixin" rx="8.3333" ry="8.3333" style="stroke:#5E5E5E;stroke-width:1.0416666666666667;" width="129.1667" x="288.5417" y="196.932"/><ellipse cx="303.125" cy="212.6261" fill="#008400" rx="10.4167" ry="10.4167" style="stroke:#239C23;stroke-width:1.0416666666666667;"/><path d="M300.529,209.788 L300.529,208.2011 L305.955,208.2011 L305.955,209.788 L304.1423,209.788 L304.1423,215.7267 L305.955,215.7267 L305.955,217.3136 L300.529,217.3136 L300.529,215.7267 L302.3417,215.7267 L302.3417,209.788 Z " fill="#000000"/><text fill="#D8BC00" font-family="Open Sans,Avenir,Nunito,Arial,Helvetica,SansSerif" font-size="12.5" font-style="italic" font-weight="bold" lengthAdjust="spacing" textLength="91.6667" x="319.7917" y="217.3503">RepeaterMixin</text><line style="stroke:#5E5E5E;stroke-width:1.0416666666666667;" x1="289.5833" x2="416.6667" y1="228.3203" y2="228.3203"/><line style="stroke:#5E5E5E;stroke-width:1.0416666666666667;" x1="289.5833" x2="416.6667" y1="236.6536" y2="236.6536"/><rect codeLine="13" fill="#282828" height="127.0345" id="ResourceFolderResolver" rx="8.3333" ry="8.3333" style="stroke:#5E5E5E;stroke-width:1.0416666666666667;" width="333.3333" x="467.7083" y="340.1611"/><rect fill="#1B1B1A" height="31.3883" rx="8.3333" ry="8.3333" style="stroke:#1B1B1A;stroke-width:1.0416666666666667;" width="333.3333" x="467.7083" y="340.1611"/><rect fill="#1B1B1A" height="8.3333" style="stroke:#1B1B1A;stroke-width:1.0416666666666667;" width="333.3333" x="467.7083" y="363.2161"/><rect codeLine="13" fill="none" height="127.0345" id="ResourceFolderResolver" rx="8.3333" ry="8.3333" style="stroke:#5E5E5E;stroke-width:1.0416666666666667;" width="333.3333" x="467.7083" y="340.1611"/><ellipse cx="550" cy="355.8553" fill="#008400" rx="10.4167" ry="10.4167" style="stroke:#239C23;stroke-width:1.0416666666666667;"/><path d="M547.404,353.0172 L547.404,351.4303 L552.83,351.4303 L552.83,353.0172 L551.0173,353.0172 L551.0173,358.9559 L552.83,358.9559 L552.83,360.5428 L547.404,360.5428 L547.404,358.9559 L549.2167,358.9559 L549.2167,353.0172 Z " fill="#000000"/><text fill="#D8BC00" font-family="Open Sans,Avenir,Nunito,Arial,Helvetica,SansSerif" font-size="12.5" font-style="italic" font-weight="bold" lengthAdjust="spacing" textLength="154.1667" x="572.9167" y="360.5794">ResourceFolderResolver</text><line style="stroke:#5E5E5E;stroke-width:1.5625;" x1="468.75" x2="800" y1="371.5495" y2="371.5495"/><ellipse cx="479.1667" cy="406.9194" fill="#84BE84" rx="3.125" ry="3.125" style="stroke:#038048;stroke-width:1.0416666666666667;"/><text fill="#D8BC00" font-family="Open Sans,Avenir,Nunito,Arial,Helvetica,SansSerif" font-size="11.4583" lengthAdjust="spacing" textLength="301.0417" x="490.625" y="413.8306">ResourceFolder&lt;?&gt; resolve(ResourceFolderIdentifier)</text><line style="stroke:#5E5E5E;stroke-width:1.0416666666666667;" x1="468.75" x2="598.9583" y1="389.7552" y2="389.7552"/><text fill="#D8BC00" font-family="Open Sans,Avenir,Nunito,Arial,Helvetica,SansSerif" font-size="11.4583" lengthAdjust="spacing" textLength="64.5833" x="602.0833" y="393.5649">(filesystem)</text><line style="stroke:#5E5E5E;stroke-width:1.0416666666666667;" x1="669.7917" x2="800" y1="389.7552" y2="389.7552"/><ellipse cx="479.1667" cy="450.5758" fill="#84BE84" rx="3.125" ry="3.125" style="stroke:#038048;stroke-width:1.0416666666666667;"/><text fill="#D8BC00" font-family="Open Sans,Avenir,Nunito,Arial,Helvetica,SansSerif" font-size="11.4583" lengthAdjust="spacing" textLength="236.4583" x="490.625" y="457.487">boolean accepts(ResourceFolderIdentifier)</text><line style="stroke:#5E5E5E;stroke-width:1.0416666666666667;" x1="468.75" x2="605.2083" y1="433.4117" y2="433.4117"/><text fill="#D8BC00" font-family="Open Sans,Avenir,Nunito,Arial,Helvetica,SansSerif" font-size="11.4583" lengthAdjust="spacing" textLength="52.0833" x="608.3333" y="437.2213">(filtering)</text><line style="stroke:#5E5E5E;stroke-width:1.0416666666666667;" x1="663.5417" x2="800" y1="433.4117" y2="433.4117"/><rect fill="#282828" height="48.055" id="ResourceIdentifier" rx="8.3333" ry="8.3333" style="stroke:#5E5E5E;stroke-width:1.0416666666666667;" width="155.2083" x="423.4375" y="552.6611"/><rect fill="#1B1B1A" height="31.3883" rx="8.3333" ry="8.3333" style="stroke:#1B1B1A;stroke-width:1.0416666666666667;" width="155.2083" x="423.4375" y="552.6611"/><rect fill="#1B1B1A" height="8.3333" style="stroke:#1B1B1A;stroke-width:1.0416666666666667;" width="155.2083" x="423.4375" y="575.7161"/><rect fill="none" height="48.055" id="ResourceIdentifier" rx="8.3333" ry="8.3333" style="stroke:#5E5E5E;stroke-width:1.0416666666666667;" width="155.2083" x="423.4375" y="552.6611"/><ellipse cx="438.0208" cy="568.3553" fill="#0066CF" rx="10.4167" ry="10.4167" style="stroke:#0086EF;stroke-width:1.0416666666666667;"/><path d="M439.9312,572.7804 Q439.504,573.0001 439.034,573.1099 Q438.564,573.2198 438.0452,573.2198 Q436.202,573.2198 435.2315,572.0052 Q434.2611,570.7906 434.2611,568.4957 Q434.2611,566.1947 435.2315,564.9801 Q436.202,563.7655 438.0452,563.7655 Q438.564,563.7655 439.0401,563.8753 Q439.5162,563.9852 439.9312,564.2049 L439.9312,566.2069 Q439.4674,565.7796 439.031,565.5813 Q438.5946,565.3829 438.1307,565.3829 Q437.1419,565.3829 436.6384,566.1672 Q436.1348,566.9515 436.1348,568.4957 Q436.1348,570.0338 436.6384,570.8181 Q437.1419,571.6024 438.1307,571.6024 Q438.5946,571.6024 439.031,571.404 Q439.4674,571.2056 439.9312,570.7784 Z " fill="#000000"/><text fill="#D8BC00" font-family="Open Sans,Avenir,Nunito,Arial,Helvetica,SansSerif" font-size="12.5" font-weight="bold" lengthAdjust="spacing" textLength="117.7083" x="454.6875" y="573.0794">ResourceIdentifier</text><line style="stroke:#5E5E5E;stroke-width:1.0416666666666667;" x1="424.4792" x2="577.6042" y1="584.0495" y2="584.0495"/><line style="stroke:#5E5E5E;stroke-width:1.0416666666666667;" x1="424.4792" x2="577.6042" y1="592.3828" y2="592.3828"/><rect fill="#282828" height="48.055" id="ResourceFolder" rx="8.3333" ry="8.3333" style="stroke:#5E5E5E;stroke-width:1.0416666666666667;" width="136.4583" x="615.1042" y="552.6611"/><rect fill="#1B1B1A" height="31.3883" rx="8.3333" ry="8.3333" style="stroke:#1B1B1A;stroke-width:1.0416666666666667;" width="136.4583" x="615.1042" y="552.6611"/><rect fill="#1B1B1A" height="8.3333" style="stroke:#1B1B1A;stroke-width:1.0416666666666667;" width="136.4583" x="615.1042" y="575.7161"/><rect fill="none" height="48.055" id="ResourceFolder" rx="8.3333" ry="8.3333" style="stroke:#5E5E5E;stroke-width:1.0416666666666667;" width="136.4583" x="615.1042" y="552.6611"/><ellipse cx="629.6875" cy="568.3553" fill="#0066CF" rx="10.4167" ry="10.4167" style="stroke:#0086EF;stroke-width:1.0416666666666667;"/><path d="M631.5979,572.7804 Q631.1707,573.0001 630.7007,573.1099 Q630.2307,573.2198 629.7119,573.2198 Q627.8687,573.2198 626.8982,572.0052 Q625.9277,570.7906 625.9277,568.4957 Q625.9277,566.1947 626.8982,564.9801 Q627.8687,563.7655 629.7119,563.7655 Q630.2307,563.7655 630.7068,563.8753 Q631.1829,563.9852 631.5979,564.2049 L631.5979,566.2069 Q631.134,565.7796 630.6976,565.5813 Q630.2612,565.3829 629.7974,565.3829 Q628.8086,565.3829 628.3051,566.1672 Q627.8015,566.9515 627.8015,568.4957 Q627.8015,570.0338 628.3051,570.8181 Q628.8086,571.6024 629.7974,571.6024 Q630.2612,571.6024 630.6976,571.404 Q631.134,571.2056 631.5979,570.7784 Z " fill="#000000"/><text fill="#D8BC00" font-family="Open Sans,Avenir,Nunito,Arial,Helvetica,SansSerif" font-size="12.5" font-weight="bold" lengthAdjust="spacing" textLength="98.9583" x="646.3542" y="573.0794">ResourceFolder</text><line style="stroke:#5E5E5E;stroke-width:1.0416666666666667;" x1="616.1458" x2="750.5208" y1="584.0495" y2="584.0495"/><line style="stroke:#5E5E5E;stroke-width:1.0416666666666667;" x1="616.1458" x2="750.5208" y1="592.3828" y2="592.3828"/><rect codeLine="22" fill="#282828" height="83.3781" id="ResourceFolderResolverServiceLoader" rx="8.3333" ry="8.3333" style="stroke:#5E5E5E;stroke-width:1.0416666666666667;" width="384.375" x="454.6875" y="179.2236"/><rect fill="#1B1B1A" height="31.3883" rx="8.3333" ry="8.3333" style="stroke:#1B1B1A;stroke-width:1.0416666666666667;" width="384.375" x="454.6875" y="179.2236"/><rect fill="#1B1B1A" height="8.3333" style="stroke:#1B1B1A;stroke-width:1.0416666666666667;" width="384.375" x="454.6875" y="202.2786"/><rect codeLine="22" fill="none" height="83.3781" id="ResourceFolderResolverServiceLoader" rx="8.3333" ry="8.3333" style="stroke:#5E5E5E;stroke-width:1.0416666666666667;" width="384.375" x="454.6875" y="179.2236"/><ellipse cx="518.2292" cy="194.9178" fill="#0066CF" rx="10.4167" ry="10.4167" style="stroke:#0086EF;stroke-width:1.0416666666666667;"/><path d="M520.1396,199.3429 Q519.7123,199.5626 519.2424,199.6724 Q518.7724,199.7823 518.2536,199.7823 Q516.4103,199.7823 515.4399,198.5677 Q514.4694,197.3531 514.4694,195.0582 Q514.4694,192.7572 515.4399,191.5426 Q516.4103,190.328 518.2536,190.328 Q518.7724,190.328 519.2485,190.4378 Q519.7245,190.5477 520.1396,190.7674 L520.1396,192.7694 Q519.6757,192.3421 519.2393,192.1438 Q518.8029,191.9454 518.339,191.9454 Q517.3503,191.9454 516.8467,192.7297 Q516.3432,193.514 516.3432,195.0582 Q516.3432,196.5963 516.8467,197.3806 Q517.3503,198.1649 518.339,198.1649 Q518.8029,198.1649 519.2393,197.9665 Q519.6757,197.7681 520.1396,197.3409 Z " fill="#000000"/><text fill="#D8BC00" font-family="Open Sans,Avenir,Nunito,Arial,Helvetica,SansSerif" font-size="12.5" font-weight="bold" lengthAdjust="spacing" textLength="242.7083" x="541.1458" y="199.6419">ResourceFolderResolverServiceLoader</text><line style="stroke:#5E5E5E;stroke-width:1.5625;" x1="455.7292" x2="838.0208" y1="210.612" y2="210.612"/><ellipse cx="466.1458" cy="245.9819" fill="#84BE84" rx="3.125" ry="3.125" style="stroke:#038048;stroke-width:1.0416666666666667;"/><text fill="#D8BC00" font-family="Open Sans,Avenir,Nunito,Arial,Helvetica,SansSerif" font-size="11.4583" lengthAdjust="spacing" textLength="352.0833" x="477.6042" y="252.8931">ResourceFolder&lt;?&gt; resolve(Listener, ResourceFolderIdentifier)</text><line style="stroke:#5E5E5E;stroke-width:1.0416666666666667;" x1="455.7292" x2="611.4583" y1="228.8177" y2="228.8177"/><text fill="#D8BC00" font-family="Open Sans,Avenir,Nunito,Arial,Helvetica,SansSerif" font-size="11.4583" lengthAdjust="spacing" textLength="64.5833" x="614.5833" y="232.6274">(filesystem)</text><line style="stroke:#5E5E5E;stroke-width:1.0416666666666667;" x1="682.2917" x2="838.0208" y1="228.8177" y2="228.8177"/><rect codeLine="32" fill="#282828" height="111.4563" id="ResourceResolver" rx="8.3333" ry="8.3333" style="stroke:#5E5E5E;stroke-width:1.0416666666666667;" width="238.5417" x="143.2292" y="347.9736"/><rect fill="#1B1B1A" height="31.3883" rx="8.3333" ry="8.3333" style="stroke:#1B1B1A;stroke-width:1.0416666666666667;" width="238.5417" x="143.2292" y="347.9736"/><rect fill="#1B1B1A" height="8.3333" style="stroke:#1B1B1A;stroke-width:1.0416666666666667;" width="238.5417" x="143.2292" y="371.0286"/><rect codeLine="32" fill="none" height="111.4563" id="ResourceResolver" rx="8.3333" ry="8.3333" style="stroke:#5E5E5E;stroke-width:1.0416666666666667;" width="238.5417" x="143.2292" y="347.9736"/><ellipse cx="198.4375" cy="363.6678" fill="#008400" rx="10.4167" ry="10.4167" style="stroke:#239C23;stroke-width:1.0416666666666667;"/><path d="M195.8415,360.8297 L195.8415,359.2428 L201.2675,359.2428 L201.2675,360.8297 L199.4548,360.8297 L199.4548,366.7684 L201.2675,366.7684 L201.2675,368.3553 L195.8415,368.3553 L195.8415,366.7684 L197.6542,366.7684 L197.6542,360.8297 Z " fill="#000000"/><text fill="#D8BC00" font-family="Open Sans,Avenir,Nunito,Arial,Helvetica,SansSerif" font-size="12.5" font-style="italic" font-weight="bold" lengthAdjust="spacing" textLength="113.5417" x="221.3542" y="368.3919">ResourceResolver</text><line style="stroke:#5E5E5E;stroke-width:1.5625;" x1="144.2708" x2="380.7292" y1="379.362" y2="379.362"/><line style="stroke:#5E5E5E;stroke-width:1.0416666666666667;" x1="144.2708" x2="380.7292" y1="387.6953" y2="387.6953"/><ellipse cx="154.6875" cy="399.1536" fill="#84BE84" rx="3.125" ry="3.125" style="stroke:#038048;stroke-width:1.0416666666666667;"/><text fill="#D8BC00" font-family="Open Sans,Avenir,Nunito,Arial,Helvetica,SansSerif" font-size="11.4583" lengthAdjust="spacing" textLength="206.25" x="166.1458" y="406.0649">Resource resolve(ResourceIdentifier)</text><ellipse cx="154.6875" cy="442.8101" fill="#84BE84" rx="3.125" ry="3.125" style="stroke:#038048;stroke-width:1.0416666666666667;"/><text fill="#D8BC00" font-family="Open Sans,Avenir,Nunito,Arial,Helvetica,SansSerif" font-size="11.4583" lengthAdjust="spacing" textLength="201.0417" x="166.1458" y="449.7213">boolean accepts(ResourceIdentifier)</text><line style="stroke:#5E5E5E;stroke-width:1.0416666666666667;" x1="144.2708" x2="233.3333" y1="425.646" y2="425.646"/><text fill="#D8BC00" font-family="Open Sans,Avenir,Nunito,Arial,Helvetica,SansSerif" font-size="11.4583" lengthAdjust="spacing" textLength="52.0833" x="236.4583" y="429.4556">(filtering)</text><line style="stroke:#5E5E5E;stroke-width:1.0416666666666667;" x1="291.6667" x2="380.7292" y1="425.646" y2="425.646"/><rect fill="#282828" height="48.055" id="ResourceFolderIdentifier" rx="8.3333" ry="8.3333" style="stroke:#5E5E5E;stroke-width:1.0416666666666667;" width="195.8333" x="7.2917" y="552.6611"/><rect fill="#1B1B1A" height="31.3883" rx="8.3333" ry="8.3333" style="stroke:#1B1B1A;stroke-width:1.0416666666666667;" width="195.8333" x="7.2917" y="552.6611"/><rect fill="#1B1B1A" height="8.3333" style="stroke:#1B1B1A;stroke-width:1.0416666666666667;" width="195.8333" x="7.2917" y="575.7161"/><rect fill="none" height="48.055" id="ResourceFolderIdentifier" rx="8.3333" ry="8.3333" style="stroke:#5E5E5E;stroke-width:1.0416666666666667;" width="195.8333" x="7.2917" y="552.6611"/><ellipse cx="21.875" cy="568.3553" fill="#0066CF" rx="10.4167" ry="10.4167" style="stroke:#0086EF;stroke-width:1.0416666666666667;"/><path d="M23.7854,572.7804 Q23.3582,573.0001 22.8882,573.1099 Q22.4182,573.2198 21.8994,573.2198 Q20.0562,573.2198 19.0857,572.0052 Q18.1152,570.7906 18.1152,568.4957 Q18.1152,566.1947 19.0857,564.9801 Q20.0562,563.7655 21.8994,563.7655 Q22.4182,563.7655 22.8943,563.8753 Q23.3704,563.9852 23.7854,564.2049 L23.7854,566.2069 Q23.3215,565.7796 22.8851,565.5813 Q22.4487,565.3829 21.9849,565.3829 Q20.9961,565.3829 20.4926,566.1672 Q19.989,566.9515 19.989,568.4957 Q19.989,570.0338 20.4926,570.8181 Q20.9961,571.6024 21.9849,571.6024 Q22.4487,571.6024 22.8851,571.404 Q23.3215,571.2056 23.7854,570.7784 Z " fill="#000000"/><text fill="#D8BC00" font-family="Open Sans,Avenir,Nunito,Arial,Helvetica,SansSerif" font-size="12.5" font-weight="bold" lengthAdjust="spacing" textLength="158.3333" x="38.5417" y="573.0794">ResourceFolderIdentifier</text><line style="stroke:#5E5E5E;stroke-width:1.0416666666666667;" x1="8.3333" x2="202.0833" y1="584.0495" y2="584.0495"/><line style="stroke:#5E5E5E;stroke-width:1.0416666666666667;" x1="8.3333" x2="202.0833" y1="592.3828" y2="592.3828"/><rect fill="#282828" height="48.055" id="Resource" rx="8.3333" ry="8.3333" style="stroke:#5E5E5E;stroke-width:1.0416666666666667;" width="95.8333" x="239.5833" y="552.6611"/><rect fill="#1B1B1A" height="31.3883" rx="8.3333" ry="8.3333" style="stroke:#1B1B1A;stroke-width:1.0416666666666667;" width="95.8333" x="239.5833" y="552.6611"/><rect fill="#1B1B1A" height="8.3333" style="stroke:#1B1B1A;stroke-width:1.0416666666666667;" width="95.8333" x="239.5833" y="575.7161"/><rect fill="none" height="48.055" id="Resource" rx="8.3333" ry="8.3333" style="stroke:#5E5E5E;stroke-width:1.0416666666666667;" width="95.8333" x="239.5833" y="552.6611"/><ellipse cx="254.1667" cy="568.3553" fill="#0066CF" rx="10.4167" ry="10.4167" style="stroke:#0086EF;stroke-width:1.0416666666666667;"/><path d="M256.0771,572.7804 Q255.6498,573.0001 255.1799,573.1099 Q254.7099,573.2198 254.1911,573.2198 Q252.3478,573.2198 251.3774,572.0052 Q250.4069,570.7906 250.4069,568.4957 Q250.4069,566.1947 251.3774,564.9801 Q252.3478,563.7655 254.1911,563.7655 Q254.7099,563.7655 255.186,563.8753 Q255.662,563.9852 256.0771,564.2049 L256.0771,566.2069 Q255.6132,565.7796 255.1768,565.5813 Q254.7404,565.3829 254.2765,565.3829 Q253.2878,565.3829 252.7842,566.1672 Q252.2807,566.9515 252.2807,568.4957 Q252.2807,570.0338 252.7842,570.8181 Q253.2878,571.6024 254.2765,571.6024 Q254.7404,571.6024 255.1768,571.404 Q255.6132,571.2056 256.0771,570.7784 Z " fill="#000000"/><text fill="#D8BC00" font-family="Open Sans,Avenir,Nunito,Arial,Helvetica,SansSerif" font-size="12.5" font-weight="bold" lengthAdjust="spacing" textLength="58.3333" x="270.8333" y="573.0794">Resource</text><line style="stroke:#5E5E5E;stroke-width:1.0416666666666667;" x1="240.625" x2="334.375" y1="584.0495" y2="584.0495"/><line style="stroke:#5E5E5E;stroke-width:1.0416666666666667;" x1="240.625" x2="334.375" y1="592.3828" y2="592.3828"/><rect codeLine="42" fill="#282828" height="111.4563" id="ResourceResolverServiceLoader" rx="8.3333" ry="8.3333" style="stroke:#5E5E5E;stroke-width:1.0416666666666667;" width="239.5833" x="12.5" y="165.1611"/><rect fill="#1B1B1A" height="31.3883" rx="8.3333" ry="8.3333" style="stroke:#1B1B1A;stroke-width:1.0416666666666667;" width="239.5833" x="12.5" y="165.1611"/><rect fill="#1B1B1A" height="8.3333" style="stroke:#1B1B1A;stroke-width:1.0416666666666667;" width="239.5833" x="12.5" y="188.2161"/><rect codeLine="42" fill="none" height="111.4563" id="ResourceResolverServiceLoader" rx="8.3333" ry="8.3333" style="stroke:#5E5E5E;stroke-width:1.0416666666666667;" width="239.5833" x="12.5" y="165.1611"/><ellipse cx="27.0833" cy="180.8553" fill="#0066CF" rx="10.4167" ry="10.4167" style="stroke:#0086EF;stroke-width:1.0416666666666667;"/><path d="M28.9937,185.2804 Q28.5665,185.5001 28.0965,185.6099 Q27.6265,185.7198 27.1077,185.7198 Q25.2645,185.7198 24.294,184.5052 Q23.3236,183.2906 23.3236,180.9957 Q23.3236,178.6947 24.294,177.4801 Q25.2645,176.2655 27.1077,176.2655 Q27.6265,176.2655 28.1026,176.3753 Q28.5787,176.4852 28.9937,176.7049 L28.9937,178.7069 Q28.5299,178.2796 28.0935,178.0813 Q27.6571,177.8829 27.1932,177.8829 Q26.2044,177.8829 25.7009,178.6672 Q25.1973,179.4515 25.1973,180.9957 Q25.1973,182.5338 25.7009,183.3181 Q26.2044,184.1024 27.1932,184.1024 Q27.6571,184.1024 28.0935,183.904 Q28.5299,183.7056 28.9937,183.2784 Z " fill="#000000"/><text fill="#D8BC00" font-family="Open Sans,Avenir,Nunito,Arial,Helvetica,SansSerif" font-size="12.5" font-weight="bold" lengthAdjust="spacing" textLength="202.0833" x="43.75" y="185.5794">ResourceResolverServiceLoader</text><line style="stroke:#5E5E5E;stroke-width:1.5625;" x1="13.5417" x2="251.0417" y1="196.5495" y2="196.5495"/><line style="stroke:#5E5E5E;stroke-width:1.0416666666666667;" x1="13.5417" x2="251.0417" y1="204.8828" y2="204.8828"/><ellipse cx="23.9583" cy="216.3411" fill="#84BE84" rx="3.125" ry="3.125" style="stroke:#038048;stroke-width:1.0416666666666667;"/><text fill="#D8BC00" font-family="Open Sans,Avenir,Nunito,Arial,Helvetica,SansSerif" font-size="11.4583" lengthAdjust="spacing" textLength="206.25" x="35.4167" y="223.2524">Resource resolve(ResourceIdentifier)</text><ellipse cx="23.9583" cy="259.9976" fill="#84BE84" rx="3.125" ry="3.125" style="stroke:#038048;stroke-width:1.0416666666666667;"/><text fill="#D8BC00" font-family="Open Sans,Avenir,Nunito,Arial,Helvetica,SansSerif" font-size="11.4583" lengthAdjust="spacing" textLength="207.2917" x="35.4167" y="266.9088">ResourceResolverServiceLoader get()</text><line style="stroke:#5E5E5E;stroke-width:1.0416666666666667;" x1="13.5417" x2="105.2083" y1="242.8335" y2="242.8335"/><text fill="#D8BC00" font-family="Open Sans,Avenir,Nunito,Arial,Helvetica,SansSerif" font-size="11.4583" lengthAdjust="spacing" textLength="47.9167" x="108.3333" y="246.6431">(service)</text><line style="stroke:#5E5E5E;stroke-width:1.0416666666666667;" x1="159.375" x2="251.0417" y1="242.8335" y2="242.8335"/><path codeLine="10" d="M405.625,256.5361 C415.8333,263.2236 426.4688,270.1611 436.4583,276.6195 C468.6146,297.4111 503.8438,319.9215 535.5521,340.0986 " fill="none" id="RepeaterMixin-backto-ResourceFolderResolver" style="stroke:#545454;stroke-width:1.5625;"/><polygon fill="none" points="401.3438,262.4528,387.9271,244.9215,409.3438,250.2549,401.3438,262.4528" style="stroke:#545454;stroke-width:1.5625;"/><path codeLine="11" d="M585.4792,467.3903 C563.7396,495.2445 539.2813,526.5778 522.3125,548.3278 " fill="none" id="ResourceFolderResolver-to-ResourceIdentifier" style="stroke:#545454;stroke-width:1.5625;"/><polygon fill="#545454" points="519.0104,552.5465,528.0696,547.7316,522.2204,548.445,521.507,542.5957,519.0104,552.5465" style="stroke:#545454;stroke-width:1.5625;"/><text fill="#A0A0A0" font-family="Open Sans,Avenir,Nunito,Arial,Helvetica,SansSerif" font-size="12.5" font-weight="bold" lengthAdjust="spacing" textLength="42.7083" x="564.5833" y="514.7461">parses</text><path codeLine="12" d="M652.3229,467.3903 C660.2083,494.8903 669.0625,525.7965 675.2917,547.5153 " fill="none" id="ResourceFolderResolver-to-ResourceFolder" style="stroke:#545454;stroke-width:1.5625;"/><polygon fill="#545454" points="676.7292,552.5465,678.1401,542.3848,675.2885,547.5414,670.1319,544.6898,676.7292,552.5465" style="stroke:#545454;stroke-width:1.5625;"/><text fill="#A0A0A0" font-family="Open Sans,Avenir,Nunito,Arial,Helvetica,SansSerif" font-size="12.5" font-weight="bold" lengthAdjust="spacing" textLength="45.8333" x="670.8333" y="514.7461">creates</text><path codeLine="21" d="M643.0938,276.5778 C641.7188,296.5153 640.1458,319.2236 638.7188,339.8174 " fill="none" id="ResourceFolderResolverServiceLoader-backto-ResourceFolderResolver" style="stroke:#545454;stroke-width:1.5625;"/><polygon fill="#333333" points="644.0417,262.9424,639.4524,268.889,643.1765,275.4124,647.7657,269.4658,644.0417,262.9424" style="stroke:#545454;stroke-width:1.5625;"/><text fill="#A0A0A0" font-family="Open Sans,Avenir,Nunito,Arial,Helvetica,SansSerif" font-size="12.5" font-weight="bold" lengthAdjust="spacing" textLength="8.3333" x="631.0329" y="286.1938">1</text><text fill="#A0A0A0" font-family="Open Sans,Avenir,Nunito,Arial,Helvetica,SansSerif" font-size="12.5" font-weight="bold" lengthAdjust="spacing" textLength="6.25" x="629.1353" y="326.0775">*</text><path codeLine="29" d="M332.1146,263.8382 C319.6146,288.7653 303.6042,320.682 290.0938,347.6299 " fill="none" id="RepeaterMixin-backto-ResourceResolver" style="stroke:#545454;stroke-width:1.5625;"/><polygon fill="none" points="325.6042,260.5465,341.4583,245.1924,338.6458,267.0778,325.6042,260.5465" style="stroke:#545454;stroke-width:1.5625;"/><path codeLine="30" d="M211.8646,459.734 C184.5313,489.432 152,524.7549 130.1146,548.5257 " fill="none" id="ResourceResolver-to-ResourceFolderIdentifier" style="stroke:#545454;stroke-width:1.5625;"/><polygon fill="#545454" points="126.4271,552.5361,135.8457,548.4689,129.9579,548.7073,129.7196,542.8196,126.4271,552.5361" style="stroke:#545454;stroke-width:1.5625;"/><text fill="#A0A0A0" font-family="Open Sans,Avenir,Nunito,Arial,Helvetica,SansSerif" font-size="12.5" font-weight="bold" lengthAdjust="spacing" textLength="42.7083" x="179.1667" y="514.7461">parses</text><path codeLine="31" d="M270.5521,459.734 C274.8229,488.932 279.8958,523.5882 283.3646,547.3382 " fill="none" id="ResourceResolver-to-Resource" style="stroke:#545454;stroke-width:1.5625;"/><polygon fill="#545454" points="284.125,552.5361,286.88,542.6537,283.3655,547.3835,278.6358,543.8689,284.125,552.5361" style="stroke:#545454;stroke-width:1.5625;"/><text fill="#A0A0A0" font-family="Open Sans,Avenir,Nunito,Arial,Helvetica,SansSerif" font-size="12.5" font-weight="bold" lengthAdjust="spacing" textLength="45.8333" x="284.375" y="514.7461">creates</text><path codeLine="40" d="M132.2917,122.9111 C132.2917,136.2028 132.2917,150.9632 132.2917,164.859 " fill="none" id="BaseRepeater-backto-ResourceResolverServiceLoader" style="stroke:#545454;stroke-width:1.5625;"/><polygon fill="none" points="125,122.5257,132.2917,101.6924,139.5833,122.5257,125,122.5257" style="stroke:#545454;stroke-width:1.5625;"/><path codeLine="41" d="M179.6875,287.7236 C193.9063,307.4528 209.3438,328.8799 222.9896,347.8174 " fill="none" id="ResourceResolverServiceLoader-backto-ResourceResolver" style="stroke:#545454;stroke-width:1.5625;"/><polygon fill="#333333" points="171.7083,276.6507,171.9831,284.1573,179.0179,286.7907,178.7431,279.2842,171.7083,276.6507" style="stroke:#545454;stroke-width:1.5625;"/><text fill="#A0A0A0" font-family="Open Sans,Avenir,Nunito,Arial,Helvetica,SansSerif" font-size="12.5" font-weight="bold" lengthAdjust="spacing" textLength="8.3333" x="164.366" y="300.3486">1</text><text fill="#A0A0A0" font-family="Open Sans,Avenir,Nunito,Arial,Helvetica,SansSerif" font-size="12.5" font-weight="bold" lengthAdjust="spacing" textLength="6.25" x="207.7515" y="333.708">*</text></g></svg>
