<?xml version="1.0" encoding="UTF-8" standalone="no"?><svg xmlns="http://www.w3.org/2000/svg" xmlns:xlink="http://www.w3.org/1999/xlink" contentScriptType="application/ecmascript" contentStyleType="text/css" height="218.75px" preserveAspectRatio="none" style="width:545px;height:218px;background:#333333;" version="1.1" viewBox="0 0 545 218" width="545.8333px" zoomAndPan="magnify"><defs/><g><rect fill="#48494B" height="41.2028" rx="8.3333" ry="8.3333" style="stroke:#545454;stroke-width:1.0416666666666667;" width="533.3333" x="2.0833" y="2.0833"/><text fill="#C0C0C0" font-family="Open Sans,Avenir,Nunito,Arial,Helvetica,SansSerif" font-size="20.8333" lengthAdjust="spacing" textLength="510.4167" x="13.5417" y="30.5583">com.telenav.kivakit.network.socket.internal.lexakai</text><rect codeLine="7" fill="#282828" height="48.055" id="UmlDiagramIdentifier" rx="8.3333" ry="8.3333" style="stroke:#5E5E5E;stroke-width:1.0416666666666667;" width="178.125" x="186.9792" y="53.7028"/><rect fill="#1B1B1A" height="31.3883" rx="8.3333" ry="8.3333" style="stroke:#1B1B1A;stroke-width:1.0416666666666667;" width="178.125" x="186.9792" y="53.7028"/><rect fill="#1B1B1A" height="8.3333" style="stroke:#1B1B1A;stroke-width:1.0416666666666667;" width="178.125" x="186.9792" y="76.7578"/><rect codeLine="7" fill="none" height="48.055" id="UmlDiagramIdentifier" rx="8.3333" ry="8.3333" style="stroke:#5E5E5E;stroke-width:1.0416666666666667;" width="178.125" x="186.9792" y="53.7028"/><ellipse cx="201.5625" cy="69.397" fill="#008400" rx="10.4167" ry="10.4167" style="stroke:#239C23;stroke-width:1.0416666666666667;"/><path d="M198.9665,66.5588 L198.9665,64.9719 L204.3925,64.9719 L204.3925,66.5588 L202.5798,66.5588 L202.5798,72.4976 L204.3925,72.4976 L204.3925,74.0845 L198.9665,74.0845 L198.9665,72.4976 L200.7792,72.4976 L200.7792,66.5588 Z " fill="#000000"/><text fill="#D8BC00" font-family="Open Sans,Avenir,Nunito,Arial,Helvetica,SansSerif" font-size="12.5" font-style="italic" font-weight="bold" lengthAdjust="spacing" textLength="140.625" x="218.2292" y="74.1211">UmlDiagramIdentifier</text><line style="stroke:#5E5E5E;stroke-width:1.0416666666666667;" x1="188.0208" x2="364.0625" y1="85.0911" y2="85.0911"/><line style="stroke:#5E5E5E;stroke-width:1.0416666666666667;" x1="188.0208" x2="364.0625" y1="93.4245" y2="93.4245"/><rect codeLine="9" fill="#282828" height="48.055" id="DiagramSocketServer" rx="8.3333" ry="8.3333" style="stroke:#5E5E5E;stroke-width:1.0416666666666667;" width="175" x="188.5417" y="164.1195"/><rect fill="#1B1B1A" height="31.3883" rx="8.3333" ry="8.3333" style="stroke:#1B1B1A;stroke-width:1.0416666666666667;" width="175" x="188.5417" y="164.1195"/><rect fill="#1B1B1A" height="8.3333" style="stroke:#1B1B1A;stroke-width:1.0416666666666667;" width="175" x="188.5417" y="187.1745"/><rect codeLine="9" fill="none" height="48.055" id="DiagramSocketServer" rx="8.3333" ry="8.3333" style="stroke:#5E5E5E;stroke-width:1.0416666666666667;" width="175" x="188.5417" y="164.1195"/><ellipse cx="203.125" cy="179.8136" fill="#008400" rx="10.4167" ry="10.4167" style="stroke:#239C23;stroke-width:1.0416666666666667;"/><path d="M200.529,176.9755 L200.529,175.3886 L205.955,175.3886 L205.955,176.9755 L204.1423,176.9755 L204.1423,182.9142 L205.955,182.9142 L205.955,184.5011 L200.529,184.5011 L200.529,182.9142 L202.3417,182.9142 L202.3417,176.9755 Z " fill="#000000"/><text fill="#D8BC00" font-family="Open Sans,Avenir,Nunito,Arial,Helvetica,SansSerif" font-size="12.5" font-style="italic" font-weight="bold" lengthAdjust="spacing" textLength="137.5" x="219.7917" y="184.5378">DiagramSocketServer</text><line style="stroke:#5E5E5E;stroke-width:1.0416666666666667;" x1="189.5833" x2="362.5" y1="195.5078" y2="195.5078"/><line style="stroke:#5E5E5E;stroke-width:1.0416666666666667;" x1="189.5833" x2="362.5" y1="203.8411" y2="203.8411"/><path codeLine="8" d="M276.0417,124.234 C276.0417,137.8799 276.0417,152.2757 276.0417,163.8382 " fill="none" id="UmlDiagramIdentifier-backto-DiagramSocketServer" style="stroke:#545454;stroke-width:1.5625;"/><polygon fill="none" points="268.75,124.3486,276.0417,103.5153,283.3333,124.3486,268.75,124.3486" style="stroke:#545454;stroke-width:1.5625;"/></g></svg>

