<?xml version="1.0" encoding="UTF-8" standalone="no"?><svg xmlns="http://www.w3.org/2000/svg" xmlns:xlink="http://www.w3.org/1999/xlink" contentScriptType="application/ecmascript" contentStyleType="text/css" height="218.75px" preserveAspectRatio="none" style="width:509px;height:218px;background:#333333;" version="1.1" viewBox="0 0 509 218" width="509.375px" zoomAndPan="magnify"><defs/><g><rect fill="#48494B" height="41.2028" rx="8.3333" ry="8.3333" style="stroke:#545454;stroke-width:1.0416666666666667;" width="496.875" x="2.0833" y="2.0833"/><text fill="#C0C0C0" font-family="Open Sans,Avenir,Nunito,Arial,Helvetica,SansSerif" font-size="20.8333" lengthAdjust="spacing" textLength="473.9583" x="13.5417" y="30.5583">com.telenav.kivakit.network.ftp.internal.lexakai</text><rect codeLine="13" fill="#282828" height="48.055" id="UmlDiagramIdentifier" rx="8.3333" ry="8.3333" style="stroke:#5E5E5E;stroke-width:1.0416666666666667;" width="178.125" x="158.3333" y="53.7028"/><rect fill="#1B1B1A" height="31.3883" rx="8.3333" ry="8.3333" style="stroke:#1B1B1A;stroke-width:1.0416666666666667;" width="178.125" x="158.3333" y="53.7028"/><rect fill="#1B1B1A" height="8.3333" style="stroke:#1B1B1A;stroke-width:1.0416666666666667;" width="178.125" x="158.3333" y="76.7578"/><rect codeLine="13" fill="none" height="48.055" id="UmlDiagramIdentifier" rx="8.3333" ry="8.3333" style="stroke:#5E5E5E;stroke-width:1.0416666666666667;" width="178.125" x="158.3333" y="53.7028"/><ellipse cx="172.9167" cy="69.397" fill="#008400" rx="10.4167" ry="10.4167" style="stroke:#239C23;stroke-width:1.0416666666666667;"/><path d="M170.3206,66.5588 L170.3206,64.9719 L175.7467,64.9719 L175.7467,66.5588 L173.9339,66.5588 L173.9339,72.4976 L175.7467,72.4976 L175.7467,74.0845 L170.3206,74.0845 L170.3206,72.4976 L172.1334,72.4976 L172.1334,66.5588 Z " fill="#000000"/><text fill="#D8BC00" font-family="Open Sans,Avenir,Nunito,Arial,Helvetica,SansSerif" font-size="12.5" font-style="italic" font-weight="bold" lengthAdjust="spacing" textLength="140.625" x="189.5833" y="74.1211">UmlDiagramIdentifier</text><line style="stroke:#5E5E5E;stroke-width:1.0416666666666667;" x1="159.375" x2="335.4167" y1="85.0911" y2="85.0911"/><line style="stroke:#5E5E5E;stroke-width:1.0416666666666667;" x1="159.375" x2="335.4167" y1="93.4245" y2="93.4245"/><rect codeLine="9" fill="#282828" height="48.055" id="DiagramFtp" rx="8.3333" ry="8.3333" style="stroke:#5E5E5E;stroke-width:1.0416666666666667;" width="113.5417" x="105.2083" y="164.1195"/><rect fill="#1B1B1A" height="31.3883" rx="8.3333" ry="8.3333" style="stroke:#1B1B1A;stroke-width:1.0416666666666667;" width="113.5417" x="105.2083" y="164.1195"/><rect fill="#1B1B1A" height="8.3333" style="stroke:#1B1B1A;stroke-width:1.0416666666666667;" width="113.5417" x="105.2083" y="187.1745"/><rect codeLine="9" fill="none" height="48.055" id="DiagramFtp" rx="8.3333" ry="8.3333" style="stroke:#5E5E5E;stroke-width:1.0416666666666667;" width="113.5417" x="105.2083" y="164.1195"/><ellipse cx="119.7917" cy="179.8136" fill="#008400" rx="10.4167" ry="10.4167" style="stroke:#239C23;stroke-width:1.0416666666666667;"/><path d="M117.1956,176.9755 L117.1956,175.3886 L122.6217,175.3886 L122.6217,176.9755 L120.8089,176.9755 L120.8089,182.9142 L122.6217,182.9142 L122.6217,184.5011 L117.1956,184.5011 L117.1956,182.9142 L119.0084,182.9142 L119.0084,176.9755 Z " fill="#000000"/><text fill="#D8BC00" font-family="Open Sans,Avenir,Nunito,Arial,Helvetica,SansSerif" font-size="12.5" font-style="italic" font-weight="bold" lengthAdjust="spacing" textLength="76.0417" x="136.4583" y="184.5378">DiagramFtp</text><line style="stroke:#5E5E5E;stroke-width:1.0416666666666667;" x1="106.25" x2="217.7083" y1="195.5078" y2="195.5078"/><line style="stroke:#5E5E5E;stroke-width:1.0416666666666667;" x1="106.25" x2="217.7083" y1="203.8411" y2="203.8411"/><rect codeLine="15" fill="#282828" height="48.055" id="DiagramSecureFtp" rx="8.3333" ry="8.3333" style="stroke:#5E5E5E;stroke-width:1.0416666666666667;" width="155.2083" x="255.2083" y="164.1195"/><rect fill="#1B1B1A" height="31.3883" rx="8.3333" ry="8.3333" style="stroke:#1B1B1A;stroke-width:1.0416666666666667;" width="155.2083" x="255.2083" y="164.1195"/><rect fill="#1B1B1A" height="8.3333" style="stroke:#1B1B1A;stroke-width:1.0416666666666667;" width="155.2083" x="255.2083" y="187.1745"/><rect codeLine="15" fill="none" height="48.055" id="DiagramSecureFtp" rx="8.3333" ry="8.3333" style="stroke:#5E5E5E;stroke-width:1.0416666666666667;" width="155.2083" x="255.2083" y="164.1195"/><ellipse cx="269.7917" cy="179.8136" fill="#008400" rx="10.4167" ry="10.4167" style="stroke:#239C23;stroke-width:1.0416666666666667;"/><path d="M267.1956,176.9755 L267.1956,175.3886 L272.6217,175.3886 L272.6217,176.9755 L270.8089,176.9755 L270.8089,182.9142 L272.6217,182.9142 L272.6217,184.5011 L267.1956,184.5011 L267.1956,182.9142 L269.0084,182.9142 L269.0084,176.9755 Z " fill="#000000"/><text fill="#D8BC00" font-family="Open Sans,Avenir,Nunito,Arial,Helvetica,SansSerif" font-size="12.5" font-style="italic" font-weight="bold" lengthAdjust="spacing" textLength="117.7083" x="286.4583" y="184.5378">DiagramSecureFtp</text><line style="stroke:#5E5E5E;stroke-width:1.0416666666666667;" x1="256.25" x2="409.375" y1="195.5078" y2="195.5078"/><line style="stroke:#5E5E5E;stroke-width:1.0416666666666667;" x1="256.25" x2="409.375" y1="203.8411" y2="203.8411"/><path codeLine="8" d="M215.4479,119.2236 C203.5729,134.2861 190.5104,150.8486 180.2708,163.8382 " fill="none" id="UmlDiagramIdentifier-backto-DiagramFtp" style="stroke:#545454;stroke-width:1.5625;"/><polygon fill="none" points="209.4688,115.0257,228.0938,103.182,220.9271,124.057,209.4688,115.0257" style="stroke:#545454;stroke-width:1.5625;"/><path codeLine="14" d="M279.3438,119.2236 C291.2188,134.2861 304.2813,150.8486 314.5208,163.8382 " fill="none" id="UmlDiagramIdentifier-backto-DiagramSecureFtp" style="stroke:#545454;stroke-width:1.5625;"/><polygon fill="none" points="273.8646,124.057,266.6979,103.182,285.3229,115.0257,273.8646,124.057" style="stroke:#545454;stroke-width:1.5625;"/></g></svg>

