<?xml version="1.0" encoding="UTF-8" standalone="no"?><svg xmlns="http://www.w3.org/2000/svg" xmlns:xlink="http://www.w3.org/1999/xlink" contentScriptType="application/ecmascript" contentStyleType="text/css" height="962.5px" preserveAspectRatio="none" style="width:1369px;height:962px;background:#333333;" version="1.1" viewBox="0 0 1369 962" width="1369.7917px" zoomAndPan="magnify"><defs/><g><rect fill="#48494B" height="41.2028" rx="8.3333" ry="8.3333" style="stroke:#545454;stroke-width:1.0416666666666667;" width="213.5417" x="571.0938" y="2.0833"/><text fill="#C0C0C0" font-family="Open Sans,Avenir,Nunito,Arial,Helvetica,SansSerif" font-size="20.8333" lengthAdjust="spacing" textLength="190.625" x="582.5521" y="30.5583">kivakit-application</text><!--MD5=[4f079977920bf52107586fb847a1e92c]
entity kryo--><rect fill="#1B1B1A" height="44.93" rx="8.3333" ry="8.3333" style="stroke:#5E5E5E;stroke-width:1.5625;" width="63.5417" x="873.4375" y="697.4528"/><polygon fill="#1B1B1A" points="919.2708,702.6611,919.2708,717.2445,931.7708,717.2445,931.7708,708.9111,925.5208,702.6611,919.2708,702.6611" style="stroke:#5E5E5E;stroke-width:1.5625;"/><line style="stroke:#5E5E5E;stroke-width:1.5625;" x1="925.5208" x2="925.5208" y1="702.6611" y2="708.9111"/><line style="stroke:#5E5E5E;stroke-width:1.5625;" x1="931.7708" x2="925.5208" y1="708.9111" y2="708.9111"/><text fill="#D8BC00" font-family="Open Sans,Avenir,Nunito,Arial,Helvetica,SansSerif" font-size="12.5" lengthAdjust="spacing" textLength="26.0417" x="886.9792" y="726.2044">kryo</text><!--MD5=[745ab22dbfa32e29a2660b9e5bc2262a]
entity minlog--><rect fill="#1B1B1A" height="44.93" rx="8.3333" ry="8.3333" style="stroke:#5E5E5E;stroke-width:1.5625;" width="77.0833" x="741.6667" y="804.7445"/><polygon fill="#1B1B1A" points="801.0417,809.9528,801.0417,824.5361,813.5417,824.5361,813.5417,816.2028,807.2917,809.9528,801.0417,809.9528" style="stroke:#5E5E5E;stroke-width:1.5625;"/><line style="stroke:#5E5E5E;stroke-width:1.5625;" x1="807.2917" x2="807.2917" y1="809.9528" y2="816.2028"/><line style="stroke:#5E5E5E;stroke-width:1.5625;" x1="813.5417" x2="807.2917" y1="816.2028" y2="816.2028"/><text fill="#D8BC00" font-family="Open Sans,Avenir,Nunito,Arial,Helvetica,SansSerif" font-size="12.5" lengthAdjust="spacing" textLength="39.5833" x="755.2083" y="833.4961">minlog</text><!--MD5=[5d0bc62e6e2e5a8467f655d5e580826c]
entity reflectasm--><rect fill="#1B1B1A" height="44.93" rx="8.3333" ry="8.3333" style="stroke:#5E5E5E;stroke-width:1.5625;" width="100" x="855.2083" y="804.7445"/><polygon fill="#1B1B1A" points="937.5,809.9528,937.5,824.5361,950,824.5361,950,816.2028,943.75,809.9528,937.5,809.9528" style="stroke:#5E5E5E;stroke-width:1.5625;"/><line style="stroke:#5E5E5E;stroke-width:1.5625;" x1="943.75" x2="943.75" y1="809.9528" y2="816.2028"/><line style="stroke:#5E5E5E;stroke-width:1.5625;" x1="950" x2="943.75" y1="816.2028" y2="816.2028"/><text fill="#D8BC00" font-family="Open Sans,Avenir,Nunito,Arial,Helvetica,SansSerif" font-size="12.5" lengthAdjust="spacing" textLength="62.5" x="868.75" y="833.4961">reflectasm</text><!--MD5=[07375bd6ced801b2ef86c9d3f68eec61]
entity jackson_annotations--><rect fill="#1B1B1A" height="44.93" rx="8.3333" ry="8.3333" style="stroke:#5E5E5E;stroke-width:1.5625;" width="158.3333" x="7.2917" y="375.5778"/><polygon fill="#1B1B1A" points="147.9167,380.7861,147.9167,395.3695,160.4167,395.3695,160.4167,387.0361,154.1667,380.7861,147.9167,380.7861" style="stroke:#5E5E5E;stroke-width:1.5625;"/><line style="stroke:#5E5E5E;stroke-width:1.5625;" x1="154.1667" x2="154.1667" y1="380.7861" y2="387.0361"/><line style="stroke:#5E5E5E;stroke-width:1.5625;" x1="160.4167" x2="154.1667" y1="387.0361" y2="387.0361"/><text fill="#D8BC00" font-family="Open Sans,Avenir,Nunito,Arial,Helvetica,SansSerif" font-size="12.5" lengthAdjust="spacing" textLength="120.8333" x="20.8333" y="404.3294">jackson_annotations</text><!--MD5=[4aa4ddcf3dc6d6219283db0a9fd05165]
entity cactus_build_metadata--><rect fill="#1B1B1A" height="44.93" rx="8.3333" ry="8.3333" style="stroke:#5E5E5E;stroke-width:1.5625;" width="175" x="202.0833" y="375.5778"/><polygon fill="#1B1B1A" points="359.375,380.7861,359.375,395.3695,371.875,395.3695,371.875,387.0361,365.625,380.7861,359.375,380.7861" style="stroke:#5E5E5E;stroke-width:1.5625;"/><line style="stroke:#5E5E5E;stroke-width:1.5625;" x1="365.625" x2="365.625" y1="380.7861" y2="387.0361"/><line style="stroke:#5E5E5E;stroke-width:1.5625;" x1="371.875" x2="365.625" y1="387.0361" y2="387.0361"/><text fill="#D8BC00" font-family="Open Sans,Avenir,Nunito,Arial,Helvetica,SansSerif" font-size="12.5" lengthAdjust="spacing" textLength="137.5" x="215.625" y="404.3294">cactus_build_metadata</text><!--MD5=[45672d575b1ce7dfe271c63a1d4308c0]
entity kivakit_application--><rect fill="#1B1B1A" height="44.93" rx="8.3333" ry="8.3333" style="stroke:#5E5E5E;stroke-width:1.5625;" width="147.9167" x="827.0833" y="53.7028"/><polygon fill="#1B1B1A" points="957.2917,58.9111,957.2917,73.4945,969.7917,73.4945,969.7917,65.1611,963.5417,58.9111,957.2917,58.9111" style="stroke:#5E5E5E;stroke-width:1.5625;"/><line style="stroke:#5E5E5E;stroke-width:1.5625;" x1="963.5417" x2="963.5417" y1="58.9111" y2="65.1611"/><line style="stroke:#5E5E5E;stroke-width:1.5625;" x1="969.7917" x2="963.5417" y1="65.1611" y2="65.1611"/><text fill="#D8BC00" font-family="Open Sans,Avenir,Nunito,Arial,Helvetica,SansSerif" font-size="12.5" lengthAdjust="spacing" textLength="110.4167" x="840.625" y="82.4544">kivakit_application</text><!--MD5=[4facc4376e4b6bfc182ce14f42a813f9]
entity kivakit_collections--><rect fill="#1B1B1A" height="44.93" rx="8.3333" ry="8.3333" style="stroke:#5E5E5E;stroke-width:1.5625;" width="143.75" x="990.625" y="482.8695"/><polygon fill="#1B1B1A" points="1116.6667,488.0778,1116.6667,502.6611,1129.1667,502.6611,1129.1667,494.3278,1122.9167,488.0778,1116.6667,488.0778" style="stroke:#5E5E5E;stroke-width:1.5625;"/><line style="stroke:#5E5E5E;stroke-width:1.5625;" x1="1122.9167" x2="1122.9167" y1="488.0778" y2="494.3278"/><line style="stroke:#5E5E5E;stroke-width:1.5625;" x1="1129.1667" x2="1122.9167" y1="494.3278" y2="494.3278"/><text fill="#D8BC00" font-family="Open Sans,Avenir,Nunito,Arial,Helvetica,SansSerif" font-size="12.5" lengthAdjust="spacing" textLength="106.25" x="1004.1667" y="511.6211">kivakit_collections</text><!--MD5=[b7af8d5b7902cf06664f76dfe0f9e426]
entity kivakit_commandline--><rect fill="#1B1B1A" height="44.93" rx="8.3333" ry="8.3333" style="stroke:#5E5E5E;stroke-width:1.5625;" width="162.5" x="723.9583" y="160.9945"/><polygon fill="#1B1B1A" points="868.75,166.2028,868.75,180.7861,881.25,180.7861,881.25,172.4528,875,166.2028,868.75,166.2028" style="stroke:#5E5E5E;stroke-width:1.5625;"/><line style="stroke:#5E5E5E;stroke-width:1.5625;" x1="875" x2="875" y1="166.2028" y2="172.4528"/><line style="stroke:#5E5E5E;stroke-width:1.5625;" x1="881.25" x2="875" y1="172.4528" y2="172.4528"/><text fill="#D8BC00" font-family="Open Sans,Avenir,Nunito,Arial,Helvetica,SansSerif" font-size="12.5" lengthAdjust="spacing" textLength="125" x="737.5" y="189.7461">kivakit_commandline</text><!--MD5=[76998a0b8e8a034fd4dce74d4f636366]
entity kivakit_component--><rect fill="#1B1B1A" height="44.93" rx="8.3333" ry="8.3333" style="stroke:#5E5E5E;stroke-width:1.5625;" width="148.9583" x="982.8125" y="160.9945"/><polygon fill="#1B1B1A" points="1114.0625,166.2028,1114.0625,180.7861,1126.5625,180.7861,1126.5625,172.4528,1120.3125,166.2028,1114.0625,166.2028" style="stroke:#5E5E5E;stroke-width:1.5625;"/><line style="stroke:#5E5E5E;stroke-width:1.5625;" x1="1120.3125" x2="1120.3125" y1="166.2028" y2="172.4528"/><line style="stroke:#5E5E5E;stroke-width:1.5625;" x1="1126.5625" x2="1120.3125" y1="172.4528" y2="172.4528"/><text fill="#D8BC00" font-family="Open Sans,Avenir,Nunito,Arial,Helvetica,SansSerif" font-size="12.5" lengthAdjust="spacing" textLength="111.4583" x="996.3542" y="189.7461">kivakit_component</text><!--MD5=[c68e98f234d4ac85d03ca04aa775ddf3]
entity kivakit_configuration--><rect fill="#1B1B1A" height="44.93" rx="8.3333" ry="8.3333" style="stroke:#5E5E5E;stroke-width:1.5625;" width="159.375" x="1006.7708" y="268.2861"/><polygon fill="#1B1B1A" points="1148.4375,273.4945,1148.4375,288.0778,1160.9375,288.0778,1160.9375,279.7445,1154.6875,273.4945,1148.4375,273.4945" style="stroke:#5E5E5E;stroke-width:1.5625;"/><line style="stroke:#5E5E5E;stroke-width:1.5625;" x1="1154.6875" x2="1154.6875" y1="273.4945" y2="279.7445"/><line style="stroke:#5E5E5E;stroke-width:1.5625;" x1="1160.9375" x2="1154.6875" y1="279.7445" y2="279.7445"/><text fill="#D8BC00" font-family="Open Sans,Avenir,Nunito,Arial,Helvetica,SansSerif" font-size="12.5" lengthAdjust="spacing" textLength="121.875" x="1020.3125" y="297.0378">kivakit_configuration</text><!--MD5=[17eeaa61da6b3f8cb25de5876b62ec23]
entity kivakit_kernel--><rect fill="#1B1B1A" height="44.93" rx="8.3333" ry="8.3333" style="stroke:#5E5E5E;stroke-width:1.5625;" width="119.7917" x="627.6042" y="268.2861"/><polygon fill="#1B1B1A" points="729.6875,273.4945,729.6875,288.0778,742.1875,288.0778,742.1875,279.7445,735.9375,273.4945,729.6875,273.4945" style="stroke:#5E5E5E;stroke-width:1.5625;"/><line style="stroke:#5E5E5E;stroke-width:1.5625;" x1="735.9375" x2="735.9375" y1="273.4945" y2="279.7445"/><line style="stroke:#5E5E5E;stroke-width:1.5625;" x1="742.1875" x2="735.9375" y1="279.7445" y2="279.7445"/><text fill="#D8BC00" font-family="Open Sans,Avenir,Nunito,Arial,Helvetica,SansSerif" font-size="12.5" lengthAdjust="spacing" textLength="82.2917" x="641.1458" y="297.0378">kivakit_kernel</text><!--MD5=[789122fdd47ca161e4432768ac68a470]
entity kivakit_resource--><rect fill="#1B1B1A" height="44.93" rx="8.3333" ry="8.3333" style="stroke:#5E5E5E;stroke-width:1.5625;" width="134.375" x="1049.4792" y="375.5778"/><polygon fill="#1B1B1A" points="1166.1458,380.7861,1166.1458,395.3695,1178.6458,395.3695,1178.6458,387.0361,1172.3958,380.7861,1166.1458,380.7861" style="stroke:#5E5E5E;stroke-width:1.5625;"/><line style="stroke:#5E5E5E;stroke-width:1.5625;" x1="1172.3958" x2="1172.3958" y1="380.7861" y2="387.0361"/><line style="stroke:#5E5E5E;stroke-width:1.5625;" x1="1178.6458" x2="1172.3958" y1="387.0361" y2="387.0361"/><text fill="#D8BC00" font-family="Open Sans,Avenir,Nunito,Arial,Helvetica,SansSerif" font-size="12.5" lengthAdjust="spacing" textLength="96.875" x="1063.0208" y="404.3294">kivakit_resource</text><!--MD5=[90c7e8c0eae90f7cdcf1e82754bc9c37]
entity kivakit_serialization_core--><rect fill="#1B1B1A" height="44.93" rx="8.3333" ry="8.3333" style="stroke:#5E5E5E;stroke-width:1.5625;" width="186.4583" x="1171.3542" y="482.8695"/><polygon fill="#1B1B1A" points="1340.1042,488.0778,1340.1042,502.6611,1352.6042,502.6611,1352.6042,494.3278,1346.3542,488.0778,1340.1042,488.0778" style="stroke:#5E5E5E;stroke-width:1.5625;"/><line style="stroke:#5E5E5E;stroke-width:1.5625;" x1="1346.3542" x2="1346.3542" y1="488.0778" y2="494.3278"/><line style="stroke:#5E5E5E;stroke-width:1.5625;" x1="1352.6042" x2="1346.3542" y1="494.3278" y2="494.3278"/><text fill="#D8BC00" font-family="Open Sans,Avenir,Nunito,Arial,Helvetica,SansSerif" font-size="12.5" lengthAdjust="spacing" textLength="148.9583" x="1184.8958" y="511.6211">kivakit_serialization_core</text><!--MD5=[7bf535908c90dd3c1fbc894d9b1c5a2e]
entity kivakit_serialization_kryo--><rect fill="#1B1B1A" height="44.93" rx="8.3333" ry="8.3333" style="stroke:#5E5E5E;stroke-width:1.5625;" width="186.4583" x="878.6458" y="590.1611"/><polygon fill="#1B1B1A" points="1047.3958,595.3695,1047.3958,609.9528,1059.8958,609.9528,1059.8958,601.6195,1053.6458,595.3695,1047.3958,595.3695" style="stroke:#5E5E5E;stroke-width:1.5625;"/><line style="stroke:#5E5E5E;stroke-width:1.5625;" x1="1053.6458" x2="1053.6458" y1="595.3695" y2="601.6195"/><line style="stroke:#5E5E5E;stroke-width:1.5625;" x1="1059.8958" x2="1053.6458" y1="601.6195" y2="601.6195"/><text fill="#D8BC00" font-family="Open Sans,Avenir,Nunito,Arial,Helvetica,SansSerif" font-size="12.5" lengthAdjust="spacing" textLength="148.9583" x="892.1875" y="618.9128">kivakit_serialization_kryo</text><!--MD5=[11024e5ca6382b1a0f630f967447af59]
entity kivakit_test--><rect fill="#1B1B1A" height="44.93" rx="8.3333" ry="8.3333" style="stroke:#5E5E5E;stroke-width:1.5625;" width="104.1667" x="1102.0833" y="590.1611"/><polygon fill="#1B1B1A" points="1188.5417,595.3695,1188.5417,609.9528,1201.0417,609.9528,1201.0417,601.6195,1194.7917,595.3695,1188.5417,595.3695" style="stroke:#5E5E5E;stroke-width:1.5625;"/><line style="stroke:#5E5E5E;stroke-width:1.5625;" x1="1194.7917" x2="1194.7917" y1="595.3695" y2="601.6195"/><line style="stroke:#5E5E5E;stroke-width:1.5625;" x1="1201.0417" x2="1194.7917" y1="601.6195" y2="601.6195"/><text fill="#D8BC00" font-family="Open Sans,Avenir,Nunito,Arial,Helvetica,SansSerif" font-size="12.5" lengthAdjust="spacing" textLength="66.6667" x="1115.625" y="618.9128">kivakit_test</text><!--MD5=[7b0fec798d1f32628676dfdf75f1f662]
entity lexakai_annotations--><rect fill="#1B1B1A" height="44.93" rx="8.3333" ry="8.3333" style="stroke:#5E5E5E;stroke-width:1.5625;" width="155.2083" x="414.0625" y="375.5778"/><polygon fill="#1B1B1A" points="551.5625,380.7861,551.5625,395.3695,564.0625,395.3695,564.0625,387.0361,557.8125,380.7861,551.5625,380.7861" style="stroke:#5E5E5E;stroke-width:1.5625;"/><line style="stroke:#5E5E5E;stroke-width:1.5625;" x1="557.8125" x2="557.8125" y1="380.7861" y2="387.0361"/><line style="stroke:#5E5E5E;stroke-width:1.5625;" x1="564.0625" x2="557.8125" y1="387.0361" y2="387.0361"/><text fill="#D8BC00" font-family="Open Sans,Avenir,Nunito,Arial,Helvetica,SansSerif" font-size="12.5" lengthAdjust="spacing" textLength="117.7083" x="427.6042" y="404.3294">lexakai_annotations</text><!--MD5=[b9ccc173c089e3d2abf77c8581e74aca]
entity kryo_serializers--><rect fill="#1B1B1A" height="44.93" rx="8.3333" ry="8.3333" style="stroke:#5E5E5E;stroke-width:1.5625;" width="131.25" x="973.9583" y="697.4528"/><polygon fill="#1B1B1A" points="1087.5,702.6611,1087.5,717.2445,1100,717.2445,1100,708.9111,1093.75,702.6611,1087.5,702.6611" style="stroke:#5E5E5E;stroke-width:1.5625;"/><line style="stroke:#5E5E5E;stroke-width:1.5625;" x1="1093.75" x2="1093.75" y1="702.6611" y2="708.9111"/><line style="stroke:#5E5E5E;stroke-width:1.5625;" x1="1100" x2="1093.75" y1="708.9111" y2="708.9111"/><text fill="#D8BC00" font-family="Open Sans,Avenir,Nunito,Arial,Helvetica,SansSerif" font-size="12.5" lengthAdjust="spacing" textLength="93.75" x="987.5" y="726.2044">kryo_serializers</text><!--MD5=[23cc7f88cfa1ae4b54fca2963c42906f]
entity swagger_annotations--><rect fill="#1B1B1A" height="44.93" rx="8.3333" ry="8.3333" style="stroke:#5E5E5E;stroke-width:1.5625;" width="162.5" x="606.25" y="375.5778"/><polygon fill="#1B1B1A" points="751.0417,380.7861,751.0417,395.3695,763.5417,395.3695,763.5417,387.0361,757.2917,380.7861,751.0417,380.7861" style="stroke:#5E5E5E;stroke-width:1.5625;"/><line style="stroke:#5E5E5E;stroke-width:1.5625;" x1="757.2917" x2="757.2917" y1="380.7861" y2="387.0361"/><line style="stroke:#5E5E5E;stroke-width:1.5625;" x1="763.5417" x2="757.2917" y1="387.0361" y2="387.0361"/><text fill="#D8BC00" font-family="Open Sans,Avenir,Nunito,Arial,Helvetica,SansSerif" font-size="12.5" lengthAdjust="spacing" textLength="125" x="619.7917" y="404.3294">swagger_annotations</text><!--MD5=[ce55b294004802c137560c2930be5b75]
entity junit--><rect fill="#1B1B1A" height="44.93" rx="8.3333" ry="8.3333" style="stroke:#5E5E5E;stroke-width:1.5625;" width="63.5417" x="805.7292" y="375.5778"/><polygon fill="#1B1B1A" points="851.5625,380.7861,851.5625,395.3695,864.0625,395.3695,864.0625,387.0361,857.8125,380.7861,851.5625,380.7861" style="stroke:#5E5E5E;stroke-width:1.5625;"/><line style="stroke:#5E5E5E;stroke-width:1.5625;" x1="857.8125" x2="857.8125" y1="380.7861" y2="387.0361"/><line style="stroke:#5E5E5E;stroke-width:1.5625;" x1="864.0625" x2="857.8125" y1="387.0361" y2="387.0361"/><text fill="#D8BC00" font-family="Open Sans,Avenir,Nunito,Arial,Helvetica,SansSerif" font-size="12.5" lengthAdjust="spacing" textLength="26.0417" x="819.2708" y="404.3294">junit</text><!--MD5=[7f157d37bc1fd6ac970bb67ffdbc66a3]
entity hamcrest_core--><rect fill="#1B1B1A" height="44.93" rx="8.3333" ry="8.3333" style="stroke:#5E5E5E;stroke-width:1.5625;" width="125" x="775" y="482.8695"/><polygon fill="#1B1B1A" points="882.2917,488.0778,882.2917,502.6611,894.7917,502.6611,894.7917,494.3278,888.5417,488.0778,882.2917,488.0778" style="stroke:#5E5E5E;stroke-width:1.5625;"/><line style="stroke:#5E5E5E;stroke-width:1.5625;" x1="888.5417" x2="888.5417" y1="488.0778" y2="494.3278"/><line style="stroke:#5E5E5E;stroke-width:1.5625;" x1="894.7917" x2="888.5417" y1="494.3278" y2="494.3278"/><text fill="#D8BC00" font-family="Open Sans,Avenir,Nunito,Arial,Helvetica,SansSerif" font-size="12.5" lengthAdjust="spacing" textLength="87.5" x="788.5417" y="511.6211">hamcrest_core</text><!--MD5=[b728e17b4e4da6aa8cb97e9b2766c5e6]
entity annotations--><rect fill="#1B1B1A" height="44.93" rx="8.3333" ry="8.3333" style="stroke:#5E5E5E;stroke-width:1.5625;" width="106.25" x="906.25" y="375.5778"/><polygon fill="#1B1B1A" points="994.7917,380.7861,994.7917,395.3695,1007.2917,395.3695,1007.2917,387.0361,1001.0417,380.7861,994.7917,380.7861" style="stroke:#5E5E5E;stroke-width:1.5625;"/><line style="stroke:#5E5E5E;stroke-width:1.5625;" x1="1001.0417" x2="1001.0417" y1="380.7861" y2="387.0361"/><line style="stroke:#5E5E5E;stroke-width:1.5625;" x1="1007.2917" x2="1001.0417" y1="387.0361" y2="387.0361"/><text fill="#D8BC00" font-family="Open Sans,Avenir,Nunito,Arial,Helvetica,SansSerif" font-size="12.5" lengthAdjust="spacing" textLength="68.75" x="919.7917" y="404.3294">annotations</text><!--MD5=[b3c862d1486667ad9c7edef6529b2202]
entity objenesis--><rect fill="#1B1B1A" height="44.93" rx="8.3333" ry="8.3333" style="stroke:#5E5E5E;stroke-width:1.5625;" width="94.7917" x="992.1875" y="804.7445"/><polygon fill="#1B1B1A" points="1069.2708,809.9528,1069.2708,824.5361,1081.7708,824.5361,1081.7708,816.2028,1075.5208,809.9528,1069.2708,809.9528" style="stroke:#5E5E5E;stroke-width:1.5625;"/><line style="stroke:#5E5E5E;stroke-width:1.5625;" x1="1075.5208" x2="1075.5208" y1="809.9528" y2="816.2028"/><line style="stroke:#5E5E5E;stroke-width:1.5625;" x1="1081.7708" x2="1075.5208" y1="816.2028" y2="816.2028"/><text fill="#D8BC00" font-family="Open Sans,Avenir,Nunito,Arial,Helvetica,SansSerif" font-size="12.5" lengthAdjust="spacing" textLength="57.2917" x="1005.7292" y="833.4961">objenesis</text><!--MD5=[92e2ad58d19962135e7ff93f22958550]
entity asm--><rect fill="#1B1B1A" height="44.93" rx="8.3333" ry="8.3333" style="stroke:#5E5E5E;stroke-width:1.5625;" width="62.5" x="873.9583" y="912.0361"/><polygon fill="#1B1B1A" points="918.75,917.2445,918.75,931.8278,931.25,931.8278,931.25,923.4945,925,917.2445,918.75,917.2445" style="stroke:#5E5E5E;stroke-width:1.5625;"/><line style="stroke:#5E5E5E;stroke-width:1.5625;" x1="925" x2="925" y1="917.2445" y2="923.4945"/><line style="stroke:#5E5E5E;stroke-width:1.5625;" x1="931.25" x2="925" y1="923.4945" y2="923.4945"/><text fill="#D8BC00" font-family="Open Sans,Avenir,Nunito,Arial,Helvetica,SansSerif" font-size="12.5" lengthAdjust="spacing" textLength="25" x="887.5" y="940.7878">asm</text><!--MD5=[d68e7c4b3ca5f037bcb6997a0b4ed16b]
link junit to hamcrest_core--><path d="M837.5,420.8174 C837.5,437.2861 837.5,459.984 837.5,477.5361 " fill="none" id="junit-to-hamcrest_core" style="stroke:#545454;stroke-width:1.5625;"/><polygon fill="#545454" points="837.5,482.8174,841.6667,473.4424,837.5,477.609,833.3333,473.4424,837.5,482.8174" style="stroke:#545454;stroke-width:1.5625;"/><!--MD5=[b7f0c0096a22b33f9684f71ae8902e20]
link kivakit_application to kivakit_commandline--><path d="M881.1875,98.9424 C865.7917,115.8382 844.4375,139.2861 828.2813,157.0153 " fill="none" id="kivakit_application-to-kivakit_commandline" style="stroke:#545454;stroke-width:1.5625;"/><polygon fill="#545454" points="824.7083,160.9424,834.1104,156.8372,828.2237,157.0993,827.9615,151.2126,824.7083,160.9424" style="stroke:#545454;stroke-width:1.5625;"/><!--MD5=[d4c1a9613b655e0c99a052219726d524]
link kivakit_application to kivakit_component--><path d="M933.0417,98.682 C958.5313,115.8486 994.2188,139.8799 1020.8125,157.7861 " fill="none" id="kivakit_application-to-kivakit_component" style="stroke:#545454;stroke-width:1.5625;"/><polygon fill="#545454" points="1025.3333,160.8382,1019.8785,152.1493,1021.0112,157.932,1015.2286,159.0647,1025.3333,160.8382" style="stroke:#545454;stroke-width:1.5625;"/><!--MD5=[dac09380e252b6a73b9cbaef097b7dbb]
link kivakit_collections to kivakit_serialization_kryo--><path d="M1043.7188,528.109 C1029.2917,544.859 1009.3125,568.057 994.0833,585.734 " fill="none" id="kivakit_collections-to-kivakit_serialization_kryo" style="stroke:#545454;stroke-width:1.5625;"/><polygon fill="#545454" points="990.3229,590.109,999.6053,585.74,993.7283,586.1683,993.3001,580.2913,990.3229,590.109" style="stroke:#545454;stroke-width:1.5625;"/><!--MD5=[7a9a7670444eec57e073e1e035a347ff]
link kivakit_collections to kivakit_test--><path d="M1081.4896,528.109 C1096.0938,544.859 1116.3021,568.057 1131.7083,585.734 " fill="none" id="kivakit_collections-to-kivakit_test" style="stroke:#545454;stroke-width:1.5625;"/><polygon fill="#545454" points="1135.5104,590.109,1132.5149,580.2969,1132.0976,586.1746,1126.2199,585.7574,1135.5104,590.109" style="stroke:#545454;stroke-width:1.5625;"/><!--MD5=[ad08ab7f315d351dcdfee1c003ccf5cf]
link kivakit_commandline to kivakit_kernel--><path d="M781.1042,205.9736 C762.0625,222.9945 735.4583,246.7757 715.4792,264.6403 " fill="none" id="kivakit_commandline-to-kivakit_kernel" style="stroke:#545454;stroke-width:1.5625;"/><polygon fill="#545454" points="711.5729,268.1299,721.3414,264.9948,715.4583,264.6613,715.7917,258.7782,711.5729,268.1299" style="stroke:#545454;stroke-width:1.5625;"/><!--MD5=[77938f52ad4d369c3de7a0ffd0792d37]
link kivakit_component to kivakit_configuration--><path d="M1063.3333,206.234 C1067.9063,222.7028 1074.1979,245.4007 1079.0625,262.9528 " fill="none" id="kivakit_component-to-kivakit_configuration" style="stroke:#545454;stroke-width:1.5625;"/><polygon fill="#545454" points="1080.5208,268.234,1082.0434,258.0884,1079.1353,263.2134,1074.0104,260.3053,1080.5208,268.234" style="stroke:#545454;stroke-width:1.5625;"/><!--MD5=[3b28c85aebf84fa8aaa5822a1e458ff1]
link kivakit_configuration to kivakit_resource--><path d="M1092.7188,313.5257 C1097.4479,329.9945 1103.9688,352.6924 1109.0104,370.2445 " fill="none" id="kivakit_configuration-to-kivakit_resource" style="stroke:#545454;stroke-width:1.5625;"/><polygon fill="#545454" points="1110.5208,375.5257,1111.9517,365.3668,1109.09,370.5178,1103.939,367.6561,1110.5208,375.5257" style="stroke:#545454;stroke-width:1.5625;"/><!--MD5=[a2f7c49e80f0067c62cb523636c9f00e]
link kivakit_kernel to annotations--><path d="M742.8438,313.1403 C788.8333,330.9424 854.0833,356.182 900.9167,374.307 " fill="none" id="kivakit_kernel-to-annotations" style="stroke:#545454;stroke-width:1.5625;"/><polygon fill="#545454" points="905.9583,376.2653,898.7159,368.999,901.1002,374.3876,895.7116,376.772,905.9583,376.2653" style="stroke:#545454;stroke-width:1.5625;"/><!--MD5=[4bb5cdf1dd69a57413676b3f513d3923]
link kivakit_kernel to cactus_build_metadata--><path d="M627.5,307.5882 C560.6042,325.2757 451.8542,354.0257 375.8438,374.1299 " fill="none" id="kivakit_kernel-to-cactus_build_metadata" style="stroke:#545454;stroke-width:1.5625;"/><polygon fill="#545454" points="370.4271,375.557,380.554,377.1991,375.4637,374.2307,378.4321,369.1404,370.4271,375.557" style="stroke:#545454;stroke-width:1.5625;"/><!--MD5=[ce1de3a0fcf0456409f45c00bcbf6819]
link kivakit_kernel to jackson_annotations--><path d="M627.3021,300.7653 C532.75,315.2028 343.7292,344.9424 184.375,375.5778 C180.0104,376.4111 175.5521,377.2965 171.0521,378.2132 " fill="none" id="kivakit_kernel-to-jackson_annotations" style="stroke:#545454;stroke-width:1.5625;"/><polygon fill="#545454" points="165.75,379.2861,175.7688,381.494,170.8531,378.2447,174.1025,373.329,165.75,379.2861" style="stroke:#545454;stroke-width:1.5625;"/><!--MD5=[1866acf2ddf7045e9492d220d182168e]
link kivakit_kernel to junit--><path d="M718.2188,313.2653 C742.6875,330.432 776.9583,354.4632 802.4896,372.3695 " fill="none" id="kivakit_kernel-to-junit" style="stroke:#545454;stroke-width:1.5625;"/><polygon fill="#545454" points="806.8229,375.4215,801.5341,366.6306,802.5568,372.4338,796.7537,373.4565,806.8229,375.4215" style="stroke:#545454;stroke-width:1.5625;"/><!--MD5=[049e1cbc60d7a94f708d5cd284874347]
link kivakit_kernel to lexakai_annotations--><path d="M647.3958,313.2653 C615.1875,330.5674 569.9688,354.859 536.5521,372.8174 " fill="none" id="kivakit_kernel-to-lexakai_annotations" style="stroke:#545454;stroke-width:1.5625;"/><polygon fill="#545454" points="531.7188,375.4215,541.9483,374.6415,536.3036,372.9505,537.9946,367.3058,531.7188,375.4215" style="stroke:#545454;stroke-width:1.5625;"/><!--MD5=[ceaa58f2fdab01bf1e0ddaf38b77f8a7]
link kivakit_kernel to swagger_annotations--><path d="M687.5,313.5257 C687.5,329.9945 687.5,352.6924 687.5,370.2445 " fill="none" id="kivakit_kernel-to-swagger_annotations" style="stroke:#545454;stroke-width:1.5625;"/><polygon fill="#545454" points="687.5,375.5257,691.6667,366.1507,687.5,370.3174,683.3333,366.1507,687.5,375.5257" style="stroke:#545454;stroke-width:1.5625;"/><!--MD5=[1f920e5641e1a651a42d763be0b203c8]
link kivakit_resource to kivakit_collections--><path d="M1105.4479,420.8174 C1096.8854,437.432 1085.0729,460.3695 1076,477.9945 " fill="none" id="kivakit_resource-to-kivakit_collections" style="stroke:#545454;stroke-width:1.5625;"/><polygon fill="#545454" points="1073.5208,482.8174,1081.5148,476.3871,1075.9035,478.186,1074.1046,472.5748,1073.5208,482.8174" style="stroke:#545454;stroke-width:1.5625;"/><!--MD5=[5b04580b86b31fc18c828f7ddaf27421]
link kivakit_resource to kivakit_serialization_core--><path d="M1146.9583,420.557 C1171.0833,437.7236 1204.875,461.7549 1230.0521,479.6611 " fill="none" id="kivakit_resource-to-kivakit_serialization_core" style="stroke:#545454;stroke-width:1.5625;"/><polygon fill="#545454" points="1234.3333,482.7132,1229.1147,473.8805,1230.0911,479.6916,1224.28,480.668,1234.3333,482.7132" style="stroke:#545454;stroke-width:1.5625;"/><!--MD5=[40faeed4b9f18330bf0f83fa88774571]
link kivakit_serialization_kryo to kryo--><path d="M958.0625,635.4007 C947.5313,652.0153 932.9896,674.9528 921.8333,692.5778 " fill="none" id="kivakit_serialization_kryo-to-kryo" style="stroke:#545454;stroke-width:1.5625;"/><polygon fill="#545454" points="918.7708,697.4007,927.3143,691.7209,921.5632,693.0042,920.2799,687.2531,918.7708,697.4007" style="stroke:#545454;stroke-width:1.5625;"/><!--MD5=[03df8de183ef6689edc51eb2e13fe23e]
link kivakit_serialization_kryo to kryo_serializers--><path d="M985.9063,635.4007 C996.5938,652.0153 1011.3646,674.9528 1022.6979,692.5778 " fill="none" id="kivakit_serialization_kryo-to-kryo_serializers" style="stroke:#545454;stroke-width:1.5625;"/><polygon fill="#545454" points="1025.8021,697.4007,1024.2287,687.2629,1022.9819,693.022,1017.2228,691.7752,1025.8021,697.4007" style="stroke:#545454;stroke-width:1.5625;"/><!--MD5=[8c32f0e7b0abeba01afd276f5a66ee84]
link kryo to minlog--><path d="M879.6146,742.432 C859.3854,759.4528 831.1354,783.234 809.9167,801.0986 " fill="none" id="kryo-to-minlog" style="stroke:#545454;stroke-width:1.5625;"/><polygon fill="#545454" points="805.7708,804.5882,815.6248,801.7332,809.7536,801.232,810.2548,795.3608,805.7708,804.5882" style="stroke:#545454;stroke-width:1.5625;"/><!--MD5=[e75c16e47fcf6c43b15d3c25536a9ed0]
link kryo to objenesis--><path d="M932.7292,742.432 C954.5521,759.5257 985.0938,783.432 1007.9271,801.3174 " fill="none" id="kryo-to-objenesis" style="stroke:#545454;stroke-width:1.5625;"/><polygon fill="#545454" points="1012.1042,804.5882,1007.2893,795.5291,1008.0026,801.3783,1002.1534,802.0916,1012.1042,804.5882" style="stroke:#545454;stroke-width:1.5625;"/><!--MD5=[e061beb27669383d030ce0c5c656b006]
link kryo to reflectasm--><path d="M905.2083,742.6924 C905.2083,759.1611 905.2083,781.859 905.2083,799.4111 " fill="none" id="kryo-to-reflectasm" style="stroke:#545454;stroke-width:1.5625;"/><polygon fill="#545454" points="905.2083,804.6924,909.375,795.3174,905.2083,799.484,901.0417,795.3174,905.2083,804.6924" style="stroke:#545454;stroke-width:1.5625;"/><!--MD5=[338783537f3f9263e4097f5ff0c514d3]
link reflectasm to asm--><path d="M905.2083,849.984 C905.2083,866.4528 905.2083,889.1507 905.2083,906.7028 " fill="none" id="reflectasm-to-asm" style="stroke:#545454;stroke-width:1.5625;"/><polygon fill="#545454" points="905.2083,911.984,909.375,902.609,905.2083,906.7757,901.0417,902.609,905.2083,911.984" style="stroke:#545454;stroke-width:1.5625;"/><!--MD5=[f503fefea2c07eb04d0609f05ed90f05]
@startuml

    !include lexakai.theme
    
    title "kivakit-application"
    
    artifact kryo
    artifact minlog
    artifact reflectasm
    artifact jackson_annotations
    artifact cactus_build_metadata
    artifact kivakit_application
    artifact kivakit_collections
    artifact kivakit_commandline
    artifact kivakit_component
    artifact kivakit_configuration
    artifact kivakit_kernel
    artifact kivakit_resource
    artifact kivakit_serialization_core
    artifact kivakit_serialization_kryo
    artifact kivakit_test
    artifact lexakai_annotations
    artifact kryo_serializers
    artifact swagger_annotations
    artifact junit
    artifact hamcrest_core
    artifact annotations
    artifact objenesis
    artifact asm
    junit - -> hamcrest_core
    kivakit_application - -> kivakit_commandline
    kivakit_application - -> kivakit_component
    kivakit_collections - -> kivakit_serialization_kryo
    kivakit_collections - -> kivakit_test
    kivakit_commandline - -> kivakit_kernel
    kivakit_component - -> kivakit_configuration
    kivakit_configuration - -> kivakit_resource
    kivakit_kernel - -> annotations
    kivakit_kernel - -> cactus_build_metadata
    kivakit_kernel - -> jackson_annotations
    kivakit_kernel - -> junit
    kivakit_kernel - -> lexakai_annotations
    kivakit_kernel - -> swagger_annotations
    kivakit_resource - -> kivakit_collections
    kivakit_resource - -> kivakit_serialization_core
    kivakit_serialization_kryo - -> kryo
    kivakit_serialization_kryo - -> kryo_serializers
    kryo - -> minlog
    kryo - -> objenesis
    kryo - -> reflectasm
    reflectasm - -> asm
    
@enduml

@startuml









skinparam backgroundColor #333333






skinparam  {
    defaultFontName   "Open Sans,Avenir,Nunito,Arial,Helvetica,SansSerif"
    defaultFontSize   12
    defaultTextAlignment left
    shadowing false
    RoundCorner 10
    TitleFontSize 18
}

skinparam defaultFontName       "Open Sans,Avenir,Nunito,Arial,Helvetica,SansSerif"
skinparam defaultFontSize       12
skinparam dpi                   100
skinparam shadowing             false
skinparam roundcorner           16
skinparam ParticipantPadding    40
skinparam BoxPadding            40
skinparam Padding               3
skinparam ArrowColor            #545454
skinparam stereotype {
    CBackgroundColor #0066cf
    CBorderColor #0086ef
    ABackgroundColor #C8Ac00
    ABorderColor #D8Bc00
    IBackgroundColor #008400
    IBorderColor #239c23
    EBackgroundColor #cf6300
    EBorderColor #ef8300
    NBackgroundColor #3380b9
    NBorderColor #004d86
}
skinparam title {
	FontColor	                 #c0c0c0
 	BorderColor                  #545454
	FontSize	    	         20
	BorderRoundCorner            16
	BorderThickness 	         1
	BackgroundColor              #48494b
}


skinparam legend {
	BackgroundColor #303030
	BorderColor #404040
	FontColor #a0a0a0
}

	skinparam swimlane {
	BorderColor #5e5e5e
	BorderThickness 2
	TitleBackgroundColor  #6d6d6d-#484848
	TitleFontColor #303030
}

skinparam activity {
		FontColor #C8Ac00
	BorderColor #333333
	BackgroundColor #333333-#333333
	BarColor #00FF00
	StartColor #0060a8
	EndColor #0060a8
	DiamondBackgroundColor #6d6d6d-#3a3a3a
  	DiamondBorderColor #3a3a3a
  	DiamondFontColor #fefefe
}


skinparam participant {
		FontColor #C8Ac00
	BorderColor #333333
	BackgroundColor #333333-#333333
	ParticipantBorderThickness 2
}


skinparam actor {
		FontColor #C8Ac00
	BorderColor #333333
	BackgroundColor #333333-#333333
}


skinparam arrow {
	Thickness 1.5
	Color #545454
	FontColor #a0a0a0
    FontStyle bold
    MessageAlignment center
}



skinparam sequence {
	BorderColor #303030
	TitleFontColor #303030
	BackgroundColor #333333
	StartColor #303030
	EndColor #303030
	BoxBackgroundColor #333333
	BoxBorderColor #484848
	BoxFontColor #484848
	LifeLineBorderColor #484848
	LifeLineBorderThickness 2
	LifeLineBackgroundColor #3a3a3a
	GroupBorderColor #484848
	GroupFontColor #484848
	GroupHeaderFontColor #0060a8
	GroupBackgroundColor #484848
	GroupHeaderBackgroundColor #333333
	DividerBackgroundColor #484848
    DividerBorderColor #484848
    DividerBorderThickness 2
    DividerFontColor #D8Bc00
	ReferenceBackgroundColor #333333
	ReferenceBorderColor #484848
	ReferenceFontColor #fefefe
	ReferenceHeaderBackgroundColor #484848
}


skinparam partition {
	BorderColor #303030
	FontColor #333333
	BackgroundColor #333333
}


skinparam collections {
		FontColor #C8Ac00
	BorderColor #333333
	BackgroundColor #333333-#333333
}


skinparam control {
		FontColor #C8Ac00
	BorderColor #333333
	BackgroundColor #333333-#333333
}


skinparam entity {
		FontColor #C8Ac00
	BorderColor #333333
	BackgroundColor #333333-#333333
}


skinparam boundary {
		FontColor #C8Ac00
	BorderColor #333333
	BackgroundColor #333333-#333333
}


skinparam agent {
	BackgroundColor #ff8000
	BorderColor #ff9933
	FontColor #484848
}


skinparam note {
	BorderThickness 1
	BackgroundColor #1b1b1a
	BorderColor #5e5e5e
	FontSize 11
	FontColor #a0a0a0
}


skinparam artifact {
	BorderThickness 10
	BorderColor #5e5e5e
	BackgroundColor #1b1b1a
	FontColor #D8Bc00
}


skinparam component {
		FontColor #C8Ac00
	BorderColor #333333
	BackgroundColor #333333-#333333
}


skinparam interface {
	BackgroundColor  #008400
	BorderColor  #007F00
	FontColor #484848
}


skinparam storage {
	BackgroundColor #ff8000
  	BorderColor #cc6600
	FontColor #222222
}


skinparam node {
	BackgroundColor #333333
	BorderColor #333333
	FontColor #C8Ac00
}


skinparam cloud {
	BackgroundColor #484848-black
	BorderColor #484848
	FontColor #D8Bc00
}


skinparam database {
		FontColor #C8Ac00
	BorderColor #333333
	BackgroundColor #333333-#333333
	BackgroundColor  #333333
}


skinparam class {
		FontColor #C8Ac00
	BorderColor #333333
	BackgroundColor #333333-#333333
	HeaderBackgroundColor #1b1b1a
    BackgroundColor #282828
    BorderColor #5e5e5e
 	StereotypeFontColor #a0a0a0
    StereotypeFontStyle bold
	BorderThickness 1
	AttributeFontColor #D8Bc00
	AttributeFontSize 11
    FontColor #D8Bc00
    FontStyle bold
}


skinparam object {
		FontColor #C8Ac00
	BorderColor #333333
	BackgroundColor #333333-#333333
	StereotypeFontColor #484848
	BorderThickness 1
	AttributeFontColor #fefefe
	AttributeFontSize 11
}


skinparam usecase {
		FontColor #C8Ac00
	BorderColor #333333
	BackgroundColor #333333-#333333
	BorderThickness 2
	StereotypeFontColor #303030
}


skinparam rectangle {
		FontColor #C8Ac00
	BorderColor #333333
	BackgroundColor #333333-#333333
	BackgroundColor #333333
	BorderThickness 2
	StereotypeFontColor #303030
}


skinparam package {
		FontColor #C8Ac00
	BorderColor #333333
	BackgroundColor #333333-#333333
	BackgroundColor #333333
	BorderThickness 2
}


skinparam folder {
	BackgroundColor #6d6d6d
  	BorderColor #ff8000
	FontColor #ff8000
	BorderThickness 2
}


skinparam frame {
	BackgroundColor #6d6d6d
  	BorderColor #0060a8
	FontColor #0060a8
	BorderThickness 2
}


skinparam state {
		FontColor #C8Ac00
	BorderColor #333333
	BackgroundColor #333333-#333333
	StartColor #0060a8
	EndColor #0060a8
	AttributeFontColor #fefefe
	AttributeFontSize 11
}


skinparam queue {
		FontColor #C8Ac00
	BorderColor #333333
	BackgroundColor #333333-#333333
}


skinparam card {
	BackgroundColor #0060a8
	BorderColor #004d86
	FontColor $INFO_TEXT
}


skinparam file {
	BackgroundColor #6d6d6d-#484848
	BorderColor #0060a8
	FontColor #fefefe
}


skinparam stack {
		FontColor #C8Ac00
	BorderColor #333333
	BackgroundColor #333333-#333333
}

    
    title "kivakit-application"
    
    artifact kryo
    artifact minlog
    artifact reflectasm
    artifact jackson_annotations
    artifact cactus_build_metadata
    artifact kivakit_application
    artifact kivakit_collections
    artifact kivakit_commandline
    artifact kivakit_component
    artifact kivakit_configuration
    artifact kivakit_kernel
    artifact kivakit_resource
    artifact kivakit_serialization_core
    artifact kivakit_serialization_kryo
    artifact kivakit_test
    artifact lexakai_annotations
    artifact kryo_serializers
    artifact swagger_annotations
    artifact junit
    artifact hamcrest_core
    artifact annotations
    artifact objenesis
    artifact asm
    junit - -> hamcrest_core
    kivakit_application - -> kivakit_commandline
    kivakit_application - -> kivakit_component
    kivakit_collections - -> kivakit_serialization_kryo
    kivakit_collections - -> kivakit_test
    kivakit_commandline - -> kivakit_kernel
    kivakit_component - -> kivakit_configuration
    kivakit_configuration - -> kivakit_resource
    kivakit_kernel - -> annotations
    kivakit_kernel - -> cactus_build_metadata
    kivakit_kernel - -> jackson_annotations
    kivakit_kernel - -> junit
    kivakit_kernel - -> lexakai_annotations
    kivakit_kernel - -> swagger_annotations
    kivakit_resource - -> kivakit_collections
    kivakit_resource - -> kivakit_serialization_core
    kivakit_serialization_kryo - -> kryo
    kivakit_serialization_kryo - -> kryo_serializers
    kryo - -> minlog
    kryo - -> objenesis
    kryo - -> reflectasm
    reflectasm - -> asm
    
@enduml

PlantUML version 1.2021.01(Tue Feb 02 00:55:08 MST 2021)
(GPL source distribution)
Java Runtime: OpenJDK Runtime Environment
JVM: OpenJDK 64-Bit Server VM
Default Encoding: UTF-8
Language: en
Country: US
--></g></svg>