<?xml version="1.0" encoding="UTF-8" standalone="no"?><svg xmlns="http://www.w3.org/2000/svg" xmlns:xlink="http://www.w3.org/1999/xlink" contentScriptType="application/ecmascript" contentStyleType="text/css" height="143.75px" preserveAspectRatio="none" style="width:257px;height:143px;background:#333333;" version="1.1" viewBox="0 0 257 143" width="257.2917px" zoomAndPan="magnify"><defs/><g><rect fill="#48494B" height="41.2028" rx="8.3333" ry="8.3333" style="stroke:#545454;stroke-width:1.0416666666666667;" width="193.75" x="24.4792" y="2.0833"/><text fill="#C0C0C0" font-family="Open Sans,Avenir,Nunito,Arial,Helvetica,SansSerif" font-size="20.8333" lengthAdjust="spacing" textLength="170.8333" x="35.9375" y="30.5583">diagram-loading</text><rect codeLine="7" fill="#282828" height="83.3781" id="Loadable" rx="8.3333" ry="8.3333" style="stroke:#5E5E5E;stroke-width:1.0416666666666667;" width="95.8333" x="7.2917" y="53.7028"/><rect fill="#1B1B1A" height="31.3883" rx="8.3333" ry="8.3333" style="stroke:#1B1B1A;stroke-width:1.0416666666666667;" width="95.8333" x="7.2917" y="53.7028"/><rect fill="#1B1B1A" height="8.3333" style="stroke:#1B1B1A;stroke-width:1.0416666666666667;" width="95.8333" x="7.2917" y="76.7578"/><rect codeLine="7" fill="none" height="83.3781" id="Loadable" rx="8.3333" ry="8.3333" style="stroke:#5E5E5E;stroke-width:1.0416666666666667;" width="95.8333" x="7.2917" y="53.7028"/><ellipse cx="21.875" cy="69.397" fill="#008400" rx="10.4167" ry="10.4167" style="stroke:#239C23;stroke-width:1.0416666666666667;"/><path d="M19.279,66.5588 L19.279,64.9719 L24.705,64.9719 L24.705,66.5588 L22.8923,66.5588 L22.8923,72.4976 L24.705,72.4976 L24.705,74.0845 L19.279,74.0845 L19.279,72.4976 L21.0917,72.4976 L21.0917,66.5588 Z " fill="#000000"/><text fill="#D8BC00" font-family="Open Sans,Avenir,Nunito,Arial,Helvetica,SansSerif" font-size="12.5" font-style="italic" font-weight="bold" lengthAdjust="spacing" textLength="58.3333" x="38.5417" y="74.1211">Loadable</text><line style="stroke:#5E5E5E;stroke-width:1.5625;" x1="8.3333" x2="102.0833" y1="85.0911" y2="85.0911"/><ellipse cx="18.75" cy="120.461" fill="#84BE84" rx="3.125" ry="3.125" style="stroke:#038048;stroke-width:1.0416666666666667;"/><text fill="#D8BC00" font-family="Open Sans,Avenir,Nunito,Arial,Helvetica,SansSerif" font-size="11.4583" lengthAdjust="spacing" textLength="59.375" x="30.2083" y="127.3722">void load()</text><line style="stroke:#5E5E5E;stroke-width:1.0416666666666667;" x1="8.3333" x2="35.4167" y1="103.2969" y2="103.2969"/><text fill="#D8BC00" font-family="Open Sans,Avenir,Nunito,Arial,Helvetica,SansSerif" font-size="11.4583" lengthAdjust="spacing" textLength="33.3333" x="38.5417" y="107.1065">(read)</text><line style="stroke:#5E5E5E;stroke-width:1.0416666666666667;" x1="75" x2="102.0833" y1="103.2969" y2="103.2969"/><rect codeLine="13" fill="#282828" height="67.7999" id="Unloadable" rx="8.3333" ry="8.3333" style="stroke:#5E5E5E;stroke-width:1.0416666666666667;" width="110.4167" x="139.5833" y="61.5153"/><rect fill="#1B1B1A" height="31.3883" rx="8.3333" ry="8.3333" style="stroke:#1B1B1A;stroke-width:1.0416666666666667;" width="110.4167" x="139.5833" y="61.5153"/><rect fill="#1B1B1A" height="8.3333" style="stroke:#1B1B1A;stroke-width:1.0416666666666667;" width="110.4167" x="139.5833" y="84.5703"/><rect codeLine="13" fill="none" height="67.7999" id="Unloadable" rx="8.3333" ry="8.3333" style="stroke:#5E5E5E;stroke-width:1.0416666666666667;" width="110.4167" x="139.5833" y="61.5153"/><ellipse cx="154.1667" cy="77.2095" fill="#008400" rx="10.4167" ry="10.4167" style="stroke:#239C23;stroke-width:1.0416666666666667;"/><path d="M151.5706,74.3713 L151.5706,72.7844 L156.9967,72.7844 L156.9967,74.3713 L155.1839,74.3713 L155.1839,80.3101 L156.9967,80.3101 L156.9967,81.897 L151.5706,81.897 L151.5706,80.3101 L153.3834,80.3101 L153.3834,74.3713 Z " fill="#000000"/><text fill="#D8BC00" font-family="Open Sans,Avenir,Nunito,Arial,Helvetica,SansSerif" font-size="12.5" font-style="italic" font-weight="bold" lengthAdjust="spacing" textLength="72.9167" x="170.8333" y="81.9336">Unloadable</text><line style="stroke:#5E5E5E;stroke-width:1.5625;" x1="140.625" x2="248.9583" y1="92.9036" y2="92.9036"/><line style="stroke:#5E5E5E;stroke-width:1.0416666666666667;" x1="140.625" x2="248.9583" y1="101.237" y2="101.237"/><ellipse cx="151.0417" cy="112.6953" fill="#84BE84" rx="3.125" ry="3.125" style="stroke:#038048;stroke-width:1.0416666666666667;"/><text fill="#D8BC00" font-family="Open Sans,Avenir,Nunito,Arial,Helvetica,SansSerif" font-size="11.4583" lengthAdjust="spacing" textLength="73.9583" x="162.5" y="119.6065">void unload()</text></g></svg>
