<?xml version="1.0" encoding="UTF-8" standalone="no"?><svg xmlns="http://www.w3.org/2000/svg" xmlns:xlink="http://www.w3.org/1999/xlink" contentScriptType="application/ecmascript" contentStyleType="text/css" height="747.9167px" preserveAspectRatio="none" style="width:1484px;height:747px;background:#333333;" version="1.1" viewBox="0 0 1484 747" width="1484.375px" zoomAndPan="magnify"><defs/><g><rect fill="#48494B" height="41.2028" rx="8.3333" ry="8.3333" style="stroke:#545454;stroke-width:1.0416666666666667;" width="234.375" x="617.7083" y="2.0833"/><text fill="#C0C0C0" font-family="Open Sans,Avenir,Nunito,Arial,Helvetica,SansSerif" font-size="20.8333" lengthAdjust="spacing" textLength="211.4583" x="629.1667" y="30.5583">kivakit-configuration</text><!--MD5=[4f079977920bf52107586fb847a1e92c]
entity kryo--><rect fill="#1B1B1A" height="44.93" rx="8.3333" ry="8.3333" style="stroke:#5E5E5E;stroke-width:1.5625;" width="63.5417" x="139.0625" y="482.8695"/><polygon fill="#1B1B1A" points="184.8958,488.0778,184.8958,502.6611,197.3958,502.6611,197.3958,494.3278,191.1458,488.0778,184.8958,488.0778" style="stroke:#5E5E5E;stroke-width:1.5625;"/><line style="stroke:#5E5E5E;stroke-width:1.5625;" x1="191.1458" x2="191.1458" y1="488.0778" y2="494.3278"/><line style="stroke:#5E5E5E;stroke-width:1.5625;" x1="197.3958" x2="191.1458" y1="494.3278" y2="494.3278"/><text fill="#D8BC00" font-family="Open Sans,Avenir,Nunito,Arial,Helvetica,SansSerif" font-size="12.5" lengthAdjust="spacing" textLength="26.0417" x="152.6042" y="511.6211">kryo</text><!--MD5=[745ab22dbfa32e29a2660b9e5bc2262a]
entity minlog--><rect fill="#1B1B1A" height="44.93" rx="8.3333" ry="8.3333" style="stroke:#5E5E5E;stroke-width:1.5625;" width="77.0833" x="7.2917" y="590.1611"/><polygon fill="#1B1B1A" points="66.6667,595.3695,66.6667,609.9528,79.1667,609.9528,79.1667,601.6195,72.9167,595.3695,66.6667,595.3695" style="stroke:#5E5E5E;stroke-width:1.5625;"/><line style="stroke:#5E5E5E;stroke-width:1.5625;" x1="72.9167" x2="72.9167" y1="595.3695" y2="601.6195"/><line style="stroke:#5E5E5E;stroke-width:1.5625;" x1="79.1667" x2="72.9167" y1="601.6195" y2="601.6195"/><text fill="#D8BC00" font-family="Open Sans,Avenir,Nunito,Arial,Helvetica,SansSerif" font-size="12.5" lengthAdjust="spacing" textLength="39.5833" x="20.8333" y="618.9128">minlog</text><!--MD5=[5d0bc62e6e2e5a8467f655d5e580826c]
entity reflectasm--><rect fill="#1B1B1A" height="44.93" rx="8.3333" ry="8.3333" style="stroke:#5E5E5E;stroke-width:1.5625;" width="100" x="120.8333" y="590.1611"/><polygon fill="#1B1B1A" points="203.125,595.3695,203.125,609.9528,215.625,609.9528,215.625,601.6195,209.375,595.3695,203.125,595.3695" style="stroke:#5E5E5E;stroke-width:1.5625;"/><line style="stroke:#5E5E5E;stroke-width:1.5625;" x1="209.375" x2="209.375" y1="595.3695" y2="601.6195"/><line style="stroke:#5E5E5E;stroke-width:1.5625;" x1="215.625" x2="209.375" y1="601.6195" y2="601.6195"/><text fill="#D8BC00" font-family="Open Sans,Avenir,Nunito,Arial,Helvetica,SansSerif" font-size="12.5" lengthAdjust="spacing" textLength="62.5" x="134.375" y="618.9128">reflectasm</text><!--MD5=[07375bd6ced801b2ef86c9d3f68eec61]
entity jackson_annotations--><rect fill="#1B1B1A" height="44.93" rx="8.3333" ry="8.3333" style="stroke:#5E5E5E;stroke-width:1.5625;" width="158.3333" x="406.25" y="375.5778"/><polygon fill="#1B1B1A" points="546.875,380.7861,546.875,395.3695,559.375,395.3695,559.375,387.0361,553.125,380.7861,546.875,380.7861" style="stroke:#5E5E5E;stroke-width:1.5625;"/><line style="stroke:#5E5E5E;stroke-width:1.5625;" x1="553.125" x2="553.125" y1="380.7861" y2="387.0361"/><line style="stroke:#5E5E5E;stroke-width:1.5625;" x1="559.375" x2="553.125" y1="387.0361" y2="387.0361"/><text fill="#D8BC00" font-family="Open Sans,Avenir,Nunito,Arial,Helvetica,SansSerif" font-size="12.5" lengthAdjust="spacing" textLength="120.8333" x="419.7917" y="404.3294">jackson_annotations</text><!--MD5=[53e810a96c27d4bd25e6a3839aaba16b]
entity gson--><rect fill="#1B1B1A" height="44.93" rx="8.3333" ry="8.3333" style="stroke:#5E5E5E;stroke-width:1.5625;" width="65.625" x="768.2292" y="268.2861"/><polygon fill="#1B1B1A" points="816.1458,273.4945,816.1458,288.0778,828.6458,288.0778,828.6458,279.7445,822.3958,273.4945,816.1458,273.4945" style="stroke:#5E5E5E;stroke-width:1.5625;"/><line style="stroke:#5E5E5E;stroke-width:1.5625;" x1="822.3958" x2="822.3958" y1="273.4945" y2="279.7445"/><line style="stroke:#5E5E5E;stroke-width:1.5625;" x1="828.6458" x2="822.3958" y1="279.7445" y2="279.7445"/><text fill="#D8BC00" font-family="Open Sans,Avenir,Nunito,Arial,Helvetica,SansSerif" font-size="12.5" lengthAdjust="spacing" textLength="28.125" x="781.7708" y="297.0378">gson</text><!--MD5=[4aa4ddcf3dc6d6219283db0a9fd05165]
entity cactus_build_metadata--><rect fill="#1B1B1A" height="44.93" rx="8.3333" ry="8.3333" style="stroke:#5E5E5E;stroke-width:1.5625;" width="175" x="601.0417" y="375.5778"/><polygon fill="#1B1B1A" points="758.3333,380.7861,758.3333,395.3695,770.8333,395.3695,770.8333,387.0361,764.5833,380.7861,758.3333,380.7861" style="stroke:#5E5E5E;stroke-width:1.5625;"/><line style="stroke:#5E5E5E;stroke-width:1.5625;" x1="764.5833" x2="764.5833" y1="380.7861" y2="387.0361"/><line style="stroke:#5E5E5E;stroke-width:1.5625;" x1="770.8333" x2="764.5833" y1="387.0361" y2="387.0361"/><text fill="#D8BC00" font-family="Open Sans,Avenir,Nunito,Arial,Helvetica,SansSerif" font-size="12.5" lengthAdjust="spacing" textLength="137.5" x="614.5833" y="404.3294">cactus_build_metadata</text><!--MD5=[4facc4376e4b6bfc182ce14f42a813f9]
entity kivakit_collections--><rect fill="#1B1B1A" height="44.93" rx="8.3333" ry="8.3333" style="stroke:#5E5E5E;stroke-width:1.5625;" width="143.75" x="165.625" y="268.2861"/><polygon fill="#1B1B1A" points="291.6667,273.4945,291.6667,288.0778,304.1667,288.0778,304.1667,279.7445,297.9167,273.4945,291.6667,273.4945" style="stroke:#5E5E5E;stroke-width:1.5625;"/><line style="stroke:#5E5E5E;stroke-width:1.5625;" x1="297.9167" x2="297.9167" y1="273.4945" y2="279.7445"/><line style="stroke:#5E5E5E;stroke-width:1.5625;" x1="304.1667" x2="297.9167" y1="279.7445" y2="279.7445"/><text fill="#D8BC00" font-family="Open Sans,Avenir,Nunito,Arial,Helvetica,SansSerif" font-size="12.5" lengthAdjust="spacing" textLength="106.25" x="179.1667" y="297.0378">kivakit_collections</text><!--MD5=[b7af8d5b7902cf06664f76dfe0f9e426]
entity kivakit_commandline--><rect fill="#1B1B1A" height="44.93" rx="8.3333" ry="8.3333" style="stroke:#5E5E5E;stroke-width:1.5625;" width="162.5" x="345.8333" y="268.2861"/><polygon fill="#1B1B1A" points="490.625,273.4945,490.625,288.0778,503.125,288.0778,503.125,279.7445,496.875,273.4945,490.625,273.4945" style="stroke:#5E5E5E;stroke-width:1.5625;"/><line style="stroke:#5E5E5E;stroke-width:1.5625;" x1="496.875" x2="496.875" y1="273.4945" y2="279.7445"/><line style="stroke:#5E5E5E;stroke-width:1.5625;" x1="503.125" x2="496.875" y1="279.7445" y2="279.7445"/><text fill="#D8BC00" font-family="Open Sans,Avenir,Nunito,Arial,Helvetica,SansSerif" font-size="12.5" lengthAdjust="spacing" textLength="125" x="359.375" y="297.0378">kivakit_commandline</text><!--MD5=[c68e98f234d4ac85d03ca04aa775ddf3]
entity kivakit_configuration--><rect fill="#1B1B1A" height="44.93" rx="8.3333" ry="8.3333" style="stroke:#5E5E5E;stroke-width:1.5625;" width="159.375" x="782.8125" y="53.7028"/><polygon fill="#1B1B1A" points="924.4792,58.9111,924.4792,73.4945,936.9792,73.4945,936.9792,65.1611,930.7292,58.9111,924.4792,58.9111" style="stroke:#5E5E5E;stroke-width:1.5625;"/><line style="stroke:#5E5E5E;stroke-width:1.5625;" x1="930.7292" x2="930.7292" y1="58.9111" y2="65.1611"/><line style="stroke:#5E5E5E;stroke-width:1.5625;" x1="936.9792" x2="930.7292" y1="65.1611" y2="65.1611"/><text fill="#D8BC00" font-family="Open Sans,Avenir,Nunito,Arial,Helvetica,SansSerif" font-size="12.5" lengthAdjust="spacing" textLength="121.875" x="796.3542" y="82.4544">kivakit_configuration</text><!--MD5=[17eeaa61da6b3f8cb25de5876b62ec23]
entity kivakit_kernel--><rect fill="#1B1B1A" height="44.93" rx="8.3333" ry="8.3333" style="stroke:#5E5E5E;stroke-width:1.5625;" width="119.7917" x="870.3125" y="268.2861"/><polygon fill="#1B1B1A" points="972.3958,273.4945,972.3958,288.0778,984.8958,288.0778,984.8958,279.7445,978.6458,273.4945,972.3958,273.4945" style="stroke:#5E5E5E;stroke-width:1.5625;"/><line style="stroke:#5E5E5E;stroke-width:1.5625;" x1="978.6458" x2="978.6458" y1="273.4945" y2="279.7445"/><line style="stroke:#5E5E5E;stroke-width:1.5625;" x1="984.8958" x2="978.6458" y1="279.7445" y2="279.7445"/><text fill="#D8BC00" font-family="Open Sans,Avenir,Nunito,Arial,Helvetica,SansSerif" font-size="12.5" lengthAdjust="spacing" textLength="82.2917" x="883.8542" y="297.0378">kivakit_kernel</text><!--MD5=[789122fdd47ca161e4432768ac68a470]
entity kivakit_resource--><rect fill="#1B1B1A" height="44.93" rx="8.3333" ry="8.3333" style="stroke:#5E5E5E;stroke-width:1.5625;" width="134.375" x="509.8958" y="160.9945"/><polygon fill="#1B1B1A" points="626.5625,166.2028,626.5625,180.7861,639.0625,180.7861,639.0625,172.4528,632.8125,166.2028,626.5625,166.2028" style="stroke:#5E5E5E;stroke-width:1.5625;"/><line style="stroke:#5E5E5E;stroke-width:1.5625;" x1="632.8125" x2="632.8125" y1="166.2028" y2="172.4528"/><line style="stroke:#5E5E5E;stroke-width:1.5625;" x1="639.0625" x2="632.8125" y1="172.4528" y2="172.4528"/><text fill="#D8BC00" font-family="Open Sans,Avenir,Nunito,Arial,Helvetica,SansSerif" font-size="12.5" lengthAdjust="spacing" textLength="96.875" x="523.4375" y="189.7461">kivakit_resource</text><!--MD5=[90c7e8c0eae90f7cdcf1e82754bc9c37]
entity kivakit_serialization_core--><rect fill="#1B1B1A" height="44.93" rx="8.3333" ry="8.3333" style="stroke:#5E5E5E;stroke-width:1.5625;" width="186.4583" x="545.3125" y="268.2861"/><polygon fill="#1B1B1A" points="714.0625,273.4945,714.0625,288.0778,726.5625,288.0778,726.5625,279.7445,720.3125,273.4945,714.0625,273.4945" style="stroke:#5E5E5E;stroke-width:1.5625;"/><line style="stroke:#5E5E5E;stroke-width:1.5625;" x1="720.3125" x2="720.3125" y1="273.4945" y2="279.7445"/><line style="stroke:#5E5E5E;stroke-width:1.5625;" x1="726.5625" x2="720.3125" y1="279.7445" y2="279.7445"/><text fill="#D8BC00" font-family="Open Sans,Avenir,Nunito,Arial,Helvetica,SansSerif" font-size="12.5" lengthAdjust="spacing" textLength="148.9583" x="558.8542" y="297.0378">kivakit_serialization_core</text><!--MD5=[71ec73b64d97786e160c020912518960]
entity kivakit_serialization_json--><rect fill="#1B1B1A" height="44.93" rx="8.3333" ry="8.3333" style="stroke:#5E5E5E;stroke-width:1.5625;" width="185.4167" x="769.7917" y="160.9945"/><polygon fill="#1B1B1A" points="937.5,166.2028,937.5,180.7861,950,180.7861,950,172.4528,943.75,166.2028,937.5,166.2028" style="stroke:#5E5E5E;stroke-width:1.5625;"/><line style="stroke:#5E5E5E;stroke-width:1.5625;" x1="943.75" x2="943.75" y1="166.2028" y2="172.4528"/><line style="stroke:#5E5E5E;stroke-width:1.5625;" x1="950" x2="943.75" y1="172.4528" y2="172.4528"/><text fill="#D8BC00" font-family="Open Sans,Avenir,Nunito,Arial,Helvetica,SansSerif" font-size="12.5" lengthAdjust="spacing" textLength="147.9167" x="783.3333" y="189.7461">kivakit_serialization_json</text><!--MD5=[7bf535908c90dd3c1fbc894d9b1c5a2e]
entity kivakit_serialization_kryo--><rect fill="#1B1B1A" height="44.93" rx="8.3333" ry="8.3333" style="stroke:#5E5E5E;stroke-width:1.5625;" width="186.4583" x="144.2708" y="375.5778"/><polygon fill="#1B1B1A" points="313.0208,380.7861,313.0208,395.3695,325.5208,395.3695,325.5208,387.0361,319.2708,380.7861,313.0208,380.7861" style="stroke:#5E5E5E;stroke-width:1.5625;"/><line style="stroke:#5E5E5E;stroke-width:1.5625;" x1="319.2708" x2="319.2708" y1="380.7861" y2="387.0361"/><line style="stroke:#5E5E5E;stroke-width:1.5625;" x1="325.5208" x2="319.2708" y1="387.0361" y2="387.0361"/><text fill="#D8BC00" font-family="Open Sans,Avenir,Nunito,Arial,Helvetica,SansSerif" font-size="12.5" lengthAdjust="spacing" textLength="148.9583" x="157.8125" y="404.3294">kivakit_serialization_kryo</text><!--MD5=[11024e5ca6382b1a0f630f967447af59]
entity kivakit_test--><rect fill="#1B1B1A" height="44.93" rx="8.3333" ry="8.3333" style="stroke:#5E5E5E;stroke-width:1.5625;" width="104.1667" x="1116.6667" y="160.9945"/><polygon fill="#1B1B1A" points="1203.125,166.2028,1203.125,180.7861,1215.625,180.7861,1215.625,172.4528,1209.375,166.2028,1203.125,166.2028" style="stroke:#5E5E5E;stroke-width:1.5625;"/><line style="stroke:#5E5E5E;stroke-width:1.5625;" x1="1209.375" x2="1209.375" y1="166.2028" y2="172.4528"/><line style="stroke:#5E5E5E;stroke-width:1.5625;" x1="1215.625" x2="1209.375" y1="172.4528" y2="172.4528"/><text fill="#D8BC00" font-family="Open Sans,Avenir,Nunito,Arial,Helvetica,SansSerif" font-size="12.5" lengthAdjust="spacing" textLength="66.6667" x="1130.2083" y="189.7461">kivakit_test</text><!--MD5=[7b0fec798d1f32628676dfdf75f1f662]
entity lexakai_annotations--><rect fill="#1B1B1A" height="44.93" rx="8.3333" ry="8.3333" style="stroke:#5E5E5E;stroke-width:1.5625;" width="155.2083" x="813.0208" y="375.5778"/><polygon fill="#1B1B1A" points="950.5208,380.7861,950.5208,395.3695,963.0208,395.3695,963.0208,387.0361,956.7708,380.7861,950.5208,380.7861" style="stroke:#5E5E5E;stroke-width:1.5625;"/><line style="stroke:#5E5E5E;stroke-width:1.5625;" x1="956.7708" x2="956.7708" y1="380.7861" y2="387.0361"/><line style="stroke:#5E5E5E;stroke-width:1.5625;" x1="963.0208" x2="956.7708" y1="387.0361" y2="387.0361"/><text fill="#D8BC00" font-family="Open Sans,Avenir,Nunito,Arial,Helvetica,SansSerif" font-size="12.5" lengthAdjust="spacing" textLength="117.7083" x="826.5625" y="404.3294">lexakai_annotations</text><!--MD5=[b9ccc173c089e3d2abf77c8581e74aca]
entity kryo_serializers--><rect fill="#1B1B1A" height="44.93" rx="8.3333" ry="8.3333" style="stroke:#5E5E5E;stroke-width:1.5625;" width="131.25" x="239.5833" y="482.8695"/><polygon fill="#1B1B1A" points="353.125,488.0778,353.125,502.6611,365.625,502.6611,365.625,494.3278,359.375,488.0778,353.125,488.0778" style="stroke:#5E5E5E;stroke-width:1.5625;"/><line style="stroke:#5E5E5E;stroke-width:1.5625;" x1="359.375" x2="359.375" y1="488.0778" y2="494.3278"/><line style="stroke:#5E5E5E;stroke-width:1.5625;" x1="365.625" x2="359.375" y1="494.3278" y2="494.3278"/><text fill="#D8BC00" font-family="Open Sans,Avenir,Nunito,Arial,Helvetica,SansSerif" font-size="12.5" lengthAdjust="spacing" textLength="93.75" x="253.125" y="511.6211">kryo_serializers</text><!--MD5=[23cc7f88cfa1ae4b54fca2963c42906f]
entity swagger_annotations--><rect fill="#1B1B1A" height="44.93" rx="8.3333" ry="8.3333" style="stroke:#5E5E5E;stroke-width:1.5625;" width="162.5" x="1005.2083" y="375.5778"/><polygon fill="#1B1B1A" points="1150,380.7861,1150,395.3695,1162.5,395.3695,1162.5,387.0361,1156.25,380.7861,1150,380.7861" style="stroke:#5E5E5E;stroke-width:1.5625;"/><line style="stroke:#5E5E5E;stroke-width:1.5625;" x1="1156.25" x2="1156.25" y1="380.7861" y2="387.0361"/><line style="stroke:#5E5E5E;stroke-width:1.5625;" x1="1162.5" x2="1156.25" y1="387.0361" y2="387.0361"/><text fill="#D8BC00" font-family="Open Sans,Avenir,Nunito,Arial,Helvetica,SansSerif" font-size="12.5" lengthAdjust="spacing" textLength="125" x="1018.75" y="404.3294">swagger_annotations</text><!--MD5=[ce55b294004802c137560c2930be5b75]
entity junit--><rect fill="#1B1B1A" height="44.93" rx="8.3333" ry="8.3333" style="stroke:#5E5E5E;stroke-width:1.5625;" width="63.5417" x="1201.5625" y="268.2861"/><polygon fill="#1B1B1A" points="1247.3958,273.4945,1247.3958,288.0778,1259.8958,288.0778,1259.8958,279.7445,1253.6458,273.4945,1247.3958,273.4945" style="stroke:#5E5E5E;stroke-width:1.5625;"/><line style="stroke:#5E5E5E;stroke-width:1.5625;" x1="1253.6458" x2="1253.6458" y1="273.4945" y2="279.7445"/><line style="stroke:#5E5E5E;stroke-width:1.5625;" x1="1259.8958" x2="1253.6458" y1="279.7445" y2="279.7445"/><text fill="#D8BC00" font-family="Open Sans,Avenir,Nunito,Arial,Helvetica,SansSerif" font-size="12.5" lengthAdjust="spacing" textLength="26.0417" x="1215.1042" y="297.0378">junit</text><!--MD5=[7f157d37bc1fd6ac970bb67ffdbc66a3]
entity hamcrest_core--><rect fill="#1B1B1A" height="44.93" rx="8.3333" ry="8.3333" style="stroke:#5E5E5E;stroke-width:1.5625;" width="125" x="1346.875" y="375.5778"/><polygon fill="#1B1B1A" points="1454.1667,380.7861,1454.1667,395.3695,1466.6667,395.3695,1466.6667,387.0361,1460.4167,380.7861,1454.1667,380.7861" style="stroke:#5E5E5E;stroke-width:1.5625;"/><line style="stroke:#5E5E5E;stroke-width:1.5625;" x1="1460.4167" x2="1460.4167" y1="380.7861" y2="387.0361"/><line style="stroke:#5E5E5E;stroke-width:1.5625;" x1="1466.6667" x2="1460.4167" y1="387.0361" y2="387.0361"/><text fill="#D8BC00" font-family="Open Sans,Avenir,Nunito,Arial,Helvetica,SansSerif" font-size="12.5" lengthAdjust="spacing" textLength="87.5" x="1360.4167" y="404.3294">hamcrest_core</text><!--MD5=[b728e17b4e4da6aa8cb97e9b2766c5e6]
entity annotations--><rect fill="#1B1B1A" height="44.93" rx="8.3333" ry="8.3333" style="stroke:#5E5E5E;stroke-width:1.5625;" width="106.25" x="1204.1667" y="375.5778"/><polygon fill="#1B1B1A" points="1292.7083,380.7861,1292.7083,395.3695,1305.2083,395.3695,1305.2083,387.0361,1298.9583,380.7861,1292.7083,380.7861" style="stroke:#5E5E5E;stroke-width:1.5625;"/><line style="stroke:#5E5E5E;stroke-width:1.5625;" x1="1298.9583" x2="1298.9583" y1="380.7861" y2="387.0361"/><line style="stroke:#5E5E5E;stroke-width:1.5625;" x1="1305.2083" x2="1298.9583" y1="387.0361" y2="387.0361"/><text fill="#D8BC00" font-family="Open Sans,Avenir,Nunito,Arial,Helvetica,SansSerif" font-size="12.5" lengthAdjust="spacing" textLength="68.75" x="1217.7083" y="404.3294">annotations</text><!--MD5=[b3c862d1486667ad9c7edef6529b2202]
entity objenesis--><rect fill="#1B1B1A" height="44.93" rx="8.3333" ry="8.3333" style="stroke:#5E5E5E;stroke-width:1.5625;" width="94.7917" x="257.8125" y="590.1611"/><polygon fill="#1B1B1A" points="334.8958,595.3695,334.8958,609.9528,347.3958,609.9528,347.3958,601.6195,341.1458,595.3695,334.8958,595.3695" style="stroke:#5E5E5E;stroke-width:1.5625;"/><line style="stroke:#5E5E5E;stroke-width:1.5625;" x1="341.1458" x2="341.1458" y1="595.3695" y2="601.6195"/><line style="stroke:#5E5E5E;stroke-width:1.5625;" x1="347.3958" x2="341.1458" y1="601.6195" y2="601.6195"/><text fill="#D8BC00" font-family="Open Sans,Avenir,Nunito,Arial,Helvetica,SansSerif" font-size="12.5" lengthAdjust="spacing" textLength="57.2917" x="271.3542" y="618.9128">objenesis</text><!--MD5=[92e2ad58d19962135e7ff93f22958550]
entity asm--><rect fill="#1B1B1A" height="44.93" rx="8.3333" ry="8.3333" style="stroke:#5E5E5E;stroke-width:1.5625;" width="62.5" x="139.5833" y="697.4528"/><polygon fill="#1B1B1A" points="184.375,702.6611,184.375,717.2445,196.875,717.2445,196.875,708.9111,190.625,702.6611,184.375,702.6611" style="stroke:#5E5E5E;stroke-width:1.5625;"/><line style="stroke:#5E5E5E;stroke-width:1.5625;" x1="190.625" x2="190.625" y1="702.6611" y2="708.9111"/><line style="stroke:#5E5E5E;stroke-width:1.5625;" x1="196.875" x2="190.625" y1="708.9111" y2="708.9111"/><text fill="#D8BC00" font-family="Open Sans,Avenir,Nunito,Arial,Helvetica,SansSerif" font-size="12.5" lengthAdjust="spacing" textLength="25" x="153.125" y="726.2044">asm</text><!--MD5=[d68e7c4b3ca5f037bcb6997a0b4ed16b]
link junit to hamcrest_core--><path d="M1265.2083,310.7757 C1294.3021,328.1611 1337.4271,353.932 1368.9271,372.7549 " fill="none" id="junit-to-hamcrest_core" style="stroke:#545454;stroke-width:1.5625;"/><polygon fill="#545454" points="1373.4896,375.484,1367.5615,367.1109,1369.013,372.8219,1363.302,374.2734,1373.4896,375.484" style="stroke:#545454;stroke-width:1.5625;"/><!--MD5=[dac09380e252b6a73b9cbaef097b7dbb]
link kivakit_collections to kivakit_serialization_kryo--><path d="M237.5,313.5257 C237.5,329.9945 237.5,352.6924 237.5,370.2445 " fill="none" id="kivakit_collections-to-kivakit_serialization_kryo" style="stroke:#545454;stroke-width:1.5625;"/><polygon fill="#545454" points="237.5,375.5257,241.6667,366.1507,237.5,370.3174,233.3333,366.1507,237.5,375.5257" style="stroke:#545454;stroke-width:1.5625;"/><!--MD5=[3b28c85aebf84fa8aaa5822a1e458ff1]
link kivakit_configuration to kivakit_resource--><path d="M804.3958,98.557 C756.6458,116.1611 689.125,141.0465 640.0938,159.1195 " fill="none" id="kivakit_configuration-to-kivakit_resource" style="stroke:#545454;stroke-width:1.5625;"/><polygon fill="#545454" points="635.1042,160.9632,645.3419,161.6277,639.9906,159.1606,642.4577,153.8093,635.1042,160.9632" style="stroke:#545454;stroke-width:1.5625;"/><!--MD5=[6772e573a6368f3fb74915fe1e8d5213]
link kivakit_configuration to kivakit_serialization_json--><path d="M862.5,98.9424 C862.5,115.4111 862.5,138.109 862.5,155.6611 " fill="none" id="kivakit_configuration-to-kivakit_serialization_json" style="stroke:#545454;stroke-width:1.5625;"/><polygon fill="#545454" points="862.5,160.9424,866.6667,151.5674,862.5,155.734,858.3333,151.5674,862.5,160.9424" style="stroke:#545454;stroke-width:1.5625;"/><!--MD5=[6c7dd16531a5b18c0b5c5b637c25c44c]
link kivakit_configuration to kivakit_test--><path d="M924.8438,98.557 C979.3958,117.2965 1058.0104,144.307 1111.125,162.5465 " fill="none" id="kivakit_configuration-to-kivakit_test" style="stroke:#545454;stroke-width:1.5625;"/><polygon fill="#545454" points="1116.1771,164.2861,1108.6699,157.2937,1111.2526,162.5901,1105.9562,165.1728,1116.1771,164.2861" style="stroke:#545454;stroke-width:1.5625;"/><!--MD5=[a2f7c49e80f0067c62cb523636c9f00e]
link kivakit_kernel to annotations--><path d="M990.1979,311.0153 C1049.5417,330.109 1139.8021,359.1403 1198.6667,378.0778 " fill="none" id="kivakit_kernel-to-annotations" style="stroke:#545454;stroke-width:1.5625;"/><polygon fill="#545454" points="1203.9063,379.7653,1196.274,372.9096,1198.952,378.1585,1193.7031,380.8365,1203.9063,379.7653" style="stroke:#545454;stroke-width:1.5625;"/><!--MD5=[4bb5cdf1dd69a57413676b3f513d3923]
link kivakit_kernel to cactus_build_metadata--><path d="M881.0104,313.1403 C840.8333,330.6299 784.1042,355.3278 742.6458,373.3799 " fill="none" id="kivakit_kernel-to-cactus_build_metadata" style="stroke:#545454;stroke-width:1.5625;"/><polygon fill="#545454" points="737.6667,375.5465,747.9256,375.6179,742.4407,373.4644,744.5942,367.9795,737.6667,375.5465" style="stroke:#545454;stroke-width:1.5625;"/><!--MD5=[ce1de3a0fcf0456409f45c00bcbf6819]
link kivakit_kernel to jackson_annotations--><path d="M870.1354,308.4215 C864.0417,310.0257 857.9479,311.609 852.0833,313.0778 C799.4792,326.2757 660.7604,357.6507 569.8333,378.057 " fill="none" id="kivakit_kernel-to-jackson_annotations" style="stroke:#545454;stroke-width:1.5625;"/><polygon fill="#545454" points="564.7292,379.2028,574.7861,381.2303,569.8128,378.0698,572.9733,373.0965,564.7292,379.2028" style="stroke:#545454;stroke-width:1.5625;"/><!--MD5=[049e1cbc60d7a94f708d5cd284874347]
link kivakit_kernel to lexakai_annotations--><path d="M922.0104,313.5257 C915.8125,329.9945 907.2708,352.6924 900.6667,370.2445 " fill="none" id="kivakit_kernel-to-lexakai_annotations" style="stroke:#545454;stroke-width:1.5625;"/><polygon fill="#545454" points="898.6771,375.5257,905.8776,368.2179,900.5108,370.6508,898.0778,365.284,898.6771,375.5257" style="stroke:#545454;stroke-width:1.5625;"/><!--MD5=[ceaa58f2fdab01bf1e0ddaf38b77f8a7]
link kivakit_kernel to swagger_annotations--><path d="M962.2083,313.2653 C987.6979,330.432 1023.3854,354.4632 1049.9792,372.3695 " fill="none" id="kivakit_kernel-to-swagger_annotations" style="stroke:#545454;stroke-width:1.5625;"/><polygon fill="#545454" points="1054.5,375.4215,1049.0452,366.7326,1050.1779,372.5153,1044.3952,373.648,1054.5,375.4215" style="stroke:#545454;stroke-width:1.5625;"/><!--MD5=[1f920e5641e1a651a42d763be0b203c8]
link kivakit_resource to kivakit_collections--><path d="M509.5833,205.3486 C452.5104,223.0257 370.8438,248.3278 311.8854,266.5882 " fill="none" id="kivakit_resource-to-kivakit_collections" style="stroke:#545454;stroke-width:1.5625;"/><polygon fill="#545454" points="306.6146,268.2236,316.8034,269.4234,311.5887,266.6794,314.3327,261.4647,306.6146,268.2236" style="stroke:#545454;stroke-width:1.5625;"/><!--MD5=[593b722ec987ee2a5ff2f96e98ef63b5]
link kivakit_resource to kivakit_commandline--><path d="M546.3646,205.9736 C521.8958,223.1403 487.625,247.1715 462.0938,265.0778 " fill="none" id="kivakit_resource-to-kivakit_commandline" style="stroke:#545454;stroke-width:1.5625;"/><polygon fill="#545454" points="457.7604,268.1299,467.8297,266.1648,462.0266,265.1421,463.0492,259.339,457.7604,268.1299" style="stroke:#545454;stroke-width:1.5625;"/><!--MD5=[5b04580b86b31fc18c828f7ddaf27421]
link kivakit_resource to kivakit_serialization_core--><path d="M589.8125,206.234 C599.5208,222.8486 612.9271,245.7861 623.2188,263.4111 " fill="none" id="kivakit_resource-to-kivakit_serialization_core" style="stroke:#545454;stroke-width:1.5625;"/><polygon fill="#545454" points="626.0313,268.234,624.9107,258.0362,623.4088,263.7341,617.7109,262.2322,626.0313,268.234" style="stroke:#545454;stroke-width:1.5625;"/><!--MD5=[d2bf964ad93828bbd6db58c445a24c18]
link kivakit_serialization_json to gson--><path d="M849.7708,206.234 C840.0625,222.8486 826.6563,245.7861 816.3646,263.4111 " fill="none" id="kivakit_serialization_json-to-gson" style="stroke:#545454;stroke-width:1.5625;"/><polygon fill="#545454" points="813.5521,268.234,821.8725,262.2322,816.1746,263.7341,814.6726,258.0362,813.5521,268.234" style="stroke:#545454;stroke-width:1.5625;"/><!--MD5=[d6be358be99364ddd503ac711c3c257d]
link kivakit_serialization_json to kivakit_kernel--><path d="M876.5313,206.234 C887.2188,222.8486 901.9896,245.7861 913.3229,263.4111 " fill="none" id="kivakit_serialization_json-to-kivakit_kernel" style="stroke:#545454;stroke-width:1.5625;"/><polygon fill="#545454" points="916.4271,268.234,914.8537,258.0962,913.6069,263.8553,907.8478,262.6085,916.4271,268.234" style="stroke:#545454;stroke-width:1.5625;"/><!--MD5=[40faeed4b9f18330bf0f83fa88774571]
link kivakit_serialization_kryo to kryo--><path d="M223.6875,420.8174 C213.1563,437.432 198.6146,460.3695 187.4583,477.9945 " fill="none" id="kivakit_serialization_kryo-to-kryo" style="stroke:#545454;stroke-width:1.5625;"/><polygon fill="#545454" points="184.3958,482.8174,192.9393,477.1376,187.1882,478.4209,185.9049,472.6698,184.3958,482.8174" style="stroke:#545454;stroke-width:1.5625;"/><!--MD5=[03df8de183ef6689edc51eb2e13fe23e]
link kivakit_serialization_kryo to kryo_serializers--><path d="M251.5313,420.8174 C262.2188,437.432 276.9896,460.3695 288.3229,477.9945 " fill="none" id="kivakit_serialization_kryo-to-kryo_serializers" style="stroke:#545454;stroke-width:1.5625;"/><polygon fill="#545454" points="291.4271,482.8174,289.8537,472.6795,288.6069,478.4387,282.8478,477.1918,291.4271,482.8174" style="stroke:#545454;stroke-width:1.5625;"/><!--MD5=[c8bc8a078b8e6451f81861bceeae487c]
link kivakit_test to junit--><path d="M1182.1354,206.234 C1192.3333,222.8486 1206.4167,245.7861 1217.2292,263.4111 " fill="none" id="kivakit_test-to-junit" style="stroke:#545454;stroke-width:1.5625;"/><polygon fill="#545454" points="1220.1875,268.234,1218.8474,258.0627,1217.4686,263.7917,1211.7396,262.413,1220.1875,268.234" style="stroke:#545454;stroke-width:1.5625;"/><!--MD5=[8c32f0e7b0abeba01afd276f5a66ee84]
link kryo to minlog--><path d="M145.2396,527.8486 C125.0104,544.8695 96.7604,568.6507 75.5417,586.5153 " fill="none" id="kryo-to-minlog" style="stroke:#545454;stroke-width:1.5625;"/><polygon fill="#545454" points="71.3958,590.0049,81.2498,587.1498,75.3786,586.6486,75.8798,580.7774,71.3958,590.0049" style="stroke:#545454;stroke-width:1.5625;"/><!--MD5=[e75c16e47fcf6c43b15d3c25536a9ed0]
link kryo to objenesis--><path d="M198.3542,527.8486 C220.1771,544.9424 250.7188,568.8486 273.5521,586.734 " fill="none" id="kryo-to-objenesis" style="stroke:#545454;stroke-width:1.5625;"/><polygon fill="#545454" points="277.7292,590.0049,272.9143,580.9457,273.6276,586.7949,267.7784,587.5083,277.7292,590.0049" style="stroke:#545454;stroke-width:1.5625;"/><!--MD5=[e061beb27669383d030ce0c5c656b006]
link kryo to reflectasm--><path d="M170.8333,528.109 C170.8333,544.5778 170.8333,567.2757 170.8333,584.8278 " fill="none" id="kryo-to-reflectasm" style="stroke:#545454;stroke-width:1.5625;"/><polygon fill="#545454" points="170.8333,590.109,175,580.734,170.8333,584.9007,166.6667,580.734,170.8333,590.109" style="stroke:#545454;stroke-width:1.5625;"/><!--MD5=[338783537f3f9263e4097f5ff0c514d3]
link reflectasm to asm--><path d="M170.8333,635.4007 C170.8333,651.8695 170.8333,674.5674 170.8333,692.1195 " fill="none" id="reflectasm-to-asm" style="stroke:#545454;stroke-width:1.5625;"/><polygon fill="#545454" points="170.8333,697.4007,175,688.0257,170.8333,692.1924,166.6667,688.0257,170.8333,697.4007" style="stroke:#545454;stroke-width:1.5625;"/><!--MD5=[97b82002dc3d92315f2ea9720ea6d2a9]
@startuml

    !include lexakai.theme
    
    title "kivakit-configuration"
    
    artifact kryo
    artifact minlog
    artifact reflectasm
    artifact jackson_annotations
    artifact gson
    artifact cactus_build_metadata
    artifact kivakit_collections
    artifact kivakit_commandline
    artifact kivakit_configuration
    artifact kivakit_kernel
    artifact kivakit_resource
    artifact kivakit_serialization_core
    artifact kivakit_serialization_json
    artifact kivakit_serialization_kryo
    artifact kivakit_test
    artifact lexakai_annotations
    artifact kryo_serializers
    artifact swagger_annotations
    artifact junit
    artifact hamcrest_core
    artifact annotations
    artifact objenesis
    artifact asm
    junit - -> hamcrest_core
    kivakit_collections - -> kivakit_serialization_kryo
    kivakit_configuration - -> kivakit_resource
    kivakit_configuration - -> kivakit_serialization_json
    kivakit_configuration - -> kivakit_test
    kivakit_kernel - -> annotations
    kivakit_kernel - -> cactus_build_metadata
    kivakit_kernel - -> jackson_annotations
    kivakit_kernel - -> lexakai_annotations
    kivakit_kernel - -> swagger_annotations
    kivakit_resource - -> kivakit_collections
    kivakit_resource - -> kivakit_commandline
    kivakit_resource - -> kivakit_serialization_core
    kivakit_serialization_json - -> gson
    kivakit_serialization_json - -> kivakit_kernel
    kivakit_serialization_kryo - -> kryo
    kivakit_serialization_kryo - -> kryo_serializers
    kivakit_test - -> junit
    kryo - -> minlog
    kryo - -> objenesis
    kryo - -> reflectasm
    reflectasm - -> asm
    
@enduml

@startuml









skinparam backgroundColor #333333






skinparam  {
    defaultFontName   "Open Sans,Avenir,Nunito,Arial,Helvetica,SansSerif"
    defaultFontSize   12
    defaultTextAlignment left
    shadowing false
    RoundCorner 10
    TitleFontSize 18
}

skinparam defaultFontName       "Open Sans,Avenir,Nunito,Arial,Helvetica,SansSerif"
skinparam defaultFontSize       12
skinparam dpi                   100
skinparam shadowing             false
skinparam roundcorner           16
skinparam ParticipantPadding    40
skinparam BoxPadding            40
skinparam Padding               3
skinparam ArrowColor            #545454
skinparam stereotype {
    CBackgroundColor #0066cf
    CBorderColor #0086ef
    ABackgroundColor #C8Ac00
    ABorderColor #D8Bc00
    IBackgroundColor #008400
    IBorderColor #239c23
    EBackgroundColor #cf6300
    EBorderColor #ef8300
    NBackgroundColor #3380b9
    NBorderColor #004d86
}
skinparam title {
	FontColor	                 #c0c0c0
 	BorderColor                  #545454
	FontSize	    	         20
	BorderRoundCorner            16
	BorderThickness 	         1
	BackgroundColor              #48494b
}


skinparam legend {
	BackgroundColor #303030
	BorderColor #404040
	FontColor #a0a0a0
}

	skinparam swimlane {
	BorderColor #5e5e5e
	BorderThickness 2
	TitleBackgroundColor  #6d6d6d-#484848
	TitleFontColor #303030
}

skinparam activity {
		FontColor #C8Ac00
	BorderColor #333333
	BackgroundColor #333333-#333333
	BarColor #00FF00
	StartColor #0060a8
	EndColor #0060a8
	DiamondBackgroundColor #6d6d6d-#3a3a3a
  	DiamondBorderColor #3a3a3a
  	DiamondFontColor #fefefe
}


skinparam participant {
		FontColor #C8Ac00
	BorderColor #333333
	BackgroundColor #333333-#333333
	ParticipantBorderThickness 2
}


skinparam actor {
		FontColor #C8Ac00
	BorderColor #333333
	BackgroundColor #333333-#333333
}


skinparam arrow {
	Thickness 1.5
	Color #545454
	FontColor #a0a0a0
    FontStyle bold
    MessageAlignment center
}



skinparam sequence {
	BorderColor #303030
	TitleFontColor #303030
	BackgroundColor #333333
	StartColor #303030
	EndColor #303030
	BoxBackgroundColor #333333
	BoxBorderColor #484848
	BoxFontColor #484848
	LifeLineBorderColor #484848
	LifeLineBorderThickness 2
	LifeLineBackgroundColor #3a3a3a
	GroupBorderColor #484848
	GroupFontColor #484848
	GroupHeaderFontColor #0060a8
	GroupBackgroundColor #484848
	GroupHeaderBackgroundColor #333333
	DividerBackgroundColor #484848
    DividerBorderColor #484848
    DividerBorderThickness 2
    DividerFontColor #D8Bc00
	ReferenceBackgroundColor #333333
	ReferenceBorderColor #484848
	ReferenceFontColor #fefefe
	ReferenceHeaderBackgroundColor #484848
}


skinparam partition {
	BorderColor #303030
	FontColor #333333
	BackgroundColor #333333
}


skinparam collections {
		FontColor #C8Ac00
	BorderColor #333333
	BackgroundColor #333333-#333333
}


skinparam control {
		FontColor #C8Ac00
	BorderColor #333333
	BackgroundColor #333333-#333333
}


skinparam entity {
		FontColor #C8Ac00
	BorderColor #333333
	BackgroundColor #333333-#333333
}


skinparam boundary {
		FontColor #C8Ac00
	BorderColor #333333
	BackgroundColor #333333-#333333
}


skinparam agent {
	BackgroundColor #ff8000
	BorderColor #ff9933
	FontColor #484848
}


skinparam note {
	BorderThickness 1
	BackgroundColor #1b1b1a
	BorderColor #5e5e5e
	FontSize 11
	FontColor #a0a0a0
}


skinparam artifact {
	BorderThickness 10
	BorderColor #5e5e5e
	BackgroundColor #1b1b1a
	FontColor #D8Bc00
}


skinparam component {
		FontColor #C8Ac00
	BorderColor #333333
	BackgroundColor #333333-#333333
}


skinparam interface {
	BackgroundColor  #008400
	BorderColor  #007F00
	FontColor #484848
}


skinparam storage {
	BackgroundColor #ff8000
  	BorderColor #cc6600
	FontColor #222222
}


skinparam node {
	BackgroundColor #333333
	BorderColor #333333
	FontColor #C8Ac00
}


skinparam cloud {
	BackgroundColor #484848-black
	BorderColor #484848
	FontColor #D8Bc00
}


skinparam database {
		FontColor #C8Ac00
	BorderColor #333333
	BackgroundColor #333333-#333333
	BackgroundColor  #333333
}


skinparam class {
		FontColor #C8Ac00
	BorderColor #333333
	BackgroundColor #333333-#333333
	HeaderBackgroundColor #1b1b1a
    BackgroundColor #282828
    BorderColor #5e5e5e
 	StereotypeFontColor #a0a0a0
    StereotypeFontStyle bold
	BorderThickness 1
	AttributeFontColor #D8Bc00
	AttributeFontSize 11
    FontColor #D8Bc00
    FontStyle bold
}


skinparam object {
		FontColor #C8Ac00
	BorderColor #333333
	BackgroundColor #333333-#333333
	StereotypeFontColor #484848
	BorderThickness 1
	AttributeFontColor #fefefe
	AttributeFontSize 11
}


skinparam usecase {
		FontColor #C8Ac00
	BorderColor #333333
	BackgroundColor #333333-#333333
	BorderThickness 2
	StereotypeFontColor #303030
}


skinparam rectangle {
		FontColor #C8Ac00
	BorderColor #333333
	BackgroundColor #333333-#333333
	BackgroundColor #333333
	BorderThickness 2
	StereotypeFontColor #303030
}


skinparam package {
		FontColor #C8Ac00
	BorderColor #333333
	BackgroundColor #333333-#333333
	BackgroundColor #333333
	BorderThickness 2
}


skinparam folder {
	BackgroundColor #6d6d6d
  	BorderColor #ff8000
	FontColor #ff8000
	BorderThickness 2
}


skinparam frame {
	BackgroundColor #6d6d6d
  	BorderColor #0060a8
	FontColor #0060a8
	BorderThickness 2
}


skinparam state {
		FontColor #C8Ac00
	BorderColor #333333
	BackgroundColor #333333-#333333
	StartColor #0060a8
	EndColor #0060a8
	AttributeFontColor #fefefe
	AttributeFontSize 11
}


skinparam queue {
		FontColor #C8Ac00
	BorderColor #333333
	BackgroundColor #333333-#333333
}


skinparam card {
	BackgroundColor #0060a8
	BorderColor #004d86
	FontColor $INFO_TEXT
}


skinparam file {
	BackgroundColor #6d6d6d-#484848
	BorderColor #0060a8
	FontColor #fefefe
}


skinparam stack {
		FontColor #C8Ac00
	BorderColor #333333
	BackgroundColor #333333-#333333
}

    
    title "kivakit-configuration"
    
    artifact kryo
    artifact minlog
    artifact reflectasm
    artifact jackson_annotations
    artifact gson
    artifact cactus_build_metadata
    artifact kivakit_collections
    artifact kivakit_commandline
    artifact kivakit_configuration
    artifact kivakit_kernel
    artifact kivakit_resource
    artifact kivakit_serialization_core
    artifact kivakit_serialization_json
    artifact kivakit_serialization_kryo
    artifact kivakit_test
    artifact lexakai_annotations
    artifact kryo_serializers
    artifact swagger_annotations
    artifact junit
    artifact hamcrest_core
    artifact annotations
    artifact objenesis
    artifact asm
    junit - -> hamcrest_core
    kivakit_collections - -> kivakit_serialization_kryo
    kivakit_configuration - -> kivakit_resource
    kivakit_configuration - -> kivakit_serialization_json
    kivakit_configuration - -> kivakit_test
    kivakit_kernel - -> annotations
    kivakit_kernel - -> cactus_build_metadata
    kivakit_kernel - -> jackson_annotations
    kivakit_kernel - -> lexakai_annotations
    kivakit_kernel - -> swagger_annotations
    kivakit_resource - -> kivakit_collections
    kivakit_resource - -> kivakit_commandline
    kivakit_resource - -> kivakit_serialization_core
    kivakit_serialization_json - -> gson
    kivakit_serialization_json - -> kivakit_kernel
    kivakit_serialization_kryo - -> kryo
    kivakit_serialization_kryo - -> kryo_serializers
    kivakit_test - -> junit
    kryo - -> minlog
    kryo - -> objenesis
    kryo - -> reflectasm
    reflectasm - -> asm
    
@enduml

PlantUML version 1.2021.01(Tue Feb 02 00:55:08 MST 2021)
(GPL source distribution)
Java Runtime: OpenJDK Runtime Environment
JVM: OpenJDK 64-Bit Server VM
Default Encoding: UTF-8
Language: en
Country: US
--></g></svg>