<?xml version="1.0" encoding="UTF-8" standalone="no"?><svg xmlns="http://www.w3.org/2000/svg" xmlns:xlink="http://www.w3.org/1999/xlink" contentScriptType="application/ecmascript" contentStyleType="text/css" height="380.2083px" preserveAspectRatio="none" style="width:659px;height:380px;background:#333333;" version="1.1" viewBox="0 0 659 380" width="659.375px" zoomAndPan="magnify"><defs/><g><rect fill="#48494B" height="41.2028" rx="8.3333" ry="8.3333" style="stroke:#545454;stroke-width:1.0416666666666667;" width="373.9583" x="135.4167" y="2.0833"/><text fill="#C0C0C0" font-family="Open Sans,Avenir,Nunito,Arial,Helvetica,SansSerif" font-size="20.8333" lengthAdjust="spacing" textLength="351.0417" x="146.875" y="30.5583">com.telenav.kivakit.build.metadata</text><!--MD5=[dada5173eb0da61fc6488f0a07577a1f]
class BuildName--><rect codeLine="6" fill="#282828" height="48.055" id="BuildName" rx="8.3333" ry="8.3333" style="stroke:#5E5E5E;stroke-width:1.0416666666666667;" width="107.2917" x="19.2708" y="103.182"/><rect fill="#1B1B1A" height="31.3883" rx="8.3333" ry="8.3333" style="stroke:#1B1B1A;stroke-width:1.0416666666666667;" width="107.2917" x="19.2708" y="103.182"/><rect fill="#1B1B1A" height="8.3333" style="stroke:#1B1B1A;stroke-width:1.0416666666666667;" width="107.2917" x="19.2708" y="126.237"/><rect codeLine="6" fill="none" height="48.055" id="BuildName" rx="8.3333" ry="8.3333" style="stroke:#5E5E5E;stroke-width:1.0416666666666667;" width="107.2917" x="19.2708" y="103.182"/><ellipse cx="33.8542" cy="118.8761" fill="#0066CF" rx="10.4167" ry="10.4167" style="stroke:#0086EF;stroke-width:1.0416666666666667;"/><path d="M35.7646,123.3012 Q35.3373,123.5209 34.8674,123.6308 Q34.3974,123.7406 33.8786,123.7406 Q32.0353,123.7406 31.0649,122.526 Q30.0944,121.3114 30.0944,119.0165 Q30.0944,116.7155 31.0649,115.5009 Q32.0353,114.2863 33.8786,114.2863 Q34.3974,114.2863 34.8735,114.3962 Q35.3495,114.506 35.7646,114.7257 L35.7646,116.7277 Q35.3007,116.3005 34.8643,116.1021 Q34.4279,115.9037 33.964,115.9037 Q32.9753,115.9037 32.4717,116.688 Q31.9682,117.4723 31.9682,119.0165 Q31.9682,120.5546 32.4717,121.3389 Q32.9753,122.1232 33.964,122.1232 Q34.4279,122.1232 34.8643,121.9248 Q35.3007,121.7265 35.7646,121.2992 Z " fill="#000000"/><text fill="#D8BC00" font-family="Open Sans,Avenir,Nunito,Arial,Helvetica,SansSerif" font-size="12.5" font-weight="bold" lengthAdjust="spacing" textLength="69.7917" x="50.5208" y="123.6003">BuildName</text><line style="stroke:#5E5E5E;stroke-width:1.0416666666666667;" x1="20.3125" x2="125.5208" y1="134.5703" y2="134.5703"/><line style="stroke:#5E5E5E;stroke-width:1.0416666666666667;" x1="20.3125" x2="125.5208" y1="142.9036" y2="142.9036"/><!--MD5=[7d2c4ae7970c32f414f93e7b18676929]
class Metadata--><rect codeLine="11" fill="#282828" height="146.7794" id="Metadata" rx="8.3333" ry="8.3333" style="stroke:#5E5E5E;stroke-width:1.0416666666666667;" width="252.0833" x="400" y="53.7028"/><rect fill="#1B1B1A" height="31.3883" rx="8.3333" ry="8.3333" style="stroke:#1B1B1A;stroke-width:1.0416666666666667;" width="252.0833" x="400" y="53.7028"/><rect fill="#1B1B1A" height="8.3333" style="stroke:#1B1B1A;stroke-width:1.0416666666666667;" width="252.0833" x="400" y="76.7578"/><rect codeLine="11" fill="none" height="146.7794" id="Metadata" rx="8.3333" ry="8.3333" style="stroke:#5E5E5E;stroke-width:1.0416666666666667;" width="252.0833" x="400" y="53.7028"/><ellipse cx="489.0625" cy="69.397" fill="#0066CF" rx="10.4167" ry="10.4167" style="stroke:#0086EF;stroke-width:1.0416666666666667;"/><path d="M490.9729,73.822 Q490.5457,74.0417 490.0757,74.1516 Q489.6057,74.2615 489.0869,74.2615 Q487.2437,74.2615 486.2732,73.0469 Q485.3027,71.8323 485.3027,69.5374 Q485.3027,67.2363 486.2732,66.0217 Q487.2437,64.8071 489.0869,64.8071 Q489.6057,64.8071 490.0818,64.917 Q490.5579,65.0269 490.9729,65.2466 L490.9729,67.2485 Q490.509,66.8213 490.0726,66.6229 Q489.6362,66.4246 489.1724,66.4246 Q488.1836,66.4246 487.6801,67.2089 Q487.1765,67.9932 487.1765,69.5374 Q487.1765,71.0754 487.6801,71.8597 Q488.1836,72.644 489.1724,72.644 Q489.6362,72.644 490.0726,72.4457 Q490.509,72.2473 490.9729,71.8201 Z " fill="#000000"/><text fill="#D8BC00" font-family="Open Sans,Avenir,Nunito,Arial,Helvetica,SansSerif" font-size="12.5" font-weight="bold" lengthAdjust="spacing" textLength="59.375" x="511.9792" y="74.1211">Metadata</text><line style="stroke:#5E5E5E;stroke-width:1.5625;" x1="401.0417" x2="651.0417" y1="85.0911" y2="85.0911"/><ellipse cx="411.4583" cy="120.461" fill="#84BE84" rx="3.125" ry="3.125" style="stroke:#038048;stroke-width:1.0416666666666667;"/><text fill="#D8BC00" font-family="Open Sans,Avenir,Nunito,Arial,Helvetica,SansSerif" font-size="11.4583" lengthAdjust="spacing" textLength="208.3333" x="422.9167" y="127.3722">Map&lt;String,String&gt; buildProperties()</text><ellipse cx="411.4583" cy="140.2059" fill="#84BE84" rx="3.125" ry="3.125" style="stroke:#038048;stroke-width:1.0416666666666667;"/><text fill="#D8BC00" font-family="Open Sans,Avenir,Nunito,Arial,Helvetica,SansSerif" font-size="11.4583" lengthAdjust="spacing" textLength="219.7917" x="422.9167" y="147.1171">Map&lt;String,String&gt; projectProperties()</text><line style="stroke:#5E5E5E;stroke-width:1.0416666666666667;" x1="401.0417" x2="491.6667" y1="103.2969" y2="103.2969"/><text fill="#D8BC00" font-family="Open Sans,Avenir,Nunito,Arial,Helvetica,SansSerif" font-size="11.4583" lengthAdjust="spacing" textLength="62.5" x="494.7917" y="107.1065">(collection)</text><line style="stroke:#5E5E5E;stroke-width:1.0416666666666667;" x1="560.4167" x2="651.0417" y1="103.2969" y2="103.2969"/><ellipse cx="411.4583" cy="183.8623" fill="#84BE84" rx="3.125" ry="3.125" style="stroke:#038048;stroke-width:1.0416666666666667;"/><text fill="#D8BC00" font-family="Open Sans,Avenir,Nunito,Arial,Helvetica,SansSerif" font-size="11.4583" lengthAdjust="spacing" textLength="196.875" x="422.9167" y="190.7735">Metadata of(Class&lt;?&gt; projectType)</text><line style="stroke:#5E5E5E;stroke-width:1.0416666666666667;" x1="401.0417" x2="493.2292" y1="166.6982" y2="166.6982"/><text fill="#D8BC00" font-family="Open Sans,Avenir,Nunito,Arial,Helvetica,SansSerif" font-size="11.4583" lengthAdjust="spacing" textLength="59.375" x="496.3542" y="170.5078">(metadata)</text><line style="stroke:#5E5E5E;stroke-width:1.0416666666666667;" x1="558.8542" x2="651.0417" y1="166.6982" y2="166.6982"/><!--MD5=[4dfc6a72b8dd60daa1b635d583ff79da]
class Map--><rect fill="#282828" height="48.055" id="Map" rx="8.3333" ry="8.3333" style="stroke:#5E5E5E;stroke-width:1.0416666666666667;" width="64.5833" x="493.75" y="305.7861"/><rect fill="#1B1B1A" height="31.3883" rx="8.3333" ry="8.3333" style="stroke:#1B1B1A;stroke-width:1.0416666666666667;" width="64.5833" x="493.75" y="305.7861"/><rect fill="#1B1B1A" height="8.3333" style="stroke:#1B1B1A;stroke-width:1.0416666666666667;" width="64.5833" x="493.75" y="328.8411"/><rect fill="none" height="48.055" id="Map" rx="8.3333" ry="8.3333" style="stroke:#5E5E5E;stroke-width:1.0416666666666667;" width="64.5833" x="493.75" y="305.7861"/><ellipse cx="508.3333" cy="321.4803" fill="#0066CF" rx="10.4167" ry="10.4167" style="stroke:#0086EF;stroke-width:1.0416666666666667;"/><path d="M510.2437,325.9054 Q509.8165,326.1251 509.3465,326.2349 Q508.8765,326.3448 508.3577,326.3448 Q506.5145,326.3448 505.544,325.1302 Q504.5736,323.9156 504.5736,321.6207 Q504.5736,319.3197 505.544,318.1051 Q506.5145,316.8905 508.3577,316.8905 Q508.8765,316.8905 509.3526,317.0003 Q509.8287,317.1102 510.2437,317.3299 L510.2437,319.3319 Q509.7799,318.9046 509.3435,318.7063 Q508.9071,318.5079 508.4432,318.5079 Q507.4544,318.5079 506.9509,319.2922 Q506.4473,320.0765 506.4473,321.6207 Q506.4473,323.1588 506.9509,323.9431 Q507.4544,324.7274 508.4432,324.7274 Q508.9071,324.7274 509.3435,324.529 Q509.7799,324.3306 510.2437,323.9034 Z " fill="#000000"/><text fill="#D8BC00" font-family="Open Sans,Avenir,Nunito,Arial,Helvetica,SansSerif" font-size="12.5" font-weight="bold" lengthAdjust="spacing" textLength="27.0833" x="525" y="326.2044">Map</text><line style="stroke:#5E5E5E;stroke-width:1.0416666666666667;" x1="494.7917" x2="557.2917" y1="337.1745" y2="337.1745"/><line style="stroke:#5E5E5E;stroke-width:1.0416666666666667;" x1="494.7917" x2="557.2917" y1="345.5078" y2="345.5078"/><!--MD5=[7562284c2bc696aad2f197d1b912f621]
class MetadataUpdater--><rect codeLine="20" fill="#282828" height="67.7999" id="MetadataUpdater" rx="8.3333" ry="8.3333" style="stroke:#5E5E5E;stroke-width:1.0416666666666667;" width="200" x="163.5417" y="93.2861"/><rect fill="#1B1B1A" height="31.3883" rx="8.3333" ry="8.3333" style="stroke:#1B1B1A;stroke-width:1.0416666666666667;" width="200" x="163.5417" y="93.2861"/><rect fill="#1B1B1A" height="8.3333" style="stroke:#1B1B1A;stroke-width:1.0416666666666667;" width="200" x="163.5417" y="116.3411"/><rect codeLine="20" fill="none" height="67.7999" id="MetadataUpdater" rx="8.3333" ry="8.3333" style="stroke:#5E5E5E;stroke-width:1.0416666666666667;" width="200" x="163.5417" y="93.2861"/><ellipse cx="201.5625" cy="108.9803" fill="#0066CF" rx="10.4167" ry="10.4167" style="stroke:#0086EF;stroke-width:1.0416666666666667;"/><path d="M203.4729,113.4054 Q203.0457,113.6251 202.5757,113.7349 Q202.1057,113.8448 201.5869,113.8448 Q199.7437,113.8448 198.7732,112.6302 Q197.8027,111.4156 197.8027,109.1207 Q197.8027,106.8197 198.7732,105.6051 Q199.7437,104.3905 201.5869,104.3905 Q202.1057,104.3905 202.5818,104.5003 Q203.0579,104.6102 203.4729,104.8299 L203.4729,106.8319 Q203.009,106.4046 202.5726,106.2063 Q202.1362,106.0079 201.6724,106.0079 Q200.6836,106.0079 200.1801,106.7922 Q199.6765,107.5765 199.6765,109.1207 Q199.6765,110.6588 200.1801,111.4431 Q200.6836,112.2274 201.6724,112.2274 Q202.1362,112.2274 202.5726,112.029 Q203.009,111.8306 203.4729,111.4034 Z " fill="#000000"/><text fill="#D8BC00" font-family="Open Sans,Avenir,Nunito,Arial,Helvetica,SansSerif" font-size="12.5" font-weight="bold" lengthAdjust="spacing" textLength="110.4167" x="223.4375" y="113.7044">MetadataUpdater</text><line style="stroke:#5E5E5E;stroke-width:1.5625;" x1="164.5833" x2="362.5" y1="124.6745" y2="124.6745"/><line style="stroke:#5E5E5E;stroke-width:1.0416666666666667;" x1="164.5833" x2="362.5" y1="133.0078" y2="133.0078"/><ellipse cx="175" cy="144.4661" fill="#84BE84" rx="3.125" ry="3.125" style="stroke:#038048;stroke-width:1.0416666666666667;"/><text fill="#D8BC00" font-family="Open Sans,Avenir,Nunito,Arial,Helvetica,SansSerif" font-size="11.4583" lengthAdjust="spacing" textLength="167.7083" x="186.4583" y="151.3774">void main(String[] arguments)</text><!--MD5=[546e18824fbea9bcc811eb6a3f7fae1c]
class Metadata.Type--><rect codeLine="26" fill="#282828" height="87.5448" id="Metadata.Type" rx="8.3333" ry="8.3333" style="stroke:#5E5E5E;stroke-width:1.0416666666666667;" width="131.25" x="7.2917" y="285.9945"/><rect fill="#1B1B1A" height="31.3883" rx="8.3333" ry="8.3333" style="stroke:#1B1B1A;stroke-width:1.0416666666666667;" width="131.25" x="7.2917" y="285.9945"/><rect fill="#1B1B1A" height="8.3333" style="stroke:#1B1B1A;stroke-width:1.0416666666666667;" width="131.25" x="7.2917" y="309.0495"/><rect codeLine="26" fill="none" height="87.5448" id="Metadata.Type" rx="8.3333" ry="8.3333" style="stroke:#5E5E5E;stroke-width:1.0416666666666667;" width="131.25" x="7.2917" y="285.9945"/><ellipse cx="21.875" cy="301.6886" fill="#CF6300" rx="10.4167" ry="10.4167" style="stroke:#EF8300;stroke-width:1.0416666666666667;"/><path d="M24.9308,306.3761 L19.2546,306.3761 L19.2546,297.2636 L24.9308,297.2636 L24.9308,298.8505 L21.0551,298.8505 L21.0551,300.8158 L24.5646,300.8158 L24.5646,302.4028 L21.0551,302.4028 L21.0551,304.7892 L24.9308,304.7892 Z " fill="#000000"/><text fill="#D8BC00" font-family="Open Sans,Avenir,Nunito,Arial,Helvetica,SansSerif" font-size="12.5" font-weight="bold" lengthAdjust="spacing" textLength="93.75" x="38.5417" y="306.4128">Metadata.Type</text><line style="stroke:#5E5E5E;stroke-width:1.0416666666666667;" x1="8.3333" x2="137.5" y1="317.3828" y2="317.3828"/><text fill="#D8BC00" font-family="Open Sans,Avenir,Nunito,Arial,Helvetica,SansSerif" font-size="11.4583" lengthAdjust="spacing" textLength="53.125" x="16.6667" y="335.7524">CURRENT</text><text fill="#D8BC00" font-family="Open Sans,Avenir,Nunito,Arial,Helvetica,SansSerif" font-size="11.4583" lengthAdjust="spacing" textLength="47.9167" x="16.6667" y="355.4972">PROJECT</text><line style="stroke:#5E5E5E;stroke-width:1.0416666666666667;" x1="8.3333" x2="137.5" y1="365.2059" y2="365.2059"/><!--MD5=[b2ddf82c207f9031b47f295daefc1ca1]
link Metadata to Map--><path codeLine="10" d="M526.0417,200.859 C526.0417,235.3903 526.0417,274.6507 526.0417,300.4528 " fill="none" id="Metadata-to-Map" style="stroke:#545454;stroke-width:1.5625;"/><polygon fill="#545454" points="526.0417,305.7445,530.2083,296.3695,526.0417,300.5361,521.875,296.3695,526.0417,305.7445" style="stroke:#545454;stroke-width:1.5625;"/><text fill="#A0A0A0" font-family="Open Sans,Avenir,Nunito,Arial,Helvetica,SansSerif" font-size="12.5" font-weight="bold" lengthAdjust="spacing" textLength="45.8333" x="530.2083" y="248.0794">creates</text><!--MD5=[2b7c53d40e57ce0c27969f7c30198038]
link BuildName to MetadataUpdater--><!--MD5=[8bab7b0b4ec2d294cff016883ec64614]
link BuildName to Metadata.Type--><!--MD5=[fbddc14893f3e7392d08af4dcd6d38ee]
@startuml

    !include ../lexakai/lexakai.theme
    
    title "com.telenav.kivakit.build.metadata"
    
    class BuildName
    {
    }
    
    Metadata - -> Map : "creates"
    class Metadata
    {
        - -(collection)- -
        +Map<String,String> buildProperties()
        +Map<String,String> projectProperties()
        - -(metadata)- -
        +Metadata of(Class<?> projectType)
    }
    
    class MetadataUpdater
    {
        - -
        +void main(String[] arguments)
    }
    
    enum Metadata.Type
    {
        CURRENT
        PROJECT
    }
    
@enduml

@startuml









skinparam backgroundColor #333333






skinparam  {
    defaultFontName   "Open Sans,Avenir,Nunito,Arial,Helvetica,SansSerif"
    defaultFontSize   12
    defaultTextAlignment left
    shadowing false
    RoundCorner 10
    TitleFontSize 18
}

skinparam defaultFontName       "Open Sans,Avenir,Nunito,Arial,Helvetica,SansSerif"
skinparam defaultFontSize       12
skinparam dpi                   100
skinparam shadowing             false
skinparam roundcorner           16
skinparam ParticipantPadding    40
skinparam BoxPadding            40
skinparam Padding               3
skinparam ArrowColor            #545454
skinparam stereotype {
    CBackgroundColor #0066cf
    CBorderColor #0086ef
    ABackgroundColor #C8Ac00
    ABorderColor #D8Bc00
    IBackgroundColor #008400
    IBorderColor #239c23
    EBackgroundColor #cf6300
    EBorderColor #ef8300
    NBackgroundColor #3380b9
    NBorderColor #004d86
}
skinparam title {
	FontColor	                 #c0c0c0
 	BorderColor                  #545454
	FontSize	    	         20
	BorderRoundCorner            16
	BorderThickness 	         1
	BackgroundColor              #48494b
}


skinparam legend {
	BackgroundColor #303030
	BorderColor #404040
	FontColor #a0a0a0
}

	skinparam swimlane {
	BorderColor #5e5e5e
	BorderThickness 2
	TitleBackgroundColor  #6d6d6d-#484848
	TitleFontColor #303030
}

skinparam activity {
		FontColor #C8Ac00
	BorderColor #333333
	BackgroundColor #333333-#333333
	BarColor #00FF00
	StartColor #0060a8
	EndColor #0060a8
	DiamondBackgroundColor #6d6d6d-#3a3a3a
  	DiamondBorderColor #3a3a3a
  	DiamondFontColor #fefefe
}


skinparam participant {
		FontColor #C8Ac00
	BorderColor #333333
	BackgroundColor #333333-#333333
	ParticipantBorderThickness 2
}


skinparam actor {
		FontColor #C8Ac00
	BorderColor #333333
	BackgroundColor #333333-#333333
}


skinparam arrow {
	Thickness 1.5
	Color #545454
	FontColor #a0a0a0
    FontStyle bold
    MessageAlignment center
}



skinparam sequence {
	BorderColor #303030
	TitleFontColor #303030
	BackgroundColor #333333
	StartColor #303030
	EndColor #303030
	BoxBackgroundColor #333333
	BoxBorderColor #484848
	BoxFontColor #484848
	LifeLineBorderColor #484848
	LifeLineBorderThickness 2
	LifeLineBackgroundColor #3a3a3a
	GroupBorderColor #484848
	GroupFontColor #484848
	GroupHeaderFontColor #0060a8
	GroupBackgroundColor #484848
	GroupHeaderBackgroundColor #333333
	DividerBackgroundColor #484848
    DividerBorderColor #484848
    DividerBorderThickness 2
    DividerFontColor #D8Bc00
	ReferenceBackgroundColor #333333
	ReferenceBorderColor #484848
	ReferenceFontColor #fefefe
	ReferenceHeaderBackgroundColor #484848
}


skinparam partition {
	BorderColor #303030
	FontColor #333333
	BackgroundColor #333333
}


skinparam collections {
		FontColor #C8Ac00
	BorderColor #333333
	BackgroundColor #333333-#333333
}


skinparam control {
		FontColor #C8Ac00
	BorderColor #333333
	BackgroundColor #333333-#333333
}


skinparam entity {
		FontColor #C8Ac00
	BorderColor #333333
	BackgroundColor #333333-#333333
}


skinparam boundary {
		FontColor #C8Ac00
	BorderColor #333333
	BackgroundColor #333333-#333333
}


skinparam agent {
	BackgroundColor #ff8000
	BorderColor #ff9933
	FontColor #484848
}


skinparam note {
	BorderThickness 1
	BackgroundColor #1b1b1a
	BorderColor #5e5e5e
	FontSize 11
	FontColor #a0a0a0
}


skinparam artifact {
	BorderThickness 10
	BorderColor #5e5e5e
	BackgroundColor #1b1b1a
	FontColor #D8Bc00
}


skinparam component {
		FontColor #C8Ac00
	BorderColor #333333
	BackgroundColor #333333-#333333
}


skinparam interface {
	BackgroundColor  #008400
	BorderColor  #007F00
	FontColor #484848
}


skinparam storage {
	BackgroundColor #ff8000
  	BorderColor #cc6600
	FontColor #222222
}


skinparam node {
	BackgroundColor #333333
	BorderColor #333333
	FontColor #C8Ac00
}


skinparam cloud {
	BackgroundColor #484848-black
	BorderColor #484848
	FontColor #D8Bc00
}


skinparam database {
		FontColor #C8Ac00
	BorderColor #333333
	BackgroundColor #333333-#333333
	BackgroundColor  #333333
}


skinparam class {
		FontColor #C8Ac00
	BorderColor #333333
	BackgroundColor #333333-#333333
	HeaderBackgroundColor #1b1b1a
    BackgroundColor #282828
    BorderColor #5e5e5e
 	StereotypeFontColor #a0a0a0
    StereotypeFontStyle bold
	BorderThickness 1
	AttributeFontColor #D8Bc00
	AttributeFontSize 11
    FontColor #D8Bc00
    FontStyle bold
}


skinparam object {
		FontColor #C8Ac00
	BorderColor #333333
	BackgroundColor #333333-#333333
	StereotypeFontColor #484848
	BorderThickness 1
	AttributeFontColor #fefefe
	AttributeFontSize 11
}


skinparam usecase {
		FontColor #C8Ac00
	BorderColor #333333
	BackgroundColor #333333-#333333
	BorderThickness 2
	StereotypeFontColor #303030
}


skinparam rectangle {
		FontColor #C8Ac00
	BorderColor #333333
	BackgroundColor #333333-#333333
	BackgroundColor #333333
	BorderThickness 2
	StereotypeFontColor #303030
}


skinparam package {
		FontColor #C8Ac00
	BorderColor #333333
	BackgroundColor #333333-#333333
	BackgroundColor #333333
	BorderThickness 2
}


skinparam folder {
	BackgroundColor #6d6d6d
  	BorderColor #ff8000
	FontColor #ff8000
	BorderThickness 2
}


skinparam frame {
	BackgroundColor #6d6d6d
  	BorderColor #0060a8
	FontColor #0060a8
	BorderThickness 2
}


skinparam state {
		FontColor #C8Ac00
	BorderColor #333333
	BackgroundColor #333333-#333333
	StartColor #0060a8
	EndColor #0060a8
	AttributeFontColor #fefefe
	AttributeFontSize 11
}


skinparam queue {
		FontColor #C8Ac00
	BorderColor #333333
	BackgroundColor #333333-#333333
}


skinparam card {
	BackgroundColor #0060a8
	BorderColor #004d86
	FontColor $INFO_TEXT
}


skinparam file {
	BackgroundColor #6d6d6d-#484848
	BorderColor #0060a8
	FontColor #fefefe
}


skinparam stack {
		FontColor #C8Ac00
	BorderColor #333333
	BackgroundColor #333333-#333333
}

    
    title "com.telenav.kivakit.build.metadata"
    
    class BuildName
    {
    }
    
    Metadata - -> Map : "creates"
    class Metadata
    {
        - -(collection)- -
        +Map<String,String> buildProperties()
        +Map<String,String> projectProperties()
        - -(metadata)- -
        +Metadata of(Class<?> projectType)
    }
    
    class MetadataUpdater
    {
        - -
        +void main(String[] arguments)
    }
    
    enum Metadata.Type
    {
        CURRENT
        PROJECT
    }
    
@enduml

PlantUML version 1.2021.01(Tue Feb 02 00:55:08 MST 2021)
(GPL source distribution)
Java Runtime: Java(TM) SE Runtime Environment
JVM: Java HotSpot(TM) 64-Bit Server VM
Default Encoding: UTF-8
Language: en
Country: US
--></g></svg>