<?xml version="1.0" encoding="UTF-8" standalone="no"?><svg xmlns="http://www.w3.org/2000/svg" xmlns:xlink="http://www.w3.org/1999/xlink" contentScriptType="application/ecmascript" contentStyleType="text/css" height="254.1667px" preserveAspectRatio="none" style="width:514px;height:254px;background:#333333;" version="1.1" viewBox="0 0 514 254" width="514.5833px" zoomAndPan="magnify"><defs/><g><rect fill="#48494B" height="41.2028" rx="8.3333" ry="8.3333" style="stroke:#545454;stroke-width:1.0416666666666667;" width="401.0417" x="49.7396" y="2.0833"/><text fill="#C0C0C0" font-family="Open Sans,Avenir,Nunito,Arial,Helvetica,SansSerif" font-size="20.8333" lengthAdjust="spacing" textLength="378.125" x="61.1979" y="30.5583">com.telenav.kivakit.examples.lambda</text><rect fill="#282828" height="48.055" id="MicroserviceLambdaService" rx="8.3333" ry="8.3333" style="stroke:#5E5E5E;stroke-width:1.0416666666666667;" width="213.5417" x="32.2917" y="53.7028"/><rect fill="#1B1B1A" height="31.3883" rx="8.3333" ry="8.3333" style="stroke:#1B1B1A;stroke-width:1.0416666666666667;" width="213.5417" x="32.2917" y="53.7028"/><rect fill="#1B1B1A" height="8.3333" style="stroke:#1B1B1A;stroke-width:1.0416666666666667;" width="213.5417" x="32.2917" y="76.7578"/><rect fill="none" height="48.055" id="MicroserviceLambdaService" rx="8.3333" ry="8.3333" style="stroke:#5E5E5E;stroke-width:1.0416666666666667;" width="213.5417" x="32.2917" y="53.7028"/><ellipse cx="46.875" cy="69.397" fill="#0066CF" rx="10.4167" ry="10.4167" style="stroke:#0086EF;stroke-width:1.0416666666666667;"/><path d="M48.7854,73.822 Q48.3582,74.0417 47.8882,74.1516 Q47.4182,74.2615 46.8994,74.2615 Q45.0562,74.2615 44.0857,73.0469 Q43.1152,71.8323 43.1152,69.5374 Q43.1152,67.2363 44.0857,66.0217 Q45.0562,64.8071 46.8994,64.8071 Q47.4182,64.8071 47.8943,64.917 Q48.3704,65.0269 48.7854,65.2466 L48.7854,67.2485 Q48.3215,66.8213 47.8851,66.6229 Q47.4487,66.4246 46.9849,66.4246 Q45.9961,66.4246 45.4926,67.2089 Q44.989,67.9932 44.989,69.5374 Q44.989,71.0754 45.4926,71.8597 Q45.9961,72.644 46.9849,72.644 Q47.4487,72.644 47.8851,72.4457 Q48.3215,72.2473 48.7854,71.8201 Z " fill="#000000"/><text fill="#D8BC00" font-family="Open Sans,Avenir,Nunito,Arial,Helvetica,SansSerif" font-size="12.5" font-weight="bold" lengthAdjust="spacing" textLength="176.0417" x="63.5417" y="74.1211">MicroserviceLambdaService</text><line style="stroke:#5E5E5E;stroke-width:1.0416666666666667;" x1="33.3333" x2="244.7917" y1="85.0911" y2="85.0911"/><line style="stroke:#5E5E5E;stroke-width:1.0416666666666667;" x1="33.3333" x2="244.7917" y1="93.4245" y2="93.4245"/><rect codeLine="8" fill="#282828" height="83.3781" id="DivisionLambdaService" rx="8.3333" ry="8.3333" style="stroke:#5E5E5E;stroke-width:1.0416666666666667;" width="263.5417" x="7.2917" y="164.1195"/><rect fill="#1B1B1A" height="31.3883" rx="8.3333" ry="8.3333" style="stroke:#1B1B1A;stroke-width:1.0416666666666667;" width="263.5417" x="7.2917" y="164.1195"/><rect fill="#1B1B1A" height="8.3333" style="stroke:#1B1B1A;stroke-width:1.0416666666666667;" width="263.5417" x="7.2917" y="187.1745"/><rect codeLine="8" fill="none" height="83.3781" id="DivisionLambdaService" rx="8.3333" ry="8.3333" style="stroke:#5E5E5E;stroke-width:1.0416666666666667;" width="263.5417" x="7.2917" y="164.1195"/><ellipse cx="56.7708" cy="179.8136" fill="#0066CF" rx="10.4167" ry="10.4167" style="stroke:#0086EF;stroke-width:1.0416666666666667;"/><path d="M58.6812,184.2387 Q58.254,184.4584 57.784,184.5683 Q57.314,184.6781 56.7952,184.6781 Q54.952,184.6781 53.9815,183.4635 Q53.0111,182.2489 53.0111,179.954 Q53.0111,177.653 53.9815,176.4384 Q54.952,175.2238 56.7952,175.2238 Q57.314,175.2238 57.7901,175.3337 Q58.2662,175.4435 58.6812,175.6632 L58.6812,177.6652 Q58.2174,177.238 57.781,177.0396 Q57.3446,176.8412 56.8807,176.8412 Q55.8919,176.8412 55.3884,177.6255 Q54.8848,178.4098 54.8848,179.954 Q54.8848,181.4921 55.3884,182.2764 Q55.8919,183.0607 56.8807,183.0607 Q57.3446,183.0607 57.781,182.8623 Q58.2174,182.664 58.6812,182.2367 Z " fill="#000000"/><text fill="#D8BC00" font-family="Open Sans,Avenir,Nunito,Arial,Helvetica,SansSerif" font-size="12.5" font-weight="bold" lengthAdjust="spacing" textLength="150" x="79.6875" y="184.5378">DivisionLambdaService</text><line style="stroke:#5E5E5E;stroke-width:1.5625;" x1="8.3333" x2="269.7917" y1="195.5078" y2="195.5078"/><ellipse cx="18.75" cy="230.8777" fill="#84BE84" rx="3.125" ry="3.125" style="stroke:#038048;stroke-width:1.0416666666666667;"/><text fill="#D8BC00" font-family="Open Sans,Avenir,Nunito,Arial,Helvetica,SansSerif" font-size="11.4583" lengthAdjust="spacing" textLength="231.25" x="30.2083" y="237.7889">DivisionLambdaService(Microservice&lt;?&gt;)</text><line style="stroke:#5E5E5E;stroke-width:1.0416666666666667;" x1="8.3333" x2="95.3125" y1="213.7136" y2="213.7136"/><text fill="#D8BC00" font-family="Open Sans,Avenir,Nunito,Arial,Helvetica,SansSerif" font-size="11.4583" lengthAdjust="spacing" textLength="81.25" x="98.4375" y="217.5232">(constructors)</text><line style="stroke:#5E5E5E;stroke-width:1.0416666666666667;" x1="182.8125" x2="269.7917" y1="213.7136" y2="213.7136"/><rect fill="#282828" height="48.055" id="Microservice" rx="8.3333" ry="8.3333" style="stroke:#5E5E5E;stroke-width:1.0416666666666667;" width="117.7083" x="348.9583" y="53.7028"/><rect fill="#1B1B1A" height="31.3883" rx="8.3333" ry="8.3333" style="stroke:#1B1B1A;stroke-width:1.0416666666666667;" width="117.7083" x="348.9583" y="53.7028"/><rect fill="#1B1B1A" height="8.3333" style="stroke:#1B1B1A;stroke-width:1.0416666666666667;" width="117.7083" x="348.9583" y="76.7578"/><rect fill="none" height="48.055" id="Microservice" rx="8.3333" ry="8.3333" style="stroke:#5E5E5E;stroke-width:1.0416666666666667;" width="117.7083" x="348.9583" y="53.7028"/><ellipse cx="363.5417" cy="69.397" fill="#0066CF" rx="10.4167" ry="10.4167" style="stroke:#0086EF;stroke-width:1.0416666666666667;"/><path d="M365.4521,73.822 Q365.0248,74.0417 364.5549,74.1516 Q364.0849,74.2615 363.5661,74.2615 Q361.7228,74.2615 360.7524,73.0469 Q359.7819,71.8323 359.7819,69.5374 Q359.7819,67.2363 360.7524,66.0217 Q361.7228,64.8071 363.5661,64.8071 Q364.0849,64.8071 364.561,64.917 Q365.037,65.0269 365.4521,65.2466 L365.4521,67.2485 Q364.9882,66.8213 364.5518,66.6229 Q364.1154,66.4246 363.6515,66.4246 Q362.6628,66.4246 362.1592,67.2089 Q361.6557,67.9932 361.6557,69.5374 Q361.6557,71.0754 362.1592,71.8597 Q362.6628,72.644 363.6515,72.644 Q364.1154,72.644 364.5518,72.4457 Q364.9882,72.2473 365.4521,71.8201 Z " fill="#000000"/><text fill="#D8BC00" font-family="Open Sans,Avenir,Nunito,Arial,Helvetica,SansSerif" font-size="12.5" font-weight="bold" lengthAdjust="spacing" textLength="80.2083" x="380.2083" y="74.1211">Microservice</text><line style="stroke:#5E5E5E;stroke-width:1.0416666666666667;" x1="350" x2="465.625" y1="85.0911" y2="85.0911"/><line style="stroke:#5E5E5E;stroke-width:1.0416666666666667;" x1="350" x2="465.625" y1="93.4245" y2="93.4245"/><rect codeLine="15" fill="#282828" height="67.7999" id="DivisionMicroservice" rx="8.3333" ry="8.3333" style="stroke:#5E5E5E;stroke-width:1.0416666666666667;" width="200" x="307.8125" y="171.932"/><rect fill="#1B1B1A" height="31.3883" rx="8.3333" ry="8.3333" style="stroke:#1B1B1A;stroke-width:1.0416666666666667;" width="200" x="307.8125" y="171.932"/><rect fill="#1B1B1A" height="8.3333" style="stroke:#1B1B1A;stroke-width:1.0416666666666667;" width="200" x="307.8125" y="194.987"/><rect codeLine="15" fill="none" height="67.7999" id="DivisionMicroservice" rx="8.3333" ry="8.3333" style="stroke:#5E5E5E;stroke-width:1.0416666666666667;" width="200" x="307.8125" y="171.932"/><ellipse cx="335.0521" cy="187.6261" fill="#0066CF" rx="10.4167" ry="10.4167" style="stroke:#0086EF;stroke-width:1.0416666666666667;"/><path d="M336.9625,192.0512 Q336.5352,192.2709 336.0653,192.3808 Q335.5953,192.4906 335.0765,192.4906 Q333.2332,192.4906 332.2628,191.276 Q331.2923,190.0614 331.2923,187.7665 Q331.2923,185.4655 332.2628,184.2509 Q333.2332,183.0363 335.0765,183.0363 Q335.5953,183.0363 336.0714,183.1462 Q336.5474,183.256 336.9625,183.4757 L336.9625,185.4777 Q336.4986,185.0505 336.0622,184.8521 Q335.6258,184.6537 335.1619,184.6537 Q334.1732,184.6537 333.6696,185.438 Q333.1661,186.2223 333.1661,187.7665 Q333.1661,189.3046 333.6696,190.0889 Q334.1732,190.8732 335.1619,190.8732 Q335.6258,190.8732 336.0622,190.6748 Q336.4986,190.4765 336.9625,190.0492 Z " fill="#000000"/><text fill="#D8BC00" font-family="Open Sans,Avenir,Nunito,Arial,Helvetica,SansSerif" font-size="12.5" font-weight="bold" lengthAdjust="spacing" textLength="134.375" x="354.5313" y="192.3503">DivisionMicroservice</text><line style="stroke:#5E5E5E;stroke-width:1.5625;" x1="308.8542" x2="506.7708" y1="203.3203" y2="203.3203"/><line style="stroke:#5E5E5E;stroke-width:1.0416666666666667;" x1="308.8542" x2="506.7708" y1="211.6536" y2="211.6536"/><ellipse cx="319.2708" cy="223.112" fill="#84BE84" rx="3.125" ry="3.125" style="stroke:#038048;stroke-width:1.0416666666666667;"/><text fill="#D8BC00" font-family="Open Sans,Avenir,Nunito,Arial,Helvetica,SansSerif" font-size="11.4583" lengthAdjust="spacing" textLength="167.7083" x="330.7292" y="230.0232">void main(String[] arguments)</text><path codeLine="7" d="M139.0625,122.682 C139.0625,136.0778 139.0625,150.7445 139.0625,163.9215 " fill="none" id="MicroserviceLambdaService-backto-DivisionLambdaService" style="stroke:#545454;stroke-width:1.5625;"/><polygon fill="none" points="131.7708,122.6507,139.0625,101.8174,146.3542,122.6507,131.7708,122.6507" style="stroke:#545454;stroke-width:1.5625;"/><path codeLine="14" d="M407.8125,122.8695 C407.8125,138.9632 407.8125,156.859 407.8125,171.807 " fill="none" id="Microservice-backto-DivisionMicroservice" style="stroke:#545454;stroke-width:1.5625;"/><polygon fill="none" points="400.5208,122.6507,407.8125,101.8174,415.1042,122.6507,400.5208,122.6507" style="stroke:#545454;stroke-width:1.5625;"/></g></svg>
