<?xml version="1.0" encoding="UTF-8" standalone="no"?><svg xmlns="http://www.w3.org/2000/svg" xmlns:xlink="http://www.w3.org/1999/xlink" contentScriptType="application/ecmascript" contentStyleType="text/css" height="607.2917px" preserveAspectRatio="none" style="width:1520px;height:607px;background:#333333;" version="1.1" viewBox="0 0 1520 607" width="1520.8333px" zoomAndPan="magnify"><defs/><g><rect fill="#48494B" height="41.2028" rx="8.3333" ry="8.3333" style="stroke:#545454;stroke-width:1.0416666666666667;" width="293.75" x="606.25" y="2.0833"/><text fill="#C0C0C0" font-family="Open Sans,Avenir,Nunito,Arial,Helvetica,SansSerif" font-size="20.8333" lengthAdjust="spacing" textLength="270.8333" x="617.7083" y="30.5583">com.telenav.kivakit.core.os</text><rect codeLine="7" fill="#282828" height="48.055" id="Named" rx="8.3333" ry="8.3333" style="stroke:#5E5E5E;stroke-width:1.0416666666666667;" width="82.2917" x="896.3542" y="93.2861"/><rect fill="#1B1B1A" height="31.3883" rx="8.3333" ry="8.3333" style="stroke:#1B1B1A;stroke-width:1.0416666666666667;" width="82.2917" x="896.3542" y="93.2861"/><rect fill="#1B1B1A" height="8.3333" style="stroke:#1B1B1A;stroke-width:1.0416666666666667;" width="82.2917" x="896.3542" y="116.3411"/><rect codeLine="7" fill="none" height="48.055" id="Named" rx="8.3333" ry="8.3333" style="stroke:#5E5E5E;stroke-width:1.0416666666666667;" width="82.2917" x="896.3542" y="93.2861"/><ellipse cx="910.9375" cy="108.9803" fill="#008400" rx="10.4167" ry="10.4167" style="stroke:#239C23;stroke-width:1.0416666666666667;"/><path d="M908.3415,106.1422 L908.3415,104.5553 L913.7675,104.5553 L913.7675,106.1422 L911.9548,106.1422 L911.9548,112.0809 L913.7675,112.0809 L913.7675,113.6678 L908.3415,113.6678 L908.3415,112.0809 L910.1542,112.0809 L910.1542,106.1422 Z " fill="#000000"/><text fill="#D8BC00" font-family="Open Sans,Avenir,Nunito,Arial,Helvetica,SansSerif" font-size="12.5" font-style="italic" font-weight="bold" lengthAdjust="spacing" textLength="44.7917" x="927.6042" y="113.7044">Named</text><line style="stroke:#5E5E5E;stroke-width:1.0416666666666667;" x1="897.3958" x2="977.6042" y1="124.6745" y2="124.6745"/><line style="stroke:#5E5E5E;stroke-width:1.0416666666666667;" x1="897.3958" x2="977.6042" y1="133.0078" y2="133.0078"/><rect codeLine="8" fill="#282828" height="48.055" id="Listener" rx="8.3333" ry="8.3333" style="stroke:#5E5E5E;stroke-width:1.0416666666666667;" width="89.5833" x="1227.0833" y="93.2861"/><rect fill="#1B1B1A" height="31.3883" rx="8.3333" ry="8.3333" style="stroke:#1B1B1A;stroke-width:1.0416666666666667;" width="89.5833" x="1227.0833" y="93.2861"/><rect fill="#1B1B1A" height="8.3333" style="stroke:#1B1B1A;stroke-width:1.0416666666666667;" width="89.5833" x="1227.0833" y="116.3411"/><rect codeLine="8" fill="none" height="48.055" id="Listener" rx="8.3333" ry="8.3333" style="stroke:#5E5E5E;stroke-width:1.0416666666666667;" width="89.5833" x="1227.0833" y="93.2861"/><ellipse cx="1241.6667" cy="108.9803" fill="#008400" rx="10.4167" ry="10.4167" style="stroke:#239C23;stroke-width:1.0416666666666667;"/><path d="M1239.0706,106.1422 L1239.0706,104.5553 L1244.4967,104.5553 L1244.4967,106.1422 L1242.6839,106.1422 L1242.6839,112.0809 L1244.4967,112.0809 L1244.4967,113.6678 L1239.0706,113.6678 L1239.0706,112.0809 L1240.8834,112.0809 L1240.8834,106.1422 Z " fill="#000000"/><text fill="#D8BC00" font-family="Open Sans,Avenir,Nunito,Arial,Helvetica,SansSerif" font-size="12.5" font-style="italic" font-weight="bold" lengthAdjust="spacing" textLength="52.0833" x="1258.3333" y="113.7044">Listener</text><line style="stroke:#5E5E5E;stroke-width:1.0416666666666667;" x1="1228.125" x2="1315.625" y1="124.6745" y2="124.6745"/><line style="stroke:#5E5E5E;stroke-width:1.0416666666666667;" x1="1228.125" x2="1315.625" y1="133.0078" y2="133.0078"/><rect codeLine="9" fill="#282828" height="48.055" id="Flushable" rx="8.3333" ry="8.3333" style="stroke:#5E5E5E;stroke-width:1.0416666666666667;" width="100" x="1353.125" y="93.2861"/><rect fill="#1B1B1A" height="31.3883" rx="8.3333" ry="8.3333" style="stroke:#1B1B1A;stroke-width:1.0416666666666667;" width="100" x="1353.125" y="93.2861"/><rect fill="#1B1B1A" height="8.3333" style="stroke:#1B1B1A;stroke-width:1.0416666666666667;" width="100" x="1353.125" y="116.3411"/><rect codeLine="9" fill="none" height="48.055" id="Flushable" rx="8.3333" ry="8.3333" style="stroke:#5E5E5E;stroke-width:1.0416666666666667;" width="100" x="1353.125" y="93.2861"/><ellipse cx="1367.7083" cy="108.9803" fill="#008400" rx="10.4167" ry="10.4167" style="stroke:#239C23;stroke-width:1.0416666666666667;"/><path d="M1365.1123,106.1422 L1365.1123,104.5553 L1370.5383,104.5553 L1370.5383,106.1422 L1368.7256,106.1422 L1368.7256,112.0809 L1370.5383,112.0809 L1370.5383,113.6678 L1365.1123,113.6678 L1365.1123,112.0809 L1366.925,112.0809 L1366.925,106.1422 Z " fill="#000000"/><text fill="#D8BC00" font-family="Open Sans,Avenir,Nunito,Arial,Helvetica,SansSerif" font-size="12.5" font-style="italic" font-weight="bold" lengthAdjust="spacing" textLength="62.5" x="1384.375" y="113.7044">Flushable</text><line style="stroke:#5E5E5E;stroke-width:1.0416666666666667;" x1="1354.1667" x2="1452.0833" y1="124.6745" y2="124.6745"/><line style="stroke:#5E5E5E;stroke-width:1.0416666666666667;" x1="1354.1667" x2="1452.0833" y1="133.0078" y2="133.0078"/><rect codeLine="13" fill="#282828" height="234.0922" id="Console" rx="8.3333" ry="8.3333" style="stroke:#5E5E5E;stroke-width:1.0416666666666667;" width="352.0833" x="1161.4583" y="304.2236"/><rect fill="#1B1B1A" height="31.3883" rx="8.3333" ry="8.3333" style="stroke:#1B1B1A;stroke-width:1.0416666666666667;" width="352.0833" x="1161.4583" y="304.2236"/><rect fill="#1B1B1A" height="8.3333" style="stroke:#1B1B1A;stroke-width:1.0416666666666667;" width="352.0833" x="1161.4583" y="327.2786"/><rect codeLine="13" fill="none" height="234.0922" id="Console" rx="8.3333" ry="8.3333" style="stroke:#5E5E5E;stroke-width:1.0416666666666667;" width="352.0833" x="1161.4583" y="304.2236"/><ellipse cx="1303.6458" cy="319.9178" fill="#0066CF" rx="10.4167" ry="10.4167" style="stroke:#0086EF;stroke-width:1.0416666666666667;"/><path d="M1305.5562,324.3429 Q1305.129,324.5626 1304.659,324.6724 Q1304.189,324.7823 1303.6702,324.7823 Q1301.827,324.7823 1300.8565,323.5677 Q1299.8861,322.3531 1299.8861,320.0582 Q1299.8861,317.7572 1300.8565,316.5426 Q1301.827,315.328 1303.6702,315.328 Q1304.189,315.328 1304.6651,315.4378 Q1305.1412,315.5477 1305.5562,315.7674 L1305.5562,317.7694 Q1305.0924,317.3421 1304.656,317.1438 Q1304.2196,316.9454 1303.7557,316.9454 Q1302.7669,316.9454 1302.2634,317.7297 Q1301.7598,318.514 1301.7598,320.0582 Q1301.7598,321.5963 1302.2634,322.3806 Q1302.7669,323.1649 1303.7557,323.1649 Q1304.2196,323.1649 1304.656,322.9665 Q1305.0924,322.7681 1305.5562,322.3409 Z " fill="#000000"/><text fill="#D8BC00" font-family="Open Sans,Avenir,Nunito,Arial,Helvetica,SansSerif" font-size="12.5" font-weight="bold" lengthAdjust="spacing" textLength="53.125" x="1326.5625" y="324.6419">Console</text><line style="stroke:#5E5E5E;stroke-width:1.5625;" x1="1162.5" x2="1512.5" y1="335.612" y2="335.612"/><line style="stroke:#5E5E5E;stroke-width:1.0416666666666667;" x1="1162.5" x2="1512.5" y1="343.9453" y2="343.9453"/><ellipse cx="1172.9167" cy="355.4036" fill="#84BE84" rx="3.125" ry="3.125" style="stroke:#038048;stroke-width:1.0416666666666667;"/><text fill="#D8BC00" font-family="Open Sans,Avenir,Nunito,Arial,Helvetica,SansSerif" font-size="11.4583" lengthAdjust="spacing" textLength="101.0417" x="1184.375" y="362.3149">Console console()</text><ellipse cx="1172.9167" cy="375.1485" fill="#84BE84" rx="3.125" ry="3.125" style="stroke:#038048;stroke-width:1.0416666666666667;"/><text fill="#D8BC00" font-family="Open Sans,Avenir,Nunito,Arial,Helvetica,SansSerif" font-size="11.4583" lengthAdjust="spacing" textLength="309.375" x="1184.375" y="382.0597">void print(OutputType, String text, Object... arguments)</text><ellipse cx="1172.9167" cy="394.8934" fill="#84BE84" rx="3.125" ry="3.125" style="stroke:#038048;stroke-width:1.0416666666666667;"/><text fill="#D8BC00" font-family="Open Sans,Avenir,Nunito,Arial,Helvetica,SansSerif" font-size="11.4583" lengthAdjust="spacing" textLength="236.4583" x="1184.375" y="401.8046">void print(String text, Object... arguments)</text><ellipse cx="1172.9167" cy="414.6383" fill="#84BE84" rx="3.125" ry="3.125" style="stroke:#038048;stroke-width:1.0416666666666667;"/><text fill="#D8BC00" font-family="Open Sans,Avenir,Nunito,Arial,Helvetica,SansSerif" font-size="11.4583" lengthAdjust="spacing" textLength="319.7917" x="1184.375" y="421.5495">void println(OutputType, String text, Object... arguments)</text><ellipse cx="1172.9167" cy="434.3831" fill="#84BE84" rx="3.125" ry="3.125" style="stroke:#038048;stroke-width:1.0416666666666667;"/><text fill="#D8BC00" font-family="Open Sans,Avenir,Nunito,Arial,Helvetica,SansSerif" font-size="11.4583" lengthAdjust="spacing" textLength="246.875" x="1184.375" y="441.2944">void println(String text, Object... arguments)</text><ellipse cx="1172.9167" cy="478.0396" fill="#84BE84" rx="3.125" ry="3.125" style="stroke:#038048;stroke-width:1.0416666666666667;"/><text fill="#D8BC00" font-family="Open Sans,Avenir,Nunito,Arial,Helvetica,SansSerif" font-size="11.4583" lengthAdjust="spacing" textLength="76.0417" x="1184.375" y="484.9508">Count width()</text><line style="stroke:#5E5E5E;stroke-width:1.0416666666666667;" x1="1162.5" x2="1303.125" y1="460.8754" y2="460.8754"/><text fill="#D8BC00" font-family="Open Sans,Avenir,Nunito,Arial,Helvetica,SansSerif" font-size="11.4583" lengthAdjust="spacing" textLength="62.5" x="1306.25" y="464.6851">(collection)</text><line style="stroke:#5E5E5E;stroke-width:1.0416666666666667;" x1="1371.875" x2="1512.5" y1="460.8754" y2="460.8754"/><ellipse cx="1172.9167" cy="521.696" fill="#84BE84" rx="3.125" ry="3.125" style="stroke:#038048;stroke-width:1.0416666666666667;"/><text fill="#D8BC00" font-family="Open Sans,Avenir,Nunito,Arial,Helvetica,SansSerif" font-size="11.4583" lengthAdjust="spacing" textLength="131.25" x="1184.375" y="528.6072">PrintWriter printWriter()</text><line style="stroke:#5E5E5E;stroke-width:1.0416666666666667;" x1="1162.5" x2="1316.6667" y1="504.5319" y2="504.5319"/><text fill="#D8BC00" font-family="Open Sans,Avenir,Nunito,Arial,Helvetica,SansSerif" font-size="11.4583" lengthAdjust="spacing" textLength="35.4167" x="1319.7917" y="508.3415">(write)</text><line style="stroke:#5E5E5E;stroke-width:1.0416666666666667;" x1="1358.3333" x2="1512.5" y1="504.5319" y2="504.5319"/><rect codeLine="27" fill="#282828" height="87.5448" id="ConsoleTrait" rx="8.3333" ry="8.3333" style="stroke:#5E5E5E;stroke-width:1.0416666666666667;" width="279.1667" x="40.625" y="73.4945"/><rect fill="#1B1B1A" height="31.3883" rx="8.3333" ry="8.3333" style="stroke:#1B1B1A;stroke-width:1.0416666666666667;" width="279.1667" x="40.625" y="73.4945"/><rect fill="#1B1B1A" height="8.3333" style="stroke:#1B1B1A;stroke-width:1.0416666666666667;" width="279.1667" x="40.625" y="96.5495"/><rect codeLine="27" fill="none" height="87.5448" id="ConsoleTrait" rx="8.3333" ry="8.3333" style="stroke:#5E5E5E;stroke-width:1.0416666666666667;" width="279.1667" x="40.625" y="73.4945"/><ellipse cx="131.25" cy="89.1886" fill="#008400" rx="10.4167" ry="10.4167" style="stroke:#239C23;stroke-width:1.0416666666666667;"/><path d="M128.654,86.3505 L128.654,84.7636 L134.08,84.7636 L134.08,86.3505 L132.2673,86.3505 L132.2673,92.2892 L134.08,92.2892 L134.08,93.8761 L128.654,93.8761 L128.654,92.2892 L130.4667,92.2892 L130.4667,86.3505 Z " fill="#000000"/><text fill="#D8BC00" font-family="Open Sans,Avenir,Nunito,Arial,Helvetica,SansSerif" font-size="12.5" font-style="italic" font-weight="bold" lengthAdjust="spacing" textLength="83.3333" x="154.1667" y="93.9128">ConsoleTrait</text><line style="stroke:#5E5E5E;stroke-width:1.5625;" x1="41.6667" x2="318.75" y1="104.8828" y2="104.8828"/><line style="stroke:#5E5E5E;stroke-width:1.0416666666666667;" x1="41.6667" x2="318.75" y1="113.2161" y2="113.2161"/><ellipse cx="52.0833" cy="124.6745" fill="#84BE84" rx="3.125" ry="3.125" style="stroke:#038048;stroke-width:1.0416666666666667;"/><text fill="#D8BC00" font-family="Open Sans,Avenir,Nunito,Arial,Helvetica,SansSerif" font-size="11.4583" lengthAdjust="spacing" textLength="236.4583" x="63.5417" y="131.5857">void print(String text, Object... arguments)</text><ellipse cx="52.0833" cy="144.4194" fill="#84BE84" rx="3.125" ry="3.125" style="stroke:#038048;stroke-width:1.0416666666666667;"/><text fill="#D8BC00" font-family="Open Sans,Avenir,Nunito,Arial,Helvetica,SansSerif" font-size="11.4583" lengthAdjust="spacing" textLength="246.875" x="63.5417" y="151.3306">void println(String text, Object... arguments)</text><rect codeLine="35" fill="#282828" height="356.7281" id="OperatingSystem" rx="8.3333" ry="8.3333" style="stroke:#5E5E5E;stroke-width:1.0416666666666667;" width="375" x="750" y="243.2861"/><rect fill="#1B1B1A" height="31.3883" rx="8.3333" ry="8.3333" style="stroke:#1B1B1A;stroke-width:1.0416666666666667;" width="375" x="750" y="243.2861"/><rect fill="#1B1B1A" height="8.3333" style="stroke:#1B1B1A;stroke-width:1.0416666666666667;" width="375" x="750" y="266.3411"/><rect codeLine="35" fill="none" height="356.7281" id="OperatingSystem" rx="8.3333" ry="8.3333" style="stroke:#5E5E5E;stroke-width:1.0416666666666667;" width="375" x="750" y="243.2861"/><ellipse cx="874.4792" cy="258.9803" fill="#0066CF" rx="10.4167" ry="10.4167" style="stroke:#0086EF;stroke-width:1.0416666666666667;"/><path d="M876.3896,263.4054 Q875.9623,263.6251 875.4924,263.7349 Q875.0224,263.8448 874.5036,263.8448 Q872.6603,263.8448 871.6899,262.6302 Q870.7194,261.4156 870.7194,259.1207 Q870.7194,256.8197 871.6899,255.6051 Q872.6603,254.3905 874.5036,254.3905 Q875.0224,254.3905 875.4985,254.5003 Q875.9745,254.6102 876.3896,254.8299 L876.3896,256.8319 Q875.9257,256.4046 875.4893,256.2063 Q875.0529,256.0079 874.589,256.0079 Q873.6003,256.0079 873.0967,256.7922 Q872.5932,257.5765 872.5932,259.1207 Q872.5932,260.6588 873.0967,261.4431 Q873.6003,262.2274 874.589,262.2274 Q875.0529,262.2274 875.4893,262.029 Q875.9257,261.8306 876.3896,261.4034 Z " fill="#000000"/><text fill="#D8BC00" font-family="Open Sans,Avenir,Nunito,Arial,Helvetica,SansSerif" font-size="12.5" font-weight="bold" lengthAdjust="spacing" textLength="111.4583" x="897.3958" y="263.7044">OperatingSystem</text><line style="stroke:#5E5E5E;stroke-width:1.5625;" x1="751.0417" x2="1123.9583" y1="274.6745" y2="274.6745"/><line style="stroke:#5E5E5E;stroke-width:1.0416666666666667;" x1="751.0417" x2="1123.9583" y1="283.0078" y2="283.0078"/><ellipse cx="761.4583" cy="294.4661" fill="#84BE84" rx="3.125" ry="3.125" style="stroke:#038048;stroke-width:1.0416666666666667;"/><text fill="#D8BC00" font-family="Open Sans,Avenir,Nunito,Arial,Helvetica,SansSerif" font-size="11.4583" lengthAdjust="spacing" textLength="302.0833" x="772.9167" y="301.3774">String execute(Listener, File folder, String... command)</text><ellipse cx="761.4583" cy="314.211" fill="#84BE84" rx="3.125" ry="3.125" style="stroke:#038048;stroke-width:1.0416666666666667;"/><text fill="#D8BC00" font-family="Open Sans,Avenir,Nunito,Arial,Helvetica,SansSerif" font-size="11.4583" lengthAdjust="spacing" textLength="127.0833" x="772.9167" y="321.1222">String javaExecutable()</text><ellipse cx="761.4583" cy="333.9559" fill="#84BE84" rx="3.125" ry="3.125" style="stroke:#038048;stroke-width:1.0416666666666667;"/><text fill="#D8BC00" font-family="Open Sans,Avenir,Nunito,Arial,Helvetica,SansSerif" font-size="11.4583" lengthAdjust="spacing" textLength="98.9583" x="772.9167" y="340.8671">String javaHome()</text><ellipse cx="761.4583" cy="353.7008" fill="#84BE84" rx="3.125" ry="3.125" style="stroke:#038048;stroke-width:1.0416666666666667;"/><text fill="#D8BC00" font-family="Open Sans,Avenir,Nunito,Arial,Helvetica,SansSerif" font-size="11.4583" lengthAdjust="spacing" textLength="201.0417" x="772.9167" y="360.612">OperatingSystem operatingSystem()</text><ellipse cx="761.4583" cy="373.4456" fill="#84BE84" rx="3.125" ry="3.125" style="stroke:#038048;stroke-width:1.0416666666666667;"/><text fill="#D8BC00" font-family="Open Sans,Avenir,Nunito,Arial,Helvetica,SansSerif" font-size="11.4583" lengthAdjust="spacing" textLength="255.2083" x="772.9167" y="380.3569">OperatingSystemType operatingSystemType()</text><ellipse cx="761.4583" cy="393.1905" fill="#84BE84" rx="3.125" ry="3.125" style="stroke:#038048;stroke-width:1.0416666666666667;"/><text fill="#D8BC00" font-family="Open Sans,Avenir,Nunito,Arial,Helvetica,SansSerif" font-size="11.4583" lengthAdjust="spacing" textLength="264.5833" x="772.9167" y="400.1017">ProcessorArchitecture processorArchitecture()</text><ellipse cx="761.4583" cy="412.9354" fill="#84BE84" rx="3.125" ry="3.125" style="stroke:#038048;stroke-width:1.0416666666666667;"/><text fill="#D8BC00" font-family="Open Sans,Avenir,Nunito,Arial,Helvetica,SansSerif" font-size="11.4583" lengthAdjust="spacing" textLength="342.7083" x="772.9167" y="419.8466">String systemPropertyOrEnvironmentVariable(String variable)</text><ellipse cx="761.4583" cy="456.5918" fill="#84BE84" rx="3.125" ry="3.125" style="stroke:#038048;stroke-width:1.0416666666666667;"/><text fill="#D8BC00" font-family="Open Sans,Avenir,Nunito,Arial,Helvetica,SansSerif" font-size="11.4583" lengthAdjust="spacing" textLength="87.5" x="772.9167" y="463.503">boolean isMac()</text><ellipse cx="761.4583" cy="476.3367" fill="#84BE84" rx="3.125" ry="3.125" style="stroke:#038048;stroke-width:1.0416666666666667;"/><text fill="#D8BC00" font-family="Open Sans,Avenir,Nunito,Arial,Helvetica,SansSerif" font-size="11.4583" lengthAdjust="spacing" textLength="91.6667" x="772.9167" y="483.2479">boolean isUnix()</text><ellipse cx="761.4583" cy="496.0815" fill="#84BE84" rx="3.125" ry="3.125" style="stroke:#038048;stroke-width:1.0416666666666667;"/><text fill="#D8BC00" font-family="Open Sans,Avenir,Nunito,Arial,Helvetica,SansSerif" font-size="11.4583" lengthAdjust="spacing" textLength="114.5833" x="772.9167" y="502.9928">boolean isWindows()</text><line style="stroke:#5E5E5E;stroke-width:1.0416666666666667;" x1="751.0417" x2="910.9375" y1="439.4277" y2="439.4277"/><text fill="#D8BC00" font-family="Open Sans,Avenir,Nunito,Arial,Helvetica,SansSerif" font-size="11.4583" lengthAdjust="spacing" textLength="46.875" x="914.0625" y="443.2373">(checks)</text><line style="stroke:#5E5E5E;stroke-width:1.0416666666666667;" x1="964.0625" x2="1123.9583" y1="439.4277" y2="439.4277"/><ellipse cx="761.4583" cy="539.738" fill="#84BE84" rx="3.125" ry="3.125" style="stroke:#038048;stroke-width:1.0416666666666667;"/><text fill="#D8BC00" font-family="Open Sans,Avenir,Nunito,Arial,Helvetica,SansSerif" font-size="11.4583" lengthAdjust="spacing" textLength="253.125" x="772.9167" y="546.6492">VariableMap&lt;String&gt; environmentVariables()</text><line style="stroke:#5E5E5E;stroke-width:1.0416666666666667;" x1="751.0417" x2="903.125" y1="522.5739" y2="522.5739"/><text fill="#D8BC00" font-family="Open Sans,Avenir,Nunito,Arial,Helvetica,SansSerif" font-size="11.4583" lengthAdjust="spacing" textLength="62.5" x="906.25" y="526.3835">(collection)</text><line style="stroke:#5E5E5E;stroke-width:1.0416666666666667;" x1="971.875" x2="1123.9583" y1="522.5739" y2="522.5739"/><ellipse cx="761.4583" cy="583.3944" fill="#84BE84" rx="3.125" ry="3.125" style="stroke:#038048;stroke-width:1.0416666666666667;"/><text fill="#D8BC00" font-family="Open Sans,Avenir,Nunito,Arial,Helvetica,SansSerif" font-size="11.4583" lengthAdjust="spacing" textLength="120.8333" x="772.9167" y="590.3056">int processIdentifier()</text><line style="stroke:#5E5E5E;stroke-width:1.0416666666666667;" x1="751.0417" x2="909.375" y1="566.2303" y2="566.2303"/><text fill="#D8BC00" font-family="Open Sans,Avenir,Nunito,Arial,Helvetica,SansSerif" font-size="11.4583" lengthAdjust="spacing" textLength="50" x="912.5" y="570.0399">(identity)</text><line style="stroke:#5E5E5E;stroke-width:1.0416666666666667;" x1="965.625" x2="1123.9583" y1="566.2303" y2="566.2303"/><rect codeLine="55" fill="#282828" height="127.0345" id="OperatingSystem.OperatingSystemType" rx="8.3333" ry="8.3333" style="stroke:#5E5E5E;stroke-width:1.0416666666666667;" width="294.7917" x="356.7708" y="53.7028"/><rect fill="#1B1B1A" height="31.3883" rx="8.3333" ry="8.3333" style="stroke:#1B1B1A;stroke-width:1.0416666666666667;" width="294.7917" x="356.7708" y="53.7028"/><rect fill="#1B1B1A" height="8.3333" style="stroke:#1B1B1A;stroke-width:1.0416666666666667;" width="294.7917" x="356.7708" y="76.7578"/><rect codeLine="55" fill="none" height="127.0345" id="OperatingSystem.OperatingSystemType" rx="8.3333" ry="8.3333" style="stroke:#5E5E5E;stroke-width:1.0416666666666667;" width="294.7917" x="356.7708" y="53.7028"/><ellipse cx="371.3542" cy="69.397" fill="#CF6300" rx="10.4167" ry="10.4167" style="stroke:#EF8300;stroke-width:1.0416666666666667;"/><path d="M374.41,74.0845 L368.7337,74.0845 L368.7337,64.9719 L374.41,64.9719 L374.41,66.5588 L370.5343,66.5588 L370.5343,68.5242 L374.0438,68.5242 L374.0438,70.1111 L370.5343,70.1111 L370.5343,72.4976 L374.41,72.4976 Z " fill="#000000"/><text fill="#D8BC00" font-family="Open Sans,Avenir,Nunito,Arial,Helvetica,SansSerif" font-size="12.5" font-weight="bold" lengthAdjust="spacing" textLength="257.2917" x="388.0208" y="74.1211">OperatingSystem.OperatingSystemType</text><line style="stroke:#5E5E5E;stroke-width:1.0416666666666667;" x1="357.8125" x2="650.5208" y1="85.0911" y2="85.0911"/><text fill="#D8BC00" font-family="Open Sans,Avenir,Nunito,Arial,Helvetica,SansSerif" font-size="11.4583" lengthAdjust="spacing" textLength="41.6667" x="366.1458" y="103.4607">MACOS</text><text fill="#D8BC00" font-family="Open Sans,Avenir,Nunito,Arial,Helvetica,SansSerif" font-size="11.4583" lengthAdjust="spacing" textLength="60.4167" x="366.1458" y="123.2056">OTHER_OS</text><text fill="#D8BC00" font-family="Open Sans,Avenir,Nunito,Arial,Helvetica,SansSerif" font-size="11.4583" lengthAdjust="spacing" textLength="27.0833" x="366.1458" y="142.9504">UNIX</text><text fill="#D8BC00" font-family="Open Sans,Avenir,Nunito,Arial,Helvetica,SansSerif" font-size="11.4583" lengthAdjust="spacing" textLength="54.1667" x="366.1458" y="162.6953">WINDOWS</text><line style="stroke:#5E5E5E;stroke-width:1.0416666666666667;" x1="357.8125" x2="650.5208" y1="172.404" y2="172.404"/><rect codeLine="63" fill="#282828" height="87.5448" id="Console.OutputType" rx="8.3333" ry="8.3333" style="stroke:#5E5E5E;stroke-width:1.0416666666666667;" width="170.8333" x="688.5417" y="73.4945"/><rect fill="#1B1B1A" height="31.3883" rx="8.3333" ry="8.3333" style="stroke:#1B1B1A;stroke-width:1.0416666666666667;" width="170.8333" x="688.5417" y="73.4945"/><rect fill="#1B1B1A" height="8.3333" style="stroke:#1B1B1A;stroke-width:1.0416666666666667;" width="170.8333" x="688.5417" y="96.5495"/><rect codeLine="63" fill="none" height="87.5448" id="Console.OutputType" rx="8.3333" ry="8.3333" style="stroke:#5E5E5E;stroke-width:1.0416666666666667;" width="170.8333" x="688.5417" y="73.4945"/><ellipse cx="703.125" cy="89.1886" fill="#CF6300" rx="10.4167" ry="10.4167" style="stroke:#EF8300;stroke-width:1.0416666666666667;"/><path d="M706.1808,93.8761 L700.5046,93.8761 L700.5046,84.7636 L706.1808,84.7636 L706.1808,86.3505 L702.3051,86.3505 L702.3051,88.3158 L705.8146,88.3158 L705.8146,89.9028 L702.3051,89.9028 L702.3051,92.2892 L706.1808,92.2892 Z " fill="#000000"/><text fill="#D8BC00" font-family="Open Sans,Avenir,Nunito,Arial,Helvetica,SansSerif" font-size="12.5" font-weight="bold" lengthAdjust="spacing" textLength="133.3333" x="719.7917" y="93.9128">Console.OutputType</text><line style="stroke:#5E5E5E;stroke-width:1.0416666666666667;" x1="689.5833" x2="858.3333" y1="104.8828" y2="104.8828"/><text fill="#D8BC00" font-family="Open Sans,Avenir,Nunito,Arial,Helvetica,SansSerif" font-size="11.4583" lengthAdjust="spacing" textLength="37.5" x="697.9167" y="123.2524">ERROR</text><text fill="#D8BC00" font-family="Open Sans,Avenir,Nunito,Arial,Helvetica,SansSerif" font-size="11.4583" lengthAdjust="spacing" textLength="48.9583" x="697.9167" y="142.9972">NORMAL</text><line style="stroke:#5E5E5E;stroke-width:1.0416666666666667;" x1="689.5833" x2="858.3333" y1="152.7059" y2="152.7059"/><rect codeLine="69" fill="#282828" height="198.7691" id="Processes" rx="8.3333" ry="8.3333" style="stroke:#5E5E5E;stroke-width:1.0416666666666667;" width="345.8333" x="7.2917" y="321.932"/><rect fill="#1B1B1A" height="31.3883" rx="8.3333" ry="8.3333" style="stroke:#1B1B1A;stroke-width:1.0416666666666667;" width="345.8333" x="7.2917" y="321.932"/><rect fill="#1B1B1A" height="8.3333" style="stroke:#1B1B1A;stroke-width:1.0416666666666667;" width="345.8333" x="7.2917" y="344.987"/><rect codeLine="69" fill="none" height="198.7691" id="Processes" rx="8.3333" ry="8.3333" style="stroke:#5E5E5E;stroke-width:1.0416666666666667;" width="345.8333" x="7.2917" y="321.932"/><ellipse cx="141.1458" cy="337.6261" fill="#0066CF" rx="10.4167" ry="10.4167" style="stroke:#0086EF;stroke-width:1.0416666666666667;"/><path d="M143.0562,342.0512 Q142.629,342.2709 142.159,342.3808 Q141.689,342.4906 141.1702,342.4906 Q139.327,342.4906 138.3565,341.276 Q137.3861,340.0614 137.3861,337.7665 Q137.3861,335.4655 138.3565,334.2509 Q139.327,333.0363 141.1702,333.0363 Q141.689,333.0363 142.1651,333.1462 Q142.6412,333.256 143.0562,333.4757 L143.0562,335.4777 Q142.5924,335.0505 142.156,334.8521 Q141.7196,334.6537 141.2557,334.6537 Q140.2669,334.6537 139.7634,335.438 Q139.2598,336.2223 139.2598,337.7665 Q139.2598,339.3046 139.7634,340.0889 Q140.2669,340.8732 141.2557,340.8732 Q141.7196,340.8732 142.156,340.6748 Q142.5924,340.4765 143.0562,340.0492 Z " fill="#000000"/><text fill="#D8BC00" font-family="Open Sans,Avenir,Nunito,Arial,Helvetica,SansSerif" font-size="12.5" font-weight="bold" lengthAdjust="spacing" textLength="63.5417" x="164.0625" y="342.3503">Processes</text><line style="stroke:#5E5E5E;stroke-width:1.5625;" x1="8.3333" x2="352.0833" y1="353.3203" y2="353.3203"/><line style="stroke:#5E5E5E;stroke-width:1.0416666666666667;" x1="8.3333" x2="352.0833" y1="361.6536" y2="361.6536"/><ellipse cx="18.75" cy="373.112" fill="#84BE84" rx="3.125" ry="3.125" style="stroke:#038048;stroke-width:1.0416666666666667;"/><text fill="#D8BC00" font-family="Open Sans,Avenir,Nunito,Arial,Helvetica,SansSerif" font-size="11.4583" lengthAdjust="spacing" textLength="305.2083" x="30.2083" y="380.0232">void redirectStandardOutToConsole(Listener, Process)</text><ellipse cx="18.75" cy="416.7684" fill="#84BE84" rx="3.125" ry="3.125" style="stroke:#038048;stroke-width:1.0416666666666667;"/><text fill="#D8BC00" font-family="Open Sans,Avenir,Nunito,Arial,Helvetica,SansSerif" font-size="11.4583" lengthAdjust="spacing" textLength="313.5417" x="30.2083" y="423.6796">void redirectStandardErrorToConsole(Listener, Process)</text><line style="stroke:#5E5E5E;stroke-width:1.0416666666666667;" x1="8.3333" x2="155.7292" y1="399.6043" y2="399.6043"/><text fill="#D8BC00" font-family="Open Sans,Avenir,Nunito,Arial,Helvetica,SansSerif" font-size="11.4583" lengthAdjust="spacing" textLength="42.7083" x="158.8542" y="403.4139">(status)</text><line style="stroke:#5E5E5E;stroke-width:1.0416666666666667;" x1="204.6875" x2="352.0833" y1="399.6043" y2="399.6043"/><ellipse cx="18.75" cy="460.4248" fill="#84BE84" rx="3.125" ry="3.125" style="stroke:#038048;stroke-width:1.0416666666666667;"/><text fill="#D8BC00" font-family="Open Sans,Avenir,Nunito,Arial,Helvetica,SansSerif" font-size="11.4583" lengthAdjust="spacing" textLength="187.5" x="30.2083" y="467.336">void waitForTermination(Process)</text><line style="stroke:#5E5E5E;stroke-width:1.0416666666666667;" x1="8.3333" x2="154.6875" y1="443.2607" y2="443.2607"/><text fill="#D8BC00" font-family="Open Sans,Avenir,Nunito,Arial,Helvetica,SansSerif" font-size="11.4583" lengthAdjust="spacing" textLength="44.7917" x="157.8125" y="447.0703">(thread)</text><line style="stroke:#5E5E5E;stroke-width:1.0416666666666667;" x1="205.7292" x2="352.0833" y1="443.2607" y2="443.2607"/><ellipse cx="18.75" cy="504.0812" fill="#84BE84" rx="3.125" ry="3.125" style="stroke:#038048;stroke-width:1.0416666666666667;"/><text fill="#D8BC00" font-family="Open Sans,Avenir,Nunito,Arial,Helvetica,SansSerif" font-size="11.4583" lengthAdjust="spacing" textLength="221.875" x="30.2083" y="510.9924">String captureOutput(Listener, Process)</text><line style="stroke:#5E5E5E;stroke-width:1.0416666666666667;" x1="8.3333" x2="159.375" y1="486.9171" y2="486.9171"/><text fill="#D8BC00" font-family="Open Sans,Avenir,Nunito,Arial,Helvetica,SansSerif" font-size="11.4583" lengthAdjust="spacing" textLength="35.4167" x="162.5" y="490.7267">(write)</text><line style="stroke:#5E5E5E;stroke-width:1.0416666666666667;" x1="201.0417" x2="352.0833" y1="486.9171" y2="486.9171"/><rect codeLine="81" fill="#282828" height="107.2896" id="OperatingSystem.ProcessorArchitecture" rx="8.3333" ry="8.3333" style="stroke:#5E5E5E;stroke-width:1.0416666666666667;" width="292.7083" x="390.1042" y="367.7653"/><rect fill="#1B1B1A" height="31.3883" rx="8.3333" ry="8.3333" style="stroke:#1B1B1A;stroke-width:1.0416666666666667;" width="292.7083" x="390.1042" y="367.7653"/><rect fill="#1B1B1A" height="8.3333" style="stroke:#1B1B1A;stroke-width:1.0416666666666667;" width="292.7083" x="390.1042" y="390.8203"/><rect codeLine="81" fill="none" height="107.2896" id="OperatingSystem.ProcessorArchitecture" rx="8.3333" ry="8.3333" style="stroke:#5E5E5E;stroke-width:1.0416666666666667;" width="292.7083" x="390.1042" y="367.7653"/><ellipse cx="404.6875" cy="383.4595" fill="#CF6300" rx="10.4167" ry="10.4167" style="stroke:#EF8300;stroke-width:1.0416666666666667;"/><path d="M407.7433,388.147 L402.0671,388.147 L402.0671,379.0344 L407.7433,379.0344 L407.7433,380.6213 L403.8676,380.6213 L403.8676,382.5867 L407.3771,382.5867 L407.3771,384.1736 L403.8676,384.1736 L403.8676,386.5601 L407.7433,386.5601 Z " fill="#000000"/><text fill="#D8BC00" font-family="Open Sans,Avenir,Nunito,Arial,Helvetica,SansSerif" font-size="12.5" font-weight="bold" lengthAdjust="spacing" textLength="255.2083" x="421.3542" y="388.1836">OperatingSystem.ProcessorArchitecture</text><line style="stroke:#5E5E5E;stroke-width:1.0416666666666667;" x1="391.1458" x2="681.7708" y1="399.1536" y2="399.1536"/><text fill="#D8BC00" font-family="Open Sans,Avenir,Nunito,Arial,Helvetica,SansSerif" font-size="11.4583" lengthAdjust="spacing" textLength="33.3333" x="399.4792" y="417.5232">APPLE</text><text fill="#D8BC00" font-family="Open Sans,Avenir,Nunito,Arial,Helvetica,SansSerif" font-size="11.4583" lengthAdjust="spacing" textLength="31.25" x="399.4792" y="437.2681">INTEL</text><text fill="#D8BC00" font-family="Open Sans,Avenir,Nunito,Arial,Helvetica,SansSerif" font-size="11.4583" lengthAdjust="spacing" textLength="111.4583" x="399.4792" y="457.0129">OTHER_PROCESSOR</text><line style="stroke:#5E5E5E;stroke-width:1.0416666666666667;" x1="391.1458" x2="681.7708" y1="466.7216" y2="466.7216"/><path codeLine="11" d="M1393.375,163.1403 C1385.3229,200.2445 1373.5,254.6507 1362.8021,303.8799 " fill="none" id="Flushable-backto-Console" style="stroke:#545454;stroke-width:1.5625;"/><polygon fill="none" points="1386.1979,161.8382,1397.75,143.0257,1400.4479,164.932,1386.1979,161.8382" style="stroke:#545454;stroke-width:1.5625;"/><path codeLine="12" d="M1281.625,163.1403 C1289.6771,200.2445 1301.5,254.6507 1312.1979,303.8799 " fill="none" id="Listener-backto-Console" style="stroke:#545454;stroke-width:1.5625;"/><polygon fill="none" points="1274.5521,164.932,1277.25,143.0257,1288.8021,161.8382,1274.5521,164.932" style="stroke:#545454;stroke-width:1.5625;"/><path codeLine="34" d="M937.5,163.8799 C937.5,185.8278 937.5,213.6924 937.5,242.932 " fill="none" id="Named-backto-OperatingSystem" style="stroke:#545454;stroke-width:1.5625;"/><polygon fill="none" points="930.2083,163.9007,937.5,143.0674,944.7917,163.9007,930.2083,163.9007" style="stroke:#545454;stroke-width:1.5625;"/></g></svg>

