<?xml version="1.0" encoding="UTF-8" standalone="no"?><svg xmlns="http://www.w3.org/2000/svg" xmlns:xlink="http://www.w3.org/1999/xlink" contentScriptType="application/ecmascript" contentStyleType="text/css" height="293.75px" preserveAspectRatio="none" style="width:1023px;height:293px;background:#333333;" version="1.1" viewBox="0 0 1023 293" width="1023.9583px" zoomAndPan="magnify"><defs/><g><rect fill="#48494B" height="41.2028" rx="8.3333" ry="8.3333" style="stroke:#545454;stroke-width:1.0416666666666667;" width="623.9583" x="192.9688" y="2.0833"/><text fill="#C0C0C0" font-family="Open Sans,Avenir,Nunito,Arial,Helvetica,SansSerif" font-size="20.8333" lengthAdjust="spacing" textLength="601.0417" x="204.4271" y="30.5583">com.telenav.kivakit.core.messaging.messages.status.activity</text><rect fill="#282828" height="48.055" id="OperationStatusMessage" rx="8.3333" ry="8.3333" style="stroke:#5E5E5E;stroke-width:1.0416666666666667;" width="198.9583" x="416.6667" y="53.7028"/><rect fill="#1B1B1A" height="31.3883" rx="8.3333" ry="8.3333" style="stroke:#1B1B1A;stroke-width:1.0416666666666667;" width="198.9583" x="416.6667" y="53.7028"/><rect fill="#1B1B1A" height="8.3333" style="stroke:#1B1B1A;stroke-width:1.0416666666666667;" width="198.9583" x="416.6667" y="76.7578"/><rect fill="none" height="48.055" id="OperationStatusMessage" rx="8.3333" ry="8.3333" style="stroke:#5E5E5E;stroke-width:1.0416666666666667;" width="198.9583" x="416.6667" y="53.7028"/><ellipse cx="431.25" cy="69.397" fill="#0066CF" rx="10.4167" ry="10.4167" style="stroke:#0086EF;stroke-width:1.0416666666666667;"/><path d="M433.1604,73.822 Q432.7332,74.0417 432.2632,74.1516 Q431.7932,74.2615 431.2744,74.2615 Q429.4312,74.2615 428.4607,73.0469 Q427.4902,71.8323 427.4902,69.5374 Q427.4902,67.2363 428.4607,66.0217 Q429.4312,64.8071 431.2744,64.8071 Q431.7932,64.8071 432.2693,64.917 Q432.7454,65.0269 433.1604,65.2466 L433.1604,67.2485 Q432.6965,66.8213 432.2601,66.6229 Q431.8237,66.4246 431.3599,66.4246 Q430.3711,66.4246 429.8676,67.2089 Q429.364,67.9932 429.364,69.5374 Q429.364,71.0754 429.8676,71.8597 Q430.3711,72.644 431.3599,72.644 Q431.8237,72.644 432.2601,72.4457 Q432.6965,72.2473 433.1604,71.8201 Z " fill="#000000"/><text fill="#D8BC00" font-family="Open Sans,Avenir,Nunito,Arial,Helvetica,SansSerif" font-size="12.5" font-weight="bold" lengthAdjust="spacing" textLength="161.4583" x="447.9167" y="74.1211">OperationStatusMessage</text><line style="stroke:#5E5E5E;stroke-width:1.0416666666666667;" x1="417.7083" x2="614.5833" y1="85.0911" y2="85.0911"/><line style="stroke:#5E5E5E;stroke-width:1.0416666666666667;" x1="417.7083" x2="614.5833" y1="93.4245" y2="93.4245"/><rect codeLine="8" fill="#282828" height="122.8678" id="Step" rx="8.3333" ry="8.3333" style="stroke:#5E5E5E;stroke-width:1.0416666666666667;" width="205.2083" x="7.2917" y="164.1195"/><rect fill="#1B1B1A" height="31.3883" rx="8.3333" ry="8.3333" style="stroke:#1B1B1A;stroke-width:1.0416666666666667;" width="205.2083" x="7.2917" y="164.1195"/><rect fill="#1B1B1A" height="8.3333" style="stroke:#1B1B1A;stroke-width:1.0416666666666667;" width="205.2083" x="7.2917" y="187.1745"/><rect codeLine="8" fill="none" height="122.8678" id="Step" rx="8.3333" ry="8.3333" style="stroke:#5E5E5E;stroke-width:1.0416666666666667;" width="205.2083" x="7.2917" y="164.1195"/><ellipse cx="88.5417" cy="179.8136" fill="#0066CF" rx="10.4167" ry="10.4167" style="stroke:#0086EF;stroke-width:1.0416666666666667;"/><path d="M90.4521,184.2387 Q90.0248,184.4584 89.5549,184.5683 Q89.0849,184.6781 88.5661,184.6781 Q86.7228,184.6781 85.7524,183.4635 Q84.7819,182.2489 84.7819,179.954 Q84.7819,177.653 85.7524,176.4384 Q86.7228,175.2238 88.5661,175.2238 Q89.0849,175.2238 89.561,175.3337 Q90.037,175.4435 90.4521,175.6632 L90.4521,177.6652 Q89.9882,177.238 89.5518,177.0396 Q89.1154,176.8412 88.6515,176.8412 Q87.6628,176.8412 87.1592,177.6255 Q86.6557,178.4098 86.6557,179.954 Q86.6557,181.4921 87.1592,182.2764 Q87.6628,183.0607 88.6515,183.0607 Q89.1154,183.0607 89.5518,182.8623 Q89.9882,182.664 90.4521,182.2367 Z " fill="#000000"/><text fill="#D8BC00" font-family="Open Sans,Avenir,Nunito,Arial,Helvetica,SansSerif" font-size="12.5" font-weight="bold" lengthAdjust="spacing" textLength="28.125" x="111.4583" y="184.5378">Step</text><line style="stroke:#5E5E5E;stroke-width:1.5625;" x1="8.3333" x2="211.4583" y1="195.5078" y2="195.5078"/><ellipse cx="18.75" cy="230.8777" fill="#84BE84" rx="3.125" ry="3.125" style="stroke:#038048;stroke-width:1.0416666666666667;"/><text fill="#D8BC00" font-family="Open Sans,Avenir,Nunito,Arial,Helvetica,SansSerif" font-size="11.4583" lengthAdjust="spacing" textLength="32.2917" x="30.2083" y="237.7889">Step()</text><ellipse cx="18.75" cy="250.6226" fill="#84BE84" rx="3.125" ry="3.125" style="stroke:#038048;stroke-width:1.0416666666666667;"/><text fill="#D8BC00" font-family="Open Sans,Avenir,Nunito,Arial,Helvetica,SansSerif" font-size="11.4583" lengthAdjust="spacing" textLength="108.3333" x="30.2083" y="257.5338">Step(String, Object)</text><ellipse cx="18.75" cy="270.3674" fill="#84BE84" rx="3.125" ry="3.125" style="stroke:#038048;stroke-width:1.0416666666666667;"/><text fill="#D8BC00" font-family="Open Sans,Avenir,Nunito,Arial,Helvetica,SansSerif" font-size="11.4583" lengthAdjust="spacing" textLength="172.9167" x="30.2083" y="277.2786">Step(Throwable, String, Object)</text><line style="stroke:#5E5E5E;stroke-width:1.0416666666666667;" x1="8.3333" x2="66.1458" y1="213.7136" y2="213.7136"/><text fill="#D8BC00" font-family="Open Sans,Avenir,Nunito,Arial,Helvetica,SansSerif" font-size="11.4583" lengthAdjust="spacing" textLength="81.25" x="69.2708" y="217.5232">(constructors)</text><line style="stroke:#5E5E5E;stroke-width:1.0416666666666667;" x1="153.6458" x2="211.4583" y1="213.7136" y2="213.7136"/><rect codeLine="17" fill="#282828" height="122.8678" id="StepFailure" rx="8.3333" ry="8.3333" style="stroke:#5E5E5E;stroke-width:1.0416666666666667;" width="242.7083" x="248.9583" y="164.1195"/><rect fill="#1B1B1A" height="31.3883" rx="8.3333" ry="8.3333" style="stroke:#1B1B1A;stroke-width:1.0416666666666667;" width="242.7083" x="248.9583" y="164.1195"/><rect fill="#1B1B1A" height="8.3333" style="stroke:#1B1B1A;stroke-width:1.0416666666666667;" width="242.7083" x="248.9583" y="187.1745"/><rect codeLine="17" fill="none" height="122.8678" id="StepFailure" rx="8.3333" ry="8.3333" style="stroke:#5E5E5E;stroke-width:1.0416666666666667;" width="242.7083" x="248.9583" y="164.1195"/><ellipse cx="327.0833" cy="179.8136" fill="#0066CF" rx="10.4167" ry="10.4167" style="stroke:#0086EF;stroke-width:1.0416666666666667;"/><path d="M328.9937,184.2387 Q328.5665,184.4584 328.0965,184.5683 Q327.6265,184.6781 327.1077,184.6781 Q325.2645,184.6781 324.294,183.4635 Q323.3236,182.2489 323.3236,179.954 Q323.3236,177.653 324.294,176.4384 Q325.2645,175.2238 327.1077,175.2238 Q327.6265,175.2238 328.1026,175.3337 Q328.5787,175.4435 328.9937,175.6632 L328.9937,177.6652 Q328.5299,177.238 328.0935,177.0396 Q327.6571,176.8412 327.1932,176.8412 Q326.2044,176.8412 325.7009,177.6255 Q325.1973,178.4098 325.1973,179.954 Q325.1973,181.4921 325.7009,182.2764 Q326.2044,183.0607 327.1932,183.0607 Q327.6571,183.0607 328.0935,182.8623 Q328.5299,182.664 328.9937,182.2367 Z " fill="#000000"/><text fill="#D8BC00" font-family="Open Sans,Avenir,Nunito,Arial,Helvetica,SansSerif" font-size="12.5" font-weight="bold" lengthAdjust="spacing" textLength="71.875" x="350" y="184.5378">StepFailure</text><line style="stroke:#5E5E5E;stroke-width:1.5625;" x1="250" x2="490.625" y1="195.5078" y2="195.5078"/><ellipse cx="260.4167" cy="230.8777" fill="#84BE84" rx="3.125" ry="3.125" style="stroke:#038048;stroke-width:1.0416666666666667;"/><text fill="#D8BC00" font-family="Open Sans,Avenir,Nunito,Arial,Helvetica,SansSerif" font-size="11.4583" lengthAdjust="spacing" textLength="69.7917" x="271.875" y="237.7889">StepFailure()</text><ellipse cx="260.4167" cy="250.6226" fill="#84BE84" rx="3.125" ry="3.125" style="stroke:#038048;stroke-width:1.0416666666666667;"/><text fill="#D8BC00" font-family="Open Sans,Avenir,Nunito,Arial,Helvetica,SansSerif" font-size="11.4583" lengthAdjust="spacing" textLength="145.8333" x="271.875" y="257.5338">StepFailure(String, Object)</text><ellipse cx="260.4167" cy="270.3674" fill="#84BE84" rx="3.125" ry="3.125" style="stroke:#038048;stroke-width:1.0416666666666667;"/><text fill="#D8BC00" font-family="Open Sans,Avenir,Nunito,Arial,Helvetica,SansSerif" font-size="11.4583" lengthAdjust="spacing" textLength="210.4167" x="271.875" y="277.2786">StepFailure(Throwable, String, Object)</text><line style="stroke:#5E5E5E;stroke-width:1.0416666666666667;" x1="250" x2="326.5625" y1="213.7136" y2="213.7136"/><text fill="#D8BC00" font-family="Open Sans,Avenir,Nunito,Arial,Helvetica,SansSerif" font-size="11.4583" lengthAdjust="spacing" textLength="81.25" x="329.6875" y="217.5232">(constructors)</text><line style="stroke:#5E5E5E;stroke-width:1.0416666666666667;" x1="414.0625" x2="490.625" y1="213.7136" y2="213.7136"/><rect codeLine="26" fill="#282828" height="122.8678" id="StepIncomplete" rx="8.3333" ry="8.3333" style="stroke:#5E5E5E;stroke-width:1.0416666666666667;" width="266.6667" x="528.6458" y="164.1195"/><rect fill="#1B1B1A" height="31.3883" rx="8.3333" ry="8.3333" style="stroke:#1B1B1A;stroke-width:1.0416666666666667;" width="266.6667" x="528.6458" y="164.1195"/><rect fill="#1B1B1A" height="8.3333" style="stroke:#1B1B1A;stroke-width:1.0416666666666667;" width="266.6667" x="528.6458" y="187.1745"/><rect codeLine="26" fill="none" height="122.8678" id="StepIncomplete" rx="8.3333" ry="8.3333" style="stroke:#5E5E5E;stroke-width:1.0416666666666667;" width="266.6667" x="528.6458" y="164.1195"/><ellipse cx="604.6875" cy="179.8136" fill="#0066CF" rx="10.4167" ry="10.4167" style="stroke:#0086EF;stroke-width:1.0416666666666667;"/><path d="M606.5979,184.2387 Q606.1707,184.4584 605.7007,184.5683 Q605.2307,184.6781 604.7119,184.6781 Q602.8687,184.6781 601.8982,183.4635 Q600.9277,182.2489 600.9277,179.954 Q600.9277,177.653 601.8982,176.4384 Q602.8687,175.2238 604.7119,175.2238 Q605.2307,175.2238 605.7068,175.3337 Q606.1829,175.4435 606.5979,175.6632 L606.5979,177.6652 Q606.134,177.238 605.6976,177.0396 Q605.2612,176.8412 604.7974,176.8412 Q603.8086,176.8412 603.3051,177.6255 Q602.8015,178.4098 602.8015,179.954 Q602.8015,181.4921 603.3051,182.2764 Q603.8086,183.0607 604.7974,183.0607 Q605.2612,183.0607 605.6976,182.8623 Q606.134,182.664 606.5979,182.2367 Z " fill="#000000"/><text fill="#D8BC00" font-family="Open Sans,Avenir,Nunito,Arial,Helvetica,SansSerif" font-size="12.5" font-weight="bold" lengthAdjust="spacing" textLength="100" x="627.6042" y="184.5378">StepIncomplete</text><line style="stroke:#5E5E5E;stroke-width:1.5625;" x1="529.6875" x2="794.2708" y1="195.5078" y2="195.5078"/><ellipse cx="540.1042" cy="230.8777" fill="#84BE84" rx="3.125" ry="3.125" style="stroke:#038048;stroke-width:1.0416666666666667;"/><text fill="#D8BC00" font-family="Open Sans,Avenir,Nunito,Arial,Helvetica,SansSerif" font-size="11.4583" lengthAdjust="spacing" textLength="93.75" x="551.5625" y="237.7889">StepIncomplete()</text><ellipse cx="540.1042" cy="250.6226" fill="#84BE84" rx="3.125" ry="3.125" style="stroke:#038048;stroke-width:1.0416666666666667;"/><text fill="#D8BC00" font-family="Open Sans,Avenir,Nunito,Arial,Helvetica,SansSerif" font-size="11.4583" lengthAdjust="spacing" textLength="169.7917" x="551.5625" y="257.5338">StepIncomplete(String, Object)</text><ellipse cx="540.1042" cy="270.3674" fill="#84BE84" rx="3.125" ry="3.125" style="stroke:#038048;stroke-width:1.0416666666666667;"/><text fill="#D8BC00" font-family="Open Sans,Avenir,Nunito,Arial,Helvetica,SansSerif" font-size="11.4583" lengthAdjust="spacing" textLength="234.375" x="551.5625" y="277.2786">StepIncomplete(Throwable, String, Object)</text><line style="stroke:#5E5E5E;stroke-width:1.0416666666666667;" x1="529.6875" x2="618.2292" y1="213.7136" y2="213.7136"/><text fill="#D8BC00" font-family="Open Sans,Avenir,Nunito,Arial,Helvetica,SansSerif" font-size="11.4583" lengthAdjust="spacing" textLength="81.25" x="621.3542" y="217.5232">(constructors)</text><line style="stroke:#5E5E5E;stroke-width:1.0416666666666667;" x1="705.7292" x2="794.2708" y1="213.7136" y2="213.7136"/><rect codeLine="35" fill="#282828" height="103.123" id="StepSuccess" rx="8.3333" ry="8.3333" style="stroke:#5E5E5E;stroke-width:1.0416666666666667;" width="185.4167" x="831.7708" y="174.0153"/><rect fill="#1B1B1A" height="31.3883" rx="8.3333" ry="8.3333" style="stroke:#1B1B1A;stroke-width:1.0416666666666667;" width="185.4167" x="831.7708" y="174.0153"/><rect fill="#1B1B1A" height="8.3333" style="stroke:#1B1B1A;stroke-width:1.0416666666666667;" width="185.4167" x="831.7708" y="197.0703"/><rect codeLine="35" fill="none" height="103.123" id="StepSuccess" rx="8.3333" ry="8.3333" style="stroke:#5E5E5E;stroke-width:1.0416666666666667;" width="185.4167" x="831.7708" y="174.0153"/><ellipse cx="878.125" cy="189.7095" fill="#0066CF" rx="10.4167" ry="10.4167" style="stroke:#0086EF;stroke-width:1.0416666666666667;"/><path d="M880.0354,194.1345 Q879.6082,194.3542 879.1382,194.4641 Q878.6682,194.574 878.1494,194.574 Q876.3062,194.574 875.3357,193.3594 Q874.3652,192.1448 874.3652,189.8499 Q874.3652,187.5488 875.3357,186.3342 Q876.3062,185.1196 878.1494,185.1196 Q878.6682,185.1196 879.1443,185.2295 Q879.6204,185.3394 880.0354,185.5591 L880.0354,187.561 Q879.5715,187.1338 879.1351,186.9354 Q878.6987,186.7371 878.2349,186.7371 Q877.2461,186.7371 876.7426,187.5214 Q876.239,188.3057 876.239,189.8499 Q876.239,191.3879 876.7426,192.1722 Q877.2461,192.9565 878.2349,192.9565 Q878.6987,192.9565 879.1351,192.7582 Q879.5715,192.5598 880.0354,192.1326 Z " fill="#000000"/><text fill="#D8BC00" font-family="Open Sans,Avenir,Nunito,Arial,Helvetica,SansSerif" font-size="12.5" font-weight="bold" lengthAdjust="spacing" textLength="78.125" x="901.0417" y="194.4336">StepSuccess</text><line style="stroke:#5E5E5E;stroke-width:1.5625;" x1="832.8125" x2="1016.1458" y1="205.4036" y2="205.4036"/><ellipse cx="843.2292" cy="240.7735" fill="#84BE84" rx="3.125" ry="3.125" style="stroke:#038048;stroke-width:1.0416666666666667;"/><text fill="#D8BC00" font-family="Open Sans,Avenir,Nunito,Arial,Helvetica,SansSerif" font-size="11.4583" lengthAdjust="spacing" textLength="77.0833" x="854.6875" y="247.6847">StepSuccess()</text><ellipse cx="843.2292" cy="260.5184" fill="#84BE84" rx="3.125" ry="3.125" style="stroke:#038048;stroke-width:1.0416666666666667;"/><text fill="#D8BC00" font-family="Open Sans,Avenir,Nunito,Arial,Helvetica,SansSerif" font-size="11.4583" lengthAdjust="spacing" textLength="153.125" x="854.6875" y="267.4296">StepSuccess(String, Object)</text><line style="stroke:#5E5E5E;stroke-width:1.0416666666666667;" x1="832.8125" x2="880.7292" y1="223.6094" y2="223.6094"/><text fill="#D8BC00" font-family="Open Sans,Avenir,Nunito,Arial,Helvetica,SansSerif" font-size="11.4583" lengthAdjust="spacing" textLength="81.25" x="883.8542" y="227.419">(constructors)</text><line style="stroke:#5E5E5E;stroke-width:1.0416666666666667;" x1="968.2292" x2="1016.1458" y1="223.6094" y2="223.6094"/><path codeLine="7" d="M401.9375,108.0049 C349.1146,122.7861 285.9688,142.234 230.7292,164.1195 C224.8438,166.4528 218.8542,168.9632 212.8438,171.5882 " fill="none" id="OperationStatusMessage-backto-Step" style="stroke:#545454;stroke-width:1.5625;"/><polygon fill="none" points="399.9688,100.984,421.9896,102.4736,403.8438,115.0361,399.9688,100.984" style="stroke:#545454;stroke-width:1.5625;"/><path codeLine="16" d="M477.2813,117.5674 C463.1146,131.734 446.7396,148.109 431.125,163.7236 " fill="none" id="OperationStatusMessage-backto-StepFailure" style="stroke:#545454;stroke-width:1.5625;"/><polygon fill="none" points="471.7083,112.8278,491.6042,103.2445,482.0208,123.1403,471.7083,112.8278" style="stroke:#545454;stroke-width:1.5625;"/><path codeLine="25" d="M555.0104,117.5674 C569.1771,131.734 585.5521,148.109 601.1667,163.7236 " fill="none" id="OperationStatusMessage-backto-StepIncomplete" style="stroke:#545454;stroke-width:1.5625;"/><polygon fill="none" points="550.2708,123.1403,540.6875,103.2445,560.5833,112.8278,550.2708,123.1403" style="stroke:#545454;stroke-width:1.5625;"/><path codeLine="34" d="M637.6146,107.0049 C692.4688,121.4424 757.5104,140.8799 814.0625,164.1195 C821.0313,166.984 828.1354,170.1715 835.1979,173.557 " fill="none" id="OperationStatusMessage-backto-StepSuccess" style="stroke:#545454;stroke-width:1.5625;"/><polygon fill="none" points="635.8438,114.0778,617.4896,101.8278,639.4792,99.9632,635.8438,114.0778" style="stroke:#545454;stroke-width:1.5625;"/></g></svg>

