<?xml version="1.0" encoding="UTF-8" standalone="no"?><svg xmlns="http://www.w3.org/2000/svg" xmlns:xlink="http://www.w3.org/1999/xlink" contentScriptType="application/ecmascript" contentStyleType="text/css" height="337.5px" preserveAspectRatio="none" style="width:472px;height:337px;background:#333333;" version="1.1" viewBox="0 0 472 337" width="472.9167px" zoomAndPan="magnify"><defs/><g><rect fill="#48494B" height="41.2028" rx="8.3333" ry="8.3333" style="stroke:#545454;stroke-width:1.0416666666666667;" width="384.375" x="37.2396" y="2.0833"/><text fill="#C0C0C0" font-family="Open Sans,Avenir,Nunito,Arial,Helvetica,SansSerif" font-size="20.8333" lengthAdjust="spacing" textLength="361.4583" x="48.6979" y="30.5583">com.telenav.kivakit.core.value.name</text><rect codeLine="7" fill="#282828" height="48.055" id="Nameable" rx="8.3333" ry="8.3333" style="stroke:#5E5E5E;stroke-width:1.0416666666666667;" width="101.0417" x="7.2917" y="53.7028"/><rect fill="#1B1B1A" height="31.3883" rx="8.3333" ry="8.3333" style="stroke:#1B1B1A;stroke-width:1.0416666666666667;" width="101.0417" x="7.2917" y="53.7028"/><rect fill="#1B1B1A" height="8.3333" style="stroke:#1B1B1A;stroke-width:1.0416666666666667;" width="101.0417" x="7.2917" y="76.7578"/><rect codeLine="7" fill="none" height="48.055" id="Nameable" rx="8.3333" ry="8.3333" style="stroke:#5E5E5E;stroke-width:1.0416666666666667;" width="101.0417" x="7.2917" y="53.7028"/><ellipse cx="21.875" cy="69.397" fill="#008400" rx="10.4167" ry="10.4167" style="stroke:#239C23;stroke-width:1.0416666666666667;"/><path d="M19.279,66.5588 L19.279,64.9719 L24.705,64.9719 L24.705,66.5588 L22.8923,66.5588 L22.8923,72.4976 L24.705,72.4976 L24.705,74.0845 L19.279,74.0845 L19.279,72.4976 L21.0917,72.4976 L21.0917,66.5588 Z " fill="#000000"/><text fill="#D8BC00" font-family="Open Sans,Avenir,Nunito,Arial,Helvetica,SansSerif" font-size="12.5" font-style="italic" font-weight="bold" lengthAdjust="spacing" textLength="63.5417" x="38.5417" y="74.1211">Nameable</text><line style="stroke:#5E5E5E;stroke-width:1.0416666666666667;" x1="8.3333" x2="107.2917" y1="85.0911" y2="85.0911"/><line style="stroke:#5E5E5E;stroke-width:1.0416666666666667;" x1="8.3333" x2="107.2917" y1="93.4245" y2="93.4245"/><rect codeLine="8" fill="#282828" height="48.055" id="AsString" rx="8.3333" ry="8.3333" style="stroke:#5E5E5E;stroke-width:1.0416666666666667;" width="92.7083" x="144.7917" y="53.7028"/><rect fill="#1B1B1A" height="31.3883" rx="8.3333" ry="8.3333" style="stroke:#1B1B1A;stroke-width:1.0416666666666667;" width="92.7083" x="144.7917" y="53.7028"/><rect fill="#1B1B1A" height="8.3333" style="stroke:#1B1B1A;stroke-width:1.0416666666666667;" width="92.7083" x="144.7917" y="76.7578"/><rect codeLine="8" fill="none" height="48.055" id="AsString" rx="8.3333" ry="8.3333" style="stroke:#5E5E5E;stroke-width:1.0416666666666667;" width="92.7083" x="144.7917" y="53.7028"/><ellipse cx="159.375" cy="69.397" fill="#008400" rx="10.4167" ry="10.4167" style="stroke:#239C23;stroke-width:1.0416666666666667;"/><path d="M156.779,66.5588 L156.779,64.9719 L162.205,64.9719 L162.205,66.5588 L160.3923,66.5588 L160.3923,72.4976 L162.205,72.4976 L162.205,74.0845 L156.779,74.0845 L156.779,72.4976 L158.5917,72.4976 L158.5917,66.5588 Z " fill="#000000"/><text fill="#D8BC00" font-family="Open Sans,Avenir,Nunito,Arial,Helvetica,SansSerif" font-size="12.5" font-style="italic" font-weight="bold" lengthAdjust="spacing" textLength="55.2083" x="176.0417" y="74.1211">AsString</text><line style="stroke:#5E5E5E;stroke-width:1.0416666666666667;" x1="145.8333" x2="236.4583" y1="85.0911" y2="85.0911"/><line style="stroke:#5E5E5E;stroke-width:1.0416666666666667;" x1="145.8333" x2="236.4583" y1="93.4245" y2="93.4245"/><rect codeLine="25" fill="#282828" height="48.055" id="Named" rx="8.3333" ry="8.3333" style="stroke:#5E5E5E;stroke-width:1.0416666666666667;" width="82.2917" x="273.9583" y="53.7028"/><rect fill="#1B1B1A" height="31.3883" rx="8.3333" ry="8.3333" style="stroke:#1B1B1A;stroke-width:1.0416666666666667;" width="82.2917" x="273.9583" y="53.7028"/><rect fill="#1B1B1A" height="8.3333" style="stroke:#1B1B1A;stroke-width:1.0416666666666667;" width="82.2917" x="273.9583" y="76.7578"/><rect codeLine="25" fill="none" height="48.055" id="Named" rx="8.3333" ry="8.3333" style="stroke:#5E5E5E;stroke-width:1.0416666666666667;" width="82.2917" x="273.9583" y="53.7028"/><ellipse cx="288.5417" cy="69.397" fill="#008400" rx="10.4167" ry="10.4167" style="stroke:#239C23;stroke-width:1.0416666666666667;"/><path d="M285.9456,66.5588 L285.9456,64.9719 L291.3717,64.9719 L291.3717,66.5588 L289.5589,66.5588 L289.5589,72.4976 L291.3717,72.4976 L291.3717,74.0845 L285.9456,74.0845 L285.9456,72.4976 L287.7584,72.4976 L287.7584,66.5588 Z " fill="#000000"/><text fill="#D8BC00" font-family="Open Sans,Avenir,Nunito,Arial,Helvetica,SansSerif" font-size="12.5" font-style="italic" font-weight="bold" lengthAdjust="spacing" textLength="44.7917" x="305.2083" y="74.1211">Named</text><line style="stroke:#5E5E5E;stroke-width:1.0416666666666667;" x1="275" x2="355.2083" y1="85.0911" y2="85.0911"/><line style="stroke:#5E5E5E;stroke-width:1.0416666666666667;" x1="275" x2="355.2083" y1="93.4245" y2="93.4245"/><rect codeLine="14" fill="#282828" height="166.5243" id="Name" rx="8.3333" ry="8.3333" style="stroke:#5E5E5E;stroke-width:1.0416666666666667;" width="179.1667" x="101.5625" y="164.1195"/><rect fill="#1B1B1A" height="31.3883" rx="8.3333" ry="8.3333" style="stroke:#1B1B1A;stroke-width:1.0416666666666667;" width="179.1667" x="101.5625" y="164.1195"/><rect fill="#1B1B1A" height="8.3333" style="stroke:#1B1B1A;stroke-width:1.0416666666666667;" width="179.1667" x="101.5625" y="187.1745"/><rect codeLine="14" fill="none" height="166.5243" id="Name" rx="8.3333" ry="8.3333" style="stroke:#5E5E5E;stroke-width:1.0416666666666667;" width="179.1667" x="101.5625" y="164.1195"/><ellipse cx="165.625" cy="179.8136" fill="#0066CF" rx="10.4167" ry="10.4167" style="stroke:#0086EF;stroke-width:1.0416666666666667;"/><path d="M167.5354,184.2387 Q167.1082,184.4584 166.6382,184.5683 Q166.1682,184.6781 165.6494,184.6781 Q163.8062,184.6781 162.8357,183.4635 Q161.8652,182.2489 161.8652,179.954 Q161.8652,177.653 162.8357,176.4384 Q163.8062,175.2238 165.6494,175.2238 Q166.1682,175.2238 166.6443,175.3337 Q167.1204,175.4435 167.5354,175.6632 L167.5354,177.6652 Q167.0715,177.238 166.6351,177.0396 Q166.1987,176.8412 165.7349,176.8412 Q164.7461,176.8412 164.2426,177.6255 Q163.739,178.4098 163.739,179.954 Q163.739,181.4921 164.2426,182.2764 Q164.7461,183.0607 165.7349,183.0607 Q166.1987,183.0607 166.6351,182.8623 Q167.0715,182.664 167.5354,182.2367 Z " fill="#000000"/><text fill="#D8BC00" font-family="Open Sans,Avenir,Nunito,Arial,Helvetica,SansSerif" font-size="12.5" font-weight="bold" lengthAdjust="spacing" textLength="36.4583" x="188.5417" y="184.5378">Name</text><line style="stroke:#5E5E5E;stroke-width:1.5625;" x1="102.6042" x2="279.6875" y1="195.5078" y2="195.5078"/><ellipse cx="113.0208" cy="230.8777" fill="#84BE84" rx="3.125" ry="3.125" style="stroke:#038048;stroke-width:1.0416666666666667;"/><text fill="#D8BC00" font-family="Open Sans,Avenir,Nunito,Arial,Helvetica,SansSerif" font-size="11.4583" lengthAdjust="spacing" textLength="39.5833" x="124.4792" y="237.7889">Name()</text><ellipse cx="113.0208" cy="250.6226" fill="#84BE84" rx="3.125" ry="3.125" style="stroke:#038048;stroke-width:1.0416666666666667;"/><text fill="#D8BC00" font-family="Open Sans,Avenir,Nunito,Arial,Helvetica,SansSerif" font-size="11.4583" lengthAdjust="spacing" textLength="72.9167" x="124.4792" y="257.5338">Name(String)</text><line style="stroke:#5E5E5E;stroke-width:1.0416666666666667;" x1="102.6042" x2="147.3958" y1="213.7136" y2="213.7136"/><text fill="#D8BC00" font-family="Open Sans,Avenir,Nunito,Arial,Helvetica,SansSerif" font-size="11.4583" lengthAdjust="spacing" textLength="81.25" x="150.5208" y="217.5232">(constructors)</text><line style="stroke:#5E5E5E;stroke-width:1.0416666666666667;" x1="234.8958" x2="279.6875" y1="213.7136" y2="213.7136"/><ellipse cx="113.0208" cy="294.279" fill="#84BE84" rx="3.125" ry="3.125" style="stroke:#038048;stroke-width:1.0416666666666667;"/><text fill="#D8BC00" font-family="Open Sans,Avenir,Nunito,Arial,Helvetica,SansSerif" font-size="11.4583" lengthAdjust="spacing" textLength="146.875" x="124.4792" y="301.1902">Name asLowerCaseName()</text><ellipse cx="113.0208" cy="314.0238" fill="#84BE84" rx="3.125" ry="3.125" style="stroke:#038048;stroke-width:1.0416666666666667;"/><text fill="#D8BC00" font-family="Open Sans,Avenir,Nunito,Arial,Helvetica,SansSerif" font-size="11.4583" lengthAdjust="spacing" textLength="125" x="124.4792" y="320.9351">String nameOf(Object)</text><line style="stroke:#5E5E5E;stroke-width:1.0416666666666667;" x1="102.6042" x2="163.0208" y1="277.1149" y2="277.1149"/><text fill="#D8BC00" font-family="Open Sans,Avenir,Nunito,Arial,Helvetica,SansSerif" font-size="11.4583" lengthAdjust="spacing" textLength="50" x="166.1458" y="280.9245">(naming)</text><line style="stroke:#5E5E5E;stroke-width:1.0416666666666667;" x1="219.2708" x2="279.6875" y1="277.1149" y2="277.1149"/><rect codeLine="24" fill="#282828" height="48.055" id="Mixin" rx="8.3333" ry="8.3333" style="stroke:#5E5E5E;stroke-width:1.0416666666666667;" width="72.9167" x="393.2292" y="53.7028"/><rect fill="#1B1B1A" height="31.3883" rx="8.3333" ry="8.3333" style="stroke:#1B1B1A;stroke-width:1.0416666666666667;" width="72.9167" x="393.2292" y="53.7028"/><rect fill="#1B1B1A" height="8.3333" style="stroke:#1B1B1A;stroke-width:1.0416666666666667;" width="72.9167" x="393.2292" y="76.7578"/><rect codeLine="24" fill="none" height="48.055" id="Mixin" rx="8.3333" ry="8.3333" style="stroke:#5E5E5E;stroke-width:1.0416666666666667;" width="72.9167" x="393.2292" y="53.7028"/><ellipse cx="407.8125" cy="69.397" fill="#008400" rx="10.4167" ry="10.4167" style="stroke:#239C23;stroke-width:1.0416666666666667;"/><path d="M405.2165,66.5588 L405.2165,64.9719 L410.6425,64.9719 L410.6425,66.5588 L408.8298,66.5588 L408.8298,72.4976 L410.6425,72.4976 L410.6425,74.0845 L405.2165,74.0845 L405.2165,72.4976 L407.0292,72.4976 L407.0292,66.5588 Z " fill="#000000"/><text fill="#D8BC00" font-family="Open Sans,Avenir,Nunito,Arial,Helvetica,SansSerif" font-size="12.5" font-style="italic" font-weight="bold" lengthAdjust="spacing" textLength="35.4167" x="424.4792" y="74.1211">Mixin</text><line style="stroke:#5E5E5E;stroke-width:1.0416666666666667;" x1="394.2708" x2="465.1042" y1="85.0911" y2="85.0911"/><line style="stroke:#5E5E5E;stroke-width:1.0416666666666667;" x1="394.2708" x2="465.1042" y1="93.4245" y2="93.4245"/><rect codeLine="28" fill="#282828" height="83.3781" id="NameMixin" rx="8.3333" ry="8.3333" style="stroke:#5E5E5E;stroke-width:1.0416666666666667;" width="119.7917" x="343.75" y="205.7861"/><rect fill="#1B1B1A" height="31.3883" rx="8.3333" ry="8.3333" style="stroke:#1B1B1A;stroke-width:1.0416666666666667;" width="119.7917" x="343.75" y="205.7861"/><rect fill="#1B1B1A" height="8.3333" style="stroke:#1B1B1A;stroke-width:1.0416666666666667;" width="119.7917" x="343.75" y="228.8411"/><rect codeLine="28" fill="none" height="83.3781" id="NameMixin" rx="8.3333" ry="8.3333" style="stroke:#5E5E5E;stroke-width:1.0416666666666667;" width="119.7917" x="343.75" y="205.7861"/><ellipse cx="363.0208" cy="221.4803" fill="#008400" rx="10.4167" ry="10.4167" style="stroke:#239C23;stroke-width:1.0416666666666667;"/><path d="M360.4248,218.6422 L360.4248,217.0553 L365.8508,217.0553 L365.8508,218.6422 L364.0381,218.6422 L364.0381,224.5809 L365.8508,224.5809 L365.8508,226.1678 L360.4248,226.1678 L360.4248,224.5809 L362.2375,224.5809 L362.2375,218.6422 Z " fill="#000000"/><text fill="#D8BC00" font-family="Open Sans,Avenir,Nunito,Arial,Helvetica,SansSerif" font-size="12.5" font-style="italic" font-weight="bold" lengthAdjust="spacing" textLength="71.875" x="380.7292" y="226.2044">NameMixin</text><line style="stroke:#5E5E5E;stroke-width:1.5625;" x1="344.7917" x2="462.5" y1="237.1745" y2="237.1745"/><ellipse cx="355.2083" cy="272.5444" fill="#84BE84" rx="3.125" ry="3.125" style="stroke:#038048;stroke-width:1.0416666666666667;"/><text fill="#D8BC00" font-family="Open Sans,Avenir,Nunito,Arial,Helvetica,SansSerif" font-size="11.4583" lengthAdjust="spacing" textLength="87.5" x="366.6667" y="279.4556">Named named()</text><line style="stroke:#5E5E5E;stroke-width:1.0416666666666667;" x1="344.7917" x2="368.2292" y1="255.3802" y2="255.3802"/><text fill="#D8BC00" font-family="Open Sans,Avenir,Nunito,Arial,Helvetica,SansSerif" font-size="11.4583" lengthAdjust="spacing" textLength="64.5833" x="371.3542" y="259.1899">(functional)</text><line style="stroke:#5E5E5E;stroke-width:1.0416666666666667;" x1="439.0625" x2="462.5" y1="255.3802" y2="255.3802"/><path codeLine="11" d="M284.6354,119.932 C274.7708,133.2757 263.4583,148.5778 252.1875,163.8278 " fill="none" id="Named-backto-Name" style="stroke:#545454;stroke-width:1.5625;"/><polygon fill="none" points="278.6875,115.7132,296.9271,103.2861,290.4167,124.3799,278.6875,115.7132" style="stroke:#545454;stroke-width:1.5625;"/><path codeLine="12" d="M90.2188,119.4632 C100.9167,132.9215 113.2188,148.4007 125.4896,163.8278 " fill="none" id="Nameable-backto-Name" style="stroke:#545454;stroke-width:1.5625;"/><polygon fill="none" points="84.5938,124.0986,77.3333,103.2549,96.0104,115.0257,84.5938,124.0986" style="stroke:#545454;stroke-width:1.5625;"/><path codeLine="13" d="M191.1458,124.182 C191.1458,136.4736 191.1458,150.1715 191.1458,163.8278 " fill="none" id="AsString-backto-Name" style="stroke:#545454;stroke-width:1.5625;"/><polygon fill="none" points="183.8542,124.432,191.1458,103.5986,198.4375,124.432,183.8542,124.432" style="stroke:#545454;stroke-width:1.5625;"/><path codeLine="26" d="M337.8438,121.7757 C351.4583,147.5674 368.6667,180.1611 382.0729,205.557 " fill="none" id="Named-backto-NameMixin" style="stroke:#545454;stroke-width:1.5625;"/><polygon fill="none" points="331.4271,125.2445,328.1563,103.4111,344.3229,118.432,331.4271,125.2445" style="stroke:#545454;stroke-width:1.5625;"/><path codeLine="27" d="M422.6354,124.1195 C418.6875,149.5153 413.8125,180.932 409.9896,205.557 " fill="none" id="Mixin-backto-NameMixin" style="stroke:#545454;stroke-width:1.5625;"/><polygon fill="none" points="415.4271,123.0465,425.8229,103.5778,429.8333,125.2861,415.4271,123.0465" style="stroke:#545454;stroke-width:1.5625;"/></g></svg>

