<?xml version="1.0" encoding="UTF-8" standalone="no"?><svg xmlns="http://www.w3.org/2000/svg" xmlns:xlink="http://www.w3.org/1999/xlink" contentScriptType="application/ecmascript" contentStyleType="text/css" height="218.75px" preserveAspectRatio="none" style="width:544px;height:218px;background:#333333;" version="1.1" viewBox="0 0 544 218" width="544.7917px" zoomAndPan="magnify"><defs/><g><rect fill="#48494B" height="41.2028" rx="8.3333" ry="8.3333" style="stroke:#545454;stroke-width:1.0416666666666667;" width="532.2917" x="2.0833" y="2.0833"/><text fill="#C0C0C0" font-family="Open Sans,Avenir,Nunito,Arial,Helvetica,SansSerif" font-size="20.8333" lengthAdjust="spacing" textLength="509.375" x="13.5417" y="30.5583">com.telenav.kivakit.service.registry.internal.lexakai</text><rect codeLine="13" fill="#282828" height="48.055" id="UmlDiagramIdentifier" rx="8.3333" ry="8.3333" style="stroke:#5E5E5E;stroke-width:1.0416666666666667;" width="178.125" x="192.1875" y="53.7028"/><rect fill="#1B1B1A" height="31.3883" rx="8.3333" ry="8.3333" style="stroke:#1B1B1A;stroke-width:1.0416666666666667;" width="178.125" x="192.1875" y="53.7028"/><rect fill="#1B1B1A" height="8.3333" style="stroke:#1B1B1A;stroke-width:1.0416666666666667;" width="178.125" x="192.1875" y="76.7578"/><rect codeLine="13" fill="none" height="48.055" id="UmlDiagramIdentifier" rx="8.3333" ry="8.3333" style="stroke:#5E5E5E;stroke-width:1.0416666666666667;" width="178.125" x="192.1875" y="53.7028"/><ellipse cx="206.7708" cy="69.397" fill="#008400" rx="10.4167" ry="10.4167" style="stroke:#239C23;stroke-width:1.0416666666666667;"/><path d="M204.1748,66.5588 L204.1748,64.9719 L209.6008,64.9719 L209.6008,66.5588 L207.7881,66.5588 L207.7881,72.4976 L209.6008,72.4976 L209.6008,74.0845 L204.1748,74.0845 L204.1748,72.4976 L205.9875,72.4976 L205.9875,66.5588 Z " fill="#000000"/><text fill="#D8BC00" font-family="Open Sans,Avenir,Nunito,Arial,Helvetica,SansSerif" font-size="12.5" font-style="italic" font-weight="bold" lengthAdjust="spacing" textLength="140.625" x="223.4375" y="74.1211">UmlDiagramIdentifier</text><line style="stroke:#5E5E5E;stroke-width:1.0416666666666667;" x1="193.2292" x2="369.2708" y1="85.0911" y2="85.0911"/><line style="stroke:#5E5E5E;stroke-width:1.0416666666666667;" x1="193.2292" x2="369.2708" y1="93.4245" y2="93.4245"/><rect codeLine="9" fill="#282828" height="48.055" id="DiagramRegistry" rx="8.3333" ry="8.3333" style="stroke:#5E5E5E;stroke-width:1.0416666666666667;" width="145.8333" x="123.9583" y="164.1195"/><rect fill="#1B1B1A" height="31.3883" rx="8.3333" ry="8.3333" style="stroke:#1B1B1A;stroke-width:1.0416666666666667;" width="145.8333" x="123.9583" y="164.1195"/><rect fill="#1B1B1A" height="8.3333" style="stroke:#1B1B1A;stroke-width:1.0416666666666667;" width="145.8333" x="123.9583" y="187.1745"/><rect codeLine="9" fill="none" height="48.055" id="DiagramRegistry" rx="8.3333" ry="8.3333" style="stroke:#5E5E5E;stroke-width:1.0416666666666667;" width="145.8333" x="123.9583" y="164.1195"/><ellipse cx="138.5417" cy="179.8136" fill="#008400" rx="10.4167" ry="10.4167" style="stroke:#239C23;stroke-width:1.0416666666666667;"/><path d="M135.9456,176.9755 L135.9456,175.3886 L141.3717,175.3886 L141.3717,176.9755 L139.5589,176.9755 L139.5589,182.9142 L141.3717,182.9142 L141.3717,184.5011 L135.9456,184.5011 L135.9456,182.9142 L137.7584,182.9142 L137.7584,176.9755 Z " fill="#000000"/><text fill="#D8BC00" font-family="Open Sans,Avenir,Nunito,Arial,Helvetica,SansSerif" font-size="12.5" font-style="italic" font-weight="bold" lengthAdjust="spacing" textLength="108.3333" x="155.2083" y="184.5378">DiagramRegistry</text><line style="stroke:#5E5E5E;stroke-width:1.0416666666666667;" x1="125" x2="268.75" y1="195.5078" y2="195.5078"/><line style="stroke:#5E5E5E;stroke-width:1.0416666666666667;" x1="125" x2="268.75" y1="203.8411" y2="203.8411"/><rect codeLine="15" fill="#282828" height="48.055" id="DiagramRest" rx="8.3333" ry="8.3333" style="stroke:#5E5E5E;stroke-width:1.0416666666666667;" width="120.8333" x="306.25" y="164.1195"/><rect fill="#1B1B1A" height="31.3883" rx="8.3333" ry="8.3333" style="stroke:#1B1B1A;stroke-width:1.0416666666666667;" width="120.8333" x="306.25" y="164.1195"/><rect fill="#1B1B1A" height="8.3333" style="stroke:#1B1B1A;stroke-width:1.0416666666666667;" width="120.8333" x="306.25" y="187.1745"/><rect codeLine="15" fill="none" height="48.055" id="DiagramRest" rx="8.3333" ry="8.3333" style="stroke:#5E5E5E;stroke-width:1.0416666666666667;" width="120.8333" x="306.25" y="164.1195"/><ellipse cx="320.8333" cy="179.8136" fill="#008400" rx="10.4167" ry="10.4167" style="stroke:#239C23;stroke-width:1.0416666666666667;"/><path d="M318.2373,176.9755 L318.2373,175.3886 L323.6633,175.3886 L323.6633,176.9755 L321.8506,176.9755 L321.8506,182.9142 L323.6633,182.9142 L323.6633,184.5011 L318.2373,184.5011 L318.2373,182.9142 L320.05,182.9142 L320.05,176.9755 Z " fill="#000000"/><text fill="#D8BC00" font-family="Open Sans,Avenir,Nunito,Arial,Helvetica,SansSerif" font-size="12.5" font-style="italic" font-weight="bold" lengthAdjust="spacing" textLength="83.3333" x="337.5" y="184.5378">DiagramRest</text><line style="stroke:#5E5E5E;stroke-width:1.0416666666666667;" x1="307.2917" x2="426.0417" y1="195.5078" y2="195.5078"/><line style="stroke:#5E5E5E;stroke-width:1.0416666666666667;" x1="307.2917" x2="426.0417" y1="203.8411" y2="203.8411"/><path codeLine="8" d="M250.1875,118.5882 C238.25,133.9215 225.0313,150.8903 214.7396,164.0986 " fill="none" id="UmlDiagramIdentifier-backto-DiagramRegistry" style="stroke:#545454;stroke-width:1.5625;"/><polygon fill="none" points="244.8021,113.6299,263.3542,101.682,256.3125,122.5986,244.8021,113.6299" style="stroke:#545454;stroke-width:1.5625;"/><path codeLine="14" d="M312.3021,118.0882 C324.4896,133.5465 338.0521,150.7445 348.5729,164.0986 " fill="none" id="UmlDiagramIdentifier-backto-DiagramRest" style="stroke:#545454;stroke-width:1.5625;"/><polygon fill="none" points="306.5417,122.557,299.3646,101.682,317.9896,113.5257,306.5417,122.557" style="stroke:#545454;stroke-width:1.5625;"/></g></svg>
