<?xml version="1.0" encoding="UTF-8" standalone="no"?><svg xmlns="http://www.w3.org/2000/svg" xmlns:xlink="http://www.w3.org/1999/xlink" contentScriptType="application/ecmascript" contentStyleType="text/css" height="254.1667px" preserveAspectRatio="none" style="width:1252px;height:254px;background:#333333;" version="1.1" viewBox="0 0 1252 254" width="1252.0833px" zoomAndPan="magnify"><defs/><g><rect fill="#48494B" height="41.2028" rx="8.3333" ry="8.3333" style="stroke:#545454;stroke-width:1.0416666666666667;" width="451.0417" x="393.2292" y="2.0833"/><text fill="#C0C0C0" font-family="Open Sans,Avenir,Nunito,Arial,Helvetica,SansSerif" font-size="20.8333" lengthAdjust="spacing" textLength="428.125" x="404.6875" y="30.5583">com.telenav.kivakit.examples.microservice</text><rect fill="#282828" height="48.055" id="Application" rx="8.3333" ry="8.3333" style="stroke:#5E5E5E;stroke-width:1.0416666666666667;" width="111.4583" x="170.3125" y="53.7028"/><rect fill="#1B1B1A" height="31.3883" rx="8.3333" ry="8.3333" style="stroke:#1B1B1A;stroke-width:1.0416666666666667;" width="111.4583" x="170.3125" y="53.7028"/><rect fill="#1B1B1A" height="8.3333" style="stroke:#1B1B1A;stroke-width:1.0416666666666667;" width="111.4583" x="170.3125" y="76.7578"/><rect fill="none" height="48.055" id="Application" rx="8.3333" ry="8.3333" style="stroke:#5E5E5E;stroke-width:1.0416666666666667;" width="111.4583" x="170.3125" y="53.7028"/><ellipse cx="184.8958" cy="69.397" fill="#0066CF" rx="10.4167" ry="10.4167" style="stroke:#0086EF;stroke-width:1.0416666666666667;"/><path d="M186.8062,73.822 Q186.379,74.0417 185.909,74.1516 Q185.439,74.2615 184.9202,74.2615 Q183.077,74.2615 182.1065,73.0469 Q181.1361,71.8323 181.1361,69.5374 Q181.1361,67.2363 182.1065,66.0217 Q183.077,64.8071 184.9202,64.8071 Q185.439,64.8071 185.9151,64.917 Q186.3912,65.0269 186.8062,65.2466 L186.8062,67.2485 Q186.3424,66.8213 185.906,66.6229 Q185.4696,66.4246 185.0057,66.4246 Q184.0169,66.4246 183.5134,67.2089 Q183.0098,67.9932 183.0098,69.5374 Q183.0098,71.0754 183.5134,71.8597 Q184.0169,72.644 185.0057,72.644 Q185.4696,72.644 185.906,72.4457 Q186.3424,72.2473 186.8062,71.8201 Z " fill="#000000"/><text fill="#D8BC00" font-family="Open Sans,Avenir,Nunito,Arial,Helvetica,SansSerif" font-size="12.5" font-weight="bold" lengthAdjust="spacing" textLength="73.9583" x="201.5625" y="74.1211">Application</text><line style="stroke:#5E5E5E;stroke-width:1.0416666666666667;" x1="171.3542" x2="280.7292" y1="85.0911" y2="85.0911"/><line style="stroke:#5E5E5E;stroke-width:1.0416666666666667;" x1="171.3542" x2="280.7292" y1="93.4245" y2="93.4245"/><rect codeLine="8" fill="#282828" height="67.7999" id="DivisionGrpcClient" rx="8.3333" ry="8.3333" style="stroke:#5E5E5E;stroke-width:1.0416666666666667;" width="200" x="7.2917" y="171.932"/><rect fill="#1B1B1A" height="31.3883" rx="8.3333" ry="8.3333" style="stroke:#1B1B1A;stroke-width:1.0416666666666667;" width="200" x="7.2917" y="171.932"/><rect fill="#1B1B1A" height="8.3333" style="stroke:#1B1B1A;stroke-width:1.0416666666666667;" width="200" x="7.2917" y="194.987"/><rect codeLine="8" fill="none" height="67.7999" id="DivisionGrpcClient" rx="8.3333" ry="8.3333" style="stroke:#5E5E5E;stroke-width:1.0416666666666667;" width="200" x="7.2917" y="171.932"/><ellipse cx="40.1563" cy="187.6261" fill="#0066CF" rx="10.4167" ry="10.4167" style="stroke:#0086EF;stroke-width:1.0416666666666667;"/><path d="M42.0667,192.0512 Q41.6394,192.2709 41.1694,192.3808 Q40.6995,192.4906 40.1807,192.4906 Q38.3374,192.4906 37.3669,191.276 Q36.3965,190.0614 36.3965,187.7665 Q36.3965,185.4655 37.3669,184.2509 Q38.3374,183.0363 40.1807,183.0363 Q40.6995,183.0363 41.1755,183.1462 Q41.6516,183.256 42.0667,183.4757 L42.0667,185.4777 Q41.6028,185.0505 41.1664,184.8521 Q40.73,184.6537 40.2661,184.6537 Q39.2773,184.6537 38.7738,185.438 Q38.2703,186.2223 38.2703,187.7665 Q38.2703,189.3046 38.7738,190.0889 Q39.2773,190.8732 40.2661,190.8732 Q40.73,190.8732 41.1664,190.6748 Q41.6028,190.4765 42.0667,190.0492 Z " fill="#000000"/><text fill="#D8BC00" font-family="Open Sans,Avenir,Nunito,Arial,Helvetica,SansSerif" font-size="12.5" font-weight="bold" lengthAdjust="spacing" textLength="121.875" x="60.8854" y="192.3503">DivisionGrpcClient</text><line style="stroke:#5E5E5E;stroke-width:1.5625;" x1="8.3333" x2="206.25" y1="203.3203" y2="203.3203"/><line style="stroke:#5E5E5E;stroke-width:1.0416666666666667;" x1="8.3333" x2="206.25" y1="211.6536" y2="211.6536"/><ellipse cx="18.75" cy="223.112" fill="#84BE84" rx="3.125" ry="3.125" style="stroke:#038048;stroke-width:1.0416666666666667;"/><text fill="#D8BC00" font-family="Open Sans,Avenir,Nunito,Arial,Helvetica,SansSerif" font-size="11.4583" lengthAdjust="spacing" textLength="167.7083" x="30.2083" y="230.0232">void main(String[] arguments)</text><rect fill="#282828" height="48.055" id="MicroserviceGrpcService" rx="8.3333" ry="8.3333" style="stroke:#5E5E5E;stroke-width:1.0416666666666667;" width="191.6667" x="508.3333" y="53.7028"/><rect fill="#1B1B1A" height="31.3883" rx="8.3333" ry="8.3333" style="stroke:#1B1B1A;stroke-width:1.0416666666666667;" width="191.6667" x="508.3333" y="53.7028"/><rect fill="#1B1B1A" height="8.3333" style="stroke:#1B1B1A;stroke-width:1.0416666666666667;" width="191.6667" x="508.3333" y="76.7578"/><rect fill="none" height="48.055" id="MicroserviceGrpcService" rx="8.3333" ry="8.3333" style="stroke:#5E5E5E;stroke-width:1.0416666666666667;" width="191.6667" x="508.3333" y="53.7028"/><ellipse cx="522.9167" cy="69.397" fill="#0066CF" rx="10.4167" ry="10.4167" style="stroke:#0086EF;stroke-width:1.0416666666666667;"/><path d="M524.8271,73.822 Q524.3998,74.0417 523.9299,74.1516 Q523.4599,74.2615 522.9411,74.2615 Q521.0978,74.2615 520.1274,73.0469 Q519.1569,71.8323 519.1569,69.5374 Q519.1569,67.2363 520.1274,66.0217 Q521.0978,64.8071 522.9411,64.8071 Q523.4599,64.8071 523.936,64.917 Q524.412,65.0269 524.8271,65.2466 L524.8271,67.2485 Q524.3632,66.8213 523.9268,66.6229 Q523.4904,66.4246 523.0265,66.4246 Q522.0378,66.4246 521.5342,67.2089 Q521.0307,67.9932 521.0307,69.5374 Q521.0307,71.0754 521.5342,71.8597 Q522.0378,72.644 523.0265,72.644 Q523.4904,72.644 523.9268,72.4457 Q524.3632,72.2473 524.8271,71.8201 Z " fill="#000000"/><text fill="#D8BC00" font-family="Open Sans,Avenir,Nunito,Arial,Helvetica,SansSerif" font-size="12.5" font-weight="bold" lengthAdjust="spacing" textLength="154.1667" x="539.5833" y="74.1211">MicroserviceGrpcService</text><line style="stroke:#5E5E5E;stroke-width:1.0416666666666667;" x1="509.375" x2="698.9583" y1="85.0911" y2="85.0911"/><line style="stroke:#5E5E5E;stroke-width:1.0416666666666667;" x1="509.375" x2="698.9583" y1="93.4245" y2="93.4245"/><rect codeLine="15" fill="#282828" height="83.3781" id="DivisionGrpcService" rx="8.3333" ry="8.3333" style="stroke:#5E5E5E;stroke-width:1.0416666666666667;" width="246.875" x="480.7292" y="164.1195"/><rect fill="#1B1B1A" height="31.3883" rx="8.3333" ry="8.3333" style="stroke:#1B1B1A;stroke-width:1.0416666666666667;" width="246.875" x="480.7292" y="164.1195"/><rect fill="#1B1B1A" height="8.3333" style="stroke:#1B1B1A;stroke-width:1.0416666666666667;" width="246.875" x="480.7292" y="187.1745"/><rect codeLine="15" fill="none" height="83.3781" id="DivisionGrpcService" rx="8.3333" ry="8.3333" style="stroke:#5E5E5E;stroke-width:1.0416666666666667;" width="246.875" x="480.7292" y="164.1195"/><ellipse cx="532.8125" cy="179.8136" fill="#0066CF" rx="10.4167" ry="10.4167" style="stroke:#0086EF;stroke-width:1.0416666666666667;"/><path d="M534.7229,184.2387 Q534.2957,184.4584 533.8257,184.5683 Q533.3557,184.6781 532.8369,184.6781 Q530.9937,184.6781 530.0232,183.4635 Q529.0527,182.2489 529.0527,179.954 Q529.0527,177.653 530.0232,176.4384 Q530.9937,175.2238 532.8369,175.2238 Q533.3557,175.2238 533.8318,175.3337 Q534.3079,175.4435 534.7229,175.6632 L534.7229,177.6652 Q534.259,177.238 533.8226,177.0396 Q533.3862,176.8412 532.9224,176.8412 Q531.9336,176.8412 531.4301,177.6255 Q530.9265,178.4098 530.9265,179.954 Q530.9265,181.4921 531.4301,182.2764 Q531.9336,183.0607 532.9224,183.0607 Q533.3862,183.0607 533.8226,182.8623 Q534.259,182.664 534.7229,182.2367 Z " fill="#000000"/><text fill="#D8BC00" font-family="Open Sans,Avenir,Nunito,Arial,Helvetica,SansSerif" font-size="12.5" font-weight="bold" lengthAdjust="spacing" textLength="128.125" x="555.7292" y="184.5378">DivisionGrpcService</text><line style="stroke:#5E5E5E;stroke-width:1.5625;" x1="481.7708" x2="726.5625" y1="195.5078" y2="195.5078"/><ellipse cx="492.1875" cy="230.8777" fill="#84BE84" rx="3.125" ry="3.125" style="stroke:#038048;stroke-width:1.0416666666666667;"/><text fill="#D8BC00" font-family="Open Sans,Avenir,Nunito,Arial,Helvetica,SansSerif" font-size="11.4583" lengthAdjust="spacing" textLength="214.5833" x="503.6458" y="237.7889">DivisionGrpcService(Microservice&lt;?&gt;)</text><line style="stroke:#5E5E5E;stroke-width:1.0416666666666667;" x1="481.7708" x2="560.4167" y1="213.7136" y2="213.7136"/><text fill="#D8BC00" font-family="Open Sans,Avenir,Nunito,Arial,Helvetica,SansSerif" font-size="11.4583" lengthAdjust="spacing" textLength="81.25" x="563.5417" y="217.5232">(constructors)</text><line style="stroke:#5E5E5E;stroke-width:1.0416666666666667;" x1="647.9167" x2="726.5625" y1="213.7136" y2="213.7136"/><rect fill="#282828" height="48.055" id="Microservice" rx="8.3333" ry="8.3333" style="stroke:#5E5E5E;stroke-width:1.0416666666666667;" width="117.7083" x="805.7292" y="53.7028"/><rect fill="#1B1B1A" height="31.3883" rx="8.3333" ry="8.3333" style="stroke:#1B1B1A;stroke-width:1.0416666666666667;" width="117.7083" x="805.7292" y="53.7028"/><rect fill="#1B1B1A" height="8.3333" style="stroke:#1B1B1A;stroke-width:1.0416666666666667;" width="117.7083" x="805.7292" y="76.7578"/><rect fill="none" height="48.055" id="Microservice" rx="8.3333" ry="8.3333" style="stroke:#5E5E5E;stroke-width:1.0416666666666667;" width="117.7083" x="805.7292" y="53.7028"/><ellipse cx="820.3125" cy="69.397" fill="#0066CF" rx="10.4167" ry="10.4167" style="stroke:#0086EF;stroke-width:1.0416666666666667;"/><path d="M822.2229,73.822 Q821.7957,74.0417 821.3257,74.1516 Q820.8557,74.2615 820.3369,74.2615 Q818.4937,74.2615 817.5232,73.0469 Q816.5527,71.8323 816.5527,69.5374 Q816.5527,67.2363 817.5232,66.0217 Q818.4937,64.8071 820.3369,64.8071 Q820.8557,64.8071 821.3318,64.917 Q821.8079,65.0269 822.2229,65.2466 L822.2229,67.2485 Q821.759,66.8213 821.3226,66.6229 Q820.8862,66.4246 820.4224,66.4246 Q819.4336,66.4246 818.9301,67.2089 Q818.4265,67.9932 818.4265,69.5374 Q818.4265,71.0754 818.9301,71.8597 Q819.4336,72.644 820.4224,72.644 Q820.8862,72.644 821.3226,72.4457 Q821.759,72.2473 822.2229,71.8201 Z " fill="#000000"/><text fill="#D8BC00" font-family="Open Sans,Avenir,Nunito,Arial,Helvetica,SansSerif" font-size="12.5" font-weight="bold" lengthAdjust="spacing" textLength="80.2083" x="836.9792" y="74.1211">Microservice</text><line style="stroke:#5E5E5E;stroke-width:1.0416666666666667;" x1="806.7708" x2="922.3958" y1="85.0911" y2="85.0911"/><line style="stroke:#5E5E5E;stroke-width:1.0416666666666667;" x1="806.7708" x2="922.3958" y1="93.4245" y2="93.4245"/><rect codeLine="22" fill="#282828" height="67.7999" id="DivisionMicroservice" rx="8.3333" ry="8.3333" style="stroke:#5E5E5E;stroke-width:1.0416666666666667;" width="200" x="764.5833" y="171.932"/><rect fill="#1B1B1A" height="31.3883" rx="8.3333" ry="8.3333" style="stroke:#1B1B1A;stroke-width:1.0416666666666667;" width="200" x="764.5833" y="171.932"/><rect fill="#1B1B1A" height="8.3333" style="stroke:#1B1B1A;stroke-width:1.0416666666666667;" width="200" x="764.5833" y="194.987"/><rect codeLine="22" fill="none" height="67.7999" id="DivisionMicroservice" rx="8.3333" ry="8.3333" style="stroke:#5E5E5E;stroke-width:1.0416666666666667;" width="200" x="764.5833" y="171.932"/><ellipse cx="791.8229" cy="187.6261" fill="#0066CF" rx="10.4167" ry="10.4167" style="stroke:#0086EF;stroke-width:1.0416666666666667;"/><path d="M793.7333,192.0512 Q793.3061,192.2709 792.8361,192.3808 Q792.3661,192.4906 791.8473,192.4906 Q790.0041,192.4906 789.0336,191.276 Q788.0632,190.0614 788.0632,187.7665 Q788.0632,185.4655 789.0336,184.2509 Q790.0041,183.0363 791.8473,183.0363 Q792.3661,183.0363 792.8422,183.1462 Q793.3183,183.256 793.7333,183.4757 L793.7333,185.4777 Q793.2694,185.0505 792.833,184.8521 Q792.3966,184.6537 791.9328,184.6537 Q790.944,184.6537 790.4405,185.438 Q789.9369,186.2223 789.9369,187.7665 Q789.9369,189.3046 790.4405,190.0889 Q790.944,190.8732 791.9328,190.8732 Q792.3966,190.8732 792.833,190.6748 Q793.2694,190.4765 793.7333,190.0492 Z " fill="#000000"/><text fill="#D8BC00" font-family="Open Sans,Avenir,Nunito,Arial,Helvetica,SansSerif" font-size="12.5" font-weight="bold" lengthAdjust="spacing" textLength="134.375" x="811.3021" y="192.3503">DivisionMicroservice</text><line style="stroke:#5E5E5E;stroke-width:1.5625;" x1="765.625" x2="963.5417" y1="203.3203" y2="203.3203"/><line style="stroke:#5E5E5E;stroke-width:1.0416666666666667;" x1="765.625" x2="963.5417" y1="211.6536" y2="211.6536"/><ellipse cx="776.0417" cy="223.112" fill="#84BE84" rx="3.125" ry="3.125" style="stroke:#038048;stroke-width:1.0416666666666667;"/><text fill="#D8BC00" font-family="Open Sans,Avenir,Nunito,Arial,Helvetica,SansSerif" font-size="11.4583" lengthAdjust="spacing" textLength="167.7083" x="787.5" y="230.0232">void main(String[] arguments)</text><rect codeLine="29" fill="#282828" height="67.7999" id="DivisionRestClient" rx="8.3333" ry="8.3333" style="stroke:#5E5E5E;stroke-width:1.0416666666666667;" width="200" x="243.75" y="171.932"/><rect fill="#1B1B1A" height="31.3883" rx="8.3333" ry="8.3333" style="stroke:#1B1B1A;stroke-width:1.0416666666666667;" width="200" x="243.75" y="171.932"/><rect fill="#1B1B1A" height="8.3333" style="stroke:#1B1B1A;stroke-width:1.0416666666666667;" width="200" x="243.75" y="194.987"/><rect codeLine="29" fill="none" height="67.7999" id="DivisionRestClient" rx="8.3333" ry="8.3333" style="stroke:#5E5E5E;stroke-width:1.0416666666666667;" width="200" x="243.75" y="171.932"/><ellipse cx="277.0833" cy="187.6261" fill="#0066CF" rx="10.4167" ry="10.4167" style="stroke:#0086EF;stroke-width:1.0416666666666667;"/><path d="M278.9937,192.0512 Q278.5665,192.2709 278.0965,192.3808 Q277.6265,192.4906 277.1077,192.4906 Q275.2645,192.4906 274.294,191.276 Q273.3236,190.0614 273.3236,187.7665 Q273.3236,185.4655 274.294,184.2509 Q275.2645,183.0363 277.1077,183.0363 Q277.6265,183.0363 278.1026,183.1462 Q278.5787,183.256 278.9937,183.4757 L278.9937,185.4777 Q278.5299,185.0505 278.0935,184.8521 Q277.6571,184.6537 277.1932,184.6537 Q276.2044,184.6537 275.7009,185.438 Q275.1973,186.2223 275.1973,187.7665 Q275.1973,189.3046 275.7009,190.0889 Q276.2044,190.8732 277.1932,190.8732 Q277.6571,190.8732 278.0935,190.6748 Q278.5299,190.4765 278.9937,190.0492 Z " fill="#000000"/><text fill="#D8BC00" font-family="Open Sans,Avenir,Nunito,Arial,Helvetica,SansSerif" font-size="12.5" font-weight="bold" lengthAdjust="spacing" textLength="120.8333" x="297.9167" y="192.3503">DivisionRestClient</text><line style="stroke:#5E5E5E;stroke-width:1.5625;" x1="244.7917" x2="442.7083" y1="203.3203" y2="203.3203"/><line style="stroke:#5E5E5E;stroke-width:1.0416666666666667;" x1="244.7917" x2="442.7083" y1="211.6536" y2="211.6536"/><ellipse cx="255.2083" cy="223.112" fill="#84BE84" rx="3.125" ry="3.125" style="stroke:#038048;stroke-width:1.0416666666666667;"/><text fill="#D8BC00" font-family="Open Sans,Avenir,Nunito,Arial,Helvetica,SansSerif" font-size="11.4583" lengthAdjust="spacing" textLength="167.7083" x="266.6667" y="230.0232">void main(String[] arguments)</text><rect fill="#282828" height="48.055" id="RestService" rx="8.3333" ry="8.3333" style="stroke:#5E5E5E;stroke-width:1.0416666666666667;" width="110.4167" x="1067.7083" y="53.7028"/><rect fill="#1B1B1A" height="31.3883" rx="8.3333" ry="8.3333" style="stroke:#1B1B1A;stroke-width:1.0416666666666667;" width="110.4167" x="1067.7083" y="53.7028"/><rect fill="#1B1B1A" height="8.3333" style="stroke:#1B1B1A;stroke-width:1.0416666666666667;" width="110.4167" x="1067.7083" y="76.7578"/><rect fill="none" height="48.055" id="RestService" rx="8.3333" ry="8.3333" style="stroke:#5E5E5E;stroke-width:1.0416666666666667;" width="110.4167" x="1067.7083" y="53.7028"/><ellipse cx="1082.2917" cy="69.397" fill="#0066CF" rx="10.4167" ry="10.4167" style="stroke:#0086EF;stroke-width:1.0416666666666667;"/><path d="M1084.2021,73.822 Q1083.7748,74.0417 1083.3049,74.1516 Q1082.8349,74.2615 1082.3161,74.2615 Q1080.4728,74.2615 1079.5024,73.0469 Q1078.5319,71.8323 1078.5319,69.5374 Q1078.5319,67.2363 1079.5024,66.0217 Q1080.4728,64.8071 1082.3161,64.8071 Q1082.8349,64.8071 1083.311,64.917 Q1083.787,65.0269 1084.2021,65.2466 L1084.2021,67.2485 Q1083.7382,66.8213 1083.3018,66.6229 Q1082.8654,66.4246 1082.4015,66.4246 Q1081.4128,66.4246 1080.9092,67.2089 Q1080.4057,67.9932 1080.4057,69.5374 Q1080.4057,71.0754 1080.9092,71.8597 Q1081.4128,72.644 1082.4015,72.644 Q1082.8654,72.644 1083.3018,72.4457 Q1083.7382,72.2473 1084.2021,71.8201 Z " fill="#000000"/><text fill="#D8BC00" font-family="Open Sans,Avenir,Nunito,Arial,Helvetica,SansSerif" font-size="12.5" font-weight="bold" lengthAdjust="spacing" textLength="72.9167" x="1098.9583" y="74.1211">RestService</text><line style="stroke:#5E5E5E;stroke-width:1.0416666666666667;" x1="1068.75" x2="1177.0833" y1="85.0911" y2="85.0911"/><line style="stroke:#5E5E5E;stroke-width:1.0416666666666667;" x1="1068.75" x2="1177.0833" y1="93.4245" y2="93.4245"/><rect codeLine="36" fill="#282828" height="83.3781" id="DivisionRestService" rx="8.3333" ry="8.3333" style="stroke:#5E5E5E;stroke-width:1.0416666666666667;" width="243.75" x="1001.0417" y="164.1195"/><rect fill="#1B1B1A" height="31.3883" rx="8.3333" ry="8.3333" style="stroke:#1B1B1A;stroke-width:1.0416666666666667;" width="243.75" x="1001.0417" y="164.1195"/><rect fill="#1B1B1A" height="8.3333" style="stroke:#1B1B1A;stroke-width:1.0416666666666667;" width="243.75" x="1001.0417" y="187.1745"/><rect codeLine="36" fill="none" height="83.3781" id="DivisionRestService" rx="8.3333" ry="8.3333" style="stroke:#5E5E5E;stroke-width:1.0416666666666667;" width="243.75" x="1001.0417" y="164.1195"/><ellipse cx="1052.0833" cy="179.8136" fill="#0066CF" rx="10.4167" ry="10.4167" style="stroke:#0086EF;stroke-width:1.0416666666666667;"/><path d="M1053.9937,184.2387 Q1053.5665,184.4584 1053.0965,184.5683 Q1052.6265,184.6781 1052.1077,184.6781 Q1050.2645,184.6781 1049.294,183.4635 Q1048.3236,182.2489 1048.3236,179.954 Q1048.3236,177.653 1049.294,176.4384 Q1050.2645,175.2238 1052.1077,175.2238 Q1052.6265,175.2238 1053.1026,175.3337 Q1053.5787,175.4435 1053.9937,175.6632 L1053.9937,177.6652 Q1053.5299,177.238 1053.0935,177.0396 Q1052.6571,176.8412 1052.1932,176.8412 Q1051.2044,176.8412 1050.7009,177.6255 Q1050.1973,178.4098 1050.1973,179.954 Q1050.1973,181.4921 1050.7009,182.2764 Q1051.2044,183.0607 1052.1932,183.0607 Q1052.6571,183.0607 1053.0935,182.8623 Q1053.5299,182.664 1053.9937,182.2367 Z " fill="#000000"/><text fill="#D8BC00" font-family="Open Sans,Avenir,Nunito,Arial,Helvetica,SansSerif" font-size="12.5" font-weight="bold" lengthAdjust="spacing" textLength="127.0833" x="1075" y="184.5378">DivisionRestService</text><line style="stroke:#5E5E5E;stroke-width:1.5625;" x1="1002.0833" x2="1243.75" y1="195.5078" y2="195.5078"/><ellipse cx="1012.5" cy="230.8777" fill="#84BE84" rx="3.125" ry="3.125" style="stroke:#038048;stroke-width:1.0416666666666667;"/><text fill="#D8BC00" font-family="Open Sans,Avenir,Nunito,Arial,Helvetica,SansSerif" font-size="11.4583" lengthAdjust="spacing" textLength="211.4583" x="1023.9583" y="237.7889">DivisionRestService(Microservice&lt;?&gt;)</text><line style="stroke:#5E5E5E;stroke-width:1.0416666666666667;" x1="1002.0833" x2="1079.1667" y1="213.7136" y2="213.7136"/><text fill="#D8BC00" font-family="Open Sans,Avenir,Nunito,Arial,Helvetica,SansSerif" font-size="11.4583" lengthAdjust="spacing" textLength="81.25" x="1082.2917" y="217.5232">(constructors)</text><line style="stroke:#5E5E5E;stroke-width:1.0416666666666667;" x1="1166.6667" x2="1243.75" y1="213.7136" y2="213.7136"/><path codeLine="7" d="M189.8333,117.1299 C173.3854,134.5986 154.1146,155.057 138.3229,171.807 " fill="none" id="Application-backto-DivisionGrpcClient" style="stroke:#545454;stroke-width:1.5625;"/><polygon fill="none" points="184.6667,111.984,204.2604,101.8174,195.2813,121.984,184.6667,111.984" style="stroke:#545454;stroke-width:1.5625;"/><path codeLine="14" d="M604.1667,122.682 C604.1667,136.0778 604.1667,150.7445 604.1667,163.9215 " fill="none" id="MicroserviceGrpcService-backto-DivisionGrpcService" style="stroke:#545454;stroke-width:1.5625;"/><polygon fill="none" points="596.875,122.6507,604.1667,101.8174,611.4583,122.6507,596.875,122.6507" style="stroke:#545454;stroke-width:1.5625;"/><path codeLine="21" d="M864.5833,122.8695 C864.5833,138.9632 864.5833,156.859 864.5833,171.807 " fill="none" id="Microservice-backto-DivisionMicroservice" style="stroke:#545454;stroke-width:1.5625;"/><polygon fill="none" points="857.2917,122.6507,864.5833,101.8174,871.875,122.6507,857.2917,122.6507" style="stroke:#545454;stroke-width:1.5625;"/><path codeLine="28" d="M261.9271,117.1299 C278.2396,134.5986 297.3438,155.057 312.9896,171.807 " fill="none" id="Application-backto-DivisionRestClient" style="stroke:#545454;stroke-width:1.5625;"/><polygon fill="none" points="256.5208,122.0257,247.6354,101.8174,267.1771,112.0674,256.5208,122.0257" style="stroke:#545454;stroke-width:1.5625;"/><path codeLine="35" d="M1122.9167,122.682 C1122.9167,136.0778 1122.9167,150.7445 1122.9167,163.9215 " fill="none" id="RestService-backto-DivisionRestService" style="stroke:#545454;stroke-width:1.5625;"/><polygon fill="none" points="1115.625,122.6507,1122.9167,101.8174,1130.2083,122.6507,1115.625,122.6507" style="stroke:#545454;stroke-width:1.5625;"/></g></svg>
