<?xml version="1.0" encoding="UTF-8" standalone="no"?><svg xmlns="http://www.w3.org/2000/svg" xmlns:xlink="http://www.w3.org/1999/xlink" contentScriptType="application/ecmascript" contentStyleType="text/css" height="1228.125px" preserveAspectRatio="none" style="width:950px;height:1228px;background:#333333;" version="1.1" viewBox="0 0 950 1228" width="950px" zoomAndPan="magnify"><defs/><g><rect fill="#48494B" height="41.2028" rx="8.3333" ry="8.3333" style="stroke:#545454;stroke-width:1.0416666666666667;" width="189.5833" x="372.9167" y="2.0833"/><text fill="#C0C0C0" font-family="Open Sans,Avenir,Nunito,Arial,Helvetica,SansSerif" font-size="20.8333" lengthAdjust="spacing" textLength="166.6667" x="384.375" y="30.5583">Type Conversion</text><rect codeLine="16" fill="#282828" height="174.8576" id="BaseConverter" rx="8.3333" ry="8.3333" style="stroke:#5E5E5E;stroke-width:1.0416666666666667;" width="338.5417" x="9.375" y="393.2861"/><rect fill="#1B1B1A" height="31.3883" rx="8.3333" ry="8.3333" style="stroke:#1B1B1A;stroke-width:1.0416666666666667;" width="338.5417" x="9.375" y="393.2861"/><rect fill="#1B1B1A" height="8.3333" style="stroke:#1B1B1A;stroke-width:1.0416666666666667;" width="338.5417" x="9.375" y="416.3411"/><rect codeLine="16" fill="none" height="174.8576" id="BaseConverter" rx="8.3333" ry="8.3333" style="stroke:#5E5E5E;stroke-width:1.0416666666666667;" width="338.5417" x="9.375" y="393.2861"/><ellipse cx="90.625" cy="408.9803" fill="#C8AC00" rx="10.4167" ry="10.4167" style="stroke:#D8BC00;stroke-width:1.0416666666666667;"/><path d="M90.2181,405.6824 L89.3697,409.4116 L91.0726,409.4116 Z M89.1195,404.0344 L91.3228,404.0344 L93.7826,413.147 L91.982,413.147 L91.4205,410.8948 L89.0096,410.8948 L88.4603,413.147 L86.6597,413.147 Z " fill="#000000"/><text fill="#D8BC00" font-family="Open Sans,Avenir,Nunito,Arial,Helvetica,SansSerif" font-size="12.5" font-style="italic" font-weight="bold" lengthAdjust="spacing" textLength="93.75" x="113.5417" y="413.7044">BaseConverter</text><rect fill="#333333" height="23.055" style="stroke:#A0A0A0;stroke-width:1.0416666666666667;stroke-dasharray:2.0,2.0;" width="65.625" x="285.4167" y="390.1611"/><text fill="#A0A0A0" font-family="Open Sans,Avenir,Nunito,Arial,Helvetica,SansSerif" font-size="12.5" font-weight="bold" lengthAdjust="spacing" textLength="57.2917" x="289.5833" y="406.4128">From, To</text><line style="stroke:#5E5E5E;stroke-width:1.5625;" x1="10.4167" x2="346.875" y1="424.6745" y2="424.6745"/><polygon fill="#FFFF44" points="20.8333,454.836,25,459.0027,20.8333,463.1694,16.6667,459.0027" style="stroke:#B38D22;stroke-width:1.0416666666666667;"/><text fill="#D8BC00" font-family="Open Sans,Avenir,Nunito,Arial,Helvetica,SansSerif" font-size="11.4583" lengthAdjust="spacing" textLength="134.375" x="32.2917" y="466.9556">BaseConverter(Listener)</text><line style="stroke:#5E5E5E;stroke-width:1.0416666666666667;" x1="10.4167" x2="134.8958" y1="442.8802" y2="442.8802"/><text fill="#D8BC00" font-family="Open Sans,Avenir,Nunito,Arial,Helvetica,SansSerif" font-size="11.4583" lengthAdjust="spacing" textLength="81.25" x="138.0208" y="446.6899">(constructors)</text><line style="stroke:#5E5E5E;stroke-width:1.0416666666666667;" x1="222.3958" x2="346.875" y1="442.8802" y2="442.8802"/><line style="stroke:#5E5E5E;stroke-width:1.0416666666666667;" x1="10.4167" x2="346.875" y1="476.6642" y2="476.6642"/><ellipse cx="20.8333" cy="488.1226" fill="#84BE84" rx="3.125" ry="3.125" style="stroke:#038048;stroke-width:1.0416666666666667;"/><text fill="#D8BC00" font-family="Open Sans,Avenir,Nunito,Arial,Helvetica,SansSerif" font-size="11.4583" lengthAdjust="spacing" textLength="306.25" x="32.2917" y="495.0338">BaseConverter&lt;From,To&gt; allowNull(boolean allowNull)</text><ellipse cx="20.8333" cy="507.8674" fill="#84BE84" rx="3.125" ry="3.125" style="stroke:#038048;stroke-width:1.0416666666666667;"/><text fill="#D8BC00" font-family="Open Sans,Avenir,Nunito,Arial,Helvetica,SansSerif" font-size="11.4583" lengthAdjust="spacing" textLength="112.5" x="32.2917" y="514.7786">boolean allowsNull()</text><polygon fill="#FFFF44" points="20.8333,546.3155,25,550.4822,20.8333,554.6488,16.6667,550.4822" style="stroke:#B38D22;stroke-width:1.0416666666666667;"/><text fill="#D8BC00" font-family="Open Sans,Avenir,Nunito,Arial,Helvetica,SansSerif" font-size="11.4583" lengthAdjust="spacing" textLength="146.875" x="32.2917" y="558.4351">To onConvert(From value)</text><line style="stroke:#5E5E5E;stroke-width:1.0416666666666667;" x1="10.4167" x2="124.4792" y1="534.3597" y2="534.3597"/><text fill="#D8BC00" font-family="Open Sans,Avenir,Nunito,Arial,Helvetica,SansSerif" font-size="11.4583" lengthAdjust="spacing" textLength="102.0833" x="127.6042" y="538.1694">(extension points)</text><line style="stroke:#5E5E5E;stroke-width:1.0416666666666667;" x1="232.8125" x2="346.875" y1="534.3597" y2="534.3597"/><rect codeLine="8" fill="#282828" height="48.055" id="BaseRepeater" rx="8.3333" ry="8.3333" style="stroke:#5E5E5E;stroke-width:1.0416666666666667;" width="123.9583" x="116.6667" y="223.4945"/><rect fill="#1B1B1A" height="31.3883" rx="8.3333" ry="8.3333" style="stroke:#1B1B1A;stroke-width:1.0416666666666667;" width="123.9583" x="116.6667" y="223.4945"/><rect fill="#1B1B1A" height="8.3333" style="stroke:#1B1B1A;stroke-width:1.0416666666666667;" width="123.9583" x="116.6667" y="246.5495"/><rect codeLine="8" fill="none" height="48.055" id="BaseRepeater" rx="8.3333" ry="8.3333" style="stroke:#5E5E5E;stroke-width:1.0416666666666667;" width="123.9583" x="116.6667" y="223.4945"/><ellipse cx="131.25" cy="239.1886" fill="#C8AC00" rx="10.4167" ry="10.4167" style="stroke:#D8BC00;stroke-width:1.0416666666666667;"/><path d="M130.8431,235.8907 L129.9947,239.62 L131.6976,239.62 Z M129.7445,234.2428 L131.9478,234.2428 L134.4076,243.3553 L132.607,243.3553 L132.0455,241.1031 L129.6346,241.1031 L129.0853,243.3553 L127.2847,243.3553 Z " fill="#000000"/><text fill="#D8BC00" font-family="Open Sans,Avenir,Nunito,Arial,Helvetica,SansSerif" font-size="12.5" font-style="italic" font-weight="bold" lengthAdjust="spacing" textLength="86.4583" x="147.9167" y="243.9128">BaseRepeater</text><line style="stroke:#5E5E5E;stroke-width:1.0416666666666667;" x1="117.7083" x2="239.5833" y1="254.8828" y2="254.8828"/><line style="stroke:#5E5E5E;stroke-width:1.0416666666666667;" x1="117.7083" x2="239.5833" y1="263.2161" y2="263.2161"/><rect codeLine="92" fill="#282828" height="87.5448" id="TwoWayConverter" rx="8.3333" ry="8.3333" style="stroke:#5E5E5E;stroke-width:1.0416666666666667;" width="279.1667" x="384.8958" y="437.0361"/><rect fill="#1B1B1A" height="31.3883" rx="8.3333" ry="8.3333" style="stroke:#1B1B1A;stroke-width:1.0416666666666667;" width="279.1667" x="384.8958" y="437.0361"/><rect fill="#1B1B1A" height="8.3333" style="stroke:#1B1B1A;stroke-width:1.0416666666666667;" width="279.1667" x="384.8958" y="460.0911"/><rect codeLine="92" fill="none" height="87.5448" id="TwoWayConverter" rx="8.3333" ry="8.3333" style="stroke:#5E5E5E;stroke-width:1.0416666666666667;" width="279.1667" x="384.8958" y="437.0361"/><ellipse cx="425.2604" cy="452.7303" fill="#008400" rx="10.4167" ry="10.4167" style="stroke:#239C23;stroke-width:1.0416666666666667;"/><path d="M422.6644,449.8922 L422.6644,448.3053 L428.0904,448.3053 L428.0904,449.8922 L426.2777,449.8922 L426.2777,455.8309 L428.0904,455.8309 L428.0904,457.4178 L422.6644,457.4178 L422.6644,455.8309 L424.4771,455.8309 L424.4771,449.8922 Z " fill="#000000"/><text fill="#D8BC00" font-family="Open Sans,Avenir,Nunito,Arial,Helvetica,SansSerif" font-size="12.5" font-style="italic" font-weight="bold" lengthAdjust="spacing" textLength="116.6667" x="447.6563" y="457.4544">TwoWayConverter</text><rect fill="#333333" height="23.055" style="stroke:#A0A0A0;stroke-width:1.0416666666666667;stroke-dasharray:2.0,2.0;" width="65.625" x="601.5625" y="433.9111"/><text fill="#A0A0A0" font-family="Open Sans,Avenir,Nunito,Arial,Helvetica,SansSerif" font-size="12.5" font-weight="bold" lengthAdjust="spacing" textLength="57.2917" x="605.7292" y="450.1628">From, To</text><line style="stroke:#5E5E5E;stroke-width:1.5625;" x1="385.9375" x2="663.0208" y1="468.4245" y2="468.4245"/><line style="stroke:#5E5E5E;stroke-width:1.0416666666666667;" x1="385.9375" x2="663.0208" y1="476.7578" y2="476.7578"/><ellipse cx="396.3542" cy="488.2161" fill="#84BE84" rx="3.125" ry="3.125" style="stroke:#038048;stroke-width:1.0416666666666667;"/><text fill="#D8BC00" font-family="Open Sans,Avenir,Nunito,Arial,Helvetica,SansSerif" font-size="11.4583" lengthAdjust="spacing" textLength="112.5" x="407.8125" y="495.1274">From unconvert(To)</text><ellipse cx="396.3542" cy="507.961" fill="#84BE84" rx="3.125" ry="3.125" style="stroke:#038048;stroke-width:1.0416666666666667;"/><text fill="#D8BC00" font-family="Open Sans,Avenir,Nunito,Arial,Helvetica,SansSerif" font-size="11.4583" lengthAdjust="spacing" textLength="246.875" x="407.8125" y="514.8722">Converter&lt;To,From&gt; unconverter(Listener)</text><rect codeLine="90" fill="#282828" height="166.5243" id="Converter" rx="8.3333" ry="8.3333" style="stroke:#5E5E5E;stroke-width:1.0416666666666667;" width="337.5" x="316.1458" y="164.1195"/><rect fill="#1B1B1A" height="31.3883" rx="8.3333" ry="8.3333" style="stroke:#1B1B1A;stroke-width:1.0416666666666667;" width="337.5" x="316.1458" y="164.1195"/><rect fill="#1B1B1A" height="8.3333" style="stroke:#1B1B1A;stroke-width:1.0416666666666667;" width="337.5" x="316.1458" y="187.1745"/><rect codeLine="90" fill="none" height="166.5243" id="Converter" rx="8.3333" ry="8.3333" style="stroke:#5E5E5E;stroke-width:1.0416666666666667;" width="337.5" x="316.1458" y="164.1195"/><ellipse cx="411.9792" cy="179.8136" fill="#008400" rx="10.4167" ry="10.4167" style="stroke:#239C23;stroke-width:1.0416666666666667;"/><path d="M409.3831,176.9755 L409.3831,175.3886 L414.8092,175.3886 L414.8092,176.9755 L412.9964,176.9755 L412.9964,182.9142 L414.8092,182.9142 L414.8092,184.5011 L409.3831,184.5011 L409.3831,182.9142 L411.1959,182.9142 L411.1959,176.9755 Z " fill="#000000"/><text fill="#D8BC00" font-family="Open Sans,Avenir,Nunito,Arial,Helvetica,SansSerif" font-size="12.5" font-style="italic" font-weight="bold" lengthAdjust="spacing" textLength="63.5417" x="434.8958" y="184.5378">Converter</text><rect fill="#333333" height="23.055" style="stroke:#A0A0A0;stroke-width:1.0416666666666667;stroke-dasharray:2.0,2.0;" width="65.625" x="591.1458" y="160.9945"/><text fill="#A0A0A0" font-family="Open Sans,Avenir,Nunito,Arial,Helvetica,SansSerif" font-size="12.5" font-weight="bold" lengthAdjust="spacing" textLength="57.2917" x="595.3125" y="177.2461">From, To</text><line style="stroke:#5E5E5E;stroke-width:1.5625;" x1="317.1875" x2="652.6042" y1="195.5078" y2="195.5078"/><ellipse cx="327.6042" cy="230.8777" fill="#84BE84" rx="3.125" ry="3.125" style="stroke:#038048;stroke-width:1.0416666666666667;"/><text fill="#D8BC00" font-family="Open Sans,Avenir,Nunito,Arial,Helvetica,SansSerif" font-size="11.4583" lengthAdjust="spacing" textLength="97.9167" x="339.0625" y="237.7889">To convert(From)</text><ellipse cx="327.6042" cy="250.6226" fill="#84BE84" rx="3.125" ry="3.125" style="stroke:#038048;stroke-width:1.0416666666666667;"/><text fill="#D8BC00" font-family="Open Sans,Avenir,Nunito,Arial,Helvetica,SansSerif" font-size="11.4583" lengthAdjust="spacing" textLength="244.7917" x="339.0625" y="257.5338">To convertOrDefault(From, To defaultValue)</text><line style="stroke:#5E5E5E;stroke-width:1.0416666666666667;" x1="317.1875" x2="446.3542" y1="213.7136" y2="213.7136"/><text fill="#D8BC00" font-family="Open Sans,Avenir,Nunito,Arial,Helvetica,SansSerif" font-size="11.4583" lengthAdjust="spacing" textLength="70.8333" x="449.4792" y="217.5232">(conversion)</text><line style="stroke:#5E5E5E;stroke-width:1.0416666666666667;" x1="523.4375" x2="652.6042" y1="213.7136" y2="213.7136"/><ellipse cx="327.6042" cy="294.279" fill="#84BE84" rx="3.125" ry="3.125" style="stroke:#038048;stroke-width:1.0416666666666667;"/><text fill="#D8BC00" font-family="Open Sans,Avenir,Nunito,Arial,Helvetica,SansSerif" font-size="11.4583" lengthAdjust="spacing" textLength="208.3333" x="339.0625" y="301.1902">String join(Collection&lt;From&gt; values)</text><ellipse cx="327.6042" cy="314.0238" fill="#84BE84" rx="3.125" ry="3.125" style="stroke:#038048;stroke-width:1.0416666666666667;"/><text fill="#D8BC00" font-family="Open Sans,Avenir,Nunito,Arial,Helvetica,SansSerif" font-size="11.4583" lengthAdjust="spacing" textLength="305.2083" x="339.0625" y="320.9351">String join(Collection&lt;From&gt; values, String separator)</text><line style="stroke:#5E5E5E;stroke-width:1.0416666666666667;" x1="317.1875" x2="455.2083" y1="277.1149" y2="277.1149"/><text fill="#D8BC00" font-family="Open Sans,Avenir,Nunito,Arial,Helvetica,SansSerif" font-size="11.4583" lengthAdjust="spacing" textLength="53.125" x="458.3333" y="280.9245">(lifecycle)</text><line style="stroke:#5E5E5E;stroke-width:1.0416666666666667;" x1="514.5833" x2="652.6042" y1="277.1149" y2="277.1149"/><rect codeLine="75" fill="#282828" height="249.6704" id="StringConverter" rx="8.3333" ry="8.3333" style="stroke:#5E5E5E;stroke-width:1.0416666666666667;" width="415.625" x="522.9167" y="630.7861"/><rect fill="#1B1B1A" height="31.3883" rx="8.3333" ry="8.3333" style="stroke:#1B1B1A;stroke-width:1.0416666666666667;" width="415.625" x="522.9167" y="630.7861"/><rect fill="#1B1B1A" height="8.3333" style="stroke:#1B1B1A;stroke-width:1.0416666666666667;" width="415.625" x="522.9167" y="653.8411"/><rect codeLine="75" fill="none" height="249.6704" id="StringConverter" rx="8.3333" ry="8.3333" style="stroke:#5E5E5E;stroke-width:1.0416666666666667;" width="415.625" x="522.9167" y="630.7861"/><ellipse cx="649.4792" cy="646.4803" fill="#008400" rx="10.4167" ry="10.4167" style="stroke:#239C23;stroke-width:1.0416666666666667;"/><path d="M646.8831,643.6422 L646.8831,642.0553 L652.3092,642.0553 L652.3092,643.6422 L650.4964,643.6422 L650.4964,649.5809 L652.3092,649.5809 L652.3092,651.1678 L646.8831,651.1678 L646.8831,649.5809 L648.6959,649.5809 L648.6959,643.6422 Z " fill="#000000"/><text fill="#D8BC00" font-family="Open Sans,Avenir,Nunito,Arial,Helvetica,SansSerif" font-size="12.5" font-style="italic" font-weight="bold" lengthAdjust="spacing" textLength="102.0833" x="672.3958" y="651.2044">StringConverter</text><rect fill="#333333" height="23.055" style="stroke:#A0A0A0;stroke-width:1.0416666666666667;stroke-dasharray:2.0,2.0;" width="43.75" x="897.9167" y="627.6611"/><text fill="#A0A0A0" font-family="Open Sans,Avenir,Nunito,Arial,Helvetica,SansSerif" font-size="12.5" font-weight="bold" lengthAdjust="spacing" textLength="35.4167" x="902.0833" y="643.9128">Value</text><line style="stroke:#5E5E5E;stroke-width:1.5625;" x1="523.9583" x2="937.5" y1="662.1745" y2="662.1745"/><line style="stroke:#5E5E5E;stroke-width:1.0416666666666667;" x1="523.9583" x2="937.5" y1="670.5078" y2="670.5078"/><ellipse cx="534.375" cy="681.9661" fill="#84BE84" rx="3.125" ry="3.125" style="stroke:#038048;stroke-width:1.0416666666666667;"/><text fill="#D8BC00" font-family="Open Sans,Avenir,Nunito,Arial,Helvetica,SansSerif" font-size="11.4583" lengthAdjust="spacing" textLength="344.7917" x="545.8333" y="688.8774">ObjectSet&lt;Value&gt; convertToSet(String value, String delimiter)</text><ellipse cx="534.375" cy="701.711" fill="#84BE84" rx="3.125" ry="3.125" style="stroke:#038048;stroke-width:1.0416666666666667;"/><text fill="#D8BC00" font-family="Open Sans,Avenir,Nunito,Arial,Helvetica,SansSerif" font-size="11.4583" lengthAdjust="spacing" textLength="301.0417" x="545.8333" y="708.6222">ObjectSet&lt;Value&gt; convertToSet(Iterable&lt;String&gt; list)</text><ellipse cx="534.375" cy="721.4559" fill="#84BE84" rx="3.125" ry="3.125" style="stroke:#038048;stroke-width:1.0416666666666667;"/><text fill="#D8BC00" font-family="Open Sans,Avenir,Nunito,Arial,Helvetica,SansSerif" font-size="11.4583" lengthAdjust="spacing" textLength="380.2083" x="545.8333" y="728.3671">StringConverter&lt;ObjectSet&lt;Value&gt;&gt; setConverter(String delimiter)</text><ellipse cx="534.375" cy="741.2008" fill="#84BE84" rx="3.125" ry="3.125" style="stroke:#038048;stroke-width:1.0416666666666667;"/><text fill="#D8BC00" font-family="Open Sans,Avenir,Nunito,Arial,Helvetica,SansSerif" font-size="11.4583" lengthAdjust="spacing" textLength="294.7917" x="545.8333" y="748.112">StringConverter&lt;ObjectSet&lt;Value&gt;&gt; setConverter()</text><ellipse cx="534.375" cy="784.8572" fill="#84BE84" rx="3.125" ry="3.125" style="stroke:#038048;stroke-width:1.0416666666666667;"/><text fill="#D8BC00" font-family="Open Sans,Avenir,Nunito,Arial,Helvetica,SansSerif" font-size="11.4583" lengthAdjust="spacing" textLength="307.2917" x="545.8333" y="791.7684">ObjectList&lt;Value&gt; convertToList(Iterable&lt;String&gt; list)</text><ellipse cx="534.375" cy="804.6021" fill="#84BE84" rx="3.125" ry="3.125" style="stroke:#038048;stroke-width:1.0416666666666667;"/><text fill="#D8BC00" font-family="Open Sans,Avenir,Nunito,Arial,Helvetica,SansSerif" font-size="11.4583" lengthAdjust="spacing" textLength="351.0417" x="545.8333" y="811.5133">ObjectList&lt;Value&gt; convertToList(String value, String delimiter)</text><ellipse cx="534.375" cy="824.3469" fill="#84BE84" rx="3.125" ry="3.125" style="stroke:#038048;stroke-width:1.0416666666666667;"/><text fill="#D8BC00" font-family="Open Sans,Avenir,Nunito,Arial,Helvetica,SansSerif" font-size="11.4583" lengthAdjust="spacing" textLength="297.9167" x="545.8333" y="831.2581">StringConverter&lt;ObjectList&lt;Value&gt;&gt; listConverter()</text><ellipse cx="534.375" cy="844.0918" fill="#84BE84" rx="3.125" ry="3.125" style="stroke:#038048;stroke-width:1.0416666666666667;"/><text fill="#D8BC00" font-family="Open Sans,Avenir,Nunito,Arial,Helvetica,SansSerif" font-size="11.4583" lengthAdjust="spacing" textLength="383.3333" x="545.8333" y="851.003">StringConverter&lt;ObjectList&lt;Value&gt;&gt; listConverter(String delimiter)</text><ellipse cx="534.375" cy="863.8367" fill="#84BE84" rx="3.125" ry="3.125" style="stroke:#038048;stroke-width:1.0416666666666667;"/><text fill="#D8BC00" font-family="Open Sans,Avenir,Nunito,Arial,Helvetica,SansSerif" font-size="11.4583" lengthAdjust="spacing" textLength="265.625" x="545.8333" y="870.7479">StringList unconvertAll(Iterable&lt;Value&gt; values)</text><line style="stroke:#5E5E5E;stroke-width:1.0416666666666667;" x1="523.9583" x2="696.3542" y1="767.6931" y2="767.6931"/><text fill="#D8BC00" font-family="Open Sans,Avenir,Nunito,Arial,Helvetica,SansSerif" font-size="11.4583" lengthAdjust="spacing" textLength="62.5" x="699.4792" y="771.5027">(collection)</text><line style="stroke:#5E5E5E;stroke-width:1.0416666666666667;" x1="765.1042" x2="937.5" y1="767.6931" y2="767.6931"/><rect codeLine="29" fill="#282828" height="277.7486" id="BaseStringConverter" rx="8.3333" ry="8.3333" style="stroke:#5E5E5E;stroke-width:1.0416666666666667;" width="413.5417" x="247.9167" y="943.2861"/><rect fill="#1B1B1A" height="31.3883" rx="8.3333" ry="8.3333" style="stroke:#1B1B1A;stroke-width:1.0416666666666667;" width="413.5417" x="247.9167" y="943.2861"/><rect fill="#1B1B1A" height="8.3333" style="stroke:#1B1B1A;stroke-width:1.0416666666666667;" width="413.5417" x="247.9167" y="966.3411"/><rect codeLine="29" fill="none" height="277.7486" id="BaseStringConverter" rx="8.3333" ry="8.3333" style="stroke:#5E5E5E;stroke-width:1.0416666666666667;" width="413.5417" x="247.9167" y="943.2861"/><ellipse cx="358.3333" cy="958.9803" fill="#C8AC00" rx="10.4167" ry="10.4167" style="stroke:#D8BC00;stroke-width:1.0416666666666667;"/><path d="M357.9264,955.6824 L357.078,959.4116 L358.7809,959.4116 Z M356.8278,954.0344 L359.0312,954.0344 L361.4909,963.147 L359.6903,963.147 L359.1288,960.8948 L356.7179,960.8948 L356.1686,963.147 L354.3681,963.147 Z " fill="#000000"/><text fill="#D8BC00" font-family="Open Sans,Avenir,Nunito,Arial,Helvetica,SansSerif" font-size="12.5" font-style="italic" font-weight="bold" lengthAdjust="spacing" textLength="132.2917" x="381.25" y="963.7044">BaseStringConverter</text><rect fill="#333333" height="23.055" style="stroke:#A0A0A0;stroke-width:1.0416666666666667;stroke-dasharray:2.0,2.0;" width="43.75" x="620.8333" y="940.1611"/><text fill="#A0A0A0" font-family="Open Sans,Avenir,Nunito,Arial,Helvetica,SansSerif" font-size="12.5" font-weight="bold" lengthAdjust="spacing" textLength="35.4167" x="625" y="956.4128">Value</text><line style="stroke:#5E5E5E;stroke-width:1.5625;" x1="248.9583" x2="660.4167" y1="974.6745" y2="974.6745"/><polygon fill="#FFFF44" points="259.375,1004.836,263.5417,1009.0027,259.375,1013.1694,255.2083,1009.0027" style="stroke:#B38D22;stroke-width:1.0416666666666667;"/><text fill="#D8BC00" font-family="Open Sans,Avenir,Nunito,Arial,Helvetica,SansSerif" font-size="11.4583" lengthAdjust="spacing" textLength="167.7083" x="270.8333" y="1016.9556">BaseStringConverter(Listener)</text><polygon fill="#FFFF44" points="259.375,1024.5809,263.5417,1028.7476,259.375,1032.9142,255.2083,1028.7476" style="stroke:#B38D22;stroke-width:1.0416666666666667;"/><text fill="#D8BC00" font-family="Open Sans,Avenir,Nunito,Arial,Helvetica,SansSerif" font-size="11.4583" lengthAdjust="spacing" textLength="371.875" x="270.8333" y="1036.7004">BaseStringConverter(Listener, BiFunction&lt;Listener, String, Value&gt;)</text><polygon fill="#FFFF44" points="259.375,1044.3258,263.5417,1048.4924,259.375,1052.6591,255.2083,1048.4924" style="stroke:#B38D22;stroke-width:1.0416666666666667;"/><text fill="#D8BC00" font-family="Open Sans,Avenir,Nunito,Arial,Helvetica,SansSerif" font-size="11.4583" lengthAdjust="spacing" textLength="311.4583" x="270.8333" y="1056.4453">BaseStringConverter(Listener, Function&lt;String, Value&gt;)</text><line style="stroke:#5E5E5E;stroke-width:1.0416666666666667;" x1="248.9583" x2="410.9375" y1="992.8802" y2="992.8802"/><text fill="#D8BC00" font-family="Open Sans,Avenir,Nunito,Arial,Helvetica,SansSerif" font-size="11.4583" lengthAdjust="spacing" textLength="81.25" x="414.0625" y="996.6899">(constructors)</text><line style="stroke:#5E5E5E;stroke-width:1.0416666666666667;" x1="498.4375" x2="660.4167" y1="992.8802" y2="992.8802"/><line style="stroke:#5E5E5E;stroke-width:1.0416666666666667;" x1="248.9583" x2="660.4167" y1="1066.154" y2="1066.154"/><polygon fill="#FFFF44" points="259.375,1072.404,263.5417,1076.5706,259.375,1080.7373,255.2083,1076.5706" style="stroke:#B38D22;stroke-width:1.0416666666666667;"/><text fill="#D8BC00" font-family="Open Sans,Avenir,Nunito,Arial,Helvetica,SansSerif" font-size="11.4583" lengthAdjust="spacing" textLength="98.9583" x="270.8333" y="1084.5235">String nullString()</text><ellipse cx="259.375" cy="1121.2687" fill="#84BE84" rx="3.125" ry="3.125" style="stroke:#038048;stroke-width:1.0416666666666667;"/><text fill="#D8BC00" font-family="Open Sans,Avenir,Nunito,Arial,Helvetica,SansSerif" font-size="11.4583" lengthAdjust="spacing" textLength="381.25" x="270.8333" y="1128.1799">BaseStringConverter&lt;Value&gt; allowEmptyString(boolean allowEmpty)</text><ellipse cx="259.375" cy="1141.0136" fill="#84BE84" rx="3.125" ry="3.125" style="stroke:#038048;stroke-width:1.0416666666666667;"/><text fill="#D8BC00" font-family="Open Sans,Avenir,Nunito,Arial,Helvetica,SansSerif" font-size="11.4583" lengthAdjust="spacing" textLength="158.3333" x="270.8333" y="1147.9248">boolean allowsEmptyString()</text><line style="stroke:#5E5E5E;stroke-width:1.0416666666666667;" x1="248.9583" x2="420.3125" y1="1104.1046" y2="1104.1046"/><text fill="#D8BC00" font-family="Open Sans,Avenir,Nunito,Arial,Helvetica,SansSerif" font-size="11.4583" lengthAdjust="spacing" textLength="62.5" x="423.4375" y="1107.9142">(collection)</text><line style="stroke:#5E5E5E;stroke-width:1.0416666666666667;" x1="489.0625" x2="660.4167" y1="1104.1046" y2="1104.1046"/><polygon fill="#FFFF44" points="259.375,1179.4617,263.5417,1183.6283,259.375,1187.795,255.2083,1183.6283" style="stroke:#B38D22;stroke-width:1.0416666666666667;"/><text fill="#D8BC00" font-family="Open Sans,Avenir,Nunito,Arial,Helvetica,SansSerif" font-size="11.4583" lengthAdjust="spacing" textLength="137.5" x="270.8333" y="1191.5812">String onToString(Value)</text><polygon fill="#FFFF44" points="259.375,1199.2065,263.5417,1203.3732,259.375,1207.5399,255.2083,1203.3732" style="stroke:#B38D22;stroke-width:1.0416666666666667;"/><text fill="#D8BC00" font-family="Open Sans,Avenir,Nunito,Arial,Helvetica,SansSerif" font-size="11.4583" lengthAdjust="spacing" textLength="166.6667" x="270.8333" y="1211.3261">Value onToValue(String value)</text><line style="stroke:#5E5E5E;stroke-width:1.0416666666666667;" x1="248.9583" x2="400.5208" y1="1167.5059" y2="1167.5059"/><text fill="#D8BC00" font-family="Open Sans,Avenir,Nunito,Arial,Helvetica,SansSerif" font-size="11.4583" lengthAdjust="spacing" textLength="102.0833" x="403.6458" y="1171.3155">(extension points)</text><line style="stroke:#5E5E5E;stroke-width:1.0416666666666667;" x1="508.8542" x2="660.4167" y1="1167.5059" y2="1167.5059"/><rect codeLine="47" fill="#282828" height="155.1127" id="BaseTwoWayConverter" rx="8.3333" ry="8.3333" style="stroke:#5E5E5E;stroke-width:1.0416666666666667;" width="252.0833" x="233.8542" y="678.182"/><rect fill="#1B1B1A" height="31.3883" rx="8.3333" ry="8.3333" style="stroke:#1B1B1A;stroke-width:1.0416666666666667;" width="252.0833" x="233.8542" y="678.182"/><rect fill="#1B1B1A" height="8.3333" style="stroke:#1B1B1A;stroke-width:1.0416666666666667;" width="252.0833" x="233.8542" y="701.237"/><rect codeLine="47" fill="none" height="155.1127" id="BaseTwoWayConverter" rx="8.3333" ry="8.3333" style="stroke:#5E5E5E;stroke-width:1.0416666666666667;" width="252.0833" x="233.8542" y="678.182"/><ellipse cx="248.4375" cy="693.8761" fill="#C8AC00" rx="10.4167" ry="10.4167" style="stroke:#D8BC00;stroke-width:1.0416666666666667;"/><path d="M248.0306,690.5782 L247.1822,694.3075 L248.8851,694.3075 Z M246.932,688.9303 L249.1353,688.9303 L251.5951,698.0428 L249.7945,698.0428 L249.233,695.7906 L246.8221,695.7906 L246.2728,698.0428 L244.4722,698.0428 Z " fill="#000000"/><text fill="#D8BC00" font-family="Open Sans,Avenir,Nunito,Arial,Helvetica,SansSerif" font-size="12.5" font-style="italic" font-weight="bold" lengthAdjust="spacing" textLength="146.875" x="265.1042" y="698.6003">BaseTwoWayConverter</text><rect fill="#333333" height="23.055" style="stroke:#A0A0A0;stroke-width:1.0416666666666667;stroke-dasharray:2.0,2.0;" width="65.625" x="423.4375" y="675.057"/><text fill="#A0A0A0" font-family="Open Sans,Avenir,Nunito,Arial,Helvetica,SansSerif" font-size="12.5" font-weight="bold" lengthAdjust="spacing" textLength="57.2917" x="427.6042" y="691.3086">From, To</text><line style="stroke:#5E5E5E;stroke-width:1.5625;" x1="234.8958" x2="484.8958" y1="709.5703" y2="709.5703"/><polygon fill="#FFFF44" points="245.3125,739.7319,249.4792,743.8985,245.3125,748.0652,241.1458,743.8985" style="stroke:#B38D22;stroke-width:1.0416666666666667;"/><text fill="#D8BC00" font-family="Open Sans,Avenir,Nunito,Arial,Helvetica,SansSerif" font-size="11.4583" lengthAdjust="spacing" textLength="179.1667" x="256.7708" y="751.8514">BaseTwoWayConverter(Listener)</text><line style="stroke:#5E5E5E;stroke-width:1.0416666666666667;" x1="234.8958" x2="316.1458" y1="727.7761" y2="727.7761"/><text fill="#D8BC00" font-family="Open Sans,Avenir,Nunito,Arial,Helvetica,SansSerif" font-size="11.4583" lengthAdjust="spacing" textLength="81.25" x="319.2708" y="731.5857">(constructors)</text><line style="stroke:#5E5E5E;stroke-width:1.0416666666666667;" x1="403.6458" x2="484.8958" y1="727.7761" y2="727.7761"/><line style="stroke:#5E5E5E;stroke-width:1.0416666666666667;" x1="234.8958" x2="484.8958" y1="761.5601" y2="761.5601"/><polygon fill="#FFFF44" points="245.3125,767.8101,249.4792,771.9767,245.3125,776.1434,241.1458,771.9767" style="stroke:#B38D22;stroke-width:1.0416666666666667;"/><text fill="#D8BC00" font-family="Open Sans,Avenir,Nunito,Arial,Helvetica,SansSerif" font-size="11.4583" lengthAdjust="spacing" textLength="91.6667" x="256.7708" y="779.9296">From nullValue()</text><polygon fill="#FFFF44" points="245.3125,811.4665,249.4792,815.6331,245.3125,819.7998,241.1458,815.6331" style="stroke:#B38D22;stroke-width:1.0416666666666667;"/><text fill="#D8BC00" font-family="Open Sans,Avenir,Nunito,Arial,Helvetica,SansSerif" font-size="11.4583" lengthAdjust="spacing" textLength="128.125" x="256.7708" y="823.586">From onUnconvert(To)</text><line style="stroke:#5E5E5E;stroke-width:1.0416666666666667;" x1="234.8958" x2="305.7292" y1="799.5107" y2="799.5107"/><text fill="#D8BC00" font-family="Open Sans,Avenir,Nunito,Arial,Helvetica,SansSerif" font-size="11.4583" lengthAdjust="spacing" textLength="102.0833" x="308.8542" y="803.3203">(extension points)</text><line style="stroke:#5E5E5E;stroke-width:1.0416666666666667;" x1="414.0625" x2="484.8958" y1="799.5107" y2="799.5107"/><rect codeLine="57" fill="#282828" height="48.055" id="ConvertedProperty" rx="8.3333" ry="8.3333" style="stroke:#5E5E5E;stroke-width:1.0416666666666667;" width="158.3333" x="568.2292" y="53.7028"/><rect fill="#1B1B1A" height="31.3883" rx="8.3333" ry="8.3333" style="stroke:#1B1B1A;stroke-width:1.0416666666666667;" width="158.3333" x="568.2292" y="53.7028"/><rect fill="#1B1B1A" height="8.3333" style="stroke:#1B1B1A;stroke-width:1.0416666666666667;" width="158.3333" x="568.2292" y="76.7578"/><rect codeLine="57" fill="none" height="48.055" id="ConvertedProperty" rx="8.3333" ry="8.3333" style="stroke:#5E5E5E;stroke-width:1.0416666666666667;" width="158.3333" x="568.2292" y="53.7028"/><ellipse cx="582.8125" cy="69.397" fill="#3380B9" rx="10.4167" ry="10.4167" style="stroke:#004D86;stroke-width:1.0416666666666667;"/><path d="M584.5846,69.456 Q584.5846,68.7663 584.2733,68.3757 Q583.962,67.985 583.4188,67.985 Q582.8756,67.985 582.5673,68.3757 Q582.2591,68.7663 582.2591,69.456 Q582.2591,70.1518 582.5673,70.5424 Q582.8756,70.933 583.4188,70.933 Q583.962,70.933 584.2733,70.5424 Q584.5846,70.1518 584.5846,69.456 Z M585.7198,71.9584 L584.5235,71.9584 L584.5235,71.4579 Q584.2916,71.7814 583.9773,71.9309 Q583.6629,72.0805 583.2235,72.0805 Q582.2225,72.0805 581.6091,71.3603 Q580.9957,70.6401 580.9957,69.456 Q580.9957,68.278 581.606,67.5608 Q582.2164,66.8437 583.2235,66.8437 Q583.6568,66.8437 583.9864,66.9932 Q584.316,67.1427 584.5235,67.4296 L584.5235,67.1794 Q584.5235,66.3493 584.0688,65.8976 Q583.6141,65.446 582.7718,65.446 Q581.5023,65.446 580.6997,66.5629 Q579.8971,67.6799 579.8971,69.4682 Q579.8971,71.342 580.8248,72.4497 Q581.7525,73.5575 583.2967,73.5575 Q583.785,73.5575 584.2428,73.4141 Q584.7005,73.2707 585.1217,72.9838 L585.6832,74.058 Q585.1888,74.3937 584.6059,74.5616 Q584.023,74.7294 583.3577,74.7294 Q581.2215,74.7294 579.952,73.3073 Q578.6825,71.8852 578.6825,69.4682 Q578.6825,67.1061 579.8238,65.6871 Q580.9652,64.268 582.8451,64.268 Q584.1756,64.268 584.9477,65.0706 Q585.7198,65.8732 585.7198,67.2587 Z " fill="#000000"/><text fill="#D8BC00" font-family="Open Sans,Avenir,Nunito,Arial,Helvetica,SansSerif" font-size="12.5" font-weight="bold" lengthAdjust="spacing" textLength="120.8333" x="599.4792" y="74.1211">ConvertedProperty</text><line style="stroke:#5E5E5E;stroke-width:1.0416666666666667;" x1="569.2708" x2="725.5208" y1="85.0911" y2="85.0911"/><line style="stroke:#5E5E5E;stroke-width:1.0416666666666667;" x1="569.2708" x2="725.5208" y1="93.4245" y2="93.4245"/><rect codeLine="59" fill="#282828" height="48.055" id="Repeater" rx="8.3333" ry="8.3333" style="stroke:#5E5E5E;stroke-width:1.0416666666666667;" width="93.75" x="438.0208" y="53.7028"/><rect fill="#1B1B1A" height="31.3883" rx="8.3333" ry="8.3333" style="stroke:#1B1B1A;stroke-width:1.0416666666666667;" width="93.75" x="438.0208" y="53.7028"/><rect fill="#1B1B1A" height="8.3333" style="stroke:#1B1B1A;stroke-width:1.0416666666666667;" width="93.75" x="438.0208" y="76.7578"/><rect codeLine="59" fill="none" height="48.055" id="Repeater" rx="8.3333" ry="8.3333" style="stroke:#5E5E5E;stroke-width:1.0416666666666667;" width="93.75" x="438.0208" y="53.7028"/><ellipse cx="452.6042" cy="69.397" fill="#008400" rx="10.4167" ry="10.4167" style="stroke:#239C23;stroke-width:1.0416666666666667;"/><path d="M450.0081,66.5588 L450.0081,64.9719 L455.4342,64.9719 L455.4342,66.5588 L453.6214,66.5588 L453.6214,72.4976 L455.4342,72.4976 L455.4342,74.0845 L450.0081,74.0845 L450.0081,72.4976 L451.8209,72.4976 L451.8209,66.5588 Z " fill="#000000"/><text fill="#D8BC00" font-family="Open Sans,Avenir,Nunito,Arial,Helvetica,SansSerif" font-size="12.5" font-style="italic" font-weight="bold" lengthAdjust="spacing" textLength="56.25" x="469.2708" y="74.1211">Repeater</text><line style="stroke:#5E5E5E;stroke-width:1.0416666666666667;" x1="439.0625" x2="530.7292" y1="85.0911" y2="85.0911"/><line style="stroke:#5E5E5E;stroke-width:1.0416666666666667;" x1="439.0625" x2="530.7292" y1="93.4245" y2="93.4245"/><rect codeLine="71" fill="#282828" height="48.055" id="Parsable" rx="8.3333" ry="8.3333" style="stroke:#5E5E5E;stroke-width:1.0416666666666667;" width="91.6667" x="700.5208" y="456.8278"/><rect fill="#1B1B1A" height="31.3883" rx="8.3333" ry="8.3333" style="stroke:#1B1B1A;stroke-width:1.0416666666666667;" width="91.6667" x="700.5208" y="456.8278"/><rect fill="#1B1B1A" height="8.3333" style="stroke:#1B1B1A;stroke-width:1.0416666666666667;" width="91.6667" x="700.5208" y="479.8828"/><rect codeLine="71" fill="none" height="48.055" id="Parsable" rx="8.3333" ry="8.3333" style="stroke:#5E5E5E;stroke-width:1.0416666666666667;" width="91.6667" x="700.5208" y="456.8278"/><ellipse cx="715.1042" cy="472.522" fill="#008400" rx="10.4167" ry="10.4167" style="stroke:#239C23;stroke-width:1.0416666666666667;"/><path d="M712.5081,469.6838 L712.5081,468.0969 L717.9342,468.0969 L717.9342,469.6838 L716.1214,469.6838 L716.1214,475.6226 L717.9342,475.6226 L717.9342,477.2095 L712.5081,477.2095 L712.5081,475.6226 L714.3209,475.6226 L714.3209,469.6838 Z " fill="#000000"/><text fill="#D8BC00" font-family="Open Sans,Avenir,Nunito,Arial,Helvetica,SansSerif" font-size="12.5" font-style="italic" font-weight="bold" lengthAdjust="spacing" textLength="54.1667" x="731.7708" y="477.2461">Parsable</text><line style="stroke:#5E5E5E;stroke-width:1.0416666666666667;" x1="701.5625" x2="791.1458" y1="488.2161" y2="488.2161"/><line style="stroke:#5E5E5E;stroke-width:1.0416666666666667;" x1="701.5625" x2="791.1458" y1="496.5495" y2="496.5495"/><path codeLine="14" d="M178.6458,292.4215 C178.6458,320.8278 178.6458,358.7757 178.6458,393.0778 " fill="none" id="BaseRepeater-backto-BaseConverter" style="stroke:#545454;stroke-width:1.5625;"/><polygon fill="none" points="171.3542,292.3486,178.6458,271.5153,185.9375,292.3486,171.3542,292.3486" style="stroke:#545454;stroke-width:1.5625;"/><path codeLine="15" d="M358.875,343.6507 C337.25,359.984 314.8854,376.8695 293.5625,392.9632 " fill="none" id="Converter-backto-BaseConverter" style="stroke:#545454;stroke-width:1.5625;"/><polygon fill="none" points="354.6146,337.734,375.625,331.0049,363.3958,349.3799,354.6146,337.734" style="stroke:#545454;stroke-width:1.5625;"/><path codeLine="27" d="M166.9688,589.3486 C162.7396,673.4111 167.9271,790.7132 215.1042,880.7861 C226.8125,903.1299 242.1667,923.9736 259.4583,943.1195 " fill="none" id="BaseConverter-backto-BaseStringConverter" style="stroke:#545454;stroke-width:1.5625;"/><polygon fill="none" points="159.6979,588.807,168.25,568.4632,174.2604,589.7028,159.6979,588.807" style="stroke:#545454;stroke-width:1.5625;"/><path codeLine="28" d="M611.6458,896.807 C598.5417,912.2028 585.2188,927.8695 572.1354,943.2445 " fill="none" id="StringConverter-backto-BaseStringConverter" style="stroke:#545454;stroke-width:1.5625;"/><polygon fill="none" points="606.1354,892.0361,625.1875,880.8903,617.2396,901.484,606.1354,892.0361" style="stroke:#545454;stroke-width:1.5625;"/><path codeLine="45" d="M247.9583,586.2028 C268.2188,616.7028 289.9792,649.4632 308.875,677.932 " fill="none" id="BaseConverter-backto-BaseTwoWayConverter" style="stroke:#545454;stroke-width:1.5625;"/><polygon fill="none" points="241.6979,589.9424,236.2396,568.557,253.8438,581.8799,241.6979,589.9424" style="stroke:#545454;stroke-width:1.5625;"/><path codeLine="46" d="M487.7708,542.7028 C463.6875,582.6403 431.9896,635.1924 406.1875,677.984 " fill="none" id="TwoWayConverter-backto-BaseTwoWayConverter" style="stroke:#545454;stroke-width:1.5625;"/><polygon fill="none" points="481.5833,538.8486,498.5833,524.7757,494.0625,546.3799,481.5833,538.8486" style="stroke:#545454;stroke-width:1.5625;"/><path codeLine="60" d="M484.8958,122.9736 C484.8958,135.5986 484.8958,149.7653 484.8958,163.8799 " fill="none" id="Repeater-backto-Converter" style="stroke:#545454;stroke-width:1.5625;"/><polygon fill="none" points="477.6042,122.5049,484.8958,101.6715,492.1875,122.5049,477.6042,122.5049" style="stroke:#545454;stroke-width:1.5625;"/><path codeLine="73" d="M569.625,541.5674 C589.4688,567.8278 613.5625,599.7028 637,630.7132 " fill="none" id="TwoWayConverter-backto-StringConverter" style="stroke:#545454;stroke-width:1.5625;"/><polygon fill="none" points="563.6771,545.7861,556.9375,524.7757,575.3125,536.9945,563.6771,545.7861" style="stroke:#545454;stroke-width:1.5625;"/><path codeLine="74" d="M743.8229,526.0361 C742.1875,554.609 739.9688,593.3278 737.8229,630.7861 " fill="none" id="Parsable-backto-StringConverter" style="stroke:#545454;stroke-width:1.5625;"/><polygon fill="none" points="736.5521,525.484,745.0208,505.0986,751.1146,526.3174,736.5521,525.484" style="stroke:#545454;stroke-width:1.5625;"/><path codeLine="91" d="M502.6042,351.9632 C507.7292,381.8799 513.0417,412.9007 517.1458,436.8903 " fill="none" id="Converter-backto-TwoWayConverter" style="stroke:#545454;stroke-width:1.5625;"/><polygon fill="none" points="495.3438,352.7653,499.0208,331.0049,509.7188,350.307,495.3438,352.7653" style="stroke:#545454;stroke-width:1.5625;"/></g></svg>
