<?xml version="1.0" encoding="UTF-8" standalone="no"?><svg xmlns="http://www.w3.org/2000/svg" xmlns:xlink="http://www.w3.org/1999/xlink" contentScriptType="application/ecmascript" contentStyleType="text/css" height="218.75px" preserveAspectRatio="none" style="width:566px;height:218px;background:#333333;" version="1.1" viewBox="0 0 566 218" width="566.6667px" zoomAndPan="magnify"><defs/><g><rect fill="#48494B" height="41.2028" rx="8.3333" ry="8.3333" style="stroke:#545454;stroke-width:1.0416666666666667;" width="554.1667" x="2.0833" y="2.0833"/><text fill="#C0C0C0" font-family="Open Sans,Avenir,Nunito,Arial,Helvetica,SansSerif" font-size="20.8333" lengthAdjust="spacing" textLength="531.25" x="13.5417" y="30.5583">com.telenav.kivakit.primitive.collections.list.adapters</text><rect codeLine="7" fill="#282828" height="48.055" id="IntList" rx="8.3333" ry="8.3333" style="stroke:#5E5E5E;stroke-width:1.0416666666666667;" width="79.1667" x="246.875" y="53.7028"/><rect fill="#1B1B1A" height="31.3883" rx="8.3333" ry="8.3333" style="stroke:#1B1B1A;stroke-width:1.0416666666666667;" width="79.1667" x="246.875" y="53.7028"/><rect fill="#1B1B1A" height="8.3333" style="stroke:#1B1B1A;stroke-width:1.0416666666666667;" width="79.1667" x="246.875" y="76.7578"/><rect codeLine="7" fill="none" height="48.055" id="IntList" rx="8.3333" ry="8.3333" style="stroke:#5E5E5E;stroke-width:1.0416666666666667;" width="79.1667" x="246.875" y="53.7028"/><ellipse cx="261.4583" cy="69.397" fill="#008400" rx="10.4167" ry="10.4167" style="stroke:#239C23;stroke-width:1.0416666666666667;"/><path d="M258.8623,66.5588 L258.8623,64.9719 L264.2883,64.9719 L264.2883,66.5588 L262.4756,66.5588 L262.4756,72.4976 L264.2883,72.4976 L264.2883,74.0845 L258.8623,74.0845 L258.8623,72.4976 L260.675,72.4976 L260.675,66.5588 Z " fill="#000000"/><text fill="#D8BC00" font-family="Open Sans,Avenir,Nunito,Arial,Helvetica,SansSerif" font-size="12.5" font-style="italic" font-weight="bold" lengthAdjust="spacing" textLength="41.6667" x="278.125" y="74.1211">IntList</text><line style="stroke:#5E5E5E;stroke-width:1.0416666666666667;" x1="247.9167" x2="325" y1="85.0911" y2="85.0911"/><line style="stroke:#5E5E5E;stroke-width:1.0416666666666667;" x1="247.9167" x2="325" y1="93.4245" y2="93.4245"/><rect codeLine="10" fill="#282828" height="48.055" id="IntListAdapter" rx="8.3333" ry="8.3333" style="stroke:#5E5E5E;stroke-width:1.0416666666666667;" width="130.2083" x="221.3542" y="164.1195"/><rect fill="#1B1B1A" height="31.3883" rx="8.3333" ry="8.3333" style="stroke:#1B1B1A;stroke-width:1.0416666666666667;" width="130.2083" x="221.3542" y="164.1195"/><rect fill="#1B1B1A" height="8.3333" style="stroke:#1B1B1A;stroke-width:1.0416666666666667;" width="130.2083" x="221.3542" y="187.1745"/><rect codeLine="10" fill="none" height="48.055" id="IntListAdapter" rx="8.3333" ry="8.3333" style="stroke:#5E5E5E;stroke-width:1.0416666666666667;" width="130.2083" x="221.3542" y="164.1195"/><ellipse cx="235.9375" cy="179.8136" fill="#0066CF" rx="10.4167" ry="10.4167" style="stroke:#0086EF;stroke-width:1.0416666666666667;"/><path d="M237.8479,184.2387 Q237.4207,184.4584 236.9507,184.5683 Q236.4807,184.6781 235.9619,184.6781 Q234.1187,184.6781 233.1482,183.4635 Q232.1777,182.2489 232.1777,179.954 Q232.1777,177.653 233.1482,176.4384 Q234.1187,175.2238 235.9619,175.2238 Q236.4807,175.2238 236.9568,175.3337 Q237.4329,175.4435 237.8479,175.6632 L237.8479,177.6652 Q237.384,177.238 236.9476,177.0396 Q236.5112,176.8412 236.0474,176.8412 Q235.0586,176.8412 234.5551,177.6255 Q234.0515,178.4098 234.0515,179.954 Q234.0515,181.4921 234.5551,182.2764 Q235.0586,183.0607 236.0474,183.0607 Q236.5112,183.0607 236.9476,182.8623 Q237.384,182.664 237.8479,182.2367 Z " fill="#000000"/><text fill="#D8BC00" font-family="Open Sans,Avenir,Nunito,Arial,Helvetica,SansSerif" font-size="12.5" font-weight="bold" lengthAdjust="spacing" textLength="92.7083" x="252.6042" y="184.5378">IntListAdapter</text><line style="stroke:#5E5E5E;stroke-width:1.0416666666666667;" x1="222.3958" x2="350.5208" y1="195.5078" y2="195.5078"/><line style="stroke:#5E5E5E;stroke-width:1.0416666666666667;" x1="222.3958" x2="350.5208" y1="203.8411" y2="203.8411"/><path codeLine="9" d="M286.4583,122.6195 C286.4583,136.8382 286.4583,152.0361 286.4583,164.0986 " fill="none" id="IntList-backto-IntListAdapter" style="stroke:#545454;stroke-width:1.5625;"/><polygon fill="none" points="279.1667,122.5153,286.4583,101.682,293.75,122.5153,279.1667,122.5153" style="stroke:#545454;stroke-width:1.5625;"/></g></svg>
