<?xml version="1.0" encoding="UTF-8" standalone="no"?><svg xmlns="http://www.w3.org/2000/svg" xmlns:xlink="http://www.w3.org/1999/xlink" contentScriptType="application/ecmascript" contentStyleType="text/css" height="377.0833px" preserveAspectRatio="none" style="width:717px;height:377px;background:#333333;" version="1.1" viewBox="0 0 717 377" width="717.7083px" zoomAndPan="magnify"><defs/><g><rect fill="#48494B" height="41.2028" rx="8.3333" ry="8.3333" style="stroke:#545454;stroke-width:1.0416666666666667;" width="623.9583" x="39.5833" y="2.0833"/><text fill="#C0C0C0" font-family="Open Sans,Avenir,Nunito,Arial,Helvetica,SansSerif" font-size="20.8333" lengthAdjust="spacing" textLength="601.0417" x="51.0417" y="30.5583">com.telenav.kivakit.primitive.collections.map.multi.dynamic</text><rect codeLine="7" fill="#282828" height="48.055" id="PrimitiveScalarMultiMap" rx="8.3333" ry="8.3333" style="stroke:#5E5E5E;stroke-width:1.0416666666666667;" width="192.7083" x="159.375" y="53.7028"/><rect fill="#1B1B1A" height="31.3883" rx="8.3333" ry="8.3333" style="stroke:#1B1B1A;stroke-width:1.0416666666666667;" width="192.7083" x="159.375" y="53.7028"/><rect fill="#1B1B1A" height="8.3333" style="stroke:#1B1B1A;stroke-width:1.0416666666666667;" width="192.7083" x="159.375" y="76.7578"/><rect codeLine="7" fill="none" height="48.055" id="PrimitiveScalarMultiMap" rx="8.3333" ry="8.3333" style="stroke:#5E5E5E;stroke-width:1.0416666666666667;" width="192.7083" x="159.375" y="53.7028"/><ellipse cx="173.9583" cy="69.397" fill="#008400" rx="10.4167" ry="10.4167" style="stroke:#239C23;stroke-width:1.0416666666666667;"/><path d="M171.3623,66.5588 L171.3623,64.9719 L176.7883,64.9719 L176.7883,66.5588 L174.9756,66.5588 L174.9756,72.4976 L176.7883,72.4976 L176.7883,74.0845 L171.3623,74.0845 L171.3623,72.4976 L173.175,72.4976 L173.175,66.5588 Z " fill="#000000"/><text fill="#D8BC00" font-family="Open Sans,Avenir,Nunito,Arial,Helvetica,SansSerif" font-size="12.5" font-style="italic" font-weight="bold" lengthAdjust="spacing" textLength="155.2083" x="190.625" y="74.1211">PrimitiveScalarMultiMap</text><line style="stroke:#5E5E5E;stroke-width:1.0416666666666667;" x1="160.4167" x2="351.0417" y1="85.0911" y2="85.0911"/><line style="stroke:#5E5E5E;stroke-width:1.0416666666666667;" x1="160.4167" x2="351.0417" y1="93.4245" y2="93.4245"/><rect codeLine="8" fill="#282828" height="48.055" id="IntMultiMap" rx="8.3333" ry="8.3333" style="stroke:#5E5E5E;stroke-width:1.0416666666666667;" width="115.625" x="7.2917" y="53.7028"/><rect fill="#1B1B1A" height="31.3883" rx="8.3333" ry="8.3333" style="stroke:#1B1B1A;stroke-width:1.0416666666666667;" width="115.625" x="7.2917" y="53.7028"/><rect fill="#1B1B1A" height="8.3333" style="stroke:#1B1B1A;stroke-width:1.0416666666666667;" width="115.625" x="7.2917" y="76.7578"/><rect codeLine="8" fill="none" height="48.055" id="IntMultiMap" rx="8.3333" ry="8.3333" style="stroke:#5E5E5E;stroke-width:1.0416666666666667;" width="115.625" x="7.2917" y="53.7028"/><ellipse cx="21.875" cy="69.397" fill="#008400" rx="10.4167" ry="10.4167" style="stroke:#239C23;stroke-width:1.0416666666666667;"/><path d="M19.279,66.5588 L19.279,64.9719 L24.705,64.9719 L24.705,66.5588 L22.8923,66.5588 L22.8923,72.4976 L24.705,72.4976 L24.705,74.0845 L19.279,74.0845 L19.279,72.4976 L21.0917,72.4976 L21.0917,66.5588 Z " fill="#000000"/><text fill="#D8BC00" font-family="Open Sans,Avenir,Nunito,Arial,Helvetica,SansSerif" font-size="12.5" font-style="italic" font-weight="bold" lengthAdjust="spacing" textLength="78.125" x="38.5417" y="74.1211">IntMultiMap</text><line style="stroke:#5E5E5E;stroke-width:1.0416666666666667;" x1="8.3333" x2="121.875" y1="85.0911" y2="85.0911"/><line style="stroke:#5E5E5E;stroke-width:1.0416666666666667;" x1="8.3333" x2="121.875" y1="93.4245" y2="93.4245"/><rect codeLine="9" fill="#282828" height="48.055" id="LongMultiMap" rx="8.3333" ry="8.3333" style="stroke:#5E5E5E;stroke-width:1.0416666666666667;" width="130.2083" x="580.2083" y="53.7028"/><rect fill="#1B1B1A" height="31.3883" rx="8.3333" ry="8.3333" style="stroke:#1B1B1A;stroke-width:1.0416666666666667;" width="130.2083" x="580.2083" y="53.7028"/><rect fill="#1B1B1A" height="8.3333" style="stroke:#1B1B1A;stroke-width:1.0416666666666667;" width="130.2083" x="580.2083" y="76.7578"/><rect codeLine="9" fill="none" height="48.055" id="LongMultiMap" rx="8.3333" ry="8.3333" style="stroke:#5E5E5E;stroke-width:1.0416666666666667;" width="130.2083" x="580.2083" y="53.7028"/><ellipse cx="594.7917" cy="69.397" fill="#008400" rx="10.4167" ry="10.4167" style="stroke:#239C23;stroke-width:1.0416666666666667;"/><path d="M592.1956,66.5588 L592.1956,64.9719 L597.6217,64.9719 L597.6217,66.5588 L595.8089,66.5588 L595.8089,72.4976 L597.6217,72.4976 L597.6217,74.0845 L592.1956,74.0845 L592.1956,72.4976 L594.0084,72.4976 L594.0084,66.5588 Z " fill="#000000"/><text fill="#D8BC00" font-family="Open Sans,Avenir,Nunito,Arial,Helvetica,SansSerif" font-size="12.5" font-style="italic" font-weight="bold" lengthAdjust="spacing" textLength="92.7083" x="611.4583" y="74.1211">LongMultiMap</text><line style="stroke:#5E5E5E;stroke-width:1.0416666666666667;" x1="581.25" x2="709.375" y1="85.0911" y2="85.0911"/><line style="stroke:#5E5E5E;stroke-width:1.0416666666666667;" x1="581.25" x2="709.375" y1="93.4245" y2="93.4245"/><rect fill="#282828" height="48.055" id="PrimitiveMultiMap" rx="8.3333" ry="8.3333" style="stroke:#5E5E5E;stroke-width:1.0416666666666667;" width="155.2083" x="388.5417" y="53.7028"/><rect fill="#1B1B1A" height="31.3883" rx="8.3333" ry="8.3333" style="stroke:#1B1B1A;stroke-width:1.0416666666666667;" width="155.2083" x="388.5417" y="53.7028"/><rect fill="#1B1B1A" height="8.3333" style="stroke:#1B1B1A;stroke-width:1.0416666666666667;" width="155.2083" x="388.5417" y="76.7578"/><rect fill="none" height="48.055" id="PrimitiveMultiMap" rx="8.3333" ry="8.3333" style="stroke:#5E5E5E;stroke-width:1.0416666666666667;" width="155.2083" x="388.5417" y="53.7028"/><ellipse cx="403.125" cy="69.397" fill="#0066CF" rx="10.4167" ry="10.4167" style="stroke:#0086EF;stroke-width:1.0416666666666667;"/><path d="M405.0354,73.822 Q404.6082,74.0417 404.1382,74.1516 Q403.6682,74.2615 403.1494,74.2615 Q401.3062,74.2615 400.3357,73.0469 Q399.3652,71.8323 399.3652,69.5374 Q399.3652,67.2363 400.3357,66.0217 Q401.3062,64.8071 403.1494,64.8071 Q403.6682,64.8071 404.1443,64.917 Q404.6204,65.0269 405.0354,65.2466 L405.0354,67.2485 Q404.5715,66.8213 404.1351,66.6229 Q403.6987,66.4246 403.2349,66.4246 Q402.2461,66.4246 401.7426,67.2089 Q401.239,67.9932 401.239,69.5374 Q401.239,71.0754 401.7426,71.8597 Q402.2461,72.644 403.2349,72.644 Q403.6987,72.644 404.1351,72.4457 Q404.5715,72.2473 405.0354,71.8201 Z " fill="#000000"/><text fill="#D8BC00" font-family="Open Sans,Avenir,Nunito,Arial,Helvetica,SansSerif" font-size="12.5" font-weight="bold" lengthAdjust="spacing" textLength="117.7083" x="419.7917" y="74.1211">PrimitiveMultiMap</text><line style="stroke:#5E5E5E;stroke-width:1.0416666666666667;" x1="389.5833" x2="542.7083" y1="85.0911" y2="85.0911"/><line style="stroke:#5E5E5E;stroke-width:1.0416666666666667;" x1="389.5833" x2="542.7083" y1="93.4245" y2="93.4245"/><rect codeLine="14" fill="#282828" height="206.014" id="LongToIntMultiMap" rx="8.3333" ry="8.3333" style="stroke:#5E5E5E;stroke-width:1.0416666666666667;" width="215.625" x="123.9583" y="164.1195"/><rect fill="#1B1B1A" height="31.3883" rx="8.3333" ry="8.3333" style="stroke:#1B1B1A;stroke-width:1.0416666666666667;" width="215.625" x="123.9583" y="164.1195"/><rect fill="#1B1B1A" height="8.3333" style="stroke:#1B1B1A;stroke-width:1.0416666666666667;" width="215.625" x="123.9583" y="187.1745"/><rect codeLine="14" fill="none" height="206.014" id="LongToIntMultiMap" rx="8.3333" ry="8.3333" style="stroke:#5E5E5E;stroke-width:1.0416666666666667;" width="215.625" x="123.9583" y="164.1195"/><ellipse cx="161.5104" cy="179.8136" fill="#0066CF" rx="10.4167" ry="10.4167" style="stroke:#0086EF;stroke-width:1.0416666666666667;"/><path d="M163.4208,184.2387 Q162.9936,184.4584 162.5236,184.5683 Q162.0536,184.6781 161.5348,184.6781 Q159.6916,184.6781 158.7211,183.4635 Q157.7507,182.2489 157.7507,179.954 Q157.7507,177.653 158.7211,176.4384 Q159.6916,175.2238 161.5348,175.2238 Q162.0536,175.2238 162.5297,175.3337 Q163.0058,175.4435 163.4208,175.6632 L163.4208,177.6652 Q162.9569,177.238 162.5205,177.0396 Q162.0841,176.8412 161.6203,176.8412 Q160.6315,176.8412 160.128,177.6255 Q159.6244,178.4098 159.6244,179.954 Q159.6244,181.4921 160.128,182.2764 Q160.6315,183.0607 161.6203,183.0607 Q162.0841,183.0607 162.5205,182.8623 Q162.9569,182.664 163.4208,182.2367 Z " fill="#000000"/><text fill="#D8BC00" font-family="Open Sans,Avenir,Nunito,Arial,Helvetica,SansSerif" font-size="12.5" font-weight="bold" lengthAdjust="spacing" textLength="127.0833" x="183.2813" y="184.5378">LongToIntMultiMap</text><line style="stroke:#5E5E5E;stroke-width:1.5625;" x1="125" x2="338.5417" y1="195.5078" y2="195.5078"/><ellipse cx="135.4167" cy="230.8777" fill="#84BE84" rx="3.125" ry="3.125" style="stroke:#038048;stroke-width:1.0416666666666667;"/><text fill="#D8BC00" font-family="Open Sans,Avenir,Nunito,Arial,Helvetica,SansSerif" font-size="11.4583" lengthAdjust="spacing" textLength="148.9583" x="146.875" y="237.7889">LongToIntMultiMap(String)</text><line style="stroke:#5E5E5E;stroke-width:1.0416666666666667;" x1="125" x2="188.0208" y1="213.7136" y2="213.7136"/><text fill="#D8BC00" font-family="Open Sans,Avenir,Nunito,Arial,Helvetica,SansSerif" font-size="11.4583" lengthAdjust="spacing" textLength="81.25" x="191.1458" y="217.5232">(constructors)</text><line style="stroke:#5E5E5E;stroke-width:1.0416666666666667;" x1="275.5208" x2="338.5417" y1="213.7136" y2="213.7136"/><ellipse cx="135.4167" cy="274.5341" fill="#84BE84" rx="3.125" ry="3.125" style="stroke:#038048;stroke-width:1.0416666666666667;"/><text fill="#D8BC00" font-family="Open Sans,Avenir,Nunito,Arial,Helvetica,SansSerif" font-size="11.4583" lengthAdjust="spacing" textLength="156.25" x="146.875" y="281.4453">void add(long key, int value)</text><ellipse cx="135.4167" cy="294.279" fill="#84BE84" rx="3.125" ry="3.125" style="stroke:#038048;stroke-width:1.0416666666666667;"/><text fill="#D8BC00" font-family="Open Sans,Avenir,Nunito,Arial,Helvetica,SansSerif" font-size="11.4583" lengthAdjust="spacing" textLength="170.8333" x="146.875" y="301.1902">boolean containsKey(long key)</text><ellipse cx="135.4167" cy="314.0238" fill="#84BE84" rx="3.125" ry="3.125" style="stroke:#038048;stroke-width:1.0416666666666667;"/><text fill="#D8BC00" font-family="Open Sans,Avenir,Nunito,Arial,Helvetica,SansSerif" font-size="11.4583" lengthAdjust="spacing" textLength="156.25" x="146.875" y="320.9351">IntIterator iterator(long key)</text><ellipse cx="135.4167" cy="333.7687" fill="#84BE84" rx="3.125" ry="3.125" style="stroke:#038048;stroke-width:1.0416666666666667;"/><text fill="#D8BC00" font-family="Open Sans,Avenir,Nunito,Arial,Helvetica,SansSerif" font-size="11.4583" lengthAdjust="spacing" textLength="106.25" x="146.875" y="340.6799">LongIterator keys()</text><ellipse cx="135.4167" cy="353.5136" fill="#84BE84" rx="3.125" ry="3.125" style="stroke:#038048;stroke-width:1.0416666666666667;"/><text fill="#D8BC00" font-family="Open Sans,Avenir,Nunito,Arial,Helvetica,SansSerif" font-size="11.4583" lengthAdjust="spacing" textLength="183.3333" x="146.875" y="360.4248">void putAll(long key, int[] values)</text><line style="stroke:#5E5E5E;stroke-width:1.0416666666666667;" x1="125" x2="197.3958" y1="257.37" y2="257.37"/><text fill="#D8BC00" font-family="Open Sans,Avenir,Nunito,Arial,Helvetica,SansSerif" font-size="11.4583" lengthAdjust="spacing" textLength="62.5" x="200.5208" y="261.1796">(collection)</text><line style="stroke:#5E5E5E;stroke-width:1.0416666666666667;" x1="266.1458" x2="338.5417" y1="257.37" y2="257.37"/><rect codeLine="29" fill="#282828" height="206.014" id="LongToLongMultiMap" rx="8.3333" ry="8.3333" style="stroke:#5E5E5E;stroke-width:1.0416666666666667;" width="226.0417" x="376.0417" y="164.1195"/><rect fill="#1B1B1A" height="31.3883" rx="8.3333" ry="8.3333" style="stroke:#1B1B1A;stroke-width:1.0416666666666667;" width="226.0417" x="376.0417" y="164.1195"/><rect fill="#1B1B1A" height="8.3333" style="stroke:#1B1B1A;stroke-width:1.0416666666666667;" width="226.0417" x="376.0417" y="187.1745"/><rect codeLine="29" fill="none" height="206.014" id="LongToLongMultiMap" rx="8.3333" ry="8.3333" style="stroke:#5E5E5E;stroke-width:1.0416666666666667;" width="226.0417" x="376.0417" y="164.1195"/><ellipse cx="411.7188" cy="179.8136" fill="#0066CF" rx="10.4167" ry="10.4167" style="stroke:#0086EF;stroke-width:1.0416666666666667;"/><path d="M413.6292,184.2387 Q413.2019,184.4584 412.7319,184.5683 Q412.262,184.6781 411.7432,184.6781 Q409.8999,184.6781 408.9294,183.4635 Q407.959,182.2489 407.959,179.954 Q407.959,177.653 408.9294,176.4384 Q409.8999,175.2238 411.7432,175.2238 Q412.262,175.2238 412.738,175.3337 Q413.2141,175.4435 413.6292,175.6632 L413.6292,177.6652 Q413.1653,177.238 412.7289,177.0396 Q412.2925,176.8412 411.8286,176.8412 Q410.8398,176.8412 410.3363,177.6255 Q409.8328,178.4098 409.8328,179.954 Q409.8328,181.4921 410.3363,182.2764 Q410.8398,183.0607 411.8286,183.0607 Q412.2925,183.0607 412.7289,182.8623 Q413.1653,182.664 413.6292,182.2367 Z " fill="#000000"/><text fill="#D8BC00" font-family="Open Sans,Avenir,Nunito,Arial,Helvetica,SansSerif" font-size="12.5" font-weight="bold" lengthAdjust="spacing" textLength="141.6667" x="433.0729" y="184.5378">LongToLongMultiMap</text><line style="stroke:#5E5E5E;stroke-width:1.5625;" x1="377.0833" x2="601.0417" y1="195.5078" y2="195.5078"/><ellipse cx="387.5" cy="230.8777" fill="#84BE84" rx="3.125" ry="3.125" style="stroke:#038048;stroke-width:1.0416666666666667;"/><text fill="#D8BC00" font-family="Open Sans,Avenir,Nunito,Arial,Helvetica,SansSerif" font-size="11.4583" lengthAdjust="spacing" textLength="162.5" x="398.9583" y="237.7889">LongToLongMultiMap(String)</text><line style="stroke:#5E5E5E;stroke-width:1.0416666666666667;" x1="377.0833" x2="445.3125" y1="213.7136" y2="213.7136"/><text fill="#D8BC00" font-family="Open Sans,Avenir,Nunito,Arial,Helvetica,SansSerif" font-size="11.4583" lengthAdjust="spacing" textLength="81.25" x="448.4375" y="217.5232">(constructors)</text><line style="stroke:#5E5E5E;stroke-width:1.0416666666666667;" x1="532.8125" x2="601.0417" y1="213.7136" y2="213.7136"/><ellipse cx="387.5" cy="274.5341" fill="#84BE84" rx="3.125" ry="3.125" style="stroke:#038048;stroke-width:1.0416666666666667;"/><text fill="#D8BC00" font-family="Open Sans,Avenir,Nunito,Arial,Helvetica,SansSerif" font-size="11.4583" lengthAdjust="spacing" textLength="166.6667" x="398.9583" y="281.4453">void add(long key, long value)</text><ellipse cx="387.5" cy="294.279" fill="#84BE84" rx="3.125" ry="3.125" style="stroke:#038048;stroke-width:1.0416666666666667;"/><text fill="#D8BC00" font-family="Open Sans,Avenir,Nunito,Arial,Helvetica,SansSerif" font-size="11.4583" lengthAdjust="spacing" textLength="170.8333" x="398.9583" y="301.1902">boolean containsKey(long key)</text><ellipse cx="387.5" cy="314.0238" fill="#84BE84" rx="3.125" ry="3.125" style="stroke:#038048;stroke-width:1.0416666666666667;"/><text fill="#D8BC00" font-family="Open Sans,Avenir,Nunito,Arial,Helvetica,SansSerif" font-size="11.4583" lengthAdjust="spacing" textLength="169.7917" x="398.9583" y="320.9351">LongIterator iterator(long key)</text><ellipse cx="387.5" cy="333.7687" fill="#84BE84" rx="3.125" ry="3.125" style="stroke:#038048;stroke-width:1.0416666666666667;"/><text fill="#D8BC00" font-family="Open Sans,Avenir,Nunito,Arial,Helvetica,SansSerif" font-size="11.4583" lengthAdjust="spacing" textLength="106.25" x="398.9583" y="340.6799">LongIterator keys()</text><ellipse cx="387.5" cy="353.5136" fill="#84BE84" rx="3.125" ry="3.125" style="stroke:#038048;stroke-width:1.0416666666666667;"/><text fill="#D8BC00" font-family="Open Sans,Avenir,Nunito,Arial,Helvetica,SansSerif" font-size="11.4583" lengthAdjust="spacing" textLength="193.75" x="398.9583" y="360.4248">void putAll(long key, long[] values)</text><line style="stroke:#5E5E5E;stroke-width:1.0416666666666667;" x1="377.0833" x2="454.6875" y1="257.37" y2="257.37"/><text fill="#D8BC00" font-family="Open Sans,Avenir,Nunito,Arial,Helvetica,SansSerif" font-size="11.4583" lengthAdjust="spacing" textLength="62.5" x="457.8125" y="261.1796">(collection)</text><line style="stroke:#5E5E5E;stroke-width:1.0416666666666667;" x1="523.4375" x2="601.0417" y1="257.37" y2="257.37"/><path codeLine="11" d="M420.0313,114.8486 C400.7604,130.0049 378.1563,147.859 357.8125,164.1195 C351.875,168.8695 345.7813,173.7445 339.6458,178.682 " fill="none" id="PrimitiveMultiMap-backto-LongToIntMultiMap" style="stroke:#545454;stroke-width:1.5625;"/><polygon fill="none" points="415.75,108.9424,436.6354,101.7965,424.7604,120.4007,415.75,108.9424" style="stroke:#545454;stroke-width:1.5625;"/><path codeLine="12" d="M99.6563,117.5674 C111.8021,131.234 126.0938,147.307 140.6979,163.7445 " fill="none" id="IntMultiMap-backto-LongToIntMultiMap" style="stroke:#545454;stroke-width:1.5625;"/><polygon fill="none" points="93.9271,122.109,85.5417,101.6924,104.8333,112.4215,93.9271,122.109" style="stroke:#545454;stroke-width:1.5625;"/><path codeLine="13" d="M250.1042,122.682 C248.5104,135.1715 246.7083,149.3174 244.8646,163.7445 " fill="none" id="PrimitiveScalarMultiMap-backto-LongToIntMultiMap" style="stroke:#545454;stroke-width:1.5625;"/><polygon fill="none" points="242.9167,121.432,252.7917,101.6924,257.3854,123.2861,242.9167,121.432" style="stroke:#545454;stroke-width:1.5625;"/><path codeLine="26" d="M471.5208,122.682 C473.0521,135.1715 474.7813,149.3174 476.5417,163.7445 " fill="none" id="PrimitiveMultiMap-backto-LongToLongMultiMap" style="stroke:#545454;stroke-width:1.5625;"/><polygon fill="none" points="464.25,123.2549,468.9583,101.6924,478.7188,121.484,464.25,123.2549" style="stroke:#545454;stroke-width:1.5625;"/><path codeLine="27" d="M612.5417,118.0257 C601.2396,131.5986 587.9896,147.4945 574.4479,163.7445 " fill="none" id="LongMultiMap-backto-LongToLongMultiMap" style="stroke:#545454;stroke-width:1.5625;"/><polygon fill="none" points="607.2188,113.0257,626.1563,101.6924,618.4167,122.3695,607.2188,113.0257" style="stroke:#545454;stroke-width:1.5625;"/><path codeLine="28" d="M300.75,114.8799 C322.3438,132.234 349.2813,153.8799 375.9583,175.3174 " fill="none" id="PrimitiveScalarMultiMap-backto-LongToLongMultiMap" style="stroke:#545454;stroke-width:1.5625;"/><polygon fill="none" points="296.0104,120.432,284.3438,101.6924,305.1458,109.057,296.0104,120.432" style="stroke:#545454;stroke-width:1.5625;"/></g></svg>
