<?xml version="1.0" encoding="UTF-8" standalone="no"?><svg xmlns="http://www.w3.org/2000/svg" xmlns:xlink="http://www.w3.org/1999/xlink" contentScriptType="application/ecmascript" contentStyleType="text/css" height="760.4167px" preserveAspectRatio="none" style="width:619px;height:760px;background:#333333;" version="1.1" viewBox="0 0 619 760" width="619.7917px" zoomAndPan="magnify"><defs/><g><rect fill="#48494B" height="41.2028" rx="8.3333" ry="8.3333" style="stroke:#545454;stroke-width:1.0416666666666667;" width="607.2917" x="2.0833" y="2.0833"/><text fill="#C0C0C0" font-family="Open Sans,Avenir,Nunito,Arial,Helvetica,SansSerif" font-size="20.8333" lengthAdjust="spacing" textLength="584.375" x="13.5417" y="30.5583">com.telenav.kivakit.primitive.collections.array.bits.io.input</text><rect codeLine="12" fill="#282828" height="234.0922" id="BaseBitReader" rx="8.3333" ry="8.3333" style="stroke:#5E5E5E;stroke-width:1.0416666666666667;" width="205.2083" x="210.4167" y="164.1195"/><rect fill="#1B1B1A" height="31.3883" rx="8.3333" ry="8.3333" style="stroke:#1B1B1A;stroke-width:1.0416666666666667;" width="205.2083" x="210.4167" y="164.1195"/><rect fill="#1B1B1A" height="8.3333" style="stroke:#1B1B1A;stroke-width:1.0416666666666667;" width="205.2083" x="210.4167" y="187.1745"/><rect codeLine="12" fill="none" height="234.0922" id="BaseBitReader" rx="8.3333" ry="8.3333" style="stroke:#5E5E5E;stroke-width:1.0416666666666667;" width="205.2083" x="210.4167" y="164.1195"/><ellipse cx="259.8958" cy="179.8136" fill="#C8AC00" rx="10.4167" ry="10.4167" style="stroke:#D8BC00;stroke-width:1.0416666666666667;"/><path d="M259.4889,176.5157 L258.6405,180.245 L260.3434,180.245 Z M258.3903,174.8678 L260.5937,174.8678 L263.0534,183.9803 L261.2528,183.9803 L260.6913,181.7281 L258.2804,181.7281 L257.7311,183.9803 L255.9306,183.9803 Z " fill="#000000"/><text fill="#D8BC00" font-family="Open Sans,Avenir,Nunito,Arial,Helvetica,SansSerif" font-size="12.5" font-style="italic" font-weight="bold" lengthAdjust="spacing" textLength="91.6667" x="282.8125" y="184.5378">BaseBitReader</text><line style="stroke:#5E5E5E;stroke-width:1.5625;" x1="211.4583" x2="414.5833" y1="195.5078" y2="195.5078"/><polygon fill="#FFFF44" points="221.875,225.6694,226.0417,229.836,221.875,234.0027,217.7083,229.836" style="stroke:#B38D22;stroke-width:1.0416666666666667;"/><text fill="#D8BC00" font-family="Open Sans,Avenir,Nunito,Arial,Helvetica,SansSerif" font-size="11.4583" lengthAdjust="spacing" textLength="85.4167" x="233.3333" y="237.7889">BaseBitReader()</text><polygon fill="#FFFF44" points="221.875,245.4142,226.0417,249.5809,221.875,253.7476,217.7083,249.5809" style="stroke:#B38D22;stroke-width:1.0416666666666667;"/><text fill="#D8BC00" font-family="Open Sans,Avenir,Nunito,Arial,Helvetica,SansSerif" font-size="11.4583" lengthAdjust="spacing" textLength="168.75" x="233.3333" y="257.5338">BaseBitReader(ByteList, Count)</text><line style="stroke:#5E5E5E;stroke-width:1.0416666666666667;" x1="211.4583" x2="269.2708" y1="213.7136" y2="213.7136"/><text fill="#D8BC00" font-family="Open Sans,Avenir,Nunito,Arial,Helvetica,SansSerif" font-size="11.4583" lengthAdjust="spacing" textLength="81.25" x="272.3958" y="217.5232">(constructors)</text><line style="stroke:#5E5E5E;stroke-width:1.0416666666666667;" x1="356.7708" x2="414.5833" y1="213.7136" y2="213.7136"/><line style="stroke:#5E5E5E;stroke-width:1.0416666666666667;" x1="211.4583" x2="414.5833" y1="267.2424" y2="267.2424"/><polygon fill="#FFFF44" points="221.875,273.4924,226.0417,277.6591,221.875,281.8258,217.7083,277.6591" style="stroke:#B38D22;stroke-width:1.0416666666666667;"/><text fill="#D8BC00" font-family="Open Sans,Avenir,Nunito,Arial,Helvetica,SansSerif" font-size="11.4583" lengthAdjust="spacing" textLength="55.2083" x="233.3333" y="285.612">int mask()</text><polygon fill="#FFFF44" points="221.875,317.1488,226.0417,321.3155,221.875,325.4822,217.7083,321.3155" style="stroke:#B38D22;stroke-width:1.0416666666666667;"/><text fill="#D8BC00" font-family="Open Sans,Avenir,Nunito,Arial,Helvetica,SansSerif" font-size="11.4583" lengthAdjust="spacing" textLength="100" x="233.3333" y="329.2684">long byteCursor()</text><polygon fill="#FFFF44" points="221.875,336.8937,226.0417,341.0604,221.875,345.2271,217.7083,341.0604" style="stroke:#B38D22;stroke-width:1.0416666666666667;"/><text fill="#D8BC00" font-family="Open Sans,Avenir,Nunito,Arial,Helvetica,SansSerif" font-size="11.4583" lengthAdjust="spacing" textLength="172.9167" x="233.3333" y="349.0133">void byteCursor(long position)</text><polygon fill="#FFFF44" points="221.875,356.6386,226.0417,360.8053,221.875,364.9719,217.7083,360.8053" style="stroke:#B38D22;stroke-width:1.0416666666666667;"/><text fill="#D8BC00" font-family="Open Sans,Avenir,Nunito,Arial,Helvetica,SansSerif" font-size="11.4583" lengthAdjust="spacing" textLength="125" x="233.3333" y="368.7581">boolean hasNextByte()</text><polygon fill="#FFFF44" points="221.875,376.3835,226.0417,380.5501,221.875,384.7168,217.7083,380.5501" style="stroke:#B38D22;stroke-width:1.0416666666666667;"/><text fill="#D8BC00" font-family="Open Sans,Avenir,Nunito,Arial,Helvetica,SansSerif" font-size="11.4583" lengthAdjust="spacing" textLength="83.3333" x="233.3333" y="388.503">byte nextByte()</text><line style="stroke:#5E5E5E;stroke-width:1.0416666666666667;" x1="211.4583" x2="281.25" y1="305.1931" y2="305.1931"/><text fill="#D8BC00" font-family="Open Sans,Avenir,Nunito,Arial,Helvetica,SansSerif" font-size="11.4583" lengthAdjust="spacing" textLength="57.2917" x="284.375" y="309.0027">(primitive)</text><line style="stroke:#5E5E5E;stroke-width:1.0416666666666667;" x1="344.7917" x2="414.5833" y1="305.1931" y2="305.1931"/><rect codeLine="9" fill="#282828" height="48.055" id="BitReader" rx="8.3333" ry="8.3333" style="stroke:#5E5E5E;stroke-width:1.0416666666666667;" width="98.9583" x="263.5417" y="53.7028"/><rect fill="#1B1B1A" height="31.3883" rx="8.3333" ry="8.3333" style="stroke:#1B1B1A;stroke-width:1.0416666666666667;" width="98.9583" x="263.5417" y="53.7028"/><rect fill="#1B1B1A" height="8.3333" style="stroke:#1B1B1A;stroke-width:1.0416666666666667;" width="98.9583" x="263.5417" y="76.7578"/><rect codeLine="9" fill="none" height="48.055" id="BitReader" rx="8.3333" ry="8.3333" style="stroke:#5E5E5E;stroke-width:1.0416666666666667;" width="98.9583" x="263.5417" y="53.7028"/><ellipse cx="278.125" cy="69.397" fill="#008400" rx="10.4167" ry="10.4167" style="stroke:#239C23;stroke-width:1.0416666666666667;"/><path d="M275.529,66.5588 L275.529,64.9719 L280.955,64.9719 L280.955,66.5588 L279.1423,66.5588 L279.1423,72.4976 L280.955,72.4976 L280.955,74.0845 L275.529,74.0845 L275.529,72.4976 L277.3417,72.4976 L277.3417,66.5588 Z " fill="#000000"/><text fill="#D8BC00" font-family="Open Sans,Avenir,Nunito,Arial,Helvetica,SansSerif" font-size="12.5" font-style="italic" font-weight="bold" lengthAdjust="spacing" textLength="61.4583" x="294.7917" y="74.1211">BitReader</text><line style="stroke:#5E5E5E;stroke-width:1.0416666666666667;" x1="264.5833" x2="361.4583" y1="85.0911" y2="85.0911"/><line style="stroke:#5E5E5E;stroke-width:1.0416666666666667;" x1="264.5833" x2="361.4583" y1="93.4245" y2="93.4245"/><rect codeLine="27" fill="#282828" height="83.3781" id="BitInput" rx="8.3333" ry="8.3333" style="stroke:#5E5E5E;stroke-width:1.0416666666666667;" width="151.0417" x="237.5" y="460.9945"/><rect fill="#1B1B1A" height="31.3883" rx="8.3333" ry="8.3333" style="stroke:#1B1B1A;stroke-width:1.0416666666666667;" width="151.0417" x="237.5" y="460.9945"/><rect fill="#1B1B1A" height="8.3333" style="stroke:#1B1B1A;stroke-width:1.0416666666666667;" width="151.0417" x="237.5" y="484.0495"/><rect codeLine="27" fill="none" height="83.3781" id="BitInput" rx="8.3333" ry="8.3333" style="stroke:#5E5E5E;stroke-width:1.0416666666666667;" width="151.0417" x="237.5" y="460.9945"/><ellipse cx="279.7396" cy="476.6886" fill="#0066CF" rx="10.4167" ry="10.4167" style="stroke:#0086EF;stroke-width:1.0416666666666667;"/><path d="M281.65,481.1137 Q281.2227,481.3334 280.7528,481.4433 Q280.2828,481.5531 279.764,481.5531 Q277.9207,481.5531 276.9503,480.3385 Q275.9798,479.1239 275.9798,476.829 Q275.9798,474.528 276.9503,473.3134 Q277.9207,472.0988 279.764,472.0988 Q280.2828,472.0988 280.7589,472.2087 Q281.2349,472.3185 281.65,472.5382 L281.65,474.5402 Q281.1861,474.113 280.7497,473.9146 Q280.3133,473.7162 279.8494,473.7162 Q278.8607,473.7162 278.3571,474.5005 Q277.8536,475.2848 277.8536,476.829 Q277.8536,478.3671 278.3571,479.1514 Q278.8607,479.9357 279.8494,479.9357 Q280.3133,479.9357 280.7497,479.7373 Q281.1861,479.539 281.65,479.1117 Z " fill="#000000"/><text fill="#D8BC00" font-family="Open Sans,Avenir,Nunito,Arial,Helvetica,SansSerif" font-size="12.5" font-weight="bold" lengthAdjust="spacing" textLength="52.0833" x="302.5521" y="481.4128">BitInput</text><line style="stroke:#5E5E5E;stroke-width:1.5625;" x1="238.5417" x2="387.5" y1="492.3828" y2="492.3828"/><ellipse cx="248.9583" cy="527.7527" fill="#84BE84" rx="3.125" ry="3.125" style="stroke:#038048;stroke-width:1.0416666666666667;"/><text fill="#D8BC00" font-family="Open Sans,Avenir,Nunito,Arial,Helvetica,SansSerif" font-size="11.4583" lengthAdjust="spacing" textLength="118.75" x="260.4167" y="534.6639">BitInput(InputStream)</text><line style="stroke:#5E5E5E;stroke-width:1.0416666666666667;" x1="238.5417" x2="269.2708" y1="510.5886" y2="510.5886"/><text fill="#D8BC00" font-family="Open Sans,Avenir,Nunito,Arial,Helvetica,SansSerif" font-size="11.4583" lengthAdjust="spacing" textLength="81.25" x="272.3958" y="514.3982">(constructors)</text><line style="stroke:#5E5E5E;stroke-width:1.0416666666666667;" x1="356.7708" x2="387.5" y1="510.5886" y2="510.5886"/><rect codeLine="34" fill="#282828" height="146.7794" id="VariableReadSizeBitInput" rx="8.3333" ry="8.3333" style="stroke:#5E5E5E;stroke-width:1.0416666666666667;" width="244.7917" x="190.625" y="606.8278"/><rect fill="#1B1B1A" height="31.3883" rx="8.3333" ry="8.3333" style="stroke:#1B1B1A;stroke-width:1.0416666666666667;" width="244.7917" x="190.625" y="606.8278"/><rect fill="#1B1B1A" height="8.3333" style="stroke:#1B1B1A;stroke-width:1.0416666666666667;" width="244.7917" x="190.625" y="629.8828"/><rect codeLine="34" fill="none" height="146.7794" id="VariableReadSizeBitInput" rx="8.3333" ry="8.3333" style="stroke:#5E5E5E;stroke-width:1.0416666666666667;" width="244.7917" x="190.625" y="606.8278"/><ellipse cx="225.8333" cy="622.522" fill="#0066CF" rx="10.4167" ry="10.4167" style="stroke:#0086EF;stroke-width:1.0416666666666667;"/><path d="M227.7437,626.947 Q227.3165,627.1667 226.8465,627.2766 Q226.3765,627.3865 225.8577,627.3865 Q224.0145,627.3865 223.044,626.1719 Q222.0736,624.9573 222.0736,622.6624 Q222.0736,620.3613 223.044,619.1467 Q224.0145,617.9321 225.8577,617.9321 Q226.3765,617.9321 226.8526,618.042 Q227.3287,618.1519 227.7437,618.3716 L227.7437,620.3735 Q227.2799,619.9463 226.8435,619.7479 Q226.4071,619.5496 225.9432,619.5496 Q224.9544,619.5496 224.4509,620.3339 Q223.9473,621.1182 223.9473,622.6624 Q223.9473,624.2004 224.4509,624.9847 Q224.9544,625.769 225.9432,625.769 Q226.4071,625.769 226.8435,625.5707 Q227.2799,625.3723 227.7437,624.9451 Z " fill="#000000"/><text fill="#D8BC00" font-family="Open Sans,Avenir,Nunito,Arial,Helvetica,SansSerif" font-size="12.5" font-weight="bold" lengthAdjust="spacing" textLength="161.4583" x="247.0833" y="627.2461">VariableReadSizeBitInput</text><line style="stroke:#5E5E5E;stroke-width:1.5625;" x1="191.6667" x2="434.375" y1="638.2161" y2="638.2161"/><ellipse cx="202.0833" cy="673.586" fill="#84BE84" rx="3.125" ry="3.125" style="stroke:#038048;stroke-width:1.0416666666666667;"/><text fill="#D8BC00" font-family="Open Sans,Avenir,Nunito,Arial,Helvetica,SansSerif" font-size="11.4583" lengthAdjust="spacing" textLength="212.5" x="213.5417" y="680.4972">VariableReadSizeBitInput(InputStream)</text><line style="stroke:#5E5E5E;stroke-width:1.0416666666666667;" x1="191.6667" x2="269.2708" y1="656.4219" y2="656.4219"/><text fill="#D8BC00" font-family="Open Sans,Avenir,Nunito,Arial,Helvetica,SansSerif" font-size="11.4583" lengthAdjust="spacing" textLength="81.25" x="272.3958" y="660.2315">(constructors)</text><line style="stroke:#5E5E5E;stroke-width:1.0416666666666667;" x1="356.7708" x2="434.375" y1="656.4219" y2="656.4219"/><ellipse cx="202.0833" cy="717.2424" fill="#84BE84" rx="3.125" ry="3.125" style="stroke:#038048;stroke-width:1.0416666666666667;"/><text fill="#D8BC00" font-family="Open Sans,Avenir,Nunito,Arial,Helvetica,SansSerif" font-size="11.4583" lengthAdjust="spacing" textLength="98.9583" x="213.5417" y="724.1536">long readSigned()</text><ellipse cx="202.0833" cy="736.9873" fill="#84BE84" rx="3.125" ry="3.125" style="stroke:#038048;stroke-width:1.0416666666666667;"/><text fill="#D8BC00" font-family="Open Sans,Avenir,Nunito,Arial,Helvetica,SansSerif" font-size="11.4583" lengthAdjust="spacing" textLength="114.5833" x="213.5417" y="743.8985">long readUnsigned()</text><line style="stroke:#5E5E5E;stroke-width:1.0416666666666667;" x1="191.6667" x2="293.2292" y1="700.0783" y2="700.0783"/><text fill="#D8BC00" font-family="Open Sans,Avenir,Nunito,Arial,Helvetica,SansSerif" font-size="11.4583" lengthAdjust="spacing" textLength="33.3333" x="296.3542" y="703.8879">(read)</text><line style="stroke:#5E5E5E;stroke-width:1.0416666666666667;" x1="332.8125" x2="434.375" y1="700.0783" y2="700.0783"/><path codeLine="11" d="M313.0208,122.6924 C313.0208,135.1403 313.0208,149.2965 313.0208,163.9007 " fill="none" id="BitReader-backto-BaseBitReader" style="stroke:#545454;stroke-width:1.5625;"/><polygon fill="none" points="305.7292,122.6611,313.0208,101.8278,320.3125,122.6611,305.7292,122.6611" style="stroke:#545454;stroke-width:1.5625;"/><path codeLine="26" d="M313.0208,419.9632 C313.0208,434.7236 313.0208,448.7653 313.0208,460.9007 " fill="none" id="BaseBitReader-backto-BitInput" style="stroke:#545454;stroke-width:1.5625;"/><polygon fill="none" points="305.7292,419.557,313.0208,398.7236,320.3125,419.557,305.7292,419.557" style="stroke:#545454;stroke-width:1.5625;"/><path codeLine="33" d="M313.0208,565.6924 C313.0208,578.9632 313.0208,593.0986 313.0208,606.7236 " fill="none" id="BitInput-backto-VariableReadSizeBitInput" style="stroke:#545454;stroke-width:1.5625;"/><polygon fill="none" points="305.7292,565.2445,313.0208,544.4111,320.3125,565.2445,305.7292,565.2445" style="stroke:#545454;stroke-width:1.5625;"/></g></svg>
