<?xml version="1.0" encoding="UTF-8" standalone="no"?><svg xmlns="http://www.w3.org/2000/svg" xmlns:xlink="http://www.w3.org/1999/xlink" contentScriptType="application/ecmascript" contentStyleType="text/css" height="701.0417px" preserveAspectRatio="none" style="width:1272px;height:701px;background:#333333;" version="1.1" viewBox="0 0 1272 701" width="1272.9167px" zoomAndPan="magnify"><defs/><g><rect fill="#48494B" height="41.2028" rx="8.3333" ry="8.3333" style="stroke:#545454;stroke-width:1.0416666666666667;" width="559.375" x="349.7396" y="2.0833"/><text fill="#C0C0C0" font-family="Open Sans,Avenir,Nunito,Arial,Helvetica,SansSerif" font-size="20.8333" lengthAdjust="spacing" textLength="536.4583" x="361.1979" y="30.5583">com.telenav.kivakit.primitive.collections.array.packed</text><rect codeLine="56" fill="#282828" height="122.8678" id="PackedPrimitiveArray" rx="8.3333" ry="8.3333" style="stroke:#5E5E5E;stroke-width:1.0416666666666667;" width="360.4167" x="279.6875" y="53.7028"/><rect fill="#1B1B1A" height="31.3883" rx="8.3333" ry="8.3333" style="stroke:#1B1B1A;stroke-width:1.0416666666666667;" width="360.4167" x="279.6875" y="53.7028"/><rect fill="#1B1B1A" height="8.3333" style="stroke:#1B1B1A;stroke-width:1.0416666666666667;" width="360.4167" x="279.6875" y="76.7578"/><rect codeLine="56" fill="none" height="122.8678" id="PackedPrimitiveArray" rx="8.3333" ry="8.3333" style="stroke:#5E5E5E;stroke-width:1.0416666666666667;" width="360.4167" x="279.6875" y="53.7028"/><ellipse cx="384.375" cy="69.397" fill="#008400" rx="10.4167" ry="10.4167" style="stroke:#239C23;stroke-width:1.0416666666666667;"/><path d="M381.779,66.5588 L381.779,64.9719 L387.205,64.9719 L387.205,66.5588 L385.3923,66.5588 L385.3923,72.4976 L387.205,72.4976 L387.205,74.0845 L381.779,74.0845 L381.779,72.4976 L383.5917,72.4976 L383.5917,66.5588 Z " fill="#000000"/><text fill="#D8BC00" font-family="Open Sans,Avenir,Nunito,Arial,Helvetica,SansSerif" font-size="12.5" font-style="italic" font-weight="bold" lengthAdjust="spacing" textLength="136.4583" x="407.2917" y="74.1211">PackedPrimitiveArray</text><line style="stroke:#5E5E5E;stroke-width:1.5625;" x1="280.7292" x2="639.0625" y1="85.0911" y2="85.0911"/><ellipse cx="291.1458" cy="120.461" fill="#84BE84" rx="3.125" ry="3.125" style="stroke:#038048;stroke-width:1.0416666666666667;"/><text fill="#D8BC00" font-family="Open Sans,Avenir,Nunito,Arial,Helvetica,SansSerif" font-size="11.4583" lengthAdjust="spacing" textLength="80.2083" x="302.6042" y="127.3722">BitCount bits()</text><ellipse cx="291.1458" cy="140.2059" fill="#84BE84" rx="3.125" ry="3.125" style="stroke:#038048;stroke-width:1.0416666666666667;"/><text fill="#D8BC00" font-family="Open Sans,Avenir,Nunito,Arial,Helvetica,SansSerif" font-size="11.4583" lengthAdjust="spacing" textLength="328.125" x="302.6042" y="147.1171">PackedPrimitiveArray bits(BitCount bits, OverflowHandling)</text><ellipse cx="291.1458" cy="159.9508" fill="#84BE84" rx="3.125" ry="3.125" style="stroke:#038048;stroke-width:1.0416666666666667;"/><text fill="#D8BC00" font-family="Open Sans,Avenir,Nunito,Arial,Helvetica,SansSerif" font-size="11.4583" lengthAdjust="spacing" textLength="159.375" x="302.6042" y="166.862">OverflowHandling overflow()</text><line style="stroke:#5E5E5E;stroke-width:1.0416666666666667;" x1="280.7292" x2="425.5208" y1="103.2969" y2="103.2969"/><text fill="#D8BC00" font-family="Open Sans,Avenir,Nunito,Arial,Helvetica,SansSerif" font-size="11.4583" lengthAdjust="spacing" textLength="62.5" x="428.6458" y="107.1065">(collection)</text><line style="stroke:#5E5E5E;stroke-width:1.0416666666666667;" x1="494.2708" x2="639.0625" y1="103.2969" y2="103.2969"/><rect codeLine="8" fill="#282828" height="48.055" id="LongList" rx="8.3333" ry="8.3333" style="stroke:#5E5E5E;stroke-width:1.0416666666666667;" width="93.75" x="676.5625" y="91.2028"/><rect fill="#1B1B1A" height="31.3883" rx="8.3333" ry="8.3333" style="stroke:#1B1B1A;stroke-width:1.0416666666666667;" width="93.75" x="676.5625" y="91.2028"/><rect fill="#1B1B1A" height="8.3333" style="stroke:#1B1B1A;stroke-width:1.0416666666666667;" width="93.75" x="676.5625" y="114.2578"/><rect codeLine="8" fill="none" height="48.055" id="LongList" rx="8.3333" ry="8.3333" style="stroke:#5E5E5E;stroke-width:1.0416666666666667;" width="93.75" x="676.5625" y="91.2028"/><ellipse cx="691.1458" cy="106.897" fill="#008400" rx="10.4167" ry="10.4167" style="stroke:#239C23;stroke-width:1.0416666666666667;"/><path d="M688.5498,104.0588 L688.5498,102.4719 L693.9758,102.4719 L693.9758,104.0588 L692.1631,104.0588 L692.1631,109.9976 L693.9758,109.9976 L693.9758,111.5845 L688.5498,111.5845 L688.5498,109.9976 L690.3625,109.9976 L690.3625,104.0588 Z " fill="#000000"/><text fill="#D8BC00" font-family="Open Sans,Avenir,Nunito,Arial,Helvetica,SansSerif" font-size="12.5" font-style="italic" font-weight="bold" lengthAdjust="spacing" textLength="56.25" x="707.8125" y="111.6211">LongList</text><line style="stroke:#5E5E5E;stroke-width:1.0416666666666667;" x1="677.6042" x2="769.2708" y1="122.5911" y2="122.5911"/><line style="stroke:#5E5E5E;stroke-width:1.0416666666666667;" x1="677.6042" x2="769.2708" y1="130.9245" y2="130.9245"/><rect fill="#282828" height="48.055" id="PrimitiveSplitArray" rx="8.3333" ry="8.3333" style="stroke:#5E5E5E;stroke-width:1.0416666666666667;" width="158.3333" x="77.6042" y="91.2028"/><rect fill="#1B1B1A" height="31.3883" rx="8.3333" ry="8.3333" style="stroke:#1B1B1A;stroke-width:1.0416666666666667;" width="158.3333" x="77.6042" y="91.2028"/><rect fill="#1B1B1A" height="8.3333" style="stroke:#1B1B1A;stroke-width:1.0416666666666667;" width="158.3333" x="77.6042" y="114.2578"/><rect fill="none" height="48.055" id="PrimitiveSplitArray" rx="8.3333" ry="8.3333" style="stroke:#5E5E5E;stroke-width:1.0416666666666667;" width="158.3333" x="77.6042" y="91.2028"/><ellipse cx="92.1875" cy="106.897" fill="#0066CF" rx="10.4167" ry="10.4167" style="stroke:#0086EF;stroke-width:1.0416666666666667;"/><path d="M94.0979,111.322 Q93.6707,111.5417 93.2007,111.6516 Q92.7307,111.7615 92.2119,111.7615 Q90.3687,111.7615 89.3982,110.5469 Q88.4277,109.3323 88.4277,107.0374 Q88.4277,104.7363 89.3982,103.5217 Q90.3687,102.3071 92.2119,102.3071 Q92.7307,102.3071 93.2068,102.417 Q93.6829,102.5269 94.0979,102.7466 L94.0979,104.7485 Q93.634,104.3213 93.1976,104.1229 Q92.7612,103.9246 92.2974,103.9246 Q91.3086,103.9246 90.8051,104.7089 Q90.3015,105.4932 90.3015,107.0374 Q90.3015,108.5754 90.8051,109.3597 Q91.3086,110.144 92.2974,110.144 Q92.7612,110.144 93.1976,109.9457 Q93.634,109.7473 94.0979,109.3201 Z " fill="#000000"/><text fill="#D8BC00" font-family="Open Sans,Avenir,Nunito,Arial,Helvetica,SansSerif" font-size="12.5" font-weight="bold" lengthAdjust="spacing" textLength="120.8333" x="108.8542" y="111.6211">PrimitiveSplitArray</text><line style="stroke:#5E5E5E;stroke-width:1.0416666666666667;" x1="78.6458" x2="234.8958" y1="122.5911" y2="122.5911"/><line style="stroke:#5E5E5E;stroke-width:1.0416666666666667;" x1="78.6458" x2="234.8958" y1="130.9245" y2="130.9245"/><rect codeLine="12" fill="#282828" height="455.4525" id="BigSplitPackedArray" rx="8.3333" ry="8.3333" style="stroke:#5E5E5E;stroke-width:1.0416666666666667;" width="269.7917" x="7.2917" y="239.1195"/><rect fill="#1B1B1A" height="31.3883" rx="8.3333" ry="8.3333" style="stroke:#1B1B1A;stroke-width:1.0416666666666667;" width="269.7917" x="7.2917" y="239.1195"/><rect fill="#1B1B1A" height="8.3333" style="stroke:#1B1B1A;stroke-width:1.0416666666666667;" width="269.7917" x="7.2917" y="262.1745"/><rect codeLine="12" fill="none" height="455.4525" id="BigSplitPackedArray" rx="8.3333" ry="8.3333" style="stroke:#5E5E5E;stroke-width:1.0416666666666667;" width="269.7917" x="7.2917" y="239.1195"/><ellipse cx="70.3125" cy="254.8136" fill="#0066CF" rx="10.4167" ry="10.4167" style="stroke:#0086EF;stroke-width:1.0416666666666667;"/><path d="M72.2229,259.2387 Q71.7957,259.4584 71.3257,259.5683 Q70.8557,259.6781 70.3369,259.6781 Q68.4937,259.6781 67.5232,258.4635 Q66.5527,257.2489 66.5527,254.954 Q66.5527,252.653 67.5232,251.4384 Q68.4937,250.2238 70.3369,250.2238 Q70.8557,250.2238 71.3318,250.3337 Q71.8079,250.4435 72.2229,250.6632 L72.2229,252.6652 Q71.759,252.238 71.3226,252.0396 Q70.8862,251.8412 70.4224,251.8412 Q69.4336,251.8412 68.9301,252.6255 Q68.4265,253.4098 68.4265,254.954 Q68.4265,256.4921 68.9301,257.2764 Q69.4336,258.0607 70.4224,258.0607 Q70.8862,258.0607 71.3226,257.8623 Q71.759,257.664 72.2229,257.2367 Z " fill="#000000"/><text fill="#D8BC00" font-family="Open Sans,Avenir,Nunito,Arial,Helvetica,SansSerif" font-size="12.5" font-weight="bold" lengthAdjust="spacing" textLength="129.1667" x="93.2292" y="259.5378">BigSplitPackedArray</text><line style="stroke:#5E5E5E;stroke-width:1.5625;" x1="8.3333" x2="276.0417" y1="270.5078" y2="270.5078"/><ellipse cx="18.75" cy="305.8777" fill="#84BE84" rx="3.125" ry="3.125" style="stroke:#038048;stroke-width:1.0416666666666667;"/><text fill="#D8BC00" font-family="Open Sans,Avenir,Nunito,Arial,Helvetica,SansSerif" font-size="11.4583" lengthAdjust="spacing" textLength="152.0833" x="30.2083" y="312.7889">BigSplitPackedArray(String)</text><line style="stroke:#5E5E5E;stroke-width:1.0416666666666667;" x1="8.3333" x2="98.4375" y1="288.7136" y2="288.7136"/><text fill="#D8BC00" font-family="Open Sans,Avenir,Nunito,Arial,Helvetica,SansSerif" font-size="11.4583" lengthAdjust="spacing" textLength="81.25" x="101.5625" y="292.5232">(constructors)</text><line style="stroke:#5E5E5E;stroke-width:1.0416666666666667;" x1="185.9375" x2="276.0417" y1="288.7136" y2="288.7136"/><line style="stroke:#5E5E5E;stroke-width:1.0416666666666667;" x1="8.3333" x2="276.0417" y1="322.4976" y2="322.4976"/><ellipse cx="18.75" cy="333.9559" fill="#84BE84" rx="3.125" ry="3.125" style="stroke:#038048;stroke-width:1.0416666666666667;"/><text fill="#D8BC00" font-family="Open Sans,Avenir,Nunito,Arial,Helvetica,SansSerif" font-size="11.4583" lengthAdjust="spacing" textLength="176.0417" x="30.2083" y="340.8671">Boolean getBoolean(long index)</text><ellipse cx="18.75" cy="353.7008" fill="#84BE84" rx="3.125" ry="3.125" style="stroke:#038048;stroke-width:1.0416666666666667;"/><text fill="#D8BC00" font-family="Open Sans,Avenir,Nunito,Arial,Helvetica,SansSerif" font-size="11.4583" lengthAdjust="spacing" textLength="201.0417" x="30.2083" y="360.612">boolean safeGetBoolean(long index)</text><ellipse cx="18.75" cy="373.4456" fill="#84BE84" rx="3.125" ry="3.125" style="stroke:#038048;stroke-width:1.0416666666666667;"/><text fill="#D8BC00" font-family="Open Sans,Avenir,Nunito,Arial,Helvetica,SansSerif" font-size="11.4583" lengthAdjust="spacing" textLength="237.5" x="30.2083" y="380.3569">void setBoolean(long index, Boolean value)</text><ellipse cx="18.75" cy="417.1021" fill="#84BE84" rx="3.125" ry="3.125" style="stroke:#038048;stroke-width:1.0416666666666667;"/><text fill="#D8BC00" font-family="Open Sans,Avenir,Nunito,Arial,Helvetica,SansSerif" font-size="11.4583" lengthAdjust="spacing" textLength="157.2917" x="30.2083" y="424.0133">Count getCount(long index)</text><ellipse cx="18.75" cy="436.8469" fill="#84BE84" rx="3.125" ry="3.125" style="stroke:#038048;stroke-width:1.0416666666666667;"/><text fill="#D8BC00" font-family="Open Sans,Avenir,Nunito,Arial,Helvetica,SansSerif" font-size="11.4583" lengthAdjust="spacing" textLength="181.25" x="30.2083" y="443.7581">Count safeGetCount(long index)</text><ellipse cx="18.75" cy="456.5918" fill="#84BE84" rx="3.125" ry="3.125" style="stroke:#038048;stroke-width:1.0416666666666667;"/><text fill="#D8BC00" font-family="Open Sans,Avenir,Nunito,Arial,Helvetica,SansSerif" font-size="11.4583" lengthAdjust="spacing" textLength="186.4583" x="30.2083" y="463.503">void setCount(long index, Count)</text><line style="stroke:#5E5E5E;stroke-width:1.0416666666666667;" x1="8.3333" x2="107.8125" y1="399.9379" y2="399.9379"/><text fill="#D8BC00" font-family="Open Sans,Avenir,Nunito,Arial,Helvetica,SansSerif" font-size="11.4583" lengthAdjust="spacing" textLength="62.5" x="110.9375" y="403.7476">(collection)</text><line style="stroke:#5E5E5E;stroke-width:1.0416666666666667;" x1="176.5625" x2="276.0417" y1="399.9379" y2="399.9379"/><ellipse cx="18.75" cy="500.2482" fill="#84BE84" rx="3.125" ry="3.125" style="stroke:#038048;stroke-width:1.0416666666666667;"/><text fill="#D8BC00" font-family="Open Sans,Avenir,Nunito,Arial,Helvetica,SansSerif" font-size="11.4583" lengthAdjust="spacing" textLength="117.7083" x="30.2083" y="507.1594">int getInt(long index)</text><ellipse cx="18.75" cy="519.9931" fill="#84BE84" rx="3.125" ry="3.125" style="stroke:#038048;stroke-width:1.0416666666666667;"/><text fill="#D8BC00" font-family="Open Sans,Avenir,Nunito,Arial,Helvetica,SansSerif" font-size="11.4583" lengthAdjust="spacing" textLength="167.7083" x="30.2083" y="526.9043">Integer getInteger(long index)</text><ellipse cx="18.75" cy="539.738" fill="#84BE84" rx="3.125" ry="3.125" style="stroke:#038048;stroke-width:1.0416666666666667;"/><text fill="#D8BC00" font-family="Open Sans,Avenir,Nunito,Arial,Helvetica,SansSerif" font-size="11.4583" lengthAdjust="spacing" textLength="144.7917" x="30.2083" y="546.6492">Long getLong(long index)</text><ellipse cx="18.75" cy="559.4828" fill="#84BE84" rx="3.125" ry="3.125" style="stroke:#038048;stroke-width:1.0416666666666667;"/><text fill="#D8BC00" font-family="Open Sans,Avenir,Nunito,Arial,Helvetica,SansSerif" font-size="11.4583" lengthAdjust="spacing" textLength="219.7917" x="30.2083" y="566.394">LongIterator indexesOfNonNullValues()</text><ellipse cx="18.75" cy="579.2277" fill="#84BE84" rx="3.125" ry="3.125" style="stroke:#038048;stroke-width:1.0416666666666667;"/><text fill="#D8BC00" font-family="Open Sans,Avenir,Nunito,Arial,Helvetica,SansSerif" font-size="11.4583" lengthAdjust="spacing" textLength="83.3333" x="30.2083" y="586.1389">long longSize()</text><ellipse cx="18.75" cy="598.9726" fill="#84BE84" rx="3.125" ry="3.125" style="stroke:#038048;stroke-width:1.0416666666666667;"/><text fill="#D8BC00" font-family="Open Sans,Avenir,Nunito,Arial,Helvetica,SansSerif" font-size="11.4583" lengthAdjust="spacing" textLength="141.6667" x="30.2083" y="605.8838">int safeGetInt(long index)</text><ellipse cx="18.75" cy="618.7174" fill="#84BE84" rx="3.125" ry="3.125" style="stroke:#038048;stroke-width:1.0416666666666667;"/><text fill="#D8BC00" font-family="Open Sans,Avenir,Nunito,Arial,Helvetica,SansSerif" font-size="11.4583" lengthAdjust="spacing" textLength="165.625" x="30.2083" y="625.6287">long safeGetLong(long index)</text><ellipse cx="18.75" cy="638.4623" fill="#84BE84" rx="3.125" ry="3.125" style="stroke:#038048;stroke-width:1.0416666666666667;"/><text fill="#D8BC00" font-family="Open Sans,Avenir,Nunito,Arial,Helvetica,SansSerif" font-size="11.4583" lengthAdjust="spacing" textLength="179.1667" x="30.2083" y="645.3735">void setInt(long index, int value)</text><ellipse cx="18.75" cy="658.2072" fill="#84BE84" rx="3.125" ry="3.125" style="stroke:#038048;stroke-width:1.0416666666666667;"/><text fill="#D8BC00" font-family="Open Sans,Avenir,Nunito,Arial,Helvetica,SansSerif" font-size="11.4583" lengthAdjust="spacing" textLength="229.1667" x="30.2083" y="665.1184">void setInteger(long index, Integer value)</text><ellipse cx="18.75" cy="677.9521" fill="#84BE84" rx="3.125" ry="3.125" style="stroke:#038048;stroke-width:1.0416666666666667;"/><text fill="#D8BC00" font-family="Open Sans,Avenir,Nunito,Arial,Helvetica,SansSerif" font-size="11.4583" lengthAdjust="spacing" textLength="206.25" x="30.2083" y="684.8633">void setLong(long index, Long value)</text><line style="stroke:#5E5E5E;stroke-width:1.0416666666666667;" x1="8.3333" x2="110.4167" y1="483.0841" y2="483.0841"/><text fill="#D8BC00" font-family="Open Sans,Avenir,Nunito,Arial,Helvetica,SansSerif" font-size="11.4583" lengthAdjust="spacing" textLength="57.2917" x="113.5417" y="486.8937">(primitive)</text><line style="stroke:#5E5E5E;stroke-width:1.0416666666666667;" x1="173.9583" x2="276.0417" y1="483.0841" y2="483.0841"/><rect codeLine="37" fill="#282828" height="87.5448" id="PackedPrimitiveArray.OverflowHandling" rx="8.3333" ry="8.3333" style="stroke:#5E5E5E;stroke-width:1.0416666666666667;" width="293.75" x="972.3958" y="71.4111"/><rect fill="#1B1B1A" height="31.3883" rx="8.3333" ry="8.3333" style="stroke:#1B1B1A;stroke-width:1.0416666666666667;" width="293.75" x="972.3958" y="71.4111"/><rect fill="#1B1B1A" height="8.3333" style="stroke:#1B1B1A;stroke-width:1.0416666666666667;" width="293.75" x="972.3958" y="94.4661"/><rect codeLine="37" fill="none" height="87.5448" id="PackedPrimitiveArray.OverflowHandling" rx="8.3333" ry="8.3333" style="stroke:#5E5E5E;stroke-width:1.0416666666666667;" width="293.75" x="972.3958" y="71.4111"/><ellipse cx="986.9792" cy="87.1053" fill="#CF6300" rx="10.4167" ry="10.4167" style="stroke:#EF8300;stroke-width:1.0416666666666667;"/><path d="M990.035,91.7928 L984.3587,91.7928 L984.3587,82.6803 L990.035,82.6803 L990.035,84.2672 L986.1593,84.2672 L986.1593,86.2325 L989.6688,86.2325 L989.6688,87.8194 L986.1593,87.8194 L986.1593,90.2059 L990.035,90.2059 Z " fill="#000000"/><text fill="#D8BC00" font-family="Open Sans,Avenir,Nunito,Arial,Helvetica,SansSerif" font-size="12.5" font-weight="bold" lengthAdjust="spacing" textLength="256.25" x="1003.6458" y="91.8294">PackedPrimitiveArray.OverflowHandling</text><line style="stroke:#5E5E5E;stroke-width:1.0416666666666667;" x1="973.4375" x2="1265.1042" y1="102.7995" y2="102.7995"/><text fill="#D8BC00" font-family="Open Sans,Avenir,Nunito,Arial,Helvetica,SansSerif" font-size="11.4583" lengthAdjust="spacing" textLength="107.2917" x="981.7708" y="121.169">ALLOW_OVERFLOW</text><text fill="#D8BC00" font-family="Open Sans,Avenir,Nunito,Arial,Helvetica,SansSerif" font-size="11.4583" lengthAdjust="spacing" textLength="85.4167" x="981.7708" y="140.9139">NO_OVERFLOW</text><line style="stroke:#5E5E5E;stroke-width:1.0416666666666667;" x1="973.4375" x2="1265.1042" y1="150.6226" y2="150.6226"/><rect fill="#282828" height="48.055" id="PrimitiveArray" rx="8.3333" ry="8.3333" style="stroke:#5E5E5E;stroke-width:1.0416666666666667;" width="129.1667" x="806.7708" y="91.2028"/><rect fill="#1B1B1A" height="31.3883" rx="8.3333" ry="8.3333" style="stroke:#1B1B1A;stroke-width:1.0416666666666667;" width="129.1667" x="806.7708" y="91.2028"/><rect fill="#1B1B1A" height="8.3333" style="stroke:#1B1B1A;stroke-width:1.0416666666666667;" width="129.1667" x="806.7708" y="114.2578"/><rect fill="none" height="48.055" id="PrimitiveArray" rx="8.3333" ry="8.3333" style="stroke:#5E5E5E;stroke-width:1.0416666666666667;" width="129.1667" x="806.7708" y="91.2028"/><ellipse cx="821.3542" cy="106.897" fill="#0066CF" rx="10.4167" ry="10.4167" style="stroke:#0086EF;stroke-width:1.0416666666666667;"/><path d="M823.2646,111.322 Q822.8373,111.5417 822.3674,111.6516 Q821.8974,111.7615 821.3786,111.7615 Q819.5353,111.7615 818.5649,110.5469 Q817.5944,109.3323 817.5944,107.0374 Q817.5944,104.7363 818.5649,103.5217 Q819.5353,102.3071 821.3786,102.3071 Q821.8974,102.3071 822.3735,102.417 Q822.8495,102.5269 823.2646,102.7466 L823.2646,104.7485 Q822.8007,104.3213 822.3643,104.1229 Q821.9279,103.9246 821.464,103.9246 Q820.4753,103.9246 819.9717,104.7089 Q819.4682,105.4932 819.4682,107.0374 Q819.4682,108.5754 819.9717,109.3597 Q820.4753,110.144 821.464,110.144 Q821.9279,110.144 822.3643,109.9457 Q822.8007,109.7473 823.2646,109.3201 Z " fill="#000000"/><text fill="#D8BC00" font-family="Open Sans,Avenir,Nunito,Arial,Helvetica,SansSerif" font-size="12.5" font-weight="bold" lengthAdjust="spacing" textLength="91.6667" x="838.0208" y="111.6211">PrimitiveArray</text><line style="stroke:#5E5E5E;stroke-width:1.0416666666666667;" x1="807.8125" x2="934.8958" y1="122.5911" y2="122.5911"/><line style="stroke:#5E5E5E;stroke-width:1.0416666666666667;" x1="807.8125" x2="934.8958" y1="130.9245" y2="130.9245"/><rect codeLine="46" fill="#282828" height="155.1127" id="PackedArray" rx="8.3333" ry="8.3333" style="stroke:#5E5E5E;stroke-width:1.0416666666666667;" width="201.0417" x="657.2917" y="389.1195"/><rect fill="#1B1B1A" height="31.3883" rx="8.3333" ry="8.3333" style="stroke:#1B1B1A;stroke-width:1.0416666666666667;" width="201.0417" x="657.2917" y="389.1195"/><rect fill="#1B1B1A" height="8.3333" style="stroke:#1B1B1A;stroke-width:1.0416666666666667;" width="201.0417" x="657.2917" y="412.1745"/><rect codeLine="46" fill="none" height="155.1127" id="PackedArray" rx="8.3333" ry="8.3333" style="stroke:#5E5E5E;stroke-width:1.0416666666666667;" width="201.0417" x="657.2917" y="389.1195"/><ellipse cx="710.9375" cy="404.8136" fill="#0066CF" rx="10.4167" ry="10.4167" style="stroke:#0086EF;stroke-width:1.0416666666666667;"/><path d="M712.8479,409.2387 Q712.4207,409.4584 711.9507,409.5683 Q711.4807,409.6781 710.9619,409.6781 Q709.1187,409.6781 708.1482,408.4635 Q707.1777,407.2489 707.1777,404.954 Q707.1777,402.653 708.1482,401.4384 Q709.1187,400.2238 710.9619,400.2238 Q711.4807,400.2238 711.9568,400.3337 Q712.4329,400.4435 712.8479,400.6632 L712.8479,402.6652 Q712.384,402.238 711.9476,402.0396 Q711.5112,401.8412 711.0474,401.8412 Q710.0586,401.8412 709.5551,402.6255 Q709.0515,403.4098 709.0515,404.954 Q709.0515,406.4921 709.5551,407.2764 Q710.0586,408.0607 711.0474,408.0607 Q711.5112,408.0607 711.9476,407.8623 Q712.384,407.664 712.8479,407.2367 Z " fill="#000000"/><text fill="#D8BC00" font-family="Open Sans,Avenir,Nunito,Arial,Helvetica,SansSerif" font-size="12.5" font-weight="bold" lengthAdjust="spacing" textLength="79.1667" x="733.8542" y="409.5378">PackedArray</text><line style="stroke:#5E5E5E;stroke-width:1.5625;" x1="658.3333" x2="857.2917" y1="420.5078" y2="420.5078"/><ellipse cx="668.75" cy="455.8777" fill="#84BE84" rx="3.125" ry="3.125" style="stroke:#038048;stroke-width:1.0416666666666667;"/><text fill="#D8BC00" font-family="Open Sans,Avenir,Nunito,Arial,Helvetica,SansSerif" font-size="11.4583" lengthAdjust="spacing" textLength="111.4583" x="680.2083" y="462.7889">PackedArray(String)</text><line style="stroke:#5E5E5E;stroke-width:1.0416666666666667;" x1="658.3333" x2="714.0625" y1="438.7136" y2="438.7136"/><text fill="#D8BC00" font-family="Open Sans,Avenir,Nunito,Arial,Helvetica,SansSerif" font-size="11.4583" lengthAdjust="spacing" textLength="81.25" x="717.1875" y="442.5232">(constructors)</text><line style="stroke:#5E5E5E;stroke-width:1.0416666666666667;" x1="801.5625" x2="857.2917" y1="438.7136" y2="438.7136"/><line style="stroke:#5E5E5E;stroke-width:1.0416666666666667;" x1="658.3333" x2="857.2917" y1="472.4976" y2="472.4976"/><ellipse cx="668.75" cy="483.9559" fill="#84BE84" rx="3.125" ry="3.125" style="stroke:#038048;stroke-width:1.0416666666666667;"/><text fill="#D8BC00" font-family="Open Sans,Avenir,Nunito,Arial,Helvetica,SansSerif" font-size="11.4583" lengthAdjust="spacing" textLength="140.625" x="680.2083" y="490.8671">long getSigned(int index)</text><ellipse cx="668.75" cy="527.6123" fill="#84BE84" rx="3.125" ry="3.125" style="stroke:#038048;stroke-width:1.0416666666666667;"/><text fill="#D8BC00" font-family="Open Sans,Avenir,Nunito,Arial,Helvetica,SansSerif" font-size="11.4583" lengthAdjust="spacing" textLength="168.75" x="680.2083" y="534.5235">void setInt(int index, int value)</text><line style="stroke:#5E5E5E;stroke-width:1.0416666666666667;" x1="658.3333" x2="726.0417" y1="510.4482" y2="510.4482"/><text fill="#D8BC00" font-family="Open Sans,Avenir,Nunito,Arial,Helvetica,SansSerif" font-size="11.4583" lengthAdjust="spacing" textLength="57.2917" x="729.1667" y="514.2578">(primitive)</text><line style="stroke:#5E5E5E;stroke-width:1.0416666666666667;" x1="789.5833" x2="857.2917" y1="510.4482" y2="510.4482"/><rect codeLine="67" fill="#282828" height="404.5512" id="SplitPackedArray" rx="8.3333" ry="8.3333" style="stroke:#5E5E5E;stroke-width:1.0416666666666667;" width="307.2917" x="313.5417" y="264.6403"/><rect fill="#1B1B1A" height="31.3883" rx="8.3333" ry="8.3333" style="stroke:#1B1B1A;stroke-width:1.0416666666666667;" width="307.2917" x="313.5417" y="264.6403"/><rect fill="#1B1B1A" height="8.3333" style="stroke:#1B1B1A;stroke-width:1.0416666666666667;" width="307.2917" x="313.5417" y="287.6953"/><rect codeLine="67" fill="none" height="404.5512" id="SplitPackedArray" rx="8.3333" ry="8.3333" style="stroke:#5E5E5E;stroke-width:1.0416666666666667;" width="307.2917" x="313.5417" y="264.6403"/><ellipse cx="405.7292" cy="280.3345" fill="#0066CF" rx="10.4167" ry="10.4167" style="stroke:#0086EF;stroke-width:1.0416666666666667;"/><path d="M407.6396,284.7595 Q407.2123,284.9792 406.7424,285.0891 Q406.2724,285.199 405.7536,285.199 Q403.9103,285.199 402.9399,283.9844 Q401.9694,282.7698 401.9694,280.4749 Q401.9694,278.1738 402.9399,276.9592 Q403.9103,275.7446 405.7536,275.7446 Q406.2724,275.7446 406.7485,275.8545 Q407.2245,275.9644 407.6396,276.1841 L407.6396,278.186 Q407.1757,277.7588 406.7393,277.5604 Q406.3029,277.3621 405.839,277.3621 Q404.8503,277.3621 404.3467,278.1464 Q403.8432,278.9307 403.8432,280.4749 Q403.8432,282.0129 404.3467,282.7972 Q404.8503,283.5815 405.839,283.5815 Q406.3029,283.5815 406.7393,283.3832 Q407.1757,283.1848 407.6396,282.7576 Z " fill="#000000"/><text fill="#D8BC00" font-family="Open Sans,Avenir,Nunito,Arial,Helvetica,SansSerif" font-size="12.5" font-weight="bold" lengthAdjust="spacing" textLength="108.3333" x="428.6458" y="285.0586">SplitPackedArray</text><line style="stroke:#5E5E5E;stroke-width:1.5625;" x1="314.5833" x2="619.7917" y1="296.0286" y2="296.0286"/><ellipse cx="325" cy="331.3985" fill="#84BE84" rx="3.125" ry="3.125" style="stroke:#038048;stroke-width:1.0416666666666667;"/><text fill="#D8BC00" font-family="Open Sans,Avenir,Nunito,Arial,Helvetica,SansSerif" font-size="11.4583" lengthAdjust="spacing" textLength="135.4167" x="336.4583" y="338.3097">SplitPackedArray(String)</text><line style="stroke:#5E5E5E;stroke-width:1.0416666666666667;" x1="314.5833" x2="423.4375" y1="314.2344" y2="314.2344"/><text fill="#D8BC00" font-family="Open Sans,Avenir,Nunito,Arial,Helvetica,SansSerif" font-size="11.4583" lengthAdjust="spacing" textLength="81.25" x="426.5625" y="318.044">(constructors)</text><line style="stroke:#5E5E5E;stroke-width:1.0416666666666667;" x1="510.9375" x2="619.7917" y1="314.2344" y2="314.2344"/><line style="stroke:#5E5E5E;stroke-width:1.0416666666666667;" x1="314.5833" x2="619.7917" y1="348.0184" y2="348.0184"/><ellipse cx="325" cy="359.4767" fill="#84BE84" rx="3.125" ry="3.125" style="stroke:#038048;stroke-width:1.0416666666666667;"/><text fill="#D8BC00" font-family="Open Sans,Avenir,Nunito,Arial,Helvetica,SansSerif" font-size="11.4583" lengthAdjust="spacing" textLength="166.6667" x="336.4583" y="366.3879">boolean getBoolean(int index)</text><ellipse cx="325" cy="379.2216" fill="#84BE84" rx="3.125" ry="3.125" style="stroke:#038048;stroke-width:1.0416666666666667;"/><text fill="#D8BC00" font-family="Open Sans,Avenir,Nunito,Arial,Helvetica,SansSerif" font-size="11.4583" lengthAdjust="spacing" textLength="140.625" x="336.4583" y="386.1328">long getSigned(int index)</text><ellipse cx="325" cy="398.9665" fill="#84BE84" rx="3.125" ry="3.125" style="stroke:#038048;stroke-width:1.0416666666666667;"/><text fill="#D8BC00" font-family="Open Sans,Avenir,Nunito,Arial,Helvetica,SansSerif" font-size="11.4583" lengthAdjust="spacing" textLength="190.625" x="336.4583" y="405.8777">boolean safeGetBoolean(int index)</text><ellipse cx="325" cy="418.7113" fill="#84BE84" rx="3.125" ry="3.125" style="stroke:#038048;stroke-width:1.0416666666666667;"/><text fill="#D8BC00" font-family="Open Sans,Avenir,Nunito,Arial,Helvetica,SansSerif" font-size="11.4583" lengthAdjust="spacing" textLength="228.125" x="336.4583" y="425.6226">void setBoolean(int index, boolean value)</text><ellipse cx="325" cy="462.3678" fill="#84BE84" rx="3.125" ry="3.125" style="stroke:#038048;stroke-width:1.0416666666666667;"/><text fill="#D8BC00" font-family="Open Sans,Avenir,Nunito,Arial,Helvetica,SansSerif" font-size="11.4583" lengthAdjust="spacing" textLength="146.875" x="336.4583" y="469.279">Count getCount(int index)</text><ellipse cx="325" cy="482.1126" fill="#84BE84" rx="3.125" ry="3.125" style="stroke:#038048;stroke-width:1.0416666666666667;"/><text fill="#D8BC00" font-family="Open Sans,Avenir,Nunito,Arial,Helvetica,SansSerif" font-size="11.4583" lengthAdjust="spacing" textLength="170.8333" x="336.4583" y="489.0238">Count safeGetCount(int index)</text><ellipse cx="325" cy="501.8575" fill="#84BE84" rx="3.125" ry="3.125" style="stroke:#038048;stroke-width:1.0416666666666667;"/><text fill="#D8BC00" font-family="Open Sans,Avenir,Nunito,Arial,Helvetica,SansSerif" font-size="11.4583" lengthAdjust="spacing" textLength="176.0417" x="336.4583" y="508.7687">void setCount(int index, Count)</text><line style="stroke:#5E5E5E;stroke-width:1.0416666666666667;" x1="314.5833" x2="432.8125" y1="445.2037" y2="445.2037"/><text fill="#D8BC00" font-family="Open Sans,Avenir,Nunito,Arial,Helvetica,SansSerif" font-size="11.4583" lengthAdjust="spacing" textLength="62.5" x="435.9375" y="449.0133">(collection)</text><line style="stroke:#5E5E5E;stroke-width:1.0416666666666667;" x1="501.5625" x2="619.7917" y1="445.2037" y2="445.2037"/><ellipse cx="325" cy="545.5139" fill="#84BE84" rx="3.125" ry="3.125" style="stroke:#038048;stroke-width:1.0416666666666667;"/><text fill="#D8BC00" font-family="Open Sans,Avenir,Nunito,Arial,Helvetica,SansSerif" font-size="11.4583" lengthAdjust="spacing" textLength="195.8333" x="336.4583" y="552.4251">void copyTo(SplitPackedArray that)</text><line style="stroke:#5E5E5E;stroke-width:1.0416666666666667;" x1="314.5833" x2="431.7708" y1="528.3498" y2="528.3498"/><text fill="#D8BC00" font-family="Open Sans,Avenir,Nunito,Arial,Helvetica,SansSerif" font-size="11.4583" lengthAdjust="spacing" textLength="64.5833" x="434.8958" y="532.1594">(filesystem)</text><line style="stroke:#5E5E5E;stroke-width:1.0416666666666667;" x1="502.6042" x2="619.7917" y1="528.3498" y2="528.3498"/><ellipse cx="325" cy="589.1703" fill="#84BE84" rx="3.125" ry="3.125" style="stroke:#038048;stroke-width:1.0416666666666667;"/><text fill="#D8BC00" font-family="Open Sans,Avenir,Nunito,Arial,Helvetica,SansSerif" font-size="11.4583" lengthAdjust="spacing" textLength="275" x="336.4583" y="596.0815">void initializeElements(boolean initializeElements)</text><line style="stroke:#5E5E5E;stroke-width:1.0416666666666667;" x1="314.5833" x2="437.5" y1="572.0062" y2="572.0062"/><text fill="#D8BC00" font-family="Open Sans,Avenir,Nunito,Arial,Helvetica,SansSerif" font-size="11.4583" lengthAdjust="spacing" textLength="53.125" x="440.625" y="575.8158">(lifecycle)</text><line style="stroke:#5E5E5E;stroke-width:1.0416666666666667;" x1="496.875" x2="619.7917" y1="572.0062" y2="572.0062"/><ellipse cx="325" cy="632.8267" fill="#84BE84" rx="3.125" ry="3.125" style="stroke:#038048;stroke-width:1.0416666666666667;"/><text fill="#D8BC00" font-family="Open Sans,Avenir,Nunito,Arial,Helvetica,SansSerif" font-size="11.4583" lengthAdjust="spacing" textLength="131.25" x="336.4583" y="639.738">int safeGetInt(int index)</text><ellipse cx="325" cy="652.5716" fill="#84BE84" rx="3.125" ry="3.125" style="stroke:#038048;stroke-width:1.0416666666666667;"/><text fill="#D8BC00" font-family="Open Sans,Avenir,Nunito,Arial,Helvetica,SansSerif" font-size="11.4583" lengthAdjust="spacing" textLength="168.75" x="336.4583" y="659.4828">void setInt(int index, int value)</text><line style="stroke:#5E5E5E;stroke-width:1.0416666666666667;" x1="314.5833" x2="435.4167" y1="615.6626" y2="615.6626"/><text fill="#D8BC00" font-family="Open Sans,Avenir,Nunito,Arial,Helvetica,SansSerif" font-size="11.4583" lengthAdjust="spacing" textLength="57.2917" x="438.5417" y="619.4722">(primitive)</text><line style="stroke:#5E5E5E;stroke-width:1.0416666666666667;" x1="498.9583" x2="619.7917" y1="615.6626" y2="615.6626"/><path codeLine="10" d="M154.9375,160.1403 C154.0417,181.557 152.8958,209.109 151.6563,238.8799 " fill="none" id="PrimitiveSplitArray-backto-BigSplitPackedArray" style="stroke:#545454;stroke-width:1.5625;"/><polygon fill="none" points="147.6563,159.6403,155.8125,139.1299,162.2292,160.2549,147.6563,159.6403" style="stroke:#545454;stroke-width:1.5625;"/><path codeLine="11" d="M350.7396,189.5674 C331.3021,204.859 311.9583,221.6715 295.3125,239.1195 C289.1667,245.557 283.1042,252.2757 277.1354,259.182 " fill="none" id="PackedPrimitiveArray-backto-BigSplitPackedArray" style="stroke:#545454;stroke-width:1.5625;"/><polygon fill="none" points="346.4375,183.682,367.4167,176.8278,355.2917,195.2757,346.4375,183.682" style="stroke:#545454;stroke-width:1.5625;"/><path codeLine="43" d="M857.4583,158.984 C838.9063,216.0674 805.75,318.1507 782.8021,388.7757 " fill="none" id="PrimitiveArray-backto-PackedArray" style="stroke:#545454;stroke-width:1.5625;"/><polygon fill="none" points="850.5313,156.6924,863.9063,139.1299,864.4063,161.2028,850.5313,156.6924" style="stroke:#545454;stroke-width:1.5625;"/><path codeLine="44" d="M727.7604,160.1195 C733.3958,217.4215 743.3438,318.6195 750.25,388.7757 " fill="none" id="LongList-backto-PackedArray" style="stroke:#545454;stroke-width:1.5625;"/><polygon fill="none" points="720.4792,160.5778,725.6979,139.1299,734.9896,159.1507,720.4792,160.5778" style="stroke:#545454;stroke-width:1.5625;"/><path codeLine="45" d="M583.2292,188.859 C603.3125,203.9215 622.8229,220.8278 639.0625,239.1195 C678.1354,283.1195 708.5729,342.2653 728.8438,389.0882 " fill="none" id="PackedPrimitiveArray-backto-PackedArray" style="stroke:#545454;stroke-width:1.5625;"/><polygon fill="none" points="578.9375,194.7549,566.2917,176.6611,587.4583,182.9215,578.9375,194.7549" style="stroke:#545454;stroke-width:1.5625;"/><path codeLine="64" d="M202.1771,152.5986 C230.2708,176.0361 266.3646,207.859 295.3125,239.1195 C302.8646,247.2653 310.4063,255.734 317.8958,264.4007 " fill="none" id="PrimitiveSplitArray-backto-SplitPackedArray" style="stroke:#545454;stroke-width:1.5625;"/><polygon fill="none" points="197.3125,158.0361,185.8542,139.1715,206.5833,146.7757,197.3125,158.0361" style="stroke:#545454;stroke-width:1.5625;"/><path codeLine="65" d="M694.2604,156.0049 C673.8854,183.7861 645,223.182 614.625,264.5986 " fill="none" id="LongList-backto-SplitPackedArray" style="stroke:#545454;stroke-width:1.5625;"/><polygon fill="none" points="688.4271,151.6195,706.625,139.1299,700.1875,160.2445,688.4271,151.6195" style="stroke:#545454;stroke-width:1.5625;"/><path codeLine="66" d="M461.5938,197.7861 C462.0208,218.182 462.5,240.9632 462.9896,264.4111 " fill="none" id="PackedPrimitiveArray-backto-SplitPackedArray" style="stroke:#545454;stroke-width:1.5625;"/><polygon fill="none" points="454.3021,197.6611,461.1563,176.682,468.8854,197.359,454.3021,197.6611" style="stroke:#545454;stroke-width:1.5625;"/></g></svg>
