<?xml version="1.0" encoding="UTF-8" standalone="no"?><svg xmlns="http://www.w3.org/2000/svg" xmlns:xlink="http://www.w3.org/1999/xlink" contentScriptType="application/ecmascript" contentStyleType="text/css" height="475px" preserveAspectRatio="none" style="width:1055px;height:475px;background:#333333;" version="1.1" viewBox="0 0 1055 475" width="1055.2083px" zoomAndPan="magnify"><defs/><g><rect fill="#48494B" height="41.2028" rx="8.3333" ry="8.3333" style="stroke:#545454;stroke-width:1.0416666666666667;" width="334.375" x="353.3854" y="2.0833"/><text fill="#C0C0C0" font-family="Open Sans,Avenir,Nunito,Arial,Helvetica,SansSerif" font-size="20.8333" lengthAdjust="spacing" textLength="311.4583" x="364.8438" y="30.5583">com.telenav.kivakit.component</text><!--MD5=[762aa3d0df6a9d47bd8e105afbd066b5]
class BaseRepeater--><rect codeLine="6" fill="#282828" height="48.055" id="BaseRepeater" rx="8.3333" ry="8.3333" style="stroke:#5E5E5E;stroke-width:1.0416666666666667;" width="123.9583" x="274.4792" y="164.1195"/><rect fill="#1B1B1A" height="31.3883" rx="8.3333" ry="8.3333" style="stroke:#1B1B1A;stroke-width:1.0416666666666667;" width="123.9583" x="274.4792" y="164.1195"/><rect fill="#1B1B1A" height="8.3333" style="stroke:#1B1B1A;stroke-width:1.0416666666666667;" width="123.9583" x="274.4792" y="187.1745"/><rect codeLine="6" fill="none" height="48.055" id="BaseRepeater" rx="8.3333" ry="8.3333" style="stroke:#5E5E5E;stroke-width:1.0416666666666667;" width="123.9583" x="274.4792" y="164.1195"/><ellipse cx="289.0625" cy="179.8136" fill="#C8AC00" rx="10.4167" ry="10.4167" style="stroke:#D8BC00;stroke-width:1.0416666666666667;"/><path d="M288.6556,176.5157 L287.8072,180.245 L289.5101,180.245 Z M287.557,174.8678 L289.7603,174.8678 L292.2201,183.9803 L290.4195,183.9803 L289.858,181.7281 L287.4471,181.7281 L286.8978,183.9803 L285.0972,183.9803 Z " fill="#000000"/><text fill="#D8BC00" font-family="Open Sans,Avenir,Nunito,Arial,Helvetica,SansSerif" font-size="12.5" font-style="italic" font-weight="bold" lengthAdjust="spacing" textLength="86.4583" x="305.7292" y="184.5378">BaseRepeater</text><line style="stroke:#5E5E5E;stroke-width:1.0416666666666667;" x1="275.5208" x2="397.3958" y1="195.5078" y2="195.5078"/><line style="stroke:#5E5E5E;stroke-width:1.0416666666666667;" x1="275.5208" x2="397.3958" y1="203.8411" y2="203.8411"/><!--MD5=[6ca99d34851392075b5e04b85c61b465]
class SettingsTrait--><rect codeLine="27" fill="#282828" height="48.055" id="SettingsTrait" rx="8.3333" ry="8.3333" style="stroke:#5E5E5E;stroke-width:1.0416666666666667;" width="120.8333" x="164.5833" y="53.7028"/><rect fill="#1B1B1A" height="31.3883" rx="8.3333" ry="8.3333" style="stroke:#1B1B1A;stroke-width:1.0416666666666667;" width="120.8333" x="164.5833" y="53.7028"/><rect fill="#1B1B1A" height="8.3333" style="stroke:#1B1B1A;stroke-width:1.0416666666666667;" width="120.8333" x="164.5833" y="76.7578"/><rect codeLine="27" fill="none" height="48.055" id="SettingsTrait" rx="8.3333" ry="8.3333" style="stroke:#5E5E5E;stroke-width:1.0416666666666667;" width="120.8333" x="164.5833" y="53.7028"/><ellipse cx="179.1667" cy="69.397" fill="#008400" rx="10.4167" ry="10.4167" style="stroke:#239C23;stroke-width:1.0416666666666667;"/><path d="M176.5706,66.5588 L176.5706,64.9719 L181.9967,64.9719 L181.9967,66.5588 L180.1839,66.5588 L180.1839,72.4976 L181.9967,72.4976 L181.9967,74.0845 L176.5706,74.0845 L176.5706,72.4976 L178.3834,72.4976 L178.3834,66.5588 Z " fill="#000000"/><text fill="#D8BC00" font-family="Open Sans,Avenir,Nunito,Arial,Helvetica,SansSerif" font-size="12.5" font-style="italic" font-weight="bold" lengthAdjust="spacing" textLength="83.3333" x="195.8333" y="74.1211">SettingsTrait</text><line style="stroke:#5E5E5E;stroke-width:1.0416666666666667;" x1="165.625" x2="284.375" y1="85.0911" y2="85.0911"/><line style="stroke:#5E5E5E;stroke-width:1.0416666666666667;" x1="165.625" x2="284.375" y1="93.4245" y2="93.4245"/><!--MD5=[4e13963c9dc916a21a8436ef39422b32]
class Component--><rect codeLine="48" fill="#282828" height="48.055" id="Component" rx="8.3333" ry="8.3333" style="stroke:#5E5E5E;stroke-width:1.0416666666666667;" width="113.5417" x="496.3542" y="164.1195"/><rect fill="#1B1B1A" height="31.3883" rx="8.3333" ry="8.3333" style="stroke:#1B1B1A;stroke-width:1.0416666666666667;" width="113.5417" x="496.3542" y="164.1195"/><rect fill="#1B1B1A" height="8.3333" style="stroke:#1B1B1A;stroke-width:1.0416666666666667;" width="113.5417" x="496.3542" y="187.1745"/><rect codeLine="48" fill="none" height="48.055" id="Component" rx="8.3333" ry="8.3333" style="stroke:#5E5E5E;stroke-width:1.0416666666666667;" width="113.5417" x="496.3542" y="164.1195"/><ellipse cx="510.9375" cy="179.8136" fill="#008400" rx="10.4167" ry="10.4167" style="stroke:#239C23;stroke-width:1.0416666666666667;"/><path d="M508.3415,176.9755 L508.3415,175.3886 L513.7675,175.3886 L513.7675,176.9755 L511.9548,176.9755 L511.9548,182.9142 L513.7675,182.9142 L513.7675,184.5011 L508.3415,184.5011 L508.3415,182.9142 L510.1542,182.9142 L510.1542,176.9755 Z " fill="#000000"/><text fill="#D8BC00" font-family="Open Sans,Avenir,Nunito,Arial,Helvetica,SansSerif" font-size="12.5" font-style="italic" font-weight="bold" lengthAdjust="spacing" textLength="76.0417" x="527.6042" y="184.5378">Component</text><line style="stroke:#5E5E5E;stroke-width:1.0416666666666667;" x1="497.3958" x2="608.8542" y1="195.5078" y2="195.5078"/><line style="stroke:#5E5E5E;stroke-width:1.0416666666666667;" x1="497.3958" x2="608.8542" y1="203.8411" y2="203.8411"/><!--MD5=[34eb2c3cd1bd084029c026d450c2586e]
class RegistryTrait--><rect codeLine="24" fill="#282828" height="48.055" id="RegistryTrait" rx="8.3333" ry="8.3333" style="stroke:#5E5E5E;stroke-width:1.0416666666666667;" width="120.8333" x="7.2917" y="53.7028"/><rect fill="#1B1B1A" height="31.3883" rx="8.3333" ry="8.3333" style="stroke:#1B1B1A;stroke-width:1.0416666666666667;" width="120.8333" x="7.2917" y="53.7028"/><rect fill="#1B1B1A" height="8.3333" style="stroke:#1B1B1A;stroke-width:1.0416666666666667;" width="120.8333" x="7.2917" y="76.7578"/><rect codeLine="24" fill="none" height="48.055" id="RegistryTrait" rx="8.3333" ry="8.3333" style="stroke:#5E5E5E;stroke-width:1.0416666666666667;" width="120.8333" x="7.2917" y="53.7028"/><ellipse cx="21.875" cy="69.397" fill="#008400" rx="10.4167" ry="10.4167" style="stroke:#239C23;stroke-width:1.0416666666666667;"/><path d="M19.279,66.5588 L19.279,64.9719 L24.705,64.9719 L24.705,66.5588 L22.8923,66.5588 L22.8923,72.4976 L24.705,72.4976 L24.705,74.0845 L19.279,74.0845 L19.279,72.4976 L21.0917,72.4976 L21.0917,66.5588 Z " fill="#000000"/><text fill="#D8BC00" font-family="Open Sans,Avenir,Nunito,Arial,Helvetica,SansSerif" font-size="12.5" font-style="italic" font-weight="bold" lengthAdjust="spacing" textLength="83.3333" x="38.5417" y="74.1211">RegistryTrait</text><line style="stroke:#5E5E5E;stroke-width:1.0416666666666667;" x1="8.3333" x2="127.0833" y1="85.0911" y2="85.0911"/><line style="stroke:#5E5E5E;stroke-width:1.0416666666666667;" x1="8.3333" x2="127.0833" y1="93.4245" y2="93.4245"/><!--MD5=[784d533083758286c885e86b9fe3090e]
class BaseComponent--><rect codeLine="16" fill="#282828" height="83.3781" id="BaseComponent" rx="8.3333" ry="8.3333" style="stroke:#5E5E5E;stroke-width:1.0416666666666667;" width="301.0417" x="68.2292" y="274.5361"/><rect fill="#1B1B1A" height="31.3883" rx="8.3333" ry="8.3333" style="stroke:#1B1B1A;stroke-width:1.0416666666666667;" width="301.0417" x="68.2292" y="274.5361"/><rect fill="#1B1B1A" height="8.3333" style="stroke:#1B1B1A;stroke-width:1.0416666666666667;" width="301.0417" x="68.2292" y="297.5911"/><rect codeLine="16" fill="none" height="83.3781" id="BaseComponent" rx="8.3333" ry="8.3333" style="stroke:#5E5E5E;stroke-width:1.0416666666666667;" width="301.0417" x="68.2292" y="274.5361"/><ellipse cx="158.3333" cy="290.2303" fill="#0066CF" rx="10.4167" ry="10.4167" style="stroke:#0086EF;stroke-width:1.0416666666666667;"/><path d="M160.2437,294.6554 Q159.8165,294.8751 159.3465,294.9849 Q158.8765,295.0948 158.3577,295.0948 Q156.5145,295.0948 155.544,293.8802 Q154.5736,292.6656 154.5736,290.3707 Q154.5736,288.0697 155.544,286.8551 Q156.5145,285.6405 158.3577,285.6405 Q158.8765,285.6405 159.3526,285.7503 Q159.8287,285.8602 160.2437,286.0799 L160.2437,288.0819 Q159.7799,287.6546 159.3435,287.4563 Q158.9071,287.2579 158.4432,287.2579 Q157.4544,287.2579 156.9509,288.0422 Q156.4473,288.8265 156.4473,290.3707 Q156.4473,291.9088 156.9509,292.6931 Q157.4544,293.4774 158.4432,293.4774 Q158.9071,293.4774 159.3435,293.279 Q159.7799,293.0806 160.2437,292.6534 Z " fill="#000000"/><text fill="#D8BC00" font-family="Open Sans,Avenir,Nunito,Arial,Helvetica,SansSerif" font-size="12.5" font-weight="bold" lengthAdjust="spacing" textLength="106.25" x="181.25" y="294.9544">BaseComponent</text><line style="stroke:#5E5E5E;stroke-width:1.5625;" x1="69.2708" x2="368.2292" y1="305.9245" y2="305.9245"/><ellipse cx="79.6875" cy="341.2944" fill="#84BE84" rx="3.125" ry="3.125" style="stroke:#038048;stroke-width:1.0416666666666667;"/><text fill="#D8BC00" font-family="Open Sans,Avenir,Nunito,Arial,Helvetica,SansSerif" font-size="11.4583" lengthAdjust="spacing" textLength="268.75" x="91.1458" y="348.2056">void onMessage(Consumer&lt;Message&gt; handler)</text><line style="stroke:#5E5E5E;stroke-width:1.0416666666666667;" x1="69.2708" x2="181.25" y1="324.1302" y2="324.1302"/><text fill="#D8BC00" font-family="Open Sans,Avenir,Nunito,Arial,Helvetica,SansSerif" font-size="11.4583" lengthAdjust="spacing" textLength="68.75" x="184.375" y="327.9399">(messaging)</text><line style="stroke:#5E5E5E;stroke-width:1.0416666666666667;" x1="256.25" x2="368.2292" y1="324.1302" y2="324.1302"/><!--MD5=[5cc06ecdd9480702b567e3f11ad511a4]
class NamedObject--><rect codeLine="22" fill="#282828" height="48.055" id="NamedObject" rx="8.3333" ry="8.3333" style="stroke:#5E5E5E;stroke-width:1.0416666666666667;" width="123.9583" x="924.4792" y="53.7028"/><rect fill="#1B1B1A" height="31.3883" rx="8.3333" ry="8.3333" style="stroke:#1B1B1A;stroke-width:1.0416666666666667;" width="123.9583" x="924.4792" y="53.7028"/><rect fill="#1B1B1A" height="8.3333" style="stroke:#1B1B1A;stroke-width:1.0416666666666667;" width="123.9583" x="924.4792" y="76.7578"/><rect codeLine="22" fill="none" height="48.055" id="NamedObject" rx="8.3333" ry="8.3333" style="stroke:#5E5E5E;stroke-width:1.0416666666666667;" width="123.9583" x="924.4792" y="53.7028"/><ellipse cx="939.0625" cy="69.397" fill="#008400" rx="10.4167" ry="10.4167" style="stroke:#239C23;stroke-width:1.0416666666666667;"/><path d="M936.4665,66.5588 L936.4665,64.9719 L941.8925,64.9719 L941.8925,66.5588 L940.0798,66.5588 L940.0798,72.4976 L941.8925,72.4976 L941.8925,74.0845 L936.4665,74.0845 L936.4665,72.4976 L938.2792,72.4976 L938.2792,66.5588 Z " fill="#000000"/><text fill="#D8BC00" font-family="Open Sans,Avenir,Nunito,Arial,Helvetica,SansSerif" font-size="12.5" font-style="italic" font-weight="bold" lengthAdjust="spacing" textLength="86.4583" x="955.7292" y="74.1211">NamedObject</text><line style="stroke:#5E5E5E;stroke-width:1.0416666666666667;" x1="925.5208" x2="1047.3958" y1="85.0911" y2="85.0911"/><line style="stroke:#5E5E5E;stroke-width:1.0416666666666667;" x1="925.5208" x2="1047.3958" y1="93.4245" y2="93.4245"/><!--MD5=[3c42d9a705eedfd61fdf9feed9906d6e]
class PackagePathTrait--><rect codeLine="23" fill="#282828" height="48.055" id="PackagePathTrait" rx="8.3333" ry="8.3333" style="stroke:#5E5E5E;stroke-width:1.0416666666666667;" width="147.9167" x="321.875" y="53.7028"/><rect fill="#1B1B1A" height="31.3883" rx="8.3333" ry="8.3333" style="stroke:#1B1B1A;stroke-width:1.0416666666666667;" width="147.9167" x="321.875" y="53.7028"/><rect fill="#1B1B1A" height="8.3333" style="stroke:#1B1B1A;stroke-width:1.0416666666666667;" width="147.9167" x="321.875" y="76.7578"/><rect codeLine="23" fill="none" height="48.055" id="PackagePathTrait" rx="8.3333" ry="8.3333" style="stroke:#5E5E5E;stroke-width:1.0416666666666667;" width="147.9167" x="321.875" y="53.7028"/><ellipse cx="336.4583" cy="69.397" fill="#008400" rx="10.4167" ry="10.4167" style="stroke:#239C23;stroke-width:1.0416666666666667;"/><path d="M333.8623,66.5588 L333.8623,64.9719 L339.2883,64.9719 L339.2883,66.5588 L337.4756,66.5588 L337.4756,72.4976 L339.2883,72.4976 L339.2883,74.0845 L333.8623,74.0845 L333.8623,72.4976 L335.675,72.4976 L335.675,66.5588 Z " fill="#000000"/><text fill="#D8BC00" font-family="Open Sans,Avenir,Nunito,Arial,Helvetica,SansSerif" font-size="12.5" font-style="italic" font-weight="bold" lengthAdjust="spacing" textLength="110.4167" x="353.125" y="74.1211">PackagePathTrait</text><line style="stroke:#5E5E5E;stroke-width:1.0416666666666667;" x1="322.9167" x2="468.75" y1="85.0911" y2="85.0911"/><line style="stroke:#5E5E5E;stroke-width:1.0416666666666667;" x1="322.9167" x2="468.75" y1="93.4245" y2="93.4245"/><!--MD5=[5ec8c00c13391aeaac8c08bdf7a77295]
class Repeater--><rect codeLine="25" fill="#282828" height="48.055" id="Repeater" rx="8.3333" ry="8.3333" style="stroke:#5E5E5E;stroke-width:1.0416666666666667;" width="93.75" x="506.25" y="53.7028"/><rect fill="#1B1B1A" height="31.3883" rx="8.3333" ry="8.3333" style="stroke:#1B1B1A;stroke-width:1.0416666666666667;" width="93.75" x="506.25" y="53.7028"/><rect fill="#1B1B1A" height="8.3333" style="stroke:#1B1B1A;stroke-width:1.0416666666666667;" width="93.75" x="506.25" y="76.7578"/><rect codeLine="25" fill="none" height="48.055" id="Repeater" rx="8.3333" ry="8.3333" style="stroke:#5E5E5E;stroke-width:1.0416666666666667;" width="93.75" x="506.25" y="53.7028"/><ellipse cx="520.8333" cy="69.397" fill="#008400" rx="10.4167" ry="10.4167" style="stroke:#239C23;stroke-width:1.0416666666666667;"/><path d="M518.2373,66.5588 L518.2373,64.9719 L523.6633,64.9719 L523.6633,66.5588 L521.8506,66.5588 L521.8506,72.4976 L523.6633,72.4976 L523.6633,74.0845 L518.2373,74.0845 L518.2373,72.4976 L520.05,72.4976 L520.05,66.5588 Z " fill="#000000"/><text fill="#D8BC00" font-family="Open Sans,Avenir,Nunito,Arial,Helvetica,SansSerif" font-size="12.5" font-style="italic" font-weight="bold" lengthAdjust="spacing" textLength="56.25" x="537.5" y="74.1211">Repeater</text><line style="stroke:#5E5E5E;stroke-width:1.0416666666666667;" x1="507.2917" x2="598.9583" y1="85.0911" y2="85.0911"/><line style="stroke:#5E5E5E;stroke-width:1.0416666666666667;" x1="507.2917" x2="598.9583" y1="93.4245" y2="93.4245"/><!--MD5=[0fa3fb32de5ac10a4285f5d6786aeb3c]
class ResourceTrait--><rect codeLine="26" fill="#282828" height="48.055" id="ResourceTrait" rx="8.3333" ry="8.3333" style="stroke:#5E5E5E;stroke-width:1.0416666666666667;" width="126.0417" x="636.9792" y="53.7028"/><rect fill="#1B1B1A" height="31.3883" rx="8.3333" ry="8.3333" style="stroke:#1B1B1A;stroke-width:1.0416666666666667;" width="126.0417" x="636.9792" y="53.7028"/><rect fill="#1B1B1A" height="8.3333" style="stroke:#1B1B1A;stroke-width:1.0416666666666667;" width="126.0417" x="636.9792" y="76.7578"/><rect codeLine="26" fill="none" height="48.055" id="ResourceTrait" rx="8.3333" ry="8.3333" style="stroke:#5E5E5E;stroke-width:1.0416666666666667;" width="126.0417" x="636.9792" y="53.7028"/><ellipse cx="651.5625" cy="69.397" fill="#008400" rx="10.4167" ry="10.4167" style="stroke:#239C23;stroke-width:1.0416666666666667;"/><path d="M648.9665,66.5588 L648.9665,64.9719 L654.3925,64.9719 L654.3925,66.5588 L652.5798,66.5588 L652.5798,72.4976 L654.3925,72.4976 L654.3925,74.0845 L648.9665,74.0845 L648.9665,72.4976 L650.7792,72.4976 L650.7792,66.5588 Z " fill="#000000"/><text fill="#D8BC00" font-family="Open Sans,Avenir,Nunito,Arial,Helvetica,SansSerif" font-size="12.5" font-style="italic" font-weight="bold" lengthAdjust="spacing" textLength="88.5417" x="668.2292" y="74.1211">ResourceTrait</text><line style="stroke:#5E5E5E;stroke-width:1.0416666666666667;" x1="638.0208" x2="761.9792" y1="85.0911" y2="85.0911"/><line style="stroke:#5E5E5E;stroke-width:1.0416666666666667;" x1="638.0208" x2="761.9792" y1="93.4245" y2="93.4245"/><!--MD5=[d5ffbea224cb66456f52b11f1b43a3e0]
class TryTrait--><rect codeLine="28" fill="#282828" height="48.055" id="TryTrait" rx="8.3333" ry="8.3333" style="stroke:#5E5E5E;stroke-width:1.0416666666666667;" width="88.5417" x="799.4792" y="53.7028"/><rect fill="#1B1B1A" height="31.3883" rx="8.3333" ry="8.3333" style="stroke:#1B1B1A;stroke-width:1.0416666666666667;" width="88.5417" x="799.4792" y="53.7028"/><rect fill="#1B1B1A" height="8.3333" style="stroke:#1B1B1A;stroke-width:1.0416666666666667;" width="88.5417" x="799.4792" y="76.7578"/><rect codeLine="28" fill="none" height="48.055" id="TryTrait" rx="8.3333" ry="8.3333" style="stroke:#5E5E5E;stroke-width:1.0416666666666667;" width="88.5417" x="799.4792" y="53.7028"/><ellipse cx="814.0625" cy="69.397" fill="#008400" rx="10.4167" ry="10.4167" style="stroke:#239C23;stroke-width:1.0416666666666667;"/><path d="M811.4665,66.5588 L811.4665,64.9719 L816.8925,64.9719 L816.8925,66.5588 L815.0798,66.5588 L815.0798,72.4976 L816.8925,72.4976 L816.8925,74.0845 L811.4665,74.0845 L811.4665,72.4976 L813.2792,72.4976 L813.2792,66.5588 Z " fill="#000000"/><text fill="#D8BC00" font-family="Open Sans,Avenir,Nunito,Arial,Helvetica,SansSerif" font-size="12.5" font-style="italic" font-weight="bold" lengthAdjust="spacing" textLength="51.0417" x="830.7292" y="74.1211">TryTrait</text><line style="stroke:#5E5E5E;stroke-width:1.0416666666666667;" x1="800.5208" x2="886.9792" y1="85.0911" y2="85.0911"/><line style="stroke:#5E5E5E;stroke-width:1.0416666666666667;" x1="800.5208" x2="886.9792" y1="93.4245" y2="93.4245"/><!--MD5=[46acbc008168529f3349206642520903]
class ComponentMixin--><rect codeLine="60" fill="#282828" height="67.7999" id="ComponentMixin" rx="8.3333" ry="8.3333" style="stroke:#5E5E5E;stroke-width:1.0416666666666667;" width="197.9167" x="600" y="282.3486"/><rect fill="#1B1B1A" height="31.3883" rx="8.3333" ry="8.3333" style="stroke:#1B1B1A;stroke-width:1.0416666666666667;" width="197.9167" x="600" y="282.3486"/><rect fill="#1B1B1A" height="8.3333" style="stroke:#1B1B1A;stroke-width:1.0416666666666667;" width="197.9167" x="600" y="305.4036"/><rect codeLine="60" fill="none" height="67.7999" id="ComponentMixin" rx="8.3333" ry="8.3333" style="stroke:#5E5E5E;stroke-width:1.0416666666666667;" width="197.9167" x="600" y="282.3486"/><ellipse cx="636.6146" cy="298.0428" fill="#008400" rx="10.4167" ry="10.4167" style="stroke:#239C23;stroke-width:1.0416666666666667;"/><path d="M634.0186,295.2047 L634.0186,293.6178 L639.4446,293.6178 L639.4446,295.2047 L637.6318,295.2047 L637.6318,301.1434 L639.4446,301.1434 L639.4446,302.7303 L634.0186,302.7303 L634.0186,301.1434 L635.8313,301.1434 L635.8313,295.2047 Z " fill="#000000"/><text fill="#D8BC00" font-family="Open Sans,Avenir,Nunito,Arial,Helvetica,SansSerif" font-size="12.5" font-style="italic" font-weight="bold" lengthAdjust="spacing" textLength="111.4583" x="658.1771" y="302.7669">ComponentMixin</text><line style="stroke:#5E5E5E;stroke-width:1.5625;" x1="601.0417" x2="796.875" y1="313.737" y2="313.737"/><line style="stroke:#5E5E5E;stroke-width:1.0416666666666667;" x1="601.0417" x2="796.875" y1="322.0703" y2="322.0703"/><ellipse cx="611.4583" cy="333.5286" fill="#84BE84" rx="3.125" ry="3.125" style="stroke:#038048;stroke-width:1.0416666666666667;"/><text fill="#D8BC00" font-family="Open Sans,Avenir,Nunito,Arial,Helvetica,SansSerif" font-size="11.4583" lengthAdjust="spacing" textLength="165.625" x="622.9167" y="340.4399">BaseComponent component()</text><!--MD5=[4899ead58b536ff968fbcbdca857d192]
class Function--><rect codeLine="41" fill="#282828" height="48.055" id="Function" rx="8.3333" ry="8.3333" style="stroke:#5E5E5E;stroke-width:1.0416666666666667;" width="157.2917" x="405.7292" y="292.2445"/><rect fill="#1B1B1A" height="31.3883" rx="8.3333" ry="8.3333" style="stroke:#1B1B1A;stroke-width:1.0416666666666667;" width="157.2917" x="405.7292" y="292.2445"/><rect fill="#1B1B1A" height="8.3333" style="stroke:#1B1B1A;stroke-width:1.0416666666666667;" width="157.2917" x="405.7292" y="315.2995"/><rect codeLine="41" fill="none" height="48.055" id="Function" rx="8.3333" ry="8.3333" style="stroke:#5E5E5E;stroke-width:1.0416666666666667;" width="157.2917" x="405.7292" y="292.2445"/><ellipse cx="420.3125" cy="307.9386" fill="#008400" rx="10.4167" ry="10.4167" style="stroke:#239C23;stroke-width:1.0416666666666667;"/><path d="M417.7165,305.1005 L417.7165,303.5136 L423.1425,303.5136 L423.1425,305.1005 L421.3298,305.1005 L421.3298,311.0392 L423.1425,311.0392 L423.1425,312.6261 L417.7165,312.6261 L417.7165,311.0392 L419.5292,311.0392 L419.5292,305.1005 Z " fill="#000000"/><text fill="#D8BC00" font-family="Open Sans,Avenir,Nunito,Arial,Helvetica,SansSerif" font-size="12.5" font-style="italic" font-weight="bold" lengthAdjust="spacing" textLength="56.25" x="436.9792" y="312.6628">Function</text><rect fill="#333333" height="23.055" style="stroke:#A0A0A0;stroke-width:1.0416666666666667;stroke-dasharray:2.0,2.0;" width="61.4583" x="504.6875" y="289.1195"/><text fill="#A0A0A0" font-family="Open Sans,Avenir,Nunito,Arial,Helvetica,SansSerif" font-size="12.5" font-weight="bold" lengthAdjust="spacing" textLength="53.125" x="508.8542" y="305.3711">From,To</text><line style="stroke:#5E5E5E;stroke-width:1.0416666666666667;" x1="406.7708" x2="561.9792" y1="323.6328" y2="323.6328"/><line style="stroke:#5E5E5E;stroke-width:1.0416666666666667;" x1="406.7708" x2="561.9792" y1="331.9661" y2="331.9661"/><!--MD5=[e4656e4f0a3f8546a174777290b4214d]
class ComponentFunction--><rect codeLine="44" fill="#282828" height="48.055" id="ComponentFunction" rx="8.3333" ry="8.3333" style="stroke:#5E5E5E;stroke-width:1.0416666666666667;" width="237.5" x="443.75" y="420.3695"/><rect fill="#1B1B1A" height="31.3883" rx="8.3333" ry="8.3333" style="stroke:#1B1B1A;stroke-width:1.0416666666666667;" width="237.5" x="443.75" y="420.3695"/><rect fill="#1B1B1A" height="8.3333" style="stroke:#1B1B1A;stroke-width:1.0416666666666667;" width="237.5" x="443.75" y="443.4245"/><rect codeLine="44" fill="none" height="48.055" id="ComponentFunction" rx="8.3333" ry="8.3333" style="stroke:#5E5E5E;stroke-width:1.0416666666666667;" width="237.5" x="443.75" y="420.3695"/><ellipse cx="458.3333" cy="436.0636" fill="#008400" rx="10.4167" ry="10.4167" style="stroke:#239C23;stroke-width:1.0416666666666667;"/><path d="M455.7373,433.2255 L455.7373,431.6386 L461.1633,431.6386 L461.1633,433.2255 L459.3506,433.2255 L459.3506,439.1642 L461.1633,439.1642 L461.1633,440.7511 L455.7373,440.7511 L455.7373,439.1642 L457.55,439.1642 L457.55,433.2255 Z " fill="#000000"/><text fill="#D8BC00" font-family="Open Sans,Avenir,Nunito,Arial,Helvetica,SansSerif" font-size="12.5" font-style="italic" font-weight="bold" lengthAdjust="spacing" textLength="132.2917" x="475" y="440.7878">ComponentFunction</text><rect fill="#333333" height="23.055" style="stroke:#A0A0A0;stroke-width:1.0416666666666667;stroke-dasharray:2.0,2.0;" width="65.625" x="618.75" y="417.2445"/><text fill="#A0A0A0" font-family="Open Sans,Avenir,Nunito,Arial,Helvetica,SansSerif" font-size="12.5" font-weight="bold" lengthAdjust="spacing" textLength="57.2917" x="622.9167" y="433.4961">From, To</text><line style="stroke:#5E5E5E;stroke-width:1.0416666666666667;" x1="444.7917" x2="680.2083" y1="451.7578" y2="451.7578"/><line style="stroke:#5E5E5E;stroke-width:1.0416666666666667;" x1="444.7917" x2="680.2083" y1="460.0911" y2="460.0911"/><!--MD5=[c7fc90dea65bb0d50ca297923bfb51cf]
class Mixin--><rect codeLine="49" fill="#282828" height="48.055" id="Mixin" rx="8.3333" ry="8.3333" style="stroke:#5E5E5E;stroke-width:1.0416666666666667;" width="72.9167" x="652.0833" y="164.1195"/><rect fill="#1B1B1A" height="31.3883" rx="8.3333" ry="8.3333" style="stroke:#1B1B1A;stroke-width:1.0416666666666667;" width="72.9167" x="652.0833" y="164.1195"/><rect fill="#1B1B1A" height="8.3333" style="stroke:#1B1B1A;stroke-width:1.0416666666666667;" width="72.9167" x="652.0833" y="187.1745"/><rect codeLine="49" fill="none" height="48.055" id="Mixin" rx="8.3333" ry="8.3333" style="stroke:#5E5E5E;stroke-width:1.0416666666666667;" width="72.9167" x="652.0833" y="164.1195"/><ellipse cx="666.6667" cy="179.8136" fill="#008400" rx="10.4167" ry="10.4167" style="stroke:#239C23;stroke-width:1.0416666666666667;"/><path d="M664.0706,176.9755 L664.0706,175.3886 L669.4967,175.3886 L669.4967,176.9755 L667.6839,176.9755 L667.6839,182.9142 L669.4967,182.9142 L669.4967,184.5011 L664.0706,184.5011 L664.0706,182.9142 L665.8834,182.9142 L665.8834,176.9755 Z " fill="#000000"/><text fill="#D8BC00" font-family="Open Sans,Avenir,Nunito,Arial,Helvetica,SansSerif" font-size="12.5" font-style="italic" font-weight="bold" lengthAdjust="spacing" textLength="35.4167" x="683.3333" y="184.5378">Mixin</text><line style="stroke:#5E5E5E;stroke-width:1.0416666666666667;" x1="653.125" x2="723.9583" y1="195.5078" y2="195.5078"/><line style="stroke:#5E5E5E;stroke-width:1.0416666666666667;" x1="653.125" x2="723.9583" y1="203.8411" y2="203.8411"/><!--MD5=[0543f1fea1dfbc84657cf745773c4fab]
class RepeaterMixin--><rect codeLine="50" fill="#282828" height="48.055" id="RepeaterMixin" rx="8.3333" ry="8.3333" style="stroke:#5E5E5E;stroke-width:1.0416666666666667;" width="129.1667" x="761.4583" y="164.1195"/><rect fill="#1B1B1A" height="31.3883" rx="8.3333" ry="8.3333" style="stroke:#1B1B1A;stroke-width:1.0416666666666667;" width="129.1667" x="761.4583" y="164.1195"/><rect fill="#1B1B1A" height="8.3333" style="stroke:#1B1B1A;stroke-width:1.0416666666666667;" width="129.1667" x="761.4583" y="187.1745"/><rect codeLine="50" fill="none" height="48.055" id="RepeaterMixin" rx="8.3333" ry="8.3333" style="stroke:#5E5E5E;stroke-width:1.0416666666666667;" width="129.1667" x="761.4583" y="164.1195"/><ellipse cx="776.0417" cy="179.8136" fill="#008400" rx="10.4167" ry="10.4167" style="stroke:#239C23;stroke-width:1.0416666666666667;"/><path d="M773.4456,176.9755 L773.4456,175.3886 L778.8717,175.3886 L778.8717,176.9755 L777.0589,176.9755 L777.0589,182.9142 L778.8717,182.9142 L778.8717,184.5011 L773.4456,184.5011 L773.4456,182.9142 L775.2584,182.9142 L775.2584,176.9755 Z " fill="#000000"/><text fill="#D8BC00" font-family="Open Sans,Avenir,Nunito,Arial,Helvetica,SansSerif" font-size="12.5" font-style="italic" font-weight="bold" lengthAdjust="spacing" textLength="91.6667" x="792.7083" y="184.5378">RepeaterMixin</text><line style="stroke:#5E5E5E;stroke-width:1.0416666666666667;" x1="762.5" x2="889.5833" y1="195.5078" y2="195.5078"/><line style="stroke:#5E5E5E;stroke-width:1.0416666666666667;" x1="762.5" x2="889.5833" y1="203.8411" y2="203.8411"/><!--MD5=[6f6af049516bc56aac6e320b3234ce97]
class Supplier--><rect codeLine="61" fill="#282828" height="48.055" id="Supplier" rx="8.3333" ry="8.3333" style="stroke:#5E5E5E;stroke-width:1.0416666666666667;" width="136.4583" x="834.8958" y="292.2445"/><rect fill="#1B1B1A" height="31.3883" rx="8.3333" ry="8.3333" style="stroke:#1B1B1A;stroke-width:1.0416666666666667;" width="136.4583" x="834.8958" y="292.2445"/><rect fill="#1B1B1A" height="8.3333" style="stroke:#1B1B1A;stroke-width:1.0416666666666667;" width="136.4583" x="834.8958" y="315.2995"/><rect codeLine="61" fill="none" height="48.055" id="Supplier" rx="8.3333" ry="8.3333" style="stroke:#5E5E5E;stroke-width:1.0416666666666667;" width="136.4583" x="834.8958" y="292.2445"/><ellipse cx="849.4792" cy="307.9386" fill="#008400" rx="10.4167" ry="10.4167" style="stroke:#239C23;stroke-width:1.0416666666666667;"/><path d="M846.8831,305.1005 L846.8831,303.5136 L852.3092,303.5136 L852.3092,305.1005 L850.4964,305.1005 L850.4964,311.0392 L852.3092,311.0392 L852.3092,312.6261 L846.8831,312.6261 L846.8831,311.0392 L848.6959,311.0392 L848.6959,305.1005 Z " fill="#000000"/><text fill="#D8BC00" font-family="Open Sans,Avenir,Nunito,Arial,Helvetica,SansSerif" font-size="12.5" font-style="italic" font-weight="bold" lengthAdjust="spacing" textLength="53.125" x="866.1458" y="312.6628">Supplier</text><rect fill="#333333" height="23.055" style="stroke:#A0A0A0;stroke-width:1.0416666666666667;stroke-dasharray:2.0,2.0;" width="43.75" x="930.7292" y="289.1195"/><text fill="#A0A0A0" font-family="Open Sans,Avenir,Nunito,Arial,Helvetica,SansSerif" font-size="12.5" font-weight="bold" lengthAdjust="spacing" textLength="35.4167" x="934.8958" y="305.3711">Value</text><line style="stroke:#5E5E5E;stroke-width:1.0416666666666667;" x1="835.9375" x2="970.3125" y1="323.6328" y2="323.6328"/><line style="stroke:#5E5E5E;stroke-width:1.0416666666666667;" x1="835.9375" x2="970.3125" y1="331.9661" y2="331.9661"/><!--MD5=[885e969721cc5a3f2aedd0cecec9d972]
class ComponentSupplier--><rect codeLine="64" fill="#282828" height="48.055" id="ComponentSupplier" rx="8.3333" ry="8.3333" style="stroke:#5E5E5E;stroke-width:1.0416666666666667;" width="212.5" x="757.2917" y="420.3695"/><rect fill="#1B1B1A" height="31.3883" rx="8.3333" ry="8.3333" style="stroke:#1B1B1A;stroke-width:1.0416666666666667;" width="212.5" x="757.2917" y="420.3695"/><rect fill="#1B1B1A" height="8.3333" style="stroke:#1B1B1A;stroke-width:1.0416666666666667;" width="212.5" x="757.2917" y="443.4245"/><rect codeLine="64" fill="none" height="48.055" id="ComponentSupplier" rx="8.3333" ry="8.3333" style="stroke:#5E5E5E;stroke-width:1.0416666666666667;" width="212.5" x="757.2917" y="420.3695"/><ellipse cx="771.875" cy="436.0636" fill="#008400" rx="10.4167" ry="10.4167" style="stroke:#239C23;stroke-width:1.0416666666666667;"/><path d="M769.279,433.2255 L769.279,431.6386 L774.705,431.6386 L774.705,433.2255 L772.8923,433.2255 L772.8923,439.1642 L774.705,439.1642 L774.705,440.7511 L769.279,440.7511 L769.279,439.1642 L771.0917,439.1642 L771.0917,433.2255 Z " fill="#000000"/><text fill="#D8BC00" font-family="Open Sans,Avenir,Nunito,Arial,Helvetica,SansSerif" font-size="12.5" font-style="italic" font-weight="bold" lengthAdjust="spacing" textLength="129.1667" x="788.5417" y="440.7878">ComponentSupplier</text><rect fill="#333333" height="23.055" style="stroke:#A0A0A0;stroke-width:1.0416666666666667;stroke-dasharray:2.0,2.0;" width="43.75" x="929.1667" y="417.2445"/><text fill="#A0A0A0" font-family="Open Sans,Avenir,Nunito,Arial,Helvetica,SansSerif" font-size="12.5" font-weight="bold" lengthAdjust="spacing" textLength="35.4167" x="933.3333" y="433.4961">Value</text><line style="stroke:#5E5E5E;stroke-width:1.0416666666666667;" x1="758.3333" x2="968.75" y1="451.7578" y2="451.7578"/><line style="stroke:#5E5E5E;stroke-width:1.0416666666666667;" x1="758.3333" x2="968.75" y1="460.0911" y2="460.0911"/><!--MD5=[56a06dcacdd0977d8e508d929b074a7d]
reverse link BaseRepeater to BaseComponent--><path codeLine="12" d="M300.3542,227.7861 C286.5729,242.5361 270.8333,259.3903 256.875,274.3382 " fill="none" id="BaseRepeater-backto-BaseComponent" style="stroke:#545454;stroke-width:1.5625;"/><polygon fill="none" points="295.3229,222.484,314.8646,212.234,305.9792,232.4424,295.3229,222.484" style="stroke:#545454;stroke-width:1.5625;"/><!--MD5=[5138e1726e9722808680e9cc81e45b35]
reverse link Component to BaseComponent--><path codeLine="13" d="M476.25,218.0986 C431.8854,234.8174 375.4063,256.109 326.6458,274.4945 " fill="none" id="Component-backto-BaseComponent" style="stroke:#545454;stroke-width:1.5625;"/><polygon fill="none" points="473.9583,211.1715,496.0208,210.6403,479.1042,224.8174,473.9583,211.1715" style="stroke:#545454;stroke-width:1.5625;"/><!--MD5=[f79f45e9e32dbf8cd610150b77a62f4b]
reverse link RegistryTrait to BaseComponent--><path codeLine="14" d="M93.7813,119.5153 C121.4479,162.8278 164.9167,230.8799 192.6042,274.234 " fill="none" id="RegistryTrait-backto-BaseComponent" style="stroke:#545454;stroke-width:1.5625;"/><polygon fill="none" points="87.5313,123.2861,82.4688,101.807,99.8229,115.4424,87.5313,123.2861" style="stroke:#545454;stroke-width:1.5625;"/><!--MD5=[b16537b50b87419f0291b5ca967de5a2]
reverse link SettingsTrait to BaseComponent--><path codeLine="15" d="M223.8333,122.7757 C222.6875,166.182 220.9479,231.9528 219.8333,274.234 " fill="none" id="SettingsTrait-backto-BaseComponent" style="stroke:#545454;stroke-width:1.5625;"/><polygon fill="none" points="216.5521,122.4424,224.3854,101.807,231.125,122.8278,216.5521,122.4424" style="stroke:#545454;stroke-width:1.5625;"/><!--MD5=[ed0b01190b9ed1e95b54b2ec8146a95f]
reverse link Repeater to Component--><path codeLine="29" d="M553.125,122.6195 C553.125,136.8382 553.125,152.0361 553.125,164.0986 " fill="none" id="Repeater-backto-Component" style="stroke:#545454;stroke-width:1.5625;"/><polygon fill="none" points="545.8333,122.5153,553.125,101.682,560.4167,122.5153,545.8333,122.5153" style="stroke:#545454;stroke-width:1.5625;"/><!--MD5=[3d2605e5417b832be85d80f8bad94bb9]
reverse link NamedObject to Component--><path codeLine="30" d="M904.1146,101.9736 C782.7396,132.7132 748.3958,134.9528 634.375,164.1195 C626.5625,166.1195 618.3646,168.3174 610.2917,170.5361 " fill="none" id="NamedObject-backto-Component" style="stroke:#545454;stroke-width:1.5625;"/><polygon fill="none" points="902.375,94.8903,924.3646,96.7861,905.9896,109.0257,902.375,94.8903" style="stroke:#545454;stroke-width:1.5625;"/><!--MD5=[5618039fb34505a3fb21be711b147444]
reverse link SettingsTrait to Component--><path codeLine="31" d="M305.5833,105.307 C364.6979,124.8278 443.5417,150.859 496.2083,168.2445 " fill="none" id="SettingsTrait-backto-Component" style="stroke:#545454;stroke-width:1.5625;"/><polygon fill="none" points="303.0625,112.1507,285.5625,98.7028,307.6354,98.307,303.0625,112.1507" style="stroke:#545454;stroke-width:1.5625;"/><!--MD5=[6e86638afbdf70f7743c30ac2a93a9f4]
reverse link RegistryTrait to Component--><path codeLine="32" d="M148.5208,102.0361 C283.7917,135.4945 420.8646,162.3903 496.1354,176.5465 " fill="none" id="RegistryTrait-backto-Component" style="stroke:#545454;stroke-width:1.5625;"/><polygon fill="none" points="146.5833,109.0674,128.1458,96.9424,150.125,94.9215,146.5833,109.0674" style="stroke:#545454;stroke-width:1.5625;"/><!--MD5=[e6b717ab41871a31bdf8b765d8b5534b]
reverse link PackagePathTrait to Component--><path codeLine="33" d="M446.5833,113.6611 C470.5833,130.182 498.5521,149.4528 519.8125,164.0986 " fill="none" id="PackagePathTrait-backto-Component" style="stroke:#545454;stroke-width:1.5625;"/><polygon fill="none" points="442.2083,119.5049,429.1875,101.682,450.4896,107.4945,442.2083,119.5049" style="stroke:#545454;stroke-width:1.5625;"/><!--MD5=[fe23c5b7826c79b93e066409fed14a52]
reverse link TryTrait to Component--><path codeLine="34" d="M779.5521,102.6299 C728.8542,121.5361 658.7813,147.6507 610.0729,165.807 " fill="none" id="TryTrait-backto-Component" style="stroke:#545454;stroke-width:1.5625;"/><polygon fill="none" points="777.2292,95.7236,799.2917,95.2757,782.3229,109.3799,777.2292,95.7236" style="stroke:#545454;stroke-width:1.5625;"/><!--MD5=[79b8e10de0e53fb2930810628c6d9776]
reverse link ResourceTrait to Component--><path codeLine="35" d="M651.9479,114.1507 C629.6875,130.557 603.8854,149.5986 584.2292,164.0986 " fill="none" id="ResourceTrait-backto-Component" style="stroke:#545454;stroke-width:1.5625;"/><polygon fill="none" points="647.7604,108.1715,668.8542,101.682,656.4167,119.9111,647.7604,108.1715" style="stroke:#545454;stroke-width:1.5625;"/><!--MD5=[345ab035f766fa34e1d9b13d64adf740]
reverse link ComponentMixin to ComponentFunction--><path codeLine="42" d="M647.5521,364.7236 C626.9479,383.7549 604.1563,404.807 587.3542,420.3278 " fill="none" id="ComponentMixin-backto-ComponentFunction" style="stroke:#545454;stroke-width:1.5625;"/><polygon fill="none" points="642.8542,359.1403,663.1042,350.359,652.75,369.8486,642.8542,359.1403" style="stroke:#545454;stroke-width:1.5625;"/><!--MD5=[4677fdceb526741c86debfc7e53e7fc9]
reverse link Function to ComponentFunction--><path codeLine="43" d="M509.8229,358.307 C522.5833,378.8799 537.5521,403.0257 548.2604,420.3174 " fill="none" id="Function-backto-ComponentFunction" style="stroke:#545454;stroke-width:1.5625;"/><polygon fill="none" points="503.4792,361.9111,498.7083,340.359,515.875,354.2236,503.4792,361.9111" style="stroke:#545454;stroke-width:1.5625;"/><!--MD5=[14aa37badfa087ea7c6ab95a853539f9]
reverse link Component to ComponentMixin--><path codeLine="51" d="M595.7292,225.9424 C616.3333,243.7549 640.8646,264.9528 660.8438,282.2236 " fill="none" id="Component-backto-ComponentMixin" style="stroke:#545454;stroke-width:1.5625;"/><polygon fill="none" points="590.8646,231.3799,579.875,212.234,600.4063,220.3486,590.8646,231.3799" style="stroke:#545454;stroke-width:1.5625;"/><!--MD5=[d83e488207a3771bcec22902623684fb]
reverse link Mixin to ComponentMixin--><path codeLine="52" d="M692.1667,233.0049 C693.5,249.1715 694.9896,267.182 696.2396,282.2236 " fill="none" id="Mixin-backto-ComponentMixin" style="stroke:#545454;stroke-width:1.5625;"/><polygon fill="none" points="684.9063,233.5986,690.4479,212.234,699.4375,232.4007,684.9063,233.5986" style="stroke:#545454;stroke-width:1.5625;"/><!--MD5=[c29e8aef7bef827eaf782556ceeed6bb]
reverse link RepeaterMixin to ComponentMixin--><path codeLine="53" d="M787.8333,227.0049 C770.1146,244.5882 749.2396,265.2965 732.1667,282.2236 " fill="none" id="RepeaterMixin-backto-ComponentMixin" style="stroke:#545454;stroke-width:1.5625;"/><polygon fill="none" points="782.8021,221.734,802.7292,212.234,793.0729,232.0882,782.8021,221.734" style="stroke:#545454;stroke-width:1.5625;"/><!--MD5=[d944f7afa25b16afc9d68505df8acfc6]
reverse link ComponentMixin to ComponentSupplier--><path codeLine="62" d="M758.7604,363.0361 C784.1771,382.5049 812.6979,404.3486 833.5625,420.3278 " fill="none" id="ComponentMixin-backto-ComponentSupplier" style="stroke:#545454;stroke-width:1.5625;"/><polygon fill="none" points="754.3125,368.8174,742.1979,350.359,763.1771,357.234,754.3125,368.8174" style="stroke:#545454;stroke-width:1.5625;"/><!--MD5=[c96596e14b57c755dd521f63a6c4d08c]
reverse link Supplier to ComponentSupplier--><path codeLine="63" d="M889.5313,360.5361 C883.2292,380.609 875.9896,403.6507 870.7604,420.3174 " fill="none" id="Supplier-backto-ComponentSupplier" style="stroke:#545454;stroke-width:1.5625;"/><polygon fill="none" points="882.6667,358.057,895.8646,340.359,896.5833,362.4215,882.6667,358.057" style="stroke:#545454;stroke-width:1.5625;"/><!--MD5=[f0f88ed0c85f97eb6d10116be2da130e]
@startuml

    !include lexakai.theme
    
    title "com.telenav.kivakit.component"
    
    abstract BaseRepeater
    
    interface SettingsTrait
    interface Component
    interface RegistryTrait
    
    BaseRepeater <|- - BaseComponent
    Component <|- - BaseComponent
    RegistryTrait <|- - BaseComponent
    SettingsTrait <|- - BaseComponent
    class BaseComponent
    {
        - -(messaging)- -
        +void onMessage(Consumer<Message> handler)
    }
    
    interface NamedObject
    interface PackagePathTrait
    interface RegistryTrait
    interface Repeater
    interface ResourceTrait
    interface SettingsTrait
    interface TryTrait
    Repeater <|- - Component
    NamedObject <|- - Component
    SettingsTrait <|- - Component
    RegistryTrait <|- - Component
    PackagePathTrait <|- - Component
    TryTrait <|- - Component
    ResourceTrait <|- - Component
    interface Component
    {
    }
    
    interface ComponentMixin
    interface Function<From,To>
    ComponentMixin <|- - ComponentFunction
    Function <|- - ComponentFunction
    interface ComponentFunction<From, To>
    {
    }
    
    interface Component
    interface Mixin
    interface RepeaterMixin
    Component <|- - ComponentMixin
    Mixin <|- - ComponentMixin
    RepeaterMixin <|- - ComponentMixin
    interface ComponentMixin
    {
        - -
        +BaseComponent component()
    }
    
    interface ComponentMixin
    interface Supplier<Value>
    ComponentMixin <|- - ComponentSupplier
    Supplier <|- - ComponentSupplier
    interface ComponentSupplier<Value>
    {
    }
    
@enduml

@startuml









skinparam backgroundColor #333333






skinparam  {
    defaultFontName   "Open Sans,Avenir,Nunito,Arial,Helvetica,SansSerif"
    defaultFontSize   12
    defaultTextAlignment left
    shadowing false
    RoundCorner 10
    TitleFontSize 18
}

skinparam defaultFontName       "Open Sans,Avenir,Nunito,Arial,Helvetica,SansSerif"
skinparam defaultFontSize       12
skinparam dpi                   100
skinparam shadowing             false
skinparam roundcorner           16
skinparam ParticipantPadding    40
skinparam BoxPadding            40
skinparam Padding               3
skinparam ArrowColor            #545454
skinparam stereotype {
    CBackgroundColor #0066cf
    CBorderColor #0086ef
    ABackgroundColor #C8Ac00
    ABorderColor #D8Bc00
    IBackgroundColor #008400
    IBorderColor #239c23
    EBackgroundColor #cf6300
    EBorderColor #ef8300
    NBackgroundColor #3380b9
    NBorderColor #004d86
}
skinparam title {
	FontColor	                 #c0c0c0
 	BorderColor                  #545454
	FontSize	    	         20
	BorderRoundCorner            16
	BorderThickness 	         1
	BackgroundColor              #48494b
}


skinparam legend {
	BackgroundColor #303030
	BorderColor #404040
	FontColor #a0a0a0
}

	skinparam swimlane {
	BorderColor #5e5e5e
	BorderThickness 2
	TitleBackgroundColor  #6d6d6d-#484848
	TitleFontColor #303030
}

skinparam activity {
		FontColor #C8Ac00
	BorderColor #333333
	BackgroundColor #333333-#333333
	BarColor #00FF00
	StartColor #0060a8
	EndColor #0060a8
	DiamondBackgroundColor #6d6d6d-#3a3a3a
  	DiamondBorderColor #3a3a3a
  	DiamondFontColor #fefefe
}


skinparam participant {
		FontColor #C8Ac00
	BorderColor #333333
	BackgroundColor #333333-#333333
	ParticipantBorderThickness 2
}


skinparam actor {
		FontColor #C8Ac00
	BorderColor #333333
	BackgroundColor #333333-#333333
}


skinparam arrow {
	Thickness 1.5
	Color #545454
	FontColor #a0a0a0
    FontStyle bold
    MessageAlignment center
}



skinparam sequence {
	BorderColor #303030
	TitleFontColor #303030
	BackgroundColor #333333
	StartColor #303030
	EndColor #303030
	BoxBackgroundColor #333333
	BoxBorderColor #484848
	BoxFontColor #484848
	LifeLineBorderColor #484848
	LifeLineBorderThickness 2
	LifeLineBackgroundColor #3a3a3a
	GroupBorderColor #484848
	GroupFontColor #484848
	GroupHeaderFontColor #0060a8
	GroupBackgroundColor #484848
	GroupHeaderBackgroundColor #333333
	DividerBackgroundColor #484848
    DividerBorderColor #484848
    DividerBorderThickness 2
    DividerFontColor #D8Bc00
	ReferenceBackgroundColor #333333
	ReferenceBorderColor #484848
	ReferenceFontColor #fefefe
	ReferenceHeaderBackgroundColor #484848
}


skinparam partition {
	BorderColor #303030
	FontColor #333333
	BackgroundColor #333333
}


skinparam collections {
		FontColor #C8Ac00
	BorderColor #333333
	BackgroundColor #333333-#333333
}


skinparam control {
		FontColor #C8Ac00
	BorderColor #333333
	BackgroundColor #333333-#333333
}


skinparam entity {
		FontColor #C8Ac00
	BorderColor #333333
	BackgroundColor #333333-#333333
}


skinparam boundary {
		FontColor #C8Ac00
	BorderColor #333333
	BackgroundColor #333333-#333333
}


skinparam agent {
	BackgroundColor #ff8000
	BorderColor #ff9933
	FontColor #484848
}


skinparam note {
	BorderThickness 1
	BackgroundColor #1b1b1a
	BorderColor #5e5e5e
	FontSize 11
	FontColor #a0a0a0
}


skinparam artifact {
	BorderThickness 10
	BorderColor #5e5e5e
	BackgroundColor #1b1b1a
	FontColor #D8Bc00
}


skinparam component {
		FontColor #C8Ac00
	BorderColor #333333
	BackgroundColor #333333-#333333
}


skinparam interface {
	BackgroundColor  #008400
	BorderColor  #007F00
	FontColor #484848
}


skinparam storage {
	BackgroundColor #ff8000
  	BorderColor #cc6600
	FontColor #222222
}


skinparam node {
	BackgroundColor #333333
	BorderColor #333333
	FontColor #C8Ac00
}


skinparam cloud {
	BackgroundColor #484848-black
	BorderColor #484848
	FontColor #D8Bc00
}


skinparam database {
		FontColor #C8Ac00
	BorderColor #333333
	BackgroundColor #333333-#333333
	BackgroundColor  #333333
}


skinparam class {
		FontColor #C8Ac00
	BorderColor #333333
	BackgroundColor #333333-#333333
	HeaderBackgroundColor #1b1b1a
    BackgroundColor #282828
    BorderColor #5e5e5e
 	StereotypeFontColor #a0a0a0
    StereotypeFontStyle bold
	BorderThickness 1
	AttributeFontColor #D8Bc00
	AttributeFontSize 11
    FontColor #D8Bc00
    FontStyle bold
}


skinparam object {
		FontColor #C8Ac00
	BorderColor #333333
	BackgroundColor #333333-#333333
	StereotypeFontColor #484848
	BorderThickness 1
	AttributeFontColor #fefefe
	AttributeFontSize 11
}


skinparam usecase {
		FontColor #C8Ac00
	BorderColor #333333
	BackgroundColor #333333-#333333
	BorderThickness 2
	StereotypeFontColor #303030
}


skinparam rectangle {
		FontColor #C8Ac00
	BorderColor #333333
	BackgroundColor #333333-#333333
	BackgroundColor #333333
	BorderThickness 2
	StereotypeFontColor #303030
}


skinparam package {
		FontColor #C8Ac00
	BorderColor #333333
	BackgroundColor #333333-#333333
	BackgroundColor #333333
	BorderThickness 2
}


skinparam folder {
	BackgroundColor #6d6d6d
  	BorderColor #ff8000
	FontColor #ff8000
	BorderThickness 2
}


skinparam frame {
	BackgroundColor #6d6d6d
  	BorderColor #0060a8
	FontColor #0060a8
	BorderThickness 2
}


skinparam state {
		FontColor #C8Ac00
	BorderColor #333333
	BackgroundColor #333333-#333333
	StartColor #0060a8
	EndColor #0060a8
	AttributeFontColor #fefefe
	AttributeFontSize 11
}


skinparam queue {
		FontColor #C8Ac00
	BorderColor #333333
	BackgroundColor #333333-#333333
}


skinparam card {
	BackgroundColor #0060a8
	BorderColor #004d86
	FontColor $INFO_TEXT
}


skinparam file {
	BackgroundColor #6d6d6d-#484848
	BorderColor #0060a8
	FontColor #fefefe
}


skinparam stack {
		FontColor #C8Ac00
	BorderColor #333333
	BackgroundColor #333333-#333333
}

    
    title "com.telenav.kivakit.component"
    
    abstract BaseRepeater
    
    interface SettingsTrait
    interface Component
    interface RegistryTrait
    
    BaseRepeater <|- - BaseComponent
    Component <|- - BaseComponent
    RegistryTrait <|- - BaseComponent
    SettingsTrait <|- - BaseComponent
    class BaseComponent
    {
        - -(messaging)- -
        +void onMessage(Consumer<Message> handler)
    }
    
    interface NamedObject
    interface PackagePathTrait
    interface RegistryTrait
    interface Repeater
    interface ResourceTrait
    interface SettingsTrait
    interface TryTrait
    Repeater <|- - Component
    NamedObject <|- - Component
    SettingsTrait <|- - Component
    RegistryTrait <|- - Component
    PackagePathTrait <|- - Component
    TryTrait <|- - Component
    ResourceTrait <|- - Component
    interface Component
    {
    }
    
    interface ComponentMixin
    interface Function<From,To>
    ComponentMixin <|- - ComponentFunction
    Function <|- - ComponentFunction
    interface ComponentFunction<From, To>
    {
    }
    
    interface Component
    interface Mixin
    interface RepeaterMixin
    Component <|- - ComponentMixin
    Mixin <|- - ComponentMixin
    RepeaterMixin <|- - ComponentMixin
    interface ComponentMixin
    {
        - -
        +BaseComponent component()
    }
    
    interface ComponentMixin
    interface Supplier<Value>
    ComponentMixin <|- - ComponentSupplier
    Supplier <|- - ComponentSupplier
    interface ComponentSupplier<Value>
    {
    }
    
@enduml

PlantUML version 1.2021.01(Tue Feb 02 00:55:08 MST 2021)
(GPL source distribution)
Java Runtime: OpenJDK Runtime Environment
JVM: OpenJDK 64-Bit Server VM
Default Encoding: UTF-8
Language: en
Country: US
--></g></svg>