<?xml version="1.0" encoding="UTF-8" standalone="no"?><svg xmlns="http://www.w3.org/2000/svg" xmlns:xlink="http://www.w3.org/1999/xlink" contentScriptType="application/ecmascript" contentStyleType="text/css" height="463.5417px" preserveAspectRatio="none" style="width:965px;height:463px;background:#333333;" version="1.1" viewBox="0 0 965 463" width="965.625px" zoomAndPan="magnify"><defs/><g><rect fill="#48494B" height="41.2028" rx="8.3333" ry="8.3333" style="stroke:#545454;stroke-width:1.0416666666666667;" width="148.9583" x="401.0417" y="2.0833"/><text fill="#C0C0C0" font-family="Open Sans,Avenir,Nunito,Arial,Helvetica,SansSerif" font-size="20.8333" lengthAdjust="spacing" textLength="126.0417" x="412.5" y="30.5583">Secure HTTP</text><!--MD5=[fad6ba2768857d695f61116a5bf9c0eb]
class HttpGetResource--><rect fill="#282828" height="48.055" id="HttpGetResource" rx="8.3333" ry="8.3333" style="stroke:#5E5E5E;stroke-width:1.0416666666666667;" width="145.8333" x="177.0833" y="192.7653"/><rect fill="#1B1B1A" height="31.3883" rx="8.3333" ry="8.3333" style="stroke:#1B1B1A;stroke-width:1.0416666666666667;" width="145.8333" x="177.0833" y="192.7653"/><rect fill="#1B1B1A" height="8.3333" style="stroke:#1B1B1A;stroke-width:1.0416666666666667;" width="145.8333" x="177.0833" y="215.8203"/><rect fill="none" height="48.055" id="HttpGetResource" rx="8.3333" ry="8.3333" style="stroke:#5E5E5E;stroke-width:1.0416666666666667;" width="145.8333" x="177.0833" y="192.7653"/><ellipse cx="191.6667" cy="208.4595" fill="#0066CF" rx="10.4167" ry="10.4167" style="stroke:#0086EF;stroke-width:1.0416666666666667;"/><path d="M193.5771,212.8845 Q193.1498,213.1042 192.6799,213.2141 Q192.2099,213.324 191.6911,213.324 Q189.8478,213.324 188.8774,212.1094 Q187.9069,210.8948 187.9069,208.5999 Q187.9069,206.2988 188.8774,205.0842 Q189.8478,203.8696 191.6911,203.8696 Q192.2099,203.8696 192.686,203.9795 Q193.162,204.0894 193.5771,204.3091 L193.5771,206.311 Q193.1132,205.8838 192.6768,205.6854 Q192.2404,205.4871 191.7765,205.4871 Q190.7878,205.4871 190.2842,206.2714 Q189.7807,207.0557 189.7807,208.5999 Q189.7807,210.1379 190.2842,210.9222 Q190.7878,211.7065 191.7765,211.7065 Q192.2404,211.7065 192.6768,211.5082 Q193.1132,211.3098 193.5771,210.8826 Z " fill="#000000"/><text fill="#D8BC00" font-family="Open Sans,Avenir,Nunito,Arial,Helvetica,SansSerif" font-size="12.5" font-weight="bold" lengthAdjust="spacing" textLength="108.3333" x="208.3333" y="213.1836">HttpGetResource</text><line style="stroke:#5E5E5E;stroke-width:1.0416666666666667;" x1="178.125" x2="321.875" y1="224.1536" y2="224.1536"/><line style="stroke:#5E5E5E;stroke-width:1.0416666666666667;" x1="178.125" x2="321.875" y1="232.487" y2="232.487"/><!--MD5=[7c117b586cff559e9ad9e915c29285a9]
class SecureHttpGetResource--><rect codeLine="8" fill="#282828" height="103.123" id="SecureHttpGetResource" rx="8.3333" ry="8.3333" style="stroke:#5E5E5E;stroke-width:1.0416666666666667;" width="485.4167" x="7.2917" y="353.7028"/><rect fill="#1B1B1A" height="31.3883" rx="8.3333" ry="8.3333" style="stroke:#1B1B1A;stroke-width:1.0416666666666667;" width="485.4167" x="7.2917" y="353.7028"/><rect fill="#1B1B1A" height="8.3333" style="stroke:#1B1B1A;stroke-width:1.0416666666666667;" width="485.4167" x="7.2917" y="376.7578"/><rect codeLine="8" fill="none" height="103.123" id="SecureHttpGetResource" rx="8.3333" ry="8.3333" style="stroke:#5E5E5E;stroke-width:1.0416666666666667;" width="485.4167" x="7.2917" y="353.7028"/><ellipse cx="167.7083" cy="369.397" fill="#0066CF" rx="10.4167" ry="10.4167" style="stroke:#0086EF;stroke-width:1.0416666666666667;"/><path d="M169.6187,373.822 Q169.1915,374.0417 168.7215,374.1516 Q168.2515,374.2615 167.7327,374.2615 Q165.8895,374.2615 164.919,373.0469 Q163.9486,371.8323 163.9486,369.5374 Q163.9486,367.2363 164.919,366.0217 Q165.8895,364.8071 167.7327,364.8071 Q168.2515,364.8071 168.7276,364.917 Q169.2037,365.0269 169.6187,365.2466 L169.6187,367.2485 Q169.1549,366.8213 168.7185,366.6229 Q168.2821,366.4246 167.8182,366.4246 Q166.8294,366.4246 166.3259,367.2089 Q165.8223,367.9932 165.8223,369.5374 Q165.8223,371.0754 166.3259,371.8597 Q166.8294,372.644 167.8182,372.644 Q168.2821,372.644 168.7185,372.4457 Q169.1549,372.2473 169.6187,371.8201 Z " fill="#000000"/><text fill="#D8BC00" font-family="Open Sans,Avenir,Nunito,Arial,Helvetica,SansSerif" font-size="12.5" font-weight="bold" lengthAdjust="spacing" textLength="150" x="190.625" y="374.1211">SecureHttpGetResource</text><line style="stroke:#5E5E5E;stroke-width:1.5625;" x1="8.3333" x2="491.6667" y1="385.0911" y2="385.0911"/><ellipse cx="18.75" cy="420.461" fill="#84BE84" rx="3.125" ry="3.125" style="stroke:#038048;stroke-width:1.0416666666666667;"/><text fill="#D8BC00" font-family="Open Sans,Avenir,Nunito,Arial,Helvetica,SansSerif" font-size="11.4583" lengthAdjust="spacing" textLength="295.8333" x="30.2083" y="427.3722">SecureHttpGetResource(SecureHttpNetworkLocation)</text><ellipse cx="18.75" cy="440.2059" fill="#84BE84" rx="3.125" ry="3.125" style="stroke:#038048;stroke-width:1.0416666666666667;"/><text fill="#D8BC00" font-family="Open Sans,Avenir,Nunito,Arial,Helvetica,SansSerif" font-size="11.4583" lengthAdjust="spacing" textLength="453.125" x="30.2083" y="447.1171">SecureHttpGetResource(SecureHttpNetworkLocation, NetworkAccessConstraints)</text><line style="stroke:#5E5E5E;stroke-width:1.0416666666666667;" x1="8.3333" x2="206.25" y1="403.2969" y2="403.2969"/><text fill="#D8BC00" font-family="Open Sans,Avenir,Nunito,Arial,Helvetica,SansSerif" font-size="11.4583" lengthAdjust="spacing" textLength="81.25" x="209.375" y="407.1065">(constructors)</text><line style="stroke:#5E5E5E;stroke-width:1.0416666666666667;" x1="293.75" x2="491.6667" y1="403.2969" y2="403.2969"/><!--MD5=[141e7cec292b27cdb82c0916bd340d3c]
class HttpNetworkLocation--><rect fill="#282828" height="48.055" id="HttpNetworkLocation" rx="8.3333" ry="8.3333" style="stroke:#5E5E5E;stroke-width:1.0416666666666667;" width="175" x="408.3333" y="53.7028"/><rect fill="#1B1B1A" height="31.3883" rx="8.3333" ry="8.3333" style="stroke:#1B1B1A;stroke-width:1.0416666666666667;" width="175" x="408.3333" y="53.7028"/><rect fill="#1B1B1A" height="8.3333" style="stroke:#1B1B1A;stroke-width:1.0416666666666667;" width="175" x="408.3333" y="76.7578"/><rect fill="none" height="48.055" id="HttpNetworkLocation" rx="8.3333" ry="8.3333" style="stroke:#5E5E5E;stroke-width:1.0416666666666667;" width="175" x="408.3333" y="53.7028"/><ellipse cx="422.9167" cy="69.397" fill="#0066CF" rx="10.4167" ry="10.4167" style="stroke:#0086EF;stroke-width:1.0416666666666667;"/><path d="M424.8271,73.822 Q424.3998,74.0417 423.9299,74.1516 Q423.4599,74.2615 422.9411,74.2615 Q421.0978,74.2615 420.1274,73.0469 Q419.1569,71.8323 419.1569,69.5374 Q419.1569,67.2363 420.1274,66.0217 Q421.0978,64.8071 422.9411,64.8071 Q423.4599,64.8071 423.936,64.917 Q424.412,65.0269 424.8271,65.2466 L424.8271,67.2485 Q424.3632,66.8213 423.9268,66.6229 Q423.4904,66.4246 423.0265,66.4246 Q422.0378,66.4246 421.5342,67.2089 Q421.0307,67.9932 421.0307,69.5374 Q421.0307,71.0754 421.5342,71.8597 Q422.0378,72.644 423.0265,72.644 Q423.4904,72.644 423.9268,72.4457 Q424.3632,72.2473 424.8271,71.8201 Z " fill="#000000"/><text fill="#D8BC00" font-family="Open Sans,Avenir,Nunito,Arial,Helvetica,SansSerif" font-size="12.5" font-weight="bold" lengthAdjust="spacing" textLength="137.5" x="439.5833" y="74.1211">HttpNetworkLocation</text><line style="stroke:#5E5E5E;stroke-width:1.0416666666666667;" x1="409.375" x2="582.2917" y1="85.0911" y2="85.0911"/><line style="stroke:#5E5E5E;stroke-width:1.0416666666666667;" x1="409.375" x2="582.2917" y1="93.4245" y2="93.4245"/><!--MD5=[1faf439c9bfb39542e17a40ecd42e819]
class SecureHttpNetworkLocation--><rect codeLine="18" fill="#282828" height="103.123" id="SecureHttpNetworkLocation" rx="8.3333" ry="8.3333" style="stroke:#5E5E5E;stroke-width:1.0416666666666667;" width="265.625" x="363.0208" y="165.1611"/><rect fill="#1B1B1A" height="31.3883" rx="8.3333" ry="8.3333" style="stroke:#1B1B1A;stroke-width:1.0416666666666667;" width="265.625" x="363.0208" y="165.1611"/><rect fill="#1B1B1A" height="8.3333" style="stroke:#1B1B1A;stroke-width:1.0416666666666667;" width="265.625" x="363.0208" y="188.2161"/><rect codeLine="18" fill="none" height="103.123" id="SecureHttpNetworkLocation" rx="8.3333" ry="8.3333" style="stroke:#5E5E5E;stroke-width:1.0416666666666667;" width="265.625" x="363.0208" y="165.1611"/><ellipse cx="399.6354" cy="180.8553" fill="#0066CF" rx="10.4167" ry="10.4167" style="stroke:#0086EF;stroke-width:1.0416666666666667;"/><path d="M401.5458,185.2804 Q401.1186,185.5001 400.6486,185.6099 Q400.1786,185.7198 399.6598,185.7198 Q397.8166,185.7198 396.8461,184.5052 Q395.8757,183.2906 395.8757,180.9957 Q395.8757,178.6947 396.8461,177.4801 Q397.8166,176.2655 399.6598,176.2655 Q400.1786,176.2655 400.6547,176.3753 Q401.1308,176.4852 401.5458,176.7049 L401.5458,178.7069 Q401.0819,178.2796 400.6455,178.0813 Q400.2091,177.8829 399.7453,177.8829 Q398.7565,177.8829 398.253,178.6672 Q397.7494,179.4515 397.7494,180.9957 Q397.7494,182.5338 398.253,183.3181 Q398.7565,184.1024 399.7453,184.1024 Q400.2091,184.1024 400.6455,183.904 Q401.0819,183.7056 401.5458,183.2784 Z " fill="#000000"/><text fill="#D8BC00" font-family="Open Sans,Avenir,Nunito,Arial,Helvetica,SansSerif" font-size="12.5" font-weight="bold" lengthAdjust="spacing" textLength="179.1667" x="421.1979" y="185.5794">SecureHttpNetworkLocation</text><line style="stroke:#5E5E5E;stroke-width:1.5625;" x1="364.0625" x2="627.6042" y1="196.5495" y2="196.5495"/><ellipse cx="374.4792" cy="231.9194" fill="#84BE84" rx="3.125" ry="3.125" style="stroke:#038048;stroke-width:1.0416666666666667;"/><text fill="#D8BC00" font-family="Open Sans,Avenir,Nunito,Arial,Helvetica,SansSerif" font-size="11.4583" lengthAdjust="spacing" textLength="233.3333" x="385.9375" y="238.8306">SecureHttpNetworkLocation(NetworkPath)</text><ellipse cx="374.4792" cy="251.6642" fill="#84BE84" rx="3.125" ry="3.125" style="stroke:#038048;stroke-width:1.0416666666666667;"/><text fill="#D8BC00" font-family="Open Sans,Avenir,Nunito,Arial,Helvetica,SansSerif" font-size="11.4583" lengthAdjust="spacing" textLength="182.2917" x="385.9375" y="258.5754">SecureHttpNetworkLocation(URI)</text><line style="stroke:#5E5E5E;stroke-width:1.0416666666666667;" x1="364.0625" x2="452.0833" y1="214.7552" y2="214.7552"/><text fill="#D8BC00" font-family="Open Sans,Avenir,Nunito,Arial,Helvetica,SansSerif" font-size="11.4583" lengthAdjust="spacing" textLength="81.25" x="455.2083" y="218.5649">(constructors)</text><line style="stroke:#5E5E5E;stroke-width:1.0416666666666667;" x1="539.5833" x2="627.6042" y1="214.7552" y2="214.7552"/><!--MD5=[bd7a994f41277c0d52085b20a0f733a0]
class SecureHttpPostResource--><rect codeLine="26" fill="#282828" height="103.123" id="SecureHttpPostResource" rx="8.3333" ry="8.3333" style="stroke:#5E5E5E;stroke-width:1.0416666666666667;" width="429.1667" x="529.1667" y="353.7028"/><rect fill="#1B1B1A" height="31.3883" rx="8.3333" ry="8.3333" style="stroke:#1B1B1A;stroke-width:1.0416666666666667;" width="429.1667" x="529.1667" y="353.7028"/><rect fill="#1B1B1A" height="8.3333" style="stroke:#1B1B1A;stroke-width:1.0416666666666667;" width="429.1667" x="529.1667" y="376.7578"/><rect codeLine="26" fill="none" height="103.123" id="SecureHttpPostResource" rx="8.3333" ry="8.3333" style="stroke:#5E5E5E;stroke-width:1.0416666666666667;" width="429.1667" x="529.1667" y="353.7028"/><ellipse cx="658.3333" cy="369.397" fill="#0066CF" rx="10.4167" ry="10.4167" style="stroke:#0086EF;stroke-width:1.0416666666666667;"/><path d="M660.2437,373.822 Q659.8165,374.0417 659.3465,374.1516 Q658.8765,374.2615 658.3577,374.2615 Q656.5145,374.2615 655.544,373.0469 Q654.5736,371.8323 654.5736,369.5374 Q654.5736,367.2363 655.544,366.0217 Q656.5145,364.8071 658.3577,364.8071 Q658.8765,364.8071 659.3526,364.917 Q659.8287,365.0269 660.2437,365.2466 L660.2437,367.2485 Q659.7799,366.8213 659.3435,366.6229 Q658.9071,366.4246 658.4432,366.4246 Q657.4544,366.4246 656.9509,367.2089 Q656.4473,367.9932 656.4473,369.5374 Q656.4473,371.0754 656.9509,371.8597 Q657.4544,372.644 658.4432,372.644 Q658.9071,372.644 659.3435,372.4457 Q659.7799,372.2473 660.2437,371.8201 Z " fill="#000000"/><text fill="#D8BC00" font-family="Open Sans,Avenir,Nunito,Arial,Helvetica,SansSerif" font-size="12.5" font-weight="bold" lengthAdjust="spacing" textLength="156.25" x="681.25" y="374.1211">SecureHttpPostResource</text><line style="stroke:#5E5E5E;stroke-width:1.5625;" x1="530.2083" x2="957.2917" y1="385.0911" y2="385.0911"/><ellipse cx="540.625" cy="420.461" fill="#84BE84" rx="3.125" ry="3.125" style="stroke:#038048;stroke-width:1.0416666666666667;"/><text fill="#D8BC00" font-family="Open Sans,Avenir,Nunito,Arial,Helvetica,SansSerif" font-size="11.4583" lengthAdjust="spacing" textLength="396.875" x="552.0833" y="427.3722">SecureHttpPostResource(NetworkLocation, NetworkAccessConstraints)</text><ellipse cx="540.625" cy="440.2059" fill="#84BE84" rx="3.125" ry="3.125" style="stroke:#038048;stroke-width:1.0416666666666667;"/><text fill="#D8BC00" font-family="Open Sans,Avenir,Nunito,Arial,Helvetica,SansSerif" font-size="11.4583" lengthAdjust="spacing" textLength="301.0417" x="552.0833" y="447.1171">SecureHttpPostResource(SecureHttpNetworkLocation)</text><line style="stroke:#5E5E5E;stroke-width:1.0416666666666667;" x1="530.2083" x2="700" y1="403.2969" y2="403.2969"/><text fill="#D8BC00" font-family="Open Sans,Avenir,Nunito,Arial,Helvetica,SansSerif" font-size="11.4583" lengthAdjust="spacing" textLength="81.25" x="703.125" y="407.1065">(constructors)</text><line style="stroke:#5E5E5E;stroke-width:1.0416666666666667;" x1="787.5" x2="957.2917" y1="403.2969" y2="403.2969"/><!--MD5=[1d9e1dbf485c7f50b25d1a9966e9bb48]
class HttpPostResource--><rect fill="#282828" height="48.055" id="HttpPostResource" rx="8.3333" ry="8.3333" style="stroke:#5E5E5E;stroke-width:1.0416666666666667;" width="152.0833" x="667.7083" y="192.7653"/><rect fill="#1B1B1A" height="31.3883" rx="8.3333" ry="8.3333" style="stroke:#1B1B1A;stroke-width:1.0416666666666667;" width="152.0833" x="667.7083" y="192.7653"/><rect fill="#1B1B1A" height="8.3333" style="stroke:#1B1B1A;stroke-width:1.0416666666666667;" width="152.0833" x="667.7083" y="215.8203"/><rect fill="none" height="48.055" id="HttpPostResource" rx="8.3333" ry="8.3333" style="stroke:#5E5E5E;stroke-width:1.0416666666666667;" width="152.0833" x="667.7083" y="192.7653"/><ellipse cx="682.2917" cy="208.4595" fill="#0066CF" rx="10.4167" ry="10.4167" style="stroke:#0086EF;stroke-width:1.0416666666666667;"/><path d="M684.2021,212.8845 Q683.7748,213.1042 683.3049,213.2141 Q682.8349,213.324 682.3161,213.324 Q680.4728,213.324 679.5024,212.1094 Q678.5319,210.8948 678.5319,208.5999 Q678.5319,206.2988 679.5024,205.0842 Q680.4728,203.8696 682.3161,203.8696 Q682.8349,203.8696 683.311,203.9795 Q683.787,204.0894 684.2021,204.3091 L684.2021,206.311 Q683.7382,205.8838 683.3018,205.6854 Q682.8654,205.4871 682.4015,205.4871 Q681.4128,205.4871 680.9092,206.2714 Q680.4057,207.0557 680.4057,208.5999 Q680.4057,210.1379 680.9092,210.9222 Q681.4128,211.7065 682.4015,211.7065 Q682.8654,211.7065 683.3018,211.5082 Q683.7382,211.3098 684.2021,210.8826 Z " fill="#000000"/><text fill="#D8BC00" font-family="Open Sans,Avenir,Nunito,Arial,Helvetica,SansSerif" font-size="12.5" font-weight="bold" lengthAdjust="spacing" textLength="114.5833" x="698.9583" y="213.1836">HttpPostResource</text><line style="stroke:#5E5E5E;stroke-width:1.0416666666666667;" x1="668.75" x2="818.75" y1="224.1536" y2="224.1536"/><line style="stroke:#5E5E5E;stroke-width:1.0416666666666667;" x1="668.75" x2="818.75" y1="232.487" y2="232.487"/><!--MD5=[e3d422820a5c0a0ff4ea7ff864eb4aa5]
reverse link HttpGetResource to SecureHttpGetResource--><path codeLine="7" d="M250,263.0778 C250,290.307 250,325.0257 250,353.2132 " fill="none" id="HttpGetResource-backto-SecureHttpGetResource" style="stroke:#545454;stroke-width:1.5625;"/><polygon fill="none" points="242.7083,263.4111,250,242.5778,257.2917,263.4111,242.7083,263.4111" style="stroke:#545454;stroke-width:1.5625;"/><!--MD5=[0985cc9e497acb77a530189cecc3546d]
reverse link HttpNetworkLocation to SecureHttpNetworkLocation--><path codeLine="15" d="M495.8333,124.1611 C495.8333,137.1611 495.8333,151.4111 495.8333,164.7236 " fill="none" id="HttpNetworkLocation-backto-SecureHttpNetworkLocation" style="stroke:#545454;stroke-width:1.5625;"/><polygon fill="none" points="488.5417,124.3486,495.8333,103.5153,503.125,124.3486,488.5417,124.3486" style="stroke:#545454;stroke-width:1.5625;"/><!--MD5=[f3d6450fcf7e20a426bf20df3cf273d0]
link SecureHttpNetworkLocation to SecureHttpGetResource--><path codeLine="16" d="M428.6563,268.7132 C395.7292,293.6924 356.0313,323.7965 322.4375,349.2861 " fill="none" id="SecureHttpNetworkLocation-to-SecureHttpGetResource" style="stroke:#545454;stroke-width:1.5625;"/><polygon fill="#545454" points="318.3542,352.3799,328.3355,350.0082,322.4957,349.2216,323.2823,343.3818,318.3542,352.3799" style="stroke:#545454;stroke-width:1.5625;"/><text fill="#A0A0A0" font-family="Open Sans,Avenir,Nunito,Arial,Helvetica,SansSerif" font-size="12.5" font-weight="bold" lengthAdjust="spacing" textLength="45.8333" x="392.7083" y="315.7878">creates</text><!--MD5=[3c126acdd857e7bc41f2321be00a1f0e]
link SecureHttpNetworkLocation to SecureHttpPostResource--><path codeLine="17" d="M563.5729,268.7132 C596.7813,293.6924 636.8125,323.7965 670.7083,349.2861 " fill="none" id="SecureHttpNetworkLocation-to-SecureHttpPostResource" style="stroke:#545454;stroke-width:1.5625;"/><polygon fill="#545454" points="674.8229,352.3903,669.8229,343.432,670.6563,349.2653,664.8229,350.0986,674.8229,352.3903" style="stroke:#545454;stroke-width:1.5625;"/><text fill="#A0A0A0" font-family="Open Sans,Avenir,Nunito,Arial,Helvetica,SansSerif" font-size="12.5" font-weight="bold" lengthAdjust="spacing" textLength="45.8333" x="638.5417" y="315.7878">creates</text><!--MD5=[030e3d0e44caaa5d23ac0da7d2adbba6]
reverse link HttpPostResource to SecureHttpPostResource--><path codeLine="25" d="M743.75,263.0778 C743.75,290.307 743.75,325.0257 743.75,353.2132 " fill="none" id="HttpPostResource-backto-SecureHttpPostResource" style="stroke:#545454;stroke-width:1.5625;"/><polygon fill="none" points="736.4583,263.4111,743.75,242.5778,751.0417,263.4111,736.4583,263.4111" style="stroke:#545454;stroke-width:1.5625;"/><!--MD5=[2713b35fb26dc2995e30fd0a5e7b814d]
@startuml

    !include lexakai.theme
    
    title "Secure HTTP"
    
    HttpGetResource <|- - SecureHttpGetResource
    class SecureHttpGetResource
    {
        - -(constructors)- -
        +SecureHttpGetResource(SecureHttpNetworkLocation)
        +SecureHttpGetResource(SecureHttpNetworkLocation, NetworkAccessConstraints)
    }
    
    HttpNetworkLocation <|- - SecureHttpNetworkLocation
    SecureHttpNetworkLocation - -> SecureHttpGetResource : "creates"
    SecureHttpNetworkLocation - -> SecureHttpPostResource : "creates"
    class SecureHttpNetworkLocation
    {
        - -(constructors)- -
        +SecureHttpNetworkLocation(NetworkPath)
        +SecureHttpNetworkLocation(URI)
    }
    
    HttpPostResource <|- - SecureHttpPostResource
    class SecureHttpPostResource
    {
        - -(constructors)- -
        +SecureHttpPostResource(NetworkLocation, NetworkAccessConstraints)
        +SecureHttpPostResource(SecureHttpNetworkLocation)
    }
    
@enduml

@startuml









skinparam backgroundColor #333333






skinparam  {
    defaultFontName   "Open Sans,Avenir,Nunito,Arial,Helvetica,SansSerif"
    defaultFontSize   12
    defaultTextAlignment left
    shadowing false
    RoundCorner 10
    TitleFontSize 18
}

skinparam defaultFontName       "Open Sans,Avenir,Nunito,Arial,Helvetica,SansSerif"
skinparam defaultFontSize       12
skinparam dpi                   100
skinparam shadowing             false
skinparam roundcorner           16
skinparam ParticipantPadding    40
skinparam BoxPadding            40
skinparam Padding               3
skinparam ArrowColor            #545454
skinparam stereotype {
    CBackgroundColor #0066cf
    CBorderColor #0086ef
    ABackgroundColor #C8Ac00
    ABorderColor #D8Bc00
    IBackgroundColor #008400
    IBorderColor #239c23
    EBackgroundColor #cf6300
    EBorderColor #ef8300
    NBackgroundColor #3380b9
    NBorderColor #004d86
}
skinparam title {
	FontColor	                 #c0c0c0
 	BorderColor                  #545454
	FontSize	    	         20
	BorderRoundCorner            16
	BorderThickness 	         1
	BackgroundColor              #48494b
}


skinparam legend {
	BackgroundColor #303030
	BorderColor #404040
	FontColor #a0a0a0
}

	skinparam swimlane {
	BorderColor #5e5e5e
	BorderThickness 2
	TitleBackgroundColor  #6d6d6d-#484848
	TitleFontColor #303030
}

skinparam activity {
		FontColor #C8Ac00
	BorderColor #333333
	BackgroundColor #333333-#333333
	BarColor #00FF00
	StartColor #0060a8
	EndColor #0060a8
	DiamondBackgroundColor #6d6d6d-#3a3a3a
  	DiamondBorderColor #3a3a3a
  	DiamondFontColor #fefefe
}


skinparam participant {
		FontColor #C8Ac00
	BorderColor #333333
	BackgroundColor #333333-#333333
	ParticipantBorderThickness 2
}


skinparam actor {
		FontColor #C8Ac00
	BorderColor #333333
	BackgroundColor #333333-#333333
}


skinparam arrow {
	Thickness 1.5
	Color #545454
	FontColor #a0a0a0
    FontStyle bold
    MessageAlignment center
}



skinparam sequence {
	BorderColor #303030
	TitleFontColor #303030
	BackgroundColor #333333
	StartColor #303030
	EndColor #303030
	BoxBackgroundColor #333333
	BoxBorderColor #484848
	BoxFontColor #484848
	LifeLineBorderColor #484848
	LifeLineBorderThickness 2
	LifeLineBackgroundColor #3a3a3a
	GroupBorderColor #484848
	GroupFontColor #484848
	GroupHeaderFontColor #0060a8
	GroupBackgroundColor #484848
	GroupHeaderBackgroundColor #333333
	DividerBackgroundColor #484848
    DividerBorderColor #484848
    DividerBorderThickness 2
    DividerFontColor #D8Bc00
	ReferenceBackgroundColor #333333
	ReferenceBorderColor #484848
	ReferenceFontColor #fefefe
	ReferenceHeaderBackgroundColor #484848
}


skinparam partition {
	BorderColor #303030
	FontColor #333333
	BackgroundColor #333333
}


skinparam collections {
		FontColor #C8Ac00
	BorderColor #333333
	BackgroundColor #333333-#333333
}


skinparam control {
		FontColor #C8Ac00
	BorderColor #333333
	BackgroundColor #333333-#333333
}


skinparam entity {
		FontColor #C8Ac00
	BorderColor #333333
	BackgroundColor #333333-#333333
}


skinparam boundary {
		FontColor #C8Ac00
	BorderColor #333333
	BackgroundColor #333333-#333333
}


skinparam agent {
	BackgroundColor #ff8000
	BorderColor #ff9933
	FontColor #484848
}


skinparam note {
	BorderThickness 1
	BackgroundColor #1b1b1a
	BorderColor #5e5e5e
	FontSize 11
	FontColor #a0a0a0
}


skinparam artifact {
	BorderThickness 10
	BorderColor #5e5e5e
	BackgroundColor #1b1b1a
	FontColor #D8Bc00
}


skinparam component {
		FontColor #C8Ac00
	BorderColor #333333
	BackgroundColor #333333-#333333
}


skinparam interface {
	BackgroundColor  #008400
	BorderColor  #007F00
	FontColor #484848
}


skinparam storage {
	BackgroundColor #ff8000
  	BorderColor #cc6600
	FontColor #222222
}


skinparam node {
	BackgroundColor #333333
	BorderColor #333333
	FontColor #C8Ac00
}


skinparam cloud {
	BackgroundColor #484848-black
	BorderColor #484848
	FontColor #D8Bc00
}


skinparam database {
		FontColor #C8Ac00
	BorderColor #333333
	BackgroundColor #333333-#333333
	BackgroundColor  #333333
}


skinparam class {
		FontColor #C8Ac00
	BorderColor #333333
	BackgroundColor #333333-#333333
	HeaderBackgroundColor #1b1b1a
    BackgroundColor #282828
    BorderColor #5e5e5e
 	StereotypeFontColor #a0a0a0
    StereotypeFontStyle bold
	BorderThickness 1
	AttributeFontColor #D8Bc00
	AttributeFontSize 11
    FontColor #D8Bc00
    FontStyle bold
}


skinparam object {
		FontColor #C8Ac00
	BorderColor #333333
	BackgroundColor #333333-#333333
	StereotypeFontColor #484848
	BorderThickness 1
	AttributeFontColor #fefefe
	AttributeFontSize 11
}


skinparam usecase {
		FontColor #C8Ac00
	BorderColor #333333
	BackgroundColor #333333-#333333
	BorderThickness 2
	StereotypeFontColor #303030
}


skinparam rectangle {
		FontColor #C8Ac00
	BorderColor #333333
	BackgroundColor #333333-#333333
	BackgroundColor #333333
	BorderThickness 2
	StereotypeFontColor #303030
}


skinparam package {
		FontColor #C8Ac00
	BorderColor #333333
	BackgroundColor #333333-#333333
	BackgroundColor #333333
	BorderThickness 2
}


skinparam folder {
	BackgroundColor #6d6d6d
  	BorderColor #ff8000
	FontColor #ff8000
	BorderThickness 2
}


skinparam frame {
	BackgroundColor #6d6d6d
  	BorderColor #0060a8
	FontColor #0060a8
	BorderThickness 2
}


skinparam state {
		FontColor #C8Ac00
	BorderColor #333333
	BackgroundColor #333333-#333333
	StartColor #0060a8
	EndColor #0060a8
	AttributeFontColor #fefefe
	AttributeFontSize 11
}


skinparam queue {
		FontColor #C8Ac00
	BorderColor #333333
	BackgroundColor #333333-#333333
}


skinparam card {
	BackgroundColor #0060a8
	BorderColor #004d86
	FontColor $INFO_TEXT
}


skinparam file {
	BackgroundColor #6d6d6d-#484848
	BorderColor #0060a8
	FontColor #fefefe
}


skinparam stack {
		FontColor #C8Ac00
	BorderColor #333333
	BackgroundColor #333333-#333333
}

    
    title "Secure HTTP"
    
    HttpGetResource <|- - SecureHttpGetResource
    class SecureHttpGetResource
    {
        - -(constructors)- -
        +SecureHttpGetResource(SecureHttpNetworkLocation)
        +SecureHttpGetResource(SecureHttpNetworkLocation, NetworkAccessConstraints)
    }
    
    HttpNetworkLocation <|- - SecureHttpNetworkLocation
    SecureHttpNetworkLocation - -> SecureHttpGetResource : "creates"
    SecureHttpNetworkLocation - -> SecureHttpPostResource : "creates"
    class SecureHttpNetworkLocation
    {
        - -(constructors)- -
        +SecureHttpNetworkLocation(NetworkPath)
        +SecureHttpNetworkLocation(URI)
    }
    
    HttpPostResource <|- - SecureHttpPostResource
    class SecureHttpPostResource
    {
        - -(constructors)- -
        +SecureHttpPostResource(NetworkLocation, NetworkAccessConstraints)
        +SecureHttpPostResource(SecureHttpNetworkLocation)
    }
    
@enduml

PlantUML version 1.2021.01(Tue Feb 02 00:55:08 MST 2021)
(GPL source distribution)
Java Runtime: OpenJDK Runtime Environment
JVM: OpenJDK 64-Bit Server VM
Default Encoding: UTF-8
Language: en
Country: US
--></g></svg>