<?xml version="1.0" encoding="UTF-8" standalone="no"?><svg xmlns="http://www.w3.org/2000/svg" xmlns:xlink="http://www.w3.org/1999/xlink" contentScriptType="application/ecmascript" contentStyleType="text/css" height="747.9167px" preserveAspectRatio="none" style="width:1238px;height:747px;background:#333333;" version="1.1" viewBox="0 0 1238 747" width="1238.5417px" zoomAndPan="magnify"><defs/><g><rect fill="#48494B" height="41.2028" rx="8.3333" ry="8.3333" style="stroke:#545454;stroke-width:1.0416666666666667;" width="211.4583" x="506.5104" y="2.0833"/><text fill="#C0C0C0" font-family="Open Sans,Avenir,Nunito,Arial,Helvetica,SansSerif" font-size="20.8333" lengthAdjust="spacing" textLength="188.5417" x="517.9688" y="30.5583">kivakit-logs-email</text><!--MD5=[53e810a96c27d4bd25e6a3839aaba16b]
entity gson--><rect fill="#1B1B1A" height="44.93" rx="8.3333" ry="8.3333" style="stroke:#5E5E5E;stroke-width:1.5625;" width="65.625" x="839.5833" y="482.8695"/><polygon fill="#1B1B1A" points="887.5,488.0778,887.5,502.6611,900,502.6611,900,494.3278,893.75,488.0778,887.5,488.0778" style="stroke:#5E5E5E;stroke-width:1.5625;"/><line style="stroke:#5E5E5E;stroke-width:1.5625;" x1="893.75" x2="893.75" y1="488.0778" y2="494.3278"/><line style="stroke:#5E5E5E;stroke-width:1.5625;" x1="900" x2="893.75" y1="494.3278" y2="494.3278"/><text fill="#D8BC00" font-family="Open Sans,Avenir,Nunito,Arial,Helvetica,SansSerif" font-size="12.5" lengthAdjust="spacing" textLength="28.125" x="853.125" y="511.6211">gson</text><!--MD5=[cf8915c4cc4a3841d75210ed75c73c91]
entity javax_activation--><rect fill="#1B1B1A" height="44.93" rx="8.3333" ry="8.3333" style="stroke:#5E5E5E;stroke-width:1.5625;" width="132.2917" x="7.2917" y="268.2861"/><polygon fill="#1B1B1A" points="121.875,273.4945,121.875,288.0778,134.375,288.0778,134.375,279.7445,128.125,273.4945,121.875,273.4945" style="stroke:#5E5E5E;stroke-width:1.5625;"/><line style="stroke:#5E5E5E;stroke-width:1.5625;" x1="128.125" x2="128.125" y1="273.4945" y2="279.7445"/><line style="stroke:#5E5E5E;stroke-width:1.5625;" x1="134.375" x2="128.125" y1="279.7445" y2="279.7445"/><text fill="#D8BC00" font-family="Open Sans,Avenir,Nunito,Arial,Helvetica,SansSerif" font-size="12.5" lengthAdjust="spacing" textLength="94.7917" x="20.8333" y="297.0378">javax_activation</text><!--MD5=[1c663fe9a961659935f939a1b6c051d3]
entity javax_mail--><rect fill="#1B1B1A" height="44.93" rx="8.3333" ry="8.3333" style="stroke:#5E5E5E;stroke-width:1.5625;" width="101.0417" x="176.0417" y="268.2861"/><polygon fill="#1B1B1A" points="259.375,273.4945,259.375,288.0778,271.875,288.0778,271.875,279.7445,265.625,273.4945,259.375,273.4945" style="stroke:#5E5E5E;stroke-width:1.5625;"/><line style="stroke:#5E5E5E;stroke-width:1.5625;" x1="265.625" x2="265.625" y1="273.4945" y2="279.7445"/><line style="stroke:#5E5E5E;stroke-width:1.5625;" x1="271.875" x2="265.625" y1="279.7445" y2="279.7445"/><text fill="#D8BC00" font-family="Open Sans,Avenir,Nunito,Arial,Helvetica,SansSerif" font-size="12.5" lengthAdjust="spacing" textLength="63.5417" x="189.5833" y="297.0378">javax_mail</text><!--MD5=[4aa4ddcf3dc6d6219283db0a9fd05165]
entity cactus_metadata--><rect fill="#1B1B1A" height="44.93" rx="8.3333" ry="8.3333" style="stroke:#5E5E5E;stroke-width:1.5625;" width="175" x="49.4792" y="590.1611"/><polygon fill="#1B1B1A" points="206.7708,595.3695,206.7708,609.9528,219.2708,609.9528,219.2708,601.6195,213.0208,595.3695,206.7708,595.3695" style="stroke:#5E5E5E;stroke-width:1.5625;"/><line style="stroke:#5E5E5E;stroke-width:1.5625;" x1="213.0208" x2="213.0208" y1="595.3695" y2="601.6195"/><line style="stroke:#5E5E5E;stroke-width:1.5625;" x1="219.2708" x2="213.0208" y1="601.6195" y2="601.6195"/><text fill="#D8BC00" font-family="Open Sans,Avenir,Nunito,Arial,Helvetica,SansSerif" font-size="12.5" lengthAdjust="spacing" textLength="137.5" x="63.0208" y="618.9128">cactus_metadata</text><!--MD5=[4facc4376e4b6bfc182ce14f42a813f9]
entity kivakit_collections--><rect fill="#1B1B1A" height="44.93" rx="8.3333" ry="8.3333" style="stroke:#5E5E5E;stroke-width:1.5625;" width="143.75" x="602.6042" y="482.8695"/><polygon fill="#1B1B1A" points="728.6458,488.0778,728.6458,502.6611,741.1458,502.6611,741.1458,494.3278,734.8958,488.0778,728.6458,488.0778" style="stroke:#5E5E5E;stroke-width:1.5625;"/><line style="stroke:#5E5E5E;stroke-width:1.5625;" x1="734.8958" x2="734.8958" y1="488.0778" y2="494.3278"/><line style="stroke:#5E5E5E;stroke-width:1.5625;" x1="741.1458" x2="734.8958" y1="494.3278" y2="494.3278"/><text fill="#D8BC00" font-family="Open Sans,Avenir,Nunito,Arial,Helvetica,SansSerif" font-size="12.5" lengthAdjust="spacing" textLength="106.25" x="616.1458" y="511.6211">kivakit_collections</text><!--MD5=[b7af8d5b7902cf06664f76dfe0f9e426]
entity kivakit_commandline--><rect fill="#1B1B1A" height="44.93" rx="8.3333" ry="8.3333" style="stroke:#5E5E5E;stroke-width:1.5625;" width="162.5" x="407.8125" y="375.5778"/><polygon fill="#1B1B1A" points="552.6042,380.7861,552.6042,395.3695,565.1042,395.3695,565.1042,387.0361,558.8542,380.7861,552.6042,380.7861" style="stroke:#5E5E5E;stroke-width:1.5625;"/><line style="stroke:#5E5E5E;stroke-width:1.5625;" x1="558.8542" x2="558.8542" y1="380.7861" y2="387.0361"/><line style="stroke:#5E5E5E;stroke-width:1.5625;" x1="565.1042" x2="558.8542" y1="387.0361" y2="387.0361"/><text fill="#D8BC00" font-family="Open Sans,Avenir,Nunito,Arial,Helvetica,SansSerif" font-size="12.5" lengthAdjust="spacing" textLength="125" x="421.3542" y="404.3294">kivakit_commandline</text><!--MD5=[dafc80021cd29aae9231cf20b1d6436c]
entity kivakit_conversion--><rect fill="#1B1B1A" height="44.93" rx="8.3333" ry="8.3333" style="stroke:#5E5E5E;stroke-width:1.5625;" width="145.8333" x="225.5208" y="375.5778"/><polygon fill="#1B1B1A" points="353.6458,380.7861,353.6458,395.3695,366.1458,395.3695,366.1458,387.0361,359.8958,380.7861,353.6458,380.7861" style="stroke:#5E5E5E;stroke-width:1.5625;"/><line style="stroke:#5E5E5E;stroke-width:1.5625;" x1="359.8958" x2="359.8958" y1="380.7861" y2="387.0361"/><line style="stroke:#5E5E5E;stroke-width:1.5625;" x1="366.1458" x2="359.8958" y1="387.0361" y2="387.0361"/><text fill="#D8BC00" font-family="Open Sans,Avenir,Nunito,Arial,Helvetica,SansSerif" font-size="12.5" lengthAdjust="spacing" textLength="108.3333" x="239.0625" y="404.3294">kivakit_conversion</text><!--MD5=[ae4286fb09ce878b5ed12f89a26eee54]
entity kivakit_core--><rect fill="#1B1B1A" height="44.93" rx="8.3333" ry="8.3333" style="stroke:#5E5E5E;stroke-width:1.5625;" width="108.3333" x="277.6042" y="482.8695"/><polygon fill="#1B1B1A" points="368.2292,488.0778,368.2292,502.6611,380.7292,502.6611,380.7292,494.3278,374.4792,488.0778,368.2292,488.0778" style="stroke:#5E5E5E;stroke-width:1.5625;"/><line style="stroke:#5E5E5E;stroke-width:1.5625;" x1="374.4792" x2="374.4792" y1="488.0778" y2="494.3278"/><line style="stroke:#5E5E5E;stroke-width:1.5625;" x1="380.7292" x2="374.4792" y1="494.3278" y2="494.3278"/><text fill="#D8BC00" font-family="Open Sans,Avenir,Nunito,Arial,Helvetica,SansSerif" font-size="12.5" lengthAdjust="spacing" textLength="70.8333" x="291.1458" y="511.6211">kivakit_core</text><!--MD5=[b582392a7118229602de187c1b0722c2]
entity kivakit_interfaces--><rect fill="#1B1B1A" height="44.93" rx="8.3333" ry="8.3333" style="stroke:#5E5E5E;stroke-width:1.5625;" width="140.625" x="261.4583" y="590.1611"/><polygon fill="#1B1B1A" points="384.375,595.3695,384.375,609.9528,396.875,609.9528,396.875,601.6195,390.625,595.3695,384.375,595.3695" style="stroke:#5E5E5E;stroke-width:1.5625;"/><line style="stroke:#5E5E5E;stroke-width:1.5625;" x1="390.625" x2="390.625" y1="595.3695" y2="601.6195"/><line style="stroke:#5E5E5E;stroke-width:1.5625;" x1="396.875" x2="390.625" y1="601.6195" y2="601.6195"/><text fill="#D8BC00" font-family="Open Sans,Avenir,Nunito,Arial,Helvetica,SansSerif" font-size="12.5" lengthAdjust="spacing" textLength="103.125" x="275" y="618.9128">kivakit_interfaces</text><!--MD5=[7921d14e5969ec5b646a7d8d67b1935f]
entity kivakit_logs_email--><rect fill="#1B1B1A" height="44.93" rx="8.3333" ry="8.3333" style="stroke:#5E5E5E;stroke-width:1.5625;" width="144.7917" x="238.5417" y="53.7028"/><polygon fill="#1B1B1A" points="365.625,58.9111,365.625,73.4945,378.125,73.4945,378.125,65.1611,371.875,58.9111,365.625,58.9111" style="stroke:#5E5E5E;stroke-width:1.5625;"/><line style="stroke:#5E5E5E;stroke-width:1.5625;" x1="371.875" x2="371.875" y1="58.9111" y2="65.1611"/><line style="stroke:#5E5E5E;stroke-width:1.5625;" x1="378.125" x2="371.875" y1="65.1611" y2="65.1611"/><text fill="#D8BC00" font-family="Open Sans,Avenir,Nunito,Arial,Helvetica,SansSerif" font-size="12.5" lengthAdjust="spacing" textLength="107.2917" x="252.0833" y="82.4544">kivakit_logs_email</text><!--MD5=[f41257055ff6c31a77f8312d5e694f18]
entity kivakit_mixins--><rect fill="#1B1B1A" height="44.93" rx="8.3333" ry="8.3333" style="stroke:#5E5E5E;stroke-width:1.5625;" width="120.8333" x="439.0625" y="590.1611"/><polygon fill="#1B1B1A" points="542.1875,595.3695,542.1875,609.9528,554.6875,609.9528,554.6875,601.6195,548.4375,595.3695,542.1875,595.3695" style="stroke:#5E5E5E;stroke-width:1.5625;"/><line style="stroke:#5E5E5E;stroke-width:1.5625;" x1="548.4375" x2="548.4375" y1="595.3695" y2="601.6195"/><line style="stroke:#5E5E5E;stroke-width:1.5625;" x1="554.6875" x2="548.4375" y1="601.6195" y2="601.6195"/><text fill="#D8BC00" font-family="Open Sans,Avenir,Nunito,Arial,Helvetica,SansSerif" font-size="12.5" lengthAdjust="spacing" textLength="83.3333" x="452.6042" y="618.9128">kivakit_mixins</text><!--MD5=[69aef7896e565a816d1082fbfba261ce]
entity kivakit_network_core--><rect fill="#1B1B1A" height="44.93" rx="8.3333" ry="8.3333" style="stroke:#5E5E5E;stroke-width:1.5625;" width="162.5" x="314.0625" y="268.2861"/><polygon fill="#1B1B1A" points="458.8542,273.4945,458.8542,288.0778,471.3542,288.0778,471.3542,279.7445,465.1042,273.4945,458.8542,273.4945" style="stroke:#5E5E5E;stroke-width:1.5625;"/><line style="stroke:#5E5E5E;stroke-width:1.5625;" x1="465.1042" x2="465.1042" y1="273.4945" y2="279.7445"/><line style="stroke:#5E5E5E;stroke-width:1.5625;" x1="471.3542" x2="465.1042" y1="279.7445" y2="279.7445"/><text fill="#D8BC00" font-family="Open Sans,Avenir,Nunito,Arial,Helvetica,SansSerif" font-size="12.5" lengthAdjust="spacing" textLength="125" x="327.6042" y="297.0378">kivakit_network_core</text><!--MD5=[d84cff18712397b12e53d50f3e2468e9]
entity kivakit_network_email--><rect fill="#1B1B1A" height="44.93" rx="8.3333" ry="8.3333" style="stroke:#5E5E5E;stroke-width:1.5625;" width="168.75" x="226.5625" y="160.9945"/><polygon fill="#1B1B1A" points="377.6042,166.2028,377.6042,180.7861,390.1042,180.7861,390.1042,172.4528,383.8542,166.2028,377.6042,166.2028" style="stroke:#5E5E5E;stroke-width:1.5625;"/><line style="stroke:#5E5E5E;stroke-width:1.5625;" x1="383.8542" x2="383.8542" y1="166.2028" y2="172.4528"/><line style="stroke:#5E5E5E;stroke-width:1.5625;" x1="390.1042" x2="383.8542" y1="172.4528" y2="172.4528"/><text fill="#D8BC00" font-family="Open Sans,Avenir,Nunito,Arial,Helvetica,SansSerif" font-size="12.5" lengthAdjust="spacing" textLength="131.25" x="240.1042" y="189.7461">kivakit_network_email</text><!--MD5=[789122fdd47ca161e4432768ac68a470]
entity kivakit_resource--><rect fill="#1B1B1A" height="44.93" rx="8.3333" ry="8.3333" style="stroke:#5E5E5E;stroke-width:1.5625;" width="134.375" x="607.2917" y="375.5778"/><polygon fill="#1B1B1A" points="723.9583,380.7861,723.9583,395.3695,736.4583,395.3695,736.4583,387.0361,730.2083,380.7861,723.9583,380.7861" style="stroke:#5E5E5E;stroke-width:1.5625;"/><line style="stroke:#5E5E5E;stroke-width:1.5625;" x1="730.2083" x2="730.2083" y1="380.7861" y2="387.0361"/><line style="stroke:#5E5E5E;stroke-width:1.5625;" x1="736.4583" x2="730.2083" y1="387.0361" y2="387.0361"/><text fill="#D8BC00" font-family="Open Sans,Avenir,Nunito,Arial,Helvetica,SansSerif" font-size="12.5" lengthAdjust="spacing" textLength="96.875" x="620.8333" y="404.3294">kivakit_resource</text><!--MD5=[7b11bf8f6cdaefb37d9e26a0fe1bc824]
entity kivakit_serialization_gson--><rect fill="#1B1B1A" height="44.93" rx="8.3333" ry="8.3333" style="stroke:#5E5E5E;stroke-width:1.5625;" width="188.5417" x="778.125" y="375.5778"/><polygon fill="#1B1B1A" points="948.9583,380.7861,948.9583,395.3695,961.4583,395.3695,961.4583,387.0361,955.2083,380.7861,948.9583,380.7861" style="stroke:#5E5E5E;stroke-width:1.5625;"/><line style="stroke:#5E5E5E;stroke-width:1.5625;" x1="955.2083" x2="955.2083" y1="380.7861" y2="387.0361"/><line style="stroke:#5E5E5E;stroke-width:1.5625;" x1="961.4583" x2="955.2083" y1="387.0361" y2="387.0361"/><text fill="#D8BC00" font-family="Open Sans,Avenir,Nunito,Arial,Helvetica,SansSerif" font-size="12.5" lengthAdjust="spacing" textLength="151.0417" x="791.6667" y="404.3294">kivakit_serialization_gson</text><!--MD5=[89af034859c241291c45f10ab75c9d6f]
entity kivakit_serialization_properties--><rect fill="#1B1B1A" height="44.93" rx="8.3333" ry="8.3333" style="stroke:#5E5E5E;stroke-width:1.5625;" width="222.9167" x="1003.6458" y="375.5778"/><polygon fill="#1B1B1A" points="1208.8542,380.7861,1208.8542,395.3695,1221.3542,395.3695,1221.3542,387.0361,1215.1042,380.7861,1208.8542,380.7861" style="stroke:#5E5E5E;stroke-width:1.5625;"/><line style="stroke:#5E5E5E;stroke-width:1.5625;" x1="1215.1042" x2="1215.1042" y1="380.7861" y2="387.0361"/><line style="stroke:#5E5E5E;stroke-width:1.5625;" x1="1221.3542" x2="1215.1042" y1="387.0361" y2="387.0361"/><text fill="#D8BC00" font-family="Open Sans,Avenir,Nunito,Arial,Helvetica,SansSerif" font-size="12.5" lengthAdjust="spacing" textLength="185.4167" x="1017.1875" y="404.3294">kivakit_serialization_properties</text><!--MD5=[9ba95bb9e8e31957d019d7ac74b23042]
entity kivakit_settings--><rect fill="#1B1B1A" height="44.93" rx="8.3333" ry="8.3333" style="stroke:#5E5E5E;stroke-width:1.5625;" width="128.125" x="610.4167" y="268.2861"/><polygon fill="#1B1B1A" points="720.8333,273.4945,720.8333,288.0778,733.3333,288.0778,733.3333,279.7445,727.0833,273.4945,720.8333,273.4945" style="stroke:#5E5E5E;stroke-width:1.5625;"/><line style="stroke:#5E5E5E;stroke-width:1.5625;" x1="727.0833" x2="727.0833" y1="273.4945" y2="279.7445"/><line style="stroke:#5E5E5E;stroke-width:1.5625;" x1="733.3333" x2="727.0833" y1="279.7445" y2="279.7445"/><text fill="#D8BC00" font-family="Open Sans,Avenir,Nunito,Arial,Helvetica,SansSerif" font-size="12.5" lengthAdjust="spacing" textLength="90.625" x="623.9583" y="297.0378">kivakit_settings</text><!--MD5=[80d2a7f8a38f99556dcaa88e0cbe286e]
entity kivakit_validation--><rect fill="#1B1B1A" height="44.93" rx="8.3333" ry="8.3333" style="stroke:#5E5E5E;stroke-width:1.5625;" width="139.5833" x="422.3958" y="482.8695"/><polygon fill="#1B1B1A" points="544.2708,488.0778,544.2708,502.6611,556.7708,502.6611,556.7708,494.3278,550.5208,488.0778,544.2708,488.0778" style="stroke:#5E5E5E;stroke-width:1.5625;"/><line style="stroke:#5E5E5E;stroke-width:1.5625;" x1="550.5208" x2="550.5208" y1="488.0778" y2="494.3278"/><line style="stroke:#5E5E5E;stroke-width:1.5625;" x1="556.7708" x2="550.5208" y1="494.3278" y2="494.3278"/><text fill="#D8BC00" font-family="Open Sans,Avenir,Nunito,Arial,Helvetica,SansSerif" font-size="12.5" lengthAdjust="spacing" textLength="102.0833" x="435.9375" y="511.6211">kivakit_validation</text><!--MD5=[7b0fec798d1f32628676dfdf75f1f662]
entity lexakai_annotations--><rect fill="#1B1B1A" height="44.93" rx="8.3333" ry="8.3333" style="stroke:#5E5E5E;stroke-width:1.5625;" width="155.2083" x="169.7917" y="697.4528"/><polygon fill="#1B1B1A" points="307.2917,702.6611,307.2917,717.2445,319.7917,717.2445,319.7917,708.9111,313.5417,702.6611,307.2917,702.6611" style="stroke:#5E5E5E;stroke-width:1.5625;"/><line style="stroke:#5E5E5E;stroke-width:1.5625;" x1="313.5417" x2="313.5417" y1="702.6611" y2="708.9111"/><line style="stroke:#5E5E5E;stroke-width:1.5625;" x1="319.7917" x2="313.5417" y1="708.9111" y2="708.9111"/><text fill="#D8BC00" font-family="Open Sans,Avenir,Nunito,Arial,Helvetica,SansSerif" font-size="12.5" lengthAdjust="spacing" textLength="117.7083" x="183.3333" y="726.2044">lexakai_annotations</text><!--MD5=[b728e17b4e4da6aa8cb97e9b2766c5e6]
entity annotations--><rect fill="#1B1B1A" height="44.93" rx="8.3333" ry="8.3333" style="stroke:#5E5E5E;stroke-width:1.5625;" width="106.25" x="361.9792" y="697.4528"/><polygon fill="#1B1B1A" points="450.5208,702.6611,450.5208,717.2445,463.0208,717.2445,463.0208,708.9111,456.7708,702.6611,450.5208,702.6611" style="stroke:#5E5E5E;stroke-width:1.5625;"/><line style="stroke:#5E5E5E;stroke-width:1.5625;" x1="456.7708" x2="456.7708" y1="702.6611" y2="708.9111"/><line style="stroke:#5E5E5E;stroke-width:1.5625;" x1="463.0208" x2="456.7708" y1="708.9111" y2="708.9111"/><text fill="#D8BC00" font-family="Open Sans,Avenir,Nunito,Arial,Helvetica,SansSerif" font-size="12.5" lengthAdjust="spacing" textLength="68.75" x="375.5208" y="726.2044">annotations</text><!--MD5=[943c04cd0fe752834cf06c59f408a839]
link kivakit_commandline to kivakit_core--><path d="M456.8542,420.557 C431.1979,437.7236 395.2604,461.7549 368.4896,479.6611 " fill="none" id="kivakit_commandline-to-kivakit_core" style="stroke:#545454;stroke-width:1.5625;"/><polygon fill="#545454" points="363.9375,482.7132,374.0451,480.9558,368.2642,479.8139,369.4061,474.033,363.9375,482.7132" style="stroke:#545454;stroke-width:1.5625;"/><!--MD5=[233173b8414f4008c96b85f34b766932]
link kivakit_commandline to kivakit_validation--><path d="M489.7083,420.8174 C490.1979,437.2861 490.875,459.984 491.3958,477.5361 " fill="none" id="kivakit_commandline-to-kivakit_validation" style="stroke:#545454;stroke-width:1.5625;"/><polygon fill="#545454" points="491.5521,482.8174,495.4493,473.3272,491.4033,477.6112,487.1194,473.5652,491.5521,482.8174" style="stroke:#545454;stroke-width:1.5625;"/><!--MD5=[a27c71d033f650a74e689916edfa2bee]
link kivakit_core to cactus_metadata--><path d="M291.8854,527.8486 C259.8438,545.1507 214.8646,569.4424 181.6354,587.4007 " fill="none" id="kivakit_core-to-cactus_metadata" style="stroke:#545454;stroke-width:1.5625;"/><polygon fill="#545454" points="176.8125,590.0049,187.042,589.2249,181.3973,587.5338,183.0884,581.8891,176.8125,590.0049" style="stroke:#545454;stroke-width:1.5625;"/><!--MD5=[50e8d2e340cfb1a2dae3d5796adb8458]
link kivakit_core to kivakit_interfaces--><path d="M331.7708,528.109 C331.7708,544.5778 331.7708,567.2757 331.7708,584.8278 " fill="none" id="kivakit_core-to-kivakit_interfaces" style="stroke:#545454;stroke-width:1.5625;"/><polygon fill="#545454" points="331.7708,590.109,335.9375,580.734,331.7708,584.9007,327.6042,580.734,331.7708,590.109" style="stroke:#545454;stroke-width:1.5625;"/><!--MD5=[cc9720141deba8e1bd3912e4e0759165]
link kivakit_core to kivakit_mixins--><path d="M366.1146,527.8486 C393.5833,545.0882 432.1042,569.2445 460.6875,587.182 " fill="none" id="kivakit_core-to-kivakit_mixins" style="stroke:#545454;stroke-width:1.5625;"/><polygon fill="#545454" points="465.1771,590.0049,459.4561,581.4889,460.7671,587.2338,455.0223,588.5448,465.1771,590.0049" style="stroke:#545454;stroke-width:1.5625;"/><!--MD5=[ae0cbb2eeca1523bc78b042db62e2be7]
link kivakit_interfaces to annotations--><path d="M349.0417,635.4007 C362.3125,652.1507 380.6875,675.3486 394.6875,693.0257 " fill="none" id="kivakit_interfaces-to-annotations" style="stroke:#545454;stroke-width:1.5625;"/><polygon fill="#545454" points="398.1458,697.4007,395.6094,687.46,394.9195,693.312,389.0675,692.6222,398.1458,697.4007" style="stroke:#545454;stroke-width:1.5625;"/><!--MD5=[9b9898faa91efac5ccf8efb529e9a4f7]
link kivakit_interfaces to lexakai_annotations--><path d="M314.2917,635.4007 C300.8542,652.1507 282.25,675.3486 268.0729,693.0257 " fill="none" id="kivakit_interfaces-to-lexakai_annotations" style="stroke:#545454;stroke-width:1.5625;"/><polygon fill="#545454" points="264.5625,697.4007,273.6789,692.6952,267.8216,693.3381,267.1787,687.4807,264.5625,697.4007" style="stroke:#545454;stroke-width:1.5625;"/><!--MD5=[cf1fa49a9bc010ba1ed2553e236de471]
link kivakit_logs_email to kivakit_network_email--><path d="M310.9375,98.9424 C310.9375,115.4111 310.9375,138.109 310.9375,155.6611 " fill="none" id="kivakit_logs_email-to-kivakit_network_email" style="stroke:#545454;stroke-width:1.5625;"/><polygon fill="#545454" points="310.9375,160.9424,315.1042,151.5674,310.9375,155.734,306.7708,151.5674,310.9375,160.9424" style="stroke:#545454;stroke-width:1.5625;"/><!--MD5=[9bb584e9c76084b7a27dcc62deb64b83]
link kivakit_network_core to kivakit_conversion--><path d="M375.2396,313.5257 C359.6771,330.4215 338.0938,353.8695 321.7604,371.5986 " fill="none" id="kivakit_network_core-to-kivakit_conversion" style="stroke:#545454;stroke-width:1.5625;"/><polygon fill="#545454" points="318.1563,375.5257,327.5748,371.4585,321.6871,371.6969,321.4487,365.8092,318.1563,375.5257" style="stroke:#545454;stroke-width:1.5625;"/><!--MD5=[a91d00e87f385290ccd55021d1d4d9d4]
link kivakit_network_email to javax_activation--><path d="M262.5938,205.8486 C223.1042,223.3382 167.3542,248.0361 126.6146,266.0882 " fill="none" id="kivakit_network_email-to-javax_activation" style="stroke:#545454;stroke-width:1.5625;"/><polygon fill="#545454" points="121.7188,268.2549,131.978,268.2608,126.4794,266.1423,128.5979,260.6438,121.7188,268.2549" style="stroke:#545454;stroke-width:1.5625;"/><!--MD5=[f9e8b41bbcde75082e031be65c873394]
link kivakit_network_email to javax_mail--><path d="M293.4583,206.234 C280.0208,222.984 261.4167,246.182 247.2396,263.859 " fill="none" id="kivakit_network_email-to-javax_mail" style="stroke:#545454;stroke-width:1.5625;"/><polygon fill="#545454" points="243.7292,268.234,252.8456,263.5285,246.9882,264.1714,246.3453,258.314,243.7292,268.234" style="stroke:#545454;stroke-width:1.5625;"/><!--MD5=[e3fde0397663a51c110c39e352b1ac4e]
link kivakit_network_email to kivakit_network_core--><path d="M328.4167,206.234 C341.8542,222.984 360.4583,246.182 374.6354,263.859 " fill="none" id="kivakit_network_email-to-kivakit_network_core" style="stroke:#545454;stroke-width:1.5625;"/><polygon fill="#545454" points="378.1458,268.234,375.5297,258.314,374.8868,264.1714,369.0294,263.5285,378.1458,268.234" style="stroke:#545454;stroke-width:1.5625;"/><!--MD5=[fe07577d9eccaa602915f30d032d709c]
link kivakit_network_email to kivakit_settings--><path d="M384.9479,205.8486 C449.3542,224.4945 542.0313,251.307 605.0625,269.5465 " fill="none" id="kivakit_network_email-to-kivakit_settings" style="stroke:#545454;stroke-width:1.5625;"/><polygon fill="#545454" points="610.3021,271.0674,602.4506,264.4639,605.2981,269.6228,600.1392,272.4703,610.3021,271.0674" style="stroke:#545454;stroke-width:1.5625;"/><!--MD5=[1f920e5641e1a651a42d763be0b203c8]
link kivakit_resource to kivakit_collections--><path d="M674.4792,420.8174 C674.4792,437.2861 674.4792,459.984 674.4792,477.5361 " fill="none" id="kivakit_resource-to-kivakit_collections" style="stroke:#545454;stroke-width:1.5625;"/><polygon fill="#545454" points="674.4792,482.8174,678.6458,473.4424,674.4792,477.609,670.3125,473.4424,674.4792,482.8174" style="stroke:#545454;stroke-width:1.5625;"/><!--MD5=[526b50f83d962021076ab4af7a206f26]
link kivakit_serialization_gson to gson--><path d="M872.3958,420.8174 C872.3958,437.2861 872.3958,459.984 872.3958,477.5361 " fill="none" id="kivakit_serialization_gson-to-gson" style="stroke:#545454;stroke-width:1.5625;"/><polygon fill="#545454" points="872.3958,482.8174,876.5625,473.4424,872.3958,477.609,868.2292,473.4424,872.3958,482.8174" style="stroke:#545454;stroke-width:1.5625;"/><!--MD5=[617b6bc9ab2f7e62743114de08919b91]
link kivakit_settings to kivakit_commandline--><path d="M636.5104,313.2653 C606.0104,330.5674 563.2083,354.859 531.5625,372.8174 " fill="none" id="kivakit_settings-to-kivakit_commandline" style="stroke:#545454;stroke-width:1.5625;"/><polygon fill="#545454" points="526.9792,375.4215,537.1905,374.4314,531.5122,372.8568,533.0869,367.1785,526.9792,375.4215" style="stroke:#545454;stroke-width:1.5625;"/><!--MD5=[66daae608c5d1ef9a55a9dd78110fd01]
link kivakit_settings to kivakit_resource--><path d="M674.4792,313.5257 C674.4792,329.9945 674.4792,352.6924 674.4792,370.2445 " fill="none" id="kivakit_settings-to-kivakit_resource" style="stroke:#545454;stroke-width:1.5625;"/><polygon fill="#545454" points="674.4792,375.5257,678.6458,366.1507,674.4792,370.3174,670.3125,366.1507,674.4792,375.5257" style="stroke:#545454;stroke-width:1.5625;"/><!--MD5=[db7a3e58ae015a2db9e73bbbc331f313]
link kivakit_settings to kivakit_serialization_gson--><path d="M715.0104,313.2653 C747.5625,330.5674 793.2604,354.859 827.0313,372.8174 " fill="none" id="kivakit_settings-to-kivakit_serialization_gson" style="stroke:#545454;stroke-width:1.5625;"/><polygon fill="#545454" points="831.9167,375.4215,825.5891,367.3461,827.3161,372.9798,821.6824,374.7069,831.9167,375.4215" style="stroke:#545454;stroke-width:1.5625;"/><!--MD5=[9a29ae8e9245e25ea51914d5ea8f3bfd]
link kivakit_settings to kivakit_serialization_properties--><path d="M738.5521,307.0257 C812.4688,324.6715 934.7396,353.8695 1019.8229,374.182 " fill="none" id="kivakit_settings-to-kivakit_serialization_properties" style="stroke:#545454;stroke-width:1.5625;"/><polygon fill="#545454" points="1025.3646,375.5049,1017.2104,369.279,1020.298,374.2979,1015.2792,377.3855,1025.3646,375.5049" style="stroke:#545454;stroke-width:1.5625;"/><!--MD5=[0d8b134083081ca90d90995de728904d]
@startuml

    !include lexakai.theme
    
    title "kivakit-logs-email"
    
    artifact gson
    artifact javax_activation
    artifact javax_mail
    artifact cactus_metadata
    artifact kivakit_collections
    artifact kivakit_commandline
    artifact kivakit_conversion
    artifact kivakit_core
    artifact kivakit_interfaces
    artifact kivakit_logs_email
    artifact kivakit_mixins
    artifact kivakit_network_core
    artifact kivakit_network_email
    artifact kivakit_resource
    artifact kivakit_serialization_gson
    artifact kivakit_serialization_properties
    artifact kivakit_settings
    artifact kivakit_validation
    artifact lexakai_annotations
    artifact annotations
    kivakit_commandline - -> kivakit_core
    kivakit_commandline - -> kivakit_validation
    kivakit_core - -> cactus_metadata
    kivakit_core - -> kivakit_interfaces
    kivakit_core - -> kivakit_mixins
    kivakit_interfaces - -> annotations
    kivakit_interfaces - -> lexakai_annotations
    kivakit_logs_email - -> kivakit_network_email
    kivakit_network_core - -> kivakit_conversion
    kivakit_network_email - -> javax_activation
    kivakit_network_email - -> javax_mail
    kivakit_network_email - -> kivakit_network_core
    kivakit_network_email - -> kivakit_settings
    kivakit_resource - -> kivakit_collections
    kivakit_serialization_gson - -> gson
    kivakit_settings - -> kivakit_commandline
    kivakit_settings - -> kivakit_resource
    kivakit_settings - -> kivakit_serialization_gson
    kivakit_settings - -> kivakit_serialization_properties
    
@enduml

@startuml









skinparam backgroundColor #333333






skinparam  {
    defaultFontName   "Open Sans,Avenir,Nunito,Arial,Helvetica,SansSerif"
    defaultFontSize   12
    defaultTextAlignment left
    shadowing false
    RoundCorner 10
    TitleFontSize 18
}

skinparam defaultFontName       "Open Sans,Avenir,Nunito,Arial,Helvetica,SansSerif"
skinparam defaultFontSize       12
skinparam dpi                   100
skinparam shadowing             false
skinparam roundcorner           16
skinparam ParticipantPadding    40
skinparam BoxPadding            40
skinparam Padding               3
skinparam ArrowColor            #545454
skinparam stereotype {
    CBackgroundColor #0066cf
    CBorderColor #0086ef
    ABackgroundColor #C8Ac00
    ABorderColor #D8Bc00
    IBackgroundColor #008400
    IBorderColor #239c23
    EBackgroundColor #cf6300
    EBorderColor #ef8300
    NBackgroundColor #3380b9
    NBorderColor #004d86
}
skinparam title {
	FontColor	                 #c0c0c0
 	BorderColor                  #545454
	FontSize	    	         20
	BorderRoundCorner            16
	BorderThickness 	         1
	BackgroundColor              #48494b
}


skinparam legend {
	BackgroundColor #303030
	BorderColor #404040
	FontColor #a0a0a0
}

	skinparam swimlane {
	BorderColor #5e5e5e
	BorderThickness 2
	TitleBackgroundColor  #6d6d6d-#484848
	TitleFontColor #303030
}

skinparam activity {
		FontColor #C8Ac00
	BorderColor #333333
	BackgroundColor #333333-#333333
	BarColor #00FF00
	StartColor #0060a8
	EndColor #0060a8
	DiamondBackgroundColor #6d6d6d-#3a3a3a
  	DiamondBorderColor #3a3a3a
  	DiamondFontColor #fefefe
}


skinparam participant {
		FontColor #C8Ac00
	BorderColor #333333
	BackgroundColor #333333-#333333
	ParticipantBorderThickness 2
}


skinparam actor {
		FontColor #C8Ac00
	BorderColor #333333
	BackgroundColor #333333-#333333
}


skinparam arrow {
	Thickness 1.5
	Color #545454
	FontColor #a0a0a0
    FontStyle bold
    MessageAlignment center
}



skinparam sequence {
	BorderColor #303030
	TitleFontColor #303030
	BackgroundColor #333333
	StartColor #303030
	EndColor #303030
	BoxBackgroundColor #333333
	BoxBorderColor #484848
	BoxFontColor #484848
	LifeLineBorderColor #484848
	LifeLineBorderThickness 2
	LifeLineBackgroundColor #3a3a3a
	GroupBorderColor #484848
	GroupFontColor #484848
	GroupHeaderFontColor #0060a8
	GroupBackgroundColor #484848
	GroupHeaderBackgroundColor #333333
	DividerBackgroundColor #484848
    DividerBorderColor #484848
    DividerBorderThickness 2
    DividerFontColor #D8Bc00
	ReferenceBackgroundColor #333333
	ReferenceBorderColor #484848
	ReferenceFontColor #fefefe
	ReferenceHeaderBackgroundColor #484848
}


skinparam partition {
	BorderColor #303030
	FontColor #333333
	BackgroundColor #333333
}


skinparam collections {
		FontColor #C8Ac00
	BorderColor #333333
	BackgroundColor #333333-#333333
}


skinparam control {
		FontColor #C8Ac00
	BorderColor #333333
	BackgroundColor #333333-#333333
}


skinparam entity {
		FontColor #C8Ac00
	BorderColor #333333
	BackgroundColor #333333-#333333
}


skinparam boundary {
		FontColor #C8Ac00
	BorderColor #333333
	BackgroundColor #333333-#333333
}


skinparam agent {
	BackgroundColor #ff8000
	BorderColor #ff9933
	FontColor #484848
}


skinparam note {
	BorderThickness 1
	BackgroundColor #1b1b1a
	BorderColor #5e5e5e
	FontSize 11
	FontColor #a0a0a0
}


skinparam artifact {
	BorderThickness 10
	BorderColor #5e5e5e
	BackgroundColor #1b1b1a
	FontColor #D8Bc00
}


skinparam component {
		FontColor #C8Ac00
	BorderColor #333333
	BackgroundColor #333333-#333333
}


skinparam interface {
	BackgroundColor  #008400
	BorderColor  #007F00
	FontColor #484848
}


skinparam storage {
	BackgroundColor #ff8000
  	BorderColor #cc6600
	FontColor #222222
}


skinparam node {
	BackgroundColor #333333
	BorderColor #333333
	FontColor #C8Ac00
}


skinparam cloud {
	BackgroundColor #484848-black
	BorderColor #484848
	FontColor #D8Bc00
}


skinparam database {
		FontColor #C8Ac00
	BorderColor #333333
	BackgroundColor #333333-#333333
	BackgroundColor  #333333
}


skinparam class {
		FontColor #C8Ac00
	BorderColor #333333
	BackgroundColor #333333-#333333
	HeaderBackgroundColor #1b1b1a
    BackgroundColor #282828
    BorderColor #5e5e5e
 	StereotypeFontColor #a0a0a0
    StereotypeFontStyle bold
	BorderThickness 1
	AttributeFontColor #D8Bc00
	AttributeFontSize 11
    FontColor #D8Bc00
    FontStyle bold
}


skinparam object {
		FontColor #C8Ac00
	BorderColor #333333
	BackgroundColor #333333-#333333
	StereotypeFontColor #484848
	BorderThickness 1
	AttributeFontColor #fefefe
	AttributeFontSize 11
}


skinparam usecase {
		FontColor #C8Ac00
	BorderColor #333333
	BackgroundColor #333333-#333333
	BorderThickness 2
	StereotypeFontColor #303030
}


skinparam rectangle {
		FontColor #C8Ac00
	BorderColor #333333
	BackgroundColor #333333-#333333
	BackgroundColor #333333
	BorderThickness 2
	StereotypeFontColor #303030
}


skinparam package {
		FontColor #C8Ac00
	BorderColor #333333
	BackgroundColor #333333-#333333
	BackgroundColor #333333
	BorderThickness 2
}


skinparam folder {
	BackgroundColor #6d6d6d
  	BorderColor #ff8000
	FontColor #ff8000
	BorderThickness 2
}


skinparam frame {
	BackgroundColor #6d6d6d
  	BorderColor #0060a8
	FontColor #0060a8
	BorderThickness 2
}


skinparam state {
		FontColor #C8Ac00
	BorderColor #333333
	BackgroundColor #333333-#333333
	StartColor #0060a8
	EndColor #0060a8
	AttributeFontColor #fefefe
	AttributeFontSize 11
}


skinparam queue {
		FontColor #C8Ac00
	BorderColor #333333
	BackgroundColor #333333-#333333
}


skinparam card {
	BackgroundColor #0060a8
	BorderColor #004d86
	FontColor $INFO_TEXT
}


skinparam file {
	BackgroundColor #6d6d6d-#484848
	BorderColor #0060a8
	FontColor #fefefe
}


skinparam stack {
		FontColor #C8Ac00
	BorderColor #333333
	BackgroundColor #333333-#333333
}

    
    title "kivakit-logs-email"
    
    artifact gson
    artifact javax_activation
    artifact javax_mail
    artifact cactus_metadata
    artifact kivakit_collections
    artifact kivakit_commandline
    artifact kivakit_conversion
    artifact kivakit_core
    artifact kivakit_interfaces
    artifact kivakit_logs_email
    artifact kivakit_mixins
    artifact kivakit_network_core
    artifact kivakit_network_email
    artifact kivakit_resource
    artifact kivakit_serialization_gson
    artifact kivakit_serialization_properties
    artifact kivakit_settings
    artifact kivakit_validation
    artifact lexakai_annotations
    artifact annotations
    kivakit_commandline - -> kivakit_core
    kivakit_commandline - -> kivakit_validation
    kivakit_core - -> cactus_metadata
    kivakit_core - -> kivakit_interfaces
    kivakit_core - -> kivakit_mixins
    kivakit_interfaces - -> annotations
    kivakit_interfaces - -> lexakai_annotations
    kivakit_logs_email - -> kivakit_network_email
    kivakit_network_core - -> kivakit_conversion
    kivakit_network_email - -> javax_activation
    kivakit_network_email - -> javax_mail
    kivakit_network_email - -> kivakit_network_core
    kivakit_network_email - -> kivakit_settings
    kivakit_resource - -> kivakit_collections
    kivakit_serialization_gson - -> gson
    kivakit_settings - -> kivakit_commandline
    kivakit_settings - -> kivakit_resource
    kivakit_settings - -> kivakit_serialization_gson
    kivakit_settings - -> kivakit_serialization_properties
    
@enduml

PlantUML version 1.2021.01(Tue Feb 02 00:55:08 MST 2021)
(GPL source distribution)
Java Runtime: OpenJDK Runtime Environment
JVM: OpenJDK 64-Bit Server VM
Default Encoding: UTF-8
Language: en
Country: US
--></g></svg>
