<?xml version="1.0" encoding="UTF-8" standalone="no"?><svg xmlns="http://www.w3.org/2000/svg" xmlns:xlink="http://www.w3.org/1999/xlink" contentScriptType="application/ecmascript" contentStyleType="text/css" height="475px" preserveAspectRatio="none" style="width:983px;height:475px;background:#333333;" version="1.1" viewBox="0 0 983 475" width="983.3333px" zoomAndPan="magnify"><defs/><g><rect fill="#48494B" height="41.2028" rx="8.3333" ry="8.3333" style="stroke:#545454;stroke-width:1.0416666666666667;" width="334.375" x="317.1875" y="2.0833"/><text fill="#C0C0C0" font-family="Open Sans,Avenir,Nunito,Arial,Helvetica,SansSerif" font-size="20.8333" lengthAdjust="spacing" textLength="311.4583" x="328.6458" y="30.5583">com.telenav.kivakit.component</text><!--MD5=[762aa3d0df6a9d47bd8e105afbd066b5]
class BaseRepeater--><rect codeLine="6" fill="#282828" height="48.055" id="BaseRepeater" rx="8.3333" ry="8.3333" style="stroke:#5E5E5E;stroke-width:1.0416666666666667;" width="123.9583" x="157.2917" y="164.1195"/><rect fill="#1B1B1A" height="31.3883" rx="8.3333" ry="8.3333" style="stroke:#1B1B1A;stroke-width:1.0416666666666667;" width="123.9583" x="157.2917" y="164.1195"/><rect fill="#1B1B1A" height="8.3333" style="stroke:#1B1B1A;stroke-width:1.0416666666666667;" width="123.9583" x="157.2917" y="187.1745"/><rect codeLine="6" fill="none" height="48.055" id="BaseRepeater" rx="8.3333" ry="8.3333" style="stroke:#5E5E5E;stroke-width:1.0416666666666667;" width="123.9583" x="157.2917" y="164.1195"/><ellipse cx="171.875" cy="179.8136" fill="#C8AC00" rx="10.4167" ry="10.4167" style="stroke:#D8BC00;stroke-width:1.0416666666666667;"/><path d="M171.4681,176.5157 L170.6197,180.245 L172.3226,180.245 Z M170.3695,174.8678 L172.5728,174.8678 L175.0326,183.9803 L173.232,183.9803 L172.6705,181.7281 L170.2596,181.7281 L169.7103,183.9803 L167.9097,183.9803 Z " fill="#000000"/><text fill="#D8BC00" font-family="Open Sans,Avenir,Nunito,Arial,Helvetica,SansSerif" font-size="12.5" font-style="italic" font-weight="bold" lengthAdjust="spacing" textLength="86.4583" x="188.5417" y="184.5378">BaseRepeater</text><line style="stroke:#5E5E5E;stroke-width:1.0416666666666667;" x1="158.3333" x2="280.2083" y1="195.5078" y2="195.5078"/><line style="stroke:#5E5E5E;stroke-width:1.0416666666666667;" x1="158.3333" x2="280.2083" y1="203.8411" y2="203.8411"/><!--MD5=[4e13963c9dc916a21a8436ef39422b32]
class Component--><rect codeLine="42" fill="#282828" height="48.055" id="Component" rx="8.3333" ry="8.3333" style="stroke:#5E5E5E;stroke-width:1.0416666666666667;" width="113.5417" x="415.625" y="164.1195"/><rect fill="#1B1B1A" height="31.3883" rx="8.3333" ry="8.3333" style="stroke:#1B1B1A;stroke-width:1.0416666666666667;" width="113.5417" x="415.625" y="164.1195"/><rect fill="#1B1B1A" height="8.3333" style="stroke:#1B1B1A;stroke-width:1.0416666666666667;" width="113.5417" x="415.625" y="187.1745"/><rect codeLine="42" fill="none" height="48.055" id="Component" rx="8.3333" ry="8.3333" style="stroke:#5E5E5E;stroke-width:1.0416666666666667;" width="113.5417" x="415.625" y="164.1195"/><ellipse cx="430.2083" cy="179.8136" fill="#008400" rx="10.4167" ry="10.4167" style="stroke:#239C23;stroke-width:1.0416666666666667;"/><path d="M427.6123,176.9755 L427.6123,175.3886 L433.0383,175.3886 L433.0383,176.9755 L431.2256,176.9755 L431.2256,182.9142 L433.0383,182.9142 L433.0383,184.5011 L427.6123,184.5011 L427.6123,182.9142 L429.425,182.9142 L429.425,176.9755 Z " fill="#000000"/><text fill="#D8BC00" font-family="Open Sans,Avenir,Nunito,Arial,Helvetica,SansSerif" font-size="12.5" font-style="italic" font-weight="bold" lengthAdjust="spacing" textLength="76.0417" x="446.875" y="184.5378">Component</text><line style="stroke:#5E5E5E;stroke-width:1.0416666666666667;" x1="416.6667" x2="528.125" y1="195.5078" y2="195.5078"/><line style="stroke:#5E5E5E;stroke-width:1.0416666666666667;" x1="416.6667" x2="528.125" y1="203.8411" y2="203.8411"/><!--MD5=[784d533083758286c885e86b9fe3090e]
class BaseComponent--><rect codeLine="12" fill="#282828" height="83.3781" id="BaseComponent" rx="8.3333" ry="8.3333" style="stroke:#5E5E5E;stroke-width:1.0416666666666667;" width="301.0417" x="68.75" y="274.5361"/><rect fill="#1B1B1A" height="31.3883" rx="8.3333" ry="8.3333" style="stroke:#1B1B1A;stroke-width:1.0416666666666667;" width="301.0417" x="68.75" y="274.5361"/><rect fill="#1B1B1A" height="8.3333" style="stroke:#1B1B1A;stroke-width:1.0416666666666667;" width="301.0417" x="68.75" y="297.5911"/><rect codeLine="12" fill="none" height="83.3781" id="BaseComponent" rx="8.3333" ry="8.3333" style="stroke:#5E5E5E;stroke-width:1.0416666666666667;" width="301.0417" x="68.75" y="274.5361"/><ellipse cx="158.8542" cy="290.2303" fill="#0066CF" rx="10.4167" ry="10.4167" style="stroke:#0086EF;stroke-width:1.0416666666666667;"/><path d="M160.7646,294.6554 Q160.3373,294.8751 159.8674,294.9849 Q159.3974,295.0948 158.8786,295.0948 Q157.0353,295.0948 156.0649,293.8802 Q155.0944,292.6656 155.0944,290.3707 Q155.0944,288.0697 156.0649,286.8551 Q157.0353,285.6405 158.8786,285.6405 Q159.3974,285.6405 159.8735,285.7503 Q160.3495,285.8602 160.7646,286.0799 L160.7646,288.0819 Q160.3007,287.6546 159.8643,287.4563 Q159.4279,287.2579 158.964,287.2579 Q157.9753,287.2579 157.4717,288.0422 Q156.9682,288.8265 156.9682,290.3707 Q156.9682,291.9088 157.4717,292.6931 Q157.9753,293.4774 158.964,293.4774 Q159.4279,293.4774 159.8643,293.279 Q160.3007,293.0806 160.7646,292.6534 Z " fill="#000000"/><text fill="#D8BC00" font-family="Open Sans,Avenir,Nunito,Arial,Helvetica,SansSerif" font-size="12.5" font-weight="bold" lengthAdjust="spacing" textLength="106.25" x="181.7708" y="294.9544">BaseComponent</text><line style="stroke:#5E5E5E;stroke-width:1.5625;" x1="69.7917" x2="368.75" y1="305.9245" y2="305.9245"/><ellipse cx="80.2083" cy="341.2944" fill="#84BE84" rx="3.125" ry="3.125" style="stroke:#038048;stroke-width:1.0416666666666667;"/><text fill="#D8BC00" font-family="Open Sans,Avenir,Nunito,Arial,Helvetica,SansSerif" font-size="11.4583" lengthAdjust="spacing" textLength="268.75" x="91.6667" y="348.2056">void onMessage(Consumer&lt;Message&gt; handler)</text><line style="stroke:#5E5E5E;stroke-width:1.0416666666666667;" x1="69.7917" x2="181.7708" y1="324.1302" y2="324.1302"/><text fill="#D8BC00" font-family="Open Sans,Avenir,Nunito,Arial,Helvetica,SansSerif" font-size="11.4583" lengthAdjust="spacing" textLength="68.75" x="184.8958" y="327.9399">(messaging)</text><line style="stroke:#5E5E5E;stroke-width:1.0416666666666667;" x1="256.7708" x2="368.75" y1="324.1302" y2="324.1302"/><!--MD5=[1bb08537fe391ebad579912cc56c6d97]
class LanguageTrait--><rect codeLine="18" fill="#282828" height="48.055" id="LanguageTrait" rx="8.3333" ry="8.3333" style="stroke:#5E5E5E;stroke-width:1.0416666666666667;" width="130.2083" x="7.2917" y="53.7028"/><rect fill="#1B1B1A" height="31.3883" rx="8.3333" ry="8.3333" style="stroke:#1B1B1A;stroke-width:1.0416666666666667;" width="130.2083" x="7.2917" y="53.7028"/><rect fill="#1B1B1A" height="8.3333" style="stroke:#1B1B1A;stroke-width:1.0416666666666667;" width="130.2083" x="7.2917" y="76.7578"/><rect codeLine="18" fill="none" height="48.055" id="LanguageTrait" rx="8.3333" ry="8.3333" style="stroke:#5E5E5E;stroke-width:1.0416666666666667;" width="130.2083" x="7.2917" y="53.7028"/><ellipse cx="21.875" cy="69.397" fill="#008400" rx="10.4167" ry="10.4167" style="stroke:#239C23;stroke-width:1.0416666666666667;"/><path d="M19.279,66.5588 L19.279,64.9719 L24.705,64.9719 L24.705,66.5588 L22.8923,66.5588 L22.8923,72.4976 L24.705,72.4976 L24.705,74.0845 L19.279,74.0845 L19.279,72.4976 L21.0917,72.4976 L21.0917,66.5588 Z " fill="#000000"/><text fill="#D8BC00" font-family="Open Sans,Avenir,Nunito,Arial,Helvetica,SansSerif" font-size="12.5" font-style="italic" font-weight="bold" lengthAdjust="spacing" textLength="92.7083" x="38.5417" y="74.1211">LanguageTrait</text><line style="stroke:#5E5E5E;stroke-width:1.0416666666666667;" x1="8.3333" x2="136.4583" y1="85.0911" y2="85.0911"/><line style="stroke:#5E5E5E;stroke-width:1.0416666666666667;" x1="8.3333" x2="136.4583" y1="93.4245" y2="93.4245"/><!--MD5=[5cc06ecdd9480702b567e3f11ad511a4]
class NamedObject--><rect codeLine="19" fill="#282828" height="48.055" id="NamedObject" rx="8.3333" ry="8.3333" style="stroke:#5E5E5E;stroke-width:1.0416666666666667;" width="123.9583" x="173.9583" y="53.7028"/><rect fill="#1B1B1A" height="31.3883" rx="8.3333" ry="8.3333" style="stroke:#1B1B1A;stroke-width:1.0416666666666667;" width="123.9583" x="173.9583" y="53.7028"/><rect fill="#1B1B1A" height="8.3333" style="stroke:#1B1B1A;stroke-width:1.0416666666666667;" width="123.9583" x="173.9583" y="76.7578"/><rect codeLine="19" fill="none" height="48.055" id="NamedObject" rx="8.3333" ry="8.3333" style="stroke:#5E5E5E;stroke-width:1.0416666666666667;" width="123.9583" x="173.9583" y="53.7028"/><ellipse cx="188.5417" cy="69.397" fill="#008400" rx="10.4167" ry="10.4167" style="stroke:#239C23;stroke-width:1.0416666666666667;"/><path d="M185.9456,66.5588 L185.9456,64.9719 L191.3717,64.9719 L191.3717,66.5588 L189.5589,66.5588 L189.5589,72.4976 L191.3717,72.4976 L191.3717,74.0845 L185.9456,74.0845 L185.9456,72.4976 L187.7584,72.4976 L187.7584,66.5588 Z " fill="#000000"/><text fill="#D8BC00" font-family="Open Sans,Avenir,Nunito,Arial,Helvetica,SansSerif" font-size="12.5" font-style="italic" font-weight="bold" lengthAdjust="spacing" textLength="86.4583" x="205.2083" y="74.1211">NamedObject</text><line style="stroke:#5E5E5E;stroke-width:1.0416666666666667;" x1="175" x2="296.875" y1="85.0911" y2="85.0911"/><line style="stroke:#5E5E5E;stroke-width:1.0416666666666667;" x1="175" x2="296.875" y1="93.4245" y2="93.4245"/><!--MD5=[e01eeb8408ed3b6eeaaca8952ac3a8b1]
class PackageTrait--><rect codeLine="20" fill="#282828" height="48.055" id="PackageTrait" rx="8.3333" ry="8.3333" style="stroke:#5E5E5E;stroke-width:1.0416666666666667;" width="119.7917" x="334.375" y="53.7028"/><rect fill="#1B1B1A" height="31.3883" rx="8.3333" ry="8.3333" style="stroke:#1B1B1A;stroke-width:1.0416666666666667;" width="119.7917" x="334.375" y="53.7028"/><rect fill="#1B1B1A" height="8.3333" style="stroke:#1B1B1A;stroke-width:1.0416666666666667;" width="119.7917" x="334.375" y="76.7578"/><rect codeLine="20" fill="none" height="48.055" id="PackageTrait" rx="8.3333" ry="8.3333" style="stroke:#5E5E5E;stroke-width:1.0416666666666667;" width="119.7917" x="334.375" y="53.7028"/><ellipse cx="348.9583" cy="69.397" fill="#008400" rx="10.4167" ry="10.4167" style="stroke:#239C23;stroke-width:1.0416666666666667;"/><path d="M346.3623,66.5588 L346.3623,64.9719 L351.7883,64.9719 L351.7883,66.5588 L349.9756,66.5588 L349.9756,72.4976 L351.7883,72.4976 L351.7883,74.0845 L346.3623,74.0845 L346.3623,72.4976 L348.175,72.4976 L348.175,66.5588 Z " fill="#000000"/><text fill="#D8BC00" font-family="Open Sans,Avenir,Nunito,Arial,Helvetica,SansSerif" font-size="12.5" font-style="italic" font-weight="bold" lengthAdjust="spacing" textLength="82.2917" x="365.625" y="74.1211">PackageTrait</text><line style="stroke:#5E5E5E;stroke-width:1.0416666666666667;" x1="335.4167" x2="453.125" y1="85.0911" y2="85.0911"/><line style="stroke:#5E5E5E;stroke-width:1.0416666666666667;" x1="335.4167" x2="453.125" y1="93.4245" y2="93.4245"/><!--MD5=[34eb2c3cd1bd084029c026d450c2586e]
class RegistryTrait--><rect codeLine="21" fill="#282828" height="48.055" id="RegistryTrait" rx="8.3333" ry="8.3333" style="stroke:#5E5E5E;stroke-width:1.0416666666666667;" width="120.8333" x="491.1458" y="53.7028"/><rect fill="#1B1B1A" height="31.3883" rx="8.3333" ry="8.3333" style="stroke:#1B1B1A;stroke-width:1.0416666666666667;" width="120.8333" x="491.1458" y="53.7028"/><rect fill="#1B1B1A" height="8.3333" style="stroke:#1B1B1A;stroke-width:1.0416666666666667;" width="120.8333" x="491.1458" y="76.7578"/><rect codeLine="21" fill="none" height="48.055" id="RegistryTrait" rx="8.3333" ry="8.3333" style="stroke:#5E5E5E;stroke-width:1.0416666666666667;" width="120.8333" x="491.1458" y="53.7028"/><ellipse cx="505.7292" cy="69.397" fill="#008400" rx="10.4167" ry="10.4167" style="stroke:#239C23;stroke-width:1.0416666666666667;"/><path d="M503.1331,66.5588 L503.1331,64.9719 L508.5592,64.9719 L508.5592,66.5588 L506.7464,66.5588 L506.7464,72.4976 L508.5592,72.4976 L508.5592,74.0845 L503.1331,74.0845 L503.1331,72.4976 L504.9459,72.4976 L504.9459,66.5588 Z " fill="#000000"/><text fill="#D8BC00" font-family="Open Sans,Avenir,Nunito,Arial,Helvetica,SansSerif" font-size="12.5" font-style="italic" font-weight="bold" lengthAdjust="spacing" textLength="83.3333" x="522.3958" y="74.1211">RegistryTrait</text><line style="stroke:#5E5E5E;stroke-width:1.0416666666666667;" x1="492.1875" x2="610.9375" y1="85.0911" y2="85.0911"/><line style="stroke:#5E5E5E;stroke-width:1.0416666666666667;" x1="492.1875" x2="610.9375" y1="93.4245" y2="93.4245"/><!--MD5=[5ec8c00c13391aeaac8c08bdf7a77295]
class Repeater--><rect codeLine="22" fill="#282828" height="48.055" id="Repeater" rx="8.3333" ry="8.3333" style="stroke:#5E5E5E;stroke-width:1.0416666666666667;" width="93.75" x="648.4375" y="53.7028"/><rect fill="#1B1B1A" height="31.3883" rx="8.3333" ry="8.3333" style="stroke:#1B1B1A;stroke-width:1.0416666666666667;" width="93.75" x="648.4375" y="53.7028"/><rect fill="#1B1B1A" height="8.3333" style="stroke:#1B1B1A;stroke-width:1.0416666666666667;" width="93.75" x="648.4375" y="76.7578"/><rect codeLine="22" fill="none" height="48.055" id="Repeater" rx="8.3333" ry="8.3333" style="stroke:#5E5E5E;stroke-width:1.0416666666666667;" width="93.75" x="648.4375" y="53.7028"/><ellipse cx="663.0208" cy="69.397" fill="#008400" rx="10.4167" ry="10.4167" style="stroke:#239C23;stroke-width:1.0416666666666667;"/><path d="M660.4248,66.5588 L660.4248,64.9719 L665.8508,64.9719 L665.8508,66.5588 L664.0381,66.5588 L664.0381,72.4976 L665.8508,72.4976 L665.8508,74.0845 L660.4248,74.0845 L660.4248,72.4976 L662.2375,72.4976 L662.2375,66.5588 Z " fill="#000000"/><text fill="#D8BC00" font-family="Open Sans,Avenir,Nunito,Arial,Helvetica,SansSerif" font-size="12.5" font-style="italic" font-weight="bold" lengthAdjust="spacing" textLength="56.25" x="679.6875" y="74.1211">Repeater</text><line style="stroke:#5E5E5E;stroke-width:1.0416666666666667;" x1="649.4792" x2="741.1458" y1="85.0911" y2="85.0911"/><line style="stroke:#5E5E5E;stroke-width:1.0416666666666667;" x1="649.4792" x2="741.1458" y1="93.4245" y2="93.4245"/><!--MD5=[6ca99d34851392075b5e04b85c61b465]
class SettingsTrait--><rect codeLine="23" fill="#282828" height="48.055" id="SettingsTrait" rx="8.3333" ry="8.3333" style="stroke:#5E5E5E;stroke-width:1.0416666666666667;" width="120.8333" x="778.6458" y="53.7028"/><rect fill="#1B1B1A" height="31.3883" rx="8.3333" ry="8.3333" style="stroke:#1B1B1A;stroke-width:1.0416666666666667;" width="120.8333" x="778.6458" y="53.7028"/><rect fill="#1B1B1A" height="8.3333" style="stroke:#1B1B1A;stroke-width:1.0416666666666667;" width="120.8333" x="778.6458" y="76.7578"/><rect codeLine="23" fill="none" height="48.055" id="SettingsTrait" rx="8.3333" ry="8.3333" style="stroke:#5E5E5E;stroke-width:1.0416666666666667;" width="120.8333" x="778.6458" y="53.7028"/><ellipse cx="793.2292" cy="69.397" fill="#008400" rx="10.4167" ry="10.4167" style="stroke:#239C23;stroke-width:1.0416666666666667;"/><path d="M790.6331,66.5588 L790.6331,64.9719 L796.0592,64.9719 L796.0592,66.5588 L794.2464,66.5588 L794.2464,72.4976 L796.0592,72.4976 L796.0592,74.0845 L790.6331,74.0845 L790.6331,72.4976 L792.4459,72.4976 L792.4459,66.5588 Z " fill="#000000"/><text fill="#D8BC00" font-family="Open Sans,Avenir,Nunito,Arial,Helvetica,SansSerif" font-size="12.5" font-style="italic" font-weight="bold" lengthAdjust="spacing" textLength="83.3333" x="809.8958" y="74.1211">SettingsTrait</text><line style="stroke:#5E5E5E;stroke-width:1.0416666666666667;" x1="779.6875" x2="898.4375" y1="85.0911" y2="85.0911"/><line style="stroke:#5E5E5E;stroke-width:1.0416666666666667;" x1="779.6875" x2="898.4375" y1="93.4245" y2="93.4245"/><!--MD5=[46acbc008168529f3349206642520903]
class ComponentMixin--><rect codeLine="54" fill="#282828" height="67.7999" id="ComponentMixin" rx="8.3333" ry="8.3333" style="stroke:#5E5E5E;stroke-width:1.0416666666666667;" width="197.9167" x="600.5208" y="282.3486"/><rect fill="#1B1B1A" height="31.3883" rx="8.3333" ry="8.3333" style="stroke:#1B1B1A;stroke-width:1.0416666666666667;" width="197.9167" x="600.5208" y="282.3486"/><rect fill="#1B1B1A" height="8.3333" style="stroke:#1B1B1A;stroke-width:1.0416666666666667;" width="197.9167" x="600.5208" y="305.4036"/><rect codeLine="54" fill="none" height="67.7999" id="ComponentMixin" rx="8.3333" ry="8.3333" style="stroke:#5E5E5E;stroke-width:1.0416666666666667;" width="197.9167" x="600.5208" y="282.3486"/><ellipse cx="637.1354" cy="298.0428" fill="#008400" rx="10.4167" ry="10.4167" style="stroke:#239C23;stroke-width:1.0416666666666667;"/><path d="M634.5394,295.2047 L634.5394,293.6178 L639.9654,293.6178 L639.9654,295.2047 L638.1527,295.2047 L638.1527,301.1434 L639.9654,301.1434 L639.9654,302.7303 L634.5394,302.7303 L634.5394,301.1434 L636.3521,301.1434 L636.3521,295.2047 Z " fill="#000000"/><text fill="#D8BC00" font-family="Open Sans,Avenir,Nunito,Arial,Helvetica,SansSerif" font-size="12.5" font-style="italic" font-weight="bold" lengthAdjust="spacing" textLength="111.4583" x="658.6979" y="302.7669">ComponentMixin</text><line style="stroke:#5E5E5E;stroke-width:1.5625;" x1="601.5625" x2="797.3958" y1="313.737" y2="313.737"/><line style="stroke:#5E5E5E;stroke-width:1.0416666666666667;" x1="601.5625" x2="797.3958" y1="322.0703" y2="322.0703"/><ellipse cx="611.9792" cy="333.5286" fill="#84BE84" rx="3.125" ry="3.125" style="stroke:#038048;stroke-width:1.0416666666666667;"/><text fill="#D8BC00" font-family="Open Sans,Avenir,Nunito,Arial,Helvetica,SansSerif" font-size="11.4583" lengthAdjust="spacing" textLength="165.625" x="623.4375" y="340.4399">BaseComponent component()</text><!--MD5=[4899ead58b536ff968fbcbdca857d192]
class Function--><rect codeLine="35" fill="#282828" height="48.055" id="Function" rx="8.3333" ry="8.3333" style="stroke:#5E5E5E;stroke-width:1.0416666666666667;" width="157.2917" x="406.25" y="292.2445"/><rect fill="#1B1B1A" height="31.3883" rx="8.3333" ry="8.3333" style="stroke:#1B1B1A;stroke-width:1.0416666666666667;" width="157.2917" x="406.25" y="292.2445"/><rect fill="#1B1B1A" height="8.3333" style="stroke:#1B1B1A;stroke-width:1.0416666666666667;" width="157.2917" x="406.25" y="315.2995"/><rect codeLine="35" fill="none" height="48.055" id="Function" rx="8.3333" ry="8.3333" style="stroke:#5E5E5E;stroke-width:1.0416666666666667;" width="157.2917" x="406.25" y="292.2445"/><ellipse cx="420.8333" cy="307.9386" fill="#008400" rx="10.4167" ry="10.4167" style="stroke:#239C23;stroke-width:1.0416666666666667;"/><path d="M418.2373,305.1005 L418.2373,303.5136 L423.6633,303.5136 L423.6633,305.1005 L421.8506,305.1005 L421.8506,311.0392 L423.6633,311.0392 L423.6633,312.6261 L418.2373,312.6261 L418.2373,311.0392 L420.05,311.0392 L420.05,305.1005 Z " fill="#000000"/><text fill="#D8BC00" font-family="Open Sans,Avenir,Nunito,Arial,Helvetica,SansSerif" font-size="12.5" font-style="italic" font-weight="bold" lengthAdjust="spacing" textLength="56.25" x="437.5" y="312.6628">Function</text><rect fill="#333333" height="23.055" style="stroke:#A0A0A0;stroke-width:1.0416666666666667;stroke-dasharray:2.0,2.0;" width="61.4583" x="505.2083" y="289.1195"/><text fill="#A0A0A0" font-family="Open Sans,Avenir,Nunito,Arial,Helvetica,SansSerif" font-size="12.5" font-weight="bold" lengthAdjust="spacing" textLength="53.125" x="509.375" y="305.3711">From,To</text><line style="stroke:#5E5E5E;stroke-width:1.0416666666666667;" x1="407.2917" x2="562.5" y1="323.6328" y2="323.6328"/><line style="stroke:#5E5E5E;stroke-width:1.0416666666666667;" x1="407.2917" x2="562.5" y1="331.9661" y2="331.9661"/><!--MD5=[e4656e4f0a3f8546a174777290b4214d]
class ComponentFunction--><rect codeLine="38" fill="#282828" height="48.055" id="ComponentFunction" rx="8.3333" ry="8.3333" style="stroke:#5E5E5E;stroke-width:1.0416666666666667;" width="237.5" x="444.2708" y="420.3695"/><rect fill="#1B1B1A" height="31.3883" rx="8.3333" ry="8.3333" style="stroke:#1B1B1A;stroke-width:1.0416666666666667;" width="237.5" x="444.2708" y="420.3695"/><rect fill="#1B1B1A" height="8.3333" style="stroke:#1B1B1A;stroke-width:1.0416666666666667;" width="237.5" x="444.2708" y="443.4245"/><rect codeLine="38" fill="none" height="48.055" id="ComponentFunction" rx="8.3333" ry="8.3333" style="stroke:#5E5E5E;stroke-width:1.0416666666666667;" width="237.5" x="444.2708" y="420.3695"/><ellipse cx="458.8542" cy="436.0636" fill="#008400" rx="10.4167" ry="10.4167" style="stroke:#239C23;stroke-width:1.0416666666666667;"/><path d="M456.2581,433.2255 L456.2581,431.6386 L461.6842,431.6386 L461.6842,433.2255 L459.8714,433.2255 L459.8714,439.1642 L461.6842,439.1642 L461.6842,440.7511 L456.2581,440.7511 L456.2581,439.1642 L458.0709,439.1642 L458.0709,433.2255 Z " fill="#000000"/><text fill="#D8BC00" font-family="Open Sans,Avenir,Nunito,Arial,Helvetica,SansSerif" font-size="12.5" font-style="italic" font-weight="bold" lengthAdjust="spacing" textLength="132.2917" x="475.5208" y="440.7878">ComponentFunction</text><rect fill="#333333" height="23.055" style="stroke:#A0A0A0;stroke-width:1.0416666666666667;stroke-dasharray:2.0,2.0;" width="65.625" x="619.2708" y="417.2445"/><text fill="#A0A0A0" font-family="Open Sans,Avenir,Nunito,Arial,Helvetica,SansSerif" font-size="12.5" font-weight="bold" lengthAdjust="spacing" textLength="57.2917" x="623.4375" y="433.4961">From, To</text><line style="stroke:#5E5E5E;stroke-width:1.0416666666666667;" x1="445.3125" x2="680.7292" y1="451.7578" y2="451.7578"/><line style="stroke:#5E5E5E;stroke-width:1.0416666666666667;" x1="445.3125" x2="680.7292" y1="460.0911" y2="460.0911"/><!--MD5=[c7fc90dea65bb0d50ca297923bfb51cf]
class Mixin--><rect codeLine="43" fill="#282828" height="48.055" id="Mixin" rx="8.3333" ry="8.3333" style="stroke:#5E5E5E;stroke-width:1.0416666666666667;" width="72.9167" x="594.2708" y="164.1195"/><rect fill="#1B1B1A" height="31.3883" rx="8.3333" ry="8.3333" style="stroke:#1B1B1A;stroke-width:1.0416666666666667;" width="72.9167" x="594.2708" y="164.1195"/><rect fill="#1B1B1A" height="8.3333" style="stroke:#1B1B1A;stroke-width:1.0416666666666667;" width="72.9167" x="594.2708" y="187.1745"/><rect codeLine="43" fill="none" height="48.055" id="Mixin" rx="8.3333" ry="8.3333" style="stroke:#5E5E5E;stroke-width:1.0416666666666667;" width="72.9167" x="594.2708" y="164.1195"/><ellipse cx="608.8542" cy="179.8136" fill="#008400" rx="10.4167" ry="10.4167" style="stroke:#239C23;stroke-width:1.0416666666666667;"/><path d="M606.2581,176.9755 L606.2581,175.3886 L611.6842,175.3886 L611.6842,176.9755 L609.8714,176.9755 L609.8714,182.9142 L611.6842,182.9142 L611.6842,184.5011 L606.2581,184.5011 L606.2581,182.9142 L608.0709,182.9142 L608.0709,176.9755 Z " fill="#000000"/><text fill="#D8BC00" font-family="Open Sans,Avenir,Nunito,Arial,Helvetica,SansSerif" font-size="12.5" font-style="italic" font-weight="bold" lengthAdjust="spacing" textLength="35.4167" x="625.5208" y="184.5378">Mixin</text><line style="stroke:#5E5E5E;stroke-width:1.0416666666666667;" x1="595.3125" x2="666.1458" y1="195.5078" y2="195.5078"/><line style="stroke:#5E5E5E;stroke-width:1.0416666666666667;" x1="595.3125" x2="666.1458" y1="203.8411" y2="203.8411"/><!--MD5=[0543f1fea1dfbc84657cf745773c4fab]
class RepeaterMixin--><rect codeLine="44" fill="#282828" height="48.055" id="RepeaterMixin" rx="8.3333" ry="8.3333" style="stroke:#5E5E5E;stroke-width:1.0416666666666667;" width="129.1667" x="703.6458" y="164.1195"/><rect fill="#1B1B1A" height="31.3883" rx="8.3333" ry="8.3333" style="stroke:#1B1B1A;stroke-width:1.0416666666666667;" width="129.1667" x="703.6458" y="164.1195"/><rect fill="#1B1B1A" height="8.3333" style="stroke:#1B1B1A;stroke-width:1.0416666666666667;" width="129.1667" x="703.6458" y="187.1745"/><rect codeLine="44" fill="none" height="48.055" id="RepeaterMixin" rx="8.3333" ry="8.3333" style="stroke:#5E5E5E;stroke-width:1.0416666666666667;" width="129.1667" x="703.6458" y="164.1195"/><ellipse cx="718.2292" cy="179.8136" fill="#008400" rx="10.4167" ry="10.4167" style="stroke:#239C23;stroke-width:1.0416666666666667;"/><path d="M715.6331,176.9755 L715.6331,175.3886 L721.0592,175.3886 L721.0592,176.9755 L719.2464,176.9755 L719.2464,182.9142 L721.0592,182.9142 L721.0592,184.5011 L715.6331,184.5011 L715.6331,182.9142 L717.4459,182.9142 L717.4459,176.9755 Z " fill="#000000"/><text fill="#D8BC00" font-family="Open Sans,Avenir,Nunito,Arial,Helvetica,SansSerif" font-size="12.5" font-style="italic" font-weight="bold" lengthAdjust="spacing" textLength="91.6667" x="734.8958" y="184.5378">RepeaterMixin</text><line style="stroke:#5E5E5E;stroke-width:1.0416666666666667;" x1="704.6875" x2="831.7708" y1="195.5078" y2="195.5078"/><line style="stroke:#5E5E5E;stroke-width:1.0416666666666667;" x1="704.6875" x2="831.7708" y1="203.8411" y2="203.8411"/><!--MD5=[6f6af049516bc56aac6e320b3234ce97]
class Supplier--><rect codeLine="55" fill="#282828" height="48.055" id="Supplier" rx="8.3333" ry="8.3333" style="stroke:#5E5E5E;stroke-width:1.0416666666666667;" width="136.4583" x="835.4167" y="292.2445"/><rect fill="#1B1B1A" height="31.3883" rx="8.3333" ry="8.3333" style="stroke:#1B1B1A;stroke-width:1.0416666666666667;" width="136.4583" x="835.4167" y="292.2445"/><rect fill="#1B1B1A" height="8.3333" style="stroke:#1B1B1A;stroke-width:1.0416666666666667;" width="136.4583" x="835.4167" y="315.2995"/><rect codeLine="55" fill="none" height="48.055" id="Supplier" rx="8.3333" ry="8.3333" style="stroke:#5E5E5E;stroke-width:1.0416666666666667;" width="136.4583" x="835.4167" y="292.2445"/><ellipse cx="850" cy="307.9386" fill="#008400" rx="10.4167" ry="10.4167" style="stroke:#239C23;stroke-width:1.0416666666666667;"/><path d="M847.404,305.1005 L847.404,303.5136 L852.83,303.5136 L852.83,305.1005 L851.0173,305.1005 L851.0173,311.0392 L852.83,311.0392 L852.83,312.6261 L847.404,312.6261 L847.404,311.0392 L849.2167,311.0392 L849.2167,305.1005 Z " fill="#000000"/><text fill="#D8BC00" font-family="Open Sans,Avenir,Nunito,Arial,Helvetica,SansSerif" font-size="12.5" font-style="italic" font-weight="bold" lengthAdjust="spacing" textLength="53.125" x="866.6667" y="312.6628">Supplier</text><rect fill="#333333" height="23.055" style="stroke:#A0A0A0;stroke-width:1.0416666666666667;stroke-dasharray:2.0,2.0;" width="43.75" x="931.25" y="289.1195"/><text fill="#A0A0A0" font-family="Open Sans,Avenir,Nunito,Arial,Helvetica,SansSerif" font-size="12.5" font-weight="bold" lengthAdjust="spacing" textLength="35.4167" x="935.4167" y="305.3711">Value</text><line style="stroke:#5E5E5E;stroke-width:1.0416666666666667;" x1="836.4583" x2="970.8333" y1="323.6328" y2="323.6328"/><line style="stroke:#5E5E5E;stroke-width:1.0416666666666667;" x1="836.4583" x2="970.8333" y1="331.9661" y2="331.9661"/><!--MD5=[885e969721cc5a3f2aedd0cecec9d972]
class ComponentSupplier--><rect codeLine="58" fill="#282828" height="48.055" id="ComponentSupplier" rx="8.3333" ry="8.3333" style="stroke:#5E5E5E;stroke-width:1.0416666666666667;" width="212.5" x="757.8125" y="420.3695"/><rect fill="#1B1B1A" height="31.3883" rx="8.3333" ry="8.3333" style="stroke:#1B1B1A;stroke-width:1.0416666666666667;" width="212.5" x="757.8125" y="420.3695"/><rect fill="#1B1B1A" height="8.3333" style="stroke:#1B1B1A;stroke-width:1.0416666666666667;" width="212.5" x="757.8125" y="443.4245"/><rect codeLine="58" fill="none" height="48.055" id="ComponentSupplier" rx="8.3333" ry="8.3333" style="stroke:#5E5E5E;stroke-width:1.0416666666666667;" width="212.5" x="757.8125" y="420.3695"/><ellipse cx="772.3958" cy="436.0636" fill="#008400" rx="10.4167" ry="10.4167" style="stroke:#239C23;stroke-width:1.0416666666666667;"/><path d="M769.7998,433.2255 L769.7998,431.6386 L775.2258,431.6386 L775.2258,433.2255 L773.4131,433.2255 L773.4131,439.1642 L775.2258,439.1642 L775.2258,440.7511 L769.7998,440.7511 L769.7998,439.1642 L771.6125,439.1642 L771.6125,433.2255 Z " fill="#000000"/><text fill="#D8BC00" font-family="Open Sans,Avenir,Nunito,Arial,Helvetica,SansSerif" font-size="12.5" font-style="italic" font-weight="bold" lengthAdjust="spacing" textLength="129.1667" x="789.0625" y="440.7878">ComponentSupplier</text><rect fill="#333333" height="23.055" style="stroke:#A0A0A0;stroke-width:1.0416666666666667;stroke-dasharray:2.0,2.0;" width="43.75" x="929.6875" y="417.2445"/><text fill="#A0A0A0" font-family="Open Sans,Avenir,Nunito,Arial,Helvetica,SansSerif" font-size="12.5" font-weight="bold" lengthAdjust="spacing" textLength="35.4167" x="933.8542" y="433.4961">Value</text><line style="stroke:#5E5E5E;stroke-width:1.0416666666666667;" x1="758.8542" x2="969.2708" y1="451.7578" y2="451.7578"/><line style="stroke:#5E5E5E;stroke-width:1.0416666666666667;" x1="758.8542" x2="969.2708" y1="460.0911" y2="460.0911"/><!--MD5=[56a06dcacdd0977d8e508d929b074a7d]
reverse link BaseRepeater to BaseComponent--><path codeLine="10" d="M219.2708,233.0986 C219.2708,246.4945 219.2708,261.1611 219.2708,274.3382 " fill="none" id="BaseRepeater-backto-BaseComponent" style="stroke:#545454;stroke-width:1.5625;"/><polygon fill="none" points="211.9792,233.0674,219.2708,212.234,226.5625,233.0674,211.9792,233.0674" style="stroke:#545454;stroke-width:1.5625;"/><!--MD5=[5138e1726e9722808680e9cc81e45b35]
reverse link Component to BaseComponent--><path codeLine="11" d="M407.5729,221.3903 C375.1042,237.5674 335.4583,257.307 300.9271,274.4945 " fill="none" id="Component-backto-BaseComponent" style="stroke:#545454;stroke-width:1.5625;"/><polygon fill="none" points="404.3646,214.8486,426.2604,212.0882,410.8646,227.9007,404.3646,214.8486" style="stroke:#545454;stroke-width:1.5625;"/><!--MD5=[ed0b01190b9ed1e95b54b2ec8146a95f]
reverse link Repeater to Component--><path codeLine="24" d="M629.1042,110.8799 C593.9479,127.9632 551.5417,148.5674 519.7188,164.0361 " fill="none" id="Repeater-backto-Component" style="stroke:#545454;stroke-width:1.5625;"/><polygon fill="none" points="626.3854,104.0882,648.3125,101.5465,632.7604,117.2132,626.3854,104.0882" style="stroke:#545454;stroke-width:1.5625;"/><!--MD5=[6e86638afbdf70f7743c30ac2a93a9f4]
reverse link RegistryTrait to Component--><path codeLine="25" d="M522.4167,118.5882 C511.2083,133.9215 498.8125,150.8903 489.1563,164.0986 " fill="none" id="RegistryTrait-backto-Component" style="stroke:#545454;stroke-width:1.5625;"/><polygon fill="none" points="516.5938,114.1924,534.7708,101.682,528.3646,122.7965,516.5938,114.1924" style="stroke:#545454;stroke-width:1.5625;"/><!--MD5=[5618039fb34505a3fb21be711b147444]
reverse link SettingsTrait to Component--><path codeLine="26" d="M758.4479,102.5257 C689.1146,123.0049 590.8438,152.0361 529.4063,170.1924 " fill="none" id="SettingsTrait-backto-Component" style="stroke:#545454;stroke-width:1.5625;"/><polygon fill="none" points="756.4688,95.5049,778.5104,96.5882,760.6042,109.484,756.4688,95.5049" style="stroke:#545454;stroke-width:1.5625;"/><!--MD5=[15ad1425a1adef1aff647cec86af4c89]
reverse link LanguageTrait to Component--><path codeLine="27" d="M158.2188,102.2757 C259.5417,129.8486 356.0104,155.807 415.4583,171.7653 " fill="none" id="LanguageTrait-backto-Component" style="stroke:#545454;stroke-width:1.5625;"/><polygon fill="none" points="156.0833,109.2549,137.8958,96.7445,159.9063,95.182,156.0833,109.2549" style="stroke:#545454;stroke-width:1.5625;"/><!--MD5=[e7b7fe81cb28ff42cdd31104ead0b64b]
reverse link PackageTrait to Component--><path codeLine="28" d="M423.0417,118.5882 C434.0938,133.9215 446.3229,150.8903 455.8542,164.0986 " fill="none" id="PackageTrait-backto-Component" style="stroke:#545454;stroke-width:1.5625;"/><polygon fill="none" points="417.1146,122.8382,410.8438,101.682,428.9375,114.307,417.1146,122.8382" style="stroke:#545454;stroke-width:1.5625;"/><!--MD5=[3d2605e5417b832be85d80f8bad94bb9]
reverse link NamedObject to Component--><path codeLine="29" d="M305.4167,110.5361 C342.9063,127.7132 388.3229,148.5153 422.3229,164.0986 " fill="none" id="NamedObject-backto-Component" style="stroke:#545454;stroke-width:1.5625;"/><polygon fill="none" points="301.9896,116.984,286.0833,101.682,308.0625,103.7236,301.9896,116.984" style="stroke:#545454;stroke-width:1.5625;"/><!--MD5=[345ab035f766fa34e1d9b13d64adf740]
reverse link ComponentMixin to ComponentFunction--><path codeLine="36" d="M648.0729,364.7236 C627.4688,383.7549 604.6771,404.807 587.875,420.3278 " fill="none" id="ComponentMixin-backto-ComponentFunction" style="stroke:#545454;stroke-width:1.5625;"/><polygon fill="none" points="643.375,359.1403,663.625,350.359,653.2708,369.8486,643.375,359.1403" style="stroke:#545454;stroke-width:1.5625;"/><!--MD5=[4677fdceb526741c86debfc7e53e7fc9]
reverse link Function to ComponentFunction--><path codeLine="37" d="M510.3438,358.307 C523.1042,378.8799 538.0729,403.0257 548.7813,420.3174 " fill="none" id="Function-backto-ComponentFunction" style="stroke:#545454;stroke-width:1.5625;"/><polygon fill="none" points="504,361.9111,499.2292,340.359,516.3958,354.2236,504,361.9111" style="stroke:#545454;stroke-width:1.5625;"/><!--MD5=[14aa37badfa087ea7c6ab95a853539f9]
reverse link Component to ComponentMixin--><path codeLine="45" d="M532.3229,222.3799 C565.5833,240.8382 606.8021,263.7236 639.9896,282.1403 " fill="none" id="Component-backto-ComponentMixin" style="stroke:#545454;stroke-width:1.5625;"/><polygon fill="none" points="528.4583,228.5778,513.7813,212.0882,535.5417,215.8278,528.4583,228.5778" style="stroke:#545454;stroke-width:1.5625;"/><!--MD5=[d83e488207a3771bcec22902623684fb]
reverse link Mixin to ComponentMixin--><path codeLine="46" d="M653.3125,230.5257 C662.4688,247.307 672.8854,266.4111 681.5104,282.2236 " fill="none" id="Mixin-backto-ComponentMixin" style="stroke:#545454;stroke-width:1.5625;"/><polygon fill="none" points="646.9167,234.0153,643.3438,212.234,659.7188,227.0361,646.9167,234.0153" style="stroke:#545454;stroke-width:1.5625;"/><!--MD5=[c29e8aef7bef827eaf782556ceeed6bb]
reverse link RepeaterMixin to ComponentMixin--><path codeLine="47" d="M745.6458,230.5257 C736.4896,247.307 726.0729,266.4111 717.4479,282.2236 " fill="none" id="RepeaterMixin-backto-ComponentMixin" style="stroke:#545454;stroke-width:1.5625;"/><polygon fill="none" points="739.2396,227.0361,755.6146,212.234,752.0417,234.0153,739.2396,227.0361" style="stroke:#545454;stroke-width:1.5625;"/><!--MD5=[d944f7afa25b16afc9d68505df8acfc6]
reverse link ComponentMixin to ComponentSupplier--><path codeLine="56" d="M759.2813,363.0361 C784.6979,382.5049 813.2188,404.3486 834.0833,420.3278 " fill="none" id="ComponentMixin-backto-ComponentSupplier" style="stroke:#545454;stroke-width:1.5625;"/><polygon fill="none" points="754.8333,368.8174,742.7188,350.359,763.6979,357.234,754.8333,368.8174" style="stroke:#545454;stroke-width:1.5625;"/><!--MD5=[c96596e14b57c755dd521f63a6c4d08c]
reverse link Supplier to ComponentSupplier--><path codeLine="57" d="M890.0521,360.5361 C883.75,380.609 876.5104,403.6507 871.2813,420.3174 " fill="none" id="Supplier-backto-ComponentSupplier" style="stroke:#545454;stroke-width:1.5625;"/><polygon fill="none" points="883.1875,358.057,896.3854,340.359,897.1042,362.4215,883.1875,358.057" style="stroke:#545454;stroke-width:1.5625;"/><!--MD5=[3dbcc37d08707bbc091eb5c9a90cc0b7]
@startuml

    !include lexakai.theme
    
    title "com.telenav.kivakit.component"
    
    abstract BaseRepeater
    
    interface Component
    
    BaseRepeater <|- - BaseComponent
    Component <|- - BaseComponent
    class BaseComponent
    {
        - -(messaging)- -
        +void onMessage(Consumer<Message> handler)
    }
    
    interface LanguageTrait
    interface NamedObject
    interface PackageTrait
    interface RegistryTrait
    interface Repeater
    interface SettingsTrait
    Repeater <|- - Component
    RegistryTrait <|- - Component
    SettingsTrait <|- - Component
    LanguageTrait <|- - Component
    PackageTrait <|- - Component
    NamedObject <|- - Component
    interface Component
    {
    }
    
    interface ComponentMixin
    interface Function<From,To>
    ComponentMixin <|- - ComponentFunction
    Function <|- - ComponentFunction
    interface ComponentFunction<From, To>
    {
    }
    
    interface Component
    interface Mixin
    interface RepeaterMixin
    Component <|- - ComponentMixin
    Mixin <|- - ComponentMixin
    RepeaterMixin <|- - ComponentMixin
    interface ComponentMixin
    {
        - -
        +BaseComponent component()
    }
    
    interface ComponentMixin
    interface Supplier<Value>
    ComponentMixin <|- - ComponentSupplier
    Supplier <|- - ComponentSupplier
    interface ComponentSupplier<Value>
    {
    }
    
@enduml

@startuml









skinparam backgroundColor #333333






skinparam  {
    defaultFontName   "Open Sans,Avenir,Nunito,Arial,Helvetica,SansSerif"
    defaultFontSize   12
    defaultTextAlignment left
    shadowing false
    RoundCorner 10
    TitleFontSize 18
}

skinparam defaultFontName       "Open Sans,Avenir,Nunito,Arial,Helvetica,SansSerif"
skinparam defaultFontSize       12
skinparam dpi                   100
skinparam shadowing             false
skinparam roundcorner           16
skinparam ParticipantPadding    40
skinparam BoxPadding            40
skinparam Padding               3
skinparam ArrowColor            #545454
skinparam stereotype {
    CBackgroundColor #0066cf
    CBorderColor #0086ef
    ABackgroundColor #C8Ac00
    ABorderColor #D8Bc00
    IBackgroundColor #008400
    IBorderColor #239c23
    EBackgroundColor #cf6300
    EBorderColor #ef8300
    NBackgroundColor #3380b9
    NBorderColor #004d86
}
skinparam title {
	FontColor	                 #c0c0c0
 	BorderColor                  #545454
	FontSize	    	         20
	BorderRoundCorner            16
	BorderThickness 	         1
	BackgroundColor              #48494b
}


skinparam legend {
	BackgroundColor #303030
	BorderColor #404040
	FontColor #a0a0a0
}

	skinparam swimlane {
	BorderColor #5e5e5e
	BorderThickness 2
	TitleBackgroundColor  #6d6d6d-#484848
	TitleFontColor #303030
}

skinparam activity {
		FontColor #C8Ac00
	BorderColor #333333
	BackgroundColor #333333-#333333
	BarColor #00FF00
	StartColor #0060a8
	EndColor #0060a8
	DiamondBackgroundColor #6d6d6d-#3a3a3a
  	DiamondBorderColor #3a3a3a
  	DiamondFontColor #fefefe
}


skinparam participant {
		FontColor #C8Ac00
	BorderColor #333333
	BackgroundColor #333333-#333333
	ParticipantBorderThickness 2
}


skinparam actor {
		FontColor #C8Ac00
	BorderColor #333333
	BackgroundColor #333333-#333333
}


skinparam arrow {
	Thickness 1.5
	Color #545454
	FontColor #a0a0a0
    FontStyle bold
    MessageAlignment center
}



skinparam sequence {
	BorderColor #303030
	TitleFontColor #303030
	BackgroundColor #333333
	StartColor #303030
	EndColor #303030
	BoxBackgroundColor #333333
	BoxBorderColor #484848
	BoxFontColor #484848
	LifeLineBorderColor #484848
	LifeLineBorderThickness 2
	LifeLineBackgroundColor #3a3a3a
	GroupBorderColor #484848
	GroupFontColor #484848
	GroupHeaderFontColor #0060a8
	GroupBackgroundColor #484848
	GroupHeaderBackgroundColor #333333
	DividerBackgroundColor #484848
    DividerBorderColor #484848
    DividerBorderThickness 2
    DividerFontColor #D8Bc00
	ReferenceBackgroundColor #333333
	ReferenceBorderColor #484848
	ReferenceFontColor #fefefe
	ReferenceHeaderBackgroundColor #484848
}


skinparam partition {
	BorderColor #303030
	FontColor #333333
	BackgroundColor #333333
}


skinparam collections {
		FontColor #C8Ac00
	BorderColor #333333
	BackgroundColor #333333-#333333
}


skinparam control {
		FontColor #C8Ac00
	BorderColor #333333
	BackgroundColor #333333-#333333
}


skinparam entity {
		FontColor #C8Ac00
	BorderColor #333333
	BackgroundColor #333333-#333333
}


skinparam boundary {
		FontColor #C8Ac00
	BorderColor #333333
	BackgroundColor #333333-#333333
}


skinparam agent {
	BackgroundColor #ff8000
	BorderColor #ff9933
	FontColor #484848
}


skinparam note {
	BorderThickness 1
	BackgroundColor #1b1b1a
	BorderColor #5e5e5e
	FontSize 11
	FontColor #a0a0a0
}


skinparam artifact {
	BorderThickness 10
	BorderColor #5e5e5e
	BackgroundColor #1b1b1a
	FontColor #D8Bc00
}


skinparam component {
		FontColor #C8Ac00
	BorderColor #333333
	BackgroundColor #333333-#333333
}


skinparam interface {
	BackgroundColor  #008400
	BorderColor  #007F00
	FontColor #484848
}


skinparam storage {
	BackgroundColor #ff8000
  	BorderColor #cc6600
	FontColor #222222
}


skinparam node {
	BackgroundColor #333333
	BorderColor #333333
	FontColor #C8Ac00
}


skinparam cloud {
	BackgroundColor #484848-black
	BorderColor #484848
	FontColor #D8Bc00
}


skinparam database {
		FontColor #C8Ac00
	BorderColor #333333
	BackgroundColor #333333-#333333
	BackgroundColor  #333333
}


skinparam class {
		FontColor #C8Ac00
	BorderColor #333333
	BackgroundColor #333333-#333333
	HeaderBackgroundColor #1b1b1a
    BackgroundColor #282828
    BorderColor #5e5e5e
 	StereotypeFontColor #a0a0a0
    StereotypeFontStyle bold
	BorderThickness 1
	AttributeFontColor #D8Bc00
	AttributeFontSize 11
    FontColor #D8Bc00
    FontStyle bold
}


skinparam object {
		FontColor #C8Ac00
	BorderColor #333333
	BackgroundColor #333333-#333333
	StereotypeFontColor #484848
	BorderThickness 1
	AttributeFontColor #fefefe
	AttributeFontSize 11
}


skinparam usecase {
		FontColor #C8Ac00
	BorderColor #333333
	BackgroundColor #333333-#333333
	BorderThickness 2
	StereotypeFontColor #303030
}


skinparam rectangle {
		FontColor #C8Ac00
	BorderColor #333333
	BackgroundColor #333333-#333333
	BackgroundColor #333333
	BorderThickness 2
	StereotypeFontColor #303030
}


skinparam package {
		FontColor #C8Ac00
	BorderColor #333333
	BackgroundColor #333333-#333333
	BackgroundColor #333333
	BorderThickness 2
}


skinparam folder {
	BackgroundColor #6d6d6d
  	BorderColor #ff8000
	FontColor #ff8000
	BorderThickness 2
}


skinparam frame {
	BackgroundColor #6d6d6d
  	BorderColor #0060a8
	FontColor #0060a8
	BorderThickness 2
}


skinparam state {
		FontColor #C8Ac00
	BorderColor #333333
	BackgroundColor #333333-#333333
	StartColor #0060a8
	EndColor #0060a8
	AttributeFontColor #fefefe
	AttributeFontSize 11
}


skinparam queue {
		FontColor #C8Ac00
	BorderColor #333333
	BackgroundColor #333333-#333333
}


skinparam card {
	BackgroundColor #0060a8
	BorderColor #004d86
	FontColor $INFO_TEXT
}


skinparam file {
	BackgroundColor #6d6d6d-#484848
	BorderColor #0060a8
	FontColor #fefefe
}


skinparam stack {
		FontColor #C8Ac00
	BorderColor #333333
	BackgroundColor #333333-#333333
}

    
    title "com.telenav.kivakit.component"
    
    abstract BaseRepeater
    
    interface Component
    
    BaseRepeater <|- - BaseComponent
    Component <|- - BaseComponent
    class BaseComponent
    {
        - -(messaging)- -
        +void onMessage(Consumer<Message> handler)
    }
    
    interface LanguageTrait
    interface NamedObject
    interface PackageTrait
    interface RegistryTrait
    interface Repeater
    interface SettingsTrait
    Repeater <|- - Component
    RegistryTrait <|- - Component
    SettingsTrait <|- - Component
    LanguageTrait <|- - Component
    PackageTrait <|- - Component
    NamedObject <|- - Component
    interface Component
    {
    }
    
    interface ComponentMixin
    interface Function<From,To>
    ComponentMixin <|- - ComponentFunction
    Function <|- - ComponentFunction
    interface ComponentFunction<From, To>
    {
    }
    
    interface Component
    interface Mixin
    interface RepeaterMixin
    Component <|- - ComponentMixin
    Mixin <|- - ComponentMixin
    RepeaterMixin <|- - ComponentMixin
    interface ComponentMixin
    {
        - -
        +BaseComponent component()
    }
    
    interface ComponentMixin
    interface Supplier<Value>
    ComponentMixin <|- - ComponentSupplier
    Supplier <|- - ComponentSupplier
    interface ComponentSupplier<Value>
    {
    }
    
@enduml

PlantUML version 1.2021.01(Tue Feb 02 00:55:08 MST 2021)
(GPL source distribution)
Java Runtime: OpenJDK Runtime Environment
JVM: OpenJDK 64-Bit Server VM
Default Encoding: UTF-8
Language: en
Country: US
--></g></svg>