<?xml version="1.0" encoding="UTF-8" standalone="no"?><svg xmlns="http://www.w3.org/2000/svg" xmlns:xlink="http://www.w3.org/1999/xlink" contentScriptType="application/ecmascript" contentStyleType="text/css" height="508.3333px" preserveAspectRatio="none" style="width:465px;height:508px;background:#333333;" version="1.1" viewBox="0 0 465 508" width="465.625px" zoomAndPan="magnify"><defs/><g><rect fill="#48494B" height="41.2028" rx="8.3333" ry="8.3333" style="stroke:#545454;stroke-width:1.0416666666666667;" width="141.6667" x="154.6875" y="2.0833"/><text fill="#C0C0C0" font-family="Open Sans,Avenir,Nunito,Arial,Helvetica,SansSerif" font-size="20.8333" lengthAdjust="spacing" textLength="118.75" x="166.1458" y="30.5583">diagram-os</text><rect codeLine="7" fill="#282828" height="48.055" id="Named" rx="8.3333" ry="8.3333" style="stroke:#5E5E5E;stroke-width:1.0416666666666667;" width="82.2917" x="108.8542" y="53.7028"/><rect fill="#1B1B1A" height="31.3883" rx="8.3333" ry="8.3333" style="stroke:#1B1B1A;stroke-width:1.0416666666666667;" width="82.2917" x="108.8542" y="53.7028"/><rect fill="#1B1B1A" height="8.3333" style="stroke:#1B1B1A;stroke-width:1.0416666666666667;" width="82.2917" x="108.8542" y="76.7578"/><rect codeLine="7" fill="none" height="48.055" id="Named" rx="8.3333" ry="8.3333" style="stroke:#5E5E5E;stroke-width:1.0416666666666667;" width="82.2917" x="108.8542" y="53.7028"/><ellipse cx="123.4375" cy="69.397" fill="#008400" rx="10.4167" ry="10.4167" style="stroke:#239C23;stroke-width:1.0416666666666667;"/><path d="M120.8415,66.5588 L120.8415,64.9719 L126.2675,64.9719 L126.2675,66.5588 L124.4548,66.5588 L124.4548,72.4976 L126.2675,72.4976 L126.2675,74.0845 L120.8415,74.0845 L120.8415,72.4976 L122.6542,72.4976 L122.6542,66.5588 Z " fill="#000000"/><text fill="#D8BC00" font-family="Open Sans,Avenir,Nunito,Arial,Helvetica,SansSerif" font-size="12.5" font-style="italic" font-weight="bold" lengthAdjust="spacing" textLength="44.7917" x="140.1042" y="74.1211">Named</text><line style="stroke:#5E5E5E;stroke-width:1.0416666666666667;" x1="109.8958" x2="190.1042" y1="85.0911" y2="85.0911"/><line style="stroke:#5E5E5E;stroke-width:1.0416666666666667;" x1="109.8958" x2="190.1042" y1="93.4245" y2="93.4245"/><rect codeLine="8" fill="#282828" height="48.055" id="Listener" rx="8.3333" ry="8.3333" style="stroke:#5E5E5E;stroke-width:1.0416666666666667;" width="89.5833" x="348.9583" y="53.7028"/><rect fill="#1B1B1A" height="31.3883" rx="8.3333" ry="8.3333" style="stroke:#1B1B1A;stroke-width:1.0416666666666667;" width="89.5833" x="348.9583" y="53.7028"/><rect fill="#1B1B1A" height="8.3333" style="stroke:#1B1B1A;stroke-width:1.0416666666666667;" width="89.5833" x="348.9583" y="76.7578"/><rect codeLine="8" fill="none" height="48.055" id="Listener" rx="8.3333" ry="8.3333" style="stroke:#5E5E5E;stroke-width:1.0416666666666667;" width="89.5833" x="348.9583" y="53.7028"/><ellipse cx="363.5417" cy="69.397" fill="#008400" rx="10.4167" ry="10.4167" style="stroke:#239C23;stroke-width:1.0416666666666667;"/><path d="M360.9456,66.5588 L360.9456,64.9719 L366.3717,64.9719 L366.3717,66.5588 L364.5589,66.5588 L364.5589,72.4976 L366.3717,72.4976 L366.3717,74.0845 L360.9456,74.0845 L360.9456,72.4976 L362.7584,72.4976 L362.7584,66.5588 Z " fill="#000000"/><text fill="#D8BC00" font-family="Open Sans,Avenir,Nunito,Arial,Helvetica,SansSerif" font-size="12.5" font-style="italic" font-weight="bold" lengthAdjust="spacing" textLength="52.0833" x="380.2083" y="74.1211">Listener</text><line style="stroke:#5E5E5E;stroke-width:1.0416666666666667;" x1="350" x2="437.5" y1="85.0911" y2="85.0911"/><line style="stroke:#5E5E5E;stroke-width:1.0416666666666667;" x1="350" x2="437.5" y1="93.4245" y2="93.4245"/><rect codeLine="11" fill="#282828" height="48.055" id="ConsoleWriter" rx="8.3333" ry="8.3333" style="stroke:#5E5E5E;stroke-width:1.0416666666666667;" width="129.1667" x="329.1667" y="308.9111"/><rect fill="#1B1B1A" height="31.3883" rx="8.3333" ry="8.3333" style="stroke:#1B1B1A;stroke-width:1.0416666666666667;" width="129.1667" x="329.1667" y="308.9111"/><rect fill="#1B1B1A" height="8.3333" style="stroke:#1B1B1A;stroke-width:1.0416666666666667;" width="129.1667" x="329.1667" y="331.9661"/><rect codeLine="11" fill="none" height="48.055" id="ConsoleWriter" rx="8.3333" ry="8.3333" style="stroke:#5E5E5E;stroke-width:1.0416666666666667;" width="129.1667" x="329.1667" y="308.9111"/><ellipse cx="343.75" cy="324.6053" fill="#0066CF" rx="10.4167" ry="10.4167" style="stroke:#0086EF;stroke-width:1.0416666666666667;"/><path d="M345.6604,329.0304 Q345.2332,329.2501 344.7632,329.3599 Q344.2932,329.4698 343.7744,329.4698 Q341.9312,329.4698 340.9607,328.2552 Q339.9902,327.0406 339.9902,324.7457 Q339.9902,322.4447 340.9607,321.2301 Q341.9312,320.0155 343.7744,320.0155 Q344.2932,320.0155 344.7693,320.1253 Q345.2454,320.2352 345.6604,320.4549 L345.6604,322.4569 Q345.1965,322.0296 344.7601,321.8313 Q344.3237,321.6329 343.8599,321.6329 Q342.8711,321.6329 342.3676,322.4172 Q341.864,323.2015 341.864,324.7457 Q341.864,326.2838 342.3676,327.0681 Q342.8711,327.8524 343.8599,327.8524 Q344.3237,327.8524 344.7601,327.654 Q345.1965,327.4556 345.6604,327.0284 Z " fill="#000000"/><text fill="#D8BC00" font-family="Open Sans,Avenir,Nunito,Arial,Helvetica,SansSerif" font-size="12.5" font-weight="bold" lengthAdjust="spacing" textLength="91.6667" x="360.4167" y="329.3294">ConsoleWriter</text><line style="stroke:#5E5E5E;stroke-width:1.0416666666666667;" x1="330.2083" x2="457.2917" y1="340.2995" y2="340.2995"/><line style="stroke:#5E5E5E;stroke-width:1.0416666666666667;" x1="330.2083" x2="457.2917" y1="348.6328" y2="348.6328"/><rect codeLine="16" fill="#282828" height="336.9832" id="OperatingSystem" rx="8.3333" ry="8.3333" style="stroke:#5E5E5E;stroke-width:1.0416666666666667;" width="285.4167" x="7.2917" y="164.1195"/><rect fill="#1B1B1A" height="31.3883" rx="8.3333" ry="8.3333" style="stroke:#1B1B1A;stroke-width:1.0416666666666667;" width="285.4167" x="7.2917" y="164.1195"/><rect fill="#1B1B1A" height="8.3333" style="stroke:#1B1B1A;stroke-width:1.0416666666666667;" width="285.4167" x="7.2917" y="187.1745"/><rect codeLine="16" fill="none" height="336.9832" id="OperatingSystem" rx="8.3333" ry="8.3333" style="stroke:#5E5E5E;stroke-width:1.0416666666666667;" width="285.4167" x="7.2917" y="164.1195"/><ellipse cx="86.9792" cy="179.8136" fill="#0066CF" rx="10.4167" ry="10.4167" style="stroke:#0086EF;stroke-width:1.0416666666666667;"/><path d="M88.8896,184.2387 Q88.4623,184.4584 87.9924,184.5683 Q87.5224,184.6781 87.0036,184.6781 Q85.1603,184.6781 84.1899,183.4635 Q83.2194,182.2489 83.2194,179.954 Q83.2194,177.653 84.1899,176.4384 Q85.1603,175.2238 87.0036,175.2238 Q87.5224,175.2238 87.9985,175.3337 Q88.4745,175.4435 88.8896,175.6632 L88.8896,177.6652 Q88.4257,177.238 87.9893,177.0396 Q87.5529,176.8412 87.089,176.8412 Q86.1003,176.8412 85.5967,177.6255 Q85.0932,178.4098 85.0932,179.954 Q85.0932,181.4921 85.5967,182.2764 Q86.1003,183.0607 87.089,183.0607 Q87.5529,183.0607 87.9893,182.8623 Q88.4257,182.664 88.8896,182.2367 Z " fill="#000000"/><text fill="#D8BC00" font-family="Open Sans,Avenir,Nunito,Arial,Helvetica,SansSerif" font-size="12.5" font-weight="bold" lengthAdjust="spacing" textLength="111.4583" x="109.8958" y="184.5378">OperatingSystem</text><line style="stroke:#5E5E5E;stroke-width:1.5625;" x1="8.3333" x2="291.6667" y1="195.5078" y2="195.5078"/><line style="stroke:#5E5E5E;stroke-width:1.0416666666666667;" x1="8.3333" x2="291.6667" y1="203.8411" y2="203.8411"/><ellipse cx="18.75" cy="215.2995" fill="#84BE84" rx="3.125" ry="3.125" style="stroke:#038048;stroke-width:1.0416666666666667;"/><text fill="#D8BC00" font-family="Open Sans,Avenir,Nunito,Arial,Helvetica,SansSerif" font-size="11.4583" lengthAdjust="spacing" textLength="233.3333" x="30.2083" y="222.2107">String exec(File folder, String... command)</text><ellipse cx="18.75" cy="235.0444" fill="#84BE84" rx="3.125" ry="3.125" style="stroke:#038048;stroke-width:1.0416666666666667;"/><text fill="#D8BC00" font-family="Open Sans,Avenir,Nunito,Arial,Helvetica,SansSerif" font-size="11.4583" lengthAdjust="spacing" textLength="125" x="30.2083" y="241.9556">OperatingSystem get()</text><ellipse cx="18.75" cy="254.7892" fill="#84BE84" rx="3.125" ry="3.125" style="stroke:#038048;stroke-width:1.0416666666666667;"/><text fill="#D8BC00" font-family="Open Sans,Avenir,Nunito,Arial,Helvetica,SansSerif" font-size="11.4583" lengthAdjust="spacing" textLength="66.6667" x="30.2083" y="261.7004">String java()</text><ellipse cx="18.75" cy="274.5341" fill="#84BE84" rx="3.125" ry="3.125" style="stroke:#038048;stroke-width:1.0416666666666667;"/><text fill="#D8BC00" font-family="Open Sans,Avenir,Nunito,Arial,Helvetica,SansSerif" font-size="11.4583" lengthAdjust="spacing" textLength="98.9583" x="30.2083" y="281.4453">String javaHome()</text><ellipse cx="18.75" cy="294.279" fill="#84BE84" rx="3.125" ry="3.125" style="stroke:#038048;stroke-width:1.0416666666666667;"/><text fill="#D8BC00" font-family="Open Sans,Avenir,Nunito,Arial,Helvetica,SansSerif" font-size="11.4583" lengthAdjust="spacing" textLength="102.0833" x="30.2083" y="301.1902">String processor()</text><ellipse cx="18.75" cy="314.0238" fill="#84BE84" rx="3.125" ry="3.125" style="stroke:#038048;stroke-width:1.0416666666666667;"/><text fill="#D8BC00" font-family="Open Sans,Avenir,Nunito,Arial,Helvetica,SansSerif" font-size="11.4583" lengthAdjust="spacing" textLength="173.9583" x="30.2083" y="320.9351">String property(String variable)</text><ellipse cx="18.75" cy="357.6803" fill="#84BE84" rx="3.125" ry="3.125" style="stroke:#038048;stroke-width:1.0416666666666667;"/><text fill="#D8BC00" font-family="Open Sans,Avenir,Nunito,Arial,Helvetica,SansSerif" font-size="11.4583" lengthAdjust="spacing" textLength="87.5" x="30.2083" y="364.5915">boolean isMac()</text><ellipse cx="18.75" cy="377.4251" fill="#84BE84" rx="3.125" ry="3.125" style="stroke:#038048;stroke-width:1.0416666666666667;"/><text fill="#D8BC00" font-family="Open Sans,Avenir,Nunito,Arial,Helvetica,SansSerif" font-size="11.4583" lengthAdjust="spacing" textLength="91.6667" x="30.2083" y="384.3363">boolean isUnix()</text><ellipse cx="18.75" cy="397.17" fill="#84BE84" rx="3.125" ry="3.125" style="stroke:#038048;stroke-width:1.0416666666666667;"/><text fill="#D8BC00" font-family="Open Sans,Avenir,Nunito,Arial,Helvetica,SansSerif" font-size="11.4583" lengthAdjust="spacing" textLength="114.5833" x="30.2083" y="404.0812">boolean isWindows()</text><line style="stroke:#5E5E5E;stroke-width:1.0416666666666667;" x1="8.3333" x2="123.4375" y1="340.5162" y2="340.5162"/><text fill="#D8BC00" font-family="Open Sans,Avenir,Nunito,Arial,Helvetica,SansSerif" font-size="11.4583" lengthAdjust="spacing" textLength="46.875" x="126.5625" y="344.3258">(checks)</text><line style="stroke:#5E5E5E;stroke-width:1.0416666666666667;" x1="176.5625" x2="291.6667" y1="340.5162" y2="340.5162"/><ellipse cx="18.75" cy="440.8264" fill="#84BE84" rx="3.125" ry="3.125" style="stroke:#038048;stroke-width:1.0416666666666667;"/><text fill="#D8BC00" font-family="Open Sans,Avenir,Nunito,Arial,Helvetica,SansSerif" font-size="11.4583" lengthAdjust="spacing" textLength="253.125" x="30.2083" y="447.7376">VariableMap&lt;String&gt; environmentVariables()</text><line style="stroke:#5E5E5E;stroke-width:1.0416666666666667;" x1="8.3333" x2="115.625" y1="423.6623" y2="423.6623"/><text fill="#D8BC00" font-family="Open Sans,Avenir,Nunito,Arial,Helvetica,SansSerif" font-size="11.4583" lengthAdjust="spacing" textLength="62.5" x="118.75" y="427.4719">(collection)</text><line style="stroke:#5E5E5E;stroke-width:1.0416666666666667;" x1="184.375" x2="291.6667" y1="423.6623" y2="423.6623"/><ellipse cx="18.75" cy="484.4828" fill="#84BE84" rx="3.125" ry="3.125" style="stroke:#038048;stroke-width:1.0416666666666667;"/><text fill="#D8BC00" font-family="Open Sans,Avenir,Nunito,Arial,Helvetica,SansSerif" font-size="11.4583" lengthAdjust="spacing" textLength="120.8333" x="30.2083" y="491.394">int processIdentifier()</text><line style="stroke:#5E5E5E;stroke-width:1.0416666666666667;" x1="8.3333" x2="121.875" y1="467.3187" y2="467.3187"/><text fill="#D8BC00" font-family="Open Sans,Avenir,Nunito,Arial,Helvetica,SansSerif" font-size="11.4583" lengthAdjust="spacing" textLength="50" x="125" y="471.1283">(identity)</text><line style="stroke:#5E5E5E;stroke-width:1.0416666666666667;" x1="178.125" x2="291.6667" y1="467.3187" y2="467.3187"/><path codeLine="10" d="M393.75,123.2236 C393.75,177.4528 393.75,267.0049 393.75,308.8903 " fill="none" id="Listener-backto-ConsoleWriter" style="stroke:#545454;stroke-width:1.5625;"/><polygon fill="none" points="386.4583,122.9007,393.75,102.0674,401.0417,122.9007,386.4583,122.9007" style="stroke:#545454;stroke-width:1.5625;"/><path codeLine="15" d="M150,123.0674 C150,135.2653 150,149.2653 150,164.109 " fill="none" id="Named-backto-OperatingSystem" style="stroke:#545454;stroke-width:1.5625;"/><polygon fill="none" points="142.7083,122.9007,150,102.0674,157.2917,122.9007,142.7083,122.9007" style="stroke:#545454;stroke-width:1.5625;"/></g></svg>
