<?xml version="1.0" encoding="UTF-8" standalone="no"?><svg xmlns="http://www.w3.org/2000/svg" xmlns:xlink="http://www.w3.org/1999/xlink" contentScriptType="application/ecmascript" contentStyleType="text/css" height="254.1667px" preserveAspectRatio="none" style="width:835px;height:254px;background:#333333;" version="1.1" viewBox="0 0 835 254" width="835.4167px" zoomAndPan="magnify"><defs/><g><rect fill="#48494B" height="41.2028" rx="8.3333" ry="8.3333" style="stroke:#545454;stroke-width:1.0416666666666667;" width="500" x="160.6771" y="2.0833"/><text fill="#C0C0C0" font-family="Open Sans,Avenir,Nunito,Arial,Helvetica,SansSerif" font-size="20.8333" lengthAdjust="spacing" textLength="477.0833" x="172.1354" y="30.5583">com.telenav.kivakit.serialization.json.serializers</text><!--MD5=[3a02e24aed122bd624ab5f4d81125687]
class PrimitiveGsonSerializer--><rect fill="#282828" height="48.055" id="PrimitiveGsonSerializer" rx="8.3333" ry="8.3333" style="stroke:#5E5E5E;stroke-width:1.0416666666666667;" width="187.5" x="330.7292" y="53.7028"/><rect fill="#1B1B1A" height="31.3883" rx="8.3333" ry="8.3333" style="stroke:#1B1B1A;stroke-width:1.0416666666666667;" width="187.5" x="330.7292" y="53.7028"/><rect fill="#1B1B1A" height="8.3333" style="stroke:#1B1B1A;stroke-width:1.0416666666666667;" width="187.5" x="330.7292" y="76.7578"/><rect fill="none" height="48.055" id="PrimitiveGsonSerializer" rx="8.3333" ry="8.3333" style="stroke:#5E5E5E;stroke-width:1.0416666666666667;" width="187.5" x="330.7292" y="53.7028"/><ellipse cx="345.3125" cy="69.397" fill="#0066CF" rx="10.4167" ry="10.4167" style="stroke:#0086EF;stroke-width:1.0416666666666667;"/><path d="M347.2229,73.822 Q346.7957,74.0417 346.3257,74.1516 Q345.8557,74.2615 345.3369,74.2615 Q343.4937,74.2615 342.5232,73.0469 Q341.5527,71.8323 341.5527,69.5374 Q341.5527,67.2363 342.5232,66.0217 Q343.4937,64.8071 345.3369,64.8071 Q345.8557,64.8071 346.3318,64.917 Q346.8079,65.0269 347.2229,65.2466 L347.2229,67.2485 Q346.759,66.8213 346.3226,66.6229 Q345.8862,66.4246 345.4224,66.4246 Q344.4336,66.4246 343.9301,67.2089 Q343.4265,67.9932 343.4265,69.5374 Q343.4265,71.0754 343.9301,71.8597 Q344.4336,72.644 345.4224,72.644 Q345.8862,72.644 346.3226,72.4457 Q346.759,72.2473 347.2229,71.8201 Z " fill="#000000"/><text fill="#D8BC00" font-family="Open Sans,Avenir,Nunito,Arial,Helvetica,SansSerif" font-size="12.5" font-weight="bold" lengthAdjust="spacing" textLength="150" x="361.9792" y="74.1211">PrimitiveGsonSerializer</text><line style="stroke:#5E5E5E;stroke-width:1.0416666666666667;" x1="331.7708" x2="517.1875" y1="85.0911" y2="85.0911"/><line style="stroke:#5E5E5E;stroke-width:1.0416666666666667;" x1="331.7708" x2="517.1875" y1="93.4245" y2="93.4245"/><!--MD5=[5d666cca30bb25e702868a8c6093b523]
class CountGsonSerializer--><rect codeLine="7" fill="#282828" height="83.3781" id="CountGsonSerializer" rx="8.3333" ry="8.3333" style="stroke:#5E5E5E;stroke-width:1.0416666666666667;" width="169.7917" x="7.2917" y="164.1195"/><rect fill="#1B1B1A" height="31.3883" rx="8.3333" ry="8.3333" style="stroke:#1B1B1A;stroke-width:1.0416666666666667;" width="169.7917" x="7.2917" y="164.1195"/><rect fill="#1B1B1A" height="8.3333" style="stroke:#1B1B1A;stroke-width:1.0416666666666667;" width="169.7917" x="7.2917" y="187.1745"/><rect codeLine="7" fill="none" height="83.3781" id="CountGsonSerializer" rx="8.3333" ry="8.3333" style="stroke:#5E5E5E;stroke-width:1.0416666666666667;" width="169.7917" x="7.2917" y="164.1195"/><ellipse cx="21.875" cy="179.8136" fill="#0066CF" rx="10.4167" ry="10.4167" style="stroke:#0086EF;stroke-width:1.0416666666666667;"/><path d="M23.7854,184.2387 Q23.3582,184.4584 22.8882,184.5683 Q22.4182,184.6781 21.8994,184.6781 Q20.0562,184.6781 19.0857,183.4635 Q18.1152,182.2489 18.1152,179.954 Q18.1152,177.653 19.0857,176.4384 Q20.0562,175.2238 21.8994,175.2238 Q22.4182,175.2238 22.8943,175.3337 Q23.3704,175.4435 23.7854,175.6632 L23.7854,177.6652 Q23.3215,177.238 22.8851,177.0396 Q22.4487,176.8412 21.9849,176.8412 Q20.9961,176.8412 20.4926,177.6255 Q19.989,178.4098 19.989,179.954 Q19.989,181.4921 20.4926,182.2764 Q20.9961,183.0607 21.9849,183.0607 Q22.4487,183.0607 22.8851,182.8623 Q23.3215,182.664 23.7854,182.2367 Z " fill="#000000"/><text fill="#D8BC00" font-family="Open Sans,Avenir,Nunito,Arial,Helvetica,SansSerif" font-size="12.5" font-weight="bold" lengthAdjust="spacing" textLength="132.2917" x="38.5417" y="184.5378">CountGsonSerializer</text><line style="stroke:#5E5E5E;stroke-width:1.5625;" x1="8.3333" x2="176.0417" y1="195.5078" y2="195.5078"/><ellipse cx="18.75" cy="230.8777" fill="#84BE84" rx="3.125" ry="3.125" style="stroke:#038048;stroke-width:1.0416666666666667;"/><text fill="#D8BC00" font-family="Open Sans,Avenir,Nunito,Arial,Helvetica,SansSerif" font-size="11.4583" lengthAdjust="spacing" textLength="122.9167" x="30.2083" y="237.7889">CountGsonSerializer()</text><line style="stroke:#5E5E5E;stroke-width:1.0416666666666667;" x1="8.3333" x2="48.4375" y1="213.7136" y2="213.7136"/><text fill="#D8BC00" font-family="Open Sans,Avenir,Nunito,Arial,Helvetica,SansSerif" font-size="11.4583" lengthAdjust="spacing" textLength="81.25" x="51.5625" y="217.5232">(constructors)</text><line style="stroke:#5E5E5E;stroke-width:1.0416666666666667;" x1="135.9375" x2="176.0417" y1="213.7136" y2="213.7136"/><!--MD5=[e3a76fc29eabf98471c5af9efc903d71]
class LocalTimeGsonSerializer--><rect codeLine="14" fill="#282828" height="83.3781" id="LocalTimeGsonSerializer" rx="8.3333" ry="8.3333" style="stroke:#5E5E5E;stroke-width:1.0416666666666667;" width="195.8333" x="214.0625" y="164.1195"/><rect fill="#1B1B1A" height="31.3883" rx="8.3333" ry="8.3333" style="stroke:#1B1B1A;stroke-width:1.0416666666666667;" width="195.8333" x="214.0625" y="164.1195"/><rect fill="#1B1B1A" height="8.3333" style="stroke:#1B1B1A;stroke-width:1.0416666666666667;" width="195.8333" x="214.0625" y="187.1745"/><rect codeLine="14" fill="none" height="83.3781" id="LocalTimeGsonSerializer" rx="8.3333" ry="8.3333" style="stroke:#5E5E5E;stroke-width:1.0416666666666667;" width="195.8333" x="214.0625" y="164.1195"/><ellipse cx="228.6458" cy="179.8136" fill="#0066CF" rx="10.4167" ry="10.4167" style="stroke:#0086EF;stroke-width:1.0416666666666667;"/><path d="M230.5562,184.2387 Q230.129,184.4584 229.659,184.5683 Q229.189,184.6781 228.6702,184.6781 Q226.827,184.6781 225.8565,183.4635 Q224.8861,182.2489 224.8861,179.954 Q224.8861,177.653 225.8565,176.4384 Q226.827,175.2238 228.6702,175.2238 Q229.189,175.2238 229.6651,175.3337 Q230.1412,175.4435 230.5562,175.6632 L230.5562,177.6652 Q230.0924,177.238 229.656,177.0396 Q229.2196,176.8412 228.7557,176.8412 Q227.7669,176.8412 227.2634,177.6255 Q226.7598,178.4098 226.7598,179.954 Q226.7598,181.4921 227.2634,182.2764 Q227.7669,183.0607 228.7557,183.0607 Q229.2196,183.0607 229.656,182.8623 Q230.0924,182.664 230.5562,182.2367 Z " fill="#000000"/><text fill="#D8BC00" font-family="Open Sans,Avenir,Nunito,Arial,Helvetica,SansSerif" font-size="12.5" font-weight="bold" lengthAdjust="spacing" textLength="158.3333" x="245.3125" y="184.5378">LocalTimeGsonSerializer</text><line style="stroke:#5E5E5E;stroke-width:1.5625;" x1="215.1042" x2="408.8542" y1="195.5078" y2="195.5078"/><ellipse cx="225.5208" cy="230.8777" fill="#84BE84" rx="3.125" ry="3.125" style="stroke:#038048;stroke-width:1.0416666666666667;"/><text fill="#D8BC00" font-family="Open Sans,Avenir,Nunito,Arial,Helvetica,SansSerif" font-size="11.4583" lengthAdjust="spacing" textLength="144.7917" x="236.9792" y="237.7889">LocalTimeGsonSerializer()</text><line style="stroke:#5E5E5E;stroke-width:1.0416666666666667;" x1="215.1042" x2="268.2292" y1="213.7136" y2="213.7136"/><text fill="#D8BC00" font-family="Open Sans,Avenir,Nunito,Arial,Helvetica,SansSerif" font-size="11.4583" lengthAdjust="spacing" textLength="81.25" x="271.3542" y="217.5232">(constructors)</text><line style="stroke:#5E5E5E;stroke-width:1.0416666666666667;" x1="355.7292" x2="408.8542" y1="213.7136" y2="213.7136"/><!--MD5=[fcdb977b0f33c9032085054939d2a7c0]
class ProblemGsonSerializer--><rect codeLine="21" fill="#282828" height="83.3781" id="ProblemGsonSerializer" rx="8.3333" ry="8.3333" style="stroke:#5E5E5E;stroke-width:1.0416666666666667;" width="183.3333" x="446.3542" y="164.1195"/><rect fill="#1B1B1A" height="31.3883" rx="8.3333" ry="8.3333" style="stroke:#1B1B1A;stroke-width:1.0416666666666667;" width="183.3333" x="446.3542" y="164.1195"/><rect fill="#1B1B1A" height="8.3333" style="stroke:#1B1B1A;stroke-width:1.0416666666666667;" width="183.3333" x="446.3542" y="187.1745"/><rect codeLine="21" fill="none" height="83.3781" id="ProblemGsonSerializer" rx="8.3333" ry="8.3333" style="stroke:#5E5E5E;stroke-width:1.0416666666666667;" width="183.3333" x="446.3542" y="164.1195"/><ellipse cx="460.9375" cy="179.8136" fill="#0066CF" rx="10.4167" ry="10.4167" style="stroke:#0086EF;stroke-width:1.0416666666666667;"/><path d="M462.8479,184.2387 Q462.4207,184.4584 461.9507,184.5683 Q461.4807,184.6781 460.9619,184.6781 Q459.1187,184.6781 458.1482,183.4635 Q457.1777,182.2489 457.1777,179.954 Q457.1777,177.653 458.1482,176.4384 Q459.1187,175.2238 460.9619,175.2238 Q461.4807,175.2238 461.9568,175.3337 Q462.4329,175.4435 462.8479,175.6632 L462.8479,177.6652 Q462.384,177.238 461.9476,177.0396 Q461.5112,176.8412 461.0474,176.8412 Q460.0586,176.8412 459.5551,177.6255 Q459.0515,178.4098 459.0515,179.954 Q459.0515,181.4921 459.5551,182.2764 Q460.0586,183.0607 461.0474,183.0607 Q461.5112,183.0607 461.9476,182.8623 Q462.384,182.664 462.8479,182.2367 Z " fill="#000000"/><text fill="#D8BC00" font-family="Open Sans,Avenir,Nunito,Arial,Helvetica,SansSerif" font-size="12.5" font-weight="bold" lengthAdjust="spacing" textLength="145.8333" x="477.6042" y="184.5378">ProblemGsonSerializer</text><line style="stroke:#5E5E5E;stroke-width:1.5625;" x1="447.3958" x2="628.6458" y1="195.5078" y2="195.5078"/><ellipse cx="457.8125" cy="230.8777" fill="#84BE84" rx="3.125" ry="3.125" style="stroke:#038048;stroke-width:1.0416666666666667;"/><text fill="#D8BC00" font-family="Open Sans,Avenir,Nunito,Arial,Helvetica,SansSerif" font-size="11.4583" lengthAdjust="spacing" textLength="134.375" x="469.2708" y="237.7889">ProblemGsonSerializer()</text><line style="stroke:#5E5E5E;stroke-width:1.0416666666666667;" x1="447.3958" x2="494.2708" y1="213.7136" y2="213.7136"/><text fill="#D8BC00" font-family="Open Sans,Avenir,Nunito,Arial,Helvetica,SansSerif" font-size="11.4583" lengthAdjust="spacing" textLength="81.25" x="497.3958" y="217.5232">(constructors)</text><line style="stroke:#5E5E5E;stroke-width:1.0416666666666667;" x1="581.7708" x2="628.6458" y1="213.7136" y2="213.7136"/><!--MD5=[e67937bb45d6236a9abf87e33aeb87a4]
class TimeGsonSerializer--><rect codeLine="28" fill="#282828" height="83.3781" id="TimeGsonSerializer" rx="8.3333" ry="8.3333" style="stroke:#5E5E5E;stroke-width:1.0416666666666667;" width="162.5" x="666.1458" y="164.1195"/><rect fill="#1B1B1A" height="31.3883" rx="8.3333" ry="8.3333" style="stroke:#1B1B1A;stroke-width:1.0416666666666667;" width="162.5" x="666.1458" y="164.1195"/><rect fill="#1B1B1A" height="8.3333" style="stroke:#1B1B1A;stroke-width:1.0416666666666667;" width="162.5" x="666.1458" y="187.1745"/><rect codeLine="28" fill="none" height="83.3781" id="TimeGsonSerializer" rx="8.3333" ry="8.3333" style="stroke:#5E5E5E;stroke-width:1.0416666666666667;" width="162.5" x="666.1458" y="164.1195"/><ellipse cx="680.7292" cy="179.8136" fill="#0066CF" rx="10.4167" ry="10.4167" style="stroke:#0086EF;stroke-width:1.0416666666666667;"/><path d="M682.6396,184.2387 Q682.2123,184.4584 681.7424,184.5683 Q681.2724,184.6781 680.7536,184.6781 Q678.9103,184.6781 677.9399,183.4635 Q676.9694,182.2489 676.9694,179.954 Q676.9694,177.653 677.9399,176.4384 Q678.9103,175.2238 680.7536,175.2238 Q681.2724,175.2238 681.7485,175.3337 Q682.2245,175.4435 682.6396,175.6632 L682.6396,177.6652 Q682.1757,177.238 681.7393,177.0396 Q681.3029,176.8412 680.839,176.8412 Q679.8503,176.8412 679.3467,177.6255 Q678.8432,178.4098 678.8432,179.954 Q678.8432,181.4921 679.3467,182.2764 Q679.8503,183.0607 680.839,183.0607 Q681.3029,183.0607 681.7393,182.8623 Q682.1757,182.664 682.6396,182.2367 Z " fill="#000000"/><text fill="#D8BC00" font-family="Open Sans,Avenir,Nunito,Arial,Helvetica,SansSerif" font-size="12.5" font-weight="bold" lengthAdjust="spacing" textLength="125" x="697.3958" y="184.5378">TimeGsonSerializer</text><line style="stroke:#5E5E5E;stroke-width:1.5625;" x1="667.1875" x2="827.6042" y1="195.5078" y2="195.5078"/><ellipse cx="677.6042" cy="230.8777" fill="#84BE84" rx="3.125" ry="3.125" style="stroke:#038048;stroke-width:1.0416666666666667;"/><text fill="#D8BC00" font-family="Open Sans,Avenir,Nunito,Arial,Helvetica,SansSerif" font-size="11.4583" lengthAdjust="spacing" textLength="115.625" x="689.0625" y="237.7889">TimeGsonSerializer()</text><line style="stroke:#5E5E5E;stroke-width:1.0416666666666667;" x1="667.1875" x2="703.6458" y1="213.7136" y2="213.7136"/><text fill="#D8BC00" font-family="Open Sans,Avenir,Nunito,Arial,Helvetica,SansSerif" font-size="11.4583" lengthAdjust="spacing" textLength="81.25" x="706.7708" y="217.5232">(constructors)</text><line style="stroke:#5E5E5E;stroke-width:1.0416666666666667;" x1="791.1458" x2="827.6042" y1="213.7136" y2="213.7136"/><!--MD5=[a47895f0b5db0e8361e06c468f40c27b]
reverse link PrimitiveGsonSerializer to CountGsonSerializer--><path codeLine="6" d="M342.0625,109.0049 C298.375,125.1715 243.8542,145.5153 195.3125,164.1195 C189.3854,166.3903 183.2708,168.7549 177.1146,171.1403 " fill="none" id="PrimitiveGsonSerializer-backto-CountGsonSerializer" style="stroke:#545454;stroke-width:1.5625;"/><polygon fill="none" points="339.5521,102.1507,361.625,101.7757,344.6146,115.8382,339.5521,102.1507" style="stroke:#545454;stroke-width:1.5625;"/><!--MD5=[ab7482020b8b11870db9995722d22140]
reverse link PrimitiveGsonSerializer to LocalTimeGsonSerializer--><path codeLine="13" d="M389.9688,117.3695 C376.8021,132.1195 361.7604,148.9736 348.4167,163.9215 " fill="none" id="PrimitiveGsonSerializer-backto-LocalTimeGsonSerializer" style="stroke:#545454;stroke-width:1.5625;"/><polygon fill="none" points="384.5313,112.5049,403.8438,101.8174,395.4167,122.2236,384.5313,112.5049" style="stroke:#545454;stroke-width:1.5625;"/><!--MD5=[8b4ce20c765c40962affadae5b3a545e]
reverse link PrimitiveGsonSerializer to ProblemGsonSerializer--><path codeLine="20" d="M459.3125,117.3695 C472.5938,132.1195 487.7813,148.9736 501.25,163.9215 " fill="none" id="PrimitiveGsonSerializer-backto-ProblemGsonSerializer" style="stroke:#545454;stroke-width:1.5625;"/><polygon fill="none" points="453.8333,122.182,445.3021,101.8174,464.6667,112.4215,453.8333,122.182" style="stroke:#545454;stroke-width:1.5625;"/><!--MD5=[0ac888c94afb78ea6517d435228b5df0]
reverse link PrimitiveGsonSerializer to TimeGsonSerializer--><path codeLine="27" d="M505.6563,109.0986 C548.2604,125.1924 601.2813,145.4528 648.4375,164.1195 C654.1354,166.3799 660.0104,168.7236 665.9167,171.109 " fill="none" id="PrimitiveGsonSerializer-backto-TimeGsonSerializer" style="stroke:#545454;stroke-width:1.5625;"/><polygon fill="none" points="502.875,115.8486,485.9479,101.6715,508.0208,102.2028,502.875,115.8486" style="stroke:#545454;stroke-width:1.5625;"/><!--MD5=[7edc0d05a31f5d93ae2bbc77d4693851]
@startuml

    !include lexakai.theme
    
    title "com.telenav.kivakit.serialization.json.serializers"
    
    PrimitiveGsonSerializer <|- - CountGsonSerializer
    class CountGsonSerializer
    {
        - -(constructors)- -
        +CountGsonSerializer()
    }
    
    PrimitiveGsonSerializer <|- - LocalTimeGsonSerializer
    class LocalTimeGsonSerializer
    {
        - -(constructors)- -
        +LocalTimeGsonSerializer()
    }
    
    PrimitiveGsonSerializer <|- - ProblemGsonSerializer
    class ProblemGsonSerializer
    {
        - -(constructors)- -
        +ProblemGsonSerializer()
    }
    
    PrimitiveGsonSerializer <|- - TimeGsonSerializer
    class TimeGsonSerializer
    {
        - -(constructors)- -
        +TimeGsonSerializer()
    }
    
@enduml

@startuml









skinparam backgroundColor #333333






skinparam  {
    defaultFontName   "Open Sans,Avenir,Nunito,Arial,Helvetica,SansSerif"
    defaultFontSize   12
    defaultTextAlignment left
    shadowing false
    RoundCorner 10
    TitleFontSize 18
}

skinparam defaultFontName       "Open Sans,Avenir,Nunito,Arial,Helvetica,SansSerif"
skinparam defaultFontSize       12
skinparam dpi                   100
skinparam shadowing             false
skinparam roundcorner           16
skinparam ParticipantPadding    40
skinparam BoxPadding            40
skinparam Padding               3
skinparam ArrowColor            #545454
skinparam stereotype {
    CBackgroundColor #0066cf
    CBorderColor #0086ef
    ABackgroundColor #C8Ac00
    ABorderColor #D8Bc00
    IBackgroundColor #008400
    IBorderColor #239c23
    EBackgroundColor #cf6300
    EBorderColor #ef8300
    NBackgroundColor #3380b9
    NBorderColor #004d86
}
skinparam title {
	FontColor	                 #c0c0c0
 	BorderColor                  #545454
	FontSize	    	         20
	BorderRoundCorner            16
	BorderThickness 	         1
	BackgroundColor              #48494b
}


skinparam legend {
	BackgroundColor #303030
	BorderColor #404040
	FontColor #a0a0a0
}

	skinparam swimlane {
	BorderColor #5e5e5e
	BorderThickness 2
	TitleBackgroundColor  #6d6d6d-#484848
	TitleFontColor #303030
}

skinparam activity {
		FontColor #C8Ac00
	BorderColor #333333
	BackgroundColor #333333-#333333
	BarColor #00FF00
	StartColor #0060a8
	EndColor #0060a8
	DiamondBackgroundColor #6d6d6d-#3a3a3a
  	DiamondBorderColor #3a3a3a
  	DiamondFontColor #fefefe
}


skinparam participant {
		FontColor #C8Ac00
	BorderColor #333333
	BackgroundColor #333333-#333333
	ParticipantBorderThickness 2
}


skinparam actor {
		FontColor #C8Ac00
	BorderColor #333333
	BackgroundColor #333333-#333333
}


skinparam arrow {
	Thickness 1.5
	Color #545454
	FontColor #a0a0a0
    FontStyle bold
    MessageAlignment center
}



skinparam sequence {
	BorderColor #303030
	TitleFontColor #303030
	BackgroundColor #333333
	StartColor #303030
	EndColor #303030
	BoxBackgroundColor #333333
	BoxBorderColor #484848
	BoxFontColor #484848
	LifeLineBorderColor #484848
	LifeLineBorderThickness 2
	LifeLineBackgroundColor #3a3a3a
	GroupBorderColor #484848
	GroupFontColor #484848
	GroupHeaderFontColor #0060a8
	GroupBackgroundColor #484848
	GroupHeaderBackgroundColor #333333
	DividerBackgroundColor #484848
    DividerBorderColor #484848
    DividerBorderThickness 2
    DividerFontColor #D8Bc00
	ReferenceBackgroundColor #333333
	ReferenceBorderColor #484848
	ReferenceFontColor #fefefe
	ReferenceHeaderBackgroundColor #484848
}


skinparam partition {
	BorderColor #303030
	FontColor #333333
	BackgroundColor #333333
}


skinparam collections {
		FontColor #C8Ac00
	BorderColor #333333
	BackgroundColor #333333-#333333
}


skinparam control {
		FontColor #C8Ac00
	BorderColor #333333
	BackgroundColor #333333-#333333
}


skinparam entity {
		FontColor #C8Ac00
	BorderColor #333333
	BackgroundColor #333333-#333333
}


skinparam boundary {
		FontColor #C8Ac00
	BorderColor #333333
	BackgroundColor #333333-#333333
}


skinparam agent {
	BackgroundColor #ff8000
	BorderColor #ff9933
	FontColor #484848
}


skinparam note {
	BorderThickness 1
	BackgroundColor #1b1b1a
	BorderColor #5e5e5e
	FontSize 11
	FontColor #a0a0a0
}


skinparam artifact {
	BorderThickness 10
	BorderColor #5e5e5e
	BackgroundColor #1b1b1a
	FontColor #D8Bc00
}


skinparam component {
		FontColor #C8Ac00
	BorderColor #333333
	BackgroundColor #333333-#333333
}


skinparam interface {
	BackgroundColor  #008400
	BorderColor  #007F00
	FontColor #484848
}


skinparam storage {
	BackgroundColor #ff8000
  	BorderColor #cc6600
	FontColor #222222
}


skinparam node {
	BackgroundColor #333333
	BorderColor #333333
	FontColor #C8Ac00
}


skinparam cloud {
	BackgroundColor #484848-black
	BorderColor #484848
	FontColor #D8Bc00
}


skinparam database {
		FontColor #C8Ac00
	BorderColor #333333
	BackgroundColor #333333-#333333
	BackgroundColor  #333333
}


skinparam class {
		FontColor #C8Ac00
	BorderColor #333333
	BackgroundColor #333333-#333333
	HeaderBackgroundColor #1b1b1a
    BackgroundColor #282828
    BorderColor #5e5e5e
 	StereotypeFontColor #a0a0a0
    StereotypeFontStyle bold
	BorderThickness 1
	AttributeFontColor #D8Bc00
	AttributeFontSize 11
    FontColor #D8Bc00
    FontStyle bold
}


skinparam object {
		FontColor #C8Ac00
	BorderColor #333333
	BackgroundColor #333333-#333333
	StereotypeFontColor #484848
	BorderThickness 1
	AttributeFontColor #fefefe
	AttributeFontSize 11
}


skinparam usecase {
		FontColor #C8Ac00
	BorderColor #333333
	BackgroundColor #333333-#333333
	BorderThickness 2
	StereotypeFontColor #303030
}


skinparam rectangle {
		FontColor #C8Ac00
	BorderColor #333333
	BackgroundColor #333333-#333333
	BackgroundColor #333333
	BorderThickness 2
	StereotypeFontColor #303030
}


skinparam package {
		FontColor #C8Ac00
	BorderColor #333333
	BackgroundColor #333333-#333333
	BackgroundColor #333333
	BorderThickness 2
}


skinparam folder {
	BackgroundColor #6d6d6d
  	BorderColor #ff8000
	FontColor #ff8000
	BorderThickness 2
}


skinparam frame {
	BackgroundColor #6d6d6d
  	BorderColor #0060a8
	FontColor #0060a8
	BorderThickness 2
}


skinparam state {
		FontColor #C8Ac00
	BorderColor #333333
	BackgroundColor #333333-#333333
	StartColor #0060a8
	EndColor #0060a8
	AttributeFontColor #fefefe
	AttributeFontSize 11
}


skinparam queue {
		FontColor #C8Ac00
	BorderColor #333333
	BackgroundColor #333333-#333333
}


skinparam card {
	BackgroundColor #0060a8
	BorderColor #004d86
	FontColor $INFO_TEXT
}


skinparam file {
	BackgroundColor #6d6d6d-#484848
	BorderColor #0060a8
	FontColor #fefefe
}


skinparam stack {
		FontColor #C8Ac00
	BorderColor #333333
	BackgroundColor #333333-#333333
}

    
    title "com.telenav.kivakit.serialization.json.serializers"
    
    PrimitiveGsonSerializer <|- - CountGsonSerializer
    class CountGsonSerializer
    {
        - -(constructors)- -
        +CountGsonSerializer()
    }
    
    PrimitiveGsonSerializer <|- - LocalTimeGsonSerializer
    class LocalTimeGsonSerializer
    {
        - -(constructors)- -
        +LocalTimeGsonSerializer()
    }
    
    PrimitiveGsonSerializer <|- - ProblemGsonSerializer
    class ProblemGsonSerializer
    {
        - -(constructors)- -
        +ProblemGsonSerializer()
    }
    
    PrimitiveGsonSerializer <|- - TimeGsonSerializer
    class TimeGsonSerializer
    {
        - -(constructors)- -
        +TimeGsonSerializer()
    }
    
@enduml

PlantUML version 1.2021.01(Tue Feb 02 00:55:08 MST 2021)
(GPL source distribution)
Java Runtime: Java(TM) SE Runtime Environment
JVM: Java HotSpot(TM) 64-Bit Server VM
Default Encoding: UTF-8
Language: en
Country: US
--></g></svg>