<?xml version="1.0" encoding="UTF-8" standalone="no"?><svg xmlns="http://www.w3.org/2000/svg" xmlns:xlink="http://www.w3.org/1999/xlink" contentScriptType="application/ecmascript" contentStyleType="text/css" height="254.1667px" preserveAspectRatio="none" style="width:571px;height:254px;background:#333333;" version="1.1" viewBox="0 0 571 254" width="571.875px" zoomAndPan="magnify"><defs/><g><rect fill="#48494B" height="41.2028" rx="8.3333" ry="8.3333" style="stroke:#545454;stroke-width:1.0416666666666667;" width="559.375" x="2.0833" y="2.0833"/><text fill="#C0C0C0" font-family="Open Sans,Avenir,Nunito,Arial,Helvetica,SansSerif" font-size="20.8333" lengthAdjust="spacing" textLength="536.4583" x="13.5417" y="30.5583">com.telenav.kivakit.web.wicket.components.feedback</text><rect codeLine="7" fill="#282828" height="48.055" id="ComponentMixin" rx="8.3333" ry="8.3333" style="stroke:#5E5E5E;stroke-width:1.0416666666666667;" width="148.9583" x="196.3542" y="53.7028"/><rect fill="#1B1B1A" height="31.3883" rx="8.3333" ry="8.3333" style="stroke:#1B1B1A;stroke-width:1.0416666666666667;" width="148.9583" x="196.3542" y="53.7028"/><rect fill="#1B1B1A" height="8.3333" style="stroke:#1B1B1A;stroke-width:1.0416666666666667;" width="148.9583" x="196.3542" y="76.7578"/><rect codeLine="7" fill="none" height="48.055" id="ComponentMixin" rx="8.3333" ry="8.3333" style="stroke:#5E5E5E;stroke-width:1.0416666666666667;" width="148.9583" x="196.3542" y="53.7028"/><ellipse cx="210.9375" cy="69.397" fill="#008400" rx="10.4167" ry="10.4167" style="stroke:#239C23;stroke-width:1.0416666666666667;"/><path d="M208.3415,66.5588 L208.3415,64.9719 L213.7675,64.9719 L213.7675,66.5588 L211.9548,66.5588 L211.9548,72.4976 L213.7675,72.4976 L213.7675,74.0845 L208.3415,74.0845 L208.3415,72.4976 L210.1542,72.4976 L210.1542,66.5588 Z " fill="#000000"/><text fill="#D8BC00" font-family="Open Sans,Avenir,Nunito,Arial,Helvetica,SansSerif" font-size="12.5" font-style="italic" font-weight="bold" lengthAdjust="spacing" textLength="111.4583" x="227.6042" y="74.1211">ComponentMixin</text><line style="stroke:#5E5E5E;stroke-width:1.0416666666666667;" x1="197.3958" x2="344.2708" y1="85.0911" y2="85.0911"/><line style="stroke:#5E5E5E;stroke-width:1.0416666666666667;" x1="197.3958" x2="344.2708" y1="93.4245" y2="93.4245"/><rect codeLine="11" fill="#282828" height="83.3781" id="FeedbackPanel" rx="8.3333" ry="8.3333" style="stroke:#5E5E5E;stroke-width:1.0416666666666667;" width="155.2083" x="193.2292" y="164.1195"/><rect fill="#1B1B1A" height="31.3883" rx="8.3333" ry="8.3333" style="stroke:#1B1B1A;stroke-width:1.0416666666666667;" width="155.2083" x="193.2292" y="164.1195"/><rect fill="#1B1B1A" height="8.3333" style="stroke:#1B1B1A;stroke-width:1.0416666666666667;" width="155.2083" x="193.2292" y="187.1745"/><rect codeLine="11" fill="none" height="83.3781" id="FeedbackPanel" rx="8.3333" ry="8.3333" style="stroke:#5E5E5E;stroke-width:1.0416666666666667;" width="155.2083" x="193.2292" y="164.1195"/><ellipse cx="218.125" cy="179.8136" fill="#0066CF" rx="10.4167" ry="10.4167" style="stroke:#0086EF;stroke-width:1.0416666666666667;"/><path d="M220.0354,184.2387 Q219.6082,184.4584 219.1382,184.5683 Q218.6682,184.6781 218.1494,184.6781 Q216.3062,184.6781 215.3357,183.4635 Q214.3652,182.2489 214.3652,179.954 Q214.3652,177.653 215.3357,176.4384 Q216.3062,175.2238 218.1494,175.2238 Q218.6682,175.2238 219.1443,175.3337 Q219.6204,175.4435 220.0354,175.6632 L220.0354,177.6652 Q219.5715,177.238 219.1351,177.0396 Q218.6987,176.8412 218.2349,176.8412 Q217.2461,176.8412 216.7426,177.6255 Q216.239,178.4098 216.239,179.954 Q216.239,181.4921 216.7426,182.2764 Q217.2461,183.0607 218.2349,183.0607 Q218.6987,183.0607 219.1351,182.8623 Q219.5715,182.664 220.0354,182.2367 Z " fill="#000000"/><text fill="#D8BC00" font-family="Open Sans,Avenir,Nunito,Arial,Helvetica,SansSerif" font-size="12.5" font-weight="bold" lengthAdjust="spacing" textLength="94.7917" x="237.0833" y="184.5378">FeedbackPanel</text><line style="stroke:#5E5E5E;stroke-width:1.5625;" x1="194.2708" x2="347.3958" y1="195.5078" y2="195.5078"/><ellipse cx="204.6875" cy="230.8777" fill="#84BE84" rx="3.125" ry="3.125" style="stroke:#038048;stroke-width:1.0416666666666667;"/><text fill="#D8BC00" font-family="Open Sans,Avenir,Nunito,Arial,Helvetica,SansSerif" font-size="11.4583" lengthAdjust="spacing" textLength="122.9167" x="216.1458" y="237.7889">FeedbackPanel(String)</text><line style="stroke:#5E5E5E;stroke-width:1.0416666666666667;" x1="194.2708" x2="227.0833" y1="213.7136" y2="213.7136"/><text fill="#D8BC00" font-family="Open Sans,Avenir,Nunito,Arial,Helvetica,SansSerif" font-size="11.4583" lengthAdjust="spacing" textLength="81.25" x="230.2083" y="217.5232">(constructors)</text><line style="stroke:#5E5E5E;stroke-width:1.0416666666666667;" x1="314.5833" x2="347.3958" y1="213.7136" y2="213.7136"/><path codeLine="9" d="M369.1875,186.2757 C378.8021,190.2132 384.8958,196.7132 384.8958,205.7861 C384.8958,220.2965 369.2813,228.234 348.6667,229.5986 " fill="none" id="FeedbackPanel-backto-FeedbackPanel" style="stroke:#545454;stroke-width:1.5625;"/><polygon fill="none" points="367.5625,193.3903,348.6667,181.9736,370.5521,179.1195,367.5625,193.3903" style="stroke:#545454;stroke-width:1.5625;"/><path codeLine="10" d="M270.8333,122.682 C270.8333,136.0778 270.8333,150.7445 270.8333,163.9215 " fill="none" id="ComponentMixin-backto-FeedbackPanel" style="stroke:#545454;stroke-width:1.5625;"/><polygon fill="none" points="263.5417,122.6507,270.8333,101.8174,278.125,122.6507,263.5417,122.6507" style="stroke:#545454;stroke-width:1.5625;"/></g></svg>
