<?xml version="1.0" encoding="UTF-8" standalone="no"?><svg xmlns="http://www.w3.org/2000/svg" xmlns:xlink="http://www.w3.org/1999/xlink" contentScriptType="application/ecmascript" contentStyleType="text/css" height="443.75px" preserveAspectRatio="none" style="width:973px;height:443px;background:#333333;" version="1.1" viewBox="0 0 973 443" width="973.9583px" zoomAndPan="magnify"><defs/><g><rect fill="#48494B" height="41.2028" rx="8.3333" ry="8.3333" style="stroke:#545454;stroke-width:1.0416666666666667;" width="368.75" x="295.5729" y="2.0833"/><text fill="#C0C0C0" font-family="Open Sans,Avenir,Nunito,Arial,Helvetica,SansSerif" font-size="20.8333" lengthAdjust="spacing" textLength="345.8333" x="307.0313" y="30.5583">com.telenav.kivakit.filesystem.java</text><!--MD5=[8b5151cbe93a9a6942e91a66bba84fb0]
class BaseWritableResource--><rect codeLine="7" fill="#282828" height="48.055" id="BaseWritableResource" rx="8.3333" ry="8.3333" style="stroke:#5E5E5E;stroke-width:1.0416666666666667;" width="179.1667" x="173.4375" y="53.7028"/><rect fill="#1B1B1A" height="31.3883" rx="8.3333" ry="8.3333" style="stroke:#1B1B1A;stroke-width:1.0416666666666667;" width="179.1667" x="173.4375" y="53.7028"/><rect fill="#1B1B1A" height="8.3333" style="stroke:#1B1B1A;stroke-width:1.0416666666666667;" width="179.1667" x="173.4375" y="76.7578"/><rect codeLine="7" fill="none" height="48.055" id="BaseWritableResource" rx="8.3333" ry="8.3333" style="stroke:#5E5E5E;stroke-width:1.0416666666666667;" width="179.1667" x="173.4375" y="53.7028"/><ellipse cx="188.0208" cy="69.397" fill="#C8AC00" rx="10.4167" ry="10.4167" style="stroke:#D8BC00;stroke-width:1.0416666666666667;"/><path d="M187.6139,66.099 L186.7655,69.8283 L188.4684,69.8283 Z M186.5153,64.4511 L188.7187,64.4511 L191.1784,73.5636 L189.3778,73.5636 L188.8163,71.3114 L186.4054,71.3114 L185.8561,73.5636 L184.0556,73.5636 Z " fill="#000000"/><text fill="#D8BC00" font-family="Open Sans,Avenir,Nunito,Arial,Helvetica,SansSerif" font-size="12.5" font-style="italic" font-weight="bold" lengthAdjust="spacing" textLength="141.6667" x="204.6875" y="74.1211">BaseWritableResource</text><line style="stroke:#5E5E5E;stroke-width:1.0416666666666667;" x1="174.4792" x2="351.5625" y1="85.0911" y2="85.0911"/><line style="stroke:#5E5E5E;stroke-width:1.0416666666666667;" x1="174.4792" x2="351.5625" y1="93.4245" y2="93.4245"/><!--MD5=[9bc23c05e4b2fc73e019bd17cec96ec4]
class FileSystemService--><rect codeLine="9" fill="#282828" height="48.055" id="FileSystemService" rx="8.3333" ry="8.3333" style="stroke:#5E5E5E;stroke-width:1.0416666666666667;" width="152.0833" x="619.2708" y="53.7028"/><rect fill="#1B1B1A" height="31.3883" rx="8.3333" ry="8.3333" style="stroke:#1B1B1A;stroke-width:1.0416666666666667;" width="152.0833" x="619.2708" y="53.7028"/><rect fill="#1B1B1A" height="8.3333" style="stroke:#1B1B1A;stroke-width:1.0416666666666667;" width="152.0833" x="619.2708" y="76.7578"/><rect codeLine="9" fill="none" height="48.055" id="FileSystemService" rx="8.3333" ry="8.3333" style="stroke:#5E5E5E;stroke-width:1.0416666666666667;" width="152.0833" x="619.2708" y="53.7028"/><ellipse cx="633.8542" cy="69.397" fill="#008400" rx="10.4167" ry="10.4167" style="stroke:#239C23;stroke-width:1.0416666666666667;"/><path d="M631.2581,66.5588 L631.2581,64.9719 L636.6842,64.9719 L636.6842,66.5588 L634.8714,66.5588 L634.8714,72.4976 L636.6842,72.4976 L636.6842,74.0845 L631.2581,74.0845 L631.2581,72.4976 L633.0709,72.4976 L633.0709,66.5588 Z " fill="#000000"/><text fill="#D8BC00" font-family="Open Sans,Avenir,Nunito,Arial,Helvetica,SansSerif" font-size="12.5" font-style="italic" font-weight="bold" lengthAdjust="spacing" textLength="114.5833" x="650.5208" y="74.1211">FileSystemService</text><line style="stroke:#5E5E5E;stroke-width:1.0416666666666667;" x1="620.3125" x2="770.3125" y1="85.0911" y2="85.0911"/><line style="stroke:#5E5E5E;stroke-width:1.0416666666666667;" x1="620.3125" x2="770.3125" y1="93.4245" y2="93.4245"/><!--MD5=[186cc809c4fefc21e9383dda7a09b230]
class FileSystemObjectService--><rect codeLine="10" fill="#282828" height="48.055" id="FileSystemObjectService" rx="8.3333" ry="8.3333" style="stroke:#5E5E5E;stroke-width:1.0416666666666667;" width="193.75" x="389.0625" y="53.7028"/><rect fill="#1B1B1A" height="31.3883" rx="8.3333" ry="8.3333" style="stroke:#1B1B1A;stroke-width:1.0416666666666667;" width="193.75" x="389.0625" y="53.7028"/><rect fill="#1B1B1A" height="8.3333" style="stroke:#1B1B1A;stroke-width:1.0416666666666667;" width="193.75" x="389.0625" y="76.7578"/><rect codeLine="10" fill="none" height="48.055" id="FileSystemObjectService" rx="8.3333" ry="8.3333" style="stroke:#5E5E5E;stroke-width:1.0416666666666667;" width="193.75" x="389.0625" y="53.7028"/><ellipse cx="403.6458" cy="69.397" fill="#008400" rx="10.4167" ry="10.4167" style="stroke:#239C23;stroke-width:1.0416666666666667;"/><path d="M401.0498,66.5588 L401.0498,64.9719 L406.4758,64.9719 L406.4758,66.5588 L404.6631,66.5588 L404.6631,72.4976 L406.4758,72.4976 L406.4758,74.0845 L401.0498,74.0845 L401.0498,72.4976 L402.8625,72.4976 L402.8625,66.5588 Z " fill="#000000"/><text fill="#D8BC00" font-family="Open Sans,Avenir,Nunito,Arial,Helvetica,SansSerif" font-size="12.5" font-style="italic" font-weight="bold" lengthAdjust="spacing" textLength="156.25" x="420.3125" y="74.1211">FileSystemObjectService</text><line style="stroke:#5E5E5E;stroke-width:1.0416666666666667;" x1="390.1042" x2="581.7708" y1="85.0911" y2="85.0911"/><line style="stroke:#5E5E5E;stroke-width:1.0416666666666667;" x1="390.1042" x2="581.7708" y1="93.4245" y2="93.4245"/><!--MD5=[3f7923c5962403cc19ad9d36647dd0a5]
class FileService--><rect codeLine="11" fill="#282828" height="48.055" id="FileService" rx="8.3333" ry="8.3333" style="stroke:#5E5E5E;stroke-width:1.0416666666666667;" width="105.2083" x="7.2917" y="203.7028"/><rect fill="#1B1B1A" height="31.3883" rx="8.3333" ry="8.3333" style="stroke:#1B1B1A;stroke-width:1.0416666666666667;" width="105.2083" x="7.2917" y="203.7028"/><rect fill="#1B1B1A" height="8.3333" style="stroke:#1B1B1A;stroke-width:1.0416666666666667;" width="105.2083" x="7.2917" y="226.7578"/><rect codeLine="11" fill="none" height="48.055" id="FileService" rx="8.3333" ry="8.3333" style="stroke:#5E5E5E;stroke-width:1.0416666666666667;" width="105.2083" x="7.2917" y="203.7028"/><ellipse cx="21.875" cy="219.397" fill="#008400" rx="10.4167" ry="10.4167" style="stroke:#239C23;stroke-width:1.0416666666666667;"/><path d="M19.279,216.5588 L19.279,214.9719 L24.705,214.9719 L24.705,216.5588 L22.8923,216.5588 L22.8923,222.4976 L24.705,222.4976 L24.705,224.0845 L19.279,224.0845 L19.279,222.4976 L21.0917,222.4976 L21.0917,216.5588 Z " fill="#000000"/><text fill="#D8BC00" font-family="Open Sans,Avenir,Nunito,Arial,Helvetica,SansSerif" font-size="12.5" font-style="italic" font-weight="bold" lengthAdjust="spacing" textLength="67.7083" x="38.5417" y="224.1211">FileService</text><line style="stroke:#5E5E5E;stroke-width:1.0416666666666667;" x1="8.3333" x2="111.4583" y1="235.0911" y2="235.0911"/><line style="stroke:#5E5E5E;stroke-width:1.0416666666666667;" x1="8.3333" x2="111.4583" y1="243.4245" y2="243.4245"/><!--MD5=[46acbc008168529f3349206642520903]
class ComponentMixin--><rect codeLine="12" fill="#282828" height="48.055" id="ComponentMixin" rx="8.3333" ry="8.3333" style="stroke:#5E5E5E;stroke-width:1.0416666666666667;" width="148.9583" x="808.3333" y="53.7028"/><rect fill="#1B1B1A" height="31.3883" rx="8.3333" ry="8.3333" style="stroke:#1B1B1A;stroke-width:1.0416666666666667;" width="148.9583" x="808.3333" y="53.7028"/><rect fill="#1B1B1A" height="8.3333" style="stroke:#1B1B1A;stroke-width:1.0416666666666667;" width="148.9583" x="808.3333" y="76.7578"/><rect codeLine="12" fill="none" height="48.055" id="ComponentMixin" rx="8.3333" ry="8.3333" style="stroke:#5E5E5E;stroke-width:1.0416666666666667;" width="148.9583" x="808.3333" y="53.7028"/><ellipse cx="822.9167" cy="69.397" fill="#008400" rx="10.4167" ry="10.4167" style="stroke:#239C23;stroke-width:1.0416666666666667;"/><path d="M820.3206,66.5588 L820.3206,64.9719 L825.7467,64.9719 L825.7467,66.5588 L823.9339,66.5588 L823.9339,72.4976 L825.7467,72.4976 L825.7467,74.0845 L820.3206,74.0845 L820.3206,72.4976 L822.1334,72.4976 L822.1334,66.5588 Z " fill="#000000"/><text fill="#D8BC00" font-family="Open Sans,Avenir,Nunito,Arial,Helvetica,SansSerif" font-size="12.5" font-style="italic" font-weight="bold" lengthAdjust="spacing" textLength="111.4583" x="839.5833" y="74.1211">ComponentMixin</text><line style="stroke:#5E5E5E;stroke-width:1.0416666666666667;" x1="809.375" x2="956.25" y1="85.0911" y2="85.0911"/><line style="stroke:#5E5E5E;stroke-width:1.0416666666666667;" x1="809.375" x2="956.25" y1="93.4245" y2="93.4245"/><!--MD5=[d5ffbea224cb66456f52b11f1b43a3e0]
class TryTrait--><rect codeLine="13" fill="#282828" height="48.055" id="TryTrait" rx="8.3333" ry="8.3333" style="stroke:#5E5E5E;stroke-width:1.0416666666666667;" width="88.5417" x="148.9583" y="203.7028"/><rect fill="#1B1B1A" height="31.3883" rx="8.3333" ry="8.3333" style="stroke:#1B1B1A;stroke-width:1.0416666666666667;" width="88.5417" x="148.9583" y="203.7028"/><rect fill="#1B1B1A" height="8.3333" style="stroke:#1B1B1A;stroke-width:1.0416666666666667;" width="88.5417" x="148.9583" y="226.7578"/><rect codeLine="13" fill="none" height="48.055" id="TryTrait" rx="8.3333" ry="8.3333" style="stroke:#5E5E5E;stroke-width:1.0416666666666667;" width="88.5417" x="148.9583" y="203.7028"/><ellipse cx="163.5417" cy="219.397" fill="#008400" rx="10.4167" ry="10.4167" style="stroke:#239C23;stroke-width:1.0416666666666667;"/><path d="M160.9456,216.5588 L160.9456,214.9719 L166.3717,214.9719 L166.3717,216.5588 L164.5589,216.5588 L164.5589,222.4976 L166.3717,222.4976 L166.3717,224.0845 L160.9456,224.0845 L160.9456,222.4976 L162.7584,222.4976 L162.7584,216.5588 Z " fill="#000000"/><text fill="#D8BC00" font-family="Open Sans,Avenir,Nunito,Arial,Helvetica,SansSerif" font-size="12.5" font-style="italic" font-weight="bold" lengthAdjust="spacing" textLength="51.0417" x="180.2083" y="224.1211">TryTrait</text><line style="stroke:#5E5E5E;stroke-width:1.0416666666666667;" x1="150" x2="236.4583" y1="235.0911" y2="235.0911"/><line style="stroke:#5E5E5E;stroke-width:1.0416666666666667;" x1="150" x2="236.4583" y1="243.4245" y2="243.4245"/><!--MD5=[d3568316a19508714d03e72c4319f868]
class FolderService--><rect codeLine="14" fill="#282828" height="48.055" id="FolderService" rx="8.3333" ry="8.3333" style="stroke:#5E5E5E;stroke-width:1.0416666666666667;" width="122.9167" x="510.9375" y="203.7028"/><rect fill="#1B1B1A" height="31.3883" rx="8.3333" ry="8.3333" style="stroke:#1B1B1A;stroke-width:1.0416666666666667;" width="122.9167" x="510.9375" y="203.7028"/><rect fill="#1B1B1A" height="8.3333" style="stroke:#1B1B1A;stroke-width:1.0416666666666667;" width="122.9167" x="510.9375" y="226.7578"/><rect codeLine="14" fill="none" height="48.055" id="FolderService" rx="8.3333" ry="8.3333" style="stroke:#5E5E5E;stroke-width:1.0416666666666667;" width="122.9167" x="510.9375" y="203.7028"/><ellipse cx="525.5208" cy="219.397" fill="#008400" rx="10.4167" ry="10.4167" style="stroke:#239C23;stroke-width:1.0416666666666667;"/><path d="M522.9248,216.5588 L522.9248,214.9719 L528.3508,214.9719 L528.3508,216.5588 L526.5381,216.5588 L526.5381,222.4976 L528.3508,222.4976 L528.3508,224.0845 L522.9248,224.0845 L522.9248,222.4976 L524.7375,222.4976 L524.7375,216.5588 Z " fill="#000000"/><text fill="#D8BC00" font-family="Open Sans,Avenir,Nunito,Arial,Helvetica,SansSerif" font-size="12.5" font-style="italic" font-weight="bold" lengthAdjust="spacing" textLength="85.4167" x="542.1875" y="224.1211">FolderService</text><line style="stroke:#5E5E5E;stroke-width:1.0416666666666667;" x1="511.9792" x2="632.8125" y1="235.0911" y2="235.0911"/><line style="stroke:#5E5E5E;stroke-width:1.0416666666666667;" x1="511.9792" x2="632.8125" y1="243.4245" y2="243.4245"/><!--MD5=[b4106d33272c3fe0dd3ca5ac3cee7ee2]
class JavaFileSystemObject--><rect codeLine="27" fill="#282828" height="127.0345" id="JavaFileSystemObject" rx="8.3333" ry="8.3333" style="stroke:#5E5E5E;stroke-width:1.0416666666666667;" width="200" x="274.4792" y="164.1195"/><rect fill="#1B1B1A" height="31.3883" rx="8.3333" ry="8.3333" style="stroke:#1B1B1A;stroke-width:1.0416666666666667;" width="200" x="274.4792" y="164.1195"/><rect fill="#1B1B1A" height="8.3333" style="stroke:#1B1B1A;stroke-width:1.0416666666666667;" width="200" x="274.4792" y="187.1745"/><rect codeLine="27" fill="none" height="127.0345" id="JavaFileSystemObject" rx="8.3333" ry="8.3333" style="stroke:#5E5E5E;stroke-width:1.0416666666666667;" width="200" x="274.4792" y="164.1195"/><ellipse cx="299.8438" cy="179.8136" fill="#0066CF" rx="10.4167" ry="10.4167" style="stroke:#0086EF;stroke-width:1.0416666666666667;"/><path d="M301.7542,184.2387 Q301.3269,184.4584 300.8569,184.5683 Q300.387,184.6781 299.8682,184.6781 Q298.0249,184.6781 297.0544,183.4635 Q296.084,182.2489 296.084,179.954 Q296.084,177.653 297.0544,176.4384 Q298.0249,175.2238 299.8682,175.2238 Q300.387,175.2238 300.863,175.3337 Q301.3391,175.4435 301.7542,175.6632 L301.7542,177.6652 Q301.2903,177.238 300.8539,177.0396 Q300.4175,176.8412 299.9536,176.8412 Q298.9648,176.8412 298.4613,177.6255 Q297.9578,178.4098 297.9578,179.954 Q297.9578,181.4921 298.4613,182.2764 Q298.9648,183.0607 299.9536,183.0607 Q300.4175,183.0607 300.8539,182.8623 Q301.2903,182.664 301.7542,182.2367 Z " fill="#000000"/><text fill="#D8BC00" font-family="Open Sans,Avenir,Nunito,Arial,Helvetica,SansSerif" font-size="12.5" font-weight="bold" lengthAdjust="spacing" textLength="138.5417" x="318.9063" y="184.5378">JavaFileSystemObject</text><line style="stroke:#5E5E5E;stroke-width:1.5625;" x1="275.5208" x2="473.4375" y1="195.5078" y2="195.5078"/><ellipse cx="285.9375" cy="230.8777" fill="#84BE84" rx="3.125" ry="3.125" style="stroke:#038048;stroke-width:1.0416666666666667;"/><text fill="#D8BC00" font-family="Open Sans,Avenir,Nunito,Arial,Helvetica,SansSerif" font-size="11.4583" lengthAdjust="spacing" textLength="167.7083" x="297.3958" y="237.7889">JavaFileSystemObject(FilePath)</text><line style="stroke:#5E5E5E;stroke-width:1.0416666666666667;" x1="275.5208" x2="330.7292" y1="213.7136" y2="213.7136"/><text fill="#D8BC00" font-family="Open Sans,Avenir,Nunito,Arial,Helvetica,SansSerif" font-size="11.4583" lengthAdjust="spacing" textLength="81.25" x="333.8542" y="217.5232">(constructors)</text><line style="stroke:#5E5E5E;stroke-width:1.0416666666666667;" x1="418.2292" x2="473.4375" y1="213.7136" y2="213.7136"/><ellipse cx="285.9375" cy="274.5341" fill="#84BE84" rx="3.125" ry="3.125" style="stroke:#038048;stroke-width:1.0416666666666667;"/><text fill="#D8BC00" font-family="Open Sans,Avenir,Nunito,Arial,Helvetica,SansSerif" font-size="11.4583" lengthAdjust="spacing" textLength="81.25" x="297.3958" y="281.4453">Path javaPath()</text><line style="stroke:#5E5E5E;stroke-width:1.0416666666666667;" x1="275.5208" x2="354.6875" y1="257.37" y2="257.37"/><text fill="#D8BC00" font-family="Open Sans,Avenir,Nunito,Arial,Helvetica,SansSerif" font-size="11.4583" lengthAdjust="spacing" textLength="33.3333" x="357.8125" y="261.1796">(path)</text><line style="stroke:#5E5E5E;stroke-width:1.0416666666666667;" x1="394.2708" x2="473.4375" y1="257.37" y2="257.37"/><!--MD5=[0a85b253c38a8e08b4524a2656773af9]
class JavaFile--><rect codeLine="19" fill="#282828" height="83.3781" id="JavaFile" rx="8.3333" ry="8.3333" style="stroke:#5E5E5E;stroke-width:1.0416666666666667;" width="123.9583" x="131.25" y="353.7028"/><rect fill="#1B1B1A" height="31.3883" rx="8.3333" ry="8.3333" style="stroke:#1B1B1A;stroke-width:1.0416666666666667;" width="123.9583" x="131.25" y="353.7028"/><rect fill="#1B1B1A" height="8.3333" style="stroke:#1B1B1A;stroke-width:1.0416666666666667;" width="123.9583" x="131.25" y="376.7578"/><rect codeLine="19" fill="none" height="83.3781" id="JavaFile" rx="8.3333" ry="8.3333" style="stroke:#5E5E5E;stroke-width:1.0416666666666667;" width="123.9583" x="131.25" y="353.7028"/><ellipse cx="162.2396" cy="369.397" fill="#0066CF" rx="10.4167" ry="10.4167" style="stroke:#0086EF;stroke-width:1.0416666666666667;"/><path d="M164.15,373.822 Q163.7227,374.0417 163.2528,374.1516 Q162.7828,374.2615 162.264,374.2615 Q160.4207,374.2615 159.4503,373.0469 Q158.4798,371.8323 158.4798,369.5374 Q158.4798,367.2363 159.4503,366.0217 Q160.4207,364.8071 162.264,364.8071 Q162.7828,364.8071 163.2589,364.917 Q163.7349,365.0269 164.15,365.2466 L164.15,367.2485 Q163.6861,366.8213 163.2497,366.6229 Q162.8133,366.4246 162.3494,366.4246 Q161.3607,366.4246 160.8571,367.2089 Q160.3536,367.9932 160.3536,369.5374 Q160.3536,371.0754 160.8571,371.8597 Q161.3607,372.644 162.3494,372.644 Q162.8133,372.644 163.2497,372.4457 Q163.6861,372.2473 164.15,371.8201 Z " fill="#000000"/><text fill="#D8BC00" font-family="Open Sans,Avenir,Nunito,Arial,Helvetica,SansSerif" font-size="12.5" font-weight="bold" lengthAdjust="spacing" textLength="50" x="182.5521" y="374.1211">JavaFile</text><line style="stroke:#5E5E5E;stroke-width:1.5625;" x1="132.2917" x2="254.1667" y1="385.0911" y2="385.0911"/><ellipse cx="142.7083" cy="420.461" fill="#84BE84" rx="3.125" ry="3.125" style="stroke:#038048;stroke-width:1.0416666666666667;"/><text fill="#D8BC00" font-family="Open Sans,Avenir,Nunito,Arial,Helvetica,SansSerif" font-size="11.4583" lengthAdjust="spacing" textLength="91.6667" x="154.1667" y="427.3722">JavaFile(FilePath)</text><line style="stroke:#5E5E5E;stroke-width:1.0416666666666667;" x1="132.2917" x2="149.4792" y1="403.2969" y2="403.2969"/><text fill="#D8BC00" font-family="Open Sans,Avenir,Nunito,Arial,Helvetica,SansSerif" font-size="11.4583" lengthAdjust="spacing" textLength="81.25" x="152.6042" y="407.1065">(constructors)</text><line style="stroke:#5E5E5E;stroke-width:1.0416666666666667;" x1="236.9792" x2="254.1667" y1="403.2969" y2="403.2969"/><!--MD5=[25597766c6c6e5fe582095d37b4cd851]
class JavaFileSystemService--><rect codeLine="37" fill="#282828" height="48.055" id="JavaFileSystemService" rx="8.3333" ry="8.3333" style="stroke:#5E5E5E;stroke-width:1.0416666666666667;" width="179.1667" x="788.0208" y="203.7028"/><rect fill="#1B1B1A" height="31.3883" rx="8.3333" ry="8.3333" style="stroke:#1B1B1A;stroke-width:1.0416666666666667;" width="179.1667" x="788.0208" y="203.7028"/><rect fill="#1B1B1A" height="8.3333" style="stroke:#1B1B1A;stroke-width:1.0416666666666667;" width="179.1667" x="788.0208" y="226.7578"/><rect codeLine="37" fill="none" height="48.055" id="JavaFileSystemService" rx="8.3333" ry="8.3333" style="stroke:#5E5E5E;stroke-width:1.0416666666666667;" width="179.1667" x="788.0208" y="203.7028"/><ellipse cx="802.6042" cy="219.397" fill="#0066CF" rx="10.4167" ry="10.4167" style="stroke:#0086EF;stroke-width:1.0416666666666667;"/><path d="M804.5146,223.822 Q804.0873,224.0417 803.6174,224.1516 Q803.1474,224.2615 802.6286,224.2615 Q800.7853,224.2615 799.8149,223.0469 Q798.8444,221.8323 798.8444,219.5374 Q798.8444,217.2363 799.8149,216.0217 Q800.7853,214.8071 802.6286,214.8071 Q803.1474,214.8071 803.6235,214.917 Q804.0995,215.0269 804.5146,215.2466 L804.5146,217.2485 Q804.0507,216.8213 803.6143,216.6229 Q803.1779,216.4246 802.714,216.4246 Q801.7253,216.4246 801.2217,217.2089 Q800.7182,217.9932 800.7182,219.5374 Q800.7182,221.0754 801.2217,221.8597 Q801.7253,222.644 802.714,222.644 Q803.1779,222.644 803.6143,222.4457 Q804.0507,222.2473 804.5146,221.8201 Z " fill="#000000"/><text fill="#D8BC00" font-family="Open Sans,Avenir,Nunito,Arial,Helvetica,SansSerif" font-size="12.5" font-weight="bold" lengthAdjust="spacing" textLength="141.6667" x="819.2708" y="224.1211">JavaFileSystemService</text><line style="stroke:#5E5E5E;stroke-width:1.0416666666666667;" x1="789.0625" x2="966.1458" y1="235.0911" y2="235.0911"/><line style="stroke:#5E5E5E;stroke-width:1.0416666666666667;" x1="789.0625" x2="966.1458" y1="243.4245" y2="243.4245"/><!--MD5=[20b11f8231b7a86e9673499755cebd93]
class JavaFolder--><rect codeLine="43" fill="#282828" height="83.3781" id="JavaFolder" rx="8.3333" ry="8.3333" style="stroke:#5E5E5E;stroke-width:1.0416666666666667;" width="140.625" x="403.125" y="353.7028"/><rect fill="#1B1B1A" height="31.3883" rx="8.3333" ry="8.3333" style="stroke:#1B1B1A;stroke-width:1.0416666666666667;" width="140.625" x="403.125" y="353.7028"/><rect fill="#1B1B1A" height="8.3333" style="stroke:#1B1B1A;stroke-width:1.0416666666666667;" width="140.625" x="403.125" y="376.7578"/><rect codeLine="43" fill="none" height="83.3781" id="JavaFolder" rx="8.3333" ry="8.3333" style="stroke:#5E5E5E;stroke-width:1.0416666666666667;" width="140.625" x="403.125" y="353.7028"/><ellipse cx="433.6458" cy="369.397" fill="#0066CF" rx="10.4167" ry="10.4167" style="stroke:#0086EF;stroke-width:1.0416666666666667;"/><path d="M435.5562,373.822 Q435.129,374.0417 434.659,374.1516 Q434.189,374.2615 433.6702,374.2615 Q431.827,374.2615 430.8565,373.0469 Q429.8861,371.8323 429.8861,369.5374 Q429.8861,367.2363 430.8565,366.0217 Q431.827,364.8071 433.6702,364.8071 Q434.189,364.8071 434.6651,364.917 Q435.1412,365.0269 435.5562,365.2466 L435.5562,367.2485 Q435.0924,366.8213 434.656,366.6229 Q434.2196,366.4246 433.7557,366.4246 Q432.7669,366.4246 432.2634,367.2089 Q431.7598,367.9932 431.7598,369.5374 Q431.7598,371.0754 432.2634,371.8597 Q432.7669,372.644 433.7557,372.644 Q434.2196,372.644 434.656,372.4457 Q435.0924,372.2473 435.5562,371.8201 Z " fill="#000000"/><text fill="#D8BC00" font-family="Open Sans,Avenir,Nunito,Arial,Helvetica,SansSerif" font-size="12.5" font-weight="bold" lengthAdjust="spacing" textLength="67.7083" x="453.8542" y="374.1211">JavaFolder</text><line style="stroke:#5E5E5E;stroke-width:1.5625;" x1="404.1667" x2="542.7083" y1="385.0911" y2="385.0911"/><ellipse cx="414.5833" cy="420.461" fill="#84BE84" rx="3.125" ry="3.125" style="stroke:#038048;stroke-width:1.0416666666666667;"/><text fill="#D8BC00" font-family="Open Sans,Avenir,Nunito,Arial,Helvetica,SansSerif" font-size="11.4583" lengthAdjust="spacing" textLength="108.3333" x="426.0417" y="427.3722">JavaFolder(FilePath)</text><line style="stroke:#5E5E5E;stroke-width:1.0416666666666667;" x1="404.1667" x2="429.6875" y1="403.2969" y2="403.2969"/><text fill="#D8BC00" font-family="Open Sans,Avenir,Nunito,Arial,Helvetica,SansSerif" font-size="11.4583" lengthAdjust="spacing" textLength="81.25" x="432.8125" y="407.1065">(constructors)</text><line style="stroke:#5E5E5E;stroke-width:1.0416666666666667;" x1="517.1875" x2="542.7083" y1="403.2969" y2="403.2969"/><!--MD5=[82dcdf4e21fff12ec67f095de9c6ddc4]
reverse link JavaFileSystemObject to JavaFile--><path codeLine="16" d="M290.4583,305.4736 C272.25,322.1195 253.6771,339.0986 237.7083,353.682 " fill="none" id="JavaFileSystemObject-backto-JavaFile" style="stroke:#545454;stroke-width:1.5625;"/><polygon fill="none" points="285.6563,299.9945,305.9583,291.3174,295.5,310.7549,285.6563,299.9945" style="stroke:#545454;stroke-width:1.5625;"/><!--MD5=[701ee381176557beb221dd1d66f53829]
reverse link FileService to JavaFile--><path codeLine="17" d="M91.6563,268.1611 C112.4375,293.9736 139.5104,327.5986 160.4792,353.6507 " fill="none" id="FileService-backto-JavaFile" style="stroke:#545454;stroke-width:1.5625;"/><polygon fill="none" points="85.8229,272.5361,78.4375,251.734,97.1771,263.3903,85.8229,272.5361" style="stroke:#545454;stroke-width:1.5625;"/><!--MD5=[937f94eba4fdfea1f20554395b9fc7e0]
reverse link TryTrait to JavaFile--><path codeLine="18" d="M193.2292,272.7028 C193.2292,297.8278 193.2292,329.109 193.2292,353.6507 " fill="none" id="TryTrait-backto-JavaFile" style="stroke:#545454;stroke-width:1.5625;"/><polygon fill="none" points="185.9375,272.5674,193.2292,251.734,200.5208,272.5674,185.9375,272.5674" style="stroke:#545454;stroke-width:1.5625;"/><!--MD5=[e770b8fc32cf2c211f7ceb7e0cd6a1b3]
reverse link BaseWritableResource to JavaFileSystemObject--><path codeLine="25" d="M293.2083,118.7653 C303.7292,132.7236 315.8021,148.7549 327.375,164.109 " fill="none" id="BaseWritableResource-backto-JavaFileSystemObject" style="stroke:#545454;stroke-width:1.5625;"/><polygon fill="none" points="287.1458,122.8382,280.4375,101.8174,298.8021,114.0674,287.1458,122.8382" style="stroke:#545454;stroke-width:1.5625;"/><!--MD5=[8c1ea1c2c3532257d86a6c60235a814b]
reverse link FileSystemObjectService to JavaFileSystemObject--><path codeLine="26" d="M455.75,118.7653 C445.2292,132.7236 433.1563,148.7549 421.5833,164.109 " fill="none" id="FileSystemObjectService-backto-JavaFileSystemObject" style="stroke:#545454;stroke-width:1.5625;"/><polygon fill="none" points="450.1563,114.0674,468.5208,101.8174,461.8125,122.8382,450.1563,114.0674" style="stroke:#545454;stroke-width:1.5625;"/><!--MD5=[cdcf021bdd591fc07bf75716a286e137]
reverse link FileSystemService to JavaFileSystemService--><path codeLine="35" d="M740.4063,115.2965 C774.4896,142.9528 820.2292,180.0674 849.3229,203.6715 " fill="none" id="FileSystemService-backto-JavaFileSystemService" style="stroke:#545454;stroke-width:1.5625;"/><polygon fill="none" points="735.375,120.609,723.7917,101.8174,744.5625,109.2757,735.375,120.609" style="stroke:#545454;stroke-width:1.5625;"/><!--MD5=[ce4f4af52f76ec4ae3610ea285c8b4fe]
reverse link ComponentMixin to JavaFileSystemService--><path codeLine="36" d="M881.2604,122.7236 C880.3229,149.3174 879.1667,182.1299 878.4167,203.6715 " fill="none" id="ComponentMixin-backto-JavaFileSystemService" style="stroke:#545454;stroke-width:1.5625;"/><polygon fill="none" points="873.9792,122.3799,882,101.8174,888.5521,122.8903,873.9792,122.3799" style="stroke:#545454;stroke-width:1.5625;"/><!--MD5=[685f001310f4d94e88b894d890caf279]
reverse link JavaFileSystemObject to JavaFolder--><path codeLine="41" d="M422.6042,309.2445 C431.8125,324.6715 441.0938,340.1924 449.1563,353.682 " fill="none" id="JavaFileSystemObject-backto-JavaFolder" style="stroke:#545454;stroke-width:1.5625;"/><polygon fill="none" points="416.3125,312.9424,411.8958,291.3174,428.8333,305.4632,416.3125,312.9424" style="stroke:#545454;stroke-width:1.5625;"/><!--MD5=[753a7b8c64a47247dee9108161679c6f]
reverse link FolderService to JavaFolder--><path codeLine="42" d="M547.9271,269.6611 C532.625,295.2549 513.0104,328.0986 497.7396,353.6507 " fill="none" id="FolderService-backto-JavaFolder" style="stroke:#545454;stroke-width:1.5625;"/><polygon fill="none" points="541.6875,265.8799,558.6354,251.734,554.2083,273.359,541.6875,265.8799" style="stroke:#545454;stroke-width:1.5625;"/><!--MD5=[1714a0a23bfac20e15aa6bdd493fbb34]
@startuml

    !include lexakai.theme
    
    title "com.telenav.kivakit.filesystem.java"
    
    abstract BaseWritableResource
    
    interface FileSystemService
    interface FileSystemObjectService
    interface FileService
    interface ComponentMixin
    interface TryTrait
    interface FolderService
    
    JavaFileSystemObject <|- - JavaFile
    FileService <|- - JavaFile
    TryTrait <|- - JavaFile
    class JavaFile
    {
        - -(constructors)- -
        +JavaFile(FilePath)
    }
    
    BaseWritableResource <|- - JavaFileSystemObject
    FileSystemObjectService <|- - JavaFileSystemObject
    class JavaFileSystemObject
    {
        - -(constructors)- -
        +JavaFileSystemObject(FilePath)
        - -(path)- -
        +Path javaPath()
    }
    
    FileSystemService <|- - JavaFileSystemService
    ComponentMixin <|- - JavaFileSystemService
    class JavaFileSystemService
    {
    }
    
    JavaFileSystemObject <|- - JavaFolder
    FolderService <|- - JavaFolder
    class JavaFolder
    {
        - -(constructors)- -
        +JavaFolder(FilePath)
    }
    
@enduml

@startuml









skinparam backgroundColor #333333






skinparam  {
    defaultFontName   "Open Sans,Avenir,Nunito,Arial,Helvetica,SansSerif"
    defaultFontSize   12
    defaultTextAlignment left
    shadowing false
    RoundCorner 10
    TitleFontSize 18
}

skinparam defaultFontName       "Open Sans,Avenir,Nunito,Arial,Helvetica,SansSerif"
skinparam defaultFontSize       12
skinparam dpi                   100
skinparam shadowing             false
skinparam roundcorner           16
skinparam ParticipantPadding    40
skinparam BoxPadding            40
skinparam Padding               3
skinparam ArrowColor            #545454
skinparam stereotype {
    CBackgroundColor #0066cf
    CBorderColor #0086ef
    ABackgroundColor #C8Ac00
    ABorderColor #D8Bc00
    IBackgroundColor #008400
    IBorderColor #239c23
    EBackgroundColor #cf6300
    EBorderColor #ef8300
    NBackgroundColor #3380b9
    NBorderColor #004d86
}
skinparam title {
	FontColor	                 #c0c0c0
 	BorderColor                  #545454
	FontSize	    	         20
	BorderRoundCorner            16
	BorderThickness 	         1
	BackgroundColor              #48494b
}


skinparam legend {
	BackgroundColor #303030
	BorderColor #404040
	FontColor #a0a0a0
}

	skinparam swimlane {
	BorderColor #5e5e5e
	BorderThickness 2
	TitleBackgroundColor  #6d6d6d-#484848
	TitleFontColor #303030
}

skinparam activity {
		FontColor #C8Ac00
	BorderColor #333333
	BackgroundColor #333333-#333333
	BarColor #00FF00
	StartColor #0060a8
	EndColor #0060a8
	DiamondBackgroundColor #6d6d6d-#3a3a3a
  	DiamondBorderColor #3a3a3a
  	DiamondFontColor #fefefe
}


skinparam participant {
		FontColor #C8Ac00
	BorderColor #333333
	BackgroundColor #333333-#333333
	ParticipantBorderThickness 2
}


skinparam actor {
		FontColor #C8Ac00
	BorderColor #333333
	BackgroundColor #333333-#333333
}


skinparam arrow {
	Thickness 1.5
	Color #545454
	FontColor #a0a0a0
    FontStyle bold
    MessageAlignment center
}



skinparam sequence {
	BorderColor #303030
	TitleFontColor #303030
	BackgroundColor #333333
	StartColor #303030
	EndColor #303030
	BoxBackgroundColor #333333
	BoxBorderColor #484848
	BoxFontColor #484848
	LifeLineBorderColor #484848
	LifeLineBorderThickness 2
	LifeLineBackgroundColor #3a3a3a
	GroupBorderColor #484848
	GroupFontColor #484848
	GroupHeaderFontColor #0060a8
	GroupBackgroundColor #484848
	GroupHeaderBackgroundColor #333333
	DividerBackgroundColor #484848
    DividerBorderColor #484848
    DividerBorderThickness 2
    DividerFontColor #D8Bc00
	ReferenceBackgroundColor #333333
	ReferenceBorderColor #484848
	ReferenceFontColor #fefefe
	ReferenceHeaderBackgroundColor #484848
}


skinparam partition {
	BorderColor #303030
	FontColor #333333
	BackgroundColor #333333
}


skinparam collections {
		FontColor #C8Ac00
	BorderColor #333333
	BackgroundColor #333333-#333333
}


skinparam control {
		FontColor #C8Ac00
	BorderColor #333333
	BackgroundColor #333333-#333333
}


skinparam entity {
		FontColor #C8Ac00
	BorderColor #333333
	BackgroundColor #333333-#333333
}


skinparam boundary {
		FontColor #C8Ac00
	BorderColor #333333
	BackgroundColor #333333-#333333
}


skinparam agent {
	BackgroundColor #ff8000
	BorderColor #ff9933
	FontColor #484848
}


skinparam note {
	BorderThickness 1
	BackgroundColor #1b1b1a
	BorderColor #5e5e5e
	FontSize 11
	FontColor #a0a0a0
}


skinparam artifact {
	BorderThickness 10
	BorderColor #5e5e5e
	BackgroundColor #1b1b1a
	FontColor #D8Bc00
}


skinparam component {
		FontColor #C8Ac00
	BorderColor #333333
	BackgroundColor #333333-#333333
}


skinparam interface {
	BackgroundColor  #008400
	BorderColor  #007F00
	FontColor #484848
}


skinparam storage {
	BackgroundColor #ff8000
  	BorderColor #cc6600
	FontColor #222222
}


skinparam node {
	BackgroundColor #333333
	BorderColor #333333
	FontColor #C8Ac00
}


skinparam cloud {
	BackgroundColor #484848-black
	BorderColor #484848
	FontColor #D8Bc00
}


skinparam database {
		FontColor #C8Ac00
	BorderColor #333333
	BackgroundColor #333333-#333333
	BackgroundColor  #333333
}


skinparam class {
		FontColor #C8Ac00
	BorderColor #333333
	BackgroundColor #333333-#333333
	HeaderBackgroundColor #1b1b1a
    BackgroundColor #282828
    BorderColor #5e5e5e
 	StereotypeFontColor #a0a0a0
    StereotypeFontStyle bold
	BorderThickness 1
	AttributeFontColor #D8Bc00
	AttributeFontSize 11
    FontColor #D8Bc00
    FontStyle bold
}


skinparam object {
		FontColor #C8Ac00
	BorderColor #333333
	BackgroundColor #333333-#333333
	StereotypeFontColor #484848
	BorderThickness 1
	AttributeFontColor #fefefe
	AttributeFontSize 11
}


skinparam usecase {
		FontColor #C8Ac00
	BorderColor #333333
	BackgroundColor #333333-#333333
	BorderThickness 2
	StereotypeFontColor #303030
}


skinparam rectangle {
		FontColor #C8Ac00
	BorderColor #333333
	BackgroundColor #333333-#333333
	BackgroundColor #333333
	BorderThickness 2
	StereotypeFontColor #303030
}


skinparam package {
		FontColor #C8Ac00
	BorderColor #333333
	BackgroundColor #333333-#333333
	BackgroundColor #333333
	BorderThickness 2
}


skinparam folder {
	BackgroundColor #6d6d6d
  	BorderColor #ff8000
	FontColor #ff8000
	BorderThickness 2
}


skinparam frame {
	BackgroundColor #6d6d6d
  	BorderColor #0060a8
	FontColor #0060a8
	BorderThickness 2
}


skinparam state {
		FontColor #C8Ac00
	BorderColor #333333
	BackgroundColor #333333-#333333
	StartColor #0060a8
	EndColor #0060a8
	AttributeFontColor #fefefe
	AttributeFontSize 11
}


skinparam queue {
		FontColor #C8Ac00
	BorderColor #333333
	BackgroundColor #333333-#333333
}


skinparam card {
	BackgroundColor #0060a8
	BorderColor #004d86
	FontColor $INFO_TEXT
}


skinparam file {
	BackgroundColor #6d6d6d-#484848
	BorderColor #0060a8
	FontColor #fefefe
}


skinparam stack {
		FontColor #C8Ac00
	BorderColor #333333
	BackgroundColor #333333-#333333
}

    
    title "com.telenav.kivakit.filesystem.java"
    
    abstract BaseWritableResource
    
    interface FileSystemService
    interface FileSystemObjectService
    interface FileService
    interface ComponentMixin
    interface TryTrait
    interface FolderService
    
    JavaFileSystemObject <|- - JavaFile
    FileService <|- - JavaFile
    TryTrait <|- - JavaFile
    class JavaFile
    {
        - -(constructors)- -
        +JavaFile(FilePath)
    }
    
    BaseWritableResource <|- - JavaFileSystemObject
    FileSystemObjectService <|- - JavaFileSystemObject
    class JavaFileSystemObject
    {
        - -(constructors)- -
        +JavaFileSystemObject(FilePath)
        - -(path)- -
        +Path javaPath()
    }
    
    FileSystemService <|- - JavaFileSystemService
    ComponentMixin <|- - JavaFileSystemService
    class JavaFileSystemService
    {
    }
    
    JavaFileSystemObject <|- - JavaFolder
    FolderService <|- - JavaFolder
    class JavaFolder
    {
        - -(constructors)- -
        +JavaFolder(FilePath)
    }
    
@enduml

PlantUML version 1.2021.01(Tue Feb 02 00:55:08 MST 2021)
(GPL source distribution)
Java Runtime: OpenJDK Runtime Environment
JVM: OpenJDK 64-Bit Server VM
Default Encoding: UTF-8
Language: en
Country: US
--></g></svg>