<?xml version="1.0" encoding="UTF-8" standalone="no"?><svg xmlns="http://www.w3.org/2000/svg" xmlns:xlink="http://www.w3.org/1999/xlink" contentScriptType="application/ecmascript" contentStyleType="text/css" height="533.3333px" preserveAspectRatio="none" style="width:1342px;height:533px;background:#333333;" version="1.1" viewBox="0 0 1342 533" width="1342.7083px" zoomAndPan="magnify"><defs/><g><rect fill="#48494B" height="41.2028" rx="8.3333" ry="8.3333" style="stroke:#545454;stroke-width:1.0416666666666667;" width="265.625" x="531.5104" y="2.0833"/><text fill="#C0C0C0" font-family="Open Sans,Avenir,Nunito,Arial,Helvetica,SansSerif" font-size="20.8333" lengthAdjust="spacing" textLength="242.7083" x="542.9688" y="30.5583">kivakit-filesystems-java</text><!--MD5=[53e810a96c27d4bd25e6a3839aaba16b]
entity gson--><rect fill="#1B1B1A" height="44.93" rx="8.3333" ry="8.3333" style="stroke:#5E5E5E;stroke-width:1.5625;" width="65.625" x="191.1458" y="482.8695"/><polygon fill="#1B1B1A" points="239.0625,488.0778,239.0625,502.6611,251.5625,502.6611,251.5625,494.3278,245.3125,488.0778,239.0625,488.0778" style="stroke:#5E5E5E;stroke-width:1.5625;"/><line style="stroke:#5E5E5E;stroke-width:1.5625;" x1="245.3125" x2="245.3125" y1="488.0778" y2="494.3278"/><line style="stroke:#5E5E5E;stroke-width:1.5625;" x1="251.5625" x2="245.3125" y1="494.3278" y2="494.3278"/><text fill="#D8BC00" font-family="Open Sans,Avenir,Nunito,Arial,Helvetica,SansSerif" font-size="12.5" lengthAdjust="spacing" textLength="28.125" x="204.6875" y="511.6211">gson</text><!--MD5=[4aa4ddcf3dc6d6219283db0a9fd05165]
entity cactus_build_metadata--><rect fill="#1B1B1A" height="44.93" rx="8.3333" ry="8.3333" style="stroke:#5E5E5E;stroke-width:1.5625;" width="175" x="476.0417" y="482.8695"/><polygon fill="#1B1B1A" points="633.3333,488.0778,633.3333,502.6611,645.8333,502.6611,645.8333,494.3278,639.5833,488.0778,633.3333,488.0778" style="stroke:#5E5E5E;stroke-width:1.5625;"/><line style="stroke:#5E5E5E;stroke-width:1.5625;" x1="639.5833" x2="639.5833" y1="488.0778" y2="494.3278"/><line style="stroke:#5E5E5E;stroke-width:1.5625;" x1="645.8333" x2="639.5833" y1="494.3278" y2="494.3278"/><text fill="#D8BC00" font-family="Open Sans,Avenir,Nunito,Arial,Helvetica,SansSerif" font-size="12.5" lengthAdjust="spacing" textLength="137.5" x="489.5833" y="511.6211">cactus_build_metadata</text><!--MD5=[4facc4376e4b6bfc182ce14f42a813f9]
entity kivakit_collections--><rect fill="#1B1B1A" height="44.93" rx="8.3333" ry="8.3333" style="stroke:#5E5E5E;stroke-width:1.5625;" width="143.75" x="1092.7083" y="375.5778"/><polygon fill="#1B1B1A" points="1218.75,380.7861,1218.75,395.3695,1231.25,395.3695,1231.25,387.0361,1225,380.7861,1218.75,380.7861" style="stroke:#5E5E5E;stroke-width:1.5625;"/><line style="stroke:#5E5E5E;stroke-width:1.5625;" x1="1225" x2="1225" y1="380.7861" y2="387.0361"/><line style="stroke:#5E5E5E;stroke-width:1.5625;" x1="1231.25" x2="1225" y1="387.0361" y2="387.0361"/><text fill="#D8BC00" font-family="Open Sans,Avenir,Nunito,Arial,Helvetica,SansSerif" font-size="12.5" lengthAdjust="spacing" textLength="106.25" x="1106.25" y="404.3294">kivakit_collections</text><!--MD5=[b7af8d5b7902cf06664f76dfe0f9e426]
entity kivakit_commandline--><rect fill="#1B1B1A" height="44.93" rx="8.3333" ry="8.3333" style="stroke:#5E5E5E;stroke-width:1.5625;" width="162.5" x="7.2917" y="375.5778"/><polygon fill="#1B1B1A" points="152.0833,380.7861,152.0833,395.3695,164.5833,395.3695,164.5833,387.0361,158.3333,380.7861,152.0833,380.7861" style="stroke:#5E5E5E;stroke-width:1.5625;"/><line style="stroke:#5E5E5E;stroke-width:1.5625;" x1="158.3333" x2="158.3333" y1="380.7861" y2="387.0361"/><line style="stroke:#5E5E5E;stroke-width:1.5625;" x1="164.5833" x2="158.3333" y1="387.0361" y2="387.0361"/><text fill="#D8BC00" font-family="Open Sans,Avenir,Nunito,Arial,Helvetica,SansSerif" font-size="12.5" lengthAdjust="spacing" textLength="125" x="20.8333" y="404.3294">kivakit_commandline</text><!--MD5=[76998a0b8e8a034fd4dce74d4f636366]
entity kivakit_component--><rect fill="#1B1B1A" height="44.93" rx="8.3333" ry="8.3333" style="stroke:#5E5E5E;stroke-width:1.5625;" width="148.9583" x="591.1458" y="160.9945"/><polygon fill="#1B1B1A" points="722.3958,166.2028,722.3958,180.7861,734.8958,180.7861,734.8958,172.4528,728.6458,166.2028,722.3958,166.2028" style="stroke:#5E5E5E;stroke-width:1.5625;"/><line style="stroke:#5E5E5E;stroke-width:1.5625;" x1="728.6458" x2="728.6458" y1="166.2028" y2="172.4528"/><line style="stroke:#5E5E5E;stroke-width:1.5625;" x1="734.8958" x2="728.6458" y1="172.4528" y2="172.4528"/><text fill="#D8BC00" font-family="Open Sans,Avenir,Nunito,Arial,Helvetica,SansSerif" font-size="12.5" lengthAdjust="spacing" textLength="111.4583" x="604.6875" y="189.7461">kivakit_component</text><!--MD5=[dafc80021cd29aae9231cf20b1d6436c]
entity kivakit_conversion--><rect fill="#1B1B1A" height="44.93" rx="8.3333" ry="8.3333" style="stroke:#5E5E5E;stroke-width:1.5625;" width="145.8333" x="293.75" y="482.8695"/><polygon fill="#1B1B1A" points="421.875,488.0778,421.875,502.6611,434.375,502.6611,434.375,494.3278,428.125,488.0778,421.875,488.0778" style="stroke:#5E5E5E;stroke-width:1.5625;"/><line style="stroke:#5E5E5E;stroke-width:1.5625;" x1="428.125" x2="428.125" y1="488.0778" y2="494.3278"/><line style="stroke:#5E5E5E;stroke-width:1.5625;" x1="434.375" x2="428.125" y1="494.3278" y2="494.3278"/><text fill="#D8BC00" font-family="Open Sans,Avenir,Nunito,Arial,Helvetica,SansSerif" font-size="12.5" lengthAdjust="spacing" textLength="108.3333" x="307.2917" y="511.6211">kivakit_conversion</text><!--MD5=[ae4286fb09ce878b5ed12f89a26eee54]
entity kivakit_core--><rect fill="#1B1B1A" height="44.93" rx="8.3333" ry="8.3333" style="stroke:#5E5E5E;stroke-width:1.5625;" width="108.3333" x="704.1667" y="375.5778"/><polygon fill="#1B1B1A" points="794.7917,380.7861,794.7917,395.3695,807.2917,395.3695,807.2917,387.0361,801.0417,380.7861,794.7917,380.7861" style="stroke:#5E5E5E;stroke-width:1.5625;"/><line style="stroke:#5E5E5E;stroke-width:1.5625;" x1="801.0417" x2="801.0417" y1="380.7861" y2="387.0361"/><line style="stroke:#5E5E5E;stroke-width:1.5625;" x1="807.2917" x2="801.0417" y1="387.0361" y2="387.0361"/><text fill="#D8BC00" font-family="Open Sans,Avenir,Nunito,Arial,Helvetica,SansSerif" font-size="12.5" lengthAdjust="spacing" textLength="70.8333" x="717.7083" y="404.3294">kivakit_core</text><!--MD5=[eb23867b2daa95e04823b4c633fce53f]
entity kivakit_filesystems_java--><rect fill="#1B1B1A" height="44.93" rx="8.3333" ry="8.3333" style="stroke:#5E5E5E;stroke-width:1.5625;" width="179.1667" x="661.4583" y="53.7028"/><polygon fill="#1B1B1A" points="822.9167,58.9111,822.9167,73.4945,835.4167,73.4945,835.4167,65.1611,829.1667,58.9111,822.9167,58.9111" style="stroke:#5E5E5E;stroke-width:1.5625;"/><line style="stroke:#5E5E5E;stroke-width:1.5625;" x1="829.1667" x2="829.1667" y1="58.9111" y2="65.1611"/><line style="stroke:#5E5E5E;stroke-width:1.5625;" x1="835.4167" x2="829.1667" y1="65.1611" y2="65.1611"/><text fill="#D8BC00" font-family="Open Sans,Avenir,Nunito,Arial,Helvetica,SansSerif" font-size="12.5" lengthAdjust="spacing" textLength="141.6667" x="675" y="82.4544">kivakit_filesystems_java</text><!--MD5=[b582392a7118229602de187c1b0722c2]
entity kivakit_interfaces--><rect fill="#1B1B1A" height="44.93" rx="8.3333" ry="8.3333" style="stroke:#5E5E5E;stroke-width:1.5625;" width="140.625" x="688.0208" y="482.8695"/><polygon fill="#1B1B1A" points="810.9375,488.0778,810.9375,502.6611,823.4375,502.6611,823.4375,494.3278,817.1875,488.0778,810.9375,488.0778" style="stroke:#5E5E5E;stroke-width:1.5625;"/><line style="stroke:#5E5E5E;stroke-width:1.5625;" x1="817.1875" x2="817.1875" y1="488.0778" y2="494.3278"/><line style="stroke:#5E5E5E;stroke-width:1.5625;" x1="823.4375" x2="817.1875" y1="494.3278" y2="494.3278"/><text fill="#D8BC00" font-family="Open Sans,Avenir,Nunito,Arial,Helvetica,SansSerif" font-size="12.5" lengthAdjust="spacing" textLength="103.125" x="701.5625" y="511.6211">kivakit_interfaces</text><!--MD5=[155c7293f864675051139bd0dee90fee]
entity kivakit_internal_testing--><rect fill="#1B1B1A" height="44.93" rx="8.3333" ry="8.3333" style="stroke:#5E5E5E;stroke-width:1.5625;" width="172.9167" x="794.7917" y="268.2861"/><polygon fill="#1B1B1A" points="950,273.4945,950,288.0778,962.5,288.0778,962.5,279.7445,956.25,273.4945,950,273.4945" style="stroke:#5E5E5E;stroke-width:1.5625;"/><line style="stroke:#5E5E5E;stroke-width:1.5625;" x1="956.25" x2="956.25" y1="273.4945" y2="279.7445"/><line style="stroke:#5E5E5E;stroke-width:1.5625;" x1="962.5" x2="956.25" y1="279.7445" y2="279.7445"/><text fill="#D8BC00" font-family="Open Sans,Avenir,Nunito,Arial,Helvetica,SansSerif" font-size="12.5" lengthAdjust="spacing" textLength="135.4167" x="808.3333" y="297.0378">kivakit_internal_testing</text><!--MD5=[f41257055ff6c31a77f8312d5e694f18]
entity kivakit_mixins--><rect fill="#1B1B1A" height="44.93" rx="8.3333" ry="8.3333" style="stroke:#5E5E5E;stroke-width:1.5625;" width="120.8333" x="865.625" y="482.8695"/><polygon fill="#1B1B1A" points="968.75,488.0778,968.75,502.6611,981.25,502.6611,981.25,494.3278,975,488.0778,968.75,488.0778" style="stroke:#5E5E5E;stroke-width:1.5625;"/><line style="stroke:#5E5E5E;stroke-width:1.5625;" x1="975" x2="975" y1="488.0778" y2="494.3278"/><line style="stroke:#5E5E5E;stroke-width:1.5625;" x1="981.25" x2="975" y1="494.3278" y2="494.3278"/><text fill="#D8BC00" font-family="Open Sans,Avenir,Nunito,Arial,Helvetica,SansSerif" font-size="12.5" lengthAdjust="spacing" textLength="83.3333" x="879.1667" y="511.6211">kivakit_mixins</text><!--MD5=[789122fdd47ca161e4432768ac68a470]
entity kivakit_resource--><rect fill="#1B1B1A" height="44.93" rx="8.3333" ry="8.3333" style="stroke:#5E5E5E;stroke-width:1.5625;" width="134.375" x="1004.6875" y="268.2861"/><polygon fill="#1B1B1A" points="1121.3542,273.4945,1121.3542,288.0778,1133.8542,288.0778,1133.8542,279.7445,1127.6042,273.4945,1121.3542,273.4945" style="stroke:#5E5E5E;stroke-width:1.5625;"/><line style="stroke:#5E5E5E;stroke-width:1.5625;" x1="1127.6042" x2="1127.6042" y1="273.4945" y2="279.7445"/><line style="stroke:#5E5E5E;stroke-width:1.5625;" x1="1133.8542" x2="1127.6042" y1="279.7445" y2="279.7445"/><text fill="#D8BC00" font-family="Open Sans,Avenir,Nunito,Arial,Helvetica,SansSerif" font-size="12.5" lengthAdjust="spacing" textLength="96.875" x="1018.2292" y="297.0378">kivakit_resource</text><!--MD5=[7b11bf8f6cdaefb37d9e26a0fe1bc824]
entity kivakit_serialization_gson--><rect fill="#1B1B1A" height="44.93" rx="8.3333" ry="8.3333" style="stroke:#5E5E5E;stroke-width:1.5625;" width="188.5417" x="215.1042" y="375.5778"/><polygon fill="#1B1B1A" points="385.9375,380.7861,385.9375,395.3695,398.4375,395.3695,398.4375,387.0361,392.1875,380.7861,385.9375,380.7861" style="stroke:#5E5E5E;stroke-width:1.5625;"/><line style="stroke:#5E5E5E;stroke-width:1.5625;" x1="392.1875" x2="392.1875" y1="380.7861" y2="387.0361"/><line style="stroke:#5E5E5E;stroke-width:1.5625;" x1="398.4375" x2="392.1875" y1="387.0361" y2="387.0361"/><text fill="#D8BC00" font-family="Open Sans,Avenir,Nunito,Arial,Helvetica,SansSerif" font-size="12.5" lengthAdjust="spacing" textLength="151.0417" x="228.6458" y="404.3294">kivakit_serialization_gson</text><!--MD5=[89af034859c241291c45f10ab75c9d6f]
entity kivakit_serialization_properties--><rect fill="#1B1B1A" height="44.93" rx="8.3333" ry="8.3333" style="stroke:#5E5E5E;stroke-width:1.5625;" width="222.9167" x="440.625" y="375.5778"/><polygon fill="#1B1B1A" points="645.8333,380.7861,645.8333,395.3695,658.3333,395.3695,658.3333,387.0361,652.0833,380.7861,645.8333,380.7861" style="stroke:#5E5E5E;stroke-width:1.5625;"/><line style="stroke:#5E5E5E;stroke-width:1.5625;" x1="652.0833" x2="652.0833" y1="380.7861" y2="387.0361"/><line style="stroke:#5E5E5E;stroke-width:1.5625;" x1="658.3333" x2="652.0833" y1="387.0361" y2="387.0361"/><text fill="#D8BC00" font-family="Open Sans,Avenir,Nunito,Arial,Helvetica,SansSerif" font-size="12.5" lengthAdjust="spacing" textLength="185.4167" x="454.1667" y="404.3294">kivakit_serialization_properties</text><!--MD5=[9ba95bb9e8e31957d019d7ac74b23042]
entity kivakit_settings--><rect fill="#1B1B1A" height="44.93" rx="8.3333" ry="8.3333" style="stroke:#5E5E5E;stroke-width:1.5625;" width="128.125" x="367.1875" y="268.2861"/><polygon fill="#1B1B1A" points="477.6042,273.4945,477.6042,288.0778,490.1042,288.0778,490.1042,279.7445,483.8542,273.4945,477.6042,273.4945" style="stroke:#5E5E5E;stroke-width:1.5625;"/><line style="stroke:#5E5E5E;stroke-width:1.5625;" x1="483.8542" x2="483.8542" y1="273.4945" y2="279.7445"/><line style="stroke:#5E5E5E;stroke-width:1.5625;" x1="490.1042" x2="483.8542" y1="279.7445" y2="279.7445"/><text fill="#D8BC00" font-family="Open Sans,Avenir,Nunito,Arial,Helvetica,SansSerif" font-size="12.5" lengthAdjust="spacing" textLength="90.625" x="380.7292" y="297.0378">kivakit_settings</text><!--MD5=[093cb7b544ec48262295604d6acff019]
entity kivakit_testing--><rect fill="#1B1B1A" height="44.93" rx="8.3333" ry="8.3333" style="stroke:#5E5E5E;stroke-width:1.5625;" width="121.875" x="915.1042" y="160.9945"/><polygon fill="#1B1B1A" points="1019.2708,166.2028,1019.2708,180.7861,1031.7708,180.7861,1031.7708,172.4528,1025.5208,166.2028,1019.2708,166.2028" style="stroke:#5E5E5E;stroke-width:1.5625;"/><line style="stroke:#5E5E5E;stroke-width:1.5625;" x1="1025.5208" x2="1025.5208" y1="166.2028" y2="172.4528"/><line style="stroke:#5E5E5E;stroke-width:1.5625;" x1="1031.7708" x2="1025.5208" y1="172.4528" y2="172.4528"/><text fill="#D8BC00" font-family="Open Sans,Avenir,Nunito,Arial,Helvetica,SansSerif" font-size="12.5" lengthAdjust="spacing" textLength="84.375" x="928.6458" y="189.7461">kivakit_testing</text><!--MD5=[80d2a7f8a38f99556dcaa88e0cbe286e]
entity kivakit_validation--><rect fill="#1B1B1A" height="44.93" rx="8.3333" ry="8.3333" style="stroke:#5E5E5E;stroke-width:1.5625;" width="139.5833" x="14.5833" y="482.8695"/><polygon fill="#1B1B1A" points="136.4583,488.0778,136.4583,502.6611,148.9583,502.6611,148.9583,494.3278,142.7083,488.0778,136.4583,488.0778" style="stroke:#5E5E5E;stroke-width:1.5625;"/><line style="stroke:#5E5E5E;stroke-width:1.5625;" x1="142.7083" x2="142.7083" y1="488.0778" y2="494.3278"/><line style="stroke:#5E5E5E;stroke-width:1.5625;" x1="148.9583" x2="142.7083" y1="494.3278" y2="494.3278"/><text fill="#D8BC00" font-family="Open Sans,Avenir,Nunito,Arial,Helvetica,SansSerif" font-size="12.5" lengthAdjust="spacing" textLength="102.0833" x="28.125" y="511.6211">kivakit_validation</text><!--MD5=[7b0fec798d1f32628676dfdf75f1f662]
entity lexakai_annotations--><rect fill="#1B1B1A" height="44.93" rx="8.3333" ry="8.3333" style="stroke:#5E5E5E;stroke-width:1.5625;" width="155.2083" x="1175.5208" y="268.2861"/><polygon fill="#1B1B1A" points="1313.0208,273.4945,1313.0208,288.0778,1325.5208,288.0778,1325.5208,279.7445,1319.2708,273.4945,1313.0208,273.4945" style="stroke:#5E5E5E;stroke-width:1.5625;"/><line style="stroke:#5E5E5E;stroke-width:1.5625;" x1="1319.2708" x2="1319.2708" y1="273.4945" y2="279.7445"/><line style="stroke:#5E5E5E;stroke-width:1.5625;" x1="1325.5208" x2="1319.2708" y1="279.7445" y2="279.7445"/><text fill="#D8BC00" font-family="Open Sans,Avenir,Nunito,Arial,Helvetica,SansSerif" font-size="12.5" lengthAdjust="spacing" textLength="117.7083" x="1189.0625" y="297.0378">lexakai_annotations</text><!--MD5=[ce55b294004802c137560c2930be5b75]
entity junit--><rect fill="#1B1B1A" height="44.93" rx="8.3333" ry="8.3333" style="stroke:#5E5E5E;stroke-width:1.5625;" width="63.5417" x="849.4792" y="375.5778"/><polygon fill="#1B1B1A" points="895.3125,380.7861,895.3125,395.3695,907.8125,395.3695,907.8125,387.0361,901.5625,380.7861,895.3125,380.7861" style="stroke:#5E5E5E;stroke-width:1.5625;"/><line style="stroke:#5E5E5E;stroke-width:1.5625;" x1="901.5625" x2="901.5625" y1="380.7861" y2="387.0361"/><line style="stroke:#5E5E5E;stroke-width:1.5625;" x1="907.8125" x2="901.5625" y1="387.0361" y2="387.0361"/><text fill="#D8BC00" font-family="Open Sans,Avenir,Nunito,Arial,Helvetica,SansSerif" font-size="12.5" lengthAdjust="spacing" textLength="26.0417" x="863.0208" y="404.3294">junit</text><!--MD5=[7f157d37bc1fd6ac970bb67ffdbc66a3]
entity hamcrest_core--><rect fill="#1B1B1A" height="44.93" rx="8.3333" ry="8.3333" style="stroke:#5E5E5E;stroke-width:1.5625;" width="125" x="1022.9167" y="482.8695"/><polygon fill="#1B1B1A" points="1130.2083,488.0778,1130.2083,502.6611,1142.7083,502.6611,1142.7083,494.3278,1136.4583,488.0778,1130.2083,488.0778" style="stroke:#5E5E5E;stroke-width:1.5625;"/><line style="stroke:#5E5E5E;stroke-width:1.5625;" x1="1136.4583" x2="1136.4583" y1="488.0778" y2="494.3278"/><line style="stroke:#5E5E5E;stroke-width:1.5625;" x1="1142.7083" x2="1136.4583" y1="494.3278" y2="494.3278"/><text fill="#D8BC00" font-family="Open Sans,Avenir,Nunito,Arial,Helvetica,SansSerif" font-size="12.5" lengthAdjust="spacing" textLength="87.5" x="1036.4583" y="511.6211">hamcrest_core</text><!--MD5=[b728e17b4e4da6aa8cb97e9b2766c5e6]
entity annotations--><rect fill="#1B1B1A" height="44.93" rx="8.3333" ry="8.3333" style="stroke:#5E5E5E;stroke-width:1.5625;" width="106.25" x="950" y="375.5778"/><polygon fill="#1B1B1A" points="1038.5417,380.7861,1038.5417,395.3695,1051.0417,395.3695,1051.0417,387.0361,1044.7917,380.7861,1038.5417,380.7861" style="stroke:#5E5E5E;stroke-width:1.5625;"/><line style="stroke:#5E5E5E;stroke-width:1.5625;" x1="1044.7917" x2="1044.7917" y1="380.7861" y2="387.0361"/><line style="stroke:#5E5E5E;stroke-width:1.5625;" x1="1051.0417" x2="1044.7917" y1="387.0361" y2="387.0361"/><text fill="#D8BC00" font-family="Open Sans,Avenir,Nunito,Arial,Helvetica,SansSerif" font-size="12.5" lengthAdjust="spacing" textLength="68.75" x="963.5417" y="404.3294">annotations</text><!--MD5=[d68e7c4b3ca5f037bcb6997a0b4ed16b]
link junit to hamcrest_core--><path d="M913.1458,415.4528 C946.8542,432.8174 1000.3333,460.3799 1038.7708,480.1924 " fill="none" id="junit-to-hamcrest_core" style="stroke:#545454;stroke-width:1.5625;"/><polygon fill="#545454" points="1043.8542,482.807,1037.4442,474.7967,1039.2289,480.4125,1033.6131,482.1972,1043.8542,482.807" style="stroke:#545454;stroke-width:1.5625;"/><!--MD5=[233173b8414f4008c96b85f34b766932]
link kivakit_commandline to kivakit_validation--><path d="M87.6771,420.8174 C87.0208,437.2861 86.125,459.984 85.4271,477.5361 " fill="none" id="kivakit_commandline-to-kivakit_validation" style="stroke:#545454;stroke-width:1.5625;"/><polygon fill="#545454" points="85.2188,482.8174,89.7568,473.6164,85.4269,477.6132,81.4301,473.2833,85.2188,482.8174" style="stroke:#545454;stroke-width:1.5625;"/><!--MD5=[6553ae66f819c74bf4f1def35a2859e3]
link kivakit_component to kivakit_settings--><path d="M617.9167,205.8486 C578.9479,223.3382 523.9271,248.0361 483.7188,266.0882 " fill="none" id="kivakit_component-to-kivakit_settings" style="stroke:#545454;stroke-width:1.5625;"/><polygon fill="#545454" points="478.8958,268.2549,489.155,268.2074,483.6454,266.1176,485.7352,260.608,478.8958,268.2549" style="stroke:#545454;stroke-width:1.5625;"/><!--MD5=[a27c71d033f650a74e689916edfa2bee]
link kivakit_core to cactus_build_metadata--><path d="M718.4479,420.557 C686.4063,437.859 641.4271,462.1507 608.1979,480.109 " fill="none" id="kivakit_core-to-cactus_build_metadata" style="stroke:#545454;stroke-width:1.5625;"/><polygon fill="#545454" points="603.375,482.7132,613.6045,481.9332,607.9598,480.2422,609.6509,474.5975,603.375,482.7132" style="stroke:#545454;stroke-width:1.5625;"/><!--MD5=[50e8d2e340cfb1a2dae3d5796adb8458]
link kivakit_core to kivakit_interfaces--><path d="M758.3333,420.8174 C758.3333,437.2861 758.3333,459.984 758.3333,477.5361 " fill="none" id="kivakit_core-to-kivakit_interfaces" style="stroke:#545454;stroke-width:1.5625;"/><polygon fill="#545454" points="758.3333,482.8174,762.5,473.4424,758.3333,477.609,754.1667,473.4424,758.3333,482.8174" style="stroke:#545454;stroke-width:1.5625;"/><!--MD5=[cc9720141deba8e1bd3912e4e0759165]
link kivakit_core to kivakit_mixins--><path d="M792.6771,420.557 C820.1458,437.7965 858.6667,461.9528 887.25,479.8903 " fill="none" id="kivakit_core-to-kivakit_mixins" style="stroke:#545454;stroke-width:1.5625;"/><polygon fill="#545454" points="891.7396,482.7132,886.0186,474.1972,887.3296,479.9421,881.5848,481.2532,891.7396,482.7132" style="stroke:#545454;stroke-width:1.5625;"/><!--MD5=[e18b5e4135eaf26f4614ddaef779b39e]
link kivakit_filesystems_java to kivakit_component--><path d="M733.3438,98.9424 C719.7396,115.6924 700.9063,138.8903 686.5521,156.5674 " fill="none" id="kivakit_filesystems_java-to-kivakit_component" style="stroke:#545454;stroke-width:1.5625;"/><polygon fill="#545454" points="683.0104,160.9424,692.156,156.2938,686.2948,156.9001,685.6884,151.0388,683.0104,160.9424" style="stroke:#545454;stroke-width:1.5625;"/><!--MD5=[d486812d1711012d2b71bcb1bf2d7c5b]
link kivakit_filesystems_java to kivakit_testing--><path d="M796.8438,98.557 C834.1042,115.984 886.6354,140.5465 925.1979,158.5778 " fill="none" id="kivakit_filesystems_java-to-kivakit_testing" style="stroke:#545454;stroke-width:1.5625;"/><polygon fill="#545454" points="930.3021,160.9632,923.57,153.2217,925.5828,158.7599,920.0446,160.7727,930.3021,160.9632" style="stroke:#545454;stroke-width:1.5625;"/><!--MD5=[4b82e2a0b2f04a403edf9234c3d60217]
link kivakit_internal_testing to annotations--><path d="M906.2083,313.2653 C925.9271,330.2861 953.4688,354.0674 974.1563,371.932 " fill="none" id="kivakit_internal_testing-to-annotations" style="stroke:#545454;stroke-width:1.5625;"/><polygon fill="#545454" points="978.1979,375.4215,973.8289,366.1391,974.2571,372.0161,968.3802,372.4444,978.1979,375.4215" style="stroke:#545454;stroke-width:1.5625;"/><!--MD5=[5b546c273a7ef3c2ac177c7373ad10f4]
link kivakit_internal_testing to junit--><path d="M881.25,313.5257 C881.25,329.9945 881.25,352.6924 881.25,370.2445 " fill="none" id="kivakit_internal_testing-to-junit" style="stroke:#545454;stroke-width:1.5625;"/><polygon fill="#545454" points="881.25,375.5257,885.4167,366.1507,881.25,370.3174,877.0833,366.1507,881.25,375.5257" style="stroke:#545454;stroke-width:1.5625;"/><!--MD5=[9ff0374f3acf91c6102306622609bacc]
link kivakit_internal_testing to kivakit_core--><path d="M856.0833,313.2653 C836.1979,330.2861 808.4167,354.0674 787.5417,371.932 " fill="none" id="kivakit_internal_testing-to-kivakit_core" style="stroke:#545454;stroke-width:1.5625;"/><polygon fill="#545454" points="783.4688,375.4215,793.2984,372.4839,787.4232,372.032,787.8751,366.1568,783.4688,375.4215" style="stroke:#545454;stroke-width:1.5625;"/><!--MD5=[1f920e5641e1a651a42d763be0b203c8]
link kivakit_resource to kivakit_collections--><path d="M1091.0833,313.5257 C1105.9792,330.4215 1126.6354,353.8695 1142.2604,371.5986 " fill="none" id="kivakit_resource-to-kivakit_collections" style="stroke:#545454;stroke-width:1.5625;"/><polygon fill="#545454" points="1145.7188,375.5257,1142.6441,365.7381,1142.2743,371.619,1136.3933,371.2492,1145.7188,375.5257" style="stroke:#545454;stroke-width:1.5625;"/><!--MD5=[526b50f83d962021076ab4af7a206f26]
link kivakit_serialization_gson to gson--><path d="M291.6771,420.8174 C278.0729,437.5674 259.2396,460.7653 244.8854,478.4424 " fill="none" id="kivakit_serialization_gson-to-gson" style="stroke:#545454;stroke-width:1.5625;"/><polygon fill="#545454" points="241.3438,482.8174,250.4894,478.1688,244.6281,478.7751,244.0217,472.9138,241.3438,482.8174" style="stroke:#545454;stroke-width:1.5625;"/><!--MD5=[b77bfac3d9f3d71d792371bb2582fe6b]
link kivakit_serialization_gson to kivakit_conversion--><path d="M321.25,420.8174 C330.2917,437.432 342.7917,460.3695 352.3854,477.9945 " fill="none" id="kivakit_serialization_gson-to-kivakit_conversion" style="stroke:#545454;stroke-width:1.5625;"/><polygon fill="#545454" points="355.0104,482.8174,354.1908,472.591,352.5216,478.2422,346.8704,476.573,355.0104,482.8174" style="stroke:#545454;stroke-width:1.5625;"/><!--MD5=[617b6bc9ab2f7e62743114de08919b91]
link kivakit_settings to kivakit_commandline--><path d="M366.7917,311.5153 C308.9896,329.2549 224.1563,355.2965 163.375,373.9528 " fill="none" id="kivakit_settings-to-kivakit_commandline" style="stroke:#545454;stroke-width:1.5625;"/><polygon fill="#545454" points="158.3125,375.5153,168.4957,376.7621,163.2937,373.9941,166.0617,368.7921,158.3125,375.5153" style="stroke:#545454;stroke-width:1.5625;"/><!--MD5=[db7a3e58ae015a2db9e73bbbc331f313]
link kivakit_settings to kivakit_serialization_gson--><path d="M406.2917,313.2653 C386.5729,330.2861 359.0313,354.0674 338.3438,371.932 " fill="none" id="kivakit_settings-to-kivakit_serialization_gson" style="stroke:#545454;stroke-width:1.5625;"/><polygon fill="#545454" points="334.3021,375.4215,344.1198,372.4444,338.2429,372.0161,338.6711,366.1391,334.3021,375.4215" style="stroke:#545454;stroke-width:1.5625;"/><!--MD5=[9a29ae8e9245e25ea51914d5ea8f3bfd]
link kivakit_settings to kivakit_serialization_properties--><path d="M455.9896,313.2653 C475.5417,330.2861 502.8542,354.0674 523.3646,371.932 " fill="none" id="kivakit_settings-to-kivakit_serialization_properties" style="stroke:#545454;stroke-width:1.5625;"/><polygon fill="#545454" points="527.375,375.4215,523.0434,366.1216,523.448,372.0003,517.5693,372.4049,527.375,375.4215" style="stroke:#545454;stroke-width:1.5625;"/><!--MD5=[3d312d8b1cc36eed503155bb7da7af54]
link kivakit_testing to kivakit_internal_testing--><path d="M956.3958,206.234 C941.1771,223.1299 920.0521,246.5778 904.0729,264.307 " fill="none" id="kivakit_testing-to-kivakit_internal_testing" style="stroke:#545454;stroke-width:1.5625;"/><polygon fill="#545454" points="900.5417,268.234,909.9103,264.053,904.0259,264.3627,903.7162,258.4783,900.5417,268.234" style="stroke:#545454;stroke-width:1.5625;"/><!--MD5=[e950a5b5fa0aa5b7cf3d9e9456c5003b]
link kivakit_testing to kivakit_resource--><path d="M995.8958,206.234 C1011.2917,223.1299 1032.6458,246.5778 1048.8021,264.307 " fill="none" id="kivakit_testing-to-kivakit_resource" style="stroke:#545454;stroke-width:1.5625;"/><polygon fill="#545454" points="1052.375,268.234,1049.1218,258.5043,1048.8596,264.391,1042.9729,264.1288,1052.375,268.234" style="stroke:#545454;stroke-width:1.5625;"/><!--MD5=[c6853ac292364894b6592ed62b55b579]
link kivakit_testing to lexakai_annotations--><path d="M1032.4479,205.8486 C1078.7083,223.4111 1144.0833,248.234 1191.6667,266.307 " fill="none" id="kivakit_testing-to-lexakai_annotations" style="stroke:#545454;stroke-width:1.5625;"/><polygon fill="#545454" points="1196.8021,268.2549,1189.5135,261.0348,1191.9321,266.4082,1186.5588,268.8268,1196.8021,268.2549" style="stroke:#545454;stroke-width:1.5625;"/><!--MD5=[72542ae6d896dd30cdb0efcd51d53c07]
@startuml

    !include lexakai.theme
    
    title "kivakit-filesystems-java"
    
    artifact gson
    artifact cactus_build_metadata
    artifact kivakit_collections
    artifact kivakit_commandline
    artifact kivakit_component
    artifact kivakit_conversion
    artifact kivakit_core
    artifact kivakit_filesystems_java
    artifact kivakit_interfaces
    artifact kivakit_internal_testing
    artifact kivakit_mixins
    artifact kivakit_resource
    artifact kivakit_serialization_gson
    artifact kivakit_serialization_properties
    artifact kivakit_settings
    artifact kivakit_testing
    artifact kivakit_validation
    artifact lexakai_annotations
    artifact junit
    artifact hamcrest_core
    artifact annotations
    junit - -> hamcrest_core
    kivakit_commandline - -> kivakit_validation
    kivakit_component - -> kivakit_settings
    kivakit_core - -> cactus_build_metadata
    kivakit_core - -> kivakit_interfaces
    kivakit_core - -> kivakit_mixins
    kivakit_filesystems_java - -> kivakit_component
    kivakit_filesystems_java - -> kivakit_testing
    kivakit_internal_testing - -> annotations
    kivakit_internal_testing - -> junit
    kivakit_internal_testing - -> kivakit_core
    kivakit_resource - -> kivakit_collections
    kivakit_serialization_gson - -> gson
    kivakit_serialization_gson - -> kivakit_conversion
    kivakit_settings - -> kivakit_commandline
    kivakit_settings - -> kivakit_serialization_gson
    kivakit_settings - -> kivakit_serialization_properties
    kivakit_testing - -> kivakit_internal_testing
    kivakit_testing - -> kivakit_resource
    kivakit_testing - -> lexakai_annotations
    
@enduml

@startuml









skinparam backgroundColor #333333






skinparam  {
    defaultFontName   "Open Sans,Avenir,Nunito,Arial,Helvetica,SansSerif"
    defaultFontSize   12
    defaultTextAlignment left
    shadowing false
    RoundCorner 10
    TitleFontSize 18
}

skinparam defaultFontName       "Open Sans,Avenir,Nunito,Arial,Helvetica,SansSerif"
skinparam defaultFontSize       12
skinparam dpi                   100
skinparam shadowing             false
skinparam roundcorner           16
skinparam ParticipantPadding    40
skinparam BoxPadding            40
skinparam Padding               3
skinparam ArrowColor            #545454
skinparam stereotype {
    CBackgroundColor #0066cf
    CBorderColor #0086ef
    ABackgroundColor #C8Ac00
    ABorderColor #D8Bc00
    IBackgroundColor #008400
    IBorderColor #239c23
    EBackgroundColor #cf6300
    EBorderColor #ef8300
    NBackgroundColor #3380b9
    NBorderColor #004d86
}
skinparam title {
	FontColor	                 #c0c0c0
 	BorderColor                  #545454
	FontSize	    	         20
	BorderRoundCorner            16
	BorderThickness 	         1
	BackgroundColor              #48494b
}


skinparam legend {
	BackgroundColor #303030
	BorderColor #404040
	FontColor #a0a0a0
}

	skinparam swimlane {
	BorderColor #5e5e5e
	BorderThickness 2
	TitleBackgroundColor  #6d6d6d-#484848
	TitleFontColor #303030
}

skinparam activity {
		FontColor #C8Ac00
	BorderColor #333333
	BackgroundColor #333333-#333333
	BarColor #00FF00
	StartColor #0060a8
	EndColor #0060a8
	DiamondBackgroundColor #6d6d6d-#3a3a3a
  	DiamondBorderColor #3a3a3a
  	DiamondFontColor #fefefe
}


skinparam participant {
		FontColor #C8Ac00
	BorderColor #333333
	BackgroundColor #333333-#333333
	ParticipantBorderThickness 2
}


skinparam actor {
		FontColor #C8Ac00
	BorderColor #333333
	BackgroundColor #333333-#333333
}


skinparam arrow {
	Thickness 1.5
	Color #545454
	FontColor #a0a0a0
    FontStyle bold
    MessageAlignment center
}



skinparam sequence {
	BorderColor #303030
	TitleFontColor #303030
	BackgroundColor #333333
	StartColor #303030
	EndColor #303030
	BoxBackgroundColor #333333
	BoxBorderColor #484848
	BoxFontColor #484848
	LifeLineBorderColor #484848
	LifeLineBorderThickness 2
	LifeLineBackgroundColor #3a3a3a
	GroupBorderColor #484848
	GroupFontColor #484848
	GroupHeaderFontColor #0060a8
	GroupBackgroundColor #484848
	GroupHeaderBackgroundColor #333333
	DividerBackgroundColor #484848
    DividerBorderColor #484848
    DividerBorderThickness 2
    DividerFontColor #D8Bc00
	ReferenceBackgroundColor #333333
	ReferenceBorderColor #484848
	ReferenceFontColor #fefefe
	ReferenceHeaderBackgroundColor #484848
}


skinparam partition {
	BorderColor #303030
	FontColor #333333
	BackgroundColor #333333
}


skinparam collections {
		FontColor #C8Ac00
	BorderColor #333333
	BackgroundColor #333333-#333333
}


skinparam control {
		FontColor #C8Ac00
	BorderColor #333333
	BackgroundColor #333333-#333333
}


skinparam entity {
		FontColor #C8Ac00
	BorderColor #333333
	BackgroundColor #333333-#333333
}


skinparam boundary {
		FontColor #C8Ac00
	BorderColor #333333
	BackgroundColor #333333-#333333
}


skinparam agent {
	BackgroundColor #ff8000
	BorderColor #ff9933
	FontColor #484848
}


skinparam note {
	BorderThickness 1
	BackgroundColor #1b1b1a
	BorderColor #5e5e5e
	FontSize 11
	FontColor #a0a0a0
}


skinparam artifact {
	BorderThickness 10
	BorderColor #5e5e5e
	BackgroundColor #1b1b1a
	FontColor #D8Bc00
}


skinparam component {
		FontColor #C8Ac00
	BorderColor #333333
	BackgroundColor #333333-#333333
}


skinparam interface {
	BackgroundColor  #008400
	BorderColor  #007F00
	FontColor #484848
}


skinparam storage {
	BackgroundColor #ff8000
  	BorderColor #cc6600
	FontColor #222222
}


skinparam node {
	BackgroundColor #333333
	BorderColor #333333
	FontColor #C8Ac00
}


skinparam cloud {
	BackgroundColor #484848-black
	BorderColor #484848
	FontColor #D8Bc00
}


skinparam database {
		FontColor #C8Ac00
	BorderColor #333333
	BackgroundColor #333333-#333333
	BackgroundColor  #333333
}


skinparam class {
		FontColor #C8Ac00
	BorderColor #333333
	BackgroundColor #333333-#333333
	HeaderBackgroundColor #1b1b1a
    BackgroundColor #282828
    BorderColor #5e5e5e
 	StereotypeFontColor #a0a0a0
    StereotypeFontStyle bold
	BorderThickness 1
	AttributeFontColor #D8Bc00
	AttributeFontSize 11
    FontColor #D8Bc00
    FontStyle bold
}


skinparam object {
		FontColor #C8Ac00
	BorderColor #333333
	BackgroundColor #333333-#333333
	StereotypeFontColor #484848
	BorderThickness 1
	AttributeFontColor #fefefe
	AttributeFontSize 11
}


skinparam usecase {
		FontColor #C8Ac00
	BorderColor #333333
	BackgroundColor #333333-#333333
	BorderThickness 2
	StereotypeFontColor #303030
}


skinparam rectangle {
		FontColor #C8Ac00
	BorderColor #333333
	BackgroundColor #333333-#333333
	BackgroundColor #333333
	BorderThickness 2
	StereotypeFontColor #303030
}


skinparam package {
		FontColor #C8Ac00
	BorderColor #333333
	BackgroundColor #333333-#333333
	BackgroundColor #333333
	BorderThickness 2
}


skinparam folder {
	BackgroundColor #6d6d6d
  	BorderColor #ff8000
	FontColor #ff8000
	BorderThickness 2
}


skinparam frame {
	BackgroundColor #6d6d6d
  	BorderColor #0060a8
	FontColor #0060a8
	BorderThickness 2
}


skinparam state {
		FontColor #C8Ac00
	BorderColor #333333
	BackgroundColor #333333-#333333
	StartColor #0060a8
	EndColor #0060a8
	AttributeFontColor #fefefe
	AttributeFontSize 11
}


skinparam queue {
		FontColor #C8Ac00
	BorderColor #333333
	BackgroundColor #333333-#333333
}


skinparam card {
	BackgroundColor #0060a8
	BorderColor #004d86
	FontColor $INFO_TEXT
}


skinparam file {
	BackgroundColor #6d6d6d-#484848
	BorderColor #0060a8
	FontColor #fefefe
}


skinparam stack {
		FontColor #C8Ac00
	BorderColor #333333
	BackgroundColor #333333-#333333
}

    
    title "kivakit-filesystems-java"
    
    artifact gson
    artifact cactus_build_metadata
    artifact kivakit_collections
    artifact kivakit_commandline
    artifact kivakit_component
    artifact kivakit_conversion
    artifact kivakit_core
    artifact kivakit_filesystems_java
    artifact kivakit_interfaces
    artifact kivakit_internal_testing
    artifact kivakit_mixins
    artifact kivakit_resource
    artifact kivakit_serialization_gson
    artifact kivakit_serialization_properties
    artifact kivakit_settings
    artifact kivakit_testing
    artifact kivakit_validation
    artifact lexakai_annotations
    artifact junit
    artifact hamcrest_core
    artifact annotations
    junit - -> hamcrest_core
    kivakit_commandline - -> kivakit_validation
    kivakit_component - -> kivakit_settings
    kivakit_core - -> cactus_build_metadata
    kivakit_core - -> kivakit_interfaces
    kivakit_core - -> kivakit_mixins
    kivakit_filesystems_java - -> kivakit_component
    kivakit_filesystems_java - -> kivakit_testing
    kivakit_internal_testing - -> annotations
    kivakit_internal_testing - -> junit
    kivakit_internal_testing - -> kivakit_core
    kivakit_resource - -> kivakit_collections
    kivakit_serialization_gson - -> gson
    kivakit_serialization_gson - -> kivakit_conversion
    kivakit_settings - -> kivakit_commandline
    kivakit_settings - -> kivakit_serialization_gson
    kivakit_settings - -> kivakit_serialization_properties
    kivakit_testing - -> kivakit_internal_testing
    kivakit_testing - -> kivakit_resource
    kivakit_testing - -> lexakai_annotations
    
@enduml

PlantUML version 1.2021.01(Tue Feb 02 00:55:08 MST 2021)
(GPL source distribution)
Java Runtime: OpenJDK Runtime Environment
JVM: OpenJDK 64-Bit Server VM
Default Encoding: UTF-8
Language: en
Country: US
--></g></svg>