<?xml version="1.0" encoding="UTF-8" standalone="no"?><svg xmlns="http://www.w3.org/2000/svg" xmlns:xlink="http://www.w3.org/1999/xlink" contentScriptType="application/ecmascript" contentStyleType="text/css" height="533.3333px" preserveAspectRatio="none" style="width:1684px;height:533px;background:#333333;" version="1.1" viewBox="0 0 1684 533" width="1684.375px" zoomAndPan="magnify"><defs/><g><rect fill="#48494B" height="41.2028" rx="8.3333" ry="8.3333" style="stroke:#545454;stroke-width:1.0416666666666667;" width="310.4167" x="679.6875" y="2.0833"/><text fill="#C0C0C0" font-family="Open Sans,Avenir,Nunito,Arial,Helvetica,SansSerif" font-size="20.8333" lengthAdjust="spacing" textLength="287.5" x="691.1458" y="30.5583">kivakit-primitive-collections</text><!--MD5=[4f079977920bf52107586fb847a1e92c]
entity kryo--><rect fill="#1B1B1A" height="44.93" rx="8.3333" ry="8.3333" style="stroke:#5E5E5E;stroke-width:1.5625;" width="63.5417" x="786.9792" y="268.2861"/><polygon fill="#1B1B1A" points="832.8125,273.4945,832.8125,288.0778,845.3125,288.0778,845.3125,279.7445,839.0625,273.4945,832.8125,273.4945" style="stroke:#5E5E5E;stroke-width:1.5625;"/><line style="stroke:#5E5E5E;stroke-width:1.5625;" x1="839.0625" x2="839.0625" y1="273.4945" y2="279.7445"/><line style="stroke:#5E5E5E;stroke-width:1.5625;" x1="845.3125" x2="839.0625" y1="279.7445" y2="279.7445"/><text fill="#D8BC00" font-family="Open Sans,Avenir,Nunito,Arial,Helvetica,SansSerif" font-size="12.5" lengthAdjust="spacing" textLength="26.0417" x="800.5208" y="297.0378">kryo</text><!--MD5=[745ab22dbfa32e29a2660b9e5bc2262a]
entity minlog--><rect fill="#1B1B1A" height="44.93" rx="8.3333" ry="8.3333" style="stroke:#5E5E5E;stroke-width:1.5625;" width="77.0833" x="655.2083" y="375.5778"/><polygon fill="#1B1B1A" points="714.5833,380.7861,714.5833,395.3695,727.0833,395.3695,727.0833,387.0361,720.8333,380.7861,714.5833,380.7861" style="stroke:#5E5E5E;stroke-width:1.5625;"/><line style="stroke:#5E5E5E;stroke-width:1.5625;" x1="720.8333" x2="720.8333" y1="380.7861" y2="387.0361"/><line style="stroke:#5E5E5E;stroke-width:1.5625;" x1="727.0833" x2="720.8333" y1="387.0361" y2="387.0361"/><text fill="#D8BC00" font-family="Open Sans,Avenir,Nunito,Arial,Helvetica,SansSerif" font-size="12.5" lengthAdjust="spacing" textLength="39.5833" x="668.75" y="404.3294">minlog</text><!--MD5=[5d0bc62e6e2e5a8467f655d5e580826c]
entity reflectasm--><rect fill="#1B1B1A" height="44.93" rx="8.3333" ry="8.3333" style="stroke:#5E5E5E;stroke-width:1.5625;" width="100" x="768.75" y="375.5778"/><polygon fill="#1B1B1A" points="851.0417,380.7861,851.0417,395.3695,863.5417,395.3695,863.5417,387.0361,857.2917,380.7861,851.0417,380.7861" style="stroke:#5E5E5E;stroke-width:1.5625;"/><line style="stroke:#5E5E5E;stroke-width:1.5625;" x1="857.2917" x2="857.2917" y1="380.7861" y2="387.0361"/><line style="stroke:#5E5E5E;stroke-width:1.5625;" x1="863.5417" x2="857.2917" y1="387.0361" y2="387.0361"/><text fill="#D8BC00" font-family="Open Sans,Avenir,Nunito,Arial,Helvetica,SansSerif" font-size="12.5" lengthAdjust="spacing" textLength="62.5" x="782.2917" y="404.3294">reflectasm</text><!--MD5=[4aa4ddcf3dc6d6219283db0a9fd05165]
entity cactus_build_metadata--><rect fill="#1B1B1A" height="44.93" rx="8.3333" ry="8.3333" style="stroke:#5E5E5E;stroke-width:1.5625;" width="175" x="7.2917" y="375.5778"/><polygon fill="#1B1B1A" points="164.5833,380.7861,164.5833,395.3695,177.0833,395.3695,177.0833,387.0361,170.8333,380.7861,164.5833,380.7861" style="stroke:#5E5E5E;stroke-width:1.5625;"/><line style="stroke:#5E5E5E;stroke-width:1.5625;" x1="170.8333" x2="170.8333" y1="380.7861" y2="387.0361"/><line style="stroke:#5E5E5E;stroke-width:1.5625;" x1="177.0833" x2="170.8333" y1="387.0361" y2="387.0361"/><text fill="#D8BC00" font-family="Open Sans,Avenir,Nunito,Arial,Helvetica,SansSerif" font-size="12.5" lengthAdjust="spacing" textLength="137.5" x="20.8333" y="404.3294">cactus_build_metadata</text><!--MD5=[4facc4376e4b6bfc182ce14f42a813f9]
entity kivakit_collections--><rect fill="#1B1B1A" height="44.93" rx="8.3333" ry="8.3333" style="stroke:#5E5E5E;stroke-width:1.5625;" width="143.75" x="511.4583" y="160.9945"/><polygon fill="#1B1B1A" points="637.5,166.2028,637.5,180.7861,650,180.7861,650,172.4528,643.75,166.2028,637.5,166.2028" style="stroke:#5E5E5E;stroke-width:1.5625;"/><line style="stroke:#5E5E5E;stroke-width:1.5625;" x1="643.75" x2="643.75" y1="166.2028" y2="172.4528"/><line style="stroke:#5E5E5E;stroke-width:1.5625;" x1="650" x2="643.75" y1="172.4528" y2="172.4528"/><text fill="#D8BC00" font-family="Open Sans,Avenir,Nunito,Arial,Helvetica,SansSerif" font-size="12.5" lengthAdjust="spacing" textLength="106.25" x="525" y="189.7461">kivakit_collections</text><!--MD5=[b7af8d5b7902cf06664f76dfe0f9e426]
entity kivakit_commandline--><rect fill="#1B1B1A" height="44.93" rx="8.3333" ry="8.3333" style="stroke:#5E5E5E;stroke-width:1.5625;" width="162.5" x="1037.5" y="375.5778"/><polygon fill="#1B1B1A" points="1182.2917,380.7861,1182.2917,395.3695,1194.7917,395.3695,1194.7917,387.0361,1188.5417,380.7861,1182.2917,380.7861" style="stroke:#5E5E5E;stroke-width:1.5625;"/><line style="stroke:#5E5E5E;stroke-width:1.5625;" x1="1188.5417" x2="1188.5417" y1="380.7861" y2="387.0361"/><line style="stroke:#5E5E5E;stroke-width:1.5625;" x1="1194.7917" x2="1188.5417" y1="387.0361" y2="387.0361"/><text fill="#D8BC00" font-family="Open Sans,Avenir,Nunito,Arial,Helvetica,SansSerif" font-size="12.5" lengthAdjust="spacing" textLength="125" x="1051.0417" y="404.3294">kivakit_commandline</text><!--MD5=[dafc80021cd29aae9231cf20b1d6436c]
entity kivakit_conversion--><rect fill="#1B1B1A" height="44.93" rx="8.3333" ry="8.3333" style="stroke:#5E5E5E;stroke-width:1.5625;" width="145.8333" x="747.9167" y="160.9945"/><polygon fill="#1B1B1A" points="876.0417,166.2028,876.0417,180.7861,888.5417,180.7861,888.5417,172.4528,882.2917,166.2028,876.0417,166.2028" style="stroke:#5E5E5E;stroke-width:1.5625;"/><line style="stroke:#5E5E5E;stroke-width:1.5625;" x1="882.2917" x2="882.2917" y1="166.2028" y2="172.4528"/><line style="stroke:#5E5E5E;stroke-width:1.5625;" x1="888.5417" x2="882.2917" y1="172.4528" y2="172.4528"/><text fill="#D8BC00" font-family="Open Sans,Avenir,Nunito,Arial,Helvetica,SansSerif" font-size="12.5" lengthAdjust="spacing" textLength="108.3333" x="761.4583" y="189.7461">kivakit_conversion</text><!--MD5=[ae4286fb09ce878b5ed12f89a26eee54]
entity kivakit_core--><rect fill="#1B1B1A" height="44.93" rx="8.3333" ry="8.3333" style="stroke:#5E5E5E;stroke-width:1.5625;" width="108.3333" x="403.125" y="268.2861"/><polygon fill="#1B1B1A" points="493.75,273.4945,493.75,288.0778,506.25,288.0778,506.25,279.7445,500,273.4945,493.75,273.4945" style="stroke:#5E5E5E;stroke-width:1.5625;"/><line style="stroke:#5E5E5E;stroke-width:1.5625;" x1="500" x2="500" y1="273.4945" y2="279.7445"/><line style="stroke:#5E5E5E;stroke-width:1.5625;" x1="506.25" x2="500" y1="279.7445" y2="279.7445"/><text fill="#D8BC00" font-family="Open Sans,Avenir,Nunito,Arial,Helvetica,SansSerif" font-size="12.5" lengthAdjust="spacing" textLength="70.8333" x="416.6667" y="297.0378">kivakit_core</text><!--MD5=[b582392a7118229602de187c1b0722c2]
entity kivakit_interfaces--><rect fill="#1B1B1A" height="44.93" rx="8.3333" ry="8.3333" style="stroke:#5E5E5E;stroke-width:1.5625;" width="140.625" x="219.2708" y="375.5778"/><polygon fill="#1B1B1A" points="342.1875,380.7861,342.1875,395.3695,354.6875,395.3695,354.6875,387.0361,348.4375,380.7861,342.1875,380.7861" style="stroke:#5E5E5E;stroke-width:1.5625;"/><line style="stroke:#5E5E5E;stroke-width:1.5625;" x1="348.4375" x2="348.4375" y1="380.7861" y2="387.0361"/><line style="stroke:#5E5E5E;stroke-width:1.5625;" x1="354.6875" x2="348.4375" y1="387.0361" y2="387.0361"/><text fill="#D8BC00" font-family="Open Sans,Avenir,Nunito,Arial,Helvetica,SansSerif" font-size="12.5" lengthAdjust="spacing" textLength="103.125" x="232.8125" y="404.3294">kivakit_interfaces</text><!--MD5=[f41257055ff6c31a77f8312d5e694f18]
entity kivakit_mixins--><rect fill="#1B1B1A" height="44.93" rx="8.3333" ry="8.3333" style="stroke:#5E5E5E;stroke-width:1.5625;" width="120.8333" x="396.875" y="375.5778"/><polygon fill="#1B1B1A" points="500,380.7861,500,395.3695,512.5,395.3695,512.5,387.0361,506.25,380.7861,500,380.7861" style="stroke:#5E5E5E;stroke-width:1.5625;"/><line style="stroke:#5E5E5E;stroke-width:1.5625;" x1="506.25" x2="506.25" y1="380.7861" y2="387.0361"/><line style="stroke:#5E5E5E;stroke-width:1.5625;" x1="512.5" x2="506.25" y1="387.0361" y2="387.0361"/><text fill="#D8BC00" font-family="Open Sans,Avenir,Nunito,Arial,Helvetica,SansSerif" font-size="12.5" lengthAdjust="spacing" textLength="83.3333" x="410.4167" y="404.3294">kivakit_mixins</text><!--MD5=[86ee71b084d15cd1b0bd9313024b3d4d]
entity kivakit_primitive_collections--><rect fill="#1B1B1A" height="44.93" rx="8.3333" ry="8.3333" style="stroke:#5E5E5E;stroke-width:1.5625;" width="202.0833" x="719.7917" y="53.7028"/><polygon fill="#1B1B1A" points="904.1667,58.9111,904.1667,73.4945,916.6667,73.4945,916.6667,65.1611,910.4167,58.9111,904.1667,58.9111" style="stroke:#5E5E5E;stroke-width:1.5625;"/><line style="stroke:#5E5E5E;stroke-width:1.5625;" x1="910.4167" x2="910.4167" y1="58.9111" y2="65.1611"/><line style="stroke:#5E5E5E;stroke-width:1.5625;" x1="916.6667" x2="910.4167" y1="65.1611" y2="65.1611"/><text fill="#D8BC00" font-family="Open Sans,Avenir,Nunito,Arial,Helvetica,SansSerif" font-size="12.5" lengthAdjust="spacing" textLength="164.5833" x="733.3333" y="82.4544">kivakit_primitive_collections</text><!--MD5=[789122fdd47ca161e4432768ac68a470]
entity kivakit_resource--><rect fill="#1B1B1A" height="44.93" rx="8.3333" ry="8.3333" style="stroke:#5E5E5E;stroke-width:1.5625;" width="134.375" x="886.9792" y="268.2861"/><polygon fill="#1B1B1A" points="1003.6458,273.4945,1003.6458,288.0778,1016.1458,288.0778,1016.1458,279.7445,1009.8958,273.4945,1003.6458,273.4945" style="stroke:#5E5E5E;stroke-width:1.5625;"/><line style="stroke:#5E5E5E;stroke-width:1.5625;" x1="1009.8958" x2="1009.8958" y1="273.4945" y2="279.7445"/><line style="stroke:#5E5E5E;stroke-width:1.5625;" x1="1016.1458" x2="1009.8958" y1="279.7445" y2="279.7445"/><text fill="#D8BC00" font-family="Open Sans,Avenir,Nunito,Arial,Helvetica,SansSerif" font-size="12.5" lengthAdjust="spacing" textLength="96.875" x="900.5208" y="297.0378">kivakit_resource</text><!--MD5=[90c7e8c0eae90f7cdcf1e82754bc9c37]
entity kivakit_serialization_core--><rect fill="#1B1B1A" height="44.93" rx="8.3333" ry="8.3333" style="stroke:#5E5E5E;stroke-width:1.5625;" width="186.4583" x="1057.8125" y="268.2861"/><polygon fill="#1B1B1A" points="1226.5625,273.4945,1226.5625,288.0778,1239.0625,288.0778,1239.0625,279.7445,1232.8125,273.4945,1226.5625,273.4945" style="stroke:#5E5E5E;stroke-width:1.5625;"/><line style="stroke:#5E5E5E;stroke-width:1.5625;" x1="1232.8125" x2="1232.8125" y1="273.4945" y2="279.7445"/><line style="stroke:#5E5E5E;stroke-width:1.5625;" x1="1239.0625" x2="1232.8125" y1="279.7445" y2="279.7445"/><text fill="#D8BC00" font-family="Open Sans,Avenir,Nunito,Arial,Helvetica,SansSerif" font-size="12.5" lengthAdjust="spacing" textLength="148.9583" x="1071.3542" y="297.0378">kivakit_serialization_core</text><!--MD5=[7bf535908c90dd3c1fbc894d9b1c5a2e]
entity kivakit_serialization_kryo--><rect fill="#1B1B1A" height="44.93" rx="8.3333" ry="8.3333" style="stroke:#5E5E5E;stroke-width:1.5625;" width="186.4583" x="958.8542" y="160.9945"/><polygon fill="#1B1B1A" points="1127.6042,166.2028,1127.6042,180.7861,1140.1042,180.7861,1140.1042,172.4528,1133.8542,166.2028,1127.6042,166.2028" style="stroke:#5E5E5E;stroke-width:1.5625;"/><line style="stroke:#5E5E5E;stroke-width:1.5625;" x1="1133.8542" x2="1133.8542" y1="166.2028" y2="172.4528"/><line style="stroke:#5E5E5E;stroke-width:1.5625;" x1="1140.1042" x2="1133.8542" y1="172.4528" y2="172.4528"/><text fill="#D8BC00" font-family="Open Sans,Avenir,Nunito,Arial,Helvetica,SansSerif" font-size="12.5" lengthAdjust="spacing" textLength="148.9583" x="972.3958" y="189.7461">kivakit_serialization_kryo</text><!--MD5=[89af034859c241291c45f10ab75c9d6f]
entity kivakit_serialization_properties--><rect fill="#1B1B1A" height="44.93" rx="8.3333" ry="8.3333" style="stroke:#5E5E5E;stroke-width:1.5625;" width="222.9167" x="1281.25" y="268.2861"/><polygon fill="#1B1B1A" points="1486.4583,273.4945,1486.4583,288.0778,1498.9583,288.0778,1498.9583,279.7445,1492.7083,273.4945,1486.4583,273.4945" style="stroke:#5E5E5E;stroke-width:1.5625;"/><line style="stroke:#5E5E5E;stroke-width:1.5625;" x1="1492.7083" x2="1492.7083" y1="273.4945" y2="279.7445"/><line style="stroke:#5E5E5E;stroke-width:1.5625;" x1="1498.9583" x2="1492.7083" y1="279.7445" y2="279.7445"/><text fill="#D8BC00" font-family="Open Sans,Avenir,Nunito,Arial,Helvetica,SansSerif" font-size="12.5" lengthAdjust="spacing" textLength="185.4167" x="1294.7917" y="297.0378">kivakit_serialization_properties</text><!--MD5=[80d2a7f8a38f99556dcaa88e0cbe286e]
entity kivakit_validation--><rect fill="#1B1B1A" height="44.93" rx="8.3333" ry="8.3333" style="stroke:#5E5E5E;stroke-width:1.5625;" width="139.5833" x="1048.9583" y="482.8695"/><polygon fill="#1B1B1A" points="1170.8333,488.0778,1170.8333,502.6611,1183.3333,502.6611,1183.3333,494.3278,1177.0833,488.0778,1170.8333,488.0778" style="stroke:#5E5E5E;stroke-width:1.5625;"/><line style="stroke:#5E5E5E;stroke-width:1.5625;" x1="1177.0833" x2="1177.0833" y1="488.0778" y2="494.3278"/><line style="stroke:#5E5E5E;stroke-width:1.5625;" x1="1183.3333" x2="1177.0833" y1="494.3278" y2="494.3278"/><text fill="#D8BC00" font-family="Open Sans,Avenir,Nunito,Arial,Helvetica,SansSerif" font-size="12.5" lengthAdjust="spacing" textLength="102.0833" x="1062.5" y="511.6211">kivakit_validation</text><!--MD5=[7b0fec798d1f32628676dfdf75f1f662]
entity lexakai_annotations--><rect fill="#1B1B1A" height="44.93" rx="8.3333" ry="8.3333" style="stroke:#5E5E5E;stroke-width:1.5625;" width="155.2083" x="117.1875" y="482.8695"/><polygon fill="#1B1B1A" points="254.6875,488.0778,254.6875,502.6611,267.1875,502.6611,267.1875,494.3278,260.9375,488.0778,254.6875,488.0778" style="stroke:#5E5E5E;stroke-width:1.5625;"/><line style="stroke:#5E5E5E;stroke-width:1.5625;" x1="260.9375" x2="260.9375" y1="488.0778" y2="494.3278"/><line style="stroke:#5E5E5E;stroke-width:1.5625;" x1="267.1875" x2="260.9375" y1="494.3278" y2="494.3278"/><text fill="#D8BC00" font-family="Open Sans,Avenir,Nunito,Arial,Helvetica,SansSerif" font-size="12.5" lengthAdjust="spacing" textLength="117.7083" x="130.7292" y="511.6211">lexakai_annotations</text><!--MD5=[b9ccc173c089e3d2abf77c8581e74aca]
entity kryo_serializers--><rect fill="#1B1B1A" height="44.93" rx="8.3333" ry="8.3333" style="stroke:#5E5E5E;stroke-width:1.5625;" width="131.25" x="1540.625" y="268.2861"/><polygon fill="#1B1B1A" points="1654.1667,273.4945,1654.1667,288.0778,1666.6667,288.0778,1666.6667,279.7445,1660.4167,273.4945,1654.1667,273.4945" style="stroke:#5E5E5E;stroke-width:1.5625;"/><line style="stroke:#5E5E5E;stroke-width:1.5625;" x1="1660.4167" x2="1660.4167" y1="273.4945" y2="279.7445"/><line style="stroke:#5E5E5E;stroke-width:1.5625;" x1="1666.6667" x2="1660.4167" y1="279.7445" y2="279.7445"/><text fill="#D8BC00" font-family="Open Sans,Avenir,Nunito,Arial,Helvetica,SansSerif" font-size="12.5" lengthAdjust="spacing" textLength="93.75" x="1554.1667" y="297.0378">kryo_serializers</text><!--MD5=[ce55b294004802c137560c2930be5b75]
entity junit--><rect fill="#1B1B1A" height="44.93" rx="8.3333" ry="8.3333" style="stroke:#5E5E5E;stroke-width:1.5625;" width="63.5417" x="554.6875" y="375.5778"/><polygon fill="#1B1B1A" points="600.5208,380.7861,600.5208,395.3695,613.0208,395.3695,613.0208,387.0361,606.7708,380.7861,600.5208,380.7861" style="stroke:#5E5E5E;stroke-width:1.5625;"/><line style="stroke:#5E5E5E;stroke-width:1.5625;" x1="606.7708" x2="606.7708" y1="380.7861" y2="387.0361"/><line style="stroke:#5E5E5E;stroke-width:1.5625;" x1="613.0208" x2="606.7708" y1="387.0361" y2="387.0361"/><text fill="#D8BC00" font-family="Open Sans,Avenir,Nunito,Arial,Helvetica,SansSerif" font-size="12.5" lengthAdjust="spacing" textLength="26.0417" x="568.2292" y="404.3294">junit</text><!--MD5=[7f157d37bc1fd6ac970bb67ffdbc66a3]
entity hamcrest_core--><rect fill="#1B1B1A" height="44.93" rx="8.3333" ry="8.3333" style="stroke:#5E5E5E;stroke-width:1.5625;" width="125" x="523.9583" y="482.8695"/><polygon fill="#1B1B1A" points="631.25,488.0778,631.25,502.6611,643.75,502.6611,643.75,494.3278,637.5,488.0778,631.25,488.0778" style="stroke:#5E5E5E;stroke-width:1.5625;"/><line style="stroke:#5E5E5E;stroke-width:1.5625;" x1="637.5" x2="637.5" y1="488.0778" y2="494.3278"/><line style="stroke:#5E5E5E;stroke-width:1.5625;" x1="643.75" x2="637.5" y1="494.3278" y2="494.3278"/><text fill="#D8BC00" font-family="Open Sans,Avenir,Nunito,Arial,Helvetica,SansSerif" font-size="12.5" lengthAdjust="spacing" textLength="87.5" x="537.5" y="511.6211">hamcrest_core</text><!--MD5=[b728e17b4e4da6aa8cb97e9b2766c5e6]
entity annotations--><rect fill="#1B1B1A" height="44.93" rx="8.3333" ry="8.3333" style="stroke:#5E5E5E;stroke-width:1.5625;" width="106.25" x="309.375" y="482.8695"/><polygon fill="#1B1B1A" points="397.9167,488.0778,397.9167,502.6611,410.4167,502.6611,410.4167,494.3278,404.1667,488.0778,397.9167,488.0778" style="stroke:#5E5E5E;stroke-width:1.5625;"/><line style="stroke:#5E5E5E;stroke-width:1.5625;" x1="404.1667" x2="404.1667" y1="488.0778" y2="494.3278"/><line style="stroke:#5E5E5E;stroke-width:1.5625;" x1="410.4167" x2="404.1667" y1="494.3278" y2="494.3278"/><text fill="#D8BC00" font-family="Open Sans,Avenir,Nunito,Arial,Helvetica,SansSerif" font-size="12.5" lengthAdjust="spacing" textLength="68.75" x="322.9167" y="511.6211">annotations</text><!--MD5=[b3c862d1486667ad9c7edef6529b2202]
entity objenesis--><rect fill="#1B1B1A" height="44.93" rx="8.3333" ry="8.3333" style="stroke:#5E5E5E;stroke-width:1.5625;" width="94.7917" x="905.7292" y="375.5778"/><polygon fill="#1B1B1A" points="982.8125,380.7861,982.8125,395.3695,995.3125,395.3695,995.3125,387.0361,989.0625,380.7861,982.8125,380.7861" style="stroke:#5E5E5E;stroke-width:1.5625;"/><line style="stroke:#5E5E5E;stroke-width:1.5625;" x1="989.0625" x2="989.0625" y1="380.7861" y2="387.0361"/><line style="stroke:#5E5E5E;stroke-width:1.5625;" x1="995.3125" x2="989.0625" y1="387.0361" y2="387.0361"/><text fill="#D8BC00" font-family="Open Sans,Avenir,Nunito,Arial,Helvetica,SansSerif" font-size="12.5" lengthAdjust="spacing" textLength="57.2917" x="919.2708" y="404.3294">objenesis</text><!--MD5=[92e2ad58d19962135e7ff93f22958550]
entity asm--><rect fill="#1B1B1A" height="44.93" rx="8.3333" ry="8.3333" style="stroke:#5E5E5E;stroke-width:1.5625;" width="62.5" x="787.5" y="482.8695"/><polygon fill="#1B1B1A" points="832.2917,488.0778,832.2917,502.6611,844.7917,502.6611,844.7917,494.3278,838.5417,488.0778,832.2917,488.0778" style="stroke:#5E5E5E;stroke-width:1.5625;"/><line style="stroke:#5E5E5E;stroke-width:1.5625;" x1="838.5417" x2="838.5417" y1="488.0778" y2="494.3278"/><line style="stroke:#5E5E5E;stroke-width:1.5625;" x1="844.7917" x2="838.5417" y1="494.3278" y2="494.3278"/><text fill="#D8BC00" font-family="Open Sans,Avenir,Nunito,Arial,Helvetica,SansSerif" font-size="12.5" lengthAdjust="spacing" textLength="25" x="801.0417" y="511.6211">asm</text><!--MD5=[d68e7c4b3ca5f037bcb6997a0b4ed16b]
link junit to hamcrest_core--><path d="M586.4583,420.8174 C586.4583,437.2861 586.4583,459.984 586.4583,477.5361 " fill="none" id="junit-to-hamcrest_core" style="stroke:#545454;stroke-width:1.5625;"/><polygon fill="#545454" points="586.4583,482.8174,590.625,473.4424,586.4583,477.609,582.2917,473.4424,586.4583,482.8174" style="stroke:#545454;stroke-width:1.5625;"/><!--MD5=[cb06edfd5269da4fab280ecf1dfecc66]
link kivakit_collections to kivakit_core--><path d="M557.5208,205.9736 C537.1354,222.9945 508.6458,246.7757 487.25,264.6403 " fill="none" id="kivakit_collections-to-kivakit_core" style="stroke:#545454;stroke-width:1.5625;"/><polygon fill="#545454" points="483.0729,268.1299,492.9383,265.3146,487.0692,264.7897,487.5941,258.9206,483.0729,268.1299" style="stroke:#545454;stroke-width:1.5625;"/><!--MD5=[233173b8414f4008c96b85f34b766932]
link kivakit_commandline to kivakit_validation--><path d="M1118.75,420.8174 C1118.75,437.2861 1118.75,459.984 1118.75,477.5361 " fill="none" id="kivakit_commandline-to-kivakit_validation" style="stroke:#545454;stroke-width:1.5625;"/><polygon fill="#545454" points="1118.75,482.8174,1122.9167,473.4424,1118.75,477.609,1114.5833,473.4424,1118.75,482.8174" style="stroke:#545454;stroke-width:1.5625;"/><!--MD5=[a27c71d033f650a74e689916edfa2bee]
link kivakit_core to cactus_build_metadata--><path d="M403.0208,307.4736 C342.2917,325.0986 243.3333,353.8174 173.9688,373.9528 " fill="none" id="kivakit_core-to-cactus_build_metadata" style="stroke:#545454;stroke-width:1.5625;"/><polygon fill="#545454" points="168.6042,375.5049,178.767,376.9078,173.6082,374.0603,176.4557,368.9014,168.6042,375.5049" style="stroke:#545454;stroke-width:1.5625;"/><!--MD5=[3eda3c974646e0509602a12450d4fa2b]
link kivakit_core to junit--><path d="M483.7396,313.2653 C504.6354,330.2861 533.8333,354.0674 555.7604,371.932 " fill="none" id="kivakit_core-to-junit" style="stroke:#545454;stroke-width:1.5625;"/><polygon fill="#545454" points="560.0417,375.4215,555.4096,366.2676,556.0053,372.1299,550.143,372.7257,560.0417,375.4215" style="stroke:#545454;stroke-width:1.5625;"/><!--MD5=[50e8d2e340cfb1a2dae3d5796adb8458]
link kivakit_core to kivakit_interfaces--><path d="M422.9479,313.2653 C395.4792,330.5049 356.9583,354.6611 328.375,372.5986 " fill="none" id="kivakit_core-to-kivakit_interfaces" style="stroke:#545454;stroke-width:1.5625;"/><polygon fill="#545454" points="323.8854,375.4215,334.0402,373.9615,328.2954,372.6504,329.6064,366.9056,323.8854,375.4215" style="stroke:#545454;stroke-width:1.5625;"/><!--MD5=[cc9720141deba8e1bd3912e4e0759165]
link kivakit_core to kivakit_mixins--><path d="M457.2917,313.5257 C457.2917,329.9945 457.2917,352.6924 457.2917,370.2445 " fill="none" id="kivakit_core-to-kivakit_mixins" style="stroke:#545454;stroke-width:1.5625;"/><polygon fill="#545454" points="457.2917,375.5257,461.4583,366.1507,457.2917,370.3174,453.125,366.1507,457.2917,375.5257" style="stroke:#545454;stroke-width:1.5625;"/><!--MD5=[ae0cbb2eeca1523bc78b042db62e2be7]
link kivakit_interfaces to annotations--><path d="M304.6875,420.8174 C316.3021,437.5674 332.3854,460.7653 344.6354,478.4424 " fill="none" id="kivakit_interfaces-to-annotations" style="stroke:#545454;stroke-width:1.5625;"/><polygon fill="#545454" points="347.6563,482.8174,345.7384,472.739,344.6885,478.5373,338.8902,477.4874,347.6563,482.8174" style="stroke:#545454;stroke-width:1.5625;"/><!--MD5=[9b9898faa91efac5ccf8efb529e9a4f7]
link kivakit_interfaces to lexakai_annotations--><path d="M269.9375,420.8174 C254.7188,437.7132 233.5938,461.1611 217.6146,478.8903 " fill="none" id="kivakit_interfaces-to-lexakai_annotations" style="stroke:#545454;stroke-width:1.5625;"/><polygon fill="#545454" points="214.0833,482.8174,223.4519,478.6364,217.5675,478.9461,217.2578,473.0616,214.0833,482.8174" style="stroke:#545454;stroke-width:1.5625;"/><!--MD5=[7d9b0396026278c8d96c083e30549eda]
link kivakit_primitive_collections to kivakit_collections--><path d="M772.4896,98.557 C733,116.0465 677.25,140.7445 636.5104,158.7965 " fill="none" id="kivakit_primitive_collections-to-kivakit_collections" style="stroke:#545454;stroke-width:1.5625;"/><polygon fill="#545454" points="631.6146,160.9632,641.8738,160.9692,636.3752,158.8507,638.4937,153.3521,631.6146,160.9632" style="stroke:#545454;stroke-width:1.5625;"/><!--MD5=[5529a8bb237bfc1d03d69bcdd88341d8]
link kivakit_primitive_collections to kivakit_conversion--><path d="M820.8333,98.9424 C820.8333,115.4111 820.8333,138.109 820.8333,155.6611 " fill="none" id="kivakit_primitive_collections-to-kivakit_conversion" style="stroke:#545454;stroke-width:1.5625;"/><polygon fill="#545454" points="820.8333,160.9424,825,151.5674,820.8333,155.734,816.6667,151.5674,820.8333,160.9424" style="stroke:#545454;stroke-width:1.5625;"/><!--MD5=[433ae61a7e39d974b586f9008e823bcc]
link kivakit_primitive_collections to kivakit_serialization_kryo--><path d="M867.9063,98.557 C906.3646,116.0465 960.6354,140.7445 1000.3125,158.7965 " fill="none" id="kivakit_primitive_collections-to-kivakit_serialization_kryo" style="stroke:#545454;stroke-width:1.5625;"/><polygon fill="#545454" points="1005.0729,160.9632,998.2624,153.2906,1000.3314,158.808,994.8141,160.877,1005.0729,160.9632" style="stroke:#545454;stroke-width:1.5625;"/><!--MD5=[593b722ec987ee2a5ff2f96e98ef63b5]
link kivakit_resource to kivakit_commandline--><path d="M987.8646,313.2653 C1014.8333,330.5049 1052.625,354.6611 1080.6771,372.5986 " fill="none" id="kivakit_resource-to-kivakit_commandline" style="stroke:#545454;stroke-width:1.5625;"/><polygon fill="#545454" points="1085.0938,375.4215,1079.4476,366.8557,1080.7083,372.6119,1074.9521,373.8725,1085.0938,375.4215" style="stroke:#545454;stroke-width:1.5625;"/><!--MD5=[ae0d7908e369146a7fac8f92a656c43f]
link kivakit_serialization_kryo to kivakit_resource--><path d="M1031.7917,206.234 C1016.0625,223.1299 994.25,246.5778 977.7396,264.307 " fill="none" id="kivakit_serialization_kryo-to-kivakit_resource" style="stroke:#545454;stroke-width:1.5625;"/><polygon fill="#545454" points="974.0938,268.234,983.5371,264.2247,977.648,264.427,977.4458,258.5379,974.0938,268.234" style="stroke:#545454;stroke-width:1.5625;"/><!--MD5=[bd8ffdf9ed53e7a9e4d2b803aca0e58d]
link kivakit_serialization_kryo to kivakit_serialization_core--><path d="M1072.5833,206.234 C1088.4792,223.1299 1110.5417,246.5778 1127.2188,264.307 " fill="none" id="kivakit_serialization_kryo-to-kivakit_serialization_core" style="stroke:#545454;stroke-width:1.5625;"/><polygon fill="#545454" points="1130.9063,268.234,1127.5151,258.5515,1127.3366,264.4413,1121.4468,264.2629,1130.9063,268.234" style="stroke:#545454;stroke-width:1.5625;"/><!--MD5=[1fd0e173316f765bede25fa1a86051ca]
link kivakit_serialization_kryo to kivakit_serialization_properties--><path d="M1121.4271,205.8486 C1178.6354,223.5153 1259.6458,248.5361 1318.2188,266.6299 " fill="none" id="kivakit_serialization_kryo-to-kivakit_serialization_properties" style="stroke:#545454;stroke-width:1.5625;"/><polygon fill="#545454" points="1323.4688,268.2549,1315.7379,261.5105,1318.4917,266.72,1313.2822,269.4738,1323.4688,268.2549" style="stroke:#545454;stroke-width:1.5625;"/><!--MD5=[40faeed4b9f18330bf0f83fa88774571]
link kivakit_serialization_kryo to kryo--><path d="M1004.5833,205.8486 C960.5417,225.7132 895.9063,254.8486 855.625,273.0153 " fill="none" id="kivakit_serialization_kryo-to-kryo" style="stroke:#545454;stroke-width:1.5625;"/><polygon fill="#545454" points="850.8333,275.1715,861.0924,275.112,855.5804,273.0287,857.6638,267.5167,850.8333,275.1715" style="stroke:#545454;stroke-width:1.5625;"/><!--MD5=[03df8de183ef6689edc51eb2e13fe23e]
link kivakit_serialization_kryo to kryo_serializers--><path d="M1145.3958,198.9424 C1240.6771,214.2549 1392.6875,240.0465 1522.9167,268.2861 C1526.9167,269.1507 1531.0208,270.0778 1535.1563,271.0465 " fill="none" id="kivakit_serialization_kryo-to-kryo_serializers" style="stroke:#545454;stroke-width:1.5625;"/><polygon fill="#545454" points="1540.3958,272.2861,1532.2244,266.083,1535.326,271.0932,1530.3157,274.1948,1540.3958,272.2861" style="stroke:#545454;stroke-width:1.5625;"/><!--MD5=[8c32f0e7b0abeba01afd276f5a66ee84]
link kryo to minlog--><path d="M793.1563,313.2653 C772.9271,330.2861 744.6771,354.0674 723.4583,371.932 " fill="none" id="kryo-to-minlog" style="stroke:#545454;stroke-width:1.5625;"/><polygon fill="#545454" points="719.3125,375.4215,729.1665,372.5665,723.2953,372.0653,723.7965,366.1941,719.3125,375.4215" style="stroke:#545454;stroke-width:1.5625;"/><!--MD5=[e75c16e47fcf6c43b15d3c25536a9ed0]
link kryo to objenesis--><path d="M846.2708,313.2653 C868.0938,330.359 898.6354,354.2653 921.4688,372.1507 " fill="none" id="kryo-to-objenesis" style="stroke:#545454;stroke-width:1.5625;"/><polygon fill="#545454" points="925.6458,375.4215,920.8309,366.3624,921.5442,372.2116,915.695,372.9249,925.6458,375.4215" style="stroke:#545454;stroke-width:1.5625;"/><!--MD5=[e061beb27669383d030ce0c5c656b006]
link kryo to reflectasm--><path d="M818.75,313.5257 C818.75,329.9945 818.75,352.6924 818.75,370.2445 " fill="none" id="kryo-to-reflectasm" style="stroke:#545454;stroke-width:1.5625;"/><polygon fill="#545454" points="818.75,375.5257,822.9167,366.1507,818.75,370.3174,814.5833,366.1507,818.75,375.5257" style="stroke:#545454;stroke-width:1.5625;"/><!--MD5=[338783537f3f9263e4097f5ff0c514d3]
link reflectasm to asm--><path d="M818.75,420.8174 C818.75,437.2861 818.75,459.984 818.75,477.5361 " fill="none" id="reflectasm-to-asm" style="stroke:#545454;stroke-width:1.5625;"/><polygon fill="#545454" points="818.75,482.8174,822.9167,473.4424,818.75,477.609,814.5833,473.4424,818.75,482.8174" style="stroke:#545454;stroke-width:1.5625;"/><!--MD5=[d25f9614f6c8b1ba63e0e79f008a9628]
@startuml

    !include lexakai.theme
    
    title "kivakit-primitive-collections"
    
    artifact kryo
    artifact minlog
    artifact reflectasm
    artifact cactus_build_metadata
    artifact kivakit_collections
    artifact kivakit_commandline
    artifact kivakit_conversion
    artifact kivakit_core
    artifact kivakit_interfaces
    artifact kivakit_mixins
    artifact kivakit_primitive_collections
    artifact kivakit_resource
    artifact kivakit_serialization_core
    artifact kivakit_serialization_kryo
    artifact kivakit_serialization_properties
    artifact kivakit_validation
    artifact lexakai_annotations
    artifact kryo_serializers
    artifact junit
    artifact hamcrest_core
    artifact annotations
    artifact objenesis
    artifact asm
    junit - -> hamcrest_core
    kivakit_collections - -> kivakit_core
    kivakit_commandline - -> kivakit_validation
    kivakit_core - -> cactus_build_metadata
    kivakit_core - -> junit
    kivakit_core - -> kivakit_interfaces
    kivakit_core - -> kivakit_mixins
    kivakit_interfaces - -> annotations
    kivakit_interfaces - -> lexakai_annotations
    kivakit_primitive_collections - -> kivakit_collections
    kivakit_primitive_collections - -> kivakit_conversion
    kivakit_primitive_collections - -> kivakit_serialization_kryo
    kivakit_resource - -> kivakit_commandline
    kivakit_serialization_kryo - -> kivakit_resource
    kivakit_serialization_kryo - -> kivakit_serialization_core
    kivakit_serialization_kryo - -> kivakit_serialization_properties
    kivakit_serialization_kryo - -> kryo
    kivakit_serialization_kryo - -> kryo_serializers
    kryo - -> minlog
    kryo - -> objenesis
    kryo - -> reflectasm
    reflectasm - -> asm
    
@enduml

@startuml









skinparam backgroundColor #333333






skinparam  {
    defaultFontName   "Open Sans,Avenir,Nunito,Arial,Helvetica,SansSerif"
    defaultFontSize   12
    defaultTextAlignment left
    shadowing false
    RoundCorner 10
    TitleFontSize 18
}

skinparam defaultFontName       "Open Sans,Avenir,Nunito,Arial,Helvetica,SansSerif"
skinparam defaultFontSize       12
skinparam dpi                   100
skinparam shadowing             false
skinparam roundcorner           16
skinparam ParticipantPadding    40
skinparam BoxPadding            40
skinparam Padding               3
skinparam ArrowColor            #545454
skinparam stereotype {
    CBackgroundColor #0066cf
    CBorderColor #0086ef
    ABackgroundColor #C8Ac00
    ABorderColor #D8Bc00
    IBackgroundColor #008400
    IBorderColor #239c23
    EBackgroundColor #cf6300
    EBorderColor #ef8300
    NBackgroundColor #3380b9
    NBorderColor #004d86
}
skinparam title {
	FontColor	                 #c0c0c0
 	BorderColor                  #545454
	FontSize	    	         20
	BorderRoundCorner            16
	BorderThickness 	         1
	BackgroundColor              #48494b
}


skinparam legend {
	BackgroundColor #303030
	BorderColor #404040
	FontColor #a0a0a0
}

	skinparam swimlane {
	BorderColor #5e5e5e
	BorderThickness 2
	TitleBackgroundColor  #6d6d6d-#484848
	TitleFontColor #303030
}

skinparam activity {
		FontColor #C8Ac00
	BorderColor #333333
	BackgroundColor #333333-#333333
	BarColor #00FF00
	StartColor #0060a8
	EndColor #0060a8
	DiamondBackgroundColor #6d6d6d-#3a3a3a
  	DiamondBorderColor #3a3a3a
  	DiamondFontColor #fefefe
}


skinparam participant {
		FontColor #C8Ac00
	BorderColor #333333
	BackgroundColor #333333-#333333
	ParticipantBorderThickness 2
}


skinparam actor {
		FontColor #C8Ac00
	BorderColor #333333
	BackgroundColor #333333-#333333
}


skinparam arrow {
	Thickness 1.5
	Color #545454
	FontColor #a0a0a0
    FontStyle bold
    MessageAlignment center
}



skinparam sequence {
	BorderColor #303030
	TitleFontColor #303030
	BackgroundColor #333333
	StartColor #303030
	EndColor #303030
	BoxBackgroundColor #333333
	BoxBorderColor #484848
	BoxFontColor #484848
	LifeLineBorderColor #484848
	LifeLineBorderThickness 2
	LifeLineBackgroundColor #3a3a3a
	GroupBorderColor #484848
	GroupFontColor #484848
	GroupHeaderFontColor #0060a8
	GroupBackgroundColor #484848
	GroupHeaderBackgroundColor #333333
	DividerBackgroundColor #484848
    DividerBorderColor #484848
    DividerBorderThickness 2
    DividerFontColor #D8Bc00
	ReferenceBackgroundColor #333333
	ReferenceBorderColor #484848
	ReferenceFontColor #fefefe
	ReferenceHeaderBackgroundColor #484848
}


skinparam partition {
	BorderColor #303030
	FontColor #333333
	BackgroundColor #333333
}


skinparam collections {
		FontColor #C8Ac00
	BorderColor #333333
	BackgroundColor #333333-#333333
}


skinparam control {
		FontColor #C8Ac00
	BorderColor #333333
	BackgroundColor #333333-#333333
}


skinparam entity {
		FontColor #C8Ac00
	BorderColor #333333
	BackgroundColor #333333-#333333
}


skinparam boundary {
		FontColor #C8Ac00
	BorderColor #333333
	BackgroundColor #333333-#333333
}


skinparam agent {
	BackgroundColor #ff8000
	BorderColor #ff9933
	FontColor #484848
}


skinparam note {
	BorderThickness 1
	BackgroundColor #1b1b1a
	BorderColor #5e5e5e
	FontSize 11
	FontColor #a0a0a0
}


skinparam artifact {
	BorderThickness 10
	BorderColor #5e5e5e
	BackgroundColor #1b1b1a
	FontColor #D8Bc00
}


skinparam component {
		FontColor #C8Ac00
	BorderColor #333333
	BackgroundColor #333333-#333333
}


skinparam interface {
	BackgroundColor  #008400
	BorderColor  #007F00
	FontColor #484848
}


skinparam storage {
	BackgroundColor #ff8000
  	BorderColor #cc6600
	FontColor #222222
}


skinparam node {
	BackgroundColor #333333
	BorderColor #333333
	FontColor #C8Ac00
}


skinparam cloud {
	BackgroundColor #484848-black
	BorderColor #484848
	FontColor #D8Bc00
}


skinparam database {
		FontColor #C8Ac00
	BorderColor #333333
	BackgroundColor #333333-#333333
	BackgroundColor  #333333
}


skinparam class {
		FontColor #C8Ac00
	BorderColor #333333
	BackgroundColor #333333-#333333
	HeaderBackgroundColor #1b1b1a
    BackgroundColor #282828
    BorderColor #5e5e5e
 	StereotypeFontColor #a0a0a0
    StereotypeFontStyle bold
	BorderThickness 1
	AttributeFontColor #D8Bc00
	AttributeFontSize 11
    FontColor #D8Bc00
    FontStyle bold
}


skinparam object {
		FontColor #C8Ac00
	BorderColor #333333
	BackgroundColor #333333-#333333
	StereotypeFontColor #484848
	BorderThickness 1
	AttributeFontColor #fefefe
	AttributeFontSize 11
}


skinparam usecase {
		FontColor #C8Ac00
	BorderColor #333333
	BackgroundColor #333333-#333333
	BorderThickness 2
	StereotypeFontColor #303030
}


skinparam rectangle {
		FontColor #C8Ac00
	BorderColor #333333
	BackgroundColor #333333-#333333
	BackgroundColor #333333
	BorderThickness 2
	StereotypeFontColor #303030
}


skinparam package {
		FontColor #C8Ac00
	BorderColor #333333
	BackgroundColor #333333-#333333
	BackgroundColor #333333
	BorderThickness 2
}


skinparam folder {
	BackgroundColor #6d6d6d
  	BorderColor #ff8000
	FontColor #ff8000
	BorderThickness 2
}


skinparam frame {
	BackgroundColor #6d6d6d
  	BorderColor #0060a8
	FontColor #0060a8
	BorderThickness 2
}


skinparam state {
		FontColor #C8Ac00
	BorderColor #333333
	BackgroundColor #333333-#333333
	StartColor #0060a8
	EndColor #0060a8
	AttributeFontColor #fefefe
	AttributeFontSize 11
}


skinparam queue {
		FontColor #C8Ac00
	BorderColor #333333
	BackgroundColor #333333-#333333
}


skinparam card {
	BackgroundColor #0060a8
	BorderColor #004d86
	FontColor $INFO_TEXT
}


skinparam file {
	BackgroundColor #6d6d6d-#484848
	BorderColor #0060a8
	FontColor #fefefe
}


skinparam stack {
		FontColor #C8Ac00
	BorderColor #333333
	BackgroundColor #333333-#333333
}

    
    title "kivakit-primitive-collections"
    
    artifact kryo
    artifact minlog
    artifact reflectasm
    artifact cactus_build_metadata
    artifact kivakit_collections
    artifact kivakit_commandline
    artifact kivakit_conversion
    artifact kivakit_core
    artifact kivakit_interfaces
    artifact kivakit_mixins
    artifact kivakit_primitive_collections
    artifact kivakit_resource
    artifact kivakit_serialization_core
    artifact kivakit_serialization_kryo
    artifact kivakit_serialization_properties
    artifact kivakit_validation
    artifact lexakai_annotations
    artifact kryo_serializers
    artifact junit
    artifact hamcrest_core
    artifact annotations
    artifact objenesis
    artifact asm
    junit - -> hamcrest_core
    kivakit_collections - -> kivakit_core
    kivakit_commandline - -> kivakit_validation
    kivakit_core - -> cactus_build_metadata
    kivakit_core - -> junit
    kivakit_core - -> kivakit_interfaces
    kivakit_core - -> kivakit_mixins
    kivakit_interfaces - -> annotations
    kivakit_interfaces - -> lexakai_annotations
    kivakit_primitive_collections - -> kivakit_collections
    kivakit_primitive_collections - -> kivakit_conversion
    kivakit_primitive_collections - -> kivakit_serialization_kryo
    kivakit_resource - -> kivakit_commandline
    kivakit_serialization_kryo - -> kivakit_resource
    kivakit_serialization_kryo - -> kivakit_serialization_core
    kivakit_serialization_kryo - -> kivakit_serialization_properties
    kivakit_serialization_kryo - -> kryo
    kivakit_serialization_kryo - -> kryo_serializers
    kryo - -> minlog
    kryo - -> objenesis
    kryo - -> reflectasm
    reflectasm - -> asm
    
@enduml

PlantUML version 1.2021.01(Tue Feb 02 00:55:08 MST 2021)
(GPL source distribution)
Java Runtime: OpenJDK Runtime Environment
JVM: OpenJDK 64-Bit Server VM
Default Encoding: UTF-8
Language: en
Country: US
--></g></svg>