<?xml version="1.0" encoding="UTF-8" standalone="no"?><svg xmlns="http://www.w3.org/2000/svg" xmlns:xlink="http://www.w3.org/1999/xlink" contentScriptType="application/ecmascript" contentStyleType="text/css" height="261.4583px" preserveAspectRatio="none" style="width:1287px;height:261px;background:#333333;" version="1.1" viewBox="0 0 1287 261" width="1287.5px" zoomAndPan="magnify"><defs/><g><rect fill="#48494B" height="41.2028" rx="8.3333" ry="8.3333" style="stroke:#545454;stroke-width:1.0416666666666667;" width="351.0417" x="460.9375" y="2.0833"/><text fill="#C0C0C0" font-family="Open Sans,Avenir,Nunito,Arial,Helvetica,SansSerif" font-size="20.8333" lengthAdjust="spacing" textLength="328.125" x="472.3958" y="30.5583">com.telenav.kivakit.web.swagger</text><!--MD5=[b65957cb8fe58f5fe954f4a55f33f70e]
cluster SwaggerJettyPlugin--><polygon fill="#333333" points="852.6042,132.8695,990.1042,132.8695,997.3958,160.0911,1039.0625,160.0911,1039.0625,254.7445,852.6042,254.7445,852.6042,132.8695" style="stroke:#333333;stroke-width:2.0833333333333335;"/><line style="stroke:#333333;stroke-width:2.0833333333333335;" x1="852.6042" x2="997.3958" y1="160.0911" y2="160.0911"/><text fill="#C8AC00" font-family="Open Sans,Avenir,Nunito,Arial,Helvetica,SansSerif" font-size="12.5" font-weight="bold" lengthAdjust="spacing" textLength="125" x="859.8958" y="150.1628">SwaggerJettyPlugin</text><!--MD5=[903b40b80b77ef9e47376daf13898718]
class SwaggerJettyPlugin.IndexServlet--><rect codeLine="10" fill="#282828" height="48.055" id="SwaggerJettyPlugin.IndexServlet" rx="8.3333" ry="8.3333" style="stroke:#5E5E5E;stroke-width:1.0416666666666667;" width="116.6667" x="897.3958" y="181.8278"/><rect fill="#1B1B1A" height="31.3883" rx="8.3333" ry="8.3333" style="stroke:#1B1B1A;stroke-width:1.0416666666666667;" width="116.6667" x="897.3958" y="181.8278"/><rect fill="#1B1B1A" height="8.3333" style="stroke:#1B1B1A;stroke-width:1.0416666666666667;" width="116.6667" x="897.3958" y="204.8828"/><rect codeLine="10" fill="none" height="48.055" id="SwaggerJettyPlugin.IndexServlet" rx="8.3333" ry="8.3333" style="stroke:#5E5E5E;stroke-width:1.0416666666666667;" width="116.6667" x="897.3958" y="181.8278"/><ellipse cx="911.9792" cy="197.522" fill="#0066CF" rx="10.4167" ry="10.4167" style="stroke:#0086EF;stroke-width:1.0416666666666667;"/><path d="M913.8896,201.947 Q913.4623,202.1667 912.9924,202.2766 Q912.5224,202.3865 912.0036,202.3865 Q910.1603,202.3865 909.1899,201.1719 Q908.2194,199.9573 908.2194,197.6624 Q908.2194,195.3613 909.1899,194.1467 Q910.1603,192.9321 912.0036,192.9321 Q912.5224,192.9321 912.9985,193.042 Q913.4745,193.1519 913.8896,193.3716 L913.8896,195.3735 Q913.4257,194.9463 912.9893,194.7479 Q912.5529,194.5496 912.089,194.5496 Q911.1003,194.5496 910.5967,195.3339 Q910.0932,196.1182 910.0932,197.6624 Q910.0932,199.2004 910.5967,199.9847 Q911.1003,200.769 912.089,200.769 Q912.5529,200.769 912.9893,200.5707 Q913.4257,200.3723 913.8896,199.9451 Z " fill="#000000"/><text fill="#D8BC00" font-family="Open Sans,Avenir,Nunito,Arial,Helvetica,SansSerif" font-size="12.5" font-weight="bold" lengthAdjust="spacing" textLength="79.1667" x="928.6458" y="202.2461">IndexServlet</text><line style="stroke:#5E5E5E;stroke-width:1.0416666666666667;" x1="898.4375" x2="1013.0208" y1="213.2161" y2="213.2161"/><line style="stroke:#5E5E5E;stroke-width:1.0416666666666667;" x1="898.4375" x2="1013.0208" y1="221.5495" y2="221.5495"/><!--MD5=[dfdc8db0ec2c83fa80ed5af96b182ad4]
class BaseAssetsJettyPlugin--><rect codeLine="6" fill="#282828" height="48.055" id="BaseAssetsJettyPlugin" rx="8.3333" ry="8.3333" style="stroke:#5E5E5E;stroke-width:1.0416666666666667;" width="182.2917" x="194.7917" y="53.7028"/><rect fill="#1B1B1A" height="31.3883" rx="8.3333" ry="8.3333" style="stroke:#1B1B1A;stroke-width:1.0416666666666667;" width="182.2917" x="194.7917" y="53.7028"/><rect fill="#1B1B1A" height="8.3333" style="stroke:#1B1B1A;stroke-width:1.0416666666666667;" width="182.2917" x="194.7917" y="76.7578"/><rect codeLine="6" fill="none" height="48.055" id="BaseAssetsJettyPlugin" rx="8.3333" ry="8.3333" style="stroke:#5E5E5E;stroke-width:1.0416666666666667;" width="182.2917" x="194.7917" y="53.7028"/><ellipse cx="209.375" cy="69.397" fill="#C8AC00" rx="10.4167" ry="10.4167" style="stroke:#D8BC00;stroke-width:1.0416666666666667;"/><path d="M208.9681,66.099 L208.1197,69.8283 L209.8226,69.8283 Z M207.8695,64.4511 L210.0728,64.4511 L212.5326,73.5636 L210.732,73.5636 L210.1705,71.3114 L207.7596,71.3114 L207.2103,73.5636 L205.4097,73.5636 Z " fill="#000000"/><text fill="#D8BC00" font-family="Open Sans,Avenir,Nunito,Arial,Helvetica,SansSerif" font-size="12.5" font-style="italic" font-weight="bold" lengthAdjust="spacing" textLength="144.7917" x="226.0417" y="74.1211">BaseAssetsJettyPlugin</text><line style="stroke:#5E5E5E;stroke-width:1.0416666666666667;" x1="195.8333" x2="376.0417" y1="85.0911" y2="85.0911"/><line style="stroke:#5E5E5E;stroke-width:1.0416666666666667;" x1="195.8333" x2="376.0417" y1="93.4245" y2="93.4245"/><!--MD5=[674154f94e24eb6cf778d705db02259f]
class BaseServletJettyPlugin--><rect codeLine="7" fill="#282828" height="48.055" id="BaseServletJettyPlugin" rx="8.3333" ry="8.3333" style="stroke:#5E5E5E;stroke-width:1.0416666666666667;" width="182.2917" x="604.1667" y="53.7028"/><rect fill="#1B1B1A" height="31.3883" rx="8.3333" ry="8.3333" style="stroke:#1B1B1A;stroke-width:1.0416666666666667;" width="182.2917" x="604.1667" y="53.7028"/><rect fill="#1B1B1A" height="8.3333" style="stroke:#1B1B1A;stroke-width:1.0416666666666667;" width="182.2917" x="604.1667" y="76.7578"/><rect codeLine="7" fill="none" height="48.055" id="BaseServletJettyPlugin" rx="8.3333" ry="8.3333" style="stroke:#5E5E5E;stroke-width:1.0416666666666667;" width="182.2917" x="604.1667" y="53.7028"/><ellipse cx="618.75" cy="69.397" fill="#C8AC00" rx="10.4167" ry="10.4167" style="stroke:#D8BC00;stroke-width:1.0416666666666667;"/><path d="M618.3431,66.099 L617.4947,69.8283 L619.1976,69.8283 Z M617.2445,64.4511 L619.4478,64.4511 L621.9076,73.5636 L620.107,73.5636 L619.5455,71.3114 L617.1346,71.3114 L616.5853,73.5636 L614.7847,73.5636 Z " fill="#000000"/><text fill="#D8BC00" font-family="Open Sans,Avenir,Nunito,Arial,Helvetica,SansSerif" font-size="12.5" font-style="italic" font-weight="bold" lengthAdjust="spacing" textLength="144.7917" x="635.4167" y="74.1211">BaseServletJettyPlugin</text><line style="stroke:#5E5E5E;stroke-width:1.0416666666666667;" x1="605.2083" x2="785.4167" y1="85.0911" y2="85.0911"/><line style="stroke:#5E5E5E;stroke-width:1.0416666666666667;" x1="605.2083" x2="785.4167" y1="93.4245" y2="93.4245"/><!--MD5=[97579af86a7440af5e74c6047349c48c]
class HttpServlet--><rect fill="#282828" height="48.055" id="HttpServlet" rx="8.3333" ry="8.3333" style="stroke:#5E5E5E;stroke-width:1.0416666666666667;" width="109.375" x="901.0417" y="53.7028"/><rect fill="#1B1B1A" height="31.3883" rx="8.3333" ry="8.3333" style="stroke:#1B1B1A;stroke-width:1.0416666666666667;" width="109.375" x="901.0417" y="53.7028"/><rect fill="#1B1B1A" height="8.3333" style="stroke:#1B1B1A;stroke-width:1.0416666666666667;" width="109.375" x="901.0417" y="76.7578"/><rect fill="none" height="48.055" id="HttpServlet" rx="8.3333" ry="8.3333" style="stroke:#5E5E5E;stroke-width:1.0416666666666667;" width="109.375" x="901.0417" y="53.7028"/><ellipse cx="915.625" cy="69.397" fill="#0066CF" rx="10.4167" ry="10.4167" style="stroke:#0086EF;stroke-width:1.0416666666666667;"/><path d="M917.5354,73.822 Q917.1082,74.0417 916.6382,74.1516 Q916.1682,74.2615 915.6494,74.2615 Q913.8062,74.2615 912.8357,73.0469 Q911.8652,71.8323 911.8652,69.5374 Q911.8652,67.2363 912.8357,66.0217 Q913.8062,64.8071 915.6494,64.8071 Q916.1682,64.8071 916.6443,64.917 Q917.1204,65.0269 917.5354,65.2466 L917.5354,67.2485 Q917.0715,66.8213 916.6351,66.6229 Q916.1987,66.4246 915.7349,66.4246 Q914.7461,66.4246 914.2426,67.2089 Q913.739,67.9932 913.739,69.5374 Q913.739,71.0754 914.2426,71.8597 Q914.7461,72.644 915.7349,72.644 Q916.1987,72.644 916.6351,72.4457 Q917.0715,72.2473 917.5354,71.8201 Z " fill="#000000"/><text fill="#D8BC00" font-family="Open Sans,Avenir,Nunito,Arial,Helvetica,SansSerif" font-size="12.5" font-weight="bold" lengthAdjust="spacing" textLength="71.875" x="932.2917" y="74.1211">HttpServlet</text><line style="stroke:#5E5E5E;stroke-width:1.0416666666666667;" x1="902.0833" x2="1009.375" y1="85.0911" y2="85.0911"/><line style="stroke:#5E5E5E;stroke-width:1.0416666666666667;" x1="902.0833" x2="1009.375" y1="93.4245" y2="93.4245"/><!--MD5=[3ad5497a0de2ccbbf0630fd6b1e0b96b]
class SwaggerJettyPlugin--><rect codeLine="15" fill="#282828" height="83.3781" id="SwaggerJettyPlugin" rx="8.3333" ry="8.3333" style="stroke:#5E5E5E;stroke-width:1.0416666666666667;" width="278.125" x="7.2917" y="164.1195"/><rect fill="#1B1B1A" height="31.3883" rx="8.3333" ry="8.3333" style="stroke:#1B1B1A;stroke-width:1.0416666666666667;" width="278.125" x="7.2917" y="164.1195"/><rect fill="#1B1B1A" height="8.3333" style="stroke:#1B1B1A;stroke-width:1.0416666666666667;" width="278.125" x="7.2917" y="187.1745"/><rect codeLine="15" fill="none" height="83.3781" id="SwaggerJettyPlugin" rx="8.3333" ry="8.3333" style="stroke:#5E5E5E;stroke-width:1.0416666666666667;" width="278.125" x="7.2917" y="164.1195"/><ellipse cx="76.5625" cy="179.8136" fill="#0066CF" rx="10.4167" ry="10.4167" style="stroke:#0086EF;stroke-width:1.0416666666666667;"/><path d="M78.4729,184.2387 Q78.0457,184.4584 77.5757,184.5683 Q77.1057,184.6781 76.5869,184.6781 Q74.7437,184.6781 73.7732,183.4635 Q72.8027,182.2489 72.8027,179.954 Q72.8027,177.653 73.7732,176.4384 Q74.7437,175.2238 76.5869,175.2238 Q77.1057,175.2238 77.5818,175.3337 Q78.0579,175.4435 78.4729,175.6632 L78.4729,177.6652 Q78.009,177.238 77.5726,177.0396 Q77.1362,176.8412 76.6724,176.8412 Q75.6836,176.8412 75.1801,177.6255 Q74.6765,178.4098 74.6765,179.954 Q74.6765,181.4921 75.1801,182.2764 Q75.6836,183.0607 76.6724,183.0607 Q77.1362,183.0607 77.5726,182.8623 Q78.009,182.664 78.4729,182.2367 Z " fill="#000000"/><text fill="#D8BC00" font-family="Open Sans,Avenir,Nunito,Arial,Helvetica,SansSerif" font-size="12.5" font-weight="bold" lengthAdjust="spacing" textLength="125" x="99.4792" y="184.5378">SwaggerJettyPlugin</text><line style="stroke:#5E5E5E;stroke-width:1.5625;" x1="8.3333" x2="284.375" y1="195.5078" y2="195.5078"/><ellipse cx="18.75" cy="230.8777" fill="#84BE84" rx="3.125" ry="3.125" style="stroke:#038048;stroke-width:1.0416666666666667;"/><text fill="#D8BC00" font-family="Open Sans,Avenir,Nunito,Arial,Helvetica,SansSerif" font-size="11.4583" lengthAdjust="spacing" textLength="245.8333" x="30.2083" y="237.7889">SwaggerJettyPlugin(ResourceFolder&lt;?&gt;, int)</text><line style="stroke:#5E5E5E;stroke-width:1.0416666666666667;" x1="8.3333" x2="102.6042" y1="213.7136" y2="213.7136"/><text fill="#D8BC00" font-family="Open Sans,Avenir,Nunito,Arial,Helvetica,SansSerif" font-size="11.4583" lengthAdjust="spacing" textLength="81.25" x="105.7292" y="217.5232">(constructors)</text><line style="stroke:#5E5E5E;stroke-width:1.0416666666666667;" x1="190.1042" x2="284.375" y1="213.7136" y2="213.7136"/><!--MD5=[cd7880db8757b4710003f5b51f57301c]
class SwaggerOpenApiJettyPlugin--><rect codeLine="22" fill="#282828" height="83.3781" id="SwaggerOpenApiJettyPlugin" rx="8.3333" ry="8.3333" style="stroke:#5E5E5E;stroke-width:1.0416666666666667;" width="258.3333" x="566.1458" y="164.1195"/><rect fill="#1B1B1A" height="31.3883" rx="8.3333" ry="8.3333" style="stroke:#1B1B1A;stroke-width:1.0416666666666667;" width="258.3333" x="566.1458" y="164.1195"/><rect fill="#1B1B1A" height="8.3333" style="stroke:#1B1B1A;stroke-width:1.0416666666666667;" width="258.3333" x="566.1458" y="187.1745"/><rect codeLine="22" fill="none" height="83.3781" id="SwaggerOpenApiJettyPlugin" rx="8.3333" ry="8.3333" style="stroke:#5E5E5E;stroke-width:1.0416666666666667;" width="258.3333" x="566.1458" y="164.1195"/><ellipse cx="598.5417" cy="179.8136" fill="#0066CF" rx="10.4167" ry="10.4167" style="stroke:#0086EF;stroke-width:1.0416666666666667;"/><path d="M600.4521,184.2387 Q600.0248,184.4584 599.5549,184.5683 Q599.0849,184.6781 598.5661,184.6781 Q596.7228,184.6781 595.7524,183.4635 Q594.7819,182.2489 594.7819,179.954 Q594.7819,177.653 595.7524,176.4384 Q596.7228,175.2238 598.5661,175.2238 Q599.0849,175.2238 599.561,175.3337 Q600.037,175.4435 600.4521,175.6632 L600.4521,177.6652 Q599.9882,177.238 599.5518,177.0396 Q599.1154,176.8412 598.6515,176.8412 Q597.6628,176.8412 597.1592,177.6255 Q596.6557,178.4098 596.6557,179.954 Q596.6557,181.4921 597.1592,182.2764 Q597.6628,183.0607 598.6515,183.0607 Q599.1154,183.0607 599.5518,182.8623 Q599.9882,182.664 600.4521,182.2367 Z " fill="#000000"/><text fill="#D8BC00" font-family="Open Sans,Avenir,Nunito,Arial,Helvetica,SansSerif" font-size="12.5" font-weight="bold" lengthAdjust="spacing" textLength="181.25" x="619.1667" y="184.5378">SwaggerOpenApiJettyPlugin</text><line style="stroke:#5E5E5E;stroke-width:1.5625;" x1="567.1875" x2="823.4375" y1="195.5078" y2="195.5078"/><ellipse cx="577.6042" cy="230.8777" fill="#84BE84" rx="3.125" ry="3.125" style="stroke:#038048;stroke-width:1.0416666666666667;"/><text fill="#D8BC00" font-family="Open Sans,Avenir,Nunito,Arial,Helvetica,SansSerif" font-size="11.4583" lengthAdjust="spacing" textLength="226.0417" x="589.0625" y="237.7889">SwaggerOpenApiJettyPlugin(Application)</text><line style="stroke:#5E5E5E;stroke-width:1.0416666666666667;" x1="567.1875" x2="651.5625" y1="213.7136" y2="213.7136"/><text fill="#D8BC00" font-family="Open Sans,Avenir,Nunito,Arial,Helvetica,SansSerif" font-size="11.4583" lengthAdjust="spacing" textLength="81.25" x="654.6875" y="217.5232">(constructors)</text><line style="stroke:#5E5E5E;stroke-width:1.0416666666666667;" x1="739.0625" x2="823.4375" y1="213.7136" y2="213.7136"/><!--MD5=[750024008b101976659cfa98d0790ad5]
class AssetsJettyPlugin--><rect fill="#282828" height="48.055" id="AssetsJettyPlugin" rx="8.3333" ry="8.3333" style="stroke:#5E5E5E;stroke-width:1.0416666666666667;" width="152.0833" x="1096.3542" y="53.7028"/><rect fill="#1B1B1A" height="31.3883" rx="8.3333" ry="8.3333" style="stroke:#1B1B1A;stroke-width:1.0416666666666667;" width="152.0833" x="1096.3542" y="53.7028"/><rect fill="#1B1B1A" height="8.3333" style="stroke:#1B1B1A;stroke-width:1.0416666666666667;" width="152.0833" x="1096.3542" y="76.7578"/><rect fill="none" height="48.055" id="AssetsJettyPlugin" rx="8.3333" ry="8.3333" style="stroke:#5E5E5E;stroke-width:1.0416666666666667;" width="152.0833" x="1096.3542" y="53.7028"/><ellipse cx="1110.9375" cy="69.397" fill="#0066CF" rx="10.4167" ry="10.4167" style="stroke:#0086EF;stroke-width:1.0416666666666667;"/><path d="M1112.8479,73.822 Q1112.4207,74.0417 1111.9507,74.1516 Q1111.4807,74.2615 1110.9619,74.2615 Q1109.1187,74.2615 1108.1482,73.0469 Q1107.1777,71.8323 1107.1777,69.5374 Q1107.1777,67.2363 1108.1482,66.0217 Q1109.1187,64.8071 1110.9619,64.8071 Q1111.4807,64.8071 1111.9568,64.917 Q1112.4329,65.0269 1112.8479,65.2466 L1112.8479,67.2485 Q1112.384,66.8213 1111.9476,66.6229 Q1111.5112,66.4246 1111.0474,66.4246 Q1110.0586,66.4246 1109.5551,67.2089 Q1109.0515,67.9932 1109.0515,69.5374 Q1109.0515,71.0754 1109.5551,71.8597 Q1110.0586,72.644 1111.0474,72.644 Q1111.5112,72.644 1111.9476,72.4457 Q1112.384,72.2473 1112.8479,71.8201 Z " fill="#000000"/><text fill="#D8BC00" font-family="Open Sans,Avenir,Nunito,Arial,Helvetica,SansSerif" font-size="12.5" font-weight="bold" lengthAdjust="spacing" textLength="114.5833" x="1127.6042" y="74.1211">AssetsJettyPlugin</text><line style="stroke:#5E5E5E;stroke-width:1.0416666666666667;" x1="1097.3958" x2="1247.3958" y1="85.0911" y2="85.0911"/><line style="stroke:#5E5E5E;stroke-width:1.0416666666666667;" x1="1097.3958" x2="1247.3958" y1="93.4245" y2="93.4245"/><!--MD5=[2a1d42a4872410c7f8e7fd4bc7632ce4]
class SwaggerWebAppJettyPlugin--><rect codeLine="29" fill="#282828" height="83.3781" id="SwaggerWebAppJettyPlugin" rx="8.3333" ry="8.3333" style="stroke:#5E5E5E;stroke-width:1.0416666666666667;" width="215.625" x="1064.5833" y="164.1195"/><rect fill="#1B1B1A" height="31.3883" rx="8.3333" ry="8.3333" style="stroke:#1B1B1A;stroke-width:1.0416666666666667;" width="215.625" x="1064.5833" y="164.1195"/><rect fill="#1B1B1A" height="8.3333" style="stroke:#1B1B1A;stroke-width:1.0416666666666667;" width="215.625" x="1064.5833" y="187.1745"/><rect codeLine="29" fill="none" height="83.3781" id="SwaggerWebAppJettyPlugin" rx="8.3333" ry="8.3333" style="stroke:#5E5E5E;stroke-width:1.0416666666666667;" width="215.625" x="1064.5833" y="164.1195"/><ellipse cx="1079.1667" cy="179.8136" fill="#0066CF" rx="10.4167" ry="10.4167" style="stroke:#0086EF;stroke-width:1.0416666666666667;"/><path d="M1081.0771,184.2387 Q1080.6498,184.4584 1080.1799,184.5683 Q1079.7099,184.6781 1079.1911,184.6781 Q1077.3478,184.6781 1076.3774,183.4635 Q1075.4069,182.2489 1075.4069,179.954 Q1075.4069,177.653 1076.3774,176.4384 Q1077.3478,175.2238 1079.1911,175.2238 Q1079.7099,175.2238 1080.186,175.3337 Q1080.662,175.4435 1081.0771,175.6632 L1081.0771,177.6652 Q1080.6132,177.238 1080.1768,177.0396 Q1079.7404,176.8412 1079.2765,176.8412 Q1078.2878,176.8412 1077.7842,177.6255 Q1077.2807,178.4098 1077.2807,179.954 Q1077.2807,181.4921 1077.7842,182.2764 Q1078.2878,183.0607 1079.2765,183.0607 Q1079.7404,183.0607 1080.1768,182.8623 Q1080.6132,182.664 1081.0771,182.2367 Z " fill="#000000"/><text fill="#D8BC00" font-family="Open Sans,Avenir,Nunito,Arial,Helvetica,SansSerif" font-size="12.5" font-weight="bold" lengthAdjust="spacing" textLength="178.125" x="1095.8333" y="184.5378">SwaggerWebAppJettyPlugin</text><line style="stroke:#5E5E5E;stroke-width:1.5625;" x1="1065.625" x2="1279.1667" y1="195.5078" y2="195.5078"/><ellipse cx="1076.0417" cy="230.8777" fill="#84BE84" rx="3.125" ry="3.125" style="stroke:#038048;stroke-width:1.0416666666666667;"/><text fill="#D8BC00" font-family="Open Sans,Avenir,Nunito,Arial,Helvetica,SansSerif" font-size="11.4583" lengthAdjust="spacing" textLength="159.375" x="1087.5" y="237.7889">SwaggerWebAppJettyPlugin()</text><line style="stroke:#5E5E5E;stroke-width:1.0416666666666667;" x1="1065.625" x2="1128.6458" y1="213.7136" y2="213.7136"/><text fill="#D8BC00" font-family="Open Sans,Avenir,Nunito,Arial,Helvetica,SansSerif" font-size="11.4583" lengthAdjust="spacing" textLength="81.25" x="1131.7708" y="217.5232">(constructors)</text><line style="stroke:#5E5E5E;stroke-width:1.0416666666666667;" x1="1216.1458" x2="1279.1667" y1="213.7136" y2="213.7136"/><!--MD5=[ca28c419309849b06c54c9081aabdb8c]
class SwaggerWebJarJettyPlugin--><rect codeLine="36" fill="#282828" height="83.3781" id="SwaggerWebJarJettyPlugin" rx="8.3333" ry="8.3333" style="stroke:#5E5E5E;stroke-width:1.0416666666666667;" width="207.2917" x="321.875" y="164.1195"/><rect fill="#1B1B1A" height="31.3883" rx="8.3333" ry="8.3333" style="stroke:#1B1B1A;stroke-width:1.0416666666666667;" width="207.2917" x="321.875" y="164.1195"/><rect fill="#1B1B1A" height="8.3333" style="stroke:#1B1B1A;stroke-width:1.0416666666666667;" width="207.2917" x="321.875" y="187.1745"/><rect codeLine="36" fill="none" height="83.3781" id="SwaggerWebJarJettyPlugin" rx="8.3333" ry="8.3333" style="stroke:#5E5E5E;stroke-width:1.0416666666666667;" width="207.2917" x="321.875" y="164.1195"/><ellipse cx="336.4583" cy="179.8136" fill="#0066CF" rx="10.4167" ry="10.4167" style="stroke:#0086EF;stroke-width:1.0416666666666667;"/><path d="M338.3687,184.2387 Q337.9415,184.4584 337.4715,184.5683 Q337.0015,184.6781 336.4827,184.6781 Q334.6395,184.6781 333.669,183.4635 Q332.6986,182.2489 332.6986,179.954 Q332.6986,177.653 333.669,176.4384 Q334.6395,175.2238 336.4827,175.2238 Q337.0015,175.2238 337.4776,175.3337 Q337.9537,175.4435 338.3687,175.6632 L338.3687,177.6652 Q337.9049,177.238 337.4685,177.0396 Q337.0321,176.8412 336.5682,176.8412 Q335.5794,176.8412 335.0759,177.6255 Q334.5723,178.4098 334.5723,179.954 Q334.5723,181.4921 335.0759,182.2764 Q335.5794,183.0607 336.5682,183.0607 Q337.0321,183.0607 337.4685,182.8623 Q337.9049,182.664 338.3687,182.2367 Z " fill="#000000"/><text fill="#D8BC00" font-family="Open Sans,Avenir,Nunito,Arial,Helvetica,SansSerif" font-size="12.5" font-weight="bold" lengthAdjust="spacing" textLength="169.7917" x="353.125" y="184.5378">SwaggerWebJarJettyPlugin</text><line style="stroke:#5E5E5E;stroke-width:1.5625;" x1="322.9167" x2="528.125" y1="195.5078" y2="195.5078"/><ellipse cx="333.3333" cy="230.8777" fill="#84BE84" rx="3.125" ry="3.125" style="stroke:#038048;stroke-width:1.0416666666666667;"/><text fill="#D8BC00" font-family="Open Sans,Avenir,Nunito,Arial,Helvetica,SansSerif" font-size="11.4583" lengthAdjust="spacing" textLength="151.0417" x="344.7917" y="237.7889">SwaggerWebJarJettyPlugin()</text><line style="stroke:#5E5E5E;stroke-width:1.0416666666666667;" x1="322.9167" x2="381.7708" y1="213.7136" y2="213.7136"/><text fill="#D8BC00" font-family="Open Sans,Avenir,Nunito,Arial,Helvetica,SansSerif" font-size="11.4583" lengthAdjust="spacing" textLength="81.25" x="384.8958" y="217.5232">(constructors)</text><line style="stroke:#5E5E5E;stroke-width:1.0416666666666667;" x1="469.2708" x2="528.125" y1="213.7136" y2="213.7136"/><!--MD5=[f4de5bea22d4214c4ba24404d6574427]
reverse link HttpServlet to SwaggerJettyPlugin.IndexServlet--><path codeLine="9" d="M955.7292,122.9528 C955.7292,142.7965 955.7292,165.3799 955.7292,181.7757 " fill="none" id="HttpServlet-backto-SwaggerJettyPlugin.IndexServlet" style="stroke:#545454;stroke-width:1.5625;"/><polygon fill="none" points="948.4375,122.6507,955.7292,101.8174,963.0208,122.6507,948.4375,122.6507" style="stroke:#545454;stroke-width:1.5625;"/><!--MD5=[fc8507168484e1f782c6c6a7725d494d]
reverse link BaseAssetsJettyPlugin to SwaggerJettyPlugin--><path codeLine="14" d="M244.6875,115.9424 C227.9896,131.0257 208.6458,148.4945 191.5625,163.9215 " fill="none" id="BaseAssetsJettyPlugin-backto-SwaggerJettyPlugin" style="stroke:#545454;stroke-width:1.5625;"/><polygon fill="none" points="239.9896,110.3695,260.3333,101.8174,249.7604,121.1924,239.9896,110.3695" style="stroke:#545454;stroke-width:1.5625;"/><!--MD5=[c3568524ef6802936a927586050c0fa9]
reverse link BaseServletJettyPlugin to SwaggerOpenApiJettyPlugin--><path codeLine="21" d="M695.3125,122.682 C695.3125,136.0778 695.3125,150.7445 695.3125,163.9215 " fill="none" id="BaseServletJettyPlugin-backto-SwaggerOpenApiJettyPlugin" style="stroke:#545454;stroke-width:1.5625;"/><polygon fill="none" points="688.0208,122.6507,695.3125,101.8174,702.6042,122.6507,688.0208,122.6507" style="stroke:#545454;stroke-width:1.5625;"/><!--MD5=[6aa3323968b1a0731025554b1c403892]
reverse link AssetsJettyPlugin to SwaggerWebAppJettyPlugin--><path codeLine="28" d="M1172.3958,122.682 C1172.3958,136.0778 1172.3958,150.7445 1172.3958,163.9215 " fill="none" id="AssetsJettyPlugin-backto-SwaggerWebAppJettyPlugin" style="stroke:#545454;stroke-width:1.5625;"/><polygon fill="none" points="1165.1042,122.6507,1172.3958,101.8174,1179.6875,122.6507,1165.1042,122.6507" style="stroke:#545454;stroke-width:1.5625;"/><!--MD5=[0032aa8277af99cd76319f5358fafd08]
reverse link BaseAssetsJettyPlugin to SwaggerWebJarJettyPlugin--><path codeLine="35" d="M327.1875,115.9424 C343.8854,131.0257 363.2292,148.4945 380.3125,163.9215 " fill="none" id="BaseAssetsJettyPlugin-backto-SwaggerWebJarJettyPlugin" style="stroke:#545454;stroke-width:1.5625;"/><polygon fill="none" points="322.1146,121.1924,311.5417,101.8174,331.8854,110.3695,322.1146,121.1924" style="stroke:#545454;stroke-width:1.5625;"/><!--MD5=[381005fc3d62b93584e5745893ae3118]
@startuml

    !include lexakai.theme
    
    title "com.telenav.kivakit.web.swagger"
    
    abstract BaseAssetsJettyPlugin
    abstract BaseServletJettyPlugin
    
    HttpServlet <|- - SwaggerJettyPlugin.IndexServlet
    class SwaggerJettyPlugin.IndexServlet
    {
    }
    
    BaseAssetsJettyPlugin <|- - SwaggerJettyPlugin
    class SwaggerJettyPlugin
    {
        - -(constructors)- -
        +SwaggerJettyPlugin(ResourceFolder<?>, int)
    }
    
    BaseServletJettyPlugin <|- - SwaggerOpenApiJettyPlugin
    class SwaggerOpenApiJettyPlugin
    {
        - -(constructors)- -
        +SwaggerOpenApiJettyPlugin(Application)
    }
    
    AssetsJettyPlugin <|- - SwaggerWebAppJettyPlugin
    class SwaggerWebAppJettyPlugin
    {
        - -(constructors)- -
        +SwaggerWebAppJettyPlugin()
    }
    
    BaseAssetsJettyPlugin <|- - SwaggerWebJarJettyPlugin
    class SwaggerWebJarJettyPlugin
    {
        - -(constructors)- -
        +SwaggerWebJarJettyPlugin()
    }
    
@enduml

@startuml









skinparam backgroundColor #333333






skinparam  {
    defaultFontName   "Open Sans,Avenir,Nunito,Arial,Helvetica,SansSerif"
    defaultFontSize   12
    defaultTextAlignment left
    shadowing false
    RoundCorner 10
    TitleFontSize 18
}

skinparam defaultFontName       "Open Sans,Avenir,Nunito,Arial,Helvetica,SansSerif"
skinparam defaultFontSize       12
skinparam dpi                   100
skinparam shadowing             false
skinparam roundcorner           16
skinparam ParticipantPadding    40
skinparam BoxPadding            40
skinparam Padding               3
skinparam ArrowColor            #545454
skinparam stereotype {
    CBackgroundColor #0066cf
    CBorderColor #0086ef
    ABackgroundColor #C8Ac00
    ABorderColor #D8Bc00
    IBackgroundColor #008400
    IBorderColor #239c23
    EBackgroundColor #cf6300
    EBorderColor #ef8300
    NBackgroundColor #3380b9
    NBorderColor #004d86
}
skinparam title {
	FontColor	                 #c0c0c0
 	BorderColor                  #545454
	FontSize	    	         20
	BorderRoundCorner            16
	BorderThickness 	         1
	BackgroundColor              #48494b
}


skinparam legend {
	BackgroundColor #303030
	BorderColor #404040
	FontColor #a0a0a0
}

	skinparam swimlane {
	BorderColor #5e5e5e
	BorderThickness 2
	TitleBackgroundColor  #6d6d6d-#484848
	TitleFontColor #303030
}

skinparam activity {
		FontColor #C8Ac00
	BorderColor #333333
	BackgroundColor #333333-#333333
	BarColor #00FF00
	StartColor #0060a8
	EndColor #0060a8
	DiamondBackgroundColor #6d6d6d-#3a3a3a
  	DiamondBorderColor #3a3a3a
  	DiamondFontColor #fefefe
}


skinparam participant {
		FontColor #C8Ac00
	BorderColor #333333
	BackgroundColor #333333-#333333
	ParticipantBorderThickness 2
}


skinparam actor {
		FontColor #C8Ac00
	BorderColor #333333
	BackgroundColor #333333-#333333
}


skinparam arrow {
	Thickness 1.5
	Color #545454
	FontColor #a0a0a0
    FontStyle bold
    MessageAlignment center
}



skinparam sequence {
	BorderColor #303030
	TitleFontColor #303030
	BackgroundColor #333333
	StartColor #303030
	EndColor #303030
	BoxBackgroundColor #333333
	BoxBorderColor #484848
	BoxFontColor #484848
	LifeLineBorderColor #484848
	LifeLineBorderThickness 2
	LifeLineBackgroundColor #3a3a3a
	GroupBorderColor #484848
	GroupFontColor #484848
	GroupHeaderFontColor #0060a8
	GroupBackgroundColor #484848
	GroupHeaderBackgroundColor #333333
	DividerBackgroundColor #484848
    DividerBorderColor #484848
    DividerBorderThickness 2
    DividerFontColor #D8Bc00
	ReferenceBackgroundColor #333333
	ReferenceBorderColor #484848
	ReferenceFontColor #fefefe
	ReferenceHeaderBackgroundColor #484848
}


skinparam partition {
	BorderColor #303030
	FontColor #333333
	BackgroundColor #333333
}


skinparam collections {
		FontColor #C8Ac00
	BorderColor #333333
	BackgroundColor #333333-#333333
}


skinparam control {
		FontColor #C8Ac00
	BorderColor #333333
	BackgroundColor #333333-#333333
}


skinparam entity {
		FontColor #C8Ac00
	BorderColor #333333
	BackgroundColor #333333-#333333
}


skinparam boundary {
		FontColor #C8Ac00
	BorderColor #333333
	BackgroundColor #333333-#333333
}


skinparam agent {
	BackgroundColor #ff8000
	BorderColor #ff9933
	FontColor #484848
}


skinparam note {
	BorderThickness 1
	BackgroundColor #1b1b1a
	BorderColor #5e5e5e
	FontSize 11
	FontColor #a0a0a0
}


skinparam artifact {
	BorderThickness 10
	BorderColor #5e5e5e
	BackgroundColor #1b1b1a
	FontColor #D8Bc00
}


skinparam component {
		FontColor #C8Ac00
	BorderColor #333333
	BackgroundColor #333333-#333333
}


skinparam interface {
	BackgroundColor  #008400
	BorderColor  #007F00
	FontColor #484848
}


skinparam storage {
	BackgroundColor #ff8000
  	BorderColor #cc6600
	FontColor #222222
}


skinparam node {
	BackgroundColor #333333
	BorderColor #333333
	FontColor #C8Ac00
}


skinparam cloud {
	BackgroundColor #484848-black
	BorderColor #484848
	FontColor #D8Bc00
}


skinparam database {
		FontColor #C8Ac00
	BorderColor #333333
	BackgroundColor #333333-#333333
	BackgroundColor  #333333
}


skinparam class {
		FontColor #C8Ac00
	BorderColor #333333
	BackgroundColor #333333-#333333
	HeaderBackgroundColor #1b1b1a
    BackgroundColor #282828
    BorderColor #5e5e5e
 	StereotypeFontColor #a0a0a0
    StereotypeFontStyle bold
	BorderThickness 1
	AttributeFontColor #D8Bc00
	AttributeFontSize 11
    FontColor #D8Bc00
    FontStyle bold
}


skinparam object {
		FontColor #C8Ac00
	BorderColor #333333
	BackgroundColor #333333-#333333
	StereotypeFontColor #484848
	BorderThickness 1
	AttributeFontColor #fefefe
	AttributeFontSize 11
}


skinparam usecase {
		FontColor #C8Ac00
	BorderColor #333333
	BackgroundColor #333333-#333333
	BorderThickness 2
	StereotypeFontColor #303030
}


skinparam rectangle {
		FontColor #C8Ac00
	BorderColor #333333
	BackgroundColor #333333-#333333
	BackgroundColor #333333
	BorderThickness 2
	StereotypeFontColor #303030
}


skinparam package {
		FontColor #C8Ac00
	BorderColor #333333
	BackgroundColor #333333-#333333
	BackgroundColor #333333
	BorderThickness 2
}


skinparam folder {
	BackgroundColor #6d6d6d
  	BorderColor #ff8000
	FontColor #ff8000
	BorderThickness 2
}


skinparam frame {
	BackgroundColor #6d6d6d
  	BorderColor #0060a8
	FontColor #0060a8
	BorderThickness 2
}


skinparam state {
		FontColor #C8Ac00
	BorderColor #333333
	BackgroundColor #333333-#333333
	StartColor #0060a8
	EndColor #0060a8
	AttributeFontColor #fefefe
	AttributeFontSize 11
}


skinparam queue {
		FontColor #C8Ac00
	BorderColor #333333
	BackgroundColor #333333-#333333
}


skinparam card {
	BackgroundColor #0060a8
	BorderColor #004d86
	FontColor $INFO_TEXT
}


skinparam file {
	BackgroundColor #6d6d6d-#484848
	BorderColor #0060a8
	FontColor #fefefe
}


skinparam stack {
		FontColor #C8Ac00
	BorderColor #333333
	BackgroundColor #333333-#333333
}

    
    title "com.telenav.kivakit.web.swagger"
    
    abstract BaseAssetsJettyPlugin
    abstract BaseServletJettyPlugin
    
    HttpServlet <|- - SwaggerJettyPlugin.IndexServlet
    class SwaggerJettyPlugin.IndexServlet
    {
    }
    
    BaseAssetsJettyPlugin <|- - SwaggerJettyPlugin
    class SwaggerJettyPlugin
    {
        - -(constructors)- -
        +SwaggerJettyPlugin(ResourceFolder<?>, int)
    }
    
    BaseServletJettyPlugin <|- - SwaggerOpenApiJettyPlugin
    class SwaggerOpenApiJettyPlugin
    {
        - -(constructors)- -
        +SwaggerOpenApiJettyPlugin(Application)
    }
    
    AssetsJettyPlugin <|- - SwaggerWebAppJettyPlugin
    class SwaggerWebAppJettyPlugin
    {
        - -(constructors)- -
        +SwaggerWebAppJettyPlugin()
    }
    
    BaseAssetsJettyPlugin <|- - SwaggerWebJarJettyPlugin
    class SwaggerWebJarJettyPlugin
    {
        - -(constructors)- -
        +SwaggerWebJarJettyPlugin()
    }
    
@enduml

PlantUML version 1.2021.01(Tue Feb 02 00:55:08 MST 2021)
(GPL source distribution)
Java Runtime: OpenJDK Runtime Environment
JVM: OpenJDK 64-Bit Server VM
Default Encoding: UTF-8
Language: en
Country: US
--></g></svg>