<?xml version="1.0" encoding="UTF-8" standalone="no"?><svg xmlns="http://www.w3.org/2000/svg" xmlns:xlink="http://www.w3.org/1999/xlink" contentScriptType="application/ecmascript" contentStyleType="text/css" height="254.1667px" preserveAspectRatio="none" style="width:489px;height:254px;background:#333333;" version="1.1" viewBox="0 0 489 254" width="489.5833px" zoomAndPan="magnify"><defs/><g><rect fill="#48494B" height="41.2028" rx="8.3333" ry="8.3333" style="stroke:#545454;stroke-width:1.0416666666666667;" width="477.0833" x="2.0833" y="2.0833"/><text fill="#C0C0C0" font-family="Open Sans,Avenir,Nunito,Arial,Helvetica,SansSerif" font-size="20.8333" lengthAdjust="spacing" textLength="454.1667" x="13.5417" y="30.5583">com.telenav.kivakit.ui.desktop.theme.darcula</text><rect fill="#282828" height="48.055" id="KivaKitTheme" rx="8.3333" ry="8.3333" style="stroke:#5E5E5E;stroke-width:1.0416666666666667;" width="128.125" x="183.8542" y="53.7028"/><rect fill="#1B1B1A" height="31.3883" rx="8.3333" ry="8.3333" style="stroke:#1B1B1A;stroke-width:1.0416666666666667;" width="128.125" x="183.8542" y="53.7028"/><rect fill="#1B1B1A" height="8.3333" style="stroke:#1B1B1A;stroke-width:1.0416666666666667;" width="128.125" x="183.8542" y="76.7578"/><rect fill="none" height="48.055" id="KivaKitTheme" rx="8.3333" ry="8.3333" style="stroke:#5E5E5E;stroke-width:1.0416666666666667;" width="128.125" x="183.8542" y="53.7028"/><ellipse cx="198.4375" cy="69.397" fill="#0066CF" rx="10.4167" ry="10.4167" style="stroke:#0086EF;stroke-width:1.0416666666666667;"/><path d="M200.3479,73.822 Q199.9207,74.0417 199.4507,74.1516 Q198.9807,74.2615 198.4619,74.2615 Q196.6187,74.2615 195.6482,73.0469 Q194.6777,71.8323 194.6777,69.5374 Q194.6777,67.2363 195.6482,66.0217 Q196.6187,64.8071 198.4619,64.8071 Q198.9807,64.8071 199.4568,64.917 Q199.9329,65.0269 200.3479,65.2466 L200.3479,67.2485 Q199.884,66.8213 199.4476,66.6229 Q199.0112,66.4246 198.5474,66.4246 Q197.5586,66.4246 197.0551,67.2089 Q196.5515,67.9932 196.5515,69.5374 Q196.5515,71.0754 197.0551,71.8597 Q197.5586,72.644 198.5474,72.644 Q199.0112,72.644 199.4476,72.4457 Q199.884,72.2473 200.3479,71.8201 Z " fill="#000000"/><text fill="#D8BC00" font-family="Open Sans,Avenir,Nunito,Arial,Helvetica,SansSerif" font-size="12.5" font-weight="bold" lengthAdjust="spacing" textLength="90.625" x="215.1042" y="74.1211">KivaKitTheme</text><line style="stroke:#5E5E5E;stroke-width:1.0416666666666667;" x1="184.8958" x2="310.9375" y1="85.0911" y2="85.0911"/><line style="stroke:#5E5E5E;stroke-width:1.0416666666666667;" x1="184.8958" x2="310.9375" y1="93.4245" y2="93.4245"/><rect codeLine="8" fill="#282828" height="83.3781" id="KivaKitDarculaTheme" rx="8.3333" ry="8.3333" style="stroke:#5E5E5E;stroke-width:1.0416666666666667;" width="177.0833" x="159.375" y="164.1195"/><rect fill="#1B1B1A" height="31.3883" rx="8.3333" ry="8.3333" style="stroke:#1B1B1A;stroke-width:1.0416666666666667;" width="177.0833" x="159.375" y="164.1195"/><rect fill="#1B1B1A" height="8.3333" style="stroke:#1B1B1A;stroke-width:1.0416666666666667;" width="177.0833" x="159.375" y="187.1745"/><rect codeLine="8" fill="none" height="83.3781" id="KivaKitDarculaTheme" rx="8.3333" ry="8.3333" style="stroke:#5E5E5E;stroke-width:1.0416666666666667;" width="177.0833" x="159.375" y="164.1195"/><ellipse cx="173.9583" cy="179.8136" fill="#0066CF" rx="10.4167" ry="10.4167" style="stroke:#0086EF;stroke-width:1.0416666666666667;"/><path d="M175.8687,184.2387 Q175.4415,184.4584 174.9715,184.5683 Q174.5015,184.6781 173.9827,184.6781 Q172.1395,184.6781 171.169,183.4635 Q170.1986,182.2489 170.1986,179.954 Q170.1986,177.653 171.169,176.4384 Q172.1395,175.2238 173.9827,175.2238 Q174.5015,175.2238 174.9776,175.3337 Q175.4537,175.4435 175.8687,175.6632 L175.8687,177.6652 Q175.4049,177.238 174.9685,177.0396 Q174.5321,176.8412 174.0682,176.8412 Q173.0794,176.8412 172.5759,177.6255 Q172.0723,178.4098 172.0723,179.954 Q172.0723,181.4921 172.5759,182.2764 Q173.0794,183.0607 174.0682,183.0607 Q174.5321,183.0607 174.9685,182.8623 Q175.4049,182.664 175.8687,182.2367 Z " fill="#000000"/><text fill="#D8BC00" font-family="Open Sans,Avenir,Nunito,Arial,Helvetica,SansSerif" font-size="12.5" font-weight="bold" lengthAdjust="spacing" textLength="139.5833" x="190.625" y="184.5378">KivaKitDarculaTheme</text><line style="stroke:#5E5E5E;stroke-width:1.5625;" x1="160.4167" x2="335.4167" y1="195.5078" y2="195.5078"/><ellipse cx="170.8333" cy="230.8777" fill="#84BE84" rx="3.125" ry="3.125" style="stroke:#038048;stroke-width:1.0416666666666667;"/><text fill="#D8BC00" font-family="Open Sans,Avenir,Nunito,Arial,Helvetica,SansSerif" font-size="11.4583" lengthAdjust="spacing" textLength="126.0417" x="182.2917" y="237.7889">KivaKitDarculaTheme()</text><line style="stroke:#5E5E5E;stroke-width:1.0416666666666667;" x1="160.4167" x2="204.1667" y1="213.7136" y2="213.7136"/><text fill="#D8BC00" font-family="Open Sans,Avenir,Nunito,Arial,Helvetica,SansSerif" font-size="11.4583" lengthAdjust="spacing" textLength="81.25" x="207.2917" y="217.5232">(constructors)</text><line style="stroke:#5E5E5E;stroke-width:1.0416666666666667;" x1="291.6667" x2="335.4167" y1="213.7136" y2="213.7136"/><path codeLine="7" d="M247.9167,122.682 C247.9167,136.0778 247.9167,150.7445 247.9167,163.9215 " fill="none" id="KivaKitTheme-backto-KivaKitDarculaTheme" style="stroke:#545454;stroke-width:1.5625;"/><polygon fill="none" points="240.625,122.6507,247.9167,101.8174,255.2083,122.6507,240.625,122.6507" style="stroke:#545454;stroke-width:1.5625;"/></g></svg>
