<?xml version="1.0" encoding="UTF-8" standalone="no"?><svg xmlns="http://www.w3.org/2000/svg" xmlns:xlink="http://www.w3.org/1999/xlink" contentScriptType="application/ecmascript" contentStyleType="text/css" height="273.9583px" preserveAspectRatio="none" style="width:537px;height:273px;background:#333333;" version="1.1" viewBox="0 0 537 273" width="537.5px" zoomAndPan="magnify"><defs/><g><rect fill="#48494B" height="41.2028" rx="8.3333" ry="8.3333" style="stroke:#545454;stroke-width:1.0416666666666667;" width="525" x="2.0833" y="2.0833"/><text fill="#C0C0C0" font-family="Open Sans,Avenir,Nunito,Arial,Helvetica,SansSerif" font-size="20.8333" lengthAdjust="spacing" textLength="502.0833" x="13.5417" y="30.5583">com.telenav.kivakit.ui.desktop.component.version</text><rect fill="#282828" height="48.055" id="KivaKitPanel" rx="8.3333" ry="8.3333" style="stroke:#5E5E5E;stroke-width:1.0416666666666667;" width="118.75" x="112.7604" y="53.7028"/><rect fill="#1B1B1A" height="31.3883" rx="8.3333" ry="8.3333" style="stroke:#1B1B1A;stroke-width:1.0416666666666667;" width="118.75" x="112.7604" y="53.7028"/><rect fill="#1B1B1A" height="8.3333" style="stroke:#1B1B1A;stroke-width:1.0416666666666667;" width="118.75" x="112.7604" y="76.7578"/><rect fill="none" height="48.055" id="KivaKitPanel" rx="8.3333" ry="8.3333" style="stroke:#5E5E5E;stroke-width:1.0416666666666667;" width="118.75" x="112.7604" y="53.7028"/><ellipse cx="127.3438" cy="69.397" fill="#0066CF" rx="10.4167" ry="10.4167" style="stroke:#0086EF;stroke-width:1.0416666666666667;"/><path d="M129.2542,73.822 Q128.8269,74.0417 128.3569,74.1516 Q127.887,74.2615 127.3682,74.2615 Q125.5249,74.2615 124.5544,73.0469 Q123.584,71.8323 123.584,69.5374 Q123.584,67.2363 124.5544,66.0217 Q125.5249,64.8071 127.3682,64.8071 Q127.887,64.8071 128.363,64.917 Q128.8391,65.0269 129.2542,65.2466 L129.2542,67.2485 Q128.7903,66.8213 128.3539,66.6229 Q127.9175,66.4246 127.4536,66.4246 Q126.4648,66.4246 125.9613,67.2089 Q125.4578,67.9932 125.4578,69.5374 Q125.4578,71.0754 125.9613,71.8597 Q126.4648,72.644 127.4536,72.644 Q127.9175,72.644 128.3539,72.4457 Q128.7903,72.2473 129.2542,71.8201 Z " fill="#000000"/><text fill="#D8BC00" font-family="Open Sans,Avenir,Nunito,Arial,Helvetica,SansSerif" font-size="12.5" font-weight="bold" lengthAdjust="spacing" textLength="81.25" x="144.0104" y="74.1211">KivaKitPanel</text><line style="stroke:#5E5E5E;stroke-width:1.0416666666666667;" x1="113.8021" x2="230.4688" y1="85.0911" y2="85.0911"/><line style="stroke:#5E5E5E;stroke-width:1.0416666666666667;" x1="113.8021" x2="230.4688" y1="93.4245" y2="93.4245"/><rect codeLine="8" fill="#282828" height="83.3781" id="KivaKitBuild" rx="8.3333" ry="8.3333" style="stroke:#5E5E5E;stroke-width:1.0416666666666667;" width="117.7083" x="113.2813" y="174.0153"/><rect fill="#1B1B1A" height="31.3883" rx="8.3333" ry="8.3333" style="stroke:#1B1B1A;stroke-width:1.0416666666666667;" width="117.7083" x="113.2813" y="174.0153"/><rect fill="#1B1B1A" height="8.3333" style="stroke:#1B1B1A;stroke-width:1.0416666666666667;" width="117.7083" x="113.2813" y="197.0703"/><rect codeLine="8" fill="none" height="83.3781" id="KivaKitBuild" rx="8.3333" ry="8.3333" style="stroke:#5E5E5E;stroke-width:1.0416666666666667;" width="117.7083" x="113.2813" y="174.0153"/><ellipse cx="127.8646" cy="189.7095" fill="#0066CF" rx="10.4167" ry="10.4167" style="stroke:#0086EF;stroke-width:1.0416666666666667;"/><path d="M129.775,194.1345 Q129.3477,194.3542 128.8778,194.4641 Q128.4078,194.574 127.889,194.574 Q126.0457,194.574 125.0753,193.3594 Q124.1048,192.1448 124.1048,189.8499 Q124.1048,187.5488 125.0753,186.3342 Q126.0457,185.1196 127.889,185.1196 Q128.4078,185.1196 128.8839,185.2295 Q129.3599,185.3394 129.775,185.5591 L129.775,187.561 Q129.3111,187.1338 128.8747,186.9354 Q128.4383,186.7371 127.9744,186.7371 Q126.9857,186.7371 126.4821,187.5214 Q125.9786,188.3057 125.9786,189.8499 Q125.9786,191.3879 126.4821,192.1722 Q126.9857,192.9565 127.9744,192.9565 Q128.4383,192.9565 128.8747,192.7582 Q129.3111,192.5598 129.775,192.1326 Z " fill="#000000"/><text fill="#D8BC00" font-family="Open Sans,Avenir,Nunito,Arial,Helvetica,SansSerif" font-size="12.5" font-weight="bold" lengthAdjust="spacing" textLength="80.2083" x="144.5313" y="194.4336">KivaKitBuild</text><line style="stroke:#5E5E5E;stroke-width:1.5625;" x1="114.3229" x2="229.9479" y1="205.4036" y2="205.4036"/><ellipse cx="124.7396" cy="240.7735" fill="#84BE84" rx="3.125" ry="3.125" style="stroke:#038048;stroke-width:1.0416666666666667;"/><text fill="#D8BC00" font-family="Open Sans,Avenir,Nunito,Arial,Helvetica,SansSerif" font-size="11.4583" lengthAdjust="spacing" textLength="72.9167" x="136.1979" y="247.6847">KivaKitBuild()</text><line style="stroke:#5E5E5E;stroke-width:1.0416666666666667;" x1="114.3229" x2="128.3854" y1="223.6094" y2="223.6094"/><text fill="#D8BC00" font-family="Open Sans,Avenir,Nunito,Arial,Helvetica,SansSerif" font-size="11.4583" lengthAdjust="spacing" textLength="81.25" x="131.5104" y="227.419">(constructors)</text><line style="stroke:#5E5E5E;stroke-width:1.0416666666666667;" x1="215.8854" x2="229.9479" y1="223.6094" y2="223.6094"/><rect fill="#282828" height="48.055" id="JLabel" rx="8.3333" ry="8.3333" style="stroke:#5E5E5E;stroke-width:1.0416666666666667;" width="77.0833" x="310.6771" y="53.7028"/><rect fill="#1B1B1A" height="31.3883" rx="8.3333" ry="8.3333" style="stroke:#1B1B1A;stroke-width:1.0416666666666667;" width="77.0833" x="310.6771" y="53.7028"/><rect fill="#1B1B1A" height="8.3333" style="stroke:#1B1B1A;stroke-width:1.0416666666666667;" width="77.0833" x="310.6771" y="76.7578"/><rect fill="none" height="48.055" id="JLabel" rx="8.3333" ry="8.3333" style="stroke:#5E5E5E;stroke-width:1.0416666666666667;" width="77.0833" x="310.6771" y="53.7028"/><ellipse cx="325.2604" cy="69.397" fill="#0066CF" rx="10.4167" ry="10.4167" style="stroke:#0086EF;stroke-width:1.0416666666666667;"/><path d="M327.1708,73.822 Q326.7436,74.0417 326.2736,74.1516 Q325.8036,74.2615 325.2848,74.2615 Q323.4416,74.2615 322.4711,73.0469 Q321.5007,71.8323 321.5007,69.5374 Q321.5007,67.2363 322.4711,66.0217 Q323.4416,64.8071 325.2848,64.8071 Q325.8036,64.8071 326.2797,64.917 Q326.7558,65.0269 327.1708,65.2466 L327.1708,67.2485 Q326.7069,66.8213 326.2705,66.6229 Q325.8341,66.4246 325.3703,66.4246 Q324.3815,66.4246 323.878,67.2089 Q323.3744,67.9932 323.3744,69.5374 Q323.3744,71.0754 323.878,71.8597 Q324.3815,72.644 325.3703,72.644 Q325.8341,72.644 326.2705,72.4457 Q326.7069,72.2473 327.1708,71.8201 Z " fill="#000000"/><text fill="#D8BC00" font-family="Open Sans,Avenir,Nunito,Arial,Helvetica,SansSerif" font-size="12.5" font-weight="bold" lengthAdjust="spacing" textLength="39.5833" x="341.9271" y="74.1211">JLabel</text><line style="stroke:#5E5E5E;stroke-width:1.0416666666666667;" x1="311.7188" x2="386.7188" y1="85.0911" y2="85.0911"/><line style="stroke:#5E5E5E;stroke-width:1.0416666666666667;" x1="311.7188" x2="386.7188" y1="93.4245" y2="93.4245"/><rect codeLine="15" fill="#282828" height="103.123" id="KivaKitVersion" rx="8.3333" ry="8.3333" style="stroke:#5E5E5E;stroke-width:1.0416666666666667;" width="163.5417" x="267.4479" y="164.1195"/><rect fill="#1B1B1A" height="31.3883" rx="8.3333" ry="8.3333" style="stroke:#1B1B1A;stroke-width:1.0416666666666667;" width="163.5417" x="267.4479" y="164.1195"/><rect fill="#1B1B1A" height="8.3333" style="stroke:#1B1B1A;stroke-width:1.0416666666666667;" width="163.5417" x="267.4479" y="187.1745"/><rect codeLine="15" fill="none" height="103.123" id="KivaKitVersion" rx="8.3333" ry="8.3333" style="stroke:#5E5E5E;stroke-width:1.0416666666666667;" width="163.5417" x="267.4479" y="164.1195"/><ellipse cx="295.625" cy="179.8136" fill="#0066CF" rx="10.4167" ry="10.4167" style="stroke:#0086EF;stroke-width:1.0416666666666667;"/><path d="M297.5354,184.2387 Q297.1082,184.4584 296.6382,184.5683 Q296.1682,184.6781 295.6494,184.6781 Q293.8062,184.6781 292.8357,183.4635 Q291.8652,182.2489 291.8652,179.954 Q291.8652,177.653 292.8357,176.4384 Q293.8062,175.2238 295.6494,175.2238 Q296.1682,175.2238 296.6443,175.3337 Q297.1204,175.4435 297.5354,175.6632 L297.5354,177.6652 Q297.0715,177.238 296.6351,177.0396 Q296.1987,176.8412 295.7349,176.8412 Q294.7461,176.8412 294.2426,177.6255 Q293.739,178.4098 293.739,179.954 Q293.739,181.4921 294.2426,182.2764 Q294.7461,183.0607 295.7349,183.0607 Q296.1987,183.0607 296.6351,182.8623 Q297.0715,182.664 297.5354,182.2367 Z " fill="#000000"/><text fill="#D8BC00" font-family="Open Sans,Avenir,Nunito,Arial,Helvetica,SansSerif" font-size="12.5" font-weight="bold" lengthAdjust="spacing" textLength="95.8333" x="315.3125" y="184.5378">KivaKitVersion</text><line style="stroke:#5E5E5E;stroke-width:1.5625;" x1="268.4896" x2="429.9479" y1="195.5078" y2="195.5078"/><ellipse cx="278.9063" cy="230.8777" fill="#84BE84" rx="3.125" ry="3.125" style="stroke:#038048;stroke-width:1.0416666666666667;"/><text fill="#D8BC00" font-family="Open Sans,Avenir,Nunito,Arial,Helvetica,SansSerif" font-size="11.4583" lengthAdjust="spacing" textLength="88.5417" x="290.3646" y="237.7889">KivaKitVersion()</text><ellipse cx="278.9063" cy="250.6226" fill="#84BE84" rx="3.125" ry="3.125" style="stroke:#038048;stroke-width:1.0416666666666667;"/><text fill="#D8BC00" font-family="Open Sans,Avenir,Nunito,Arial,Helvetica,SansSerif" font-size="11.4583" lengthAdjust="spacing" textLength="131.25" x="290.3646" y="257.5338">KivaKitVersion(Version)</text><line style="stroke:#5E5E5E;stroke-width:1.0416666666666667;" x1="268.4896" x2="305.4688" y1="213.7136" y2="213.7136"/><text fill="#D8BC00" font-family="Open Sans,Avenir,Nunito,Arial,Helvetica,SansSerif" font-size="11.4583" lengthAdjust="spacing" textLength="81.25" x="308.5938" y="217.5232">(constructors)</text><line style="stroke:#5E5E5E;stroke-width:1.0416666666666667;" x1="392.9688" x2="429.9479" y1="213.7136" y2="213.7136"/><path codeLine="7" d="M172.1354,122.734 C172.1354,139.1611 172.1354,157.7236 172.1354,173.8382 " fill="none" id="KivaKitPanel-backto-KivaKitBuild" style="stroke:#545454;stroke-width:1.5625;"/><polygon fill="none" points="164.8438,122.5986,172.1354,101.7653,179.4271,122.5986,164.8438,122.5986" style="stroke:#545454;stroke-width:1.5625;"/><path codeLine="14" d="M349.2188,122.8382 C349.2188,135.9945 349.2188,150.5257 349.2188,164.0674 " fill="none" id="JLabel-backto-KivaKitVersion" style="stroke:#545454;stroke-width:1.5625;"/><polygon fill="none" points="341.9271,122.5986,349.2188,101.7653,356.5104,122.5986,341.9271,122.5986" style="stroke:#545454;stroke-width:1.5625;"/></g></svg>
