<?xml version="1.0" encoding="UTF-8" standalone="no"?><svg xmlns="http://www.w3.org/2000/svg" xmlns:xlink="http://www.w3.org/1999/xlink" contentScriptType="application/ecmascript" contentStyleType="text/css" height="341.6667px" preserveAspectRatio="none" style="width:553px;height:341px;background:#333333;" version="1.1" viewBox="0 0 553 341" width="553.125px" zoomAndPan="magnify"><defs/><g><rect fill="#48494B" height="41.2028" rx="8.3333" ry="8.3333" style="stroke:#545454;stroke-width:1.0416666666666667;" width="540.625" x="2.0833" y="2.0833"/><text fill="#C0C0C0" font-family="Open Sans,Avenir,Nunito,Arial,Helvetica,SansSerif" font-size="20.8333" lengthAdjust="spacing" textLength="517.7083" x="13.5417" y="30.5583">com.telenav.kivakit.ui.desktop.component.progress</text><polygon fill="#333333" points="308.8542,52.6611,411.9792,52.6611,419.2708,79.8828,532.8125,79.8828,532.8125,214.1195,308.8542,214.1195,308.8542,52.6611" style="stroke:#333333;stroke-width:2.0833333333333335;"/><line style="stroke:#333333;stroke-width:2.0833333333333335;" x1="308.8542" x2="419.2708" y1="79.8828" y2="79.8828"/><text fill="#C8AC00" font-family="Open Sans,Avenir,Nunito,Arial,Helvetica,SansSerif" font-size="12.5" font-weight="bold" lengthAdjust="spacing" textLength="90.625" x="316.1458" y="69.9544">ProgressPanel</text><rect codeLine="7" fill="#282828" height="87.5448" id="ProgressPanel.CompletionStatus" rx="8.3333" ry="8.3333" style="stroke:#5E5E5E;stroke-width:1.0416666666666667;" width="154.1667" x="353.6458" y="101.6195"/><rect fill="#1B1B1A" height="31.3883" rx="8.3333" ry="8.3333" style="stroke:#1B1B1A;stroke-width:1.0416666666666667;" width="154.1667" x="353.6458" y="101.6195"/><rect fill="#1B1B1A" height="8.3333" style="stroke:#1B1B1A;stroke-width:1.0416666666666667;" width="154.1667" x="353.6458" y="124.6745"/><rect codeLine="7" fill="none" height="87.5448" id="ProgressPanel.CompletionStatus" rx="8.3333" ry="8.3333" style="stroke:#5E5E5E;stroke-width:1.0416666666666667;" width="154.1667" x="353.6458" y="101.6195"/><ellipse cx="368.2292" cy="117.3136" fill="#CF6300" rx="10.4167" ry="10.4167" style="stroke:#EF8300;stroke-width:1.0416666666666667;"/><path d="M371.285,122.0011 L365.6087,122.0011 L365.6087,112.8886 L371.285,112.8886 L371.285,114.4755 L367.4093,114.4755 L367.4093,116.4408 L370.9188,116.4408 L370.9188,118.0278 L367.4093,118.0278 L367.4093,120.4142 L371.285,120.4142 Z " fill="#000000"/><text fill="#D8BC00" font-family="Open Sans,Avenir,Nunito,Arial,Helvetica,SansSerif" font-size="12.5" font-weight="bold" lengthAdjust="spacing" textLength="116.6667" x="384.8958" y="122.0378">CompletionStatus</text><line style="stroke:#5E5E5E;stroke-width:1.0416666666666667;" x1="354.6875" x2="506.7708" y1="133.0078" y2="133.0078"/><text fill="#D8BC00" font-family="Open Sans,Avenir,Nunito,Arial,Helvetica,SansSerif" font-size="11.4583" lengthAdjust="spacing" textLength="66.6667" x="363.0208" y="151.3774">CANCELLED</text><text fill="#D8BC00" font-family="Open Sans,Avenir,Nunito,Arial,Helvetica,SansSerif" font-size="11.4583" lengthAdjust="spacing" textLength="67.7083" x="363.0208" y="171.1222">COMPLETED</text><line style="stroke:#5E5E5E;stroke-width:1.0416666666666667;" x1="354.6875" x2="506.7708" y1="180.8309" y2="180.8309"/><rect fill="#282828" height="48.055" id="KivaKitPanel" rx="8.3333" ry="8.3333" style="stroke:#5E5E5E;stroke-width:1.0416666666666667;" width="118.75" x="161.9792" y="121.4111"/><rect fill="#1B1B1A" height="31.3883" rx="8.3333" ry="8.3333" style="stroke:#1B1B1A;stroke-width:1.0416666666666667;" width="118.75" x="161.9792" y="121.4111"/><rect fill="#1B1B1A" height="8.3333" style="stroke:#1B1B1A;stroke-width:1.0416666666666667;" width="118.75" x="161.9792" y="144.4661"/><rect fill="none" height="48.055" id="KivaKitPanel" rx="8.3333" ry="8.3333" style="stroke:#5E5E5E;stroke-width:1.0416666666666667;" width="118.75" x="161.9792" y="121.4111"/><ellipse cx="176.5625" cy="137.1053" fill="#0066CF" rx="10.4167" ry="10.4167" style="stroke:#0086EF;stroke-width:1.0416666666666667;"/><path d="M178.4729,141.5304 Q178.0457,141.7501 177.5757,141.8599 Q177.1057,141.9698 176.5869,141.9698 Q174.7437,141.9698 173.7732,140.7552 Q172.8027,139.5406 172.8027,137.2457 Q172.8027,134.9447 173.7732,133.7301 Q174.7437,132.5155 176.5869,132.5155 Q177.1057,132.5155 177.5818,132.6253 Q178.0579,132.7352 178.4729,132.9549 L178.4729,134.9569 Q178.009,134.5296 177.5726,134.3313 Q177.1362,134.1329 176.6724,134.1329 Q175.6836,134.1329 175.1801,134.9172 Q174.6765,135.7015 174.6765,137.2457 Q174.6765,138.7838 175.1801,139.5681 Q175.6836,140.3524 176.6724,140.3524 Q177.1362,140.3524 177.5726,140.154 Q178.009,139.9556 178.4729,139.5284 Z " fill="#000000"/><text fill="#D8BC00" font-family="Open Sans,Avenir,Nunito,Arial,Helvetica,SansSerif" font-size="12.5" font-weight="bold" lengthAdjust="spacing" textLength="81.25" x="193.2292" y="141.8294">KivaKitPanel</text><line style="stroke:#5E5E5E;stroke-width:1.0416666666666667;" x1="163.0208" x2="279.6875" y1="152.7995" y2="152.7995"/><line style="stroke:#5E5E5E;stroke-width:1.0416666666666667;" x1="163.0208" x2="279.6875" y1="161.1328" y2="161.1328"/><rect codeLine="14" fill="#282828" height="83.3781" id="ProgressPanel" rx="8.3333" ry="8.3333" style="stroke:#5E5E5E;stroke-width:1.0416666666666667;" width="410.4167" x="16.1458" y="251.6195"/><rect fill="#1B1B1A" height="31.3883" rx="8.3333" ry="8.3333" style="stroke:#1B1B1A;stroke-width:1.0416666666666667;" width="410.4167" x="16.1458" y="251.6195"/><rect fill="#1B1B1A" height="8.3333" style="stroke:#1B1B1A;stroke-width:1.0416666666666667;" width="410.4167" x="16.1458" y="274.6745"/><rect codeLine="14" fill="none" height="83.3781" id="ProgressPanel" rx="8.3333" ry="8.3333" style="stroke:#5E5E5E;stroke-width:1.0416666666666667;" width="410.4167" x="16.1458" y="251.6195"/><ellipse cx="168.75" cy="267.3136" fill="#0066CF" rx="10.4167" ry="10.4167" style="stroke:#0086EF;stroke-width:1.0416666666666667;"/><path d="M170.6604,271.7387 Q170.2332,271.9584 169.7632,272.0683 Q169.2932,272.1781 168.7744,272.1781 Q166.9312,272.1781 165.9607,270.9635 Q164.9902,269.7489 164.9902,267.454 Q164.9902,265.153 165.9607,263.9384 Q166.9312,262.7238 168.7744,262.7238 Q169.2932,262.7238 169.7693,262.8337 Q170.2454,262.9435 170.6604,263.1632 L170.6604,265.1652 Q170.1965,264.738 169.7601,264.5396 Q169.3237,264.3412 168.8599,264.3412 Q167.8711,264.3412 167.3676,265.1255 Q166.864,265.9098 166.864,267.454 Q166.864,268.9921 167.3676,269.7764 Q167.8711,270.5607 168.8599,270.5607 Q169.3237,270.5607 169.7601,270.3623 Q170.1965,270.164 170.6604,269.7367 Z " fill="#000000"/><text fill="#D8BC00" font-family="Open Sans,Avenir,Nunito,Arial,Helvetica,SansSerif" font-size="12.5" font-weight="bold" lengthAdjust="spacing" textLength="90.625" x="191.6667" y="272.0378">ProgressPanel</text><line style="stroke:#5E5E5E;stroke-width:1.5625;" x1="17.1875" x2="425.5208" y1="283.0078" y2="283.0078"/><ellipse cx="27.6042" cy="318.3777" fill="#84BE84" rx="3.125" ry="3.125" style="stroke:#038048;stroke-width:1.0416666666666667;"/><text fill="#D8BC00" font-family="Open Sans,Avenir,Nunito,Arial,Helvetica,SansSerif" font-size="11.4583" lengthAdjust="spacing" textLength="378.125" x="39.0625" y="325.2889">ProgressPanel(ProgressReporter, int, Callback&lt;CompletionStatus&gt;)</text><line style="stroke:#5E5E5E;stroke-width:1.0416666666666667;" x1="17.1875" x2="177.6042" y1="301.2136" y2="301.2136"/><text fill="#D8BC00" font-family="Open Sans,Avenir,Nunito,Arial,Helvetica,SansSerif" font-size="11.4583" lengthAdjust="spacing" textLength="81.25" x="180.7292" y="305.0232">(constructors)</text><line style="stroke:#5E5E5E;stroke-width:1.0416666666666667;" x1="265.1042" x2="425.5208" y1="301.2136" y2="301.2136"/><path codeLine="13" d="M221.3542,190.4215 C221.3542,209.859 221.3542,232.5778 221.3542,251.609 " fill="none" id="KivaKitPanel-backto-ProgressPanel" style="stroke:#545454;stroke-width:1.5625;"/><polygon fill="none" points="214.0625,190.3486,221.3542,169.5153,228.6458,190.3486,214.0625,190.3486" style="stroke:#545454;stroke-width:1.5625;"/></g></svg>
