<?xml version="1.0" encoding="UTF-8" standalone="no"?><svg xmlns="http://www.w3.org/2000/svg" xmlns:xlink="http://www.w3.org/1999/xlink" contentScriptType="application/ecmascript" contentStyleType="text/css" height="533.3333px" preserveAspectRatio="none" style="width:1025px;height:533px;background:#333333;" version="1.1" viewBox="0 0 1025 533" width="1025px" zoomAndPan="magnify"><defs/><g><rect fill="#48494B" height="41.2028" rx="8.3333" ry="8.3333" style="stroke:#545454;stroke-width:1.0416666666666667;" width="214.5833" x="397.9167" y="2.0833"/><text fill="#C0C0C0" font-family="Open Sans,Avenir,Nunito,Arial,Helvetica,SansSerif" font-size="20.8333" lengthAdjust="spacing" textLength="191.6667" x="409.375" y="30.5583">kivakit-ui-desktop</text><rect fill="#1B1B1A" height="44.93" rx="8.3333" ry="8.3333" style="stroke:#5E5E5E;stroke-width:1.5625;" width="70.8333" x="332.8125" y="160.9945"/><polygon fill="#1B1B1A" points="385.9375,166.2028,385.9375,180.7861,398.4375,180.7861,398.4375,172.4528,392.1875,166.2028,385.9375,166.2028" style="stroke:#5E5E5E;stroke-width:1.5625;"/><line style="stroke:#5E5E5E;stroke-width:1.5625;" x1="392.1875" x2="392.1875" y1="166.2028" y2="172.4528"/><line style="stroke:#5E5E5E;stroke-width:1.5625;" x1="398.4375" x2="392.1875" y1="172.4528" y2="172.4528"/><text fill="#D8BC00" font-family="Open Sans,Avenir,Nunito,Arial,Helvetica,SansSerif" font-size="12.5" lengthAdjust="spacing" textLength="33.3333" x="346.3542" y="189.7461">flatlaf</text><rect fill="#1B1B1A" height="44.93" rx="8.3333" ry="8.3333" style="stroke:#5E5E5E;stroke-width:1.5625;" width="138.5417" x="7.2917" y="482.8695"/><polygon fill="#1B1B1A" points="128.125,488.0778,128.125,502.6611,140.625,502.6611,140.625,494.3278,134.375,488.0778,128.125,488.0778" style="stroke:#5E5E5E;stroke-width:1.5625;"/><line style="stroke:#5E5E5E;stroke-width:1.5625;" x1="134.375" x2="134.375" y1="488.0778" y2="494.3278"/><line style="stroke:#5E5E5E;stroke-width:1.5625;" x1="140.625" x2="134.375" y1="494.3278" y2="494.3278"/><text fill="#D8BC00" font-family="Open Sans,Avenir,Nunito,Arial,Helvetica,SansSerif" font-size="12.5" lengthAdjust="spacing" textLength="101.0417" x="20.8333" y="511.6211">cactus_metadata</text><rect fill="#1B1B1A" height="44.93" rx="8.3333" ry="8.3333" style="stroke:#5E5E5E;stroke-width:1.5625;" width="143.75" x="202.6042" y="268.2861"/><polygon fill="#1B1B1A" points="328.6458,273.4945,328.6458,288.0778,341.1458,288.0778,341.1458,279.7445,334.8958,273.4945,328.6458,273.4945" style="stroke:#5E5E5E;stroke-width:1.5625;"/><line style="stroke:#5E5E5E;stroke-width:1.5625;" x1="334.8958" x2="334.8958" y1="273.4945" y2="279.7445"/><line style="stroke:#5E5E5E;stroke-width:1.5625;" x1="341.1458" x2="334.8958" y1="279.7445" y2="279.7445"/><text fill="#D8BC00" font-family="Open Sans,Avenir,Nunito,Arial,Helvetica,SansSerif" font-size="12.5" lengthAdjust="spacing" textLength="106.25" x="216.1458" y="297.0378">kivakit_collections</text><rect fill="#1B1B1A" height="44.93" rx="8.3333" ry="8.3333" style="stroke:#5E5E5E;stroke-width:1.5625;" width="162.5" x="426.5625" y="268.2861"/><polygon fill="#1B1B1A" points="571.3542,273.4945,571.3542,288.0778,583.8542,288.0778,583.8542,279.7445,577.6042,273.4945,571.3542,273.4945" style="stroke:#5E5E5E;stroke-width:1.5625;"/><line style="stroke:#5E5E5E;stroke-width:1.5625;" x1="577.6042" x2="577.6042" y1="273.4945" y2="279.7445"/><line style="stroke:#5E5E5E;stroke-width:1.5625;" x1="583.8542" x2="577.6042" y1="279.7445" y2="279.7445"/><text fill="#D8BC00" font-family="Open Sans,Avenir,Nunito,Arial,Helvetica,SansSerif" font-size="12.5" lengthAdjust="spacing" textLength="125" x="440.1042" y="297.0378">kivakit_commandline</text><rect fill="#1B1B1A" height="44.93" rx="8.3333" ry="8.3333" style="stroke:#5E5E5E;stroke-width:1.5625;" width="145.8333" x="343.2292" y="375.5778"/><polygon fill="#1B1B1A" points="471.3542,380.7861,471.3542,395.3695,483.8542,395.3695,483.8542,387.0361,477.6042,380.7861,471.3542,380.7861" style="stroke:#5E5E5E;stroke-width:1.5625;"/><line style="stroke:#5E5E5E;stroke-width:1.5625;" x1="477.6042" x2="477.6042" y1="380.7861" y2="387.0361"/><line style="stroke:#5E5E5E;stroke-width:1.5625;" x1="483.8542" x2="477.6042" y1="387.0361" y2="387.0361"/><text fill="#D8BC00" font-family="Open Sans,Avenir,Nunito,Arial,Helvetica,SansSerif" font-size="12.5" lengthAdjust="spacing" textLength="108.3333" x="356.7708" y="404.3294">kivakit_conversion</text><rect fill="#1B1B1A" height="44.93" rx="8.3333" ry="8.3333" style="stroke:#5E5E5E;stroke-width:1.5625;" width="108.3333" x="198.4375" y="375.5778"/><polygon fill="#1B1B1A" points="289.0625,380.7861,289.0625,395.3695,301.5625,395.3695,301.5625,387.0361,295.3125,380.7861,289.0625,380.7861" style="stroke:#5E5E5E;stroke-width:1.5625;"/><line style="stroke:#5E5E5E;stroke-width:1.5625;" x1="295.3125" x2="295.3125" y1="380.7861" y2="387.0361"/><line style="stroke:#5E5E5E;stroke-width:1.5625;" x1="301.5625" x2="295.3125" y1="387.0361" y2="387.0361"/><text fill="#D8BC00" font-family="Open Sans,Avenir,Nunito,Arial,Helvetica,SansSerif" font-size="12.5" lengthAdjust="spacing" textLength="70.8333" x="211.9792" y="404.3294">kivakit_core</text><rect fill="#1B1B1A" height="44.93" rx="8.3333" ry="8.3333" style="stroke:#5E5E5E;stroke-width:1.5625;" width="140.625" x="182.2917" y="482.8695"/><polygon fill="#1B1B1A" points="305.2083,488.0778,305.2083,502.6611,317.7083,502.6611,317.7083,494.3278,311.4583,488.0778,305.2083,488.0778" style="stroke:#5E5E5E;stroke-width:1.5625;"/><line style="stroke:#5E5E5E;stroke-width:1.5625;" x1="311.4583" x2="311.4583" y1="488.0778" y2="494.3278"/><line style="stroke:#5E5E5E;stroke-width:1.5625;" x1="317.7083" x2="311.4583" y1="494.3278" y2="494.3278"/><text fill="#D8BC00" font-family="Open Sans,Avenir,Nunito,Arial,Helvetica,SansSerif" font-size="12.5" lengthAdjust="spacing" textLength="103.125" x="195.8333" y="511.6211">kivakit_interfaces</text><rect fill="#1B1B1A" height="44.93" rx="8.3333" ry="8.3333" style="stroke:#5E5E5E;stroke-width:1.5625;" width="172.9167" x="647.3958" y="268.2861"/><polygon fill="#1B1B1A" points="802.6042,273.4945,802.6042,288.0778,815.1042,288.0778,815.1042,279.7445,808.8542,273.4945,802.6042,273.4945" style="stroke:#5E5E5E;stroke-width:1.5625;"/><line style="stroke:#5E5E5E;stroke-width:1.5625;" x1="808.8542" x2="808.8542" y1="273.4945" y2="279.7445"/><line style="stroke:#5E5E5E;stroke-width:1.5625;" x1="815.1042" x2="808.8542" y1="279.7445" y2="279.7445"/><text fill="#D8BC00" font-family="Open Sans,Avenir,Nunito,Arial,Helvetica,SansSerif" font-size="12.5" lengthAdjust="spacing" textLength="135.4167" x="660.9375" y="297.0378">kivakit_internal_testing</text><rect fill="#1B1B1A" height="44.93" rx="8.3333" ry="8.3333" style="stroke:#5E5E5E;stroke-width:1.5625;" width="120.8333" x="359.8958" y="482.8695"/><polygon fill="#1B1B1A" points="463.0208,488.0778,463.0208,502.6611,475.5208,502.6611,475.5208,494.3278,469.2708,488.0778,463.0208,488.0778" style="stroke:#5E5E5E;stroke-width:1.5625;"/><line style="stroke:#5E5E5E;stroke-width:1.5625;" x1="469.2708" x2="469.2708" y1="488.0778" y2="494.3278"/><line style="stroke:#5E5E5E;stroke-width:1.5625;" x1="475.5208" x2="469.2708" y1="494.3278" y2="494.3278"/><text fill="#D8BC00" font-family="Open Sans,Avenir,Nunito,Arial,Helvetica,SansSerif" font-size="12.5" lengthAdjust="spacing" textLength="83.3333" x="373.4375" y="511.6211">kivakit_mixins</text><rect fill="#1B1B1A" height="44.93" rx="8.3333" ry="8.3333" style="stroke:#5E5E5E;stroke-width:1.5625;" width="134.375" x="440.625" y="160.9945"/><polygon fill="#1B1B1A" points="557.2917,166.2028,557.2917,180.7861,569.7917,180.7861,569.7917,172.4528,563.5417,166.2028,557.2917,166.2028" style="stroke:#5E5E5E;stroke-width:1.5625;"/><line style="stroke:#5E5E5E;stroke-width:1.5625;" x1="563.5417" x2="563.5417" y1="166.2028" y2="172.4528"/><line style="stroke:#5E5E5E;stroke-width:1.5625;" x1="569.7917" x2="563.5417" y1="172.4528" y2="172.4528"/><text fill="#D8BC00" font-family="Open Sans,Avenir,Nunito,Arial,Helvetica,SansSerif" font-size="12.5" lengthAdjust="spacing" textLength="96.875" x="454.1667" y="189.7461">kivakit_resource</text><rect fill="#1B1B1A" height="44.93" rx="8.3333" ry="8.3333" style="stroke:#5E5E5E;stroke-width:1.5625;" width="121.875" x="672.9167" y="160.9945"/><polygon fill="#1B1B1A" points="777.0833,166.2028,777.0833,180.7861,789.5833,180.7861,789.5833,172.4528,783.3333,166.2028,777.0833,166.2028" style="stroke:#5E5E5E;stroke-width:1.5625;"/><line style="stroke:#5E5E5E;stroke-width:1.5625;" x1="783.3333" x2="783.3333" y1="166.2028" y2="172.4528"/><line style="stroke:#5E5E5E;stroke-width:1.5625;" x1="789.5833" x2="783.3333" y1="172.4528" y2="172.4528"/><text fill="#D8BC00" font-family="Open Sans,Avenir,Nunito,Arial,Helvetica,SansSerif" font-size="12.5" lengthAdjust="spacing" textLength="84.375" x="686.4583" y="189.7461">kivakit_testing</text><rect fill="#1B1B1A" height="44.93" rx="8.3333" ry="8.3333" style="stroke:#5E5E5E;stroke-width:1.5625;" width="147.9167" x="433.8542" y="53.7028"/><polygon fill="#1B1B1A" points="564.0625,58.9111,564.0625,73.4945,576.5625,73.4945,576.5625,65.1611,570.3125,58.9111,564.0625,58.9111" style="stroke:#5E5E5E;stroke-width:1.5625;"/><line style="stroke:#5E5E5E;stroke-width:1.5625;" x1="570.3125" x2="570.3125" y1="58.9111" y2="65.1611"/><line style="stroke:#5E5E5E;stroke-width:1.5625;" x1="576.5625" x2="570.3125" y1="65.1611" y2="65.1611"/><text fill="#D8BC00" font-family="Open Sans,Avenir,Nunito,Arial,Helvetica,SansSerif" font-size="12.5" lengthAdjust="spacing" textLength="110.4167" x="447.3958" y="82.4544">kivakit_ui_desktop</text><rect fill="#1B1B1A" height="44.93" rx="8.3333" ry="8.3333" style="stroke:#5E5E5E;stroke-width:1.5625;" width="139.5833" x="525.5208" y="375.5778"/><polygon fill="#1B1B1A" points="647.3958,380.7861,647.3958,395.3695,659.8958,395.3695,659.8958,387.0361,653.6458,380.7861,647.3958,380.7861" style="stroke:#5E5E5E;stroke-width:1.5625;"/><line style="stroke:#5E5E5E;stroke-width:1.5625;" x1="653.6458" x2="653.6458" y1="380.7861" y2="387.0361"/><line style="stroke:#5E5E5E;stroke-width:1.5625;" x1="659.8958" x2="653.6458" y1="387.0361" y2="387.0361"/><text fill="#D8BC00" font-family="Open Sans,Avenir,Nunito,Arial,Helvetica,SansSerif" font-size="12.5" lengthAdjust="spacing" textLength="102.0833" x="539.0625" y="404.3294">kivakit_validation</text><rect fill="#1B1B1A" height="44.93" rx="8.3333" ry="8.3333" style="stroke:#5E5E5E;stroke-width:1.5625;" width="155.2083" x="857.2917" y="268.2861"/><polygon fill="#1B1B1A" points="994.7917,273.4945,994.7917,288.0778,1007.2917,288.0778,1007.2917,279.7445,1001.0417,273.4945,994.7917,273.4945" style="stroke:#5E5E5E;stroke-width:1.5625;"/><line style="stroke:#5E5E5E;stroke-width:1.5625;" x1="1001.0417" x2="1001.0417" y1="273.4945" y2="279.7445"/><line style="stroke:#5E5E5E;stroke-width:1.5625;" x1="1007.2917" x2="1001.0417" y1="279.7445" y2="279.7445"/><text fill="#D8BC00" font-family="Open Sans,Avenir,Nunito,Arial,Helvetica,SansSerif" font-size="12.5" lengthAdjust="spacing" textLength="117.7083" x="870.8333" y="297.0378">lexakai_annotations</text><rect fill="#1B1B1A" height="44.93" rx="8.3333" ry="8.3333" style="stroke:#5E5E5E;stroke-width:1.5625;" width="63.5417" x="702.0833" y="375.5778"/><polygon fill="#1B1B1A" points="747.9167,380.7861,747.9167,395.3695,760.4167,395.3695,760.4167,387.0361,754.1667,380.7861,747.9167,380.7861" style="stroke:#5E5E5E;stroke-width:1.5625;"/><line style="stroke:#5E5E5E;stroke-width:1.5625;" x1="754.1667" x2="754.1667" y1="380.7861" y2="387.0361"/><line style="stroke:#5E5E5E;stroke-width:1.5625;" x1="760.4167" x2="754.1667" y1="387.0361" y2="387.0361"/><text fill="#D8BC00" font-family="Open Sans,Avenir,Nunito,Arial,Helvetica,SansSerif" font-size="12.5" lengthAdjust="spacing" textLength="26.0417" x="715.625" y="404.3294">junit</text><rect fill="#1B1B1A" height="44.93" rx="8.3333" ry="8.3333" style="stroke:#5E5E5E;stroke-width:1.5625;" width="125" x="671.3542" y="482.8695"/><polygon fill="#1B1B1A" points="778.6458,488.0778,778.6458,502.6611,791.1458,502.6611,791.1458,494.3278,784.8958,488.0778,778.6458,488.0778" style="stroke:#5E5E5E;stroke-width:1.5625;"/><line style="stroke:#5E5E5E;stroke-width:1.5625;" x1="784.8958" x2="784.8958" y1="488.0778" y2="494.3278"/><line style="stroke:#5E5E5E;stroke-width:1.5625;" x1="791.1458" x2="784.8958" y1="494.3278" y2="494.3278"/><text fill="#D8BC00" font-family="Open Sans,Avenir,Nunito,Arial,Helvetica,SansSerif" font-size="12.5" lengthAdjust="spacing" textLength="87.5" x="684.8958" y="511.6211">hamcrest_core</text><rect fill="#1B1B1A" height="44.93" rx="8.3333" ry="8.3333" style="stroke:#5E5E5E;stroke-width:1.5625;" width="106.25" x="802.6042" y="375.5778"/><polygon fill="#1B1B1A" points="891.1458,380.7861,891.1458,395.3695,903.6458,395.3695,903.6458,387.0361,897.3958,380.7861,891.1458,380.7861" style="stroke:#5E5E5E;stroke-width:1.5625;"/><line style="stroke:#5E5E5E;stroke-width:1.5625;" x1="897.3958" x2="897.3958" y1="380.7861" y2="387.0361"/><line style="stroke:#5E5E5E;stroke-width:1.5625;" x1="903.6458" x2="897.3958" y1="387.0361" y2="387.0361"/><text fill="#D8BC00" font-family="Open Sans,Avenir,Nunito,Arial,Helvetica,SansSerif" font-size="12.5" lengthAdjust="spacing" textLength="68.75" x="816.1458" y="404.3294">annotations</text><path d="M733.8542,420.8174 C733.8542,437.2861 733.8542,459.984 733.8542,477.5361 " fill="none" id="junit-to-hamcrest_core" style="stroke:#545454;stroke-width:1.5625;"/><polygon fill="#545454" points="733.8542,482.8174,738.0208,473.4424,733.8542,477.609,729.6875,473.4424,733.8542,482.8174" style="stroke:#545454;stroke-width:1.5625;"/><path d="M269.9479,313.5257 C266.5208,329.9945 261.8021,352.6924 258.1563,370.2445 " fill="none" id="kivakit_collections-to-kivakit_core" style="stroke:#545454;stroke-width:1.5625;"/><polygon fill="#545454" points="257.0521,375.5257,263.0558,367.2067,258.1221,370.4285,254.9002,365.4947,257.0521,375.5257" style="stroke:#545454;stroke-width:1.5625;"/><path d="M488.8229,313.5257 C474.2188,330.2757 454.0104,353.4736 438.6042,371.1507 " fill="none" id="kivakit_commandline-to-kivakit_conversion" style="stroke:#545454;stroke-width:1.5625;"/><polygon fill="#545454" points="434.8021,375.5257,444.0926,371.174,438.2149,371.5913,437.7976,365.7135,434.8021,375.5257" style="stroke:#545454;stroke-width:1.5625;"/><path d="M525.9375,313.5257 C539.875,330.2757 559.1667,353.4736 573.875,371.1507 " fill="none" id="kivakit_commandline-to-kivakit_validation" style="stroke:#545454;stroke-width:1.5625;"/><polygon fill="#545454" points="577.5,375.5257,574.7028,365.6552,574.1672,371.5233,568.299,370.9877,577.5,375.5257" style="stroke:#545454;stroke-width:1.5625;"/><path d="M216.5521,420.557 C187.7188,437.7965 147.2917,461.9528 117.2813,479.8903 " fill="none" id="kivakit_core-to-cactus_metadata" style="stroke:#545454;stroke-width:1.5625;"/><polygon fill="#545454" points="112.5625,482.7132,122.7483,481.4877,117.0352,480.0445,118.4784,474.3314,112.5625,482.7132" style="stroke:#545454;stroke-width:1.5625;"/><path d="M252.6042,420.8174 C252.6042,437.2861 252.6042,459.984 252.6042,477.5361 " fill="none" id="kivakit_core-to-kivakit_interfaces" style="stroke:#545454;stroke-width:1.5625;"/><polygon fill="#545454" points="252.6042,482.8174,256.7708,473.4424,252.6042,477.609,248.4375,473.4424,252.6042,482.8174" style="stroke:#545454;stroke-width:1.5625;"/><path d="M286.9479,420.557 C314.4167,437.7965 352.9375,461.9528 381.5208,479.8903 " fill="none" id="kivakit_core-to-kivakit_mixins" style="stroke:#545454;stroke-width:1.5625;"/><polygon fill="#545454" points="386.0104,482.7132,380.2894,474.1972,381.6005,479.9421,375.8556,481.2532,386.0104,482.7132" style="stroke:#545454;stroke-width:1.5625;"/><path d="M758.8125,313.2653 C778.5313,330.2861 806.0729,354.0674 826.7604,371.932 " fill="none" id="kivakit_internal_testing-to-annotations" style="stroke:#545454;stroke-width:1.5625;"/><polygon fill="#545454" points="830.8021,375.4215,826.433,366.1391,826.8613,372.0161,820.9843,372.4444,830.8021,375.4215" style="stroke:#545454;stroke-width:1.5625;"/><path d="M733.8542,313.5257 C733.8542,329.9945 733.8542,352.6924 733.8542,370.2445 " fill="none" id="kivakit_internal_testing-to-junit" style="stroke:#545454;stroke-width:1.5625;"/><polygon fill="#545454" points="733.8542,375.5257,738.0208,366.1507,733.8542,370.3174,729.6875,366.1507,733.8542,375.5257" style="stroke:#545454;stroke-width:1.5625;"/><path d="M460.3125,205.8486 C421.5104,223.3382 366.75,248.0361 326.7188,266.0882 " fill="none" id="kivakit_resource-to-kivakit_collections" style="stroke:#545454;stroke-width:1.5625;"/><polygon fill="#545454" points="321.9167,268.2549,332.1757,268.1954,326.6637,266.112,328.7471,260.6,321.9167,268.2549" style="stroke:#545454;stroke-width:1.5625;"/><path d="M507.8125,206.234 C507.8125,222.7028 507.8125,245.4007 507.8125,262.9528 " fill="none" id="kivakit_resource-to-kivakit_commandline" style="stroke:#545454;stroke-width:1.5625;"/><polygon fill="#545454" points="507.8125,268.234,511.9792,258.859,507.8125,263.0257,503.6458,258.859,507.8125,268.234" style="stroke:#545454;stroke-width:1.5625;"/><path d="M733.8542,206.234 C733.8542,222.7028 733.8542,245.4007 733.8542,262.9528 " fill="none" id="kivakit_testing-to-kivakit_internal_testing" style="stroke:#545454;stroke-width:1.5625;"/><polygon fill="#545454" points="733.8542,268.234,738.0208,258.859,733.8542,263.0257,729.6875,258.859,733.8542,268.234" style="stroke:#545454;stroke-width:1.5625;"/><path d="M775.0208,205.9736 C808.0938,223.2757 854.5104,247.5674 888.8125,265.5257 " fill="none" id="kivakit_testing-to-lexakai_annotations" style="stroke:#545454;stroke-width:1.5625;"/><polygon fill="#545454" points="893.7813,268.1299,887.4022,260.095,889.1652,265.7176,883.5426,267.4807,893.7813,268.1299" style="stroke:#545454;stroke-width:1.5625;"/><path d="M479.2292,98.682 C456.5521,115.7757 424.8333,139.682 401.1042,157.5674 " fill="none" id="kivakit_ui_desktop-to-flatlaf" style="stroke:#545454;stroke-width:1.5625;"/><polygon fill="#545454" points="396.7708,160.8382,406.7616,158.5065,400.925,157.6966,401.7349,151.8599,396.7708,160.8382" style="stroke:#545454;stroke-width:1.5625;"/><path d="M507.8125,98.9424 C507.8125,115.4111 507.8125,138.109 507.8125,155.6611 " fill="none" id="kivakit_ui_desktop-to-kivakit_resource" style="stroke:#545454;stroke-width:1.5625;"/><polygon fill="#545454" points="507.8125,160.9424,511.9792,151.5674,507.8125,155.734,503.6458,151.5674,507.8125,160.9424" style="stroke:#545454;stroke-width:1.5625;"/><path d="M553.8229,98.557 C591.2604,115.984 644.0417,140.5465 682.7708,158.5778 " fill="none" id="kivakit_ui_desktop-to-kivakit_testing" style="stroke:#545454;stroke-width:1.5625;"/><polygon fill="#545454" points="687.9063,160.9632,681.1541,153.2392,683.1812,158.7721,677.6483,160.7993,687.9063,160.9632" style="stroke:#545454;stroke-width:1.5625;"/></g></svg>
