<?xml version="1.0" encoding="UTF-8" standalone="no"?><svg xmlns="http://www.w3.org/2000/svg" xmlns:xlink="http://www.w3.org/1999/xlink" contentScriptType="application/ecmascript" contentStyleType="text/css" height="627.0833px" preserveAspectRatio="none" style="width:509px;height:627px;background:#333333;" version="1.1" viewBox="0 0 509 627" width="509.375px" zoomAndPan="magnify"><defs/><g><rect fill="#48494B" height="41.2028" rx="8.3333" ry="8.3333" style="stroke:#545454;stroke-width:1.0416666666666667;" width="111.4583" x="191.9271" y="2.0833"/><text fill="#C0C0C0" font-family="Open Sans,Avenir,Nunito,Arial,Helvetica,SansSerif" font-size="20.8333" lengthAdjust="spacing" textLength="88.5417" x="203.3854" y="30.5583">File Logs</text><!--MD5=[505565754f693a0fa517a94d5718b84f]
class BaseTextLog--><rect codeLine="6" fill="#282828" height="48.055" id="BaseTextLog" rx="8.3333" ry="8.3333" style="stroke:#5E5E5E;stroke-width:1.0416666666666667;" width="119.7917" x="171.3542" y="53.7028"/><rect fill="#1B1B1A" height="31.3883" rx="8.3333" ry="8.3333" style="stroke:#1B1B1A;stroke-width:1.0416666666666667;" width="119.7917" x="171.3542" y="53.7028"/><rect fill="#1B1B1A" height="8.3333" style="stroke:#1B1B1A;stroke-width:1.0416666666666667;" width="119.7917" x="171.3542" y="76.7578"/><rect codeLine="6" fill="none" height="48.055" id="BaseTextLog" rx="8.3333" ry="8.3333" style="stroke:#5E5E5E;stroke-width:1.0416666666666667;" width="119.7917" x="171.3542" y="53.7028"/><ellipse cx="185.9375" cy="69.397" fill="#C8AC00" rx="10.4167" ry="10.4167" style="stroke:#D8BC00;stroke-width:1.0416666666666667;"/><path d="M185.5306,66.099 L184.6822,69.8283 L186.3851,69.8283 Z M184.432,64.4511 L186.6353,64.4511 L189.0951,73.5636 L187.2945,73.5636 L186.733,71.3114 L184.3221,71.3114 L183.7728,73.5636 L181.9722,73.5636 Z " fill="#000000"/><text fill="#D8BC00" font-family="Open Sans,Avenir,Nunito,Arial,Helvetica,SansSerif" font-size="12.5" font-style="italic" font-weight="bold" lengthAdjust="spacing" textLength="82.2917" x="202.6042" y="74.1211">BaseTextLog</text><line style="stroke:#5E5E5E;stroke-width:1.0416666666666667;" x1="172.3958" x2="290.1042" y1="85.0911" y2="85.0911"/><line style="stroke:#5E5E5E;stroke-width:1.0416666666666667;" x1="172.3958" x2="290.1042" y1="93.4245" y2="93.4245"/><!--MD5=[de227fcb12288b7cf369d590f8ff09aa]
class BaseRolloverTextLog--><rect codeLine="14" fill="#282828" height="262.1704" id="BaseRolloverTextLog" rx="8.3333" ry="8.3333" style="stroke:#5E5E5E;stroke-width:1.0416666666666667;" width="275" x="93.75" y="165.1611"/><rect fill="#1B1B1A" height="31.3883" rx="8.3333" ry="8.3333" style="stroke:#1B1B1A;stroke-width:1.0416666666666667;" width="275" x="93.75" y="165.1611"/><rect fill="#1B1B1A" height="8.3333" style="stroke:#1B1B1A;stroke-width:1.0416666666666667;" width="275" x="93.75" y="188.2161"/><rect codeLine="14" fill="none" height="262.1704" id="BaseRolloverTextLog" rx="8.3333" ry="8.3333" style="stroke:#5E5E5E;stroke-width:1.0416666666666667;" width="275" x="93.75" y="165.1611"/><ellipse cx="156.25" cy="180.8553" fill="#C8AC00" rx="10.4167" ry="10.4167" style="stroke:#D8BC00;stroke-width:1.0416666666666667;"/><path d="M155.8431,177.5574 L154.9947,181.2866 L156.6976,181.2866 Z M154.7445,175.9094 L156.9478,175.9094 L159.4076,185.022 L157.607,185.022 L157.0455,182.7698 L154.6346,182.7698 L154.0853,185.022 L152.2847,185.022 Z " fill="#000000"/><text fill="#D8BC00" font-family="Open Sans,Avenir,Nunito,Arial,Helvetica,SansSerif" font-size="12.5" font-style="italic" font-weight="bold" lengthAdjust="spacing" textLength="135.4167" x="179.1667" y="185.5794">BaseRolloverTextLog</text><line style="stroke:#5E5E5E;stroke-width:1.5625;" x1="94.7917" x2="367.7083" y1="196.5495" y2="196.5495"/><polygon fill="#FFFF44" points="105.2083,226.711,109.375,230.8777,105.2083,235.0444,101.0417,230.8777" style="stroke:#B38D22;stroke-width:1.0416666666666667;"/><text fill="#D8BC00" font-family="Open Sans,Avenir,Nunito,Arial,Helvetica,SansSerif" font-size="11.4583" lengthAdjust="spacing" textLength="125" x="116.6667" y="238.8306">BaseRolloverTextLog()</text><line style="stroke:#5E5E5E;stroke-width:1.0416666666666667;" x1="94.7917" x2="187.5" y1="214.7552" y2="214.7552"/><text fill="#D8BC00" font-family="Open Sans,Avenir,Nunito,Arial,Helvetica,SansSerif" font-size="11.4583" lengthAdjust="spacing" textLength="81.25" x="190.625" y="218.5649">(constructors)</text><line style="stroke:#5E5E5E;stroke-width:1.0416666666666667;" x1="275" x2="367.7083" y1="214.7552" y2="214.7552"/><line style="stroke:#5E5E5E;stroke-width:1.0416666666666667;" x1="94.7917" x2="367.7083" y1="248.5392" y2="248.5392"/><ellipse cx="105.2083" cy="259.9976" fill="#84BE84" rx="3.125" ry="3.125" style="stroke:#038048;stroke-width:1.0416666666666667;"/><text fill="#D8BC00" font-family="Open Sans,Avenir,Nunito,Arial,Helvetica,SansSerif" font-size="11.4583" lengthAdjust="spacing" textLength="125" x="116.6667" y="266.9088">void rollover(Rollover)</text><ellipse cx="105.2083" cy="303.654" fill="#84BE84" rx="3.125" ry="3.125" style="stroke:#038048;stroke-width:1.0416666666666667;"/><text fill="#D8BC00" font-family="Open Sans,Avenir,Nunito,Arial,Helvetica,SansSerif" font-size="11.4583" lengthAdjust="spacing" textLength="242.7083" x="116.6667" y="310.5652">void maximumLogSize(Bytes maximumSize)</text><line style="stroke:#5E5E5E;stroke-width:1.0416666666666667;" x1="94.7917" x2="196.875" y1="286.4899" y2="286.4899"/><text fill="#D8BC00" font-family="Open Sans,Avenir,Nunito,Arial,Helvetica,SansSerif" font-size="11.4583" lengthAdjust="spacing" textLength="62.5" x="200" y="290.2995">(collection)</text><line style="stroke:#5E5E5E;stroke-width:1.0416666666666667;" x1="265.625" x2="367.7083" y1="286.4899" y2="286.4899"/><polygon fill="#FFFF44" points="105.2083,342.1021,109.375,346.2687,105.2083,350.4354,101.0417,346.2687" style="stroke:#B38D22;stroke-width:1.0416666666666667;"/><text fill="#D8BC00" font-family="Open Sans,Avenir,Nunito,Arial,Helvetica,SansSerif" font-size="11.4583" lengthAdjust="spacing" textLength="109.375" x="116.6667" y="354.2216">Time nextRollover()</text><polygon fill="#FFFF44" points="105.2083,361.8469,109.375,366.0136,105.2083,370.1803,101.0417,366.0136" style="stroke:#B38D22;stroke-width:1.0416666666666667;"/><text fill="#D8BC00" font-family="Open Sans,Avenir,Nunito,Arial,Helvetica,SansSerif" font-size="11.4583" lengthAdjust="spacing" textLength="78.125" x="116.6667" y="373.9665">Time started()</text><line style="stroke:#5E5E5E;stroke-width:1.0416666666666667;" x1="94.7917" x2="211.9792" y1="330.1463" y2="330.1463"/><text fill="#D8BC00" font-family="Open Sans,Avenir,Nunito,Arial,Helvetica,SansSerif" font-size="11.4583" lengthAdjust="spacing" textLength="32.2917" x="215.1042" y="333.9559">(time)</text><line style="stroke:#5E5E5E;stroke-width:1.0416666666666667;" x1="250.5208" x2="367.7083" y1="330.1463" y2="330.1463"/><polygon fill="#FFFF44" points="105.2083,405.5033,109.375,409.67,105.2083,413.8367,101.0417,409.67" style="stroke:#B38D22;stroke-width:1.0416666666666667;"/><text fill="#D8BC00" font-family="Open Sans,Avenir,Nunito,Arial,Helvetica,SansSerif" font-size="11.4583" lengthAdjust="spacing" textLength="189.5833" x="116.6667" y="417.6229">OutputStream newOutputStream()</text><line style="stroke:#5E5E5E;stroke-width:1.0416666666666667;" x1="94.7917" x2="210.4167" y1="393.5476" y2="393.5476"/><text fill="#D8BC00" font-family="Open Sans,Avenir,Nunito,Arial,Helvetica,SansSerif" font-size="11.4583" lengthAdjust="spacing" textLength="35.4167" x="213.5417" y="397.3572">(write)</text><line style="stroke:#5E5E5E;stroke-width:1.0416666666666667;" x1="252.0833" x2="367.7083" y1="393.5476" y2="393.5476"/><!--MD5=[fab6c57466650d461b83b55045b392ce]
class Bytes--><rect fill="#282828" height="48.055" id="Bytes" rx="8.3333" ry="8.3333" style="stroke:#5E5E5E;stroke-width:1.0416666666666667;" width="72.9167" x="7.2917" y="542.7653"/><rect fill="#1B1B1A" height="31.3883" rx="8.3333" ry="8.3333" style="stroke:#1B1B1A;stroke-width:1.0416666666666667;" width="72.9167" x="7.2917" y="542.7653"/><rect fill="#1B1B1A" height="8.3333" style="stroke:#1B1B1A;stroke-width:1.0416666666666667;" width="72.9167" x="7.2917" y="565.8203"/><rect fill="none" height="48.055" id="Bytes" rx="8.3333" ry="8.3333" style="stroke:#5E5E5E;stroke-width:1.0416666666666667;" width="72.9167" x="7.2917" y="542.7653"/><ellipse cx="21.875" cy="558.4595" fill="#0066CF" rx="10.4167" ry="10.4167" style="stroke:#0086EF;stroke-width:1.0416666666666667;"/><path d="M23.7854,562.8845 Q23.3582,563.1042 22.8882,563.2141 Q22.4182,563.324 21.8994,563.324 Q20.0562,563.324 19.0857,562.1094 Q18.1152,560.8948 18.1152,558.5999 Q18.1152,556.2988 19.0857,555.0842 Q20.0562,553.8696 21.8994,553.8696 Q22.4182,553.8696 22.8943,553.9795 Q23.3704,554.0894 23.7854,554.3091 L23.7854,556.311 Q23.3215,555.8838 22.8851,555.6854 Q22.4487,555.4871 21.9849,555.4871 Q20.9961,555.4871 20.4926,556.2714 Q19.989,557.0557 19.989,558.5999 Q19.989,560.1379 20.4926,560.9222 Q20.9961,561.7065 21.9849,561.7065 Q22.4487,561.7065 22.8851,561.5082 Q23.3215,561.3098 23.7854,560.8826 Z " fill="#000000"/><text fill="#D8BC00" font-family="Open Sans,Avenir,Nunito,Arial,Helvetica,SansSerif" font-size="12.5" font-weight="bold" lengthAdjust="spacing" textLength="35.4167" x="38.5417" y="563.1836">Bytes</text><line style="stroke:#5E5E5E;stroke-width:1.0416666666666667;" x1="8.3333" x2="79.1667" y1="574.1536" y2="574.1536"/><line style="stroke:#5E5E5E;stroke-width:1.0416666666666667;" x1="8.3333" x2="79.1667" y1="582.487" y2="582.487"/><!--MD5=[ed79aa50f93f86d7ea331e6371cdd8dc]
class BaseRolloverTextLog.Rollover--><rect codeLine="34" fill="#282828" height="107.2896" id="BaseRolloverTextLog.Rollover" rx="8.3333" ry="8.3333" style="stroke:#5E5E5E;stroke-width:1.0416666666666667;" width="90.625" x="125.5208" y="513.0778"/><rect fill="#1B1B1A" height="31.3883" rx="8.3333" ry="8.3333" style="stroke:#1B1B1A;stroke-width:1.0416666666666667;" width="90.625" x="125.5208" y="513.0778"/><rect fill="#1B1B1A" height="8.3333" style="stroke:#1B1B1A;stroke-width:1.0416666666666667;" width="90.625" x="125.5208" y="536.1328"/><rect codeLine="34" fill="none" height="107.2896" id="BaseRolloverTextLog.Rollover" rx="8.3333" ry="8.3333" style="stroke:#5E5E5E;stroke-width:1.0416666666666667;" width="90.625" x="125.5208" y="513.0778"/><ellipse cx="140.1042" cy="528.772" fill="#CF6300" rx="10.4167" ry="10.4167" style="stroke:#EF8300;stroke-width:1.0416666666666667;"/><path d="M143.16,533.4595 L137.4837,533.4595 L137.4837,524.3469 L143.16,524.3469 L143.16,525.9338 L139.2843,525.9338 L139.2843,527.8992 L142.7938,527.8992 L142.7938,529.4861 L139.2843,529.4861 L139.2843,531.8726 L143.16,531.8726 Z " fill="#000000"/><text fill="#D8BC00" font-family="Open Sans,Avenir,Nunito,Arial,Helvetica,SansSerif" font-size="12.5" font-weight="bold" lengthAdjust="spacing" textLength="53.125" x="156.7708" y="533.4961">Rollover</text><line style="stroke:#5E5E5E;stroke-width:1.0416666666666667;" x1="126.5625" x2="215.1042" y1="544.4661" y2="544.4661"/><text fill="#D8BC00" font-family="Open Sans,Avenir,Nunito,Arial,Helvetica,SansSerif" font-size="11.4583" lengthAdjust="spacing" textLength="33.3333" x="134.8958" y="562.8357">DAILY</text><text fill="#D8BC00" font-family="Open Sans,Avenir,Nunito,Arial,Helvetica,SansSerif" font-size="11.4583" lengthAdjust="spacing" textLength="46.875" x="134.8958" y="582.5806">HOURLY</text><text fill="#D8BC00" font-family="Open Sans,Avenir,Nunito,Arial,Helvetica,SansSerif" font-size="11.4583" lengthAdjust="spacing" textLength="32.2917" x="134.8958" y="602.3254">NONE</text><line style="stroke:#5E5E5E;stroke-width:1.0416666666666667;" x1="126.5625" x2="215.1042" y1="612.0341" y2="612.0341"/><!--MD5=[2e42295458bb0bec21c9622a623eb29e]
class Time--><rect fill="#282828" height="48.055" id="Time" rx="8.3333" ry="8.3333" style="stroke:#5E5E5E;stroke-width:1.0416666666666667;" width="69.7917" x="282.8125" y="542.7653"/><rect fill="#1B1B1A" height="31.3883" rx="8.3333" ry="8.3333" style="stroke:#1B1B1A;stroke-width:1.0416666666666667;" width="69.7917" x="282.8125" y="542.7653"/><rect fill="#1B1B1A" height="8.3333" style="stroke:#1B1B1A;stroke-width:1.0416666666666667;" width="69.7917" x="282.8125" y="565.8203"/><rect fill="none" height="48.055" id="Time" rx="8.3333" ry="8.3333" style="stroke:#5E5E5E;stroke-width:1.0416666666666667;" width="69.7917" x="282.8125" y="542.7653"/><ellipse cx="297.3958" cy="558.4595" fill="#0066CF" rx="10.4167" ry="10.4167" style="stroke:#0086EF;stroke-width:1.0416666666666667;"/><path d="M299.3062,562.8845 Q298.879,563.1042 298.409,563.2141 Q297.939,563.324 297.4202,563.324 Q295.577,563.324 294.6065,562.1094 Q293.6361,560.8948 293.6361,558.5999 Q293.6361,556.2988 294.6065,555.0842 Q295.577,553.8696 297.4202,553.8696 Q297.939,553.8696 298.4151,553.9795 Q298.8912,554.0894 299.3062,554.3091 L299.3062,556.311 Q298.8424,555.8838 298.406,555.6854 Q297.9696,555.4871 297.5057,555.4871 Q296.5169,555.4871 296.0134,556.2714 Q295.5098,557.0557 295.5098,558.5999 Q295.5098,560.1379 296.0134,560.9222 Q296.5169,561.7065 297.5057,561.7065 Q297.9696,561.7065 298.406,561.5082 Q298.8424,561.3098 299.3062,560.8826 Z " fill="#000000"/><text fill="#D8BC00" font-family="Open Sans,Avenir,Nunito,Arial,Helvetica,SansSerif" font-size="12.5" font-weight="bold" lengthAdjust="spacing" textLength="32.2917" x="314.0625" y="563.1836">Time</text><line style="stroke:#5E5E5E;stroke-width:1.0416666666666667;" x1="283.8542" x2="351.5625" y1="574.1536" y2="574.1536"/><line style="stroke:#5E5E5E;stroke-width:1.0416666666666667;" x1="283.8542" x2="351.5625" y1="582.487" y2="582.487"/><!--MD5=[8d6367f4c5e36d3967a47b495ff3937e]
class FileLog--><rect codeLine="30" fill="#282828" height="48.055" id="FileLog" rx="8.3333" ry="8.3333" style="stroke:#5E5E5E;stroke-width:1.0416666666666667;" width="84.375" x="418.2292" y="542.7653"/><rect fill="#1B1B1A" height="31.3883" rx="8.3333" ry="8.3333" style="stroke:#1B1B1A;stroke-width:1.0416666666666667;" width="84.375" x="418.2292" y="542.7653"/><rect fill="#1B1B1A" height="8.3333" style="stroke:#1B1B1A;stroke-width:1.0416666666666667;" width="84.375" x="418.2292" y="565.8203"/><rect codeLine="30" fill="none" height="48.055" id="FileLog" rx="8.3333" ry="8.3333" style="stroke:#5E5E5E;stroke-width:1.0416666666666667;" width="84.375" x="418.2292" y="542.7653"/><ellipse cx="432.8125" cy="558.4595" fill="#0066CF" rx="10.4167" ry="10.4167" style="stroke:#0086EF;stroke-width:1.0416666666666667;"/><path d="M434.7229,562.8845 Q434.2957,563.1042 433.8257,563.2141 Q433.3557,563.324 432.8369,563.324 Q430.9937,563.324 430.0232,562.1094 Q429.0527,560.8948 429.0527,558.5999 Q429.0527,556.2988 430.0232,555.0842 Q430.9937,553.8696 432.8369,553.8696 Q433.3557,553.8696 433.8318,553.9795 Q434.3079,554.0894 434.7229,554.3091 L434.7229,556.311 Q434.259,555.8838 433.8226,555.6854 Q433.3862,555.4871 432.9224,555.4871 Q431.9336,555.4871 431.4301,556.2714 Q430.9265,557.0557 430.9265,558.5999 Q430.9265,560.1379 431.4301,560.9222 Q431.9336,561.7065 432.9224,561.7065 Q433.3862,561.7065 433.8226,561.5082 Q434.259,561.3098 434.7229,560.8826 Z " fill="#000000"/><text fill="#D8BC00" font-family="Open Sans,Avenir,Nunito,Arial,Helvetica,SansSerif" font-size="12.5" font-weight="bold" lengthAdjust="spacing" textLength="46.875" x="449.4792" y="563.1836">FileLog</text><line style="stroke:#5E5E5E;stroke-width:1.0416666666666667;" x1="419.2708" x2="501.5625" y1="574.1536" y2="574.1536"/><line style="stroke:#5E5E5E;stroke-width:1.0416666666666667;" x1="419.2708" x2="501.5625" y1="582.487" y2="582.487"/><!--MD5=[1e3184f85ae0f9da10af9bcdc0b0db93]
reverse link BaseTextLog to BaseRolloverTextLog--><path codeLine="9" d="M231.25,122.984 C231.25,135.609 231.25,150.0361 231.25,165.0465 " fill="none" id="BaseTextLog-backto-BaseRolloverTextLog" style="stroke:#545454;stroke-width:1.5625;"/><polygon fill="none" points="223.9583,122.7236,231.25,101.8903,238.5417,122.7236,223.9583,122.7236" style="stroke:#545454;stroke-width:1.5625;"/><!--MD5=[31112f87dbd08742e6c683e030158f94]
reverse link BaseRolloverTextLog to Bytes--><path codeLine="10" d="M90.6146,439.4736 C86.1875,445.8799 82,452.3695 78.125,458.9111 C62.4375,485.3799 53.0208,519.8486 48.1042,542.359 " fill="none" id="BaseRolloverTextLog-backto-Bytes" style="stroke:#545454;stroke-width:1.5625;"/><polygon fill="#333333" points="98.8333,428.0257,91.8026,430.67,91.5393,438.1769,98.5701,435.5327,98.8333,428.0257" style="stroke:#545454;stroke-width:1.5625;"/><text fill="#A0A0A0" font-family="Open Sans,Avenir,Nunito,Arial,Helvetica,SansSerif" font-size="12.5" font-weight="bold" lengthAdjust="spacing" textLength="94.7917" x="82.2917" y="475.1628">maximum size</text><!--MD5=[84620640af261df461a063968202aba1]
reverse link BaseRolloverTextLog to BaseRolloverTextLog.Rollover--><path codeLine="11" d="M197.7604,441.0882 C196.3958,447.109 195.0521,453.0674 193.75,458.9111 C189.8229,476.484 185.6563,495.7236 181.9688,512.9632 " fill="none" id="BaseRolloverTextLog-backto-BaseRolloverTextLog.Rollover" style="stroke:#545454;stroke-width:1.5625;"/><polygon fill="#333333" points="200.7708,427.8278,195.3216,432.9979,197.9982,440.0164,203.4474,434.8463,200.7708,427.8278" style="stroke:#545454;stroke-width:1.5625;"/><!--MD5=[75dff6f73303482634785f58b5f4c093]
reverse link BaseRolloverTextLog to Time--><path codeLine="12" d="M217.0208,441.984 C219.1354,455.7653 222.6771,469.2757 228.125,481.8278 C239.2292,507.432 262.4271,528.7861 282.4375,543.5361 " fill="none" id="BaseRolloverTextLog-backto-Time" style="stroke:#545454;stroke-width:1.5625;"/><polygon fill="#333333" points="215.3542,428.1299,211.9665,434.8342,216.8522,440.5398,220.2398,433.8355,215.3542,428.1299" style="stroke:#545454;stroke-width:1.5625;"/><text fill="#A0A0A0" font-family="Open Sans,Avenir,Nunito,Arial,Helvetica,SansSerif" font-size="12.5" font-weight="bold" lengthAdjust="spacing" textLength="83.3333" x="232.2917" y="475.1628">rollover time</text><!--MD5=[75dff6f73303482634785f58b5f4c093]
reverse link BaseRolloverTextLog to Time--><path codeLine="13" d="M318.4063,441.0465 C320.5,446.984 322.3646,452.9528 323.9583,458.9111 C331.4271,486.9007 327.4688,520.4215 323.2396,542.3486 " fill="none" id="BaseRolloverTextLog-backto-Time-1" style="stroke:#545454;stroke-width:1.5625;"/><polygon fill="#333333" points="313.4792,428.0882,311.809,435.4118,317.9268,439.7702,319.597,432.4466,313.4792,428.0882" style="stroke:#545454;stroke-width:1.5625;"/><text fill="#A0A0A0" font-family="Open Sans,Avenir,Nunito,Arial,Helvetica,SansSerif" font-size="12.5" font-weight="bold" lengthAdjust="spacing" textLength="63.5417" x="332.2917" y="475.1628">start time</text><!--MD5=[c369b06abf26b9574c76ae7c4bd7957e]
reverse link BaseRolloverTextLog to FileLog--><path codeLine="29" d="M383.3958,428.609 C392.2292,438.4945 400.6458,448.6403 408.3333,458.9111 C427.9896,485.1611 443.3229,519.9945 452.1146,542.6195 " fill="none" id="BaseRolloverTextLog-backto-FileLog" style="stroke:#545454;stroke-width:1.5625;"/><polygon fill="none" points="378,433.5153,369.1875,413.2861,388.6979,423.5986,378,433.5153" style="stroke:#545454;stroke-width:1.5625;"/><!--MD5=[db1bad76b41bb4df3a2a119fbce5ed7b]
@startuml

    !include lexakai.theme
    
    title "File Logs"
    
    abstract BaseTextLog
    abstract BaseRolloverTextLog
    
    BaseTextLog <|- - BaseRolloverTextLog
    BaseRolloverTextLog o- - Bytes : "maximum size"
    BaseRolloverTextLog o- - BaseRolloverTextLog.Rollover
    BaseRolloverTextLog o- - Time : "rollover time"
    BaseRolloverTextLog o- - Time : "start time"
    abstract class BaseRolloverTextLog
    {
        - -(constructors)- -
        #BaseRolloverTextLog()
        - -
        +void rollover(Rollover)
        - -(collection)- -
        +void maximumLogSize(Bytes maximumSize)
        - -(time)- -
        #Time nextRollover()
        #Time started()
        - -(write)- -
        #OutputStream newOutputStream()
    }
    
    BaseRolloverTextLog <|- - FileLog
    class FileLog
    {
    }
    
    enum BaseRolloverTextLog.Rollover
    {
        DAILY
        HOURLY
        NONE
    }
    
@enduml

@startuml









skinparam backgroundColor #333333






skinparam  {
    defaultFontName   "Open Sans,Avenir,Nunito,Arial,Helvetica,SansSerif"
    defaultFontSize   12
    defaultTextAlignment left
    shadowing false
    RoundCorner 10
    TitleFontSize 18
}

skinparam defaultFontName       "Open Sans,Avenir,Nunito,Arial,Helvetica,SansSerif"
skinparam defaultFontSize       12
skinparam dpi                   100
skinparam shadowing             false
skinparam roundcorner           16
skinparam ParticipantPadding    40
skinparam BoxPadding            40
skinparam Padding               3
skinparam ArrowColor            #545454
skinparam stereotype {
    CBackgroundColor #0066cf
    CBorderColor #0086ef
    ABackgroundColor #C8Ac00
    ABorderColor #D8Bc00
    IBackgroundColor #008400
    IBorderColor #239c23
    EBackgroundColor #cf6300
    EBorderColor #ef8300
    NBackgroundColor #3380b9
    NBorderColor #004d86
}
skinparam title {
	FontColor	                 #c0c0c0
 	BorderColor                  #545454
	FontSize	    	         20
	BorderRoundCorner            16
	BorderThickness 	         1
	BackgroundColor              #48494b
}


skinparam legend {
	BackgroundColor #303030
	BorderColor #404040
	FontColor #a0a0a0
}

	skinparam swimlane {
	BorderColor #5e5e5e
	BorderThickness 2
	TitleBackgroundColor  #6d6d6d-#484848
	TitleFontColor #303030
}

skinparam activity {
		FontColor #C8Ac00
	BorderColor #333333
	BackgroundColor #333333-#333333
	BarColor #00FF00
	StartColor #0060a8
	EndColor #0060a8
	DiamondBackgroundColor #6d6d6d-#3a3a3a
  	DiamondBorderColor #3a3a3a
  	DiamondFontColor #fefefe
}


skinparam participant {
		FontColor #C8Ac00
	BorderColor #333333
	BackgroundColor #333333-#333333
	ParticipantBorderThickness 2
}


skinparam actor {
		FontColor #C8Ac00
	BorderColor #333333
	BackgroundColor #333333-#333333
}


skinparam arrow {
	Thickness 1.5
	Color #545454
	FontColor #a0a0a0
    FontStyle bold
    MessageAlignment center
}



skinparam sequence {
	BorderColor #303030
	TitleFontColor #303030
	BackgroundColor #333333
	StartColor #303030
	EndColor #303030
	BoxBackgroundColor #333333
	BoxBorderColor #484848
	BoxFontColor #484848
	LifeLineBorderColor #484848
	LifeLineBorderThickness 2
	LifeLineBackgroundColor #3a3a3a
	GroupBorderColor #484848
	GroupFontColor #484848
	GroupHeaderFontColor #0060a8
	GroupBackgroundColor #484848
	GroupHeaderBackgroundColor #333333
	DividerBackgroundColor #484848
    DividerBorderColor #484848
    DividerBorderThickness 2
    DividerFontColor #D8Bc00
	ReferenceBackgroundColor #333333
	ReferenceBorderColor #484848
	ReferenceFontColor #fefefe
	ReferenceHeaderBackgroundColor #484848
}


skinparam partition {
	BorderColor #303030
	FontColor #333333
	BackgroundColor #333333
}


skinparam collections {
		FontColor #C8Ac00
	BorderColor #333333
	BackgroundColor #333333-#333333
}


skinparam control {
		FontColor #C8Ac00
	BorderColor #333333
	BackgroundColor #333333-#333333
}


skinparam entity {
		FontColor #C8Ac00
	BorderColor #333333
	BackgroundColor #333333-#333333
}


skinparam boundary {
		FontColor #C8Ac00
	BorderColor #333333
	BackgroundColor #333333-#333333
}


skinparam agent {
	BackgroundColor #ff8000
	BorderColor #ff9933
	FontColor #484848
}


skinparam note {
	BorderThickness 1
	BackgroundColor #1b1b1a
	BorderColor #5e5e5e
	FontSize 11
	FontColor #a0a0a0
}


skinparam artifact {
	BorderThickness 10
	BorderColor #5e5e5e
	BackgroundColor #1b1b1a
	FontColor #D8Bc00
}


skinparam component {
		FontColor #C8Ac00
	BorderColor #333333
	BackgroundColor #333333-#333333
}


skinparam interface {
	BackgroundColor  #008400
	BorderColor  #007F00
	FontColor #484848
}


skinparam storage {
	BackgroundColor #ff8000
  	BorderColor #cc6600
	FontColor #222222
}


skinparam node {
	BackgroundColor #333333
	BorderColor #333333
	FontColor #C8Ac00
}


skinparam cloud {
	BackgroundColor #484848-black
	BorderColor #484848
	FontColor #D8Bc00
}


skinparam database {
		FontColor #C8Ac00
	BorderColor #333333
	BackgroundColor #333333-#333333
	BackgroundColor  #333333
}


skinparam class {
		FontColor #C8Ac00
	BorderColor #333333
	BackgroundColor #333333-#333333
	HeaderBackgroundColor #1b1b1a
    BackgroundColor #282828
    BorderColor #5e5e5e
 	StereotypeFontColor #a0a0a0
    StereotypeFontStyle bold
	BorderThickness 1
	AttributeFontColor #D8Bc00
	AttributeFontSize 11
    FontColor #D8Bc00
    FontStyle bold
}


skinparam object {
		FontColor #C8Ac00
	BorderColor #333333
	BackgroundColor #333333-#333333
	StereotypeFontColor #484848
	BorderThickness 1
	AttributeFontColor #fefefe
	AttributeFontSize 11
}


skinparam usecase {
		FontColor #C8Ac00
	BorderColor #333333
	BackgroundColor #333333-#333333
	BorderThickness 2
	StereotypeFontColor #303030
}


skinparam rectangle {
		FontColor #C8Ac00
	BorderColor #333333
	BackgroundColor #333333-#333333
	BackgroundColor #333333
	BorderThickness 2
	StereotypeFontColor #303030
}


skinparam package {
		FontColor #C8Ac00
	BorderColor #333333
	BackgroundColor #333333-#333333
	BackgroundColor #333333
	BorderThickness 2
}


skinparam folder {
	BackgroundColor #6d6d6d
  	BorderColor #ff8000
	FontColor #ff8000
	BorderThickness 2
}


skinparam frame {
	BackgroundColor #6d6d6d
  	BorderColor #0060a8
	FontColor #0060a8
	BorderThickness 2
}


skinparam state {
		FontColor #C8Ac00
	BorderColor #333333
	BackgroundColor #333333-#333333
	StartColor #0060a8
	EndColor #0060a8
	AttributeFontColor #fefefe
	AttributeFontSize 11
}


skinparam queue {
		FontColor #C8Ac00
	BorderColor #333333
	BackgroundColor #333333-#333333
}


skinparam card {
	BackgroundColor #0060a8
	BorderColor #004d86
	FontColor $INFO_TEXT
}


skinparam file {
	BackgroundColor #6d6d6d-#484848
	BorderColor #0060a8
	FontColor #fefefe
}


skinparam stack {
		FontColor #C8Ac00
	BorderColor #333333
	BackgroundColor #333333-#333333
}

    
    title "File Logs"
    
    abstract BaseTextLog
    abstract BaseRolloverTextLog
    
    BaseTextLog <|- - BaseRolloverTextLog
    BaseRolloverTextLog o- - Bytes : "maximum size"
    BaseRolloverTextLog o- - BaseRolloverTextLog.Rollover
    BaseRolloverTextLog o- - Time : "rollover time"
    BaseRolloverTextLog o- - Time : "start time"
    abstract class BaseRolloverTextLog
    {
        - -(constructors)- -
        #BaseRolloverTextLog()
        - -
        +void rollover(Rollover)
        - -(collection)- -
        +void maximumLogSize(Bytes maximumSize)
        - -(time)- -
        #Time nextRollover()
        #Time started()
        - -(write)- -
        #OutputStream newOutputStream()
    }
    
    BaseRolloverTextLog <|- - FileLog
    class FileLog
    {
    }
    
    enum BaseRolloverTextLog.Rollover
    {
        DAILY
        HOURLY
        NONE
    }
    
@enduml

PlantUML version 1.2021.01(Tue Feb 02 00:55:08 MST 2021)
(GPL source distribution)
Java Runtime: OpenJDK Runtime Environment
JVM: OpenJDK 64-Bit Server VM
Default Encoding: UTF-8
Language: en
Country: US
--></g></svg>