<?xml version="1.0" encoding="UTF-8" standalone="no"?><svg xmlns="http://www.w3.org/2000/svg" xmlns:xlink="http://www.w3.org/1999/xlink" contentScriptType="application/ecmascript" contentStyleType="text/css" height="218.75px" preserveAspectRatio="none" style="width:494px;height:218px;background:#333333;" version="1.1" viewBox="0 0 494 218" width="494.7917px" zoomAndPan="magnify"><defs/><g><rect fill="#48494B" height="41.2028" rx="8.3333" ry="8.3333" style="stroke:#545454;stroke-width:1.0416666666666667;" width="482.2917" x="2.0833" y="2.0833"/><text fill="#C0C0C0" font-family="Open Sans,Avenir,Nunito,Arial,Helvetica,SansSerif" font-size="20.8333" lengthAdjust="spacing" textLength="459.375" x="13.5417" y="30.5583">com.telenav.kivakit.extraction.internal.lexakai</text><rect codeLine="7" fill="#282828" height="48.055" id="UmlDiagramIdentifier" rx="8.3333" ry="8.3333" style="stroke:#5E5E5E;stroke-width:1.0416666666666667;" width="178.125" x="161.4583" y="53.7028"/><rect fill="#1B1B1A" height="31.3883" rx="8.3333" ry="8.3333" style="stroke:#1B1B1A;stroke-width:1.0416666666666667;" width="178.125" x="161.4583" y="53.7028"/><rect fill="#1B1B1A" height="8.3333" style="stroke:#1B1B1A;stroke-width:1.0416666666666667;" width="178.125" x="161.4583" y="76.7578"/><rect codeLine="7" fill="none" height="48.055" id="UmlDiagramIdentifier" rx="8.3333" ry="8.3333" style="stroke:#5E5E5E;stroke-width:1.0416666666666667;" width="178.125" x="161.4583" y="53.7028"/><ellipse cx="176.0417" cy="69.397" fill="#008400" rx="10.4167" ry="10.4167" style="stroke:#239C23;stroke-width:1.0416666666666667;"/><path d="M173.4456,66.5588 L173.4456,64.9719 L178.8717,64.9719 L178.8717,66.5588 L177.0589,66.5588 L177.0589,72.4976 L178.8717,72.4976 L178.8717,74.0845 L173.4456,74.0845 L173.4456,72.4976 L175.2584,72.4976 L175.2584,66.5588 Z " fill="#000000"/><text fill="#D8BC00" font-family="Open Sans,Avenir,Nunito,Arial,Helvetica,SansSerif" font-size="12.5" font-style="italic" font-weight="bold" lengthAdjust="spacing" textLength="140.625" x="192.7083" y="74.1211">UmlDiagramIdentifier</text><line style="stroke:#5E5E5E;stroke-width:1.0416666666666667;" x1="162.5" x2="338.5417" y1="85.0911" y2="85.0911"/><line style="stroke:#5E5E5E;stroke-width:1.0416666666666667;" x1="162.5" x2="338.5417" y1="93.4245" y2="93.4245"/><rect codeLine="9" fill="#282828" height="48.055" id="DiagramExtraction" rx="8.3333" ry="8.3333" style="stroke:#5E5E5E;stroke-width:1.0416666666666667;" width="157.2917" x="171.875" y="164.1195"/><rect fill="#1B1B1A" height="31.3883" rx="8.3333" ry="8.3333" style="stroke:#1B1B1A;stroke-width:1.0416666666666667;" width="157.2917" x="171.875" y="164.1195"/><rect fill="#1B1B1A" height="8.3333" style="stroke:#1B1B1A;stroke-width:1.0416666666666667;" width="157.2917" x="171.875" y="187.1745"/><rect codeLine="9" fill="none" height="48.055" id="DiagramExtraction" rx="8.3333" ry="8.3333" style="stroke:#5E5E5E;stroke-width:1.0416666666666667;" width="157.2917" x="171.875" y="164.1195"/><ellipse cx="186.4583" cy="179.8136" fill="#008400" rx="10.4167" ry="10.4167" style="stroke:#239C23;stroke-width:1.0416666666666667;"/><path d="M183.8623,176.9755 L183.8623,175.3886 L189.2883,175.3886 L189.2883,176.9755 L187.4756,176.9755 L187.4756,182.9142 L189.2883,182.9142 L189.2883,184.5011 L183.8623,184.5011 L183.8623,182.9142 L185.675,182.9142 L185.675,176.9755 Z " fill="#000000"/><text fill="#D8BC00" font-family="Open Sans,Avenir,Nunito,Arial,Helvetica,SansSerif" font-size="12.5" font-style="italic" font-weight="bold" lengthAdjust="spacing" textLength="119.7917" x="203.125" y="184.5378">DiagramExtraction</text><line style="stroke:#5E5E5E;stroke-width:1.0416666666666667;" x1="172.9167" x2="328.125" y1="195.5078" y2="195.5078"/><line style="stroke:#5E5E5E;stroke-width:1.0416666666666667;" x1="172.9167" x2="328.125" y1="203.8411" y2="203.8411"/><path codeLine="8" d="M250.5208,122.6195 C250.5208,136.8382 250.5208,152.0361 250.5208,164.0986 " fill="none" id="UmlDiagramIdentifier-backto-DiagramExtraction" style="stroke:#545454;stroke-width:1.5625;"/><polygon fill="none" points="243.2292,122.5153,250.5208,101.682,257.8125,122.5153,243.2292,122.5153" style="stroke:#545454;stroke-width:1.5625;"/></g></svg>
