<?xml version="1.0" encoding="UTF-8" standalone="no"?><svg xmlns="http://www.w3.org/2000/svg" xmlns:xlink="http://www.w3.org/1999/xlink" contentScriptType="application/ecmascript" contentStyleType="text/css" height="847.9167px" preserveAspectRatio="none" style="width:1161px;height:847px;background:#333333;" version="1.1" viewBox="0 0 1161 847" width="1161.4583px" zoomAndPan="magnify"><defs/><g><rect fill="#48494B" height="41.2028" rx="8.3333" ry="8.3333" style="stroke:#545454;stroke-width:1.0416666666666667;" width="563.5417" x="291.9271" y="2.0833"/><text fill="#C0C0C0" font-family="Open Sans,Avenir,Nunito,Arial,Helvetica,SansSerif" font-size="20.8333" lengthAdjust="spacing" textLength="540.625" x="303.3854" y="30.5583">com.telenav.kivakit.configuration.settings.deployment</text><!--MD5=[c8ffe1ebc5ac90f537fe46e912343a18]
cluster Deployment--><polygon fill="#333333" points="843.2292,293.2861,934.8958,293.2861,942.1875,320.5078,1144.2708,320.5078,1144.2708,450.5778,843.2292,450.5778,843.2292,293.2861" style="stroke:#333333;stroke-width:2.0833333333333335;"/><line style="stroke:#333333;stroke-width:2.0833333333333335;" x1="843.2292" x2="942.1875" y1="320.5078" y2="320.5078"/><text fill="#C8AC00" font-family="Open Sans,Avenir,Nunito,Arial,Helvetica,SansSerif" font-size="12.5" font-weight="bold" lengthAdjust="spacing" textLength="79.1667" x="850.5208" y="310.5794">Deployment</text><!--MD5=[a82bad64dee291083d12bb31b7c0144c]
class Deployment.Converter--><rect codeLine="13" fill="#282828" height="83.3781" id="Deployment.Converter" rx="8.3333" ry="8.3333" style="stroke:#5E5E5E;stroke-width:1.0416666666666667;" width="231.25" x="888.0208" y="342.2445"/><rect fill="#1B1B1A" height="31.3883" rx="8.3333" ry="8.3333" style="stroke:#1B1B1A;stroke-width:1.0416666666666667;" width="231.25" x="888.0208" y="342.2445"/><rect fill="#1B1B1A" height="8.3333" style="stroke:#1B1B1A;stroke-width:1.0416666666666667;" width="231.25" x="888.0208" y="365.2995"/><rect codeLine="13" fill="none" height="83.3781" id="Deployment.Converter" rx="8.3333" ry="8.3333" style="stroke:#5E5E5E;stroke-width:1.0416666666666667;" width="231.25" x="888.0208" y="342.2445"/><ellipse cx="964.5833" cy="357.9386" fill="#0066CF" rx="10.4167" ry="10.4167" style="stroke:#0086EF;stroke-width:1.0416666666666667;"/><path d="M966.4937,362.3637 Q966.0665,362.5834 965.5965,362.6933 Q965.1265,362.8031 964.6077,362.8031 Q962.7645,362.8031 961.794,361.5885 Q960.8236,360.3739 960.8236,358.079 Q960.8236,355.778 961.794,354.5634 Q962.7645,353.3488 964.6077,353.3488 Q965.1265,353.3488 965.6026,353.4587 Q966.0787,353.5685 966.4937,353.7882 L966.4937,355.7902 Q966.0299,355.363 965.5935,355.1646 Q965.1571,354.9662 964.6932,354.9662 Q963.7044,354.9662 963.2009,355.7505 Q962.6973,356.5348 962.6973,358.079 Q962.6973,359.6171 963.2009,360.4014 Q963.7044,361.1857 964.6932,361.1857 Q965.1571,361.1857 965.5935,360.9873 Q966.0299,360.789 966.4937,360.3617 Z " fill="#000000"/><text fill="#D8BC00" font-family="Open Sans,Avenir,Nunito,Arial,Helvetica,SansSerif" font-size="12.5" font-weight="bold" lengthAdjust="spacing" textLength="63.5417" x="987.5" y="362.6628">Converter</text><line style="stroke:#5E5E5E;stroke-width:1.5625;" x1="889.0625" x2="1118.2292" y1="373.6328" y2="373.6328"/><ellipse cx="899.4792" cy="409.0027" fill="#84BE84" rx="3.125" ry="3.125" style="stroke:#038048;stroke-width:1.0416666666666667;"/><text fill="#D8BC00" font-family="Open Sans,Avenir,Nunito,Arial,Helvetica,SansSerif" font-size="11.4583" lengthAdjust="spacing" textLength="198.9583" x="910.9375" y="415.9139">Converter(Listener, DeploymentSet)</text><line style="stroke:#5E5E5E;stroke-width:1.0416666666666667;" x1="889.0625" x2="959.8958" y1="391.8386" y2="391.8386"/><text fill="#D8BC00" font-family="Open Sans,Avenir,Nunito,Arial,Helvetica,SansSerif" font-size="11.4583" lengthAdjust="spacing" textLength="81.25" x="963.0208" y="395.6482">(constructors)</text><line style="stroke:#5E5E5E;stroke-width:1.0416666666666667;" x1="1047.3958" x2="1118.2292" y1="391.8386" y2="391.8386"/><!--MD5=[762aa3d0df6a9d47bd8e105afbd066b5]
class BaseRepeater--><rect codeLine="6" fill="#282828" height="48.055" id="BaseRepeater" rx="8.3333" ry="8.3333" style="stroke:#5E5E5E;stroke-width:1.0416666666666667;" width="123.9583" x="153.125" y="53.7028"/><rect fill="#1B1B1A" height="31.3883" rx="8.3333" ry="8.3333" style="stroke:#1B1B1A;stroke-width:1.0416666666666667;" width="123.9583" x="153.125" y="53.7028"/><rect fill="#1B1B1A" height="8.3333" style="stroke:#1B1B1A;stroke-width:1.0416666666666667;" width="123.9583" x="153.125" y="76.7578"/><rect codeLine="6" fill="none" height="48.055" id="BaseRepeater" rx="8.3333" ry="8.3333" style="stroke:#5E5E5E;stroke-width:1.0416666666666667;" width="123.9583" x="153.125" y="53.7028"/><ellipse cx="167.7083" cy="69.397" fill="#C8AC00" rx="10.4167" ry="10.4167" style="stroke:#D8BC00;stroke-width:1.0416666666666667;"/><path d="M167.3014,66.099 L166.453,69.8283 L168.1559,69.8283 Z M166.2028,64.4511 L168.4062,64.4511 L170.8659,73.5636 L169.0653,73.5636 L168.5038,71.3114 L166.0929,71.3114 L165.5436,73.5636 L163.7431,73.5636 Z " fill="#000000"/><text fill="#D8BC00" font-family="Open Sans,Avenir,Nunito,Arial,Helvetica,SansSerif" font-size="12.5" font-style="italic" font-weight="bold" lengthAdjust="spacing" textLength="86.4583" x="184.375" y="74.1211">BaseRepeater</text><line style="stroke:#5E5E5E;stroke-width:1.0416666666666667;" x1="154.1667" x2="276.0417" y1="85.0911" y2="85.0911"/><line style="stroke:#5E5E5E;stroke-width:1.0416666666666667;" x1="154.1667" x2="276.0417" y1="93.4245" y2="93.4245"/><!--MD5=[9aa687ed59f428548907e723dba1087a]
class BaseStringConverter--><rect codeLine="7" fill="#282828" height="48.055" id="BaseStringConverter" rx="8.3333" ry="8.3333" style="stroke:#5E5E5E;stroke-width:1.0416666666666667;" width="169.7917" x="918.75" y="53.7028"/><rect fill="#1B1B1A" height="31.3883" rx="8.3333" ry="8.3333" style="stroke:#1B1B1A;stroke-width:1.0416666666666667;" width="169.7917" x="918.75" y="53.7028"/><rect fill="#1B1B1A" height="8.3333" style="stroke:#1B1B1A;stroke-width:1.0416666666666667;" width="169.7917" x="918.75" y="76.7578"/><rect codeLine="7" fill="none" height="48.055" id="BaseStringConverter" rx="8.3333" ry="8.3333" style="stroke:#5E5E5E;stroke-width:1.0416666666666667;" width="169.7917" x="918.75" y="53.7028"/><ellipse cx="933.3333" cy="69.397" fill="#C8AC00" rx="10.4167" ry="10.4167" style="stroke:#D8BC00;stroke-width:1.0416666666666667;"/><path d="M932.9264,66.099 L932.078,69.8283 L933.7809,69.8283 Z M931.8278,64.4511 L934.0312,64.4511 L936.4909,73.5636 L934.6903,73.5636 L934.1288,71.3114 L931.7179,71.3114 L931.1686,73.5636 L929.3681,73.5636 Z " fill="#000000"/><text fill="#D8BC00" font-family="Open Sans,Avenir,Nunito,Arial,Helvetica,SansSerif" font-size="12.5" font-style="italic" font-weight="bold" lengthAdjust="spacing" textLength="132.2917" x="950" y="74.1211">BaseStringConverter</text><line style="stroke:#5E5E5E;stroke-width:1.0416666666666667;" x1="919.7917" x2="1087.5" y1="85.0911" y2="85.0911"/><line style="stroke:#5E5E5E;stroke-width:1.0416666666666667;" x1="919.7917" x2="1087.5" y1="93.4245" y2="93.4245"/><!--MD5=[7c5c88a606935469d5f89b0b5794816c]
class Named--><rect codeLine="9" fill="#282828" height="48.055" id="Named" rx="8.3333" ry="8.3333" style="stroke:#5E5E5E;stroke-width:1.0416666666666667;" width="82.2917" x="457.2917" y="359.9528"/><rect fill="#1B1B1A" height="31.3883" rx="8.3333" ry="8.3333" style="stroke:#1B1B1A;stroke-width:1.0416666666666667;" width="82.2917" x="457.2917" y="359.9528"/><rect fill="#1B1B1A" height="8.3333" style="stroke:#1B1B1A;stroke-width:1.0416666666666667;" width="82.2917" x="457.2917" y="383.0078"/><rect codeLine="9" fill="none" height="48.055" id="Named" rx="8.3333" ry="8.3333" style="stroke:#5E5E5E;stroke-width:1.0416666666666667;" width="82.2917" x="457.2917" y="359.9528"/><ellipse cx="471.875" cy="375.647" fill="#008400" rx="10.4167" ry="10.4167" style="stroke:#239C23;stroke-width:1.0416666666666667;"/><path d="M469.279,372.8088 L469.279,371.2219 L474.705,371.2219 L474.705,372.8088 L472.8923,372.8088 L472.8923,378.7476 L474.705,378.7476 L474.705,380.3345 L469.279,380.3345 L469.279,378.7476 L471.0917,378.7476 L471.0917,372.8088 Z " fill="#000000"/><text fill="#D8BC00" font-family="Open Sans,Avenir,Nunito,Arial,Helvetica,SansSerif" font-size="12.5" font-style="italic" font-weight="bold" lengthAdjust="spacing" textLength="44.7917" x="488.5417" y="380.3711">Named</text><line style="stroke:#5E5E5E;stroke-width:1.0416666666666667;" x1="458.3333" x2="538.5417" y1="391.3411" y2="391.3411"/><line style="stroke:#5E5E5E;stroke-width:1.0416666666666667;" x1="458.3333" x2="538.5417" y1="399.6745" y2="399.6745"/><!--MD5=[cc3de0a176daa3c4ec875deafdf5ddd1]
class Serializable--><rect codeLine="10" fill="#282828" height="48.055" id="Serializable" rx="8.3333" ry="8.3333" style="stroke:#5E5E5E;stroke-width:1.0416666666666667;" width="111.4583" x="576.0417" y="359.9528"/><rect fill="#1B1B1A" height="31.3883" rx="8.3333" ry="8.3333" style="stroke:#1B1B1A;stroke-width:1.0416666666666667;" width="111.4583" x="576.0417" y="359.9528"/><rect fill="#1B1B1A" height="8.3333" style="stroke:#1B1B1A;stroke-width:1.0416666666666667;" width="111.4583" x="576.0417" y="383.0078"/><rect codeLine="10" fill="none" height="48.055" id="Serializable" rx="8.3333" ry="8.3333" style="stroke:#5E5E5E;stroke-width:1.0416666666666667;" width="111.4583" x="576.0417" y="359.9528"/><ellipse cx="590.625" cy="375.647" fill="#008400" rx="10.4167" ry="10.4167" style="stroke:#239C23;stroke-width:1.0416666666666667;"/><path d="M588.029,372.8088 L588.029,371.2219 L593.455,371.2219 L593.455,372.8088 L591.6423,372.8088 L591.6423,378.7476 L593.455,378.7476 L593.455,380.3345 L588.029,380.3345 L588.029,378.7476 L589.8417,378.7476 L589.8417,372.8088 Z " fill="#000000"/><text fill="#D8BC00" font-family="Open Sans,Avenir,Nunito,Arial,Helvetica,SansSerif" font-size="12.5" font-style="italic" font-weight="bold" lengthAdjust="spacing" textLength="73.9583" x="607.2917" y="380.3711">Serializable</text><line style="stroke:#5E5E5E;stroke-width:1.0416666666666667;" x1="577.0833" x2="686.4583" y1="391.3411" y2="391.3411"/><line style="stroke:#5E5E5E;stroke-width:1.0416666666666667;" x1="577.0833" x2="686.4583" y1="399.6745" y2="399.6745"/><!--MD5=[fb0932da17f9982e4848347a102654e2]
class Settings--><rect fill="#282828" height="48.055" id="Settings" rx="8.3333" ry="8.3333" style="stroke:#5E5E5E;stroke-width:1.0416666666666667;" width="90.625" x="723.9583" y="359.9528"/><rect fill="#1B1B1A" height="31.3883" rx="8.3333" ry="8.3333" style="stroke:#1B1B1A;stroke-width:1.0416666666666667;" width="90.625" x="723.9583" y="359.9528"/><rect fill="#1B1B1A" height="8.3333" style="stroke:#1B1B1A;stroke-width:1.0416666666666667;" width="90.625" x="723.9583" y="383.0078"/><rect fill="none" height="48.055" id="Settings" rx="8.3333" ry="8.3333" style="stroke:#5E5E5E;stroke-width:1.0416666666666667;" width="90.625" x="723.9583" y="359.9528"/><ellipse cx="738.5417" cy="375.647" fill="#0066CF" rx="10.4167" ry="10.4167" style="stroke:#0086EF;stroke-width:1.0416666666666667;"/><path d="M740.4521,380.072 Q740.0248,380.2917 739.5549,380.4016 Q739.0849,380.5115 738.5661,380.5115 Q736.7228,380.5115 735.7524,379.2969 Q734.7819,378.0823 734.7819,375.7874 Q734.7819,373.4863 735.7524,372.2717 Q736.7228,371.0571 738.5661,371.0571 Q739.0849,371.0571 739.561,371.167 Q740.037,371.2769 740.4521,371.4966 L740.4521,373.4985 Q739.9882,373.0713 739.5518,372.8729 Q739.1154,372.6746 738.6515,372.6746 Q737.6628,372.6746 737.1592,373.4589 Q736.6557,374.2432 736.6557,375.7874 Q736.6557,377.3254 737.1592,378.1097 Q737.6628,378.894 738.6515,378.894 Q739.1154,378.894 739.5518,378.6957 Q739.9882,378.4973 740.4521,378.0701 Z " fill="#000000"/><text fill="#D8BC00" font-family="Open Sans,Avenir,Nunito,Arial,Helvetica,SansSerif" font-size="12.5" font-weight="bold" lengthAdjust="spacing" textLength="53.125" x="755.2083" y="380.3711">Settings</text><line style="stroke:#5E5E5E;stroke-width:1.0416666666666667;" x1="725" x2="813.5417" y1="391.3411" y2="391.3411"/><line style="stroke:#5E5E5E;stroke-width:1.0416666666666667;" x1="725" x2="813.5417" y1="399.6745" y2="399.6745"/><!--MD5=[0b39f38c1c24e25039dcaeabf39aa6ad]
class Deployment--><rect codeLine="22" fill="#282828" height="174.8576" id="Deployment" rx="8.3333" ry="8.3333" style="stroke:#5E5E5E;stroke-width:1.0416666666666667;" width="621.875" x="254.1667" y="666.2028"/><rect fill="#1B1B1A" height="31.3883" rx="8.3333" ry="8.3333" style="stroke:#1B1B1A;stroke-width:1.0416666666666667;" width="621.875" x="254.1667" y="666.2028"/><rect fill="#1B1B1A" height="8.3333" style="stroke:#1B1B1A;stroke-width:1.0416666666666667;" width="621.875" x="254.1667" y="689.2578"/><rect codeLine="22" fill="none" height="174.8576" id="Deployment" rx="8.3333" ry="8.3333" style="stroke:#5E5E5E;stroke-width:1.0416666666666667;" width="621.875" x="254.1667" y="666.2028"/><ellipse cx="518.2292" cy="681.897" fill="#0066CF" rx="10.4167" ry="10.4167" style="stroke:#0086EF;stroke-width:1.0416666666666667;"/><path d="M520.1396,686.322 Q519.7123,686.5417 519.2424,686.6516 Q518.7724,686.7615 518.2536,686.7615 Q516.4103,686.7615 515.4399,685.5469 Q514.4694,684.3323 514.4694,682.0374 Q514.4694,679.7363 515.4399,678.5217 Q516.4103,677.3071 518.2536,677.3071 Q518.7724,677.3071 519.2485,677.417 Q519.7245,677.5269 520.1396,677.7466 L520.1396,679.7485 Q519.6757,679.3213 519.2393,679.1229 Q518.8029,678.9246 518.339,678.9246 Q517.3503,678.9246 516.8467,679.7089 Q516.3432,680.4932 516.3432,682.0374 Q516.3432,683.5754 516.8467,684.3597 Q517.3503,685.144 518.339,685.144 Q518.8029,685.144 519.2393,684.9457 Q519.6757,684.7473 520.1396,684.3201 Z " fill="#000000"/><text fill="#D8BC00" font-family="Open Sans,Avenir,Nunito,Arial,Helvetica,SansSerif" font-size="12.5" font-weight="bold" lengthAdjust="spacing" textLength="79.1667" x="541.1458" y="686.6211">Deployment</text><line style="stroke:#5E5E5E;stroke-width:1.5625;" x1="255.2083" x2="875" y1="697.5911" y2="697.5911"/><ellipse cx="265.625" cy="732.961" fill="#84BE84" rx="3.125" ry="3.125" style="stroke:#038048;stroke-width:1.0416666666666667;"/><text fill="#D8BC00" font-family="Open Sans,Avenir,Nunito,Arial,Helvetica,SansSerif" font-size="11.4583" lengthAdjust="spacing" textLength="147.9167" x="277.0833" y="739.8722">Deployment(String, String)</text><line style="stroke:#5E5E5E;stroke-width:1.0416666666666667;" x1="255.2083" x2="521.3542" y1="715.7969" y2="715.7969"/><text fill="#D8BC00" font-family="Open Sans,Avenir,Nunito,Arial,Helvetica,SansSerif" font-size="11.4583" lengthAdjust="spacing" textLength="81.25" x="524.4792" y="719.6065">(constructors)</text><line style="stroke:#5E5E5E;stroke-width:1.0416666666666667;" x1="608.8542" x2="875" y1="715.7969" y2="715.7969"/><line style="stroke:#5E5E5E;stroke-width:1.0416666666666667;" x1="255.2083" x2="875" y1="749.5809" y2="749.5809"/><ellipse cx="265.625" cy="761.0392" fill="#84BE84" rx="3.125" ry="3.125" style="stroke:#038048;stroke-width:1.0416666666666667;"/><text fill="#D8BC00" font-family="Open Sans,Avenir,Nunito,Arial,Helvetica,SansSerif" font-size="11.4583" lengthAdjust="spacing" textLength="108.3333" x="277.0833" y="767.9504">String description()</text><ellipse cx="265.625" cy="804.6956" fill="#84BE84" rx="3.125" ry="3.125" style="stroke:#038048;stroke-width:1.0416666666666667;"/><text fill="#D8BC00" font-family="Open Sans,Avenir,Nunito,Arial,Helvetica,SansSerif" font-size="11.4583" lengthAdjust="spacing" textLength="232.2917" x="277.0833" y="811.6069">Deployment addDeployment(Deployment)</text><ellipse cx="265.625" cy="824.4405" fill="#84BE84" rx="3.125" ry="3.125" style="stroke:#038048;stroke-width:1.0416666666666667;"/><text fill="#D8BC00" font-family="Open Sans,Avenir,Nunito,Arial,Helvetica,SansSerif" font-size="11.4583" lengthAdjust="spacing" textLength="589.5833" x="277.0833" y="831.3517">SwitchParser.Builder&lt;Deployment&gt; deploymentSwitchParser(Listener, DeploymentSet, String switchName)</text><line style="stroke:#5E5E5E;stroke-width:1.0416666666666667;" x1="255.2083" x2="519.7917" y1="787.5315" y2="787.5315"/><text fill="#D8BC00" font-family="Open Sans,Avenir,Nunito,Arial,Helvetica,SansSerif" font-size="11.4583" lengthAdjust="spacing" textLength="84.375" x="522.9167" y="791.3411">(configuration)</text><line style="stroke:#5E5E5E;stroke-width:1.0416666666666667;" x1="610.4167" x2="875" y1="787.5315" y2="787.5315"/><!--MD5=[4088584cfb839bc51c4f8818c5c9a3c1]
class DeploymentSet--><rect codeLine="35" fill="#282828" height="439.8743" id="DeploymentSet" rx="8.3333" ry="8.3333" style="stroke:#5E5E5E;stroke-width:1.0416666666666667;" width="411.4583" x="9.375" y="164.1195"/><rect fill="#1B1B1A" height="31.3883" rx="8.3333" ry="8.3333" style="stroke:#1B1B1A;stroke-width:1.0416666666666667;" width="411.4583" x="9.375" y="164.1195"/><rect fill="#1B1B1A" height="8.3333" style="stroke:#1B1B1A;stroke-width:1.0416666666666667;" width="411.4583" x="9.375" y="187.1745"/><rect codeLine="35" fill="none" height="439.8743" id="DeploymentSet" rx="8.3333" ry="8.3333" style="stroke:#5E5E5E;stroke-width:1.0416666666666667;" width="411.4583" x="9.375" y="164.1195"/><ellipse cx="158.3333" cy="179.8136" fill="#0066CF" rx="10.4167" ry="10.4167" style="stroke:#0086EF;stroke-width:1.0416666666666667;"/><path d="M160.2437,184.2387 Q159.8165,184.4584 159.3465,184.5683 Q158.8765,184.6781 158.3577,184.6781 Q156.5145,184.6781 155.544,183.4635 Q154.5736,182.2489 154.5736,179.954 Q154.5736,177.653 155.544,176.4384 Q156.5145,175.2238 158.3577,175.2238 Q158.8765,175.2238 159.3526,175.3337 Q159.8287,175.4435 160.2437,175.6632 L160.2437,177.6652 Q159.7799,177.238 159.3435,177.0396 Q158.9071,176.8412 158.4432,176.8412 Q157.4544,176.8412 156.9509,177.6255 Q156.4473,178.4098 156.4473,179.954 Q156.4473,181.4921 156.9509,182.2764 Q157.4544,183.0607 158.4432,183.0607 Q158.9071,183.0607 159.3435,182.8623 Q159.7799,182.664 160.2437,182.2367 Z " fill="#000000"/><text fill="#D8BC00" font-family="Open Sans,Avenir,Nunito,Arial,Helvetica,SansSerif" font-size="12.5" font-weight="bold" lengthAdjust="spacing" textLength="98.9583" x="181.25" y="184.5378">DeploymentSet</text><line style="stroke:#5E5E5E;stroke-width:1.5625;" x1="10.4167" x2="419.7917" y1="195.5078" y2="195.5078"/><polygon fill="#FFFF44" points="20.8333,225.6694,25,229.836,20.8333,234.0027,16.6667,229.836" style="stroke:#B38D22;stroke-width:1.0416666666666667;"/><text fill="#D8BC00" font-family="Open Sans,Avenir,Nunito,Arial,Helvetica,SansSerif" font-size="11.4583" lengthAdjust="spacing" textLength="91.6667" x="32.2917" y="237.7889">DeploymentSet()</text><line style="stroke:#5E5E5E;stroke-width:1.0416666666666667;" x1="10.4167" x2="171.3542" y1="213.7136" y2="213.7136"/><text fill="#D8BC00" font-family="Open Sans,Avenir,Nunito,Arial,Helvetica,SansSerif" font-size="11.4583" lengthAdjust="spacing" textLength="81.25" x="174.4792" y="217.5232">(constructors)</text><line style="stroke:#5E5E5E;stroke-width:1.0416666666666667;" x1="258.8542" x2="419.7917" y1="213.7136" y2="213.7136"/><line style="stroke:#5E5E5E;stroke-width:1.0416666666666667;" x1="10.4167" x2="419.7917" y1="247.4976" y2="247.4976"/><ellipse cx="20.8333" cy="258.9559" fill="#84BE84" rx="3.125" ry="3.125" style="stroke:#038048;stroke-width:1.0416666666666667;"/><text fill="#D8BC00" font-family="Open Sans,Avenir,Nunito,Arial,Helvetica,SansSerif" font-size="11.4583" lengthAdjust="spacing" textLength="135.4167" x="32.2917" y="265.8671">void install(String name)</text><ellipse cx="20.8333" cy="302.6123" fill="#84BE84" rx="3.125" ry="3.125" style="stroke:#038048;stroke-width:1.0416666666666667;"/><text fill="#D8BC00" font-family="Open Sans,Avenir,Nunito,Arial,Helvetica,SansSerif" font-size="11.4583" lengthAdjust="spacing" textLength="100" x="32.2917" y="309.5235">boolean isEmpty()</text><ellipse cx="20.8333" cy="322.3572" fill="#84BE84" rx="3.125" ry="3.125" style="stroke:#038048;stroke-width:1.0416666666666667;"/><text fill="#D8BC00" font-family="Open Sans,Avenir,Nunito,Arial,Helvetica,SansSerif" font-size="11.4583" lengthAdjust="spacing" textLength="47.9167" x="32.2917" y="329.2684">int size()</text><line style="stroke:#5E5E5E;stroke-width:1.0416666666666667;" x1="10.4167" x2="180.7292" y1="285.4482" y2="285.4482"/><text fill="#D8BC00" font-family="Open Sans,Avenir,Nunito,Arial,Helvetica,SansSerif" font-size="11.4583" lengthAdjust="spacing" textLength="62.5" x="183.8542" y="289.2578">(collection)</text><line style="stroke:#5E5E5E;stroke-width:1.0416666666666667;" x1="249.4792" x2="419.7917" y1="285.4482" y2="285.4482"/><ellipse cx="20.8333" cy="366.0136" fill="#84BE84" rx="3.125" ry="3.125" style="stroke:#038048;stroke-width:1.0416666666666667;"/><text fill="#D8BC00" font-family="Open Sans,Avenir,Nunito,Arial,Helvetica,SansSerif" font-size="11.4583" lengthAdjust="spacing" textLength="346.875" x="32.2917" y="372.9248">SwitchParser.Builder&lt;Deployment&gt; switchParser(String name)</text><line style="stroke:#5E5E5E;stroke-width:1.0416666666666667;" x1="10.4167" x2="145.8333" y1="348.8495" y2="348.8495"/><text fill="#D8BC00" font-family="Open Sans,Avenir,Nunito,Arial,Helvetica,SansSerif" font-size="11.4583" lengthAdjust="spacing" textLength="132.2917" x="148.9583" y="352.6591">(command line parsing)</text><line style="stroke:#5E5E5E;stroke-width:1.0416666666666667;" x1="284.375" x2="419.7917" y1="348.8495" y2="348.8495"/><ellipse cx="20.8333" cy="409.67" fill="#84BE84" rx="3.125" ry="3.125" style="stroke:#038048;stroke-width:1.0416666666666667;"/><text fill="#D8BC00" font-family="Open Sans,Avenir,Nunito,Arial,Helvetica,SansSerif" font-size="11.4583" lengthAdjust="spacing" textLength="122.9167" x="32.2917" y="416.5812">void add(Deployment)</text><ellipse cx="20.8333" cy="429.4149" fill="#84BE84" rx="3.125" ry="3.125" style="stroke:#038048;stroke-width:1.0416666666666667;"/><text fill="#D8BC00" font-family="Open Sans,Avenir,Nunito,Arial,Helvetica,SansSerif" font-size="11.4583" lengthAdjust="spacing" textLength="287.5" x="32.2917" y="436.3261">void addAll(Collection&lt;Deployment&gt; deployments)</text><ellipse cx="20.8333" cy="449.1597" fill="#84BE84" rx="3.125" ry="3.125" style="stroke:#038048;stroke-width:1.0416666666666667;"/><text fill="#D8BC00" font-family="Open Sans,Avenir,Nunito,Arial,Helvetica,SansSerif" font-size="11.4583" lengthAdjust="spacing" textLength="298.9583" x="32.2917" y="456.071">DeploymentSet addDeploymentsIn(Package package_)</text><ellipse cx="20.8333" cy="468.9046" fill="#84BE84" rx="3.125" ry="3.125" style="stroke:#038048;stroke-width:1.0416666666666667;"/><text fill="#D8BC00" font-family="Open Sans,Avenir,Nunito,Arial,Helvetica,SansSerif" font-size="11.4583" lengthAdjust="spacing" textLength="379.1667" x="32.2917" y="475.8158">DeploymentSet addDeploymentsIn(Class&lt;?&gt; relativeTo, String path)</text><ellipse cx="20.8333" cy="488.6495" fill="#84BE84" rx="3.125" ry="3.125" style="stroke:#038048;stroke-width:1.0416666666666667;"/><text fill="#D8BC00" font-family="Open Sans,Avenir,Nunito,Arial,Helvetica,SansSerif" font-size="11.4583" lengthAdjust="spacing" textLength="267.7083" x="32.2917" y="495.5607">DeploymentSet addDeploymentsIn(PackagePath)</text><ellipse cx="20.8333" cy="508.3944" fill="#84BE84" rx="3.125" ry="3.125" style="stroke:#038048;stroke-width:1.0416666666666667;"/><text fill="#D8BC00" font-family="Open Sans,Avenir,Nunito,Arial,Helvetica,SansSerif" font-size="11.4583" lengthAdjust="spacing" textLength="273.9583" x="32.2917" y="515.3056">DeploymentSet addDeploymentsIn(Folder parent)</text><ellipse cx="20.8333" cy="528.1392" fill="#84BE84" rx="3.125" ry="3.125" style="stroke:#038048;stroke-width:1.0416666666666667;"/><text fill="#D8BC00" font-family="Open Sans,Avenir,Nunito,Arial,Helvetica,SansSerif" font-size="11.4583" lengthAdjust="spacing" textLength="210.4167" x="32.2917" y="535.0505">Deployment deployment(String name)</text><ellipse cx="20.8333" cy="547.8841" fill="#84BE84" rx="3.125" ry="3.125" style="stroke:#038048;stroke-width:1.0416666666666667;"/><text fill="#D8BC00" font-family="Open Sans,Avenir,Nunito,Arial,Helvetica,SansSerif" font-size="11.4583" lengthAdjust="spacing" textLength="185.4167" x="32.2917" y="554.7953">Set&lt;Deployment&gt; deployments()</text><ellipse cx="20.8333" cy="567.629" fill="#84BE84" rx="3.125" ry="3.125" style="stroke:#038048;stroke-width:1.0416666666666667;"/><text fill="#D8BC00" font-family="Open Sans,Avenir,Nunito,Arial,Helvetica,SansSerif" font-size="11.4583" lengthAdjust="spacing" textLength="282.2917" x="32.2917" y="574.5402">DeploymentSet load(Listener, Class&lt;?&gt; relativeTo)</text><ellipse cx="20.8333" cy="587.3739" fill="#84BE84" rx="3.125" ry="3.125" style="stroke:#038048;stroke-width:1.0416666666666667;"/><text fill="#D8BC00" font-family="Open Sans,Avenir,Nunito,Arial,Helvetica,SansSerif" font-size="11.4583" lengthAdjust="spacing" textLength="287.5" x="32.2917" y="594.2851">DeploymentSet of(Deployment, Deployment... more)</text><line style="stroke:#5E5E5E;stroke-width:1.0416666666666667;" x1="10.4167" x2="169.7917" y1="392.5059" y2="392.5059"/><text fill="#D8BC00" font-family="Open Sans,Avenir,Nunito,Arial,Helvetica,SansSerif" font-size="11.4583" lengthAdjust="spacing" textLength="84.375" x="172.9167" y="396.3155">(configuration)</text><line style="stroke:#5E5E5E;stroke-width:1.0416666666666667;" x1="260.4167" x2="419.7917" y1="392.5059" y2="392.5059"/><!--MD5=[4b1c4850a31c4efc68c41c71da005b9f]
reverse link BaseStringConverter to Deployment.Converter--><path codeLine="12" d="M1003.6458,122.9528 C1003.6458,181.8486 1003.6458,285.1611 1003.6458,342.1924 " fill="none" id="BaseStringConverter-backto-Deployment.Converter" style="stroke:#545454;stroke-width:1.5625;"/><polygon fill="none" points="996.3542,122.9007,1003.6458,102.0674,1010.9375,122.9007,996.3542,122.9007" style="stroke:#545454;stroke-width:1.5625;"/><!--MD5=[de8c1fb6e62b690f7aac6013e713b085]
reverse link Settings to Deployment--><path codeLine="19" d="M762.8125,428.8278 C754.6563,474.7861 737.6458,547.9111 705.7292,603.7028 C693.1875,625.6195 676.7917,646.8382 659.6354,666.057 " fill="none" id="Settings-backto-Deployment" style="stroke:#545454;stroke-width:1.5625;"/><polygon fill="none" points="755.6458,427.4424,766.2188,408.0674,770.0417,429.807,755.6458,427.4424" style="stroke:#545454;stroke-width:1.5625;"/><!--MD5=[17886f3eccaa4a2f983631e408b807fa]
reverse link Named to Deployment--><path codeLine="20" d="M506.3333,428.5361 C516.9063,486.7965 535.8646,591.3903 549.3958,666.0049 " fill="none" id="Named-backto-Deployment" style="stroke:#545454;stroke-width:1.5625;"/><polygon fill="none" points="499.1458,429.7549,502.6042,407.9528,513.5,427.1507,499.1458,429.7549" style="stroke:#545454;stroke-width:1.5625;"/><!--MD5=[5c244ddb64db00e5b809444a2202676a]
reverse link Serializable to Deployment--><path codeLine="21" d="M623.875,428.5361 C613.3021,486.7965 594.3438,591.3903 580.8125,666.0049 " fill="none" id="Serializable-backto-Deployment" style="stroke:#545454;stroke-width:1.5625;"/><polygon fill="none" points="616.7083,427.1507,627.6042,407.9528,631.0625,429.7549,616.7083,427.1507" style="stroke:#545454;stroke-width:1.5625;"/><!--MD5=[0ee7b91fddcc6ed9da623a0dc5b6b586]
reverse link BaseRepeater to DeploymentSet--><path codeLine="33" d="M215.1042,123.2861 C215.1042,135.2861 215.1042,149.1195 215.1042,164.0153 " fill="none" id="BaseRepeater-backto-DeploymentSet" style="stroke:#545454;stroke-width:1.5625;"/><polygon fill="none" points="207.8125,122.9007,215.1042,102.0674,222.3958,122.9007,207.8125,122.9007" style="stroke:#545454;stroke-width:1.5625;"/><!--MD5=[bb2964829946b3c2c5663263f7079b91]
reverse link DeploymentSet to Deployment--><path codeLine="34" d="M430.3438,611.0778 C448.7083,630.3799 466.4583,649.0257 482.7083,666.0986 " fill="none" id="DeploymentSet-backto-Deployment" style="stroke:#545454;stroke-width:1.5625;"/><polygon fill="#333333" points="420.9792,601.2445,422.2686,608.6445,429.5954,610.3004,428.3059,602.9004,420.9792,601.2445" style="stroke:#545454;stroke-width:1.5625;"/><text fill="#A0A0A0" font-family="Open Sans,Avenir,Nunito,Arial,Helvetica,SansSerif" font-size="12.5" font-weight="bold" lengthAdjust="spacing" textLength="8.3333" x="432.431" y="603.7008">1</text><text fill="#A0A0A0" font-family="Open Sans,Avenir,Nunito,Arial,Helvetica,SansSerif" font-size="12.5" font-weight="bold" lengthAdjust="spacing" textLength="6.25" x="465.7153" y="652.0637">*</text><!--MD5=[3c8f0539e5cbc90131db3ba0d92d421a]
@startuml

    !include lexakai.theme
    
    title "com.telenav.kivakit.configuration.settings.deployment"
    
    abstract BaseRepeater
    abstract BaseStringConverter
    
    interface Named
    interface Serializable
    
    BaseStringConverter <|- - Deployment.Converter
    class Deployment.Converter
    {
        - -(constructors)- -
        +Converter(Listener, DeploymentSet)
    }
    
    Settings <|- - Deployment
    Named <|- - Deployment
    Serializable <|- - Deployment
    class Deployment
    {
        - -(constructors)- -
        +Deployment(String, String)
        - -
        +String description()
        - -(configuration)- -
        +Deployment addDeployment(Deployment)
        +SwitchParser.Builder<Deployment> deploymentSwitchParser(Listener, DeploymentSet, String switchName)
    }
    
    BaseRepeater <|- - DeploymentSet
    DeploymentSet "1" o- - "*" Deployment
    class DeploymentSet
    {
        - -(constructors)- -
        #DeploymentSet()
        - -
        +void install(String name)
        - -(collection)- -
        +boolean isEmpty()
        +int size()
        - -(command line parsing)- -
        +SwitchParser.Builder<Deployment> switchParser(String name)
        - -(configuration)- -
        +void add(Deployment)
        +void addAll(Collection<Deployment> deployments)
        +DeploymentSet addDeploymentsIn(Package package_)
        +DeploymentSet addDeploymentsIn(Class<?> relativeTo, String path)
        +DeploymentSet addDeploymentsIn(PackagePath)
        +DeploymentSet addDeploymentsIn(Folder parent)
        +Deployment deployment(String name)
        +Set<Deployment> deployments()
        +DeploymentSet load(Listener, Class<?> relativeTo)
        +DeploymentSet of(Deployment, Deployment... more)
    }
    
@enduml

@startuml









skinparam backgroundColor #333333






skinparam  {
    defaultFontName   "Open Sans,Avenir,Nunito,Arial,Helvetica,SansSerif"
    defaultFontSize   12
    defaultTextAlignment left
    shadowing false
    RoundCorner 10
    TitleFontSize 18
}

skinparam defaultFontName       "Open Sans,Avenir,Nunito,Arial,Helvetica,SansSerif"
skinparam defaultFontSize       12
skinparam dpi                   100
skinparam shadowing             false
skinparam roundcorner           16
skinparam ParticipantPadding    40
skinparam BoxPadding            40
skinparam Padding               3
skinparam ArrowColor            #545454
skinparam stereotype {
    CBackgroundColor #0066cf
    CBorderColor #0086ef
    ABackgroundColor #C8Ac00
    ABorderColor #D8Bc00
    IBackgroundColor #008400
    IBorderColor #239c23
    EBackgroundColor #cf6300
    EBorderColor #ef8300
    NBackgroundColor #3380b9
    NBorderColor #004d86
}
skinparam title {
	FontColor	                 #c0c0c0
 	BorderColor                  #545454
	FontSize	    	         20
	BorderRoundCorner            16
	BorderThickness 	         1
	BackgroundColor              #48494b
}


skinparam legend {
	BackgroundColor #303030
	BorderColor #404040
	FontColor #a0a0a0
}

	skinparam swimlane {
	BorderColor #5e5e5e
	BorderThickness 2
	TitleBackgroundColor  #6d6d6d-#484848
	TitleFontColor #303030
}

skinparam activity {
		FontColor #C8Ac00
	BorderColor #333333
	BackgroundColor #333333-#333333
	BarColor #00FF00
	StartColor #0060a8
	EndColor #0060a8
	DiamondBackgroundColor #6d6d6d-#3a3a3a
  	DiamondBorderColor #3a3a3a
  	DiamondFontColor #fefefe
}


skinparam participant {
		FontColor #C8Ac00
	BorderColor #333333
	BackgroundColor #333333-#333333
	ParticipantBorderThickness 2
}


skinparam actor {
		FontColor #C8Ac00
	BorderColor #333333
	BackgroundColor #333333-#333333
}


skinparam arrow {
	Thickness 1.5
	Color #545454
	FontColor #a0a0a0
    FontStyle bold
    MessageAlignment center
}



skinparam sequence {
	BorderColor #303030
	TitleFontColor #303030
	BackgroundColor #333333
	StartColor #303030
	EndColor #303030
	BoxBackgroundColor #333333
	BoxBorderColor #484848
	BoxFontColor #484848
	LifeLineBorderColor #484848
	LifeLineBorderThickness 2
	LifeLineBackgroundColor #3a3a3a
	GroupBorderColor #484848
	GroupFontColor #484848
	GroupHeaderFontColor #0060a8
	GroupBackgroundColor #484848
	GroupHeaderBackgroundColor #333333
	DividerBackgroundColor #484848
    DividerBorderColor #484848
    DividerBorderThickness 2
    DividerFontColor #D8Bc00
	ReferenceBackgroundColor #333333
	ReferenceBorderColor #484848
	ReferenceFontColor #fefefe
	ReferenceHeaderBackgroundColor #484848
}


skinparam partition {
	BorderColor #303030
	FontColor #333333
	BackgroundColor #333333
}


skinparam collections {
		FontColor #C8Ac00
	BorderColor #333333
	BackgroundColor #333333-#333333
}


skinparam control {
		FontColor #C8Ac00
	BorderColor #333333
	BackgroundColor #333333-#333333
}


skinparam entity {
		FontColor #C8Ac00
	BorderColor #333333
	BackgroundColor #333333-#333333
}


skinparam boundary {
		FontColor #C8Ac00
	BorderColor #333333
	BackgroundColor #333333-#333333
}


skinparam agent {
	BackgroundColor #ff8000
	BorderColor #ff9933
	FontColor #484848
}


skinparam note {
	BorderThickness 1
	BackgroundColor #1b1b1a
	BorderColor #5e5e5e
	FontSize 11
	FontColor #a0a0a0
}


skinparam artifact {
	BorderThickness 10
	BorderColor #5e5e5e
	BackgroundColor #1b1b1a
	FontColor #D8Bc00
}


skinparam component {
		FontColor #C8Ac00
	BorderColor #333333
	BackgroundColor #333333-#333333
}


skinparam interface {
	BackgroundColor  #008400
	BorderColor  #007F00
	FontColor #484848
}


skinparam storage {
	BackgroundColor #ff8000
  	BorderColor #cc6600
	FontColor #222222
}


skinparam node {
	BackgroundColor #333333
	BorderColor #333333
	FontColor #C8Ac00
}


skinparam cloud {
	BackgroundColor #484848-black
	BorderColor #484848
	FontColor #D8Bc00
}


skinparam database {
		FontColor #C8Ac00
	BorderColor #333333
	BackgroundColor #333333-#333333
	BackgroundColor  #333333
}


skinparam class {
		FontColor #C8Ac00
	BorderColor #333333
	BackgroundColor #333333-#333333
	HeaderBackgroundColor #1b1b1a
    BackgroundColor #282828
    BorderColor #5e5e5e
 	StereotypeFontColor #a0a0a0
    StereotypeFontStyle bold
	BorderThickness 1
	AttributeFontColor #D8Bc00
	AttributeFontSize 11
    FontColor #D8Bc00
    FontStyle bold
}


skinparam object {
		FontColor #C8Ac00
	BorderColor #333333
	BackgroundColor #333333-#333333
	StereotypeFontColor #484848
	BorderThickness 1
	AttributeFontColor #fefefe
	AttributeFontSize 11
}


skinparam usecase {
		FontColor #C8Ac00
	BorderColor #333333
	BackgroundColor #333333-#333333
	BorderThickness 2
	StereotypeFontColor #303030
}


skinparam rectangle {
		FontColor #C8Ac00
	BorderColor #333333
	BackgroundColor #333333-#333333
	BackgroundColor #333333
	BorderThickness 2
	StereotypeFontColor #303030
}


skinparam package {
		FontColor #C8Ac00
	BorderColor #333333
	BackgroundColor #333333-#333333
	BackgroundColor #333333
	BorderThickness 2
}


skinparam folder {
	BackgroundColor #6d6d6d
  	BorderColor #ff8000
	FontColor #ff8000
	BorderThickness 2
}


skinparam frame {
	BackgroundColor #6d6d6d
  	BorderColor #0060a8
	FontColor #0060a8
	BorderThickness 2
}


skinparam state {
		FontColor #C8Ac00
	BorderColor #333333
	BackgroundColor #333333-#333333
	StartColor #0060a8
	EndColor #0060a8
	AttributeFontColor #fefefe
	AttributeFontSize 11
}


skinparam queue {
		FontColor #C8Ac00
	BorderColor #333333
	BackgroundColor #333333-#333333
}


skinparam card {
	BackgroundColor #0060a8
	BorderColor #004d86
	FontColor $INFO_TEXT
}


skinparam file {
	BackgroundColor #6d6d6d-#484848
	BorderColor #0060a8
	FontColor #fefefe
}


skinparam stack {
		FontColor #C8Ac00
	BorderColor #333333
	BackgroundColor #333333-#333333
}

    
    title "com.telenav.kivakit.configuration.settings.deployment"
    
    abstract BaseRepeater
    abstract BaseStringConverter
    
    interface Named
    interface Serializable
    
    BaseStringConverter <|- - Deployment.Converter
    class Deployment.Converter
    {
        - -(constructors)- -
        +Converter(Listener, DeploymentSet)
    }
    
    Settings <|- - Deployment
    Named <|- - Deployment
    Serializable <|- - Deployment
    class Deployment
    {
        - -(constructors)- -
        +Deployment(String, String)
        - -
        +String description()
        - -(configuration)- -
        +Deployment addDeployment(Deployment)
        +SwitchParser.Builder<Deployment> deploymentSwitchParser(Listener, DeploymentSet, String switchName)
    }
    
    BaseRepeater <|- - DeploymentSet
    DeploymentSet "1" o- - "*" Deployment
    class DeploymentSet
    {
        - -(constructors)- -
        #DeploymentSet()
        - -
        +void install(String name)
        - -(collection)- -
        +boolean isEmpty()
        +int size()
        - -(command line parsing)- -
        +SwitchParser.Builder<Deployment> switchParser(String name)
        - -(configuration)- -
        +void add(Deployment)
        +void addAll(Collection<Deployment> deployments)
        +DeploymentSet addDeploymentsIn(Package package_)
        +DeploymentSet addDeploymentsIn(Class<?> relativeTo, String path)
        +DeploymentSet addDeploymentsIn(PackagePath)
        +DeploymentSet addDeploymentsIn(Folder parent)
        +Deployment deployment(String name)
        +Set<Deployment> deployments()
        +DeploymentSet load(Listener, Class<?> relativeTo)
        +DeploymentSet of(Deployment, Deployment... more)
    }
    
@enduml

PlantUML version 1.2021.01(Tue Feb 02 00:55:08 MST 2021)
(GPL source distribution)
Java Runtime: OpenJDK Runtime Environment
JVM: OpenJDK 64-Bit Server VM
Default Encoding: UTF-8
Language: en
Country: US
--></g></svg>