<?xml version="1.0" encoding="UTF-8" standalone="no"?><svg xmlns="http://www.w3.org/2000/svg" xmlns:xlink="http://www.w3.org/1999/xlink" contentScriptType="application/ecmascript" contentStyleType="text/css" height="273.9583px" preserveAspectRatio="none" style="width:513px;height:273px;background:#333333;" version="1.1" viewBox="0 0 513 273" width="513.5417px" zoomAndPan="magnify"><defs/><g><rect fill="#48494B" height="41.2028" rx="8.3333" ry="8.3333" style="stroke:#545454;stroke-width:1.0416666666666667;" width="501.0417" x="2.0833" y="2.0833"/><text fill="#C0C0C0" font-family="Open Sans,Avenir,Nunito,Arial,Helvetica,SansSerif" font-size="20.8333" lengthAdjust="spacing" textLength="478.125" x="13.5417" y="30.5583">com.telenav.kivakit.web.wicket.behaviors.status</text><rect fill="#282828" height="48.055" id="AttributeModifier" rx="8.3333" ry="8.3333" style="stroke:#5E5E5E;stroke-width:1.0416666666666667;" width="150" x="184.8958" y="53.7028"/><rect fill="#1B1B1A" height="31.3883" rx="8.3333" ry="8.3333" style="stroke:#1B1B1A;stroke-width:1.0416666666666667;" width="150" x="184.8958" y="53.7028"/><rect fill="#1B1B1A" height="8.3333" style="stroke:#1B1B1A;stroke-width:1.0416666666666667;" width="150" x="184.8958" y="76.7578"/><rect fill="none" height="48.055" id="AttributeModifier" rx="8.3333" ry="8.3333" style="stroke:#5E5E5E;stroke-width:1.0416666666666667;" width="150" x="184.8958" y="53.7028"/><ellipse cx="199.4792" cy="69.397" fill="#0066CF" rx="10.4167" ry="10.4167" style="stroke:#0086EF;stroke-width:1.0416666666666667;"/><path d="M201.3896,73.822 Q200.9623,74.0417 200.4924,74.1516 Q200.0224,74.2615 199.5036,74.2615 Q197.6603,74.2615 196.6899,73.0469 Q195.7194,71.8323 195.7194,69.5374 Q195.7194,67.2363 196.6899,66.0217 Q197.6603,64.8071 199.5036,64.8071 Q200.0224,64.8071 200.4985,64.917 Q200.9745,65.0269 201.3896,65.2466 L201.3896,67.2485 Q200.9257,66.8213 200.4893,66.6229 Q200.0529,66.4246 199.589,66.4246 Q198.6003,66.4246 198.0967,67.2089 Q197.5932,67.9932 197.5932,69.5374 Q197.5932,71.0754 198.0967,71.8597 Q198.6003,72.644 199.589,72.644 Q200.0529,72.644 200.4893,72.4457 Q200.9257,72.2473 201.3896,71.8201 Z " fill="#000000"/><text fill="#D8BC00" font-family="Open Sans,Avenir,Nunito,Arial,Helvetica,SansSerif" font-size="12.5" font-weight="bold" lengthAdjust="spacing" textLength="112.5" x="216.1458" y="74.1211">AttributeModifier</text><line style="stroke:#5E5E5E;stroke-width:1.0416666666666667;" x1="185.9375" x2="333.8542" y1="85.0911" y2="85.0911"/><line style="stroke:#5E5E5E;stroke-width:1.0416666666666667;" x1="185.9375" x2="333.8542" y1="93.4245" y2="93.4245"/><rect codeLine="8" fill="#282828" height="103.123" id="MessageColor" rx="8.3333" ry="8.3333" style="stroke:#5E5E5E;stroke-width:1.0416666666666667;" width="300" x="109.8958" y="164.1195"/><rect fill="#1B1B1A" height="31.3883" rx="8.3333" ry="8.3333" style="stroke:#1B1B1A;stroke-width:1.0416666666666667;" width="300" x="109.8958" y="164.1195"/><rect fill="#1B1B1A" height="8.3333" style="stroke:#1B1B1A;stroke-width:1.0416666666666667;" width="300" x="109.8958" y="187.1745"/><rect codeLine="8" fill="none" height="103.123" id="MessageColor" rx="8.3333" ry="8.3333" style="stroke:#5E5E5E;stroke-width:1.0416666666666667;" width="300" x="109.8958" y="164.1195"/><ellipse cx="206.7708" cy="179.8136" fill="#0066CF" rx="10.4167" ry="10.4167" style="stroke:#0086EF;stroke-width:1.0416666666666667;"/><path d="M208.6812,184.2387 Q208.254,184.4584 207.784,184.5683 Q207.314,184.6781 206.7952,184.6781 Q204.952,184.6781 203.9815,183.4635 Q203.0111,182.2489 203.0111,179.954 Q203.0111,177.653 203.9815,176.4384 Q204.952,175.2238 206.7952,175.2238 Q207.314,175.2238 207.7901,175.3337 Q208.2662,175.4435 208.6812,175.6632 L208.6812,177.6652 Q208.2174,177.238 207.781,177.0396 Q207.3446,176.8412 206.8807,176.8412 Q205.8919,176.8412 205.3884,177.6255 Q204.8848,178.4098 204.8848,179.954 Q204.8848,181.4921 205.3884,182.2764 Q205.8919,183.0607 206.8807,183.0607 Q207.3446,183.0607 207.781,182.8623 Q208.2174,182.664 208.6812,182.2367 Z " fill="#000000"/><text fill="#D8BC00" font-family="Open Sans,Avenir,Nunito,Arial,Helvetica,SansSerif" font-size="12.5" font-weight="bold" lengthAdjust="spacing" textLength="91.6667" x="229.6875" y="184.5378">MessageColor</text><line style="stroke:#5E5E5E;stroke-width:1.5625;" x1="110.9375" x2="408.8542" y1="195.5078" y2="195.5078"/><ellipse cx="121.3542" cy="230.8777" fill="#84BE84" rx="3.125" ry="3.125" style="stroke:#038048;stroke-width:1.0416666666666667;"/><text fill="#D8BC00" font-family="Open Sans,Avenir,Nunito,Arial,Helvetica,SansSerif" font-size="11.4583" lengthAdjust="spacing" textLength="228.125" x="132.8125" y="237.7889">MessageColor(IModel&lt;Message.Status&gt;)</text><ellipse cx="121.3542" cy="250.6226" fill="#84BE84" rx="3.125" ry="3.125" style="stroke:#038048;stroke-width:1.0416666666666667;"/><text fill="#D8BC00" font-family="Open Sans,Avenir,Nunito,Arial,Helvetica,SansSerif" font-size="11.4583" lengthAdjust="spacing" textLength="267.7083" x="132.8125" y="257.5338">MessageColor(String, IModel&lt;Message.Status&gt;)</text><line style="stroke:#5E5E5E;stroke-width:1.0416666666666667;" x1="110.9375" x2="216.1458" y1="213.7136" y2="213.7136"/><text fill="#D8BC00" font-family="Open Sans,Avenir,Nunito,Arial,Helvetica,SansSerif" font-size="11.4583" lengthAdjust="spacing" textLength="81.25" x="219.2708" y="217.5232">(constructors)</text><line style="stroke:#5E5E5E;stroke-width:1.0416666666666667;" x1="303.6458" x2="408.8542" y1="213.7136" y2="213.7136"/><path codeLine="7" d="M259.8958,124.4007 C259.8958,137.0257 259.8958,150.807 259.8958,163.7132 " fill="none" id="AttributeModifier-backto-MessageColor" style="stroke:#545454;stroke-width:1.5625;"/><polygon fill="none" points="252.6042,124.484,259.8958,103.6507,267.1875,124.484,252.6042,124.484" style="stroke:#545454;stroke-width:1.5625;"/></g></svg>
