<?xml version="1.0" encoding="UTF-8" standalone="no"?><svg xmlns="http://www.w3.org/2000/svg" xmlns:xlink="http://www.w3.org/1999/xlink" contentScriptType="application/ecmascript" contentStyleType="text/css" height="1238.5417px" preserveAspectRatio="none" style="width:1313px;height:1238px;background:#333333;" version="1.1" viewBox="0 0 1313 1238" width="1313.5417px" zoomAndPan="magnify"><defs/><g><rect fill="#48494B" height="41.2028" rx="8.3333" ry="8.3333" style="stroke:#545454;stroke-width:1.0416666666666667;" width="756.25" x="271.3542" y="2.0833"/><text fill="#C0C0C0" font-family="Open Sans,Avenir,Nunito,Arial,Helvetica,SansSerif" font-size="20.8333" lengthAdjust="spacing" textLength="733.3333" x="282.8125" y="30.5583">com.telenav.kivakit.microservice.internal.protocols.rest.plugins.jetty.filter</text><rect codeLine="7" fill="#282828" height="48.055" id="BaseComponent" rx="8.3333" ry="8.3333" style="stroke:#5E5E5E;stroke-width:1.0416666666666667;" width="143.75" x="498.4375" y="204.7445"/><rect fill="#1B1B1A" height="31.3883" rx="8.3333" ry="8.3333" style="stroke:#1B1B1A;stroke-width:1.0416666666666667;" width="143.75" x="498.4375" y="204.7445"/><rect fill="#1B1B1A" height="8.3333" style="stroke:#1B1B1A;stroke-width:1.0416666666666667;" width="143.75" x="498.4375" y="227.7995"/><rect codeLine="7" fill="none" height="48.055" id="BaseComponent" rx="8.3333" ry="8.3333" style="stroke:#5E5E5E;stroke-width:1.0416666666666667;" width="143.75" x="498.4375" y="204.7445"/><ellipse cx="513.0208" cy="220.4386" fill="#C8AC00" rx="10.4167" ry="10.4167" style="stroke:#D8BC00;stroke-width:1.0416666666666667;"/><path d="M512.6139,217.1407 L511.7655,220.87 L513.4684,220.87 Z M511.5153,215.4928 L513.7187,215.4928 L516.1784,224.6053 L514.3778,224.6053 L513.8163,222.3531 L511.4054,222.3531 L510.8561,224.6053 L509.0556,224.6053 Z " fill="#000000"/><text fill="#D8BC00" font-family="Open Sans,Avenir,Nunito,Arial,Helvetica,SansSerif" font-size="12.5" font-style="italic" font-weight="bold" lengthAdjust="spacing" textLength="106.25" x="529.6875" y="225.1628">BaseComponent</text><line style="stroke:#5E5E5E;stroke-width:1.0416666666666667;" x1="499.4792" x2="641.1458" y1="236.1328" y2="236.1328"/><line style="stroke:#5E5E5E;stroke-width:1.0416666666666667;" x1="499.4792" x2="641.1458" y1="244.4661" y2="244.4661"/><rect codeLine="9" fill="#282828" height="48.055" id="Filter" rx="8.3333" ry="8.3333" style="stroke:#5E5E5E;stroke-width:1.0416666666666667;" width="70.8333" x="927.6042" y="204.7445"/><rect fill="#1B1B1A" height="31.3883" rx="8.3333" ry="8.3333" style="stroke:#1B1B1A;stroke-width:1.0416666666666667;" width="70.8333" x="927.6042" y="204.7445"/><rect fill="#1B1B1A" height="8.3333" style="stroke:#1B1B1A;stroke-width:1.0416666666666667;" width="70.8333" x="927.6042" y="227.7995"/><rect codeLine="9" fill="none" height="48.055" id="Filter" rx="8.3333" ry="8.3333" style="stroke:#5E5E5E;stroke-width:1.0416666666666667;" width="70.8333" x="927.6042" y="204.7445"/><ellipse cx="942.1875" cy="220.4386" fill="#008400" rx="10.4167" ry="10.4167" style="stroke:#239C23;stroke-width:1.0416666666666667;"/><path d="M939.5915,217.6005 L939.5915,216.0136 L945.0175,216.0136 L945.0175,217.6005 L943.2048,217.6005 L943.2048,223.5392 L945.0175,223.5392 L945.0175,225.1261 L939.5915,225.1261 L939.5915,223.5392 L941.4042,223.5392 L941.4042,217.6005 Z " fill="#000000"/><text fill="#D8BC00" font-family="Open Sans,Avenir,Nunito,Arial,Helvetica,SansSerif" font-size="12.5" font-style="italic" font-weight="bold" lengthAdjust="spacing" textLength="33.3333" x="958.8542" y="225.1628">Filter</text><line style="stroke:#5E5E5E;stroke-width:1.0416666666666667;" x1="928.6458" x2="997.3958" y1="236.1328" y2="236.1328"/><line style="stroke:#5E5E5E;stroke-width:1.0416666666666667;" x1="928.6458" x2="997.3958" y1="244.4661" y2="244.4661"/><rect codeLine="10" fill="#282828" height="48.055" id="ComponentMixin" rx="8.3333" ry="8.3333" style="stroke:#5E5E5E;stroke-width:1.0416666666666667;" width="148.9583" x="1007.2917" y="53.7028"/><rect fill="#1B1B1A" height="31.3883" rx="8.3333" ry="8.3333" style="stroke:#1B1B1A;stroke-width:1.0416666666666667;" width="148.9583" x="1007.2917" y="53.7028"/><rect fill="#1B1B1A" height="8.3333" style="stroke:#1B1B1A;stroke-width:1.0416666666666667;" width="148.9583" x="1007.2917" y="76.7578"/><rect codeLine="10" fill="none" height="48.055" id="ComponentMixin" rx="8.3333" ry="8.3333" style="stroke:#5E5E5E;stroke-width:1.0416666666666667;" width="148.9583" x="1007.2917" y="53.7028"/><ellipse cx="1021.875" cy="69.397" fill="#008400" rx="10.4167" ry="10.4167" style="stroke:#239C23;stroke-width:1.0416666666666667;"/><path d="M1019.279,66.5588 L1019.279,64.9719 L1024.705,64.9719 L1024.705,66.5588 L1022.8923,66.5588 L1022.8923,72.4976 L1024.705,72.4976 L1024.705,74.0845 L1019.279,74.0845 L1019.279,72.4976 L1021.0917,72.4976 L1021.0917,66.5588 Z " fill="#000000"/><text fill="#D8BC00" font-family="Open Sans,Avenir,Nunito,Arial,Helvetica,SansSerif" font-size="12.5" font-style="italic" font-weight="bold" lengthAdjust="spacing" textLength="111.4583" x="1038.5417" y="74.1211">ComponentMixin</text><line style="stroke:#5E5E5E;stroke-width:1.0416666666666667;" x1="1008.3333" x2="1155.2083" y1="85.0911" y2="85.0911"/><line style="stroke:#5E5E5E;stroke-width:1.0416666666666667;" x1="1008.3333" x2="1155.2083" y1="93.4245" y2="93.4245"/><rect codeLine="11" fill="#282828" height="48.055" id="RestProblemReportingTrait" rx="8.3333" ry="8.3333" style="stroke:#5E5E5E;stroke-width:1.0416666666666667;" width="212.5" x="678.6458" y="204.7445"/><rect fill="#1B1B1A" height="31.3883" rx="8.3333" ry="8.3333" style="stroke:#1B1B1A;stroke-width:1.0416666666666667;" width="212.5" x="678.6458" y="204.7445"/><rect fill="#1B1B1A" height="8.3333" style="stroke:#1B1B1A;stroke-width:1.0416666666666667;" width="212.5" x="678.6458" y="227.7995"/><rect codeLine="11" fill="none" height="48.055" id="RestProblemReportingTrait" rx="8.3333" ry="8.3333" style="stroke:#5E5E5E;stroke-width:1.0416666666666667;" width="212.5" x="678.6458" y="204.7445"/><ellipse cx="693.2292" cy="220.4386" fill="#008400" rx="10.4167" ry="10.4167" style="stroke:#239C23;stroke-width:1.0416666666666667;"/><path d="M690.6331,217.6005 L690.6331,216.0136 L696.0592,216.0136 L696.0592,217.6005 L694.2464,217.6005 L694.2464,223.5392 L696.0592,223.5392 L696.0592,225.1261 L690.6331,225.1261 L690.6331,223.5392 L692.4459,223.5392 L692.4459,217.6005 Z " fill="#000000"/><text fill="#D8BC00" font-family="Open Sans,Avenir,Nunito,Arial,Helvetica,SansSerif" font-size="12.5" font-style="italic" font-weight="bold" lengthAdjust="spacing" textLength="175" x="709.8958" y="225.1628">RestProblemReportingTrait</text><line style="stroke:#5E5E5E;stroke-width:1.0416666666666667;" x1="679.6875" x2="890.1042" y1="236.1328" y2="236.1328"/><line style="stroke:#5E5E5E;stroke-width:1.0416666666666667;" x1="679.6875" x2="890.1042" y1="244.4661" y2="244.4661"/><rect codeLine="19" fill="#282828" height="258.0037" id="JettyMicroservletFilter" rx="8.3333" ry="8.3333" style="stroke:#5E5E5E;stroke-width:1.0416666666666667;" width="364.5833" x="780.7292" y="377.1403"/><rect fill="#1B1B1A" height="31.3883" rx="8.3333" ry="8.3333" style="stroke:#1B1B1A;stroke-width:1.0416666666666667;" width="364.5833" x="780.7292" y="377.1403"/><rect fill="#1B1B1A" height="8.3333" style="stroke:#1B1B1A;stroke-width:1.0416666666666667;" width="364.5833" x="780.7292" y="400.1953"/><rect codeLine="19" fill="none" height="258.0037" id="JettyMicroservletFilter" rx="8.3333" ry="8.3333" style="stroke:#5E5E5E;stroke-width:1.0416666666666667;" width="364.5833" x="780.7292" y="377.1403"/><ellipse cx="884.375" cy="392.8345" fill="#0066CF" rx="10.4167" ry="10.4167" style="stroke:#0086EF;stroke-width:1.0416666666666667;"/><path d="M886.2854,397.2595 Q885.8582,397.4792 885.3882,397.5891 Q884.9182,397.699 884.3994,397.699 Q882.5562,397.699 881.5857,396.4844 Q880.6152,395.2698 880.6152,392.9749 Q880.6152,390.6738 881.5857,389.4592 Q882.5562,388.2446 884.3994,388.2446 Q884.9182,388.2446 885.3943,388.3545 Q885.8704,388.4644 886.2854,388.6841 L886.2854,390.686 Q885.8215,390.2588 885.3851,390.0604 Q884.9487,389.8621 884.4849,389.8621 Q883.4961,389.8621 882.9926,390.6464 Q882.489,391.4307 882.489,392.9749 Q882.489,394.5129 882.9926,395.2972 Q883.4961,396.0815 884.4849,396.0815 Q884.9487,396.0815 885.3851,395.8832 Q885.8215,395.6848 886.2854,395.2576 Z " fill="#000000"/><text fill="#D8BC00" font-family="Open Sans,Avenir,Nunito,Arial,Helvetica,SansSerif" font-size="12.5" font-weight="bold" lengthAdjust="spacing" textLength="142.7083" x="907.2917" y="397.5586">JettyMicroservletFilter</text><line style="stroke:#5E5E5E;stroke-width:1.5625;" x1="781.7708" x2="1144.2708" y1="408.5286" y2="408.5286"/><ellipse cx="792.1875" cy="443.8985" fill="#84BE84" rx="3.125" ry="3.125" style="stroke:#038048;stroke-width:1.0416666666666667;"/><text fill="#D8BC00" font-family="Open Sans,Avenir,Nunito,Arial,Helvetica,SansSerif" font-size="11.4583" lengthAdjust="spacing" textLength="192.7083" x="803.6458" y="450.8097">JettyMicroservletFilter(RestService)</text><line style="stroke:#5E5E5E;stroke-width:1.0416666666666667;" x1="781.7708" x2="919.2708" y1="426.7344" y2="426.7344"/><text fill="#D8BC00" font-family="Open Sans,Avenir,Nunito,Arial,Helvetica,SansSerif" font-size="11.4583" lengthAdjust="spacing" textLength="81.25" x="922.3958" y="430.544">(constructors)</text><line style="stroke:#5E5E5E;stroke-width:1.0416666666666667;" x1="1006.7708" x2="1144.2708" y1="426.7344" y2="426.7344"/><line style="stroke:#5E5E5E;stroke-width:1.0416666666666667;" x1="781.7708" x2="1144.2708" y1="460.5184" y2="460.5184"/><ellipse cx="792.1875" cy="471.9767" fill="#84BE84" rx="3.125" ry="3.125" style="stroke:#038048;stroke-width:1.0416666666666667;"/><text fill="#D8BC00" font-family="Open Sans,Avenir,Nunito,Arial,Helvetica,SansSerif" font-size="11.4583" lengthAdjust="spacing" textLength="246.875" x="803.6458" y="478.8879">MountedMicroservlet microservlet(RestPath)</text><ellipse cx="792.1875" cy="491.7216" fill="#84BE84" rx="3.125" ry="3.125" style="stroke:#038048;stroke-width:1.0416666666666667;"/><text fill="#D8BC00" font-family="Open Sans,Avenir,Nunito,Arial,Helvetica,SansSerif" font-size="11.4583" lengthAdjust="spacing" textLength="227.0833" x="803.6458" y="498.6328">void mount(RestPath, Microservlet&lt;?,?&gt;)</text><ellipse cx="792.1875" cy="511.4665" fill="#84BE84" rx="3.125" ry="3.125" style="stroke:#038048;stroke-width:1.0416666666666667;"/><text fill="#D8BC00" font-family="Open Sans,Avenir,Nunito,Arial,Helvetica,SansSerif" font-size="11.4583" lengthAdjust="spacing" textLength="139.5833" x="803.6458" y="518.3777">void mount(MountedApi)</text><ellipse cx="792.1875" cy="531.2113" fill="#84BE84" rx="3.125" ry="3.125" style="stroke:#038048;stroke-width:1.0416666666666667;"/><text fill="#D8BC00" font-family="Open Sans,Avenir,Nunito,Arial,Helvetica,SansSerif" font-size="11.4583" lengthAdjust="spacing" textLength="229.1667" x="803.6458" y="538.1226">Collection&lt;MountedApi&gt; mountedApis()</text><ellipse cx="792.1875" cy="574.8678" fill="#84BE84" rx="3.125" ry="3.125" style="stroke:#038048;stroke-width:1.0416666666666667;"/><text fill="#D8BC00" font-family="Open Sans,Avenir,Nunito,Arial,Helvetica,SansSerif" font-size="11.4583" lengthAdjust="spacing" textLength="332.2917" x="803.6458" y="581.779">^void doFilter(ServletRequest, ServletResponse, FilterChain)</text><line style="stroke:#5E5E5E;stroke-width:1.0416666666666667;" x1="781.7708" x2="933.8542" y1="557.7037" y2="557.7037"/><text fill="#D8BC00" font-family="Open Sans,Avenir,Nunito,Arial,Helvetica,SansSerif" font-size="11.4583" lengthAdjust="spacing" textLength="52.0833" x="936.9792" y="561.5133">(filtering)</text><line style="stroke:#5E5E5E;stroke-width:1.0416666666666667;" x1="992.1875" x2="1144.2708" y1="557.7037" y2="557.7037"/><ellipse cx="792.1875" cy="618.5242" fill="#84BE84" rx="3.125" ry="3.125" style="stroke:#038048;stroke-width:1.0416666666666667;"/><text fill="#D8BC00" font-family="Open Sans,Avenir,Nunito,Arial,Helvetica,SansSerif" font-size="11.4583" lengthAdjust="spacing" textLength="194.7917" x="803.6458" y="625.4354">Set&lt;RestPath&gt; microservletPaths()</text><line style="stroke:#5E5E5E;stroke-width:1.0416666666666667;" x1="781.7708" x2="943.2292" y1="601.3601" y2="601.3601"/><text fill="#D8BC00" font-family="Open Sans,Avenir,Nunito,Arial,Helvetica,SansSerif" font-size="11.4583" lengthAdjust="spacing" textLength="33.3333" x="946.3542" y="605.1697">(path)</text><line style="stroke:#5E5E5E;stroke-width:1.0416666666666667;" x1="982.8125" x2="1144.2708" y1="601.3601" y2="601.3601"/><rect fill="#282828" height="48.055" id="JettyRestRequestCycle" rx="8.3333" ry="8.3333" style="stroke:#5E5E5E;stroke-width:1.0416666666666667;" width="182.2917" x="767.7083" y="962.0361"/><rect fill="#1B1B1A" height="31.3883" rx="8.3333" ry="8.3333" style="stroke:#1B1B1A;stroke-width:1.0416666666666667;" width="182.2917" x="767.7083" y="962.0361"/><rect fill="#1B1B1A" height="8.3333" style="stroke:#1B1B1A;stroke-width:1.0416666666666667;" width="182.2917" x="767.7083" y="985.0911"/><rect fill="none" height="48.055" id="JettyRestRequestCycle" rx="8.3333" ry="8.3333" style="stroke:#5E5E5E;stroke-width:1.0416666666666667;" width="182.2917" x="767.7083" y="962.0361"/><ellipse cx="782.2917" cy="977.7303" fill="#0066CF" rx="10.4167" ry="10.4167" style="stroke:#0086EF;stroke-width:1.0416666666666667;"/><path d="M784.2021,982.1554 Q783.7748,982.3751 783.3049,982.4849 Q782.8349,982.5948 782.3161,982.5948 Q780.4728,982.5948 779.5024,981.3802 Q778.5319,980.1656 778.5319,977.8707 Q778.5319,975.5697 779.5024,974.3551 Q780.4728,973.1405 782.3161,973.1405 Q782.8349,973.1405 783.311,973.2503 Q783.787,973.3602 784.2021,973.5799 L784.2021,975.5819 Q783.7382,975.1546 783.3018,974.9563 Q782.8654,974.7579 782.4015,974.7579 Q781.4128,974.7579 780.9092,975.5422 Q780.4057,976.3265 780.4057,977.8707 Q780.4057,979.4088 780.9092,980.1931 Q781.4128,980.9774 782.4015,980.9774 Q782.8654,980.9774 783.3018,980.779 Q783.7382,980.5806 784.2021,980.1534 Z " fill="#000000"/><text fill="#D8BC00" font-family="Open Sans,Avenir,Nunito,Arial,Helvetica,SansSerif" font-size="12.5" font-weight="bold" lengthAdjust="spacing" textLength="144.7917" x="798.9583" y="982.4544">JettyRestRequestCycle</text><line style="stroke:#5E5E5E;stroke-width:1.0416666666666667;" x1="768.75" x2="948.9583" y1="993.4245" y2="993.4245"/><line style="stroke:#5E5E5E;stroke-width:1.0416666666666667;" x1="768.75" x2="948.9583" y1="1001.7578" y2="1001.7578"/><rect fill="#282828" height="48.055" id="Microservlet" rx="8.3333" ry="8.3333" style="stroke:#5E5E5E;stroke-width:1.0416666666666667;" width="116.6667" x="1011.9792" y="962.0361"/><rect fill="#1B1B1A" height="31.3883" rx="8.3333" ry="8.3333" style="stroke:#1B1B1A;stroke-width:1.0416666666666667;" width="116.6667" x="1011.9792" y="962.0361"/><rect fill="#1B1B1A" height="8.3333" style="stroke:#1B1B1A;stroke-width:1.0416666666666667;" width="116.6667" x="1011.9792" y="985.0911"/><rect fill="none" height="48.055" id="Microservlet" rx="8.3333" ry="8.3333" style="stroke:#5E5E5E;stroke-width:1.0416666666666667;" width="116.6667" x="1011.9792" y="962.0361"/><ellipse cx="1026.5625" cy="977.7303" fill="#0066CF" rx="10.4167" ry="10.4167" style="stroke:#0086EF;stroke-width:1.0416666666666667;"/><path d="M1028.4729,982.1554 Q1028.0457,982.3751 1027.5757,982.4849 Q1027.1057,982.5948 1026.5869,982.5948 Q1024.7437,982.5948 1023.7732,981.3802 Q1022.8027,980.1656 1022.8027,977.8707 Q1022.8027,975.5697 1023.7732,974.3551 Q1024.7437,973.1405 1026.5869,973.1405 Q1027.1057,973.1405 1027.5818,973.2503 Q1028.0579,973.3602 1028.4729,973.5799 L1028.4729,975.5819 Q1028.009,975.1546 1027.5726,974.9563 Q1027.1362,974.7579 1026.6724,974.7579 Q1025.6836,974.7579 1025.1801,975.5422 Q1024.6765,976.3265 1024.6765,977.8707 Q1024.6765,979.4088 1025.1801,980.1931 Q1025.6836,980.9774 1026.6724,980.9774 Q1027.1362,980.9774 1027.5726,980.779 Q1028.009,980.5806 1028.4729,980.1534 Z " fill="#000000"/><text fill="#D8BC00" font-family="Open Sans,Avenir,Nunito,Arial,Helvetica,SansSerif" font-size="12.5" font-weight="bold" lengthAdjust="spacing" textLength="79.1667" x="1043.2292" y="982.4544">Microservlet</text><line style="stroke:#5E5E5E;stroke-width:1.0416666666666667;" x1="1013.0208" x2="1127.6042" y1="993.4245" y2="993.4245"/><line style="stroke:#5E5E5E;stroke-width:1.0416666666666667;" x1="1013.0208" x2="1127.6042" y1="1001.7578" y2="1001.7578"/><rect fill="#282828" height="48.055" id="RestService" rx="8.3333" ry="8.3333" style="stroke:#5E5E5E;stroke-width:1.0416666666666667;" width="110.4167" x="1190.1042" y="962.0361"/><rect fill="#1B1B1A" height="31.3883" rx="8.3333" ry="8.3333" style="stroke:#1B1B1A;stroke-width:1.0416666666666667;" width="110.4167" x="1190.1042" y="962.0361"/><rect fill="#1B1B1A" height="8.3333" style="stroke:#1B1B1A;stroke-width:1.0416666666666667;" width="110.4167" x="1190.1042" y="985.0911"/><rect fill="none" height="48.055" id="RestService" rx="8.3333" ry="8.3333" style="stroke:#5E5E5E;stroke-width:1.0416666666666667;" width="110.4167" x="1190.1042" y="962.0361"/><ellipse cx="1204.6875" cy="977.7303" fill="#0066CF" rx="10.4167" ry="10.4167" style="stroke:#0086EF;stroke-width:1.0416666666666667;"/><path d="M1206.5979,982.1554 Q1206.1707,982.3751 1205.7007,982.4849 Q1205.2307,982.5948 1204.7119,982.5948 Q1202.8687,982.5948 1201.8982,981.3802 Q1200.9277,980.1656 1200.9277,977.8707 Q1200.9277,975.5697 1201.8982,974.3551 Q1202.8687,973.1405 1204.7119,973.1405 Q1205.2307,973.1405 1205.7068,973.2503 Q1206.1829,973.3602 1206.5979,973.5799 L1206.5979,975.5819 Q1206.134,975.1546 1205.6976,974.9563 Q1205.2612,974.7579 1204.7974,974.7579 Q1203.8086,974.7579 1203.3051,975.5422 Q1202.8015,976.3265 1202.8015,977.8707 Q1202.8015,979.4088 1203.3051,980.1931 Q1203.8086,980.9774 1204.7974,980.9774 Q1205.2612,980.9774 1205.6976,980.779 Q1206.134,980.5806 1206.5979,980.1534 Z " fill="#000000"/><text fill="#D8BC00" font-family="Open Sans,Avenir,Nunito,Arial,Helvetica,SansSerif" font-size="12.5" font-weight="bold" lengthAdjust="spacing" textLength="72.9167" x="1221.3542" y="982.4544">RestService</text><line style="stroke:#5E5E5E;stroke-width:1.0416666666666667;" x1="1191.1458" x2="1299.4792" y1="993.4245" y2="993.4245"/><line style="stroke:#5E5E5E;stroke-width:1.0416666666666667;" x1="1191.1458" x2="1299.4792" y1="1001.7578" y2="1001.7578"/><rect fill="#282828" height="48.055" id="FilterHolder" rx="8.3333" ry="8.3333" style="stroke:#5E5E5E;stroke-width:1.0416666666666667;" width="113.5417" x="1192.7083" y="53.7028"/><rect fill="#1B1B1A" height="31.3883" rx="8.3333" ry="8.3333" style="stroke:#1B1B1A;stroke-width:1.0416666666666667;" width="113.5417" x="1192.7083" y="53.7028"/><rect fill="#1B1B1A" height="8.3333" style="stroke:#1B1B1A;stroke-width:1.0416666666666667;" width="113.5417" x="1192.7083" y="76.7578"/><rect fill="none" height="48.055" id="FilterHolder" rx="8.3333" ry="8.3333" style="stroke:#5E5E5E;stroke-width:1.0416666666666667;" width="113.5417" x="1192.7083" y="53.7028"/><ellipse cx="1207.2917" cy="69.397" fill="#0066CF" rx="10.4167" ry="10.4167" style="stroke:#0086EF;stroke-width:1.0416666666666667;"/><path d="M1209.2021,73.822 Q1208.7748,74.0417 1208.3049,74.1516 Q1207.8349,74.2615 1207.3161,74.2615 Q1205.4728,74.2615 1204.5024,73.0469 Q1203.5319,71.8323 1203.5319,69.5374 Q1203.5319,67.2363 1204.5024,66.0217 Q1205.4728,64.8071 1207.3161,64.8071 Q1207.8349,64.8071 1208.311,64.917 Q1208.787,65.0269 1209.2021,65.2466 L1209.2021,67.2485 Q1208.7382,66.8213 1208.3018,66.6229 Q1207.8654,66.4246 1207.4015,66.4246 Q1206.4128,66.4246 1205.9092,67.2089 Q1205.4057,67.9932 1205.4057,69.5374 Q1205.4057,71.0754 1205.9092,71.8597 Q1206.4128,72.644 1207.4015,72.644 Q1207.8654,72.644 1208.3018,72.4457 Q1208.7382,72.2473 1209.2021,71.8201 Z " fill="#000000"/><text fill="#D8BC00" font-family="Open Sans,Avenir,Nunito,Arial,Helvetica,SansSerif" font-size="12.5" font-weight="bold" lengthAdjust="spacing" textLength="76.0417" x="1223.9583" y="74.1211">FilterHolder</text><line style="stroke:#5E5E5E;stroke-width:1.0416666666666667;" x1="1193.75" x2="1305.2083" y1="85.0911" y2="85.0911"/><line style="stroke:#5E5E5E;stroke-width:1.0416666666666667;" x1="1193.75" x2="1305.2083" y1="93.4245" y2="93.4245"/><rect codeLine="37" fill="#282828" height="127.0345" id="JettyMicroservletFilterHolder" rx="8.3333" ry="8.3333" style="stroke:#5E5E5E;stroke-width:1.0416666666666667;" width="262.5" x="1034.8958" y="165.1611"/><rect fill="#1B1B1A" height="31.3883" rx="8.3333" ry="8.3333" style="stroke:#1B1B1A;stroke-width:1.0416666666666667;" width="262.5" x="1034.8958" y="165.1611"/><rect fill="#1B1B1A" height="8.3333" style="stroke:#1B1B1A;stroke-width:1.0416666666666667;" width="262.5" x="1034.8958" y="188.2161"/><rect codeLine="37" fill="none" height="127.0345" id="JettyMicroservletFilterHolder" rx="8.3333" ry="8.3333" style="stroke:#5E5E5E;stroke-width:1.0416666666666667;" width="262.5" x="1034.8958" y="165.1611"/><ellipse cx="1067.2917" cy="180.8553" fill="#0066CF" rx="10.4167" ry="10.4167" style="stroke:#0086EF;stroke-width:1.0416666666666667;"/><path d="M1069.2021,185.2804 Q1068.7748,185.5001 1068.3049,185.6099 Q1067.8349,185.7198 1067.3161,185.7198 Q1065.4728,185.7198 1064.5024,184.5052 Q1063.5319,183.2906 1063.5319,180.9957 Q1063.5319,178.6947 1064.5024,177.4801 Q1065.4728,176.2655 1067.3161,176.2655 Q1067.8349,176.2655 1068.311,176.3753 Q1068.787,176.4852 1069.2021,176.7049 L1069.2021,178.7069 Q1068.7382,178.2796 1068.3018,178.0813 Q1067.8654,177.8829 1067.4015,177.8829 Q1066.4128,177.8829 1065.9092,178.6672 Q1065.4057,179.4515 1065.4057,180.9957 Q1065.4057,182.5338 1065.9092,183.3181 Q1066.4128,184.1024 1067.4015,184.1024 Q1067.8654,184.1024 1068.3018,183.904 Q1068.7382,183.7056 1069.2021,183.2784 Z " fill="#000000"/><text fill="#D8BC00" font-family="Open Sans,Avenir,Nunito,Arial,Helvetica,SansSerif" font-size="12.5" font-weight="bold" lengthAdjust="spacing" textLength="185.4167" x="1087.9167" y="185.5794">JettyMicroservletFilterHolder</text><line style="stroke:#5E5E5E;stroke-width:1.5625;" x1="1035.9375" x2="1296.3542" y1="196.5495" y2="196.5495"/><ellipse cx="1046.3542" cy="231.9194" fill="#84BE84" rx="3.125" ry="3.125" style="stroke:#038048;stroke-width:1.0416666666666667;"/><text fill="#D8BC00" font-family="Open Sans,Avenir,Nunito,Arial,Helvetica,SansSerif" font-size="11.4583" lengthAdjust="spacing" textLength="230.2083" x="1057.8125" y="238.8306">JettyMicroservletFilterHolder(RestService)</text><line style="stroke:#5E5E5E;stroke-width:1.0416666666666667;" x1="1035.9375" x2="1122.3958" y1="214.7552" y2="214.7552"/><text fill="#D8BC00" font-family="Open Sans,Avenir,Nunito,Arial,Helvetica,SansSerif" font-size="11.4583" lengthAdjust="spacing" textLength="81.25" x="1125.5208" y="218.5649">(constructors)</text><line style="stroke:#5E5E5E;stroke-width:1.0416666666666667;" x1="1209.8958" x2="1296.3542" y1="214.7552" y2="214.7552"/><ellipse cx="1046.3542" cy="275.5758" fill="#84BE84" rx="3.125" ry="3.125" style="stroke:#038048;stroke-width:1.0416666666666667;"/><text fill="#D8BC00" font-family="Open Sans,Avenir,Nunito,Arial,Helvetica,SansSerif" font-size="11.4583" lengthAdjust="spacing" textLength="158.3333" x="1057.8125" y="282.487">JettyMicroservletFilter filter()</text><line style="stroke:#5E5E5E;stroke-width:1.0416666666666667;" x1="1035.9375" x2="1136.9792" y1="258.4117" y2="258.4117"/><text fill="#D8BC00" font-family="Open Sans,Avenir,Nunito,Arial,Helvetica,SansSerif" font-size="11.4583" lengthAdjust="spacing" textLength="52.0833" x="1140.1042" y="262.2213">(filtering)</text><line style="stroke:#5E5E5E;stroke-width:1.0416666666666667;" x1="1195.3125" x2="1296.3542" y1="258.4117" y2="258.4117"/><rect codeLine="47" fill="#282828" height="111.4563" id="Mounted" rx="8.3333" ry="8.3333" style="stroke:#5E5E5E;stroke-width:1.0416666666666667;" width="252.0833" x="444.2708" y="449.5361"/><rect fill="#1B1B1A" height="31.3883" rx="8.3333" ry="8.3333" style="stroke:#1B1B1A;stroke-width:1.0416666666666667;" width="252.0833" x="444.2708" y="449.5361"/><rect fill="#1B1B1A" height="8.3333" style="stroke:#1B1B1A;stroke-width:1.0416666666666667;" width="252.0833" x="444.2708" y="472.5911"/><rect codeLine="47" fill="none" height="111.4563" id="Mounted" rx="8.3333" ry="8.3333" style="stroke:#5E5E5E;stroke-width:1.0416666666666667;" width="252.0833" x="444.2708" y="449.5361"/><ellipse cx="534.375" cy="465.2303" fill="#0066CF" rx="10.4167" ry="10.4167" style="stroke:#0086EF;stroke-width:1.0416666666666667;"/><path d="M536.2854,469.6554 Q535.8582,469.8751 535.3882,469.9849 Q534.9182,470.0948 534.3994,470.0948 Q532.5562,470.0948 531.5857,468.8802 Q530.6152,467.6656 530.6152,465.3707 Q530.6152,463.0697 531.5857,461.8551 Q532.5562,460.6405 534.3994,460.6405 Q534.9182,460.6405 535.3943,460.7503 Q535.8704,460.8602 536.2854,461.0799 L536.2854,463.0819 Q535.8215,462.6546 535.3851,462.4563 Q534.9487,462.2579 534.4849,462.2579 Q533.4961,462.2579 532.9926,463.0422 Q532.489,463.8265 532.489,465.3707 Q532.489,466.9088 532.9926,467.6931 Q533.4961,468.4774 534.4849,468.4774 Q534.9487,468.4774 535.3851,468.279 Q535.8215,468.0806 536.2854,467.6534 Z " fill="#000000"/><text fill="#D8BC00" font-family="Open Sans,Avenir,Nunito,Arial,Helvetica,SansSerif" font-size="12.5" font-weight="bold" lengthAdjust="spacing" textLength="57.2917" x="557.2917" y="469.9544">Mounted</text><line style="stroke:#5E5E5E;stroke-width:1.5625;" x1="445.3125" x2="695.3125" y1="480.9245" y2="480.9245"/><ellipse cx="455.7292" cy="516.2944" fill="#84BE84" rx="3.125" ry="3.125" style="stroke:#038048;stroke-width:1.0416666666666667;"/><text fill="#D8BC00" font-family="Open Sans,Avenir,Nunito,Arial,Helvetica,SansSerif" font-size="11.4583" lengthAdjust="spacing" textLength="120.8333" x="467.1875" y="523.2056">Mounted(RestService)</text><line style="stroke:#5E5E5E;stroke-width:1.0416666666666667;" x1="445.3125" x2="526.5625" y1="499.1302" y2="499.1302"/><text fill="#D8BC00" font-family="Open Sans,Avenir,Nunito,Arial,Helvetica,SansSerif" font-size="11.4583" lengthAdjust="spacing" textLength="81.25" x="529.6875" y="502.9399">(constructors)</text><line style="stroke:#5E5E5E;stroke-width:1.0416666666666667;" x1="614.0625" x2="695.3125" y1="499.1302" y2="499.1302"/><line style="stroke:#5E5E5E;stroke-width:1.0416666666666667;" x1="445.3125" x2="695.3125" y1="532.9142" y2="532.9142"/><polygon fill="#FFFF44" points="455.7292,539.1642,459.8958,543.3309,455.7292,547.4976,451.5625,543.3309" style="stroke:#B38D22;stroke-width:1.0416666666666667;"/><text fill="#D8BC00" font-family="Open Sans,Avenir,Nunito,Arial,Helvetica,SansSerif" font-size="11.4583" lengthAdjust="spacing" textLength="219.7917" x="467.1875" y="551.2838">void measure(RestPath, Runnable code)</text><rect codeLine="56" fill="#282828" height="491.864" id="MountedApi" rx="8.3333" ry="8.3333" style="stroke:#5E5E5E;stroke-width:1.0416666666666667;" width="365.625" x="7.2917" y="740.1611"/><rect fill="#1B1B1A" height="31.3883" rx="8.3333" ry="8.3333" style="stroke:#1B1B1A;stroke-width:1.0416666666666667;" width="365.625" x="7.2917" y="740.1611"/><rect fill="#1B1B1A" height="8.3333" style="stroke:#1B1B1A;stroke-width:1.0416666666666667;" width="365.625" x="7.2917" y="763.2161"/><rect codeLine="56" fill="none" height="491.864" id="MountedApi" rx="8.3333" ry="8.3333" style="stroke:#5E5E5E;stroke-width:1.0416666666666667;" width="365.625" x="7.2917" y="740.1611"/><ellipse cx="143.2292" cy="755.8553" fill="#0066CF" rx="10.4167" ry="10.4167" style="stroke:#0086EF;stroke-width:1.0416666666666667;"/><path d="M145.1396,760.2804 Q144.7123,760.5001 144.2424,760.6099 Q143.7724,760.7198 143.2536,760.7198 Q141.4103,760.7198 140.4399,759.5052 Q139.4694,758.2906 139.4694,755.9957 Q139.4694,753.6947 140.4399,752.4801 Q141.4103,751.2655 143.2536,751.2655 Q143.7724,751.2655 144.2485,751.3753 Q144.7245,751.4852 145.1396,751.7049 L145.1396,753.7069 Q144.6757,753.2796 144.2393,753.0813 Q143.8029,752.8829 143.339,752.8829 Q142.3503,752.8829 141.8467,753.6672 Q141.3432,754.4515 141.3432,755.9957 Q141.3432,757.5338 141.8467,758.3181 Q142.3503,759.1024 143.339,759.1024 Q143.8029,759.1024 144.2393,758.904 Q144.6757,758.7056 145.1396,758.2784 Z " fill="#000000"/><text fill="#D8BC00" font-family="Open Sans,Avenir,Nunito,Arial,Helvetica,SansSerif" font-size="12.5" font-weight="bold" lengthAdjust="spacing" textLength="79.1667" x="166.1458" y="760.5794">MountedApi</text><line style="stroke:#5E5E5E;stroke-width:1.5625;" x1="8.3333" x2="371.875" y1="771.5495" y2="771.5495"/><ellipse cx="18.75" cy="806.9194" fill="#84BE84" rx="3.125" ry="3.125" style="stroke:#038048;stroke-width:1.0416666666666667;"/><text fill="#D8BC00" font-family="Open Sans,Avenir,Nunito,Arial,Helvetica,SansSerif" font-size="11.4583" lengthAdjust="spacing" textLength="139.5833" x="30.2083" y="813.8306">MountedApi(RestService)</text><line style="stroke:#5E5E5E;stroke-width:1.0416666666666667;" x1="8.3333" x2="146.3542" y1="789.7552" y2="789.7552"/><text fill="#D8BC00" font-family="Open Sans,Avenir,Nunito,Arial,Helvetica,SansSerif" font-size="11.4583" lengthAdjust="spacing" textLength="81.25" x="149.4792" y="793.5649">(constructors)</text><line style="stroke:#5E5E5E;stroke-width:1.0416666666666667;" x1="233.8542" x2="371.875" y1="789.7552" y2="789.7552"/><line style="stroke:#5E5E5E;stroke-width:1.0416666666666667;" x1="8.3333" x2="371.875" y1="823.5392" y2="823.5392"/><ellipse cx="18.75" cy="834.9976" fill="#84BE84" rx="3.125" ry="3.125" style="stroke:#038048;stroke-width:1.0416666666666667;"/><text fill="#D8BC00" font-family="Open Sans,Avenir,Nunito,Arial,Helvetica,SansSerif" font-size="11.4583" lengthAdjust="spacing" textLength="163.5417" x="30.2083" y="841.9088">MountedApi jar(Resource jar)</text><ellipse cx="18.75" cy="854.7424" fill="#84BE84" rx="3.125" ry="3.125" style="stroke:#038048;stroke-width:1.0416666666666667;"/><text fill="#D8BC00" font-family="Open Sans,Avenir,Nunito,Arial,Helvetica,SansSerif" font-size="11.4583" lengthAdjust="spacing" textLength="133.3333" x="30.2083" y="861.6536">boolean maybeLaunch()</text><ellipse cx="18.75" cy="898.3988" fill="#84BE84" rx="3.125" ry="3.125" style="stroke:#038048;stroke-width:1.0416666666666667;"/><text fill="#D8BC00" font-family="Open Sans,Avenir,Nunito,Arial,Helvetica,SansSerif" font-size="11.4583" lengthAdjust="spacing" textLength="92.7083" x="30.2083" y="905.3101">boolean isAlive()</text><ellipse cx="18.75" cy="918.1437" fill="#84BE84" rx="3.125" ry="3.125" style="stroke:#038048;stroke-width:1.0416666666666667;"/><text fill="#D8BC00" font-family="Open Sans,Avenir,Nunito,Arial,Helvetica,SansSerif" font-size="11.4583" lengthAdjust="spacing" textLength="98.9583" x="30.2083" y="925.0549">boolean isReady()</text><line style="stroke:#5E5E5E;stroke-width:1.0416666666666667;" x1="8.3333" x2="163.5417" y1="881.2347" y2="881.2347"/><text fill="#D8BC00" font-family="Open Sans,Avenir,Nunito,Arial,Helvetica,SansSerif" font-size="11.4583" lengthAdjust="spacing" textLength="46.875" x="166.6667" y="885.0444">(checks)</text><line style="stroke:#5E5E5E;stroke-width:1.0416666666666667;" x1="216.6667" x2="371.875" y1="881.2347" y2="881.2347"/><ellipse cx="18.75" cy="961.8001" fill="#84BE84" rx="3.125" ry="3.125" style="stroke:#038048;stroke-width:1.0416666666666667;"/><text fill="#D8BC00" font-family="Open Sans,Avenir,Nunito,Arial,Helvetica,SansSerif" font-size="11.4583" lengthAdjust="spacing" textLength="291.6667" x="30.2083" y="968.7113">MountedApi commandLine(StringList commandLine)</text><line style="stroke:#5E5E5E;stroke-width:1.0416666666666667;" x1="8.3333" x2="120.8333" y1="944.636" y2="944.636"/><text fill="#D8BC00" font-family="Open Sans,Avenir,Nunito,Arial,Helvetica,SansSerif" font-size="11.4583" lengthAdjust="spacing" textLength="132.2917" x="123.9583" y="948.4456">(command line parsing)</text><line style="stroke:#5E5E5E;stroke-width:1.0416666666666667;" x1="259.375" x2="371.875" y1="944.636" y2="944.636"/><ellipse cx="18.75" cy="1005.4565" fill="#84BE84" rx="3.125" ry="3.125" style="stroke:#038048;stroke-width:1.0416666666666667;"/><text fill="#D8BC00" font-family="Open Sans,Avenir,Nunito,Arial,Helvetica,SansSerif" font-size="11.4583" lengthAdjust="spacing" textLength="163.5417" x="30.2083" y="1012.3678">MountedApi version(Version)</text><line style="stroke:#5E5E5E;stroke-width:1.0416666666666667;" x1="8.3333" x2="161.9792" y1="988.2924" y2="988.2924"/><text fill="#D8BC00" font-family="Open Sans,Avenir,Nunito,Arial,Helvetica,SansSerif" font-size="11.4583" lengthAdjust="spacing" textLength="50" x="165.1042" y="992.1021">(identity)</text><line style="stroke:#5E5E5E;stroke-width:1.0416666666666667;" x1="218.2292" x2="371.875" y1="988.2924" y2="988.2924"/><ellipse cx="18.75" cy="1049.113" fill="#84BE84" rx="3.125" ry="3.125" style="stroke:#038048;stroke-width:1.0416666666666667;"/><text fill="#D8BC00" font-family="Open Sans,Avenir,Nunito,Arial,Helvetica,SansSerif" font-size="11.4583" lengthAdjust="spacing" textLength="333.3333" x="30.2083" y="1056.0242">boolean handleRequest(HttpMethod, JettyRestRequestCycle)</text><line style="stroke:#5E5E5E;stroke-width:1.0416666666666667;" x1="8.3333" x2="152.6042" y1="1031.9489" y2="1031.9489"/><text fill="#D8BC00" font-family="Open Sans,Avenir,Nunito,Arial,Helvetica,SansSerif" font-size="11.4583" lengthAdjust="spacing" textLength="68.75" x="155.7292" y="1035.7585">(messaging)</text><line style="stroke:#5E5E5E;stroke-width:1.0416666666666667;" x1="227.6042" x2="371.875" y1="1031.9489" y2="1031.9489"/><ellipse cx="18.75" cy="1092.7694" fill="#84BE84" rx="3.125" ry="3.125" style="stroke:#038048;stroke-width:1.0416666666666667;"/><text fill="#D8BC00" font-family="Open Sans,Avenir,Nunito,Arial,Helvetica,SansSerif" font-size="11.4583" lengthAdjust="spacing" textLength="144.7917" x="30.2083" y="1099.6806">MountedApi port(int port)</text><ellipse cx="18.75" cy="1112.5142" fill="#84BE84" rx="3.125" ry="3.125" style="stroke:#038048;stroke-width:1.0416666666666667;"/><text fill="#D8BC00" font-family="Open Sans,Avenir,Nunito,Arial,Helvetica,SansSerif" font-size="11.4583" lengthAdjust="spacing" textLength="58.3333" x="30.2083" y="1119.4255">Port port()</text><ellipse cx="18.75" cy="1132.2591" fill="#84BE84" rx="3.125" ry="3.125" style="stroke:#038048;stroke-width:1.0416666666666667;"/><text fill="#D8BC00" font-family="Open Sans,Avenir,Nunito,Arial,Helvetica,SansSerif" font-size="11.4583" lengthAdjust="spacing" textLength="107.2917" x="30.2083" y="1139.1703">URI uri(String path)</text><ellipse cx="18.75" cy="1152.004" fill="#84BE84" rx="3.125" ry="3.125" style="stroke:#038048;stroke-width:1.0416666666666667;"/><text fill="#D8BC00" font-family="Open Sans,Avenir,Nunito,Arial,Helvetica,SansSerif" font-size="11.4583" lengthAdjust="spacing" textLength="45.8333" x="30.2083" y="1158.9152">URI uri()</text><line style="stroke:#5E5E5E;stroke-width:1.0416666666666667;" x1="8.3333" x2="160.4167" y1="1075.6053" y2="1075.6053"/><text fill="#D8BC00" font-family="Open Sans,Avenir,Nunito,Arial,Helvetica,SansSerif" font-size="11.4583" lengthAdjust="spacing" textLength="53.125" x="163.5417" y="1079.4149">(network)</text><line style="stroke:#5E5E5E;stroke-width:1.0416666666666667;" x1="219.7917" x2="371.875" y1="1075.6053" y2="1075.6053"/><ellipse cx="18.75" cy="1195.6604" fill="#84BE84" rx="3.125" ry="3.125" style="stroke:#038048;stroke-width:1.0416666666666667;"/><text fill="#D8BC00" font-family="Open Sans,Avenir,Nunito,Arial,Helvetica,SansSerif" font-size="11.4583" lengthAdjust="spacing" textLength="152.0833" x="30.2083" y="1202.5716">MountedApi path(RestPath)</text><ellipse cx="18.75" cy="1215.4053" fill="#84BE84" rx="3.125" ry="3.125" style="stroke:#038048;stroke-width:1.0416666666666667;"/><text fill="#D8BC00" font-family="Open Sans,Avenir,Nunito,Arial,Helvetica,SansSerif" font-size="11.4583" lengthAdjust="spacing" textLength="84.375" x="30.2083" y="1222.3165">RestPath path()</text><line style="stroke:#5E5E5E;stroke-width:1.0416666666666667;" x1="8.3333" x2="170.3125" y1="1178.4963" y2="1178.4963"/><text fill="#D8BC00" font-family="Open Sans,Avenir,Nunito,Arial,Helvetica,SansSerif" font-size="11.4583" lengthAdjust="spacing" textLength="33.3333" x="173.4375" y="1182.3059">(path)</text><line style="stroke:#5E5E5E;stroke-width:1.0416666666666667;" x1="209.8958" x2="371.875" y1="1178.4963" y2="1178.4963"/><rect codeLine="83" fill="#282828" height="155.1127" id="MountedMicroservlet" rx="8.3333" ry="8.3333" style="stroke:#5E5E5E;stroke-width:1.0416666666666667;" width="320.8333" x="409.8958" y="908.3903"/><rect fill="#1B1B1A" height="31.3883" rx="8.3333" ry="8.3333" style="stroke:#1B1B1A;stroke-width:1.0416666666666667;" width="320.8333" x="409.8958" y="908.3903"/><rect fill="#1B1B1A" height="8.3333" style="stroke:#1B1B1A;stroke-width:1.0416666666666667;" width="320.8333" x="409.8958" y="931.4453"/><rect codeLine="83" fill="none" height="155.1127" id="MountedMicroservlet" rx="8.3333" ry="8.3333" style="stroke:#5E5E5E;stroke-width:1.0416666666666667;" width="320.8333" x="409.8958" y="908.3903"/><ellipse cx="494.7917" cy="924.0845" fill="#0066CF" rx="10.4167" ry="10.4167" style="stroke:#0086EF;stroke-width:1.0416666666666667;"/><path d="M496.7021,928.5095 Q496.2748,928.7292 495.8049,928.8391 Q495.3349,928.949 494.8161,928.949 Q492.9728,928.949 492.0024,927.7344 Q491.0319,926.5198 491.0319,924.2249 Q491.0319,921.9238 492.0024,920.7092 Q492.9728,919.4946 494.8161,919.4946 Q495.3349,919.4946 495.811,919.6045 Q496.287,919.7144 496.7021,919.9341 L496.7021,921.936 Q496.2382,921.5088 495.8018,921.3104 Q495.3654,921.1121 494.9015,921.1121 Q493.9128,921.1121 493.4092,921.8964 Q492.9057,922.6807 492.9057,924.2249 Q492.9057,925.7629 493.4092,926.5472 Q493.9128,927.3315 494.9015,927.3315 Q495.3654,927.3315 495.8018,927.1332 Q496.2382,926.9348 496.7021,926.5076 Z " fill="#000000"/><text fill="#D8BC00" font-family="Open Sans,Avenir,Nunito,Arial,Helvetica,SansSerif" font-size="12.5" font-weight="bold" lengthAdjust="spacing" textLength="136.4583" x="517.7083" y="928.8086">MountedMicroservlet</text><line style="stroke:#5E5E5E;stroke-width:1.5625;" x1="410.9375" x2="729.6875" y1="939.7786" y2="939.7786"/><ellipse cx="421.3542" cy="975.1485" fill="#84BE84" rx="3.125" ry="3.125" style="stroke:#038048;stroke-width:1.0416666666666667;"/><text fill="#D8BC00" font-family="Open Sans,Avenir,Nunito,Arial,Helvetica,SansSerif" font-size="11.4583" lengthAdjust="spacing" textLength="189.5833" x="432.8125" y="982.0597">MountedMicroservlet(RestService)</text><line style="stroke:#5E5E5E;stroke-width:1.0416666666666667;" x1="410.9375" x2="526.5625" y1="957.9844" y2="957.9844"/><text fill="#D8BC00" font-family="Open Sans,Avenir,Nunito,Arial,Helvetica,SansSerif" font-size="11.4583" lengthAdjust="spacing" textLength="81.25" x="529.6875" y="961.794">(constructors)</text><line style="stroke:#5E5E5E;stroke-width:1.0416666666666667;" x1="614.0625" x2="729.6875" y1="957.9844" y2="957.9844"/><line style="stroke:#5E5E5E;stroke-width:1.0416666666666667;" x1="410.9375" x2="729.6875" y1="991.7684" y2="991.7684"/><ellipse cx="421.3542" cy="1003.2267" fill="#84BE84" rx="3.125" ry="3.125" style="stroke:#038048;stroke-width:1.0416666666666667;"/><text fill="#D8BC00" font-family="Open Sans,Avenir,Nunito,Arial,Helvetica,SansSerif" font-size="11.4583" lengthAdjust="spacing" textLength="182.2917" x="432.8125" y="1010.1379">Microservlet&lt;?,?&gt; microservlet()</text><ellipse cx="421.3542" cy="1046.8831" fill="#84BE84" rx="3.125" ry="3.125" style="stroke:#038048;stroke-width:1.0416666666666667;"/><text fill="#D8BC00" font-family="Open Sans,Avenir,Nunito,Arial,Helvetica,SansSerif" font-size="11.4583" lengthAdjust="spacing" textLength="288.5417" x="432.8125" y="1053.7944">void handleRequest(HttpMethod, RestRequestCycle)</text><line style="stroke:#5E5E5E;stroke-width:1.0416666666666667;" x1="410.9375" x2="532.8125" y1="1029.719" y2="1029.719"/><text fill="#D8BC00" font-family="Open Sans,Avenir,Nunito,Arial,Helvetica,SansSerif" font-size="11.4583" lengthAdjust="spacing" textLength="68.75" x="535.9375" y="1033.5286">(messaging)</text><line style="stroke:#5E5E5E;stroke-width:1.0416666666666667;" x1="607.8125" x2="729.6875" y1="1029.719" y2="1029.719"/><path codeLine="13" d="M620.1979,264.7445 C661.1354,293.4632 721.7604,335.9945 780.6875,377.3486 " fill="none" id="BaseComponent-backto-JettyMicroservletFilter" style="stroke:#545454;stroke-width:1.5625;"/><polygon fill="none" points="615.9896,270.6924,603.1146,252.7653,624.3646,258.7549,615.9896,270.6924" style="stroke:#545454;stroke-width:1.5625;"/><path codeLine="14" d="M963.0208,273.807 C963.0208,301.9215 963.0208,339.932 963.0208,377.0153 " fill="none" id="Filter-backto-JettyMicroservletFilter" style="stroke:#545454;stroke-width:1.5625;"/><polygon fill="none" points="955.7292,273.5986,963.0208,252.7653,970.3125,273.5986,955.7292,273.5986" style="stroke:#545454;stroke-width:1.5625;"/><path codeLine="15" d="M811.2396,270.484 C829.5938,298.8799 855.1771,338.4424 880.1042,377.0153 " fill="none" id="RestProblemReportingTrait-backto-JettyMicroservletFilter" style="stroke:#545454;stroke-width:1.5625;"/><polygon fill="none" points="804.9688,274.2132,799.7813,252.7653,817.2083,266.2965,804.9688,274.2132" style="stroke:#545454;stroke-width:1.5625;"/><path codeLine="16" d="M935.2396,634.7132 C911.3125,744.4215 878.5625,894.5778 865.0625,956.4945 " fill="none" id="JettyMicroservletFilter-to-JettyRestRequestCycle" style="stroke:#545454;stroke-width:1.5625;"/><polygon fill="#545454" points="863.8958,961.859,869.9509,953.5773,864.9973,956.7685,861.806,951.8149,863.8958,961.859" style="stroke:#545454;stroke-width:1.5625;"/><text fill="#A0A0A0" font-family="Open Sans,Avenir,Nunito,Arial,Helvetica,SansSerif" font-size="12.5" font-weight="bold" lengthAdjust="spacing" textLength="45.8333" x="927.6042" y="702.2461">creates</text><path codeLine="17" d="M994.6458,648.1403 C1019.7292,759.7653 1052.5625,905.9528 1065.125,961.859 " fill="none" id="JettyMicroservletFilter-backto-Microservlet" style="stroke:#545454;stroke-width:1.5625;"/><polygon fill="#333333" points="991.6354,634.7132,988.9438,641.726,994.3819,646.9077,997.0735,639.895,991.6354,634.7132" style="stroke:#545454;stroke-width:1.5625;"/><text fill="#A0A0A0" font-family="Open Sans,Avenir,Nunito,Arial,Helvetica,SansSerif" font-size="12.5" font-weight="bold" lengthAdjust="spacing" textLength="111.4583" x="1011.9792" y="702.2461">mounts on paths</text><text fill="#A0A0A0" font-family="Open Sans,Avenir,Nunito,Arial,Helvetica,SansSerif" font-size="12.5" font-weight="bold" lengthAdjust="spacing" textLength="8.3333" x="981.5431" y="658.8315">1</text><text fill="#A0A0A0" font-family="Open Sans,Avenir,Nunito,Arial,Helvetica,SansSerif" font-size="12.5" font-weight="bold" lengthAdjust="spacing" textLength="35.4167" x="1020.2408" y="947.8136">many</text><path codeLine="18" d="M1109.4792,645.0674 C1133.5313,674.2965 1155.6875,706.557 1171.3542,740.1611 C1207.5625,817.8174 1231.2083,917.5153 1240.6563,961.8799 " fill="none" id="JettyMicroservletFilter-backto-RestService" style="stroke:#545454;stroke-width:1.5625;"/><polygon fill="#333333" points="1100.5313,634.432,1101.3693,641.8966,1108.5821,643.9941,1107.744,636.5294,1100.5313,634.432" style="stroke:#545454;stroke-width:1.5625;"/><path codeLine="34" d="M1226.4688,119.8382 C1218.6354,133.8382 1209.6979,149.807 1201.1458,165.0986 " fill="none" id="FilterHolder-backto-JettyMicroservletFilterHolder" style="stroke:#545454;stroke-width:1.5625;"/><polygon fill="none" points="1220.1042,116.2757,1236.6458,101.6507,1232.8333,123.3903,1220.1042,116.2757" style="stroke:#545454;stroke-width:1.5625;"/><path codeLine="35" d="M1105.0729,119.8382 C1113,133.8382 1122.0521,149.807 1130.7083,165.0986 " fill="none" id="ComponentMixin-backto-JettyMicroservletFilterHolder" style="stroke:#545454;stroke-width:1.5625;"/><polygon fill="none" points="1098.6979,123.3695,1094.7708,101.6507,1111.3854,116.182,1098.6979,123.3695" style="stroke:#545454;stroke-width:1.5625;"/><path codeLine="36" d="M1112,303.1924 C1095.2083,325.9632 1076.1875,351.7653 1057.4896,377.1299 " fill="none" id="JettyMicroservletFilterHolder-backto-JettyMicroservletFilter" style="stroke:#545454;stroke-width:1.5625;"/><polygon fill="#333333" points="1120.0521,292.2653,1112.9904,294.8259,1112.638,302.3292,1119.6997,299.7686,1120.0521,292.2653" style="stroke:#545454;stroke-width:1.5625;"/><path codeLine="45" d="M570.3125,273.5778 C570.3125,321.3382 570.3125,397.8174 570.3125,449.484 " fill="none" id="BaseComponent-backto-Mounted" style="stroke:#545454;stroke-width:1.5625;"/><polygon fill="none" points="563.0208,273.5049,570.3125,252.6715,577.6042,273.5049,563.0208,273.5049" style="stroke:#545454;stroke-width:1.5625;"/><path codeLine="46" d="M754.125,269.109 C717.1146,316.4424 654.7813,396.1715 613.1042,449.484 " fill="none" id="RestProblemReportingTrait-backto-Mounted" style="stroke:#545454;stroke-width:1.5625;"/><polygon fill="none" points="748.3958,264.5986,766.9688,252.6715,759.8854,273.5778,748.3958,264.5986" style="stroke:#545454;stroke-width:1.5625;"/><path codeLine="55" d="M513.7292,577.5465 C476.0208,625.0049 424.1771,690.2861 373.0104,754.682 " fill="none" id="Mounted-backto-MountedApi" style="stroke:#545454;stroke-width:1.5625;"/><polygon fill="none" points="508.0313,572.9945,526.6979,561.2132,519.4479,582.057,508.0313,572.9945" style="stroke:#545454;stroke-width:1.5625;"/><path codeLine="82" d="M570.3125,582.3174 C570.3125,671.557 570.3125,818.7236 570.3125,908.2653 " fill="none" id="Mounted-backto-MountedMicroservlet" style="stroke:#545454;stroke-width:1.5625;"/><polygon fill="none" points="563.0208,582.0465,570.3125,561.2132,577.6042,582.0465,563.0208,582.0465" style="stroke:#545454;stroke-width:1.5625;"/></g></svg>
