<?xml version="1.0" encoding="UTF-8" standalone="no"?><svg xmlns="http://www.w3.org/2000/svg" xmlns:xlink="http://www.w3.org/1999/xlink" contentScriptType="application/ecmascript" contentStyleType="text/css" height="218.75px" preserveAspectRatio="none" style="width:389px;height:218px;background:#333333;" version="1.1" viewBox="0 0 389 218" width="389.5833px" zoomAndPan="magnify"><defs/><g><rect fill="#48494B" height="41.2028" rx="8.3333" ry="8.3333" style="stroke:#545454;stroke-width:1.0416666666666667;" width="377.0833" x="2.0833" y="2.0833"/><text fill="#C0C0C0" font-family="Open Sans,Avenir,Nunito,Arial,Helvetica,SansSerif" font-size="20.8333" lengthAdjust="spacing" textLength="354.1667" x="13.5417" y="30.5583">com.telenav.kivakit.security.lexakai</text><rect codeLine="7" fill="#282828" height="48.055" id="UmlDiagramIdentifier" rx="8.3333" ry="8.3333" style="stroke:#5E5E5E;stroke-width:1.0416666666666667;" width="178.125" x="98.1771" y="53.7028"/><rect fill="#1B1B1A" height="31.3883" rx="8.3333" ry="8.3333" style="stroke:#1B1B1A;stroke-width:1.0416666666666667;" width="178.125" x="98.1771" y="53.7028"/><rect fill="#1B1B1A" height="8.3333" style="stroke:#1B1B1A;stroke-width:1.0416666666666667;" width="178.125" x="98.1771" y="76.7578"/><rect codeLine="7" fill="none" height="48.055" id="UmlDiagramIdentifier" rx="8.3333" ry="8.3333" style="stroke:#5E5E5E;stroke-width:1.0416666666666667;" width="178.125" x="98.1771" y="53.7028"/><ellipse cx="112.7604" cy="69.397" fill="#008400" rx="10.4167" ry="10.4167" style="stroke:#239C23;stroke-width:1.0416666666666667;"/><path d="M110.1644,66.5588 L110.1644,64.9719 L115.5904,64.9719 L115.5904,66.5588 L113.7777,66.5588 L113.7777,72.4976 L115.5904,72.4976 L115.5904,74.0845 L110.1644,74.0845 L110.1644,72.4976 L111.9771,72.4976 L111.9771,66.5588 Z " fill="#000000"/><text fill="#D8BC00" font-family="Open Sans,Avenir,Nunito,Arial,Helvetica,SansSerif" font-size="12.5" font-style="italic" font-weight="bold" lengthAdjust="spacing" textLength="140.625" x="129.4271" y="74.1211">UmlDiagramIdentifier</text><line style="stroke:#5E5E5E;stroke-width:1.0416666666666667;" x1="99.2188" x2="275.2604" y1="85.0911" y2="85.0911"/><line style="stroke:#5E5E5E;stroke-width:1.0416666666666667;" x1="99.2188" x2="275.2604" y1="93.4245" y2="93.4245"/><rect codeLine="10" fill="#282828" height="48.055" id="DiagramSecurity" rx="8.3333" ry="8.3333" style="stroke:#5E5E5E;stroke-width:1.0416666666666667;" width="143.75" x="14.3229" y="164.1195"/><rect fill="#1B1B1A" height="31.3883" rx="8.3333" ry="8.3333" style="stroke:#1B1B1A;stroke-width:1.0416666666666667;" width="143.75" x="14.3229" y="164.1195"/><rect fill="#1B1B1A" height="8.3333" style="stroke:#1B1B1A;stroke-width:1.0416666666666667;" width="143.75" x="14.3229" y="187.1745"/><rect codeLine="10" fill="none" height="48.055" id="DiagramSecurity" rx="8.3333" ry="8.3333" style="stroke:#5E5E5E;stroke-width:1.0416666666666667;" width="143.75" x="14.3229" y="164.1195"/><ellipse cx="28.9063" cy="179.8136" fill="#0066CF" rx="10.4167" ry="10.4167" style="stroke:#0086EF;stroke-width:1.0416666666666667;"/><path d="M30.8167,184.2387 Q30.3894,184.4584 29.9194,184.5683 Q29.4495,184.6781 28.9307,184.6781 Q27.0874,184.6781 26.1169,183.4635 Q25.1465,182.2489 25.1465,179.954 Q25.1465,177.653 26.1169,176.4384 Q27.0874,175.2238 28.9307,175.2238 Q29.4495,175.2238 29.9255,175.3337 Q30.4016,175.4435 30.8167,175.6632 L30.8167,177.6652 Q30.3528,177.238 29.9164,177.0396 Q29.48,176.8412 29.0161,176.8412 Q28.0273,176.8412 27.5238,177.6255 Q27.0203,178.4098 27.0203,179.954 Q27.0203,181.4921 27.5238,182.2764 Q28.0273,183.0607 29.0161,183.0607 Q29.48,183.0607 29.9164,182.8623 Q30.3528,182.664 30.8167,182.2367 Z " fill="#000000"/><text fill="#D8BC00" font-family="Open Sans,Avenir,Nunito,Arial,Helvetica,SansSerif" font-size="12.5" font-weight="bold" lengthAdjust="spacing" textLength="106.25" x="45.5729" y="184.5378">DiagramSecurity</text><line style="stroke:#5E5E5E;stroke-width:1.0416666666666667;" x1="15.3646" x2="157.0313" y1="195.5078" y2="195.5078"/><line style="stroke:#5E5E5E;stroke-width:1.0416666666666667;" x1="15.3646" x2="157.0313" y1="203.8411" y2="203.8411"/><rect codeLine="15" fill="#282828" height="48.055" id="DiagramSecurityDigest" rx="8.3333" ry="8.3333" style="stroke:#5E5E5E;stroke-width:1.0416666666666667;" width="186.4583" x="195.0521" y="164.1195"/><rect fill="#1B1B1A" height="31.3883" rx="8.3333" ry="8.3333" style="stroke:#1B1B1A;stroke-width:1.0416666666666667;" width="186.4583" x="195.0521" y="164.1195"/><rect fill="#1B1B1A" height="8.3333" style="stroke:#1B1B1A;stroke-width:1.0416666666666667;" width="186.4583" x="195.0521" y="187.1745"/><rect codeLine="15" fill="none" height="48.055" id="DiagramSecurityDigest" rx="8.3333" ry="8.3333" style="stroke:#5E5E5E;stroke-width:1.0416666666666667;" width="186.4583" x="195.0521" y="164.1195"/><ellipse cx="209.6354" cy="179.8136" fill="#0066CF" rx="10.4167" ry="10.4167" style="stroke:#0086EF;stroke-width:1.0416666666666667;"/><path d="M211.5458,184.2387 Q211.1186,184.4584 210.6486,184.5683 Q210.1786,184.6781 209.6598,184.6781 Q207.8166,184.6781 206.8461,183.4635 Q205.8757,182.2489 205.8757,179.954 Q205.8757,177.653 206.8461,176.4384 Q207.8166,175.2238 209.6598,175.2238 Q210.1786,175.2238 210.6547,175.3337 Q211.1308,175.4435 211.5458,175.6632 L211.5458,177.6652 Q211.0819,177.238 210.6455,177.0396 Q210.2091,176.8412 209.7453,176.8412 Q208.7565,176.8412 208.253,177.6255 Q207.7494,178.4098 207.7494,179.954 Q207.7494,181.4921 208.253,182.2764 Q208.7565,183.0607 209.7453,183.0607 Q210.2091,183.0607 210.6455,182.8623 Q211.0819,182.664 211.5458,182.2367 Z " fill="#000000"/><text fill="#D8BC00" font-family="Open Sans,Avenir,Nunito,Arial,Helvetica,SansSerif" font-size="12.5" font-weight="bold" lengthAdjust="spacing" textLength="148.9583" x="226.3021" y="184.5378">DiagramSecurityDigest</text><line style="stroke:#5E5E5E;stroke-width:1.0416666666666667;" x1="196.0938" x2="380.4688" y1="195.5078" y2="195.5078"/><line style="stroke:#5E5E5E;stroke-width:1.0416666666666667;" x1="196.0938" x2="380.4688" y1="203.8411" y2="203.8411"/><path codeLine="9" d="M151.4271,117.0986 C136.7813,132.807 120.3125,150.4528 107.5938,164.0986 " fill="none" id="UmlDiagramIdentifier-backto-DiagramSecurity" style="stroke:#545454;stroke-width:1.5625;"/><polygon fill="none" points="146.2708,111.9424,165.8125,101.682,156.9375,121.8903,146.2708,111.9424" style="stroke:#545454;stroke-width:1.5625;"/><path codeLine="14" d="M223.0521,117.0986 C237.6979,132.807 254.1667,150.4528 266.8854,164.0986 " fill="none" id="UmlDiagramIdentifier-backto-DiagramSecurityDigest" style="stroke:#545454;stroke-width:1.5625;"/><polygon fill="none" points="217.5417,121.8903,208.6667,101.682,228.2083,111.9424,217.5417,121.8903" style="stroke:#545454;stroke-width:1.5625;"/></g></svg>
