<?xml version="1.0" encoding="UTF-8" standalone="no"?><svg xmlns="http://www.w3.org/2000/svg" xmlns:xlink="http://www.w3.org/1999/xlink" contentScriptType="application/ecmascript" contentStyleType="text/css" height="439.5833px" preserveAspectRatio="none" style="width:295px;height:439px;background:#333333;" version="1.1" viewBox="0 0 295 439" width="295.8333px" zoomAndPan="magnify"><defs/><g><rect fill="#48494B" height="41.2028" rx="8.3333" ry="8.3333" style="stroke:#545454;stroke-width:1.0416666666666667;" width="188.5417" x="46.6146" y="2.0833"/><text fill="#C0C0C0" font-family="Open Sans,Avenir,Nunito,Arial,Helvetica,SansSerif" font-size="20.8333" lengthAdjust="spacing" textLength="165.625" x="58.0729" y="30.5583">Message Digests</text><rect codeLine="12" fill="#282828" height="83.3781" id="BaseDigester" rx="8.3333" ry="8.3333" style="stroke:#5E5E5E;stroke-width:1.0416666666666667;" width="145.8333" x="73.9583" y="203.7028"/><rect fill="#1B1B1A" height="31.3883" rx="8.3333" ry="8.3333" style="stroke:#1B1B1A;stroke-width:1.0416666666666667;" width="145.8333" x="73.9583" y="203.7028"/><rect fill="#1B1B1A" height="8.3333" style="stroke:#1B1B1A;stroke-width:1.0416666666666667;" width="145.8333" x="73.9583" y="226.7578"/><rect codeLine="12" fill="none" height="83.3781" id="BaseDigester" rx="8.3333" ry="8.3333" style="stroke:#5E5E5E;stroke-width:1.0416666666666667;" width="145.8333" x="73.9583" y="203.7028"/><ellipse cx="98.8542" cy="219.397" fill="#C8AC00" rx="10.4167" ry="10.4167" style="stroke:#D8BC00;stroke-width:1.0416666666666667;"/><path d="M98.4473,216.099 L97.5989,219.8283 L99.3018,219.8283 Z M97.3486,214.4511 L99.552,214.4511 L102.0117,223.5636 L100.2112,223.5636 L99.6497,221.3114 L97.2388,221.3114 L96.6895,223.5636 L94.8889,223.5636 Z " fill="#000000"/><text fill="#D8BC00" font-family="Open Sans,Avenir,Nunito,Arial,Helvetica,SansSerif" font-size="12.5" font-style="italic" font-weight="bold" lengthAdjust="spacing" textLength="85.4167" x="117.8125" y="224.1211">BaseDigester</text><line style="stroke:#5E5E5E;stroke-width:1.5625;" x1="75" x2="218.75" y1="235.0911" y2="235.0911"/><polygon fill="#FFFF44" points="85.4167,265.2527,89.5833,269.4194,85.4167,273.586,81.25,269.4194" style="stroke:#B38D22;stroke-width:1.0416666666666667;"/><text fill="#D8BC00" font-family="Open Sans,Avenir,Nunito,Arial,Helvetica,SansSerif" font-size="11.4583" lengthAdjust="spacing" textLength="113.5417" x="96.875" y="277.3722">BaseDigester(String)</text><line style="stroke:#5E5E5E;stroke-width:1.0416666666666667;" x1="75" x2="103.125" y1="253.2969" y2="253.2969"/><text fill="#D8BC00" font-family="Open Sans,Avenir,Nunito,Arial,Helvetica,SansSerif" font-size="11.4583" lengthAdjust="spacing" textLength="81.25" x="106.25" y="257.1065">(constructors)</text><line style="stroke:#5E5E5E;stroke-width:1.0416666666666667;" x1="190.625" x2="218.75" y1="253.2969" y2="253.2969"/><rect codeLine="18" fill="#282828" height="87.5448" id="Digester" rx="8.3333" ry="8.3333" style="stroke:#5E5E5E;stroke-width:1.0416666666666667;" width="176.0417" x="58.8542" y="53.7028"/><rect fill="#1B1B1A" height="31.3883" rx="8.3333" ry="8.3333" style="stroke:#1B1B1A;stroke-width:1.0416666666666667;" width="176.0417" x="58.8542" y="53.7028"/><rect fill="#1B1B1A" height="8.3333" style="stroke:#1B1B1A;stroke-width:1.0416666666666667;" width="176.0417" x="58.8542" y="76.7578"/><rect codeLine="18" fill="none" height="87.5448" id="Digester" rx="8.3333" ry="8.3333" style="stroke:#5E5E5E;stroke-width:1.0416666666666667;" width="176.0417" x="58.8542" y="53.7028"/><ellipse cx="111.9792" cy="69.397" fill="#008400" rx="10.4167" ry="10.4167" style="stroke:#239C23;stroke-width:1.0416666666666667;"/><path d="M109.3831,66.5588 L109.3831,64.9719 L114.8092,64.9719 L114.8092,66.5588 L112.9964,66.5588 L112.9964,72.4976 L114.8092,72.4976 L114.8092,74.0845 L109.3831,74.0845 L109.3831,72.4976 L111.1959,72.4976 L111.1959,66.5588 Z " fill="#000000"/><text fill="#D8BC00" font-family="Open Sans,Avenir,Nunito,Arial,Helvetica,SansSerif" font-size="12.5" font-style="italic" font-weight="bold" lengthAdjust="spacing" textLength="55.2083" x="134.8958" y="74.1211">Digester</text><line style="stroke:#5E5E5E;stroke-width:1.5625;" x1="59.8958" x2="233.8542" y1="85.0911" y2="85.0911"/><line style="stroke:#5E5E5E;stroke-width:1.0416666666666667;" x1="59.8958" x2="233.8542" y1="93.4245" y2="93.4245"/><ellipse cx="70.3125" cy="104.8828" fill="#84BE84" rx="3.125" ry="3.125" style="stroke:#038048;stroke-width:1.0416666666666667;"/><text fill="#D8BC00" font-family="Open Sans,Avenir,Nunito,Arial,Helvetica,SansSerif" font-size="11.4583" lengthAdjust="spacing" textLength="142.7083" x="81.7708" y="111.794">byte[] digest(byte[] value)</text><ellipse cx="70.3125" cy="124.6277" fill="#84BE84" rx="3.125" ry="3.125" style="stroke:#038048;stroke-width:1.0416666666666667;"/><text fill="#D8BC00" font-family="Open Sans,Avenir,Nunito,Arial,Helvetica,SansSerif" font-size="11.4583" lengthAdjust="spacing" textLength="143.75" x="81.7708" y="131.5389">byte[] digest(String value)</text><rect codeLine="26" fill="#282828" height="83.3781" id="Md5Digester" rx="8.3333" ry="8.3333" style="stroke:#5E5E5E;stroke-width:1.0416666666666667;" width="120.8333" x="7.2917" y="349.5361"/><rect fill="#1B1B1A" height="31.3883" rx="8.3333" ry="8.3333" style="stroke:#1B1B1A;stroke-width:1.0416666666666667;" width="120.8333" x="7.2917" y="349.5361"/><rect fill="#1B1B1A" height="8.3333" style="stroke:#1B1B1A;stroke-width:1.0416666666666667;" width="120.8333" x="7.2917" y="372.5911"/><rect codeLine="26" fill="none" height="83.3781" id="Md5Digester" rx="8.3333" ry="8.3333" style="stroke:#5E5E5E;stroke-width:1.0416666666666667;" width="120.8333" x="7.2917" y="349.5361"/><ellipse cx="21.875" cy="365.2303" fill="#0066CF" rx="10.4167" ry="10.4167" style="stroke:#0086EF;stroke-width:1.0416666666666667;"/><path d="M23.7854,369.6554 Q23.3582,369.8751 22.8882,369.9849 Q22.4182,370.0948 21.8994,370.0948 Q20.0562,370.0948 19.0857,368.8802 Q18.1152,367.6656 18.1152,365.3707 Q18.1152,363.0697 19.0857,361.8551 Q20.0562,360.6405 21.8994,360.6405 Q22.4182,360.6405 22.8943,360.7503 Q23.3704,360.8602 23.7854,361.0799 L23.7854,363.0819 Q23.3215,362.6546 22.8851,362.4563 Q22.4487,362.2579 21.9849,362.2579 Q20.9961,362.2579 20.4926,363.0422 Q19.989,363.8265 19.989,365.3707 Q19.989,366.9088 20.4926,367.6931 Q20.9961,368.4774 21.9849,368.4774 Q22.4487,368.4774 22.8851,368.279 Q23.3215,368.0806 23.7854,367.6534 Z " fill="#000000"/><text fill="#D8BC00" font-family="Open Sans,Avenir,Nunito,Arial,Helvetica,SansSerif" font-size="12.5" font-weight="bold" lengthAdjust="spacing" textLength="83.3333" x="38.5417" y="369.9544">Md5Digester</text><line style="stroke:#5E5E5E;stroke-width:1.5625;" x1="8.3333" x2="127.0833" y1="380.9245" y2="380.9245"/><ellipse cx="18.75" cy="416.2944" fill="#84BE84" rx="3.125" ry="3.125" style="stroke:#038048;stroke-width:1.0416666666666667;"/><text fill="#D8BC00" font-family="Open Sans,Avenir,Nunito,Arial,Helvetica,SansSerif" font-size="11.4583" lengthAdjust="spacing" textLength="79.1667" x="30.2083" y="423.2056">Md5Digester()</text><line style="stroke:#5E5E5E;stroke-width:1.0416666666666667;" x1="8.3333" x2="23.9583" y1="399.1302" y2="399.1302"/><text fill="#D8BC00" font-family="Open Sans,Avenir,Nunito,Arial,Helvetica,SansSerif" font-size="11.4583" lengthAdjust="spacing" textLength="81.25" x="27.0833" y="402.9399">(constructors)</text><line style="stroke:#5E5E5E;stroke-width:1.0416666666666667;" x1="111.4583" x2="127.0833" y1="399.1302" y2="399.1302"/><rect codeLine="33" fill="#282828" height="83.3781" id="Sha1Digester" rx="8.3333" ry="8.3333" style="stroke:#5E5E5E;stroke-width:1.0416666666666667;" width="123.9583" x="165.1042" y="349.5361"/><rect fill="#1B1B1A" height="31.3883" rx="8.3333" ry="8.3333" style="stroke:#1B1B1A;stroke-width:1.0416666666666667;" width="123.9583" x="165.1042" y="349.5361"/><rect fill="#1B1B1A" height="8.3333" style="stroke:#1B1B1A;stroke-width:1.0416666666666667;" width="123.9583" x="165.1042" y="372.5911"/><rect codeLine="33" fill="none" height="83.3781" id="Sha1Digester" rx="8.3333" ry="8.3333" style="stroke:#5E5E5E;stroke-width:1.0416666666666667;" width="123.9583" x="165.1042" y="349.5361"/><ellipse cx="179.6875" cy="365.2303" fill="#0066CF" rx="10.4167" ry="10.4167" style="stroke:#0086EF;stroke-width:1.0416666666666667;"/><path d="M181.5979,369.6554 Q181.1707,369.8751 180.7007,369.9849 Q180.2307,370.0948 179.7119,370.0948 Q177.8687,370.0948 176.8982,368.8802 Q175.9277,367.6656 175.9277,365.3707 Q175.9277,363.0697 176.8982,361.8551 Q177.8687,360.6405 179.7119,360.6405 Q180.2307,360.6405 180.7068,360.7503 Q181.1829,360.8602 181.5979,361.0799 L181.5979,363.0819 Q181.134,362.6546 180.6976,362.4563 Q180.2612,362.2579 179.7974,362.2579 Q178.8086,362.2579 178.3051,363.0422 Q177.8015,363.8265 177.8015,365.3707 Q177.8015,366.9088 178.3051,367.6931 Q178.8086,368.4774 179.7974,368.4774 Q180.2612,368.4774 180.6976,368.279 Q181.134,368.0806 181.5979,367.6534 Z " fill="#000000"/><text fill="#D8BC00" font-family="Open Sans,Avenir,Nunito,Arial,Helvetica,SansSerif" font-size="12.5" font-weight="bold" lengthAdjust="spacing" textLength="86.4583" x="196.3542" y="369.9544">Sha1Digester</text><line style="stroke:#5E5E5E;stroke-width:1.5625;" x1="166.1458" x2="288.0208" y1="380.9245" y2="380.9245"/><ellipse cx="176.5625" cy="416.2944" fill="#84BE84" rx="3.125" ry="3.125" style="stroke:#038048;stroke-width:1.0416666666666667;"/><text fill="#D8BC00" font-family="Open Sans,Avenir,Nunito,Arial,Helvetica,SansSerif" font-size="11.4583" lengthAdjust="spacing" textLength="82.2917" x="188.0208" y="423.2056">Sha1Digester()</text><line style="stroke:#5E5E5E;stroke-width:1.0416666666666667;" x1="166.1458" x2="183.3333" y1="399.1302" y2="399.1302"/><text fill="#D8BC00" font-family="Open Sans,Avenir,Nunito,Arial,Helvetica,SansSerif" font-size="11.4583" lengthAdjust="spacing" textLength="81.25" x="186.4583" y="402.9399">(constructors)</text><line style="stroke:#5E5E5E;stroke-width:1.0416666666666667;" x1="270.8333" x2="288.0208" y1="399.1302" y2="399.1302"/><path codeLine="11" d="M146.875,162.682 C146.875,176.609 146.875,190.9528 146.875,203.6715 " fill="none" id="Digester-backto-BaseDigester" style="stroke:#545454;stroke-width:1.5625;"/><polygon fill="none" points="139.5833,162.2965,146.875,141.4632,154.1667,162.2965,139.5833,162.2965" style="stroke:#545454;stroke-width:1.5625;"/><path codeLine="25" d="M114.1667,305.807 C106.1146,320.4111 97.6771,335.734 90.2396,349.2549 " fill="none" id="BaseDigester-backto-Md5Digester" style="stroke:#545454;stroke-width:1.5625;"/><polygon fill="none" points="107.9583,301.9528,124.3958,287.2236,120.7396,308.984,107.9583,301.9528" style="stroke:#545454;stroke-width:1.5625;"/><path codeLine="32" d="M180.0104,305.807 C188.1667,320.4111 196.7188,335.734 204.2604,349.2549 " fill="none" id="BaseDigester-backto-Sha1Digester" style="stroke:#545454;stroke-width:1.5625;"/><polygon fill="none" points="173.4271,308.9632,169.6458,287.2236,186.1667,301.859,173.4271,308.9632" style="stroke:#545454;stroke-width:1.5625;"/></g></svg>
