<?xml version="1.0" encoding="UTF-8" standalone="no"?><svg xmlns="http://www.w3.org/2000/svg" xmlns:xlink="http://www.w3.org/1999/xlink" contentScriptType="application/ecmascript" contentStyleType="text/css" height="546.875px" preserveAspectRatio="none" style="width:963px;height:546px;background:#333333;" version="1.1" viewBox="0 0 963 546" width="963.5417px" zoomAndPan="magnify"><defs/><g><rect fill="#48494B" height="41.2028" rx="8.3333" ry="8.3333" style="stroke:#545454;stroke-width:1.0416666666666667;" width="148.9583" x="400" y="2.0833"/><text fill="#C0C0C0" font-family="Open Sans,Avenir,Nunito,Arial,Helvetica,SansSerif" font-size="20.8333" lengthAdjust="spacing" textLength="126.0417" x="411.4583" y="30.5583">Secure HTTP</text><!--MD5=[fad6ba2768857d695f61116a5bf9c0eb]
class HttpGetResource--><rect fill="#282828" height="48.055" id="HttpGetResource" rx="8.3333" ry="8.3333" style="stroke:#5E5E5E;stroke-width:1.0416666666666667;" width="145.8333" x="41.6667" y="234.432"/><rect fill="#1B1B1A" height="31.3883" rx="8.3333" ry="8.3333" style="stroke:#1B1B1A;stroke-width:1.0416666666666667;" width="145.8333" x="41.6667" y="234.432"/><rect fill="#1B1B1A" height="8.3333" style="stroke:#1B1B1A;stroke-width:1.0416666666666667;" width="145.8333" x="41.6667" y="257.487"/><rect fill="none" height="48.055" id="HttpGetResource" rx="8.3333" ry="8.3333" style="stroke:#5E5E5E;stroke-width:1.0416666666666667;" width="145.8333" x="41.6667" y="234.432"/><ellipse cx="56.25" cy="250.1261" fill="#0066CF" rx="10.4167" ry="10.4167" style="stroke:#0086EF;stroke-width:1.0416666666666667;"/><path d="M58.1604,254.5512 Q57.7332,254.7709 57.2632,254.8808 Q56.7932,254.9906 56.2744,254.9906 Q54.4312,254.9906 53.4607,253.776 Q52.4902,252.5614 52.4902,250.2665 Q52.4902,247.9655 53.4607,246.7509 Q54.4312,245.5363 56.2744,245.5363 Q56.7932,245.5363 57.2693,245.6462 Q57.7454,245.756 58.1604,245.9757 L58.1604,247.9777 Q57.6965,247.5505 57.2601,247.3521 Q56.8237,247.1537 56.3599,247.1537 Q55.3711,247.1537 54.8676,247.938 Q54.364,248.7223 54.364,250.2665 Q54.364,251.8046 54.8676,252.5889 Q55.3711,253.3732 56.3599,253.3732 Q56.8237,253.3732 57.2601,253.1748 Q57.6965,252.9765 58.1604,252.5492 Z " fill="#000000"/><text fill="#D8BC00" font-family="Open Sans,Avenir,Nunito,Arial,Helvetica,SansSerif" font-size="12.5" font-weight="bold" lengthAdjust="spacing" textLength="108.3333" x="72.9167" y="254.8503">HttpGetResource</text><line style="stroke:#5E5E5E;stroke-width:1.0416666666666667;" x1="42.7083" x2="186.4583" y1="265.8203" y2="265.8203"/><line style="stroke:#5E5E5E;stroke-width:1.0416666666666667;" x1="42.7083" x2="186.4583" y1="274.1536" y2="274.1536"/><!--MD5=[cc3f7b1832b168e1bf85e9c23e4d26fb]
class HttpsGetResource--><rect codeLine="8" fill="#282828" height="103.123" id="HttpsGetResource" rx="8.3333" ry="8.3333" style="stroke:#5E5E5E;stroke-width:1.0416666666666667;" width="422.9167" x="7.2917" y="437.0361"/><rect fill="#1B1B1A" height="31.3883" rx="8.3333" ry="8.3333" style="stroke:#1B1B1A;stroke-width:1.0416666666666667;" width="422.9167" x="7.2917" y="437.0361"/><rect fill="#1B1B1A" height="8.3333" style="stroke:#1B1B1A;stroke-width:1.0416666666666667;" width="422.9167" x="7.2917" y="460.0911"/><rect codeLine="8" fill="none" height="103.123" id="HttpsGetResource" rx="8.3333" ry="8.3333" style="stroke:#5E5E5E;stroke-width:1.0416666666666667;" width="422.9167" x="7.2917" y="437.0361"/><ellipse cx="153.6458" cy="452.7303" fill="#0066CF" rx="10.4167" ry="10.4167" style="stroke:#0086EF;stroke-width:1.0416666666666667;"/><path d="M155.5562,457.1554 Q155.129,457.3751 154.659,457.4849 Q154.189,457.5948 153.6702,457.5948 Q151.827,457.5948 150.8565,456.3802 Q149.8861,455.1656 149.8861,452.8707 Q149.8861,450.5697 150.8565,449.3551 Q151.827,448.1405 153.6702,448.1405 Q154.189,448.1405 154.6651,448.2503 Q155.1412,448.3602 155.5562,448.5799 L155.5562,450.5819 Q155.0924,450.1546 154.656,449.9563 Q154.2196,449.7579 153.7557,449.7579 Q152.7669,449.7579 152.2634,450.5422 Q151.7598,451.3265 151.7598,452.8707 Q151.7598,454.4088 152.2634,455.1931 Q152.7669,455.9774 153.7557,455.9774 Q154.2196,455.9774 154.656,455.779 Q155.0924,455.5806 155.5562,455.1534 Z " fill="#000000"/><text fill="#D8BC00" font-family="Open Sans,Avenir,Nunito,Arial,Helvetica,SansSerif" font-size="12.5" font-weight="bold" lengthAdjust="spacing" textLength="115.625" x="176.5625" y="457.4544">HttpsGetResource</text><line style="stroke:#5E5E5E;stroke-width:1.5625;" x1="8.3333" x2="429.1667" y1="468.4245" y2="468.4245"/><ellipse cx="18.75" cy="503.7944" fill="#84BE84" rx="3.125" ry="3.125" style="stroke:#038048;stroke-width:1.0416666666666667;"/><text fill="#D8BC00" font-family="Open Sans,Avenir,Nunito,Arial,Helvetica,SansSerif" font-size="11.4583" lengthAdjust="spacing" textLength="233.3333" x="30.2083" y="510.7056">HttpsGetResource(HttpsNetworkLocation)</text><ellipse cx="18.75" cy="523.5392" fill="#84BE84" rx="3.125" ry="3.125" style="stroke:#038048;stroke-width:1.0416666666666667;"/><text fill="#D8BC00" font-family="Open Sans,Avenir,Nunito,Arial,Helvetica,SansSerif" font-size="11.4583" lengthAdjust="spacing" textLength="390.625" x="30.2083" y="530.4504">HttpsGetResource(HttpsNetworkLocation, NetworkAccessConstraints)</text><line style="stroke:#5E5E5E;stroke-width:1.0416666666666667;" x1="8.3333" x2="175" y1="486.6302" y2="486.6302"/><text fill="#D8BC00" font-family="Open Sans,Avenir,Nunito,Arial,Helvetica,SansSerif" font-size="11.4583" lengthAdjust="spacing" textLength="81.25" x="178.125" y="490.4399">(constructors)</text><line style="stroke:#5E5E5E;stroke-width:1.0416666666666667;" x1="262.5" x2="429.1667" y1="486.6302" y2="486.6302"/><!--MD5=[141e7cec292b27cdb82c0916bd340d3c]
class HttpNetworkLocation--><rect fill="#282828" height="48.055" id="HttpNetworkLocation" rx="8.3333" ry="8.3333" style="stroke:#5E5E5E;stroke-width:1.0416666666666667;" width="175" x="369.7917" y="53.7028"/><rect fill="#1B1B1A" height="31.3883" rx="8.3333" ry="8.3333" style="stroke:#1B1B1A;stroke-width:1.0416666666666667;" width="175" x="369.7917" y="53.7028"/><rect fill="#1B1B1A" height="8.3333" style="stroke:#1B1B1A;stroke-width:1.0416666666666667;" width="175" x="369.7917" y="76.7578"/><rect fill="none" height="48.055" id="HttpNetworkLocation" rx="8.3333" ry="8.3333" style="stroke:#5E5E5E;stroke-width:1.0416666666666667;" width="175" x="369.7917" y="53.7028"/><ellipse cx="384.375" cy="69.397" fill="#0066CF" rx="10.4167" ry="10.4167" style="stroke:#0086EF;stroke-width:1.0416666666666667;"/><path d="M386.2854,73.822 Q385.8582,74.0417 385.3882,74.1516 Q384.9182,74.2615 384.3994,74.2615 Q382.5562,74.2615 381.5857,73.0469 Q380.6152,71.8323 380.6152,69.5374 Q380.6152,67.2363 381.5857,66.0217 Q382.5562,64.8071 384.3994,64.8071 Q384.9182,64.8071 385.3943,64.917 Q385.8704,65.0269 386.2854,65.2466 L386.2854,67.2485 Q385.8215,66.8213 385.3851,66.6229 Q384.9487,66.4246 384.4849,66.4246 Q383.4961,66.4246 382.9926,67.2089 Q382.489,67.9932 382.489,69.5374 Q382.489,71.0754 382.9926,71.8597 Q383.4961,72.644 384.4849,72.644 Q384.9487,72.644 385.3851,72.4457 Q385.8215,72.2473 386.2854,71.8201 Z " fill="#000000"/><text fill="#D8BC00" font-family="Open Sans,Avenir,Nunito,Arial,Helvetica,SansSerif" font-size="12.5" font-weight="bold" lengthAdjust="spacing" textLength="137.5" x="401.0417" y="74.1211">HttpNetworkLocation</text><line style="stroke:#5E5E5E;stroke-width:1.0416666666666667;" x1="370.8333" x2="543.75" y1="85.0911" y2="85.0911"/><line style="stroke:#5E5E5E;stroke-width:1.0416666666666667;" x1="370.8333" x2="543.75" y1="93.4245" y2="93.4245"/><!--MD5=[b9830f677e361754dd16e0724bcd4c81]
class HttpsNetworkLocation--><rect codeLine="18" fill="#282828" height="186.2691" id="HttpsNetworkLocation" rx="8.3333" ry="8.3333" style="stroke:#5E5E5E;stroke-width:1.0416666666666667;" width="466.6667" x="223.9583" y="165.1611"/><rect fill="#1B1B1A" height="31.3883" rx="8.3333" ry="8.3333" style="stroke:#1B1B1A;stroke-width:1.0416666666666667;" width="466.6667" x="223.9583" y="165.1611"/><rect fill="#1B1B1A" height="8.3333" style="stroke:#1B1B1A;stroke-width:1.0416666666666667;" width="466.6667" x="223.9583" y="188.2161"/><rect codeLine="18" fill="none" height="186.2691" id="HttpsNetworkLocation" rx="8.3333" ry="8.3333" style="stroke:#5E5E5E;stroke-width:1.0416666666666667;" width="466.6667" x="223.9583" y="165.1611"/><ellipse cx="377.6042" cy="180.8553" fill="#0066CF" rx="10.4167" ry="10.4167" style="stroke:#0086EF;stroke-width:1.0416666666666667;"/><path d="M379.5146,185.2804 Q379.0873,185.5001 378.6174,185.6099 Q378.1474,185.7198 377.6286,185.7198 Q375.7853,185.7198 374.8149,184.5052 Q373.8444,183.2906 373.8444,180.9957 Q373.8444,178.6947 374.8149,177.4801 Q375.7853,176.2655 377.6286,176.2655 Q378.1474,176.2655 378.6235,176.3753 Q379.0995,176.4852 379.5146,176.7049 L379.5146,178.7069 Q379.0507,178.2796 378.6143,178.0813 Q378.1779,177.8829 377.714,177.8829 Q376.7253,177.8829 376.2217,178.6672 Q375.7182,179.4515 375.7182,180.9957 Q375.7182,182.5338 376.2217,183.3181 Q376.7253,184.1024 377.714,184.1024 Q378.1779,184.1024 378.6143,183.904 Q379.0507,183.7056 379.5146,183.2784 Z " fill="#000000"/><text fill="#D8BC00" font-family="Open Sans,Avenir,Nunito,Arial,Helvetica,SansSerif" font-size="12.5" font-weight="bold" lengthAdjust="spacing" textLength="144.7917" x="400.5208" y="185.5794">HttpsNetworkLocation</text><line style="stroke:#5E5E5E;stroke-width:1.5625;" x1="225" x2="689.5833" y1="196.5495" y2="196.5495"/><ellipse cx="235.4167" cy="231.9194" fill="#84BE84" rx="3.125" ry="3.125" style="stroke:#038048;stroke-width:1.0416666666666667;"/><text fill="#D8BC00" font-family="Open Sans,Avenir,Nunito,Arial,Helvetica,SansSerif" font-size="11.4583" lengthAdjust="spacing" textLength="202.0833" x="246.875" y="238.8306">HttpsNetworkLocation(NetworkPath)</text><ellipse cx="235.4167" cy="251.6642" fill="#84BE84" rx="3.125" ry="3.125" style="stroke:#038048;stroke-width:1.0416666666666667;"/><text fill="#D8BC00" font-family="Open Sans,Avenir,Nunito,Arial,Helvetica,SansSerif" font-size="11.4583" lengthAdjust="spacing" textLength="151.0417" x="246.875" y="258.5754">HttpsNetworkLocation(URI)</text><line style="stroke:#5E5E5E;stroke-width:1.0416666666666667;" x1="225" x2="413.5417" y1="214.7552" y2="214.7552"/><text fill="#D8BC00" font-family="Open Sans,Avenir,Nunito,Arial,Helvetica,SansSerif" font-size="11.4583" lengthAdjust="spacing" textLength="81.25" x="416.6667" y="218.5649">(constructors)</text><line style="stroke:#5E5E5E;stroke-width:1.0416666666666667;" x1="501.0417" x2="689.5833" y1="214.7552" y2="214.7552"/><ellipse cx="235.4167" cy="295.3206" fill="#84BE84" rx="3.125" ry="3.125" style="stroke:#038048;stroke-width:1.0416666666666667;"/><text fill="#D8BC00" font-family="Open Sans,Avenir,Nunito,Arial,Helvetica,SansSerif" font-size="11.4583" lengthAdjust="spacing" textLength="434.375" x="246.875" y="302.2319">HttpsNetworkLocation parseSecureHttpNetworkLocation(Listener, String path)</text><ellipse cx="235.4167" cy="315.0655" fill="#84BE84" rx="3.125" ry="3.125" style="stroke:#038048;stroke-width:1.0416666666666667;"/><text fill="#D8BC00" font-family="Open Sans,Avenir,Nunito,Arial,Helvetica,SansSerif" font-size="11.4583" lengthAdjust="spacing" textLength="352.0833" x="246.875" y="321.9767">HttpsNetworkLocation secureHttpNetworkLocation(String path)</text><ellipse cx="235.4167" cy="334.8104" fill="#84BE84" rx="3.125" ry="3.125" style="stroke:#038048;stroke-width:1.0416666666666667;"/><text fill="#D8BC00" font-family="Open Sans,Avenir,Nunito,Arial,Helvetica,SansSerif" font-size="11.4583" lengthAdjust="spacing" textLength="360.4167" x="246.875" y="341.7216">HttpsNetworkLocation secureHttpNetworkLocation(NetworkPath)</text><line style="stroke:#5E5E5E;stroke-width:1.0416666666666667;" x1="225" x2="427.6042" y1="278.1565" y2="278.1565"/><text fill="#D8BC00" font-family="Open Sans,Avenir,Nunito,Arial,Helvetica,SansSerif" font-size="11.4583" lengthAdjust="spacing" textLength="53.125" x="430.7292" y="281.9661">(network)</text><line style="stroke:#5E5E5E;stroke-width:1.0416666666666667;" x1="486.9792" x2="689.5833" y1="278.1565" y2="278.1565"/><!--MD5=[9e11a13a6efe7aa13086ad920439722a]
class HttpsPostResource--><rect codeLine="30" fill="#282828" height="103.123" id="HttpsPostResource" rx="8.3333" ry="8.3333" style="stroke:#5E5E5E;stroke-width:1.0416666666666667;" width="397.9167" x="558.3333" y="437.0361"/><rect fill="#1B1B1A" height="31.3883" rx="8.3333" ry="8.3333" style="stroke:#1B1B1A;stroke-width:1.0416666666666667;" width="397.9167" x="558.3333" y="437.0361"/><rect fill="#1B1B1A" height="8.3333" style="stroke:#1B1B1A;stroke-width:1.0416666666666667;" width="397.9167" x="558.3333" y="460.0911"/><rect codeLine="30" fill="none" height="103.123" id="HttpsPostResource" rx="8.3333" ry="8.3333" style="stroke:#5E5E5E;stroke-width:1.0416666666666667;" width="397.9167" x="558.3333" y="437.0361"/><ellipse cx="689.0625" cy="452.7303" fill="#0066CF" rx="10.4167" ry="10.4167" style="stroke:#0086EF;stroke-width:1.0416666666666667;"/><path d="M690.9729,457.1554 Q690.5457,457.3751 690.0757,457.4849 Q689.6057,457.5948 689.0869,457.5948 Q687.2437,457.5948 686.2732,456.3802 Q685.3027,455.1656 685.3027,452.8707 Q685.3027,450.5697 686.2732,449.3551 Q687.2437,448.1405 689.0869,448.1405 Q689.6057,448.1405 690.0818,448.2503 Q690.5579,448.3602 690.9729,448.5799 L690.9729,450.5819 Q690.509,450.1546 690.0726,449.9563 Q689.6362,449.7579 689.1724,449.7579 Q688.1836,449.7579 687.6801,450.5422 Q687.1765,451.3265 687.1765,452.8707 Q687.1765,454.4088 687.6801,455.1931 Q688.1836,455.9774 689.1724,455.9774 Q689.6362,455.9774 690.0726,455.779 Q690.509,455.5806 690.9729,455.1534 Z " fill="#000000"/><text fill="#D8BC00" font-family="Open Sans,Avenir,Nunito,Arial,Helvetica,SansSerif" font-size="12.5" font-weight="bold" lengthAdjust="spacing" textLength="121.875" x="711.9792" y="457.4544">HttpsPostResource</text><line style="stroke:#5E5E5E;stroke-width:1.5625;" x1="559.375" x2="955.2083" y1="468.4245" y2="468.4245"/><ellipse cx="569.7917" cy="503.7944" fill="#84BE84" rx="3.125" ry="3.125" style="stroke:#038048;stroke-width:1.0416666666666667;"/><text fill="#D8BC00" font-family="Open Sans,Avenir,Nunito,Arial,Helvetica,SansSerif" font-size="11.4583" lengthAdjust="spacing" textLength="238.5417" x="581.25" y="510.7056">HttpsPostResource(HttpsNetworkLocation)</text><ellipse cx="569.7917" cy="523.5392" fill="#84BE84" rx="3.125" ry="3.125" style="stroke:#038048;stroke-width:1.0416666666666667;"/><text fill="#D8BC00" font-family="Open Sans,Avenir,Nunito,Arial,Helvetica,SansSerif" font-size="11.4583" lengthAdjust="spacing" textLength="365.625" x="581.25" y="530.4504">HttpsPostResource(NetworkLocation, NetworkAccessConstraints)</text><line style="stroke:#5E5E5E;stroke-width:1.0416666666666667;" x1="559.375" x2="713.5417" y1="486.6302" y2="486.6302"/><text fill="#D8BC00" font-family="Open Sans,Avenir,Nunito,Arial,Helvetica,SansSerif" font-size="11.4583" lengthAdjust="spacing" textLength="81.25" x="716.6667" y="490.4399">(constructors)</text><line style="stroke:#5E5E5E;stroke-width:1.0416666666666667;" x1="801.0417" x2="955.2083" y1="486.6302" y2="486.6302"/><!--MD5=[1d9e1dbf485c7f50b25d1a9966e9bb48]
class HttpPostResource--><rect fill="#282828" height="48.055" id="HttpPostResource" rx="8.3333" ry="8.3333" style="stroke:#5E5E5E;stroke-width:1.0416666666666667;" width="152.0833" x="727.0833" y="234.432"/><rect fill="#1B1B1A" height="31.3883" rx="8.3333" ry="8.3333" style="stroke:#1B1B1A;stroke-width:1.0416666666666667;" width="152.0833" x="727.0833" y="234.432"/><rect fill="#1B1B1A" height="8.3333" style="stroke:#1B1B1A;stroke-width:1.0416666666666667;" width="152.0833" x="727.0833" y="257.487"/><rect fill="none" height="48.055" id="HttpPostResource" rx="8.3333" ry="8.3333" style="stroke:#5E5E5E;stroke-width:1.0416666666666667;" width="152.0833" x="727.0833" y="234.432"/><ellipse cx="741.6667" cy="250.1261" fill="#0066CF" rx="10.4167" ry="10.4167" style="stroke:#0086EF;stroke-width:1.0416666666666667;"/><path d="M743.5771,254.5512 Q743.1498,254.7709 742.6799,254.8808 Q742.2099,254.9906 741.6911,254.9906 Q739.8478,254.9906 738.8774,253.776 Q737.9069,252.5614 737.9069,250.2665 Q737.9069,247.9655 738.8774,246.7509 Q739.8478,245.5363 741.6911,245.5363 Q742.2099,245.5363 742.686,245.6462 Q743.162,245.756 743.5771,245.9757 L743.5771,247.9777 Q743.1132,247.5505 742.6768,247.3521 Q742.2404,247.1537 741.7765,247.1537 Q740.7878,247.1537 740.2842,247.938 Q739.7807,248.7223 739.7807,250.2665 Q739.7807,251.8046 740.2842,252.5889 Q740.7878,253.3732 741.7765,253.3732 Q742.2404,253.3732 742.6768,253.1748 Q743.1132,252.9765 743.5771,252.5492 Z " fill="#000000"/><text fill="#D8BC00" font-family="Open Sans,Avenir,Nunito,Arial,Helvetica,SansSerif" font-size="12.5" font-weight="bold" lengthAdjust="spacing" textLength="114.5833" x="758.3333" y="254.8503">HttpPostResource</text><line style="stroke:#5E5E5E;stroke-width:1.0416666666666667;" x1="728.125" x2="878.125" y1="265.8203" y2="265.8203"/><line style="stroke:#5E5E5E;stroke-width:1.0416666666666667;" x1="728.125" x2="878.125" y1="274.1536" y2="274.1536"/><!--MD5=[1200514a78ccd5113e90611e52748276]
reverse link HttpGetResource to HttpsGetResource--><path codeLine="7" d="M131.8229,303.1507 C143.6563,332.4528 160.0521,371.7757 176.0417,405.7861 C180.8125,415.932 186.1667,426.6403 191.4271,436.8486 " fill="none" id="HttpGetResource-backto-HttpsGetResource" style="stroke:#545454;stroke-width:1.5625;"/><polygon fill="none" points="125.125,306.0257,124.1667,283.9736,138.6667,300.609,125.125,306.0257" style="stroke:#545454;stroke-width:1.5625;"/><!--MD5=[213fb8a5aa24c7e91af524201834225b]
reverse link HttpNetworkLocation to HttpsNetworkLocation--><path codeLine="15" d="M457.2917,124.3903 C457.2917,136.8174 457.2917,150.7445 457.2917,164.7861 " fill="none" id="HttpNetworkLocation-backto-HttpsNetworkLocation" style="stroke:#545454;stroke-width:1.5625;"/><polygon fill="none" points="450,124.4632,457.2917,103.6299,464.5833,124.4632,450,124.4632" style="stroke:#545454;stroke-width:1.5625;"/><!--MD5=[d6db9f4910e65db30be39271c319bb78]
link HttpsNetworkLocation to HttpsGetResource--><path codeLine="16" d="M360.6146,351.8903 C332.1667,379.0986 301.9375,408.0049 276.7188,432.1195 " fill="none" id="HttpsNetworkLocation-to-HttpsGetResource" style="stroke:#545454;stroke-width:1.5625;"/><polygon fill="#545454" points="273.2083,435.4736,282.8632,432.0044,276.9721,431.8735,277.103,425.9824,273.2083,435.4736" style="stroke:#545454;stroke-width:1.5625;"/><text fill="#A0A0A0" font-family="Open Sans,Avenir,Nunito,Arial,Helvetica,SansSerif" font-size="12.5" font-weight="bold" lengthAdjust="spacing" textLength="45.8333" x="327.0833" y="399.1211">creates</text><!--MD5=[b7a7326acb763efc76d5070fc66a42ff]
link HttpsNetworkLocation to HttpsPostResource--><path codeLine="17" d="M578.8854,351.8903 C614.9583,379.3278 653.3125,408.484 685.1771,432.7132 " fill="none" id="HttpsNetworkLocation-to-HttpsPostResource" style="stroke:#545454;stroke-width:1.5625;"/><polygon fill="#545454" points="688.9792,435.609,684.0355,426.6195,684.8322,432.458,678.9938,433.2546,688.9792,435.609" style="stroke:#545454;stroke-width:1.5625;"/><text fill="#A0A0A0" font-family="Open Sans,Avenir,Nunito,Arial,Helvetica,SansSerif" font-size="12.5" font-weight="bold" lengthAdjust="spacing" textLength="45.8333" x="646.875" y="399.1211">creates</text><!--MD5=[3ba637b8b217407208f245f145aa819a]
reverse link HttpPostResource to HttpsPostResource--><path codeLine="29" d="M794.1042,304.359 C786.4583,342.4111 775.4896,396.9528 767.5208,436.6299 " fill="none" id="HttpPostResource-backto-HttpsPostResource" style="stroke:#545454;stroke-width:1.5625;"/><polygon fill="none" points="786.9167,303.0986,798.1667,284.109,801.2083,305.9736,786.9167,303.0986" style="stroke:#545454;stroke-width:1.5625;"/><!--MD5=[8469672ea677d86be22e05abc565c69b]
@startuml

    !include lexakai.theme
    
    title "Secure HTTP"
    
    HttpGetResource <|- - HttpsGetResource
    class HttpsGetResource
    {
        - -(constructors)- -
        +HttpsGetResource(HttpsNetworkLocation)
        +HttpsGetResource(HttpsNetworkLocation, NetworkAccessConstraints)
    }
    
    HttpNetworkLocation <|- - HttpsNetworkLocation
    HttpsNetworkLocation - -> HttpsGetResource : "creates"
    HttpsNetworkLocation - -> HttpsPostResource : "creates"
    class HttpsNetworkLocation
    {
        - -(constructors)- -
        +HttpsNetworkLocation(NetworkPath)
        +HttpsNetworkLocation(URI)
        - -(network)- -
        +HttpsNetworkLocation parseSecureHttpNetworkLocation(Listener, String path)
        +HttpsNetworkLocation secureHttpNetworkLocation(String path)
        +HttpsNetworkLocation secureHttpNetworkLocation(NetworkPath)
    }
    
    HttpPostResource <|- - HttpsPostResource
    class HttpsPostResource
    {
        - -(constructors)- -
        +HttpsPostResource(HttpsNetworkLocation)
        +HttpsPostResource(NetworkLocation, NetworkAccessConstraints)
    }
    
@enduml

@startuml









skinparam backgroundColor #333333






skinparam  {
    defaultFontName   "Open Sans,Avenir,Nunito,Arial,Helvetica,SansSerif"
    defaultFontSize   12
    defaultTextAlignment left
    shadowing false
    RoundCorner 10
    TitleFontSize 18
}

skinparam defaultFontName       "Open Sans,Avenir,Nunito,Arial,Helvetica,SansSerif"
skinparam defaultFontSize       12
skinparam dpi                   100
skinparam shadowing             false
skinparam roundcorner           16
skinparam ParticipantPadding    40
skinparam BoxPadding            40
skinparam Padding               3
skinparam ArrowColor            #545454
skinparam stereotype {
    CBackgroundColor #0066cf
    CBorderColor #0086ef
    ABackgroundColor #C8Ac00
    ABorderColor #D8Bc00
    IBackgroundColor #008400
    IBorderColor #239c23
    EBackgroundColor #cf6300
    EBorderColor #ef8300
    NBackgroundColor #3380b9
    NBorderColor #004d86
}
skinparam title {
	FontColor	                 #c0c0c0
 	BorderColor                  #545454
	FontSize	    	         20
	BorderRoundCorner            16
	BorderThickness 	         1
	BackgroundColor              #48494b
}


skinparam legend {
	BackgroundColor #303030
	BorderColor #404040
	FontColor #a0a0a0
}

	skinparam swimlane {
	BorderColor #5e5e5e
	BorderThickness 2
	TitleBackgroundColor  #6d6d6d-#484848
	TitleFontColor #303030
}

skinparam activity {
		FontColor #C8Ac00
	BorderColor #333333
	BackgroundColor #333333-#333333
	BarColor #00FF00
	StartColor #0060a8
	EndColor #0060a8
	DiamondBackgroundColor #6d6d6d-#3a3a3a
  	DiamondBorderColor #3a3a3a
  	DiamondFontColor #fefefe
}


skinparam participant {
		FontColor #C8Ac00
	BorderColor #333333
	BackgroundColor #333333-#333333
	ParticipantBorderThickness 2
}


skinparam actor {
		FontColor #C8Ac00
	BorderColor #333333
	BackgroundColor #333333-#333333
}


skinparam arrow {
	Thickness 1.5
	Color #545454
	FontColor #a0a0a0
    FontStyle bold
    MessageAlignment center
}



skinparam sequence {
	BorderColor #303030
	TitleFontColor #303030
	BackgroundColor #333333
	StartColor #303030
	EndColor #303030
	BoxBackgroundColor #333333
	BoxBorderColor #484848
	BoxFontColor #484848
	LifeLineBorderColor #484848
	LifeLineBorderThickness 2
	LifeLineBackgroundColor #3a3a3a
	GroupBorderColor #484848
	GroupFontColor #484848
	GroupHeaderFontColor #0060a8
	GroupBackgroundColor #484848
	GroupHeaderBackgroundColor #333333
	DividerBackgroundColor #484848
    DividerBorderColor #484848
    DividerBorderThickness 2
    DividerFontColor #D8Bc00
	ReferenceBackgroundColor #333333
	ReferenceBorderColor #484848
	ReferenceFontColor #fefefe
	ReferenceHeaderBackgroundColor #484848
}


skinparam partition {
	BorderColor #303030
	FontColor #333333
	BackgroundColor #333333
}


skinparam collections {
		FontColor #C8Ac00
	BorderColor #333333
	BackgroundColor #333333-#333333
}


skinparam control {
		FontColor #C8Ac00
	BorderColor #333333
	BackgroundColor #333333-#333333
}


skinparam entity {
		FontColor #C8Ac00
	BorderColor #333333
	BackgroundColor #333333-#333333
}


skinparam boundary {
		FontColor #C8Ac00
	BorderColor #333333
	BackgroundColor #333333-#333333
}


skinparam agent {
	BackgroundColor #ff8000
	BorderColor #ff9933
	FontColor #484848
}


skinparam note {
	BorderThickness 1
	BackgroundColor #1b1b1a
	BorderColor #5e5e5e
	FontSize 11
	FontColor #a0a0a0
}


skinparam artifact {
	BorderThickness 10
	BorderColor #5e5e5e
	BackgroundColor #1b1b1a
	FontColor #D8Bc00
}


skinparam component {
		FontColor #C8Ac00
	BorderColor #333333
	BackgroundColor #333333-#333333
}


skinparam interface {
	BackgroundColor  #008400
	BorderColor  #007F00
	FontColor #484848
}


skinparam storage {
	BackgroundColor #ff8000
  	BorderColor #cc6600
	FontColor #222222
}


skinparam node {
	BackgroundColor #333333
	BorderColor #333333
	FontColor #C8Ac00
}


skinparam cloud {
	BackgroundColor #484848-black
	BorderColor #484848
	FontColor #D8Bc00
}


skinparam database {
		FontColor #C8Ac00
	BorderColor #333333
	BackgroundColor #333333-#333333
	BackgroundColor  #333333
}


skinparam class {
		FontColor #C8Ac00
	BorderColor #333333
	BackgroundColor #333333-#333333
	HeaderBackgroundColor #1b1b1a
    BackgroundColor #282828
    BorderColor #5e5e5e
 	StereotypeFontColor #a0a0a0
    StereotypeFontStyle bold
	BorderThickness 1
	AttributeFontColor #D8Bc00
	AttributeFontSize 11
    FontColor #D8Bc00
    FontStyle bold
}


skinparam object {
		FontColor #C8Ac00
	BorderColor #333333
	BackgroundColor #333333-#333333
	StereotypeFontColor #484848
	BorderThickness 1
	AttributeFontColor #fefefe
	AttributeFontSize 11
}


skinparam usecase {
		FontColor #C8Ac00
	BorderColor #333333
	BackgroundColor #333333-#333333
	BorderThickness 2
	StereotypeFontColor #303030
}


skinparam rectangle {
		FontColor #C8Ac00
	BorderColor #333333
	BackgroundColor #333333-#333333
	BackgroundColor #333333
	BorderThickness 2
	StereotypeFontColor #303030
}


skinparam package {
		FontColor #C8Ac00
	BorderColor #333333
	BackgroundColor #333333-#333333
	BackgroundColor #333333
	BorderThickness 2
}


skinparam folder {
	BackgroundColor #6d6d6d
  	BorderColor #ff8000
	FontColor #ff8000
	BorderThickness 2
}


skinparam frame {
	BackgroundColor #6d6d6d
  	BorderColor #0060a8
	FontColor #0060a8
	BorderThickness 2
}


skinparam state {
		FontColor #C8Ac00
	BorderColor #333333
	BackgroundColor #333333-#333333
	StartColor #0060a8
	EndColor #0060a8
	AttributeFontColor #fefefe
	AttributeFontSize 11
}


skinparam queue {
		FontColor #C8Ac00
	BorderColor #333333
	BackgroundColor #333333-#333333
}


skinparam card {
	BackgroundColor #0060a8
	BorderColor #004d86
	FontColor $INFO_TEXT
}


skinparam file {
	BackgroundColor #6d6d6d-#484848
	BorderColor #0060a8
	FontColor #fefefe
}


skinparam stack {
		FontColor #C8Ac00
	BorderColor #333333
	BackgroundColor #333333-#333333
}

    
    title "Secure HTTP"
    
    HttpGetResource <|- - HttpsGetResource
    class HttpsGetResource
    {
        - -(constructors)- -
        +HttpsGetResource(HttpsNetworkLocation)
        +HttpsGetResource(HttpsNetworkLocation, NetworkAccessConstraints)
    }
    
    HttpNetworkLocation <|- - HttpsNetworkLocation
    HttpsNetworkLocation - -> HttpsGetResource : "creates"
    HttpsNetworkLocation - -> HttpsPostResource : "creates"
    class HttpsNetworkLocation
    {
        - -(constructors)- -
        +HttpsNetworkLocation(NetworkPath)
        +HttpsNetworkLocation(URI)
        - -(network)- -
        +HttpsNetworkLocation parseSecureHttpNetworkLocation(Listener, String path)
        +HttpsNetworkLocation secureHttpNetworkLocation(String path)
        +HttpsNetworkLocation secureHttpNetworkLocation(NetworkPath)
    }
    
    HttpPostResource <|- - HttpsPostResource
    class HttpsPostResource
    {
        - -(constructors)- -
        +HttpsPostResource(HttpsNetworkLocation)
        +HttpsPostResource(NetworkLocation, NetworkAccessConstraints)
    }
    
@enduml

PlantUML version 1.2021.01(Tue Feb 02 00:55:08 MST 2021)
(GPL source distribution)
Java Runtime: OpenJDK Runtime Environment
JVM: OpenJDK 64-Bit Server VM
Default Encoding: UTF-8
Language: en
Country: US
--></g></svg>