<?xml version="1.0" encoding="UTF-8" standalone="no"?><svg xmlns="http://www.w3.org/2000/svg" xmlns:xlink="http://www.w3.org/1999/xlink" contentScriptType="application/ecmascript" contentStyleType="text/css" height="800px" preserveAspectRatio="none" style="width:1579px;height:800px;background:#333333;" version="1.1" viewBox="0 0 1579 800" width="1579.1667px" zoomAndPan="magnify"><defs/><g><rect fill="#48494B" height="41.2028" rx="8.3333" ry="8.3333" style="stroke:#545454;stroke-width:1.0416666666666667;" width="102.0833" x="731.5104" y="2.0833"/><text fill="#C0C0C0" font-family="Open Sans,Avenir,Nunito,Arial,Helvetica,SansSerif" font-size="20.8333" lengthAdjust="spacing" textLength="79.1667" x="742.9688" y="30.5583">Settings</text><!--MD5=[98efee3b802f728b261c98d018e498e4]
class BaseResourceSettingsStore--><rect codeLine="6" fill="#282828" height="48.055" id="BaseResourceSettingsStore" rx="8.3333" ry="8.3333" style="stroke:#5E5E5E;stroke-width:1.0416666666666667;" width="212.5" x="191.1458" y="53.7028"/><rect fill="#1B1B1A" height="31.3883" rx="8.3333" ry="8.3333" style="stroke:#1B1B1A;stroke-width:1.0416666666666667;" width="212.5" x="191.1458" y="53.7028"/><rect fill="#1B1B1A" height="8.3333" style="stroke:#1B1B1A;stroke-width:1.0416666666666667;" width="212.5" x="191.1458" y="76.7578"/><rect codeLine="6" fill="none" height="48.055" id="BaseResourceSettingsStore" rx="8.3333" ry="8.3333" style="stroke:#5E5E5E;stroke-width:1.0416666666666667;" width="212.5" x="191.1458" y="53.7028"/><ellipse cx="205.7292" cy="69.397" fill="#C8AC00" rx="10.4167" ry="10.4167" style="stroke:#D8BC00;stroke-width:1.0416666666666667;"/><path d="M205.3223,66.099 L204.4739,69.8283 L206.1768,69.8283 Z M204.2236,64.4511 L206.427,64.4511 L208.8867,73.5636 L207.0862,73.5636 L206.5247,71.3114 L204.1138,71.3114 L203.5645,73.5636 L201.7639,73.5636 Z " fill="#000000"/><text fill="#D8BC00" font-family="Open Sans,Avenir,Nunito,Arial,Helvetica,SansSerif" font-size="12.5" font-style="italic" font-weight="bold" lengthAdjust="spacing" textLength="175" x="222.3958" y="74.1211">BaseResourceSettingsStore</text><line style="stroke:#5E5E5E;stroke-width:1.0416666666666667;" x1="192.1875" x2="402.6042" y1="85.0911" y2="85.0911"/><line style="stroke:#5E5E5E;stroke-width:1.0416666666666667;" x1="192.1875" x2="402.6042" y1="93.4245" y2="93.4245"/><!--MD5=[762aa3d0df6a9d47bd8e105afbd066b5]
class BaseRepeater--><rect codeLine="7" fill="#282828" height="48.055" id="BaseRepeater" rx="8.3333" ry="8.3333" style="stroke:#5E5E5E;stroke-width:1.0416666666666667;" width="123.9583" x="722.9167" y="53.7028"/><rect fill="#1B1B1A" height="31.3883" rx="8.3333" ry="8.3333" style="stroke:#1B1B1A;stroke-width:1.0416666666666667;" width="123.9583" x="722.9167" y="53.7028"/><rect fill="#1B1B1A" height="8.3333" style="stroke:#1B1B1A;stroke-width:1.0416666666666667;" width="123.9583" x="722.9167" y="76.7578"/><rect codeLine="7" fill="none" height="48.055" id="BaseRepeater" rx="8.3333" ry="8.3333" style="stroke:#5E5E5E;stroke-width:1.0416666666666667;" width="123.9583" x="722.9167" y="53.7028"/><ellipse cx="737.5" cy="69.397" fill="#C8AC00" rx="10.4167" ry="10.4167" style="stroke:#D8BC00;stroke-width:1.0416666666666667;"/><path d="M737.0931,66.099 L736.2447,69.8283 L737.9476,69.8283 Z M735.9945,64.4511 L738.1978,64.4511 L740.6576,73.5636 L738.857,73.5636 L738.2955,71.3114 L735.8846,71.3114 L735.3353,73.5636 L733.5347,73.5636 Z " fill="#000000"/><text fill="#D8BC00" font-family="Open Sans,Avenir,Nunito,Arial,Helvetica,SansSerif" font-size="12.5" font-style="italic" font-weight="bold" lengthAdjust="spacing" textLength="86.4583" x="754.1667" y="74.1211">BaseRepeater</text><line style="stroke:#5E5E5E;stroke-width:1.0416666666666667;" x1="723.9583" x2="845.8333" y1="85.0911" y2="85.0911"/><line style="stroke:#5E5E5E;stroke-width:1.0416666666666667;" x1="723.9583" x2="845.8333" y1="93.4245" y2="93.4245"/><!--MD5=[c20ec3b23c5cd026e431ec936aacf9ea]
class JavaTrait--><rect codeLine="9" fill="#282828" height="48.055" id="JavaTrait" rx="8.3333" ry="8.3333" style="stroke:#5E5E5E;stroke-width:1.0416666666666667;" width="94.7917" x="1319.7917" y="345.8903"/><rect fill="#1B1B1A" height="31.3883" rx="8.3333" ry="8.3333" style="stroke:#1B1B1A;stroke-width:1.0416666666666667;" width="94.7917" x="1319.7917" y="345.8903"/><rect fill="#1B1B1A" height="8.3333" style="stroke:#1B1B1A;stroke-width:1.0416666666666667;" width="94.7917" x="1319.7917" y="368.9453"/><rect codeLine="9" fill="none" height="48.055" id="JavaTrait" rx="8.3333" ry="8.3333" style="stroke:#5E5E5E;stroke-width:1.0416666666666667;" width="94.7917" x="1319.7917" y="345.8903"/><ellipse cx="1334.375" cy="361.5845" fill="#008400" rx="10.4167" ry="10.4167" style="stroke:#239C23;stroke-width:1.0416666666666667;"/><path d="M1331.779,358.7463 L1331.779,357.1594 L1337.205,357.1594 L1337.205,358.7463 L1335.3923,358.7463 L1335.3923,364.6851 L1337.205,364.6851 L1337.205,366.272 L1331.779,366.272 L1331.779,364.6851 L1333.5917,364.6851 L1333.5917,358.7463 Z " fill="#000000"/><text fill="#D8BC00" font-family="Open Sans,Avenir,Nunito,Arial,Helvetica,SansSerif" font-size="12.5" font-style="italic" font-weight="bold" lengthAdjust="spacing" textLength="57.2917" x="1351.0417" y="366.3086">JavaTrait</text><line style="stroke:#5E5E5E;stroke-width:1.0416666666666667;" x1="1320.8333" x2="1413.5417" y1="377.2786" y2="377.2786"/><line style="stroke:#5E5E5E;stroke-width:1.0416666666666667;" x1="1320.8333" x2="1413.5417" y1="385.612" y2="385.612"/><!--MD5=[6ca99d34851392075b5e04b85c61b465]
class SettingsTrait--><rect codeLine="10" fill="#282828" height="48.055" id="SettingsTrait" rx="8.3333" ry="8.3333" style="stroke:#5E5E5E;stroke-width:1.0416666666666667;" width="120.8333" x="1451.5625" y="345.8903"/><rect fill="#1B1B1A" height="31.3883" rx="8.3333" ry="8.3333" style="stroke:#1B1B1A;stroke-width:1.0416666666666667;" width="120.8333" x="1451.5625" y="345.8903"/><rect fill="#1B1B1A" height="8.3333" style="stroke:#1B1B1A;stroke-width:1.0416666666666667;" width="120.8333" x="1451.5625" y="368.9453"/><rect codeLine="10" fill="none" height="48.055" id="SettingsTrait" rx="8.3333" ry="8.3333" style="stroke:#5E5E5E;stroke-width:1.0416666666666667;" width="120.8333" x="1451.5625" y="345.8903"/><ellipse cx="1466.1458" cy="361.5845" fill="#008400" rx="10.4167" ry="10.4167" style="stroke:#239C23;stroke-width:1.0416666666666667;"/><path d="M1463.5498,358.7463 L1463.5498,357.1594 L1468.9758,357.1594 L1468.9758,358.7463 L1467.1631,358.7463 L1467.1631,364.6851 L1468.9758,364.6851 L1468.9758,366.272 L1463.5498,366.272 L1463.5498,364.6851 L1465.3625,364.6851 L1465.3625,358.7463 Z " fill="#000000"/><text fill="#D8BC00" font-family="Open Sans,Avenir,Nunito,Arial,Helvetica,SansSerif" font-size="12.5" font-style="italic" font-weight="bold" lengthAdjust="spacing" textLength="83.3333" x="1482.8125" y="366.3086">SettingsTrait</text><line style="stroke:#5E5E5E;stroke-width:1.0416666666666667;" x1="1452.6042" x2="1571.3542" y1="377.2786" y2="377.2786"/><line style="stroke:#5E5E5E;stroke-width:1.0416666666666667;" x1="1452.6042" x2="1571.3542" y1="385.612" y2="385.612"/><!--MD5=[34eb2c3cd1bd084029c026d450c2586e]
class RegistryTrait--><rect codeLine="11" fill="#282828" height="48.055" id="RegistryTrait" rx="8.3333" ry="8.3333" style="stroke:#5E5E5E;stroke-width:1.0416666666666667;" width="120.8333" x="883.8542" y="53.7028"/><rect fill="#1B1B1A" height="31.3883" rx="8.3333" ry="8.3333" style="stroke:#1B1B1A;stroke-width:1.0416666666666667;" width="120.8333" x="883.8542" y="53.7028"/><rect fill="#1B1B1A" height="8.3333" style="stroke:#1B1B1A;stroke-width:1.0416666666666667;" width="120.8333" x="883.8542" y="76.7578"/><rect codeLine="11" fill="none" height="48.055" id="RegistryTrait" rx="8.3333" ry="8.3333" style="stroke:#5E5E5E;stroke-width:1.0416666666666667;" width="120.8333" x="883.8542" y="53.7028"/><ellipse cx="898.4375" cy="69.397" fill="#008400" rx="10.4167" ry="10.4167" style="stroke:#239C23;stroke-width:1.0416666666666667;"/><path d="M895.8415,66.5588 L895.8415,64.9719 L901.2675,64.9719 L901.2675,66.5588 L899.4548,66.5588 L899.4548,72.4976 L901.2675,72.4976 L901.2675,74.0845 L895.8415,74.0845 L895.8415,72.4976 L897.6542,72.4976 L897.6542,66.5588 Z " fill="#000000"/><text fill="#D8BC00" font-family="Open Sans,Avenir,Nunito,Arial,Helvetica,SansSerif" font-size="12.5" font-style="italic" font-weight="bold" lengthAdjust="spacing" textLength="83.3333" x="915.1042" y="74.1211">RegistryTrait</text><line style="stroke:#5E5E5E;stroke-width:1.0416666666666667;" x1="884.8958" x2="1003.6458" y1="85.0911" y2="85.0911"/><line style="stroke:#5E5E5E;stroke-width:1.0416666666666667;" x1="884.8958" x2="1003.6458" y1="93.4245" y2="93.4245"/><!--MD5=[66558602ad01b7e781a6ed32053430b7]
class MemorySettingsStore--><rect fill="#282828" height="48.055" id="MemorySettingsStore" rx="8.3333" ry="8.3333" style="stroke:#5E5E5E;stroke-width:1.0416666666666667;" width="176.0417" x="1107.2917" y="345.8903"/><rect fill="#1B1B1A" height="31.3883" rx="8.3333" ry="8.3333" style="stroke:#1B1B1A;stroke-width:1.0416666666666667;" width="176.0417" x="1107.2917" y="345.8903"/><rect fill="#1B1B1A" height="8.3333" style="stroke:#1B1B1A;stroke-width:1.0416666666666667;" width="176.0417" x="1107.2917" y="368.9453"/><rect fill="none" height="48.055" id="MemorySettingsStore" rx="8.3333" ry="8.3333" style="stroke:#5E5E5E;stroke-width:1.0416666666666667;" width="176.0417" x="1107.2917" y="345.8903"/><ellipse cx="1121.875" cy="361.5845" fill="#0066CF" rx="10.4167" ry="10.4167" style="stroke:#0086EF;stroke-width:1.0416666666666667;"/><path d="M1123.7854,366.0095 Q1123.3582,366.2292 1122.8882,366.3391 Q1122.4182,366.449 1121.8994,366.449 Q1120.0562,366.449 1119.0857,365.2344 Q1118.1152,364.0198 1118.1152,361.7249 Q1118.1152,359.4238 1119.0857,358.2092 Q1120.0562,356.9946 1121.8994,356.9946 Q1122.4182,356.9946 1122.8943,357.1045 Q1123.3704,357.2144 1123.7854,357.4341 L1123.7854,359.436 Q1123.3215,359.0088 1122.8851,358.8104 Q1122.4487,358.6121 1121.9849,358.6121 Q1120.9961,358.6121 1120.4926,359.3964 Q1119.989,360.1807 1119.989,361.7249 Q1119.989,363.2629 1120.4926,364.0472 Q1120.9961,364.8315 1121.9849,364.8315 Q1122.4487,364.8315 1122.8851,364.6332 Q1123.3215,364.4348 1123.7854,364.0076 Z " fill="#000000"/><text fill="#D8BC00" font-family="Open Sans,Avenir,Nunito,Arial,Helvetica,SansSerif" font-size="12.5" font-weight="bold" lengthAdjust="spacing" textLength="138.5417" x="1138.5417" y="366.3086">MemorySettingsStore</text><line style="stroke:#5E5E5E;stroke-width:1.0416666666666667;" x1="1108.3333" x2="1282.2917" y1="377.2786" y2="377.2786"/><line style="stroke:#5E5E5E;stroke-width:1.0416666666666667;" x1="1108.3333" x2="1282.2917" y1="385.612" y2="385.612"/><!--MD5=[0b39f38c1c24e25039dcaeabf39aa6ad]
class Deployment--><rect codeLine="14" fill="#282828" height="155.1127" id="Deployment" rx="8.3333" ry="8.3333" style="stroke:#5E5E5E;stroke-width:1.0416666666666667;" width="621.875" x="585.4167" y="638.0778"/><rect fill="#1B1B1A" height="31.3883" rx="8.3333" ry="8.3333" style="stroke:#1B1B1A;stroke-width:1.0416666666666667;" width="621.875" x="585.4167" y="638.0778"/><rect fill="#1B1B1A" height="8.3333" style="stroke:#1B1B1A;stroke-width:1.0416666666666667;" width="621.875" x="585.4167" y="661.1328"/><rect codeLine="14" fill="none" height="155.1127" id="Deployment" rx="8.3333" ry="8.3333" style="stroke:#5E5E5E;stroke-width:1.0416666666666667;" width="621.875" x="585.4167" y="638.0778"/><ellipse cx="849.4792" cy="653.772" fill="#0066CF" rx="10.4167" ry="10.4167" style="stroke:#0086EF;stroke-width:1.0416666666666667;"/><path d="M851.3896,658.197 Q850.9623,658.4167 850.4924,658.5266 Q850.0224,658.6365 849.5036,658.6365 Q847.6603,658.6365 846.6899,657.4219 Q845.7194,656.2073 845.7194,653.9124 Q845.7194,651.6113 846.6899,650.3967 Q847.6603,649.1821 849.5036,649.1821 Q850.0224,649.1821 850.4985,649.292 Q850.9745,649.4019 851.3896,649.6216 L851.3896,651.6235 Q850.9257,651.1963 850.4893,650.9979 Q850.0529,650.7996 849.589,650.7996 Q848.6003,650.7996 848.0967,651.5839 Q847.5932,652.3682 847.5932,653.9124 Q847.5932,655.4504 848.0967,656.2347 Q848.6003,657.019 849.589,657.019 Q850.0529,657.019 850.4893,656.8207 Q850.9257,656.6223 851.3896,656.1951 Z " fill="#000000"/><text fill="#D8BC00" font-family="Open Sans,Avenir,Nunito,Arial,Helvetica,SansSerif" font-size="12.5" font-weight="bold" lengthAdjust="spacing" textLength="79.1667" x="872.3958" y="658.4961">Deployment</text><line style="stroke:#5E5E5E;stroke-width:1.5625;" x1="586.4583" x2="1206.25" y1="669.4661" y2="669.4661"/><ellipse cx="596.875" cy="704.836" fill="#84BE84" rx="3.125" ry="3.125" style="stroke:#038048;stroke-width:1.0416666666666667;"/><text fill="#D8BC00" font-family="Open Sans,Avenir,Nunito,Arial,Helvetica,SansSerif" font-size="11.4583" lengthAdjust="spacing" textLength="147.9167" x="608.3333" y="711.7472">Deployment(String, String)</text><line style="stroke:#5E5E5E;stroke-width:1.0416666666666667;" x1="586.4583" x2="852.6042" y1="687.6719" y2="687.6719"/><text fill="#D8BC00" font-family="Open Sans,Avenir,Nunito,Arial,Helvetica,SansSerif" font-size="11.4583" lengthAdjust="spacing" textLength="81.25" x="855.7292" y="691.4815">(constructors)</text><line style="stroke:#5E5E5E;stroke-width:1.0416666666666667;" x1="940.1042" x2="1206.25" y1="687.6719" y2="687.6719"/><line style="stroke:#5E5E5E;stroke-width:1.0416666666666667;" x1="586.4583" x2="1206.25" y1="721.4559" y2="721.4559"/><ellipse cx="596.875" cy="732.9142" fill="#84BE84" rx="3.125" ry="3.125" style="stroke:#038048;stroke-width:1.0416666666666667;"/><text fill="#D8BC00" font-family="Open Sans,Avenir,Nunito,Arial,Helvetica,SansSerif" font-size="11.4583" lengthAdjust="spacing" textLength="108.3333" x="608.3333" y="739.8254">String description()</text><ellipse cx="596.875" cy="776.5706" fill="#84BE84" rx="3.125" ry="3.125" style="stroke:#038048;stroke-width:1.0416666666666667;"/><text fill="#D8BC00" font-family="Open Sans,Avenir,Nunito,Arial,Helvetica,SansSerif" font-size="11.4583" lengthAdjust="spacing" textLength="589.5833" x="608.3333" y="783.4819">SwitchParser.Builder&lt;Deployment&gt; deploymentSwitchParser(Listener, DeploymentSet, String switchName)</text><line style="stroke:#5E5E5E;stroke-width:1.0416666666666667;" x1="586.4583" x2="827.0833" y1="759.4065" y2="759.4065"/><text fill="#D8BC00" font-family="Open Sans,Avenir,Nunito,Arial,Helvetica,SansSerif" font-size="11.4583" lengthAdjust="spacing" textLength="132.2917" x="830.2083" y="763.2161">(command line parsing)</text><line style="stroke:#5E5E5E;stroke-width:1.0416666666666667;" x1="965.625" x2="1206.25" y1="759.4065" y2="759.4065"/><!--MD5=[4088584cfb839bc51c4f8818c5c9a3c1]
class DeploymentSet--><rect codeLine="27" fill="#282828" height="411.7961" id="DeploymentSet" rx="8.3333" ry="8.3333" style="stroke:#5E5E5E;stroke-width:1.0416666666666667;" width="411.4583" x="659.375" y="164.1195"/><rect fill="#1B1B1A" height="31.3883" rx="8.3333" ry="8.3333" style="stroke:#1B1B1A;stroke-width:1.0416666666666667;" width="411.4583" x="659.375" y="164.1195"/><rect fill="#1B1B1A" height="8.3333" style="stroke:#1B1B1A;stroke-width:1.0416666666666667;" width="411.4583" x="659.375" y="187.1745"/><rect codeLine="27" fill="none" height="411.7961" id="DeploymentSet" rx="8.3333" ry="8.3333" style="stroke:#5E5E5E;stroke-width:1.0416666666666667;" width="411.4583" x="659.375" y="164.1195"/><ellipse cx="808.3333" cy="179.8136" fill="#0066CF" rx="10.4167" ry="10.4167" style="stroke:#0086EF;stroke-width:1.0416666666666667;"/><path d="M810.2437,184.2387 Q809.8165,184.4584 809.3465,184.5683 Q808.8765,184.6781 808.3577,184.6781 Q806.5145,184.6781 805.544,183.4635 Q804.5736,182.2489 804.5736,179.954 Q804.5736,177.653 805.544,176.4384 Q806.5145,175.2238 808.3577,175.2238 Q808.8765,175.2238 809.3526,175.3337 Q809.8287,175.4435 810.2437,175.6632 L810.2437,177.6652 Q809.7799,177.238 809.3435,177.0396 Q808.9071,176.8412 808.4432,176.8412 Q807.4544,176.8412 806.9509,177.6255 Q806.4473,178.4098 806.4473,179.954 Q806.4473,181.4921 806.9509,182.2764 Q807.4544,183.0607 808.4432,183.0607 Q808.9071,183.0607 809.3435,182.8623 Q809.7799,182.664 810.2437,182.2367 Z " fill="#000000"/><text fill="#D8BC00" font-family="Open Sans,Avenir,Nunito,Arial,Helvetica,SansSerif" font-size="12.5" font-weight="bold" lengthAdjust="spacing" textLength="98.9583" x="831.25" y="184.5378">DeploymentSet</text><line style="stroke:#5E5E5E;stroke-width:1.5625;" x1="660.4167" x2="1069.7917" y1="195.5078" y2="195.5078"/><polygon fill="#FFFF44" points="670.8333,225.6694,675,229.836,670.8333,234.0027,666.6667,229.836" style="stroke:#B38D22;stroke-width:1.0416666666666667;"/><text fill="#D8BC00" font-family="Open Sans,Avenir,Nunito,Arial,Helvetica,SansSerif" font-size="11.4583" lengthAdjust="spacing" textLength="91.6667" x="682.2917" y="237.7889">DeploymentSet()</text><line style="stroke:#5E5E5E;stroke-width:1.0416666666666667;" x1="660.4167" x2="821.3542" y1="213.7136" y2="213.7136"/><text fill="#D8BC00" font-family="Open Sans,Avenir,Nunito,Arial,Helvetica,SansSerif" font-size="11.4583" lengthAdjust="spacing" textLength="81.25" x="824.4792" y="217.5232">(constructors)</text><line style="stroke:#5E5E5E;stroke-width:1.0416666666666667;" x1="908.8542" x2="1069.7917" y1="213.7136" y2="213.7136"/><ellipse cx="670.8333" cy="274.5341" fill="#84BE84" rx="3.125" ry="3.125" style="stroke:#038048;stroke-width:1.0416666666666667;"/><text fill="#D8BC00" font-family="Open Sans,Avenir,Nunito,Arial,Helvetica,SansSerif" font-size="11.4583" lengthAdjust="spacing" textLength="100" x="682.2917" y="281.4453">boolean isEmpty()</text><ellipse cx="670.8333" cy="294.279" fill="#84BE84" rx="3.125" ry="3.125" style="stroke:#038048;stroke-width:1.0416666666666667;"/><text fill="#D8BC00" font-family="Open Sans,Avenir,Nunito,Arial,Helvetica,SansSerif" font-size="11.4583" lengthAdjust="spacing" textLength="47.9167" x="682.2917" y="301.1902">int size()</text><line style="stroke:#5E5E5E;stroke-width:1.0416666666666667;" x1="660.4167" x2="830.7292" y1="257.37" y2="257.37"/><text fill="#D8BC00" font-family="Open Sans,Avenir,Nunito,Arial,Helvetica,SansSerif" font-size="11.4583" lengthAdjust="spacing" textLength="62.5" x="833.8542" y="261.1796">(collection)</text><line style="stroke:#5E5E5E;stroke-width:1.0416666666666667;" x1="899.4792" x2="1069.7917" y1="257.37" y2="257.37"/><ellipse cx="670.8333" cy="337.9354" fill="#84BE84" rx="3.125" ry="3.125" style="stroke:#038048;stroke-width:1.0416666666666667;"/><text fill="#D8BC00" font-family="Open Sans,Avenir,Nunito,Arial,Helvetica,SansSerif" font-size="11.4583" lengthAdjust="spacing" textLength="346.875" x="682.2917" y="344.8466">SwitchParser.Builder&lt;Deployment&gt; switchParser(String name)</text><line style="stroke:#5E5E5E;stroke-width:1.0416666666666667;" x1="660.4167" x2="795.8333" y1="320.7713" y2="320.7713"/><text fill="#D8BC00" font-family="Open Sans,Avenir,Nunito,Arial,Helvetica,SansSerif" font-size="11.4583" lengthAdjust="spacing" textLength="132.2917" x="798.9583" y="324.5809">(command line parsing)</text><line style="stroke:#5E5E5E;stroke-width:1.0416666666666667;" x1="934.375" x2="1069.7917" y1="320.7713" y2="320.7713"/><ellipse cx="670.8333" cy="381.5918" fill="#84BE84" rx="3.125" ry="3.125" style="stroke:#038048;stroke-width:1.0416666666666667;"/><text fill="#D8BC00" font-family="Open Sans,Avenir,Nunito,Arial,Helvetica,SansSerif" font-size="11.4583" lengthAdjust="spacing" textLength="122.9167" x="682.2917" y="388.503">void add(Deployment)</text><ellipse cx="670.8333" cy="401.3367" fill="#84BE84" rx="3.125" ry="3.125" style="stroke:#038048;stroke-width:1.0416666666666667;"/><text fill="#D8BC00" font-family="Open Sans,Avenir,Nunito,Arial,Helvetica,SansSerif" font-size="11.4583" lengthAdjust="spacing" textLength="287.5" x="682.2917" y="408.2479">void addAll(Collection&lt;Deployment&gt; deployments)</text><ellipse cx="670.8333" cy="421.0815" fill="#84BE84" rx="3.125" ry="3.125" style="stroke:#038048;stroke-width:1.0416666666666667;"/><text fill="#D8BC00" font-family="Open Sans,Avenir,Nunito,Arial,Helvetica,SansSerif" font-size="11.4583" lengthAdjust="spacing" textLength="298.9583" x="682.2917" y="427.9928">DeploymentSet addDeploymentsIn(Package package_)</text><ellipse cx="670.8333" cy="440.8264" fill="#84BE84" rx="3.125" ry="3.125" style="stroke:#038048;stroke-width:1.0416666666666667;"/><text fill="#D8BC00" font-family="Open Sans,Avenir,Nunito,Arial,Helvetica,SansSerif" font-size="11.4583" lengthAdjust="spacing" textLength="379.1667" x="682.2917" y="447.7376">DeploymentSet addDeploymentsIn(Class&lt;?&gt; relativeTo, String path)</text><ellipse cx="670.8333" cy="460.5713" fill="#84BE84" rx="3.125" ry="3.125" style="stroke:#038048;stroke-width:1.0416666666666667;"/><text fill="#D8BC00" font-family="Open Sans,Avenir,Nunito,Arial,Helvetica,SansSerif" font-size="11.4583" lengthAdjust="spacing" textLength="267.7083" x="682.2917" y="467.4825">DeploymentSet addDeploymentsIn(PackagePath)</text><ellipse cx="670.8333" cy="480.3162" fill="#84BE84" rx="3.125" ry="3.125" style="stroke:#038048;stroke-width:1.0416666666666667;"/><text fill="#D8BC00" font-family="Open Sans,Avenir,Nunito,Arial,Helvetica,SansSerif" font-size="11.4583" lengthAdjust="spacing" textLength="273.9583" x="682.2917" y="487.2274">DeploymentSet addDeploymentsIn(Folder parent)</text><ellipse cx="670.8333" cy="500.061" fill="#84BE84" rx="3.125" ry="3.125" style="stroke:#038048;stroke-width:1.0416666666666667;"/><text fill="#D8BC00" font-family="Open Sans,Avenir,Nunito,Arial,Helvetica,SansSerif" font-size="11.4583" lengthAdjust="spacing" textLength="210.4167" x="682.2917" y="506.9722">Deployment deployment(String name)</text><ellipse cx="670.8333" cy="519.8059" fill="#84BE84" rx="3.125" ry="3.125" style="stroke:#038048;stroke-width:1.0416666666666667;"/><text fill="#D8BC00" font-family="Open Sans,Avenir,Nunito,Arial,Helvetica,SansSerif" font-size="11.4583" lengthAdjust="spacing" textLength="185.4167" x="682.2917" y="526.7171">Set&lt;Deployment&gt; deployments()</text><ellipse cx="670.8333" cy="539.5508" fill="#84BE84" rx="3.125" ry="3.125" style="stroke:#038048;stroke-width:1.0416666666666667;"/><text fill="#D8BC00" font-family="Open Sans,Avenir,Nunito,Arial,Helvetica,SansSerif" font-size="11.4583" lengthAdjust="spacing" textLength="282.2917" x="682.2917" y="546.462">DeploymentSet load(Listener, Class&lt;?&gt; relativeTo)</text><ellipse cx="670.8333" cy="559.2957" fill="#84BE84" rx="3.125" ry="3.125" style="stroke:#038048;stroke-width:1.0416666666666667;"/><text fill="#D8BC00" font-family="Open Sans,Avenir,Nunito,Arial,Helvetica,SansSerif" font-size="11.4583" lengthAdjust="spacing" textLength="338.5417" x="682.2917" y="566.2069">DeploymentSet of(Listener, Deployment, Deployment... more)</text><line style="stroke:#5E5E5E;stroke-width:1.0416666666666667;" x1="660.4167" x2="819.7917" y1="364.4277" y2="364.4277"/><text fill="#D8BC00" font-family="Open Sans,Avenir,Nunito,Arial,Helvetica,SansSerif" font-size="11.4583" lengthAdjust="spacing" textLength="84.375" x="822.9167" y="368.2373">(configuration)</text><line style="stroke:#5E5E5E;stroke-width:1.0416666666666667;" x1="910.4167" x2="1069.7917" y1="364.4277" y2="364.4277"/><!--MD5=[344de7fafa0539e4c5649d4d50c27815]
class FolderSettingsStore--><rect codeLine="50" fill="#282828" height="127.0345" id="FolderSettingsStore" rx="8.3333" ry="8.3333" style="stroke:#5E5E5E;stroke-width:1.0416666666666667;" width="251.0417" x="9.375" y="306.307"/><rect fill="#1B1B1A" height="31.3883" rx="8.3333" ry="8.3333" style="stroke:#1B1B1A;stroke-width:1.0416666666666667;" width="251.0417" x="9.375" y="306.307"/><rect fill="#1B1B1A" height="8.3333" style="stroke:#1B1B1A;stroke-width:1.0416666666666667;" width="251.0417" x="9.375" y="329.362"/><rect codeLine="50" fill="none" height="127.0345" id="FolderSettingsStore" rx="8.3333" ry="8.3333" style="stroke:#5E5E5E;stroke-width:1.0416666666666667;" width="251.0417" x="9.375" y="306.307"/><ellipse cx="64.0625" cy="322.0011" fill="#0066CF" rx="10.4167" ry="10.4167" style="stroke:#0086EF;stroke-width:1.0416666666666667;"/><path d="M65.9729,326.4262 Q65.5457,326.6459 65.0757,326.7558 Q64.6057,326.8656 64.0869,326.8656 Q62.2437,326.8656 61.2732,325.651 Q60.3027,324.4364 60.3027,322.1415 Q60.3027,319.8405 61.2732,318.6259 Q62.2437,317.4113 64.0869,317.4113 Q64.6057,317.4113 65.0818,317.5212 Q65.5579,317.631 65.9729,317.8507 L65.9729,319.8527 Q65.509,319.4255 65.0726,319.2271 Q64.6362,319.0287 64.1724,319.0287 Q63.1836,319.0287 62.6801,319.813 Q62.1765,320.5973 62.1765,322.1415 Q62.1765,323.6796 62.6801,324.4639 Q63.1836,325.2482 64.1724,325.2482 Q64.6362,325.2482 65.0726,325.0498 Q65.509,324.8515 65.9729,324.4242 Z " fill="#000000"/><text fill="#D8BC00" font-family="Open Sans,Avenir,Nunito,Arial,Helvetica,SansSerif" font-size="12.5" font-weight="bold" lengthAdjust="spacing" textLength="127.0833" x="86.9792" y="326.7253">FolderSettingsStore</text><line style="stroke:#5E5E5E;stroke-width:1.5625;" x1="10.4167" x2="259.375" y1="337.6953" y2="337.6953"/><polygon fill="#FFFF44" points="20.8333,367.8569,25,372.0235,20.8333,376.1902,16.6667,372.0235" style="stroke:#B38D22;stroke-width:1.0416666666666667;"/><text fill="#D8BC00" font-family="Open Sans,Avenir,Nunito,Arial,Helvetica,SansSerif" font-size="11.4583" lengthAdjust="spacing" textLength="153.125" x="32.2917" y="379.9764">FolderSettingsStore(Folder)</text><line style="stroke:#5E5E5E;stroke-width:1.0416666666666667;" x1="10.4167" x2="91.1458" y1="355.9011" y2="355.9011"/><text fill="#D8BC00" font-family="Open Sans,Avenir,Nunito,Arial,Helvetica,SansSerif" font-size="11.4583" lengthAdjust="spacing" textLength="81.25" x="94.2708" y="359.7107">(constructors)</text><line style="stroke:#5E5E5E;stroke-width:1.0416666666666667;" x1="178.6458" x2="259.375" y1="355.9011" y2="355.9011"/><ellipse cx="20.8333" cy="416.7216" fill="#84BE84" rx="3.125" ry="3.125" style="stroke:#038048;stroke-width:1.0416666666666667;"/><text fill="#D8BC00" font-family="Open Sans,Avenir,Nunito,Arial,Helvetica,SansSerif" font-size="11.4583" lengthAdjust="spacing" textLength="218.75" x="32.2917" y="423.6328">FolderSettingsStore of(Listener, Folder)</text><line style="stroke:#5E5E5E;stroke-width:1.0416666666666667;" x1="10.4167" x2="99.4792" y1="399.5575" y2="399.5575"/><text fill="#D8BC00" font-family="Open Sans,Avenir,Nunito,Arial,Helvetica,SansSerif" font-size="11.4583" lengthAdjust="spacing" textLength="64.5833" x="102.6042" y="403.3671">(filesystem)</text><line style="stroke:#5E5E5E;stroke-width:1.0416666666666667;" x1="170.3125" x2="259.375" y1="399.5575" y2="399.5575"/><!--MD5=[9a5796fb6c713a8db984da3780dc503a]
class PackageSettingsStore--><rect codeLine="59" fill="#282828" height="131.2012" id="PackageSettingsStore" rx="8.3333" ry="8.3333" style="stroke:#5E5E5E;stroke-width:1.0416666666666667;" width="325" x="297.3958" y="304.2236"/><rect fill="#1B1B1A" height="31.3883" rx="8.3333" ry="8.3333" style="stroke:#1B1B1A;stroke-width:1.0416666666666667;" width="325" x="297.3958" y="304.2236"/><rect fill="#1B1B1A" height="8.3333" style="stroke:#1B1B1A;stroke-width:1.0416666666666667;" width="325" x="297.3958" y="327.2786"/><rect codeLine="59" fill="none" height="131.2012" id="PackageSettingsStore" rx="8.3333" ry="8.3333" style="stroke:#5E5E5E;stroke-width:1.0416666666666667;" width="325" x="297.3958" y="304.2236"/><ellipse cx="383.3333" cy="319.9178" fill="#0066CF" rx="10.4167" ry="10.4167" style="stroke:#0086EF;stroke-width:1.0416666666666667;"/><path d="M385.2437,324.3429 Q384.8165,324.5626 384.3465,324.6724 Q383.8765,324.7823 383.3577,324.7823 Q381.5145,324.7823 380.544,323.5677 Q379.5736,322.3531 379.5736,320.0582 Q379.5736,317.7572 380.544,316.5426 Q381.5145,315.328 383.3577,315.328 Q383.8765,315.328 384.3526,315.4378 Q384.8287,315.5477 385.2437,315.7674 L385.2437,317.7694 Q384.7799,317.3421 384.3435,317.1438 Q383.9071,316.9454 383.4432,316.9454 Q382.4544,316.9454 381.9509,317.7297 Q381.4473,318.514 381.4473,320.0582 Q381.4473,321.5963 381.9509,322.3806 Q382.4544,323.1649 383.4432,323.1649 Q383.9071,323.1649 384.3435,322.9665 Q384.7799,322.7681 385.2437,322.3409 Z " fill="#000000"/><text fill="#D8BC00" font-family="Open Sans,Avenir,Nunito,Arial,Helvetica,SansSerif" font-size="12.5" font-weight="bold" lengthAdjust="spacing" textLength="138.5417" x="406.25" y="324.6419">PackageSettingsStore</text><line style="stroke:#5E5E5E;stroke-width:1.5625;" x1="298.4375" x2="621.3542" y1="335.612" y2="335.612"/><polygon fill="#FFFF44" points="308.8542,365.7735,313.0208,369.9402,308.8542,374.1069,304.6875,369.9402" style="stroke:#B38D22;stroke-width:1.0416666666666667;"/><text fill="#D8BC00" font-family="Open Sans,Avenir,Nunito,Arial,Helvetica,SansSerif" font-size="11.4583" lengthAdjust="spacing" textLength="195.8333" x="320.3125" y="377.8931">PackageSettingsStore(PackagePath)</text><line style="stroke:#5E5E5E;stroke-width:1.0416666666666667;" x1="298.4375" x2="416.1458" y1="353.8177" y2="353.8177"/><text fill="#D8BC00" font-family="Open Sans,Avenir,Nunito,Arial,Helvetica,SansSerif" font-size="11.4583" lengthAdjust="spacing" textLength="81.25" x="419.2708" y="357.6274">(constructors)</text><line style="stroke:#5E5E5E;stroke-width:1.0416666666666667;" x1="503.6458" x2="621.3542" y1="353.8177" y2="353.8177"/><line style="stroke:#5E5E5E;stroke-width:1.0416666666666667;" x1="298.4375" x2="621.3542" y1="387.6017" y2="387.6017"/><ellipse cx="308.8542" cy="399.0601" fill="#84BE84" rx="3.125" ry="3.125" style="stroke:#038048;stroke-width:1.0416666666666667;"/><text fill="#D8BC00" font-family="Open Sans,Avenir,Nunito,Arial,Helvetica,SansSerif" font-size="11.4583" lengthAdjust="spacing" textLength="292.7083" x="320.3125" y="405.9713">PackageSettingsStore of(Listener, Package _package)</text><ellipse cx="308.8542" cy="418.8049" fill="#84BE84" rx="3.125" ry="3.125" style="stroke:#038048;stroke-width:1.0416666666666667;"/><text fill="#D8BC00" font-family="Open Sans,Avenir,Nunito,Arial,Helvetica,SansSerif" font-size="11.4583" lengthAdjust="spacing" textLength="261.4583" x="320.3125" y="425.7161">PackageSettingsStore of(Listener, PackagePath)</text><!--MD5=[fb0932da17f9982e4848347a102654e2]
class Settings--><rect codeLine="71" fill="#282828" height="87.5448" id="Settings" rx="8.3333" ry="8.3333" style="stroke:#5E5E5E;stroke-width:1.0416666666666667;" width="183.3333" x="1275.5208" y="671.932"/><rect fill="#1B1B1A" height="31.3883" rx="8.3333" ry="8.3333" style="stroke:#1B1B1A;stroke-width:1.0416666666666667;" width="183.3333" x="1275.5208" y="671.932"/><rect fill="#1B1B1A" height="8.3333" style="stroke:#1B1B1A;stroke-width:1.0416666666666667;" width="183.3333" x="1275.5208" y="694.987"/><rect codeLine="71" fill="none" height="87.5448" id="Settings" rx="8.3333" ry="8.3333" style="stroke:#5E5E5E;stroke-width:1.0416666666666667;" width="183.3333" x="1275.5208" y="671.932"/><ellipse cx="1333.3333" cy="687.6261" fill="#0066CF" rx="10.4167" ry="10.4167" style="stroke:#0086EF;stroke-width:1.0416666666666667;"/><path d="M1335.2437,692.0512 Q1334.8165,692.2709 1334.3465,692.3808 Q1333.8765,692.4906 1333.3577,692.4906 Q1331.5145,692.4906 1330.544,691.276 Q1329.5736,690.0614 1329.5736,687.7665 Q1329.5736,685.4655 1330.544,684.2509 Q1331.5145,683.0363 1333.3577,683.0363 Q1333.8765,683.0363 1334.3526,683.1462 Q1334.8287,683.256 1335.2437,683.4757 L1335.2437,685.4777 Q1334.7799,685.0505 1334.3435,684.8521 Q1333.9071,684.6537 1333.4432,684.6537 Q1332.4544,684.6537 1331.9509,685.438 Q1331.4473,686.2223 1331.4473,687.7665 Q1331.4473,689.3046 1331.9509,690.0889 Q1332.4544,690.8732 1333.4432,690.8732 Q1333.9071,690.8732 1334.3435,690.6748 Q1334.7799,690.4765 1335.2437,690.0492 Z " fill="#000000"/><text fill="#D8BC00" font-family="Open Sans,Avenir,Nunito,Arial,Helvetica,SansSerif" font-size="12.5" font-weight="bold" lengthAdjust="spacing" textLength="53.125" x="1356.25" y="692.3503">Settings</text><line style="stroke:#5E5E5E;stroke-width:1.5625;" x1="1276.5625" x2="1457.8125" y1="703.3203" y2="703.3203"/><line style="stroke:#5E5E5E;stroke-width:1.0416666666666667;" x1="1276.5625" x2="1457.8125" y1="711.6536" y2="711.6536"/><ellipse cx="1286.9792" cy="723.112" fill="#84BE84" rx="3.125" ry="3.125" style="stroke:#038048;stroke-width:1.0416666666666667;"/><text fill="#D8BC00" font-family="Open Sans,Avenir,Nunito,Arial,Helvetica,SansSerif" font-size="11.4583" lengthAdjust="spacing" textLength="90.625" x="1298.4375" y="730.0232">Settings global()</text><ellipse cx="1286.9792" cy="742.8569" fill="#84BE84" rx="3.125" ry="3.125" style="stroke:#038048;stroke-width:1.0416666666666667;"/><text fill="#D8BC00" font-family="Open Sans,Avenir,Nunito,Arial,Helvetica,SansSerif" font-size="11.4583" lengthAdjust="spacing" textLength="151.0417" x="1298.4375" y="749.7681">Settings of(Object ignored)</text><!--MD5=[2a5b85ade49308b08ef95733f3a866d5]
reverse link MemorySettingsStore to Deployment--><path codeLine="13" d="M1180.0208,413.5153 C1162.7604,457.5153 1131.4688,526.4632 1089.0625,575.5778 C1069.375,598.3695 1045.25,619.4736 1020.8125,637.9945 " fill="none" id="MemorySettingsStore-backto-Deployment" style="stroke:#545454;stroke-width:1.5625;"/><polygon fill="none" points="1173.2708,410.7549,1187.4479,393.8382,1186.9063,415.9111,1173.2708,410.7549" style="stroke:#545454;stroke-width:1.5625;"/><!--MD5=[0ee7b91fddcc6ed9da623a0dc5b6b586]
reverse link BaseRepeater to DeploymentSet--><path codeLine="24" d="M796.9375,122.2653 C800.3229,134.4945 804.2292,148.6403 808.4375,163.859 " fill="none" id="BaseRepeater-backto-DeploymentSet" style="stroke:#545454;stroke-width:1.5625;"/><polygon fill="none" points="789.8438,123.9736,791.3229,101.9528,803.9063,120.0882,789.8438,123.9736" style="stroke:#545454;stroke-width:1.5625;"/><!--MD5=[301db7d08bc1e21db1a9b58c2cabeac4]
reverse link RegistryTrait to DeploymentSet--><path codeLine="25" d="M932.3854,122.2653 C929.0417,134.4945 925.1875,148.6403 921.0313,163.859 " fill="none" id="RegistryTrait-backto-DeploymentSet" style="stroke:#545454;stroke-width:1.5625;"/><polygon fill="none" points="925.4063,120.1299,937.9271,101.9528,939.4792,123.9736,925.4063,120.1299" style="stroke:#545454;stroke-width:1.5625;"/><!--MD5=[bb2964829946b3c2c5663263f7079b91]
reverse link DeploymentSet to Deployment--><path codeLine="26" d="M884.9896,589.6195 C886.5417,606.6715 888.0313,623.0674 889.3958,638.0465 " fill="none" id="DeploymentSet-backto-Deployment" style="stroke:#545454;stroke-width:1.5625;"/><polygon fill="#333333" points="883.7292,575.8174,880.1501,582.4214,884.8695,588.2653,888.4486,581.6612,883.7292,575.8174" style="stroke:#545454;stroke-width:1.5625;"/><text fill="#A0A0A0" font-family="Open Sans,Avenir,Nunito,Arial,Helvetica,SansSerif" font-size="12.5" font-weight="bold" lengthAdjust="spacing" textLength="8.3333" x="872.7135" y="599.476">1</text><text fill="#A0A0A0" font-family="Open Sans,Avenir,Nunito,Arial,Helvetica,SansSerif" font-size="12.5" font-weight="bold" lengthAdjust="spacing" textLength="6.25" x="878.7619" y="624.0419">*</text><!--MD5=[aface3545b07c5b83b9b0d51ade95230]
reverse link BaseResourceSettingsStore to FolderSettingsStore--><path codeLine="49" d="M274.0625,120.359 C246.8333,168.9736 201.5104,249.8695 170.0208,306.0986 " fill="none" id="BaseResourceSettingsStore-backto-FolderSettingsStore" style="stroke:#545454;stroke-width:1.5625;"/><polygon fill="none" points="267.8333,116.5674,284.375,101.9528,280.5521,123.6924,267.8333,116.5674" style="stroke:#545454;stroke-width:1.5625;"/><!--MD5=[0b5e487838781d4f1d2266ba6bbafe2e]
reverse link BaseResourceSettingsStore to PackageSettingsStore--><path codeLine="58" d="M320.6042,120.1299 C347.4896,168.1403 392.125,247.807 423.6042,304.0153 " fill="none" id="BaseResourceSettingsStore-backto-PackageSettingsStore" style="stroke:#545454;stroke-width:1.5625;"/><polygon fill="none" points="314.2396,123.6924,310.4167,101.9528,326.9583,116.5674,314.2396,123.6924" style="stroke:#545454;stroke-width:1.5625;"/><!--MD5=[a4a0383a2cfa201add6e3f9f05d5c015]
reverse link MemorySettingsStore to Settings--><path codeLine="68" d="M1216.1875,412.6403 C1249.0313,478.3278 1312.4583,605.182 1345.6875,671.6403 " fill="none" id="MemorySettingsStore-backto-Settings" style="stroke:#545454;stroke-width:1.5625;"/><polygon fill="none" points="1209.6563,415.8695,1206.8542,393.9736,1222.6979,409.3486,1209.6563,415.8695" style="stroke:#545454;stroke-width:1.5625;"/><!--MD5=[b66a1153237ceb0e6ca89c60fae911f2]
reverse link SettingsTrait to Settings--><path codeLine="69" d="M1496.4896,413.5674 C1481.1354,455.2236 1456.5313,520.234 1432.8125,575.5778 C1418.8229,608.2132 1401.6563,644.4736 1388.3854,671.7861 " fill="none" id="SettingsTrait-backto-Settings" style="stroke:#545454;stroke-width:1.5625;"/><polygon fill="none" points="1489.7083,410.8799,1503.7188,393.8278,1503.4063,415.8903,1489.7083,410.8799" style="stroke:#545454;stroke-width:1.5625;"/><!--MD5=[f2c356fc8f411482e5a791d5bfbdcc34]
reverse link JavaTrait to Settings--><path codeLine="70" d="M1367.1875,415.2236 C1367.1875,481.609 1367.1875,606.0465 1367.1875,671.6403 " fill="none" id="JavaTrait-backto-Settings" style="stroke:#545454;stroke-width:1.5625;"/><polygon fill="none" points="1359.8958,414.807,1367.1875,393.9736,1374.4792,414.807,1359.8958,414.807" style="stroke:#545454;stroke-width:1.5625;"/><!--MD5=[23b57a318322a5c313854cc9b8d46984]
@startuml

    !include lexakai.theme
    
    title "Settings"
    
    abstract BaseResourceSettingsStore
    abstract BaseRepeater
    
    interface JavaTrait
    interface SettingsTrait
    interface RegistryTrait
    
    MemorySettingsStore <|- - Deployment
    class Deployment
    {
        - -(constructors)- -
        +Deployment(String, String)
        - -
        +String description()
        - -(command line parsing)- -
        +SwitchParser.Builder<Deployment> deploymentSwitchParser(Listener, DeploymentSet, String switchName)
    }
    
    BaseRepeater <|- - DeploymentSet
    RegistryTrait <|- - DeploymentSet
    DeploymentSet "1" o- - "*" Deployment
    class DeploymentSet
    {
        - -(constructors)- -
        #DeploymentSet()
        - -(collection)- -
        +boolean isEmpty()
        +int size()
        - -(command line parsing)- -
        +SwitchParser.Builder<Deployment> switchParser(String name)
        - -(configuration)- -
        +void add(Deployment)
        +void addAll(Collection<Deployment> deployments)
        +DeploymentSet addDeploymentsIn(Package package_)
        +DeploymentSet addDeploymentsIn(Class<?> relativeTo, String path)
        +DeploymentSet addDeploymentsIn(PackagePath)
        +DeploymentSet addDeploymentsIn(Folder parent)
        +Deployment deployment(String name)
        +Set<Deployment> deployments()
        +DeploymentSet load(Listener, Class<?> relativeTo)
        +DeploymentSet of(Listener, Deployment, Deployment... more)
    }
    
    BaseResourceSettingsStore <|- - FolderSettingsStore
    class FolderSettingsStore
    {
        - -(constructors)- -
        #FolderSettingsStore(Folder)
        - -(filesystem)- -
        +FolderSettingsStore of(Listener, Folder)
    }
    
    BaseResourceSettingsStore <|- - PackageSettingsStore
    class PackageSettingsStore
    {
        - -(constructors)- -
        #PackageSettingsStore(PackagePath)
        - -
        +PackageSettingsStore of(Listener, Package _package)
        +PackageSettingsStore of(Listener, PackagePath)
    }
    
    MemorySettingsStore <|- - Settings
    SettingsTrait <|- - Settings
    JavaTrait <|- - Settings
    class Settings
    {
        - -
        +Settings global()
        +Settings of(Object ignored)
    }
    
@enduml

@startuml









skinparam backgroundColor #333333






skinparam  {
    defaultFontName   "Open Sans,Avenir,Nunito,Arial,Helvetica,SansSerif"
    defaultFontSize   12
    defaultTextAlignment left
    shadowing false
    RoundCorner 10
    TitleFontSize 18
}

skinparam defaultFontName       "Open Sans,Avenir,Nunito,Arial,Helvetica,SansSerif"
skinparam defaultFontSize       12
skinparam dpi                   100
skinparam shadowing             false
skinparam roundcorner           16
skinparam ParticipantPadding    40
skinparam BoxPadding            40
skinparam Padding               3
skinparam ArrowColor            #545454
skinparam stereotype {
    CBackgroundColor #0066cf
    CBorderColor #0086ef
    ABackgroundColor #C8Ac00
    ABorderColor #D8Bc00
    IBackgroundColor #008400
    IBorderColor #239c23
    EBackgroundColor #cf6300
    EBorderColor #ef8300
    NBackgroundColor #3380b9
    NBorderColor #004d86
}
skinparam title {
	FontColor	                 #c0c0c0
 	BorderColor                  #545454
	FontSize	    	         20
	BorderRoundCorner            16
	BorderThickness 	         1
	BackgroundColor              #48494b
}


skinparam legend {
	BackgroundColor #303030
	BorderColor #404040
	FontColor #a0a0a0
}

	skinparam swimlane {
	BorderColor #5e5e5e
	BorderThickness 2
	TitleBackgroundColor  #6d6d6d-#484848
	TitleFontColor #303030
}

skinparam activity {
		FontColor #C8Ac00
	BorderColor #333333
	BackgroundColor #333333-#333333
	BarColor #00FF00
	StartColor #0060a8
	EndColor #0060a8
	DiamondBackgroundColor #6d6d6d-#3a3a3a
  	DiamondBorderColor #3a3a3a
  	DiamondFontColor #fefefe
}


skinparam participant {
		FontColor #C8Ac00
	BorderColor #333333
	BackgroundColor #333333-#333333
	ParticipantBorderThickness 2
}


skinparam actor {
		FontColor #C8Ac00
	BorderColor #333333
	BackgroundColor #333333-#333333
}


skinparam arrow {
	Thickness 1.5
	Color #545454
	FontColor #a0a0a0
    FontStyle bold
    MessageAlignment center
}



skinparam sequence {
	BorderColor #303030
	TitleFontColor #303030
	BackgroundColor #333333
	StartColor #303030
	EndColor #303030
	BoxBackgroundColor #333333
	BoxBorderColor #484848
	BoxFontColor #484848
	LifeLineBorderColor #484848
	LifeLineBorderThickness 2
	LifeLineBackgroundColor #3a3a3a
	GroupBorderColor #484848
	GroupFontColor #484848
	GroupHeaderFontColor #0060a8
	GroupBackgroundColor #484848
	GroupHeaderBackgroundColor #333333
	DividerBackgroundColor #484848
    DividerBorderColor #484848
    DividerBorderThickness 2
    DividerFontColor #D8Bc00
	ReferenceBackgroundColor #333333
	ReferenceBorderColor #484848
	ReferenceFontColor #fefefe
	ReferenceHeaderBackgroundColor #484848
}


skinparam partition {
	BorderColor #303030
	FontColor #333333
	BackgroundColor #333333
}


skinparam collections {
		FontColor #C8Ac00
	BorderColor #333333
	BackgroundColor #333333-#333333
}


skinparam control {
		FontColor #C8Ac00
	BorderColor #333333
	BackgroundColor #333333-#333333
}


skinparam entity {
		FontColor #C8Ac00
	BorderColor #333333
	BackgroundColor #333333-#333333
}


skinparam boundary {
		FontColor #C8Ac00
	BorderColor #333333
	BackgroundColor #333333-#333333
}


skinparam agent {
	BackgroundColor #ff8000
	BorderColor #ff9933
	FontColor #484848
}


skinparam note {
	BorderThickness 1
	BackgroundColor #1b1b1a
	BorderColor #5e5e5e
	FontSize 11
	FontColor #a0a0a0
}


skinparam artifact {
	BorderThickness 10
	BorderColor #5e5e5e
	BackgroundColor #1b1b1a
	FontColor #D8Bc00
}


skinparam component {
		FontColor #C8Ac00
	BorderColor #333333
	BackgroundColor #333333-#333333
}


skinparam interface {
	BackgroundColor  #008400
	BorderColor  #007F00
	FontColor #484848
}


skinparam storage {
	BackgroundColor #ff8000
  	BorderColor #cc6600
	FontColor #222222
}


skinparam node {
	BackgroundColor #333333
	BorderColor #333333
	FontColor #C8Ac00
}


skinparam cloud {
	BackgroundColor #484848-black
	BorderColor #484848
	FontColor #D8Bc00
}


skinparam database {
		FontColor #C8Ac00
	BorderColor #333333
	BackgroundColor #333333-#333333
	BackgroundColor  #333333
}


skinparam class {
		FontColor #C8Ac00
	BorderColor #333333
	BackgroundColor #333333-#333333
	HeaderBackgroundColor #1b1b1a
    BackgroundColor #282828
    BorderColor #5e5e5e
 	StereotypeFontColor #a0a0a0
    StereotypeFontStyle bold
	BorderThickness 1
	AttributeFontColor #D8Bc00
	AttributeFontSize 11
    FontColor #D8Bc00
    FontStyle bold
}


skinparam object {
		FontColor #C8Ac00
	BorderColor #333333
	BackgroundColor #333333-#333333
	StereotypeFontColor #484848
	BorderThickness 1
	AttributeFontColor #fefefe
	AttributeFontSize 11
}


skinparam usecase {
		FontColor #C8Ac00
	BorderColor #333333
	BackgroundColor #333333-#333333
	BorderThickness 2
	StereotypeFontColor #303030
}


skinparam rectangle {
		FontColor #C8Ac00
	BorderColor #333333
	BackgroundColor #333333-#333333
	BackgroundColor #333333
	BorderThickness 2
	StereotypeFontColor #303030
}


skinparam package {
		FontColor #C8Ac00
	BorderColor #333333
	BackgroundColor #333333-#333333
	BackgroundColor #333333
	BorderThickness 2
}


skinparam folder {
	BackgroundColor #6d6d6d
  	BorderColor #ff8000
	FontColor #ff8000
	BorderThickness 2
}


skinparam frame {
	BackgroundColor #6d6d6d
  	BorderColor #0060a8
	FontColor #0060a8
	BorderThickness 2
}


skinparam state {
		FontColor #C8Ac00
	BorderColor #333333
	BackgroundColor #333333-#333333
	StartColor #0060a8
	EndColor #0060a8
	AttributeFontColor #fefefe
	AttributeFontSize 11
}


skinparam queue {
		FontColor #C8Ac00
	BorderColor #333333
	BackgroundColor #333333-#333333
}


skinparam card {
	BackgroundColor #0060a8
	BorderColor #004d86
	FontColor $INFO_TEXT
}


skinparam file {
	BackgroundColor #6d6d6d-#484848
	BorderColor #0060a8
	FontColor #fefefe
}


skinparam stack {
		FontColor #C8Ac00
	BorderColor #333333
	BackgroundColor #333333-#333333
}

    
    title "Settings"
    
    abstract BaseResourceSettingsStore
    abstract BaseRepeater
    
    interface JavaTrait
    interface SettingsTrait
    interface RegistryTrait
    
    MemorySettingsStore <|- - Deployment
    class Deployment
    {
        - -(constructors)- -
        +Deployment(String, String)
        - -
        +String description()
        - -(command line parsing)- -
        +SwitchParser.Builder<Deployment> deploymentSwitchParser(Listener, DeploymentSet, String switchName)
    }
    
    BaseRepeater <|- - DeploymentSet
    RegistryTrait <|- - DeploymentSet
    DeploymentSet "1" o- - "*" Deployment
    class DeploymentSet
    {
        - -(constructors)- -
        #DeploymentSet()
        - -(collection)- -
        +boolean isEmpty()
        +int size()
        - -(command line parsing)- -
        +SwitchParser.Builder<Deployment> switchParser(String name)
        - -(configuration)- -
        +void add(Deployment)
        +void addAll(Collection<Deployment> deployments)
        +DeploymentSet addDeploymentsIn(Package package_)
        +DeploymentSet addDeploymentsIn(Class<?> relativeTo, String path)
        +DeploymentSet addDeploymentsIn(PackagePath)
        +DeploymentSet addDeploymentsIn(Folder parent)
        +Deployment deployment(String name)
        +Set<Deployment> deployments()
        +DeploymentSet load(Listener, Class<?> relativeTo)
        +DeploymentSet of(Listener, Deployment, Deployment... more)
    }
    
    BaseResourceSettingsStore <|- - FolderSettingsStore
    class FolderSettingsStore
    {
        - -(constructors)- -
        #FolderSettingsStore(Folder)
        - -(filesystem)- -
        +FolderSettingsStore of(Listener, Folder)
    }
    
    BaseResourceSettingsStore <|- - PackageSettingsStore
    class PackageSettingsStore
    {
        - -(constructors)- -
        #PackageSettingsStore(PackagePath)
        - -
        +PackageSettingsStore of(Listener, Package _package)
        +PackageSettingsStore of(Listener, PackagePath)
    }
    
    MemorySettingsStore <|- - Settings
    SettingsTrait <|- - Settings
    JavaTrait <|- - Settings
    class Settings
    {
        - -
        +Settings global()
        +Settings of(Object ignored)
    }
    
@enduml

PlantUML version 1.2021.01(Tue Feb 02 00:55:08 MST 2021)
(GPL source distribution)
Java Runtime: OpenJDK Runtime Environment
JVM: OpenJDK 64-Bit Server VM
Default Encoding: UTF-8
Language: en
Country: US
--></g></svg>