<?xml version="1.0" encoding="UTF-8" standalone="no"?><svg xmlns="http://www.w3.org/2000/svg" xmlns:xlink="http://www.w3.org/1999/xlink" contentScriptType="application/ecmascript" contentStyleType="text/css" height="533.3333px" preserveAspectRatio="none" style="width:1161px;height:533px;background:#333333;" version="1.1" viewBox="0 0 1161 533" width="1161.4583px" zoomAndPan="magnify"><defs/><g><rect fill="#48494B" height="41.2028" rx="8.3333" ry="8.3333" style="stroke:#545454;stroke-width:1.0416666666666667;" width="280.2083" x="433.3333" y="2.0833"/><text fill="#C0C0C0" font-family="Open Sans,Avenir,Nunito,Arial,Helvetica,SansSerif" font-size="20.8333" lengthAdjust="spacing" textLength="257.2917" x="444.7917" y="30.5583">kivakit-serialization-kryo</text><!--MD5=[4f079977920bf52107586fb847a1e92c]
entity kryo--><rect fill="#1B1B1A" height="44.93" rx="8.3333" ry="8.3333" style="stroke:#5E5E5E;stroke-width:1.5625;" width="63.5417" x="278.6458" y="160.9945"/><polygon fill="#1B1B1A" points="324.4792,166.2028,324.4792,180.7861,336.9792,180.7861,336.9792,172.4528,330.7292,166.2028,324.4792,166.2028" style="stroke:#5E5E5E;stroke-width:1.5625;"/><line style="stroke:#5E5E5E;stroke-width:1.5625;" x1="330.7292" x2="330.7292" y1="166.2028" y2="172.4528"/><line style="stroke:#5E5E5E;stroke-width:1.5625;" x1="336.9792" x2="330.7292" y1="172.4528" y2="172.4528"/><text fill="#D8BC00" font-family="Open Sans,Avenir,Nunito,Arial,Helvetica,SansSerif" font-size="12.5" lengthAdjust="spacing" textLength="26.0417" x="292.1875" y="189.7461">kryo</text><!--MD5=[745ab22dbfa32e29a2660b9e5bc2262a]
entity minlog--><rect fill="#1B1B1A" height="44.93" rx="8.3333" ry="8.3333" style="stroke:#5E5E5E;stroke-width:1.5625;" width="77.0833" x="93.75" y="268.2861"/><polygon fill="#1B1B1A" points="153.125,273.4945,153.125,288.0778,165.625,288.0778,165.625,279.7445,159.375,273.4945,153.125,273.4945" style="stroke:#5E5E5E;stroke-width:1.5625;"/><line style="stroke:#5E5E5E;stroke-width:1.5625;" x1="159.375" x2="159.375" y1="273.4945" y2="279.7445"/><line style="stroke:#5E5E5E;stroke-width:1.5625;" x1="165.625" x2="159.375" y1="279.7445" y2="279.7445"/><text fill="#D8BC00" font-family="Open Sans,Avenir,Nunito,Arial,Helvetica,SansSerif" font-size="12.5" lengthAdjust="spacing" textLength="39.5833" x="107.2917" y="297.0378">minlog</text><!--MD5=[5d0bc62e6e2e5a8467f655d5e580826c]
entity reflectasm--><rect fill="#1B1B1A" height="44.93" rx="8.3333" ry="8.3333" style="stroke:#5E5E5E;stroke-width:1.5625;" width="100" x="207.2917" y="268.2861"/><polygon fill="#1B1B1A" points="289.5833,273.4945,289.5833,288.0778,302.0833,288.0778,302.0833,279.7445,295.8333,273.4945,289.5833,273.4945" style="stroke:#5E5E5E;stroke-width:1.5625;"/><line style="stroke:#5E5E5E;stroke-width:1.5625;" x1="295.8333" x2="295.8333" y1="273.4945" y2="279.7445"/><line style="stroke:#5E5E5E;stroke-width:1.5625;" x1="302.0833" x2="295.8333" y1="279.7445" y2="279.7445"/><text fill="#D8BC00" font-family="Open Sans,Avenir,Nunito,Arial,Helvetica,SansSerif" font-size="12.5" lengthAdjust="spacing" textLength="62.5" x="220.8333" y="297.0378">reflectasm</text><!--MD5=[07375bd6ced801b2ef86c9d3f68eec61]
entity jackson_annotations--><rect fill="#1B1B1A" height="44.93" rx="8.3333" ry="8.3333" style="stroke:#5E5E5E;stroke-width:1.5625;" width="158.3333" x="106.25" y="375.5778"/><polygon fill="#1B1B1A" points="246.875,380.7861,246.875,395.3695,259.375,395.3695,259.375,387.0361,253.125,380.7861,246.875,380.7861" style="stroke:#5E5E5E;stroke-width:1.5625;"/><line style="stroke:#5E5E5E;stroke-width:1.5625;" x1="253.125" x2="253.125" y1="380.7861" y2="387.0361"/><line style="stroke:#5E5E5E;stroke-width:1.5625;" x1="259.375" x2="253.125" y1="387.0361" y2="387.0361"/><text fill="#D8BC00" font-family="Open Sans,Avenir,Nunito,Arial,Helvetica,SansSerif" font-size="12.5" lengthAdjust="spacing" textLength="120.8333" x="119.7917" y="404.3294">jackson_annotations</text><!--MD5=[53e810a96c27d4bd25e6a3839aaba16b]
entity gson--><rect fill="#1B1B1A" height="44.93" rx="8.3333" ry="8.3333" style="stroke:#5E5E5E;stroke-width:1.5625;" width="65.625" x="715.1042" y="268.2861"/><polygon fill="#1B1B1A" points="763.0208,273.4945,763.0208,288.0778,775.5208,288.0778,775.5208,279.7445,769.2708,273.4945,763.0208,273.4945" style="stroke:#5E5E5E;stroke-width:1.5625;"/><line style="stroke:#5E5E5E;stroke-width:1.5625;" x1="769.2708" x2="769.2708" y1="273.4945" y2="279.7445"/><line style="stroke:#5E5E5E;stroke-width:1.5625;" x1="775.5208" x2="769.2708" y1="279.7445" y2="279.7445"/><text fill="#D8BC00" font-family="Open Sans,Avenir,Nunito,Arial,Helvetica,SansSerif" font-size="12.5" lengthAdjust="spacing" textLength="28.125" x="728.6458" y="297.0378">gson</text><!--MD5=[4aa4ddcf3dc6d6219283db0a9fd05165]
entity cactus_build_metadata--><rect fill="#1B1B1A" height="44.93" rx="8.3333" ry="8.3333" style="stroke:#5E5E5E;stroke-width:1.5625;" width="175" x="301.0417" y="375.5778"/><polygon fill="#1B1B1A" points="458.3333,380.7861,458.3333,395.3695,470.8333,395.3695,470.8333,387.0361,464.5833,380.7861,458.3333,380.7861" style="stroke:#5E5E5E;stroke-width:1.5625;"/><line style="stroke:#5E5E5E;stroke-width:1.5625;" x1="464.5833" x2="464.5833" y1="380.7861" y2="387.0361"/><line style="stroke:#5E5E5E;stroke-width:1.5625;" x1="470.8333" x2="464.5833" y1="387.0361" y2="387.0361"/><text fill="#D8BC00" font-family="Open Sans,Avenir,Nunito,Arial,Helvetica,SansSerif" font-size="12.5" lengthAdjust="spacing" textLength="137.5" x="314.5833" y="404.3294">cactus_build_metadata</text><!--MD5=[17eeaa61da6b3f8cb25de5876b62ec23]
entity kivakit_kernel--><rect fill="#1B1B1A" height="44.93" rx="8.3333" ry="8.3333" style="stroke:#5E5E5E;stroke-width:1.5625;" width="119.7917" x="530.7292" y="268.2861"/><polygon fill="#1B1B1A" points="632.8125,273.4945,632.8125,288.0778,645.3125,288.0778,645.3125,279.7445,639.0625,273.4945,632.8125,273.4945" style="stroke:#5E5E5E;stroke-width:1.5625;"/><line style="stroke:#5E5E5E;stroke-width:1.5625;" x1="639.0625" x2="639.0625" y1="273.4945" y2="279.7445"/><line style="stroke:#5E5E5E;stroke-width:1.5625;" x1="645.3125" x2="639.0625" y1="279.7445" y2="279.7445"/><text fill="#D8BC00" font-family="Open Sans,Avenir,Nunito,Arial,Helvetica,SansSerif" font-size="12.5" lengthAdjust="spacing" textLength="82.2917" x="544.2708" y="297.0378">kivakit_kernel</text><!--MD5=[90c7e8c0eae90f7cdcf1e82754bc9c37]
entity kivakit_serialization_core--><rect fill="#1B1B1A" height="44.93" rx="8.3333" ry="8.3333" style="stroke:#5E5E5E;stroke-width:1.5625;" width="186.4583" x="431.7708" y="160.9945"/><polygon fill="#1B1B1A" points="600.5208,166.2028,600.5208,180.7861,613.0208,180.7861,613.0208,172.4528,606.7708,166.2028,600.5208,166.2028" style="stroke:#5E5E5E;stroke-width:1.5625;"/><line style="stroke:#5E5E5E;stroke-width:1.5625;" x1="606.7708" x2="606.7708" y1="166.2028" y2="172.4528"/><line style="stroke:#5E5E5E;stroke-width:1.5625;" x1="613.0208" x2="606.7708" y1="172.4528" y2="172.4528"/><text fill="#D8BC00" font-family="Open Sans,Avenir,Nunito,Arial,Helvetica,SansSerif" font-size="12.5" lengthAdjust="spacing" textLength="148.9583" x="445.3125" y="189.7461">kivakit_serialization_core</text><!--MD5=[71ec73b64d97786e160c020912518960]
entity kivakit_serialization_json--><rect fill="#1B1B1A" height="44.93" rx="8.3333" ry="8.3333" style="stroke:#5E5E5E;stroke-width:1.5625;" width="185.4167" x="655.2083" y="160.9945"/><polygon fill="#1B1B1A" points="822.9167,166.2028,822.9167,180.7861,835.4167,180.7861,835.4167,172.4528,829.1667,166.2028,822.9167,166.2028" style="stroke:#5E5E5E;stroke-width:1.5625;"/><line style="stroke:#5E5E5E;stroke-width:1.5625;" x1="829.1667" x2="829.1667" y1="166.2028" y2="172.4528"/><line style="stroke:#5E5E5E;stroke-width:1.5625;" x1="835.4167" x2="829.1667" y1="172.4528" y2="172.4528"/><text fill="#D8BC00" font-family="Open Sans,Avenir,Nunito,Arial,Helvetica,SansSerif" font-size="12.5" lengthAdjust="spacing" textLength="147.9167" x="668.75" y="189.7461">kivakit_serialization_json</text><!--MD5=[7bf535908c90dd3c1fbc894d9b1c5a2e]
entity kivakit_serialization_kryo--><rect fill="#1B1B1A" height="44.93" rx="8.3333" ry="8.3333" style="stroke:#5E5E5E;stroke-width:1.5625;" width="186.4583" x="654.6875" y="53.7028"/><polygon fill="#1B1B1A" points="823.4375,58.9111,823.4375,73.4945,835.9375,73.4945,835.9375,65.1611,829.6875,58.9111,823.4375,58.9111" style="stroke:#5E5E5E;stroke-width:1.5625;"/><line style="stroke:#5E5E5E;stroke-width:1.5625;" x1="829.6875" x2="829.6875" y1="58.9111" y2="65.1611"/><line style="stroke:#5E5E5E;stroke-width:1.5625;" x1="835.9375" x2="829.6875" y1="65.1611" y2="65.1611"/><text fill="#D8BC00" font-family="Open Sans,Avenir,Nunito,Arial,Helvetica,SansSerif" font-size="12.5" lengthAdjust="spacing" textLength="148.9583" x="668.2292" y="82.4544">kivakit_serialization_kryo</text><!--MD5=[11024e5ca6382b1a0f630f967447af59]
entity kivakit_test--><rect fill="#1B1B1A" height="44.93" rx="8.3333" ry="8.3333" style="stroke:#5E5E5E;stroke-width:1.5625;" width="104.1667" x="877.0833" y="160.9945"/><polygon fill="#1B1B1A" points="963.5417,166.2028,963.5417,180.7861,976.0417,180.7861,976.0417,172.4528,969.7917,166.2028,963.5417,166.2028" style="stroke:#5E5E5E;stroke-width:1.5625;"/><line style="stroke:#5E5E5E;stroke-width:1.5625;" x1="969.7917" x2="969.7917" y1="166.2028" y2="172.4528"/><line style="stroke:#5E5E5E;stroke-width:1.5625;" x1="976.0417" x2="969.7917" y1="172.4528" y2="172.4528"/><text fill="#D8BC00" font-family="Open Sans,Avenir,Nunito,Arial,Helvetica,SansSerif" font-size="12.5" lengthAdjust="spacing" textLength="66.6667" x="890.625" y="189.7461">kivakit_test</text><!--MD5=[7b0fec798d1f32628676dfdf75f1f662]
entity lexakai_annotations--><rect fill="#1B1B1A" height="44.93" rx="8.3333" ry="8.3333" style="stroke:#5E5E5E;stroke-width:1.5625;" width="155.2083" x="513.0208" y="375.5778"/><polygon fill="#1B1B1A" points="650.5208,380.7861,650.5208,395.3695,663.0208,395.3695,663.0208,387.0361,656.7708,380.7861,650.5208,380.7861" style="stroke:#5E5E5E;stroke-width:1.5625;"/><line style="stroke:#5E5E5E;stroke-width:1.5625;" x1="656.7708" x2="656.7708" y1="380.7861" y2="387.0361"/><line style="stroke:#5E5E5E;stroke-width:1.5625;" x1="663.0208" x2="656.7708" y1="387.0361" y2="387.0361"/><text fill="#D8BC00" font-family="Open Sans,Avenir,Nunito,Arial,Helvetica,SansSerif" font-size="12.5" lengthAdjust="spacing" textLength="117.7083" x="526.5625" y="404.3294">lexakai_annotations</text><!--MD5=[b9ccc173c089e3d2abf77c8581e74aca]
entity kryo_serializers--><rect fill="#1B1B1A" height="44.93" rx="8.3333" ry="8.3333" style="stroke:#5E5E5E;stroke-width:1.5625;" width="131.25" x="1017.7083" y="160.9945"/><polygon fill="#1B1B1A" points="1131.25,166.2028,1131.25,180.7861,1143.75,180.7861,1143.75,172.4528,1137.5,166.2028,1131.25,166.2028" style="stroke:#5E5E5E;stroke-width:1.5625;"/><line style="stroke:#5E5E5E;stroke-width:1.5625;" x1="1137.5" x2="1137.5" y1="166.2028" y2="172.4528"/><line style="stroke:#5E5E5E;stroke-width:1.5625;" x1="1143.75" x2="1137.5" y1="172.4528" y2="172.4528"/><text fill="#D8BC00" font-family="Open Sans,Avenir,Nunito,Arial,Helvetica,SansSerif" font-size="12.5" lengthAdjust="spacing" textLength="93.75" x="1031.25" y="189.7461">kryo_serializers</text><!--MD5=[23cc7f88cfa1ae4b54fca2963c42906f]
entity swagger_annotations--><rect fill="#1B1B1A" height="44.93" rx="8.3333" ry="8.3333" style="stroke:#5E5E5E;stroke-width:1.5625;" width="162.5" x="705.2083" y="375.5778"/><polygon fill="#1B1B1A" points="850,380.7861,850,395.3695,862.5,395.3695,862.5,387.0361,856.25,380.7861,850,380.7861" style="stroke:#5E5E5E;stroke-width:1.5625;"/><line style="stroke:#5E5E5E;stroke-width:1.5625;" x1="856.25" x2="856.25" y1="380.7861" y2="387.0361"/><line style="stroke:#5E5E5E;stroke-width:1.5625;" x1="862.5" x2="856.25" y1="387.0361" y2="387.0361"/><text fill="#D8BC00" font-family="Open Sans,Avenir,Nunito,Arial,Helvetica,SansSerif" font-size="12.5" lengthAdjust="spacing" textLength="125" x="718.75" y="404.3294">swagger_annotations</text><!--MD5=[ce55b294004802c137560c2930be5b75]
entity junit--><rect fill="#1B1B1A" height="44.93" rx="8.3333" ry="8.3333" style="stroke:#5E5E5E;stroke-width:1.5625;" width="63.5417" x="904.6875" y="375.5778"/><polygon fill="#1B1B1A" points="950.5208,380.7861,950.5208,395.3695,963.0208,395.3695,963.0208,387.0361,956.7708,380.7861,950.5208,380.7861" style="stroke:#5E5E5E;stroke-width:1.5625;"/><line style="stroke:#5E5E5E;stroke-width:1.5625;" x1="956.7708" x2="956.7708" y1="380.7861" y2="387.0361"/><line style="stroke:#5E5E5E;stroke-width:1.5625;" x1="963.0208" x2="956.7708" y1="387.0361" y2="387.0361"/><text fill="#D8BC00" font-family="Open Sans,Avenir,Nunito,Arial,Helvetica,SansSerif" font-size="12.5" lengthAdjust="spacing" textLength="26.0417" x="918.2292" y="404.3294">junit</text><!--MD5=[7f157d37bc1fd6ac970bb67ffdbc66a3]
entity hamcrest_core--><rect fill="#1B1B1A" height="44.93" rx="8.3333" ry="8.3333" style="stroke:#5E5E5E;stroke-width:1.5625;" width="125" x="873.9583" y="482.8695"/><polygon fill="#1B1B1A" points="981.25,488.0778,981.25,502.6611,993.75,502.6611,993.75,494.3278,987.5,488.0778,981.25,488.0778" style="stroke:#5E5E5E;stroke-width:1.5625;"/><line style="stroke:#5E5E5E;stroke-width:1.5625;" x1="987.5" x2="987.5" y1="488.0778" y2="494.3278"/><line style="stroke:#5E5E5E;stroke-width:1.5625;" x1="993.75" x2="987.5" y1="494.3278" y2="494.3278"/><text fill="#D8BC00" font-family="Open Sans,Avenir,Nunito,Arial,Helvetica,SansSerif" font-size="12.5" lengthAdjust="spacing" textLength="87.5" x="887.5" y="511.6211">hamcrest_core</text><!--MD5=[b728e17b4e4da6aa8cb97e9b2766c5e6]
entity annotations--><rect fill="#1B1B1A" height="44.93" rx="8.3333" ry="8.3333" style="stroke:#5E5E5E;stroke-width:1.5625;" width="106.25" x="1005.2083" y="375.5778"/><polygon fill="#1B1B1A" points="1093.75,380.7861,1093.75,395.3695,1106.25,395.3695,1106.25,387.0361,1100,380.7861,1093.75,380.7861" style="stroke:#5E5E5E;stroke-width:1.5625;"/><line style="stroke:#5E5E5E;stroke-width:1.5625;" x1="1100" x2="1100" y1="380.7861" y2="387.0361"/><line style="stroke:#5E5E5E;stroke-width:1.5625;" x1="1106.25" x2="1100" y1="387.0361" y2="387.0361"/><text fill="#D8BC00" font-family="Open Sans,Avenir,Nunito,Arial,Helvetica,SansSerif" font-size="12.5" lengthAdjust="spacing" textLength="68.75" x="1018.75" y="404.3294">annotations</text><!--MD5=[b3c862d1486667ad9c7edef6529b2202]
entity objenesis--><rect fill="#1B1B1A" height="44.93" rx="8.3333" ry="8.3333" style="stroke:#5E5E5E;stroke-width:1.5625;" width="94.7917" x="344.2708" y="268.2861"/><polygon fill="#1B1B1A" points="421.3542,273.4945,421.3542,288.0778,433.8542,288.0778,433.8542,279.7445,427.6042,273.4945,421.3542,273.4945" style="stroke:#5E5E5E;stroke-width:1.5625;"/><line style="stroke:#5E5E5E;stroke-width:1.5625;" x1="427.6042" x2="427.6042" y1="273.4945" y2="279.7445"/><line style="stroke:#5E5E5E;stroke-width:1.5625;" x1="433.8542" x2="427.6042" y1="279.7445" y2="279.7445"/><text fill="#D8BC00" font-family="Open Sans,Avenir,Nunito,Arial,Helvetica,SansSerif" font-size="12.5" lengthAdjust="spacing" textLength="57.2917" x="357.8125" y="297.0378">objenesis</text><!--MD5=[92e2ad58d19962135e7ff93f22958550]
entity asm--><rect fill="#1B1B1A" height="44.93" rx="8.3333" ry="8.3333" style="stroke:#5E5E5E;stroke-width:1.5625;" width="62.5" x="7.2917" y="375.5778"/><polygon fill="#1B1B1A" points="52.0833,380.7861,52.0833,395.3695,64.5833,395.3695,64.5833,387.0361,58.3333,380.7861,52.0833,380.7861" style="stroke:#5E5E5E;stroke-width:1.5625;"/><line style="stroke:#5E5E5E;stroke-width:1.5625;" x1="58.3333" x2="58.3333" y1="380.7861" y2="387.0361"/><line style="stroke:#5E5E5E;stroke-width:1.5625;" x1="64.5833" x2="58.3333" y1="387.0361" y2="387.0361"/><text fill="#D8BC00" font-family="Open Sans,Avenir,Nunito,Arial,Helvetica,SansSerif" font-size="12.5" lengthAdjust="spacing" textLength="25" x="20.8333" y="404.3294">asm</text><!--MD5=[d68e7c4b3ca5f037bcb6997a0b4ed16b]
link junit to hamcrest_core--><path d="M936.4583,420.8174 C936.4583,437.2861 936.4583,459.984 936.4583,477.5361 " fill="none" id="junit-to-hamcrest_core" style="stroke:#545454;stroke-width:1.5625;"/><polygon fill="#545454" points="936.4583,482.8174,940.625,473.4424,936.4583,477.609,932.2917,473.4424,936.4583,482.8174" style="stroke:#545454;stroke-width:1.5625;"/><!--MD5=[a2f7c49e80f0067c62cb523636c9f00e]
link kivakit_kernel to annotations--><path d="M650.5417,303.807 C744.8125,322.9111 923.4792,359.5778 986.4583,375.5778 C990.8125,376.682 995.2917,377.8799 999.8021,379.1195 " fill="none" id="kivakit_kernel-to-annotations" style="stroke:#545454;stroke-width:1.5625;"/><polygon fill="#545454" points="1005.0833,380.5986,997.1725,374.0663,1000.0665,379.1993,994.9336,382.0933,1005.0833,380.5986" style="stroke:#545454;stroke-width:1.5625;"/><!--MD5=[4bb5cdf1dd69a57413676b3f513d3923]
link kivakit_kernel to cactus_build_metadata--><path d="M549.2396,313.2653 C516,330.5674 469.3438,354.859 434.8646,372.8174 " fill="none" id="kivakit_kernel-to-cactus_build_metadata" style="stroke:#545454;stroke-width:1.5625;"/><polygon fill="#545454" points="429.8646,375.4215,440.1041,374.7859,434.4838,373.0154,436.2543,367.3951,429.8646,375.4215" style="stroke:#545454;stroke-width:1.5625;"/><!--MD5=[ce1de3a0fcf0456409f45c00bcbf6819]
link kivakit_kernel to jackson_annotations--><path d="M530.3958,307.359 C461.3646,325.2861 347.7396,354.7861 269.8854,375.0049 " fill="none" id="kivakit_kernel-to-jackson_annotations" style="stroke:#545454;stroke-width:1.5625;"/><polygon fill="#545454" points="264.8125,376.3174,274.9337,377.9948,269.8537,375.0087,272.8398,369.9288,264.8125,376.3174" style="stroke:#545454;stroke-width:1.5625;"/><!--MD5=[1866acf2ddf7045e9492d220d182168e]
link kivakit_kernel to junit--><path d="M650.5625,306.5361 C710.5938,321.8903 805.3125,347.5361 885.4167,375.5778 C890.0104,377.182 894.7813,378.9945 899.4896,380.859 " fill="none" id="kivakit_kernel-to-junit" style="stroke:#545454;stroke-width:1.5625;"/><polygon fill="#545454" points="904.5521,382.9007,897.4225,375.5237,899.7235,380.9484,894.2988,383.2494,904.5521,382.9007" style="stroke:#545454;stroke-width:1.5625;"/><!--MD5=[049e1cbc60d7a94f708d5cd284874347]
link kivakit_kernel to lexakai_annotations--><path d="M590.625,313.5257 C590.625,329.9945 590.625,352.6924 590.625,370.2445 " fill="none" id="kivakit_kernel-to-lexakai_annotations" style="stroke:#545454;stroke-width:1.5625;"/><polygon fill="#545454" points="590.625,375.5257,594.7917,366.1507,590.625,370.3174,586.4583,366.1507,590.625,375.5257" style="stroke:#545454;stroke-width:1.5625;"/><!--MD5=[ceaa58f2fdab01bf1e0ddaf38b77f8a7]
link kivakit_kernel to swagger_annotations--><path d="M630.7292,313.2653 C662.9375,330.5674 708.1563,354.859 741.5729,372.8174 " fill="none" id="kivakit_kernel-to-swagger_annotations" style="stroke:#545454;stroke-width:1.5625;"/><polygon fill="#545454" points="746.4063,375.4215,740.1304,367.3058,741.8214,372.9505,736.1767,374.6415,746.4063,375.4215" style="stroke:#545454;stroke-width:1.5625;"/><!--MD5=[9c9a2778f104e0767a948d41741e71ce]
link kivakit_serialization_core to kivakit_kernel--><path d="M538.5938,206.234 C548.9583,222.8486 563.2708,245.7861 574.2604,263.4111 " fill="none" id="kivakit_serialization_core-to-kivakit_kernel" style="stroke:#545454;stroke-width:1.5625;"/><polygon fill="#545454" points="577.2708,268.234,575.8508,258.0736,574.5171,263.8132,568.7775,262.4795,577.2708,268.234" style="stroke:#545454;stroke-width:1.5625;"/><!--MD5=[d2bf964ad93828bbd6db58c445a24c18]
link kivakit_serialization_json to gson--><path d="M747.9167,206.234 C747.9167,222.7028 747.9167,245.4007 747.9167,262.9528 " fill="none" id="kivakit_serialization_json-to-gson" style="stroke:#545454;stroke-width:1.5625;"/><polygon fill="#545454" points="747.9167,268.234,752.0833,258.859,747.9167,263.0257,743.75,258.859,747.9167,268.234" style="stroke:#545454;stroke-width:1.5625;"/><!--MD5=[bd8ffdf9ed53e7a9e4d2b803aca0e58d]
link kivakit_serialization_kryo to kivakit_serialization_core--><path d="M702.5417,98.557 C665.625,115.984 613.5729,140.5465 575.375,158.5778 " fill="none" id="kivakit_serialization_kryo-to-kivakit_serialization_core" style="stroke:#545454;stroke-width:1.5625;"/><polygon fill="#545454" points="570.3125,160.9632,580.5694,160.7461,575.0261,158.7477,577.0246,153.2043,570.3125,160.9632" style="stroke:#545454;stroke-width:1.5625;"/><!--MD5=[19b1e15b14c7ce5e4068d5bfe7f377e5]
link kivakit_serialization_kryo to kivakit_serialization_json--><path d="M747.9167,98.9424 C747.9167,115.4111 747.9167,138.109 747.9167,155.6611 " fill="none" id="kivakit_serialization_kryo-to-kivakit_serialization_json" style="stroke:#545454;stroke-width:1.5625;"/><polygon fill="#545454" points="747.9167,160.9424,752.0833,151.5674,747.9167,155.734,743.75,151.5674,747.9167,160.9424" style="stroke:#545454;stroke-width:1.5625;"/><!--MD5=[a3a5de1ed4a478fd6edcd6cc9653b0d8]
link kivakit_serialization_kryo to kivakit_test--><path d="M785.0313,98.682 C814.7188,115.9215 856.3438,140.0778 887.2396,158.0153 " fill="none" id="kivakit_serialization_kryo-to-kivakit_test" style="stroke:#545454;stroke-width:1.5625;"/><polygon fill="#545454" points="892.1042,160.8382,886.0903,152.5265,887.6005,158.2222,881.9047,159.7324,892.1042,160.8382" style="stroke:#545454;stroke-width:1.5625;"/><!--MD5=[40faeed4b9f18330bf0f83fa88774571]
link kivakit_serialization_kryo to kryo--><path d="M658.8542,98.557 C563.1563,121.5674 415.6458,157.0465 347.3958,173.4528 " fill="none" id="kivakit_serialization_kryo-to-kryo" style="stroke:#545454;stroke-width:1.5625;"/><polygon fill="#545454" points="342.2188,174.7028,352.3041,176.5834,347.2853,173.4958,350.3729,168.4769,342.2188,174.7028" style="stroke:#545454;stroke-width:1.5625;"/><!--MD5=[03df8de183ef6689edc51eb2e13fe23e]
link kivakit_serialization_kryo to kryo_serializers--><path d="M816.1979,98.557 C873.2813,116.4632 954.4063,141.9111 1012.2604,160.057 " fill="none" id="kivakit_serialization_kryo-to-kryo_serializers" style="stroke:#545454;stroke-width:1.5625;"/><polygon fill="#545454" points="1017.4375,161.682,1009.7436,154.8955,1012.4689,160.12,1007.2444,162.8453,1017.4375,161.682" style="stroke:#545454;stroke-width:1.5625;"/><!--MD5=[8c32f0e7b0abeba01afd276f5a66ee84]
link kryo to minlog--><path d="M278.5729,203.2445 C249.1042,220.6507 205.1354,246.6195 173.0938,265.5361 " fill="none" id="kryo-to-minlog" style="stroke:#545454;stroke-width:1.5625;"/><polygon fill="#545454" points="168.4583,268.2757,178.6505,267.1049,172.9453,265.6311,174.4191,259.9258,168.4583,268.2757" style="stroke:#545454;stroke-width:1.5625;"/><!--MD5=[e75c16e47fcf6c43b15d3c25536a9ed0]
link kryo to objenesis--><path d="M327.25,206.234 C340.1875,222.984 358.1042,246.182 371.7604,263.859 " fill="none" id="kryo-to-objenesis" style="stroke:#545454;stroke-width:1.5625;"/><polygon fill="#545454" points="375.1354,268.234,372.7011,258.2678,371.9512,264.1124,366.1066,263.3625,375.1354,268.234" style="stroke:#545454;stroke-width:1.5625;"/><!--MD5=[e061beb27669383d030ce0c5c656b006]
link kryo to reflectasm--><path d="M299.4063,206.234 C291.0208,222.8486 279.4375,245.7861 270.5417,263.4111 " fill="none" id="kryo-to-reflectasm" style="stroke:#545454;stroke-width:1.5625;"/><polygon fill="#545454" points="268.1042,268.234,276.0485,261.7425,270.4512,263.5845,268.6092,257.9873,268.1042,268.234" style="stroke:#545454;stroke-width:1.5625;"/><!--MD5=[338783537f3f9263e4097f5ff0c514d3]
link reflectasm to asm--><path d="M212.7604,313.1403 C172.1146,332.6924 112.7604,361.234 74.9063,379.4424 " fill="none" id="reflectasm-to-asm" style="stroke:#545454;stroke-width:1.5625;"/><polygon fill="#545454" points="69.9375,381.8278,80.1925,381.5326,74.6341,379.5764,76.5903,374.018,69.9375,381.8278" style="stroke:#545454;stroke-width:1.5625;"/><!--MD5=[fd24bbf86cb366a4f8efbdc4cd1f14f9]
@startuml

    !include lexakai.theme
    
    title "kivakit-serialization-kryo"
    
    artifact kryo
    artifact minlog
    artifact reflectasm
    artifact jackson_annotations
    artifact gson
    artifact cactus_build_metadata
    artifact kivakit_kernel
    artifact kivakit_serialization_core
    artifact kivakit_serialization_json
    artifact kivakit_serialization_kryo
    artifact kivakit_test
    artifact lexakai_annotations
    artifact kryo_serializers
    artifact swagger_annotations
    artifact junit
    artifact hamcrest_core
    artifact annotations
    artifact objenesis
    artifact asm
    junit - -> hamcrest_core
    kivakit_kernel - -> annotations
    kivakit_kernel - -> cactus_build_metadata
    kivakit_kernel - -> jackson_annotations
    kivakit_kernel - -> junit
    kivakit_kernel - -> lexakai_annotations
    kivakit_kernel - -> swagger_annotations
    kivakit_serialization_core - -> kivakit_kernel
    kivakit_serialization_json - -> gson
    kivakit_serialization_kryo - -> kivakit_serialization_core
    kivakit_serialization_kryo - -> kivakit_serialization_json
    kivakit_serialization_kryo - -> kivakit_test
    kivakit_serialization_kryo - -> kryo
    kivakit_serialization_kryo - -> kryo_serializers
    kryo - -> minlog
    kryo - -> objenesis
    kryo - -> reflectasm
    reflectasm - -> asm
    
@enduml

@startuml









skinparam backgroundColor #333333






skinparam  {
    defaultFontName   "Open Sans,Avenir,Nunito,Arial,Helvetica,SansSerif"
    defaultFontSize   12
    defaultTextAlignment left
    shadowing false
    RoundCorner 10
    TitleFontSize 18
}

skinparam defaultFontName       "Open Sans,Avenir,Nunito,Arial,Helvetica,SansSerif"
skinparam defaultFontSize       12
skinparam dpi                   100
skinparam shadowing             false
skinparam roundcorner           16
skinparam ParticipantPadding    40
skinparam BoxPadding            40
skinparam Padding               3
skinparam ArrowColor            #545454
skinparam stereotype {
    CBackgroundColor #0066cf
    CBorderColor #0086ef
    ABackgroundColor #C8Ac00
    ABorderColor #D8Bc00
    IBackgroundColor #008400
    IBorderColor #239c23
    EBackgroundColor #cf6300
    EBorderColor #ef8300
    NBackgroundColor #3380b9
    NBorderColor #004d86
}
skinparam title {
	FontColor	                 #c0c0c0
 	BorderColor                  #545454
	FontSize	    	         20
	BorderRoundCorner            16
	BorderThickness 	         1
	BackgroundColor              #48494b
}


skinparam legend {
	BackgroundColor #303030
	BorderColor #404040
	FontColor #a0a0a0
}

	skinparam swimlane {
	BorderColor #5e5e5e
	BorderThickness 2
	TitleBackgroundColor  #6d6d6d-#484848
	TitleFontColor #303030
}

skinparam activity {
		FontColor #C8Ac00
	BorderColor #333333
	BackgroundColor #333333-#333333
	BarColor #00FF00
	StartColor #0060a8
	EndColor #0060a8
	DiamondBackgroundColor #6d6d6d-#3a3a3a
  	DiamondBorderColor #3a3a3a
  	DiamondFontColor #fefefe
}


skinparam participant {
		FontColor #C8Ac00
	BorderColor #333333
	BackgroundColor #333333-#333333
	ParticipantBorderThickness 2
}


skinparam actor {
		FontColor #C8Ac00
	BorderColor #333333
	BackgroundColor #333333-#333333
}


skinparam arrow {
	Thickness 1.5
	Color #545454
	FontColor #a0a0a0
    FontStyle bold
    MessageAlignment center
}



skinparam sequence {
	BorderColor #303030
	TitleFontColor #303030
	BackgroundColor #333333
	StartColor #303030
	EndColor #303030
	BoxBackgroundColor #333333
	BoxBorderColor #484848
	BoxFontColor #484848
	LifeLineBorderColor #484848
	LifeLineBorderThickness 2
	LifeLineBackgroundColor #3a3a3a
	GroupBorderColor #484848
	GroupFontColor #484848
	GroupHeaderFontColor #0060a8
	GroupBackgroundColor #484848
	GroupHeaderBackgroundColor #333333
	DividerBackgroundColor #484848
    DividerBorderColor #484848
    DividerBorderThickness 2
    DividerFontColor #D8Bc00
	ReferenceBackgroundColor #333333
	ReferenceBorderColor #484848
	ReferenceFontColor #fefefe
	ReferenceHeaderBackgroundColor #484848
}


skinparam partition {
	BorderColor #303030
	FontColor #333333
	BackgroundColor #333333
}


skinparam collections {
		FontColor #C8Ac00
	BorderColor #333333
	BackgroundColor #333333-#333333
}


skinparam control {
		FontColor #C8Ac00
	BorderColor #333333
	BackgroundColor #333333-#333333
}


skinparam entity {
		FontColor #C8Ac00
	BorderColor #333333
	BackgroundColor #333333-#333333
}


skinparam boundary {
		FontColor #C8Ac00
	BorderColor #333333
	BackgroundColor #333333-#333333
}


skinparam agent {
	BackgroundColor #ff8000
	BorderColor #ff9933
	FontColor #484848
}


skinparam note {
	BorderThickness 1
	BackgroundColor #1b1b1a
	BorderColor #5e5e5e
	FontSize 11
	FontColor #a0a0a0
}


skinparam artifact {
	BorderThickness 10
	BorderColor #5e5e5e
	BackgroundColor #1b1b1a
	FontColor #D8Bc00
}


skinparam component {
		FontColor #C8Ac00
	BorderColor #333333
	BackgroundColor #333333-#333333
}


skinparam interface {
	BackgroundColor  #008400
	BorderColor  #007F00
	FontColor #484848
}


skinparam storage {
	BackgroundColor #ff8000
  	BorderColor #cc6600
	FontColor #222222
}


skinparam node {
	BackgroundColor #333333
	BorderColor #333333
	FontColor #C8Ac00
}


skinparam cloud {
	BackgroundColor #484848-black
	BorderColor #484848
	FontColor #D8Bc00
}


skinparam database {
		FontColor #C8Ac00
	BorderColor #333333
	BackgroundColor #333333-#333333
	BackgroundColor  #333333
}


skinparam class {
		FontColor #C8Ac00
	BorderColor #333333
	BackgroundColor #333333-#333333
	HeaderBackgroundColor #1b1b1a
    BackgroundColor #282828
    BorderColor #5e5e5e
 	StereotypeFontColor #a0a0a0
    StereotypeFontStyle bold
	BorderThickness 1
	AttributeFontColor #D8Bc00
	AttributeFontSize 11
    FontColor #D8Bc00
    FontStyle bold
}


skinparam object {
		FontColor #C8Ac00
	BorderColor #333333
	BackgroundColor #333333-#333333
	StereotypeFontColor #484848
	BorderThickness 1
	AttributeFontColor #fefefe
	AttributeFontSize 11
}


skinparam usecase {
		FontColor #C8Ac00
	BorderColor #333333
	BackgroundColor #333333-#333333
	BorderThickness 2
	StereotypeFontColor #303030
}


skinparam rectangle {
		FontColor #C8Ac00
	BorderColor #333333
	BackgroundColor #333333-#333333
	BackgroundColor #333333
	BorderThickness 2
	StereotypeFontColor #303030
}


skinparam package {
		FontColor #C8Ac00
	BorderColor #333333
	BackgroundColor #333333-#333333
	BackgroundColor #333333
	BorderThickness 2
}


skinparam folder {
	BackgroundColor #6d6d6d
  	BorderColor #ff8000
	FontColor #ff8000
	BorderThickness 2
}


skinparam frame {
	BackgroundColor #6d6d6d
  	BorderColor #0060a8
	FontColor #0060a8
	BorderThickness 2
}


skinparam state {
		FontColor #C8Ac00
	BorderColor #333333
	BackgroundColor #333333-#333333
	StartColor #0060a8
	EndColor #0060a8
	AttributeFontColor #fefefe
	AttributeFontSize 11
}


skinparam queue {
		FontColor #C8Ac00
	BorderColor #333333
	BackgroundColor #333333-#333333
}


skinparam card {
	BackgroundColor #0060a8
	BorderColor #004d86
	FontColor $INFO_TEXT
}


skinparam file {
	BackgroundColor #6d6d6d-#484848
	BorderColor #0060a8
	FontColor #fefefe
}


skinparam stack {
		FontColor #C8Ac00
	BorderColor #333333
	BackgroundColor #333333-#333333
}

    
    title "kivakit-serialization-kryo"
    
    artifact kryo
    artifact minlog
    artifact reflectasm
    artifact jackson_annotations
    artifact gson
    artifact cactus_build_metadata
    artifact kivakit_kernel
    artifact kivakit_serialization_core
    artifact kivakit_serialization_json
    artifact kivakit_serialization_kryo
    artifact kivakit_test
    artifact lexakai_annotations
    artifact kryo_serializers
    artifact swagger_annotations
    artifact junit
    artifact hamcrest_core
    artifact annotations
    artifact objenesis
    artifact asm
    junit - -> hamcrest_core
    kivakit_kernel - -> annotations
    kivakit_kernel - -> cactus_build_metadata
    kivakit_kernel - -> jackson_annotations
    kivakit_kernel - -> junit
    kivakit_kernel - -> lexakai_annotations
    kivakit_kernel - -> swagger_annotations
    kivakit_serialization_core - -> kivakit_kernel
    kivakit_serialization_json - -> gson
    kivakit_serialization_kryo - -> kivakit_serialization_core
    kivakit_serialization_kryo - -> kivakit_serialization_json
    kivakit_serialization_kryo - -> kivakit_test
    kivakit_serialization_kryo - -> kryo
    kivakit_serialization_kryo - -> kryo_serializers
    kryo - -> minlog
    kryo - -> objenesis
    kryo - -> reflectasm
    reflectasm - -> asm
    
@enduml

PlantUML version 1.2021.01(Tue Feb 02 00:55:08 MST 2021)
(GPL source distribution)
Java Runtime: Java(TM) SE Runtime Environment
JVM: Java HotSpot(TM) 64-Bit Server VM
Default Encoding: UTF-8
Language: en
Country: US
--></g></svg>