<?xml version="1.0" encoding="UTF-8" standalone="no"?><svg xmlns="http://www.w3.org/2000/svg" xmlns:xlink="http://www.w3.org/1999/xlink" contentScriptType="application/ecmascript" contentStyleType="text/css" height="147.9167px" preserveAspectRatio="none" style="width:459px;height:147px;background:#333333;" version="1.1" viewBox="0 0 459 147" width="459.375px" zoomAndPan="magnify"><defs/><g><rect fill="#48494B" height="41.2028" rx="8.3333" ry="8.3333" style="stroke:#545454;stroke-width:1.0416666666666667;" width="446.875" x="2.0833" y="2.0833"/><text fill="#C0C0C0" font-family="Open Sans,Avenir,Nunito,Arial,Helvetica,SansSerif" font-size="20.8333" lengthAdjust="spacing" textLength="423.9583" x="13.5417" y="30.5583">com.telenav.kivakit.interfaces.serialization</text><rect codeLine="7" fill="#282828" height="87.5448" id="SerializedObject" rx="8.3333" ry="8.3333" style="stroke:#5E5E5E;stroke-width:1.0416666666666667;" width="150" x="151.0417" y="53.7028"/><rect fill="#1B1B1A" height="31.3883" rx="8.3333" ry="8.3333" style="stroke:#1B1B1A;stroke-width:1.0416666666666667;" width="150" x="151.0417" y="53.7028"/><rect fill="#1B1B1A" height="8.3333" style="stroke:#1B1B1A;stroke-width:1.0416666666666667;" width="150" x="151.0417" y="76.7578"/><rect codeLine="7" fill="none" height="87.5448" id="SerializedObject" rx="8.3333" ry="8.3333" style="stroke:#5E5E5E;stroke-width:1.0416666666666667;" width="150" x="151.0417" y="53.7028"/><ellipse cx="169.375" cy="69.397" fill="#008400" rx="10.4167" ry="10.4167" style="stroke:#239C23;stroke-width:1.0416666666666667;"/><path d="M166.779,66.5588 L166.779,64.9719 L172.205,64.9719 L172.205,66.5588 L170.3923,66.5588 L170.3923,72.4976 L172.205,72.4976 L172.205,74.0845 L166.779,74.0845 L166.779,72.4976 L168.5917,72.4976 L168.5917,66.5588 Z " fill="#000000"/><text fill="#D8BC00" font-family="Open Sans,Avenir,Nunito,Arial,Helvetica,SansSerif" font-size="12.5" font-style="italic" font-weight="bold" lengthAdjust="spacing" textLength="104.1667" x="186.875" y="74.1211">SerializedObject</text><line style="stroke:#5E5E5E;stroke-width:1.5625;" x1="152.0833" x2="300" y1="85.0911" y2="85.0911"/><line style="stroke:#5E5E5E;stroke-width:1.0416666666666667;" x1="152.0833" x2="300" y1="93.4245" y2="93.4245"/><ellipse cx="162.5" cy="104.8828" fill="#84BE84" rx="3.125" ry="3.125" style="stroke:#038048;stroke-width:1.0416666666666667;"/><text fill="#D8BC00" font-family="Open Sans,Avenir,Nunito,Arial,Helvetica,SansSerif" font-size="11.4583" lengthAdjust="spacing" textLength="117.7083" x="173.9583" y="111.794">void onDeserialized()</text><ellipse cx="162.5" cy="124.6277" fill="#84BE84" rx="3.125" ry="3.125" style="stroke:#038048;stroke-width:1.0416666666666667;"/><text fill="#D8BC00" font-family="Open Sans,Avenir,Nunito,Arial,Helvetica,SansSerif" font-size="11.4583" lengthAdjust="spacing" textLength="107.2917" x="173.9583" y="131.5389">void onSerializing()</text></g></svg>
