<?xml version="1.0" encoding="UTF-8" standalone="no"?><svg xmlns="http://www.w3.org/2000/svg" xmlns:xlink="http://www.w3.org/1999/xlink" contentScriptType="application/ecmascript" contentStyleType="text/css" height="412.5px" preserveAspectRatio="none" style="width:565px;height:412px;background:#333333;" version="1.1" viewBox="0 0 565 412" width="565.625px" zoomAndPan="magnify"><defs/><g><rect fill="#48494B" height="41.2028" rx="8.3333" ry="8.3333" style="stroke:#545454;stroke-width:1.0416666666666667;" width="226.0417" x="162.5" y="2.0833"/><text fill="#C0C0C0" font-family="Open Sans,Avenir,Nunito,Arial,Helvetica,SansSerif" font-size="20.8333" lengthAdjust="spacing" textLength="203.125" x="173.9583" y="30.5583">diagram-messaging</text><rect codeLine="8" fill="#282828" height="146.7794" id="Receiver" rx="8.3333" ry="8.3333" style="stroke:#5E5E5E;stroke-width:1.0416666666666667;" width="253.125" x="7.2917" y="89.6403"/><rect fill="#1B1B1A" height="31.3883" rx="8.3333" ry="8.3333" style="stroke:#1B1B1A;stroke-width:1.0416666666666667;" width="253.125" x="7.2917" y="89.6403"/><rect fill="#1B1B1A" height="8.3333" style="stroke:#1B1B1A;stroke-width:1.0416666666666667;" width="253.125" x="7.2917" y="112.6953"/><rect codeLine="8" fill="none" height="146.7794" id="Receiver" rx="8.3333" ry="8.3333" style="stroke:#5E5E5E;stroke-width:1.0416666666666667;" width="253.125" x="7.2917" y="89.6403"/><ellipse cx="100" cy="105.3345" fill="#008400" rx="10.4167" ry="10.4167" style="stroke:#239C23;stroke-width:1.0416666666666667;"/><path d="M97.404,102.4963 L97.404,100.9094 L102.83,100.9094 L102.83,102.4963 L101.0173,102.4963 L101.0173,108.4351 L102.83,108.4351 L102.83,110.022 L97.404,110.022 L97.404,108.4351 L99.2167,108.4351 L99.2167,102.4963 Z " fill="#000000"/><text fill="#D8BC00" font-family="Open Sans,Avenir,Nunito,Arial,Helvetica,SansSerif" font-size="12.5" font-style="italic" font-weight="bold" lengthAdjust="spacing" textLength="53.125" x="122.9167" y="110.0586">Receiver</text><line style="stroke:#5E5E5E;stroke-width:1.5625;" x1="8.3333" x2="259.375" y1="121.0286" y2="121.0286"/><ellipse cx="18.75" cy="156.3985" fill="#84BE84" rx="3.125" ry="3.125" style="stroke:#038048;stroke-width:1.0416666666666667;"/><text fill="#D8BC00" font-family="Open Sans,Avenir,Nunito,Arial,Helvetica,SansSerif" font-size="11.4583" lengthAdjust="spacing" textLength="118.75" x="30.2083" y="163.3097">boolean isReceiving()</text><line style="stroke:#5E5E5E;stroke-width:1.0416666666666667;" x1="8.3333" x2="107.2917" y1="139.2344" y2="139.2344"/><text fill="#D8BC00" font-family="Open Sans,Avenir,Nunito,Arial,Helvetica,SansSerif" font-size="11.4583" lengthAdjust="spacing" textLength="46.875" x="110.4167" y="143.044">(checks)</text><line style="stroke:#5E5E5E;stroke-width:1.0416666666666667;" x1="160.4167" x2="259.375" y1="139.2344" y2="139.2344"/><ellipse cx="18.75" cy="200.0549" fill="#84BE84" rx="3.125" ry="3.125" style="stroke:#038048;stroke-width:1.0416666666666667;"/><text fill="#D8BC00" font-family="Open Sans,Avenir,Nunito,Arial,Helvetica,SansSerif" font-size="11.4583" lengthAdjust="spacing" textLength="220.8333" x="30.2083" y="206.9661">void onReceive(Transmittable message)</text><ellipse cx="18.75" cy="219.7998" fill="#84BE84" rx="3.125" ry="3.125" style="stroke:#038048;stroke-width:1.0416666666666667;"/><text fill="#D8BC00" font-family="Open Sans,Avenir,Nunito,Arial,Helvetica,SansSerif" font-size="11.4583" lengthAdjust="spacing" textLength="201.0417" x="30.2083" y="226.711">MessageType receive(MessageType)</text><line style="stroke:#5E5E5E;stroke-width:1.0416666666666667;" x1="8.3333" x2="96.3542" y1="182.8908" y2="182.8908"/><text fill="#D8BC00" font-family="Open Sans,Avenir,Nunito,Arial,Helvetica,SansSerif" font-size="11.4583" lengthAdjust="spacing" textLength="68.75" x="99.4792" y="186.7004">(messaging)</text><line style="stroke:#5E5E5E;stroke-width:1.0416666666666667;" x1="171.3542" x2="259.375" y1="182.8908" y2="182.8908"/><rect codeLine="17" fill="#282828" height="48.055" id="Transmittable" rx="8.3333" ry="8.3333" style="stroke:#5E5E5E;stroke-width:1.0416666666666667;" width="128.125" x="216.6667" y="357.8695"/><rect fill="#1B1B1A" height="31.3883" rx="8.3333" ry="8.3333" style="stroke:#1B1B1A;stroke-width:1.0416666666666667;" width="128.125" x="216.6667" y="357.8695"/><rect fill="#1B1B1A" height="8.3333" style="stroke:#1B1B1A;stroke-width:1.0416666666666667;" width="128.125" x="216.6667" y="380.9245"/><rect codeLine="17" fill="none" height="48.055" id="Transmittable" rx="8.3333" ry="8.3333" style="stroke:#5E5E5E;stroke-width:1.0416666666666667;" width="128.125" x="216.6667" y="357.8695"/><ellipse cx="231.25" cy="373.5636" fill="#008400" rx="10.4167" ry="10.4167" style="stroke:#239C23;stroke-width:1.0416666666666667;"/><path d="M228.654,370.7255 L228.654,369.1386 L234.08,369.1386 L234.08,370.7255 L232.2673,370.7255 L232.2673,376.6642 L234.08,376.6642 L234.08,378.2511 L228.654,378.2511 L228.654,376.6642 L230.4667,376.6642 L230.4667,370.7255 Z " fill="#000000"/><text fill="#D8BC00" font-family="Open Sans,Avenir,Nunito,Arial,Helvetica,SansSerif" font-size="12.5" font-style="italic" font-weight="bold" lengthAdjust="spacing" textLength="90.625" x="247.9167" y="378.2878">Transmittable</text><line style="stroke:#5E5E5E;stroke-width:1.0416666666666667;" x1="217.7083" x2="343.75" y1="389.2578" y2="389.2578"/><line style="stroke:#5E5E5E;stroke-width:1.0416666666666667;" x1="217.7083" x2="343.75" y1="397.5911" y2="397.5911"/><rect codeLine="22" fill="#282828" height="218.514" id="Transmitter" rx="8.3333" ry="8.3333" style="stroke:#5E5E5E;stroke-width:1.0416666666666667;" width="261.4583" x="296.875" y="53.7028"/><rect fill="#1B1B1A" height="31.3883" rx="8.3333" ry="8.3333" style="stroke:#1B1B1A;stroke-width:1.0416666666666667;" width="261.4583" x="296.875" y="53.7028"/><rect fill="#1B1B1A" height="8.3333" style="stroke:#1B1B1A;stroke-width:1.0416666666666667;" width="261.4583" x="296.875" y="76.7578"/><rect codeLine="22" fill="none" height="218.514" id="Transmitter" rx="8.3333" ry="8.3333" style="stroke:#5E5E5E;stroke-width:1.0416666666666667;" width="261.4583" x="296.875" y="53.7028"/><ellipse cx="382.2917" cy="69.397" fill="#008400" rx="10.4167" ry="10.4167" style="stroke:#239C23;stroke-width:1.0416666666666667;"/><path d="M379.6956,66.5588 L379.6956,64.9719 L385.1217,64.9719 L385.1217,66.5588 L383.3089,66.5588 L383.3089,72.4976 L385.1217,72.4976 L385.1217,74.0845 L379.6956,74.0845 L379.6956,72.4976 L381.5084,72.4976 L381.5084,66.5588 Z " fill="#000000"/><text fill="#D8BC00" font-family="Open Sans,Avenir,Nunito,Arial,Helvetica,SansSerif" font-size="12.5" font-style="italic" font-weight="bold" lengthAdjust="spacing" textLength="76.0417" x="405.2083" y="74.1211">Transmitter</text><line style="stroke:#5E5E5E;stroke-width:1.5625;" x1="297.9167" x2="557.2917" y1="85.0911" y2="85.0911"/><line style="stroke:#5E5E5E;stroke-width:1.0416666666666667;" x1="297.9167" x2="557.2917" y1="93.4245" y2="93.4245"/><ellipse cx="308.3333" cy="104.8828" fill="#84BE84" rx="3.125" ry="3.125" style="stroke:#038048;stroke-width:1.0416666666666667;"/><text fill="#D8BC00" font-family="Open Sans,Avenir,Nunito,Arial,Helvetica,SansSerif" font-size="11.4583" lengthAdjust="spacing" textLength="188.5417" x="319.7917" y="111.794">void transmitting(boolean enable)</text><ellipse cx="308.3333" cy="148.5392" fill="#84BE84" rx="3.125" ry="3.125" style="stroke:#038048;stroke-width:1.0416666666666667;"/><text fill="#D8BC00" font-family="Open Sans,Avenir,Nunito,Arial,Helvetica,SansSerif" font-size="11.4583" lengthAdjust="spacing" textLength="137.5" x="319.7917" y="155.4504">boolean isTransmitting()</text><line style="stroke:#5E5E5E;stroke-width:1.0416666666666667;" x1="297.9167" x2="401.0417" y1="131.3751" y2="131.3751"/><text fill="#D8BC00" font-family="Open Sans,Avenir,Nunito,Arial,Helvetica,SansSerif" font-size="11.4583" lengthAdjust="spacing" textLength="46.875" x="404.1667" y="135.1847">(checks)</text><line style="stroke:#5E5E5E;stroke-width:1.0416666666666667;" x1="454.1667" x2="557.2917" y1="131.3751" y2="131.3751"/><ellipse cx="308.3333" cy="192.1956" fill="#84BE84" rx="3.125" ry="3.125" style="stroke:#038048;stroke-width:1.0416666666666667;"/><text fill="#D8BC00" font-family="Open Sans,Avenir,Nunito,Arial,Helvetica,SansSerif" font-size="11.4583" lengthAdjust="spacing" textLength="187.5" x="319.7917" y="199.1069">T withoutTransmitting(Code&lt;T&gt;)</text><line style="stroke:#5E5E5E;stroke-width:1.0416666666666667;" x1="297.9167" x2="392.1875" y1="175.0315" y2="175.0315"/><text fill="#D8BC00" font-family="Open Sans,Avenir,Nunito,Arial,Helvetica,SansSerif" font-size="11.4583" lengthAdjust="spacing" textLength="64.5833" x="395.3125" y="178.8411">(functional)</text><line style="stroke:#5E5E5E;stroke-width:1.0416666666666667;" x1="463.0208" x2="557.2917" y1="175.0315" y2="175.0315"/><ellipse cx="308.3333" cy="235.8521" fill="#84BE84" rx="3.125" ry="3.125" style="stroke:#038048;stroke-width:1.0416666666666667;"/><text fill="#D8BC00" font-family="Open Sans,Avenir,Nunito,Arial,Helvetica,SansSerif" font-size="11.4583" lengthAdjust="spacing" textLength="229.1667" x="319.7917" y="242.7633">void onTransmit(Transmittable message)</text><ellipse cx="308.3333" cy="255.5969" fill="#84BE84" rx="3.125" ry="3.125" style="stroke:#038048;stroke-width:1.0416666666666667;"/><text fill="#D8BC00" font-family="Open Sans,Avenir,Nunito,Arial,Helvetica,SansSerif" font-size="11.4583" lengthAdjust="spacing" textLength="208.3333" x="319.7917" y="262.5081">MessageType transmit(MessageType)</text><line style="stroke:#5E5E5E;stroke-width:1.0416666666666667;" x1="297.9167" x2="390.1042" y1="218.6879" y2="218.6879"/><text fill="#D8BC00" font-family="Open Sans,Avenir,Nunito,Arial,Helvetica,SansSerif" font-size="11.4583" lengthAdjust="spacing" textLength="68.75" x="393.2292" y="222.4976">(messaging)</text><line style="stroke:#5E5E5E;stroke-width:1.0416666666666667;" x1="465.1042" x2="557.2917" y1="218.6879" y2="218.6879"/><path codeLine="7" d="M182.9688,236.5674 C210.0417,276.5049 242.0833,323.7757 261.9063,353.0257 " fill="none" id="Receiver-to-Transmittable" style="stroke:#545454;stroke-width:1.5625;"/><polygon fill="#545454" points="264.9896,357.557,263.1682,347.4607,262.0629,353.2487,256.275,352.1434,264.9896,357.557" style="stroke:#545454;stroke-width:1.5625;"/><text fill="#A0A0A0" font-family="Open Sans,Avenir,Nunito,Arial,Helvetica,SansSerif" font-size="12.5" font-weight="bold" lengthAdjust="spacing" textLength="52.0833" x="246.3542" y="319.9544">receives</text><path codeLine="21" d="M353.9479,272.7653 C333.7188,302.609 313.5104,332.4215 299.4688,353.1403 " fill="none" id="Transmitter-to-Transmittable" style="stroke:#545454;stroke-width:1.5625;"/><polygon fill="#545454" points="296.3958,357.682,305.0976,352.2478,299.3123,353.3668,298.1933,347.5814,296.3958,357.682" style="stroke:#545454;stroke-width:1.5625;"/><text fill="#A0A0A0" font-family="Open Sans,Avenir,Nunito,Arial,Helvetica,SansSerif" font-size="12.5" font-weight="bold" lengthAdjust="spacing" textLength="62.5" x="335.9375" y="319.9544">transmits</text></g></svg>
