<?xml version="1.0" encoding="UTF-8" standalone="no"?><svg xmlns="http://www.w3.org/2000/svg" xmlns:xlink="http://www.w3.org/1999/xlink" contentScriptType="application/ecmascript" contentStyleType="text/css" height="326.0417px" preserveAspectRatio="none" style="width:1517px;height:326px;background:#333333;" version="1.1" viewBox="0 0 1517 326" width="1517.7083px" zoomAndPan="magnify"><defs/><g><rect fill="#48494B" height="41.2028" rx="8.3333" ry="8.3333" style="stroke:#545454;stroke-width:1.0416666666666667;" width="251.0417" x="626.3021" y="2.0833"/><text fill="#C0C0C0" font-family="Open Sans,Avenir,Nunito,Arial,Helvetica,SansSerif" font-size="20.8333" lengthAdjust="spacing" textLength="228.125" x="637.7604" y="30.5583">Converters - Language</text><!--MD5=[762aa3d0df6a9d47bd8e105afbd066b5]
class BaseRepeater--><rect codeLine="7" fill="#282828" height="48.055" id="BaseRepeater" rx="8.3333" ry="8.3333" style="stroke:#5E5E5E;stroke-width:1.0416666666666667;" width="123.9583" x="119.7917" y="53.7028"/><rect fill="#1B1B1A" height="31.3883" rx="8.3333" ry="8.3333" style="stroke:#1B1B1A;stroke-width:1.0416666666666667;" width="123.9583" x="119.7917" y="53.7028"/><rect fill="#1B1B1A" height="8.3333" style="stroke:#1B1B1A;stroke-width:1.0416666666666667;" width="123.9583" x="119.7917" y="76.7578"/><rect codeLine="7" fill="none" height="48.055" id="BaseRepeater" rx="8.3333" ry="8.3333" style="stroke:#5E5E5E;stroke-width:1.0416666666666667;" width="123.9583" x="119.7917" y="53.7028"/><ellipse cx="134.375" cy="69.397" fill="#C8AC00" rx="10.4167" ry="10.4167" style="stroke:#D8BC00;stroke-width:1.0416666666666667;"/><path d="M133.9681,66.099 L133.1197,69.8283 L134.8226,69.8283 Z M132.8695,64.4511 L135.0728,64.4511 L137.5326,73.5636 L135.732,73.5636 L135.1705,71.3114 L132.7596,71.3114 L132.2103,73.5636 L130.4097,73.5636 Z " fill="#000000"/><text fill="#D8BC00" font-family="Open Sans,Avenir,Nunito,Arial,Helvetica,SansSerif" font-size="12.5" font-style="italic" font-weight="bold" lengthAdjust="spacing" textLength="86.4583" x="151.0417" y="74.1211">BaseRepeater</text><line style="stroke:#5E5E5E;stroke-width:1.0416666666666667;" x1="120.8333" x2="242.7083" y1="85.0911" y2="85.0911"/><line style="stroke:#5E5E5E;stroke-width:1.0416666666666667;" x1="120.8333" x2="242.7083" y1="93.4245" y2="93.4245"/><!--MD5=[9aa687ed59f428548907e723dba1087a]
class BaseStringConverter--><rect codeLine="8" fill="#282828" height="48.055" id="BaseStringConverter" rx="8.3333" ry="8.3333" style="stroke:#5E5E5E;stroke-width:1.0416666666666667;" width="169.7917" x="880.2083" y="53.7028"/><rect fill="#1B1B1A" height="31.3883" rx="8.3333" ry="8.3333" style="stroke:#1B1B1A;stroke-width:1.0416666666666667;" width="169.7917" x="880.2083" y="53.7028"/><rect fill="#1B1B1A" height="8.3333" style="stroke:#1B1B1A;stroke-width:1.0416666666666667;" width="169.7917" x="880.2083" y="76.7578"/><rect codeLine="8" fill="none" height="48.055" id="BaseStringConverter" rx="8.3333" ry="8.3333" style="stroke:#5E5E5E;stroke-width:1.0416666666666667;" width="169.7917" x="880.2083" y="53.7028"/><ellipse cx="894.7917" cy="69.397" fill="#C8AC00" rx="10.4167" ry="10.4167" style="stroke:#D8BC00;stroke-width:1.0416666666666667;"/><path d="M894.3848,66.099 L893.5364,69.8283 L895.2393,69.8283 Z M893.2861,64.4511 L895.4895,64.4511 L897.9492,73.5636 L896.1487,73.5636 L895.5872,71.3114 L893.1763,71.3114 L892.627,73.5636 L890.8264,73.5636 Z " fill="#000000"/><text fill="#D8BC00" font-family="Open Sans,Avenir,Nunito,Arial,Helvetica,SansSerif" font-size="12.5" font-style="italic" font-weight="bold" lengthAdjust="spacing" textLength="132.2917" x="911.4583" y="74.1211">BaseStringConverter</text><line style="stroke:#5E5E5E;stroke-width:1.0416666666666667;" x1="881.25" x2="1048.9583" y1="85.0911" y2="85.0911"/><line style="stroke:#5E5E5E;stroke-width:1.0416666666666667;" x1="881.25" x2="1048.9583" y1="93.4245" y2="93.4245"/><!--MD5=[9ade3e3e2a44f1696807b1fe499c88f6]
class ClassConverter--><rect codeLine="11" fill="#282828" height="103.123" id="ClassConverter" rx="8.3333" ry="8.3333" style="stroke:#5E5E5E;stroke-width:1.0416666666666667;" width="171.875" x="392.7083" y="190.1611"/><rect fill="#1B1B1A" height="31.3883" rx="8.3333" ry="8.3333" style="stroke:#1B1B1A;stroke-width:1.0416666666666667;" width="171.875" x="392.7083" y="190.1611"/><rect fill="#1B1B1A" height="8.3333" style="stroke:#1B1B1A;stroke-width:1.0416666666666667;" width="171.875" x="392.7083" y="213.2161"/><rect codeLine="11" fill="none" height="103.123" id="ClassConverter" rx="8.3333" ry="8.3333" style="stroke:#5E5E5E;stroke-width:1.0416666666666667;" width="171.875" x="392.7083" y="190.1611"/><ellipse cx="423.2292" cy="205.8553" fill="#0066CF" rx="10.4167" ry="10.4167" style="stroke:#0086EF;stroke-width:1.0416666666666667;"/><path d="M425.1396,210.2804 Q424.7123,210.5001 424.2424,210.6099 Q423.7724,210.7198 423.2536,210.7198 Q421.4103,210.7198 420.4399,209.5052 Q419.4694,208.2906 419.4694,205.9957 Q419.4694,203.6947 420.4399,202.4801 Q421.4103,201.2655 423.2536,201.2655 Q423.7724,201.2655 424.2485,201.3753 Q424.7245,201.4852 425.1396,201.7049 L425.1396,203.7069 Q424.6757,203.2796 424.2393,203.0813 Q423.8029,202.8829 423.339,202.8829 Q422.3503,202.8829 421.8467,203.6672 Q421.3432,204.4515 421.3432,205.9957 Q421.3432,207.5338 421.8467,208.3181 Q422.3503,209.1024 423.339,209.1024 Q423.8029,209.1024 424.2393,208.904 Q424.6757,208.7056 425.1396,208.2784 Z " fill="#000000"/><text fill="#D8BC00" font-family="Open Sans,Avenir,Nunito,Arial,Helvetica,SansSerif" font-size="12.5" font-weight="bold" lengthAdjust="spacing" textLength="98.9583" x="443.4375" y="210.5794">ClassConverter</text><line style="stroke:#5E5E5E;stroke-width:1.5625;" x1="393.75" x2="563.5417" y1="221.5495" y2="221.5495"/><ellipse cx="404.1667" cy="256.9194" fill="#84BE84" rx="3.125" ry="3.125" style="stroke:#038048;stroke-width:1.0416666666666667;"/><text fill="#D8BC00" font-family="Open Sans,Avenir,Nunito,Arial,Helvetica,SansSerif" font-size="11.4583" lengthAdjust="spacing" textLength="94.7917" x="415.625" y="263.8306">ClassConverter()</text><ellipse cx="404.1667" cy="276.6642" fill="#84BE84" rx="3.125" ry="3.125" style="stroke:#038048;stroke-width:1.0416666666666667;"/><text fill="#D8BC00" font-family="Open Sans,Avenir,Nunito,Arial,Helvetica,SansSerif" font-size="11.4583" lengthAdjust="spacing" textLength="139.5833" x="415.625" y="283.5754">ClassConverter(Listener)</text><line style="stroke:#5E5E5E;stroke-width:1.0416666666666667;" x1="393.75" x2="434.8958" y1="239.7552" y2="239.7552"/><text fill="#D8BC00" font-family="Open Sans,Avenir,Nunito,Arial,Helvetica,SansSerif" font-size="11.4583" lengthAdjust="spacing" textLength="81.25" x="438.0208" y="243.5649">(constructors)</text><line style="stroke:#5E5E5E;stroke-width:1.0416666666666667;" x1="522.3958" x2="563.5417" y1="239.7552" y2="239.7552"/><!--MD5=[6a058bae72d5bd84cf9d52dcfdfc7ff8]
class EnumConverter--><rect codeLine="19" fill="#282828" height="103.123" id="EnumConverter" rx="8.3333" ry="8.3333" style="stroke:#5E5E5E;stroke-width:1.0416666666666667;" width="235.4167" x="601.5625" y="190.1611"/><rect fill="#1B1B1A" height="31.3883" rx="8.3333" ry="8.3333" style="stroke:#1B1B1A;stroke-width:1.0416666666666667;" width="235.4167" x="601.5625" y="190.1611"/><rect fill="#1B1B1A" height="8.3333" style="stroke:#1B1B1A;stroke-width:1.0416666666666667;" width="235.4167" x="601.5625" y="213.2161"/><rect codeLine="19" fill="none" height="103.123" id="EnumConverter" rx="8.3333" ry="8.3333" style="stroke:#5E5E5E;stroke-width:1.0416666666666667;" width="235.4167" x="601.5625" y="190.1611"/><ellipse cx="652.6042" cy="205.8553" fill="#0066CF" rx="10.4167" ry="10.4167" style="stroke:#0086EF;stroke-width:1.0416666666666667;"/><path d="M654.5146,210.2804 Q654.0873,210.5001 653.6174,210.6099 Q653.1474,210.7198 652.6286,210.7198 Q650.7853,210.7198 649.8149,209.5052 Q648.8444,208.2906 648.8444,205.9957 Q648.8444,203.6947 649.8149,202.4801 Q650.7853,201.2655 652.6286,201.2655 Q653.1474,201.2655 653.6235,201.3753 Q654.0995,201.4852 654.5146,201.7049 L654.5146,203.7069 Q654.0507,203.2796 653.6143,203.0813 Q653.1779,202.8829 652.714,202.8829 Q651.7253,202.8829 651.2217,203.6672 Q650.7182,204.4515 650.7182,205.9957 Q650.7182,207.5338 651.2217,208.3181 Q651.7253,209.1024 652.714,209.1024 Q653.1779,209.1024 653.6143,208.904 Q654.0507,208.7056 654.5146,208.2784 Z " fill="#000000"/><text fill="#D8BC00" font-family="Open Sans,Avenir,Nunito,Arial,Helvetica,SansSerif" font-size="12.5" font-weight="bold" lengthAdjust="spacing" textLength="100" x="675.5208" y="210.5794">EnumConverter</text><rect fill="#333333" height="23.055" style="stroke:#A0A0A0;stroke-width:1.0416666666666667;stroke-dasharray:2.0,2.0;" width="16.6667" x="823.4375" y="187.0361"/><text fill="#A0A0A0" font-family="Open Sans,Avenir,Nunito,Arial,Helvetica,SansSerif" font-size="12.5" font-weight="bold" lengthAdjust="spacing" textLength="8.3333" x="827.6042" y="203.2878">T</text><line style="stroke:#5E5E5E;stroke-width:1.5625;" x1="602.6042" x2="835.9375" y1="221.5495" y2="221.5495"/><ellipse cx="613.0208" cy="256.9194" fill="#84BE84" rx="3.125" ry="3.125" style="stroke:#038048;stroke-width:1.0416666666666667;"/><text fill="#D8BC00" font-family="Open Sans,Avenir,Nunito,Arial,Helvetica,SansSerif" font-size="11.4583" lengthAdjust="spacing" textLength="152.0833" x="624.4792" y="263.8306">EnumConverter(Class&lt;T&gt;)</text><ellipse cx="613.0208" cy="276.6642" fill="#84BE84" rx="3.125" ry="3.125" style="stroke:#038048;stroke-width:1.0416666666666667;"/><text fill="#D8BC00" font-family="Open Sans,Avenir,Nunito,Arial,Helvetica,SansSerif" font-size="11.4583" lengthAdjust="spacing" textLength="203.125" x="624.4792" y="283.5754">EnumConverter(Listener, Class&lt;T&gt;)</text><line style="stroke:#5E5E5E;stroke-width:1.0416666666666667;" x1="602.6042" x2="675.5208" y1="239.7552" y2="239.7552"/><text fill="#D8BC00" font-family="Open Sans,Avenir,Nunito,Arial,Helvetica,SansSerif" font-size="11.4583" lengthAdjust="spacing" textLength="81.25" x="678.6458" y="243.5649">(constructors)</text><line style="stroke:#5E5E5E;stroke-width:1.0416666666666667;" x1="763.0208" x2="835.9375" y1="239.7552" y2="239.7552"/><!--MD5=[296183bf564117040e602f1ff504a1ee]
class IdentityConverter--><rect codeLine="27" fill="#282828" height="103.123" id="IdentityConverter" rx="8.3333" ry="8.3333" style="stroke:#5E5E5E;stroke-width:1.0416666666666667;" width="183.3333" x="873.4375" y="190.1611"/><rect fill="#1B1B1A" height="31.3883" rx="8.3333" ry="8.3333" style="stroke:#1B1B1A;stroke-width:1.0416666666666667;" width="183.3333" x="873.4375" y="190.1611"/><rect fill="#1B1B1A" height="8.3333" style="stroke:#1B1B1A;stroke-width:1.0416666666666667;" width="183.3333" x="873.4375" y="213.2161"/><rect codeLine="27" fill="none" height="103.123" id="IdentityConverter" rx="8.3333" ry="8.3333" style="stroke:#5E5E5E;stroke-width:1.0416666666666667;" width="183.3333" x="873.4375" y="190.1611"/><ellipse cx="902.5521" cy="205.8553" fill="#0066CF" rx="10.4167" ry="10.4167" style="stroke:#0086EF;stroke-width:1.0416666666666667;"/><path d="M904.4625,210.2804 Q904.0352,210.5001 903.5653,210.6099 Q903.0953,210.7198 902.5765,210.7198 Q900.7332,210.7198 899.7628,209.5052 Q898.7923,208.2906 898.7923,205.9957 Q898.7923,203.6947 899.7628,202.4801 Q900.7332,201.2655 902.5765,201.2655 Q903.0953,201.2655 903.5714,201.3753 Q904.0474,201.4852 904.4625,201.7049 L904.4625,203.7069 Q903.9986,203.2796 903.5622,203.0813 Q903.1258,202.8829 902.6619,202.8829 Q901.6732,202.8829 901.1696,203.6672 Q900.6661,204.4515 900.6661,205.9957 Q900.6661,207.5338 901.1696,208.3181 Q901.6732,209.1024 902.6619,209.1024 Q903.1258,209.1024 903.5622,208.904 Q903.9986,208.7056 904.4625,208.2784 Z " fill="#000000"/><text fill="#D8BC00" font-family="Open Sans,Avenir,Nunito,Arial,Helvetica,SansSerif" font-size="12.5" font-weight="bold" lengthAdjust="spacing" textLength="113.5417" x="922.4479" y="210.5794">IdentityConverter</text><line style="stroke:#5E5E5E;stroke-width:1.5625;" x1="874.4792" x2="1055.7292" y1="221.5495" y2="221.5495"/><ellipse cx="884.8958" cy="256.9194" fill="#84BE84" rx="3.125" ry="3.125" style="stroke:#038048;stroke-width:1.0416666666666667;"/><text fill="#D8BC00" font-family="Open Sans,Avenir,Nunito,Arial,Helvetica,SansSerif" font-size="11.4583" lengthAdjust="spacing" textLength="106.25" x="896.3542" y="263.8306">IdentityConverter()</text><ellipse cx="884.8958" cy="276.6642" fill="#84BE84" rx="3.125" ry="3.125" style="stroke:#038048;stroke-width:1.0416666666666667;"/><text fill="#D8BC00" font-family="Open Sans,Avenir,Nunito,Arial,Helvetica,SansSerif" font-size="11.4583" lengthAdjust="spacing" textLength="151.0417" x="896.3542" y="283.5754">IdentityConverter(Listener)</text><line style="stroke:#5E5E5E;stroke-width:1.0416666666666667;" x1="874.4792" x2="921.3542" y1="239.7552" y2="239.7552"/><text fill="#D8BC00" font-family="Open Sans,Avenir,Nunito,Arial,Helvetica,SansSerif" font-size="11.4583" lengthAdjust="spacing" textLength="81.25" x="924.4792" y="243.5649">(constructors)</text><line style="stroke:#5E5E5E;stroke-width:1.0416666666666667;" x1="1008.8542" x2="1055.7292" y1="239.7552" y2="239.7552"/><!--MD5=[a41c7a71ec1e77d6e5dd041281c68324]
class ObjectPopulator--><rect codeLine="35" fill="#282828" height="155.1127" id="ObjectPopulator" rx="8.3333" ry="8.3333" style="stroke:#5E5E5E;stroke-width:1.0416666666666667;" width="348.9583" x="7.2917" y="164.1195"/><rect fill="#1B1B1A" height="31.3883" rx="8.3333" ry="8.3333" style="stroke:#1B1B1A;stroke-width:1.0416666666666667;" width="348.9583" x="7.2917" y="164.1195"/><rect fill="#1B1B1A" height="8.3333" style="stroke:#1B1B1A;stroke-width:1.0416666666666667;" width="348.9583" x="7.2917" y="187.1745"/><rect codeLine="35" fill="none" height="155.1127" id="ObjectPopulator" rx="8.3333" ry="8.3333" style="stroke:#5E5E5E;stroke-width:1.0416666666666667;" width="348.9583" x="7.2917" y="164.1195"/><ellipse cx="122.3958" cy="179.8136" fill="#0066CF" rx="10.4167" ry="10.4167" style="stroke:#0086EF;stroke-width:1.0416666666666667;"/><path d="M124.3062,184.2387 Q123.879,184.4584 123.409,184.5683 Q122.939,184.6781 122.4202,184.6781 Q120.577,184.6781 119.6065,183.4635 Q118.6361,182.2489 118.6361,179.954 Q118.6361,177.653 119.6065,176.4384 Q120.577,175.2238 122.4202,175.2238 Q122.939,175.2238 123.4151,175.3337 Q123.8912,175.4435 124.3062,175.6632 L124.3062,177.6652 Q123.8424,177.238 123.406,177.0396 Q122.9696,176.8412 122.5057,176.8412 Q121.5169,176.8412 121.0134,177.6255 Q120.5098,178.4098 120.5098,179.954 Q120.5098,181.4921 121.0134,182.2764 Q121.5169,183.0607 122.5057,183.0607 Q122.9696,183.0607 123.406,182.8623 Q123.8424,182.664 124.3062,182.2367 Z " fill="#000000"/><text fill="#D8BC00" font-family="Open Sans,Avenir,Nunito,Arial,Helvetica,SansSerif" font-size="12.5" font-weight="bold" lengthAdjust="spacing" textLength="104.1667" x="145.3125" y="184.5378">ObjectPopulator</text><line style="stroke:#5E5E5E;stroke-width:1.5625;" x1="8.3333" x2="355.2083" y1="195.5078" y2="195.5078"/><ellipse cx="18.75" cy="230.8777" fill="#84BE84" rx="3.125" ry="3.125" style="stroke:#038048;stroke-width:1.0416666666666667;"/><text fill="#D8BC00" font-family="Open Sans,Avenir,Nunito,Arial,Helvetica,SansSerif" font-size="11.4583" lengthAdjust="spacing" textLength="316.6667" x="30.2083" y="237.7889">ObjectPopulator(PropertyFilter, Source&lt;PropertyValue&gt;)</text><line style="stroke:#5E5E5E;stroke-width:1.0416666666666667;" x1="8.3333" x2="138.0208" y1="213.7136" y2="213.7136"/><text fill="#D8BC00" font-family="Open Sans,Avenir,Nunito,Arial,Helvetica,SansSerif" font-size="11.4583" lengthAdjust="spacing" textLength="81.25" x="141.1458" y="217.5232">(constructors)</text><line style="stroke:#5E5E5E;stroke-width:1.0416666666666667;" x1="225.5208" x2="355.2083" y1="213.7136" y2="213.7136"/><line style="stroke:#5E5E5E;stroke-width:1.0416666666666667;" x1="8.3333" x2="355.2083" y1="247.4976" y2="247.4976"/><ellipse cx="18.75" cy="258.9559" fill="#84BE84" rx="3.125" ry="3.125" style="stroke:#038048;stroke-width:1.0416666666666667;"/><text fill="#D8BC00" font-family="Open Sans,Avenir,Nunito,Arial,Helvetica,SansSerif" font-size="11.4583" lengthAdjust="spacing" textLength="112.5" x="30.2083" y="265.8671">T populate(T object)</text><ellipse cx="18.75" cy="302.6123" fill="#84BE84" rx="3.125" ry="3.125" style="stroke:#038048;stroke-width:1.0416666666666667;"/><text fill="#D8BC00" font-family="Open Sans,Avenir,Nunito,Arial,Helvetica,SansSerif" font-size="11.4583" lengthAdjust="spacing" textLength="161.4583" x="30.2083" y="309.5235">boolean isOptional(Property)</text><line style="stroke:#5E5E5E;stroke-width:1.0416666666666667;" x1="8.3333" x2="155.2083" y1="285.4482" y2="285.4482"/><text fill="#D8BC00" font-family="Open Sans,Avenir,Nunito,Arial,Helvetica,SansSerif" font-size="11.4583" lengthAdjust="spacing" textLength="46.875" x="158.3333" y="289.2578">(checks)</text><line style="stroke:#5E5E5E;stroke-width:1.0416666666666667;" x1="208.3333" x2="355.2083" y1="285.4482" y2="285.4482"/><!--MD5=[ef8d7fd7acd71a87cec32c3460bfd5ff]
class PatternConverter--><rect codeLine="46" fill="#282828" height="103.123" id="PatternConverter" rx="8.3333" ry="8.3333" style="stroke:#5E5E5E;stroke-width:1.0416666666666667;" width="181.25" x="1093.2292" y="190.1611"/><rect fill="#1B1B1A" height="31.3883" rx="8.3333" ry="8.3333" style="stroke:#1B1B1A;stroke-width:1.0416666666666667;" width="181.25" x="1093.2292" y="190.1611"/><rect fill="#1B1B1A" height="8.3333" style="stroke:#1B1B1A;stroke-width:1.0416666666666667;" width="181.25" x="1093.2292" y="213.2161"/><rect codeLine="46" fill="none" height="103.123" id="PatternConverter" rx="8.3333" ry="8.3333" style="stroke:#5E5E5E;stroke-width:1.0416666666666667;" width="181.25" x="1093.2292" y="190.1611"/><ellipse cx="1123.2813" cy="205.8553" fill="#0066CF" rx="10.4167" ry="10.4167" style="stroke:#0086EF;stroke-width:1.0416666666666667;"/><path d="M1125.1917,210.2804 Q1124.7644,210.5001 1124.2944,210.6099 Q1123.8245,210.7198 1123.3057,210.7198 Q1121.4624,210.7198 1120.4919,209.5052 Q1119.5215,208.2906 1119.5215,205.9957 Q1119.5215,203.6947 1120.4919,202.4801 Q1121.4624,201.2655 1123.3057,201.2655 Q1123.8245,201.2655 1124.3005,201.3753 Q1124.7766,201.4852 1125.1917,201.7049 L1125.1917,203.7069 Q1124.7278,203.2796 1124.2914,203.0813 Q1123.855,202.8829 1123.3911,202.8829 Q1122.4023,202.8829 1121.8988,203.6672 Q1121.3953,204.4515 1121.3953,205.9957 Q1121.3953,207.5338 1121.8988,208.3181 Q1122.4023,209.1024 1123.3911,209.1024 Q1123.855,209.1024 1124.2914,208.904 Q1124.7278,208.7056 1125.1917,208.2784 Z " fill="#000000"/><text fill="#D8BC00" font-family="Open Sans,Avenir,Nunito,Arial,Helvetica,SansSerif" font-size="12.5" font-weight="bold" lengthAdjust="spacing" textLength="109.375" x="1143.3854" y="210.5794">PatternConverter</text><line style="stroke:#5E5E5E;stroke-width:1.5625;" x1="1094.2708" x2="1273.4375" y1="221.5495" y2="221.5495"/><ellipse cx="1104.6875" cy="256.9194" fill="#84BE84" rx="3.125" ry="3.125" style="stroke:#038048;stroke-width:1.0416666666666667;"/><text fill="#D8BC00" font-family="Open Sans,Avenir,Nunito,Arial,Helvetica,SansSerif" font-size="11.4583" lengthAdjust="spacing" textLength="104.1667" x="1116.1458" y="263.8306">PatternConverter()</text><ellipse cx="1104.6875" cy="276.6642" fill="#84BE84" rx="3.125" ry="3.125" style="stroke:#038048;stroke-width:1.0416666666666667;"/><text fill="#D8BC00" font-family="Open Sans,Avenir,Nunito,Arial,Helvetica,SansSerif" font-size="11.4583" lengthAdjust="spacing" textLength="148.9583" x="1116.1458" y="283.5754">PatternConverter(Listener)</text><line style="stroke:#5E5E5E;stroke-width:1.0416666666666667;" x1="1094.2708" x2="1140.1042" y1="239.7552" y2="239.7552"/><text fill="#D8BC00" font-family="Open Sans,Avenir,Nunito,Arial,Helvetica,SansSerif" font-size="11.4583" lengthAdjust="spacing" textLength="81.25" x="1143.2292" y="243.5649">(constructors)</text><line style="stroke:#5E5E5E;stroke-width:1.0416666666666667;" x1="1227.6042" x2="1273.4375" y1="239.7552" y2="239.7552"/><!--MD5=[e2881226ff220f9d614b1ead2332a8f6]
class ThrowableConverter--><rect codeLine="54" fill="#282828" height="103.123" id="ThrowableConverter" rx="8.3333" ry="8.3333" style="stroke:#5E5E5E;stroke-width:1.0416666666666667;" width="200" x="1310.9375" y="190.1611"/><rect fill="#1B1B1A" height="31.3883" rx="8.3333" ry="8.3333" style="stroke:#1B1B1A;stroke-width:1.0416666666666667;" width="200" x="1310.9375" y="190.1611"/><rect fill="#1B1B1A" height="8.3333" style="stroke:#1B1B1A;stroke-width:1.0416666666666667;" width="200" x="1310.9375" y="213.2161"/><rect codeLine="54" fill="none" height="103.123" id="ThrowableConverter" rx="8.3333" ry="8.3333" style="stroke:#5E5E5E;stroke-width:1.0416666666666667;" width="200" x="1310.9375" y="190.1611"/><ellipse cx="1339.5833" cy="205.8553" fill="#0066CF" rx="10.4167" ry="10.4167" style="stroke:#0086EF;stroke-width:1.0416666666666667;"/><path d="M1341.4937,210.2804 Q1341.0665,210.5001 1340.5965,210.6099 Q1340.1265,210.7198 1339.6077,210.7198 Q1337.7645,210.7198 1336.794,209.5052 Q1335.8236,208.2906 1335.8236,205.9957 Q1335.8236,203.6947 1336.794,202.4801 Q1337.7645,201.2655 1339.6077,201.2655 Q1340.1265,201.2655 1340.6026,201.3753 Q1341.0787,201.4852 1341.4937,201.7049 L1341.4937,203.7069 Q1341.0299,203.2796 1340.5935,203.0813 Q1340.1571,202.8829 1339.6932,202.8829 Q1338.7044,202.8829 1338.2009,203.6672 Q1337.6973,204.4515 1337.6973,205.9957 Q1337.6973,207.5338 1338.2009,208.3181 Q1338.7044,209.1024 1339.6932,209.1024 Q1340.1571,209.1024 1340.5935,208.904 Q1341.0299,208.7056 1341.4937,208.2784 Z " fill="#000000"/><text fill="#D8BC00" font-family="Open Sans,Avenir,Nunito,Arial,Helvetica,SansSerif" font-size="12.5" font-weight="bold" lengthAdjust="spacing" textLength="131.25" x="1359.375" y="210.5794">ThrowableConverter</text><line style="stroke:#5E5E5E;stroke-width:1.5625;" x1="1311.9792" x2="1509.8958" y1="221.5495" y2="221.5495"/><ellipse cx="1322.3958" cy="256.9194" fill="#84BE84" rx="3.125" ry="3.125" style="stroke:#038048;stroke-width:1.0416666666666667;"/><text fill="#D8BC00" font-family="Open Sans,Avenir,Nunito,Arial,Helvetica,SansSerif" font-size="11.4583" lengthAdjust="spacing" textLength="122.9167" x="1333.8542" y="263.8306">ThrowableConverter()</text><ellipse cx="1322.3958" cy="276.6642" fill="#84BE84" rx="3.125" ry="3.125" style="stroke:#038048;stroke-width:1.0416666666666667;"/><text fill="#D8BC00" font-family="Open Sans,Avenir,Nunito,Arial,Helvetica,SansSerif" font-size="11.4583" lengthAdjust="spacing" textLength="167.7083" x="1333.8542" y="283.5754">ThrowableConverter(Listener)</text><line style="stroke:#5E5E5E;stroke-width:1.0416666666666667;" x1="1311.9792" x2="1367.1875" y1="239.7552" y2="239.7552"/><text fill="#D8BC00" font-family="Open Sans,Avenir,Nunito,Arial,Helvetica,SansSerif" font-size="11.4583" lengthAdjust="spacing" textLength="81.25" x="1370.3125" y="243.5649">(constructors)</text><line style="stroke:#5E5E5E;stroke-width:1.0416666666666667;" x1="1454.6875" x2="1509.8958" y1="239.7552" y2="239.7552"/><!--MD5=[816c11de1b003c2ad0207c99c5d2dd63]
reverse link BaseStringConverter to ClassConverter--><path codeLine="10" d="M857.9688,90.5778 C779.1667,102.1403 670.8958,124.057 582.8125,164.1195 C567.8958,170.9007 553.0208,180.0465 539.3646,189.6403 " fill="none" id="BaseStringConverter-backto-ClassConverter" style="stroke:#545454;stroke-width:1.5625;"/><polygon fill="none" points="856.6771,83.4007,878.3229,87.734,858.6979,97.8382,856.6771,83.4007" style="stroke:#545454;stroke-width:1.5625;"/><!--MD5=[fbb2d560b05cda92e64fbea940e98d85]
reverse link BaseStringConverter to EnumConverter--><path codeLine="18" d="M911.1042,114.2757 C877.4583,136.4528 833.6146,165.3382 796.3438,189.9007 " fill="none" id="BaseStringConverter-backto-EnumConverter" style="stroke:#545454;stroke-width:1.5625;"/><polygon fill="none" points="906.8958,108.3278,928.3021,102.9528,914.9167,120.5049,906.8958,108.3278" style="stroke:#545454;stroke-width:1.5625;"/><!--MD5=[e268e363c9066d4fe1b956a3cfd396cb]
reverse link BaseStringConverter to IdentityConverter--><path codeLine="26" d="M965.1042,124.1195 C965.1042,144.5465 965.1042,168.7549 965.1042,189.7861 " fill="none" id="BaseStringConverter-backto-IdentityConverter" style="stroke:#545454;stroke-width:1.5625;"/><polygon fill="none" points="957.8125,124.3174,965.1042,103.484,972.3958,124.3174,957.8125,124.3174" style="stroke:#545454;stroke-width:1.5625;"/><!--MD5=[ddea3ffe715687ef215e6310dd044618]
reverse link BaseRepeater to ObjectPopulator--><path codeLine="34" d="M181.7708,124.1507 C181.7708,136.4632 181.7708,150.1611 181.7708,163.6924 " fill="none" id="BaseRepeater-backto-ObjectPopulator" style="stroke:#545454;stroke-width:1.5625;"/><polygon fill="none" points="174.4792,124.3174,181.7708,103.484,189.0625,124.3174,174.4792,124.3174" style="stroke:#545454;stroke-width:1.5625;"/><!--MD5=[2dc26a307c6895afaa04136ba1717daa]
reverse link BaseStringConverter to PatternConverter--><path codeLine="45" d="M1014.1667,115.0361 C1043.9271,137.0674 1082.3646,165.5361 1115.125,189.7861 " fill="none" id="BaseStringConverter-backto-PatternConverter" style="stroke:#545454;stroke-width:1.5625;"/><polygon fill="none" points="1010.1146,121.109,997.7083,102.8486,1018.7917,109.3903,1010.1146,121.109" style="stroke:#545454;stroke-width:1.5625;"/><!--MD5=[e8da969d0f9afc35944240f69b1a30ca]
reverse link BaseStringConverter to ThrowableConverter--><path codeLine="53" d="M1072.1042,97.4632 C1137.6979,111.1611 1222.3854,132.8486 1293.2292,164.1195 C1309.1771,171.1611 1325.3958,180.234 1340.4896,189.6715 " fill="none" id="BaseStringConverter-backto-ThrowableConverter" style="stroke:#545454;stroke-width:1.5625;"/><polygon fill="none" points="1070.7188,104.6195,1051.7396,93.3486,1073.6042,90.3278,1070.7188,104.6195" style="stroke:#545454;stroke-width:1.5625;"/><!--MD5=[91e2aa0845f87579076f59eb7a0e65ac]
@startuml

    !include lexakai.theme
    
    title "Converters - Language"
    
    abstract BaseRepeater
    abstract BaseStringConverter
    
    BaseStringConverter <|- - ClassConverter
    class ClassConverter
    {
        - -(constructors)- -
        +ClassConverter()
        +ClassConverter(Listener)
    }
    
    BaseStringConverter <|- - EnumConverter
    class EnumConverter<T>
    {
        - -(constructors)- -
        +EnumConverter(Class<T>)
        +EnumConverter(Listener, Class<T>)
    }
    
    BaseStringConverter <|- - IdentityConverter
    class IdentityConverter
    {
        - -(constructors)- -
        +IdentityConverter()
        +IdentityConverter(Listener)
    }
    
    BaseRepeater <|- - ObjectPopulator
    class ObjectPopulator
    {
        - -(constructors)- -
        +ObjectPopulator(PropertyFilter, Source<PropertyValue>)
        - -
        +T populate(T object)
        - -(checks)- -
        +boolean isOptional(Property)
    }
    
    BaseStringConverter <|- - PatternConverter
    class PatternConverter
    {
        - -(constructors)- -
        +PatternConverter()
        +PatternConverter(Listener)
    }
    
    BaseStringConverter <|- - ThrowableConverter
    class ThrowableConverter
    {
        - -(constructors)- -
        +ThrowableConverter()
        +ThrowableConverter(Listener)
    }
    
@enduml

@startuml









skinparam backgroundColor #333333






skinparam  {
    defaultFontName   "Open Sans,Avenir,Nunito,Arial,Helvetica,SansSerif"
    defaultFontSize   12
    defaultTextAlignment left
    shadowing false
    RoundCorner 10
    TitleFontSize 18
}

skinparam defaultFontName       "Open Sans,Avenir,Nunito,Arial,Helvetica,SansSerif"
skinparam defaultFontSize       12
skinparam dpi                   100
skinparam shadowing             false
skinparam roundcorner           16
skinparam ParticipantPadding    40
skinparam BoxPadding            40
skinparam Padding               3
skinparam ArrowColor            #545454
skinparam stereotype {
    CBackgroundColor #0066cf
    CBorderColor #0086ef
    ABackgroundColor #C8Ac00
    ABorderColor #D8Bc00
    IBackgroundColor #008400
    IBorderColor #239c23
    EBackgroundColor #cf6300
    EBorderColor #ef8300
    NBackgroundColor #3380b9
    NBorderColor #004d86
}
skinparam title {
	FontColor	                 #c0c0c0
 	BorderColor                  #545454
	FontSize	    	         20
	BorderRoundCorner            16
	BorderThickness 	         1
	BackgroundColor              #48494b
}


skinparam legend {
	BackgroundColor #303030
	BorderColor #404040
	FontColor #a0a0a0
}

	skinparam swimlane {
	BorderColor #5e5e5e
	BorderThickness 2
	TitleBackgroundColor  #6d6d6d-#484848
	TitleFontColor #303030
}

skinparam activity {
		FontColor #C8Ac00
	BorderColor #333333
	BackgroundColor #333333-#333333
	BarColor #00FF00
	StartColor #0060a8
	EndColor #0060a8
	DiamondBackgroundColor #6d6d6d-#3a3a3a
  	DiamondBorderColor #3a3a3a
  	DiamondFontColor #fefefe
}


skinparam participant {
		FontColor #C8Ac00
	BorderColor #333333
	BackgroundColor #333333-#333333
	ParticipantBorderThickness 2
}


skinparam actor {
		FontColor #C8Ac00
	BorderColor #333333
	BackgroundColor #333333-#333333
}


skinparam arrow {
	Thickness 1.5
	Color #545454
	FontColor #a0a0a0
    FontStyle bold
    MessageAlignment center
}



skinparam sequence {
	BorderColor #303030
	TitleFontColor #303030
	BackgroundColor #333333
	StartColor #303030
	EndColor #303030
	BoxBackgroundColor #333333
	BoxBorderColor #484848
	BoxFontColor #484848
	LifeLineBorderColor #484848
	LifeLineBorderThickness 2
	LifeLineBackgroundColor #3a3a3a
	GroupBorderColor #484848
	GroupFontColor #484848
	GroupHeaderFontColor #0060a8
	GroupBackgroundColor #484848
	GroupHeaderBackgroundColor #333333
	DividerBackgroundColor #484848
    DividerBorderColor #484848
    DividerBorderThickness 2
    DividerFontColor #D8Bc00
	ReferenceBackgroundColor #333333
	ReferenceBorderColor #484848
	ReferenceFontColor #fefefe
	ReferenceHeaderBackgroundColor #484848
}


skinparam partition {
	BorderColor #303030
	FontColor #333333
	BackgroundColor #333333
}


skinparam collections {
		FontColor #C8Ac00
	BorderColor #333333
	BackgroundColor #333333-#333333
}


skinparam control {
		FontColor #C8Ac00
	BorderColor #333333
	BackgroundColor #333333-#333333
}


skinparam entity {
		FontColor #C8Ac00
	BorderColor #333333
	BackgroundColor #333333-#333333
}


skinparam boundary {
		FontColor #C8Ac00
	BorderColor #333333
	BackgroundColor #333333-#333333
}


skinparam agent {
	BackgroundColor #ff8000
	BorderColor #ff9933
	FontColor #484848
}


skinparam note {
	BorderThickness 1
	BackgroundColor #1b1b1a
	BorderColor #5e5e5e
	FontSize 11
	FontColor #a0a0a0
}


skinparam artifact {
	BorderThickness 10
	BorderColor #5e5e5e
	BackgroundColor #1b1b1a
	FontColor #D8Bc00
}


skinparam component {
		FontColor #C8Ac00
	BorderColor #333333
	BackgroundColor #333333-#333333
}


skinparam interface {
	BackgroundColor  #008400
	BorderColor  #007F00
	FontColor #484848
}


skinparam storage {
	BackgroundColor #ff8000
  	BorderColor #cc6600
	FontColor #222222
}


skinparam node {
	BackgroundColor #333333
	BorderColor #333333
	FontColor #C8Ac00
}


skinparam cloud {
	BackgroundColor #484848-black
	BorderColor #484848
	FontColor #D8Bc00
}


skinparam database {
		FontColor #C8Ac00
	BorderColor #333333
	BackgroundColor #333333-#333333
	BackgroundColor  #333333
}


skinparam class {
		FontColor #C8Ac00
	BorderColor #333333
	BackgroundColor #333333-#333333
	HeaderBackgroundColor #1b1b1a
    BackgroundColor #282828
    BorderColor #5e5e5e
 	StereotypeFontColor #a0a0a0
    StereotypeFontStyle bold
	BorderThickness 1
	AttributeFontColor #D8Bc00
	AttributeFontSize 11
    FontColor #D8Bc00
    FontStyle bold
}


skinparam object {
		FontColor #C8Ac00
	BorderColor #333333
	BackgroundColor #333333-#333333
	StereotypeFontColor #484848
	BorderThickness 1
	AttributeFontColor #fefefe
	AttributeFontSize 11
}


skinparam usecase {
		FontColor #C8Ac00
	BorderColor #333333
	BackgroundColor #333333-#333333
	BorderThickness 2
	StereotypeFontColor #303030
}


skinparam rectangle {
		FontColor #C8Ac00
	BorderColor #333333
	BackgroundColor #333333-#333333
	BackgroundColor #333333
	BorderThickness 2
	StereotypeFontColor #303030
}


skinparam package {
		FontColor #C8Ac00
	BorderColor #333333
	BackgroundColor #333333-#333333
	BackgroundColor #333333
	BorderThickness 2
}


skinparam folder {
	BackgroundColor #6d6d6d
  	BorderColor #ff8000
	FontColor #ff8000
	BorderThickness 2
}


skinparam frame {
	BackgroundColor #6d6d6d
  	BorderColor #0060a8
	FontColor #0060a8
	BorderThickness 2
}


skinparam state {
		FontColor #C8Ac00
	BorderColor #333333
	BackgroundColor #333333-#333333
	StartColor #0060a8
	EndColor #0060a8
	AttributeFontColor #fefefe
	AttributeFontSize 11
}


skinparam queue {
		FontColor #C8Ac00
	BorderColor #333333
	BackgroundColor #333333-#333333
}


skinparam card {
	BackgroundColor #0060a8
	BorderColor #004d86
	FontColor $INFO_TEXT
}


skinparam file {
	BackgroundColor #6d6d6d-#484848
	BorderColor #0060a8
	FontColor #fefefe
}


skinparam stack {
		FontColor #C8Ac00
	BorderColor #333333
	BackgroundColor #333333-#333333
}

    
    title "Converters - Language"
    
    abstract BaseRepeater
    abstract BaseStringConverter
    
    BaseStringConverter <|- - ClassConverter
    class ClassConverter
    {
        - -(constructors)- -
        +ClassConverter()
        +ClassConverter(Listener)
    }
    
    BaseStringConverter <|- - EnumConverter
    class EnumConverter<T>
    {
        - -(constructors)- -
        +EnumConverter(Class<T>)
        +EnumConverter(Listener, Class<T>)
    }
    
    BaseStringConverter <|- - IdentityConverter
    class IdentityConverter
    {
        - -(constructors)- -
        +IdentityConverter()
        +IdentityConverter(Listener)
    }
    
    BaseRepeater <|- - ObjectPopulator
    class ObjectPopulator
    {
        - -(constructors)- -
        +ObjectPopulator(PropertyFilter, Source<PropertyValue>)
        - -
        +T populate(T object)
        - -(checks)- -
        +boolean isOptional(Property)
    }
    
    BaseStringConverter <|- - PatternConverter
    class PatternConverter
    {
        - -(constructors)- -
        +PatternConverter()
        +PatternConverter(Listener)
    }
    
    BaseStringConverter <|- - ThrowableConverter
    class ThrowableConverter
    {
        - -(constructors)- -
        +ThrowableConverter()
        +ThrowableConverter(Listener)
    }
    
@enduml

PlantUML version 1.2021.01(Tue Feb 02 00:55:08 MST 2021)
(GPL source distribution)
Java Runtime: OpenJDK Runtime Environment
JVM: OpenJDK 64-Bit Server VM
Default Encoding: UTF-8
Language: en
Country: US
--></g></svg>