<?xml version="1.0" encoding="UTF-8" standalone="no"?><svg xmlns="http://www.w3.org/2000/svg" xmlns:xlink="http://www.w3.org/1999/xlink" contentScriptType="application/ecmascript" contentStyleType="text/css" height="415.625px" preserveAspectRatio="none" style="width:318px;height:415px;background:#333333;" version="1.1" viewBox="0 0 318 415" width="318.75px" zoomAndPan="magnify"><defs/><g><rect fill="#48494B" height="41.2028" rx="8.3333" ry="8.3333" style="stroke:#545454;stroke-width:1.0416666666666667;" width="120.8333" x="91.6667" y="2.0833"/><text fill="#C0C0C0" font-family="Open Sans,Avenir,Nunito,Arial,Helvetica,SansSerif" font-size="20.8333" lengthAdjust="spacing" textLength="97.9167" x="103.125" y="30.5583">Email Log</text><rect codeLine="7" fill="#282828" height="48.055" id="BaseTextLog" rx="8.3333" ry="8.3333" style="stroke:#5E5E5E;stroke-width:1.0416666666666667;" width="119.7917" x="92.1875" y="53.7028"/><rect fill="#1B1B1A" height="31.3883" rx="8.3333" ry="8.3333" style="stroke:#1B1B1A;stroke-width:1.0416666666666667;" width="119.7917" x="92.1875" y="53.7028"/><rect fill="#1B1B1A" height="8.3333" style="stroke:#1B1B1A;stroke-width:1.0416666666666667;" width="119.7917" x="92.1875" y="76.7578"/><rect codeLine="7" fill="none" height="48.055" id="BaseTextLog" rx="8.3333" ry="8.3333" style="stroke:#5E5E5E;stroke-width:1.0416666666666667;" width="119.7917" x="92.1875" y="53.7028"/><ellipse cx="106.7708" cy="69.397" fill="#C8AC00" rx="10.4167" ry="10.4167" style="stroke:#D8BC00;stroke-width:1.0416666666666667;"/><path d="M106.3639,66.099 L105.5155,69.8283 L107.2184,69.8283 Z M105.2653,64.4511 L107.4687,64.4511 L109.9284,73.5636 L108.1278,73.5636 L107.5663,71.3114 L105.1554,71.3114 L104.6061,73.5636 L102.8056,73.5636 Z " fill="#000000"/><text fill="#D8BC00" font-family="Open Sans,Avenir,Nunito,Arial,Helvetica,SansSerif" font-size="12.5" font-style="italic" font-weight="bold" lengthAdjust="spacing" textLength="82.2917" x="123.4375" y="74.1211">BaseTextLog</text><line style="stroke:#5E5E5E;stroke-width:1.0416666666666667;" x1="93.2292" x2="210.9375" y1="85.0911" y2="85.0911"/><line style="stroke:#5E5E5E;stroke-width:1.0416666666666667;" x1="93.2292" x2="210.9375" y1="93.4245" y2="93.4245"/><rect codeLine="13" fill="#282828" height="48.055" id="EmailLog" rx="8.3333" ry="8.3333" style="stroke:#5E5E5E;stroke-width:1.0416666666666667;" width="96.875" x="103.125" y="185.9945"/><rect fill="#1B1B1A" height="31.3883" rx="8.3333" ry="8.3333" style="stroke:#1B1B1A;stroke-width:1.0416666666666667;" width="96.875" x="103.125" y="185.9945"/><rect fill="#1B1B1A" height="8.3333" style="stroke:#1B1B1A;stroke-width:1.0416666666666667;" width="96.875" x="103.125" y="209.0495"/><rect codeLine="13" fill="none" height="48.055" id="EmailLog" rx="8.3333" ry="8.3333" style="stroke:#5E5E5E;stroke-width:1.0416666666666667;" width="96.875" x="103.125" y="185.9945"/><ellipse cx="117.7083" cy="201.6886" fill="#0066CF" rx="10.4167" ry="10.4167" style="stroke:#0086EF;stroke-width:1.0416666666666667;"/><path d="M119.6187,206.1137 Q119.1915,206.3334 118.7215,206.4433 Q118.2515,206.5531 117.7327,206.5531 Q115.8895,206.5531 114.919,205.3385 Q113.9486,204.1239 113.9486,201.829 Q113.9486,199.528 114.919,198.3134 Q115.8895,197.0988 117.7327,197.0988 Q118.2515,197.0988 118.7276,197.2087 Q119.2037,197.3185 119.6187,197.5382 L119.6187,199.5402 Q119.1549,199.113 118.7185,198.9146 Q118.2821,198.7162 117.8182,198.7162 Q116.8294,198.7162 116.3259,199.5005 Q115.8223,200.2848 115.8223,201.829 Q115.8223,203.3671 116.3259,204.1514 Q116.8294,204.9357 117.8182,204.9357 Q118.2821,204.9357 118.7185,204.7373 Q119.1549,204.539 119.6187,204.1117 Z " fill="#000000"/><text fill="#D8BC00" font-family="Open Sans,Avenir,Nunito,Arial,Helvetica,SansSerif" font-size="12.5" font-weight="bold" lengthAdjust="spacing" textLength="59.375" x="134.375" y="206.4128">EmailLog</text><line style="stroke:#5E5E5E;stroke-width:1.0416666666666667;" x1="104.1667" x2="198.9583" y1="217.3828" y2="217.3828"/><line style="stroke:#5E5E5E;stroke-width:1.0416666666666667;" x1="104.1667" x2="198.9583" y1="225.7161" y2="225.7161"/><rect fill="#282828" height="48.055" id="EmailAddress" rx="8.3333" ry="8.3333" style="stroke:#5E5E5E;stroke-width:1.0416666666666667;" width="126.0417" x="7.2917" y="360.9945"/><rect fill="#1B1B1A" height="31.3883" rx="8.3333" ry="8.3333" style="stroke:#1B1B1A;stroke-width:1.0416666666666667;" width="126.0417" x="7.2917" y="360.9945"/><rect fill="#1B1B1A" height="8.3333" style="stroke:#1B1B1A;stroke-width:1.0416666666666667;" width="126.0417" x="7.2917" y="384.0495"/><rect fill="none" height="48.055" id="EmailAddress" rx="8.3333" ry="8.3333" style="stroke:#5E5E5E;stroke-width:1.0416666666666667;" width="126.0417" x="7.2917" y="360.9945"/><ellipse cx="21.875" cy="376.6886" fill="#0066CF" rx="10.4167" ry="10.4167" style="stroke:#0086EF;stroke-width:1.0416666666666667;"/><path d="M23.7854,381.1137 Q23.3582,381.3334 22.8882,381.4433 Q22.4182,381.5531 21.8994,381.5531 Q20.0562,381.5531 19.0857,380.3385 Q18.1152,379.1239 18.1152,376.829 Q18.1152,374.528 19.0857,373.3134 Q20.0562,372.0988 21.8994,372.0988 Q22.4182,372.0988 22.8943,372.2087 Q23.3704,372.3185 23.7854,372.5382 L23.7854,374.5402 Q23.3215,374.113 22.8851,373.9146 Q22.4487,373.7162 21.9849,373.7162 Q20.9961,373.7162 20.4926,374.5005 Q19.989,375.2848 19.989,376.829 Q19.989,378.3671 20.4926,379.1514 Q20.9961,379.9357 21.9849,379.9357 Q22.4487,379.9357 22.8851,379.7373 Q23.3215,379.539 23.7854,379.1117 Z " fill="#000000"/><text fill="#D8BC00" font-family="Open Sans,Avenir,Nunito,Arial,Helvetica,SansSerif" font-size="12.5" font-weight="bold" lengthAdjust="spacing" textLength="88.5417" x="38.5417" y="381.4128">EmailAddress</text><line style="stroke:#5E5E5E;stroke-width:1.0416666666666667;" x1="8.3333" x2="132.2917" y1="392.3828" y2="392.3828"/><line style="stroke:#5E5E5E;stroke-width:1.0416666666666667;" x1="8.3333" x2="132.2917" y1="400.7161" y2="400.7161"/><rect fill="#282828" height="48.055" id="EmailSender" rx="8.3333" ry="8.3333" style="stroke:#5E5E5E;stroke-width:1.0416666666666667;" width="116.6667" x="194.7917" y="360.9945"/><rect fill="#1B1B1A" height="31.3883" rx="8.3333" ry="8.3333" style="stroke:#1B1B1A;stroke-width:1.0416666666666667;" width="116.6667" x="194.7917" y="360.9945"/><rect fill="#1B1B1A" height="8.3333" style="stroke:#1B1B1A;stroke-width:1.0416666666666667;" width="116.6667" x="194.7917" y="384.0495"/><rect fill="none" height="48.055" id="EmailSender" rx="8.3333" ry="8.3333" style="stroke:#5E5E5E;stroke-width:1.0416666666666667;" width="116.6667" x="194.7917" y="360.9945"/><ellipse cx="209.375" cy="376.6886" fill="#0066CF" rx="10.4167" ry="10.4167" style="stroke:#0086EF;stroke-width:1.0416666666666667;"/><path d="M211.2854,381.1137 Q210.8582,381.3334 210.3882,381.4433 Q209.9182,381.5531 209.3994,381.5531 Q207.5562,381.5531 206.5857,380.3385 Q205.6152,379.1239 205.6152,376.829 Q205.6152,374.528 206.5857,373.3134 Q207.5562,372.0988 209.3994,372.0988 Q209.9182,372.0988 210.3943,372.2087 Q210.8704,372.3185 211.2854,372.5382 L211.2854,374.5402 Q210.8215,374.113 210.3851,373.9146 Q209.9487,373.7162 209.4849,373.7162 Q208.4961,373.7162 207.9926,374.5005 Q207.489,375.2848 207.489,376.829 Q207.489,378.3671 207.9926,379.1514 Q208.4961,379.9357 209.4849,379.9357 Q209.9487,379.9357 210.3851,379.7373 Q210.8215,379.539 211.2854,379.1117 Z " fill="#000000"/><text fill="#D8BC00" font-family="Open Sans,Avenir,Nunito,Arial,Helvetica,SansSerif" font-size="12.5" font-weight="bold" lengthAdjust="spacing" textLength="79.1667" x="226.0417" y="381.4128">EmailSender</text><line style="stroke:#5E5E5E;stroke-width:1.0416666666666667;" x1="195.8333" x2="310.4167" y1="392.3828" y2="392.3828"/><line style="stroke:#5E5E5E;stroke-width:1.0416666666666667;" x1="195.8333" x2="310.4167" y1="400.7161" y2="400.7161"/><path codeLine="9" d="M152.0833,122.7965 C152.0833,143.9007 152.0833,168.2965 152.0833,185.7236 " fill="none" id="BaseTextLog-backto-EmailLog" style="stroke:#545454;stroke-width:1.5625;"/><polygon fill="none" points="144.7917,122.5153,152.0833,101.682,159.375,122.5153,144.7917,122.5153" style="stroke:#545454;stroke-width:1.5625;"/><path codeLine="10" d="M102.9167,242.5882 C88.875,254.359 75.3229,269.0361 67.7083,285.9945 C57.0521,309.734 60.25,340.0674 64.5417,360.6403 " fill="none" id="EmailLog-backto-EmailAddress" style="stroke:#545454;stroke-width:1.5625;"/><polygon fill="#333333" points="113.6667,234.1611,106.1771,234.736,103.8272,241.8705,111.3167,241.2957,113.6667,234.1611" style="stroke:#545454;stroke-width:1.5625;"/><text fill="#A0A0A0" font-family="Open Sans,Avenir,Nunito,Arial,Helvetica,SansSerif" font-size="12.5" font-weight="bold" lengthAdjust="spacing" textLength="31.25" x="71.875" y="302.2461">from</text><path codeLine="12" d="M138.1979,246.9632 C130.7188,265.6403 121.0833,288.7236 111.4583,308.9111 C102.9792,326.6924 92.3438,346.234 84.0833,360.9215 " fill="none" id="EmailLog-backto-EmailAddress-1" style="stroke:#545454;stroke-width:1.5625;"/><polygon fill="#333333" points="143.2188,234.234,137.0454,238.5135,138.6214,245.8579,144.7947,241.5784,143.2188,234.234" style="stroke:#545454;stroke-width:1.5625;"/><text fill="#A0A0A0" font-family="Open Sans,Avenir,Nunito,Arial,Helvetica,SansSerif" font-size="12.5" font-weight="bold" lengthAdjust="spacing" textLength="13.5417" x="126.0417" y="302.2461">to</text><text fill="#A0A0A0" font-family="Open Sans,Avenir,Nunito,Arial,Helvetica,SansSerif" font-size="12.5" font-weight="bold" lengthAdjust="spacing" textLength="8.3333" x="128.1447" y="257.4679">1</text><text fill="#A0A0A0" font-family="Open Sans,Avenir,Nunito,Arial,Helvetica,SansSerif" font-size="12.5" font-weight="bold" lengthAdjust="spacing" textLength="6.25" x="76.5415" y="346.9015">*</text><path codeLine="11" d="M172.375,245.7236 C192.3958,279.9736 222.4167,331.3486 239.6563,360.859 " fill="none" id="EmailLog-backto-EmailSender" style="stroke:#545454;stroke-width:1.5625;"/><polygon fill="#333333" points="165.5,233.9528,165.0537,241.4511,171.8035,244.747,172.2498,237.2488,165.5,233.9528" style="stroke:#545454;stroke-width:1.5625;"/></g></svg>
