<?xml version="1.0" encoding="UTF-8" standalone="no"?><svg xmlns="http://www.w3.org/2000/svg" xmlns:xlink="http://www.w3.org/1999/xlink" contentScriptType="application/ecmascript" contentStyleType="text/css" height="348.9583px" preserveAspectRatio="none" style="width:1025px;height:348px;background:#333333;" version="1.1" viewBox="0 0 1025 348" width="1025px" zoomAndPan="magnify"><defs/><g><rect fill="#48494B" height="41.2028" rx="8.3333" ry="8.3333" style="stroke:#545454;stroke-width:1.0416666666666667;" width="536.4583" x="237.2396" y="2.0833"/><text fill="#C0C0C0" font-family="Open Sans,Avenir,Nunito,Arial,Helvetica,SansSerif" font-size="20.8333" lengthAdjust="spacing" textLength="513.5417" x="248.6979" y="30.5583">Component, BaseComponent and ComponentMixin</text><rect codeLine="7" fill="#282828" height="48.055" id="BaseRepeater" rx="8.3333" ry="8.3333" style="stroke:#5E5E5E;stroke-width:1.0416666666666667;" width="123.9583" x="300" y="164.1195"/><rect fill="#1B1B1A" height="31.3883" rx="8.3333" ry="8.3333" style="stroke:#1B1B1A;stroke-width:1.0416666666666667;" width="123.9583" x="300" y="164.1195"/><rect fill="#1B1B1A" height="8.3333" style="stroke:#1B1B1A;stroke-width:1.0416666666666667;" width="123.9583" x="300" y="187.1745"/><rect codeLine="7" fill="none" height="48.055" id="BaseRepeater" rx="8.3333" ry="8.3333" style="stroke:#5E5E5E;stroke-width:1.0416666666666667;" width="123.9583" x="300" y="164.1195"/><ellipse cx="314.5833" cy="179.8136" fill="#C8AC00" rx="10.4167" ry="10.4167" style="stroke:#D8BC00;stroke-width:1.0416666666666667;"/><path d="M314.1764,176.5157 L313.328,180.245 L315.0309,180.245 Z M313.0778,174.8678 L315.2812,174.8678 L317.7409,183.9803 L315.9403,183.9803 L315.3788,181.7281 L312.9679,181.7281 L312.4186,183.9803 L310.6181,183.9803 Z " fill="#000000"/><text fill="#D8BC00" font-family="Open Sans,Avenir,Nunito,Arial,Helvetica,SansSerif" font-size="12.5" font-style="italic" font-weight="bold" lengthAdjust="spacing" textLength="86.4583" x="331.25" y="184.5378">BaseRepeater</text><line style="stroke:#5E5E5E;stroke-width:1.0416666666666667;" x1="301.0417" x2="422.9167" y1="195.5078" y2="195.5078"/><line style="stroke:#5E5E5E;stroke-width:1.0416666666666667;" x1="301.0417" x2="422.9167" y1="203.8411" y2="203.8411"/><rect codeLine="35" fill="#282828" height="48.055" id="Component" rx="8.3333" ry="8.3333" style="stroke:#5E5E5E;stroke-width:1.0416666666666667;" width="113.5417" x="460.4167" y="164.1195"/><rect fill="#1B1B1A" height="31.3883" rx="8.3333" ry="8.3333" style="stroke:#1B1B1A;stroke-width:1.0416666666666667;" width="113.5417" x="460.4167" y="164.1195"/><rect fill="#1B1B1A" height="8.3333" style="stroke:#1B1B1A;stroke-width:1.0416666666666667;" width="113.5417" x="460.4167" y="187.1745"/><rect codeLine="35" fill="none" height="48.055" id="Component" rx="8.3333" ry="8.3333" style="stroke:#5E5E5E;stroke-width:1.0416666666666667;" width="113.5417" x="460.4167" y="164.1195"/><ellipse cx="475" cy="179.8136" fill="#008400" rx="10.4167" ry="10.4167" style="stroke:#239C23;stroke-width:1.0416666666666667;"/><path d="M472.404,176.9755 L472.404,175.3886 L477.83,175.3886 L477.83,176.9755 L476.0173,176.9755 L476.0173,182.9142 L477.83,182.9142 L477.83,184.5011 L472.404,184.5011 L472.404,182.9142 L474.2167,182.9142 L474.2167,176.9755 Z " fill="#000000"/><text fill="#D8BC00" font-family="Open Sans,Avenir,Nunito,Arial,Helvetica,SansSerif" font-size="12.5" font-style="italic" font-weight="bold" lengthAdjust="spacing" textLength="76.0417" x="491.6667" y="184.5378">Component</text><line style="stroke:#5E5E5E;stroke-width:1.0416666666666667;" x1="461.4583" x2="572.9167" y1="195.5078" y2="195.5078"/><line style="stroke:#5E5E5E;stroke-width:1.0416666666666667;" x1="461.4583" x2="572.9167" y1="203.8411" y2="203.8411"/><rect codeLine="13" fill="#282828" height="48.055" id="BaseComponent" rx="8.3333" ry="8.3333" style="stroke:#5E5E5E;stroke-width:1.0416666666666667;" width="143.75" x="329.6875" y="284.432"/><rect fill="#1B1B1A" height="31.3883" rx="8.3333" ry="8.3333" style="stroke:#1B1B1A;stroke-width:1.0416666666666667;" width="143.75" x="329.6875" y="284.432"/><rect fill="#1B1B1A" height="8.3333" style="stroke:#1B1B1A;stroke-width:1.0416666666666667;" width="143.75" x="329.6875" y="307.487"/><rect codeLine="13" fill="none" height="48.055" id="BaseComponent" rx="8.3333" ry="8.3333" style="stroke:#5E5E5E;stroke-width:1.0416666666666667;" width="143.75" x="329.6875" y="284.432"/><ellipse cx="344.2708" cy="300.1261" fill="#0066CF" rx="10.4167" ry="10.4167" style="stroke:#0086EF;stroke-width:1.0416666666666667;"/><path d="M346.1812,304.5512 Q345.754,304.7709 345.284,304.8808 Q344.814,304.9906 344.2952,304.9906 Q342.452,304.9906 341.4815,303.776 Q340.5111,302.5614 340.5111,300.2665 Q340.5111,297.9655 341.4815,296.7509 Q342.452,295.5363 344.2952,295.5363 Q344.814,295.5363 345.2901,295.6462 Q345.7662,295.756 346.1812,295.9757 L346.1812,297.9777 Q345.7174,297.5505 345.281,297.3521 Q344.8446,297.1537 344.3807,297.1537 Q343.3919,297.1537 342.8884,297.938 Q342.3848,298.7223 342.3848,300.2665 Q342.3848,301.8046 342.8884,302.5889 Q343.3919,303.3732 344.3807,303.3732 Q344.8446,303.3732 345.281,303.1748 Q345.7174,302.9765 346.1812,302.5492 Z " fill="#000000"/><text fill="#D8BC00" font-family="Open Sans,Avenir,Nunito,Arial,Helvetica,SansSerif" font-size="12.5" font-weight="bold" lengthAdjust="spacing" textLength="106.25" x="360.9375" y="304.8503">BaseComponent</text><line style="stroke:#5E5E5E;stroke-width:1.0416666666666667;" x1="330.7292" x2="472.3958" y1="315.8203" y2="315.8203"/><line style="stroke:#5E5E5E;stroke-width:1.0416666666666667;" x1="330.7292" x2="472.3958" y1="324.1536" y2="324.1536"/><rect codeLine="17" fill="#282828" height="48.055" id="JavaTrait" rx="8.3333" ry="8.3333" style="stroke:#5E5E5E;stroke-width:1.0416666666666667;" width="94.7917" x="7.2917" y="53.7028"/><rect fill="#1B1B1A" height="31.3883" rx="8.3333" ry="8.3333" style="stroke:#1B1B1A;stroke-width:1.0416666666666667;" width="94.7917" x="7.2917" y="53.7028"/><rect fill="#1B1B1A" height="8.3333" style="stroke:#1B1B1A;stroke-width:1.0416666666666667;" width="94.7917" x="7.2917" y="76.7578"/><rect codeLine="17" fill="none" height="48.055" id="JavaTrait" rx="8.3333" ry="8.3333" style="stroke:#5E5E5E;stroke-width:1.0416666666666667;" width="94.7917" x="7.2917" y="53.7028"/><ellipse cx="21.875" cy="69.397" fill="#008400" rx="10.4167" ry="10.4167" style="stroke:#239C23;stroke-width:1.0416666666666667;"/><path d="M19.279,66.5588 L19.279,64.9719 L24.705,64.9719 L24.705,66.5588 L22.8923,66.5588 L22.8923,72.4976 L24.705,72.4976 L24.705,74.0845 L19.279,74.0845 L19.279,72.4976 L21.0917,72.4976 L21.0917,66.5588 Z " fill="#000000"/><text fill="#D8BC00" font-family="Open Sans,Avenir,Nunito,Arial,Helvetica,SansSerif" font-size="12.5" font-style="italic" font-weight="bold" lengthAdjust="spacing" textLength="57.2917" x="38.5417" y="74.1211">JavaTrait</text><line style="stroke:#5E5E5E;stroke-width:1.0416666666666667;" x1="8.3333" x2="101.0417" y1="85.0911" y2="85.0911"/><line style="stroke:#5E5E5E;stroke-width:1.0416666666666667;" x1="8.3333" x2="101.0417" y1="93.4245" y2="93.4245"/><rect codeLine="18" fill="#282828" height="48.055" id="LanguageTrait" rx="8.3333" ry="8.3333" style="stroke:#5E5E5E;stroke-width:1.0416666666666667;" width="130.2083" x="138.5417" y="53.7028"/><rect fill="#1B1B1A" height="31.3883" rx="8.3333" ry="8.3333" style="stroke:#1B1B1A;stroke-width:1.0416666666666667;" width="130.2083" x="138.5417" y="53.7028"/><rect fill="#1B1B1A" height="8.3333" style="stroke:#1B1B1A;stroke-width:1.0416666666666667;" width="130.2083" x="138.5417" y="76.7578"/><rect codeLine="18" fill="none" height="48.055" id="LanguageTrait" rx="8.3333" ry="8.3333" style="stroke:#5E5E5E;stroke-width:1.0416666666666667;" width="130.2083" x="138.5417" y="53.7028"/><ellipse cx="153.125" cy="69.397" fill="#008400" rx="10.4167" ry="10.4167" style="stroke:#239C23;stroke-width:1.0416666666666667;"/><path d="M150.529,66.5588 L150.529,64.9719 L155.955,64.9719 L155.955,66.5588 L154.1423,66.5588 L154.1423,72.4976 L155.955,72.4976 L155.955,74.0845 L150.529,74.0845 L150.529,72.4976 L152.3417,72.4976 L152.3417,66.5588 Z " fill="#000000"/><text fill="#D8BC00" font-family="Open Sans,Avenir,Nunito,Arial,Helvetica,SansSerif" font-size="12.5" font-style="italic" font-weight="bold" lengthAdjust="spacing" textLength="92.7083" x="169.7917" y="74.1211">LanguageTrait</text><line style="stroke:#5E5E5E;stroke-width:1.0416666666666667;" x1="139.5833" x2="267.7083" y1="85.0911" y2="85.0911"/><line style="stroke:#5E5E5E;stroke-width:1.0416666666666667;" x1="139.5833" x2="267.7083" y1="93.4245" y2="93.4245"/><rect codeLine="19" fill="#282828" height="48.055" id="PackageTrait" rx="8.3333" ry="8.3333" style="stroke:#5E5E5E;stroke-width:1.0416666666666667;" width="119.7917" x="305.2083" y="53.7028"/><rect fill="#1B1B1A" height="31.3883" rx="8.3333" ry="8.3333" style="stroke:#1B1B1A;stroke-width:1.0416666666666667;" width="119.7917" x="305.2083" y="53.7028"/><rect fill="#1B1B1A" height="8.3333" style="stroke:#1B1B1A;stroke-width:1.0416666666666667;" width="119.7917" x="305.2083" y="76.7578"/><rect codeLine="19" fill="none" height="48.055" id="PackageTrait" rx="8.3333" ry="8.3333" style="stroke:#5E5E5E;stroke-width:1.0416666666666667;" width="119.7917" x="305.2083" y="53.7028"/><ellipse cx="319.7917" cy="69.397" fill="#008400" rx="10.4167" ry="10.4167" style="stroke:#239C23;stroke-width:1.0416666666666667;"/><path d="M317.1956,66.5588 L317.1956,64.9719 L322.6217,64.9719 L322.6217,66.5588 L320.8089,66.5588 L320.8089,72.4976 L322.6217,72.4976 L322.6217,74.0845 L317.1956,74.0845 L317.1956,72.4976 L319.0084,72.4976 L319.0084,66.5588 Z " fill="#000000"/><text fill="#D8BC00" font-family="Open Sans,Avenir,Nunito,Arial,Helvetica,SansSerif" font-size="12.5" font-style="italic" font-weight="bold" lengthAdjust="spacing" textLength="82.2917" x="336.4583" y="74.1211">PackageTrait</text><line style="stroke:#5E5E5E;stroke-width:1.0416666666666667;" x1="306.25" x2="423.9583" y1="85.0911" y2="85.0911"/><line style="stroke:#5E5E5E;stroke-width:1.0416666666666667;" x1="306.25" x2="423.9583" y1="93.4245" y2="93.4245"/><rect codeLine="20" fill="#282828" height="48.055" id="ProjectTrait" rx="8.3333" ry="8.3333" style="stroke:#5E5E5E;stroke-width:1.0416666666666667;" width="111.4583" x="461.4583" y="53.7028"/><rect fill="#1B1B1A" height="31.3883" rx="8.3333" ry="8.3333" style="stroke:#1B1B1A;stroke-width:1.0416666666666667;" width="111.4583" x="461.4583" y="53.7028"/><rect fill="#1B1B1A" height="8.3333" style="stroke:#1B1B1A;stroke-width:1.0416666666666667;" width="111.4583" x="461.4583" y="76.7578"/><rect codeLine="20" fill="none" height="48.055" id="ProjectTrait" rx="8.3333" ry="8.3333" style="stroke:#5E5E5E;stroke-width:1.0416666666666667;" width="111.4583" x="461.4583" y="53.7028"/><ellipse cx="476.0417" cy="69.397" fill="#008400" rx="10.4167" ry="10.4167" style="stroke:#239C23;stroke-width:1.0416666666666667;"/><path d="M473.4456,66.5588 L473.4456,64.9719 L478.8717,64.9719 L478.8717,66.5588 L477.0589,66.5588 L477.0589,72.4976 L478.8717,72.4976 L478.8717,74.0845 L473.4456,74.0845 L473.4456,72.4976 L475.2584,72.4976 L475.2584,66.5588 Z " fill="#000000"/><text fill="#D8BC00" font-family="Open Sans,Avenir,Nunito,Arial,Helvetica,SansSerif" font-size="12.5" font-style="italic" font-weight="bold" lengthAdjust="spacing" textLength="73.9583" x="492.7083" y="74.1211">ProjectTrait</text><line style="stroke:#5E5E5E;stroke-width:1.0416666666666667;" x1="462.5" x2="571.875" y1="85.0911" y2="85.0911"/><line style="stroke:#5E5E5E;stroke-width:1.0416666666666667;" x1="462.5" x2="571.875" y1="93.4245" y2="93.4245"/><rect codeLine="21" fill="#282828" height="48.055" id="RegistryTrait" rx="8.3333" ry="8.3333" style="stroke:#5E5E5E;stroke-width:1.0416666666666667;" width="120.8333" x="609.8958" y="53.7028"/><rect fill="#1B1B1A" height="31.3883" rx="8.3333" ry="8.3333" style="stroke:#1B1B1A;stroke-width:1.0416666666666667;" width="120.8333" x="609.8958" y="53.7028"/><rect fill="#1B1B1A" height="8.3333" style="stroke:#1B1B1A;stroke-width:1.0416666666666667;" width="120.8333" x="609.8958" y="76.7578"/><rect codeLine="21" fill="none" height="48.055" id="RegistryTrait" rx="8.3333" ry="8.3333" style="stroke:#5E5E5E;stroke-width:1.0416666666666667;" width="120.8333" x="609.8958" y="53.7028"/><ellipse cx="624.4792" cy="69.397" fill="#008400" rx="10.4167" ry="10.4167" style="stroke:#239C23;stroke-width:1.0416666666666667;"/><path d="M621.8831,66.5588 L621.8831,64.9719 L627.3092,64.9719 L627.3092,66.5588 L625.4964,66.5588 L625.4964,72.4976 L627.3092,72.4976 L627.3092,74.0845 L621.8831,74.0845 L621.8831,72.4976 L623.6959,72.4976 L623.6959,66.5588 Z " fill="#000000"/><text fill="#D8BC00" font-family="Open Sans,Avenir,Nunito,Arial,Helvetica,SansSerif" font-size="12.5" font-style="italic" font-weight="bold" lengthAdjust="spacing" textLength="83.3333" x="641.1458" y="74.1211">RegistryTrait</text><line style="stroke:#5E5E5E;stroke-width:1.0416666666666667;" x1="610.9375" x2="729.6875" y1="85.0911" y2="85.0911"/><line style="stroke:#5E5E5E;stroke-width:1.0416666666666667;" x1="610.9375" x2="729.6875" y1="93.4245" y2="93.4245"/><rect codeLine="22" fill="#282828" height="48.055" id="Repeater" rx="8.3333" ry="8.3333" style="stroke:#5E5E5E;stroke-width:1.0416666666666667;" width="93.75" x="767.1875" y="53.7028"/><rect fill="#1B1B1A" height="31.3883" rx="8.3333" ry="8.3333" style="stroke:#1B1B1A;stroke-width:1.0416666666666667;" width="93.75" x="767.1875" y="53.7028"/><rect fill="#1B1B1A" height="8.3333" style="stroke:#1B1B1A;stroke-width:1.0416666666666667;" width="93.75" x="767.1875" y="76.7578"/><rect codeLine="22" fill="none" height="48.055" id="Repeater" rx="8.3333" ry="8.3333" style="stroke:#5E5E5E;stroke-width:1.0416666666666667;" width="93.75" x="767.1875" y="53.7028"/><ellipse cx="781.7708" cy="69.397" fill="#008400" rx="10.4167" ry="10.4167" style="stroke:#239C23;stroke-width:1.0416666666666667;"/><path d="M779.1748,66.5588 L779.1748,64.9719 L784.6008,64.9719 L784.6008,66.5588 L782.7881,66.5588 L782.7881,72.4976 L784.6008,72.4976 L784.6008,74.0845 L779.1748,74.0845 L779.1748,72.4976 L780.9875,72.4976 L780.9875,66.5588 Z " fill="#000000"/><text fill="#D8BC00" font-family="Open Sans,Avenir,Nunito,Arial,Helvetica,SansSerif" font-size="12.5" font-style="italic" font-weight="bold" lengthAdjust="spacing" textLength="56.25" x="798.4375" y="74.1211">Repeater</text><line style="stroke:#5E5E5E;stroke-width:1.0416666666666667;" x1="768.2292" x2="859.8958" y1="85.0911" y2="85.0911"/><line style="stroke:#5E5E5E;stroke-width:1.0416666666666667;" x1="768.2292" x2="859.8958" y1="93.4245" y2="93.4245"/><rect codeLine="23" fill="#282828" height="48.055" id="SettingsTrait" rx="8.3333" ry="8.3333" style="stroke:#5E5E5E;stroke-width:1.0416666666666667;" width="120.8333" x="897.3958" y="53.7028"/><rect fill="#1B1B1A" height="31.3883" rx="8.3333" ry="8.3333" style="stroke:#1B1B1A;stroke-width:1.0416666666666667;" width="120.8333" x="897.3958" y="53.7028"/><rect fill="#1B1B1A" height="8.3333" style="stroke:#1B1B1A;stroke-width:1.0416666666666667;" width="120.8333" x="897.3958" y="76.7578"/><rect codeLine="23" fill="none" height="48.055" id="SettingsTrait" rx="8.3333" ry="8.3333" style="stroke:#5E5E5E;stroke-width:1.0416666666666667;" width="120.8333" x="897.3958" y="53.7028"/><ellipse cx="911.9792" cy="69.397" fill="#008400" rx="10.4167" ry="10.4167" style="stroke:#239C23;stroke-width:1.0416666666666667;"/><path d="M909.3831,66.5588 L909.3831,64.9719 L914.8092,64.9719 L914.8092,66.5588 L912.9964,66.5588 L912.9964,72.4976 L914.8092,72.4976 L914.8092,74.0845 L909.3831,74.0845 L909.3831,72.4976 L911.1959,72.4976 L911.1959,66.5588 Z " fill="#000000"/><text fill="#D8BC00" font-family="Open Sans,Avenir,Nunito,Arial,Helvetica,SansSerif" font-size="12.5" font-style="italic" font-weight="bold" lengthAdjust="spacing" textLength="83.3333" x="928.6458" y="74.1211">SettingsTrait</text><line style="stroke:#5E5E5E;stroke-width:1.0416666666666667;" x1="898.4375" x2="1017.1875" y1="85.0911" y2="85.0911"/><line style="stroke:#5E5E5E;stroke-width:1.0416666666666667;" x1="898.4375" x2="1017.1875" y1="93.4245" y2="93.4245"/><rect codeLine="36" fill="#282828" height="48.055" id="Mixin" rx="8.3333" ry="8.3333" style="stroke:#5E5E5E;stroke-width:1.0416666666666667;" width="72.9167" x="610.9375" y="164.1195"/><rect fill="#1B1B1A" height="31.3883" rx="8.3333" ry="8.3333" style="stroke:#1B1B1A;stroke-width:1.0416666666666667;" width="72.9167" x="610.9375" y="164.1195"/><rect fill="#1B1B1A" height="8.3333" style="stroke:#1B1B1A;stroke-width:1.0416666666666667;" width="72.9167" x="610.9375" y="187.1745"/><rect codeLine="36" fill="none" height="48.055" id="Mixin" rx="8.3333" ry="8.3333" style="stroke:#5E5E5E;stroke-width:1.0416666666666667;" width="72.9167" x="610.9375" y="164.1195"/><ellipse cx="625.5208" cy="179.8136" fill="#008400" rx="10.4167" ry="10.4167" style="stroke:#239C23;stroke-width:1.0416666666666667;"/><path d="M622.9248,176.9755 L622.9248,175.3886 L628.3508,175.3886 L628.3508,176.9755 L626.5381,176.9755 L626.5381,182.9142 L628.3508,182.9142 L628.3508,184.5011 L622.9248,184.5011 L622.9248,182.9142 L624.7375,182.9142 L624.7375,176.9755 Z " fill="#000000"/><text fill="#D8BC00" font-family="Open Sans,Avenir,Nunito,Arial,Helvetica,SansSerif" font-size="12.5" font-style="italic" font-weight="bold" lengthAdjust="spacing" textLength="35.4167" x="642.1875" y="184.5378">Mixin</text><line style="stroke:#5E5E5E;stroke-width:1.0416666666666667;" x1="611.9792" x2="682.8125" y1="195.5078" y2="195.5078"/><line style="stroke:#5E5E5E;stroke-width:1.0416666666666667;" x1="611.9792" x2="682.8125" y1="203.8411" y2="203.8411"/><rect codeLine="37" fill="#282828" height="48.055" id="RepeaterMixin" rx="8.3333" ry="8.3333" style="stroke:#5E5E5E;stroke-width:1.0416666666666667;" width="129.1667" x="720.3125" y="164.1195"/><rect fill="#1B1B1A" height="31.3883" rx="8.3333" ry="8.3333" style="stroke:#1B1B1A;stroke-width:1.0416666666666667;" width="129.1667" x="720.3125" y="164.1195"/><rect fill="#1B1B1A" height="8.3333" style="stroke:#1B1B1A;stroke-width:1.0416666666666667;" width="129.1667" x="720.3125" y="187.1745"/><rect codeLine="37" fill="none" height="48.055" id="RepeaterMixin" rx="8.3333" ry="8.3333" style="stroke:#5E5E5E;stroke-width:1.0416666666666667;" width="129.1667" x="720.3125" y="164.1195"/><ellipse cx="734.8958" cy="179.8136" fill="#008400" rx="10.4167" ry="10.4167" style="stroke:#239C23;stroke-width:1.0416666666666667;"/><path d="M732.2998,176.9755 L732.2998,175.3886 L737.7258,175.3886 L737.7258,176.9755 L735.9131,176.9755 L735.9131,182.9142 L737.7258,182.9142 L737.7258,184.5011 L732.2998,184.5011 L732.2998,182.9142 L734.1125,182.9142 L734.1125,176.9755 Z " fill="#000000"/><text fill="#D8BC00" font-family="Open Sans,Avenir,Nunito,Arial,Helvetica,SansSerif" font-size="12.5" font-style="italic" font-weight="bold" lengthAdjust="spacing" textLength="91.6667" x="751.5625" y="184.5378">RepeaterMixin</text><line style="stroke:#5E5E5E;stroke-width:1.0416666666666667;" x1="721.3542" x2="848.4375" y1="195.5078" y2="195.5078"/><line style="stroke:#5E5E5E;stroke-width:1.0416666666666667;" x1="721.3542" x2="848.4375" y1="203.8411" y2="203.8411"/><rect codeLine="41" fill="#282828" height="67.7999" id="ComponentMixin" rx="8.3333" ry="8.3333" style="stroke:#5E5E5E;stroke-width:1.0416666666666667;" width="197.9167" x="548.4375" y="274.5361"/><rect fill="#1B1B1A" height="31.3883" rx="8.3333" ry="8.3333" style="stroke:#1B1B1A;stroke-width:1.0416666666666667;" width="197.9167" x="548.4375" y="274.5361"/><rect fill="#1B1B1A" height="8.3333" style="stroke:#1B1B1A;stroke-width:1.0416666666666667;" width="197.9167" x="548.4375" y="297.5911"/><rect codeLine="41" fill="none" height="67.7999" id="ComponentMixin" rx="8.3333" ry="8.3333" style="stroke:#5E5E5E;stroke-width:1.0416666666666667;" width="197.9167" x="548.4375" y="274.5361"/><ellipse cx="585.0521" cy="290.2303" fill="#008400" rx="10.4167" ry="10.4167" style="stroke:#239C23;stroke-width:1.0416666666666667;"/><path d="M582.4561,287.3922 L582.4561,285.8053 L587.8821,285.8053 L587.8821,287.3922 L586.0693,287.3922 L586.0693,293.3309 L587.8821,293.3309 L587.8821,294.9178 L582.4561,294.9178 L582.4561,293.3309 L584.2688,293.3309 L584.2688,287.3922 Z " fill="#000000"/><text fill="#D8BC00" font-family="Open Sans,Avenir,Nunito,Arial,Helvetica,SansSerif" font-size="12.5" font-style="italic" font-weight="bold" lengthAdjust="spacing" textLength="111.4583" x="606.6146" y="294.9544">ComponentMixin</text><line style="stroke:#5E5E5E;stroke-width:1.5625;" x1="549.4792" x2="745.3125" y1="305.9245" y2="305.9245"/><line style="stroke:#5E5E5E;stroke-width:1.0416666666666667;" x1="549.4792" x2="745.3125" y1="314.2578" y2="314.2578"/><ellipse cx="559.8958" cy="325.7161" fill="#84BE84" rx="3.125" ry="3.125" style="stroke:#038048;stroke-width:1.0416666666666667;"/><text fill="#D8BC00" font-family="Open Sans,Avenir,Nunito,Arial,Helvetica,SansSerif" font-size="11.4583" lengthAdjust="spacing" textLength="165.625" x="571.3542" y="332.6274">BaseComponent component()</text><path codeLine="11" d="M376.4063,232.2132 C382.3125,249.8486 388.9063,269.5361 393.8542,284.3278 " fill="none" id="BaseRepeater-backto-BaseComponent" style="stroke:#545454;stroke-width:1.5625;"/><polygon fill="none" points="369.4063,234.2653,369.7083,212.1924,383.2292,229.6403,369.4063,234.2653" style="stroke:#545454;stroke-width:1.5625;"/><path codeLine="12" d="M479.8125,227.3382 C461.4375,246.1299 439.8958,268.1507 424.0729,284.3278 " fill="none" id="Component-backto-BaseComponent" style="stroke:#545454;stroke-width:1.5625;"/><polygon fill="none" points="474.8438,221.9945,494.6146,212.1924,485.2708,232.1924,474.8438,221.9945" style="stroke:#545454;stroke-width:1.5625;"/><path codeLine="24" d="M122.3854,101.5882 C264.6875,138.7757 307,130.4424 442.1875,164.1195 C448,165.5674 454.0313,167.1924 460.0313,168.9007 " fill="none" id="JavaTrait-backto-Component" style="stroke:#545454;stroke-width:1.5625;"/><polygon fill="none" points="120.3438,108.5986,102.1042,96.1611,124.1146,94.5049,120.3438,108.5986" style="stroke:#545454;stroke-width:1.5625;"/><path codeLine="25" d="M517.1875,122.6195 C517.1875,136.8382 517.1875,152.0361 517.1875,164.0986 " fill="none" id="ProjectTrait-backto-Component" style="stroke:#545454;stroke-width:1.5625;"/><polygon fill="none" points="509.8958,122.5153,517.1875,101.682,524.4792,122.5153,509.8958,122.5153" style="stroke:#545454;stroke-width:1.5625;"/><path codeLine="26" d="M414.5208,113.9007 C437.6458,130.3695 464.5208,149.5257 484.9792,164.0986 " fill="none" id="PackageTrait-backto-Component" style="stroke:#545454;stroke-width:1.5625;"/><polygon fill="none" points="410.0938,119.7028,397.3542,101.682,418.5521,107.8278,410.0938,119.7028" style="stroke:#545454;stroke-width:1.5625;"/><path codeLine="27" d="M620.5625,113.9007 C597.2813,130.3695 570.2083,149.5257 549.6146,164.0986 " fill="none" id="RegistryTrait-backto-Component" style="stroke:#545454;stroke-width:1.5625;"/><polygon fill="none" points="616.625,107.7549,637.8438,101.682,625.0417,119.6611,616.625,107.7549" style="stroke:#545454;stroke-width:1.5625;"/><path codeLine="28" d="M288.7083,108.0986 C343.2083,126.9215 412.4479,150.8486 460.3438,167.3903 " fill="none" id="LanguageTrait-backto-Component" style="stroke:#545454;stroke-width:1.5625;"/><polygon fill="none" points="286.3021,114.9736,268.9896,101.2861,291.0625,101.1924,286.3021,114.9736" style="stroke:#545454;stroke-width:1.5625;"/><path codeLine="29" d="M877.0417,102.0361 C749.8854,133.7132 713.2083,133.0049 593.2292,164.1195 C587.0938,165.7132 580.6979,167.4736 574.3542,169.2861 " fill="none" id="SettingsTrait-backto-Component" style="stroke:#545454;stroke-width:1.5625;"/><polygon fill="none" points="875.375,94.932,897.3646,96.8903,878.9583,109.0674,875.375,94.932" style="stroke:#545454;stroke-width:1.5625;"/><path codeLine="30" d="M747.3958,103.0257 C695.2813,122.0465 623.625,148.1924 574.1667,166.2445 " fill="none" id="Repeater-backto-Component" style="stroke:#545454;stroke-width:1.5625;"/><polygon fill="none" points="744.9479,96.1611,767.0208,95.8695,749.9479,109.859,744.9479,96.1611" style="stroke:#545454;stroke-width:1.5625;"/><path codeLine="38" d="M558.2292,226.3903 C575.2292,241.8174 594.7604,259.557 611.2083,274.484 " fill="none" id="Component-backto-ComponentMixin" style="stroke:#545454;stroke-width:1.5625;"/><polygon fill="none" points="553.125,231.5986,542.6042,212.1924,562.9271,220.807,553.125,231.5986" style="stroke:#545454;stroke-width:1.5625;"/><path codeLine="39" d="M647.3958,233.484 C647.3958,247.0882 647.3958,261.7965 647.3958,274.484 " fill="none" id="Mixin-backto-ComponentMixin" style="stroke:#545454;stroke-width:1.5625;"/><polygon fill="none" points="640.1042,233.0257,647.3958,212.1924,654.6875,233.0257,640.1042,233.0257" style="stroke:#545454;stroke-width:1.5625;"/><path codeLine="40" d="M742.1146,225.9111 C724.0417,241.4528 703.1563,259.4007 685.6146,274.484 " fill="none" id="RepeaterMixin-backto-ComponentMixin" style="stroke:#545454;stroke-width:1.5625;"/><polygon fill="none" points="737.5104,220.2549,758.0625,212.1924,747.0104,231.307,737.5104,220.2549" style="stroke:#545454;stroke-width:1.5625;"/></g></svg>
