<?xml version="1.0" encoding="UTF-8" standalone="no"?><svg xmlns="http://www.w3.org/2000/svg" xmlns:xlink="http://www.w3.org/1999/xlink" contentScriptType="application/ecmascript" contentStyleType="text/css" height="277.0833px" preserveAspectRatio="none" style="width:418px;height:277px;background:#333333;" version="1.1" viewBox="0 0 418 277" width="418.75px" zoomAndPan="magnify"><defs/><g><rect fill="#48494B" height="41.2028" rx="8.3333" ry="8.3333" style="stroke:#545454;stroke-width:1.0416666666666667;" width="406.25" x="2.0833" y="2.0833"/><text fill="#C0C0C0" font-family="Open Sans,Avenir,Nunito,Arial,Helvetica,SansSerif" font-size="20.8333" lengthAdjust="spacing" textLength="383.3333" x="13.5417" y="30.5583">com.telenav.kivakit.interfaces.function</text><rect codeLine="7" fill="#282828" height="48.055" id="Predicate" rx="8.3333" ry="8.3333" style="stroke:#5E5E5E;stroke-width:1.0416666666666667;" width="141.6667" x="139.5833" y="56.8278"/><rect fill="#1B1B1A" height="31.3883" rx="8.3333" ry="8.3333" style="stroke:#1B1B1A;stroke-width:1.0416666666666667;" width="141.6667" x="139.5833" y="56.8278"/><rect fill="#1B1B1A" height="8.3333" style="stroke:#1B1B1A;stroke-width:1.0416666666666667;" width="141.6667" x="139.5833" y="79.8828"/><rect codeLine="7" fill="none" height="48.055" id="Predicate" rx="8.3333" ry="8.3333" style="stroke:#5E5E5E;stroke-width:1.0416666666666667;" width="141.6667" x="139.5833" y="56.8278"/><ellipse cx="154.1667" cy="72.522" fill="#008400" rx="10.4167" ry="10.4167" style="stroke:#239C23;stroke-width:1.0416666666666667;"/><path d="M151.5706,69.6838 L151.5706,68.0969 L156.9967,68.0969 L156.9967,69.6838 L155.1839,69.6838 L155.1839,75.6226 L156.9967,75.6226 L156.9967,77.2095 L151.5706,77.2095 L151.5706,75.6226 L153.3834,75.6226 L153.3834,69.6838 Z " fill="#000000"/><text fill="#D8BC00" font-family="Open Sans,Avenir,Nunito,Arial,Helvetica,SansSerif" font-size="12.5" font-style="italic" font-weight="bold" lengthAdjust="spacing" textLength="58.3333" x="170.8333" y="77.2461">Predicate</text><rect fill="#333333" height="23.055" style="stroke:#A0A0A0;stroke-width:1.0416666666666667;stroke-dasharray:2.0,2.0;" width="43.75" x="240.625" y="53.7028"/><text fill="#A0A0A0" font-family="Open Sans,Avenir,Nunito,Arial,Helvetica,SansSerif" font-size="12.5" font-weight="bold" lengthAdjust="spacing" textLength="35.4167" x="244.7917" y="69.9544">Value</text><line style="stroke:#5E5E5E;stroke-width:1.0416666666666667;" x1="140.625" x2="280.2083" y1="88.2161" y2="88.2161"/><line style="stroke:#5E5E5E;stroke-width:1.0416666666666667;" x1="140.625" x2="280.2083" y1="96.5495" y2="96.5495"/><rect codeLine="9" fill="#282828" height="103.123" id="BooleanFunction" rx="8.3333" ry="8.3333" style="stroke:#5E5E5E;stroke-width:1.0416666666666667;" width="191.6667" x="114.5833" y="167.2445"/><rect fill="#1B1B1A" height="31.3883" rx="8.3333" ry="8.3333" style="stroke:#1B1B1A;stroke-width:1.0416666666666667;" width="191.6667" x="114.5833" y="167.2445"/><rect fill="#1B1B1A" height="8.3333" style="stroke:#1B1B1A;stroke-width:1.0416666666666667;" width="191.6667" x="114.5833" y="190.2995"/><rect codeLine="9" fill="none" height="103.123" id="BooleanFunction" rx="8.3333" ry="8.3333" style="stroke:#5E5E5E;stroke-width:1.0416666666666667;" width="191.6667" x="114.5833" y="167.2445"/><ellipse cx="129.1667" cy="182.9386" fill="#008400" rx="10.4167" ry="10.4167" style="stroke:#239C23;stroke-width:1.0416666666666667;"/><path d="M126.5706,180.1005 L126.5706,178.5136 L131.9967,178.5136 L131.9967,180.1005 L130.1839,180.1005 L130.1839,186.0392 L131.9967,186.0392 L131.9967,187.6261 L126.5706,187.6261 L126.5706,186.0392 L128.3834,186.0392 L128.3834,180.1005 Z " fill="#000000"/><text fill="#D8BC00" font-family="Open Sans,Avenir,Nunito,Arial,Helvetica,SansSerif" font-size="12.5" font-style="italic" font-weight="bold" lengthAdjust="spacing" textLength="108.3333" x="145.8333" y="187.6628">BooleanFunction</text><rect fill="#333333" height="23.055" style="stroke:#A0A0A0;stroke-width:1.0416666666666667;stroke-dasharray:2.0,2.0;" width="43.75" x="265.625" y="164.1195"/><text fill="#A0A0A0" font-family="Open Sans,Avenir,Nunito,Arial,Helvetica,SansSerif" font-size="12.5" font-weight="bold" lengthAdjust="spacing" textLength="35.4167" x="269.7917" y="180.3711">Value</text><line style="stroke:#5E5E5E;stroke-width:1.5625;" x1="115.625" x2="305.2083" y1="198.6328" y2="198.6328"/><ellipse cx="126.0417" cy="234.0027" fill="#84BE84" rx="3.125" ry="3.125" style="stroke:#038048;stroke-width:1.0416666666666667;"/><text fill="#D8BC00" font-family="Open Sans,Avenir,Nunito,Arial,Helvetica,SansSerif" font-size="11.4583" lengthAdjust="spacing" textLength="123.9583" x="137.5" y="240.9139">boolean isFalse(Value)</text><ellipse cx="126.0417" cy="253.7476" fill="#84BE84" rx="3.125" ry="3.125" style="stroke:#038048;stroke-width:1.0416666666666667;"/><text fill="#D8BC00" font-family="Open Sans,Avenir,Nunito,Arial,Helvetica,SansSerif" font-size="11.4583" lengthAdjust="spacing" textLength="121.875" x="137.5" y="260.6588">boolean isTrue(Value)</text><line style="stroke:#5E5E5E;stroke-width:1.0416666666666667;" x1="115.625" x2="183.8542" y1="216.8386" y2="216.8386"/><text fill="#D8BC00" font-family="Open Sans,Avenir,Nunito,Arial,Helvetica,SansSerif" font-size="11.4583" lengthAdjust="spacing" textLength="46.875" x="186.9792" y="220.6482">(checks)</text><line style="stroke:#5E5E5E;stroke-width:1.0416666666666667;" x1="236.9792" x2="305.2083" y1="216.8386" y2="216.8386"/><path codeLine="8" d="M210.4167,125.9632 C210.4167,139.1195 210.4167,153.6507 210.4167,167.1924 " fill="none" id="Predicate-backto-BooleanFunction" style="stroke:#545454;stroke-width:1.5625;"/><polygon fill="none" points="203.125,125.7236,210.4167,104.8903,217.7083,125.7236,203.125,125.7236" style="stroke:#545454;stroke-width:1.5625;"/></g></svg>
