<?xml version="1.0" encoding="UTF-8" standalone="no"?><svg xmlns="http://www.w3.org/2000/svg" xmlns:xlink="http://www.w3.org/1999/xlink" contentScriptType="application/ecmascript" contentStyleType="text/css" height="361.4583px" preserveAspectRatio="none" style="width:2234px;height:361px;background:#333333;" version="1.1" viewBox="0 0 2234 361" width="2234.375px" zoomAndPan="magnify"><defs/><g><rect fill="#48494B" height="41.2028" rx="8.3333" ry="8.3333" style="stroke:#545454;stroke-width:1.0416666666666667;" width="409.375" x="905.4688" y="2.0833"/><text fill="#C0C0C0" font-family="Open Sans,Avenir,Nunito,Arial,Helvetica,SansSerif" font-size="20.8333" lengthAdjust="spacing" textLength="386.4583" x="916.9271" y="30.5583">com.telenav.kivakit.resource.resources</text><!--MD5=[a895581b51b0debe0fc56e5f7d686e14]
class BaseReadableResource--><rect codeLine="6" fill="#282828" height="48.055" id="BaseReadableResource" rx="8.3333" ry="8.3333" style="stroke:#5E5E5E;stroke-width:1.0416666666666667;" width="184.375" x="582.8125" y="53.7028"/><rect fill="#1B1B1A" height="31.3883" rx="8.3333" ry="8.3333" style="stroke:#1B1B1A;stroke-width:1.0416666666666667;" width="184.375" x="582.8125" y="53.7028"/><rect fill="#1B1B1A" height="8.3333" style="stroke:#1B1B1A;stroke-width:1.0416666666666667;" width="184.375" x="582.8125" y="76.7578"/><rect codeLine="6" fill="none" height="48.055" id="BaseReadableResource" rx="8.3333" ry="8.3333" style="stroke:#5E5E5E;stroke-width:1.0416666666666667;" width="184.375" x="582.8125" y="53.7028"/><ellipse cx="597.3958" cy="69.397" fill="#C8AC00" rx="10.4167" ry="10.4167" style="stroke:#D8BC00;stroke-width:1.0416666666666667;"/><path d="M596.9889,66.099 L596.1405,69.8283 L597.8434,69.8283 Z M595.8903,64.4511 L598.0937,64.4511 L600.5534,73.5636 L598.7528,73.5636 L598.1913,71.3114 L595.7804,71.3114 L595.2311,73.5636 L593.4306,73.5636 Z " fill="#000000"/><text fill="#D8BC00" font-family="Open Sans,Avenir,Nunito,Arial,Helvetica,SansSerif" font-size="12.5" font-style="italic" font-weight="bold" lengthAdjust="spacing" textLength="146.875" x="614.0625" y="74.1211">BaseReadableResource</text><line style="stroke:#5E5E5E;stroke-width:1.0416666666666667;" x1="583.8542" x2="766.1458" y1="85.0911" y2="85.0911"/><line style="stroke:#5E5E5E;stroke-width:1.0416666666666667;" x1="583.8542" x2="766.1458" y1="93.4245" y2="93.4245"/><!--MD5=[8b5151cbe93a9a6942e91a66bba84fb0]
class BaseWritableResource--><rect codeLine="7" fill="#282828" height="48.055" id="BaseWritableResource" rx="8.3333" ry="8.3333" style="stroke:#5E5E5E;stroke-width:1.0416666666666667;" width="179.1667" x="1657.2917" y="53.7028"/><rect fill="#1B1B1A" height="31.3883" rx="8.3333" ry="8.3333" style="stroke:#1B1B1A;stroke-width:1.0416666666666667;" width="179.1667" x="1657.2917" y="53.7028"/><rect fill="#1B1B1A" height="8.3333" style="stroke:#1B1B1A;stroke-width:1.0416666666666667;" width="179.1667" x="1657.2917" y="76.7578"/><rect codeLine="7" fill="none" height="48.055" id="BaseWritableResource" rx="8.3333" ry="8.3333" style="stroke:#5E5E5E;stroke-width:1.0416666666666667;" width="179.1667" x="1657.2917" y="53.7028"/><ellipse cx="1671.875" cy="69.397" fill="#C8AC00" rx="10.4167" ry="10.4167" style="stroke:#D8BC00;stroke-width:1.0416666666666667;"/><path d="M1671.4681,66.099 L1670.6197,69.8283 L1672.3226,69.8283 Z M1670.3695,64.4511 L1672.5728,64.4511 L1675.0326,73.5636 L1673.232,73.5636 L1672.6705,71.3114 L1670.2596,71.3114 L1669.7103,73.5636 L1667.9097,73.5636 Z " fill="#000000"/><text fill="#D8BC00" font-family="Open Sans,Avenir,Nunito,Arial,Helvetica,SansSerif" font-size="12.5" font-style="italic" font-weight="bold" lengthAdjust="spacing" textLength="141.6667" x="1688.5417" y="74.1211">BaseWritableResource</text><line style="stroke:#5E5E5E;stroke-width:1.0416666666666667;" x1="1658.3333" x2="1835.4167" y1="85.0911" y2="85.0911"/><line style="stroke:#5E5E5E;stroke-width:1.0416666666666667;" x1="1658.3333" x2="1835.4167" y1="93.4245" y2="93.4245"/><!--MD5=[f645eb2002c2daa2d69d54eb8a14c446]
class ResourceResolver--><rect codeLine="9" fill="#282828" height="48.055" id="ResourceResolver" rx="8.3333" ry="8.3333" style="stroke:#5E5E5E;stroke-width:1.0416666666666667;" width="151.0417" x="2076.5625" y="53.7028"/><rect fill="#1B1B1A" height="31.3883" rx="8.3333" ry="8.3333" style="stroke:#1B1B1A;stroke-width:1.0416666666666667;" width="151.0417" x="2076.5625" y="53.7028"/><rect fill="#1B1B1A" height="8.3333" style="stroke:#1B1B1A;stroke-width:1.0416666666666667;" width="151.0417" x="2076.5625" y="76.7578"/><rect codeLine="9" fill="none" height="48.055" id="ResourceResolver" rx="8.3333" ry="8.3333" style="stroke:#5E5E5E;stroke-width:1.0416666666666667;" width="151.0417" x="2076.5625" y="53.7028"/><ellipse cx="2091.1458" cy="69.397" fill="#008400" rx="10.4167" ry="10.4167" style="stroke:#239C23;stroke-width:1.0416666666666667;"/><path d="M2088.5498,66.5588 L2088.5498,64.9719 L2093.9758,64.9719 L2093.9758,66.5588 L2092.1631,66.5588 L2092.1631,72.4976 L2093.9758,72.4976 L2093.9758,74.0845 L2088.5498,74.0845 L2088.5498,72.4976 L2090.3625,72.4976 L2090.3625,66.5588 Z " fill="#000000"/><text fill="#D8BC00" font-family="Open Sans,Avenir,Nunito,Arial,Helvetica,SansSerif" font-size="12.5" font-style="italic" font-weight="bold" lengthAdjust="spacing" textLength="113.5417" x="2107.8125" y="74.1211">ResourceResolver</text><line style="stroke:#5E5E5E;stroke-width:1.0416666666666667;" x1="2077.6042" x2="2226.5625" y1="85.0911" y2="85.0911"/><line style="stroke:#5E5E5E;stroke-width:1.0416666666666667;" x1="2077.6042" x2="2226.5625" y1="93.4245" y2="93.4245"/><!--MD5=[8dcff639769147260222dc2b01cd9c47]
class InputResource--><rect codeLine="12" fill="#282828" height="83.3781" id="InputResource" rx="8.3333" ry="8.3333" style="stroke:#5E5E5E;stroke-width:1.0416666666666667;" width="189.5833" x="7.2917" y="217.7653"/><rect fill="#1B1B1A" height="31.3883" rx="8.3333" ry="8.3333" style="stroke:#1B1B1A;stroke-width:1.0416666666666667;" width="189.5833" x="7.2917" y="217.7653"/><rect fill="#1B1B1A" height="8.3333" style="stroke:#1B1B1A;stroke-width:1.0416666666666667;" width="189.5833" x="7.2917" y="240.8203"/><rect codeLine="12" fill="none" height="83.3781" id="InputResource" rx="8.3333" ry="8.3333" style="stroke:#5E5E5E;stroke-width:1.0416666666666667;" width="189.5833" x="7.2917" y="217.7653"/><ellipse cx="48.5938" cy="233.4595" fill="#0066CF" rx="10.4167" ry="10.4167" style="stroke:#0086EF;stroke-width:1.0416666666666667;"/><path d="M50.5042,237.8845 Q50.0769,238.1042 49.6069,238.2141 Q49.137,238.324 48.6182,238.324 Q46.7749,238.324 45.8044,237.1094 Q44.834,235.8948 44.834,233.5999 Q44.834,231.2988 45.8044,230.0842 Q46.7749,228.8696 48.6182,228.8696 Q49.137,228.8696 49.613,228.9795 Q50.0891,229.0894 50.5042,229.3091 L50.5042,231.311 Q50.0403,230.8838 49.6039,230.6854 Q49.1675,230.4871 48.7036,230.4871 Q47.7148,230.4871 47.2113,231.2714 Q46.7078,232.0557 46.7078,233.5999 Q46.7078,235.1379 47.2113,235.9222 Q47.7148,236.7065 48.7036,236.7065 Q49.1675,236.7065 49.6039,236.5082 Q50.0403,236.3098 50.5042,235.8826 Z " fill="#000000"/><text fill="#D8BC00" font-family="Open Sans,Avenir,Nunito,Arial,Helvetica,SansSerif" font-size="12.5" font-weight="bold" lengthAdjust="spacing" textLength="92.7083" x="71.1979" y="238.1836">InputResource</text><line style="stroke:#5E5E5E;stroke-width:1.5625;" x1="8.3333" x2="195.8333" y1="249.1536" y2="249.1536"/><ellipse cx="18.75" cy="284.5235" fill="#84BE84" rx="3.125" ry="3.125" style="stroke:#038048;stroke-width:1.0416666666666667;"/><text fill="#D8BC00" font-family="Open Sans,Avenir,Nunito,Arial,Helvetica,SansSerif" font-size="11.4583" lengthAdjust="spacing" textLength="157.2917" x="30.2083" y="291.4347">InputResource(InputStream)</text><line style="stroke:#5E5E5E;stroke-width:1.0416666666666667;" x1="8.3333" x2="58.3333" y1="267.3594" y2="267.3594"/><text fill="#D8BC00" font-family="Open Sans,Avenir,Nunito,Arial,Helvetica,SansSerif" font-size="11.4583" lengthAdjust="spacing" textLength="81.25" x="61.4583" y="271.169">(constructors)</text><line style="stroke:#5E5E5E;stroke-width:1.0416666666666667;" x1="145.8333" x2="195.8333" y1="267.3594" y2="267.3594"/><!--MD5=[7fb115a82f660c0d8f26578b4bfa98e6]
class NullResource--><rect codeLine="19" fill="#282828" height="83.3781" id="NullResource" rx="8.3333" ry="8.3333" style="stroke:#5E5E5E;stroke-width:1.0416666666666667;" width="121.875" x="1482.8125" y="217.7653"/><rect fill="#1B1B1A" height="31.3883" rx="8.3333" ry="8.3333" style="stroke:#1B1B1A;stroke-width:1.0416666666666667;" width="121.875" x="1482.8125" y="217.7653"/><rect fill="#1B1B1A" height="8.3333" style="stroke:#1B1B1A;stroke-width:1.0416666666666667;" width="121.875" x="1482.8125" y="240.8203"/><rect codeLine="19" fill="none" height="83.3781" id="NullResource" rx="8.3333" ry="8.3333" style="stroke:#5E5E5E;stroke-width:1.0416666666666667;" width="121.875" x="1482.8125" y="217.7653"/><ellipse cx="1497.3958" cy="233.4595" fill="#0066CF" rx="10.4167" ry="10.4167" style="stroke:#0086EF;stroke-width:1.0416666666666667;"/><path d="M1499.3062,237.8845 Q1498.879,238.1042 1498.409,238.2141 Q1497.939,238.324 1497.4202,238.324 Q1495.577,238.324 1494.6065,237.1094 Q1493.6361,235.8948 1493.6361,233.5999 Q1493.6361,231.2988 1494.6065,230.0842 Q1495.577,228.8696 1497.4202,228.8696 Q1497.939,228.8696 1498.4151,228.9795 Q1498.8912,229.0894 1499.3062,229.3091 L1499.3062,231.311 Q1498.8424,230.8838 1498.406,230.6854 Q1497.9696,230.4871 1497.5057,230.4871 Q1496.5169,230.4871 1496.0134,231.2714 Q1495.5098,232.0557 1495.5098,233.5999 Q1495.5098,235.1379 1496.0134,235.9222 Q1496.5169,236.7065 1497.5057,236.7065 Q1497.9696,236.7065 1498.406,236.5082 Q1498.8424,236.3098 1499.3062,235.8826 Z " fill="#000000"/><text fill="#D8BC00" font-family="Open Sans,Avenir,Nunito,Arial,Helvetica,SansSerif" font-size="12.5" font-weight="bold" lengthAdjust="spacing" textLength="84.375" x="1514.0625" y="238.1836">NullResource</text><line style="stroke:#5E5E5E;stroke-width:1.5625;" x1="1483.8542" x2="1603.6458" y1="249.1536" y2="249.1536"/><ellipse cx="1494.2708" cy="284.5235" fill="#84BE84" rx="3.125" ry="3.125" style="stroke:#038048;stroke-width:1.0416666666666667;"/><text fill="#D8BC00" font-family="Open Sans,Avenir,Nunito,Arial,Helvetica,SansSerif" font-size="11.4583" lengthAdjust="spacing" textLength="82.2917" x="1505.7292" y="291.4347">NullResource()</text><line style="stroke:#5E5E5E;stroke-width:1.0416666666666667;" x1="1483.8542" x2="1500" y1="267.3594" y2="267.3594"/><text fill="#D8BC00" font-family="Open Sans,Avenir,Nunito,Arial,Helvetica,SansSerif" font-size="11.4583" lengthAdjust="spacing" textLength="81.25" x="1503.125" y="271.169">(constructors)</text><line style="stroke:#5E5E5E;stroke-width:1.0416666666666667;" x1="1587.5" x2="1603.6458" y1="267.3594" y2="267.3594"/><!--MD5=[6f9de66e4a7e7c2b0f2439a298ede586]
class OutputResource--><rect codeLine="26" fill="#282828" height="83.3781" id="OutputResource" rx="8.3333" ry="8.3333" style="stroke:#5E5E5E;stroke-width:1.0416666666666667;" width="210.4167" x="1641.6667" y="217.7653"/><rect fill="#1B1B1A" height="31.3883" rx="8.3333" ry="8.3333" style="stroke:#1B1B1A;stroke-width:1.0416666666666667;" width="210.4167" x="1641.6667" y="217.7653"/><rect fill="#1B1B1A" height="8.3333" style="stroke:#1B1B1A;stroke-width:1.0416666666666667;" width="210.4167" x="1641.6667" y="240.8203"/><rect codeLine="26" fill="none" height="83.3781" id="OutputResource" rx="8.3333" ry="8.3333" style="stroke:#5E5E5E;stroke-width:1.0416666666666667;" width="210.4167" x="1641.6667" y="217.7653"/><ellipse cx="1687.5" cy="233.4595" fill="#0066CF" rx="10.4167" ry="10.4167" style="stroke:#0086EF;stroke-width:1.0416666666666667;"/><path d="M1689.4104,237.8845 Q1688.9832,238.1042 1688.5132,238.2141 Q1688.0432,238.324 1687.5244,238.324 Q1685.6812,238.324 1684.7107,237.1094 Q1683.7402,235.8948 1683.7402,233.5999 Q1683.7402,231.2988 1684.7107,230.0842 Q1685.6812,228.8696 1687.5244,228.8696 Q1688.0432,228.8696 1688.5193,228.9795 Q1688.9954,229.0894 1689.4104,229.3091 L1689.4104,231.311 Q1688.9465,230.8838 1688.5101,230.6854 Q1688.0737,230.4871 1687.6099,230.4871 Q1686.6211,230.4871 1686.1176,231.2714 Q1685.614,232.0557 1685.614,233.5999 Q1685.614,235.1379 1686.1176,235.9222 Q1686.6211,236.7065 1687.6099,236.7065 Q1688.0737,236.7065 1688.5101,236.5082 Q1688.9465,236.3098 1689.4104,235.8826 Z " fill="#000000"/><text fill="#D8BC00" font-family="Open Sans,Avenir,Nunito,Arial,Helvetica,SansSerif" font-size="12.5" font-weight="bold" lengthAdjust="spacing" textLength="104.1667" x="1710.4167" y="238.1836">OutputResource</text><line style="stroke:#5E5E5E;stroke-width:1.5625;" x1="1642.7083" x2="1851.0417" y1="249.1536" y2="249.1536"/><ellipse cx="1653.125" cy="284.5235" fill="#84BE84" rx="3.125" ry="3.125" style="stroke:#038048;stroke-width:1.0416666666666667;"/><text fill="#D8BC00" font-family="Open Sans,Avenir,Nunito,Arial,Helvetica,SansSerif" font-size="11.4583" lengthAdjust="spacing" textLength="178.125" x="1664.5833" y="291.4347">OutputResource(OutputStream)</text><line style="stroke:#5E5E5E;stroke-width:1.0416666666666667;" x1="1642.7083" x2="1703.125" y1="267.3594" y2="267.3594"/><text fill="#D8BC00" font-family="Open Sans,Avenir,Nunito,Arial,Helvetica,SansSerif" font-size="11.4583" lengthAdjust="spacing" textLength="81.25" x="1706.25" y="271.169">(constructors)</text><line style="stroke:#5E5E5E;stroke-width:1.0416666666666667;" x1="1790.625" x2="1851.0417" y1="267.3594" y2="267.3594"/><!--MD5=[4dc55f260dcb1a8d214faea40618d838]
class PackageResource--><rect codeLine="33" fill="#282828" height="190.4358" id="PackageResource" rx="8.3333" ry="8.3333" style="stroke:#5E5E5E;stroke-width:1.0416666666666667;" width="481.25" x="233.3333" y="164.1195"/><rect fill="#1B1B1A" height="31.3883" rx="8.3333" ry="8.3333" style="stroke:#1B1B1A;stroke-width:1.0416666666666667;" width="481.25" x="233.3333" y="164.1195"/><rect fill="#1B1B1A" height="8.3333" style="stroke:#1B1B1A;stroke-width:1.0416666666666667;" width="481.25" x="233.3333" y="187.1745"/><rect codeLine="33" fill="none" height="190.4358" id="PackageResource" rx="8.3333" ry="8.3333" style="stroke:#5E5E5E;stroke-width:1.0416666666666667;" width="481.25" x="233.3333" y="164.1195"/><ellipse cx="411.4583" cy="179.8136" fill="#0066CF" rx="10.4167" ry="10.4167" style="stroke:#0086EF;stroke-width:1.0416666666666667;"/><path d="M413.3687,184.2387 Q412.9415,184.4584 412.4715,184.5683 Q412.0015,184.6781 411.4827,184.6781 Q409.6395,184.6781 408.669,183.4635 Q407.6986,182.2489 407.6986,179.954 Q407.6986,177.653 408.669,176.4384 Q409.6395,175.2238 411.4827,175.2238 Q412.0015,175.2238 412.4776,175.3337 Q412.9537,175.4435 413.3687,175.6632 L413.3687,177.6652 Q412.9049,177.238 412.4685,177.0396 Q412.0321,176.8412 411.5682,176.8412 Q410.5794,176.8412 410.0759,177.6255 Q409.5723,178.4098 409.5723,179.954 Q409.5723,181.4921 410.0759,182.2764 Q410.5794,183.0607 411.5682,183.0607 Q412.0321,183.0607 412.4685,182.8623 Q412.9049,182.664 413.3687,182.2367 Z " fill="#000000"/><text fill="#D8BC00" font-family="Open Sans,Avenir,Nunito,Arial,Helvetica,SansSerif" font-size="12.5" font-weight="bold" lengthAdjust="spacing" textLength="110.4167" x="434.375" y="184.5378">PackageResource</text><line style="stroke:#5E5E5E;stroke-width:1.5625;" x1="234.375" x2="713.5417" y1="195.5078" y2="195.5078"/><polygon fill="#FFFF44" points="244.7917,225.6694,248.9583,229.836,244.7917,234.0027,240.625,229.836" style="stroke:#B38D22;stroke-width:1.0416666666666667;"/><text fill="#D8BC00" font-family="Open Sans,Avenir,Nunito,Arial,Helvetica,SansSerif" font-size="11.4583" lengthAdjust="spacing" textLength="329.1667" x="256.25" y="237.7889">PackageResource(PackagePath, ModuleResource, FileName)</text><line style="stroke:#5E5E5E;stroke-width:1.0416666666666667;" x1="234.375" x2="430.2083" y1="213.7136" y2="213.7136"/><text fill="#D8BC00" font-family="Open Sans,Avenir,Nunito,Arial,Helvetica,SansSerif" font-size="11.4583" lengthAdjust="spacing" textLength="81.25" x="433.3333" y="217.5232">(constructors)</text><line style="stroke:#5E5E5E;stroke-width:1.0416666666666667;" x1="517.7083" x2="713.5417" y1="213.7136" y2="213.7136"/><line style="stroke:#5E5E5E;stroke-width:1.0416666666666667;" x1="234.375" x2="713.5417" y1="247.4976" y2="247.4976"/><ellipse cx="244.7917" cy="258.9559" fill="#84BE84" rx="3.125" ry="3.125" style="stroke:#038048;stroke-width:1.0416666666666667;"/><text fill="#D8BC00" font-family="Open Sans,Avenir,Nunito,Arial,Helvetica,SansSerif" font-size="11.4583" lengthAdjust="spacing" textLength="448.9583" x="256.25" y="265.8671">PackageResource packageResource(Listener, PackagePath _package, String path)</text><ellipse cx="244.7917" cy="278.7008" fill="#84BE84" rx="3.125" ry="3.125" style="stroke:#038048;stroke-width:1.0416666666666667;"/><text fill="#D8BC00" font-family="Open Sans,Avenir,Nunito,Arial,Helvetica,SansSerif" font-size="11.4583" lengthAdjust="spacing" textLength="298.9583" x="256.25" y="285.612">PackageResource packageResource(ModuleResource)</text><ellipse cx="244.7917" cy="298.4456" fill="#84BE84" rx="3.125" ry="3.125" style="stroke:#038048;stroke-width:1.0416666666666667;"/><text fill="#D8BC00" font-family="Open Sans,Avenir,Nunito,Arial,Helvetica,SansSerif" font-size="11.4583" lengthAdjust="spacing" textLength="406.25" x="256.25" y="305.3569">PackageResource packageResource(Listener, Class&lt;?&gt; type, String path)</text><ellipse cx="244.7917" cy="318.1905" fill="#84BE84" rx="3.125" ry="3.125" style="stroke:#038048;stroke-width:1.0416666666666667;"/><text fill="#D8BC00" font-family="Open Sans,Avenir,Nunito,Arial,Helvetica,SansSerif" font-size="11.4583" lengthAdjust="spacing" textLength="379.1667" x="256.25" y="325.1017">PackageResource packageResource(PackagePath _package, FilePath)</text><ellipse cx="244.7917" cy="337.9354" fill="#84BE84" rx="3.125" ry="3.125" style="stroke:#038048;stroke-width:1.0416666666666667;"/><text fill="#D8BC00" font-family="Open Sans,Avenir,Nunito,Arial,Helvetica,SansSerif" font-size="11.4583" lengthAdjust="spacing" textLength="386.4583" x="256.25" y="344.8466">PackageResource packageResource(PackagePath _package, FileName)</text><!--MD5=[5cbf81e4c366ca3564fecaf29c237d48]
class PackageResource.Resolver--><rect codeLine="46" fill="#282828" height="48.055" id="PackageResource.Resolver" rx="8.3333" ry="8.3333" style="stroke:#5E5E5E;stroke-width:1.0416666666666667;" width="92.7083" x="2105.7292" y="235.4736"/><rect fill="#1B1B1A" height="31.3883" rx="8.3333" ry="8.3333" style="stroke:#1B1B1A;stroke-width:1.0416666666666667;" width="92.7083" x="2105.7292" y="235.4736"/><rect fill="#1B1B1A" height="8.3333" style="stroke:#1B1B1A;stroke-width:1.0416666666666667;" width="92.7083" x="2105.7292" y="258.5286"/><rect codeLine="46" fill="none" height="48.055" id="PackageResource.Resolver" rx="8.3333" ry="8.3333" style="stroke:#5E5E5E;stroke-width:1.0416666666666667;" width="92.7083" x="2105.7292" y="235.4736"/><ellipse cx="2120.3125" cy="251.1678" fill="#0066CF" rx="10.4167" ry="10.4167" style="stroke:#0086EF;stroke-width:1.0416666666666667;"/><path d="M2122.2229,255.5929 Q2121.7957,255.8126 2121.3257,255.9224 Q2120.8557,256.0323 2120.3369,256.0323 Q2118.4937,256.0323 2117.5232,254.8177 Q2116.5527,253.6031 2116.5527,251.3082 Q2116.5527,249.0072 2117.5232,247.7926 Q2118.4937,246.578 2120.3369,246.578 Q2120.8557,246.578 2121.3318,246.6878 Q2121.8079,246.7977 2122.2229,247.0174 L2122.2229,249.0194 Q2121.759,248.5921 2121.3226,248.3938 Q2120.8862,248.1954 2120.4224,248.1954 Q2119.4336,248.1954 2118.9301,248.9797 Q2118.4265,249.764 2118.4265,251.3082 Q2118.4265,252.8463 2118.9301,253.6306 Q2119.4336,254.4149 2120.4224,254.4149 Q2120.8862,254.4149 2121.3226,254.2165 Q2121.759,254.0181 2122.2229,253.5909 Z " fill="#000000"/><text fill="#D8BC00" font-family="Open Sans,Avenir,Nunito,Arial,Helvetica,SansSerif" font-size="12.5" font-weight="bold" lengthAdjust="spacing" textLength="55.2083" x="2136.9792" y="255.8919">Resolver</text><line style="stroke:#5E5E5E;stroke-width:1.0416666666666667;" x1="2106.7708" x2="2197.3958" y1="266.862" y2="266.862"/><line style="stroke:#5E5E5E;stroke-width:1.0416666666666667;" x1="2106.7708" x2="2197.3958" y1="275.1953" y2="275.1953"/><!--MD5=[d8b7091fc71207719cb1ba2b583610df]
class ResourceSection--><rect codeLine="51" fill="#282828" height="83.3781" id="ResourceSection" rx="8.3333" ry="8.3333" style="stroke:#5E5E5E;stroke-width:1.0416666666666667;" width="247.9167" x="751.0417" y="217.7653"/><rect fill="#1B1B1A" height="31.3883" rx="8.3333" ry="8.3333" style="stroke:#1B1B1A;stroke-width:1.0416666666666667;" width="247.9167" x="751.0417" y="217.7653"/><rect fill="#1B1B1A" height="8.3333" style="stroke:#1B1B1A;stroke-width:1.0416666666666667;" width="247.9167" x="751.0417" y="240.8203"/><rect codeLine="51" fill="none" height="83.3781" id="ResourceSection" rx="8.3333" ry="8.3333" style="stroke:#5E5E5E;stroke-width:1.0416666666666667;" width="247.9167" x="751.0417" y="217.7653"/><ellipse cx="815.1042" cy="233.4595" fill="#0066CF" rx="10.4167" ry="10.4167" style="stroke:#0086EF;stroke-width:1.0416666666666667;"/><path d="M817.0146,237.8845 Q816.5873,238.1042 816.1174,238.2141 Q815.6474,238.324 815.1286,238.324 Q813.2853,238.324 812.3149,237.1094 Q811.3444,235.8948 811.3444,233.5999 Q811.3444,231.2988 812.3149,230.0842 Q813.2853,228.8696 815.1286,228.8696 Q815.6474,228.8696 816.1235,228.9795 Q816.5995,229.0894 817.0146,229.3091 L817.0146,231.311 Q816.5507,230.8838 816.1143,230.6854 Q815.6779,230.4871 815.214,230.4871 Q814.2253,230.4871 813.7217,231.2714 Q813.2182,232.0557 813.2182,233.5999 Q813.2182,235.1379 813.7217,235.9222 Q814.2253,236.7065 815.214,236.7065 Q815.6779,236.7065 816.1143,236.5082 Q816.5507,236.3098 817.0146,235.8826 Z " fill="#000000"/><text fill="#D8BC00" font-family="Open Sans,Avenir,Nunito,Arial,Helvetica,SansSerif" font-size="12.5" font-weight="bold" lengthAdjust="spacing" textLength="105.2083" x="838.0208" y="238.1836">ResourceSection</text><line style="stroke:#5E5E5E;stroke-width:1.5625;" x1="752.0833" x2="997.9167" y1="249.1536" y2="249.1536"/><ellipse cx="762.5" cy="284.5235" fill="#84BE84" rx="3.125" ry="3.125" style="stroke:#038048;stroke-width:1.0416666666666667;"/><text fill="#D8BC00" font-family="Open Sans,Avenir,Nunito,Arial,Helvetica,SansSerif" font-size="11.4583" lengthAdjust="spacing" textLength="215.625" x="773.9583" y="291.4347">ResourceSection(Resource, long, long)</text><line style="stroke:#5E5E5E;stroke-width:1.0416666666666667;" x1="752.0833" x2="831.25" y1="267.3594" y2="267.3594"/><text fill="#D8BC00" font-family="Open Sans,Avenir,Nunito,Arial,Helvetica,SansSerif" font-size="11.4583" lengthAdjust="spacing" textLength="81.25" x="834.375" y="271.169">(constructors)</text><line style="stroke:#5E5E5E;stroke-width:1.0416666666666667;" x1="918.75" x2="997.9167" y1="267.3594" y2="267.3594"/><!--MD5=[d5db6400288394716ad122924341cf80]
class StringOutputResource--><rect codeLine="58" fill="#282828" height="67.7999" id="StringOutputResource" rx="8.3333" ry="8.3333" style="stroke:#5E5E5E;stroke-width:1.0416666666666667;" width="180.2083" x="1889.0625" y="225.5778"/><rect fill="#1B1B1A" height="31.3883" rx="8.3333" ry="8.3333" style="stroke:#1B1B1A;stroke-width:1.0416666666666667;" width="180.2083" x="1889.0625" y="225.5778"/><rect fill="#1B1B1A" height="8.3333" style="stroke:#1B1B1A;stroke-width:1.0416666666666667;" width="180.2083" x="1889.0625" y="248.6328"/><rect codeLine="58" fill="none" height="67.7999" id="StringOutputResource" rx="8.3333" ry="8.3333" style="stroke:#5E5E5E;stroke-width:1.0416666666666667;" width="180.2083" x="1889.0625" y="225.5778"/><ellipse cx="1903.6458" cy="241.272" fill="#0066CF" rx="10.4167" ry="10.4167" style="stroke:#0086EF;stroke-width:1.0416666666666667;"/><path d="M1905.5562,245.697 Q1905.129,245.9167 1904.659,246.0266 Q1904.189,246.1365 1903.6702,246.1365 Q1901.827,246.1365 1900.8565,244.9219 Q1899.8861,243.7073 1899.8861,241.4124 Q1899.8861,239.1113 1900.8565,237.8967 Q1901.827,236.6821 1903.6702,236.6821 Q1904.189,236.6821 1904.6651,236.792 Q1905.1412,236.9019 1905.5562,237.1216 L1905.5562,239.1235 Q1905.0924,238.6963 1904.656,238.4979 Q1904.2196,238.2996 1903.7557,238.2996 Q1902.7669,238.2996 1902.2634,239.0839 Q1901.7598,239.8682 1901.7598,241.4124 Q1901.7598,242.9504 1902.2634,243.7347 Q1902.7669,244.519 1903.7557,244.519 Q1904.2196,244.519 1904.656,244.3207 Q1905.0924,244.1223 1905.5562,243.6951 Z " fill="#000000"/><text fill="#D8BC00" font-family="Open Sans,Avenir,Nunito,Arial,Helvetica,SansSerif" font-size="12.5" font-weight="bold" lengthAdjust="spacing" textLength="142.7083" x="1920.3125" y="245.9961">StringOutputResource</text><line style="stroke:#5E5E5E;stroke-width:1.5625;" x1="1890.1042" x2="2068.2292" y1="256.9661" y2="256.9661"/><line style="stroke:#5E5E5E;stroke-width:1.0416666666666667;" x1="1890.1042" x2="2068.2292" y1="265.2995" y2="265.2995"/><ellipse cx="1900.5208" cy="276.7578" fill="#84BE84" rx="3.125" ry="3.125" style="stroke:#038048;stroke-width:1.0416666666666667;"/><text fill="#D8BC00" font-family="Open Sans,Avenir,Nunito,Arial,Helvetica,SansSerif" font-size="11.4583" lengthAdjust="spacing" textLength="78.125" x="1911.9792" y="283.669">String string()</text><!--MD5=[a89c72e9b3cafd4d10fa23b6172feae4]
class StringResource--><rect codeLine="65" fill="#282828" height="131.2012" id="StringResource" rx="8.3333" ry="8.3333" style="stroke:#5E5E5E;stroke-width:1.0416666666666667;" width="410.4167" x="1035.4167" y="193.807"/><rect fill="#1B1B1A" height="31.3883" rx="8.3333" ry="8.3333" style="stroke:#1B1B1A;stroke-width:1.0416666666666667;" width="410.4167" x="1035.4167" y="193.807"/><rect fill="#1B1B1A" height="8.3333" style="stroke:#1B1B1A;stroke-width:1.0416666666666667;" width="410.4167" x="1035.4167" y="216.862"/><rect codeLine="65" fill="none" height="131.2012" id="StringResource" rx="8.3333" ry="8.3333" style="stroke:#5E5E5E;stroke-width:1.0416666666666667;" width="410.4167" x="1035.4167" y="193.807"/><ellipse cx="1184.8958" cy="209.5011" fill="#0066CF" rx="10.4167" ry="10.4167" style="stroke:#0086EF;stroke-width:1.0416666666666667;"/><path d="M1186.8062,213.9262 Q1186.379,214.1459 1185.909,214.2558 Q1185.439,214.3656 1184.9202,214.3656 Q1183.077,214.3656 1182.1065,213.151 Q1181.1361,211.9364 1181.1361,209.6415 Q1181.1361,207.3405 1182.1065,206.1259 Q1183.077,204.9113 1184.9202,204.9113 Q1185.439,204.9113 1185.9151,205.0212 Q1186.3912,205.131 1186.8062,205.3507 L1186.8062,207.3527 Q1186.3424,206.9255 1185.906,206.7271 Q1185.4696,206.5287 1185.0057,206.5287 Q1184.0169,206.5287 1183.5134,207.313 Q1183.0098,208.0973 1183.0098,209.6415 Q1183.0098,211.1796 1183.5134,211.9639 Q1184.0169,212.7482 1185.0057,212.7482 Q1185.4696,212.7482 1185.906,212.5498 Q1186.3424,212.3515 1186.8062,211.9242 Z " fill="#000000"/><text fill="#D8BC00" font-family="Open Sans,Avenir,Nunito,Arial,Helvetica,SansSerif" font-size="12.5" font-weight="bold" lengthAdjust="spacing" textLength="96.875" x="1207.8125" y="214.2253">StringResource</text><line style="stroke:#5E5E5E;stroke-width:1.5625;" x1="1036.4583" x2="1444.7917" y1="225.1953" y2="225.1953"/><ellipse cx="1046.875" cy="260.5652" fill="#84BE84" rx="3.125" ry="3.125" style="stroke:#038048;stroke-width:1.0416666666666667;"/><text fill="#D8BC00" font-family="Open Sans,Avenir,Nunito,Arial,Helvetica,SansSerif" font-size="11.4583" lengthAdjust="spacing" textLength="209.375" x="1058.3333" y="267.4764">StringResource(ResourcePath, String)</text><ellipse cx="1046.875" cy="280.3101" fill="#84BE84" rx="3.125" ry="3.125" style="stroke:#038048;stroke-width:1.0416666666666667;"/><text fill="#D8BC00" font-family="Open Sans,Avenir,Nunito,Arial,Helvetica,SansSerif" font-size="11.4583" lengthAdjust="spacing" textLength="127.0833" x="1058.3333" y="287.2213">StringResource(String)</text><line style="stroke:#5E5E5E;stroke-width:1.0416666666666667;" x1="1036.4583" x2="1196.875" y1="243.4011" y2="243.4011"/><text fill="#D8BC00" font-family="Open Sans,Avenir,Nunito,Arial,Helvetica,SansSerif" font-size="11.4583" lengthAdjust="spacing" textLength="81.25" x="1200" y="247.2107">(constructors)</text><line style="stroke:#5E5E5E;stroke-width:1.0416666666666667;" x1="1284.375" x2="1444.7917" y1="243.4011" y2="243.4011"/><line style="stroke:#5E5E5E;stroke-width:1.0416666666666667;" x1="1036.4583" x2="1444.7917" y1="296.9299" y2="296.9299"/><ellipse cx="1046.875" cy="308.3883" fill="#84BE84" rx="3.125" ry="3.125" style="stroke:#038048;stroke-width:1.0416666666666667;"/><text fill="#D8BC00" font-family="Open Sans,Avenir,Nunito,Arial,Helvetica,SansSerif" font-size="11.4583" lengthAdjust="spacing" textLength="378.125" x="1058.3333" y="315.2995">StringResource transform(Function&lt;String,String&gt; transformation)</text><!--MD5=[6dfb3884b423d33d58f7cc8c7abfb535]
reverse link BaseReadableResource to InputResource--><path codeLine="11" d="M561.7708,83.6507 C465.4271,91.5257 325.4583,111.859 214.5833,164.1195 C187.1563,177.0465 160.9167,198.3278 140.6875,217.4007 " fill="none" id="BaseReadableResource-backto-InputResource" style="stroke:#545454;stroke-width:1.5625;"/><polygon fill="none" points="561.2188,76.3799,582.5417,82.0778,562.3125,90.9215,561.2188,76.3799" style="stroke:#545454;stroke-width:1.5625;"/><!--MD5=[9ccf6f1b29adfc037ddc2e002e327a40]
reverse link BaseWritableResource to NullResource--><path codeLine="18" d="M1690.3438,113.0153 C1668.3125,127.557 1643.4688,145.4424 1622.9167,164.1195 C1605.2083,180.2236 1587.8333,200.2757 1573.9063,217.7445 " fill="none" id="BaseWritableResource-backto-NullResource" style="stroke:#545454;stroke-width:1.5625;"/><polygon fill="none" points="1686.5625,106.7757,1708.0313,101.6507,1694.4479,119.0465,1686.5625,106.7757" style="stroke:#545454;stroke-width:1.5625;"/><!--MD5=[286fa2e5d444bd373d64663297438e73]
reverse link BaseWritableResource to OutputResource--><path codeLine="25" d="M1746.875,122.8278 C1746.875,151.7549 1746.875,189.2965 1746.875,217.5361 " fill="none" id="BaseWritableResource-backto-OutputResource" style="stroke:#545454;stroke-width:1.5625;"/><polygon fill="none" points="1739.5833,122.6611,1746.875,101.8278,1754.1667,122.6611,1739.5833,122.6611" style="stroke:#545454;stroke-width:1.5625;"/><!--MD5=[828efa58960e0142d89c27cf70a5589d]
reverse link BaseReadableResource to PackageResource--><path codeLine="32" d="M633.3333,115.9424 C617.5938,130.0153 598.8646,146.7445 579.8854,163.7132 " fill="none" id="BaseReadableResource-backto-PackageResource" style="stroke:#545454;stroke-width:1.5625;"/><polygon fill="none" points="628.7396,110.2757,649.125,101.8278,638.4583,121.1507,628.7396,110.2757" style="stroke:#545454;stroke-width:1.5625;"/><!--MD5=[f0981f75adc7840478d2791913a1497f]
reverse link ResourceResolver to PackageResource.Resolver--><path codeLine="45" d="M2152.0833,122.984 C2152.0833,158.5674 2152.0833,207.0986 2152.0833,235.359 " fill="none" id="ResourceResolver-backto-PackageResource.Resolver" style="stroke:#545454;stroke-width:1.5625;"/><polygon fill="none" points="2144.7917,122.6611,2152.0833,101.8278,2159.375,122.6611,2144.7917,122.6611" style="stroke:#545454;stroke-width:1.5625;"/><!--MD5=[7acbd6a81c9084c0aa01c5e4ab5d84a9]
reverse link BaseReadableResource to ResourceSection--><path codeLine="50" d="M716.6563,116.1299 C749.625,145.7549 795.6042,187.057 829.5313,217.5361 " fill="none" id="BaseReadableResource-backto-ResourceSection" style="stroke:#545454;stroke-width:1.5625;"/><polygon fill="none" points="711.3646,121.1715,700.7396,101.8278,721.1042,110.3278,711.3646,121.1715" style="stroke:#545454;stroke-width:1.5625;"/><!--MD5=[1792cbf084bff08c4397e271d05ce57c]
reverse link BaseWritableResource to StringOutputResource--><path codeLine="57" d="M1799.5417,113.5361 C1821.625,128.5778 1847.3229,146.7132 1869.7917,164.1195 C1894.9583,183.6195 1922.0729,206.9736 1943.0104,225.557 " fill="none" id="BaseWritableResource-backto-StringOutputResource" style="stroke:#545454;stroke-width:1.5625;"/><polygon fill="none" points="1795.1979,119.3903,1782,101.6924,1803.3542,107.307,1795.1979,119.3903" style="stroke:#545454;stroke-width:1.5625;"/><!--MD5=[0f559c1caee63c79bb1093a2a7d5d518]
reverse link BaseReadableResource to StringResource--><path codeLine="64" d="M788.0938,102.3903 C855.25,117.5778 941.6563,139.1195 1016.6667,164.1195 C1042.6771,172.7861 1069.9271,183.1299 1096.0938,193.7445 " fill="none" id="BaseReadableResource-backto-StringResource" style="stroke:#545454;stroke-width:1.5625;"/><polygon fill="none" points="786.1979,109.432,767.4583,97.7757,789.375,95.2028,786.1979,109.432" style="stroke:#545454;stroke-width:1.5625;"/><!--MD5=[fc9e9fdbc77c6827550a8d3e0456c607]
@startuml

    !include lexakai.theme
    
    title "com.telenav.kivakit.resource.resources"
    
    abstract BaseReadableResource
    abstract BaseWritableResource
    
    interface ResourceResolver
    
    BaseReadableResource <|- - InputResource
    class InputResource
    {
        - -(constructors)- -
        +InputResource(InputStream)
    }
    
    BaseWritableResource <|- - NullResource
    class NullResource
    {
        - -(constructors)- -
        +NullResource()
    }
    
    BaseWritableResource <|- - OutputResource
    class OutputResource
    {
        - -(constructors)- -
        +OutputResource(OutputStream)
    }
    
    BaseReadableResource <|- - PackageResource
    class PackageResource
    {
        - -(constructors)- -
        #PackageResource(PackagePath, ModuleResource, FileName)
        - -
        +PackageResource packageResource(Listener, PackagePath _package, String path)
        +PackageResource packageResource(ModuleResource)
        +PackageResource packageResource(Listener, Class<?> type, String path)
        +PackageResource packageResource(PackagePath _package, FilePath)
        +PackageResource packageResource(PackagePath _package, FileName)
    }
    
    ResourceResolver <|- - PackageResource.Resolver
    class PackageResource.Resolver
    {
    }
    
    BaseReadableResource <|- - ResourceSection
    class ResourceSection
    {
        - -(constructors)- -
        +ResourceSection(Resource, long, long)
    }
    
    BaseWritableResource <|- - StringOutputResource
    class StringOutputResource
    {
        - -
        +String string()
    }
    
    BaseReadableResource <|- - StringResource
    class StringResource
    {
        - -(constructors)- -
        +StringResource(ResourcePath, String)
        +StringResource(String)
        - -
        +StringResource transform(Function<String,String> transformation)
    }
    
@enduml

@startuml









skinparam backgroundColor #333333






skinparam  {
    defaultFontName   "Open Sans,Avenir,Nunito,Arial,Helvetica,SansSerif"
    defaultFontSize   12
    defaultTextAlignment left
    shadowing false
    RoundCorner 10
    TitleFontSize 18
}

skinparam defaultFontName       "Open Sans,Avenir,Nunito,Arial,Helvetica,SansSerif"
skinparam defaultFontSize       12
skinparam dpi                   100
skinparam shadowing             false
skinparam roundcorner           16
skinparam ParticipantPadding    40
skinparam BoxPadding            40
skinparam Padding               3
skinparam ArrowColor            #545454
skinparam stereotype {
    CBackgroundColor #0066cf
    CBorderColor #0086ef
    ABackgroundColor #C8Ac00
    ABorderColor #D8Bc00
    IBackgroundColor #008400
    IBorderColor #239c23
    EBackgroundColor #cf6300
    EBorderColor #ef8300
    NBackgroundColor #3380b9
    NBorderColor #004d86
}
skinparam title {
	FontColor	                 #c0c0c0
 	BorderColor                  #545454
	FontSize	    	         20
	BorderRoundCorner            16
	BorderThickness 	         1
	BackgroundColor              #48494b
}


skinparam legend {
	BackgroundColor #303030
	BorderColor #404040
	FontColor #a0a0a0
}

	skinparam swimlane {
	BorderColor #5e5e5e
	BorderThickness 2
	TitleBackgroundColor  #6d6d6d-#484848
	TitleFontColor #303030
}

skinparam activity {
		FontColor #C8Ac00
	BorderColor #333333
	BackgroundColor #333333-#333333
	BarColor #00FF00
	StartColor #0060a8
	EndColor #0060a8
	DiamondBackgroundColor #6d6d6d-#3a3a3a
  	DiamondBorderColor #3a3a3a
  	DiamondFontColor #fefefe
}


skinparam participant {
		FontColor #C8Ac00
	BorderColor #333333
	BackgroundColor #333333-#333333
	ParticipantBorderThickness 2
}


skinparam actor {
		FontColor #C8Ac00
	BorderColor #333333
	BackgroundColor #333333-#333333
}


skinparam arrow {
	Thickness 1.5
	Color #545454
	FontColor #a0a0a0
    FontStyle bold
    MessageAlignment center
}



skinparam sequence {
	BorderColor #303030
	TitleFontColor #303030
	BackgroundColor #333333
	StartColor #303030
	EndColor #303030
	BoxBackgroundColor #333333
	BoxBorderColor #484848
	BoxFontColor #484848
	LifeLineBorderColor #484848
	LifeLineBorderThickness 2
	LifeLineBackgroundColor #3a3a3a
	GroupBorderColor #484848
	GroupFontColor #484848
	GroupHeaderFontColor #0060a8
	GroupBackgroundColor #484848
	GroupHeaderBackgroundColor #333333
	DividerBackgroundColor #484848
    DividerBorderColor #484848
    DividerBorderThickness 2
    DividerFontColor #D8Bc00
	ReferenceBackgroundColor #333333
	ReferenceBorderColor #484848
	ReferenceFontColor #fefefe
	ReferenceHeaderBackgroundColor #484848
}


skinparam partition {
	BorderColor #303030
	FontColor #333333
	BackgroundColor #333333
}


skinparam collections {
		FontColor #C8Ac00
	BorderColor #333333
	BackgroundColor #333333-#333333
}


skinparam control {
		FontColor #C8Ac00
	BorderColor #333333
	BackgroundColor #333333-#333333
}


skinparam entity {
		FontColor #C8Ac00
	BorderColor #333333
	BackgroundColor #333333-#333333
}


skinparam boundary {
		FontColor #C8Ac00
	BorderColor #333333
	BackgroundColor #333333-#333333
}


skinparam agent {
	BackgroundColor #ff8000
	BorderColor #ff9933
	FontColor #484848
}


skinparam note {
	BorderThickness 1
	BackgroundColor #1b1b1a
	BorderColor #5e5e5e
	FontSize 11
	FontColor #a0a0a0
}


skinparam artifact {
	BorderThickness 10
	BorderColor #5e5e5e
	BackgroundColor #1b1b1a
	FontColor #D8Bc00
}


skinparam component {
		FontColor #C8Ac00
	BorderColor #333333
	BackgroundColor #333333-#333333
}


skinparam interface {
	BackgroundColor  #008400
	BorderColor  #007F00
	FontColor #484848
}


skinparam storage {
	BackgroundColor #ff8000
  	BorderColor #cc6600
	FontColor #222222
}


skinparam node {
	BackgroundColor #333333
	BorderColor #333333
	FontColor #C8Ac00
}


skinparam cloud {
	BackgroundColor #484848-black
	BorderColor #484848
	FontColor #D8Bc00
}


skinparam database {
		FontColor #C8Ac00
	BorderColor #333333
	BackgroundColor #333333-#333333
	BackgroundColor  #333333
}


skinparam class {
		FontColor #C8Ac00
	BorderColor #333333
	BackgroundColor #333333-#333333
	HeaderBackgroundColor #1b1b1a
    BackgroundColor #282828
    BorderColor #5e5e5e
 	StereotypeFontColor #a0a0a0
    StereotypeFontStyle bold
	BorderThickness 1
	AttributeFontColor #D8Bc00
	AttributeFontSize 11
    FontColor #D8Bc00
    FontStyle bold
}


skinparam object {
		FontColor #C8Ac00
	BorderColor #333333
	BackgroundColor #333333-#333333
	StereotypeFontColor #484848
	BorderThickness 1
	AttributeFontColor #fefefe
	AttributeFontSize 11
}


skinparam usecase {
		FontColor #C8Ac00
	BorderColor #333333
	BackgroundColor #333333-#333333
	BorderThickness 2
	StereotypeFontColor #303030
}


skinparam rectangle {
		FontColor #C8Ac00
	BorderColor #333333
	BackgroundColor #333333-#333333
	BackgroundColor #333333
	BorderThickness 2
	StereotypeFontColor #303030
}


skinparam package {
		FontColor #C8Ac00
	BorderColor #333333
	BackgroundColor #333333-#333333
	BackgroundColor #333333
	BorderThickness 2
}


skinparam folder {
	BackgroundColor #6d6d6d
  	BorderColor #ff8000
	FontColor #ff8000
	BorderThickness 2
}


skinparam frame {
	BackgroundColor #6d6d6d
  	BorderColor #0060a8
	FontColor #0060a8
	BorderThickness 2
}


skinparam state {
		FontColor #C8Ac00
	BorderColor #333333
	BackgroundColor #333333-#333333
	StartColor #0060a8
	EndColor #0060a8
	AttributeFontColor #fefefe
	AttributeFontSize 11
}


skinparam queue {
		FontColor #C8Ac00
	BorderColor #333333
	BackgroundColor #333333-#333333
}


skinparam card {
	BackgroundColor #0060a8
	BorderColor #004d86
	FontColor $INFO_TEXT
}


skinparam file {
	BackgroundColor #6d6d6d-#484848
	BorderColor #0060a8
	FontColor #fefefe
}


skinparam stack {
		FontColor #C8Ac00
	BorderColor #333333
	BackgroundColor #333333-#333333
}

    
    title "com.telenav.kivakit.resource.resources"
    
    abstract BaseReadableResource
    abstract BaseWritableResource
    
    interface ResourceResolver
    
    BaseReadableResource <|- - InputResource
    class InputResource
    {
        - -(constructors)- -
        +InputResource(InputStream)
    }
    
    BaseWritableResource <|- - NullResource
    class NullResource
    {
        - -(constructors)- -
        +NullResource()
    }
    
    BaseWritableResource <|- - OutputResource
    class OutputResource
    {
        - -(constructors)- -
        +OutputResource(OutputStream)
    }
    
    BaseReadableResource <|- - PackageResource
    class PackageResource
    {
        - -(constructors)- -
        #PackageResource(PackagePath, ModuleResource, FileName)
        - -
        +PackageResource packageResource(Listener, PackagePath _package, String path)
        +PackageResource packageResource(ModuleResource)
        +PackageResource packageResource(Listener, Class<?> type, String path)
        +PackageResource packageResource(PackagePath _package, FilePath)
        +PackageResource packageResource(PackagePath _package, FileName)
    }
    
    ResourceResolver <|- - PackageResource.Resolver
    class PackageResource.Resolver
    {
    }
    
    BaseReadableResource <|- - ResourceSection
    class ResourceSection
    {
        - -(constructors)- -
        +ResourceSection(Resource, long, long)
    }
    
    BaseWritableResource <|- - StringOutputResource
    class StringOutputResource
    {
        - -
        +String string()
    }
    
    BaseReadableResource <|- - StringResource
    class StringResource
    {
        - -(constructors)- -
        +StringResource(ResourcePath, String)
        +StringResource(String)
        - -
        +StringResource transform(Function<String,String> transformation)
    }
    
@enduml

PlantUML version 1.2021.01(Tue Feb 02 00:55:08 MST 2021)
(GPL source distribution)
Java Runtime: OpenJDK Runtime Environment
JVM: OpenJDK 64-Bit Server VM
Default Encoding: UTF-8
Language: en
Country: US
--></g></svg>