<?xml version="1.0" encoding="UTF-8" standalone="no"?><svg xmlns="http://www.w3.org/2000/svg" xmlns:xlink="http://www.w3.org/1999/xlink" contentScriptType="application/ecmascript" contentStyleType="text/css" height="712.5px" preserveAspectRatio="none" style="width:397px;height:712px;background:#333333;" version="1.1" viewBox="0 0 397 712" width="397.9167px" zoomAndPan="magnify"><defs/><g><rect fill="#48494B" height="41.2028" rx="8.3333" ry="8.3333" style="stroke:#545454;stroke-width:1.0416666666666667;" width="382.2917" x="2.0833" y="2.0833"/><text fill="#C0C0C0" font-family="Open Sans,Avenir,Nunito,Arial,Helvetica,SansSerif" font-size="20.8333" lengthAdjust="spacing" textLength="359.375" x="13.5417" y="30.5583">com.telenav.kivakit.interfaces.string</text><polygon fill="#333333" points="19.0104,366.2028,148.1771,366.2028,155.4688,393.4245,211.7188,393.4245,211.7188,705.7861,19.0104,705.7861,19.0104,366.2028" style="stroke:#333333;stroke-width:2.0833333333333335;"/><line style="stroke:#333333;stroke-width:2.0833333333333335;" x1="19.0104" x2="155.4688" y1="393.4245" y2="393.4245"/><text fill="#C8AC00" font-family="Open Sans,Avenir,Nunito,Arial,Helvetica,SansSerif" font-size="12.5" font-weight="bold" lengthAdjust="spacing" textLength="116.6667" x="26.3021" y="383.4961">StringFormattable</text><rect codeLine="13" fill="#282828" height="265.2486" id="StringFormattable.Format" rx="8.3333" ry="8.3333" style="stroke:#5E5E5E;stroke-width:1.0416666666666667;" width="121.875" x="64.3229" y="415.1611"/><rect fill="#1B1B1A" height="31.3883" rx="8.3333" ry="8.3333" style="stroke:#1B1B1A;stroke-width:1.0416666666666667;" width="121.875" x="64.3229" y="415.1611"/><rect fill="#1B1B1A" height="8.3333" style="stroke:#1B1B1A;stroke-width:1.0416666666666667;" width="121.875" x="64.3229" y="438.2161"/><rect codeLine="13" fill="none" height="265.2486" id="StringFormattable.Format" rx="8.3333" ry="8.3333" style="stroke:#5E5E5E;stroke-width:1.0416666666666667;" width="121.875" x="64.3229" y="415.1611"/><ellipse cx="96.25" cy="430.8553" fill="#CF6300" rx="10.4167" ry="10.4167" style="stroke:#EF8300;stroke-width:1.0416666666666667;"/><path d="M99.3058,435.5428 L93.6296,435.5428 L93.6296,426.4303 L99.3058,426.4303 L99.3058,428.0172 L95.4301,428.0172 L95.4301,429.9825 L98.9396,429.9825 L98.9396,431.5694 L95.4301,431.5694 L95.4301,433.9559 L99.3058,433.9559 Z " fill="#000000"/><text fill="#D8BC00" font-family="Open Sans,Avenir,Nunito,Arial,Helvetica,SansSerif" font-size="12.5" font-weight="bold" lengthAdjust="spacing" textLength="45.8333" x="116.7708" y="435.5794">Format</text><line style="stroke:#5E5E5E;stroke-width:1.0416666666666667;" x1="65.3646" x2="185.1563" y1="446.5495" y2="446.5495"/><text fill="#D8BC00" font-family="Open Sans,Avenir,Nunito,Arial,Helvetica,SansSerif" font-size="11.4583" lengthAdjust="spacing" textLength="57.2917" x="73.6979" y="464.919">COMPACT</text><text fill="#D8BC00" font-family="Open Sans,Avenir,Nunito,Arial,Helvetica,SansSerif" font-size="11.4583" lengthAdjust="spacing" textLength="37.5" x="73.6979" y="484.6639">DEBUG</text><text fill="#D8BC00" font-family="Open Sans,Avenir,Nunito,Arial,Helvetica,SansSerif" font-size="11.4583" lengthAdjust="spacing" textLength="64.5833" x="73.6979" y="504.4088">FILESYSTEM</text><text fill="#D8BC00" font-family="Open Sans,Avenir,Nunito,Arial,Helvetica,SansSerif" font-size="11.4583" lengthAdjust="spacing" textLength="31.25" x="73.6979" y="524.1536">HTML</text><text fill="#D8BC00" font-family="Open Sans,Avenir,Nunito,Arial,Helvetica,SansSerif" font-size="11.4583" lengthAdjust="spacing" textLength="23.9583" x="73.6979" y="543.8985">LOG</text><text fill="#D8BC00" font-family="Open Sans,Avenir,Nunito,Arial,Helvetica,SansSerif" font-size="11.4583" lengthAdjust="spacing" textLength="92.7083" x="73.6979" y="563.6434">PROGRAMMATIC</text><text fill="#D8BC00" font-family="Open Sans,Avenir,Nunito,Arial,Helvetica,SansSerif" font-size="11.4583" lengthAdjust="spacing" textLength="28.125" x="73.6979" y="583.3883">TEXT</text><text fill="#D8BC00" font-family="Open Sans,Avenir,Nunito,Arial,Helvetica,SansSerif" font-size="11.4583" lengthAdjust="spacing" textLength="63.5417" x="73.6979" y="603.1331">TO_STRING</text><text fill="#D8BC00" font-family="Open Sans,Avenir,Nunito,Arial,Helvetica,SansSerif" font-size="11.4583" lengthAdjust="spacing" textLength="67.7083" x="73.6979" y="622.878">USER_LABEL</text><text fill="#D8BC00" font-family="Open Sans,Avenir,Nunito,Arial,Helvetica,SansSerif" font-size="11.4583" lengthAdjust="spacing" textLength="92.7083" x="73.6979" y="642.6229">USER_MULTILINE</text><text fill="#D8BC00" font-family="Open Sans,Avenir,Nunito,Arial,Helvetica,SansSerif" font-size="11.4583" lengthAdjust="spacing" textLength="103.125" x="73.6979" y="662.3678">USER_SINGLE_LINE</text><line style="stroke:#5E5E5E;stroke-width:1.0416666666666667;" x1="65.3646" x2="185.1563" y1="672.0764" y2="672.0764"/><rect codeLine="34" fill="#282828" height="83.3781" id="AsString" rx="8.3333" ry="8.3333" style="stroke:#5E5E5E;stroke-width:1.0416666666666667;" width="122.9167" x="63.8021" y="56.8278"/><rect fill="#1B1B1A" height="31.3883" rx="8.3333" ry="8.3333" style="stroke:#1B1B1A;stroke-width:1.0416666666666667;" width="122.9167" x="63.8021" y="56.8278"/><rect fill="#1B1B1A" height="8.3333" style="stroke:#1B1B1A;stroke-width:1.0416666666666667;" width="122.9167" x="63.8021" y="79.8828"/><rect codeLine="34" fill="none" height="83.3781" id="AsString" rx="8.3333" ry="8.3333" style="stroke:#5E5E5E;stroke-width:1.0416666666666667;" width="122.9167" x="63.8021" y="56.8278"/><ellipse cx="91.9792" cy="72.522" fill="#008400" rx="10.4167" ry="10.4167" style="stroke:#239C23;stroke-width:1.0416666666666667;"/><path d="M89.3831,69.6838 L89.3831,68.0969 L94.8092,68.0969 L94.8092,69.6838 L92.9964,69.6838 L92.9964,75.6226 L94.8092,75.6226 L94.8092,77.2095 L89.3831,77.2095 L89.3831,75.6226 L91.1959,75.6226 L91.1959,69.6838 Z " fill="#000000"/><text fill="#D8BC00" font-family="Open Sans,Avenir,Nunito,Arial,Helvetica,SansSerif" font-size="12.5" font-style="italic" font-weight="bold" lengthAdjust="spacing" textLength="55.2083" x="111.6667" y="77.2461">AsString</text><line style="stroke:#5E5E5E;stroke-width:1.5625;" x1="64.8438" x2="185.6771" y1="88.2161" y2="88.2161"/><ellipse cx="75.2604" cy="123.586" fill="#84BE84" rx="3.125" ry="3.125" style="stroke:#038048;stroke-width:1.0416666666666667;"/><text fill="#D8BC00" font-family="Open Sans,Avenir,Nunito,Arial,Helvetica,SansSerif" font-size="11.4583" lengthAdjust="spacing" textLength="90.625" x="86.7188" y="130.4972">String asString()</text><line style="stroke:#5E5E5E;stroke-width:1.0416666666666667;" x1="64.8438" x2="86.7188" y1="106.4219" y2="106.4219"/><text fill="#D8BC00" font-family="Open Sans,Avenir,Nunito,Arial,Helvetica,SansSerif" font-size="11.4583" lengthAdjust="spacing" textLength="70.8333" x="89.8438" y="110.2315">(conversion)</text><line style="stroke:#5E5E5E;stroke-width:1.0416666666666667;" x1="163.8021" x2="185.6771" y1="106.4219" y2="106.4219"/><rect codeLine="28" fill="#282828" height="83.3781" id="Parsable" rx="8.3333" ry="8.3333" style="stroke:#5E5E5E;stroke-width:1.0416666666666667;" width="163.5417" x="223.6979" y="56.8278"/><rect fill="#1B1B1A" height="31.3883" rx="8.3333" ry="8.3333" style="stroke:#1B1B1A;stroke-width:1.0416666666666667;" width="163.5417" x="223.6979" y="56.8278"/><rect fill="#1B1B1A" height="8.3333" style="stroke:#1B1B1A;stroke-width:1.0416666666666667;" width="163.5417" x="223.6979" y="79.8828"/><rect codeLine="28" fill="none" height="83.3781" id="Parsable" rx="8.3333" ry="8.3333" style="stroke:#5E5E5E;stroke-width:1.0416666666666667;" width="163.5417" x="223.6979" y="56.8278"/><ellipse cx="250" cy="72.522" fill="#008400" rx="10.4167" ry="10.4167" style="stroke:#239C23;stroke-width:1.0416666666666667;"/><path d="M247.404,69.6838 L247.404,68.0969 L252.83,68.0969 L252.83,69.6838 L251.0173,69.6838 L251.0173,75.6226 L252.83,75.6226 L252.83,77.2095 L247.404,77.2095 L247.404,75.6226 L249.2167,75.6226 L249.2167,69.6838 Z " fill="#000000"/><text fill="#D8BC00" font-family="Open Sans,Avenir,Nunito,Arial,Helvetica,SansSerif" font-size="12.5" font-style="italic" font-weight="bold" lengthAdjust="spacing" textLength="54.1667" x="269.2708" y="77.2461">Parsable</text><rect fill="#333333" height="23.055" style="stroke:#A0A0A0;stroke-width:1.0416666666666667;stroke-dasharray:2.0,2.0;" width="43.75" x="346.6146" y="53.7028"/><text fill="#A0A0A0" font-family="Open Sans,Avenir,Nunito,Arial,Helvetica,SansSerif" font-size="12.5" font-weight="bold" lengthAdjust="spacing" textLength="35.4167" x="350.7813" y="69.9544">Value</text><line style="stroke:#5E5E5E;stroke-width:1.5625;" x1="224.7396" x2="386.1979" y1="88.2161" y2="88.2161"/><ellipse cx="235.1563" cy="123.586" fill="#84BE84" rx="3.125" ry="3.125" style="stroke:#038048;stroke-width:1.0416666666666667;"/><text fill="#D8BC00" font-family="Open Sans,Avenir,Nunito,Arial,Helvetica,SansSerif" font-size="11.4583" lengthAdjust="spacing" textLength="131.25" x="246.6146" y="130.4972">Value parse(String text)</text><line style="stroke:#5E5E5E;stroke-width:1.0416666666666667;" x1="224.7396" x2="276.8229" y1="106.4219" y2="106.4219"/><text fill="#D8BC00" font-family="Open Sans,Avenir,Nunito,Arial,Helvetica,SansSerif" font-size="11.4583" lengthAdjust="spacing" textLength="51.0417" x="279.9479" y="110.2315">(parsing)</text><line style="stroke:#5E5E5E;stroke-width:1.0416666666666667;" x1="334.1146" x2="386.1979" y1="106.4219" y2="106.4219"/><rect codeLine="37" fill="#282828" height="83.3781" id="StringFormattable" rx="8.3333" ry="8.3333" style="stroke:#5E5E5E;stroke-width:1.0416666666666667;" width="162.5" x="44.0104" y="203.7028"/><rect fill="#1B1B1A" height="31.3883" rx="8.3333" ry="8.3333" style="stroke:#1B1B1A;stroke-width:1.0416666666666667;" width="162.5" x="44.0104" y="203.7028"/><rect fill="#1B1B1A" height="8.3333" style="stroke:#1B1B1A;stroke-width:1.0416666666666667;" width="162.5" x="44.0104" y="226.7578"/><rect codeLine="37" fill="none" height="83.3781" id="StringFormattable" rx="8.3333" ry="8.3333" style="stroke:#5E5E5E;stroke-width:1.0416666666666667;" width="162.5" x="44.0104" y="203.7028"/><ellipse cx="62.3438" cy="219.397" fill="#008400" rx="10.4167" ry="10.4167" style="stroke:#239C23;stroke-width:1.0416666666666667;"/><path d="M59.7477,216.5588 L59.7477,214.9719 L65.1737,214.9719 L65.1737,216.5588 L63.361,216.5588 L63.361,222.4976 L65.1737,222.4976 L65.1737,224.0845 L59.7477,224.0845 L59.7477,222.4976 L61.5605,222.4976 L61.5605,216.5588 Z " fill="#000000"/><text fill="#D8BC00" font-family="Open Sans,Avenir,Nunito,Arial,Helvetica,SansSerif" font-size="12.5" font-style="italic" font-weight="bold" lengthAdjust="spacing" textLength="116.6667" x="79.8438" y="224.1211">StringFormattable</text><line style="stroke:#5E5E5E;stroke-width:1.5625;" x1="45.0521" x2="205.4688" y1="235.0911" y2="235.0911"/><ellipse cx="55.4688" cy="270.461" fill="#84BE84" rx="3.125" ry="3.125" style="stroke:#038048;stroke-width:1.0416666666666667;"/><text fill="#D8BC00" font-family="Open Sans,Avenir,Nunito,Arial,Helvetica,SansSerif" font-size="11.4583" lengthAdjust="spacing" textLength="130.2083" x="66.9271" y="277.3722">String asString(Format)</text><line style="stroke:#5E5E5E;stroke-width:1.0416666666666667;" x1="45.0521" x2="86.7188" y1="253.2969" y2="253.2969"/><text fill="#D8BC00" font-family="Open Sans,Avenir,Nunito,Arial,Helvetica,SansSerif" font-size="11.4583" lengthAdjust="spacing" textLength="70.8333" x="89.8438" y="257.1065">(conversion)</text><line style="stroke:#5E5E5E;stroke-width:1.0416666666666667;" x1="163.8021" x2="205.4688" y1="253.2969" y2="253.2969"/><path codeLine="35" d="M125.2604,163.0465 C125.2604,176.807 125.2604,191.0153 125.2604,203.6195 " fill="none" id="AsString-backto-StringFormattable" style="stroke:#545454;stroke-width:1.5625;"/><polygon fill="none" points="117.9688,163.0465,125.2604,142.2132,132.5521,163.0465,117.9688,163.0465" style="stroke:#545454;stroke-width:1.5625;"/><path codeLine="36" d="M125.2604,287.2549 C125.2604,318.7028 125.2604,364.109 125.2604,408.1924 " fill="none" id="StringFormattable-to-StringFormattable.Format" style="stroke:#545454;stroke-width:1.5625;"/><polygon fill="#545454" points="125.2604,413.3903,129.4271,404.0153,125.2604,408.182,121.0938,404.0153,125.2604,413.3903" style="stroke:#545454;stroke-width:1.5625;"/><text fill="#A0A0A0" font-family="Open Sans,Avenir,Nunito,Arial,Helvetica,SansSerif" font-size="12.5" font-weight="bold" lengthAdjust="spacing" textLength="83.3333" x="129.4271" y="334.5378">formats with</text></g></svg>

