<?xml version="1.0" encoding="UTF-8" standalone="no"?><svg xmlns="http://www.w3.org/2000/svg" xmlns:xlink="http://www.w3.org/1999/xlink" contentScriptType="application/ecmascript" contentStyleType="text/css" height="413.5417px" preserveAspectRatio="none" style="width:848px;height:413px;background:#333333;" version="1.1" viewBox="0 0 848 413" width="848.9583px" zoomAndPan="magnify"><defs/><g><rect fill="#48494B" height="41.2028" rx="8.3333" ry="8.3333" style="stroke:#545454;stroke-width:1.0416666666666667;" width="330.2083" x="252.0833" y="2.0833"/><text fill="#C0C0C0" font-family="Open Sans,Avenir,Nunito,Arial,Helvetica,SansSerif" font-size="20.8333" lengthAdjust="spacing" textLength="307.2917" x="263.5417" y="30.5583">com.telenav.kivakit.logs.server</text><!--MD5=[505565754f693a0fa517a94d5718b84f]
class BaseTextLog--><rect codeLine="7" fill="#282828" height="48.055" id="BaseTextLog" rx="8.3333" ry="8.3333" style="stroke:#5E5E5E;stroke-width:1.0416666666666667;" width="119.7917" x="102.0833" y="53.7028"/><rect fill="#1B1B1A" height="31.3883" rx="8.3333" ry="8.3333" style="stroke:#1B1B1A;stroke-width:1.0416666666666667;" width="119.7917" x="102.0833" y="53.7028"/><rect fill="#1B1B1A" height="8.3333" style="stroke:#1B1B1A;stroke-width:1.0416666666666667;" width="119.7917" x="102.0833" y="76.7578"/><rect codeLine="7" fill="none" height="48.055" id="BaseTextLog" rx="8.3333" ry="8.3333" style="stroke:#5E5E5E;stroke-width:1.0416666666666667;" width="119.7917" x="102.0833" y="53.7028"/><ellipse cx="116.6667" cy="69.397" fill="#C8AC00" rx="10.4167" ry="10.4167" style="stroke:#D8BC00;stroke-width:1.0416666666666667;"/><path d="M116.2598,66.099 L115.4114,69.8283 L117.1143,69.8283 Z M115.1611,64.4511 L117.3645,64.4511 L119.8242,73.5636 L118.0237,73.5636 L117.4622,71.3114 L115.0513,71.3114 L114.502,73.5636 L112.7014,73.5636 Z " fill="#000000"/><text fill="#D8BC00" font-family="Open Sans,Avenir,Nunito,Arial,Helvetica,SansSerif" font-size="12.5" font-style="italic" font-weight="bold" lengthAdjust="spacing" textLength="82.2917" x="133.3333" y="74.1211">BaseTextLog</text><line style="stroke:#5E5E5E;stroke-width:1.0416666666666667;" x1="103.125" x2="220.8333" y1="85.0911" y2="85.0911"/><line style="stroke:#5E5E5E;stroke-width:1.0416666666666667;" x1="103.125" x2="220.8333" y1="93.4245" y2="93.4245"/><!--MD5=[46acbc008168529f3349206642520903]
class ComponentMixin--><rect codeLine="9" fill="#282828" height="48.055" id="ComponentMixin" rx="8.3333" ry="8.3333" style="stroke:#5E5E5E;stroke-width:1.0416666666666667;" width="148.9583" x="258.3333" y="53.7028"/><rect fill="#1B1B1A" height="31.3883" rx="8.3333" ry="8.3333" style="stroke:#1B1B1A;stroke-width:1.0416666666666667;" width="148.9583" x="258.3333" y="53.7028"/><rect fill="#1B1B1A" height="8.3333" style="stroke:#1B1B1A;stroke-width:1.0416666666666667;" width="148.9583" x="258.3333" y="76.7578"/><rect codeLine="9" fill="none" height="48.055" id="ComponentMixin" rx="8.3333" ry="8.3333" style="stroke:#5E5E5E;stroke-width:1.0416666666666667;" width="148.9583" x="258.3333" y="53.7028"/><ellipse cx="272.9167" cy="69.397" fill="#008400" rx="10.4167" ry="10.4167" style="stroke:#239C23;stroke-width:1.0416666666666667;"/><path d="M270.3206,66.5588 L270.3206,64.9719 L275.7467,64.9719 L275.7467,66.5588 L273.9339,66.5588 L273.9339,72.4976 L275.7467,72.4976 L275.7467,74.0845 L270.3206,74.0845 L270.3206,72.4976 L272.1334,72.4976 L272.1334,66.5588 Z " fill="#000000"/><text fill="#D8BC00" font-family="Open Sans,Avenir,Nunito,Arial,Helvetica,SansSerif" font-size="12.5" font-style="italic" font-weight="bold" lengthAdjust="spacing" textLength="111.4583" x="289.5833" y="74.1211">ComponentMixin</text><line style="stroke:#5E5E5E;stroke-width:1.0416666666666667;" x1="259.375" x2="406.25" y1="85.0911" y2="85.0911"/><line style="stroke:#5E5E5E;stroke-width:1.0416666666666667;" x1="259.375" x2="406.25" y1="93.4245" y2="93.4245"/><!--MD5=[251173c34fed40597156b0a77678b757]
class ServerLog--><rect codeLine="13" fill="#282828" height="242.4255" id="ServerLog" rx="8.3333" ry="8.3333" style="stroke:#5E5E5E;stroke-width:1.0416666666666667;" width="401.0417" x="7.2917" y="164.1195"/><rect fill="#1B1B1A" height="31.3883" rx="8.3333" ry="8.3333" style="stroke:#1B1B1A;stroke-width:1.0416666666666667;" width="401.0417" x="7.2917" y="164.1195"/><rect fill="#1B1B1A" height="8.3333" style="stroke:#1B1B1A;stroke-width:1.0416666666666667;" width="401.0417" x="7.2917" y="187.1745"/><rect codeLine="13" fill="none" height="242.4255" id="ServerLog" rx="8.3333" ry="8.3333" style="stroke:#5E5E5E;stroke-width:1.0416666666666667;" width="401.0417" x="7.2917" y="164.1195"/><ellipse cx="168.75" cy="179.8136" fill="#0066CF" rx="10.4167" ry="10.4167" style="stroke:#0086EF;stroke-width:1.0416666666666667;"/><path d="M170.6604,184.2387 Q170.2332,184.4584 169.7632,184.5683 Q169.2932,184.6781 168.7744,184.6781 Q166.9312,184.6781 165.9607,183.4635 Q164.9902,182.2489 164.9902,179.954 Q164.9902,177.653 165.9607,176.4384 Q166.9312,175.2238 168.7744,175.2238 Q169.2932,175.2238 169.7693,175.3337 Q170.2454,175.4435 170.6604,175.6632 L170.6604,177.6652 Q170.1965,177.238 169.7601,177.0396 Q169.3237,176.8412 168.8599,176.8412 Q167.8711,176.8412 167.3676,177.6255 Q166.864,178.4098 166.864,179.954 Q166.864,181.4921 167.3676,182.2764 Q167.8711,183.0607 168.8599,183.0607 Q169.3237,183.0607 169.7601,182.8623 Q170.1965,182.664 170.6604,182.2367 Z " fill="#000000"/><text fill="#D8BC00" font-family="Open Sans,Avenir,Nunito,Arial,Helvetica,SansSerif" font-size="12.5" font-weight="bold" lengthAdjust="spacing" textLength="63.5417" x="191.6667" y="184.5378">ServerLog</text><line style="stroke:#5E5E5E;stroke-width:1.5625;" x1="8.3333" x2="407.2917" y1="195.5078" y2="195.5078"/><ellipse cx="18.75" cy="230.8777" fill="#84BE84" rx="3.125" ry="3.125" style="stroke:#038048;stroke-width:1.0416666666666667;"/><text fill="#D8BC00" font-family="Open Sans,Avenir,Nunito,Arial,Helvetica,SansSerif" font-size="11.4583" lengthAdjust="spacing" textLength="64.5833" x="30.2083" y="237.7889">ServerLog()</text><line style="stroke:#5E5E5E;stroke-width:1.0416666666666667;" x1="8.3333" x2="164.0625" y1="213.7136" y2="213.7136"/><text fill="#D8BC00" font-family="Open Sans,Avenir,Nunito,Arial,Helvetica,SansSerif" font-size="11.4583" lengthAdjust="spacing" textLength="81.25" x="167.1875" y="217.5232">(constructors)</text><line style="stroke:#5E5E5E;stroke-width:1.0416666666666667;" x1="251.5625" x2="407.2917" y1="213.7136" y2="213.7136"/><line style="stroke:#5E5E5E;stroke-width:1.0416666666666667;" x1="8.3333" x2="407.2917" y1="247.4976" y2="247.4976"/><ellipse cx="18.75" cy="258.9559" fill="#84BE84" rx="3.125" ry="3.125" style="stroke:#038048;stroke-width:1.0416666666666667;"/><text fill="#D8BC00" font-family="Open Sans,Avenir,Nunito,Arial,Helvetica,SansSerif" font-size="11.4583" lengthAdjust="spacing" textLength="85.4167" x="30.2083" y="265.8671">ServerLog get()</text><ellipse cx="18.75" cy="302.6123" fill="#84BE84" rx="3.125" ry="3.125" style="stroke:#038048;stroke-width:1.0416666666666667;"/><text fill="#D8BC00" font-family="Open Sans,Avenir,Nunito,Arial,Helvetica,SansSerif" font-size="11.4583" lengthAdjust="spacing" textLength="196.875" x="30.2083" y="309.5235">ServerLog listen(ProgressReporter)</text><line style="stroke:#5E5E5E;stroke-width:1.0416666666666667;" x1="8.3333" x2="170.3125" y1="285.4482" y2="285.4482"/><text fill="#D8BC00" font-family="Open Sans,Avenir,Nunito,Arial,Helvetica,SansSerif" font-size="11.4583" lengthAdjust="spacing" textLength="68.75" x="173.4375" y="289.2578">(messaging)</text><line style="stroke:#5E5E5E;stroke-width:1.0416666666666667;" x1="245.3125" x2="407.2917" y1="285.4482" y2="285.4482"/><ellipse cx="18.75" cy="346.2687" fill="#84BE84" rx="3.125" ry="3.125" style="stroke:#038048;stroke-width:1.0416666666666667;"/><text fill="#D8BC00" font-family="Open Sans,Avenir,Nunito,Arial,Helvetica,SansSerif" font-size="11.4583" lengthAdjust="spacing" textLength="50" x="30.2083" y="353.1799">int port()</text><line style="stroke:#5E5E5E;stroke-width:1.0416666666666667;" x1="8.3333" x2="178.125" y1="329.1046" y2="329.1046"/><text fill="#D8BC00" font-family="Open Sans,Avenir,Nunito,Arial,Helvetica,SansSerif" font-size="11.4583" lengthAdjust="spacing" textLength="53.125" x="181.25" y="332.9142">(network)</text><line style="stroke:#5E5E5E;stroke-width:1.0416666666666667;" x1="237.5" x2="407.2917" y1="329.1046" y2="329.1046"/><ellipse cx="18.75" cy="389.9251" fill="#84BE84" rx="3.125" ry="3.125" style="stroke:#038048;stroke-width:1.0416666666666667;"/><text fill="#D8BC00" font-family="Open Sans,Avenir,Nunito,Arial,Helvetica,SansSerif" font-size="11.4583" lengthAdjust="spacing" textLength="368.75" x="30.2083" y="396.8363">void synchronizeSessions(SerializationSession, ProgressReporter)</text><line style="stroke:#5E5E5E;stroke-width:1.0416666666666667;" x1="8.3333" x2="182.2917" y1="372.761" y2="372.761"/><text fill="#D8BC00" font-family="Open Sans,Avenir,Nunito,Arial,Helvetica,SansSerif" font-size="11.4583" lengthAdjust="spacing" textLength="44.7917" x="185.4167" y="376.5706">(thread)</text><line style="stroke:#5E5E5E;stroke-width:1.0416666666666667;" x1="233.3333" x2="407.2917" y1="372.761" y2="372.761"/><!--MD5=[d776228a55af1f9e7dd99d395538019c]
class KryoTypes--><rect fill="#282828" height="48.055" id="KryoTypes" rx="8.3333" ry="8.3333" style="stroke:#5E5E5E;stroke-width:1.0416666666666667;" width="106.25" x="522.3958" y="53.7028"/><rect fill="#1B1B1A" height="31.3883" rx="8.3333" ry="8.3333" style="stroke:#1B1B1A;stroke-width:1.0416666666666667;" width="106.25" x="522.3958" y="53.7028"/><rect fill="#1B1B1A" height="8.3333" style="stroke:#1B1B1A;stroke-width:1.0416666666666667;" width="106.25" x="522.3958" y="76.7578"/><rect fill="none" height="48.055" id="KryoTypes" rx="8.3333" ry="8.3333" style="stroke:#5E5E5E;stroke-width:1.0416666666666667;" width="106.25" x="522.3958" y="53.7028"/><ellipse cx="536.9792" cy="69.397" fill="#0066CF" rx="10.4167" ry="10.4167" style="stroke:#0086EF;stroke-width:1.0416666666666667;"/><path d="M538.8896,73.822 Q538.4623,74.0417 537.9924,74.1516 Q537.5224,74.2615 537.0036,74.2615 Q535.1603,74.2615 534.1899,73.0469 Q533.2194,71.8323 533.2194,69.5374 Q533.2194,67.2363 534.1899,66.0217 Q535.1603,64.8071 537.0036,64.8071 Q537.5224,64.8071 537.9985,64.917 Q538.4745,65.0269 538.8896,65.2466 L538.8896,67.2485 Q538.4257,66.8213 537.9893,66.6229 Q537.5529,66.4246 537.089,66.4246 Q536.1003,66.4246 535.5967,67.2089 Q535.0932,67.9932 535.0932,69.5374 Q535.0932,71.0754 535.5967,71.8597 Q536.1003,72.644 537.089,72.644 Q537.5529,72.644 537.9893,72.4457 Q538.4257,72.2473 538.8896,71.8201 Z " fill="#000000"/><text fill="#D8BC00" font-family="Open Sans,Avenir,Nunito,Arial,Helvetica,SansSerif" font-size="12.5" font-weight="bold" lengthAdjust="spacing" textLength="68.75" x="553.6458" y="74.1211">KryoTypes</text><line style="stroke:#5E5E5E;stroke-width:1.0416666666666667;" x1="523.4375" x2="627.6042" y1="85.0911" y2="85.0911"/><line style="stroke:#5E5E5E;stroke-width:1.0416666666666667;" x1="523.4375" x2="627.6042" y1="93.4245" y2="93.4245"/><!--MD5=[f26e4ddcfd5cc7635dfcec2d84cc1822]
class ServerLogKryoTypes--><rect codeLine="28" fill="#282828" height="83.3781" id="ServerLogKryoTypes" rx="8.3333" ry="8.3333" style="stroke:#5E5E5E;stroke-width:1.0416666666666667;" width="169.7917" x="490.625" y="243.807"/><rect fill="#1B1B1A" height="31.3883" rx="8.3333" ry="8.3333" style="stroke:#1B1B1A;stroke-width:1.0416666666666667;" width="169.7917" x="490.625" y="243.807"/><rect fill="#1B1B1A" height="8.3333" style="stroke:#1B1B1A;stroke-width:1.0416666666666667;" width="169.7917" x="490.625" y="266.862"/><rect codeLine="28" fill="none" height="83.3781" id="ServerLogKryoTypes" rx="8.3333" ry="8.3333" style="stroke:#5E5E5E;stroke-width:1.0416666666666667;" width="169.7917" x="490.625" y="243.807"/><ellipse cx="505.2083" cy="259.5011" fill="#0066CF" rx="10.4167" ry="10.4167" style="stroke:#0086EF;stroke-width:1.0416666666666667;"/><path d="M507.1187,263.9262 Q506.6915,264.1459 506.2215,264.2558 Q505.7515,264.3656 505.2327,264.3656 Q503.3895,264.3656 502.419,263.151 Q501.4486,261.9364 501.4486,259.6415 Q501.4486,257.3405 502.419,256.1259 Q503.3895,254.9113 505.2327,254.9113 Q505.7515,254.9113 506.2276,255.0212 Q506.7037,255.131 507.1187,255.3507 L507.1187,257.3527 Q506.6549,256.9255 506.2185,256.7271 Q505.7821,256.5287 505.3182,256.5287 Q504.3294,256.5287 503.8259,257.313 Q503.3223,258.0973 503.3223,259.6415 Q503.3223,261.1796 503.8259,261.9639 Q504.3294,262.7482 505.3182,262.7482 Q505.7821,262.7482 506.2185,262.5498 Q506.6549,262.3515 507.1187,261.9242 Z " fill="#000000"/><text fill="#D8BC00" font-family="Open Sans,Avenir,Nunito,Arial,Helvetica,SansSerif" font-size="12.5" font-weight="bold" lengthAdjust="spacing" textLength="132.2917" x="521.875" y="264.2253">ServerLogKryoTypes</text><line style="stroke:#5E5E5E;stroke-width:1.5625;" x1="491.6667" x2="659.375" y1="275.1953" y2="275.1953"/><ellipse cx="502.0833" cy="310.5652" fill="#84BE84" rx="3.125" ry="3.125" style="stroke:#038048;stroke-width:1.0416666666666667;"/><text fill="#D8BC00" font-family="Open Sans,Avenir,Nunito,Arial,Helvetica,SansSerif" font-size="11.4583" lengthAdjust="spacing" textLength="123.9583" x="513.5417" y="317.4764">ServerLogKryoTypes()</text><line style="stroke:#5E5E5E;stroke-width:1.0416666666666667;" x1="491.6667" x2="531.7708" y1="293.4011" y2="293.4011"/><text fill="#D8BC00" font-family="Open Sans,Avenir,Nunito,Arial,Helvetica,SansSerif" font-size="11.4583" lengthAdjust="spacing" textLength="81.25" x="534.8958" y="297.2107">(constructors)</text><line style="stroke:#5E5E5E;stroke-width:1.0416666666666667;" x1="619.2708" x2="659.375" y1="293.4011" y2="293.4011"/><!--MD5=[79d378210367c0c6ec62ef762ddfbd1b]
class Project--><rect fill="#282828" height="48.055" id="Project" rx="8.3333" ry="8.3333" style="stroke:#5E5E5E;stroke-width:1.0416666666666667;" width="81.25" x="728.6458" y="53.7028"/><rect fill="#1B1B1A" height="31.3883" rx="8.3333" ry="8.3333" style="stroke:#1B1B1A;stroke-width:1.0416666666666667;" width="81.25" x="728.6458" y="53.7028"/><rect fill="#1B1B1A" height="8.3333" style="stroke:#1B1B1A;stroke-width:1.0416666666666667;" width="81.25" x="728.6458" y="76.7578"/><rect fill="none" height="48.055" id="Project" rx="8.3333" ry="8.3333" style="stroke:#5E5E5E;stroke-width:1.0416666666666667;" width="81.25" x="728.6458" y="53.7028"/><ellipse cx="743.2292" cy="69.397" fill="#0066CF" rx="10.4167" ry="10.4167" style="stroke:#0086EF;stroke-width:1.0416666666666667;"/><path d="M745.1396,73.822 Q744.7123,74.0417 744.2424,74.1516 Q743.7724,74.2615 743.2536,74.2615 Q741.4103,74.2615 740.4399,73.0469 Q739.4694,71.8323 739.4694,69.5374 Q739.4694,67.2363 740.4399,66.0217 Q741.4103,64.8071 743.2536,64.8071 Q743.7724,64.8071 744.2485,64.917 Q744.7245,65.0269 745.1396,65.2466 L745.1396,67.2485 Q744.6757,66.8213 744.2393,66.6229 Q743.8029,66.4246 743.339,66.4246 Q742.3503,66.4246 741.8467,67.2089 Q741.3432,67.9932 741.3432,69.5374 Q741.3432,71.0754 741.8467,71.8597 Q742.3503,72.644 743.339,72.644 Q743.8029,72.644 744.2393,72.4457 Q744.6757,72.2473 745.1396,71.8201 Z " fill="#000000"/><text fill="#D8BC00" font-family="Open Sans,Avenir,Nunito,Arial,Helvetica,SansSerif" font-size="12.5" font-weight="bold" lengthAdjust="spacing" textLength="43.75" x="759.8958" y="74.1211">Project</text><line style="stroke:#5E5E5E;stroke-width:1.0416666666666667;" x1="729.6875" x2="808.8542" y1="85.0911" y2="85.0911"/><line style="stroke:#5E5E5E;stroke-width:1.0416666666666667;" x1="729.6875" x2="808.8542" y1="93.4245" y2="93.4245"/><!--MD5=[35457b8fe489136fd27c44662c6044f9]
class ServerLogProject--><rect codeLine="35" fill="#282828" height="83.3781" id="ServerLogProject" rx="8.3333" ry="8.3333" style="stroke:#5E5E5E;stroke-width:1.0416666666666667;" width="144.7917" x="696.875" y="243.807"/><rect fill="#1B1B1A" height="31.3883" rx="8.3333" ry="8.3333" style="stroke:#1B1B1A;stroke-width:1.0416666666666667;" width="144.7917" x="696.875" y="243.807"/><rect fill="#1B1B1A" height="8.3333" style="stroke:#1B1B1A;stroke-width:1.0416666666666667;" width="144.7917" x="696.875" y="266.862"/><rect codeLine="35" fill="none" height="83.3781" id="ServerLogProject" rx="8.3333" ry="8.3333" style="stroke:#5E5E5E;stroke-width:1.0416666666666667;" width="144.7917" x="696.875" y="243.807"/><ellipse cx="711.4583" cy="259.5011" fill="#0066CF" rx="10.4167" ry="10.4167" style="stroke:#0086EF;stroke-width:1.0416666666666667;"/><path d="M713.3687,263.9262 Q712.9415,264.1459 712.4715,264.2558 Q712.0015,264.3656 711.4827,264.3656 Q709.6395,264.3656 708.669,263.151 Q707.6986,261.9364 707.6986,259.6415 Q707.6986,257.3405 708.669,256.1259 Q709.6395,254.9113 711.4827,254.9113 Q712.0015,254.9113 712.4776,255.0212 Q712.9537,255.131 713.3687,255.3507 L713.3687,257.3527 Q712.9049,256.9255 712.4685,256.7271 Q712.0321,256.5287 711.5682,256.5287 Q710.5794,256.5287 710.0759,257.313 Q709.5723,258.0973 709.5723,259.6415 Q709.5723,261.1796 710.0759,261.9639 Q710.5794,262.7482 711.5682,262.7482 Q712.0321,262.7482 712.4685,262.5498 Q712.9049,262.3515 713.3687,261.9242 Z " fill="#000000"/><text fill="#D8BC00" font-family="Open Sans,Avenir,Nunito,Arial,Helvetica,SansSerif" font-size="12.5" font-weight="bold" lengthAdjust="spacing" textLength="107.2917" x="728.125" y="264.2253">ServerLogProject</text><line style="stroke:#5E5E5E;stroke-width:1.5625;" x1="697.9167" x2="840.625" y1="275.1953" y2="275.1953"/><ellipse cx="708.3333" cy="310.5652" fill="#84BE84" rx="3.125" ry="3.125" style="stroke:#038048;stroke-width:1.0416666666666667;"/><text fill="#D8BC00" font-family="Open Sans,Avenir,Nunito,Arial,Helvetica,SansSerif" font-size="11.4583" lengthAdjust="spacing" textLength="103.125" x="719.7917" y="317.4764">ServerLogProject()</text><line style="stroke:#5E5E5E;stroke-width:1.0416666666666667;" x1="697.9167" x2="725.5208" y1="293.4011" y2="293.4011"/><text fill="#D8BC00" font-family="Open Sans,Avenir,Nunito,Arial,Helvetica,SansSerif" font-size="11.4583" lengthAdjust="spacing" textLength="81.25" x="728.6458" y="297.2107">(constructors)</text><line style="stroke:#5E5E5E;stroke-width:1.0416666666666667;" x1="813.0208" x2="840.625" y1="293.4011" y2="293.4011"/><!--MD5=[8e70e6b9739ffe000440f4e56fde7c88]
reverse link BaseTextLog to ServerLog--><path codeLine="11" d="M171.7813,122.7028 C174.5417,135.0986 177.6875,149.2236 180.9479,163.8278 " fill="none" id="BaseTextLog-backto-ServerLog" style="stroke:#545454;stroke-width:1.5625;"/><polygon fill="none" points="164.5625,123.8278,167.1458,101.9007,178.7917,120.6507,164.5625,123.8278" style="stroke:#545454;stroke-width:1.5625;"/><!--MD5=[ca944c6eca08ad15a20497c11b5ef441]
reverse link ComponentMixin to ServerLog--><path codeLine="12" d="M307.7813,119.9007 C299.8438,132.9528 290.6458,148.109 281.0833,163.8278 " fill="none" id="ComponentMixin-backto-ServerLog" style="stroke:#545454;stroke-width:1.5625;"/><polygon fill="none" points="301.6667,115.9215,318.7188,101.9007,314.125,123.4945,301.6667,115.9215" style="stroke:#545454;stroke-width:1.5625;"/><!--MD5=[6ba6ffbb8614e4fb0bbb46adedc34a73]
reverse link KryoTypes to ServerLogKryoTypes--><path codeLine="27" d="M575.5208,123.0778 C575.5208,158.8695 575.5208,208.8174 575.5208,243.6195 " fill="none" id="KryoTypes-backto-ServerLogKryoTypes" style="stroke:#545454;stroke-width:1.5625;"/><polygon fill="none" points="568.2292,122.734,575.5208,101.9007,582.8125,122.734,568.2292,122.734" style="stroke:#545454;stroke-width:1.5625;"/><!--MD5=[1b66f64796d071a8d4fce69ea328323e]
reverse link Project to ServerLogProject--><path codeLine="34" d="M769.2708,123.0778 C769.2708,158.8695 769.2708,208.8174 769.2708,243.6195 " fill="none" id="Project-backto-ServerLogProject" style="stroke:#545454;stroke-width:1.5625;"/><polygon fill="none" points="761.9792,122.734,769.2708,101.9007,776.5625,122.734,761.9792,122.734" style="stroke:#545454;stroke-width:1.5625;"/><!--MD5=[86fc4d9ba2c94ed09efebabf4c61f52f]
@startuml

    !include lexakai.theme
    
    title "com.telenav.kivakit.logs.server"
    
    abstract BaseTextLog
    
    interface ComponentMixin
    
    BaseTextLog <|- - ServerLog
    ComponentMixin <|- - ServerLog
    class ServerLog
    {
        - -(constructors)- -
        +ServerLog()
        - -
        +ServerLog get()
        - -(messaging)- -
        +ServerLog listen(ProgressReporter)
        - -(network)- -
        +int port()
        - -(thread)- -
        +void synchronizeSessions(SerializationSession, ProgressReporter)
    }
    
    KryoTypes <|- - ServerLogKryoTypes
    class ServerLogKryoTypes
    {
        - -(constructors)- -
        +ServerLogKryoTypes()
    }
    
    Project <|- - ServerLogProject
    class ServerLogProject
    {
        - -(constructors)- -
        +ServerLogProject()
    }
    
@enduml

@startuml









skinparam backgroundColor #333333






skinparam  {
    defaultFontName   "Open Sans,Avenir,Nunito,Arial,Helvetica,SansSerif"
    defaultFontSize   12
    defaultTextAlignment left
    shadowing false
    RoundCorner 10
    TitleFontSize 18
}

skinparam defaultFontName       "Open Sans,Avenir,Nunito,Arial,Helvetica,SansSerif"
skinparam defaultFontSize       12
skinparam dpi                   100
skinparam shadowing             false
skinparam roundcorner           16
skinparam ParticipantPadding    40
skinparam BoxPadding            40
skinparam Padding               3
skinparam ArrowColor            #545454
skinparam stereotype {
    CBackgroundColor #0066cf
    CBorderColor #0086ef
    ABackgroundColor #C8Ac00
    ABorderColor #D8Bc00
    IBackgroundColor #008400
    IBorderColor #239c23
    EBackgroundColor #cf6300
    EBorderColor #ef8300
    NBackgroundColor #3380b9
    NBorderColor #004d86
}
skinparam title {
	FontColor	                 #c0c0c0
 	BorderColor                  #545454
	FontSize	    	         20
	BorderRoundCorner            16
	BorderThickness 	         1
	BackgroundColor              #48494b
}


skinparam legend {
	BackgroundColor #303030
	BorderColor #404040
	FontColor #a0a0a0
}

	skinparam swimlane {
	BorderColor #5e5e5e
	BorderThickness 2
	TitleBackgroundColor  #6d6d6d-#484848
	TitleFontColor #303030
}

skinparam activity {
		FontColor #C8Ac00
	BorderColor #333333
	BackgroundColor #333333-#333333
	BarColor #00FF00
	StartColor #0060a8
	EndColor #0060a8
	DiamondBackgroundColor #6d6d6d-#3a3a3a
  	DiamondBorderColor #3a3a3a
  	DiamondFontColor #fefefe
}


skinparam participant {
		FontColor #C8Ac00
	BorderColor #333333
	BackgroundColor #333333-#333333
	ParticipantBorderThickness 2
}


skinparam actor {
		FontColor #C8Ac00
	BorderColor #333333
	BackgroundColor #333333-#333333
}


skinparam arrow {
	Thickness 1.5
	Color #545454
	FontColor #a0a0a0
    FontStyle bold
    MessageAlignment center
}



skinparam sequence {
	BorderColor #303030
	TitleFontColor #303030
	BackgroundColor #333333
	StartColor #303030
	EndColor #303030
	BoxBackgroundColor #333333
	BoxBorderColor #484848
	BoxFontColor #484848
	LifeLineBorderColor #484848
	LifeLineBorderThickness 2
	LifeLineBackgroundColor #3a3a3a
	GroupBorderColor #484848
	GroupFontColor #484848
	GroupHeaderFontColor #0060a8
	GroupBackgroundColor #484848
	GroupHeaderBackgroundColor #333333
	DividerBackgroundColor #484848
    DividerBorderColor #484848
    DividerBorderThickness 2
    DividerFontColor #D8Bc00
	ReferenceBackgroundColor #333333
	ReferenceBorderColor #484848
	ReferenceFontColor #fefefe
	ReferenceHeaderBackgroundColor #484848
}


skinparam partition {
	BorderColor #303030
	FontColor #333333
	BackgroundColor #333333
}


skinparam collections {
		FontColor #C8Ac00
	BorderColor #333333
	BackgroundColor #333333-#333333
}


skinparam control {
		FontColor #C8Ac00
	BorderColor #333333
	BackgroundColor #333333-#333333
}


skinparam entity {
		FontColor #C8Ac00
	BorderColor #333333
	BackgroundColor #333333-#333333
}


skinparam boundary {
		FontColor #C8Ac00
	BorderColor #333333
	BackgroundColor #333333-#333333
}


skinparam agent {
	BackgroundColor #ff8000
	BorderColor #ff9933
	FontColor #484848
}


skinparam note {
	BorderThickness 1
	BackgroundColor #1b1b1a
	BorderColor #5e5e5e
	FontSize 11
	FontColor #a0a0a0
}


skinparam artifact {
	BorderThickness 10
	BorderColor #5e5e5e
	BackgroundColor #1b1b1a
	FontColor #D8Bc00
}


skinparam component {
		FontColor #C8Ac00
	BorderColor #333333
	BackgroundColor #333333-#333333
}


skinparam interface {
	BackgroundColor  #008400
	BorderColor  #007F00
	FontColor #484848
}


skinparam storage {
	BackgroundColor #ff8000
  	BorderColor #cc6600
	FontColor #222222
}


skinparam node {
	BackgroundColor #333333
	BorderColor #333333
	FontColor #C8Ac00
}


skinparam cloud {
	BackgroundColor #484848-black
	BorderColor #484848
	FontColor #D8Bc00
}


skinparam database {
		FontColor #C8Ac00
	BorderColor #333333
	BackgroundColor #333333-#333333
	BackgroundColor  #333333
}


skinparam class {
		FontColor #C8Ac00
	BorderColor #333333
	BackgroundColor #333333-#333333
	HeaderBackgroundColor #1b1b1a
    BackgroundColor #282828
    BorderColor #5e5e5e
 	StereotypeFontColor #a0a0a0
    StereotypeFontStyle bold
	BorderThickness 1
	AttributeFontColor #D8Bc00
	AttributeFontSize 11
    FontColor #D8Bc00
    FontStyle bold
}


skinparam object {
		FontColor #C8Ac00
	BorderColor #333333
	BackgroundColor #333333-#333333
	StereotypeFontColor #484848
	BorderThickness 1
	AttributeFontColor #fefefe
	AttributeFontSize 11
}


skinparam usecase {
		FontColor #C8Ac00
	BorderColor #333333
	BackgroundColor #333333-#333333
	BorderThickness 2
	StereotypeFontColor #303030
}


skinparam rectangle {
		FontColor #C8Ac00
	BorderColor #333333
	BackgroundColor #333333-#333333
	BackgroundColor #333333
	BorderThickness 2
	StereotypeFontColor #303030
}


skinparam package {
		FontColor #C8Ac00
	BorderColor #333333
	BackgroundColor #333333-#333333
	BackgroundColor #333333
	BorderThickness 2
}


skinparam folder {
	BackgroundColor #6d6d6d
  	BorderColor #ff8000
	FontColor #ff8000
	BorderThickness 2
}


skinparam frame {
	BackgroundColor #6d6d6d
  	BorderColor #0060a8
	FontColor #0060a8
	BorderThickness 2
}


skinparam state {
		FontColor #C8Ac00
	BorderColor #333333
	BackgroundColor #333333-#333333
	StartColor #0060a8
	EndColor #0060a8
	AttributeFontColor #fefefe
	AttributeFontSize 11
}


skinparam queue {
		FontColor #C8Ac00
	BorderColor #333333
	BackgroundColor #333333-#333333
}


skinparam card {
	BackgroundColor #0060a8
	BorderColor #004d86
	FontColor $INFO_TEXT
}


skinparam file {
	BackgroundColor #6d6d6d-#484848
	BorderColor #0060a8
	FontColor #fefefe
}


skinparam stack {
		FontColor #C8Ac00
	BorderColor #333333
	BackgroundColor #333333-#333333
}

    
    title "com.telenav.kivakit.logs.server"
    
    abstract BaseTextLog
    
    interface ComponentMixin
    
    BaseTextLog <|- - ServerLog
    ComponentMixin <|- - ServerLog
    class ServerLog
    {
        - -(constructors)- -
        +ServerLog()
        - -
        +ServerLog get()
        - -(messaging)- -
        +ServerLog listen(ProgressReporter)
        - -(network)- -
        +int port()
        - -(thread)- -
        +void synchronizeSessions(SerializationSession, ProgressReporter)
    }
    
    KryoTypes <|- - ServerLogKryoTypes
    class ServerLogKryoTypes
    {
        - -(constructors)- -
        +ServerLogKryoTypes()
    }
    
    Project <|- - ServerLogProject
    class ServerLogProject
    {
        - -(constructors)- -
        +ServerLogProject()
    }
    
@enduml

PlantUML version 1.2021.01(Tue Feb 02 00:55:08 MST 2021)
(GPL source distribution)
Java Runtime: OpenJDK Runtime Environment
JVM: OpenJDK 64-Bit Server VM
Default Encoding: UTF-8
Language: en
Country: US
--></g></svg>