<?xml version="1.0" encoding="UTF-8" standalone="no"?><svg xmlns="http://www.w3.org/2000/svg" xmlns:xlink="http://www.w3.org/1999/xlink" contentScriptType="application/ecmascript" contentStyleType="text/css" height="218.75px" preserveAspectRatio="none" style="width:507px;height:218px;background:#333333;" version="1.1" viewBox="0 0 507 218" width="507.2917px" zoomAndPan="magnify"><defs/><g><rect fill="#48494B" height="41.2028" rx="8.3333" ry="8.3333" style="stroke:#545454;stroke-width:1.0416666666666667;" width="494.7917" x="2.0833" y="2.0833"/><text fill="#C0C0C0" font-family="Open Sans,Avenir,Nunito,Arial,Helvetica,SansSerif" font-size="20.8333" lengthAdjust="spacing" textLength="471.875" x="13.5417" y="30.5583">com.telenav.kivakit.component.internal.lexakai</text><rect codeLine="7" fill="#282828" height="48.055" id="UmlDiagramIdentifier" rx="8.3333" ry="8.3333" style="stroke:#5E5E5E;stroke-width:1.0416666666666667;" width="178.125" x="167.7083" y="53.7028"/><rect fill="#1B1B1A" height="31.3883" rx="8.3333" ry="8.3333" style="stroke:#1B1B1A;stroke-width:1.0416666666666667;" width="178.125" x="167.7083" y="53.7028"/><rect fill="#1B1B1A" height="8.3333" style="stroke:#1B1B1A;stroke-width:1.0416666666666667;" width="178.125" x="167.7083" y="76.7578"/><rect codeLine="7" fill="none" height="48.055" id="UmlDiagramIdentifier" rx="8.3333" ry="8.3333" style="stroke:#5E5E5E;stroke-width:1.0416666666666667;" width="178.125" x="167.7083" y="53.7028"/><ellipse cx="182.2917" cy="69.397" fill="#008400" rx="10.4167" ry="10.4167" style="stroke:#239C23;stroke-width:1.0416666666666667;"/><path d="M179.6956,66.5588 L179.6956,64.9719 L185.1217,64.9719 L185.1217,66.5588 L183.3089,66.5588 L183.3089,72.4976 L185.1217,72.4976 L185.1217,74.0845 L179.6956,74.0845 L179.6956,72.4976 L181.5084,72.4976 L181.5084,66.5588 Z " fill="#000000"/><text fill="#D8BC00" font-family="Open Sans,Avenir,Nunito,Arial,Helvetica,SansSerif" font-size="12.5" font-style="italic" font-weight="bold" lengthAdjust="spacing" textLength="140.625" x="198.9583" y="74.1211">UmlDiagramIdentifier</text><line style="stroke:#5E5E5E;stroke-width:1.0416666666666667;" x1="168.75" x2="344.7917" y1="85.0911" y2="85.0911"/><line style="stroke:#5E5E5E;stroke-width:1.0416666666666667;" x1="168.75" x2="344.7917" y1="93.4245" y2="93.4245"/><rect codeLine="9" fill="#282828" height="48.055" id="DiagramComponent" rx="8.3333" ry="8.3333" style="stroke:#5E5E5E;stroke-width:1.0416666666666667;" width="168.75" x="172.3958" y="164.1195"/><rect fill="#1B1B1A" height="31.3883" rx="8.3333" ry="8.3333" style="stroke:#1B1B1A;stroke-width:1.0416666666666667;" width="168.75" x="172.3958" y="164.1195"/><rect fill="#1B1B1A" height="8.3333" style="stroke:#1B1B1A;stroke-width:1.0416666666666667;" width="168.75" x="172.3958" y="187.1745"/><rect codeLine="9" fill="none" height="48.055" id="DiagramComponent" rx="8.3333" ry="8.3333" style="stroke:#5E5E5E;stroke-width:1.0416666666666667;" width="168.75" x="172.3958" y="164.1195"/><ellipse cx="186.9792" cy="179.8136" fill="#008400" rx="10.4167" ry="10.4167" style="stroke:#239C23;stroke-width:1.0416666666666667;"/><path d="M184.3831,176.9755 L184.3831,175.3886 L189.8092,175.3886 L189.8092,176.9755 L187.9964,176.9755 L187.9964,182.9142 L189.8092,182.9142 L189.8092,184.5011 L184.3831,184.5011 L184.3831,182.9142 L186.1959,182.9142 L186.1959,176.9755 Z " fill="#000000"/><text fill="#D8BC00" font-family="Open Sans,Avenir,Nunito,Arial,Helvetica,SansSerif" font-size="12.5" font-style="italic" font-weight="bold" lengthAdjust="spacing" textLength="131.25" x="203.6458" y="184.5378">DiagramComponent</text><line style="stroke:#5E5E5E;stroke-width:1.0416666666666667;" x1="173.4375" x2="340.1042" y1="195.5078" y2="195.5078"/><line style="stroke:#5E5E5E;stroke-width:1.0416666666666667;" x1="173.4375" x2="340.1042" y1="203.8411" y2="203.8411"/><path codeLine="8" d="M256.7708,124.234 C256.7708,137.8799 256.7708,152.2757 256.7708,163.8382 " fill="none" id="UmlDiagramIdentifier-backto-DiagramComponent" style="stroke:#545454;stroke-width:1.5625;"/><polygon fill="none" points="249.4792,124.3486,256.7708,103.5153,264.0625,124.3486,249.4792,124.3486" style="stroke:#545454;stroke-width:1.5625;"/></g></svg>

