<?xml version="1.0" encoding="UTF-8" standalone="no"?><svg xmlns="http://www.w3.org/2000/svg" xmlns:xlink="http://www.w3.org/1999/xlink" contentScriptType="application/ecmascript" contentStyleType="text/css" height="254.1667px" preserveAspectRatio="none" style="width:600px;height:254px;background:#333333;" version="1.1" viewBox="0 0 600 254" width="600px" zoomAndPan="magnify"><defs/><g><rect fill="#48494B" height="41.2028" rx="8.3333" ry="8.3333" style="stroke:#545454;stroke-width:1.0416666666666667;" width="587.5" x="2.0833" y="2.0833"/><text fill="#C0C0C0" font-family="Open Sans,Avenir,Nunito,Arial,Helvetica,SansSerif" font-size="20.8333" lengthAdjust="spacing" textLength="564.5833" x="13.5417" y="30.5583">com.telenav.kivakit.settings.stores.zookeeper.converters</text><rect fill="#282828" height="48.055" id="EnumConverter" rx="8.3333" ry="8.3333" style="stroke:#5E5E5E;stroke-width:1.0416666666666667;" width="137.5" x="234.375" y="53.7028"/><rect fill="#1B1B1A" height="31.3883" rx="8.3333" ry="8.3333" style="stroke:#1B1B1A;stroke-width:1.0416666666666667;" width="137.5" x="234.375" y="53.7028"/><rect fill="#1B1B1A" height="8.3333" style="stroke:#1B1B1A;stroke-width:1.0416666666666667;" width="137.5" x="234.375" y="76.7578"/><rect fill="none" height="48.055" id="EnumConverter" rx="8.3333" ry="8.3333" style="stroke:#5E5E5E;stroke-width:1.0416666666666667;" width="137.5" x="234.375" y="53.7028"/><ellipse cx="248.9583" cy="69.397" fill="#0066CF" rx="10.4167" ry="10.4167" style="stroke:#0086EF;stroke-width:1.0416666666666667;"/><path d="M250.8687,73.822 Q250.4415,74.0417 249.9715,74.1516 Q249.5015,74.2615 248.9827,74.2615 Q247.1395,74.2615 246.169,73.0469 Q245.1986,71.8323 245.1986,69.5374 Q245.1986,67.2363 246.169,66.0217 Q247.1395,64.8071 248.9827,64.8071 Q249.5015,64.8071 249.9776,64.917 Q250.4537,65.0269 250.8687,65.2466 L250.8687,67.2485 Q250.4049,66.8213 249.9685,66.6229 Q249.5321,66.4246 249.0682,66.4246 Q248.0794,66.4246 247.5759,67.2089 Q247.0723,67.9932 247.0723,69.5374 Q247.0723,71.0754 247.5759,71.8597 Q248.0794,72.644 249.0682,72.644 Q249.5321,72.644 249.9685,72.4457 Q250.4049,72.2473 250.8687,71.8201 Z " fill="#000000"/><text fill="#D8BC00" font-family="Open Sans,Avenir,Nunito,Arial,Helvetica,SansSerif" font-size="12.5" font-weight="bold" lengthAdjust="spacing" textLength="100" x="265.625" y="74.1211">EnumConverter</text><line style="stroke:#5E5E5E;stroke-width:1.0416666666666667;" x1="235.4167" x2="370.8333" y1="85.0911" y2="85.0911"/><line style="stroke:#5E5E5E;stroke-width:1.0416666666666667;" x1="235.4167" x2="370.8333" y1="93.4245" y2="93.4245"/><rect codeLine="8" fill="#282828" height="83.3781" id="CreateModeConverter" rx="8.3333" ry="8.3333" style="stroke:#5E5E5E;stroke-width:1.0416666666666667;" width="208.3333" x="198.9583" y="164.1195"/><rect fill="#1B1B1A" height="31.3883" rx="8.3333" ry="8.3333" style="stroke:#1B1B1A;stroke-width:1.0416666666666667;" width="208.3333" x="198.9583" y="164.1195"/><rect fill="#1B1B1A" height="8.3333" style="stroke:#1B1B1A;stroke-width:1.0416666666666667;" width="208.3333" x="198.9583" y="187.1745"/><rect codeLine="8" fill="none" height="83.3781" id="CreateModeConverter" rx="8.3333" ry="8.3333" style="stroke:#5E5E5E;stroke-width:1.0416666666666667;" width="208.3333" x="198.9583" y="164.1195"/><ellipse cx="227.1354" cy="179.8136" fill="#0066CF" rx="10.4167" ry="10.4167" style="stroke:#0086EF;stroke-width:1.0416666666666667;"/><path d="M229.0458,184.2387 Q228.6186,184.4584 228.1486,184.5683 Q227.6786,184.6781 227.1598,184.6781 Q225.3166,184.6781 224.3461,183.4635 Q223.3757,182.2489 223.3757,179.954 Q223.3757,177.653 224.3461,176.4384 Q225.3166,175.2238 227.1598,175.2238 Q227.6786,175.2238 228.1547,175.3337 Q228.6308,175.4435 229.0458,175.6632 L229.0458,177.6652 Q228.5819,177.238 228.1455,177.0396 Q227.7091,176.8412 227.2453,176.8412 Q226.2565,176.8412 225.753,177.6255 Q225.2494,178.4098 225.2494,179.954 Q225.2494,181.4921 225.753,182.2764 Q226.2565,183.0607 227.2453,183.0607 Q227.7091,183.0607 228.1455,182.8623 Q228.5819,182.664 229.0458,182.2367 Z " fill="#000000"/><text fill="#D8BC00" font-family="Open Sans,Avenir,Nunito,Arial,Helvetica,SansSerif" font-size="12.5" font-weight="bold" lengthAdjust="spacing" textLength="140.625" x="246.8229" y="184.5378">CreateModeConverter</text><line style="stroke:#5E5E5E;stroke-width:1.5625;" x1="200" x2="406.25" y1="195.5078" y2="195.5078"/><ellipse cx="210.4167" cy="230.8777" fill="#84BE84" rx="3.125" ry="3.125" style="stroke:#038048;stroke-width:1.0416666666666667;"/><text fill="#D8BC00" font-family="Open Sans,Avenir,Nunito,Arial,Helvetica,SansSerif" font-size="11.4583" lengthAdjust="spacing" textLength="176.0417" x="221.875" y="237.7889">CreateModeConverter(Listener)</text><line style="stroke:#5E5E5E;stroke-width:1.0416666666666667;" x1="200" x2="259.375" y1="213.7136" y2="213.7136"/><text fill="#D8BC00" font-family="Open Sans,Avenir,Nunito,Arial,Helvetica,SansSerif" font-size="11.4583" lengthAdjust="spacing" textLength="81.25" x="262.5" y="217.5232">(constructors)</text><line style="stroke:#5E5E5E;stroke-width:1.0416666666666667;" x1="346.875" x2="406.25" y1="213.7136" y2="213.7136"/><path codeLine="7" d="M303.125,124.4528 C303.125,137.4215 303.125,151.4528 303.125,164.0986 " fill="none" id="EnumConverter-backto-CreateModeConverter" style="stroke:#545454;stroke-width:1.5625;"/><polygon fill="none" points="295.8333,124.5257,303.125,103.6924,310.4167,124.5257,295.8333,124.5257" style="stroke:#545454;stroke-width:1.5625;"/></g></svg>
