<?xml version="1.0" encoding="UTF-8" standalone="no"?><svg xmlns="http://www.w3.org/2000/svg" xmlns:xlink="http://www.w3.org/1999/xlink" contentScriptType="application/ecmascript" contentStyleType="text/css" height="546.875px" preserveAspectRatio="none" style="width:648px;height:546px;background:#333333;" version="1.1" viewBox="0 0 648 546" width="648.9583px" zoomAndPan="magnify"><defs/><g><rect fill="#48494B" height="41.2028" rx="8.3333" ry="8.3333" style="stroke:#545454;stroke-width:1.0416666666666667;" width="636.4583" x="2.0833" y="2.0833"/><text fill="#C0C0C0" font-family="Open Sans,Avenir,Nunito,Arial,Helvetica,SansSerif" font-size="20.8333" lengthAdjust="spacing" textLength="613.5417" x="13.5417" y="30.5583">com.telenav.kivakit.kernel.language.reflection.property.filters</text><!--MD5=[9db0f40cc880ec052ddfc590f2cda8a8]
class PropertyFilter--><rect codeLine="6" fill="#282828" height="48.055" id="PropertyFilter" rx="8.3333" ry="8.3333" style="stroke:#5E5E5E;stroke-width:1.0416666666666667;" width="125" x="268.75" y="53.7028"/><rect fill="#1B1B1A" height="31.3883" rx="8.3333" ry="8.3333" style="stroke:#1B1B1A;stroke-width:1.0416666666666667;" width="125" x="268.75" y="53.7028"/><rect fill="#1B1B1A" height="8.3333" style="stroke:#1B1B1A;stroke-width:1.0416666666666667;" width="125" x="268.75" y="76.7578"/><rect codeLine="6" fill="none" height="48.055" id="PropertyFilter" rx="8.3333" ry="8.3333" style="stroke:#5E5E5E;stroke-width:1.0416666666666667;" width="125" x="268.75" y="53.7028"/><ellipse cx="283.3333" cy="69.397" fill="#008400" rx="10.4167" ry="10.4167" style="stroke:#239C23;stroke-width:1.0416666666666667;"/><path d="M280.7373,66.5588 L280.7373,64.9719 L286.1633,64.9719 L286.1633,66.5588 L284.3506,66.5588 L284.3506,72.4976 L286.1633,72.4976 L286.1633,74.0845 L280.7373,74.0845 L280.7373,72.4976 L282.55,72.4976 L282.55,66.5588 Z " fill="#000000"/><text fill="#D8BC00" font-family="Open Sans,Avenir,Nunito,Arial,Helvetica,SansSerif" font-size="12.5" font-style="italic" font-weight="bold" lengthAdjust="spacing" textLength="87.5" x="300" y="74.1211">PropertyFilter</text><line style="stroke:#5E5E5E;stroke-width:1.0416666666666667;" x1="269.7917" x2="392.7083" y1="85.0911" y2="85.0911"/><line style="stroke:#5E5E5E;stroke-width:1.0416666666666667;" x1="269.7917" x2="392.7083" y1="93.4245" y2="93.4245"/><!--MD5=[ea1658067693a7e840882dfa60a04b7c]
class PropertyFilterSet--><rect codeLine="11" fill="#282828" height="265.2486" id="PropertyFilterSet" rx="8.3333" ry="8.3333" style="stroke:#5E5E5E;stroke-width:1.0416666666666667;" width="335.4167" x="163.5417" y="164.1195"/><rect fill="#1B1B1A" height="31.3883" rx="8.3333" ry="8.3333" style="stroke:#1B1B1A;stroke-width:1.0416666666666667;" width="335.4167" x="163.5417" y="164.1195"/><rect fill="#1B1B1A" height="8.3333" style="stroke:#1B1B1A;stroke-width:1.0416666666666667;" width="335.4167" x="163.5417" y="187.1745"/><rect codeLine="11" fill="none" height="265.2486" id="PropertyFilterSet" rx="8.3333" ry="8.3333" style="stroke:#5E5E5E;stroke-width:1.0416666666666667;" width="335.4167" x="163.5417" y="164.1195"/><ellipse cx="270.3125" cy="179.8136" fill="#0066CF" rx="10.4167" ry="10.4167" style="stroke:#0086EF;stroke-width:1.0416666666666667;"/><path d="M272.2229,184.2387 Q271.7957,184.4584 271.3257,184.5683 Q270.8557,184.6781 270.3369,184.6781 Q268.4937,184.6781 267.5232,183.4635 Q266.5527,182.2489 266.5527,179.954 Q266.5527,177.653 267.5232,176.4384 Q268.4937,175.2238 270.3369,175.2238 Q270.8557,175.2238 271.3318,175.3337 Q271.8079,175.4435 272.2229,175.6632 L272.2229,177.6652 Q271.759,177.238 271.3226,177.0396 Q270.8862,176.8412 270.4224,176.8412 Q269.4336,176.8412 268.9301,177.6255 Q268.4265,178.4098 268.4265,179.954 Q268.4265,181.4921 268.9301,182.2764 Q269.4336,183.0607 270.4224,183.0607 Q270.8862,183.0607 271.3226,182.8623 Q271.759,182.664 272.2229,182.2367 Z " fill="#000000"/><text fill="#D8BC00" font-family="Open Sans,Avenir,Nunito,Arial,Helvetica,SansSerif" font-size="12.5" font-weight="bold" lengthAdjust="spacing" textLength="107.2917" x="293.2292" y="184.5378">PropertyFilterSet</text><line style="stroke:#5E5E5E;stroke-width:1.5625;" x1="164.5833" x2="497.9167" y1="195.5078" y2="195.5078"/><ellipse cx="175" cy="230.8777" fill="#84BE84" rx="3.125" ry="3.125" style="stroke:#038048;stroke-width:1.0416666666666667;"/><text fill="#D8BC00" font-family="Open Sans,Avenir,Nunito,Arial,Helvetica,SansSerif" font-size="11.4583" lengthAdjust="spacing" textLength="303.125" x="186.4583" y="237.7889">PropertyFilterSet(NamingConvention, IncludeProperty)</text><line style="stroke:#5E5E5E;stroke-width:1.0416666666666667;" x1="164.5833" x2="287.5" y1="213.7136" y2="213.7136"/><text fill="#D8BC00" font-family="Open Sans,Avenir,Nunito,Arial,Helvetica,SansSerif" font-size="11.4583" lengthAdjust="spacing" textLength="81.25" x="290.625" y="217.5232">(constructors)</text><line style="stroke:#5E5E5E;stroke-width:1.0416666666666667;" x1="375" x2="497.9167" y1="213.7136" y2="213.7136"/><polygon fill="#FFFF44" points="175,269.3258,179.1667,273.4924,175,277.6591,170.8333,273.4924" style="stroke:#B38D22;stroke-width:1.0416666666666667;"/><text fill="#D8BC00" font-family="Open Sans,Avenir,Nunito,Arial,Helvetica,SansSerif" font-size="11.4583" lengthAdjust="spacing" textLength="141.6667" x="186.4583" y="281.4453">boolean isGetter(Method)</text><polygon fill="#FFFF44" points="175,289.0706,179.1667,293.2373,175,297.404,170.8333,293.2373" style="stroke:#B38D22;stroke-width:1.0416666666666667;"/><text fill="#D8BC00" font-family="Open Sans,Avenir,Nunito,Arial,Helvetica,SansSerif" font-size="11.4583" lengthAdjust="spacing" textLength="139.5833" x="186.4583" y="301.1902">boolean isIncluded(Field)</text><polygon fill="#FFFF44" points="175,308.8155,179.1667,312.9822,175,317.1488,170.8333,312.9822" style="stroke:#B38D22;stroke-width:1.0416666666666667;"/><text fill="#D8BC00" font-family="Open Sans,Avenir,Nunito,Arial,Helvetica,SansSerif" font-size="11.4583" lengthAdjust="spacing" textLength="155.2083" x="186.4583" y="320.9351">boolean isIncluded(Method)</text><polygon fill="#FFFF44" points="175,328.5604,179.1667,332.7271,175,336.8937,170.8333,332.7271" style="stroke:#B38D22;stroke-width:1.0416666666666667;"/><text fill="#D8BC00" font-family="Open Sans,Avenir,Nunito,Arial,Helvetica,SansSerif" font-size="11.4583" lengthAdjust="spacing" textLength="195.8333" x="186.4583" y="340.6799">boolean isKivaKitExcluded(Method)</text><polygon fill="#FFFF44" points="175,348.3053,179.1667,352.4719,175,356.6386,170.8333,352.4719" style="stroke:#B38D22;stroke-width:1.0416666666666667;"/><text fill="#D8BC00" font-family="Open Sans,Avenir,Nunito,Arial,Helvetica,SansSerif" font-size="11.4583" lengthAdjust="spacing" textLength="180.2083" x="186.4583" y="360.4248">boolean isKivaKitExcluded(Field)</text><polygon fill="#FFFF44" points="175,368.0501,179.1667,372.2168,175,376.3835,170.8333,372.2168" style="stroke:#B38D22;stroke-width:1.0416666666666667;"/><text fill="#D8BC00" font-family="Open Sans,Avenir,Nunito,Arial,Helvetica,SansSerif" font-size="11.4583" lengthAdjust="spacing" textLength="177.0833" x="186.4583" y="380.1697">boolean isKivaKitIncluded(Field)</text><polygon fill="#FFFF44" points="175,387.795,179.1667,391.9617,175,396.1283,170.8333,391.9617" style="stroke:#B38D22;stroke-width:1.0416666666666667;"/><text fill="#D8BC00" font-family="Open Sans,Avenir,Nunito,Arial,Helvetica,SansSerif" font-size="11.4583" lengthAdjust="spacing" textLength="192.7083" x="186.4583" y="399.9146">boolean isKivaKitIncluded(Method)</text><polygon fill="#FFFF44" points="175,407.5399,179.1667,411.7065,175,415.8732,170.8333,411.7065" style="stroke:#B38D22;stroke-width:1.0416666666666667;"/><text fill="#D8BC00" font-family="Open Sans,Avenir,Nunito,Arial,Helvetica,SansSerif" font-size="11.4583" lengthAdjust="spacing" textLength="139.5833" x="186.4583" y="419.6594">boolean isSetter(Method)</text><line style="stroke:#5E5E5E;stroke-width:1.0416666666666667;" x1="164.5833" x2="304.6875" y1="257.37" y2="257.37"/><text fill="#D8BC00" font-family="Open Sans,Avenir,Nunito,Arial,Helvetica,SansSerif" font-size="11.4583" lengthAdjust="spacing" textLength="46.875" x="307.8125" y="261.1796">(checks)</text><line style="stroke:#5E5E5E;stroke-width:1.0416666666666667;" x1="357.8125" x2="497.9167" y1="257.37" y2="257.37"/><!--MD5=[9311aaac8618ecc4f5cdc0170aad89df]
class NamingConvention--><rect fill="#282828" height="48.055" id="NamingConvention" rx="8.3333" ry="8.3333" style="stroke:#5E5E5E;stroke-width:1.0416666666666667;" width="162.5" x="156.25" y="492.2445"/><rect fill="#1B1B1A" height="31.3883" rx="8.3333" ry="8.3333" style="stroke:#1B1B1A;stroke-width:1.0416666666666667;" width="162.5" x="156.25" y="492.2445"/><rect fill="#1B1B1A" height="8.3333" style="stroke:#1B1B1A;stroke-width:1.0416666666666667;" width="162.5" x="156.25" y="515.2995"/><rect fill="none" height="48.055" id="NamingConvention" rx="8.3333" ry="8.3333" style="stroke:#5E5E5E;stroke-width:1.0416666666666667;" width="162.5" x="156.25" y="492.2445"/><ellipse cx="170.8333" cy="507.9386" fill="#0066CF" rx="10.4167" ry="10.4167" style="stroke:#0086EF;stroke-width:1.0416666666666667;"/><path d="M172.7437,512.3637 Q172.3165,512.5834 171.8465,512.6933 Q171.3765,512.8031 170.8577,512.8031 Q169.0145,512.8031 168.044,511.5885 Q167.0736,510.3739 167.0736,508.079 Q167.0736,505.778 168.044,504.5634 Q169.0145,503.3488 170.8577,503.3488 Q171.3765,503.3488 171.8526,503.4587 Q172.3287,503.5685 172.7437,503.7882 L172.7437,505.7902 Q172.2799,505.363 171.8435,505.1646 Q171.4071,504.9662 170.9432,504.9662 Q169.9544,504.9662 169.4509,505.7505 Q168.9473,506.5348 168.9473,508.079 Q168.9473,509.6171 169.4509,510.4014 Q169.9544,511.1857 170.9432,511.1857 Q171.4071,511.1857 171.8435,510.9873 Q172.2799,510.789 172.7437,510.3617 Z " fill="#000000"/><text fill="#D8BC00" font-family="Open Sans,Avenir,Nunito,Arial,Helvetica,SansSerif" font-size="12.5" font-weight="bold" lengthAdjust="spacing" textLength="125" x="187.5" y="512.6628">NamingConvention</text><line style="stroke:#5E5E5E;stroke-width:1.0416666666666667;" x1="157.2917" x2="317.7083" y1="523.6328" y2="523.6328"/><line style="stroke:#5E5E5E;stroke-width:1.0416666666666667;" x1="157.2917" x2="317.7083" y1="531.9661" y2="531.9661"/><!--MD5=[3f178588f7936dc5a419b37089dab42c]
class IncludeProperty--><rect fill="#282828" height="48.055" id="IncludeProperty" rx="8.3333" ry="8.3333" style="stroke:#5E5E5E;stroke-width:1.0416666666666667;" width="138.5417" x="355.7292" y="492.2445"/><rect fill="#1B1B1A" height="31.3883" rx="8.3333" ry="8.3333" style="stroke:#1B1B1A;stroke-width:1.0416666666666667;" width="138.5417" x="355.7292" y="492.2445"/><rect fill="#1B1B1A" height="8.3333" style="stroke:#1B1B1A;stroke-width:1.0416666666666667;" width="138.5417" x="355.7292" y="515.2995"/><rect fill="none" height="48.055" id="IncludeProperty" rx="8.3333" ry="8.3333" style="stroke:#5E5E5E;stroke-width:1.0416666666666667;" width="138.5417" x="355.7292" y="492.2445"/><ellipse cx="370.3125" cy="507.9386" fill="#0066CF" rx="10.4167" ry="10.4167" style="stroke:#0086EF;stroke-width:1.0416666666666667;"/><path d="M372.2229,512.3637 Q371.7957,512.5834 371.3257,512.6933 Q370.8557,512.8031 370.3369,512.8031 Q368.4937,512.8031 367.5232,511.5885 Q366.5527,510.3739 366.5527,508.079 Q366.5527,505.778 367.5232,504.5634 Q368.4937,503.3488 370.3369,503.3488 Q370.8557,503.3488 371.3318,503.4587 Q371.8079,503.5685 372.2229,503.7882 L372.2229,505.7902 Q371.759,505.363 371.3226,505.1646 Q370.8862,504.9662 370.4224,504.9662 Q369.4336,504.9662 368.9301,505.7505 Q368.4265,506.5348 368.4265,508.079 Q368.4265,509.6171 368.9301,510.4014 Q369.4336,511.1857 370.4224,511.1857 Q370.8862,511.1857 371.3226,510.9873 Q371.759,510.789 372.2229,510.3617 Z " fill="#000000"/><text fill="#D8BC00" font-family="Open Sans,Avenir,Nunito,Arial,Helvetica,SansSerif" font-size="12.5" font-weight="bold" lengthAdjust="spacing" textLength="101.0417" x="386.9792" y="512.6628">IncludeProperty</text><line style="stroke:#5E5E5E;stroke-width:1.0416666666666667;" x1="356.7708" x2="493.2292" y1="523.6328" y2="523.6328"/><line style="stroke:#5E5E5E;stroke-width:1.0416666666666667;" x1="356.7708" x2="493.2292" y1="531.9661" y2="531.9661"/><!--MD5=[e84c9e456adc2a67d537dd6c3ebc6bc4]
reverse link PropertyFilter to PropertyFilterSet--><path codeLine="8" d="M331.25,123.0882 C331.25,135.3174 331.25,149.2445 331.25,163.7653 " fill="none" id="PropertyFilter-backto-PropertyFilterSet" style="stroke:#545454;stroke-width:1.5625;"/><polygon fill="none" points="323.9583,122.7757,331.25,101.9424,338.5417,122.7757,323.9583,122.7757" style="stroke:#545454;stroke-width:1.5625;"/><!--MD5=[6fdab36ab972639c22223ecbce6da773]
reverse link PropertyFilterSet to NamingConvention--><path codeLine="9" d="M268.8958,442.4215 C260.625,461.5986 253.0729,479.0882 247.4479,492.1195 " fill="none" id="PropertyFilterSet-backto-NamingConvention" style="stroke:#545454;stroke-width:1.5625;"/><polygon fill="#333333" points="274.2813,429.9424,267.9824,434.0348,269.3374,441.4232,275.6362,437.3307,274.2813,429.9424" style="stroke:#545454;stroke-width:1.5625;"/><!--MD5=[983e2cef4afc02d8bad60e54fca81a83]
reverse link PropertyFilterSet to IncludeProperty--><path codeLine="10" d="M393.6042,442.4215 C401.875,461.5986 409.4271,479.0882 415.0521,492.1195 " fill="none" id="PropertyFilterSet-backto-IncludeProperty" style="stroke:#545454;stroke-width:1.5625;"/><polygon fill="#333333" points="388.2188,429.9424,386.8638,437.3307,393.1626,441.4232,394.5176,434.0348,388.2188,429.9424" style="stroke:#545454;stroke-width:1.5625;"/><text fill="#A0A0A0" font-family="Open Sans,Avenir,Nunito,Arial,Helvetica,SansSerif" font-size="12.5" font-weight="bold" lengthAdjust="spacing" textLength="8.3333" x="379.4771" y="453.0101">1</text><text fill="#A0A0A0" font-family="Open Sans,Avenir,Nunito,Arial,Helvetica,SansSerif" font-size="12.5" font-weight="bold" lengthAdjust="spacing" textLength="6.25" x="401.7288" y="478.0867">*</text><!--MD5=[a7bec29f22d90576ccae805ddf32056e]
@startuml

    !include lexakai.theme
    
    title "com.telenav.kivakit.kernel.language.reflection.property.filters"
    
    interface PropertyFilter
    
    PropertyFilter <|- - PropertyFilterSet
    PropertyFilterSet o- - NamingConvention
    PropertyFilterSet "1" o- - "*" IncludeProperty
    class PropertyFilterSet
    {
        - -(constructors)- -
        +PropertyFilterSet(NamingConvention, IncludeProperty)
        - -(checks)- -
        #boolean isGetter(Method)
        #boolean isIncluded(Field)
        #boolean isIncluded(Method)
        #boolean isKivaKitExcluded(Method)
        #boolean isKivaKitExcluded(Field)
        #boolean isKivaKitIncluded(Field)
        #boolean isKivaKitIncluded(Method)
        #boolean isSetter(Method)
    }
    
@enduml

@startuml









skinparam backgroundColor #333333






skinparam  {
    defaultFontName   "Open Sans,Avenir,Nunito,Arial,Helvetica,SansSerif"
    defaultFontSize   12
    defaultTextAlignment left
    shadowing false
    RoundCorner 10
    TitleFontSize 18
}

skinparam defaultFontName       "Open Sans,Avenir,Nunito,Arial,Helvetica,SansSerif"
skinparam defaultFontSize       12
skinparam dpi                   100
skinparam shadowing             false
skinparam roundcorner           16
skinparam ParticipantPadding    40
skinparam BoxPadding            40
skinparam Padding               3
skinparam ArrowColor            #545454
skinparam stereotype {
    CBackgroundColor #0066cf
    CBorderColor #0086ef
    ABackgroundColor #C8Ac00
    ABorderColor #D8Bc00
    IBackgroundColor #008400
    IBorderColor #239c23
    EBackgroundColor #cf6300
    EBorderColor #ef8300
    NBackgroundColor #3380b9
    NBorderColor #004d86
}
skinparam title {
	FontColor	                 #c0c0c0
 	BorderColor                  #545454
	FontSize	    	         20
	BorderRoundCorner            16
	BorderThickness 	         1
	BackgroundColor              #48494b
}


skinparam legend {
	BackgroundColor #303030
	BorderColor #404040
	FontColor #a0a0a0
}

	skinparam swimlane {
	BorderColor #5e5e5e
	BorderThickness 2
	TitleBackgroundColor  #6d6d6d-#484848
	TitleFontColor #303030
}

skinparam activity {
		FontColor #C8Ac00
	BorderColor #333333
	BackgroundColor #333333-#333333
	BarColor #00FF00
	StartColor #0060a8
	EndColor #0060a8
	DiamondBackgroundColor #6d6d6d-#3a3a3a
  	DiamondBorderColor #3a3a3a
  	DiamondFontColor #fefefe
}


skinparam participant {
		FontColor #C8Ac00
	BorderColor #333333
	BackgroundColor #333333-#333333
	ParticipantBorderThickness 2
}


skinparam actor {
		FontColor #C8Ac00
	BorderColor #333333
	BackgroundColor #333333-#333333
}


skinparam arrow {
	Thickness 1.5
	Color #545454
	FontColor #a0a0a0
    FontStyle bold
    MessageAlignment center
}



skinparam sequence {
	BorderColor #303030
	TitleFontColor #303030
	BackgroundColor #333333
	StartColor #303030
	EndColor #303030
	BoxBackgroundColor #333333
	BoxBorderColor #484848
	BoxFontColor #484848
	LifeLineBorderColor #484848
	LifeLineBorderThickness 2
	LifeLineBackgroundColor #3a3a3a
	GroupBorderColor #484848
	GroupFontColor #484848
	GroupHeaderFontColor #0060a8
	GroupBackgroundColor #484848
	GroupHeaderBackgroundColor #333333
	DividerBackgroundColor #484848
    DividerBorderColor #484848
    DividerBorderThickness 2
    DividerFontColor #D8Bc00
	ReferenceBackgroundColor #333333
	ReferenceBorderColor #484848
	ReferenceFontColor #fefefe
	ReferenceHeaderBackgroundColor #484848
}


skinparam partition {
	BorderColor #303030
	FontColor #333333
	BackgroundColor #333333
}


skinparam collections {
		FontColor #C8Ac00
	BorderColor #333333
	BackgroundColor #333333-#333333
}


skinparam control {
		FontColor #C8Ac00
	BorderColor #333333
	BackgroundColor #333333-#333333
}


skinparam entity {
		FontColor #C8Ac00
	BorderColor #333333
	BackgroundColor #333333-#333333
}


skinparam boundary {
		FontColor #C8Ac00
	BorderColor #333333
	BackgroundColor #333333-#333333
}


skinparam agent {
	BackgroundColor #ff8000
	BorderColor #ff9933
	FontColor #484848
}


skinparam note {
	BorderThickness 1
	BackgroundColor #1b1b1a
	BorderColor #5e5e5e
	FontSize 11
	FontColor #a0a0a0
}


skinparam artifact {
	BorderThickness 10
	BorderColor #5e5e5e
	BackgroundColor #1b1b1a
	FontColor #D8Bc00
}


skinparam component {
		FontColor #C8Ac00
	BorderColor #333333
	BackgroundColor #333333-#333333
}


skinparam interface {
	BackgroundColor  #008400
	BorderColor  #007F00
	FontColor #484848
}


skinparam storage {
	BackgroundColor #ff8000
  	BorderColor #cc6600
	FontColor #222222
}


skinparam node {
	BackgroundColor #333333
	BorderColor #333333
	FontColor #C8Ac00
}


skinparam cloud {
	BackgroundColor #484848-black
	BorderColor #484848
	FontColor #D8Bc00
}


skinparam database {
		FontColor #C8Ac00
	BorderColor #333333
	BackgroundColor #333333-#333333
	BackgroundColor  #333333
}


skinparam class {
		FontColor #C8Ac00
	BorderColor #333333
	BackgroundColor #333333-#333333
	HeaderBackgroundColor #1b1b1a
    BackgroundColor #282828
    BorderColor #5e5e5e
 	StereotypeFontColor #a0a0a0
    StereotypeFontStyle bold
	BorderThickness 1
	AttributeFontColor #D8Bc00
	AttributeFontSize 11
    FontColor #D8Bc00
    FontStyle bold
}


skinparam object {
		FontColor #C8Ac00
	BorderColor #333333
	BackgroundColor #333333-#333333
	StereotypeFontColor #484848
	BorderThickness 1
	AttributeFontColor #fefefe
	AttributeFontSize 11
}


skinparam usecase {
		FontColor #C8Ac00
	BorderColor #333333
	BackgroundColor #333333-#333333
	BorderThickness 2
	StereotypeFontColor #303030
}


skinparam rectangle {
		FontColor #C8Ac00
	BorderColor #333333
	BackgroundColor #333333-#333333
	BackgroundColor #333333
	BorderThickness 2
	StereotypeFontColor #303030
}


skinparam package {
		FontColor #C8Ac00
	BorderColor #333333
	BackgroundColor #333333-#333333
	BackgroundColor #333333
	BorderThickness 2
}


skinparam folder {
	BackgroundColor #6d6d6d
  	BorderColor #ff8000
	FontColor #ff8000
	BorderThickness 2
}


skinparam frame {
	BackgroundColor #6d6d6d
  	BorderColor #0060a8
	FontColor #0060a8
	BorderThickness 2
}


skinparam state {
		FontColor #C8Ac00
	BorderColor #333333
	BackgroundColor #333333-#333333
	StartColor #0060a8
	EndColor #0060a8
	AttributeFontColor #fefefe
	AttributeFontSize 11
}


skinparam queue {
		FontColor #C8Ac00
	BorderColor #333333
	BackgroundColor #333333-#333333
}


skinparam card {
	BackgroundColor #0060a8
	BorderColor #004d86
	FontColor $INFO_TEXT
}


skinparam file {
	BackgroundColor #6d6d6d-#484848
	BorderColor #0060a8
	FontColor #fefefe
}


skinparam stack {
		FontColor #C8Ac00
	BorderColor #333333
	BackgroundColor #333333-#333333
}

    
    title "com.telenav.kivakit.kernel.language.reflection.property.filters"
    
    interface PropertyFilter
    
    PropertyFilter <|- - PropertyFilterSet
    PropertyFilterSet o- - NamingConvention
    PropertyFilterSet "1" o- - "*" IncludeProperty
    class PropertyFilterSet
    {
        - -(constructors)- -
        +PropertyFilterSet(NamingConvention, IncludeProperty)
        - -(checks)- -
        #boolean isGetter(Method)
        #boolean isIncluded(Field)
        #boolean isIncluded(Method)
        #boolean isKivaKitExcluded(Method)
        #boolean isKivaKitExcluded(Field)
        #boolean isKivaKitIncluded(Field)
        #boolean isKivaKitIncluded(Method)
        #boolean isSetter(Method)
    }
    
@enduml

PlantUML version 1.2021.01(Tue Feb 02 00:55:08 MST 2021)
(GPL source distribution)
Java Runtime: OpenJDK Runtime Environment
JVM: OpenJDK 64-Bit Server VM
Default Encoding: UTF-8
Language: en
Country: US
--></g></svg>