<?xml version="1.0" encoding="UTF-8" standalone="no"?><svg xmlns="http://www.w3.org/2000/svg" xmlns:xlink="http://www.w3.org/1999/xlink" contentScriptType="application/ecmascript" contentStyleType="text/css" height="725px" preserveAspectRatio="none" style="width:370px;height:725px;background:#333333;" version="1.1" viewBox="0 0 370 725" width="370.8333px" zoomAndPan="magnify"><defs/><g><rect fill="#48494B" height="41.2028" rx="8.3333" ry="8.3333" style="stroke:#545454;stroke-width:1.0416666666666667;" width="358.3333" x="2.0833" y="2.0833"/><text fill="#C0C0C0" font-family="Open Sans,Avenir,Nunito,Arial,Helvetica,SansSerif" font-size="20.8333" lengthAdjust="spacing" textLength="335.4167" x="13.5417" y="30.5583">com.telenav.kivakit.core.progress</text><rect codeLine="7" fill="#282828" height="67.7999" id="ProgressListener" rx="8.3333" ry="8.3333" style="stroke:#5E5E5E;stroke-width:1.0416666666666667;" width="145.8333" x="115.625" y="650.5778"/><rect fill="#1B1B1A" height="31.3883" rx="8.3333" ry="8.3333" style="stroke:#1B1B1A;stroke-width:1.0416666666666667;" width="145.8333" x="115.625" y="650.5778"/><rect fill="#1B1B1A" height="8.3333" style="stroke:#1B1B1A;stroke-width:1.0416666666666667;" width="145.8333" x="115.625" y="673.6328"/><rect codeLine="7" fill="none" height="67.7999" id="ProgressListener" rx="8.3333" ry="8.3333" style="stroke:#5E5E5E;stroke-width:1.0416666666666667;" width="145.8333" x="115.625" y="650.5778"/><ellipse cx="130.2083" cy="666.272" fill="#008400" rx="10.4167" ry="10.4167" style="stroke:#239C23;stroke-width:1.0416666666666667;"/><path d="M127.6123,663.4338 L127.6123,661.8469 L133.0383,661.8469 L133.0383,663.4338 L131.2256,663.4338 L131.2256,669.3726 L133.0383,669.3726 L133.0383,670.9595 L127.6123,670.9595 L127.6123,669.3726 L129.425,669.3726 L129.425,663.4338 Z " fill="#000000"/><text fill="#D8BC00" font-family="Open Sans,Avenir,Nunito,Arial,Helvetica,SansSerif" font-size="12.5" font-style="italic" font-weight="bold" lengthAdjust="spacing" textLength="108.3333" x="146.875" y="670.9961">ProgressListener</text><line style="stroke:#5E5E5E;stroke-width:1.5625;" x1="116.6667" x2="260.4167" y1="681.9661" y2="681.9661"/><line style="stroke:#5E5E5E;stroke-width:1.0416666666666667;" x1="116.6667" x2="260.4167" y1="690.2995" y2="690.2995"/><ellipse cx="127.0833" cy="701.7578" fill="#84BE84" rx="3.125" ry="3.125" style="stroke:#038048;stroke-width:1.0416666666666667;"/><text fill="#D8BC00" font-family="Open Sans,Avenir,Nunito,Arial,Helvetica,SansSerif" font-size="11.4583" lengthAdjust="spacing" textLength="101.0417" x="138.5417" y="708.669">void at(Percent at)</text><rect codeLine="13" fill="#282828" height="48.055" id="Resettable" rx="8.3333" ry="8.3333" style="stroke:#5E5E5E;stroke-width:1.0416666666666667;" width="105.2083" x="135.9375" y="53.7028"/><rect fill="#1B1B1A" height="31.3883" rx="8.3333" ry="8.3333" style="stroke:#1B1B1A;stroke-width:1.0416666666666667;" width="105.2083" x="135.9375" y="53.7028"/><rect fill="#1B1B1A" height="8.3333" style="stroke:#1B1B1A;stroke-width:1.0416666666666667;" width="105.2083" x="135.9375" y="76.7578"/><rect codeLine="13" fill="none" height="48.055" id="Resettable" rx="8.3333" ry="8.3333" style="stroke:#5E5E5E;stroke-width:1.0416666666666667;" width="105.2083" x="135.9375" y="53.7028"/><ellipse cx="150.5208" cy="69.397" fill="#008400" rx="10.4167" ry="10.4167" style="stroke:#239C23;stroke-width:1.0416666666666667;"/><path d="M147.9248,66.5588 L147.9248,64.9719 L153.3508,64.9719 L153.3508,66.5588 L151.5381,66.5588 L151.5381,72.4976 L153.3508,72.4976 L153.3508,74.0845 L147.9248,74.0845 L147.9248,72.4976 L149.7375,72.4976 L149.7375,66.5588 Z " fill="#000000"/><text fill="#D8BC00" font-family="Open Sans,Avenir,Nunito,Arial,Helvetica,SansSerif" font-size="12.5" font-style="italic" font-weight="bold" lengthAdjust="spacing" textLength="67.7083" x="167.1875" y="74.1211">Resettable</text><line style="stroke:#5E5E5E;stroke-width:1.0416666666666667;" x1="136.9792" x2="240.1042" y1="85.0911" y2="85.0911"/><line style="stroke:#5E5E5E;stroke-width:1.0416666666666667;" x1="136.9792" x2="240.1042" y1="93.4245" y2="93.4245"/><rect codeLine="16" fill="#282828" height="400.3845" id="ProgressReporter" rx="8.3333" ry="8.3333" style="stroke:#5E5E5E;stroke-width:1.0416666666666667;" width="337.5" x="19.7917" y="165.1611"/><rect fill="#1B1B1A" height="31.3883" rx="8.3333" ry="8.3333" style="stroke:#1B1B1A;stroke-width:1.0416666666666667;" width="337.5" x="19.7917" y="165.1611"/><rect fill="#1B1B1A" height="8.3333" style="stroke:#1B1B1A;stroke-width:1.0416666666666667;" width="337.5" x="19.7917" y="188.2161"/><rect codeLine="16" fill="none" height="400.3845" id="ProgressReporter" rx="8.3333" ry="8.3333" style="stroke:#5E5E5E;stroke-width:1.0416666666666667;" width="337.5" x="19.7917" y="165.1611"/><ellipse cx="125.5208" cy="180.8553" fill="#008400" rx="10.4167" ry="10.4167" style="stroke:#239C23;stroke-width:1.0416666666666667;"/><path d="M122.9248,178.0172 L122.9248,176.4303 L128.3508,176.4303 L128.3508,178.0172 L126.5381,178.0172 L126.5381,183.9559 L128.3508,183.9559 L128.3508,185.5428 L122.9248,185.5428 L122.9248,183.9559 L124.7375,183.9559 L124.7375,178.0172 Z " fill="#000000"/><text fill="#D8BC00" font-family="Open Sans,Avenir,Nunito,Arial,Helvetica,SansSerif" font-size="12.5" font-style="italic" font-weight="bold" lengthAdjust="spacing" textLength="111.4583" x="148.4375" y="185.5794">ProgressReporter</text><line style="stroke:#5E5E5E;stroke-width:1.5625;" x1="20.8333" x2="356.25" y1="196.5495" y2="196.5495"/><line style="stroke:#5E5E5E;stroke-width:1.0416666666666667;" x1="20.8333" x2="356.25" y1="204.8828" y2="204.8828"/><ellipse cx="31.25" cy="216.3411" fill="#84BE84" rx="3.125" ry="3.125" style="stroke:#038048;stroke-width:1.0416666666666667;"/><text fill="#D8BC00" font-family="Open Sans,Avenir,Nunito,Arial,Helvetica,SansSerif" font-size="11.4583" lengthAdjust="spacing" textLength="230.2083" x="42.7083" y="223.2524">ProgressReporter nullProgressReporter()</text><ellipse cx="31.25" cy="236.086" fill="#84BE84" rx="3.125" ry="3.125" style="stroke:#038048;stroke-width:1.0416666666666667;"/><text fill="#D8BC00" font-family="Open Sans,Avenir,Nunito,Arial,Helvetica,SansSerif" font-size="11.4583" lengthAdjust="spacing" textLength="213.5417" x="42.7083" y="242.9972">ProgressReporter phase(String phase)</text><ellipse cx="31.25" cy="255.8309" fill="#84BE84" rx="3.125" ry="3.125" style="stroke:#038048;stroke-width:1.0416666666666667;"/><text fill="#D8BC00" font-family="Open Sans,Avenir,Nunito,Arial,Helvetica,SansSerif" font-size="11.4583" lengthAdjust="spacing" textLength="305.2083" x="42.7083" y="262.7421">ProgressReporter progressReporter(ProgressListener)</text><ellipse cx="31.25" cy="275.5758" fill="#84BE84" rx="3.125" ry="3.125" style="stroke:#038048;stroke-width:1.0416666666666667;"/><text fill="#D8BC00" font-family="Open Sans,Avenir,Nunito,Arial,Helvetica,SansSerif" font-size="11.4583" lengthAdjust="spacing" textLength="257.2917" x="42.7083" y="282.487">ProgressReporter steps(BaseCount&lt;?&gt; steps)</text><ellipse cx="31.25" cy="319.2322" fill="#84BE84" rx="3.125" ry="3.125" style="stroke:#038048;stroke-width:1.0416666666666667;"/><text fill="#D8BC00" font-family="Open Sans,Avenir,Nunito,Arial,Helvetica,SansSerif" font-size="11.4583" lengthAdjust="spacing" textLength="117.7083" x="42.7083" y="326.1434">boolean isIndefinite()</text><line style="stroke:#5E5E5E;stroke-width:1.0416666666666667;" x1="20.8333" x2="161.9792" y1="302.0681" y2="302.0681"/><text fill="#D8BC00" font-family="Open Sans,Avenir,Nunito,Arial,Helvetica,SansSerif" font-size="11.4583" lengthAdjust="spacing" textLength="46.875" x="165.1042" y="305.8777">(checks)</text><line style="stroke:#5E5E5E;stroke-width:1.0416666666666667;" x1="215.1042" x2="356.25" y1="302.0681" y2="302.0681"/><ellipse cx="31.25" cy="362.8886" fill="#84BE84" rx="3.125" ry="3.125" style="stroke:#038048;stroke-width:1.0416666666666667;"/><text fill="#D8BC00" font-family="Open Sans,Avenir,Nunito,Arial,Helvetica,SansSerif" font-size="11.4583" lengthAdjust="spacing" textLength="76.0417" x="42.7083" y="369.7998">Count steps()</text><line style="stroke:#5E5E5E;stroke-width:1.0416666666666667;" x1="20.8333" x2="154.1667" y1="345.7245" y2="345.7245"/><text fill="#D8BC00" font-family="Open Sans,Avenir,Nunito,Arial,Helvetica,SansSerif" font-size="11.4583" lengthAdjust="spacing" textLength="62.5" x="157.2917" y="349.5341">(collection)</text><line style="stroke:#5E5E5E;stroke-width:1.0416666666666667;" x1="222.9167" x2="356.25" y1="345.7245" y2="345.7245"/><ellipse cx="31.25" cy="406.545" fill="#84BE84" rx="3.125" ry="3.125" style="stroke:#038048;stroke-width:1.0416666666666667;"/><text fill="#D8BC00" font-family="Open Sans,Avenir,Nunito,Arial,Helvetica,SansSerif" font-size="11.4583" lengthAdjust="spacing" textLength="60.4167" x="42.7083" y="413.4562">void next()</text><ellipse cx="31.25" cy="426.2899" fill="#84BE84" rx="3.125" ry="3.125" style="stroke:#038048;stroke-width:1.0416666666666667;"/><text fill="#D8BC00" font-family="Open Sans,Avenir,Nunito,Arial,Helvetica,SansSerif" font-size="11.4583" lengthAdjust="spacing" textLength="128.125" x="42.7083" y="433.2011">void next(Count steps)</text><ellipse cx="31.25" cy="446.0347" fill="#84BE84" rx="3.125" ry="3.125" style="stroke:#038048;stroke-width:1.0416666666666667;"/><text fill="#D8BC00" font-family="Open Sans,Avenir,Nunito,Arial,Helvetica,SansSerif" font-size="11.4583" lengthAdjust="spacing" textLength="108.3333" x="42.7083" y="452.946">void next(int steps)</text><line style="stroke:#5E5E5E;stroke-width:1.0416666666666667;" x1="20.8333" x2="157.8125" y1="389.3809" y2="389.3809"/><text fill="#D8BC00" font-family="Open Sans,Avenir,Nunito,Arial,Helvetica,SansSerif" font-size="11.4583" lengthAdjust="spacing" textLength="55.2083" x="160.9375" y="393.1905">(iteration)</text><line style="stroke:#5E5E5E;stroke-width:1.0416666666666667;" x1="219.2708" x2="356.25" y1="389.3809" y2="389.3809"/><ellipse cx="31.25" cy="489.6912" fill="#84BE84" rx="3.125" ry="3.125" style="stroke:#038048;stroke-width:1.0416666666666667;"/><text fill="#D8BC00" font-family="Open Sans,Avenir,Nunito,Arial,Helvetica,SansSerif" font-size="11.4583" lengthAdjust="spacing" textLength="56.25" x="42.7083" y="496.6024">void end()</text><ellipse cx="31.25" cy="509.436" fill="#84BE84" rx="3.125" ry="3.125" style="stroke:#038048;stroke-width:1.0416666666666667;"/><text fill="#D8BC00" font-family="Open Sans,Avenir,Nunito,Arial,Helvetica,SansSerif" font-size="11.4583" lengthAdjust="spacing" textLength="257.2917" x="42.7083" y="516.3472">void end(String message, Object... arguments)</text><ellipse cx="31.25" cy="529.1809" fill="#84BE84" rx="3.125" ry="3.125" style="stroke:#038048;stroke-width:1.0416666666666667;"/><text fill="#D8BC00" font-family="Open Sans,Avenir,Nunito,Arial,Helvetica,SansSerif" font-size="11.4583" lengthAdjust="spacing" textLength="136.4583" x="42.7083" y="536.0921">ProgressReporter start()</text><ellipse cx="31.25" cy="548.9258" fill="#84BE84" rx="3.125" ry="3.125" style="stroke:#038048;stroke-width:1.0416666666666667;"/><text fill="#D8BC00" font-family="Open Sans,Avenir,Nunito,Arial,Helvetica,SansSerif" font-size="11.4583" lengthAdjust="spacing" textLength="198.9583" x="42.7083" y="555.837">ProgressReporter start(String label)</text><line style="stroke:#5E5E5E;stroke-width:1.0416666666666667;" x1="20.8333" x2="158.8542" y1="472.5271" y2="472.5271"/><text fill="#D8BC00" font-family="Open Sans,Avenir,Nunito,Arial,Helvetica,SansSerif" font-size="11.4583" lengthAdjust="spacing" textLength="53.125" x="161.9792" y="476.3367">(lifecycle)</text><line style="stroke:#5E5E5E;stroke-width:1.0416666666666667;" x1="218.2292" x2="356.25" y1="472.5271" y2="472.5271"/><path codeLine="14" d="M188.5417,123.1924 C188.5417,135.5153 188.5417,149.7445 188.5417,164.9945 " fill="none" id="Resettable-backto-ProgressReporter" style="stroke:#545454;stroke-width:1.5625;"/><polygon fill="none" points="181.25,122.8903,188.5417,102.057,195.8333,122.8903,181.25,122.8903" style="stroke:#545454;stroke-width:1.5625;"/><path codeLine="15" d="M188.5417,565.2861 C188.5417,595.5778 188.5417,623.7549 188.5417,644.984 " fill="none" id="ProgressReporter-to-ProgressListener" style="stroke:#545454;stroke-width:1.5625;"/><polygon fill="#545454" points="188.5417,650.234,192.7083,640.859,188.5417,645.0257,184.375,640.859,188.5417,650.234" style="stroke:#545454;stroke-width:1.5625;"/><text fill="#A0A0A0" font-family="Open Sans,Avenir,Nunito,Arial,Helvetica,SansSerif" font-size="12.5" font-weight="bold" lengthAdjust="spacing" textLength="126.0417" x="192.7083" y="612.6628">reports progress to</text></g></svg>
