<?xml version="1.0" encoding="UTF-8" standalone="no"?><svg xmlns="http://www.w3.org/2000/svg" xmlns:xlink="http://www.w3.org/1999/xlink" contentScriptType="application/ecmascript" contentStyleType="text/css" height="1331.25px" preserveAspectRatio="none" style="width:1005px;height:1331px;background:#333333;" version="1.1" viewBox="0 0 1005 1331" width="1005.2083px" zoomAndPan="magnify"><defs/><g><rect fill="#48494B" height="41.2028" rx="8.3333" ry="8.3333" style="stroke:#545454;stroke-width:1.0416666666666667;" width="160.4167" x="415.3646" y="2.0833"/><text fill="#C0C0C0" font-family="Open Sans,Avenir,Nunito,Arial,Helvetica,SansSerif" font-size="20.8333" lengthAdjust="spacing" textLength="137.5" x="426.8229" y="30.5583">diagram-logs</text><rect codeLine="7" fill="#282828" height="48.055" id="BaseColumnarFormatter" rx="8.3333" ry="8.3333" style="stroke:#5E5E5E;stroke-width:1.0416666666666667;" width="194.7917" x="99.4792" y="53.7028"/><rect fill="#1B1B1A" height="31.3883" rx="8.3333" ry="8.3333" style="stroke:#1B1B1A;stroke-width:1.0416666666666667;" width="194.7917" x="99.4792" y="53.7028"/><rect fill="#1B1B1A" height="8.3333" style="stroke:#1B1B1A;stroke-width:1.0416666666666667;" width="194.7917" x="99.4792" y="76.7578"/><rect codeLine="7" fill="none" height="48.055" id="BaseColumnarFormatter" rx="8.3333" ry="8.3333" style="stroke:#5E5E5E;stroke-width:1.0416666666666667;" width="194.7917" x="99.4792" y="53.7028"/><ellipse cx="114.0625" cy="69.397" fill="#C8AC00" rx="10.4167" ry="10.4167" style="stroke:#D8BC00;stroke-width:1.0416666666666667;"/><path d="M113.6556,66.099 L112.8072,69.8283 L114.5101,69.8283 Z M112.557,64.4511 L114.7603,64.4511 L117.2201,73.5636 L115.4195,73.5636 L114.858,71.3114 L112.4471,71.3114 L111.8978,73.5636 L110.0972,73.5636 Z " fill="#000000"/><text fill="#D8BC00" font-family="Open Sans,Avenir,Nunito,Arial,Helvetica,SansSerif" font-size="12.5" font-style="italic" font-weight="bold" lengthAdjust="spacing" textLength="157.2917" x="130.7292" y="74.1211">BaseColumnarFormatter</text><line style="stroke:#5E5E5E;stroke-width:1.0416666666666667;" x1="100.5208" x2="293.2292" y1="85.0911" y2="85.0911"/><line style="stroke:#5E5E5E;stroke-width:1.0416666666666667;" x1="100.5208" x2="293.2292" y1="93.4245" y2="93.4245"/><rect codeLine="46" fill="#282828" height="87.5448" id="BaseTextLog" rx="8.3333" ry="8.3333" style="stroke:#5E5E5E;stroke-width:1.0416666666666667;" width="196.875" x="508.8542" y="908.9111"/><rect fill="#1B1B1A" height="31.3883" rx="8.3333" ry="8.3333" style="stroke:#1B1B1A;stroke-width:1.0416666666666667;" width="196.875" x="508.8542" y="908.9111"/><rect fill="#1B1B1A" height="8.3333" style="stroke:#1B1B1A;stroke-width:1.0416666666666667;" width="196.875" x="508.8542" y="931.9661"/><rect codeLine="46" fill="none" height="87.5448" id="BaseTextLog" rx="8.3333" ry="8.3333" style="stroke:#5E5E5E;stroke-width:1.0416666666666667;" width="196.875" x="508.8542" y="908.9111"/><ellipse cx="558.8542" cy="924.6053" fill="#C8AC00" rx="10.4167" ry="10.4167" style="stroke:#D8BC00;stroke-width:1.0416666666666667;"/><path d="M558.4473,921.3074 L557.5989,925.0366 L559.3018,925.0366 Z M557.3486,919.6594 L559.552,919.6594 L562.0117,928.772 L560.2112,928.772 L559.6497,926.5198 L557.2388,926.5198 L556.6895,928.772 L554.8889,928.772 Z " fill="#000000"/><text fill="#D8BC00" font-family="Open Sans,Avenir,Nunito,Arial,Helvetica,SansSerif" font-size="12.5" font-style="italic" font-weight="bold" lengthAdjust="spacing" textLength="82.2917" x="581.7708" y="929.3294">BaseTextLog</text><line style="stroke:#5E5E5E;stroke-width:1.5625;" x1="509.8958" x2="704.6875" y1="940.2995" y2="940.2995"/><line style="stroke:#5E5E5E;stroke-width:1.0416666666666667;" x1="509.8958" x2="704.6875" y1="948.6328" y2="948.6328"/><ellipse cx="520.3125" cy="960.0911" fill="#84BE84" rx="3.125" ry="3.125" style="stroke:#038048;stroke-width:1.0416666666666667;"/><text fill="#D8BC00" font-family="Open Sans,Avenir,Nunito,Arial,Helvetica,SansSerif" font-size="11.4583" lengthAdjust="spacing" textLength="164.5833" x="531.7708" y="967.0024">void formatter(LogFormatter)</text><polygon fill="#FFFF44" points="520.3125,974.6277,524.4792,978.7944,520.3125,982.961,516.1458,978.7944" style="stroke:#B38D22;stroke-width:1.0416666666666667;"/><text fill="#D8BC00" font-family="Open Sans,Avenir,Nunito,Arial,Helvetica,SansSerif" font-size="11.4583" lengthAdjust="spacing" textLength="150" x="531.7708" y="986.7472">String formatted(LogEntry)</text><rect codeLine="19" fill="#282828" height="467.9525" id="BaseLog" rx="8.3333" ry="8.3333" style="stroke:#5E5E5E;stroke-width:1.0416666666666667;" width="276.0417" x="469.2708" y="377.6611"/><rect fill="#1B1B1A" height="31.3883" rx="8.3333" ry="8.3333" style="stroke:#1B1B1A;stroke-width:1.0416666666666667;" width="276.0417" x="469.2708" y="377.6611"/><rect fill="#1B1B1A" height="8.3333" style="stroke:#1B1B1A;stroke-width:1.0416666666666667;" width="276.0417" x="469.2708" y="400.7161"/><rect codeLine="19" fill="none" height="467.9525" id="BaseLog" rx="8.3333" ry="8.3333" style="stroke:#5E5E5E;stroke-width:1.0416666666666667;" width="276.0417" x="469.2708" y="377.6611"/><ellipse cx="572.9167" cy="393.3553" fill="#C8AC00" rx="10.4167" ry="10.4167" style="stroke:#D8BC00;stroke-width:1.0416666666666667;"/><path d="M572.5098,390.0574 L571.6614,393.7866 L573.3643,393.7866 Z M571.4111,388.4094 L573.6145,388.4094 L576.0742,397.522 L574.2737,397.522 L573.7122,395.2698 L571.3013,395.2698 L570.752,397.522 L568.9514,397.522 Z " fill="#000000"/><text fill="#D8BC00" font-family="Open Sans,Avenir,Nunito,Arial,Helvetica,SansSerif" font-size="12.5" font-style="italic" font-weight="bold" lengthAdjust="spacing" textLength="54.1667" x="595.8333" y="398.0794">BaseLog</text><line style="stroke:#5E5E5E;stroke-width:1.5625;" x1="470.3125" x2="744.2708" y1="409.0495" y2="409.0495"/><polygon fill="#FFFF44" points="480.7292,439.211,484.8958,443.3777,480.7292,447.5444,476.5625,443.3777" style="stroke:#B38D22;stroke-width:1.0416666666666667;"/><text fill="#D8BC00" font-family="Open Sans,Avenir,Nunito,Arial,Helvetica,SansSerif" font-size="11.4583" lengthAdjust="spacing" textLength="54.1667" x="492.1875" y="451.3306">BaseLog()</text><line style="stroke:#5E5E5E;stroke-width:1.0416666666666667;" x1="470.3125" x2="563.5417" y1="427.2552" y2="427.2552"/><text fill="#D8BC00" font-family="Open Sans,Avenir,Nunito,Arial,Helvetica,SansSerif" font-size="11.4583" lengthAdjust="spacing" textLength="81.25" x="566.6667" y="431.0649">(constructors)</text><line style="stroke:#5E5E5E;stroke-width:1.0416666666666667;" x1="651.0417" x2="744.2708" y1="427.2552" y2="427.2552"/><line style="stroke:#5E5E5E;stroke-width:1.0416666666666667;" x1="470.3125" x2="744.2708" y1="461.0392" y2="461.0392"/><ellipse cx="480.7292" cy="472.4976" fill="#84BE84" rx="3.125" ry="3.125" style="stroke:#038048;stroke-width:1.0416666666666667;"/><text fill="#D8BC00" font-family="Open Sans,Avenir,Nunito,Arial,Helvetica,SansSerif" font-size="11.4583" lengthAdjust="spacing" textLength="243.75" x="492.1875" y="479.4088">void asynchronous(boolean asynchronous)</text><polygon fill="#FFFF44" points="480.7292,487.0341,484.8958,491.2008,480.7292,495.3674,476.5625,491.2008" style="stroke:#B38D22;stroke-width:1.0416666666666667;"/><text fill="#D8BC00" font-family="Open Sans,Avenir,Nunito,Arial,Helvetica,SansSerif" font-size="11.4583" lengthAdjust="spacing" textLength="120.8333" x="492.1875" y="499.1536">void onLog(LogEntry)</text><polygon fill="#FFFF44" points="480.7292,506.779,484.8958,510.9456,480.7292,515.1123,476.5625,510.9456" style="stroke:#B38D22;stroke-width:1.0416666666666667;"/><text fill="#D8BC00" font-family="Open Sans,Avenir,Nunito,Arial,Helvetica,SansSerif" font-size="11.4583" lengthAdjust="spacing" textLength="62.5" x="492.1875" y="518.8985">int retries()</text><ellipse cx="480.7292" cy="555.6437" fill="#84BE84" rx="3.125" ry="3.125" style="stroke:#038048;stroke-width:1.0416666666666667;"/><text fill="#D8BC00" font-family="Open Sans,Avenir,Nunito,Arial,Helvetica,SansSerif" font-size="11.4583" lengthAdjust="spacing" textLength="147.9167" x="492.1875" y="562.5549">boolean isAsynchronous()</text><line style="stroke:#5E5E5E;stroke-width:1.0416666666666667;" x1="470.3125" x2="580.7292" y1="538.4796" y2="538.4796"/><text fill="#D8BC00" font-family="Open Sans,Avenir,Nunito,Arial,Helvetica,SansSerif" font-size="11.4583" lengthAdjust="spacing" textLength="46.875" x="583.8542" y="542.2892">(checks)</text><line style="stroke:#5E5E5E;stroke-width:1.0416666666666667;" x1="633.8542" x2="744.2708" y1="538.4796" y2="538.4796"/><ellipse cx="480.7292" cy="599.3001" fill="#84BE84" rx="3.125" ry="3.125" style="stroke:#038048;stroke-width:1.0416666666666667;"/><text fill="#D8BC00" font-family="Open Sans,Avenir,Nunito,Arial,Helvetica,SansSerif" font-size="11.4583" lengthAdjust="spacing" textLength="181.25" x="492.1875" y="606.2113">void addFilter(Filter&lt;LogEntry&gt;)</text><ellipse cx="480.7292" cy="619.045" fill="#84BE84" rx="3.125" ry="3.125" style="stroke:#038048;stroke-width:1.0416666666666667;"/><text fill="#D8BC00" font-family="Open Sans,Avenir,Nunito,Arial,Helvetica,SansSerif" font-size="11.4583" lengthAdjust="spacing" textLength="62.5" x="492.1875" y="625.9562">void clear()</text><ellipse cx="480.7292" cy="638.7899" fill="#84BE84" rx="3.125" ry="3.125" style="stroke:#038048;stroke-width:1.0416666666666667;"/><text fill="#D8BC00" font-family="Open Sans,Avenir,Nunito,Arial,Helvetica,SansSerif" font-size="11.4583" lengthAdjust="spacing" textLength="119.7917" x="492.1875" y="645.7011">List&lt;BaseLog&gt; logs()</text><ellipse cx="480.7292" cy="658.5347" fill="#84BE84" rx="3.125" ry="3.125" style="stroke:#038048;stroke-width:1.0416666666666667;"/><text fill="#D8BC00" font-family="Open Sans,Avenir,Nunito,Arial,Helvetica,SansSerif" font-size="11.4583" lengthAdjust="spacing" textLength="210.4167" x="492.1875" y="665.446">CountMap&lt;String&gt; messageCounts()</text><polygon fill="#FFFF44" points="480.7292,673.0713,484.8958,677.238,480.7292,681.4046,476.5625,677.238" style="stroke:#B38D22;stroke-width:1.0416666666666667;"/><text fill="#D8BC00" font-family="Open Sans,Avenir,Nunito,Arial,Helvetica,SansSerif" font-size="11.4583" lengthAdjust="spacing" textLength="82.2917" x="492.1875" y="685.1908">int queueSize()</text><line style="stroke:#5E5E5E;stroke-width:1.0416666666666667;" x1="470.3125" x2="572.9167" y1="582.136" y2="582.136"/><text fill="#D8BC00" font-family="Open Sans,Avenir,Nunito,Arial,Helvetica,SansSerif" font-size="11.4583" lengthAdjust="spacing" textLength="62.5" x="576.0417" y="585.9456">(collection)</text><line style="stroke:#5E5E5E;stroke-width:1.0416666666666667;" x1="641.6667" x2="744.2708" y1="582.136" y2="582.136"/><polygon fill="#FFFF44" points="480.7292,716.7277,484.8958,720.8944,480.7292,725.061,476.5625,720.8944" style="stroke:#B38D22;stroke-width:1.0416666666666667;"/><text fill="#D8BC00" font-family="Open Sans,Avenir,Nunito,Arial,Helvetica,SansSerif" font-size="11.4583" lengthAdjust="spacing" textLength="142.7083" x="492.1875" y="728.8472">boolean accept(LogEntry)</text><line style="stroke:#5E5E5E;stroke-width:1.0416666666666667;" x1="470.3125" x2="578.125" y1="704.7719" y2="704.7719"/><text fill="#D8BC00" font-family="Open Sans,Avenir,Nunito,Arial,Helvetica,SansSerif" font-size="11.4583" lengthAdjust="spacing" textLength="52.0833" x="581.25" y="708.5815">(filtering)</text><line style="stroke:#5E5E5E;stroke-width:1.0416666666666667;" x1="636.4583" x2="744.2708" y1="704.7719" y2="704.7719"/><ellipse cx="480.7292" cy="765.5924" fill="#84BE84" rx="3.125" ry="3.125" style="stroke:#038048;stroke-width:1.0416666666666667;"/><text fill="#D8BC00" font-family="Open Sans,Avenir,Nunito,Arial,Helvetica,SansSerif" font-size="11.4583" lengthAdjust="spacing" textLength="104.1667" x="492.1875" y="772.5037">void closeOutput()</text><ellipse cx="480.7292" cy="785.3373" fill="#84BE84" rx="3.125" ry="3.125" style="stroke:#038048;stroke-width:1.0416666666666667;"/><text fill="#D8BC00" font-family="Open Sans,Avenir,Nunito,Arial,Helvetica,SansSerif" font-size="11.4583" lengthAdjust="spacing" textLength="104.1667" x="492.1875" y="792.2485">boolean isClosed()</text><line style="stroke:#5E5E5E;stroke-width:1.0416666666666667;" x1="470.3125" x2="594.7917" y1="748.4283" y2="748.4283"/><text fill="#D8BC00" font-family="Open Sans,Avenir,Nunito,Arial,Helvetica,SansSerif" font-size="11.4583" lengthAdjust="spacing" textLength="18.75" x="597.9167" y="752.238">(io)</text><line style="stroke:#5E5E5E;stroke-width:1.0416666666666667;" x1="619.7917" x2="744.2708" y1="748.4283" y2="748.4283"/><polygon fill="#FFFF44" points="480.7292,823.7854,484.8958,827.9521,480.7292,832.1187,476.5625,827.9521" style="stroke:#B38D22;stroke-width:1.0416666666666667;"/><text fill="#D8BC00" font-family="Open Sans,Avenir,Nunito,Arial,Helvetica,SansSerif" font-size="11.4583" lengthAdjust="spacing" textLength="158.3333" x="492.1875" y="835.9049">void onLogFailure(LogEntry)</text><line style="stroke:#5E5E5E;stroke-width:1.0416666666666667;" x1="470.3125" x2="582.8125" y1="811.8296" y2="811.8296"/><text fill="#D8BC00" font-family="Open Sans,Avenir,Nunito,Arial,Helvetica,SansSerif" font-size="11.4583" lengthAdjust="spacing" textLength="42.7083" x="585.9375" y="815.6392">(status)</text><line style="stroke:#5E5E5E;stroke-width:1.0416666666666667;" x1="631.7708" x2="744.2708" y1="811.8296" y2="811.8296"/><rect codeLine="11" fill="#282828" height="48.055" id="Startable" rx="8.3333" ry="8.3333" style="stroke:#5E5E5E;stroke-width:1.0416666666666667;" width="94.7917" x="424.4792" y="204.7445"/><rect fill="#1B1B1A" height="31.3883" rx="8.3333" ry="8.3333" style="stroke:#1B1B1A;stroke-width:1.0416666666666667;" width="94.7917" x="424.4792" y="204.7445"/><rect fill="#1B1B1A" height="8.3333" style="stroke:#1B1B1A;stroke-width:1.0416666666666667;" width="94.7917" x="424.4792" y="227.7995"/><rect codeLine="11" fill="none" height="48.055" id="Startable" rx="8.3333" ry="8.3333" style="stroke:#5E5E5E;stroke-width:1.0416666666666667;" width="94.7917" x="424.4792" y="204.7445"/><ellipse cx="439.0625" cy="220.4386" fill="#008400" rx="10.4167" ry="10.4167" style="stroke:#239C23;stroke-width:1.0416666666666667;"/><path d="M436.4665,217.6005 L436.4665,216.0136 L441.8925,216.0136 L441.8925,217.6005 L440.0798,217.6005 L440.0798,223.5392 L441.8925,223.5392 L441.8925,225.1261 L436.4665,225.1261 L436.4665,223.5392 L438.2792,223.5392 L438.2792,217.6005 Z " fill="#000000"/><text fill="#D8BC00" font-family="Open Sans,Avenir,Nunito,Arial,Helvetica,SansSerif" font-size="12.5" font-style="italic" font-weight="bold" lengthAdjust="spacing" textLength="57.2917" x="455.7292" y="225.1628">Startable</text><line style="stroke:#5E5E5E;stroke-width:1.0416666666666667;" x1="425.5208" x2="518.2292" y1="236.1328" y2="236.1328"/><line style="stroke:#5E5E5E;stroke-width:1.0416666666666667;" x1="425.5208" x2="518.2292" y1="244.4661" y2="244.4661"/><rect codeLine="63" fill="#282828" height="127.0345" id="Log" rx="8.3333" ry="8.3333" style="stroke:#5E5E5E;stroke-width:1.0416666666666667;" width="303.125" x="695.3125" y="165.1611"/><rect fill="#1B1B1A" height="31.3883" rx="8.3333" ry="8.3333" style="stroke:#1B1B1A;stroke-width:1.0416666666666667;" width="303.125" x="695.3125" y="165.1611"/><rect fill="#1B1B1A" height="8.3333" style="stroke:#1B1B1A;stroke-width:1.0416666666666667;" width="303.125" x="695.3125" y="188.2161"/><rect codeLine="63" fill="none" height="127.0345" id="Log" rx="8.3333" ry="8.3333" style="stroke:#5E5E5E;stroke-width:1.0416666666666667;" width="303.125" x="695.3125" y="165.1611"/><ellipse cx="827.6042" cy="180.8553" fill="#008400" rx="10.4167" ry="10.4167" style="stroke:#239C23;stroke-width:1.0416666666666667;"/><path d="M825.0081,178.0172 L825.0081,176.4303 L830.4342,176.4303 L830.4342,178.0172 L828.6214,178.0172 L828.6214,183.9559 L830.4342,183.9559 L830.4342,185.5428 L825.0081,185.5428 L825.0081,183.9559 L826.8209,183.9559 L826.8209,178.0172 Z " fill="#000000"/><text fill="#D8BC00" font-family="Open Sans,Avenir,Nunito,Arial,Helvetica,SansSerif" font-size="12.5" font-style="italic" font-weight="bold" lengthAdjust="spacing" textLength="23.9583" x="850.5208" y="185.5794">Log</text><line style="stroke:#5E5E5E;stroke-width:1.5625;" x1="696.3542" x2="997.3958" y1="196.5495" y2="196.5495"/><line style="stroke:#5E5E5E;stroke-width:1.0416666666666667;" x1="696.3542" x2="997.3958" y1="204.8828" y2="204.8828"/><ellipse cx="706.7708" cy="216.3411" fill="#84BE84" rx="3.125" ry="3.125" style="stroke:#038048;stroke-width:1.0416666666666667;"/><text fill="#D8BC00" font-family="Open Sans,Avenir,Nunito,Arial,Helvetica,SansSerif" font-size="11.4583" lengthAdjust="spacing" textLength="270.8333" x="718.2292" y="223.2524">void configure(VariableMap&lt;String&gt; properties)</text><ellipse cx="706.7708" cy="236.086" fill="#84BE84" rx="3.125" ry="3.125" style="stroke:#038048;stroke-width:1.0416666666666667;"/><text fill="#D8BC00" font-family="Open Sans,Avenir,Nunito,Arial,Helvetica,SansSerif" font-size="11.4583" lengthAdjust="spacing" textLength="168.75" x="718.2292" y="242.9972">void level(Class&lt;T&gt; message)</text><ellipse cx="706.7708" cy="255.8309" fill="#84BE84" rx="3.125" ry="3.125" style="stroke:#038048;stroke-width:1.0416666666666667;"/><text fill="#D8BC00" font-family="Open Sans,Avenir,Nunito,Arial,Helvetica,SansSerif" font-size="11.4583" lengthAdjust="spacing" textLength="104.1667" x="718.2292" y="262.7421">void level(Severity)</text><ellipse cx="706.7708" cy="275.5758" fill="#84BE84" rx="3.125" ry="3.125" style="stroke:#038048;stroke-width:1.0416666666666667;"/><text fill="#D8BC00" font-family="Open Sans,Avenir,Nunito,Arial,Helvetica,SansSerif" font-size="11.4583" lengthAdjust="spacing" textLength="103.125" x="718.2292" y="282.487">void log(LogEntry)</text><rect codeLine="72" fill="#282828" height="131.2012" id="LogFormatter" rx="8.3333" ry="8.3333" style="stroke:#5E5E5E;stroke-width:1.0416666666666667;" width="314.5833" x="323.9583" y="1081.8278"/><rect fill="#1B1B1A" height="31.3883" rx="8.3333" ry="8.3333" style="stroke:#1B1B1A;stroke-width:1.0416666666666667;" width="314.5833" x="323.9583" y="1081.8278"/><rect fill="#1B1B1A" height="8.3333" style="stroke:#1B1B1A;stroke-width:1.0416666666666667;" width="314.5833" x="323.9583" y="1104.8828"/><rect codeLine="72" fill="none" height="131.2012" id="LogFormatter" rx="8.3333" ry="8.3333" style="stroke:#5E5E5E;stroke-width:1.0416666666666667;" width="314.5833" x="323.9583" y="1081.8278"/><ellipse cx="430.2083" cy="1097.522" fill="#008400" rx="10.4167" ry="10.4167" style="stroke:#239C23;stroke-width:1.0416666666666667;"/><path d="M427.6123,1094.6838 L427.6123,1093.0969 L433.0383,1093.0969 L433.0383,1094.6838 L431.2256,1094.6838 L431.2256,1100.6226 L433.0383,1100.6226 L433.0383,1102.2095 L427.6123,1102.2095 L427.6123,1100.6226 L429.425,1100.6226 L429.425,1094.6838 Z " fill="#000000"/><text fill="#D8BC00" font-family="Open Sans,Avenir,Nunito,Arial,Helvetica,SansSerif" font-size="12.5" font-style="italic" font-weight="bold" lengthAdjust="spacing" textLength="87.5" x="453.125" y="1102.2461">LogFormatter</text><line style="stroke:#5E5E5E;stroke-width:1.5625;" x1="325" x2="637.5" y1="1113.2161" y2="1113.2161"/><line style="stroke:#5E5E5E;stroke-width:1.0416666666666667;" x1="325" x2="637.5" y1="1121.5495" y2="1121.5495"/><ellipse cx="335.4167" cy="1133.0078" fill="#84BE84" rx="3.125" ry="3.125" style="stroke:#038048;stroke-width:1.0416666666666667;"/><text fill="#D8BC00" font-family="Open Sans,Avenir,Nunito,Arial,Helvetica,SansSerif" font-size="11.4583" lengthAdjust="spacing" textLength="282.2917" x="346.875" y="1139.919">String format(LogEntry, MessageFormat... formats)</text><ellipse cx="335.4167" cy="1152.7527" fill="#84BE84" rx="3.125" ry="3.125" style="stroke:#038048;stroke-width:1.0416666666666667;"/><text fill="#D8BC00" font-family="Open Sans,Avenir,Nunito,Arial,Helvetica,SansSerif" font-size="11.4583" lengthAdjust="spacing" textLength="160.4167" x="346.875" y="1159.6639">LogFormatter logFormatter()</text><ellipse cx="335.4167" cy="1196.4091" fill="#84BE84" rx="3.125" ry="3.125" style="stroke:#038048;stroke-width:1.0416666666666667;"/><text fill="#D8BC00" font-family="Open Sans,Avenir,Nunito,Arial,Helvetica,SansSerif" font-size="11.4583" lengthAdjust="spacing" textLength="156.25" x="346.875" y="1203.3203">int maximumColumnWidth()</text><line style="stroke:#5E5E5E;stroke-width:1.0416666666666667;" x1="325" x2="459.8958" y1="1179.245" y2="1179.245"/><text fill="#D8BC00" font-family="Open Sans,Avenir,Nunito,Arial,Helvetica,SansSerif" font-size="11.4583" lengthAdjust="spacing" textLength="36.4583" x="463.0208" y="1183.0546">(math)</text><line style="stroke:#5E5E5E;stroke-width:1.0416666666666667;" x1="502.6042" x2="637.5" y1="1179.245" y2="1179.245"/><rect codeLine="14" fill="#282828" height="48.055" id="Stoppable" rx="8.3333" ry="8.3333" style="stroke:#5E5E5E;stroke-width:1.0416666666666667;" width="102.0833" x="556.25" y="204.7445"/><rect fill="#1B1B1A" height="31.3883" rx="8.3333" ry="8.3333" style="stroke:#1B1B1A;stroke-width:1.0416666666666667;" width="102.0833" x="556.25" y="204.7445"/><rect fill="#1B1B1A" height="8.3333" style="stroke:#1B1B1A;stroke-width:1.0416666666666667;" width="102.0833" x="556.25" y="227.7995"/><rect codeLine="14" fill="none" height="48.055" id="Stoppable" rx="8.3333" ry="8.3333" style="stroke:#5E5E5E;stroke-width:1.0416666666666667;" width="102.0833" x="556.25" y="204.7445"/><ellipse cx="570.8333" cy="220.4386" fill="#008400" rx="10.4167" ry="10.4167" style="stroke:#239C23;stroke-width:1.0416666666666667;"/><path d="M568.2373,217.6005 L568.2373,216.0136 L573.6633,216.0136 L573.6633,217.6005 L571.8506,217.6005 L571.8506,223.5392 L573.6633,223.5392 L573.6633,225.1261 L568.2373,225.1261 L568.2373,223.5392 L570.05,223.5392 L570.05,217.6005 Z " fill="#000000"/><text fill="#D8BC00" font-family="Open Sans,Avenir,Nunito,Arial,Helvetica,SansSerif" font-size="12.5" font-style="italic" font-weight="bold" lengthAdjust="spacing" textLength="64.5833" x="587.5" y="225.1628">Stoppable</text><line style="stroke:#5E5E5E;stroke-width:1.0416666666666667;" x1="557.2917" x2="657.2917" y1="236.1328" y2="236.1328"/><line style="stroke:#5E5E5E;stroke-width:1.0416666666666667;" x1="557.2917" x2="657.2917" y1="244.4661" y2="244.4661"/><rect codeLine="54" fill="#282828" height="48.055" id="ConsoleLog" rx="8.3333" ry="8.3333" style="stroke:#5E5E5E;stroke-width:1.0416666666666667;" width="114.5833" x="675" y="1123.4945"/><rect fill="#1B1B1A" height="31.3883" rx="8.3333" ry="8.3333" style="stroke:#1B1B1A;stroke-width:1.0416666666666667;" width="114.5833" x="675" y="1123.4945"/><rect fill="#1B1B1A" height="8.3333" style="stroke:#1B1B1A;stroke-width:1.0416666666666667;" width="114.5833" x="675" y="1146.5495"/><rect codeLine="54" fill="none" height="48.055" id="ConsoleLog" rx="8.3333" ry="8.3333" style="stroke:#5E5E5E;stroke-width:1.0416666666666667;" width="114.5833" x="675" y="1123.4945"/><ellipse cx="689.5833" cy="1139.1886" fill="#0066CF" rx="10.4167" ry="10.4167" style="stroke:#0086EF;stroke-width:1.0416666666666667;"/><path d="M691.4937,1143.6137 Q691.0665,1143.8334 690.5965,1143.9433 Q690.1265,1144.0531 689.6077,1144.0531 Q687.7645,1144.0531 686.794,1142.8385 Q685.8236,1141.6239 685.8236,1139.329 Q685.8236,1137.028 686.794,1135.8134 Q687.7645,1134.5988 689.6077,1134.5988 Q690.1265,1134.5988 690.6026,1134.7087 Q691.0787,1134.8185 691.4937,1135.0382 L691.4937,1137.0402 Q691.0299,1136.613 690.5935,1136.4146 Q690.1571,1136.2162 689.6932,1136.2162 Q688.7044,1136.2162 688.2009,1137.0005 Q687.6973,1137.7848 687.6973,1139.329 Q687.6973,1140.8671 688.2009,1141.6514 Q688.7044,1142.4357 689.6932,1142.4357 Q690.1571,1142.4357 690.5935,1142.2373 Q691.0299,1142.039 691.4937,1141.6117 Z " fill="#000000"/><text fill="#D8BC00" font-family="Open Sans,Avenir,Nunito,Arial,Helvetica,SansSerif" font-size="12.5" font-weight="bold" lengthAdjust="spacing" textLength="77.0833" x="706.25" y="1143.9128">ConsoleLog</text><line style="stroke:#5E5E5E;stroke-width:1.0416666666666667;" x1="676.0417" x2="788.5417" y1="1154.8828" y2="1154.8828"/><line style="stroke:#5E5E5E;stroke-width:1.0416666666666667;" x1="676.0417" x2="788.5417" y1="1163.2161" y2="1163.2161"/><rect codeLine="58" fill="#282828" height="48.055" id="Closeable" rx="8.3333" ry="8.3333" style="stroke:#5E5E5E;stroke-width:1.0416666666666667;" width="101.0417" x="730.7292" y="53.7028"/><rect fill="#1B1B1A" height="31.3883" rx="8.3333" ry="8.3333" style="stroke:#1B1B1A;stroke-width:1.0416666666666667;" width="101.0417" x="730.7292" y="53.7028"/><rect fill="#1B1B1A" height="8.3333" style="stroke:#1B1B1A;stroke-width:1.0416666666666667;" width="101.0417" x="730.7292" y="76.7578"/><rect codeLine="58" fill="none" height="48.055" id="Closeable" rx="8.3333" ry="8.3333" style="stroke:#5E5E5E;stroke-width:1.0416666666666667;" width="101.0417" x="730.7292" y="53.7028"/><ellipse cx="745.3125" cy="69.397" fill="#008400" rx="10.4167" ry="10.4167" style="stroke:#239C23;stroke-width:1.0416666666666667;"/><path d="M742.7165,66.5588 L742.7165,64.9719 L748.1425,64.9719 L748.1425,66.5588 L746.3298,66.5588 L746.3298,72.4976 L748.1425,72.4976 L748.1425,74.0845 L742.7165,74.0845 L742.7165,72.4976 L744.5292,72.4976 L744.5292,66.5588 Z " fill="#000000"/><text fill="#D8BC00" font-family="Open Sans,Avenir,Nunito,Arial,Helvetica,SansSerif" font-size="12.5" font-style="italic" font-weight="bold" lengthAdjust="spacing" textLength="63.5417" x="761.9792" y="74.1211">Closeable</text><line style="stroke:#5E5E5E;stroke-width:1.0416666666666667;" x1="731.7708" x2="830.7292" y1="85.0911" y2="85.0911"/><line style="stroke:#5E5E5E;stroke-width:1.0416666666666667;" x1="731.7708" x2="830.7292" y1="93.4245" y2="93.4245"/><rect codeLine="59" fill="#282828" height="48.055" id="Filtered" rx="8.3333" ry="8.3333" style="stroke:#5E5E5E;stroke-width:1.0416666666666667;" width="86.4583" x="868.2292" y="53.7028"/><rect fill="#1B1B1A" height="31.3883" rx="8.3333" ry="8.3333" style="stroke:#1B1B1A;stroke-width:1.0416666666666667;" width="86.4583" x="868.2292" y="53.7028"/><rect fill="#1B1B1A" height="8.3333" style="stroke:#1B1B1A;stroke-width:1.0416666666666667;" width="86.4583" x="868.2292" y="76.7578"/><rect codeLine="59" fill="none" height="48.055" id="Filtered" rx="8.3333" ry="8.3333" style="stroke:#5E5E5E;stroke-width:1.0416666666666667;" width="86.4583" x="868.2292" y="53.7028"/><ellipse cx="882.8125" cy="69.397" fill="#008400" rx="10.4167" ry="10.4167" style="stroke:#239C23;stroke-width:1.0416666666666667;"/><path d="M880.2165,66.5588 L880.2165,64.9719 L885.6425,64.9719 L885.6425,66.5588 L883.8298,66.5588 L883.8298,72.4976 L885.6425,72.4976 L885.6425,74.0845 L880.2165,74.0845 L880.2165,72.4976 L882.0292,72.4976 L882.0292,66.5588 Z " fill="#000000"/><text fill="#D8BC00" font-family="Open Sans,Avenir,Nunito,Arial,Helvetica,SansSerif" font-size="12.5" font-style="italic" font-weight="bold" lengthAdjust="spacing" textLength="48.9583" x="899.4792" y="74.1211">Filtered</text><line style="stroke:#5E5E5E;stroke-width:1.0416666666666667;" x1="869.2708" x2="953.6458" y1="85.0911" y2="85.0911"/><line style="stroke:#5E5E5E;stroke-width:1.0416666666666667;" x1="869.2708" x2="953.6458" y1="93.4245" y2="93.4245"/><rect fill="#282828" height="48.055" id="LogEntry" rx="8.3333" ry="8.3333" style="stroke:#5E5E5E;stroke-width:1.0416666666666667;" width="94.7917" x="799.4792" y="587.557"/><rect fill="#1B1B1A" height="31.3883" rx="8.3333" ry="8.3333" style="stroke:#1B1B1A;stroke-width:1.0416666666666667;" width="94.7917" x="799.4792" y="587.557"/><rect fill="#1B1B1A" height="8.3333" style="stroke:#1B1B1A;stroke-width:1.0416666666666667;" width="94.7917" x="799.4792" y="610.612"/><rect fill="none" height="48.055" id="LogEntry" rx="8.3333" ry="8.3333" style="stroke:#5E5E5E;stroke-width:1.0416666666666667;" width="94.7917" x="799.4792" y="587.557"/><ellipse cx="814.0625" cy="603.2511" fill="#0066CF" rx="10.4167" ry="10.4167" style="stroke:#0086EF;stroke-width:1.0416666666666667;"/><path d="M815.9729,607.6762 Q815.5457,607.8959 815.0757,608.0058 Q814.6057,608.1156 814.0869,608.1156 Q812.2437,608.1156 811.2732,606.901 Q810.3027,605.6864 810.3027,603.3915 Q810.3027,601.0905 811.2732,599.8759 Q812.2437,598.6613 814.0869,598.6613 Q814.6057,598.6613 815.0818,598.7712 Q815.5579,598.881 815.9729,599.1007 L815.9729,601.1027 Q815.509,600.6755 815.0726,600.4771 Q814.6362,600.2787 814.1724,600.2787 Q813.1836,600.2787 812.6801,601.063 Q812.1765,601.8473 812.1765,603.3915 Q812.1765,604.9296 812.6801,605.7139 Q813.1836,606.4982 814.1724,606.4982 Q814.6362,606.4982 815.0726,606.2998 Q815.509,606.1015 815.9729,605.6742 Z " fill="#000000"/><text fill="#D8BC00" font-family="Open Sans,Avenir,Nunito,Arial,Helvetica,SansSerif" font-size="12.5" font-weight="bold" lengthAdjust="spacing" textLength="57.2917" x="830.7292" y="607.9753">LogEntry</text><line style="stroke:#5E5E5E;stroke-width:1.0416666666666667;" x1="800.5208" x2="893.2292" y1="618.9453" y2="618.9453"/><line style="stroke:#5E5E5E;stroke-width:1.0416666666666667;" x1="800.5208" x2="893.2292" y1="627.2786" y2="627.2786"/><rect codeLine="82" fill="#282828" height="48.055" id="NarrowLogFormatter" rx="8.3333" ry="8.3333" style="stroke:#5E5E5E;stroke-width:1.0416666666666667;" width="170.8333" x="7.2917" y="204.7445"/><rect fill="#1B1B1A" height="31.3883" rx="8.3333" ry="8.3333" style="stroke:#1B1B1A;stroke-width:1.0416666666666667;" width="170.8333" x="7.2917" y="204.7445"/><rect fill="#1B1B1A" height="8.3333" style="stroke:#1B1B1A;stroke-width:1.0416666666666667;" width="170.8333" x="7.2917" y="227.7995"/><rect codeLine="82" fill="none" height="48.055" id="NarrowLogFormatter" rx="8.3333" ry="8.3333" style="stroke:#5E5E5E;stroke-width:1.0416666666666667;" width="170.8333" x="7.2917" y="204.7445"/><ellipse cx="21.875" cy="220.4386" fill="#0066CF" rx="10.4167" ry="10.4167" style="stroke:#0086EF;stroke-width:1.0416666666666667;"/><path d="M23.7854,224.8637 Q23.3582,225.0834 22.8882,225.1933 Q22.4182,225.3031 21.8994,225.3031 Q20.0562,225.3031 19.0857,224.0885 Q18.1152,222.8739 18.1152,220.579 Q18.1152,218.278 19.0857,217.0634 Q20.0562,215.8488 21.8994,215.8488 Q22.4182,215.8488 22.8943,215.9587 Q23.3704,216.0685 23.7854,216.2882 L23.7854,218.2902 Q23.3215,217.863 22.8851,217.6646 Q22.4487,217.4662 21.9849,217.4662 Q20.9961,217.4662 20.4926,218.2505 Q19.989,219.0348 19.989,220.579 Q19.989,222.1171 20.4926,222.9014 Q20.9961,223.6857 21.9849,223.6857 Q22.4487,223.6857 22.8851,223.4873 Q23.3215,223.289 23.7854,222.8617 Z " fill="#000000"/><text fill="#D8BC00" font-family="Open Sans,Avenir,Nunito,Arial,Helvetica,SansSerif" font-size="12.5" font-weight="bold" lengthAdjust="spacing" textLength="133.3333" x="38.5417" y="225.1628">NarrowLogFormatter</text><line style="stroke:#5E5E5E;stroke-width:1.0416666666666667;" x1="8.3333" x2="177.0833" y1="236.1328" y2="236.1328"/><line style="stroke:#5E5E5E;stroke-width:1.0416666666666667;" x1="8.3333" x2="177.0833" y1="244.4661" y2="244.4661"/><rect codeLine="87" fill="#282828" height="48.055" id="SimpleLogFormatter" rx="8.3333" ry="8.3333" style="stroke:#5E5E5E;stroke-width:1.0416666666666667;" width="168.75" x="396.875" y="1276.6195"/><rect fill="#1B1B1A" height="31.3883" rx="8.3333" ry="8.3333" style="stroke:#1B1B1A;stroke-width:1.0416666666666667;" width="168.75" x="396.875" y="1276.6195"/><rect fill="#1B1B1A" height="8.3333" style="stroke:#1B1B1A;stroke-width:1.0416666666666667;" width="168.75" x="396.875" y="1299.6745"/><rect codeLine="87" fill="none" height="48.055" id="SimpleLogFormatter" rx="8.3333" ry="8.3333" style="stroke:#5E5E5E;stroke-width:1.0416666666666667;" width="168.75" x="396.875" y="1276.6195"/><ellipse cx="411.4583" cy="1292.3136" fill="#0066CF" rx="10.4167" ry="10.4167" style="stroke:#0086EF;stroke-width:1.0416666666666667;"/><path d="M413.3687,1296.7387 Q412.9415,1296.9584 412.4715,1297.0683 Q412.0015,1297.1781 411.4827,1297.1781 Q409.6395,1297.1781 408.669,1295.9635 Q407.6986,1294.7489 407.6986,1292.454 Q407.6986,1290.153 408.669,1288.9384 Q409.6395,1287.7238 411.4827,1287.7238 Q412.0015,1287.7238 412.4776,1287.8337 Q412.9537,1287.9435 413.3687,1288.1632 L413.3687,1290.1652 Q412.9049,1289.738 412.4685,1289.5396 Q412.0321,1289.3412 411.5682,1289.3412 Q410.5794,1289.3412 410.0759,1290.1255 Q409.5723,1290.9098 409.5723,1292.454 Q409.5723,1293.9921 410.0759,1294.7764 Q410.5794,1295.5607 411.5682,1295.5607 Q412.0321,1295.5607 412.4685,1295.3623 Q412.9049,1295.164 413.3687,1294.7367 Z " fill="#000000"/><text fill="#D8BC00" font-family="Open Sans,Avenir,Nunito,Arial,Helvetica,SansSerif" font-size="12.5" font-weight="bold" lengthAdjust="spacing" textLength="131.25" x="428.125" y="1297.0378">SimpleLogFormatter</text><line style="stroke:#5E5E5E;stroke-width:1.0416666666666667;" x1="397.9167" x2="564.5833" y1="1308.0078" y2="1308.0078"/><line style="stroke:#5E5E5E;stroke-width:1.0416666666666667;" x1="397.9167" x2="564.5833" y1="1316.3411" y2="1316.3411"/><rect codeLine="92" fill="#282828" height="83.3781" id="WideLogFormatter" rx="8.3333" ry="8.3333" style="stroke:#5E5E5E;stroke-width:1.0416666666666667;" width="172.9167" x="214.5833" y="187.0361"/><rect fill="#1B1B1A" height="31.3883" rx="8.3333" ry="8.3333" style="stroke:#1B1B1A;stroke-width:1.0416666666666667;" width="172.9167" x="214.5833" y="187.0361"/><rect fill="#1B1B1A" height="8.3333" style="stroke:#1B1B1A;stroke-width:1.0416666666666667;" width="172.9167" x="214.5833" y="210.0911"/><rect codeLine="92" fill="none" height="83.3781" id="WideLogFormatter" rx="8.3333" ry="8.3333" style="stroke:#5E5E5E;stroke-width:1.0416666666666667;" width="172.9167" x="214.5833" y="187.0361"/><ellipse cx="236.6667" cy="202.7303" fill="#0066CF" rx="10.4167" ry="10.4167" style="stroke:#0086EF;stroke-width:1.0416666666666667;"/><path d="M238.5771,207.1554 Q238.1498,207.3751 237.6799,207.4849 Q237.2099,207.5948 236.6911,207.5948 Q234.8478,207.5948 233.8774,206.3802 Q232.9069,205.1656 232.9069,202.8707 Q232.9069,200.5697 233.8774,199.3551 Q234.8478,198.1405 236.6911,198.1405 Q237.2099,198.1405 237.686,198.2503 Q238.162,198.3602 238.5771,198.5799 L238.5771,200.5819 Q238.1132,200.1546 237.6768,199.9563 Q237.2404,199.7579 236.7765,199.7579 Q235.7878,199.7579 235.2842,200.5422 Q234.7807,201.3265 234.7807,202.8707 Q234.7807,204.4088 235.2842,205.1931 Q235.7878,205.9774 236.7765,205.9774 Q237.2404,205.9774 237.6768,205.779 Q238.1132,205.5806 238.5771,205.1534 Z " fill="#000000"/><text fill="#D8BC00" font-family="Open Sans,Avenir,Nunito,Arial,Helvetica,SansSerif" font-size="12.5" font-weight="bold" lengthAdjust="spacing" textLength="118.75" x="255" y="207.4544">WideLogFormatter</text><line style="stroke:#5E5E5E;stroke-width:1.5625;" x1="215.625" x2="386.4583" y1="218.4245" y2="218.4245"/><ellipse cx="226.0417" cy="253.7944" fill="#84BE84" rx="3.125" ry="3.125" style="stroke:#038048;stroke-width:1.0416666666666667;"/><text fill="#D8BC00" font-family="Open Sans,Avenir,Nunito,Arial,Helvetica,SansSerif" font-size="11.4583" lengthAdjust="spacing" textLength="140.625" x="237.5" y="260.7056">void timeType(TimeType)</text><line style="stroke:#5E5E5E;stroke-width:1.0416666666666667;" x1="215.625" x2="281.7708" y1="236.6302" y2="236.6302"/><text fill="#D8BC00" font-family="Open Sans,Avenir,Nunito,Arial,Helvetica,SansSerif" font-size="11.4583" lengthAdjust="spacing" textLength="32.2917" x="284.8958" y="240.4399">(time)</text><line style="stroke:#5E5E5E;stroke-width:1.0416666666666667;" x1="320.3125" x2="386.4583" y1="236.6302" y2="236.6302"/><path codeLine="16" d="M487.0833,272.4945 C496.7292,299.6195 510.0521,337.0882 524.3333,377.2445 " fill="none" id="Startable-backto-BaseLog" style="stroke:#545454;stroke-width:1.5625;"/><polygon fill="none" points="480.1563,274.7757,480.0417,252.7028,493.8958,269.8903,480.1563,274.7757" style="stroke:#545454;stroke-width:1.5625;"/><path codeLine="17" d="M607.2917,273.7132 C607.2917,300.734 607.2917,337.682 607.2917,377.2445 " fill="none" id="Stoppable-backto-BaseLog" style="stroke:#545454;stroke-width:1.5625;"/><polygon fill="none" points="600,273.5361,607.2917,252.7028,614.5833,273.5361,600,273.5361" style="stroke:#545454;stroke-width:1.5625;"/><path codeLine="18" d="M796.1667,310.3278 C780.9896,334.4528 763.5521,362.1507 745.5521,390.7653 " fill="none" id="Log-backto-BaseLog" style="stroke:#545454;stroke-width:1.5625;"/><polygon fill="none" points="790.0417,306.359,807.3125,292.609,802.3854,314.1299,790.0417,306.359" style="stroke:#545454;stroke-width:1.5625;"/><path codeLine="44" d="M607.2917,866.807 C607.2917,882.3278 607.2917,896.5674 607.2917,908.7757 " fill="none" id="BaseLog-backto-BaseTextLog" style="stroke:#545454;stroke-width:1.5625;"/><polygon fill="none" points="600,866.5674,607.2917,845.734,614.5833,866.5674,600,866.5674" style="stroke:#545454;stroke-width:1.5625;"/><path codeLine="45" d="M552.0417,996.4736 C542.1146,1005.9632 532.5417,1016.5361 525,1027.6611 C515,1042.4111 506.9479,1059.734 500.6042,1076.5257 " fill="none" id="BaseTextLog-to-LogFormatter" style="stroke:#545454;stroke-width:1.5625;"/><polygon fill="#545454" points="498.6875,1081.7132,505.8341,1074.3527,500.4853,1076.825,498.013,1071.4762,498.6875,1081.7132" style="stroke:#545454;stroke-width:1.5625;"/><text fill="#A0A0A0" font-family="Open Sans,Avenir,Nunito,Arial,Helvetica,SansSerif" font-size="12.5" font-weight="bold" lengthAdjust="spacing" textLength="132.2917" x="529.1667" y="1043.9128">formats entries with</text><path codeLine="53" d="M663.0833,1012.8174 C666.9271,1017.7132 670.5938,1022.6924 673.9583,1027.6611 C694.9479,1058.6611 712.8542,1098.3278 723.1042,1123.057 " fill="none" id="BaseTextLog-backto-ConsoleLog" style="stroke:#545454;stroke-width:1.5625;"/><polygon fill="none" points="657.3229,1017.307,649.5938,996.6299,668.5313,1007.9736,657.3229,1017.307" style="stroke:#545454;stroke-width:1.5625;"/><path codeLine="60" d="M893.1979,120.807 C887.2396,134.5674 880.4792,150.1611 874,165.0986 " fill="none" id="Filtered-backto-Log" style="stroke:#545454;stroke-width:1.5625;"/><polygon fill="none" points="886.5313,117.8695,901.5104,101.6507,899.9063,123.6611,886.5313,117.8695" style="stroke:#545454;stroke-width:1.5625;"/><path codeLine="61" d="M799.8021,120.807 C805.8646,134.5674 812.7292,150.1611 819.3125,165.0986 " fill="none" id="Closeable-backto-Log" style="stroke:#545454;stroke-width:1.5625;"/><polygon fill="none" points="793.0833,123.6611,791.3646,101.6507,806.4271,117.7757,793.0833,123.6611" style="stroke:#545454;stroke-width:1.5625;"/><path codeLine="62" d="M846.875,292.609 C846.875,376.4632 846.875,521.4007 846.875,582.2653 " fill="none" id="Log-to-LogEntry" style="stroke:#545454;stroke-width:1.5625;"/><polygon fill="#545454" points="846.875,587.5465,851.0417,578.1715,846.875,582.3382,842.7083,578.1715,846.875,587.5465" style="stroke:#545454;stroke-width:1.5625;"/><text fill="#A0A0A0" font-family="Open Sans,Avenir,Nunito,Arial,Helvetica,SansSerif" font-size="12.5" font-weight="bold" lengthAdjust="spacing" textLength="28.125" x="851.0417" y="339.7461">logs</text><path codeLine="81" d="M168.625,119.0986 C149.4896,146.4632 124.875,181.6611 108.9479,204.4424 " fill="none" id="BaseColumnarFormatter-backto-NarrowLogFormatter" style="stroke:#545454;stroke-width:1.5625;"/><polygon fill="none" points="162.9167,114.5465,180.8229,101.6507,174.8646,122.9007,162.9167,114.5465" style="stroke:#545454;stroke-width:1.5625;"/><path codeLine="86" d="M481.25,1234.2757 C481.25,1249.7653 481.25,1264.6611 481.25,1276.307 " fill="none" id="LogFormatter-backto-SimpleLogFormatter" style="stroke:#545454;stroke-width:1.5625;"/><polygon fill="none" points="473.9583,1234.2549,481.25,1213.4215,488.5417,1234.2549,473.9583,1234.2549" style="stroke:#545454;stroke-width:1.5625;"/><path codeLine="91" d="M224.8854,118.7653 C239.6667,139.8903 257.75,165.7549 272.5938,186.9736 " fill="none" id="BaseColumnarFormatter-backto-WideLogFormatter" style="stroke:#545454;stroke-width:1.5625;"/><polygon fill="none" points="218.8854,122.9007,212.9271,101.6507,230.8333,114.5465,218.8854,122.9007" style="stroke:#545454;stroke-width:1.5625;"/></g></svg>
