<?xml version="1.0" encoding="UTF-8" standalone="no"?><svg xmlns="http://www.w3.org/2000/svg" xmlns:xlink="http://www.w3.org/1999/xlink" contentScriptType="application/ecmascript" contentStyleType="text/css" height="533.3333px" preserveAspectRatio="none" style="width:1486px;height:533px;background:#333333;" version="1.1" viewBox="0 0 1486 533" width="1486.4583px" zoomAndPan="magnify"><defs/><g><rect fill="#48494B" height="41.2028" rx="8.3333" ry="8.3333" style="stroke:#545454;stroke-width:1.0416666666666667;" width="180.2083" x="646.0938" y="2.0833"/><text fill="#C0C0C0" font-family="Open Sans,Avenir,Nunito,Arial,Helvetica,SansSerif" font-size="20.8333" lengthAdjust="spacing" textLength="157.2917" x="657.5521" y="30.5583">kivakit-settings</text><!--MD5=[53e810a96c27d4bd25e6a3839aaba16b]
entity gson--><rect fill="#1B1B1A" height="44.93" rx="8.3333" ry="8.3333" style="stroke:#5E5E5E;stroke-width:1.5625;" width="65.625" x="768.2292" y="268.2861"/><polygon fill="#1B1B1A" points="816.1458,273.4945,816.1458,288.0778,828.6458,288.0778,828.6458,279.7445,822.3958,273.4945,816.1458,273.4945" style="stroke:#5E5E5E;stroke-width:1.5625;"/><line style="stroke:#5E5E5E;stroke-width:1.5625;" x1="822.3958" x2="822.3958" y1="273.4945" y2="279.7445"/><line style="stroke:#5E5E5E;stroke-width:1.5625;" x1="828.6458" x2="822.3958" y1="279.7445" y2="279.7445"/><text fill="#D8BC00" font-family="Open Sans,Avenir,Nunito,Arial,Helvetica,SansSerif" font-size="12.5" lengthAdjust="spacing" textLength="28.125" x="781.7708" y="297.0378">gson</text><!--MD5=[4aa4ddcf3dc6d6219283db0a9fd05165]
entity cactus_metadata--><rect fill="#1B1B1A" height="44.93" rx="8.3333" ry="8.3333" style="stroke:#5E5E5E;stroke-width:1.5625;" width="175" x="7.2917" y="375.5778"/><polygon fill="#1B1B1A" points="164.5833,380.7861,164.5833,395.3695,177.0833,395.3695,177.0833,387.0361,170.8333,380.7861,164.5833,380.7861" style="stroke:#5E5E5E;stroke-width:1.5625;"/><line style="stroke:#5E5E5E;stroke-width:1.5625;" x1="170.8333" x2="170.8333" y1="380.7861" y2="387.0361"/><line style="stroke:#5E5E5E;stroke-width:1.5625;" x1="177.0833" x2="170.8333" y1="387.0361" y2="387.0361"/><text fill="#D8BC00" font-family="Open Sans,Avenir,Nunito,Arial,Helvetica,SansSerif" font-size="12.5" lengthAdjust="spacing" textLength="137.5" x="20.8333" y="404.3294">cactus_metadata</text><!--MD5=[4facc4376e4b6bfc182ce14f42a813f9]
entity kivakit_collections--><rect fill="#1B1B1A" height="44.93" rx="8.3333" ry="8.3333" style="stroke:#5E5E5E;stroke-width:1.5625;" width="143.75" x="559.375" y="268.2861"/><polygon fill="#1B1B1A" points="685.4167,273.4945,685.4167,288.0778,697.9167,288.0778,697.9167,279.7445,691.6667,273.4945,685.4167,273.4945" style="stroke:#5E5E5E;stroke-width:1.5625;"/><line style="stroke:#5E5E5E;stroke-width:1.5625;" x1="691.6667" x2="691.6667" y1="273.4945" y2="279.7445"/><line style="stroke:#5E5E5E;stroke-width:1.5625;" x1="697.9167" x2="691.6667" y1="279.7445" y2="279.7445"/><text fill="#D8BC00" font-family="Open Sans,Avenir,Nunito,Arial,Helvetica,SansSerif" font-size="12.5" lengthAdjust="spacing" textLength="106.25" x="572.9167" y="297.0378">kivakit_collections</text><!--MD5=[b7af8d5b7902cf06664f76dfe0f9e426]
entity kivakit_commandline--><rect fill="#1B1B1A" height="44.93" rx="8.3333" ry="8.3333" style="stroke:#5E5E5E;stroke-width:1.5625;" width="162.5" x="364.5833" y="160.9945"/><polygon fill="#1B1B1A" points="509.375,166.2028,509.375,180.7861,521.875,180.7861,521.875,172.4528,515.625,166.2028,509.375,166.2028" style="stroke:#5E5E5E;stroke-width:1.5625;"/><line style="stroke:#5E5E5E;stroke-width:1.5625;" x1="515.625" x2="515.625" y1="166.2028" y2="172.4528"/><line style="stroke:#5E5E5E;stroke-width:1.5625;" x1="521.875" x2="515.625" y1="172.4528" y2="172.4528"/><text fill="#D8BC00" font-family="Open Sans,Avenir,Nunito,Arial,Helvetica,SansSerif" font-size="12.5" lengthAdjust="spacing" textLength="125" x="378.125" y="189.7461">kivakit_commandline</text><!--MD5=[dafc80021cd29aae9231cf20b1d6436c]
entity kivakit_conversion--><rect fill="#1B1B1A" height="44.93" rx="8.3333" ry="8.3333" style="stroke:#5E5E5E;stroke-width:1.5625;" width="145.8333" x="870.8333" y="268.2861"/><polygon fill="#1B1B1A" points="998.9583,273.4945,998.9583,288.0778,1011.4583,288.0778,1011.4583,279.7445,1005.2083,273.4945,998.9583,273.4945" style="stroke:#5E5E5E;stroke-width:1.5625;"/><line style="stroke:#5E5E5E;stroke-width:1.5625;" x1="1005.2083" x2="1005.2083" y1="273.4945" y2="279.7445"/><line style="stroke:#5E5E5E;stroke-width:1.5625;" x1="1011.4583" x2="1005.2083" y1="279.7445" y2="279.7445"/><text fill="#D8BC00" font-family="Open Sans,Avenir,Nunito,Arial,Helvetica,SansSerif" font-size="12.5" lengthAdjust="spacing" textLength="108.3333" x="884.375" y="297.0378">kivakit_conversion</text><!--MD5=[ae4286fb09ce878b5ed12f89a26eee54]
entity kivakit_core--><rect fill="#1B1B1A" height="44.93" rx="8.3333" ry="8.3333" style="stroke:#5E5E5E;stroke-width:1.5625;" width="108.3333" x="235.4167" y="268.2861"/><polygon fill="#1B1B1A" points="326.0417,273.4945,326.0417,288.0778,338.5417,288.0778,338.5417,279.7445,332.2917,273.4945,326.0417,273.4945" style="stroke:#5E5E5E;stroke-width:1.5625;"/><line style="stroke:#5E5E5E;stroke-width:1.5625;" x1="332.2917" x2="332.2917" y1="273.4945" y2="279.7445"/><line style="stroke:#5E5E5E;stroke-width:1.5625;" x1="338.5417" x2="332.2917" y1="279.7445" y2="279.7445"/><text fill="#D8BC00" font-family="Open Sans,Avenir,Nunito,Arial,Helvetica,SansSerif" font-size="12.5" lengthAdjust="spacing" textLength="70.8333" x="248.9583" y="297.0378">kivakit_core</text><!--MD5=[b582392a7118229602de187c1b0722c2]
entity kivakit_interfaces--><rect fill="#1B1B1A" height="44.93" rx="8.3333" ry="8.3333" style="stroke:#5E5E5E;stroke-width:1.5625;" width="140.625" x="219.2708" y="375.5778"/><polygon fill="#1B1B1A" points="342.1875,380.7861,342.1875,395.3695,354.6875,395.3695,354.6875,387.0361,348.4375,380.7861,342.1875,380.7861" style="stroke:#5E5E5E;stroke-width:1.5625;"/><line style="stroke:#5E5E5E;stroke-width:1.5625;" x1="348.4375" x2="348.4375" y1="380.7861" y2="387.0361"/><line style="stroke:#5E5E5E;stroke-width:1.5625;" x1="354.6875" x2="348.4375" y1="387.0361" y2="387.0361"/><text fill="#D8BC00" font-family="Open Sans,Avenir,Nunito,Arial,Helvetica,SansSerif" font-size="12.5" lengthAdjust="spacing" textLength="103.125" x="232.8125" y="404.3294">kivakit_interfaces</text><!--MD5=[155c7293f864675051139bd0dee90fee]
entity kivakit_internal_testing--><rect fill="#1B1B1A" height="44.93" rx="8.3333" ry="8.3333" style="stroke:#5E5E5E;stroke-width:1.5625;" width="172.9167" x="1109.375" y="268.2861"/><polygon fill="#1B1B1A" points="1264.5833,273.4945,1264.5833,288.0778,1277.0833,288.0778,1277.0833,279.7445,1270.8333,273.4945,1264.5833,273.4945" style="stroke:#5E5E5E;stroke-width:1.5625;"/><line style="stroke:#5E5E5E;stroke-width:1.5625;" x1="1270.8333" x2="1270.8333" y1="273.4945" y2="279.7445"/><line style="stroke:#5E5E5E;stroke-width:1.5625;" x1="1277.0833" x2="1270.8333" y1="279.7445" y2="279.7445"/><text fill="#D8BC00" font-family="Open Sans,Avenir,Nunito,Arial,Helvetica,SansSerif" font-size="12.5" lengthAdjust="spacing" textLength="135.4167" x="1122.9167" y="297.0378">kivakit_internal_testing</text><!--MD5=[f41257055ff6c31a77f8312d5e694f18]
entity kivakit_mixins--><rect fill="#1B1B1A" height="44.93" rx="8.3333" ry="8.3333" style="stroke:#5E5E5E;stroke-width:1.5625;" width="120.8333" x="396.875" y="375.5778"/><polygon fill="#1B1B1A" points="500,380.7861,500,395.3695,512.5,395.3695,512.5,387.0361,506.25,380.7861,500,380.7861" style="stroke:#5E5E5E;stroke-width:1.5625;"/><line style="stroke:#5E5E5E;stroke-width:1.5625;" x1="506.25" x2="506.25" y1="380.7861" y2="387.0361"/><line style="stroke:#5E5E5E;stroke-width:1.5625;" x1="512.5" x2="506.25" y1="387.0361" y2="387.0361"/><text fill="#D8BC00" font-family="Open Sans,Avenir,Nunito,Arial,Helvetica,SansSerif" font-size="12.5" lengthAdjust="spacing" textLength="83.3333" x="410.4167" y="404.3294">kivakit_mixins</text><!--MD5=[789122fdd47ca161e4432768ac68a470]
entity kivakit_resource--><rect fill="#1B1B1A" height="44.93" rx="8.3333" ry="8.3333" style="stroke:#5E5E5E;stroke-width:1.5625;" width="134.375" x="564.0625" y="160.9945"/><polygon fill="#1B1B1A" points="680.7292,166.2028,680.7292,180.7861,693.2292,180.7861,693.2292,172.4528,686.9792,166.2028,680.7292,166.2028" style="stroke:#5E5E5E;stroke-width:1.5625;"/><line style="stroke:#5E5E5E;stroke-width:1.5625;" x1="686.9792" x2="686.9792" y1="166.2028" y2="172.4528"/><line style="stroke:#5E5E5E;stroke-width:1.5625;" x1="693.2292" x2="686.9792" y1="172.4528" y2="172.4528"/><text fill="#D8BC00" font-family="Open Sans,Avenir,Nunito,Arial,Helvetica,SansSerif" font-size="12.5" lengthAdjust="spacing" textLength="96.875" x="577.6042" y="189.7461">kivakit_resource</text><!--MD5=[7b11bf8f6cdaefb37d9e26a0fe1bc824]
entity kivakit_serialization_gson--><rect fill="#1B1B1A" height="44.93" rx="8.3333" ry="8.3333" style="stroke:#5E5E5E;stroke-width:1.5625;" width="188.5417" x="734.8958" y="160.9945"/><polygon fill="#1B1B1A" points="905.7292,166.2028,905.7292,180.7861,918.2292,180.7861,918.2292,172.4528,911.9792,166.2028,905.7292,166.2028" style="stroke:#5E5E5E;stroke-width:1.5625;"/><line style="stroke:#5E5E5E;stroke-width:1.5625;" x1="911.9792" x2="911.9792" y1="166.2028" y2="172.4528"/><line style="stroke:#5E5E5E;stroke-width:1.5625;" x1="918.2292" x2="911.9792" y1="172.4528" y2="172.4528"/><text fill="#D8BC00" font-family="Open Sans,Avenir,Nunito,Arial,Helvetica,SansSerif" font-size="12.5" lengthAdjust="spacing" textLength="151.0417" x="748.4375" y="189.7461">kivakit_serialization_gson</text><!--MD5=[89af034859c241291c45f10ab75c9d6f]
entity kivakit_serialization_properties--><rect fill="#1B1B1A" height="44.93" rx="8.3333" ry="8.3333" style="stroke:#5E5E5E;stroke-width:1.5625;" width="222.9167" x="960.4167" y="160.9945"/><polygon fill="#1B1B1A" points="1165.625,166.2028,1165.625,180.7861,1178.125,180.7861,1178.125,172.4528,1171.875,166.2028,1165.625,166.2028" style="stroke:#5E5E5E;stroke-width:1.5625;"/><line style="stroke:#5E5E5E;stroke-width:1.5625;" x1="1171.875" x2="1171.875" y1="166.2028" y2="172.4528"/><line style="stroke:#5E5E5E;stroke-width:1.5625;" x1="1178.125" x2="1171.875" y1="172.4528" y2="172.4528"/><text fill="#D8BC00" font-family="Open Sans,Avenir,Nunito,Arial,Helvetica,SansSerif" font-size="12.5" lengthAdjust="spacing" textLength="185.4167" x="973.9583" y="189.7461">kivakit_serialization_properties</text><!--MD5=[9ba95bb9e8e31957d019d7ac74b23042]
entity kivakit_settings--><rect fill="#1B1B1A" height="44.93" rx="8.3333" ry="8.3333" style="stroke:#5E5E5E;stroke-width:1.5625;" width="128.125" x="765.1042" y="53.7028"/><polygon fill="#1B1B1A" points="875.5208,58.9111,875.5208,73.4945,888.0208,73.4945,888.0208,65.1611,881.7708,58.9111,875.5208,58.9111" style="stroke:#5E5E5E;stroke-width:1.5625;"/><line style="stroke:#5E5E5E;stroke-width:1.5625;" x1="881.7708" x2="881.7708" y1="58.9111" y2="65.1611"/><line style="stroke:#5E5E5E;stroke-width:1.5625;" x1="888.0208" x2="881.7708" y1="65.1611" y2="65.1611"/><text fill="#D8BC00" font-family="Open Sans,Avenir,Nunito,Arial,Helvetica,SansSerif" font-size="12.5" lengthAdjust="spacing" textLength="90.625" x="778.6458" y="82.4544">kivakit_settings</text><!--MD5=[093cb7b544ec48262295604d6acff019]
entity kivakit_testing--><rect fill="#1B1B1A" height="44.93" rx="8.3333" ry="8.3333" style="stroke:#5E5E5E;stroke-width:1.5625;" width="121.875" x="1220.3125" y="160.9945"/><polygon fill="#1B1B1A" points="1324.4792,166.2028,1324.4792,180.7861,1336.9792,180.7861,1336.9792,172.4528,1330.7292,166.2028,1324.4792,166.2028" style="stroke:#5E5E5E;stroke-width:1.5625;"/><line style="stroke:#5E5E5E;stroke-width:1.5625;" x1="1330.7292" x2="1330.7292" y1="166.2028" y2="172.4528"/><line style="stroke:#5E5E5E;stroke-width:1.5625;" x1="1336.9792" x2="1330.7292" y1="172.4528" y2="172.4528"/><text fill="#D8BC00" font-family="Open Sans,Avenir,Nunito,Arial,Helvetica,SansSerif" font-size="12.5" lengthAdjust="spacing" textLength="84.375" x="1233.8542" y="189.7461">kivakit_testing</text><!--MD5=[80d2a7f8a38f99556dcaa88e0cbe286e]
entity kivakit_validation--><rect fill="#1B1B1A" height="44.93" rx="8.3333" ry="8.3333" style="stroke:#5E5E5E;stroke-width:1.5625;" width="139.5833" x="380.2083" y="268.2861"/><polygon fill="#1B1B1A" points="502.0833,273.4945,502.0833,288.0778,514.5833,288.0778,514.5833,279.7445,508.3333,273.4945,502.0833,273.4945" style="stroke:#5E5E5E;stroke-width:1.5625;"/><line style="stroke:#5E5E5E;stroke-width:1.5625;" x1="508.3333" x2="508.3333" y1="273.4945" y2="279.7445"/><line style="stroke:#5E5E5E;stroke-width:1.5625;" x1="514.5833" x2="508.3333" y1="279.7445" y2="279.7445"/><text fill="#D8BC00" font-family="Open Sans,Avenir,Nunito,Arial,Helvetica,SansSerif" font-size="12.5" lengthAdjust="spacing" textLength="102.0833" x="393.75" y="297.0378">kivakit_validation</text><!--MD5=[7b0fec798d1f32628676dfdf75f1f662]
entity lexakai_annotations--><rect fill="#1B1B1A" height="44.93" rx="8.3333" ry="8.3333" style="stroke:#5E5E5E;stroke-width:1.5625;" width="155.2083" x="1319.2708" y="268.2861"/><polygon fill="#1B1B1A" points="1456.7708,273.4945,1456.7708,288.0778,1469.2708,288.0778,1469.2708,279.7445,1463.0208,273.4945,1456.7708,273.4945" style="stroke:#5E5E5E;stroke-width:1.5625;"/><line style="stroke:#5E5E5E;stroke-width:1.5625;" x1="1463.0208" x2="1463.0208" y1="273.4945" y2="279.7445"/><line style="stroke:#5E5E5E;stroke-width:1.5625;" x1="1469.2708" x2="1463.0208" y1="279.7445" y2="279.7445"/><text fill="#D8BC00" font-family="Open Sans,Avenir,Nunito,Arial,Helvetica,SansSerif" font-size="12.5" lengthAdjust="spacing" textLength="117.7083" x="1332.8125" y="297.0378">lexakai_annotations</text><!--MD5=[ce55b294004802c137560c2930be5b75]
entity junit--><rect fill="#1B1B1A" height="44.93" rx="8.3333" ry="8.3333" style="stroke:#5E5E5E;stroke-width:1.5625;" width="63.5417" x="1102.6042" y="375.5778"/><polygon fill="#1B1B1A" points="1148.4375,380.7861,1148.4375,395.3695,1160.9375,395.3695,1160.9375,387.0361,1154.6875,380.7861,1148.4375,380.7861" style="stroke:#5E5E5E;stroke-width:1.5625;"/><line style="stroke:#5E5E5E;stroke-width:1.5625;" x1="1154.6875" x2="1154.6875" y1="380.7861" y2="387.0361"/><line style="stroke:#5E5E5E;stroke-width:1.5625;" x1="1160.9375" x2="1154.6875" y1="387.0361" y2="387.0361"/><text fill="#D8BC00" font-family="Open Sans,Avenir,Nunito,Arial,Helvetica,SansSerif" font-size="12.5" lengthAdjust="spacing" textLength="26.0417" x="1116.1458" y="404.3294">junit</text><!--MD5=[7f157d37bc1fd6ac970bb67ffdbc66a3]
entity hamcrest_core--><rect fill="#1B1B1A" height="44.93" rx="8.3333" ry="8.3333" style="stroke:#5E5E5E;stroke-width:1.5625;" width="125" x="1071.875" y="482.8695"/><polygon fill="#1B1B1A" points="1179.1667,488.0778,1179.1667,502.6611,1191.6667,502.6611,1191.6667,494.3278,1185.4167,488.0778,1179.1667,488.0778" style="stroke:#5E5E5E;stroke-width:1.5625;"/><line style="stroke:#5E5E5E;stroke-width:1.5625;" x1="1185.4167" x2="1185.4167" y1="488.0778" y2="494.3278"/><line style="stroke:#5E5E5E;stroke-width:1.5625;" x1="1191.6667" x2="1185.4167" y1="494.3278" y2="494.3278"/><text fill="#D8BC00" font-family="Open Sans,Avenir,Nunito,Arial,Helvetica,SansSerif" font-size="12.5" lengthAdjust="spacing" textLength="87.5" x="1085.4167" y="511.6211">hamcrest_core</text><!--MD5=[b728e17b4e4da6aa8cb97e9b2766c5e6]
entity annotations--><rect fill="#1B1B1A" height="44.93" rx="8.3333" ry="8.3333" style="stroke:#5E5E5E;stroke-width:1.5625;" width="106.25" x="1203.125" y="375.5778"/><polygon fill="#1B1B1A" points="1291.6667,380.7861,1291.6667,395.3695,1304.1667,395.3695,1304.1667,387.0361,1297.9167,380.7861,1291.6667,380.7861" style="stroke:#5E5E5E;stroke-width:1.5625;"/><line style="stroke:#5E5E5E;stroke-width:1.5625;" x1="1297.9167" x2="1297.9167" y1="380.7861" y2="387.0361"/><line style="stroke:#5E5E5E;stroke-width:1.5625;" x1="1304.1667" x2="1297.9167" y1="387.0361" y2="387.0361"/><text fill="#D8BC00" font-family="Open Sans,Avenir,Nunito,Arial,Helvetica,SansSerif" font-size="12.5" lengthAdjust="spacing" textLength="68.75" x="1216.6667" y="404.3294">annotations</text><!--MD5=[d68e7c4b3ca5f037bcb6997a0b4ed16b]
link junit to hamcrest_core--><path d="M1134.375,420.8174 C1134.375,437.2861 1134.375,459.984 1134.375,477.5361 " fill="none" id="junit-to-hamcrest_core" style="stroke:#545454;stroke-width:1.5625;"/><polygon fill="#545454" points="1134.375,482.8174,1138.5417,473.4424,1134.375,477.609,1130.2083,473.4424,1134.375,482.8174" style="stroke:#545454;stroke-width:1.5625;"/><!--MD5=[943c04cd0fe752834cf06c59f408a839]
link kivakit_commandline to kivakit_core--><path d="M413.8333,205.9736 C388.3438,223.1403 352.6563,247.1715 326.0625,265.0778 " fill="none" id="kivakit_commandline-to-kivakit_core" style="stroke:#545454;stroke-width:1.5625;"/><polygon fill="#545454" points="321.5417,268.1299,331.6464,266.3563,325.8638,265.2236,326.9965,259.441,321.5417,268.1299" style="stroke:#545454;stroke-width:1.5625;"/><!--MD5=[233173b8414f4008c96b85f34b766932]
link kivakit_commandline to kivakit_validation--><path d="M446.6979,206.234 C447.3542,222.7028 448.25,245.4007 448.9479,262.9528 " fill="none" id="kivakit_commandline-to-kivakit_validation" style="stroke:#545454;stroke-width:1.5625;"/><polygon fill="#545454" points="449.1563,268.234,452.9449,258.7,448.9481,263.0299,444.6182,259.0331,449.1563,268.234" style="stroke:#545454;stroke-width:1.5625;"/><!--MD5=[a27c71d033f650a74e689916edfa2bee]
link kivakit_core to cactus_metadata--><path d="M249.6979,313.2653 C217.6563,330.5674 172.6771,354.859 139.4479,372.8174 " fill="none" id="kivakit_core-to-cactus_metadata" style="stroke:#545454;stroke-width:1.5625;"/><polygon fill="#545454" points="134.625,375.4215,144.8545,374.6415,139.2098,372.9505,140.9009,367.3058,134.625,375.4215" style="stroke:#545454;stroke-width:1.5625;"/><!--MD5=[50e8d2e340cfb1a2dae3d5796adb8458]
link kivakit_core to kivakit_interfaces--><path d="M289.5833,313.5257 C289.5833,329.9945 289.5833,352.6924 289.5833,370.2445 " fill="none" id="kivakit_core-to-kivakit_interfaces" style="stroke:#545454;stroke-width:1.5625;"/><polygon fill="#545454" points="289.5833,375.5257,293.75,366.1507,289.5833,370.3174,285.4167,366.1507,289.5833,375.5257" style="stroke:#545454;stroke-width:1.5625;"/><!--MD5=[cc9720141deba8e1bd3912e4e0759165]
link kivakit_core to kivakit_mixins--><path d="M323.9271,313.2653 C351.3958,330.5049 389.9167,354.6611 418.5,372.5986 " fill="none" id="kivakit_core-to-kivakit_mixins" style="stroke:#545454;stroke-width:1.5625;"/><polygon fill="#545454" points="422.9896,375.4215,417.2686,366.9056,418.5796,372.6504,412.8348,373.9615,422.9896,375.4215" style="stroke:#545454;stroke-width:1.5625;"/><!--MD5=[4b82e2a0b2f04a403edf9234c3d60217]
link kivakit_internal_testing to annotations--><path d="M1208.3542,313.5257 C1217.8958,330.1403 1231.0729,353.0778 1241.1875,370.7028 " fill="none" id="kivakit_internal_testing-to-annotations" style="stroke:#545454;stroke-width:1.5625;"/><polygon fill="#545454" points="1243.9583,375.5257,1242.903,365.3209,1241.3647,371.0091,1235.6764,369.4708,1243.9583,375.5257" style="stroke:#545454;stroke-width:1.5625;"/><!--MD5=[5b546c273a7ef3c2ac177c7373ad10f4]
link kivakit_internal_testing to junit--><path d="M1183.1042,313.5257 C1173.3958,330.1403 1159.9896,353.0778 1149.6979,370.7028 " fill="none" id="kivakit_internal_testing-to-junit" style="stroke:#545454;stroke-width:1.5625;"/><polygon fill="#545454" points="1146.8854,375.5257,1155.2058,369.5238,1149.5079,371.0258,1148.0059,365.3279,1146.8854,375.5257" style="stroke:#545454;stroke-width:1.5625;"/><!--MD5=[1f920e5641e1a651a42d763be0b203c8]
link kivakit_resource to kivakit_collections--><path d="M631.25,206.234 C631.25,222.7028 631.25,245.4007 631.25,262.9528 " fill="none" id="kivakit_resource-to-kivakit_collections" style="stroke:#545454;stroke-width:1.5625;"/><polygon fill="#545454" points="631.25,268.234,635.4167,258.859,631.25,263.0257,627.0833,258.859,631.25,268.234" style="stroke:#545454;stroke-width:1.5625;"/><!--MD5=[526b50f83d962021076ab4af7a206f26]
link kivakit_serialization_gson to gson--><path d="M823.3438,206.234 C818.9375,222.7028 812.8646,245.4007 808.1771,262.9528 " fill="none" id="kivakit_serialization_gson-to-gson" style="stroke:#545454;stroke-width:1.5625;"/><polygon fill="#545454" points="806.7604,268.234,813.2211,260.2646,808.1144,263.2048,805.1743,258.0982,806.7604,268.234" style="stroke:#545454;stroke-width:1.5625;"/><!--MD5=[b77bfac3d9f3d71d792371bb2582fe6b]
link kivakit_serialization_gson to kivakit_conversion--><path d="M852.6354,205.9736 C871.0104,222.859 896.6354,246.3799 916.0313,264.1924 " fill="none" id="kivakit_serialization_gson-to-kivakit_conversion" style="stroke:#545454;stroke-width:1.5625;"/><polygon fill="#545454" points="920.3125,268.1299,916.2271,258.7192,916.4769,264.6064,910.5896,264.8562,920.3125,268.1299" style="stroke:#545454;stroke-width:1.5625;"/><!--MD5=[617b6bc9ab2f7e62743114de08919b91]
link kivakit_settings to kivakit_commandline--><path d="M765.0104,94.7549 C700.1667,112.5465 599.7083,140.1195 528.8438,159.5674 " fill="none" id="kivakit_settings-to-kivakit_commandline" style="stroke:#545454;stroke-width:1.5625;"/><polygon fill="#545454" points="523.7917,160.9528,533.9373,162.4754,528.8123,159.5673,531.7204,154.4423,523.7917,160.9528" style="stroke:#545454;stroke-width:1.5625;"/><!--MD5=[66daae608c5d1ef9a55a9dd78110fd01]
link kivakit_settings to kivakit_resource--><path d="M788.6354,98.682 C756.0833,115.984 710.3854,140.2757 676.6146,158.234 " fill="none" id="kivakit_settings-to-kivakit_resource" style="stroke:#545454;stroke-width:1.5625;"/><polygon fill="#545454" points="671.7292,160.8382,681.9635,160.1236,676.3297,158.3965,678.0567,152.7627,671.7292,160.8382" style="stroke:#545454;stroke-width:1.5625;"/><!--MD5=[db7a3e58ae015a2db9e73bbbc331f313]
link kivakit_settings to kivakit_serialization_gson--><path d="M829.1667,98.9424 C829.1667,115.4111 829.1667,138.109 829.1667,155.6611 " fill="none" id="kivakit_settings-to-kivakit_serialization_gson" style="stroke:#545454;stroke-width:1.5625;"/><polygon fill="#545454" points="829.1667,160.9424,833.3333,151.5674,829.1667,155.734,825,151.5674,829.1667,160.9424" style="stroke:#545454;stroke-width:1.5625;"/><!--MD5=[9a29ae8e9245e25ea51914d5ea8f3bfd]
link kivakit_settings to kivakit_serialization_properties--><path d="M878.5729,98.557 C918.9271,116.0465 975.8958,140.7445 1017.5417,158.7965 " fill="none" id="kivakit_settings-to-kivakit_serialization_properties" style="stroke:#545454;stroke-width:1.5625;"/><polygon fill="#545454" points="1022.5313,160.9632,1015.5753,153.4222,1017.7494,158.899,1012.2726,161.0731,1022.5313,160.9632" style="stroke:#545454;stroke-width:1.5625;"/><!--MD5=[16f031e9b9b0eb9d5b5a3cf3bd91d179]
link kivakit_settings to kivakit_testing--><path d="M893.5,90.859 C967.7813,106.8903 1093.5521,134.5778 1201.0417,160.9945 C1205.5625,162.109 1210.2188,163.2757 1214.9063,164.4736 " fill="none" id="kivakit_settings-to-kivakit_testing" style="stroke:#545454;stroke-width:1.5625;"/><polygon fill="#545454" points="1220,165.7861,1211.9727,159.3976,1214.9588,164.4775,1209.8788,167.4636,1220,165.7861" style="stroke:#545454;stroke-width:1.5625;"/><!--MD5=[3d312d8b1cc36eed503155bb7da7af54]
link kivakit_testing to kivakit_internal_testing--><path d="M1263.5521,206.234 C1249.9479,222.984 1231.1146,246.182 1216.7604,263.859 " fill="none" id="kivakit_testing-to-kivakit_internal_testing" style="stroke:#545454;stroke-width:1.5625;"/><polygon fill="#545454" points="1213.2188,268.234,1222.3644,263.5854,1216.5031,264.1918,1215.8967,258.3305,1213.2188,268.234" style="stroke:#545454;stroke-width:1.5625;"/><!--MD5=[c6853ac292364894b6592ed62b55b579]
link kivakit_testing to lexakai_annotations--><path d="M1304.9271,205.9736 C1323.4792,222.859 1349.3333,246.3799 1368.9063,264.1924 " fill="none" id="kivakit_testing-to-lexakai_annotations" style="stroke:#545454;stroke-width:1.5625;"/><polygon fill="#545454" points="1373.2292,268.1299,1369.124,258.7278,1369.3861,264.6145,1363.4994,264.8767,1373.2292,268.1299" style="stroke:#545454;stroke-width:1.5625;"/><!--MD5=[d7e78073e23835be535698d6f3de2f36]
@startuml

    !include lexakai.theme
    
    title "kivakit-settings"
    
    artifact gson
    artifact cactus_metadata
    artifact kivakit_collections
    artifact kivakit_commandline
    artifact kivakit_conversion
    artifact kivakit_core
    artifact kivakit_interfaces
    artifact kivakit_internal_testing
    artifact kivakit_mixins
    artifact kivakit_resource
    artifact kivakit_serialization_gson
    artifact kivakit_serialization_properties
    artifact kivakit_settings
    artifact kivakit_testing
    artifact kivakit_validation
    artifact lexakai_annotations
    artifact junit
    artifact hamcrest_core
    artifact annotations
    junit - -> hamcrest_core
    kivakit_commandline - -> kivakit_core
    kivakit_commandline - -> kivakit_validation
    kivakit_core - -> cactus_metadata
    kivakit_core - -> kivakit_interfaces
    kivakit_core - -> kivakit_mixins
    kivakit_internal_testing - -> annotations
    kivakit_internal_testing - -> junit
    kivakit_resource - -> kivakit_collections
    kivakit_serialization_gson - -> gson
    kivakit_serialization_gson - -> kivakit_conversion
    kivakit_settings - -> kivakit_commandline
    kivakit_settings - -> kivakit_resource
    kivakit_settings - -> kivakit_serialization_gson
    kivakit_settings - -> kivakit_serialization_properties
    kivakit_settings - -> kivakit_testing
    kivakit_testing - -> kivakit_internal_testing
    kivakit_testing - -> lexakai_annotations
    
@enduml

@startuml









skinparam backgroundColor #333333






skinparam  {
    defaultFontName   "Open Sans,Avenir,Nunito,Arial,Helvetica,SansSerif"
    defaultFontSize   12
    defaultTextAlignment left
    shadowing false
    RoundCorner 10
    TitleFontSize 18
}

skinparam defaultFontName       "Open Sans,Avenir,Nunito,Arial,Helvetica,SansSerif"
skinparam defaultFontSize       12
skinparam dpi                   100
skinparam shadowing             false
skinparam roundcorner           16
skinparam ParticipantPadding    40
skinparam BoxPadding            40
skinparam Padding               3
skinparam ArrowColor            #545454
skinparam stereotype {
    CBackgroundColor #0066cf
    CBorderColor #0086ef
    ABackgroundColor #C8Ac00
    ABorderColor #D8Bc00
    IBackgroundColor #008400
    IBorderColor #239c23
    EBackgroundColor #cf6300
    EBorderColor #ef8300
    NBackgroundColor #3380b9
    NBorderColor #004d86
}
skinparam title {
	FontColor	                 #c0c0c0
 	BorderColor                  #545454
	FontSize	    	         20
	BorderRoundCorner            16
	BorderThickness 	         1
	BackgroundColor              #48494b
}


skinparam legend {
	BackgroundColor #303030
	BorderColor #404040
	FontColor #a0a0a0
}

	skinparam swimlane {
	BorderColor #5e5e5e
	BorderThickness 2
	TitleBackgroundColor  #6d6d6d-#484848
	TitleFontColor #303030
}

skinparam activity {
		FontColor #C8Ac00
	BorderColor #333333
	BackgroundColor #333333-#333333
	BarColor #00FF00
	StartColor #0060a8
	EndColor #0060a8
	DiamondBackgroundColor #6d6d6d-#3a3a3a
  	DiamondBorderColor #3a3a3a
  	DiamondFontColor #fefefe
}


skinparam participant {
		FontColor #C8Ac00
	BorderColor #333333
	BackgroundColor #333333-#333333
	ParticipantBorderThickness 2
}


skinparam actor {
		FontColor #C8Ac00
	BorderColor #333333
	BackgroundColor #333333-#333333
}


skinparam arrow {
	Thickness 1.5
	Color #545454
	FontColor #a0a0a0
    FontStyle bold
    MessageAlignment center
}



skinparam sequence {
	BorderColor #303030
	TitleFontColor #303030
	BackgroundColor #333333
	StartColor #303030
	EndColor #303030
	BoxBackgroundColor #333333
	BoxBorderColor #484848
	BoxFontColor #484848
	LifeLineBorderColor #484848
	LifeLineBorderThickness 2
	LifeLineBackgroundColor #3a3a3a
	GroupBorderColor #484848
	GroupFontColor #484848
	GroupHeaderFontColor #0060a8
	GroupBackgroundColor #484848
	GroupHeaderBackgroundColor #333333
	DividerBackgroundColor #484848
    DividerBorderColor #484848
    DividerBorderThickness 2
    DividerFontColor #D8Bc00
	ReferenceBackgroundColor #333333
	ReferenceBorderColor #484848
	ReferenceFontColor #fefefe
	ReferenceHeaderBackgroundColor #484848
}


skinparam partition {
	BorderColor #303030
	FontColor #333333
	BackgroundColor #333333
}


skinparam collections {
		FontColor #C8Ac00
	BorderColor #333333
	BackgroundColor #333333-#333333
}


skinparam control {
		FontColor #C8Ac00
	BorderColor #333333
	BackgroundColor #333333-#333333
}


skinparam entity {
		FontColor #C8Ac00
	BorderColor #333333
	BackgroundColor #333333-#333333
}


skinparam boundary {
		FontColor #C8Ac00
	BorderColor #333333
	BackgroundColor #333333-#333333
}


skinparam agent {
	BackgroundColor #ff8000
	BorderColor #ff9933
	FontColor #484848
}


skinparam note {
	BorderThickness 1
	BackgroundColor #1b1b1a
	BorderColor #5e5e5e
	FontSize 11
	FontColor #a0a0a0
}


skinparam artifact {
	BorderThickness 10
	BorderColor #5e5e5e
	BackgroundColor #1b1b1a
	FontColor #D8Bc00
}


skinparam component {
		FontColor #C8Ac00
	BorderColor #333333
	BackgroundColor #333333-#333333
}


skinparam interface {
	BackgroundColor  #008400
	BorderColor  #007F00
	FontColor #484848
}


skinparam storage {
	BackgroundColor #ff8000
  	BorderColor #cc6600
	FontColor #222222
}


skinparam node {
	BackgroundColor #333333
	BorderColor #333333
	FontColor #C8Ac00
}


skinparam cloud {
	BackgroundColor #484848-black
	BorderColor #484848
	FontColor #D8Bc00
}


skinparam database {
		FontColor #C8Ac00
	BorderColor #333333
	BackgroundColor #333333-#333333
	BackgroundColor  #333333
}


skinparam class {
		FontColor #C8Ac00
	BorderColor #333333
	BackgroundColor #333333-#333333
	HeaderBackgroundColor #1b1b1a
    BackgroundColor #282828
    BorderColor #5e5e5e
 	StereotypeFontColor #a0a0a0
    StereotypeFontStyle bold
	BorderThickness 1
	AttributeFontColor #D8Bc00
	AttributeFontSize 11
    FontColor #D8Bc00
    FontStyle bold
}


skinparam object {
		FontColor #C8Ac00
	BorderColor #333333
	BackgroundColor #333333-#333333
	StereotypeFontColor #484848
	BorderThickness 1
	AttributeFontColor #fefefe
	AttributeFontSize 11
}


skinparam usecase {
		FontColor #C8Ac00
	BorderColor #333333
	BackgroundColor #333333-#333333
	BorderThickness 2
	StereotypeFontColor #303030
}


skinparam rectangle {
		FontColor #C8Ac00
	BorderColor #333333
	BackgroundColor #333333-#333333
	BackgroundColor #333333
	BorderThickness 2
	StereotypeFontColor #303030
}


skinparam package {
		FontColor #C8Ac00
	BorderColor #333333
	BackgroundColor #333333-#333333
	BackgroundColor #333333
	BorderThickness 2
}


skinparam folder {
	BackgroundColor #6d6d6d
  	BorderColor #ff8000
	FontColor #ff8000
	BorderThickness 2
}


skinparam frame {
	BackgroundColor #6d6d6d
  	BorderColor #0060a8
	FontColor #0060a8
	BorderThickness 2
}


skinparam state {
		FontColor #C8Ac00
	BorderColor #333333
	BackgroundColor #333333-#333333
	StartColor #0060a8
	EndColor #0060a8
	AttributeFontColor #fefefe
	AttributeFontSize 11
}


skinparam queue {
		FontColor #C8Ac00
	BorderColor #333333
	BackgroundColor #333333-#333333
}


skinparam card {
	BackgroundColor #0060a8
	BorderColor #004d86
	FontColor $INFO_TEXT
}


skinparam file {
	BackgroundColor #6d6d6d-#484848
	BorderColor #0060a8
	FontColor #fefefe
}


skinparam stack {
		FontColor #C8Ac00
	BorderColor #333333
	BackgroundColor #333333-#333333
}

    
    title "kivakit-settings"
    
    artifact gson
    artifact cactus_metadata
    artifact kivakit_collections
    artifact kivakit_commandline
    artifact kivakit_conversion
    artifact kivakit_core
    artifact kivakit_interfaces
    artifact kivakit_internal_testing
    artifact kivakit_mixins
    artifact kivakit_resource
    artifact kivakit_serialization_gson
    artifact kivakit_serialization_properties
    artifact kivakit_settings
    artifact kivakit_testing
    artifact kivakit_validation
    artifact lexakai_annotations
    artifact junit
    artifact hamcrest_core
    artifact annotations
    junit - -> hamcrest_core
    kivakit_commandline - -> kivakit_core
    kivakit_commandline - -> kivakit_validation
    kivakit_core - -> cactus_metadata
    kivakit_core - -> kivakit_interfaces
    kivakit_core - -> kivakit_mixins
    kivakit_internal_testing - -> annotations
    kivakit_internal_testing - -> junit
    kivakit_resource - -> kivakit_collections
    kivakit_serialization_gson - -> gson
    kivakit_serialization_gson - -> kivakit_conversion
    kivakit_settings - -> kivakit_commandline
    kivakit_settings - -> kivakit_resource
    kivakit_settings - -> kivakit_serialization_gson
    kivakit_settings - -> kivakit_serialization_properties
    kivakit_settings - -> kivakit_testing
    kivakit_testing - -> kivakit_internal_testing
    kivakit_testing - -> lexakai_annotations
    
@enduml

PlantUML version 1.2021.01(Tue Feb 02 00:55:08 MST 2021)
(GPL source distribution)
Java Runtime: OpenJDK Runtime Environment
JVM: OpenJDK 64-Bit Server VM
Default Encoding: UTF-8
Language: en
Country: US
--></g></svg>
