<?xml version="1.0" encoding="UTF-8" standalone="no"?><svg xmlns="http://www.w3.org/2000/svg" xmlns:xlink="http://www.w3.org/1999/xlink" contentScriptType="application/ecmascript" contentStyleType="text/css" height="211.4583px" preserveAspectRatio="none" style="width:500px;height:211px;background:#333333;" version="1.1" viewBox="0 0 500 211" width="500px" zoomAndPan="magnify"><defs/><g><rect fill="#48494B" height="41.2028" rx="8.3333" ry="8.3333" style="stroke:#545454;stroke-width:1.0416666666666667;" width="487.5" x="2.0833" y="2.0833"/><text fill="#C0C0C0" font-family="Open Sans,Avenir,Nunito,Arial,Helvetica,SansSerif" font-size="20.8333" lengthAdjust="spacing" textLength="464.5833" x="13.5417" y="30.5583">com.telenav.kivakit.ui.desktop.graphics.image</text><rect codeLine="7" fill="#282828" height="150.946" id="ImageResource" rx="8.3333" ry="8.3333" style="stroke:#5E5E5E;stroke-width:1.0416666666666667;" width="217.7083" x="29.9479" y="53.7028"/><rect fill="#1B1B1A" height="31.3883" rx="8.3333" ry="8.3333" style="stroke:#1B1B1A;stroke-width:1.0416666666666667;" width="217.7083" x="29.9479" y="53.7028"/><rect fill="#1B1B1A" height="8.3333" style="stroke:#1B1B1A;stroke-width:1.0416666666666667;" width="217.7083" x="29.9479" y="76.7578"/><rect codeLine="7" fill="none" height="150.946" id="ImageResource" rx="8.3333" ry="8.3333" style="stroke:#5E5E5E;stroke-width:1.0416666666666667;" width="217.7083" x="29.9479" y="53.7028"/><ellipse cx="82.5521" cy="69.397" fill="#0066CF" rx="10.4167" ry="10.4167" style="stroke:#0086EF;stroke-width:1.0416666666666667;"/><path d="M84.4625,73.822 Q84.0352,74.0417 83.5653,74.1516 Q83.0953,74.2615 82.5765,74.2615 Q80.7332,74.2615 79.7628,73.0469 Q78.7923,71.8323 78.7923,69.5374 Q78.7923,67.2363 79.7628,66.0217 Q80.7332,64.8071 82.5765,64.8071 Q83.0953,64.8071 83.5714,64.917 Q84.0474,65.0269 84.4625,65.2466 L84.4625,67.2485 Q83.9986,66.8213 83.5622,66.6229 Q83.1258,66.4246 82.6619,66.4246 Q81.6732,66.4246 81.1696,67.2089 Q80.6661,67.9932 80.6661,69.5374 Q80.6661,71.0754 81.1696,71.8597 Q81.6732,72.644 82.6619,72.644 Q83.1258,72.644 83.5622,72.4457 Q83.9986,72.2473 84.4625,71.8201 Z " fill="#000000"/><text fill="#D8BC00" font-family="Open Sans,Avenir,Nunito,Arial,Helvetica,SansSerif" font-size="12.5" font-weight="bold" lengthAdjust="spacing" textLength="97.9167" x="105.4688" y="74.1211">ImageResource</text><line style="stroke:#5E5E5E;stroke-width:1.5625;" x1="30.9896" x2="246.6146" y1="85.0911" y2="85.0911"/><ellipse cx="41.4063" cy="120.461" fill="#84BE84" rx="3.125" ry="3.125" style="stroke:#038048;stroke-width:1.0416666666666667;"/><text fill="#D8BC00" font-family="Open Sans,Avenir,Nunito,Arial,Helvetica,SansSerif" font-size="11.4583" lengthAdjust="spacing" textLength="145.8333" x="52.8646" y="127.3722">ImageResource(Resource)</text><line style="stroke:#5E5E5E;stroke-width:1.0416666666666667;" x1="30.9896" x2="95.0521" y1="103.2969" y2="103.2969"/><text fill="#D8BC00" font-family="Open Sans,Avenir,Nunito,Arial,Helvetica,SansSerif" font-size="11.4583" lengthAdjust="spacing" textLength="81.25" x="98.1771" y="107.1065">(constructors)</text><line style="stroke:#5E5E5E;stroke-width:1.0416666666666667;" x1="182.5521" x2="246.6146" y1="103.2969" y2="103.2969"/><line style="stroke:#5E5E5E;stroke-width:1.0416666666666667;" x1="30.9896" x2="246.6146" y1="137.0809" y2="137.0809"/><ellipse cx="41.4063" cy="148.5392" fill="#84BE84" rx="3.125" ry="3.125" style="stroke:#038048;stroke-width:1.0416666666666667;"/><text fill="#D8BC00" font-family="Open Sans,Avenir,Nunito,Arial,Helvetica,SansSerif" font-size="11.4583" lengthAdjust="spacing" textLength="185.4167" x="52.8646" y="155.4504">Image image(int width, int height)</text><ellipse cx="41.4063" cy="168.2841" fill="#84BE84" rx="3.125" ry="3.125" style="stroke:#038048;stroke-width:1.0416666666666667;"/><text fill="#D8BC00" font-family="Open Sans,Avenir,Nunito,Arial,Helvetica,SansSerif" font-size="11.4583" lengthAdjust="spacing" textLength="78.125" x="52.8646" y="175.1953">Image image()</text><ellipse cx="41.4063" cy="188.029" fill="#84BE84" rx="3.125" ry="3.125" style="stroke:#038048;stroke-width:1.0416666666666667;"/><text fill="#D8BC00" font-family="Open Sans,Avenir,Nunito,Arial,Helvetica,SansSerif" font-size="11.4583" lengthAdjust="spacing" textLength="160.4167" x="52.8646" y="194.9402">ImageResource of(Resource)</text><rect codeLine="17" fill="#282828" height="67.7999" id="Images" rx="8.3333" ry="8.3333" style="stroke:#5E5E5E;stroke-width:1.0416666666666667;" width="191.6667" x="284.6354" y="95.3695"/><rect fill="#1B1B1A" height="31.3883" rx="8.3333" ry="8.3333" style="stroke:#1B1B1A;stroke-width:1.0416666666666667;" width="191.6667" x="284.6354" y="95.3695"/><rect fill="#1B1B1A" height="8.3333" style="stroke:#1B1B1A;stroke-width:1.0416666666666667;" width="191.6667" x="284.6354" y="118.4245"/><rect codeLine="17" fill="none" height="67.7999" id="Images" rx="8.3333" ry="8.3333" style="stroke:#5E5E5E;stroke-width:1.0416666666666667;" width="191.6667" x="284.6354" y="95.3695"/><ellipse cx="349.7396" cy="111.0636" fill="#0066CF" rx="10.4167" ry="10.4167" style="stroke:#0086EF;stroke-width:1.0416666666666667;"/><path d="M351.65,115.4887 Q351.2227,115.7084 350.7528,115.8183 Q350.2828,115.9281 349.764,115.9281 Q347.9207,115.9281 346.9503,114.7135 Q345.9798,113.4989 345.9798,111.204 Q345.9798,108.903 346.9503,107.6884 Q347.9207,106.4738 349.764,106.4738 Q350.2828,106.4738 350.7589,106.5837 Q351.2349,106.6935 351.65,106.9132 L351.65,108.9152 Q351.1861,108.488 350.7497,108.2896 Q350.3133,108.0912 349.8494,108.0912 Q348.8607,108.0912 348.3571,108.8755 Q347.8536,109.6598 347.8536,111.204 Q347.8536,112.7421 348.3571,113.5264 Q348.8607,114.3107 349.8494,114.3107 Q350.3133,114.3107 350.7497,114.1123 Q351.1861,113.914 351.65,113.4867 Z " fill="#000000"/><text fill="#D8BC00" font-family="Open Sans,Avenir,Nunito,Arial,Helvetica,SansSerif" font-size="12.5" font-weight="bold" lengthAdjust="spacing" textLength="46.875" x="372.6563" y="115.7878">Images</text><line style="stroke:#5E5E5E;stroke-width:1.5625;" x1="285.6771" x2="475.2604" y1="126.7578" y2="126.7578"/><line style="stroke:#5E5E5E;stroke-width:1.0416666666666667;" x1="285.6771" x2="475.2604" y1="135.0911" y2="135.0911"/><ellipse cx="296.0938" cy="146.5495" fill="#84BE84" rx="3.125" ry="3.125" style="stroke:#038048;stroke-width:1.0416666666666667;"/><text fill="#D8BC00" font-family="Open Sans,Avenir,Nunito,Arial,Helvetica,SansSerif" font-size="11.4583" lengthAdjust="spacing" textLength="159.375" x="307.5521" y="153.4607">BufferedImage buffer(Image)</text></g></svg>
