<?xml version="1.0" encoding="UTF-8" standalone="no"?><svg xmlns="http://www.w3.org/2000/svg" xmlns:xlink="http://www.w3.org/1999/xlink" contentScriptType="application/ecmascript" contentStyleType="text/css" height="321.875px" preserveAspectRatio="none" style="width:630px;height:321px;background:#333333;" version="1.1" viewBox="0 0 630 321" width="630.2083px" zoomAndPan="magnify"><defs/><g><rect fill="#48494B" height="41.2028" rx="8.3333" ry="8.3333" style="stroke:#545454;stroke-width:1.0416666666666667;" width="617.7083" x="2.0833" y="2.0833"/><text fill="#C0C0C0" font-family="Open Sans,Avenir,Nunito,Arial,Helvetica,SansSerif" font-size="20.8333" lengthAdjust="spacing" textLength="594.7917" x="13.5417" y="30.5583">com.telenav.kivakit.ui.desktop.component.panel.properties</text><rect fill="#282828" height="48.055" id="KivaKitPanel" rx="8.3333" ry="8.3333" style="stroke:#5E5E5E;stroke-width:1.0416666666666667;" width="118.75" x="258.8542" y="53.7028"/><rect fill="#1B1B1A" height="31.3883" rx="8.3333" ry="8.3333" style="stroke:#1B1B1A;stroke-width:1.0416666666666667;" width="118.75" x="258.8542" y="53.7028"/><rect fill="#1B1B1A" height="8.3333" style="stroke:#1B1B1A;stroke-width:1.0416666666666667;" width="118.75" x="258.8542" y="76.7578"/><rect fill="none" height="48.055" id="KivaKitPanel" rx="8.3333" ry="8.3333" style="stroke:#5E5E5E;stroke-width:1.0416666666666667;" width="118.75" x="258.8542" y="53.7028"/><ellipse cx="273.4375" cy="69.397" fill="#0066CF" rx="10.4167" ry="10.4167" style="stroke:#0086EF;stroke-width:1.0416666666666667;"/><path d="M275.3479,73.822 Q274.9207,74.0417 274.4507,74.1516 Q273.9807,74.2615 273.4619,74.2615 Q271.6187,74.2615 270.6482,73.0469 Q269.6777,71.8323 269.6777,69.5374 Q269.6777,67.2363 270.6482,66.0217 Q271.6187,64.8071 273.4619,64.8071 Q273.9807,64.8071 274.4568,64.917 Q274.9329,65.0269 275.3479,65.2466 L275.3479,67.2485 Q274.884,66.8213 274.4476,66.6229 Q274.0112,66.4246 273.5474,66.4246 Q272.5586,66.4246 272.0551,67.2089 Q271.5515,67.9932 271.5515,69.5374 Q271.5515,71.0754 272.0551,71.8597 Q272.5586,72.644 273.5474,72.644 Q274.0112,72.644 274.4476,72.4457 Q274.884,72.2473 275.3479,71.8201 Z " fill="#000000"/><text fill="#D8BC00" font-family="Open Sans,Avenir,Nunito,Arial,Helvetica,SansSerif" font-size="12.5" font-weight="bold" lengthAdjust="spacing" textLength="81.25" x="290.1042" y="74.1211">KivaKitPanel</text><line style="stroke:#5E5E5E;stroke-width:1.0416666666666667;" x1="259.8958" x2="376.5625" y1="85.0911" y2="85.0911"/><line style="stroke:#5E5E5E;stroke-width:1.0416666666666667;" x1="259.8958" x2="376.5625" y1="93.4245" y2="93.4245"/><rect codeLine="8" fill="#282828" height="150.946" id="PropertyPanel" rx="8.3333" ry="8.3333" style="stroke:#5E5E5E;stroke-width:1.0416666666666667;" width="254.1667" x="191.1458" y="164.1195"/><rect fill="#1B1B1A" height="31.3883" rx="8.3333" ry="8.3333" style="stroke:#1B1B1A;stroke-width:1.0416666666666667;" width="254.1667" x="191.1458" y="164.1195"/><rect fill="#1B1B1A" height="8.3333" style="stroke:#1B1B1A;stroke-width:1.0416666666666667;" width="254.1667" x="191.1458" y="187.1745"/><rect codeLine="8" fill="none" height="150.946" id="PropertyPanel" rx="8.3333" ry="8.3333" style="stroke:#5E5E5E;stroke-width:1.0416666666666667;" width="254.1667" x="191.1458" y="164.1195"/><ellipse cx="266.6667" cy="179.8136" fill="#0066CF" rx="10.4167" ry="10.4167" style="stroke:#0086EF;stroke-width:1.0416666666666667;"/><path d="M268.5771,184.2387 Q268.1498,184.4584 267.6799,184.5683 Q267.2099,184.6781 266.6911,184.6781 Q264.8478,184.6781 263.8774,183.4635 Q262.9069,182.2489 262.9069,179.954 Q262.9069,177.653 263.8774,176.4384 Q264.8478,175.2238 266.6911,175.2238 Q267.2099,175.2238 267.686,175.3337 Q268.162,175.4435 268.5771,175.6632 L268.5771,177.6652 Q268.1132,177.238 267.6768,177.0396 Q267.2404,176.8412 266.7765,176.8412 Q265.7878,176.8412 265.2842,177.6255 Q264.7807,178.4098 264.7807,179.954 Q264.7807,181.4921 265.2842,182.2764 Q265.7878,183.0607 266.7765,183.0607 Q267.2404,183.0607 267.6768,182.8623 Q268.1132,182.664 268.5771,182.2367 Z " fill="#000000"/><text fill="#D8BC00" font-family="Open Sans,Avenir,Nunito,Arial,Helvetica,SansSerif" font-size="12.5" font-weight="bold" lengthAdjust="spacing" textLength="88.5417" x="289.5833" y="184.5378">PropertyPanel</text><line style="stroke:#5E5E5E;stroke-width:1.5625;" x1="192.1875" x2="444.2708" y1="195.5078" y2="195.5078"/><ellipse cx="202.6042" cy="230.8777" fill="#84BE84" rx="3.125" ry="3.125" style="stroke:#038048;stroke-width:1.0416666666666667;"/><text fill="#D8BC00" font-family="Open Sans,Avenir,Nunito,Arial,Helvetica,SansSerif" font-size="11.4583" lengthAdjust="spacing" textLength="85.4167" x="214.0625" y="237.7889">PropertyPanel()</text><line style="stroke:#5E5E5E;stroke-width:1.0416666666666667;" x1="192.1875" x2="274.4792" y1="213.7136" y2="213.7136"/><text fill="#D8BC00" font-family="Open Sans,Avenir,Nunito,Arial,Helvetica,SansSerif" font-size="11.4583" lengthAdjust="spacing" textLength="81.25" x="277.6042" y="217.5232">(constructors)</text><line style="stroke:#5E5E5E;stroke-width:1.0416666666666667;" x1="361.9792" x2="444.2708" y1="213.7136" y2="213.7136"/><line style="stroke:#5E5E5E;stroke-width:1.0416666666666667;" x1="192.1875" x2="444.2708" y1="247.4976" y2="247.4976"/><ellipse cx="202.6042" cy="258.9559" fill="#84BE84" rx="3.125" ry="3.125" style="stroke:#038048;stroke-width:1.0416666666666667;"/><text fill="#D8BC00" font-family="Open Sans,Avenir,Nunito,Arial,Helvetica,SansSerif" font-size="11.4583" lengthAdjust="spacing" textLength="221.875" x="214.0625" y="265.8671">void property(String label, JComponent)</text><ellipse cx="202.6042" cy="278.7008" fill="#84BE84" rx="3.125" ry="3.125" style="stroke:#038048;stroke-width:1.0416666666666667;"/><text fill="#D8BC00" font-family="Open Sans,Avenir,Nunito,Arial,Helvetica,SansSerif" font-size="11.4583" lengthAdjust="spacing" textLength="218.75" x="214.0625" y="285.612">void property(String label, String value)</text><ellipse cx="202.6042" cy="298.4456" fill="#84BE84" rx="3.125" ry="3.125" style="stroke:#038048;stroke-width:1.0416666666666667;"/><text fill="#D8BC00" font-family="Open Sans,Avenir,Nunito,Arial,Helvetica,SansSerif" font-size="11.4583" lengthAdjust="spacing" textLength="120.8333" x="214.0625" y="305.3569">void space(int height)</text><path codeLine="7" d="M318.2292,122.8799 C318.2292,135.6299 318.2292,149.9111 318.2292,163.9632 " fill="none" id="KivaKitPanel-backto-PropertyPanel" style="stroke:#545454;stroke-width:1.5625;"/><polygon fill="none" points="310.9375,122.7861,318.2292,101.9528,325.5208,122.7861,310.9375,122.7861" style="stroke:#545454;stroke-width:1.5625;"/></g></svg>
