<?xml version="1.0" encoding="UTF-8" standalone="no"?><svg xmlns="http://www.w3.org/2000/svg" xmlns:xlink="http://www.w3.org/1999/xlink" contentScriptType="application/ecmascript" contentStyleType="text/css" height="426.0417px" preserveAspectRatio="none" style="width:492px;height:426px;background:#333333;" version="1.1" viewBox="0 0 492 426" width="492.7083px" zoomAndPan="magnify"><defs/><g><rect fill="#48494B" height="41.2028" rx="8.3333" ry="8.3333" style="stroke:#545454;stroke-width:1.0416666666666667;" width="382.2917" x="48.1771" y="2.0833"/><text fill="#C0C0C0" font-family="Open Sans,Avenir,Nunito,Arial,Helvetica,SansSerif" font-size="20.8333" lengthAdjust="spacing" textLength="359.375" x="59.6354" y="30.5583">kivakit-filesystems-hdfs-proxy-spi</text><rect fill="#1B1B1A" height="44.93" rx="8.3333" ry="8.3333" style="stroke:#5E5E5E;stroke-width:1.5625;" width="138.5417" x="7.2917" y="268.2861"/><polygon fill="#1B1B1A" points="128.125,273.4945,128.125,288.0778,140.625,288.0778,140.625,279.7445,134.375,273.4945,128.125,273.4945" style="stroke:#5E5E5E;stroke-width:1.5625;"/><line style="stroke:#5E5E5E;stroke-width:1.5625;" x1="134.375" x2="134.375" y1="273.4945" y2="279.7445"/><line style="stroke:#5E5E5E;stroke-width:1.5625;" x1="140.625" x2="134.375" y1="279.7445" y2="279.7445"/><text fill="#D8BC00" font-family="Open Sans,Avenir,Nunito,Arial,Helvetica,SansSerif" font-size="12.5" lengthAdjust="spacing" textLength="101.0417" x="20.8333" y="297.0378">cactus_metadata</text><rect fill="#1B1B1A" height="44.93" rx="8.3333" ry="8.3333" style="stroke:#5E5E5E;stroke-width:1.5625;" width="108.3333" x="198.4375" y="160.9945"/><polygon fill="#1B1B1A" points="289.0625,166.2028,289.0625,180.7861,301.5625,180.7861,301.5625,172.4528,295.3125,166.2028,289.0625,166.2028" style="stroke:#5E5E5E;stroke-width:1.5625;"/><line style="stroke:#5E5E5E;stroke-width:1.5625;" x1="295.3125" x2="295.3125" y1="166.2028" y2="172.4528"/><line style="stroke:#5E5E5E;stroke-width:1.5625;" x1="301.5625" x2="295.3125" y1="172.4528" y2="172.4528"/><text fill="#D8BC00" font-family="Open Sans,Avenir,Nunito,Arial,Helvetica,SansSerif" font-size="12.5" lengthAdjust="spacing" textLength="70.8333" x="211.9792" y="189.7461">kivakit_core</text><rect fill="#1B1B1A" height="44.93" rx="8.3333" ry="8.3333" style="stroke:#5E5E5E;stroke-width:1.5625;" width="244.7917" x="130.2083" y="53.7028"/><polygon fill="#1B1B1A" points="357.2917,58.9111,357.2917,73.4945,369.7917,73.4945,369.7917,65.1611,363.5417,58.9111,357.2917,58.9111" style="stroke:#5E5E5E;stroke-width:1.5625;"/><line style="stroke:#5E5E5E;stroke-width:1.5625;" x1="363.5417" x2="363.5417" y1="58.9111" y2="65.1611"/><line style="stroke:#5E5E5E;stroke-width:1.5625;" x1="369.7917" x2="363.5417" y1="65.1611" y2="65.1611"/><text fill="#D8BC00" font-family="Open Sans,Avenir,Nunito,Arial,Helvetica,SansSerif" font-size="12.5" lengthAdjust="spacing" textLength="207.2917" x="143.75" y="82.4544">kivakit_filesystems_hdfs_proxy_spi</text><rect fill="#1B1B1A" height="44.93" rx="8.3333" ry="8.3333" style="stroke:#5E5E5E;stroke-width:1.5625;" width="140.625" x="182.2917" y="268.2861"/><polygon fill="#1B1B1A" points="305.2083,273.4945,305.2083,288.0778,317.7083,288.0778,317.7083,279.7445,311.4583,273.4945,305.2083,273.4945" style="stroke:#5E5E5E;stroke-width:1.5625;"/><line style="stroke:#5E5E5E;stroke-width:1.5625;" x1="311.4583" x2="311.4583" y1="273.4945" y2="279.7445"/><line style="stroke:#5E5E5E;stroke-width:1.5625;" x1="317.7083" x2="311.4583" y1="279.7445" y2="279.7445"/><text fill="#D8BC00" font-family="Open Sans,Avenir,Nunito,Arial,Helvetica,SansSerif" font-size="12.5" lengthAdjust="spacing" textLength="103.125" x="195.8333" y="297.0378">kivakit_interfaces</text><rect fill="#1B1B1A" height="44.93" rx="8.3333" ry="8.3333" style="stroke:#5E5E5E;stroke-width:1.5625;" width="120.8333" x="359.8958" y="268.2861"/><polygon fill="#1B1B1A" points="463.0208,273.4945,463.0208,288.0778,475.5208,288.0778,475.5208,279.7445,469.2708,273.4945,463.0208,273.4945" style="stroke:#5E5E5E;stroke-width:1.5625;"/><line style="stroke:#5E5E5E;stroke-width:1.5625;" x1="469.2708" x2="469.2708" y1="273.4945" y2="279.7445"/><line style="stroke:#5E5E5E;stroke-width:1.5625;" x1="475.5208" x2="469.2708" y1="279.7445" y2="279.7445"/><text fill="#D8BC00" font-family="Open Sans,Avenir,Nunito,Arial,Helvetica,SansSerif" font-size="12.5" lengthAdjust="spacing" textLength="83.3333" x="373.4375" y="297.0378">kivakit_mixins</text><rect fill="#1B1B1A" height="44.93" rx="8.3333" ry="8.3333" style="stroke:#5E5E5E;stroke-width:1.5625;" width="155.2083" x="91.6667" y="375.5778"/><polygon fill="#1B1B1A" points="229.1667,380.7861,229.1667,395.3695,241.6667,395.3695,241.6667,387.0361,235.4167,380.7861,229.1667,380.7861" style="stroke:#5E5E5E;stroke-width:1.5625;"/><line style="stroke:#5E5E5E;stroke-width:1.5625;" x1="235.4167" x2="235.4167" y1="380.7861" y2="387.0361"/><line style="stroke:#5E5E5E;stroke-width:1.5625;" x1="241.6667" x2="235.4167" y1="387.0361" y2="387.0361"/><text fill="#D8BC00" font-family="Open Sans,Avenir,Nunito,Arial,Helvetica,SansSerif" font-size="12.5" lengthAdjust="spacing" textLength="117.7083" x="105.2083" y="404.3294">lexakai_annotations</text><rect fill="#1B1B1A" height="44.93" rx="8.3333" ry="8.3333" style="stroke:#5E5E5E;stroke-width:1.5625;" width="106.25" x="283.8542" y="375.5778"/><polygon fill="#1B1B1A" points="372.3958,380.7861,372.3958,395.3695,384.8958,395.3695,384.8958,387.0361,378.6458,380.7861,372.3958,380.7861" style="stroke:#5E5E5E;stroke-width:1.5625;"/><line style="stroke:#5E5E5E;stroke-width:1.5625;" x1="378.6458" x2="378.6458" y1="380.7861" y2="387.0361"/><line style="stroke:#5E5E5E;stroke-width:1.5625;" x1="384.8958" x2="378.6458" y1="387.0361" y2="387.0361"/><text fill="#D8BC00" font-family="Open Sans,Avenir,Nunito,Arial,Helvetica,SansSerif" font-size="12.5" lengthAdjust="spacing" textLength="68.75" x="297.3958" y="404.3294">annotations</text><path d="M216.5521,205.9736 C187.7188,223.2132 147.2917,247.3695 117.2813,265.307 " fill="none" id="kivakit_core-to-cactus_metadata" style="stroke:#545454;stroke-width:1.5625;"/><polygon fill="#545454" points="112.5625,268.1299,122.7483,266.9044,117.0352,265.4612,118.4784,259.7481,112.5625,268.1299" style="stroke:#545454;stroke-width:1.5625;"/><path d="M252.6042,206.234 C252.6042,222.7028 252.6042,245.4007 252.6042,262.9528 " fill="none" id="kivakit_core-to-kivakit_interfaces" style="stroke:#545454;stroke-width:1.5625;"/><polygon fill="#545454" points="252.6042,268.234,256.7708,258.859,252.6042,263.0257,248.4375,258.859,252.6042,268.234" style="stroke:#545454;stroke-width:1.5625;"/><path d="M286.9479,205.9736 C314.4167,223.2132 352.9375,247.3695 381.5208,265.307 " fill="none" id="kivakit_core-to-kivakit_mixins" style="stroke:#545454;stroke-width:1.5625;"/><polygon fill="#545454" points="386.0104,268.1299,380.2894,259.6139,381.6005,265.3588,375.8556,266.6698,386.0104,268.1299" style="stroke:#545454;stroke-width:1.5625;"/><path d="M252.6042,98.9424 C252.6042,115.4111 252.6042,138.109 252.6042,155.6611 " fill="none" id="kivakit_filesystems_hdfs_proxy_spi-to-kivakit_core" style="stroke:#545454;stroke-width:1.5625;"/><polygon fill="#545454" points="252.6042,160.9424,256.7708,151.5674,252.6042,155.734,248.4375,151.5674,252.6042,160.9424" style="stroke:#545454;stroke-width:1.5625;"/><path d="M270.0833,313.5257 C283.5208,330.2757 302.125,353.4736 316.3021,371.1507 " fill="none" id="kivakit_interfaces-to-annotations" style="stroke:#545454;stroke-width:1.5625;"/><polygon fill="#545454" points="319.8125,375.5257,317.1963,365.6057,316.5534,371.4631,310.6961,370.8202,319.8125,375.5257" style="stroke:#545454;stroke-width:1.5625;"/><path d="M235.3333,313.5257 C222.0625,330.2757 203.6875,353.4736 189.6875,371.1507 " fill="none" id="kivakit_interfaces-to-lexakai_annotations" style="stroke:#545454;stroke-width:1.5625;"/><polygon fill="#545454" points="186.2292,375.5257,195.3075,370.7472,189.4555,371.437,188.7656,365.585,186.2292,375.5257" style="stroke:#545454;stroke-width:1.5625;"/></g></svg>
