<?xml version="1.0" encoding="UTF-8" standalone="no"?><svg xmlns="http://www.w3.org/2000/svg" xmlns:xlink="http://www.w3.org/1999/xlink" contentScriptType="application/ecmascript" contentStyleType="text/css" height="533.3333px" preserveAspectRatio="none" style="width:1616px;height:533px;background:#333333;" version="1.1" viewBox="0 0 1616 533" width="1616.6667px" zoomAndPan="magnify"><defs/><g><rect fill="#48494B" height="41.2028" rx="8.3333" ry="8.3333" style="stroke:#545454;stroke-width:1.0416666666666667;" width="235.4167" x="683.3333" y="2.0833"/><text fill="#C0C0C0" font-family="Open Sans,Avenir,Nunito,Arial,Helvetica,SansSerif" font-size="20.8333" lengthAdjust="spacing" textLength="212.5" x="694.7917" y="30.5583">kivakit-network-http</text><!--MD5=[4aa4ddcf3dc6d6219283db0a9fd05165]
entity cactus_metadata--><rect fill="#1B1B1A" height="44.93" rx="8.3333" ry="8.3333" style="stroke:#5E5E5E;stroke-width:1.5625;" width="175" x="7.2917" y="482.8695"/><polygon fill="#1B1B1A" points="164.5833,488.0778,164.5833,502.6611,177.0833,502.6611,177.0833,494.3278,170.8333,488.0778,164.5833,488.0778" style="stroke:#5E5E5E;stroke-width:1.5625;"/><line style="stroke:#5E5E5E;stroke-width:1.5625;" x1="170.8333" x2="170.8333" y1="488.0778" y2="494.3278"/><line style="stroke:#5E5E5E;stroke-width:1.5625;" x1="177.0833" x2="170.8333" y1="494.3278" y2="494.3278"/><text fill="#D8BC00" font-family="Open Sans,Avenir,Nunito,Arial,Helvetica,SansSerif" font-size="12.5" lengthAdjust="spacing" textLength="137.5" x="20.8333" y="511.6211">cactus_metadata</text><!--MD5=[4facc4376e4b6bfc182ce14f42a813f9]
entity kivakit_collections--><rect fill="#1B1B1A" height="44.93" rx="8.3333" ry="8.3333" style="stroke:#5E5E5E;stroke-width:1.5625;" width="143.75" x="55.2083" y="375.5778"/><polygon fill="#1B1B1A" points="181.25,380.7861,181.25,395.3695,193.75,395.3695,193.75,387.0361,187.5,380.7861,181.25,380.7861" style="stroke:#5E5E5E;stroke-width:1.5625;"/><line style="stroke:#5E5E5E;stroke-width:1.5625;" x1="187.5" x2="187.5" y1="380.7861" y2="387.0361"/><line style="stroke:#5E5E5E;stroke-width:1.5625;" x1="193.75" x2="187.5" y1="387.0361" y2="387.0361"/><text fill="#D8BC00" font-family="Open Sans,Avenir,Nunito,Arial,Helvetica,SansSerif" font-size="12.5" lengthAdjust="spacing" textLength="106.25" x="68.75" y="404.3294">kivakit_collections</text><!--MD5=[b7af8d5b7902cf06664f76dfe0f9e426]
entity kivakit_commandline--><rect fill="#1B1B1A" height="44.93" rx="8.3333" ry="8.3333" style="stroke:#5E5E5E;stroke-width:1.5625;" width="162.5" x="208.3333" y="268.2861"/><polygon fill="#1B1B1A" points="353.125,273.4945,353.125,288.0778,365.625,288.0778,365.625,279.7445,359.375,273.4945,353.125,273.4945" style="stroke:#5E5E5E;stroke-width:1.5625;"/><line style="stroke:#5E5E5E;stroke-width:1.5625;" x1="359.375" x2="359.375" y1="273.4945" y2="279.7445"/><line style="stroke:#5E5E5E;stroke-width:1.5625;" x1="365.625" x2="359.375" y1="279.7445" y2="279.7445"/><text fill="#D8BC00" font-family="Open Sans,Avenir,Nunito,Arial,Helvetica,SansSerif" font-size="12.5" lengthAdjust="spacing" textLength="125" x="221.875" y="297.0378">kivakit_commandline</text><!--MD5=[dafc80021cd29aae9231cf20b1d6436c]
entity kivakit_conversion--><rect fill="#1B1B1A" height="44.93" rx="8.3333" ry="8.3333" style="stroke:#5E5E5E;stroke-width:1.5625;" width="145.8333" x="407.2917" y="268.2861"/><polygon fill="#1B1B1A" points="535.4167,273.4945,535.4167,288.0778,547.9167,288.0778,547.9167,279.7445,541.6667,273.4945,535.4167,273.4945" style="stroke:#5E5E5E;stroke-width:1.5625;"/><line style="stroke:#5E5E5E;stroke-width:1.5625;" x1="541.6667" x2="541.6667" y1="273.4945" y2="279.7445"/><line style="stroke:#5E5E5E;stroke-width:1.5625;" x1="547.9167" x2="541.6667" y1="279.7445" y2="279.7445"/><text fill="#D8BC00" font-family="Open Sans,Avenir,Nunito,Arial,Helvetica,SansSerif" font-size="12.5" lengthAdjust="spacing" textLength="108.3333" x="420.8333" y="297.0378">kivakit_conversion</text><!--MD5=[ae4286fb09ce878b5ed12f89a26eee54]
entity kivakit_core--><rect fill="#1B1B1A" height="44.93" rx="8.3333" ry="8.3333" style="stroke:#5E5E5E;stroke-width:1.5625;" width="108.3333" x="235.4167" y="375.5778"/><polygon fill="#1B1B1A" points="326.0417,380.7861,326.0417,395.3695,338.5417,395.3695,338.5417,387.0361,332.2917,380.7861,326.0417,380.7861" style="stroke:#5E5E5E;stroke-width:1.5625;"/><line style="stroke:#5E5E5E;stroke-width:1.5625;" x1="332.2917" x2="332.2917" y1="380.7861" y2="387.0361"/><line style="stroke:#5E5E5E;stroke-width:1.5625;" x1="338.5417" x2="332.2917" y1="387.0361" y2="387.0361"/><text fill="#D8BC00" font-family="Open Sans,Avenir,Nunito,Arial,Helvetica,SansSerif" font-size="12.5" lengthAdjust="spacing" textLength="70.8333" x="248.9583" y="404.3294">kivakit_core</text><!--MD5=[b582392a7118229602de187c1b0722c2]
entity kivakit_interfaces--><rect fill="#1B1B1A" height="44.93" rx="8.3333" ry="8.3333" style="stroke:#5E5E5E;stroke-width:1.5625;" width="140.625" x="219.2708" y="482.8695"/><polygon fill="#1B1B1A" points="342.1875,488.0778,342.1875,502.6611,354.6875,502.6611,354.6875,494.3278,348.4375,488.0778,342.1875,488.0778" style="stroke:#5E5E5E;stroke-width:1.5625;"/><line style="stroke:#5E5E5E;stroke-width:1.5625;" x1="348.4375" x2="348.4375" y1="488.0778" y2="494.3278"/><line style="stroke:#5E5E5E;stroke-width:1.5625;" x1="354.6875" x2="348.4375" y1="494.3278" y2="494.3278"/><text fill="#D8BC00" font-family="Open Sans,Avenir,Nunito,Arial,Helvetica,SansSerif" font-size="12.5" lengthAdjust="spacing" textLength="103.125" x="232.8125" y="511.6211">kivakit_interfaces</text><!--MD5=[155c7293f864675051139bd0dee90fee]
entity kivakit_internal_testing--><rect fill="#1B1B1A" height="44.93" rx="8.3333" ry="8.3333" style="stroke:#5E5E5E;stroke-width:1.5625;" width="172.9167" x="761.4583" y="268.2861"/><polygon fill="#1B1B1A" points="916.6667,273.4945,916.6667,288.0778,929.1667,288.0778,929.1667,279.7445,922.9167,273.4945,916.6667,273.4945" style="stroke:#5E5E5E;stroke-width:1.5625;"/><line style="stroke:#5E5E5E;stroke-width:1.5625;" x1="922.9167" x2="922.9167" y1="273.4945" y2="279.7445"/><line style="stroke:#5E5E5E;stroke-width:1.5625;" x1="929.1667" x2="922.9167" y1="279.7445" y2="279.7445"/><text fill="#D8BC00" font-family="Open Sans,Avenir,Nunito,Arial,Helvetica,SansSerif" font-size="12.5" lengthAdjust="spacing" textLength="135.4167" x="775" y="297.0378">kivakit_internal_testing</text><!--MD5=[f41257055ff6c31a77f8312d5e694f18]
entity kivakit_mixins--><rect fill="#1B1B1A" height="44.93" rx="8.3333" ry="8.3333" style="stroke:#5E5E5E;stroke-width:1.5625;" width="120.8333" x="396.875" y="482.8695"/><polygon fill="#1B1B1A" points="500,488.0778,500,502.6611,512.5,502.6611,512.5,494.3278,506.25,488.0778,500,488.0778" style="stroke:#5E5E5E;stroke-width:1.5625;"/><line style="stroke:#5E5E5E;stroke-width:1.5625;" x1="506.25" x2="506.25" y1="488.0778" y2="494.3278"/><line style="stroke:#5E5E5E;stroke-width:1.5625;" x1="512.5" x2="506.25" y1="494.3278" y2="494.3278"/><text fill="#D8BC00" font-family="Open Sans,Avenir,Nunito,Arial,Helvetica,SansSerif" font-size="12.5" lengthAdjust="spacing" textLength="83.3333" x="410.4167" y="511.6211">kivakit_mixins</text><!--MD5=[69aef7896e565a816d1082fbfba261ce]
entity kivakit_network_core--><rect fill="#1B1B1A" height="44.93" rx="8.3333" ry="8.3333" style="stroke:#5E5E5E;stroke-width:1.5625;" width="162.5" x="487.5" y="160.9945"/><polygon fill="#1B1B1A" points="632.2917,166.2028,632.2917,180.7861,644.7917,180.7861,644.7917,172.4528,638.5417,166.2028,632.2917,166.2028" style="stroke:#5E5E5E;stroke-width:1.5625;"/><line style="stroke:#5E5E5E;stroke-width:1.5625;" x1="638.5417" x2="638.5417" y1="166.2028" y2="172.4528"/><line style="stroke:#5E5E5E;stroke-width:1.5625;" x1="644.7917" x2="638.5417" y1="172.4528" y2="172.4528"/><text fill="#D8BC00" font-family="Open Sans,Avenir,Nunito,Arial,Helvetica,SansSerif" font-size="12.5" lengthAdjust="spacing" textLength="125" x="501.0417" y="189.7461">kivakit_network_core</text><!--MD5=[619e5058bf9878b2704e3a37e8725778]
entity kivakit_network_http--><rect fill="#1B1B1A" height="44.93" rx="8.3333" ry="8.3333" style="stroke:#5E5E5E;stroke-width:1.5625;" width="160.4167" x="867.7083" y="53.7028"/><polygon fill="#1B1B1A" points="1010.4167,58.9111,1010.4167,73.4945,1022.9167,73.4945,1022.9167,65.1611,1016.6667,58.9111,1010.4167,58.9111" style="stroke:#5E5E5E;stroke-width:1.5625;"/><line style="stroke:#5E5E5E;stroke-width:1.5625;" x1="1016.6667" x2="1016.6667" y1="58.9111" y2="65.1611"/><line style="stroke:#5E5E5E;stroke-width:1.5625;" x1="1022.9167" x2="1016.6667" y1="65.1611" y2="65.1611"/><text fill="#D8BC00" font-family="Open Sans,Avenir,Nunito,Arial,Helvetica,SansSerif" font-size="12.5" lengthAdjust="spacing" textLength="122.9167" x="881.25" y="82.4544">kivakit_network_http</text><!--MD5=[789122fdd47ca161e4432768ac68a470]
entity kivakit_resource--><rect fill="#1B1B1A" height="44.93" rx="8.3333" ry="8.3333" style="stroke:#5E5E5E;stroke-width:1.5625;" width="134.375" x="590.1042" y="268.2861"/><polygon fill="#1B1B1A" points="706.7708,273.4945,706.7708,288.0778,719.2708,288.0778,719.2708,279.7445,713.0208,273.4945,706.7708,273.4945" style="stroke:#5E5E5E;stroke-width:1.5625;"/><line style="stroke:#5E5E5E;stroke-width:1.5625;" x1="713.0208" x2="713.0208" y1="273.4945" y2="279.7445"/><line style="stroke:#5E5E5E;stroke-width:1.5625;" x1="719.2708" x2="713.0208" y1="279.7445" y2="279.7445"/><text fill="#D8BC00" font-family="Open Sans,Avenir,Nunito,Arial,Helvetica,SansSerif" font-size="12.5" lengthAdjust="spacing" textLength="96.875" x="603.6458" y="297.0378">kivakit_resource</text><!--MD5=[093cb7b544ec48262295604d6acff019]
entity kivakit_testing--><rect fill="#1B1B1A" height="44.93" rx="8.3333" ry="8.3333" style="stroke:#5E5E5E;stroke-width:1.5625;" width="121.875" x="886.9792" y="160.9945"/><polygon fill="#1B1B1A" points="991.1458,166.2028,991.1458,180.7861,1003.6458,180.7861,1003.6458,172.4528,997.3958,166.2028,991.1458,166.2028" style="stroke:#5E5E5E;stroke-width:1.5625;"/><line style="stroke:#5E5E5E;stroke-width:1.5625;" x1="997.3958" x2="997.3958" y1="166.2028" y2="172.4528"/><line style="stroke:#5E5E5E;stroke-width:1.5625;" x1="1003.6458" x2="997.3958" y1="172.4528" y2="172.4528"/><text fill="#D8BC00" font-family="Open Sans,Avenir,Nunito,Arial,Helvetica,SansSerif" font-size="12.5" lengthAdjust="spacing" textLength="84.375" x="900.5208" y="189.7461">kivakit_testing</text><!--MD5=[80d2a7f8a38f99556dcaa88e0cbe286e]
entity kivakit_validation--><rect fill="#1B1B1A" height="44.93" rx="8.3333" ry="8.3333" style="stroke:#5E5E5E;stroke-width:1.5625;" width="139.5833" x="380.2083" y="375.5778"/><polygon fill="#1B1B1A" points="502.0833,380.7861,502.0833,395.3695,514.5833,395.3695,514.5833,387.0361,508.3333,380.7861,502.0833,380.7861" style="stroke:#5E5E5E;stroke-width:1.5625;"/><line style="stroke:#5E5E5E;stroke-width:1.5625;" x1="508.3333" x2="508.3333" y1="380.7861" y2="387.0361"/><line style="stroke:#5E5E5E;stroke-width:1.5625;" x1="514.5833" x2="508.3333" y1="387.0361" y2="387.0361"/><text fill="#D8BC00" font-family="Open Sans,Avenir,Nunito,Arial,Helvetica,SansSerif" font-size="12.5" lengthAdjust="spacing" textLength="102.0833" x="393.75" y="404.3294">kivakit_validation</text><!--MD5=[7b0fec798d1f32628676dfdf75f1f662]
entity lexakai_annotations--><rect fill="#1B1B1A" height="44.93" rx="8.3333" ry="8.3333" style="stroke:#5E5E5E;stroke-width:1.5625;" width="155.2083" x="971.3542" y="268.2861"/><polygon fill="#1B1B1A" points="1108.8542,273.4945,1108.8542,288.0778,1121.3542,288.0778,1121.3542,279.7445,1115.1042,273.4945,1108.8542,273.4945" style="stroke:#5E5E5E;stroke-width:1.5625;"/><line style="stroke:#5E5E5E;stroke-width:1.5625;" x1="1115.1042" x2="1115.1042" y1="273.4945" y2="279.7445"/><line style="stroke:#5E5E5E;stroke-width:1.5625;" x1="1121.3542" x2="1115.1042" y1="279.7445" y2="279.7445"/><text fill="#D8BC00" font-family="Open Sans,Avenir,Nunito,Arial,Helvetica,SansSerif" font-size="12.5" lengthAdjust="spacing" textLength="117.7083" x="984.8958" y="297.0378">lexakai_annotations</text><!--MD5=[9fc9c5f092413c11c1c25bc16308703f]
entity commons_codec--><rect fill="#1B1B1A" height="44.93" rx="8.3333" ry="8.3333" style="stroke:#5E5E5E;stroke-width:1.5625;" width="136.4583" x="1163.0208" y="268.2861"/><polygon fill="#1B1B1A" points="1281.7708,273.4945,1281.7708,288.0778,1294.2708,288.0778,1294.2708,279.7445,1288.0208,273.4945,1281.7708,273.4945" style="stroke:#5E5E5E;stroke-width:1.5625;"/><line style="stroke:#5E5E5E;stroke-width:1.5625;" x1="1288.0208" x2="1288.0208" y1="273.4945" y2="279.7445"/><line style="stroke:#5E5E5E;stroke-width:1.5625;" x1="1294.2708" x2="1288.0208" y1="279.7445" y2="279.7445"/><text fill="#D8BC00" font-family="Open Sans,Avenir,Nunito,Arial,Helvetica,SansSerif" font-size="12.5" lengthAdjust="spacing" textLength="98.9583" x="1176.5625" y="297.0378">commons_codec</text><!--MD5=[2389a778b156a3639a4bce3531bc29c3]
entity commons_logging--><rect fill="#1B1B1A" height="44.93" rx="8.3333" ry="8.3333" style="stroke:#5E5E5E;stroke-width:1.5625;" width="143.75" x="1336.4583" y="268.2861"/><polygon fill="#1B1B1A" points="1462.5,273.4945,1462.5,288.0778,1475,288.0778,1475,279.7445,1468.75,273.4945,1462.5,273.4945" style="stroke:#5E5E5E;stroke-width:1.5625;"/><line style="stroke:#5E5E5E;stroke-width:1.5625;" x1="1468.75" x2="1468.75" y1="273.4945" y2="279.7445"/><line style="stroke:#5E5E5E;stroke-width:1.5625;" x1="1475" x2="1468.75" y1="279.7445" y2="279.7445"/><text fill="#D8BC00" font-family="Open Sans,Avenir,Nunito,Arial,Helvetica,SansSerif" font-size="12.5" lengthAdjust="spacing" textLength="106.25" x="1350" y="297.0378">commons_logging</text><!--MD5=[ce55b294004802c137560c2930be5b75]
entity junit--><rect fill="#1B1B1A" height="44.93" rx="8.3333" ry="8.3333" style="stroke:#5E5E5E;stroke-width:1.5625;" width="63.5417" x="754.6875" y="375.5778"/><polygon fill="#1B1B1A" points="800.5208,380.7861,800.5208,395.3695,813.0208,395.3695,813.0208,387.0361,806.7708,380.7861,800.5208,380.7861" style="stroke:#5E5E5E;stroke-width:1.5625;"/><line style="stroke:#5E5E5E;stroke-width:1.5625;" x1="806.7708" x2="806.7708" y1="380.7861" y2="387.0361"/><line style="stroke:#5E5E5E;stroke-width:1.5625;" x1="813.0208" x2="806.7708" y1="387.0361" y2="387.0361"/><text fill="#D8BC00" font-family="Open Sans,Avenir,Nunito,Arial,Helvetica,SansSerif" font-size="12.5" lengthAdjust="spacing" textLength="26.0417" x="768.2292" y="404.3294">junit</text><!--MD5=[4d84dd946d4c44d64e4fb3c2bb10389a]
entity httpclient--><rect fill="#1B1B1A" height="44.93" rx="8.3333" ry="8.3333" style="stroke:#5E5E5E;stroke-width:1.5625;" width="92.7083" x="1273.4375" y="160.9945"/><polygon fill="#1B1B1A" points="1348.4375,166.2028,1348.4375,180.7861,1360.9375,180.7861,1360.9375,172.4528,1354.6875,166.2028,1348.4375,166.2028" style="stroke:#5E5E5E;stroke-width:1.5625;"/><line style="stroke:#5E5E5E;stroke-width:1.5625;" x1="1354.6875" x2="1354.6875" y1="166.2028" y2="172.4528"/><line style="stroke:#5E5E5E;stroke-width:1.5625;" x1="1360.9375" x2="1354.6875" y1="172.4528" y2="172.4528"/><text fill="#D8BC00" font-family="Open Sans,Avenir,Nunito,Arial,Helvetica,SansSerif" font-size="12.5" lengthAdjust="spacing" textLength="55.2083" x="1286.9792" y="189.7461">httpclient</text><!--MD5=[1374b169c6b8870e9ee15755210fd002]
entity httpcore--><rect fill="#1B1B1A" height="44.93" rx="8.3333" ry="8.3333" style="stroke:#5E5E5E;stroke-width:1.5625;" width="87.5" x="1516.6667" y="268.2861"/><polygon fill="#1B1B1A" points="1586.4583,273.4945,1586.4583,288.0778,1598.9583,288.0778,1598.9583,279.7445,1592.7083,273.4945,1586.4583,273.4945" style="stroke:#5E5E5E;stroke-width:1.5625;"/><line style="stroke:#5E5E5E;stroke-width:1.5625;" x1="1592.7083" x2="1592.7083" y1="273.4945" y2="279.7445"/><line style="stroke:#5E5E5E;stroke-width:1.5625;" x1="1598.9583" x2="1592.7083" y1="279.7445" y2="279.7445"/><text fill="#D8BC00" font-family="Open Sans,Avenir,Nunito,Arial,Helvetica,SansSerif" font-size="12.5" lengthAdjust="spacing" textLength="50" x="1530.2083" y="297.0378">httpcore</text><!--MD5=[7f157d37bc1fd6ac970bb67ffdbc66a3]
entity hamcrest_core--><rect fill="#1B1B1A" height="44.93" rx="8.3333" ry="8.3333" style="stroke:#5E5E5E;stroke-width:1.5625;" width="125" x="723.9583" y="482.8695"/><polygon fill="#1B1B1A" points="831.25,488.0778,831.25,502.6611,843.75,502.6611,843.75,494.3278,837.5,488.0778,831.25,488.0778" style="stroke:#5E5E5E;stroke-width:1.5625;"/><line style="stroke:#5E5E5E;stroke-width:1.5625;" x1="837.5" x2="837.5" y1="488.0778" y2="494.3278"/><line style="stroke:#5E5E5E;stroke-width:1.5625;" x1="843.75" x2="837.5" y1="494.3278" y2="494.3278"/><text fill="#D8BC00" font-family="Open Sans,Avenir,Nunito,Arial,Helvetica,SansSerif" font-size="12.5" lengthAdjust="spacing" textLength="87.5" x="737.5" y="511.6211">hamcrest_core</text><!--MD5=[b728e17b4e4da6aa8cb97e9b2766c5e6]
entity annotations--><rect fill="#1B1B1A" height="44.93" rx="8.3333" ry="8.3333" style="stroke:#5E5E5E;stroke-width:1.5625;" width="106.25" x="855.2083" y="375.5778"/><polygon fill="#1B1B1A" points="943.75,380.7861,943.75,395.3695,956.25,395.3695,956.25,387.0361,950,380.7861,943.75,380.7861" style="stroke:#5E5E5E;stroke-width:1.5625;"/><line style="stroke:#5E5E5E;stroke-width:1.5625;" x1="950" x2="950" y1="380.7861" y2="387.0361"/><line style="stroke:#5E5E5E;stroke-width:1.5625;" x1="956.25" x2="950" y1="387.0361" y2="387.0361"/><text fill="#D8BC00" font-family="Open Sans,Avenir,Nunito,Arial,Helvetica,SansSerif" font-size="12.5" lengthAdjust="spacing" textLength="68.75" x="868.75" y="404.3294">annotations</text><!--MD5=[923ee6a6eae3e1d757d269661300cab9]
link httpclient to commons_codec--><path d="M1301.4479,206.234 C1287.3438,222.984 1267.8229,246.182 1252.9479,263.859 " fill="none" id="httpclient-to-commons_codec" style="stroke:#545454;stroke-width:1.5625;"/><polygon fill="#545454" points="1249.2708,268.234,1258.4998,263.7533,1252.6285,264.2524,1252.1293,258.3811,1249.2708,268.234" style="stroke:#545454;stroke-width:1.5625;"/><!--MD5=[c333db81a2cf180100c7f76536e57fe3]
link httpclient to commons_logging--><path d="M1338.1354,206.234 C1352.2396,222.984 1371.7604,246.182 1386.6354,263.859 " fill="none" id="httpclient-to-commons_logging" style="stroke:#545454;stroke-width:1.5625;"/><polygon fill="#545454" points="1390.3125,268.234,1387.4541,258.3811,1386.9549,264.2524,1381.0835,263.7533,1390.3125,268.234" style="stroke:#545454;stroke-width:1.5625;"/><!--MD5=[eb2a6f0c186b5b958ac6ddd5ba3b959e]
link httpclient to httpcore--><path d="M1366.1875,204.7132 C1407.9167,222.9632 1469.0208,249.682 1511.5104,268.2549 " fill="none" id="httpclient-to-httpcore" style="stroke:#545454;stroke-width:1.5625;"/><polygon fill="#545454" points="1516.5938,270.484,1509.6662,262.917,1511.8197,268.4019,1506.3348,270.5554,1516.5938,270.484" style="stroke:#545454;stroke-width:1.5625;"/><!--MD5=[d68e7c4b3ca5f037bcb6997a0b4ed16b]
link junit to hamcrest_core--><path d="M786.4583,420.8174 C786.4583,437.2861 786.4583,459.984 786.4583,477.5361 " fill="none" id="junit-to-hamcrest_core" style="stroke:#545454;stroke-width:1.5625;"/><polygon fill="#545454" points="786.4583,482.8174,790.625,473.4424,786.4583,477.609,782.2917,473.4424,786.4583,482.8174" style="stroke:#545454;stroke-width:1.5625;"/><!--MD5=[9286c1a5f216d35026583190a4d72b78]
link kivakit_commandline to kivakit_collections--><path d="M256.3021,313.2653 C229.8021,330.432 192.6771,354.4632 165.0208,372.3695 " fill="none" id="kivakit_commandline-to-kivakit_collections" style="stroke:#545454;stroke-width:1.5625;"/><polygon fill="#545454" points="160.3125,375.4215,170.4479,373.8325,164.6869,372.5946,165.9248,366.8335,160.3125,375.4215" style="stroke:#545454;stroke-width:1.5625;"/><!--MD5=[943c04cd0fe752834cf06c59f408a839]
link kivakit_commandline to kivakit_core--><path d="M289.5833,313.5257 C289.5833,329.9945 289.5833,352.6924 289.5833,370.2445 " fill="none" id="kivakit_commandline-to-kivakit_core" style="stroke:#545454;stroke-width:1.5625;"/><polygon fill="#545454" points="289.5833,375.5257,293.75,366.1507,289.5833,370.3174,285.4167,366.1507,289.5833,375.5257" style="stroke:#545454;stroke-width:1.5625;"/><!--MD5=[233173b8414f4008c96b85f34b766932]
link kivakit_commandline to kivakit_validation--><path d="M322.4375,313.2653 C348.6042,330.432 385.25,354.4632 412.5521,372.3695 " fill="none" id="kivakit_commandline-to-kivakit_validation" style="stroke:#545454;stroke-width:1.5625;"/><polygon fill="#545454" points="417.1979,375.4215,411.6402,366.7981,412.8416,372.5669,407.0728,373.7682,417.1979,375.4215" style="stroke:#545454;stroke-width:1.5625;"/><!--MD5=[a27c71d033f650a74e689916edfa2bee]
link kivakit_core to cactus_metadata--><path d="M249.6979,420.557 C217.6563,437.859 172.6771,462.1507 139.4479,480.109 " fill="none" id="kivakit_core-to-cactus_metadata" style="stroke:#545454;stroke-width:1.5625;"/><polygon fill="#545454" points="134.625,482.7132,144.8545,481.9332,139.2098,480.2422,140.9009,474.5975,134.625,482.7132" style="stroke:#545454;stroke-width:1.5625;"/><!--MD5=[50e8d2e340cfb1a2dae3d5796adb8458]
link kivakit_core to kivakit_interfaces--><path d="M289.5833,420.8174 C289.5833,437.2861 289.5833,459.984 289.5833,477.5361 " fill="none" id="kivakit_core-to-kivakit_interfaces" style="stroke:#545454;stroke-width:1.5625;"/><polygon fill="#545454" points="289.5833,482.8174,293.75,473.4424,289.5833,477.609,285.4167,473.4424,289.5833,482.8174" style="stroke:#545454;stroke-width:1.5625;"/><!--MD5=[cc9720141deba8e1bd3912e4e0759165]
link kivakit_core to kivakit_mixins--><path d="M323.9271,420.557 C351.3958,437.7965 389.9167,461.9528 418.5,479.8903 " fill="none" id="kivakit_core-to-kivakit_mixins" style="stroke:#545454;stroke-width:1.5625;"/><polygon fill="#545454" points="422.9896,482.7132,417.2686,474.1972,418.5796,479.9421,412.8348,481.2532,422.9896,482.7132" style="stroke:#545454;stroke-width:1.5625;"/><!--MD5=[4b82e2a0b2f04a403edf9234c3d60217]
link kivakit_internal_testing to annotations--><path d="M860.4375,313.5257 C869.9792,330.1403 883.1563,353.0778 893.2708,370.7028 " fill="none" id="kivakit_internal_testing-to-annotations" style="stroke:#545454;stroke-width:1.5625;"/><polygon fill="#545454" points="896.0417,375.5257,894.9863,365.3209,893.448,371.0091,887.7598,369.4708,896.0417,375.5257" style="stroke:#545454;stroke-width:1.5625;"/><!--MD5=[5b546c273a7ef3c2ac177c7373ad10f4]
link kivakit_internal_testing to junit--><path d="M835.1875,313.5257 C825.4792,330.1403 812.0729,353.0778 801.7813,370.7028 " fill="none" id="kivakit_internal_testing-to-junit" style="stroke:#545454;stroke-width:1.5625;"/><polygon fill="#545454" points="798.9688,375.5257,807.2891,369.5238,801.5912,371.0258,800.0893,365.3279,798.9688,375.5257" style="stroke:#545454;stroke-width:1.5625;"/><!--MD5=[af7e692cd727b0a63828c0c33aa81240]
link kivakit_network_core to kivakit_commandline--><path d="M511.9167,205.8486 C465.2188,223.4528 399.1771,248.3382 351.2083,266.4111 " fill="none" id="kivakit_network_core-to-kivakit_commandline" style="stroke:#545454;stroke-width:1.5625;"/><polygon fill="#545454" points="346.3333,268.2549,356.5766,268.8268,351.2033,266.4082,353.6219,261.0348,346.3333,268.2549" style="stroke:#545454;stroke-width:1.5625;"/><!--MD5=[9bb584e9c76084b7a27dcc62deb64b83]
link kivakit_network_core to kivakit_conversion--><path d="M550.4063,206.234 C536.3021,222.984 516.7813,246.182 501.9063,263.859 " fill="none" id="kivakit_network_core-to-kivakit_conversion" style="stroke:#545454;stroke-width:1.5625;"/><polygon fill="#545454" points="498.2292,268.234,507.4582,263.7533,501.5868,264.2524,501.0876,258.3811,498.2292,268.234" style="stroke:#545454;stroke-width:1.5625;"/><!--MD5=[a3c7b599ee179008fb6e6c2769423111]
link kivakit_network_core to kivakit_resource--><path d="M587.0938,206.234 C601.1979,222.984 620.7188,246.182 635.5938,263.859 " fill="none" id="kivakit_network_core-to-kivakit_resource" style="stroke:#545454;stroke-width:1.5625;"/><polygon fill="#545454" points="639.2708,268.234,636.4124,258.3811,635.9132,264.2524,630.0418,263.7533,639.2708,268.234" style="stroke:#545454;stroke-width:1.5625;"/><!--MD5=[2da4dac6dcd51ddfc920d13d409dac31]
link kivakit_network_http to httpclient--><path d="M1023.6146,98.557 C1096.4271,119.1611 1204.5417,149.7445 1268.0208,167.7028 " fill="none" id="kivakit_network_http-to-httpclient" style="stroke:#545454;stroke-width:1.5625;"/><polygon fill="#545454" points="1273.2708,169.182,1265.378,162.6279,1268.2579,167.7688,1263.117,170.6487,1273.2708,169.182" style="stroke:#545454;stroke-width:1.5625;"/><!--MD5=[45c204851fd38ebf06aead51207b0728]
link kivakit_network_http to kivakit_network_core--><path d="M870.7292,98.557 C806.7917,116.2965 716.1458,141.4528 650.875,159.557 " fill="none" id="kivakit_network_http-to-kivakit_network_core" style="stroke:#545454;stroke-width:1.5625;"/><polygon fill="#545454" points="645.8333,160.9632,655.9778,162.4935,650.855,159.5815,653.767,154.4588,645.8333,160.9632" style="stroke:#545454;stroke-width:1.5625;"/><!--MD5=[a8e1572c5c5504022dcbeb0da201b13e]
link kivakit_network_http to kivakit_testing--><path d="M947.9167,98.9424 C947.9167,115.4111 947.9167,138.109 947.9167,155.6611 " fill="none" id="kivakit_network_http-to-kivakit_testing" style="stroke:#545454;stroke-width:1.5625;"/><polygon fill="#545454" points="947.9167,160.9424,952.0833,151.5674,947.9167,155.734,943.75,151.5674,947.9167,160.9424" style="stroke:#545454;stroke-width:1.5625;"/><!--MD5=[3d312d8b1cc36eed503155bb7da7af54]
link kivakit_testing to kivakit_internal_testing--><path d="M927.1979,206.234 C911.1354,223.1299 888.8438,246.5778 871.9896,264.307 " fill="none" id="kivakit_testing-to-kivakit_internal_testing" style="stroke:#545454;stroke-width:1.5625;"/><polygon fill="#545454" points="868.2708,268.234,877.7462,264.3011,871.8557,264.4558,871.701,258.5653,868.2708,268.234" style="stroke:#545454;stroke-width:1.5625;"/><!--MD5=[c6853ac292364894b6592ed62b55b579]
link kivakit_testing to lexakai_annotations--><path d="M968.8542,206.234 C985.0833,223.1299 1007.6042,246.5778 1024.6354,264.307 " fill="none" id="kivakit_testing-to-lexakai_annotations" style="stroke:#545454;stroke-width:1.5625;"/><polygon fill="#545454" points="1028.3958,268.234,1024.9266,258.5792,1024.7957,264.4703,1018.9046,264.3394,1028.3958,268.234" style="stroke:#545454;stroke-width:1.5625;"/><!--MD5=[ae7f521972be7982f121486ee5084f21]
@startuml

    !include lexakai.theme
    
    title "kivakit-network-http"
    
    artifact cactus_metadata
    artifact kivakit_collections
    artifact kivakit_commandline
    artifact kivakit_conversion
    artifact kivakit_core
    artifact kivakit_interfaces
    artifact kivakit_internal_testing
    artifact kivakit_mixins
    artifact kivakit_network_core
    artifact kivakit_network_http
    artifact kivakit_resource
    artifact kivakit_testing
    artifact kivakit_validation
    artifact lexakai_annotations
    artifact commons_codec
    artifact commons_logging
    artifact junit
    artifact httpclient
    artifact httpcore
    artifact hamcrest_core
    artifact annotations
    httpclient - -> commons_codec
    httpclient - -> commons_logging
    httpclient - -> httpcore
    junit - -> hamcrest_core
    kivakit_commandline - -> kivakit_collections
    kivakit_commandline - -> kivakit_core
    kivakit_commandline - -> kivakit_validation
    kivakit_core - -> cactus_metadata
    kivakit_core - -> kivakit_interfaces
    kivakit_core - -> kivakit_mixins
    kivakit_internal_testing - -> annotations
    kivakit_internal_testing - -> junit
    kivakit_network_core - -> kivakit_commandline
    kivakit_network_core - -> kivakit_conversion
    kivakit_network_core - -> kivakit_resource
    kivakit_network_http - -> httpclient
    kivakit_network_http - -> kivakit_network_core
    kivakit_network_http - -> kivakit_testing
    kivakit_testing - -> kivakit_internal_testing
    kivakit_testing - -> lexakai_annotations
    
@enduml

@startuml









skinparam backgroundColor #333333






skinparam  {
    defaultFontName   "Open Sans,Avenir,Nunito,Arial,Helvetica,SansSerif"
    defaultFontSize   12
    defaultTextAlignment left
    shadowing false
    RoundCorner 10
    TitleFontSize 18
}

skinparam defaultFontName       "Open Sans,Avenir,Nunito,Arial,Helvetica,SansSerif"
skinparam defaultFontSize       12
skinparam dpi                   100
skinparam shadowing             false
skinparam roundcorner           16
skinparam ParticipantPadding    40
skinparam BoxPadding            40
skinparam Padding               3
skinparam ArrowColor            #545454
skinparam stereotype {
    CBackgroundColor #0066cf
    CBorderColor #0086ef
    ABackgroundColor #C8Ac00
    ABorderColor #D8Bc00
    IBackgroundColor #008400
    IBorderColor #239c23
    EBackgroundColor #cf6300
    EBorderColor #ef8300
    NBackgroundColor #3380b9
    NBorderColor #004d86
}
skinparam title {
	FontColor	                 #c0c0c0
 	BorderColor                  #545454
	FontSize	    	         20
	BorderRoundCorner            16
	BorderThickness 	         1
	BackgroundColor              #48494b
}


skinparam legend {
	BackgroundColor #303030
	BorderColor #404040
	FontColor #a0a0a0
}

	skinparam swimlane {
	BorderColor #5e5e5e
	BorderThickness 2
	TitleBackgroundColor  #6d6d6d-#484848
	TitleFontColor #303030
}

skinparam activity {
		FontColor #C8Ac00
	BorderColor #333333
	BackgroundColor #333333-#333333
	BarColor #00FF00
	StartColor #0060a8
	EndColor #0060a8
	DiamondBackgroundColor #6d6d6d-#3a3a3a
  	DiamondBorderColor #3a3a3a
  	DiamondFontColor #fefefe
}


skinparam participant {
		FontColor #C8Ac00
	BorderColor #333333
	BackgroundColor #333333-#333333
	ParticipantBorderThickness 2
}


skinparam actor {
		FontColor #C8Ac00
	BorderColor #333333
	BackgroundColor #333333-#333333
}


skinparam arrow {
	Thickness 1.5
	Color #545454
	FontColor #a0a0a0
    FontStyle bold
    MessageAlignment center
}



skinparam sequence {
	BorderColor #303030
	TitleFontColor #303030
	BackgroundColor #333333
	StartColor #303030
	EndColor #303030
	BoxBackgroundColor #333333
	BoxBorderColor #484848
	BoxFontColor #484848
	LifeLineBorderColor #484848
	LifeLineBorderThickness 2
	LifeLineBackgroundColor #3a3a3a
	GroupBorderColor #484848
	GroupFontColor #484848
	GroupHeaderFontColor #0060a8
	GroupBackgroundColor #484848
	GroupHeaderBackgroundColor #333333
	DividerBackgroundColor #484848
    DividerBorderColor #484848
    DividerBorderThickness 2
    DividerFontColor #D8Bc00
	ReferenceBackgroundColor #333333
	ReferenceBorderColor #484848
	ReferenceFontColor #fefefe
	ReferenceHeaderBackgroundColor #484848
}


skinparam partition {
	BorderColor #303030
	FontColor #333333
	BackgroundColor #333333
}


skinparam collections {
		FontColor #C8Ac00
	BorderColor #333333
	BackgroundColor #333333-#333333
}


skinparam control {
		FontColor #C8Ac00
	BorderColor #333333
	BackgroundColor #333333-#333333
}


skinparam entity {
		FontColor #C8Ac00
	BorderColor #333333
	BackgroundColor #333333-#333333
}


skinparam boundary {
		FontColor #C8Ac00
	BorderColor #333333
	BackgroundColor #333333-#333333
}


skinparam agent {
	BackgroundColor #ff8000
	BorderColor #ff9933
	FontColor #484848
}


skinparam note {
	BorderThickness 1
	BackgroundColor #1b1b1a
	BorderColor #5e5e5e
	FontSize 11
	FontColor #a0a0a0
}


skinparam artifact {
	BorderThickness 10
	BorderColor #5e5e5e
	BackgroundColor #1b1b1a
	FontColor #D8Bc00
}


skinparam component {
		FontColor #C8Ac00
	BorderColor #333333
	BackgroundColor #333333-#333333
}


skinparam interface {
	BackgroundColor  #008400
	BorderColor  #007F00
	FontColor #484848
}


skinparam storage {
	BackgroundColor #ff8000
  	BorderColor #cc6600
	FontColor #222222
}


skinparam node {
	BackgroundColor #333333
	BorderColor #333333
	FontColor #C8Ac00
}


skinparam cloud {
	BackgroundColor #484848-black
	BorderColor #484848
	FontColor #D8Bc00
}


skinparam database {
		FontColor #C8Ac00
	BorderColor #333333
	BackgroundColor #333333-#333333
	BackgroundColor  #333333
}


skinparam class {
		FontColor #C8Ac00
	BorderColor #333333
	BackgroundColor #333333-#333333
	HeaderBackgroundColor #1b1b1a
    BackgroundColor #282828
    BorderColor #5e5e5e
 	StereotypeFontColor #a0a0a0
    StereotypeFontStyle bold
	BorderThickness 1
	AttributeFontColor #D8Bc00
	AttributeFontSize 11
    FontColor #D8Bc00
    FontStyle bold
}


skinparam object {
		FontColor #C8Ac00
	BorderColor #333333
	BackgroundColor #333333-#333333
	StereotypeFontColor #484848
	BorderThickness 1
	AttributeFontColor #fefefe
	AttributeFontSize 11
}


skinparam usecase {
		FontColor #C8Ac00
	BorderColor #333333
	BackgroundColor #333333-#333333
	BorderThickness 2
	StereotypeFontColor #303030
}


skinparam rectangle {
		FontColor #C8Ac00
	BorderColor #333333
	BackgroundColor #333333-#333333
	BackgroundColor #333333
	BorderThickness 2
	StereotypeFontColor #303030
}


skinparam package {
		FontColor #C8Ac00
	BorderColor #333333
	BackgroundColor #333333-#333333
	BackgroundColor #333333
	BorderThickness 2
}


skinparam folder {
	BackgroundColor #6d6d6d
  	BorderColor #ff8000
	FontColor #ff8000
	BorderThickness 2
}


skinparam frame {
	BackgroundColor #6d6d6d
  	BorderColor #0060a8
	FontColor #0060a8
	BorderThickness 2
}


skinparam state {
		FontColor #C8Ac00
	BorderColor #333333
	BackgroundColor #333333-#333333
	StartColor #0060a8
	EndColor #0060a8
	AttributeFontColor #fefefe
	AttributeFontSize 11
}


skinparam queue {
		FontColor #C8Ac00
	BorderColor #333333
	BackgroundColor #333333-#333333
}


skinparam card {
	BackgroundColor #0060a8
	BorderColor #004d86
	FontColor $INFO_TEXT
}


skinparam file {
	BackgroundColor #6d6d6d-#484848
	BorderColor #0060a8
	FontColor #fefefe
}


skinparam stack {
		FontColor #C8Ac00
	BorderColor #333333
	BackgroundColor #333333-#333333
}

    
    title "kivakit-network-http"
    
    artifact cactus_metadata
    artifact kivakit_collections
    artifact kivakit_commandline
    artifact kivakit_conversion
    artifact kivakit_core
    artifact kivakit_interfaces
    artifact kivakit_internal_testing
    artifact kivakit_mixins
    artifact kivakit_network_core
    artifact kivakit_network_http
    artifact kivakit_resource
    artifact kivakit_testing
    artifact kivakit_validation
    artifact lexakai_annotations
    artifact commons_codec
    artifact commons_logging
    artifact junit
    artifact httpclient
    artifact httpcore
    artifact hamcrest_core
    artifact annotations
    httpclient - -> commons_codec
    httpclient - -> commons_logging
    httpclient - -> httpcore
    junit - -> hamcrest_core
    kivakit_commandline - -> kivakit_collections
    kivakit_commandline - -> kivakit_core
    kivakit_commandline - -> kivakit_validation
    kivakit_core - -> cactus_metadata
    kivakit_core - -> kivakit_interfaces
    kivakit_core - -> kivakit_mixins
    kivakit_internal_testing - -> annotations
    kivakit_internal_testing - -> junit
    kivakit_network_core - -> kivakit_commandline
    kivakit_network_core - -> kivakit_conversion
    kivakit_network_core - -> kivakit_resource
    kivakit_network_http - -> httpclient
    kivakit_network_http - -> kivakit_network_core
    kivakit_network_http - -> kivakit_testing
    kivakit_testing - -> kivakit_internal_testing
    kivakit_testing - -> lexakai_annotations
    
@enduml

PlantUML version 1.2021.01(Tue Feb 02 00:55:08 MST 2021)
(GPL source distribution)
Java Runtime: OpenJDK Runtime Environment
JVM: OpenJDK 64-Bit Server VM
Default Encoding: UTF-8
Language: en
Country: US
--></g></svg>
