<?xml version="1.0" encoding="UTF-8" standalone="no"?><svg xmlns="http://www.w3.org/2000/svg" xmlns:xlink="http://www.w3.org/1999/xlink" contentScriptType="application/ecmascript" contentStyleType="text/css" height="416.6667px" preserveAspectRatio="none" style="width:2203px;height:416px;background:#333333;" version="1.1" viewBox="0 0 2203 416" width="2203.125px" zoomAndPan="magnify"><defs/><g><rect fill="#48494B" height="41.2028" rx="8.3333" ry="8.3333" style="stroke:#545454;stroke-width:1.0416666666666667;" width="861.4583" x="663.8021" y="2.0833"/><text fill="#C0C0C0" font-family="Open Sans,Avenir,Nunito,Arial,Helvetica,SansSerif" font-size="20.8333" lengthAdjust="spacing" textLength="838.5417" x="675.2604" y="30.5583">com.telenav.kivakit.microservice.internal.protocols.rest.plugins.jetty.openapi.reader</text><!--MD5=[784d533083758286c885e86b9fe3090e]
class BaseComponent--><rect codeLine="6" fill="#282828" height="48.055" id="BaseComponent" rx="8.3333" ry="8.3333" style="stroke:#5E5E5E;stroke-width:1.0416666666666667;" width="143.75" x="1566.1458" y="71.4111"/><rect fill="#1B1B1A" height="31.3883" rx="8.3333" ry="8.3333" style="stroke:#1B1B1A;stroke-width:1.0416666666666667;" width="143.75" x="1566.1458" y="71.4111"/><rect fill="#1B1B1A" height="8.3333" style="stroke:#1B1B1A;stroke-width:1.0416666666666667;" width="143.75" x="1566.1458" y="94.4661"/><rect codeLine="6" fill="none" height="48.055" id="BaseComponent" rx="8.3333" ry="8.3333" style="stroke:#5E5E5E;stroke-width:1.0416666666666667;" width="143.75" x="1566.1458" y="71.4111"/><ellipse cx="1580.7292" cy="87.1053" fill="#C8AC00" rx="10.4167" ry="10.4167" style="stroke:#D8BC00;stroke-width:1.0416666666666667;"/><path d="M1580.3223,83.8074 L1579.4739,87.5366 L1581.1768,87.5366 Z M1579.2236,82.1594 L1581.427,82.1594 L1583.8867,91.272 L1582.0862,91.272 L1581.5247,89.0198 L1579.1138,89.0198 L1578.5645,91.272 L1576.7639,91.272 Z " fill="#000000"/><text fill="#D8BC00" font-family="Open Sans,Avenir,Nunito,Arial,Helvetica,SansSerif" font-size="12.5" font-style="italic" font-weight="bold" lengthAdjust="spacing" textLength="106.25" x="1597.3958" y="91.8294">BaseComponent</text><line style="stroke:#5E5E5E;stroke-width:1.0416666666666667;" x1="1567.1875" x2="1708.8542" y1="102.7995" y2="102.7995"/><line style="stroke:#5E5E5E;stroke-width:1.0416666666666667;" x1="1567.1875" x2="1708.8542" y1="111.1328" y2="111.1328"/><!--MD5=[2b7144f35bdde4d3e527034564005463]
class AnnotationReader--><rect codeLine="8" fill="#282828" height="83.3781" id="AnnotationReader" rx="8.3333" ry="8.3333" style="stroke:#5E5E5E;stroke-width:1.0416666666666667;" width="269.7917" x="7.2917" y="53.7028"/><rect fill="#1B1B1A" height="31.3883" rx="8.3333" ry="8.3333" style="stroke:#1B1B1A;stroke-width:1.0416666666666667;" width="269.7917" x="7.2917" y="53.7028"/><rect fill="#1B1B1A" height="8.3333" style="stroke:#1B1B1A;stroke-width:1.0416666666666667;" width="269.7917" x="7.2917" y="76.7578"/><rect codeLine="8" fill="none" height="83.3781" id="AnnotationReader" rx="8.3333" ry="8.3333" style="stroke:#5E5E5E;stroke-width:1.0416666666666667;" width="269.7917" x="7.2917" y="53.7028"/><ellipse cx="76.5625" cy="69.397" fill="#0066CF" rx="10.4167" ry="10.4167" style="stroke:#0086EF;stroke-width:1.0416666666666667;"/><path d="M78.4729,73.822 Q78.0457,74.0417 77.5757,74.1516 Q77.1057,74.2615 76.5869,74.2615 Q74.7437,74.2615 73.7732,73.0469 Q72.8027,71.8323 72.8027,69.5374 Q72.8027,67.2363 73.7732,66.0217 Q74.7437,64.8071 76.5869,64.8071 Q77.1057,64.8071 77.5818,64.917 Q78.0579,65.0269 78.4729,65.2466 L78.4729,67.2485 Q78.009,66.8213 77.5726,66.6229 Q77.1362,66.4246 76.6724,66.4246 Q75.6836,66.4246 75.1801,67.2089 Q74.6765,67.9932 74.6765,69.5374 Q74.6765,71.0754 75.1801,71.8597 Q75.6836,72.644 76.6724,72.644 Q77.1362,72.644 77.5726,72.4457 Q78.009,72.2473 78.4729,71.8201 Z " fill="#000000"/><text fill="#D8BC00" font-family="Open Sans,Avenir,Nunito,Arial,Helvetica,SansSerif" font-size="12.5" font-weight="bold" lengthAdjust="spacing" textLength="116.6667" x="99.4792" y="74.1211">AnnotationReader</text><line style="stroke:#5E5E5E;stroke-width:1.5625;" x1="8.3333" x2="276.0417" y1="85.0911" y2="85.0911"/><ellipse cx="18.75" cy="120.461" fill="#84BE84" rx="3.125" ry="3.125" style="stroke:#038048;stroke-width:1.0416666666666667;"/><text fill="#D8BC00" font-family="Open Sans,Avenir,Nunito,Arial,Helvetica,SansSerif" font-size="11.4583" lengthAdjust="spacing" textLength="237.5" x="30.2083" y="127.3722">void copyToSchema(Member, Schema&lt;?&gt;)</text><line style="stroke:#5E5E5E;stroke-width:1.0416666666666667;" x1="8.3333" x2="106.7708" y1="103.2969" y2="103.2969"/><text fill="#D8BC00" font-family="Open Sans,Avenir,Nunito,Arial,Helvetica,SansSerif" font-size="11.4583" lengthAdjust="spacing" textLength="64.5833" x="109.8958" y="107.1065">(filesystem)</text><line style="stroke:#5E5E5E;stroke-width:1.0416666666666667;" x1="177.6042" x2="276.0417" y1="103.2969" y2="103.2969"/><!--MD5=[f5a4fde7b971bcc999b796f2a79ea9ca]
class OpenApiAnnotationReader--><rect codeLine="15" fill="#282828" height="83.3781" id="OpenApiAnnotationReader" rx="8.3333" ry="8.3333" style="stroke:#5E5E5E;stroke-width:1.0416666666666667;" width="845.8333" x="578.6458" y="263.0778"/><rect fill="#1B1B1A" height="31.3883" rx="8.3333" ry="8.3333" style="stroke:#1B1B1A;stroke-width:1.0416666666666667;" width="845.8333" x="578.6458" y="263.0778"/><rect fill="#1B1B1A" height="8.3333" style="stroke:#1B1B1A;stroke-width:1.0416666666666667;" width="845.8333" x="578.6458" y="286.1328"/><rect codeLine="15" fill="none" height="83.3781" id="OpenApiAnnotationReader" rx="8.3333" ry="8.3333" style="stroke:#5E5E5E;stroke-width:1.0416666666666667;" width="845.8333" x="578.6458" y="263.0778"/><ellipse cx="907.8125" cy="278.772" fill="#0066CF" rx="10.4167" ry="10.4167" style="stroke:#0086EF;stroke-width:1.0416666666666667;"/><path d="M909.7229,283.197 Q909.2957,283.4167 908.8257,283.5266 Q908.3557,283.6365 907.8369,283.6365 Q905.9937,283.6365 905.0232,282.4219 Q904.0527,281.2073 904.0527,278.9124 Q904.0527,276.6113 905.0232,275.3967 Q905.9937,274.1821 907.8369,274.1821 Q908.3557,274.1821 908.8318,274.292 Q909.3079,274.4019 909.7229,274.6216 L909.7229,276.6235 Q909.259,276.1963 908.8226,275.9979 Q908.3862,275.7996 907.9224,275.7996 Q906.9336,275.7996 906.4301,276.5839 Q905.9265,277.3682 905.9265,278.9124 Q905.9265,280.4504 906.4301,281.2347 Q906.9336,282.019 907.9224,282.019 Q908.3862,282.019 908.8226,281.8207 Q909.259,281.6223 909.7229,281.1951 Z " fill="#000000"/><text fill="#D8BC00" font-family="Open Sans,Avenir,Nunito,Arial,Helvetica,SansSerif" font-size="12.5" font-weight="bold" lengthAdjust="spacing" textLength="172.9167" x="930.7292" y="283.4961">OpenApiAnnotationReader</text><line style="stroke:#5E5E5E;stroke-width:1.5625;" x1="579.6875" x2="1423.4375" y1="294.4661" y2="294.4661"/><ellipse cx="590.1042" cy="329.836" fill="#84BE84" rx="3.125" ry="3.125" style="stroke:#038048;stroke-width:1.0416666666666667;"/><text fill="#D8BC00" font-family="Open Sans,Avenir,Nunito,Arial,Helvetica,SansSerif" font-size="11.4583" lengthAdjust="spacing" textLength="813.5417" x="601.5625" y="336.7472">String readAnnotationValue(Class&lt;? extends MicroservletRequest&gt; requestType, String method, Class&lt;T&gt; annotationClass, Function&lt;T,String&gt;)</text><line style="stroke:#5E5E5E;stroke-width:1.0416666666666667;" x1="579.6875" x2="981.7708" y1="312.6719" y2="312.6719"/><text fill="#D8BC00" font-family="Open Sans,Avenir,Nunito,Arial,Helvetica,SansSerif" font-size="11.4583" lengthAdjust="spacing" textLength="33.3333" x="984.8958" y="316.4815">(read)</text><line style="stroke:#5E5E5E;stroke-width:1.0416666666666667;" x1="1021.3542" x2="1423.4375" y1="312.6719" y2="312.6719"/><!--MD5=[9d76899552579f8cd524906ec20587ca]
class OpenApiPathReader--><rect codeLine="22" fill="#282828" height="83.3781" id="OpenApiPathReader" rx="8.3333" ry="8.3333" style="stroke:#5E5E5E;stroke-width:1.0416666666666667;" width="165.625" x="1461.4583" y="263.0778"/><rect fill="#1B1B1A" height="31.3883" rx="8.3333" ry="8.3333" style="stroke:#1B1B1A;stroke-width:1.0416666666666667;" width="165.625" x="1461.4583" y="263.0778"/><rect fill="#1B1B1A" height="8.3333" style="stroke:#1B1B1A;stroke-width:1.0416666666666667;" width="165.625" x="1461.4583" y="286.1328"/><rect codeLine="22" fill="none" height="83.3781" id="OpenApiPathReader" rx="8.3333" ry="8.3333" style="stroke:#5E5E5E;stroke-width:1.0416666666666667;" width="165.625" x="1461.4583" y="263.0778"/><ellipse cx="1476.0417" cy="278.772" fill="#0066CF" rx="10.4167" ry="10.4167" style="stroke:#0086EF;stroke-width:1.0416666666666667;"/><path d="M1477.9521,283.197 Q1477.5248,283.4167 1477.0549,283.5266 Q1476.5849,283.6365 1476.0661,283.6365 Q1474.2228,283.6365 1473.2524,282.4219 Q1472.2819,281.2073 1472.2819,278.9124 Q1472.2819,276.6113 1473.2524,275.3967 Q1474.2228,274.1821 1476.0661,274.1821 Q1476.5849,274.1821 1477.061,274.292 Q1477.537,274.4019 1477.9521,274.6216 L1477.9521,276.6235 Q1477.4882,276.1963 1477.0518,275.9979 Q1476.6154,275.7996 1476.1515,275.7996 Q1475.1628,275.7996 1474.6592,276.5839 Q1474.1557,277.3682 1474.1557,278.9124 Q1474.1557,280.4504 1474.6592,281.2347 Q1475.1628,282.019 1476.1515,282.019 Q1476.6154,282.019 1477.0518,281.8207 Q1477.4882,281.6223 1477.9521,281.1951 Z " fill="#000000"/><text fill="#D8BC00" font-family="Open Sans,Avenir,Nunito,Arial,Helvetica,SansSerif" font-size="12.5" font-weight="bold" lengthAdjust="spacing" textLength="128.125" x="1492.7083" y="283.4961">OpenApiPathReader</text><line style="stroke:#5E5E5E;stroke-width:1.5625;" x1="1462.5" x2="1626.0417" y1="294.4661" y2="294.4661"/><ellipse cx="1472.9167" cy="329.836" fill="#84BE84" rx="3.125" ry="3.125" style="stroke:#038048;stroke-width:1.0416666666666667;"/><text fill="#D8BC00" font-family="Open Sans,Avenir,Nunito,Arial,Helvetica,SansSerif" font-size="11.4583" lengthAdjust="spacing" textLength="66.6667" x="1484.375" y="336.7472">Paths read()</text><line style="stroke:#5E5E5E;stroke-width:1.0416666666666667;" x1="1462.5" x2="1524.4792" y1="312.6719" y2="312.6719"/><text fill="#D8BC00" font-family="Open Sans,Avenir,Nunito,Arial,Helvetica,SansSerif" font-size="11.4583" lengthAdjust="spacing" textLength="33.3333" x="1527.6042" y="316.4815">(read)</text><line style="stroke:#5E5E5E;stroke-width:1.0416666666666667;" x1="1564.0625" x2="1626.0417" y1="312.6719" y2="312.6719"/><!--MD5=[eaae9e1e60bbf10ea0f5e5b3a17c1631]
class OpenApiReader--><rect codeLine="29" fill="#282828" height="83.3781" id="OpenApiReader" rx="8.3333" ry="8.3333" style="stroke:#5E5E5E;stroke-width:1.0416666666666667;" width="137.5" x="1664.0625" y="263.0778"/><rect fill="#1B1B1A" height="31.3883" rx="8.3333" ry="8.3333" style="stroke:#1B1B1A;stroke-width:1.0416666666666667;" width="137.5" x="1664.0625" y="263.0778"/><rect fill="#1B1B1A" height="8.3333" style="stroke:#1B1B1A;stroke-width:1.0416666666666667;" width="137.5" x="1664.0625" y="286.1328"/><rect codeLine="29" fill="none" height="83.3781" id="OpenApiReader" rx="8.3333" ry="8.3333" style="stroke:#5E5E5E;stroke-width:1.0416666666666667;" width="137.5" x="1664.0625" y="263.0778"/><ellipse cx="1678.6458" cy="278.772" fill="#0066CF" rx="10.4167" ry="10.4167" style="stroke:#0086EF;stroke-width:1.0416666666666667;"/><path d="M1680.5562,283.197 Q1680.129,283.4167 1679.659,283.5266 Q1679.189,283.6365 1678.6702,283.6365 Q1676.827,283.6365 1675.8565,282.4219 Q1674.8861,281.2073 1674.8861,278.9124 Q1674.8861,276.6113 1675.8565,275.3967 Q1676.827,274.1821 1678.6702,274.1821 Q1679.189,274.1821 1679.6651,274.292 Q1680.1412,274.4019 1680.5562,274.6216 L1680.5562,276.6235 Q1680.0924,276.1963 1679.656,275.9979 Q1679.2196,275.7996 1678.7557,275.7996 Q1677.7669,275.7996 1677.2634,276.5839 Q1676.7598,277.3682 1676.7598,278.9124 Q1676.7598,280.4504 1677.2634,281.2347 Q1677.7669,282.019 1678.7557,282.019 Q1679.2196,282.019 1679.656,281.8207 Q1680.0924,281.6223 1680.5562,281.1951 Z " fill="#000000"/><text fill="#D8BC00" font-family="Open Sans,Avenir,Nunito,Arial,Helvetica,SansSerif" font-size="12.5" font-weight="bold" lengthAdjust="spacing" textLength="100" x="1695.3125" y="283.4961">OpenApiReader</text><line style="stroke:#5E5E5E;stroke-width:1.5625;" x1="1665.1042" x2="1800.5208" y1="294.4661" y2="294.4661"/><ellipse cx="1675.5208" cy="329.836" fill="#84BE84" rx="3.125" ry="3.125" style="stroke:#038048;stroke-width:1.0416666666666667;"/><text fill="#D8BC00" font-family="Open Sans,Avenir,Nunito,Arial,Helvetica,SansSerif" font-size="11.4583" lengthAdjust="spacing" textLength="84.375" x="1686.9792" y="336.7472">OpenAPI read()</text><line style="stroke:#5E5E5E;stroke-width:1.0416666666666667;" x1="1665.1042" x2="1713.0208" y1="312.6719" y2="312.6719"/><text fill="#D8BC00" font-family="Open Sans,Avenir,Nunito,Arial,Helvetica,SansSerif" font-size="11.4583" lengthAdjust="spacing" textLength="33.3333" x="1716.1458" y="316.4815">(read)</text><line style="stroke:#5E5E5E;stroke-width:1.0416666666666667;" x1="1752.6042" x2="1800.5208" y1="312.6719" y2="312.6719"/><!--MD5=[10e690f15a9163b092e1c8ea0d97a2bc]
class OpenApiSchemaReader--><rect codeLine="36" fill="#282828" height="210.1807" id="OpenApiSchemaReader" rx="8.3333" ry="8.3333" style="stroke:#5E5E5E;stroke-width:1.0416666666666667;" width="358.3333" x="1838.0208" y="199.5361"/><rect fill="#1B1B1A" height="31.3883" rx="8.3333" ry="8.3333" style="stroke:#1B1B1A;stroke-width:1.0416666666666667;" width="358.3333" x="1838.0208" y="199.5361"/><rect fill="#1B1B1A" height="8.3333" style="stroke:#1B1B1A;stroke-width:1.0416666666666667;" width="358.3333" x="1838.0208" y="222.5911"/><rect codeLine="36" fill="none" height="210.1807" id="OpenApiSchemaReader" rx="8.3333" ry="8.3333" style="stroke:#5E5E5E;stroke-width:1.0416666666666667;" width="358.3333" x="1838.0208" y="199.5361"/><ellipse cx="1935.4167" cy="215.2303" fill="#0066CF" rx="10.4167" ry="10.4167" style="stroke:#0086EF;stroke-width:1.0416666666666667;"/><path d="M1937.3271,219.6554 Q1936.8998,219.8751 1936.4299,219.9849 Q1935.9599,220.0948 1935.4411,220.0948 Q1933.5978,220.0948 1932.6274,218.8802 Q1931.6569,217.6656 1931.6569,215.3707 Q1931.6569,213.0697 1932.6274,211.8551 Q1933.5978,210.6405 1935.4411,210.6405 Q1935.9599,210.6405 1936.436,210.7503 Q1936.912,210.8602 1937.3271,211.0799 L1937.3271,213.0819 Q1936.8632,212.6546 1936.4268,212.4563 Q1935.9904,212.2579 1935.5265,212.2579 Q1934.5378,212.2579 1934.0342,213.0422 Q1933.5307,213.8265 1933.5307,215.3707 Q1933.5307,216.9088 1934.0342,217.6931 Q1934.5378,218.4774 1935.5265,218.4774 Q1935.9904,218.4774 1936.4268,218.279 Q1936.8632,218.0806 1937.3271,217.6534 Z " fill="#000000"/><text fill="#D8BC00" font-family="Open Sans,Avenir,Nunito,Arial,Helvetica,SansSerif" font-size="12.5" font-weight="bold" lengthAdjust="spacing" textLength="148.9583" x="1958.3333" y="219.9544">OpenApiSchemaReader</text><line style="stroke:#5E5E5E;stroke-width:1.5625;" x1="1839.0625" x2="2195.3125" y1="230.9245" y2="230.9245"/><ellipse cx="1849.4792" cy="266.2944" fill="#84BE84" rx="3.125" ry="3.125" style="stroke:#038048;stroke-width:1.0416666666666667;"/><text fill="#D8BC00" font-family="Open Sans,Avenir,Nunito,Arial,Helvetica,SansSerif" font-size="11.4583" lengthAdjust="spacing" textLength="138.5417" x="1860.9375" y="273.2056">OpenApiSchemaReader()</text><line style="stroke:#5E5E5E;stroke-width:1.0416666666666667;" x1="1839.0625" x2="1973.4375" y1="249.1302" y2="249.1302"/><text fill="#D8BC00" font-family="Open Sans,Avenir,Nunito,Arial,Helvetica,SansSerif" font-size="11.4583" lengthAdjust="spacing" textLength="81.25" x="1976.5625" y="252.9399">(constructors)</text><line style="stroke:#5E5E5E;stroke-width:1.0416666666666667;" x1="2060.9375" x2="2195.3125" y1="249.1302" y2="249.1302"/><ellipse cx="1849.4792" cy="309.9508" fill="#84BE84" rx="3.125" ry="3.125" style="stroke:#038048;stroke-width:1.0416666666666667;"/><text fill="#D8BC00" font-family="Open Sans,Avenir,Nunito,Arial,Helvetica,SansSerif" font-size="11.4583" lengthAdjust="spacing" textLength="326.0417" x="1860.9375" y="316.862">OpenApiSchemaReader addModelToRead(Type&lt;?&gt; model)</text><ellipse cx="1849.4792" cy="329.6956" fill="#84BE84" rx="3.125" ry="3.125" style="stroke:#038048;stroke-width:1.0416666666666667;"/><text fill="#D8BC00" font-family="Open Sans,Avenir,Nunito,Arial,Helvetica,SansSerif" font-size="11.4583" lengthAdjust="spacing" textLength="157.2917" x="1860.9375" y="336.6069">Map&lt;String,Schema&gt; read()</text><ellipse cx="1849.4792" cy="349.4405" fill="#84BE84" rx="3.125" ry="3.125" style="stroke:#038048;stroke-width:1.0416666666666667;"/><text fill="#D8BC00" font-family="Open Sans,Avenir,Nunito,Arial,Helvetica,SansSerif" font-size="11.4583" lengthAdjust="spacing" textLength="196.875" x="1860.9375" y="356.3517">Schema&lt;?&gt; readSchema(Type&lt;?&gt;)</text><line style="stroke:#5E5E5E;stroke-width:1.0416666666666667;" x1="1839.0625" x2="1997.3958" y1="292.7867" y2="292.7867"/><text fill="#D8BC00" font-family="Open Sans,Avenir,Nunito,Arial,Helvetica,SansSerif" font-size="11.4583" lengthAdjust="spacing" textLength="33.3333" x="2000.5208" y="296.5963">(read)</text><line style="stroke:#5E5E5E;stroke-width:1.0416666666666667;" x1="2036.9792" x2="2195.3125" y1="292.7867" y2="292.7867"/><ellipse cx="1849.4792" cy="393.0969" fill="#84BE84" rx="3.125" ry="3.125" style="stroke:#038048;stroke-width:1.0416666666666667;"/><text fill="#D8BC00" font-family="Open Sans,Avenir,Nunito,Arial,Helvetica,SansSerif" font-size="11.4583" lengthAdjust="spacing" textLength="150" x="1860.9375" y="400.0081">Schema&lt;?&gt; schemaError()</text><line style="stroke:#5E5E5E;stroke-width:1.0416666666666667;" x1="1839.0625" x2="1992.7083" y1="375.9328" y2="375.9328"/><text fill="#D8BC00" font-family="Open Sans,Avenir,Nunito,Arial,Helvetica,SansSerif" font-size="11.4583" lengthAdjust="spacing" textLength="42.7083" x="1995.8333" y="379.7424">(status)</text><line style="stroke:#5E5E5E;stroke-width:1.0416666666666667;" x1="2041.6667" x2="2195.3125" y1="375.9328" y2="375.9328"/><!--MD5=[7f98baee9561aea7ced7ac279db6de09]
class PrimitiveReader--><rect codeLine="48" fill="#282828" height="83.3781" id="PrimitiveReader" rx="8.3333" ry="8.3333" style="stroke:#5E5E5E;stroke-width:1.0416666666666667;" width="234.375" x="313.5417" y="53.7028"/><rect fill="#1B1B1A" height="31.3883" rx="8.3333" ry="8.3333" style="stroke:#1B1B1A;stroke-width:1.0416666666666667;" width="234.375" x="313.5417" y="53.7028"/><rect fill="#1B1B1A" height="8.3333" style="stroke:#1B1B1A;stroke-width:1.0416666666666667;" width="234.375" x="313.5417" y="76.7578"/><rect codeLine="48" fill="none" height="83.3781" id="PrimitiveReader" rx="8.3333" ry="8.3333" style="stroke:#5E5E5E;stroke-width:1.0416666666666667;" width="234.375" x="313.5417" y="53.7028"/><ellipse cx="372.9167" cy="69.397" fill="#0066CF" rx="10.4167" ry="10.4167" style="stroke:#0086EF;stroke-width:1.0416666666666667;"/><path d="M374.8271,73.822 Q374.3998,74.0417 373.9299,74.1516 Q373.4599,74.2615 372.9411,74.2615 Q371.0978,74.2615 370.1274,73.0469 Q369.1569,71.8323 369.1569,69.5374 Q369.1569,67.2363 370.1274,66.0217 Q371.0978,64.8071 372.9411,64.8071 Q373.4599,64.8071 373.936,64.917 Q374.412,65.0269 374.8271,65.2466 L374.8271,67.2485 Q374.3632,66.8213 373.9268,66.6229 Q373.4904,66.4246 373.0265,66.4246 Q372.0378,66.4246 371.5342,67.2089 Q371.0307,67.9932 371.0307,69.5374 Q371.0307,71.0754 371.5342,71.8597 Q372.0378,72.644 373.0265,72.644 Q373.4904,72.644 373.9268,72.4457 Q374.3632,72.2473 374.8271,71.8201 Z " fill="#000000"/><text fill="#D8BC00" font-family="Open Sans,Avenir,Nunito,Arial,Helvetica,SansSerif" font-size="12.5" font-weight="bold" lengthAdjust="spacing" textLength="101.0417" x="395.8333" y="74.1211">PrimitiveReader</text><line style="stroke:#5E5E5E;stroke-width:1.5625;" x1="314.5833" x2="546.875" y1="85.0911" y2="85.0911"/><ellipse cx="325" cy="120.461" fill="#84BE84" rx="3.125" ry="3.125" style="stroke:#038048;stroke-width:1.0416666666666667;"/><text fill="#D8BC00" font-family="Open Sans,Avenir,Nunito,Arial,Helvetica,SansSerif" font-size="11.4583" lengthAdjust="spacing" textLength="202.0833" x="336.4583" y="127.3722">Schema&lt;?&gt; readPrimitive(Type&lt;?&gt;)</text><line style="stroke:#5E5E5E;stroke-width:1.0416666666666667;" x1="314.5833" x2="410.9375" y1="103.2969" y2="103.2969"/><text fill="#D8BC00" font-family="Open Sans,Avenir,Nunito,Arial,Helvetica,SansSerif" font-size="11.4583" lengthAdjust="spacing" textLength="33.3333" x="414.0625" y="107.1065">(read)</text><line style="stroke:#5E5E5E;stroke-width:1.0416666666666667;" x1="450.5208" x2="546.875" y1="103.2969" y2="103.2969"/><!--MD5=[114125db67c451a488c1a2be12b2c278]
class ReferenceResolver--><rect codeLine="54" fill="#282828" height="87.5448" id="ReferenceResolver" rx="8.3333" ry="8.3333" style="stroke:#5E5E5E;stroke-width:1.0416666666666667;" width="264.5833" x="9.8958" y="260.9945"/><rect fill="#1B1B1A" height="31.3883" rx="8.3333" ry="8.3333" style="stroke:#1B1B1A;stroke-width:1.0416666666666667;" width="264.5833" x="9.8958" y="260.9945"/><rect fill="#1B1B1A" height="8.3333" style="stroke:#1B1B1A;stroke-width:1.0416666666666667;" width="264.5833" x="9.8958" y="284.0495"/><rect codeLine="54" fill="none" height="87.5448" id="ReferenceResolver" rx="8.3333" ry="8.3333" style="stroke:#5E5E5E;stroke-width:1.0416666666666667;" width="264.5833" x="9.8958" y="260.9945"/><ellipse cx="76.0417" cy="276.6886" fill="#0066CF" rx="10.4167" ry="10.4167" style="stroke:#0086EF;stroke-width:1.0416666666666667;"/><path d="M77.9521,281.1137 Q77.5248,281.3334 77.0549,281.4433 Q76.5849,281.5531 76.0661,281.5531 Q74.2228,281.5531 73.2524,280.3385 Q72.2819,279.1239 72.2819,276.829 Q72.2819,274.528 73.2524,273.3134 Q74.2228,272.0988 76.0661,272.0988 Q76.5849,272.0988 77.061,272.2087 Q77.537,272.3185 77.9521,272.5382 L77.9521,274.5402 Q77.4882,274.113 77.0518,273.9146 Q76.6154,273.7162 76.1515,273.7162 Q75.1628,273.7162 74.6592,274.5005 Q74.1557,275.2848 74.1557,276.829 Q74.1557,278.3671 74.6592,279.1514 Q75.1628,279.9357 76.1515,279.9357 Q76.6154,279.9357 77.0518,279.7373 Q77.4882,279.539 77.9521,279.1117 Z " fill="#000000"/><text fill="#D8BC00" font-family="Open Sans,Avenir,Nunito,Arial,Helvetica,SansSerif" font-size="12.5" font-weight="bold" lengthAdjust="spacing" textLength="117.7083" x="98.9583" y="281.4128">ReferenceResolver</text><line style="stroke:#5E5E5E;stroke-width:1.5625;" x1="10.9375" x2="273.4375" y1="292.3828" y2="292.3828"/><line style="stroke:#5E5E5E;stroke-width:1.0416666666666667;" x1="10.9375" x2="273.4375" y1="300.7161" y2="300.7161"/><ellipse cx="21.3542" cy="312.1745" fill="#84BE84" rx="3.125" ry="3.125" style="stroke:#038048;stroke-width:1.0416666666666667;"/><text fill="#D8BC00" font-family="Open Sans,Avenir,Nunito,Arial,Helvetica,SansSerif" font-size="11.4583" lengthAdjust="spacing" textLength="189.5833" x="32.8125" y="319.0857">String reference(String typeName)</text><ellipse cx="21.3542" cy="331.9194" fill="#84BE84" rx="3.125" ry="3.125" style="stroke:#038048;stroke-width:1.0416666666666667;"/><text fill="#D8BC00" font-family="Open Sans,Avenir,Nunito,Arial,Helvetica,SansSerif" font-size="11.4583" lengthAdjust="spacing" textLength="232.2917" x="32.8125" y="338.8306">String reference(Type&lt;?&gt; typeParameter)</text><!--MD5=[530c4158f67e9152021536a6d72fb95d]
class SchemaCopier--><rect codeLine="61" fill="#282828" height="103.123" id="SchemaCopier" rx="8.3333" ry="8.3333" style="stroke:#5E5E5E;stroke-width:1.0416666666666667;" width="231.25" x="310.9375" y="253.182"/><rect fill="#1B1B1A" height="31.3883" rx="8.3333" ry="8.3333" style="stroke:#1B1B1A;stroke-width:1.0416666666666667;" width="231.25" x="310.9375" y="253.182"/><rect fill="#1B1B1A" height="8.3333" style="stroke:#1B1B1A;stroke-width:1.0416666666666667;" width="231.25" x="310.9375" y="276.237"/><rect codeLine="61" fill="none" height="103.123" id="SchemaCopier" rx="8.3333" ry="8.3333" style="stroke:#5E5E5E;stroke-width:1.0416666666666667;" width="231.25" x="310.9375" y="253.182"/><ellipse cx="373.4375" cy="268.8761" fill="#0066CF" rx="10.4167" ry="10.4167" style="stroke:#0086EF;stroke-width:1.0416666666666667;"/><path d="M375.3479,273.3012 Q374.9207,273.5209 374.4507,273.6308 Q373.9807,273.7406 373.4619,273.7406 Q371.6187,273.7406 370.6482,272.526 Q369.6777,271.3114 369.6777,269.0165 Q369.6777,266.7155 370.6482,265.5009 Q371.6187,264.2863 373.4619,264.2863 Q373.9807,264.2863 374.4568,264.3962 Q374.9329,264.506 375.3479,264.7257 L375.3479,266.7277 Q374.884,266.3005 374.4476,266.1021 Q374.0112,265.9037 373.5474,265.9037 Q372.5586,265.9037 372.0551,266.688 Q371.5515,267.4723 371.5515,269.0165 Q371.5515,270.5546 372.0551,271.3389 Q372.5586,272.1232 373.5474,272.1232 Q374.0112,272.1232 374.4476,271.9248 Q374.884,271.7265 375.3479,271.2992 Z " fill="#000000"/><text fill="#D8BC00" font-family="Open Sans,Avenir,Nunito,Arial,Helvetica,SansSerif" font-size="12.5" font-weight="bold" lengthAdjust="spacing" textLength="91.6667" x="396.3542" y="273.6003">SchemaCopier</text><line style="stroke:#5E5E5E;stroke-width:1.5625;" x1="311.9792" x2="541.1458" y1="284.5703" y2="284.5703"/><ellipse cx="322.3958" cy="319.9402" fill="#84BE84" rx="3.125" ry="3.125" style="stroke:#038048;stroke-width:1.0416666666666667;"/><text fill="#D8BC00" font-family="Open Sans,Avenir,Nunito,Arial,Helvetica,SansSerif" font-size="11.4583" lengthAdjust="spacing" textLength="148.9583" x="333.8542" y="326.8514">Schema copy(Schema that)</text><ellipse cx="322.3958" cy="339.6851" fill="#84BE84" rx="3.125" ry="3.125" style="stroke:#038048;stroke-width:1.0416666666666667;"/><text fill="#D8BC00" font-family="Open Sans,Avenir,Nunito,Arial,Helvetica,SansSerif" font-size="11.4583" lengthAdjust="spacing" textLength="198.9583" x="333.8542" y="346.5963">void copy(Schema from, Schema to)</text><line style="stroke:#5E5E5E;stroke-width:1.0416666666666667;" x1="311.9792" x2="391.1458" y1="302.7761" y2="302.7761"/><text fill="#D8BC00" font-family="Open Sans,Avenir,Nunito,Arial,Helvetica,SansSerif" font-size="11.4583" lengthAdjust="spacing" textLength="64.5833" x="394.2708" y="306.5857">(filesystem)</text><line style="stroke:#5E5E5E;stroke-width:1.0416666666666667;" x1="461.9792" x2="541.1458" y1="302.7761" y2="302.7761"/><!--MD5=[29909aacef68cf91d3eddc938957425d]
reverse link BaseComponent to OpenApiAnnotationReader--><path codeLine="14" d="M1547.4792,125.9007 C1437.2396,161.807 1250.4583,222.6403 1126.5625,262.9945 " fill="none" id="BaseComponent-backto-OpenApiAnnotationReader" style="stroke:#545454;stroke-width:1.5625;"/><polygon fill="none" points="1545.4063,118.9007,1567.4792,119.3903,1549.9271,132.7757,1545.4063,118.9007" style="stroke:#545454;stroke-width:1.5625;"/><!--MD5=[1a6c98731b288cd32f65be4a18f13131]
reverse link BaseComponent to OpenApiPathReader--><path codeLine="21" d="M1618.8958,138.6924 C1602.4896,174.9736 1579,226.9215 1562.7708,262.7965 " fill="none" id="BaseComponent-backto-OpenApiPathReader" style="stroke:#545454;stroke-width:1.5625;"/><polygon fill="none" points="1612.3958,135.3695,1627.625,119.3903,1625.6875,141.3695,1612.3958,135.3695" style="stroke:#545454;stroke-width:1.5625;"/><!--MD5=[16adbf9f6b72e55721fdd2cd1a8fbc9e]
reverse link BaseComponent to OpenApiReader--><path codeLine="28" d="M1657.3542,138.6924 C1673.9479,174.9736 1697.6979,226.9215 1714.1042,262.7965 " fill="none" id="BaseComponent-backto-OpenApiReader" style="stroke:#545454;stroke-width:1.5625;"/><polygon fill="none" points="1650.5625,141.3695,1648.5313,119.3903,1663.8229,135.2965,1650.5625,141.3695" style="stroke:#545454;stroke-width:1.5625;"/><!--MD5=[da43b77d95260f369a0abfc598a40bc5]
reverse link BaseComponent to OpenApiSchemaReader--><path codeLine="35" d="M1698.3438,129.3903 C1736.2813,150.1299 1787.4063,178.0778 1837.5833,205.5153 " fill="none" id="BaseComponent-backto-OpenApiSchemaReader" style="stroke:#545454;stroke-width:1.5625;"/><polygon fill="none" points="1694.8333,135.7757,1680.0521,119.3903,1701.8229,122.984,1694.8333,135.7757" style="stroke:#545454;stroke-width:1.5625;"/><!--MD5=[c9d2d684113d3a9f9121c903a778173e]
link AnnotationReader to PrimitiveReader--><!--MD5=[9e0d4c7719974c74f122b3a330ebdc67]
link AnnotationReader to ReferenceResolver--><!--MD5=[1cf5b638f8270f694ca3364b5489f618]
link ReferenceResolver to SchemaCopier--><!--MD5=[499f8c30243d03c5bff0b180865dd2d5]
@startuml

    !include lexakai.theme
    
    title "com.telenav.kivakit.microservice.internal.protocols.rest.plugins.jetty.openapi.reader"
    
    abstract BaseComponent
    
    class AnnotationReader
    {
        - -(filesystem)- -
        +void copyToSchema(Member, Schema<?>)
    }
    
    BaseComponent <|- - OpenApiAnnotationReader
    class OpenApiAnnotationReader
    {
        - -(read)- -
        +String readAnnotationValue(Class<? extends MicroservletRequest> requestType, String method, Class<T> annotationClass, Function<T,String>)
    }
    
    BaseComponent <|- - OpenApiPathReader
    class OpenApiPathReader
    {
        - -(read)- -
        +Paths read()
    }
    
    BaseComponent <|- - OpenApiReader
    class OpenApiReader
    {
        - -(read)- -
        +OpenAPI read()
    }
    
    BaseComponent <|- - OpenApiSchemaReader
    class OpenApiSchemaReader
    {
        - -(constructors)- -
        +OpenApiSchemaReader()
        - -(read)- -
        +OpenApiSchemaReader addModelToRead(Type<?> model)
        +Map<String,Schema> read()
        +Schema<?> readSchema(Type<?>)
        - -(status)- -
        +Schema<?> schemaError()
    }
    
    class PrimitiveReader
    {
        - -(read)- -
        +Schema<?> readPrimitive(Type<?>)
    }
    
    class ReferenceResolver
    {
        - -
        +String reference(String typeName)
        +String reference(Type<?> typeParameter)
    }
    
    class SchemaCopier
    {
        - -(filesystem)- -
        +Schema copy(Schema that)
        +void copy(Schema from, Schema to)
    }
    
@enduml

@startuml









skinparam backgroundColor #333333






skinparam  {
    defaultFontName   "Open Sans,Avenir,Nunito,Arial,Helvetica,SansSerif"
    defaultFontSize   12
    defaultTextAlignment left
    shadowing false
    RoundCorner 10
    TitleFontSize 18
}

skinparam defaultFontName       "Open Sans,Avenir,Nunito,Arial,Helvetica,SansSerif"
skinparam defaultFontSize       12
skinparam dpi                   100
skinparam shadowing             false
skinparam roundcorner           16
skinparam ParticipantPadding    40
skinparam BoxPadding            40
skinparam Padding               3
skinparam ArrowColor            #545454
skinparam stereotype {
    CBackgroundColor #0066cf
    CBorderColor #0086ef
    ABackgroundColor #C8Ac00
    ABorderColor #D8Bc00
    IBackgroundColor #008400
    IBorderColor #239c23
    EBackgroundColor #cf6300
    EBorderColor #ef8300
    NBackgroundColor #3380b9
    NBorderColor #004d86
}
skinparam title {
	FontColor	                 #c0c0c0
 	BorderColor                  #545454
	FontSize	    	         20
	BorderRoundCorner            16
	BorderThickness 	         1
	BackgroundColor              #48494b
}


skinparam legend {
	BackgroundColor #303030
	BorderColor #404040
	FontColor #a0a0a0
}

	skinparam swimlane {
	BorderColor #5e5e5e
	BorderThickness 2
	TitleBackgroundColor  #6d6d6d-#484848
	TitleFontColor #303030
}

skinparam activity {
		FontColor #C8Ac00
	BorderColor #333333
	BackgroundColor #333333-#333333
	BarColor #00FF00
	StartColor #0060a8
	EndColor #0060a8
	DiamondBackgroundColor #6d6d6d-#3a3a3a
  	DiamondBorderColor #3a3a3a
  	DiamondFontColor #fefefe
}


skinparam participant {
		FontColor #C8Ac00
	BorderColor #333333
	BackgroundColor #333333-#333333
	ParticipantBorderThickness 2
}


skinparam actor {
		FontColor #C8Ac00
	BorderColor #333333
	BackgroundColor #333333-#333333
}


skinparam arrow {
	Thickness 1.5
	Color #545454
	FontColor #a0a0a0
    FontStyle bold
    MessageAlignment center
}



skinparam sequence {
	BorderColor #303030
	TitleFontColor #303030
	BackgroundColor #333333
	StartColor #303030
	EndColor #303030
	BoxBackgroundColor #333333
	BoxBorderColor #484848
	BoxFontColor #484848
	LifeLineBorderColor #484848
	LifeLineBorderThickness 2
	LifeLineBackgroundColor #3a3a3a
	GroupBorderColor #484848
	GroupFontColor #484848
	GroupHeaderFontColor #0060a8
	GroupBackgroundColor #484848
	GroupHeaderBackgroundColor #333333
	DividerBackgroundColor #484848
    DividerBorderColor #484848
    DividerBorderThickness 2
    DividerFontColor #D8Bc00
	ReferenceBackgroundColor #333333
	ReferenceBorderColor #484848
	ReferenceFontColor #fefefe
	ReferenceHeaderBackgroundColor #484848
}


skinparam partition {
	BorderColor #303030
	FontColor #333333
	BackgroundColor #333333
}


skinparam collections {
		FontColor #C8Ac00
	BorderColor #333333
	BackgroundColor #333333-#333333
}


skinparam control {
		FontColor #C8Ac00
	BorderColor #333333
	BackgroundColor #333333-#333333
}


skinparam entity {
		FontColor #C8Ac00
	BorderColor #333333
	BackgroundColor #333333-#333333
}


skinparam boundary {
		FontColor #C8Ac00
	BorderColor #333333
	BackgroundColor #333333-#333333
}


skinparam agent {
	BackgroundColor #ff8000
	BorderColor #ff9933
	FontColor #484848
}


skinparam note {
	BorderThickness 1
	BackgroundColor #1b1b1a
	BorderColor #5e5e5e
	FontSize 11
	FontColor #a0a0a0
}


skinparam artifact {
	BorderThickness 10
	BorderColor #5e5e5e
	BackgroundColor #1b1b1a
	FontColor #D8Bc00
}


skinparam component {
		FontColor #C8Ac00
	BorderColor #333333
	BackgroundColor #333333-#333333
}


skinparam interface {
	BackgroundColor  #008400
	BorderColor  #007F00
	FontColor #484848
}


skinparam storage {
	BackgroundColor #ff8000
  	BorderColor #cc6600
	FontColor #222222
}


skinparam node {
	BackgroundColor #333333
	BorderColor #333333
	FontColor #C8Ac00
}


skinparam cloud {
	BackgroundColor #484848-black
	BorderColor #484848
	FontColor #D8Bc00
}


skinparam database {
		FontColor #C8Ac00
	BorderColor #333333
	BackgroundColor #333333-#333333
	BackgroundColor  #333333
}


skinparam class {
		FontColor #C8Ac00
	BorderColor #333333
	BackgroundColor #333333-#333333
	HeaderBackgroundColor #1b1b1a
    BackgroundColor #282828
    BorderColor #5e5e5e
 	StereotypeFontColor #a0a0a0
    StereotypeFontStyle bold
	BorderThickness 1
	AttributeFontColor #D8Bc00
	AttributeFontSize 11
    FontColor #D8Bc00
    FontStyle bold
}


skinparam object {
		FontColor #C8Ac00
	BorderColor #333333
	BackgroundColor #333333-#333333
	StereotypeFontColor #484848
	BorderThickness 1
	AttributeFontColor #fefefe
	AttributeFontSize 11
}


skinparam usecase {
		FontColor #C8Ac00
	BorderColor #333333
	BackgroundColor #333333-#333333
	BorderThickness 2
	StereotypeFontColor #303030
}


skinparam rectangle {
		FontColor #C8Ac00
	BorderColor #333333
	BackgroundColor #333333-#333333
	BackgroundColor #333333
	BorderThickness 2
	StereotypeFontColor #303030
}


skinparam package {
		FontColor #C8Ac00
	BorderColor #333333
	BackgroundColor #333333-#333333
	BackgroundColor #333333
	BorderThickness 2
}


skinparam folder {
	BackgroundColor #6d6d6d
  	BorderColor #ff8000
	FontColor #ff8000
	BorderThickness 2
}


skinparam frame {
	BackgroundColor #6d6d6d
  	BorderColor #0060a8
	FontColor #0060a8
	BorderThickness 2
}


skinparam state {
		FontColor #C8Ac00
	BorderColor #333333
	BackgroundColor #333333-#333333
	StartColor #0060a8
	EndColor #0060a8
	AttributeFontColor #fefefe
	AttributeFontSize 11
}


skinparam queue {
		FontColor #C8Ac00
	BorderColor #333333
	BackgroundColor #333333-#333333
}


skinparam card {
	BackgroundColor #0060a8
	BorderColor #004d86
	FontColor $INFO_TEXT
}


skinparam file {
	BackgroundColor #6d6d6d-#484848
	BorderColor #0060a8
	FontColor #fefefe
}


skinparam stack {
		FontColor #C8Ac00
	BorderColor #333333
	BackgroundColor #333333-#333333
}

    
    title "com.telenav.kivakit.microservice.internal.protocols.rest.plugins.jetty.openapi.reader"
    
    abstract BaseComponent
    
    class AnnotationReader
    {
        - -(filesystem)- -
        +void copyToSchema(Member, Schema<?>)
    }
    
    BaseComponent <|- - OpenApiAnnotationReader
    class OpenApiAnnotationReader
    {
        - -(read)- -
        +String readAnnotationValue(Class<? extends MicroservletRequest> requestType, String method, Class<T> annotationClass, Function<T,String>)
    }
    
    BaseComponent <|- - OpenApiPathReader
    class OpenApiPathReader
    {
        - -(read)- -
        +Paths read()
    }
    
    BaseComponent <|- - OpenApiReader
    class OpenApiReader
    {
        - -(read)- -
        +OpenAPI read()
    }
    
    BaseComponent <|- - OpenApiSchemaReader
    class OpenApiSchemaReader
    {
        - -(constructors)- -
        +OpenApiSchemaReader()
        - -(read)- -
        +OpenApiSchemaReader addModelToRead(Type<?> model)
        +Map<String,Schema> read()
        +Schema<?> readSchema(Type<?>)
        - -(status)- -
        +Schema<?> schemaError()
    }
    
    class PrimitiveReader
    {
        - -(read)- -
        +Schema<?> readPrimitive(Type<?>)
    }
    
    class ReferenceResolver
    {
        - -
        +String reference(String typeName)
        +String reference(Type<?> typeParameter)
    }
    
    class SchemaCopier
    {
        - -(filesystem)- -
        +Schema copy(Schema that)
        +void copy(Schema from, Schema to)
    }
    
@enduml

PlantUML version 1.2021.01(Tue Feb 02 00:55:08 MST 2021)
(GPL source distribution)
Java Runtime: OpenJDK Runtime Environment
JVM: OpenJDK 64-Bit Server VM
Default Encoding: UTF-8
Language: en
Country: US
--></g></svg>