<?xml version="1.0" encoding="UTF-8" standalone="no"?><svg xmlns="http://www.w3.org/2000/svg" xmlns:xlink="http://www.w3.org/1999/xlink" contentScriptType="application/ecmascript" contentStyleType="text/css" height="218.75px" preserveAspectRatio="none" style="width:555px;height:218px;background:#333333;" version="1.1" viewBox="0 0 555 218" width="555.2083px" zoomAndPan="magnify"><defs/><g><rect fill="#48494B" height="41.2028" rx="8.3333" ry="8.3333" style="stroke:#545454;stroke-width:1.0416666666666667;" width="426.0417" x="57.5521" y="2.0833"/><text fill="#C0C0C0" font-family="Open Sans,Avenir,Nunito,Arial,Helvetica,SansSerif" font-size="20.8333" lengthAdjust="spacing" textLength="403.125" x="69.0104" y="30.5583">com.telenav.kivakit.microservice.lexakai</text><rect codeLine="7" fill="#282828" height="48.055" id="UmlDiagramIdentifier" rx="8.3333" ry="8.3333" style="stroke:#5E5E5E;stroke-width:1.0416666666666667;" width="178.125" x="164.0625" y="53.7028"/><rect fill="#1B1B1A" height="31.3883" rx="8.3333" ry="8.3333" style="stroke:#1B1B1A;stroke-width:1.0416666666666667;" width="178.125" x="164.0625" y="53.7028"/><rect fill="#1B1B1A" height="8.3333" style="stroke:#1B1B1A;stroke-width:1.0416666666666667;" width="178.125" x="164.0625" y="76.7578"/><rect codeLine="7" fill="none" height="48.055" id="UmlDiagramIdentifier" rx="8.3333" ry="8.3333" style="stroke:#5E5E5E;stroke-width:1.0416666666666667;" width="178.125" x="164.0625" y="53.7028"/><ellipse cx="178.6458" cy="69.397" fill="#008400" rx="10.4167" ry="10.4167" style="stroke:#239C23;stroke-width:1.0416666666666667;"/><path d="M176.0498,66.5588 L176.0498,64.9719 L181.4758,64.9719 L181.4758,66.5588 L179.6631,66.5588 L179.6631,72.4976 L181.4758,72.4976 L181.4758,74.0845 L176.0498,74.0845 L176.0498,72.4976 L177.8625,72.4976 L177.8625,66.5588 Z " fill="#000000"/><text fill="#D8BC00" font-family="Open Sans,Avenir,Nunito,Arial,Helvetica,SansSerif" font-size="12.5" font-style="italic" font-weight="bold" lengthAdjust="spacing" textLength="140.625" x="195.3125" y="74.1211">UmlDiagramIdentifier</text><line style="stroke:#5E5E5E;stroke-width:1.0416666666666667;" x1="165.1042" x2="341.1458" y1="85.0911" y2="85.0911"/><line style="stroke:#5E5E5E;stroke-width:1.0416666666666667;" x1="165.1042" x2="341.1458" y1="93.4245" y2="93.4245"/><rect codeLine="10" fill="#282828" height="48.055" id="DiagramJetty" rx="8.3333" ry="8.3333" style="stroke:#5E5E5E;stroke-width:1.0416666666666667;" width="122.9167" x="7.2917" y="164.1195"/><rect fill="#1B1B1A" height="31.3883" rx="8.3333" ry="8.3333" style="stroke:#1B1B1A;stroke-width:1.0416666666666667;" width="122.9167" x="7.2917" y="164.1195"/><rect fill="#1B1B1A" height="8.3333" style="stroke:#1B1B1A;stroke-width:1.0416666666666667;" width="122.9167" x="7.2917" y="187.1745"/><rect codeLine="10" fill="none" height="48.055" id="DiagramJetty" rx="8.3333" ry="8.3333" style="stroke:#5E5E5E;stroke-width:1.0416666666666667;" width="122.9167" x="7.2917" y="164.1195"/><ellipse cx="21.875" cy="179.8136" fill="#0066CF" rx="10.4167" ry="10.4167" style="stroke:#0086EF;stroke-width:1.0416666666666667;"/><path d="M23.7854,184.2387 Q23.3582,184.4584 22.8882,184.5683 Q22.4182,184.6781 21.8994,184.6781 Q20.0562,184.6781 19.0857,183.4635 Q18.1152,182.2489 18.1152,179.954 Q18.1152,177.653 19.0857,176.4384 Q20.0562,175.2238 21.8994,175.2238 Q22.4182,175.2238 22.8943,175.3337 Q23.3704,175.4435 23.7854,175.6632 L23.7854,177.6652 Q23.3215,177.238 22.8851,177.0396 Q22.4487,176.8412 21.9849,176.8412 Q20.9961,176.8412 20.4926,177.6255 Q19.989,178.4098 19.989,179.954 Q19.989,181.4921 20.4926,182.2764 Q20.9961,183.0607 21.9849,183.0607 Q22.4487,183.0607 22.8851,182.8623 Q23.3215,182.664 23.7854,182.2367 Z " fill="#000000"/><text fill="#D8BC00" font-family="Open Sans,Avenir,Nunito,Arial,Helvetica,SansSerif" font-size="12.5" font-weight="bold" lengthAdjust="spacing" textLength="85.4167" x="38.5417" y="184.5378">DiagramJetty</text><line style="stroke:#5E5E5E;stroke-width:1.0416666666666667;" x1="8.3333" x2="129.1667" y1="195.5078" y2="195.5078"/><line style="stroke:#5E5E5E;stroke-width:1.0416666666666667;" x1="8.3333" x2="129.1667" y1="203.8411" y2="203.8411"/><rect codeLine="15" fill="#282828" height="48.055" id="DiagramMicroservice" rx="8.3333" ry="8.3333" style="stroke:#5E5E5E;stroke-width:1.0416666666666667;" width="172.9167" x="166.6667" y="164.1195"/><rect fill="#1B1B1A" height="31.3883" rx="8.3333" ry="8.3333" style="stroke:#1B1B1A;stroke-width:1.0416666666666667;" width="172.9167" x="166.6667" y="164.1195"/><rect fill="#1B1B1A" height="8.3333" style="stroke:#1B1B1A;stroke-width:1.0416666666666667;" width="172.9167" x="166.6667" y="187.1745"/><rect codeLine="15" fill="none" height="48.055" id="DiagramMicroservice" rx="8.3333" ry="8.3333" style="stroke:#5E5E5E;stroke-width:1.0416666666666667;" width="172.9167" x="166.6667" y="164.1195"/><ellipse cx="181.25" cy="179.8136" fill="#0066CF" rx="10.4167" ry="10.4167" style="stroke:#0086EF;stroke-width:1.0416666666666667;"/><path d="M183.1604,184.2387 Q182.7332,184.4584 182.2632,184.5683 Q181.7932,184.6781 181.2744,184.6781 Q179.4312,184.6781 178.4607,183.4635 Q177.4902,182.2489 177.4902,179.954 Q177.4902,177.653 178.4607,176.4384 Q179.4312,175.2238 181.2744,175.2238 Q181.7932,175.2238 182.2693,175.3337 Q182.7454,175.4435 183.1604,175.6632 L183.1604,177.6652 Q182.6965,177.238 182.2601,177.0396 Q181.8237,176.8412 181.3599,176.8412 Q180.3711,176.8412 179.8676,177.6255 Q179.364,178.4098 179.364,179.954 Q179.364,181.4921 179.8676,182.2764 Q180.3711,183.0607 181.3599,183.0607 Q181.8237,183.0607 182.2601,182.8623 Q182.6965,182.664 183.1604,182.2367 Z " fill="#000000"/><text fill="#D8BC00" font-family="Open Sans,Avenir,Nunito,Arial,Helvetica,SansSerif" font-size="12.5" font-weight="bold" lengthAdjust="spacing" textLength="135.4167" x="197.9167" y="184.5378">DiagramMicroservice</text><line style="stroke:#5E5E5E;stroke-width:1.0416666666666667;" x1="167.7083" x2="338.5417" y1="195.5078" y2="195.5078"/><line style="stroke:#5E5E5E;stroke-width:1.0416666666666667;" x1="167.7083" x2="338.5417" y1="203.8411" y2="203.8411"/><rect codeLine="20" fill="#282828" height="48.055" id="DiagramMicroservlet" rx="8.3333" ry="8.3333" style="stroke:#5E5E5E;stroke-width:1.0416666666666667;" width="171.875" x="376.5625" y="164.1195"/><rect fill="#1B1B1A" height="31.3883" rx="8.3333" ry="8.3333" style="stroke:#1B1B1A;stroke-width:1.0416666666666667;" width="171.875" x="376.5625" y="164.1195"/><rect fill="#1B1B1A" height="8.3333" style="stroke:#1B1B1A;stroke-width:1.0416666666666667;" width="171.875" x="376.5625" y="187.1745"/><rect codeLine="20" fill="none" height="48.055" id="DiagramMicroservlet" rx="8.3333" ry="8.3333" style="stroke:#5E5E5E;stroke-width:1.0416666666666667;" width="171.875" x="376.5625" y="164.1195"/><ellipse cx="391.1458" cy="179.8136" fill="#0066CF" rx="10.4167" ry="10.4167" style="stroke:#0086EF;stroke-width:1.0416666666666667;"/><path d="M393.0562,184.2387 Q392.629,184.4584 392.159,184.5683 Q391.689,184.6781 391.1702,184.6781 Q389.327,184.6781 388.3565,183.4635 Q387.3861,182.2489 387.3861,179.954 Q387.3861,177.653 388.3565,176.4384 Q389.327,175.2238 391.1702,175.2238 Q391.689,175.2238 392.1651,175.3337 Q392.6412,175.4435 393.0562,175.6632 L393.0562,177.6652 Q392.5924,177.238 392.156,177.0396 Q391.7196,176.8412 391.2557,176.8412 Q390.2669,176.8412 389.7634,177.6255 Q389.2598,178.4098 389.2598,179.954 Q389.2598,181.4921 389.7634,182.2764 Q390.2669,183.0607 391.2557,183.0607 Q391.7196,183.0607 392.156,182.8623 Q392.5924,182.664 393.0562,182.2367 Z " fill="#000000"/><text fill="#D8BC00" font-family="Open Sans,Avenir,Nunito,Arial,Helvetica,SansSerif" font-size="12.5" font-weight="bold" lengthAdjust="spacing" textLength="134.375" x="407.8125" y="184.5378">DiagramMicroservlet</text><line style="stroke:#5E5E5E;stroke-width:1.0416666666666667;" x1="377.6042" x2="547.3958" y1="195.5078" y2="195.5078"/><line style="stroke:#5E5E5E;stroke-width:1.0416666666666667;" x1="377.6042" x2="547.3958" y1="203.8411" y2="203.8411"/><path codeLine="9" d="M195.6875,112.4528 C167.1146,129.234 133.3229,149.0882 107.7917,164.0986 " fill="none" id="UmlDiagramIdentifier-backto-DiagramJetty" style="stroke:#545454;stroke-width:1.5625;"/><polygon fill="none" points="192.3646,105.9424,214.0208,101.682,199.7604,118.5153,192.3646,105.9424" style="stroke:#545454;stroke-width:1.5625;"/><path codeLine="14" d="M253.125,122.6195 C253.125,136.8382 253.125,152.0361 253.125,164.0986 " fill="none" id="UmlDiagramIdentifier-backto-DiagramMicroservice" style="stroke:#545454;stroke-width:1.5625;"/><polygon fill="none" points="245.8333,122.5153,253.125,101.682,260.4167,122.5153,245.8333,122.5153" style="stroke:#545454;stroke-width:1.5625;"/><path codeLine="19" d="M316.4896,111.484 C349.3229,128.4736 388.6146,148.807 418.1563,164.0986 " fill="none" id="UmlDiagramIdentifier-backto-DiagramMicroservlet" style="stroke:#545454;stroke-width:1.5625;"/><polygon fill="none" points="312.6771,117.7236,297.5313,101.682,319.3854,104.7757,312.6771,117.7236" style="stroke:#545454;stroke-width:1.5625;"/></g></svg>
