<?xml version="1.0" encoding="UTF-8" standalone="no"?><svg xmlns="http://www.w3.org/2000/svg" xmlns:xlink="http://www.w3.org/1999/xlink" contentScriptType="application/ecmascript" contentStyleType="text/css" height="546.875px" preserveAspectRatio="none" style="width:1216px;height:546px;background:#333333;" version="1.1" viewBox="0 0 1216 546" width="1216.6667px" zoomAndPan="magnify"><defs/><g><rect fill="#48494B" height="41.2028" rx="8.3333" ry="8.3333" style="stroke:#545454;stroke-width:1.0416666666666667;" width="359.375" x="421.6146" y="2.0833"/><text fill="#C0C0C0" font-family="Open Sans,Avenir,Nunito,Arial,Helvetica,SansSerif" font-size="20.8333" lengthAdjust="spacing" textLength="336.4583" x="433.0729" y="30.5583">com.telenav.kivakit.network.https</text><!--MD5=[9aa687ed59f428548907e723dba1087a]
class BaseStringConverter--><rect codeLine="7" fill="#282828" height="48.055" id="BaseStringConverter" rx="8.3333" ry="8.3333" style="stroke:#5E5E5E;stroke-width:1.0416666666666667;" width="169.7917" x="55.2083" y="53.7028"/><rect fill="#1B1B1A" height="31.3883" rx="8.3333" ry="8.3333" style="stroke:#1B1B1A;stroke-width:1.0416666666666667;" width="169.7917" x="55.2083" y="53.7028"/><rect fill="#1B1B1A" height="8.3333" style="stroke:#1B1B1A;stroke-width:1.0416666666666667;" width="169.7917" x="55.2083" y="76.7578"/><rect codeLine="7" fill="none" height="48.055" id="BaseStringConverter" rx="8.3333" ry="8.3333" style="stroke:#5E5E5E;stroke-width:1.0416666666666667;" width="169.7917" x="55.2083" y="53.7028"/><ellipse cx="69.7917" cy="69.397" fill="#C8AC00" rx="10.4167" ry="10.4167" style="stroke:#D8BC00;stroke-width:1.0416666666666667;"/><path d="M69.3848,66.099 L68.5364,69.8283 L70.2393,69.8283 Z M68.2861,64.4511 L70.4895,64.4511 L72.9492,73.5636 L71.1487,73.5636 L70.5872,71.3114 L68.1763,71.3114 L67.627,73.5636 L65.8264,73.5636 Z " fill="#000000"/><text fill="#D8BC00" font-family="Open Sans,Avenir,Nunito,Arial,Helvetica,SansSerif" font-size="12.5" font-style="italic" font-weight="bold" lengthAdjust="spacing" textLength="132.2917" x="86.4583" y="74.1211">BaseStringConverter</text><line style="stroke:#5E5E5E;stroke-width:1.0416666666666667;" x1="56.25" x2="223.9583" y1="85.0911" y2="85.0911"/><line style="stroke:#5E5E5E;stroke-width:1.0416666666666667;" x1="56.25" x2="223.9583" y1="93.4245" y2="93.4245"/><!--MD5=[fad6ba2768857d695f61116a5bf9c0eb]
class HttpGetResource--><rect fill="#282828" height="48.055" id="HttpGetResource" rx="8.3333" ry="8.3333" style="stroke:#5E5E5E;stroke-width:1.0416666666666667;" width="145.8333" x="309.8958" y="234.432"/><rect fill="#1B1B1A" height="31.3883" rx="8.3333" ry="8.3333" style="stroke:#1B1B1A;stroke-width:1.0416666666666667;" width="145.8333" x="309.8958" y="234.432"/><rect fill="#1B1B1A" height="8.3333" style="stroke:#1B1B1A;stroke-width:1.0416666666666667;" width="145.8333" x="309.8958" y="257.487"/><rect fill="none" height="48.055" id="HttpGetResource" rx="8.3333" ry="8.3333" style="stroke:#5E5E5E;stroke-width:1.0416666666666667;" width="145.8333" x="309.8958" y="234.432"/><ellipse cx="324.4792" cy="250.1261" fill="#0066CF" rx="10.4167" ry="10.4167" style="stroke:#0086EF;stroke-width:1.0416666666666667;"/><path d="M326.3896,254.5512 Q325.9623,254.7709 325.4924,254.8808 Q325.0224,254.9906 324.5036,254.9906 Q322.6603,254.9906 321.6899,253.776 Q320.7194,252.5614 320.7194,250.2665 Q320.7194,247.9655 321.6899,246.7509 Q322.6603,245.5363 324.5036,245.5363 Q325.0224,245.5363 325.4985,245.6462 Q325.9745,245.756 326.3896,245.9757 L326.3896,247.9777 Q325.9257,247.5505 325.4893,247.3521 Q325.0529,247.1537 324.589,247.1537 Q323.6003,247.1537 323.0967,247.938 Q322.5932,248.7223 322.5932,250.2665 Q322.5932,251.8046 323.0967,252.5889 Q323.6003,253.3732 324.589,253.3732 Q325.0529,253.3732 325.4893,253.1748 Q325.9257,252.9765 326.3896,252.5492 Z " fill="#000000"/><text fill="#D8BC00" font-family="Open Sans,Avenir,Nunito,Arial,Helvetica,SansSerif" font-size="12.5" font-weight="bold" lengthAdjust="spacing" textLength="108.3333" x="341.1458" y="254.8503">HttpGetResource</text><line style="stroke:#5E5E5E;stroke-width:1.0416666666666667;" x1="310.9375" x2="454.6875" y1="265.8203" y2="265.8203"/><line style="stroke:#5E5E5E;stroke-width:1.0416666666666667;" x1="310.9375" x2="454.6875" y1="274.1536" y2="274.1536"/><!--MD5=[cc3f7b1832b168e1bf85e9c23e4d26fb]
class HttpsGetResource--><rect codeLine="10" fill="#282828" height="103.123" id="HttpsGetResource" rx="8.3333" ry="8.3333" style="stroke:#5E5E5E;stroke-width:1.0416666666666667;" width="422.9167" x="231.7708" y="437.0361"/><rect fill="#1B1B1A" height="31.3883" rx="8.3333" ry="8.3333" style="stroke:#1B1B1A;stroke-width:1.0416666666666667;" width="422.9167" x="231.7708" y="437.0361"/><rect fill="#1B1B1A" height="8.3333" style="stroke:#1B1B1A;stroke-width:1.0416666666666667;" width="422.9167" x="231.7708" y="460.0911"/><rect codeLine="10" fill="none" height="103.123" id="HttpsGetResource" rx="8.3333" ry="8.3333" style="stroke:#5E5E5E;stroke-width:1.0416666666666667;" width="422.9167" x="231.7708" y="437.0361"/><ellipse cx="378.125" cy="452.7303" fill="#0066CF" rx="10.4167" ry="10.4167" style="stroke:#0086EF;stroke-width:1.0416666666666667;"/><path d="M380.0354,457.1554 Q379.6082,457.3751 379.1382,457.4849 Q378.6682,457.5948 378.1494,457.5948 Q376.3062,457.5948 375.3357,456.3802 Q374.3652,455.1656 374.3652,452.8707 Q374.3652,450.5697 375.3357,449.3551 Q376.3062,448.1405 378.1494,448.1405 Q378.6682,448.1405 379.1443,448.2503 Q379.6204,448.3602 380.0354,448.5799 L380.0354,450.5819 Q379.5715,450.1546 379.1351,449.9563 Q378.6987,449.7579 378.2349,449.7579 Q377.2461,449.7579 376.7426,450.5422 Q376.239,451.3265 376.239,452.8707 Q376.239,454.4088 376.7426,455.1931 Q377.2461,455.9774 378.2349,455.9774 Q378.6987,455.9774 379.1351,455.779 Q379.5715,455.5806 380.0354,455.1534 Z " fill="#000000"/><text fill="#D8BC00" font-family="Open Sans,Avenir,Nunito,Arial,Helvetica,SansSerif" font-size="12.5" font-weight="bold" lengthAdjust="spacing" textLength="115.625" x="401.0417" y="457.4544">HttpsGetResource</text><line style="stroke:#5E5E5E;stroke-width:1.5625;" x1="232.8125" x2="653.6458" y1="468.4245" y2="468.4245"/><ellipse cx="243.2292" cy="503.7944" fill="#84BE84" rx="3.125" ry="3.125" style="stroke:#038048;stroke-width:1.0416666666666667;"/><text fill="#D8BC00" font-family="Open Sans,Avenir,Nunito,Arial,Helvetica,SansSerif" font-size="11.4583" lengthAdjust="spacing" textLength="233.3333" x="254.6875" y="510.7056">HttpsGetResource(HttpsNetworkLocation)</text><ellipse cx="243.2292" cy="523.5392" fill="#84BE84" rx="3.125" ry="3.125" style="stroke:#038048;stroke-width:1.0416666666666667;"/><text fill="#D8BC00" font-family="Open Sans,Avenir,Nunito,Arial,Helvetica,SansSerif" font-size="11.4583" lengthAdjust="spacing" textLength="390.625" x="254.6875" y="530.4504">HttpsGetResource(HttpsNetworkLocation, NetworkAccessConstraints)</text><line style="stroke:#5E5E5E;stroke-width:1.0416666666666667;" x1="232.8125" x2="399.4792" y1="486.6302" y2="486.6302"/><text fill="#D8BC00" font-family="Open Sans,Avenir,Nunito,Arial,Helvetica,SansSerif" font-size="11.4583" lengthAdjust="spacing" textLength="81.25" x="402.6042" y="490.4399">(constructors)</text><line style="stroke:#5E5E5E;stroke-width:1.0416666666666667;" x1="486.9792" x2="653.6458" y1="486.6302" y2="486.6302"/><!--MD5=[141e7cec292b27cdb82c0916bd340d3c]
class HttpNetworkLocation--><rect fill="#282828" height="48.055" id="HttpNetworkLocation" rx="8.3333" ry="8.3333" style="stroke:#5E5E5E;stroke-width:1.0416666666666667;" width="175" x="638.0208" y="53.7028"/><rect fill="#1B1B1A" height="31.3883" rx="8.3333" ry="8.3333" style="stroke:#1B1B1A;stroke-width:1.0416666666666667;" width="175" x="638.0208" y="53.7028"/><rect fill="#1B1B1A" height="8.3333" style="stroke:#1B1B1A;stroke-width:1.0416666666666667;" width="175" x="638.0208" y="76.7578"/><rect fill="none" height="48.055" id="HttpNetworkLocation" rx="8.3333" ry="8.3333" style="stroke:#5E5E5E;stroke-width:1.0416666666666667;" width="175" x="638.0208" y="53.7028"/><ellipse cx="652.6042" cy="69.397" fill="#0066CF" rx="10.4167" ry="10.4167" style="stroke:#0086EF;stroke-width:1.0416666666666667;"/><path d="M654.5146,73.822 Q654.0873,74.0417 653.6174,74.1516 Q653.1474,74.2615 652.6286,74.2615 Q650.7853,74.2615 649.8149,73.0469 Q648.8444,71.8323 648.8444,69.5374 Q648.8444,67.2363 649.8149,66.0217 Q650.7853,64.8071 652.6286,64.8071 Q653.1474,64.8071 653.6235,64.917 Q654.0995,65.0269 654.5146,65.2466 L654.5146,67.2485 Q654.0507,66.8213 653.6143,66.6229 Q653.1779,66.4246 652.714,66.4246 Q651.7253,66.4246 651.2217,67.2089 Q650.7182,67.9932 650.7182,69.5374 Q650.7182,71.0754 651.2217,71.8597 Q651.7253,72.644 652.714,72.644 Q653.1779,72.644 653.6143,72.4457 Q654.0507,72.2473 654.5146,71.8201 Z " fill="#000000"/><text fill="#D8BC00" font-family="Open Sans,Avenir,Nunito,Arial,Helvetica,SansSerif" font-size="12.5" font-weight="bold" lengthAdjust="spacing" textLength="137.5" x="669.2708" y="74.1211">HttpNetworkLocation</text><line style="stroke:#5E5E5E;stroke-width:1.0416666666666667;" x1="639.0625" x2="811.9792" y1="85.0911" y2="85.0911"/><line style="stroke:#5E5E5E;stroke-width:1.0416666666666667;" x1="639.0625" x2="811.9792" y1="93.4245" y2="93.4245"/><!--MD5=[b9830f677e361754dd16e0724bcd4c81]
class HttpsNetworkLocation--><rect codeLine="20" fill="#282828" height="186.2691" id="HttpsNetworkLocation" rx="8.3333" ry="8.3333" style="stroke:#5E5E5E;stroke-width:1.0416666666666667;" width="466.6667" x="492.1875" y="165.1611"/><rect fill="#1B1B1A" height="31.3883" rx="8.3333" ry="8.3333" style="stroke:#1B1B1A;stroke-width:1.0416666666666667;" width="466.6667" x="492.1875" y="165.1611"/><rect fill="#1B1B1A" height="8.3333" style="stroke:#1B1B1A;stroke-width:1.0416666666666667;" width="466.6667" x="492.1875" y="188.2161"/><rect codeLine="20" fill="none" height="186.2691" id="HttpsNetworkLocation" rx="8.3333" ry="8.3333" style="stroke:#5E5E5E;stroke-width:1.0416666666666667;" width="466.6667" x="492.1875" y="165.1611"/><ellipse cx="645.8333" cy="180.8553" fill="#0066CF" rx="10.4167" ry="10.4167" style="stroke:#0086EF;stroke-width:1.0416666666666667;"/><path d="M647.7437,185.2804 Q647.3165,185.5001 646.8465,185.6099 Q646.3765,185.7198 645.8577,185.7198 Q644.0145,185.7198 643.044,184.5052 Q642.0736,183.2906 642.0736,180.9957 Q642.0736,178.6947 643.044,177.4801 Q644.0145,176.2655 645.8577,176.2655 Q646.3765,176.2655 646.8526,176.3753 Q647.3287,176.4852 647.7437,176.7049 L647.7437,178.7069 Q647.2799,178.2796 646.8435,178.0813 Q646.4071,177.8829 645.9432,177.8829 Q644.9544,177.8829 644.4509,178.6672 Q643.9473,179.4515 643.9473,180.9957 Q643.9473,182.5338 644.4509,183.3181 Q644.9544,184.1024 645.9432,184.1024 Q646.4071,184.1024 646.8435,183.904 Q647.2799,183.7056 647.7437,183.2784 Z " fill="#000000"/><text fill="#D8BC00" font-family="Open Sans,Avenir,Nunito,Arial,Helvetica,SansSerif" font-size="12.5" font-weight="bold" lengthAdjust="spacing" textLength="144.7917" x="668.75" y="185.5794">HttpsNetworkLocation</text><line style="stroke:#5E5E5E;stroke-width:1.5625;" x1="493.2292" x2="957.8125" y1="196.5495" y2="196.5495"/><ellipse cx="503.6458" cy="231.9194" fill="#84BE84" rx="3.125" ry="3.125" style="stroke:#038048;stroke-width:1.0416666666666667;"/><text fill="#D8BC00" font-family="Open Sans,Avenir,Nunito,Arial,Helvetica,SansSerif" font-size="11.4583" lengthAdjust="spacing" textLength="202.0833" x="515.1042" y="238.8306">HttpsNetworkLocation(NetworkPath)</text><ellipse cx="503.6458" cy="251.6642" fill="#84BE84" rx="3.125" ry="3.125" style="stroke:#038048;stroke-width:1.0416666666666667;"/><text fill="#D8BC00" font-family="Open Sans,Avenir,Nunito,Arial,Helvetica,SansSerif" font-size="11.4583" lengthAdjust="spacing" textLength="151.0417" x="515.1042" y="258.5754">HttpsNetworkLocation(URI)</text><line style="stroke:#5E5E5E;stroke-width:1.0416666666666667;" x1="493.2292" x2="681.7708" y1="214.7552" y2="214.7552"/><text fill="#D8BC00" font-family="Open Sans,Avenir,Nunito,Arial,Helvetica,SansSerif" font-size="11.4583" lengthAdjust="spacing" textLength="81.25" x="684.8958" y="218.5649">(constructors)</text><line style="stroke:#5E5E5E;stroke-width:1.0416666666666667;" x1="769.2708" x2="957.8125" y1="214.7552" y2="214.7552"/><ellipse cx="503.6458" cy="295.3206" fill="#84BE84" rx="3.125" ry="3.125" style="stroke:#038048;stroke-width:1.0416666666666667;"/><text fill="#D8BC00" font-family="Open Sans,Avenir,Nunito,Arial,Helvetica,SansSerif" font-size="11.4583" lengthAdjust="spacing" textLength="434.375" x="515.1042" y="302.2319">HttpsNetworkLocation parseSecureHttpNetworkLocation(Listener, String path)</text><ellipse cx="503.6458" cy="315.0655" fill="#84BE84" rx="3.125" ry="3.125" style="stroke:#038048;stroke-width:1.0416666666666667;"/><text fill="#D8BC00" font-family="Open Sans,Avenir,Nunito,Arial,Helvetica,SansSerif" font-size="11.4583" lengthAdjust="spacing" textLength="352.0833" x="515.1042" y="321.9767">HttpsNetworkLocation secureHttpNetworkLocation(String path)</text><ellipse cx="503.6458" cy="334.8104" fill="#84BE84" rx="3.125" ry="3.125" style="stroke:#038048;stroke-width:1.0416666666666667;"/><text fill="#D8BC00" font-family="Open Sans,Avenir,Nunito,Arial,Helvetica,SansSerif" font-size="11.4583" lengthAdjust="spacing" textLength="360.4167" x="515.1042" y="341.7216">HttpsNetworkLocation secureHttpNetworkLocation(NetworkPath)</text><line style="stroke:#5E5E5E;stroke-width:1.0416666666666667;" x1="493.2292" x2="695.8333" y1="278.1565" y2="278.1565"/><text fill="#D8BC00" font-family="Open Sans,Avenir,Nunito,Arial,Helvetica,SansSerif" font-size="11.4583" lengthAdjust="spacing" textLength="53.125" x="698.9583" y="281.9661">(network)</text><line style="stroke:#5E5E5E;stroke-width:1.0416666666666667;" x1="755.2083" x2="957.8125" y1="278.1565" y2="278.1565"/><!--MD5=[9e11a13a6efe7aa13086ad920439722a]
class HttpsPostResource--><rect codeLine="39" fill="#282828" height="103.123" id="HttpsPostResource" rx="8.3333" ry="8.3333" style="stroke:#5E5E5E;stroke-width:1.0416666666666667;" width="397.9167" x="811.9792" y="437.0361"/><rect fill="#1B1B1A" height="31.3883" rx="8.3333" ry="8.3333" style="stroke:#1B1B1A;stroke-width:1.0416666666666667;" width="397.9167" x="811.9792" y="437.0361"/><rect fill="#1B1B1A" height="8.3333" style="stroke:#1B1B1A;stroke-width:1.0416666666666667;" width="397.9167" x="811.9792" y="460.0911"/><rect codeLine="39" fill="none" height="103.123" id="HttpsPostResource" rx="8.3333" ry="8.3333" style="stroke:#5E5E5E;stroke-width:1.0416666666666667;" width="397.9167" x="811.9792" y="437.0361"/><ellipse cx="942.7083" cy="452.7303" fill="#0066CF" rx="10.4167" ry="10.4167" style="stroke:#0086EF;stroke-width:1.0416666666666667;"/><path d="M944.6187,457.1554 Q944.1915,457.3751 943.7215,457.4849 Q943.2515,457.5948 942.7327,457.5948 Q940.8895,457.5948 939.919,456.3802 Q938.9486,455.1656 938.9486,452.8707 Q938.9486,450.5697 939.919,449.3551 Q940.8895,448.1405 942.7327,448.1405 Q943.2515,448.1405 943.7276,448.2503 Q944.2037,448.3602 944.6187,448.5799 L944.6187,450.5819 Q944.1549,450.1546 943.7185,449.9563 Q943.2821,449.7579 942.8182,449.7579 Q941.8294,449.7579 941.3259,450.5422 Q940.8223,451.3265 940.8223,452.8707 Q940.8223,454.4088 941.3259,455.1931 Q941.8294,455.9774 942.8182,455.9774 Q943.2821,455.9774 943.7185,455.779 Q944.1549,455.5806 944.6187,455.1534 Z " fill="#000000"/><text fill="#D8BC00" font-family="Open Sans,Avenir,Nunito,Arial,Helvetica,SansSerif" font-size="12.5" font-weight="bold" lengthAdjust="spacing" textLength="121.875" x="965.625" y="457.4544">HttpsPostResource</text><line style="stroke:#5E5E5E;stroke-width:1.5625;" x1="813.0208" x2="1208.8542" y1="468.4245" y2="468.4245"/><ellipse cx="823.4375" cy="503.7944" fill="#84BE84" rx="3.125" ry="3.125" style="stroke:#038048;stroke-width:1.0416666666666667;"/><text fill="#D8BC00" font-family="Open Sans,Avenir,Nunito,Arial,Helvetica,SansSerif" font-size="11.4583" lengthAdjust="spacing" textLength="238.5417" x="834.8958" y="510.7056">HttpsPostResource(HttpsNetworkLocation)</text><ellipse cx="823.4375" cy="523.5392" fill="#84BE84" rx="3.125" ry="3.125" style="stroke:#038048;stroke-width:1.0416666666666667;"/><text fill="#D8BC00" font-family="Open Sans,Avenir,Nunito,Arial,Helvetica,SansSerif" font-size="11.4583" lengthAdjust="spacing" textLength="365.625" x="834.8958" y="530.4504">HttpsPostResource(NetworkLocation, NetworkAccessConstraints)</text><line style="stroke:#5E5E5E;stroke-width:1.0416666666666667;" x1="813.0208" x2="967.1875" y1="486.6302" y2="486.6302"/><text fill="#D8BC00" font-family="Open Sans,Avenir,Nunito,Arial,Helvetica,SansSerif" font-size="11.4583" lengthAdjust="spacing" textLength="81.25" x="970.3125" y="490.4399">(constructors)</text><line style="stroke:#5E5E5E;stroke-width:1.0416666666666667;" x1="1054.6875" x2="1208.8542" y1="486.6302" y2="486.6302"/><!--MD5=[ce08bc2106e031bead713899a63b58db]
class HttpsNetworkLocationConverter--><rect codeLine="32" fill="#282828" height="83.3781" id="HttpsNetworkLocationConverter" rx="8.3333" ry="8.3333" style="stroke:#5E5E5E;stroke-width:1.0416666666666667;" width="265.625" x="7.2917" y="216.7236"/><rect fill="#1B1B1A" height="31.3883" rx="8.3333" ry="8.3333" style="stroke:#1B1B1A;stroke-width:1.0416666666666667;" width="265.625" x="7.2917" y="216.7236"/><rect fill="#1B1B1A" height="8.3333" style="stroke:#1B1B1A;stroke-width:1.0416666666666667;" width="265.625" x="7.2917" y="239.7786"/><rect codeLine="32" fill="none" height="83.3781" id="HttpsNetworkLocationConverter" rx="8.3333" ry="8.3333" style="stroke:#5E5E5E;stroke-width:1.0416666666666667;" width="265.625" x="7.2917" y="216.7236"/><ellipse cx="30.7813" cy="232.4178" fill="#0066CF" rx="10.4167" ry="10.4167" style="stroke:#0086EF;stroke-width:1.0416666666666667;"/><path d="M32.6917,236.8429 Q32.2644,237.0626 31.7944,237.1724 Q31.3245,237.2823 30.8057,237.2823 Q28.9624,237.2823 27.9919,236.0677 Q27.0215,234.8531 27.0215,232.5582 Q27.0215,230.2572 27.9919,229.0426 Q28.9624,227.828 30.8057,227.828 Q31.3245,227.828 31.8005,227.9378 Q32.2766,228.0477 32.6917,228.2674 L32.6917,230.2694 Q32.2278,229.8421 31.7914,229.6438 Q31.355,229.4454 30.8911,229.4454 Q29.9023,229.4454 29.3988,230.2297 Q28.8953,231.014 28.8953,232.5582 Q28.8953,234.0963 29.3988,234.8806 Q29.9023,235.6649 30.8911,235.6649 Q31.355,235.6649 31.7914,235.4665 Q32.2278,235.2681 32.6917,234.8409 Z " fill="#000000"/><text fill="#D8BC00" font-family="Open Sans,Avenir,Nunito,Arial,Helvetica,SansSerif" font-size="12.5" font-weight="bold" lengthAdjust="spacing" textLength="208.3333" x="49.4271" y="237.1419">HttpsNetworkLocationConverter</text><line style="stroke:#5E5E5E;stroke-width:1.5625;" x1="8.3333" x2="271.875" y1="248.112" y2="248.112"/><ellipse cx="18.75" cy="283.4819" fill="#84BE84" rx="3.125" ry="3.125" style="stroke:#038048;stroke-width:1.0416666666666667;"/><text fill="#D8BC00" font-family="Open Sans,Avenir,Nunito,Arial,Helvetica,SansSerif" font-size="11.4583" lengthAdjust="spacing" textLength="233.3333" x="30.2083" y="290.3931">HttpsNetworkLocationConverter(Listener)</text><line style="stroke:#5E5E5E;stroke-width:1.0416666666666667;" x1="8.3333" x2="96.3542" y1="266.3177" y2="266.3177"/><text fill="#D8BC00" font-family="Open Sans,Avenir,Nunito,Arial,Helvetica,SansSerif" font-size="11.4583" lengthAdjust="spacing" textLength="81.25" x="99.4792" y="270.1274">(constructors)</text><line style="stroke:#5E5E5E;stroke-width:1.0416666666666667;" x1="183.8542" x2="271.875" y1="266.3177" y2="266.3177"/><!--MD5=[1d9e1dbf485c7f50b25d1a9966e9bb48]
class HttpPostResource--><rect fill="#282828" height="48.055" id="HttpPostResource" rx="8.3333" ry="8.3333" style="stroke:#5E5E5E;stroke-width:1.0416666666666667;" width="152.0833" x="995.3125" y="234.432"/><rect fill="#1B1B1A" height="31.3883" rx="8.3333" ry="8.3333" style="stroke:#1B1B1A;stroke-width:1.0416666666666667;" width="152.0833" x="995.3125" y="234.432"/><rect fill="#1B1B1A" height="8.3333" style="stroke:#1B1B1A;stroke-width:1.0416666666666667;" width="152.0833" x="995.3125" y="257.487"/><rect fill="none" height="48.055" id="HttpPostResource" rx="8.3333" ry="8.3333" style="stroke:#5E5E5E;stroke-width:1.0416666666666667;" width="152.0833" x="995.3125" y="234.432"/><ellipse cx="1009.8958" cy="250.1261" fill="#0066CF" rx="10.4167" ry="10.4167" style="stroke:#0086EF;stroke-width:1.0416666666666667;"/><path d="M1011.8062,254.5512 Q1011.379,254.7709 1010.909,254.8808 Q1010.439,254.9906 1009.9202,254.9906 Q1008.077,254.9906 1007.1065,253.776 Q1006.1361,252.5614 1006.1361,250.2665 Q1006.1361,247.9655 1007.1065,246.7509 Q1008.077,245.5363 1009.9202,245.5363 Q1010.439,245.5363 1010.9151,245.6462 Q1011.3912,245.756 1011.8062,245.9757 L1011.8062,247.9777 Q1011.3424,247.5505 1010.906,247.3521 Q1010.4696,247.1537 1010.0057,247.1537 Q1009.0169,247.1537 1008.5134,247.938 Q1008.0098,248.7223 1008.0098,250.2665 Q1008.0098,251.8046 1008.5134,252.5889 Q1009.0169,253.3732 1010.0057,253.3732 Q1010.4696,253.3732 1010.906,253.1748 Q1011.3424,252.9765 1011.8062,252.5492 Z " fill="#000000"/><text fill="#D8BC00" font-family="Open Sans,Avenir,Nunito,Arial,Helvetica,SansSerif" font-size="12.5" font-weight="bold" lengthAdjust="spacing" textLength="114.5833" x="1026.5625" y="254.8503">HttpPostResource</text><line style="stroke:#5E5E5E;stroke-width:1.0416666666666667;" x1="996.3542" x2="1146.3542" y1="265.8203" y2="265.8203"/><line style="stroke:#5E5E5E;stroke-width:1.0416666666666667;" x1="996.3542" x2="1146.3542" y1="274.1536" y2="274.1536"/><!--MD5=[1200514a78ccd5113e90611e52748276]
reverse link HttpGetResource to HttpsGetResource--><path codeLine="9" d="M394.6354,304.0882 C404.7188,342.1507 419.2083,396.859 429.7396,436.6299 " fill="none" id="HttpGetResource-backto-HttpsGetResource" style="stroke:#545454;stroke-width:1.5625;"/><polygon fill="none" points="387.625,306.0882,389.3438,284.0882,401.7292,302.359,387.625,306.0882" style="stroke:#545454;stroke-width:1.5625;"/><!--MD5=[213fb8a5aa24c7e91af524201834225b]
reverse link HttpNetworkLocation to HttpsNetworkLocation--><path codeLine="17" d="M725.5208,124.3903 C725.5208,136.8174 725.5208,150.7445 725.5208,164.7861 " fill="none" id="HttpNetworkLocation-backto-HttpsNetworkLocation" style="stroke:#545454;stroke-width:1.5625;"/><polygon fill="none" points="718.2292,124.4632,725.5208,103.6299,732.8125,124.4632,718.2292,124.4632" style="stroke:#545454;stroke-width:1.5625;"/><!--MD5=[d6db9f4910e65db30be39271c319bb78]
link HttpsNetworkLocation to HttpsGetResource--><path codeLine="18" d="M611.1042,351.8903 C577.3021,379.2132 541.375,408.2445 511.4583,432.4215 " fill="none" id="HttpsNetworkLocation-to-HttpsGetResource" style="stroke:#545454;stroke-width:1.5625;"/><polygon fill="#545454" points="507.5625,435.5674,517.472,432.9114,511.612,432.292,512.2314,426.4321,507.5625,435.5674" style="stroke:#545454;stroke-width:1.5625;"/><text fill="#A0A0A0" font-family="Open Sans,Avenir,Nunito,Arial,Helvetica,SansSerif" font-size="12.5" font-weight="bold" lengthAdjust="spacing" textLength="45.8333" x="572.3958" y="399.1211">creates</text><!--MD5=[b7a7326acb763efc76d5070fc66a42ff]
link HttpsNetworkLocation to HttpsPostResource--><path codeLine="19" d="M841.1979,351.8903 C875.3854,379.2132 911.7083,408.2445 941.9479,432.4215 " fill="none" id="HttpsNetworkLocation-to-HttpsPostResource" style="stroke:#545454;stroke-width:1.5625;"/><polygon fill="#545454" points="945.9063,435.5778,941.1641,426.4803,941.8305,432.3351,935.9758,433.0015,945.9063,435.5778" style="stroke:#545454;stroke-width:1.5625;"/><text fill="#A0A0A0" font-family="Open Sans,Avenir,Nunito,Arial,Helvetica,SansSerif" font-size="12.5" font-weight="bold" lengthAdjust="spacing" textLength="45.8333" x="905.7292" y="399.1211">creates</text><!--MD5=[70b2725252cd45cddd645f707bcaff65]
reverse link BaseStringConverter to HttpsNetworkLocationConverter--><path codeLine="31" d="M140.1042,124.109 C140.1042,152.4632 140.1042,188.6924 140.1042,216.2132 " fill="none" id="BaseStringConverter-backto-HttpsNetworkLocationConverter" style="stroke:#545454;stroke-width:1.5625;"/><polygon fill="none" points="132.8125,124.4632,140.1042,103.6299,147.3958,124.4632,132.8125,124.4632" style="stroke:#545454;stroke-width:1.5625;"/><!--MD5=[3ba637b8b217407208f245f145aa819a]
reverse link HttpPostResource to HttpsPostResource--><path codeLine="38" d="M1059.5313,304.0882 C1049.4479,342.1507 1034.9583,396.859 1024.4271,436.6299 " fill="none" id="HttpPostResource-backto-HttpsPostResource" style="stroke:#545454;stroke-width:1.5625;"/><polygon fill="none" points="1052.4375,302.359,1064.8229,284.0882,1066.5417,306.0882,1052.4375,302.359" style="stroke:#545454;stroke-width:1.5625;"/><!--MD5=[6aca66bcbac72ed98041067a2fc3b8b3]
@startuml

    !include lexakai.theme
    
    title "com.telenav.kivakit.network.https"
    
    abstract BaseStringConverter
    
    HttpGetResource <|- - HttpsGetResource
    class HttpsGetResource
    {
        - -(constructors)- -
        +HttpsGetResource(HttpsNetworkLocation)
        +HttpsGetResource(HttpsNetworkLocation, NetworkAccessConstraints)
    }
    
    HttpNetworkLocation <|- - HttpsNetworkLocation
    HttpsNetworkLocation - -> HttpsGetResource : "creates"
    HttpsNetworkLocation - -> HttpsPostResource : "creates"
    class HttpsNetworkLocation
    {
        - -(constructors)- -
        +HttpsNetworkLocation(NetworkPath)
        +HttpsNetworkLocation(URI)
        - -(network)- -
        +HttpsNetworkLocation parseSecureHttpNetworkLocation(Listener, String path)
        +HttpsNetworkLocation secureHttpNetworkLocation(String path)
        +HttpsNetworkLocation secureHttpNetworkLocation(NetworkPath)
    }
    
    BaseStringConverter <|- - HttpsNetworkLocationConverter
    class HttpsNetworkLocationConverter
    {
        - -(constructors)- -
        +HttpsNetworkLocationConverter(Listener)
    }
    
    HttpPostResource <|- - HttpsPostResource
    class HttpsPostResource
    {
        - -(constructors)- -
        +HttpsPostResource(HttpsNetworkLocation)
        +HttpsPostResource(NetworkLocation, NetworkAccessConstraints)
    }
    
@enduml

@startuml









skinparam backgroundColor #333333






skinparam  {
    defaultFontName   "Open Sans,Avenir,Nunito,Arial,Helvetica,SansSerif"
    defaultFontSize   12
    defaultTextAlignment left
    shadowing false
    RoundCorner 10
    TitleFontSize 18
}

skinparam defaultFontName       "Open Sans,Avenir,Nunito,Arial,Helvetica,SansSerif"
skinparam defaultFontSize       12
skinparam dpi                   100
skinparam shadowing             false
skinparam roundcorner           16
skinparam ParticipantPadding    40
skinparam BoxPadding            40
skinparam Padding               3
skinparam ArrowColor            #545454
skinparam stereotype {
    CBackgroundColor #0066cf
    CBorderColor #0086ef
    ABackgroundColor #C8Ac00
    ABorderColor #D8Bc00
    IBackgroundColor #008400
    IBorderColor #239c23
    EBackgroundColor #cf6300
    EBorderColor #ef8300
    NBackgroundColor #3380b9
    NBorderColor #004d86
}
skinparam title {
	FontColor	                 #c0c0c0
 	BorderColor                  #545454
	FontSize	    	         20
	BorderRoundCorner            16
	BorderThickness 	         1
	BackgroundColor              #48494b
}


skinparam legend {
	BackgroundColor #303030
	BorderColor #404040
	FontColor #a0a0a0
}

	skinparam swimlane {
	BorderColor #5e5e5e
	BorderThickness 2
	TitleBackgroundColor  #6d6d6d-#484848
	TitleFontColor #303030
}

skinparam activity {
		FontColor #C8Ac00
	BorderColor #333333
	BackgroundColor #333333-#333333
	BarColor #00FF00
	StartColor #0060a8
	EndColor #0060a8
	DiamondBackgroundColor #6d6d6d-#3a3a3a
  	DiamondBorderColor #3a3a3a
  	DiamondFontColor #fefefe
}


skinparam participant {
		FontColor #C8Ac00
	BorderColor #333333
	BackgroundColor #333333-#333333
	ParticipantBorderThickness 2
}


skinparam actor {
		FontColor #C8Ac00
	BorderColor #333333
	BackgroundColor #333333-#333333
}


skinparam arrow {
	Thickness 1.5
	Color #545454
	FontColor #a0a0a0
    FontStyle bold
    MessageAlignment center
}



skinparam sequence {
	BorderColor #303030
	TitleFontColor #303030
	BackgroundColor #333333
	StartColor #303030
	EndColor #303030
	BoxBackgroundColor #333333
	BoxBorderColor #484848
	BoxFontColor #484848
	LifeLineBorderColor #484848
	LifeLineBorderThickness 2
	LifeLineBackgroundColor #3a3a3a
	GroupBorderColor #484848
	GroupFontColor #484848
	GroupHeaderFontColor #0060a8
	GroupBackgroundColor #484848
	GroupHeaderBackgroundColor #333333
	DividerBackgroundColor #484848
    DividerBorderColor #484848
    DividerBorderThickness 2
    DividerFontColor #D8Bc00
	ReferenceBackgroundColor #333333
	ReferenceBorderColor #484848
	ReferenceFontColor #fefefe
	ReferenceHeaderBackgroundColor #484848
}


skinparam partition {
	BorderColor #303030
	FontColor #333333
	BackgroundColor #333333
}


skinparam collections {
		FontColor #C8Ac00
	BorderColor #333333
	BackgroundColor #333333-#333333
}


skinparam control {
		FontColor #C8Ac00
	BorderColor #333333
	BackgroundColor #333333-#333333
}


skinparam entity {
		FontColor #C8Ac00
	BorderColor #333333
	BackgroundColor #333333-#333333
}


skinparam boundary {
		FontColor #C8Ac00
	BorderColor #333333
	BackgroundColor #333333-#333333
}


skinparam agent {
	BackgroundColor #ff8000
	BorderColor #ff9933
	FontColor #484848
}


skinparam note {
	BorderThickness 1
	BackgroundColor #1b1b1a
	BorderColor #5e5e5e
	FontSize 11
	FontColor #a0a0a0
}


skinparam artifact {
	BorderThickness 10
	BorderColor #5e5e5e
	BackgroundColor #1b1b1a
	FontColor #D8Bc00
}


skinparam component {
		FontColor #C8Ac00
	BorderColor #333333
	BackgroundColor #333333-#333333
}


skinparam interface {
	BackgroundColor  #008400
	BorderColor  #007F00
	FontColor #484848
}


skinparam storage {
	BackgroundColor #ff8000
  	BorderColor #cc6600
	FontColor #222222
}


skinparam node {
	BackgroundColor #333333
	BorderColor #333333
	FontColor #C8Ac00
}


skinparam cloud {
	BackgroundColor #484848-black
	BorderColor #484848
	FontColor #D8Bc00
}


skinparam database {
		FontColor #C8Ac00
	BorderColor #333333
	BackgroundColor #333333-#333333
	BackgroundColor  #333333
}


skinparam class {
		FontColor #C8Ac00
	BorderColor #333333
	BackgroundColor #333333-#333333
	HeaderBackgroundColor #1b1b1a
    BackgroundColor #282828
    BorderColor #5e5e5e
 	StereotypeFontColor #a0a0a0
    StereotypeFontStyle bold
	BorderThickness 1
	AttributeFontColor #D8Bc00
	AttributeFontSize 11
    FontColor #D8Bc00
    FontStyle bold
}


skinparam object {
		FontColor #C8Ac00
	BorderColor #333333
	BackgroundColor #333333-#333333
	StereotypeFontColor #484848
	BorderThickness 1
	AttributeFontColor #fefefe
	AttributeFontSize 11
}


skinparam usecase {
		FontColor #C8Ac00
	BorderColor #333333
	BackgroundColor #333333-#333333
	BorderThickness 2
	StereotypeFontColor #303030
}


skinparam rectangle {
		FontColor #C8Ac00
	BorderColor #333333
	BackgroundColor #333333-#333333
	BackgroundColor #333333
	BorderThickness 2
	StereotypeFontColor #303030
}


skinparam package {
		FontColor #C8Ac00
	BorderColor #333333
	BackgroundColor #333333-#333333
	BackgroundColor #333333
	BorderThickness 2
}


skinparam folder {
	BackgroundColor #6d6d6d
  	BorderColor #ff8000
	FontColor #ff8000
	BorderThickness 2
}


skinparam frame {
	BackgroundColor #6d6d6d
  	BorderColor #0060a8
	FontColor #0060a8
	BorderThickness 2
}


skinparam state {
		FontColor #C8Ac00
	BorderColor #333333
	BackgroundColor #333333-#333333
	StartColor #0060a8
	EndColor #0060a8
	AttributeFontColor #fefefe
	AttributeFontSize 11
}


skinparam queue {
		FontColor #C8Ac00
	BorderColor #333333
	BackgroundColor #333333-#333333
}


skinparam card {
	BackgroundColor #0060a8
	BorderColor #004d86
	FontColor $INFO_TEXT
}


skinparam file {
	BackgroundColor #6d6d6d-#484848
	BorderColor #0060a8
	FontColor #fefefe
}


skinparam stack {
		FontColor #C8Ac00
	BorderColor #333333
	BackgroundColor #333333-#333333
}

    
    title "com.telenav.kivakit.network.https"
    
    abstract BaseStringConverter
    
    HttpGetResource <|- - HttpsGetResource
    class HttpsGetResource
    {
        - -(constructors)- -
        +HttpsGetResource(HttpsNetworkLocation)
        +HttpsGetResource(HttpsNetworkLocation, NetworkAccessConstraints)
    }
    
    HttpNetworkLocation <|- - HttpsNetworkLocation
    HttpsNetworkLocation - -> HttpsGetResource : "creates"
    HttpsNetworkLocation - -> HttpsPostResource : "creates"
    class HttpsNetworkLocation
    {
        - -(constructors)- -
        +HttpsNetworkLocation(NetworkPath)
        +HttpsNetworkLocation(URI)
        - -(network)- -
        +HttpsNetworkLocation parseSecureHttpNetworkLocation(Listener, String path)
        +HttpsNetworkLocation secureHttpNetworkLocation(String path)
        +HttpsNetworkLocation secureHttpNetworkLocation(NetworkPath)
    }
    
    BaseStringConverter <|- - HttpsNetworkLocationConverter
    class HttpsNetworkLocationConverter
    {
        - -(constructors)- -
        +HttpsNetworkLocationConverter(Listener)
    }
    
    HttpPostResource <|- - HttpsPostResource
    class HttpsPostResource
    {
        - -(constructors)- -
        +HttpsPostResource(HttpsNetworkLocation)
        +HttpsPostResource(NetworkLocation, NetworkAccessConstraints)
    }
    
@enduml

PlantUML version 1.2021.01(Tue Feb 02 00:55:08 MST 2021)
(GPL source distribution)
Java Runtime: OpenJDK Runtime Environment
JVM: OpenJDK 64-Bit Server VM
Default Encoding: UTF-8
Language: en
Country: US
--></g></svg>