<?xml version="1.0" encoding="UTF-8" standalone="no"?><svg xmlns="http://www.w3.org/2000/svg" xmlns:xlink="http://www.w3.org/1999/xlink" contentScriptType="application/ecmascript" contentStyleType="text/css" height="381.25px" preserveAspectRatio="none" style="width:794px;height:381px;background:#333333;" version="1.1" viewBox="0 0 794 381" width="794.7917px" zoomAndPan="magnify"><defs/><g><rect fill="#48494B" height="41.2028" rx="8.3333" ry="8.3333" style="stroke:#545454;stroke-width:1.0416666666666667;" width="479.1667" x="150.7813" y="2.0833"/><text fill="#C0C0C0" font-family="Open Sans,Avenir,Nunito,Arial,Helvetica,SansSerif" font-size="20.8333" lengthAdjust="spacing" textLength="456.25" x="162.2396" y="30.5583">com.telenav.kivakit.examples.settings.lookup</text><rect codeLine="7" fill="#282828" height="48.055" id="BaseComponent" rx="8.3333" ry="8.3333" style="stroke:#5E5E5E;stroke-width:1.0416666666666667;" width="143.75" x="196.875" y="103.182"/><rect fill="#1B1B1A" height="31.3883" rx="8.3333" ry="8.3333" style="stroke:#1B1B1A;stroke-width:1.0416666666666667;" width="143.75" x="196.875" y="103.182"/><rect fill="#1B1B1A" height="8.3333" style="stroke:#1B1B1A;stroke-width:1.0416666666666667;" width="143.75" x="196.875" y="126.237"/><rect codeLine="7" fill="none" height="48.055" id="BaseComponent" rx="8.3333" ry="8.3333" style="stroke:#5E5E5E;stroke-width:1.0416666666666667;" width="143.75" x="196.875" y="103.182"/><ellipse cx="211.4583" cy="118.8761" fill="#C8AC00" rx="10.4167" ry="10.4167" style="stroke:#D8BC00;stroke-width:1.0416666666666667;"/><path d="M211.0514,115.5782 L210.203,119.3075 L211.9059,119.3075 Z M209.9528,113.9303 L212.1562,113.9303 L214.6159,123.0428 L212.8153,123.0428 L212.2538,120.7906 L209.8429,120.7906 L209.2936,123.0428 L207.4931,123.0428 Z " fill="#000000"/><text fill="#D8BC00" font-family="Open Sans,Avenir,Nunito,Arial,Helvetica,SansSerif" font-size="12.5" font-style="italic" font-weight="bold" lengthAdjust="spacing" textLength="106.25" x="228.125" y="123.6003">BaseComponent</text><line style="stroke:#5E5E5E;stroke-width:1.0416666666666667;" x1="197.9167" x2="339.5833" y1="134.5703" y2="134.5703"/><line style="stroke:#5E5E5E;stroke-width:1.0416666666666667;" x1="197.9167" x2="339.5833" y1="142.9036" y2="142.9036"/><rect codeLine="10" fill="#282828" height="111.4563" id="Alien" rx="8.3333" ry="8.3333" style="stroke:#5E5E5E;stroke-width:1.0416666666666667;" width="125" x="7.2917" y="263.0778"/><rect fill="#1B1B1A" height="31.3883" rx="8.3333" ry="8.3333" style="stroke:#1B1B1A;stroke-width:1.0416666666666667;" width="125" x="7.2917" y="263.0778"/><rect fill="#1B1B1A" height="8.3333" style="stroke:#1B1B1A;stroke-width:1.0416666666666667;" width="125" x="7.2917" y="286.1328"/><rect codeLine="10" fill="none" height="111.4563" id="Alien" rx="8.3333" ry="8.3333" style="stroke:#5E5E5E;stroke-width:1.0416666666666667;" width="125" x="7.2917" y="263.0778"/><ellipse cx="46.25" cy="278.772" fill="#0066CF" rx="10.4167" ry="10.4167" style="stroke:#0086EF;stroke-width:1.0416666666666667;"/><path d="M48.1604,283.197 Q47.7332,283.4167 47.2632,283.5266 Q46.7932,283.6365 46.2744,283.6365 Q44.4312,283.6365 43.4607,282.4219 Q42.4902,281.2073 42.4902,278.9124 Q42.4902,276.6113 43.4607,275.3967 Q44.4312,274.1821 46.2744,274.1821 Q46.7932,274.1821 47.2693,274.292 Q47.7454,274.4019 48.1604,274.6216 L48.1604,276.6235 Q47.6965,276.1963 47.2601,275.9979 Q46.8237,275.7996 46.3599,275.7996 Q45.3711,275.7996 44.8676,276.5839 Q44.364,277.3682 44.364,278.9124 Q44.364,280.4504 44.8676,281.2347 Q45.3711,282.019 46.3599,282.019 Q46.8237,282.019 47.2601,281.8207 Q47.6965,281.6223 48.1604,281.1951 Z " fill="#000000"/><text fill="#D8BC00" font-family="Open Sans,Avenir,Nunito,Arial,Helvetica,SansSerif" font-size="12.5" font-weight="bold" lengthAdjust="spacing" textLength="33.3333" x="68.3333" y="283.4961">Alien</text><line style="stroke:#5E5E5E;stroke-width:1.5625;" x1="8.3333" x2="131.25" y1="294.4661" y2="294.4661"/><ellipse cx="18.75" cy="329.836" fill="#84BE84" rx="3.125" ry="3.125" style="stroke:#038048;stroke-width:1.0416666666666667;"/><text fill="#D8BC00" font-family="Open Sans,Avenir,Nunito,Arial,Helvetica,SansSerif" font-size="11.4583" lengthAdjust="spacing" textLength="92.7083" x="30.2083" y="336.7472">Alien(Spaceship)</text><line style="stroke:#5E5E5E;stroke-width:1.0416666666666667;" x1="8.3333" x2="26.0417" y1="312.6719" y2="312.6719"/><text fill="#D8BC00" font-family="Open Sans,Avenir,Nunito,Arial,Helvetica,SansSerif" font-size="11.4583" lengthAdjust="spacing" textLength="81.25" x="29.1667" y="316.4815">(constructors)</text><line style="stroke:#5E5E5E;stroke-width:1.0416666666666667;" x1="113.5417" x2="131.25" y1="312.6719" y2="312.6719"/><line style="stroke:#5E5E5E;stroke-width:1.0416666666666667;" x1="8.3333" x2="131.25" y1="346.4559" y2="346.4559"/><ellipse cx="18.75" cy="357.9142" fill="#84BE84" rx="3.125" ry="3.125" style="stroke:#038048;stroke-width:1.0416666666666667;"/><text fill="#D8BC00" font-family="Open Sans,Avenir,Nunito,Arial,Helvetica,SansSerif" font-size="11.4583" lengthAdjust="spacing" textLength="68.75" x="30.2083" y="364.8254">void attack()</text><rect codeLine="18" fill="#282828" height="146.7794" id="AttackPlan" rx="8.3333" ry="8.3333" style="stroke:#5E5E5E;stroke-width:1.0416666666666667;" width="170.8333" x="377.0833" y="53.7028"/><rect fill="#1B1B1A" height="31.3883" rx="8.3333" ry="8.3333" style="stroke:#1B1B1A;stroke-width:1.0416666666666667;" width="170.8333" x="377.0833" y="53.7028"/><rect fill="#1B1B1A" height="8.3333" style="stroke:#1B1B1A;stroke-width:1.0416666666666667;" width="170.8333" x="377.0833" y="76.7578"/><rect codeLine="18" fill="none" height="146.7794" id="AttackPlan" rx="8.3333" ry="8.3333" style="stroke:#5E5E5E;stroke-width:1.0416666666666667;" width="170.8333" x="377.0833" y="53.7028"/><ellipse cx="420.8333" cy="69.397" fill="#0066CF" rx="10.4167" ry="10.4167" style="stroke:#0086EF;stroke-width:1.0416666666666667;"/><path d="M422.7437,73.822 Q422.3165,74.0417 421.8465,74.1516 Q421.3765,74.2615 420.8577,74.2615 Q419.0145,74.2615 418.044,73.0469 Q417.0736,71.8323 417.0736,69.5374 Q417.0736,67.2363 418.044,66.0217 Q419.0145,64.8071 420.8577,64.8071 Q421.3765,64.8071 421.8526,64.917 Q422.3287,65.0269 422.7437,65.2466 L422.7437,67.2485 Q422.2799,66.8213 421.8435,66.6229 Q421.4071,66.4246 420.9432,66.4246 Q419.9544,66.4246 419.4509,67.2089 Q418.9473,67.9932 418.9473,69.5374 Q418.9473,71.0754 419.4509,71.8597 Q419.9544,72.644 420.9432,72.644 Q421.4071,72.644 421.8435,72.4457 Q422.2799,72.2473 422.7437,71.8201 Z " fill="#000000"/><text fill="#D8BC00" font-family="Open Sans,Avenir,Nunito,Arial,Helvetica,SansSerif" font-size="12.5" font-weight="bold" lengthAdjust="spacing" textLength="68.75" x="443.75" y="74.1211">AttackPlan</text><line style="stroke:#5E5E5E;stroke-width:1.5625;" x1="378.125" x2="546.875" y1="85.0911" y2="85.0911"/><polygon fill="#FFFF44" points="388.5417,115.2527,392.7083,119.4194,388.5417,123.586,384.375,119.4194" style="stroke:#B38D22;stroke-width:1.0416666666666667;"/><text fill="#D8BC00" font-family="Open Sans,Avenir,Nunito,Arial,Helvetica,SansSerif" font-size="11.4583" lengthAdjust="spacing" textLength="125" x="400" y="127.3722">AttackPlan(AttackPlan)</text><ellipse cx="388.5417" cy="140.2059" fill="#84BE84" rx="3.125" ry="3.125" style="stroke:#038048;stroke-width:1.0416666666666667;"/><text fill="#D8BC00" font-family="Open Sans,Avenir,Nunito,Arial,Helvetica,SansSerif" font-size="11.4583" lengthAdjust="spacing" textLength="66.6667" x="400" y="147.1171">AttackPlan()</text><line style="stroke:#5E5E5E;stroke-width:1.0416666666666667;" x1="378.125" x2="418.75" y1="103.2969" y2="103.2969"/><text fill="#D8BC00" font-family="Open Sans,Avenir,Nunito,Arial,Helvetica,SansSerif" font-size="11.4583" lengthAdjust="spacing" textLength="81.25" x="421.875" y="107.1065">(constructors)</text><line style="stroke:#5E5E5E;stroke-width:1.0416666666666667;" x1="506.25" x2="546.875" y1="103.2969" y2="103.2969"/><ellipse cx="388.5417" cy="183.8623" fill="#84BE84" rx="3.125" ry="3.125" style="stroke:#038048;stroke-width:1.0416666666666667;"/><text fill="#D8BC00" font-family="Open Sans,Avenir,Nunito,Arial,Helvetica,SansSerif" font-size="11.4583" lengthAdjust="spacing" textLength="138.5417" x="400" y="190.7735">void waitForAttackTime()</text><line style="stroke:#5E5E5E;stroke-width:1.0416666666666667;" x1="378.125" x2="443.2292" y1="166.6982" y2="166.6982"/><text fill="#D8BC00" font-family="Open Sans,Avenir,Nunito,Arial,Helvetica,SansSerif" font-size="11.4583" lengthAdjust="spacing" textLength="32.2917" x="446.3542" y="170.5078">(time)</text><line style="stroke:#5E5E5E;stroke-width:1.0416666666666667;" x1="481.7708" x2="546.875" y1="166.6982" y2="166.6982"/><rect codeLine="27" fill="#282828" height="67.7999" id="QuantumDatabase" rx="8.3333" ry="8.3333" style="stroke:#5E5E5E;stroke-width:1.0416666666666667;" width="203.125" x="584.8958" y="93.2861"/><rect fill="#1B1B1A" height="31.3883" rx="8.3333" ry="8.3333" style="stroke:#1B1B1A;stroke-width:1.0416666666666667;" width="203.125" x="584.8958" y="93.2861"/><rect fill="#1B1B1A" height="8.3333" style="stroke:#1B1B1A;stroke-width:1.0416666666666667;" width="203.125" x="584.8958" y="116.3411"/><rect codeLine="27" fill="none" height="67.7999" id="QuantumDatabase" rx="8.3333" ry="8.3333" style="stroke:#5E5E5E;stroke-width:1.0416666666666667;" width="203.125" x="584.8958" y="93.2861"/><ellipse cx="619.6354" cy="108.9803" fill="#0066CF" rx="10.4167" ry="10.4167" style="stroke:#0086EF;stroke-width:1.0416666666666667;"/><path d="M621.5458,113.4054 Q621.1186,113.6251 620.6486,113.7349 Q620.1786,113.8448 619.6598,113.8448 Q617.8166,113.8448 616.8461,112.6302 Q615.8757,111.4156 615.8757,109.1207 Q615.8757,106.8197 616.8461,105.6051 Q617.8166,104.3905 619.6598,104.3905 Q620.1786,104.3905 620.6547,104.5003 Q621.1308,104.6102 621.5458,104.8299 L621.5458,106.8319 Q621.0819,106.4046 620.6455,106.2063 Q620.2091,106.0079 619.7453,106.0079 Q618.7565,106.0079 618.253,106.7922 Q617.7494,107.5765 617.7494,109.1207 Q617.7494,110.6588 618.253,111.4431 Q618.7565,112.2274 619.7453,112.2274 Q620.2091,112.2274 620.6455,112.029 Q621.0819,111.8306 621.5458,111.4034 Z " fill="#000000"/><text fill="#D8BC00" font-family="Open Sans,Avenir,Nunito,Arial,Helvetica,SansSerif" font-size="12.5" font-weight="bold" lengthAdjust="spacing" textLength="120.8333" x="640.7813" y="113.7044">QuantumDatabase</text><line style="stroke:#5E5E5E;stroke-width:1.5625;" x1="585.9375" x2="786.9792" y1="124.6745" y2="124.6745"/><line style="stroke:#5E5E5E;stroke-width:1.0416666666666667;" x1="585.9375" x2="786.9792" y1="133.0078" y2="133.0078"/><ellipse cx="596.3542" cy="144.4661" fill="#84BE84" rx="3.125" ry="3.125" style="stroke:#038048;stroke-width:1.0416666666666667;"/><text fill="#D8BC00" font-family="Open Sans,Avenir,Nunito,Arial,Helvetica,SansSerif" font-size="11.4583" lengthAdjust="spacing" textLength="170.8333" x="607.8125" y="151.3774">AttackPlan retrieveAttackPlan()</text><rect codeLine="34" fill="#282828" height="111.4563" id="RegistryExample" rx="8.3333" ry="8.3333" style="stroke:#5E5E5E;stroke-width:1.0416666666666667;" width="200" x="168.75" y="263.0778"/><rect fill="#1B1B1A" height="31.3883" rx="8.3333" ry="8.3333" style="stroke:#1B1B1A;stroke-width:1.0416666666666667;" width="200" x="168.75" y="263.0778"/><rect fill="#1B1B1A" height="8.3333" style="stroke:#1B1B1A;stroke-width:1.0416666666666667;" width="200" x="168.75" y="286.1328"/><rect codeLine="34" fill="none" height="111.4563" id="RegistryExample" rx="8.3333" ry="8.3333" style="stroke:#5E5E5E;stroke-width:1.0416666666666667;" width="200" x="168.75" y="263.0778"/><ellipse cx="208.1771" cy="278.772" fill="#0066CF" rx="10.4167" ry="10.4167" style="stroke:#0086EF;stroke-width:1.0416666666666667;"/><path d="M210.0875,283.197 Q209.6602,283.4167 209.1903,283.5266 Q208.7203,283.6365 208.2015,283.6365 Q206.3582,283.6365 205.3878,282.4219 Q204.4173,281.2073 204.4173,278.9124 Q204.4173,276.6113 205.3878,275.3967 Q206.3582,274.1821 208.2015,274.1821 Q208.7203,274.1821 209.1964,274.292 Q209.6724,274.4019 210.0875,274.6216 L210.0875,276.6235 Q209.6236,276.1963 209.1872,275.9979 Q208.7508,275.7996 208.2869,275.7996 Q207.2982,275.7996 206.7946,276.5839 Q206.2911,277.3682 206.2911,278.9124 Q206.2911,280.4504 206.7946,281.2347 Q207.2982,282.019 208.2869,282.019 Q208.7508,282.019 209.1872,281.8207 Q209.6236,281.6223 210.0875,281.1951 Z " fill="#000000"/><text fill="#D8BC00" font-family="Open Sans,Avenir,Nunito,Arial,Helvetica,SansSerif" font-size="12.5" font-weight="bold" lengthAdjust="spacing" textLength="107.2917" x="230.3646" y="283.4961">RegistryExample</text><line style="stroke:#5E5E5E;stroke-width:1.5625;" x1="169.7917" x2="367.7083" y1="294.4661" y2="294.4661"/><line style="stroke:#5E5E5E;stroke-width:1.0416666666666667;" x1="169.7917" x2="367.7083" y1="302.7995" y2="302.7995"/><ellipse cx="180.2083" cy="314.2578" fill="#84BE84" rx="3.125" ry="3.125" style="stroke:#038048;stroke-width:1.0416666666666667;"/><text fill="#D8BC00" font-family="Open Sans,Avenir,Nunito,Arial,Helvetica,SansSerif" font-size="11.4583" lengthAdjust="spacing" textLength="167.7083" x="191.6667" y="321.169">void main(String[] arguments)</text><ellipse cx="180.2083" cy="357.9142" fill="#84BE84" rx="3.125" ry="3.125" style="stroke:#038048;stroke-width:1.0416666666666667;"/><text fill="#D8BC00" font-family="Open Sans,Avenir,Nunito,Arial,Helvetica,SansSerif" font-size="11.4583" lengthAdjust="spacing" textLength="55.2083" x="191.6667" y="364.8254">void run()</text><line style="stroke:#5E5E5E;stroke-width:1.0416666666666667;" x1="169.7917" x2="239.0625" y1="340.7501" y2="340.7501"/><text fill="#D8BC00" font-family="Open Sans,Avenir,Nunito,Arial,Helvetica,SansSerif" font-size="11.4583" lengthAdjust="spacing" textLength="53.125" x="242.1875" y="344.5597">(lifecycle)</text><line style="stroke:#5E5E5E;stroke-width:1.0416666666666667;" x1="298.4375" x2="367.7083" y1="340.7501" y2="340.7501"/><rect codeLine="43" fill="#282828" height="83.3781" id="Spaceship" rx="8.3333" ry="8.3333" style="stroke:#5E5E5E;stroke-width:1.0416666666666667;" width="129.1667" x="405.2083" y="277.1403"/><rect fill="#1B1B1A" height="31.3883" rx="8.3333" ry="8.3333" style="stroke:#1B1B1A;stroke-width:1.0416666666666667;" width="129.1667" x="405.2083" y="277.1403"/><rect fill="#1B1B1A" height="8.3333" style="stroke:#1B1B1A;stroke-width:1.0416666666666667;" width="129.1667" x="405.2083" y="300.1953"/><rect codeLine="43" fill="none" height="83.3781" id="Spaceship" rx="8.3333" ry="8.3333" style="stroke:#5E5E5E;stroke-width:1.0416666666666667;" width="129.1667" x="405.2083" y="277.1403"/><ellipse cx="431.9792" cy="292.8345" fill="#0066CF" rx="10.4167" ry="10.4167" style="stroke:#0086EF;stroke-width:1.0416666666666667;"/><path d="M433.8896,297.2595 Q433.4623,297.4792 432.9924,297.5891 Q432.5224,297.699 432.0036,297.699 Q430.1603,297.699 429.1899,296.4844 Q428.2194,295.2698 428.2194,292.9749 Q428.2194,290.6738 429.1899,289.4592 Q430.1603,288.2446 432.0036,288.2446 Q432.5224,288.2446 432.9985,288.3545 Q433.4745,288.4644 433.8896,288.6841 L433.8896,290.686 Q433.4257,290.2588 432.9893,290.0604 Q432.5529,289.8621 432.089,289.8621 Q431.1003,289.8621 430.5967,290.6464 Q430.0932,291.4307 430.0932,292.9749 Q430.0932,294.5129 430.5967,295.2972 Q431.1003,296.0815 432.089,296.0815 Q432.5529,296.0815 432.9893,295.8832 Q433.4257,295.6848 433.8896,295.2576 Z " fill="#000000"/><text fill="#D8BC00" font-family="Open Sans,Avenir,Nunito,Arial,Helvetica,SansSerif" font-size="12.5" font-weight="bold" lengthAdjust="spacing" textLength="64.5833" x="451.3542" y="297.5586">Spaceship</text><line style="stroke:#5E5E5E;stroke-width:1.5625;" x1="406.25" x2="533.3333" y1="308.5286" y2="308.5286"/><ellipse cx="416.6667" cy="343.8985" fill="#84BE84" rx="3.125" ry="3.125" style="stroke:#038048;stroke-width:1.0416666666666667;"/><text fill="#D8BC00" font-family="Open Sans,Avenir,Nunito,Arial,Helvetica,SansSerif" font-size="11.4583" lengthAdjust="spacing" textLength="96.875" x="428.125" y="350.8097">void startAttack()</text><line style="stroke:#5E5E5E;stroke-width:1.0416666666666667;" x1="406.25" x2="440.1042" y1="326.7344" y2="326.7344"/><text fill="#D8BC00" font-family="Open Sans,Avenir,Nunito,Arial,Helvetica,SansSerif" font-size="11.4583" lengthAdjust="spacing" textLength="53.125" x="443.2292" y="330.544">(lifecycle)</text><line style="stroke:#5E5E5E;stroke-width:1.0416666666666667;" x1="499.4792" x2="533.3333" y1="326.7344" y2="326.7344"/><path codeLine="9" d="M229.0104,166.0465 C199.8958,193.7861 159.9583,231.8486 127.3542,262.9111 " fill="none" id="BaseComponent-backto-Alien" style="stroke:#545454;stroke-width:1.5625;"/><polygon fill="none" points="224.2396,160.5257,244.3542,151.432,234.3021,171.0778,224.2396,160.5257" style="stroke:#545454;stroke-width:1.5625;"/><path codeLine="33" d="M268.75,172.4111 C268.75,199.4111 268.75,234.1611 268.75,262.9111 " fill="none" id="BaseComponent-backto-RegistryExample" style="stroke:#545454;stroke-width:1.5625;"/><polygon fill="none" points="261.4583,172.2653,268.75,151.432,276.0417,172.2653,261.4583,172.2653" style="stroke:#545454;stroke-width:1.5625;"/><path codeLine="42" d="M308.8125,165.9632 C342.875,198.0882 391.6771,244.0986 426.6042,277.0361 " fill="none" id="BaseComponent-backto-Spaceship" style="stroke:#545454;stroke-width:1.5625;"/><polygon fill="none" points="303.5521,171.0257,293.4063,151.432,313.5625,160.4215,303.5521,171.0257" style="stroke:#545454;stroke-width:1.5625;"/></g></svg>
