<?xml version="1.0" encoding="UTF-8" standalone="no"?><svg xmlns="http://www.w3.org/2000/svg" xmlns:xlink="http://www.w3.org/1999/xlink" contentScriptType="application/ecmascript" contentStyleType="text/css" height="533.3333px" preserveAspectRatio="none" style="width:2215px;height:533px;background:#333333;" version="1.1" viewBox="0 0 2215 533" width="2215.625px" zoomAndPan="magnify"><defs/><g><rect fill="#48494B" height="41.2028" rx="8.3333" ry="8.3333" style="stroke:#545454;stroke-width:1.0416666666666667;" width="370.8333" x="915.1042" y="2.0833"/><text fill="#C0C0C0" font-family="Open Sans,Avenir,Nunito,Arial,Helvetica,SansSerif" font-size="20.8333" lengthAdjust="spacing" textLength="347.9167" x="926.5625" y="30.5583">kivakit-settings-stores-zookeeper</text><rect fill="#1B1B1A" height="44.93" rx="8.3333" ry="8.3333" style="stroke:#5E5E5E;stroke-width:1.5625;" width="65.625" x="652.6042" y="268.2861"/><polygon fill="#1B1B1A" points="700.5208,273.4945,700.5208,288.0778,713.0208,288.0778,713.0208,279.7445,706.7708,273.4945,700.5208,273.4945" style="stroke:#5E5E5E;stroke-width:1.5625;"/><line style="stroke:#5E5E5E;stroke-width:1.5625;" x1="706.7708" x2="706.7708" y1="273.4945" y2="279.7445"/><line style="stroke:#5E5E5E;stroke-width:1.5625;" x1="713.0208" x2="706.7708" y1="279.7445" y2="279.7445"/><text fill="#D8BC00" font-family="Open Sans,Avenir,Nunito,Arial,Helvetica,SansSerif" font-size="12.5" lengthAdjust="spacing" textLength="28.125" x="666.1458" y="297.0378">gson</text><rect fill="#1B1B1A" height="44.93" rx="8.3333" ry="8.3333" style="stroke:#5E5E5E;stroke-width:1.5625;" width="138.5417" x="434.8958" y="482.8695"/><polygon fill="#1B1B1A" points="555.7292,488.0778,555.7292,502.6611,568.2292,502.6611,568.2292,494.3278,561.9792,488.0778,555.7292,488.0778" style="stroke:#5E5E5E;stroke-width:1.5625;"/><line style="stroke:#5E5E5E;stroke-width:1.5625;" x1="561.9792" x2="561.9792" y1="488.0778" y2="494.3278"/><line style="stroke:#5E5E5E;stroke-width:1.5625;" x1="568.2292" x2="561.9792" y1="494.3278" y2="494.3278"/><text fill="#D8BC00" font-family="Open Sans,Avenir,Nunito,Arial,Helvetica,SansSerif" font-size="12.5" lengthAdjust="spacing" textLength="101.0417" x="448.4375" y="511.6211">cactus_metadata</text><rect fill="#1B1B1A" height="44.93" rx="8.3333" ry="8.3333" style="stroke:#5E5E5E;stroke-width:1.5625;" width="147.9167" x="7.2917" y="160.9945"/><polygon fill="#1B1B1A" points="137.5,166.2028,137.5,180.7861,150,180.7861,150,172.4528,143.75,166.2028,137.5,166.2028" style="stroke:#5E5E5E;stroke-width:1.5625;"/><line style="stroke:#5E5E5E;stroke-width:1.5625;" x1="143.75" x2="143.75" y1="166.2028" y2="172.4528"/><line style="stroke:#5E5E5E;stroke-width:1.5625;" x1="150" x2="143.75" y1="172.4528" y2="172.4528"/><text fill="#D8BC00" font-family="Open Sans,Avenir,Nunito,Arial,Helvetica,SansSerif" font-size="12.5" lengthAdjust="spacing" textLength="110.4167" x="20.8333" y="189.7461">kivakit_application</text><rect fill="#1B1B1A" height="44.93" rx="8.3333" ry="8.3333" style="stroke:#5E5E5E;stroke-width:1.5625;" width="143.75" x="950" y="375.5778"/><polygon fill="#1B1B1A" points="1076.0417,380.7861,1076.0417,395.3695,1088.5417,395.3695,1088.5417,387.0361,1082.2917,380.7861,1076.0417,380.7861" style="stroke:#5E5E5E;stroke-width:1.5625;"/><line style="stroke:#5E5E5E;stroke-width:1.5625;" x1="1082.2917" x2="1082.2917" y1="380.7861" y2="387.0361"/><line style="stroke:#5E5E5E;stroke-width:1.5625;" x1="1088.5417" x2="1082.2917" y1="387.0361" y2="387.0361"/><text fill="#D8BC00" font-family="Open Sans,Avenir,Nunito,Arial,Helvetica,SansSerif" font-size="12.5" lengthAdjust="spacing" textLength="106.25" x="963.5417" y="404.3294">kivakit_collections</text><rect fill="#1B1B1A" height="44.93" rx="8.3333" ry="8.3333" style="stroke:#5E5E5E;stroke-width:1.5625;" width="162.5" x="755.2083" y="268.2861"/><polygon fill="#1B1B1A" points="900,273.4945,900,288.0778,912.5,288.0778,912.5,279.7445,906.25,273.4945,900,273.4945" style="stroke:#5E5E5E;stroke-width:1.5625;"/><line style="stroke:#5E5E5E;stroke-width:1.5625;" x1="906.25" x2="906.25" y1="273.4945" y2="279.7445"/><line style="stroke:#5E5E5E;stroke-width:1.5625;" x1="912.5" x2="906.25" y1="279.7445" y2="279.7445"/><text fill="#D8BC00" font-family="Open Sans,Avenir,Nunito,Arial,Helvetica,SansSerif" font-size="12.5" lengthAdjust="spacing" textLength="125" x="768.75" y="297.0378">kivakit_commandline</text><rect fill="#1B1B1A" height="44.93" rx="8.3333" ry="8.3333" style="stroke:#5E5E5E;stroke-width:1.5625;" width="148.9583" x="192.1875" y="160.9945"/><polygon fill="#1B1B1A" points="323.4375,166.2028,323.4375,180.7861,335.9375,180.7861,335.9375,172.4528,329.6875,166.2028,323.4375,166.2028" style="stroke:#5E5E5E;stroke-width:1.5625;"/><line style="stroke:#5E5E5E;stroke-width:1.5625;" x1="329.6875" x2="329.6875" y1="166.2028" y2="172.4528"/><line style="stroke:#5E5E5E;stroke-width:1.5625;" x1="335.9375" x2="329.6875" y1="172.4528" y2="172.4528"/><text fill="#D8BC00" font-family="Open Sans,Avenir,Nunito,Arial,Helvetica,SansSerif" font-size="12.5" lengthAdjust="spacing" textLength="111.4583" x="205.7292" y="189.7461">kivakit_component</text><rect fill="#1B1B1A" height="44.93" rx="8.3333" ry="8.3333" style="stroke:#5E5E5E;stroke-width:1.5625;" width="145.8333" x="469.7917" y="268.2861"/><polygon fill="#1B1B1A" points="597.9167,273.4945,597.9167,288.0778,610.4167,288.0778,610.4167,279.7445,604.1667,273.4945,597.9167,273.4945" style="stroke:#5E5E5E;stroke-width:1.5625;"/><line style="stroke:#5E5E5E;stroke-width:1.5625;" x1="604.1667" x2="604.1667" y1="273.4945" y2="279.7445"/><line style="stroke:#5E5E5E;stroke-width:1.5625;" x1="610.4167" x2="604.1667" y1="279.7445" y2="279.7445"/><text fill="#D8BC00" font-family="Open Sans,Avenir,Nunito,Arial,Helvetica,SansSerif" font-size="12.5" lengthAdjust="spacing" textLength="108.3333" x="483.3333" y="297.0378">kivakit_conversion</text><rect fill="#1B1B1A" height="44.93" rx="8.3333" ry="8.3333" style="stroke:#5E5E5E;stroke-width:1.5625;" width="108.3333" x="626.0417" y="375.5778"/><polygon fill="#1B1B1A" points="716.6667,380.7861,716.6667,395.3695,729.1667,395.3695,729.1667,387.0361,722.9167,380.7861,716.6667,380.7861" style="stroke:#5E5E5E;stroke-width:1.5625;"/><line style="stroke:#5E5E5E;stroke-width:1.5625;" x1="722.9167" x2="722.9167" y1="380.7861" y2="387.0361"/><line style="stroke:#5E5E5E;stroke-width:1.5625;" x1="729.1667" x2="722.9167" y1="387.0361" y2="387.0361"/><text fill="#D8BC00" font-family="Open Sans,Avenir,Nunito,Arial,Helvetica,SansSerif" font-size="12.5" lengthAdjust="spacing" textLength="70.8333" x="639.5833" y="404.3294">kivakit_core</text><rect fill="#1B1B1A" height="44.93" rx="8.3333" ry="8.3333" style="stroke:#5E5E5E;stroke-width:1.5625;" width="140.625" x="609.8958" y="482.8695"/><polygon fill="#1B1B1A" points="732.8125,488.0778,732.8125,502.6611,745.3125,502.6611,745.3125,494.3278,739.0625,488.0778,732.8125,488.0778" style="stroke:#5E5E5E;stroke-width:1.5625;"/><line style="stroke:#5E5E5E;stroke-width:1.5625;" x1="739.0625" x2="739.0625" y1="488.0778" y2="494.3278"/><line style="stroke:#5E5E5E;stroke-width:1.5625;" x1="745.3125" x2="739.0625" y1="494.3278" y2="494.3278"/><text fill="#D8BC00" font-family="Open Sans,Avenir,Nunito,Arial,Helvetica,SansSerif" font-size="12.5" lengthAdjust="spacing" textLength="103.125" x="623.4375" y="511.6211">kivakit_interfaces</text><rect fill="#1B1B1A" height="44.93" rx="8.3333" ry="8.3333" style="stroke:#5E5E5E;stroke-width:1.5625;" width="172.9167" x="1385.4167" y="268.2861"/><polygon fill="#1B1B1A" points="1540.625,273.4945,1540.625,288.0778,1553.125,288.0778,1553.125,279.7445,1546.875,273.4945,1540.625,273.4945" style="stroke:#5E5E5E;stroke-width:1.5625;"/><line style="stroke:#5E5E5E;stroke-width:1.5625;" x1="1546.875" x2="1546.875" y1="273.4945" y2="279.7445"/><line style="stroke:#5E5E5E;stroke-width:1.5625;" x1="1553.125" x2="1546.875" y1="279.7445" y2="279.7445"/><text fill="#D8BC00" font-family="Open Sans,Avenir,Nunito,Arial,Helvetica,SansSerif" font-size="12.5" lengthAdjust="spacing" textLength="135.4167" x="1398.9583" y="297.0378">kivakit_internal_testing</text><rect fill="#1B1B1A" height="44.93" rx="8.3333" ry="8.3333" style="stroke:#5E5E5E;stroke-width:1.5625;" width="200" x="378.125" y="160.9945"/><polygon fill="#1B1B1A" points="560.4167,166.2028,560.4167,180.7861,572.9167,180.7861,572.9167,172.4528,566.6667,166.2028,560.4167,166.2028" style="stroke:#5E5E5E;stroke-width:1.5625;"/><line style="stroke:#5E5E5E;stroke-width:1.5625;" x1="566.6667" x2="566.6667" y1="166.2028" y2="172.4528"/><line style="stroke:#5E5E5E;stroke-width:1.5625;" x1="572.9167" x2="566.6667" y1="172.4528" y2="172.4528"/><text fill="#D8BC00" font-family="Open Sans,Avenir,Nunito,Arial,Helvetica,SansSerif" font-size="12.5" lengthAdjust="spacing" textLength="162.5" x="391.6667" y="189.7461">kivakit_merged_zookeeper</text><rect fill="#1B1B1A" height="44.93" rx="8.3333" ry="8.3333" style="stroke:#5E5E5E;stroke-width:1.5625;" width="120.8333" x="787.5" y="482.8695"/><polygon fill="#1B1B1A" points="890.625,488.0778,890.625,502.6611,903.125,502.6611,903.125,494.3278,896.875,488.0778,890.625,488.0778" style="stroke:#5E5E5E;stroke-width:1.5625;"/><line style="stroke:#5E5E5E;stroke-width:1.5625;" x1="896.875" x2="896.875" y1="488.0778" y2="494.3278"/><line style="stroke:#5E5E5E;stroke-width:1.5625;" x1="903.125" x2="896.875" y1="494.3278" y2="494.3278"/><text fill="#D8BC00" font-family="Open Sans,Avenir,Nunito,Arial,Helvetica,SansSerif" font-size="12.5" lengthAdjust="spacing" textLength="83.3333" x="801.0417" y="511.6211">kivakit_mixins</text><rect fill="#1B1B1A" height="44.93" rx="8.3333" ry="8.3333" style="stroke:#5E5E5E;stroke-width:1.5625;" width="162.5" x="614.5833" y="160.9945"/><polygon fill="#1B1B1A" points="759.375,166.2028,759.375,180.7861,771.875,180.7861,771.875,172.4528,765.625,166.2028,759.375,166.2028" style="stroke:#5E5E5E;stroke-width:1.5625;"/><line style="stroke:#5E5E5E;stroke-width:1.5625;" x1="765.625" x2="765.625" y1="166.2028" y2="172.4528"/><line style="stroke:#5E5E5E;stroke-width:1.5625;" x1="771.875" x2="765.625" y1="172.4528" y2="172.4528"/><text fill="#D8BC00" font-family="Open Sans,Avenir,Nunito,Arial,Helvetica,SansSerif" font-size="12.5" lengthAdjust="spacing" textLength="125" x="628.125" y="189.7461">kivakit_network_core</text><rect fill="#1B1B1A" height="44.93" rx="8.3333" ry="8.3333" style="stroke:#5E5E5E;stroke-width:1.5625;" width="134.375" x="954.6875" y="268.2861"/><polygon fill="#1B1B1A" points="1071.3542,273.4945,1071.3542,288.0778,1083.8542,288.0778,1083.8542,279.7445,1077.6042,273.4945,1071.3542,273.4945" style="stroke:#5E5E5E;stroke-width:1.5625;"/><line style="stroke:#5E5E5E;stroke-width:1.5625;" x1="1077.6042" x2="1077.6042" y1="273.4945" y2="279.7445"/><line style="stroke:#5E5E5E;stroke-width:1.5625;" x1="1083.8542" x2="1077.6042" y1="279.7445" y2="279.7445"/><text fill="#D8BC00" font-family="Open Sans,Avenir,Nunito,Arial,Helvetica,SansSerif" font-size="12.5" lengthAdjust="spacing" textLength="96.875" x="968.2292" y="297.0378">kivakit_resource</text><rect fill="#1B1B1A" height="44.93" rx="8.3333" ry="8.3333" style="stroke:#5E5E5E;stroke-width:1.5625;" width="188.5417" x="814.0625" y="160.9945"/><polygon fill="#1B1B1A" points="984.8958,166.2028,984.8958,180.7861,997.3958,180.7861,997.3958,172.4528,991.1458,166.2028,984.8958,166.2028" style="stroke:#5E5E5E;stroke-width:1.5625;"/><line style="stroke:#5E5E5E;stroke-width:1.5625;" x1="991.1458" x2="991.1458" y1="166.2028" y2="172.4528"/><line style="stroke:#5E5E5E;stroke-width:1.5625;" x1="997.3958" x2="991.1458" y1="172.4528" y2="172.4528"/><text fill="#D8BC00" font-family="Open Sans,Avenir,Nunito,Arial,Helvetica,SansSerif" font-size="12.5" lengthAdjust="spacing" textLength="151.0417" x="827.6042" y="189.7461">kivakit_serialization_gson</text><rect fill="#1B1B1A" height="44.93" rx="8.3333" ry="8.3333" style="stroke:#5E5E5E;stroke-width:1.5625;" width="222.9167" x="1126.0417" y="268.2861"/><polygon fill="#1B1B1A" points="1331.25,273.4945,1331.25,288.0778,1343.75,288.0778,1343.75,279.7445,1337.5,273.4945,1331.25,273.4945" style="stroke:#5E5E5E;stroke-width:1.5625;"/><line style="stroke:#5E5E5E;stroke-width:1.5625;" x1="1337.5" x2="1337.5" y1="273.4945" y2="279.7445"/><line style="stroke:#5E5E5E;stroke-width:1.5625;" x1="1343.75" x2="1337.5" y1="279.7445" y2="279.7445"/><text fill="#D8BC00" font-family="Open Sans,Avenir,Nunito,Arial,Helvetica,SansSerif" font-size="12.5" lengthAdjust="spacing" textLength="185.4167" x="1139.5833" y="297.0378">kivakit_serialization_properties</text><rect fill="#1B1B1A" height="44.93" rx="8.3333" ry="8.3333" style="stroke:#5E5E5E;stroke-width:1.5625;" width="241.6667" x="1062.5" y="53.7028"/><polygon fill="#1B1B1A" points="1286.4583,58.9111,1286.4583,73.4945,1298.9583,73.4945,1298.9583,65.1611,1292.7083,58.9111,1286.4583,58.9111" style="stroke:#5E5E5E;stroke-width:1.5625;"/><line style="stroke:#5E5E5E;stroke-width:1.5625;" x1="1292.7083" x2="1292.7083" y1="58.9111" y2="65.1611"/><line style="stroke:#5E5E5E;stroke-width:1.5625;" x1="1298.9583" x2="1292.7083" y1="65.1611" y2="65.1611"/><text fill="#D8BC00" font-family="Open Sans,Avenir,Nunito,Arial,Helvetica,SansSerif" font-size="12.5" lengthAdjust="spacing" textLength="204.1667" x="1076.0417" y="82.4544">kivakit_settings_stores_zookeeper</text><rect fill="#1B1B1A" height="44.93" rx="8.3333" ry="8.3333" style="stroke:#5E5E5E;stroke-width:1.5625;" width="128.125" x="1039.0625" y="160.9945"/><polygon fill="#1B1B1A" points="1149.4792,166.2028,1149.4792,180.7861,1161.9792,180.7861,1161.9792,172.4528,1155.7292,166.2028,1149.4792,166.2028" style="stroke:#5E5E5E;stroke-width:1.5625;"/><line style="stroke:#5E5E5E;stroke-width:1.5625;" x1="1155.7292" x2="1155.7292" y1="166.2028" y2="172.4528"/><line style="stroke:#5E5E5E;stroke-width:1.5625;" x1="1161.9792" x2="1155.7292" y1="172.4528" y2="172.4528"/><text fill="#D8BC00" font-family="Open Sans,Avenir,Nunito,Arial,Helvetica,SansSerif" font-size="12.5" lengthAdjust="spacing" textLength="90.625" x="1052.6042" y="189.7461">kivakit_settings</text><rect fill="#1B1B1A" height="44.93" rx="8.3333" ry="8.3333" style="stroke:#5E5E5E;stroke-width:1.5625;" width="121.875" x="1203.6458" y="160.9945"/><polygon fill="#1B1B1A" points="1307.8125,166.2028,1307.8125,180.7861,1320.3125,180.7861,1320.3125,172.4528,1314.0625,166.2028,1307.8125,166.2028" style="stroke:#5E5E5E;stroke-width:1.5625;"/><line style="stroke:#5E5E5E;stroke-width:1.5625;" x1="1314.0625" x2="1314.0625" y1="166.2028" y2="172.4528"/><line style="stroke:#5E5E5E;stroke-width:1.5625;" x1="1320.3125" x2="1314.0625" y1="172.4528" y2="172.4528"/><text fill="#D8BC00" font-family="Open Sans,Avenir,Nunito,Arial,Helvetica,SansSerif" font-size="12.5" lengthAdjust="spacing" textLength="84.375" x="1217.1875" y="189.7461">kivakit_testing</text><rect fill="#1B1B1A" height="44.93" rx="8.3333" ry="8.3333" style="stroke:#5E5E5E;stroke-width:1.5625;" width="139.5833" x="770.8333" y="375.5778"/><polygon fill="#1B1B1A" points="892.7083,380.7861,892.7083,395.3695,905.2083,395.3695,905.2083,387.0361,898.9583,380.7861,892.7083,380.7861" style="stroke:#5E5E5E;stroke-width:1.5625;"/><line style="stroke:#5E5E5E;stroke-width:1.5625;" x1="898.9583" x2="898.9583" y1="380.7861" y2="387.0361"/><line style="stroke:#5E5E5E;stroke-width:1.5625;" x1="905.2083" x2="898.9583" y1="387.0361" y2="387.0361"/><text fill="#D8BC00" font-family="Open Sans,Avenir,Nunito,Arial,Helvetica,SansSerif" font-size="12.5" lengthAdjust="spacing" textLength="102.0833" x="784.375" y="404.3294">kivakit_validation</text><rect fill="#1B1B1A" height="44.93" rx="8.3333" ry="8.3333" style="stroke:#5E5E5E;stroke-width:1.5625;" width="155.2083" x="1595.3125" y="268.2861"/><polygon fill="#1B1B1A" points="1732.8125,273.4945,1732.8125,288.0778,1745.3125,288.0778,1745.3125,279.7445,1739.0625,273.4945,1732.8125,273.4945" style="stroke:#5E5E5E;stroke-width:1.5625;"/><line style="stroke:#5E5E5E;stroke-width:1.5625;" x1="1739.0625" x2="1739.0625" y1="273.4945" y2="279.7445"/><line style="stroke:#5E5E5E;stroke-width:1.5625;" x1="1745.3125" x2="1739.0625" y1="279.7445" y2="279.7445"/><text fill="#D8BC00" font-family="Open Sans,Avenir,Nunito,Arial,Helvetica,SansSerif" font-size="12.5" lengthAdjust="spacing" textLength="117.7083" x="1608.8542" y="297.0378">lexakai_annotations</text><rect fill="#1B1B1A" height="44.93" rx="8.3333" ry="8.3333" style="stroke:#5E5E5E;stroke-width:1.5625;" width="109.375" x="1361.9792" y="160.9945"/><polygon fill="#1B1B1A" points="1453.6458,166.2028,1453.6458,180.7861,1466.1458,180.7861,1466.1458,172.4528,1459.8958,166.2028,1453.6458,166.2028" style="stroke:#5E5E5E;stroke-width:1.5625;"/><line style="stroke:#5E5E5E;stroke-width:1.5625;" x1="1459.8958" x2="1459.8958" y1="166.2028" y2="172.4528"/><line style="stroke:#5E5E5E;stroke-width:1.5625;" x1="1466.1458" x2="1459.8958" y1="172.4528" y2="172.4528"/><text fill="#D8BC00" font-family="Open Sans,Avenir,Nunito,Arial,Helvetica,SansSerif" font-size="12.5" lengthAdjust="spacing" textLength="71.875" x="1375.5208" y="189.7461">netty_buffer</text><rect fill="#1B1B1A" height="44.93" rx="8.3333" ry="8.3333" style="stroke:#5E5E5E;stroke-width:1.5625;" width="108.3333" x="1508.3333" y="160.9945"/><polygon fill="#1B1B1A" points="1598.9583,166.2028,1598.9583,180.7861,1611.4583,180.7861,1611.4583,172.4528,1605.2083,166.2028,1598.9583,166.2028" style="stroke:#5E5E5E;stroke-width:1.5625;"/><line style="stroke:#5E5E5E;stroke-width:1.5625;" x1="1605.2083" x2="1605.2083" y1="166.2028" y2="172.4528"/><line style="stroke:#5E5E5E;stroke-width:1.5625;" x1="1611.4583" x2="1605.2083" y1="172.4528" y2="172.4528"/><text fill="#D8BC00" font-family="Open Sans,Avenir,Nunito,Arial,Helvetica,SansSerif" font-size="12.5" lengthAdjust="spacing" textLength="70.8333" x="1521.875" y="189.7461">netty_codec</text><rect fill="#1B1B1A" height="44.93" rx="8.3333" ry="8.3333" style="stroke:#5E5E5E;stroke-width:1.5625;" width="123.9583" x="1653.6458" y="160.9945"/><polygon fill="#1B1B1A" points="1759.8958,166.2028,1759.8958,180.7861,1772.3958,180.7861,1772.3958,172.4528,1766.1458,166.2028,1759.8958,166.2028" style="stroke:#5E5E5E;stroke-width:1.5625;"/><line style="stroke:#5E5E5E;stroke-width:1.5625;" x1="1766.1458" x2="1766.1458" y1="166.2028" y2="172.4528"/><line style="stroke:#5E5E5E;stroke-width:1.5625;" x1="1772.3958" x2="1766.1458" y1="172.4528" y2="172.4528"/><text fill="#D8BC00" font-family="Open Sans,Avenir,Nunito,Arial,Helvetica,SansSerif" font-size="12.5" lengthAdjust="spacing" textLength="86.4583" x="1667.1875" y="189.7461">netty_common</text><rect fill="#1B1B1A" height="44.93" rx="8.3333" ry="8.3333" style="stroke:#5E5E5E;stroke-width:1.5625;" width="120.8333" x="2082.2917" y="268.2861"/><polygon fill="#1B1B1A" points="2185.4167,273.4945,2185.4167,288.0778,2197.9167,288.0778,2197.9167,279.7445,2191.6667,273.4945,2185.4167,273.4945" style="stroke:#5E5E5E;stroke-width:1.5625;"/><line style="stroke:#5E5E5E;stroke-width:1.5625;" x1="2191.6667" x2="2191.6667" y1="273.4945" y2="279.7445"/><line style="stroke:#5E5E5E;stroke-width:1.5625;" x1="2197.9167" x2="2191.6667" y1="279.7445" y2="279.7445"/><text fill="#D8BC00" font-family="Open Sans,Avenir,Nunito,Arial,Helvetica,SansSerif" font-size="12.5" lengthAdjust="spacing" textLength="83.3333" x="2095.8333" y="297.0378">netty_resolver</text><rect fill="#1B1B1A" height="44.93" rx="8.3333" ry="8.3333" style="stroke:#5E5E5E;stroke-width:1.5625;" width="205.2083" x="1814.0625" y="160.9945"/><polygon fill="#1B1B1A" points="2001.5625,166.2028,2001.5625,180.7861,2014.0625,180.7861,2014.0625,172.4528,2007.8125,166.2028,2001.5625,166.2028" style="stroke:#5E5E5E;stroke-width:1.5625;"/><line style="stroke:#5E5E5E;stroke-width:1.5625;" x1="2007.8125" x2="2007.8125" y1="166.2028" y2="172.4528"/><line style="stroke:#5E5E5E;stroke-width:1.5625;" x1="2014.0625" x2="2007.8125" y1="172.4528" y2="172.4528"/><text fill="#D8BC00" font-family="Open Sans,Avenir,Nunito,Arial,Helvetica,SansSerif" font-size="12.5" lengthAdjust="spacing" textLength="167.7083" x="1827.6042" y="189.7461">netty_transport_native_epoll</text><rect fill="#1B1B1A" height="44.93" rx="8.3333" ry="8.3333" style="stroke:#5E5E5E;stroke-width:1.5625;" width="258.3333" x="1787.5" y="268.2861"/><polygon fill="#1B1B1A" points="2028.125,273.4945,2028.125,288.0778,2040.625,288.0778,2040.625,279.7445,2034.375,273.4945,2028.125,273.4945" style="stroke:#5E5E5E;stroke-width:1.5625;"/><line style="stroke:#5E5E5E;stroke-width:1.5625;" x1="2034.375" x2="2034.375" y1="273.4945" y2="279.7445"/><line style="stroke:#5E5E5E;stroke-width:1.5625;" x1="2040.625" x2="2034.375" y1="279.7445" y2="279.7445"/><text fill="#D8BC00" font-family="Open Sans,Avenir,Nunito,Arial,Helvetica,SansSerif" font-size="12.5" lengthAdjust="spacing" textLength="220.8333" x="1801.0417" y="297.0378">netty_transport_native_unix_common</text><rect fill="#1B1B1A" height="44.93" rx="8.3333" ry="8.3333" style="stroke:#5E5E5E;stroke-width:1.5625;" width="128.125" x="2067.1875" y="160.9945"/><polygon fill="#1B1B1A" points="2177.6042,166.2028,2177.6042,180.7861,2190.1042,180.7861,2190.1042,172.4528,2183.8542,166.2028,2177.6042,166.2028" style="stroke:#5E5E5E;stroke-width:1.5625;"/><line style="stroke:#5E5E5E;stroke-width:1.5625;" x1="2183.8542" x2="2183.8542" y1="166.2028" y2="172.4528"/><line style="stroke:#5E5E5E;stroke-width:1.5625;" x1="2190.1042" x2="2183.8542" y1="172.4528" y2="172.4528"/><text fill="#D8BC00" font-family="Open Sans,Avenir,Nunito,Arial,Helvetica,SansSerif" font-size="12.5" lengthAdjust="spacing" textLength="90.625" x="2080.7292" y="189.7461">netty_transport</text><rect fill="#1B1B1A" height="44.93" rx="8.3333" ry="8.3333" style="stroke:#5E5E5E;stroke-width:1.5625;" width="63.5417" x="1378.6458" y="375.5778"/><polygon fill="#1B1B1A" points="1424.4792,380.7861,1424.4792,395.3695,1436.9792,395.3695,1436.9792,387.0361,1430.7292,380.7861,1424.4792,380.7861" style="stroke:#5E5E5E;stroke-width:1.5625;"/><line style="stroke:#5E5E5E;stroke-width:1.5625;" x1="1430.7292" x2="1430.7292" y1="380.7861" y2="387.0361"/><line style="stroke:#5E5E5E;stroke-width:1.5625;" x1="1436.9792" x2="1430.7292" y1="387.0361" y2="387.0361"/><text fill="#D8BC00" font-family="Open Sans,Avenir,Nunito,Arial,Helvetica,SansSerif" font-size="12.5" lengthAdjust="spacing" textLength="26.0417" x="1392.1875" y="404.3294">junit</text><rect fill="#1B1B1A" height="44.93" rx="8.3333" ry="8.3333" style="stroke:#5E5E5E;stroke-width:1.5625;" width="125" x="1347.9167" y="482.8695"/><polygon fill="#1B1B1A" points="1455.2083,488.0778,1455.2083,502.6611,1467.7083,502.6611,1467.7083,494.3278,1461.4583,488.0778,1455.2083,488.0778" style="stroke:#5E5E5E;stroke-width:1.5625;"/><line style="stroke:#5E5E5E;stroke-width:1.5625;" x1="1461.4583" x2="1461.4583" y1="488.0778" y2="494.3278"/><line style="stroke:#5E5E5E;stroke-width:1.5625;" x1="1467.7083" x2="1461.4583" y1="494.3278" y2="494.3278"/><text fill="#D8BC00" font-family="Open Sans,Avenir,Nunito,Arial,Helvetica,SansSerif" font-size="12.5" lengthAdjust="spacing" textLength="87.5" x="1361.4583" y="511.6211">hamcrest_core</text><rect fill="#1B1B1A" height="44.93" rx="8.3333" ry="8.3333" style="stroke:#5E5E5E;stroke-width:1.5625;" width="106.25" x="1479.1667" y="375.5778"/><polygon fill="#1B1B1A" points="1567.7083,380.7861,1567.7083,395.3695,1580.2083,395.3695,1580.2083,387.0361,1573.9583,380.7861,1567.7083,380.7861" style="stroke:#5E5E5E;stroke-width:1.5625;"/><line style="stroke:#5E5E5E;stroke-width:1.5625;" x1="1573.9583" x2="1573.9583" y1="380.7861" y2="387.0361"/><line style="stroke:#5E5E5E;stroke-width:1.5625;" x1="1580.2083" x2="1573.9583" y1="387.0361" y2="387.0361"/><text fill="#D8BC00" font-family="Open Sans,Avenir,Nunito,Arial,Helvetica,SansSerif" font-size="12.5" lengthAdjust="spacing" textLength="68.75" x="1492.7083" y="404.3294">annotations</text><path d="M1410.4167,420.8174 C1410.4167,437.2861 1410.4167,459.984 1410.4167,477.5361 " fill="none" id="junit-to-hamcrest_core" style="stroke:#545454;stroke-width:1.5625;"/><polygon fill="#545454" points="1410.4167,482.8174,1414.5833,473.4424,1410.4167,477.609,1406.25,473.4424,1410.4167,482.8174" style="stroke:#545454;stroke-width:1.5625;"/><path d="M804.4583,313.2653 C778.9688,330.432 743.2813,354.4632 716.6875,372.3695 " fill="none" id="kivakit_commandline-to-kivakit_core" style="stroke:#545454;stroke-width:1.5625;"/><polygon fill="#545454" points="712.1667,375.4215,722.2714,373.648,716.4888,372.5153,717.6215,366.7326,712.1667,375.4215" style="stroke:#545454;stroke-width:1.5625;"/><path d="M837.3229,313.5257 C837.9792,329.9945 838.875,352.6924 839.5729,370.2445 " fill="none" id="kivakit_commandline-to-kivakit_validation" style="stroke:#545454;stroke-width:1.5625;"/><polygon fill="#545454" points="839.7813,375.5257,843.5699,365.9917,839.5731,370.3215,835.2432,366.3247,839.7813,375.5257" style="stroke:#545454;stroke-width:1.5625;"/><path d="M644.1563,420.557 C615.3229,437.7965 574.8958,461.9528 544.8854,479.8903 " fill="none" id="kivakit_core-to-cactus_metadata" style="stroke:#545454;stroke-width:1.5625;"/><polygon fill="#545454" points="540.1667,482.7132,550.3524,481.4877,544.6393,480.0445,546.0825,474.3314,540.1667,482.7132" style="stroke:#545454;stroke-width:1.5625;"/><path d="M680.2083,420.8174 C680.2083,437.2861 680.2083,459.984 680.2083,477.5361 " fill="none" id="kivakit_core-to-kivakit_interfaces" style="stroke:#545454;stroke-width:1.5625;"/><polygon fill="#545454" points="680.2083,482.8174,684.375,473.4424,680.2083,477.609,676.0417,473.4424,680.2083,482.8174" style="stroke:#545454;stroke-width:1.5625;"/><path d="M714.5521,420.557 C742.0208,437.7965 780.5417,461.9528 809.125,479.8903 " fill="none" id="kivakit_core-to-kivakit_mixins" style="stroke:#545454;stroke-width:1.5625;"/><polygon fill="#545454" points="813.6146,482.7132,807.8936,474.1972,809.2046,479.9421,803.4598,481.2532,813.6146,482.7132" style="stroke:#545454;stroke-width:1.5625;"/><path d="M1484.3958,313.5257 C1493.9375,330.1403 1507.1146,353.0778 1517.2292,370.7028 " fill="none" id="kivakit_internal_testing-to-annotations" style="stroke:#545454;stroke-width:1.5625;"/><polygon fill="#545454" points="1520,375.5257,1518.9446,365.3209,1517.4063,371.0091,1511.7181,369.4708,1520,375.5257" style="stroke:#545454;stroke-width:1.5625;"/><path d="M1459.1458,313.5257 C1449.4375,330.1403 1436.0313,353.0778 1425.7396,370.7028 " fill="none" id="kivakit_internal_testing-to-junit" style="stroke:#545454;stroke-width:1.5625;"/><polygon fill="#545454" points="1422.9271,375.5257,1431.2475,369.5238,1425.5496,371.0258,1424.0476,365.3279,1422.9271,375.5257" style="stroke:#545454;stroke-width:1.5625;"/><path d="M664.4792,205.9736 C639.5,223.1403 604.5208,247.1715 578.4583,265.0778 " fill="none" id="kivakit_network_core-to-kivakit_conversion" style="stroke:#545454;stroke-width:1.5625;"/><polygon fill="#545454" points="574.0208,268.1299,584.1098,266.2685,578.3175,265.1862,579.3998,259.3939,574.0208,268.1299" style="stroke:#545454;stroke-width:1.5625;"/><path d="M1021.875,313.5257 C1021.875,329.9945 1021.875,352.6924 1021.875,370.2445 " fill="none" id="kivakit_resource-to-kivakit_collections" style="stroke:#545454;stroke-width:1.5625;"/><polygon fill="#545454" points="1021.875,375.5257,1026.0417,366.1507,1021.875,370.3174,1017.7083,366.1507,1021.875,375.5257" style="stroke:#545454;stroke-width:1.5625;"/><path d="M862.9583,205.8486 C821.8958,225.2236 762.1146,253.4424 723.5,271.6715 " fill="none" id="kivakit_serialization_gson-to-gson" style="stroke:#545454;stroke-width:1.5625;"/><polygon fill="#545454" points="718.4271,274.057,728.6831,273.8009,723.1322,271.8235,725.1096,266.2726,718.4271,274.057" style="stroke:#545454;stroke-width:1.5625;"/><path d="M1048.8438,205.8486 C1004.3229,223.4111 941.3958,248.234 895.6042,266.307 " fill="none" id="kivakit_settings-to-kivakit_commandline" style="stroke:#545454;stroke-width:1.5625;"/><polygon fill="#545454" points="890.6667,268.2549,900.9164,268.6962,895.5127,266.3463,897.8627,260.9426,890.6667,268.2549" style="stroke:#545454;stroke-width:1.5625;"/><path d="M1086.2917,206.234 C1073.3542,222.984 1055.4375,246.182 1041.7813,263.859 " fill="none" id="kivakit_settings-to-kivakit_resource" style="stroke:#545454;stroke-width:1.5625;"/><polygon fill="#545454" points="1038.4063,268.234,1047.4351,263.3625,1041.5904,264.1124,1040.8405,258.2678,1038.4063,268.234" style="stroke:#545454;stroke-width:1.5625;"/><path d="M1130.6458,205.9736 C1152.4688,223.0674 1183.0104,246.9736 1205.8438,264.859 " fill="none" id="kivakit_settings-to-kivakit_serialization_properties" style="stroke:#545454;stroke-width:1.5625;"/><polygon fill="#545454" points="1210.0208,268.1299,1205.2059,259.0707,1205.9192,264.9199,1200.07,265.6333,1210.0208,268.1299" style="stroke:#545454;stroke-width:1.5625;"/><path d="M1062.25,81.5778 C872.1146,89.8174 492.3438,111.359 173.9583,160.9945 C169.6146,161.6715 165.1771,162.4424 160.7083,163.2653 " fill="none" id="kivakit_settings_stores_zookeeper-to-kivakit_application" style="stroke:#545454;stroke-width:1.5625;"/><polygon fill="#545454" points="155.4479,164.2653,165.4335,166.6189,160.5657,163.2983,163.8863,158.4304,155.4479,164.2653" style="stroke:#545454;stroke-width:1.5625;"/><path d="M1062.2813,84.7028 C901.0938,95.859 607.4479,119.9632 359.375,160.9945 C355.25,161.6715 351.0313,162.432 346.7917,163.2445 " fill="none" id="kivakit_settings_stores_zookeeper-to-kivakit_component" style="stroke:#545454;stroke-width:1.5625;"/><polygon fill="#545454" points="341.3958,164.2965,351.3945,166.5941,346.5081,163.3008,349.8014,158.4145,341.3958,164.2965" style="stroke:#545454;stroke-width:1.5625;"/><path d="M1062.4583,93.0361 C943.5417,108.9945 756.9063,134.9007 595.8333,160.9945 C591.8021,161.6507 587.6875,162.3278 583.5313,163.0257 " fill="none" id="kivakit_settings_stores_zookeeper-to-kivakit_merged_zookeeper" style="stroke:#545454;stroke-width:1.5625;"/><polygon fill="#545454" points="578.2604,163.9215,588.2036,166.4483,583.3942,163.0436,586.7989,158.2342,578.2604,163.9215" style="stroke:#545454;stroke-width:1.5625;"/><path d="M1084.0938,98.557 C995.5625,117.6611 867.2188,145.359 782.6771,163.609 " fill="none" id="kivakit_settings_stores_zookeeper-to-kivakit_network_core" style="stroke:#545454;stroke-width:1.5625;"/><polygon fill="#545454" points="777.1667,164.7965,787.2108,166.8863,782.2572,163.6951,785.4485,158.7415,777.1667,164.7965" style="stroke:#545454;stroke-width:1.5625;"/><path d="M1127.3542,98.557 C1081.4375,116.1195 1016.5521,140.9424 969.3229,159.0153 " fill="none" id="kivakit_settings_stores_zookeeper-to-kivakit_serialization_gson" style="stroke:#545454;stroke-width:1.5625;"/><polygon fill="#545454" points="964.2396,160.9632,974.4843,161.5077,969.1046,159.1035,971.5088,153.7237,964.2396,160.9632" style="stroke:#545454;stroke-width:1.5625;"/><path d="M1166.7188,98.9424 C1153.9375,115.6924 1136.2604,138.8903 1122.7813,156.5674 " fill="none" id="kivakit_settings_stores_zookeeper-to-kivakit_settings" style="stroke:#545454;stroke-width:1.5625;"/><polygon fill="#545454" points="1119.4479,160.9424,1128.446,156.0143,1122.6062,156.8009,1121.8196,150.9611,1119.4479,160.9424" style="stroke:#545454;stroke-width:1.5625;"/><path d="M1200.1667,98.9424 C1213.1042,115.6924 1231.0208,138.8903 1244.6771,156.5674 " fill="none" id="kivakit_settings_stores_zookeeper-to-kivakit_testing" style="stroke:#545454;stroke-width:1.5625;"/><polygon fill="#545454" points="1248.0521,160.9424,1245.6178,150.9761,1244.8679,156.8208,1239.0232,156.0709,1248.0521,160.9424" style="stroke:#545454;stroke-width:1.5625;"/><path d="M1230.8333,98.557 C1269.6354,116.0465 1324.3958,140.7445 1364.4271,158.7965 " fill="none" id="kivakit_settings_stores_zookeeper-to-netty_buffer" style="stroke:#545454;stroke-width:1.5625;"/><polygon fill="#545454" points="1369.2292,160.9632,1362.3987,153.3084,1364.4821,158.8203,1358.9701,160.9037,1369.2292,160.9632" style="stroke:#545454;stroke-width:1.5625;"/><path d="M1263.0729,98.557 C1324.9479,115.2861 1412.8125,139.2445 1489.5833,160.9945 C1493.875,162.2132 1498.2917,163.4736 1502.75,164.7549 " fill="none" id="kivakit_settings_stores_zookeeper-to-netty_codec" style="stroke:#545454;stroke-width:1.5625;"/><polygon fill="#545454" points="1507.9792,166.2653,1500.1225,159.668,1502.974,164.8247,1497.8174,167.6762,1507.9792,166.2653" style="stroke:#545454;stroke-width:1.5625;"/><path d="M1304.4271,97.1715 C1395.5208,112.8486 1523.2292,136.0882 1634.375,160.9945 C1638.9688,162.0257 1643.7083,163.1403 1648.4688,164.2861 " fill="none" id="kivakit_settings_stores_zookeeper-to-netty_common" style="stroke:#545454;stroke-width:1.5625;"/><polygon fill="#545454" points="1653.6354,165.557,1645.516,159.2859,1648.5757,164.3218,1643.5397,167.3815,1653.6354,165.557" style="stroke:#545454;stroke-width:1.5625;"/><path d="M1304.1875,84.1924 C1470.2396,94.9632 1777.9063,118.859 2037.5,160.9945 C2045.2604,162.2549 2053.3438,163.7757 2061.3646,165.4111 " fill="none" id="kivakit_settings_stores_zookeeper-to-netty_transport" style="stroke:#545454;stroke-width:1.5625;"/><polygon fill="#545454" points="2066.9063,166.5674,2058.5705,160.5869,2061.806,165.5117,2056.8813,168.7472,2066.9063,166.5674" style="stroke:#545454;stroke-width:1.5625;"/><path d="M1304.3958,92.307 C1428.1042,108.1299 1625.6458,134.3174 1795.8333,160.9945 C1799.9792,161.6403 1804.1979,162.3174 1808.4583,163.0153 " fill="none" id="kivakit_settings_stores_zookeeper-to-netty_transport_native_epoll" style="stroke:#545454;stroke-width:1.5625;"/><polygon fill="#545454" points="1813.875,163.9007,1805.3046,158.2616,1808.7363,163.0517,1803.9462,166.4835,1813.875,163.9007" style="stroke:#545454;stroke-width:1.5625;"/><path d="M1307.0313,205.9736 C1341.2708,223.3486 1389.375,247.7757 1424.7917,265.7445 " fill="none" id="kivakit_testing-to-kivakit_internal_testing" style="stroke:#545454;stroke-width:1.5625;"/><polygon fill="#545454" points="1429.4792,268.1299,1423.0182,260.1607,1424.8387,265.765,1419.2344,267.5855,1429.4792,268.1299" style="stroke:#545454;stroke-width:1.5625;"/><path d="M1325.9375,201.0674 C1331.9479,202.6715 1337.9688,204.2653 1343.75,205.7861 C1427.4167,227.7236 1523.2708,252.057 1589.875,268.8278 " fill="none" id="kivakit_testing-to-lexakai_annotations" style="stroke:#545454;stroke-width:1.5625;"/><polygon fill="#545454" points="1595.0208,270.1195,1586.9407,263.7978,1589.9689,268.8528,1584.914,271.8809,1595.0208,270.1195" style="stroke:#545454;stroke-width:1.5625;"/><path d="M2133.625,206.234 C2135.4167,222.7028 2137.8854,245.4007 2139.8021,262.9528 " fill="none" id="netty_transport-to-netty_resolver" style="stroke:#545454;stroke-width:1.5625;"/><polygon fill="#545454" points="2140.375,268.234,2143.5271,258.4711,2139.8243,263.0549,2135.2405,259.3521,2140.375,268.234" style="stroke:#545454;stroke-width:1.5625;"/><path d="M1916.6667,206.234 C1916.6667,222.7028 1916.6667,245.4007 1916.6667,262.9528 " fill="none" id="netty_transport_native_epoll-to-netty_transport_native_unix_common" style="stroke:#545454;stroke-width:1.5625;"/><polygon fill="#545454" points="1916.6667,268.234,1920.8333,258.859,1916.6667,263.0257,1912.5,258.859,1916.6667,268.234" style="stroke:#545454;stroke-width:1.5625;"/></g></svg>
