<?xml version="1.0" encoding="UTF-8" standalone="no"?><svg xmlns="http://www.w3.org/2000/svg" xmlns:xlink="http://www.w3.org/1999/xlink" contentScriptType="application/ecmascript" contentStyleType="text/css" height="218.75px" preserveAspectRatio="none" style="width:2642px;height:218px;background:#333333;" version="1.1" viewBox="0 0 2642 218" width="2642.7083px" zoomAndPan="magnify"><defs/><g><rect fill="#48494B" height="41.2028" rx="8.3333" ry="8.3333" style="stroke:#545454;stroke-width:1.0416666666666667;" width="479.1667" x="1074.4792" y="2.0833"/><text fill="#C0C0C0" font-family="Open Sans,Avenir,Nunito,Arial,Helvetica,SansSerif" font-size="20.8333" lengthAdjust="spacing" textLength="456.25" x="1085.9375" y="30.5583">com.telenav.kivakit.interfaces.internal.lexakai</text><!--MD5=[d0a12be03067cdc29bc4127bc14fabc5]
class UmlDiagramIdentifier--><rect codeLine="91" fill="#282828" height="48.055" id="UmlDiagramIdentifier" rx="8.3333" ry="8.3333" style="stroke:#5E5E5E;stroke-width:1.0416666666666667;" width="178.125" x="1248.9583" y="53.7028"/><rect fill="#1B1B1A" height="31.3883" rx="8.3333" ry="8.3333" style="stroke:#1B1B1A;stroke-width:1.0416666666666667;" width="178.125" x="1248.9583" y="53.7028"/><rect fill="#1B1B1A" height="8.3333" style="stroke:#1B1B1A;stroke-width:1.0416666666666667;" width="178.125" x="1248.9583" y="76.7578"/><rect codeLine="91" fill="none" height="48.055" id="UmlDiagramIdentifier" rx="8.3333" ry="8.3333" style="stroke:#5E5E5E;stroke-width:1.0416666666666667;" width="178.125" x="1248.9583" y="53.7028"/><ellipse cx="1263.5417" cy="69.397" fill="#008400" rx="10.4167" ry="10.4167" style="stroke:#239C23;stroke-width:1.0416666666666667;"/><path d="M1260.9456,66.5588 L1260.9456,64.9719 L1266.3717,64.9719 L1266.3717,66.5588 L1264.5589,66.5588 L1264.5589,72.4976 L1266.3717,72.4976 L1266.3717,74.0845 L1260.9456,74.0845 L1260.9456,72.4976 L1262.7584,72.4976 L1262.7584,66.5588 Z " fill="#000000"/><text fill="#D8BC00" font-family="Open Sans,Avenir,Nunito,Arial,Helvetica,SansSerif" font-size="12.5" font-style="italic" font-weight="bold" lengthAdjust="spacing" textLength="140.625" x="1280.2083" y="74.1211">UmlDiagramIdentifier</text><line style="stroke:#5E5E5E;stroke-width:1.0416666666666667;" x1="1250" x2="1426.0417" y1="85.0911" y2="85.0911"/><line style="stroke:#5E5E5E;stroke-width:1.0416666666666667;" x1="1250" x2="1426.0417" y1="93.4245" y2="93.4245"/><!--MD5=[35923d161762a7a7172aab7fb9ed878d]
class DiagramCode--><rect codeLine="9" fill="#282828" height="48.055" id="DiagramCode" rx="8.3333" ry="8.3333" style="stroke:#5E5E5E;stroke-width:1.0416666666666667;" width="126.0417" x="7.2917" y="164.1195"/><rect fill="#1B1B1A" height="31.3883" rx="8.3333" ry="8.3333" style="stroke:#1B1B1A;stroke-width:1.0416666666666667;" width="126.0417" x="7.2917" y="164.1195"/><rect fill="#1B1B1A" height="8.3333" style="stroke:#1B1B1A;stroke-width:1.0416666666666667;" width="126.0417" x="7.2917" y="187.1745"/><rect codeLine="9" fill="none" height="48.055" id="DiagramCode" rx="8.3333" ry="8.3333" style="stroke:#5E5E5E;stroke-width:1.0416666666666667;" width="126.0417" x="7.2917" y="164.1195"/><ellipse cx="21.875" cy="179.8136" fill="#008400" rx="10.4167" ry="10.4167" style="stroke:#239C23;stroke-width:1.0416666666666667;"/><path d="M19.279,176.9755 L19.279,175.3886 L24.705,175.3886 L24.705,176.9755 L22.8923,176.9755 L22.8923,182.9142 L24.705,182.9142 L24.705,184.5011 L19.279,184.5011 L19.279,182.9142 L21.0917,182.9142 L21.0917,176.9755 Z " fill="#000000"/><text fill="#D8BC00" font-family="Open Sans,Avenir,Nunito,Arial,Helvetica,SansSerif" font-size="12.5" font-style="italic" font-weight="bold" lengthAdjust="spacing" textLength="88.5417" x="38.5417" y="184.5378">DiagramCode</text><line style="stroke:#5E5E5E;stroke-width:1.0416666666666667;" x1="8.3333" x2="132.2917" y1="195.5078" y2="195.5078"/><line style="stroke:#5E5E5E;stroke-width:1.0416666666666667;" x1="8.3333" x2="132.2917" y1="203.8411" y2="203.8411"/><!--MD5=[8ca2ebe77d4d5d0f820334ce43c72da5]
class DiagramCollection--><rect codeLine="15" fill="#282828" height="48.055" id="DiagramCollection" rx="8.3333" ry="8.3333" style="stroke:#5E5E5E;stroke-width:1.0416666666666667;" width="158.3333" x="170.3125" y="164.1195"/><rect fill="#1B1B1A" height="31.3883" rx="8.3333" ry="8.3333" style="stroke:#1B1B1A;stroke-width:1.0416666666666667;" width="158.3333" x="170.3125" y="164.1195"/><rect fill="#1B1B1A" height="8.3333" style="stroke:#1B1B1A;stroke-width:1.0416666666666667;" width="158.3333" x="170.3125" y="187.1745"/><rect codeLine="15" fill="none" height="48.055" id="DiagramCollection" rx="8.3333" ry="8.3333" style="stroke:#5E5E5E;stroke-width:1.0416666666666667;" width="158.3333" x="170.3125" y="164.1195"/><ellipse cx="184.8958" cy="179.8136" fill="#008400" rx="10.4167" ry="10.4167" style="stroke:#239C23;stroke-width:1.0416666666666667;"/><path d="M182.2998,176.9755 L182.2998,175.3886 L187.7258,175.3886 L187.7258,176.9755 L185.9131,176.9755 L185.9131,182.9142 L187.7258,182.9142 L187.7258,184.5011 L182.2998,184.5011 L182.2998,182.9142 L184.1125,182.9142 L184.1125,176.9755 Z " fill="#000000"/><text fill="#D8BC00" font-family="Open Sans,Avenir,Nunito,Arial,Helvetica,SansSerif" font-size="12.5" font-style="italic" font-weight="bold" lengthAdjust="spacing" textLength="120.8333" x="201.5625" y="184.5378">DiagramCollection</text><line style="stroke:#5E5E5E;stroke-width:1.0416666666666667;" x1="171.3542" x2="327.6042" y1="195.5078" y2="195.5078"/><line style="stroke:#5E5E5E;stroke-width:1.0416666666666667;" x1="171.3542" x2="327.6042" y1="203.8411" y2="203.8411"/><!--MD5=[b6b7cf1f3ce79653b9d4789be786f0c5]
class DiagramComparison--><rect codeLine="21" fill="#282828" height="48.055" id="DiagramComparison" rx="8.3333" ry="8.3333" style="stroke:#5E5E5E;stroke-width:1.0416666666666667;" width="171.875" x="365.625" y="164.1195"/><rect fill="#1B1B1A" height="31.3883" rx="8.3333" ry="8.3333" style="stroke:#1B1B1A;stroke-width:1.0416666666666667;" width="171.875" x="365.625" y="164.1195"/><rect fill="#1B1B1A" height="8.3333" style="stroke:#1B1B1A;stroke-width:1.0416666666666667;" width="171.875" x="365.625" y="187.1745"/><rect codeLine="21" fill="none" height="48.055" id="DiagramComparison" rx="8.3333" ry="8.3333" style="stroke:#5E5E5E;stroke-width:1.0416666666666667;" width="171.875" x="365.625" y="164.1195"/><ellipse cx="380.2083" cy="179.8136" fill="#008400" rx="10.4167" ry="10.4167" style="stroke:#239C23;stroke-width:1.0416666666666667;"/><path d="M377.6123,176.9755 L377.6123,175.3886 L383.0383,175.3886 L383.0383,176.9755 L381.2256,176.9755 L381.2256,182.9142 L383.0383,182.9142 L383.0383,184.5011 L377.6123,184.5011 L377.6123,182.9142 L379.425,182.9142 L379.425,176.9755 Z " fill="#000000"/><text fill="#D8BC00" font-family="Open Sans,Avenir,Nunito,Arial,Helvetica,SansSerif" font-size="12.5" font-style="italic" font-weight="bold" lengthAdjust="spacing" textLength="134.375" x="396.875" y="184.5378">DiagramComparison</text><line style="stroke:#5E5E5E;stroke-width:1.0416666666666667;" x1="366.6667" x2="536.4583" y1="195.5078" y2="195.5078"/><line style="stroke:#5E5E5E;stroke-width:1.0416666666666667;" x1="366.6667" x2="536.4583" y1="203.8411" y2="203.8411"/><!--MD5=[775f2c69b294e3da0895036b43cb661b]
class DiagramFactory--><rect codeLine="27" fill="#282828" height="48.055" id="DiagramFactory" rx="8.3333" ry="8.3333" style="stroke:#5E5E5E;stroke-width:1.0416666666666667;" width="139.5833" x="574.4792" y="164.1195"/><rect fill="#1B1B1A" height="31.3883" rx="8.3333" ry="8.3333" style="stroke:#1B1B1A;stroke-width:1.0416666666666667;" width="139.5833" x="574.4792" y="164.1195"/><rect fill="#1B1B1A" height="8.3333" style="stroke:#1B1B1A;stroke-width:1.0416666666666667;" width="139.5833" x="574.4792" y="187.1745"/><rect codeLine="27" fill="none" height="48.055" id="DiagramFactory" rx="8.3333" ry="8.3333" style="stroke:#5E5E5E;stroke-width:1.0416666666666667;" width="139.5833" x="574.4792" y="164.1195"/><ellipse cx="589.0625" cy="179.8136" fill="#008400" rx="10.4167" ry="10.4167" style="stroke:#239C23;stroke-width:1.0416666666666667;"/><path d="M586.4665,176.9755 L586.4665,175.3886 L591.8925,175.3886 L591.8925,176.9755 L590.0798,176.9755 L590.0798,182.9142 L591.8925,182.9142 L591.8925,184.5011 L586.4665,184.5011 L586.4665,182.9142 L588.2792,182.9142 L588.2792,176.9755 Z " fill="#000000"/><text fill="#D8BC00" font-family="Open Sans,Avenir,Nunito,Arial,Helvetica,SansSerif" font-size="12.5" font-style="italic" font-weight="bold" lengthAdjust="spacing" textLength="102.0833" x="605.7292" y="184.5378">DiagramFactory</text><line style="stroke:#5E5E5E;stroke-width:1.0416666666666667;" x1="575.5208" x2="713.0208" y1="195.5078" y2="195.5078"/><line style="stroke:#5E5E5E;stroke-width:1.0416666666666667;" x1="575.5208" x2="713.0208" y1="203.8411" y2="203.8411"/><!--MD5=[2151b122c9dc240b07823748039a89d9]
class DiagramFunction--><rect codeLine="33" fill="#282828" height="48.055" id="DiagramFunction" rx="8.3333" ry="8.3333" style="stroke:#5E5E5E;stroke-width:1.0416666666666667;" width="148.9583" x="751.0417" y="164.1195"/><rect fill="#1B1B1A" height="31.3883" rx="8.3333" ry="8.3333" style="stroke:#1B1B1A;stroke-width:1.0416666666666667;" width="148.9583" x="751.0417" y="164.1195"/><rect fill="#1B1B1A" height="8.3333" style="stroke:#1B1B1A;stroke-width:1.0416666666666667;" width="148.9583" x="751.0417" y="187.1745"/><rect codeLine="33" fill="none" height="48.055" id="DiagramFunction" rx="8.3333" ry="8.3333" style="stroke:#5E5E5E;stroke-width:1.0416666666666667;" width="148.9583" x="751.0417" y="164.1195"/><ellipse cx="765.625" cy="179.8136" fill="#008400" rx="10.4167" ry="10.4167" style="stroke:#239C23;stroke-width:1.0416666666666667;"/><path d="M763.029,176.9755 L763.029,175.3886 L768.455,175.3886 L768.455,176.9755 L766.6423,176.9755 L766.6423,182.9142 L768.455,182.9142 L768.455,184.5011 L763.029,184.5011 L763.029,182.9142 L764.8417,182.9142 L764.8417,176.9755 Z " fill="#000000"/><text fill="#D8BC00" font-family="Open Sans,Avenir,Nunito,Arial,Helvetica,SansSerif" font-size="12.5" font-style="italic" font-weight="bold" lengthAdjust="spacing" textLength="111.4583" x="782.2917" y="184.5378">DiagramFunction</text><line style="stroke:#5E5E5E;stroke-width:1.0416666666666667;" x1="752.0833" x2="898.9583" y1="195.5078" y2="195.5078"/><line style="stroke:#5E5E5E;stroke-width:1.0416666666666667;" x1="752.0833" x2="898.9583" y1="203.8411" y2="203.8411"/><!--MD5=[c7c32c616c9c59d1f7a15d7b1a515b9a]
class DiagramIo--><rect codeLine="39" fill="#282828" height="48.055" id="DiagramIo" rx="8.3333" ry="8.3333" style="stroke:#5E5E5E;stroke-width:1.0416666666666667;" width="105.2083" x="936.4583" y="164.1195"/><rect fill="#1B1B1A" height="31.3883" rx="8.3333" ry="8.3333" style="stroke:#1B1B1A;stroke-width:1.0416666666666667;" width="105.2083" x="936.4583" y="164.1195"/><rect fill="#1B1B1A" height="8.3333" style="stroke:#1B1B1A;stroke-width:1.0416666666666667;" width="105.2083" x="936.4583" y="187.1745"/><rect codeLine="39" fill="none" height="48.055" id="DiagramIo" rx="8.3333" ry="8.3333" style="stroke:#5E5E5E;stroke-width:1.0416666666666667;" width="105.2083" x="936.4583" y="164.1195"/><ellipse cx="951.0417" cy="179.8136" fill="#008400" rx="10.4167" ry="10.4167" style="stroke:#239C23;stroke-width:1.0416666666666667;"/><path d="M948.4456,176.9755 L948.4456,175.3886 L953.8717,175.3886 L953.8717,176.9755 L952.0589,176.9755 L952.0589,182.9142 L953.8717,182.9142 L953.8717,184.5011 L948.4456,184.5011 L948.4456,182.9142 L950.2584,182.9142 L950.2584,176.9755 Z " fill="#000000"/><text fill="#D8BC00" font-family="Open Sans,Avenir,Nunito,Arial,Helvetica,SansSerif" font-size="12.5" font-style="italic" font-weight="bold" lengthAdjust="spacing" textLength="67.7083" x="967.7083" y="184.5378">DiagramIo</text><line style="stroke:#5E5E5E;stroke-width:1.0416666666666667;" x1="937.5" x2="1040.625" y1="195.5078" y2="195.5078"/><line style="stroke:#5E5E5E;stroke-width:1.0416666666666667;" x1="937.5" x2="1040.625" y1="203.8411" y2="203.8411"/><!--MD5=[0b7311d303f0f617b51b129e49dfc8ba]
class DiagramLifeCycle--><rect codeLine="45" fill="#282828" height="48.055" id="DiagramLifeCycle" rx="8.3333" ry="8.3333" style="stroke:#5E5E5E;stroke-width:1.0416666666666667;" width="151.0417" x="1078.125" y="164.1195"/><rect fill="#1B1B1A" height="31.3883" rx="8.3333" ry="8.3333" style="stroke:#1B1B1A;stroke-width:1.0416666666666667;" width="151.0417" x="1078.125" y="164.1195"/><rect fill="#1B1B1A" height="8.3333" style="stroke:#1B1B1A;stroke-width:1.0416666666666667;" width="151.0417" x="1078.125" y="187.1745"/><rect codeLine="45" fill="none" height="48.055" id="DiagramLifeCycle" rx="8.3333" ry="8.3333" style="stroke:#5E5E5E;stroke-width:1.0416666666666667;" width="151.0417" x="1078.125" y="164.1195"/><ellipse cx="1092.7083" cy="179.8136" fill="#008400" rx="10.4167" ry="10.4167" style="stroke:#239C23;stroke-width:1.0416666666666667;"/><path d="M1090.1123,176.9755 L1090.1123,175.3886 L1095.5383,175.3886 L1095.5383,176.9755 L1093.7256,176.9755 L1093.7256,182.9142 L1095.5383,182.9142 L1095.5383,184.5011 L1090.1123,184.5011 L1090.1123,182.9142 L1091.925,182.9142 L1091.925,176.9755 Z " fill="#000000"/><text fill="#D8BC00" font-family="Open Sans,Avenir,Nunito,Arial,Helvetica,SansSerif" font-size="12.5" font-style="italic" font-weight="bold" lengthAdjust="spacing" textLength="113.5417" x="1109.375" y="184.5378">DiagramLifeCycle</text><line style="stroke:#5E5E5E;stroke-width:1.0416666666666667;" x1="1079.1667" x2="1228.125" y1="195.5078" y2="195.5078"/><line style="stroke:#5E5E5E;stroke-width:1.0416666666666667;" x1="1079.1667" x2="1228.125" y1="203.8411" y2="203.8411"/><!--MD5=[5c286b3e0921fa119cca4b5eb3f44cad]
class DiagramLoading--><rect codeLine="51" fill="#282828" height="48.055" id="DiagramLoading" rx="8.3333" ry="8.3333" style="stroke:#5E5E5E;stroke-width:1.0416666666666667;" width="144.7917" x="1265.625" y="164.1195"/><rect fill="#1B1B1A" height="31.3883" rx="8.3333" ry="8.3333" style="stroke:#1B1B1A;stroke-width:1.0416666666666667;" width="144.7917" x="1265.625" y="164.1195"/><rect fill="#1B1B1A" height="8.3333" style="stroke:#1B1B1A;stroke-width:1.0416666666666667;" width="144.7917" x="1265.625" y="187.1745"/><rect codeLine="51" fill="none" height="48.055" id="DiagramLoading" rx="8.3333" ry="8.3333" style="stroke:#5E5E5E;stroke-width:1.0416666666666667;" width="144.7917" x="1265.625" y="164.1195"/><ellipse cx="1280.2083" cy="179.8136" fill="#008400" rx="10.4167" ry="10.4167" style="stroke:#239C23;stroke-width:1.0416666666666667;"/><path d="M1277.6123,176.9755 L1277.6123,175.3886 L1283.0383,175.3886 L1283.0383,176.9755 L1281.2256,176.9755 L1281.2256,182.9142 L1283.0383,182.9142 L1283.0383,184.5011 L1277.6123,184.5011 L1277.6123,182.9142 L1279.425,182.9142 L1279.425,176.9755 Z " fill="#000000"/><text fill="#D8BC00" font-family="Open Sans,Avenir,Nunito,Arial,Helvetica,SansSerif" font-size="12.5" font-style="italic" font-weight="bold" lengthAdjust="spacing" textLength="107.2917" x="1296.875" y="184.5378">DiagramLoading</text><line style="stroke:#5E5E5E;stroke-width:1.0416666666666667;" x1="1266.6667" x2="1409.375" y1="195.5078" y2="195.5078"/><line style="stroke:#5E5E5E;stroke-width:1.0416666666666667;" x1="1266.6667" x2="1409.375" y1="203.8411" y2="203.8411"/><!--MD5=[0b04a4b560455b0afe054c448cd53b09]
class DiagramMessaging--><rect codeLine="57" fill="#282828" height="48.055" id="DiagramMessaging" rx="8.3333" ry="8.3333" style="stroke:#5E5E5E;stroke-width:1.0416666666666667;" width="162.5" x="1447.3958" y="164.1195"/><rect fill="#1B1B1A" height="31.3883" rx="8.3333" ry="8.3333" style="stroke:#1B1B1A;stroke-width:1.0416666666666667;" width="162.5" x="1447.3958" y="164.1195"/><rect fill="#1B1B1A" height="8.3333" style="stroke:#1B1B1A;stroke-width:1.0416666666666667;" width="162.5" x="1447.3958" y="187.1745"/><rect codeLine="57" fill="none" height="48.055" id="DiagramMessaging" rx="8.3333" ry="8.3333" style="stroke:#5E5E5E;stroke-width:1.0416666666666667;" width="162.5" x="1447.3958" y="164.1195"/><ellipse cx="1461.9792" cy="179.8136" fill="#008400" rx="10.4167" ry="10.4167" style="stroke:#239C23;stroke-width:1.0416666666666667;"/><path d="M1459.3831,176.9755 L1459.3831,175.3886 L1464.8092,175.3886 L1464.8092,176.9755 L1462.9964,176.9755 L1462.9964,182.9142 L1464.8092,182.9142 L1464.8092,184.5011 L1459.3831,184.5011 L1459.3831,182.9142 L1461.1959,182.9142 L1461.1959,176.9755 Z " fill="#000000"/><text fill="#D8BC00" font-family="Open Sans,Avenir,Nunito,Arial,Helvetica,SansSerif" font-size="12.5" font-style="italic" font-weight="bold" lengthAdjust="spacing" textLength="125" x="1478.6458" y="184.5378">DiagramMessaging</text><line style="stroke:#5E5E5E;stroke-width:1.0416666666666667;" x1="1448.4375" x2="1608.8542" y1="195.5078" y2="195.5078"/><line style="stroke:#5E5E5E;stroke-width:1.0416666666666667;" x1="1448.4375" x2="1608.8542" y1="203.8411" y2="203.8411"/><!--MD5=[0a4c0c3c72046879b25ae27092b092b3]
class DiagramModel--><rect codeLine="63" fill="#282828" height="48.055" id="DiagramModel" rx="8.3333" ry="8.3333" style="stroke:#5E5E5E;stroke-width:1.0416666666666667;" width="132.2917" x="1646.875" y="164.1195"/><rect fill="#1B1B1A" height="31.3883" rx="8.3333" ry="8.3333" style="stroke:#1B1B1A;stroke-width:1.0416666666666667;" width="132.2917" x="1646.875" y="164.1195"/><rect fill="#1B1B1A" height="8.3333" style="stroke:#1B1B1A;stroke-width:1.0416666666666667;" width="132.2917" x="1646.875" y="187.1745"/><rect codeLine="63" fill="none" height="48.055" id="DiagramModel" rx="8.3333" ry="8.3333" style="stroke:#5E5E5E;stroke-width:1.0416666666666667;" width="132.2917" x="1646.875" y="164.1195"/><ellipse cx="1661.4583" cy="179.8136" fill="#008400" rx="10.4167" ry="10.4167" style="stroke:#239C23;stroke-width:1.0416666666666667;"/><path d="M1658.8623,176.9755 L1658.8623,175.3886 L1664.2883,175.3886 L1664.2883,176.9755 L1662.4756,176.9755 L1662.4756,182.9142 L1664.2883,182.9142 L1664.2883,184.5011 L1658.8623,184.5011 L1658.8623,182.9142 L1660.675,182.9142 L1660.675,176.9755 Z " fill="#000000"/><text fill="#D8BC00" font-family="Open Sans,Avenir,Nunito,Arial,Helvetica,SansSerif" font-size="12.5" font-style="italic" font-weight="bold" lengthAdjust="spacing" textLength="94.7917" x="1678.125" y="184.5378">DiagramModel</text><line style="stroke:#5E5E5E;stroke-width:1.0416666666666667;" x1="1647.9167" x2="1778.125" y1="195.5078" y2="195.5078"/><line style="stroke:#5E5E5E;stroke-width:1.0416666666666667;" x1="1647.9167" x2="1778.125" y1="203.8411" y2="203.8411"/><!--MD5=[71f7bb9790d8e2d9e0c5f496d5ae9686]
class DiagramNaming--><rect codeLine="69" fill="#282828" height="48.055" id="DiagramNaming" rx="8.3333" ry="8.3333" style="stroke:#5E5E5E;stroke-width:1.0416666666666667;" width="142.7083" x="1815.625" y="164.1195"/><rect fill="#1B1B1A" height="31.3883" rx="8.3333" ry="8.3333" style="stroke:#1B1B1A;stroke-width:1.0416666666666667;" width="142.7083" x="1815.625" y="164.1195"/><rect fill="#1B1B1A" height="8.3333" style="stroke:#1B1B1A;stroke-width:1.0416666666666667;" width="142.7083" x="1815.625" y="187.1745"/><rect codeLine="69" fill="none" height="48.055" id="DiagramNaming" rx="8.3333" ry="8.3333" style="stroke:#5E5E5E;stroke-width:1.0416666666666667;" width="142.7083" x="1815.625" y="164.1195"/><ellipse cx="1830.2083" cy="179.8136" fill="#008400" rx="10.4167" ry="10.4167" style="stroke:#239C23;stroke-width:1.0416666666666667;"/><path d="M1827.6123,176.9755 L1827.6123,175.3886 L1833.0383,175.3886 L1833.0383,176.9755 L1831.2256,176.9755 L1831.2256,182.9142 L1833.0383,182.9142 L1833.0383,184.5011 L1827.6123,184.5011 L1827.6123,182.9142 L1829.425,182.9142 L1829.425,176.9755 Z " fill="#000000"/><text fill="#D8BC00" font-family="Open Sans,Avenir,Nunito,Arial,Helvetica,SansSerif" font-size="12.5" font-style="italic" font-weight="bold" lengthAdjust="spacing" textLength="105.2083" x="1846.875" y="184.5378">DiagramNaming</text><line style="stroke:#5E5E5E;stroke-width:1.0416666666666667;" x1="1816.6667" x2="1957.2917" y1="195.5078" y2="195.5078"/><line style="stroke:#5E5E5E;stroke-width:1.0416666666666667;" x1="1816.6667" x2="1957.2917" y1="203.8411" y2="203.8411"/><!--MD5=[4e0ce0ff77ef79b67e9a0c510b9ba005]
class DiagramNumeric--><rect codeLine="75" fill="#282828" height="48.055" id="DiagramNumeric" rx="8.3333" ry="8.3333" style="stroke:#5E5E5E;stroke-width:1.0416666666666667;" width="145.8333" x="1995.3125" y="164.1195"/><rect fill="#1B1B1A" height="31.3883" rx="8.3333" ry="8.3333" style="stroke:#1B1B1A;stroke-width:1.0416666666666667;" width="145.8333" x="1995.3125" y="164.1195"/><rect fill="#1B1B1A" height="8.3333" style="stroke:#1B1B1A;stroke-width:1.0416666666666667;" width="145.8333" x="1995.3125" y="187.1745"/><rect codeLine="75" fill="none" height="48.055" id="DiagramNumeric" rx="8.3333" ry="8.3333" style="stroke:#5E5E5E;stroke-width:1.0416666666666667;" width="145.8333" x="1995.3125" y="164.1195"/><ellipse cx="2009.8958" cy="179.8136" fill="#008400" rx="10.4167" ry="10.4167" style="stroke:#239C23;stroke-width:1.0416666666666667;"/><path d="M2007.2998,176.9755 L2007.2998,175.3886 L2012.7258,175.3886 L2012.7258,176.9755 L2010.9131,176.9755 L2010.9131,182.9142 L2012.7258,182.9142 L2012.7258,184.5011 L2007.2998,184.5011 L2007.2998,182.9142 L2009.1125,182.9142 L2009.1125,176.9755 Z " fill="#000000"/><text fill="#D8BC00" font-family="Open Sans,Avenir,Nunito,Arial,Helvetica,SansSerif" font-size="12.5" font-style="italic" font-weight="bold" lengthAdjust="spacing" textLength="108.3333" x="2026.5625" y="184.5378">DiagramNumeric</text><line style="stroke:#5E5E5E;stroke-width:1.0416666666666667;" x1="1996.3542" x2="2140.1042" y1="195.5078" y2="195.5078"/><line style="stroke:#5E5E5E;stroke-width:1.0416666666666667;" x1="1996.3542" x2="2140.1042" y1="203.8411" y2="203.8411"/><!--MD5=[05448b295be301118838c2153abf5acf]
class DiagramString--><rect codeLine="81" fill="#282828" height="48.055" id="DiagramString" rx="8.3333" ry="8.3333" style="stroke:#5E5E5E;stroke-width:1.0416666666666667;" width="131.25" x="2177.6042" y="164.1195"/><rect fill="#1B1B1A" height="31.3883" rx="8.3333" ry="8.3333" style="stroke:#1B1B1A;stroke-width:1.0416666666666667;" width="131.25" x="2177.6042" y="164.1195"/><rect fill="#1B1B1A" height="8.3333" style="stroke:#1B1B1A;stroke-width:1.0416666666666667;" width="131.25" x="2177.6042" y="187.1745"/><rect codeLine="81" fill="none" height="48.055" id="DiagramString" rx="8.3333" ry="8.3333" style="stroke:#5E5E5E;stroke-width:1.0416666666666667;" width="131.25" x="2177.6042" y="164.1195"/><ellipse cx="2192.1875" cy="179.8136" fill="#008400" rx="10.4167" ry="10.4167" style="stroke:#239C23;stroke-width:1.0416666666666667;"/><path d="M2189.5915,176.9755 L2189.5915,175.3886 L2195.0175,175.3886 L2195.0175,176.9755 L2193.2048,176.9755 L2193.2048,182.9142 L2195.0175,182.9142 L2195.0175,184.5011 L2189.5915,184.5011 L2189.5915,182.9142 L2191.4042,182.9142 L2191.4042,176.9755 Z " fill="#000000"/><text fill="#D8BC00" font-family="Open Sans,Avenir,Nunito,Arial,Helvetica,SansSerif" font-size="12.5" font-style="italic" font-weight="bold" lengthAdjust="spacing" textLength="93.75" x="2208.8542" y="184.5378">DiagramString</text><line style="stroke:#5E5E5E;stroke-width:1.0416666666666667;" x1="2178.6458" x2="2307.8125" y1="195.5078" y2="195.5078"/><line style="stroke:#5E5E5E;stroke-width:1.0416666666666667;" x1="2178.6458" x2="2307.8125" y1="203.8411" y2="203.8411"/><!--MD5=[75c661e60b4e9a36de00ce7fdf861b7b]
class DiagramTime--><rect codeLine="87" fill="#282828" height="48.055" id="DiagramTime" rx="8.3333" ry="8.3333" style="stroke:#5E5E5E;stroke-width:1.0416666666666667;" width="125" x="2345.3125" y="164.1195"/><rect fill="#1B1B1A" height="31.3883" rx="8.3333" ry="8.3333" style="stroke:#1B1B1A;stroke-width:1.0416666666666667;" width="125" x="2345.3125" y="164.1195"/><rect fill="#1B1B1A" height="8.3333" style="stroke:#1B1B1A;stroke-width:1.0416666666666667;" width="125" x="2345.3125" y="187.1745"/><rect codeLine="87" fill="none" height="48.055" id="DiagramTime" rx="8.3333" ry="8.3333" style="stroke:#5E5E5E;stroke-width:1.0416666666666667;" width="125" x="2345.3125" y="164.1195"/><ellipse cx="2359.8958" cy="179.8136" fill="#008400" rx="10.4167" ry="10.4167" style="stroke:#239C23;stroke-width:1.0416666666666667;"/><path d="M2357.2998,176.9755 L2357.2998,175.3886 L2362.7258,175.3886 L2362.7258,176.9755 L2360.9131,176.9755 L2360.9131,182.9142 L2362.7258,182.9142 L2362.7258,184.5011 L2357.2998,184.5011 L2357.2998,182.9142 L2359.1125,182.9142 L2359.1125,176.9755 Z " fill="#000000"/><text fill="#D8BC00" font-family="Open Sans,Avenir,Nunito,Arial,Helvetica,SansSerif" font-size="12.5" font-style="italic" font-weight="bold" lengthAdjust="spacing" textLength="87.5" x="2376.5625" y="184.5378">DiagramTime</text><line style="stroke:#5E5E5E;stroke-width:1.0416666666666667;" x1="2346.3542" x2="2469.2708" y1="195.5078" y2="195.5078"/><line style="stroke:#5E5E5E;stroke-width:1.0416666666666667;" x1="2346.3542" x2="2469.2708" y1="203.8411" y2="203.8411"/><!--MD5=[c335adec4c1e4e63ce1b1a8730fe8a7d]
class DiagramValue--><rect codeLine="93" fill="#282828" height="48.055" id="DiagramValue" rx="8.3333" ry="8.3333" style="stroke:#5E5E5E;stroke-width:1.0416666666666667;" width="128.125" x="2507.2917" y="164.1195"/><rect fill="#1B1B1A" height="31.3883" rx="8.3333" ry="8.3333" style="stroke:#1B1B1A;stroke-width:1.0416666666666667;" width="128.125" x="2507.2917" y="164.1195"/><rect fill="#1B1B1A" height="8.3333" style="stroke:#1B1B1A;stroke-width:1.0416666666666667;" width="128.125" x="2507.2917" y="187.1745"/><rect codeLine="93" fill="none" height="48.055" id="DiagramValue" rx="8.3333" ry="8.3333" style="stroke:#5E5E5E;stroke-width:1.0416666666666667;" width="128.125" x="2507.2917" y="164.1195"/><ellipse cx="2521.875" cy="179.8136" fill="#008400" rx="10.4167" ry="10.4167" style="stroke:#239C23;stroke-width:1.0416666666666667;"/><path d="M2519.279,176.9755 L2519.279,175.3886 L2524.705,175.3886 L2524.705,176.9755 L2522.8923,176.9755 L2522.8923,182.9142 L2524.705,182.9142 L2524.705,184.5011 L2519.279,184.5011 L2519.279,182.9142 L2521.0917,182.9142 L2521.0917,176.9755 Z " fill="#000000"/><text fill="#D8BC00" font-family="Open Sans,Avenir,Nunito,Arial,Helvetica,SansSerif" font-size="12.5" font-style="italic" font-weight="bold" lengthAdjust="spacing" textLength="90.625" x="2538.5417" y="184.5378">DiagramValue</text><line style="stroke:#5E5E5E;stroke-width:1.0416666666666667;" x1="2508.3333" x2="2634.375" y1="195.5078" y2="195.5078"/><line style="stroke:#5E5E5E;stroke-width:1.0416666666666667;" x1="2508.3333" x2="2634.375" y1="203.8411" y2="203.8411"/><!--MD5=[47110cffa25301d5551b86335853e6e2]
reverse link UmlDiagramIdentifier to DiagramCode--><path codeLine="8" d="M1226.3542,79.2132 C1014.9583,81.8486 542.4271,95.6611 151.5625,164.1195 C145.6458,165.1611 139.5313,166.4528 133.4583,167.8903 " fill="none" id="UmlDiagramIdentifier-backto-DiagramCode" style="stroke:#545454;stroke-width:1.5625;"/><polygon fill="none" points="1226.2188,71.9215,1247.1354,78.984,1226.3854,86.5049,1226.2188,71.9215" style="stroke:#545454;stroke-width:1.5625;"/><!--MD5=[814b358c55eaec5dfddaf5f323271bd6]
reverse link UmlDiagramIdentifier to DiagramCollection--><path codeLine="14" d="M1226.4271,83.0882 C1042.3438,91.4945 663.8958,113.7028 347.3958,164.1195 C341.3646,165.0778 335.1458,166.2028 328.9167,167.432 " fill="none" id="UmlDiagramIdentifier-backto-DiagramCollection" style="stroke:#545454;stroke-width:1.5625;"/><polygon fill="none" points="1225.9896,75.807,1247.125,82.1611,1226.6354,90.3799,1225.9896,75.807" style="stroke:#545454;stroke-width:1.5625;"/><!--MD5=[6fc7251478013387ff42aa7adf9212c3]
reverse link UmlDiagramIdentifier to DiagramComparison--><path codeLine="20" d="M1226.7917,87.0465 C1074.6354,99.3278 793.3646,125.1195 555.7292,164.1195 C549.8854,165.0778 543.8646,166.1611 537.8229,167.307 " fill="none" id="UmlDiagramIdentifier-backto-DiagramComparison" style="stroke:#545454;stroke-width:1.5625;"/><polygon fill="none" points="1225.8125,79.8174,1247.1563,85.4215,1226.9688,94.3486,1225.8125,79.8174" style="stroke:#545454;stroke-width:1.5625;"/><!--MD5=[fa226967c039f52bad0f6c4a40e86eae]
reverse link UmlDiagramIdentifier to DiagramFactory--><path codeLine="26" d="M1226.5938,90.5986 C1104.6875,104.5049 903.8333,130.0361 732.8125,164.1195 C726.7396,165.3278 720.4583,166.7028 714.1875,168.1611 " fill="none" id="UmlDiagramIdentifier-backto-DiagramFactory" style="stroke:#545454;stroke-width:1.5625;"/><polygon fill="none" points="1225.6979,83.3695,1247.2188,88.2757,1227.3333,97.859,1225.6979,83.3695" style="stroke:#545454;stroke-width:1.5625;"/><!--MD5=[12aa6590e565c6f5f7ce0b348078b418]
reverse link UmlDiagramIdentifier to DiagramFunction--><path codeLine="32" d="M1226.6771,100.0465 C1141.9167,116.6195 1022.4688,140.6403 918.2292,164.1195 C912.4063,165.432 906.3854,166.8278 900.3438,168.2549 " fill="none" id="UmlDiagramIdentifier-backto-DiagramFunction" style="stroke:#545454;stroke-width:1.5625;"/><polygon fill="none" points="1225.1354,92.9215,1246.9792,96.0986,1227.9271,107.234,1225.1354,92.9215" style="stroke:#545454;stroke-width:1.5625;"/><!--MD5=[03e96f47b44aee0bed3e3b0c206707fb]
reverse link UmlDiagramIdentifier to DiagramIo--><path codeLine="38" d="M1239.7083,108.5049 C1186.4375,124.7549 1119.4896,145.3278 1059.8958,164.1195 C1054.1042,165.9424 1048.0521,167.8695 1042.0208,169.807 " fill="none" id="UmlDiagramIdentifier-backto-DiagramIo" style="stroke:#545454;stroke-width:1.5625;"/><polygon fill="none" points="1237.3333,101.609,1259.3854,102.5153,1241.5833,115.557,1237.3333,101.609" style="stroke:#545454;stroke-width:1.5625;"/><!--MD5=[66ab5f84eb4621584d8bf8b0a515b973]
reverse link UmlDiagramIdentifier to DiagramLifeCycle--><path codeLine="44" d="M1279.5208,113.0778 C1251.4583,129.5674 1218.5729,148.8903 1193.4479,163.6507 " fill="none" id="UmlDiagramIdentifier-backto-DiagramLifeCycle" style="stroke:#545454;stroke-width:1.5625;"/><polygon fill="none" points="1275.4479,107.0049,1297.1042,102.7445,1282.8438,119.5778,1275.4479,107.0049" style="stroke:#545454;stroke-width:1.5625;"/><!--MD5=[e9cc74b4871054cf89112ec4531eae3c]
reverse link UmlDiagramIdentifier to DiagramLoading--><path codeLine="50" d="M1338.0208,124.234 C1338.0208,137.8799 1338.0208,152.2757 1338.0208,163.8382 " fill="none" id="UmlDiagramIdentifier-backto-DiagramLoading" style="stroke:#545454;stroke-width:1.5625;"/><polygon fill="none" points="1330.7292,124.3486,1338.0208,103.5153,1345.3125,124.3486,1330.7292,124.3486" style="stroke:#545454;stroke-width:1.5625;"/><!--MD5=[bed8d5961cd8b462b0e84b60d8ebd599]
reverse link UmlDiagramIdentifier to DiagramMessaging--><path codeLine="56" d="M1398.0833,112.8382 C1427.1875,129.3799 1461.3958,148.8174 1487.4896,163.6507 " fill="none" id="UmlDiagramIdentifier-backto-DiagramMessaging" style="stroke:#545454;stroke-width:1.5625;"/><polygon fill="none" points="1394.7917,119.359,1380.2813,102.7236,1402,106.6715,1394.7917,119.359" style="stroke:#545454;stroke-width:1.5625;"/><!--MD5=[d13c79c6f5ece8d10093e5631c0905e7]
reverse link UmlDiagramIdentifier to DiagramModel--><path codeLine="62" d="M1440.0313,108.1715 C1505.7813,127.1715 1589.3854,151.3174 1646.6354,167.859 " fill="none" id="UmlDiagramIdentifier-backto-DiagramModel" style="stroke:#545454;stroke-width:1.5625;"/><polygon fill="none" points="1438.4375,115.2965,1420.4479,102.5153,1442.4792,101.2861,1438.4375,115.2965" style="stroke:#545454;stroke-width:1.5625;"/><!--MD5=[86e467f5ba4f3905332205ba58fc84be]
reverse link UmlDiagramIdentifier to DiagramNaming--><path codeLine="68" d="M1449.1667,97.234 C1542.4583,113.2965 1679.0833,138.0153 1797.3958,164.1195 C1803.1979,165.4007 1809.1875,166.7861 1815.2083,168.2236 " fill="none" id="UmlDiagramIdentifier-backto-DiagramNaming" style="stroke:#545454;stroke-width:1.5625;"/><polygon fill="none" points="1448.1563,104.4632,1428.8542,93.7549,1450.6146,90.0882,1448.1563,104.4632" style="stroke:#545454;stroke-width:1.5625;"/><!--MD5=[6c2b7f3a4a7f2042a65f2afee78e137f]
reverse link UmlDiagramIdentifier to DiagramNumeric--><path codeLine="74" d="M1449.4271,89.7757 C1577.3333,103.3799 1793.1354,129.0361 1976.5625,164.1195 C1982.5208,165.2549 1988.6771,166.5465 1994.8438,167.9215 " fill="none" id="UmlDiagramIdentifier-backto-DiagramNumeric" style="stroke:#545454;stroke-width:1.5625;"/><polygon fill="none" points="1448.8854,97.057,1428.9375,87.6299,1450.4167,82.5465,1448.8854,97.057" style="stroke:#545454;stroke-width:1.5625;"/><!--MD5=[634253057df17981d9022b1e31aca082]
reverse link UmlDiagramIdentifier to DiagramString--><path codeLine="80" d="M1449.4167,84.4424 C1608.2292,93.9424 1908.3646,116.7965 2159.8958,164.1195 C2165.6458,165.2028 2171.5833,166.484 2177.5,167.8903 " fill="none" id="UmlDiagramIdentifier-backto-DiagramString" style="stroke:#545454;stroke-width:1.5625;"/><polygon fill="none" points="1449.4479,91.7549,1429.0729,83.2549,1450.2917,77.1924,1449.4479,91.7549" style="stroke:#545454;stroke-width:1.5625;"/><!--MD5=[d3f5a0cd709ec0392f276928b1d5a0f1]
reverse link UmlDiagramIdentifier to DiagramTime--><path codeLine="86" d="M1449.7917,81.3695 C1634.1042,87.3174 2012.75,106.109 2327.6042,164.1195 C2333.3021,165.1715 2339.1771,166.4528 2345.0313,167.8695 " fill="none" id="UmlDiagramIdentifier-backto-DiagramTime" style="stroke:#545454;stroke-width:1.5625;"/><polygon fill="none" points="1449.6667,88.6611,1429.0729,80.7236,1450.1146,74.0778,1449.6667,88.6611" style="stroke:#545454;stroke-width:1.5625;"/><!--MD5=[e6a11ab11016b9631fdc5a2648f40068]
reverse link UmlDiagramIdentifier to DiagramValue--><path codeLine="92" d="M1449.75,79.6924 C1656.4583,83.1299 2111.8646,98.2653 2489.0625,164.1195 C2494.9063,165.1403 2500.9375,166.4007 2506.9375,167.807 " fill="none" id="UmlDiagramIdentifier-backto-DiagramValue" style="stroke:#545454;stroke-width:1.5625;"/><polygon fill="none" points="1449.875,86.984,1429.1458,79.3799,1450.0938,72.4007,1449.875,86.984" style="stroke:#545454;stroke-width:1.5625;"/><!--MD5=[5ac3f7c881eedf53255352986ba39308]
@startuml

    !include lexakai.theme
    
    title "com.telenav.kivakit.interfaces.internal.lexakai"
    
    interface UmlDiagramIdentifier
    UmlDiagramIdentifier <|- - DiagramCode
    interface DiagramCode
    {
    }
    
    interface UmlDiagramIdentifier
    UmlDiagramIdentifier <|- - DiagramCollection
    interface DiagramCollection
    {
    }
    
    interface UmlDiagramIdentifier
    UmlDiagramIdentifier <|- - DiagramComparison
    interface DiagramComparison
    {
    }
    
    interface UmlDiagramIdentifier
    UmlDiagramIdentifier <|- - DiagramFactory
    interface DiagramFactory
    {
    }
    
    interface UmlDiagramIdentifier
    UmlDiagramIdentifier <|- - DiagramFunction
    interface DiagramFunction
    {
    }
    
    interface UmlDiagramIdentifier
    UmlDiagramIdentifier <|- - DiagramIo
    interface DiagramIo
    {
    }
    
    interface UmlDiagramIdentifier
    UmlDiagramIdentifier <|- - DiagramLifeCycle
    interface DiagramLifeCycle
    {
    }
    
    interface UmlDiagramIdentifier
    UmlDiagramIdentifier <|- - DiagramLoading
    interface DiagramLoading
    {
    }
    
    interface UmlDiagramIdentifier
    UmlDiagramIdentifier <|- - DiagramMessaging
    interface DiagramMessaging
    {
    }
    
    interface UmlDiagramIdentifier
    UmlDiagramIdentifier <|- - DiagramModel
    interface DiagramModel
    {
    }
    
    interface UmlDiagramIdentifier
    UmlDiagramIdentifier <|- - DiagramNaming
    interface DiagramNaming
    {
    }
    
    interface UmlDiagramIdentifier
    UmlDiagramIdentifier <|- - DiagramNumeric
    interface DiagramNumeric
    {
    }
    
    interface UmlDiagramIdentifier
    UmlDiagramIdentifier <|- - DiagramString
    interface DiagramString
    {
    }
    
    interface UmlDiagramIdentifier
    UmlDiagramIdentifier <|- - DiagramTime
    interface DiagramTime
    {
    }
    
    interface UmlDiagramIdentifier
    UmlDiagramIdentifier <|- - DiagramValue
    interface DiagramValue
    {
    }
    
@enduml

@startuml









skinparam backgroundColor #333333






skinparam  {
    defaultFontName   "Open Sans,Avenir,Nunito,Arial,Helvetica,SansSerif"
    defaultFontSize   12
    defaultTextAlignment left
    shadowing false
    RoundCorner 10
    TitleFontSize 18
}

skinparam defaultFontName       "Open Sans,Avenir,Nunito,Arial,Helvetica,SansSerif"
skinparam defaultFontSize       12
skinparam dpi                   100
skinparam shadowing             false
skinparam roundcorner           16
skinparam ParticipantPadding    40
skinparam BoxPadding            40
skinparam Padding               3
skinparam ArrowColor            #545454
skinparam stereotype {
    CBackgroundColor #0066cf
    CBorderColor #0086ef
    ABackgroundColor #C8Ac00
    ABorderColor #D8Bc00
    IBackgroundColor #008400
    IBorderColor #239c23
    EBackgroundColor #cf6300
    EBorderColor #ef8300
    NBackgroundColor #3380b9
    NBorderColor #004d86
}
skinparam title {
	FontColor	                 #c0c0c0
 	BorderColor                  #545454
	FontSize	    	         20
	BorderRoundCorner            16
	BorderThickness 	         1
	BackgroundColor              #48494b
}


skinparam legend {
	BackgroundColor #303030
	BorderColor #404040
	FontColor #a0a0a0
}

	skinparam swimlane {
	BorderColor #5e5e5e
	BorderThickness 2
	TitleBackgroundColor  #6d6d6d-#484848
	TitleFontColor #303030
}

skinparam activity {
		FontColor #C8Ac00
	BorderColor #333333
	BackgroundColor #333333-#333333
	BarColor #00FF00
	StartColor #0060a8
	EndColor #0060a8
	DiamondBackgroundColor #6d6d6d-#3a3a3a
  	DiamondBorderColor #3a3a3a
  	DiamondFontColor #fefefe
}


skinparam participant {
		FontColor #C8Ac00
	BorderColor #333333
	BackgroundColor #333333-#333333
	ParticipantBorderThickness 2
}


skinparam actor {
		FontColor #C8Ac00
	BorderColor #333333
	BackgroundColor #333333-#333333
}


skinparam arrow {
	Thickness 1.5
	Color #545454
	FontColor #a0a0a0
    FontStyle bold
    MessageAlignment center
}



skinparam sequence {
	BorderColor #303030
	TitleFontColor #303030
	BackgroundColor #333333
	StartColor #303030
	EndColor #303030
	BoxBackgroundColor #333333
	BoxBorderColor #484848
	BoxFontColor #484848
	LifeLineBorderColor #484848
	LifeLineBorderThickness 2
	LifeLineBackgroundColor #3a3a3a
	GroupBorderColor #484848
	GroupFontColor #484848
	GroupHeaderFontColor #0060a8
	GroupBackgroundColor #484848
	GroupHeaderBackgroundColor #333333
	DividerBackgroundColor #484848
    DividerBorderColor #484848
    DividerBorderThickness 2
    DividerFontColor #D8Bc00
	ReferenceBackgroundColor #333333
	ReferenceBorderColor #484848
	ReferenceFontColor #fefefe
	ReferenceHeaderBackgroundColor #484848
}


skinparam partition {
	BorderColor #303030
	FontColor #333333
	BackgroundColor #333333
}


skinparam collections {
		FontColor #C8Ac00
	BorderColor #333333
	BackgroundColor #333333-#333333
}


skinparam control {
		FontColor #C8Ac00
	BorderColor #333333
	BackgroundColor #333333-#333333
}


skinparam entity {
		FontColor #C8Ac00
	BorderColor #333333
	BackgroundColor #333333-#333333
}


skinparam boundary {
		FontColor #C8Ac00
	BorderColor #333333
	BackgroundColor #333333-#333333
}


skinparam agent {
	BackgroundColor #ff8000
	BorderColor #ff9933
	FontColor #484848
}


skinparam note {
	BorderThickness 1
	BackgroundColor #1b1b1a
	BorderColor #5e5e5e
	FontSize 11
	FontColor #a0a0a0
}


skinparam artifact {
	BorderThickness 10
	BorderColor #5e5e5e
	BackgroundColor #1b1b1a
	FontColor #D8Bc00
}


skinparam component {
		FontColor #C8Ac00
	BorderColor #333333
	BackgroundColor #333333-#333333
}


skinparam interface {
	BackgroundColor  #008400
	BorderColor  #007F00
	FontColor #484848
}


skinparam storage {
	BackgroundColor #ff8000
  	BorderColor #cc6600
	FontColor #222222
}


skinparam node {
	BackgroundColor #333333
	BorderColor #333333
	FontColor #C8Ac00
}


skinparam cloud {
	BackgroundColor #484848-black
	BorderColor #484848
	FontColor #D8Bc00
}


skinparam database {
		FontColor #C8Ac00
	BorderColor #333333
	BackgroundColor #333333-#333333
	BackgroundColor  #333333
}


skinparam class {
		FontColor #C8Ac00
	BorderColor #333333
	BackgroundColor #333333-#333333
	HeaderBackgroundColor #1b1b1a
    BackgroundColor #282828
    BorderColor #5e5e5e
 	StereotypeFontColor #a0a0a0
    StereotypeFontStyle bold
	BorderThickness 1
	AttributeFontColor #D8Bc00
	AttributeFontSize 11
    FontColor #D8Bc00
    FontStyle bold
}


skinparam object {
		FontColor #C8Ac00
	BorderColor #333333
	BackgroundColor #333333-#333333
	StereotypeFontColor #484848
	BorderThickness 1
	AttributeFontColor #fefefe
	AttributeFontSize 11
}


skinparam usecase {
		FontColor #C8Ac00
	BorderColor #333333
	BackgroundColor #333333-#333333
	BorderThickness 2
	StereotypeFontColor #303030
}


skinparam rectangle {
		FontColor #C8Ac00
	BorderColor #333333
	BackgroundColor #333333-#333333
	BackgroundColor #333333
	BorderThickness 2
	StereotypeFontColor #303030
}


skinparam package {
		FontColor #C8Ac00
	BorderColor #333333
	BackgroundColor #333333-#333333
	BackgroundColor #333333
	BorderThickness 2
}


skinparam folder {
	BackgroundColor #6d6d6d
  	BorderColor #ff8000
	FontColor #ff8000
	BorderThickness 2
}


skinparam frame {
	BackgroundColor #6d6d6d
  	BorderColor #0060a8
	FontColor #0060a8
	BorderThickness 2
}


skinparam state {
		FontColor #C8Ac00
	BorderColor #333333
	BackgroundColor #333333-#333333
	StartColor #0060a8
	EndColor #0060a8
	AttributeFontColor #fefefe
	AttributeFontSize 11
}


skinparam queue {
		FontColor #C8Ac00
	BorderColor #333333
	BackgroundColor #333333-#333333
}


skinparam card {
	BackgroundColor #0060a8
	BorderColor #004d86
	FontColor $INFO_TEXT
}


skinparam file {
	BackgroundColor #6d6d6d-#484848
	BorderColor #0060a8
	FontColor #fefefe
}


skinparam stack {
		FontColor #C8Ac00
	BorderColor #333333
	BackgroundColor #333333-#333333
}

    
    title "com.telenav.kivakit.interfaces.internal.lexakai"
    
    interface UmlDiagramIdentifier
    UmlDiagramIdentifier <|- - DiagramCode
    interface DiagramCode
    {
    }
    
    interface UmlDiagramIdentifier
    UmlDiagramIdentifier <|- - DiagramCollection
    interface DiagramCollection
    {
    }
    
    interface UmlDiagramIdentifier
    UmlDiagramIdentifier <|- - DiagramComparison
    interface DiagramComparison
    {
    }
    
    interface UmlDiagramIdentifier
    UmlDiagramIdentifier <|- - DiagramFactory
    interface DiagramFactory
    {
    }
    
    interface UmlDiagramIdentifier
    UmlDiagramIdentifier <|- - DiagramFunction
    interface DiagramFunction
    {
    }
    
    interface UmlDiagramIdentifier
    UmlDiagramIdentifier <|- - DiagramIo
    interface DiagramIo
    {
    }
    
    interface UmlDiagramIdentifier
    UmlDiagramIdentifier <|- - DiagramLifeCycle
    interface DiagramLifeCycle
    {
    }
    
    interface UmlDiagramIdentifier
    UmlDiagramIdentifier <|- - DiagramLoading
    interface DiagramLoading
    {
    }
    
    interface UmlDiagramIdentifier
    UmlDiagramIdentifier <|- - DiagramMessaging
    interface DiagramMessaging
    {
    }
    
    interface UmlDiagramIdentifier
    UmlDiagramIdentifier <|- - DiagramModel
    interface DiagramModel
    {
    }
    
    interface UmlDiagramIdentifier
    UmlDiagramIdentifier <|- - DiagramNaming
    interface DiagramNaming
    {
    }
    
    interface UmlDiagramIdentifier
    UmlDiagramIdentifier <|- - DiagramNumeric
    interface DiagramNumeric
    {
    }
    
    interface UmlDiagramIdentifier
    UmlDiagramIdentifier <|- - DiagramString
    interface DiagramString
    {
    }
    
    interface UmlDiagramIdentifier
    UmlDiagramIdentifier <|- - DiagramTime
    interface DiagramTime
    {
    }
    
    interface UmlDiagramIdentifier
    UmlDiagramIdentifier <|- - DiagramValue
    interface DiagramValue
    {
    }
    
@enduml

PlantUML version 1.2021.01(Tue Feb 02 00:55:08 MST 2021)
(GPL source distribution)
Java Runtime: OpenJDK Runtime Environment
JVM: OpenJDK 64-Bit Server VM
Default Encoding: UTF-8
Language: en
Country: US
--></g></svg>