<?xml version="1.0" encoding="UTF-8" standalone="no"?><svg xmlns="http://www.w3.org/2000/svg" xmlns:xlink="http://www.w3.org/1999/xlink" contentScriptType="application/ecmascript" contentStyleType="text/css" height="448.9583px" preserveAspectRatio="none" style="width:1126px;height:448px;background:#333333;" version="1.1" viewBox="0 0 1126 448" width="1126.0417px" zoomAndPan="magnify"><defs/><g><rect fill="#48494B" height="41.2028" rx="8.3333" ry="8.3333" style="stroke:#545454;stroke-width:1.0416666666666667;" width="502.0833" x="304.9479" y="2.0833"/><text fill="#C0C0C0" font-family="Open Sans,Avenir,Nunito,Arial,Helvetica,SansSerif" font-size="20.8333" lengthAdjust="spacing" textLength="479.1667" x="316.4063" y="30.5583">com.telenav.kivakit.logs.client.view.panels.table</text><rect codeLine="7" fill="#282828" height="48.055" id="AbstractTableModel" rx="8.3333" ry="8.3333" style="stroke:#5E5E5E;stroke-width:1.0416666666666667;" width="166.6667" x="45.8333" y="53.7028"/><rect fill="#1B1B1A" height="31.3883" rx="8.3333" ry="8.3333" style="stroke:#1B1B1A;stroke-width:1.0416666666666667;" width="166.6667" x="45.8333" y="53.7028"/><rect fill="#1B1B1A" height="8.3333" style="stroke:#1B1B1A;stroke-width:1.0416666666666667;" width="166.6667" x="45.8333" y="76.7578"/><rect codeLine="7" fill="none" height="48.055" id="AbstractTableModel" rx="8.3333" ry="8.3333" style="stroke:#5E5E5E;stroke-width:1.0416666666666667;" width="166.6667" x="45.8333" y="53.7028"/><ellipse cx="60.4167" cy="69.397" fill="#C8AC00" rx="10.4167" ry="10.4167" style="stroke:#D8BC00;stroke-width:1.0416666666666667;"/><path d="M60.0098,66.099 L59.1614,69.8283 L60.8643,69.8283 Z M58.9111,64.4511 L61.1145,64.4511 L63.5742,73.5636 L61.7737,73.5636 L61.2122,71.3114 L58.8013,71.3114 L58.252,73.5636 L56.4514,73.5636 Z " fill="#000000"/><text fill="#D8BC00" font-family="Open Sans,Avenir,Nunito,Arial,Helvetica,SansSerif" font-size="12.5" font-style="italic" font-weight="bold" lengthAdjust="spacing" textLength="129.1667" x="77.0833" y="74.1211">AbstractTableModel</text><line style="stroke:#5E5E5E;stroke-width:1.0416666666666667;" x1="46.875" x2="211.4583" y1="85.0911" y2="85.0911"/><line style="stroke:#5E5E5E;stroke-width:1.0416666666666667;" x1="46.875" x2="211.4583" y1="93.4245" y2="93.4245"/><rect fill="#282828" height="48.055" id="DefaultTableCellRenderer" rx="8.3333" ry="8.3333" style="stroke:#5E5E5E;stroke-width:1.0416666666666667;" width="203.125" x="264.0625" y="53.7028"/><rect fill="#1B1B1A" height="31.3883" rx="8.3333" ry="8.3333" style="stroke:#1B1B1A;stroke-width:1.0416666666666667;" width="203.125" x="264.0625" y="53.7028"/><rect fill="#1B1B1A" height="8.3333" style="stroke:#1B1B1A;stroke-width:1.0416666666666667;" width="203.125" x="264.0625" y="76.7578"/><rect fill="none" height="48.055" id="DefaultTableCellRenderer" rx="8.3333" ry="8.3333" style="stroke:#5E5E5E;stroke-width:1.0416666666666667;" width="203.125" x="264.0625" y="53.7028"/><ellipse cx="278.6458" cy="69.397" fill="#0066CF" rx="10.4167" ry="10.4167" style="stroke:#0086EF;stroke-width:1.0416666666666667;"/><path d="M280.5562,73.822 Q280.129,74.0417 279.659,74.1516 Q279.189,74.2615 278.6702,74.2615 Q276.827,74.2615 275.8565,73.0469 Q274.8861,71.8323 274.8861,69.5374 Q274.8861,67.2363 275.8565,66.0217 Q276.827,64.8071 278.6702,64.8071 Q279.189,64.8071 279.6651,64.917 Q280.1412,65.0269 280.5562,65.2466 L280.5562,67.2485 Q280.0924,66.8213 279.656,66.6229 Q279.2196,66.4246 278.7557,66.4246 Q277.7669,66.4246 277.2634,67.2089 Q276.7598,67.9932 276.7598,69.5374 Q276.7598,71.0754 277.2634,71.8597 Q277.7669,72.644 278.7557,72.644 Q279.2196,72.644 279.656,72.4457 Q280.0924,72.2473 280.5562,71.8201 Z " fill="#000000"/><text fill="#D8BC00" font-family="Open Sans,Avenir,Nunito,Arial,Helvetica,SansSerif" font-size="12.5" font-weight="bold" lengthAdjust="spacing" textLength="165.625" x="295.3125" y="74.1211">DefaultTableCellRenderer</text><line style="stroke:#5E5E5E;stroke-width:1.0416666666666667;" x1="265.1042" x2="466.1458" y1="85.0911" y2="85.0911"/><line style="stroke:#5E5E5E;stroke-width:1.0416666666666667;" x1="265.1042" x2="466.1458" y1="93.4245" y2="93.4245"/><rect codeLine="10" fill="#282828" height="48.055" id="TableCellRenderer" rx="8.3333" ry="8.3333" style="stroke:#5E5E5E;stroke-width:1.0416666666666667;" width="155.2083" x="288.0208" y="279.2236"/><rect fill="#1B1B1A" height="31.3883" rx="8.3333" ry="8.3333" style="stroke:#1B1B1A;stroke-width:1.0416666666666667;" width="155.2083" x="288.0208" y="279.2236"/><rect fill="#1B1B1A" height="8.3333" style="stroke:#1B1B1A;stroke-width:1.0416666666666667;" width="155.2083" x="288.0208" y="302.2786"/><rect codeLine="10" fill="none" height="48.055" id="TableCellRenderer" rx="8.3333" ry="8.3333" style="stroke:#5E5E5E;stroke-width:1.0416666666666667;" width="155.2083" x="288.0208" y="279.2236"/><ellipse cx="302.6042" cy="294.9178" fill="#0066CF" rx="10.4167" ry="10.4167" style="stroke:#0086EF;stroke-width:1.0416666666666667;"/><path d="M304.5146,299.3429 Q304.0873,299.5626 303.6174,299.6724 Q303.1474,299.7823 302.6286,299.7823 Q300.7853,299.7823 299.8149,298.5677 Q298.8444,297.3531 298.8444,295.0582 Q298.8444,292.7572 299.8149,291.5426 Q300.7853,290.328 302.6286,290.328 Q303.1474,290.328 303.6235,290.4378 Q304.0995,290.5477 304.5146,290.7674 L304.5146,292.7694 Q304.0507,292.3421 303.6143,292.1438 Q303.1779,291.9454 302.714,291.9454 Q301.7253,291.9454 301.2217,292.7297 Q300.7182,293.514 300.7182,295.0582 Q300.7182,296.5963 301.2217,297.3806 Q301.7253,298.1649 302.714,298.1649 Q303.1779,298.1649 303.6143,297.9665 Q304.0507,297.7681 304.5146,297.3409 Z " fill="#000000"/><text fill="#D8BC00" font-family="Open Sans,Avenir,Nunito,Arial,Helvetica,SansSerif" font-size="12.5" font-weight="bold" lengthAdjust="spacing" textLength="117.7083" x="319.2708" y="299.6419">TableCellRenderer</text><line style="stroke:#5E5E5E;stroke-width:1.0416666666666667;" x1="289.0625" x2="442.1875" y1="310.612" y2="310.612"/><line style="stroke:#5E5E5E;stroke-width:1.0416666666666667;" x1="289.0625" x2="442.1875" y1="318.9453" y2="318.9453"/><rect fill="#282828" height="48.055" id="RowFilter" rx="8.3333" ry="8.3333" style="stroke:#5E5E5E;stroke-width:1.0416666666666667;" width="97.9167" x="504.1667" y="53.7028"/><rect fill="#1B1B1A" height="31.3883" rx="8.3333" ry="8.3333" style="stroke:#1B1B1A;stroke-width:1.0416666666666667;" width="97.9167" x="504.1667" y="53.7028"/><rect fill="#1B1B1A" height="8.3333" style="stroke:#1B1B1A;stroke-width:1.0416666666666667;" width="97.9167" x="504.1667" y="76.7578"/><rect fill="none" height="48.055" id="RowFilter" rx="8.3333" ry="8.3333" style="stroke:#5E5E5E;stroke-width:1.0416666666666667;" width="97.9167" x="504.1667" y="53.7028"/><ellipse cx="518.75" cy="69.397" fill="#0066CF" rx="10.4167" ry="10.4167" style="stroke:#0086EF;stroke-width:1.0416666666666667;"/><path d="M520.6604,73.822 Q520.2332,74.0417 519.7632,74.1516 Q519.2932,74.2615 518.7744,74.2615 Q516.9312,74.2615 515.9607,73.0469 Q514.9902,71.8323 514.9902,69.5374 Q514.9902,67.2363 515.9607,66.0217 Q516.9312,64.8071 518.7744,64.8071 Q519.2932,64.8071 519.7693,64.917 Q520.2454,65.0269 520.6604,65.2466 L520.6604,67.2485 Q520.1965,66.8213 519.7601,66.6229 Q519.3237,66.4246 518.8599,66.4246 Q517.8711,66.4246 517.3676,67.2089 Q516.864,67.9932 516.864,69.5374 Q516.864,71.0754 517.3676,71.8597 Q517.8711,72.644 518.8599,72.644 Q519.3237,72.644 519.7601,72.4457 Q520.1965,72.2473 520.6604,71.8201 Z " fill="#000000"/><text fill="#D8BC00" font-family="Open Sans,Avenir,Nunito,Arial,Helvetica,SansSerif" font-size="12.5" font-weight="bold" lengthAdjust="spacing" textLength="60.4167" x="535.4167" y="74.1211">RowFilter</text><line style="stroke:#5E5E5E;stroke-width:1.0416666666666667;" x1="505.2083" x2="601.0417" y1="85.0911" y2="85.0911"/><line style="stroke:#5E5E5E;stroke-width:1.0416666666666667;" x1="505.2083" x2="601.0417" y1="93.4245" y2="93.4245"/><rect codeLine="15" fill="#282828" height="48.055" id="TableFilter" rx="8.3333" ry="8.3333" style="stroke:#5E5E5E;stroke-width:1.0416666666666667;" width="106.25" x="500" y="279.2236"/><rect fill="#1B1B1A" height="31.3883" rx="8.3333" ry="8.3333" style="stroke:#1B1B1A;stroke-width:1.0416666666666667;" width="106.25" x="500" y="279.2236"/><rect fill="#1B1B1A" height="8.3333" style="stroke:#1B1B1A;stroke-width:1.0416666666666667;" width="106.25" x="500" y="302.2786"/><rect codeLine="15" fill="none" height="48.055" id="TableFilter" rx="8.3333" ry="8.3333" style="stroke:#5E5E5E;stroke-width:1.0416666666666667;" width="106.25" x="500" y="279.2236"/><ellipse cx="514.5833" cy="294.9178" fill="#0066CF" rx="10.4167" ry="10.4167" style="stroke:#0086EF;stroke-width:1.0416666666666667;"/><path d="M516.4937,299.3429 Q516.0665,299.5626 515.5965,299.6724 Q515.1265,299.7823 514.6077,299.7823 Q512.7645,299.7823 511.794,298.5677 Q510.8236,297.3531 510.8236,295.0582 Q510.8236,292.7572 511.794,291.5426 Q512.7645,290.328 514.6077,290.328 Q515.1265,290.328 515.6026,290.4378 Q516.0787,290.5477 516.4937,290.7674 L516.4937,292.7694 Q516.0299,292.3421 515.5935,292.1438 Q515.1571,291.9454 514.6932,291.9454 Q513.7044,291.9454 513.2009,292.7297 Q512.6973,293.514 512.6973,295.0582 Q512.6973,296.5963 513.2009,297.3806 Q513.7044,298.1649 514.6932,298.1649 Q515.1571,298.1649 515.5935,297.9665 Q516.0299,297.7681 516.4937,297.3409 Z " fill="#000000"/><text fill="#D8BC00" font-family="Open Sans,Avenir,Nunito,Arial,Helvetica,SansSerif" font-size="12.5" font-weight="bold" lengthAdjust="spacing" textLength="68.75" x="531.25" y="299.6419">TableFilter</text><line style="stroke:#5E5E5E;stroke-width:1.0416666666666667;" x1="501.0417" x2="605.2083" y1="310.612" y2="310.612"/><line style="stroke:#5E5E5E;stroke-width:1.0416666666666667;" x1="501.0417" x2="605.2083" y1="318.9453" y2="318.9453"/><rect codeLine="20" fill="#282828" height="174.8576" id="TableModel" rx="8.3333" ry="8.3333" style="stroke:#5E5E5E;stroke-width:1.0416666666666667;" width="243.75" x="7.2917" y="215.682"/><rect fill="#1B1B1A" height="31.3883" rx="8.3333" ry="8.3333" style="stroke:#1B1B1A;stroke-width:1.0416666666666667;" width="243.75" x="7.2917" y="215.682"/><rect fill="#1B1B1A" height="8.3333" style="stroke:#1B1B1A;stroke-width:1.0416666666666667;" width="243.75" x="7.2917" y="238.737"/><rect codeLine="20" fill="none" height="174.8576" id="TableModel" rx="8.3333" ry="8.3333" style="stroke:#5E5E5E;stroke-width:1.0416666666666667;" width="243.75" x="7.2917" y="215.682"/><ellipse cx="84.375" cy="231.3761" fill="#0066CF" rx="10.4167" ry="10.4167" style="stroke:#0086EF;stroke-width:1.0416666666666667;"/><path d="M86.2854,235.8012 Q85.8582,236.0209 85.3882,236.1308 Q84.9182,236.2406 84.3994,236.2406 Q82.5562,236.2406 81.5857,235.026 Q80.6152,233.8114 80.6152,231.5165 Q80.6152,229.2155 81.5857,228.0009 Q82.5562,226.7863 84.3994,226.7863 Q84.9182,226.7863 85.3943,226.8962 Q85.8704,227.006 86.2854,227.2257 L86.2854,229.2277 Q85.8215,228.8005 85.3851,228.6021 Q84.9487,228.4037 84.4849,228.4037 Q83.4961,228.4037 82.9926,229.188 Q82.489,229.9723 82.489,231.5165 Q82.489,233.0546 82.9926,233.8389 Q83.4961,234.6232 84.4849,234.6232 Q84.9487,234.6232 85.3851,234.4248 Q85.8215,234.2265 86.2854,233.7992 Z " fill="#000000"/><text fill="#D8BC00" font-family="Open Sans,Avenir,Nunito,Arial,Helvetica,SansSerif" font-size="12.5" font-weight="bold" lengthAdjust="spacing" textLength="75" x="107.2917" y="236.1003">TableModel</text><line style="stroke:#5E5E5E;stroke-width:1.5625;" x1="8.3333" x2="250" y1="247.0703" y2="247.0703"/><ellipse cx="18.75" cy="282.4402" fill="#84BE84" rx="3.125" ry="3.125" style="stroke:#038048;stroke-width:1.0416666666666667;"/><text fill="#D8BC00" font-family="Open Sans,Avenir,Nunito,Arial,Helvetica,SansSerif" font-size="11.4583" lengthAdjust="spacing" textLength="175" x="30.2083" y="289.3514">TableModel(ClientLogPanel, int)</text><line style="stroke:#5E5E5E;stroke-width:1.0416666666666667;" x1="8.3333" x2="85.4167" y1="265.2761" y2="265.2761"/><text fill="#D8BC00" font-family="Open Sans,Avenir,Nunito,Arial,Helvetica,SansSerif" font-size="11.4583" lengthAdjust="spacing" textLength="81.25" x="88.5417" y="269.0857">(constructors)</text><line style="stroke:#5E5E5E;stroke-width:1.0416666666666667;" x1="172.9167" x2="250" y1="265.2761" y2="265.2761"/><line style="stroke:#5E5E5E;stroke-width:1.0416666666666667;" x1="8.3333" x2="250" y1="299.0601" y2="299.0601"/><ellipse cx="18.75" cy="310.5184" fill="#84BE84" rx="3.125" ry="3.125" style="stroke:#038048;stroke-width:1.0416666666666667;"/><text fill="#D8BC00" font-family="Open Sans,Avenir,Nunito,Arial,Helvetica,SansSerif" font-size="11.4583" lengthAdjust="spacing" textLength="132.2917" x="30.2083" y="317.4296">LogEntry row(int which)</text><ellipse cx="18.75" cy="354.1748" fill="#84BE84" rx="3.125" ry="3.125" style="stroke:#038048;stroke-width:1.0416666666666667;"/><text fill="#D8BC00" font-family="Open Sans,Avenir,Nunito,Arial,Helvetica,SansSerif" font-size="11.4583" lengthAdjust="spacing" textLength="211.4583" x="30.2083" y="361.086">void addRows(List&lt;LogEntry&gt; toAdd)</text><ellipse cx="18.75" cy="373.9197" fill="#84BE84" rx="3.125" ry="3.125" style="stroke:#038048;stroke-width:1.0416666666666667;"/><text fill="#D8BC00" font-family="Open Sans,Avenir,Nunito,Arial,Helvetica,SansSerif" font-size="11.4583" lengthAdjust="spacing" textLength="62.5" x="30.2083" y="380.8309">void clear()</text><line style="stroke:#5E5E5E;stroke-width:1.0416666666666667;" x1="8.3333" x2="94.7917" y1="337.0107" y2="337.0107"/><text fill="#D8BC00" font-family="Open Sans,Avenir,Nunito,Arial,Helvetica,SansSerif" font-size="11.4583" lengthAdjust="spacing" textLength="62.5" x="97.9167" y="340.8203">(collection)</text><line style="stroke:#5E5E5E;stroke-width:1.0416666666666667;" x1="163.5417" x2="250" y1="337.0107" y2="337.0107"/><rect fill="#282828" height="48.055" id="KivaKitPanel" rx="8.3333" ry="8.3333" style="stroke:#5E5E5E;stroke-width:1.0416666666666667;" width="118.75" x="821.875" y="53.7028"/><rect fill="#1B1B1A" height="31.3883" rx="8.3333" ry="8.3333" style="stroke:#1B1B1A;stroke-width:1.0416666666666667;" width="118.75" x="821.875" y="53.7028"/><rect fill="#1B1B1A" height="8.3333" style="stroke:#1B1B1A;stroke-width:1.0416666666666667;" width="118.75" x="821.875" y="76.7578"/><rect fill="none" height="48.055" id="KivaKitPanel" rx="8.3333" ry="8.3333" style="stroke:#5E5E5E;stroke-width:1.0416666666666667;" width="118.75" x="821.875" y="53.7028"/><ellipse cx="836.4583" cy="69.397" fill="#0066CF" rx="10.4167" ry="10.4167" style="stroke:#0086EF;stroke-width:1.0416666666666667;"/><path d="M838.3687,73.822 Q837.9415,74.0417 837.4715,74.1516 Q837.0015,74.2615 836.4827,74.2615 Q834.6395,74.2615 833.669,73.0469 Q832.6986,71.8323 832.6986,69.5374 Q832.6986,67.2363 833.669,66.0217 Q834.6395,64.8071 836.4827,64.8071 Q837.0015,64.8071 837.4776,64.917 Q837.9537,65.0269 838.3687,65.2466 L838.3687,67.2485 Q837.9049,66.8213 837.4685,66.6229 Q837.0321,66.4246 836.5682,66.4246 Q835.5794,66.4246 835.0759,67.2089 Q834.5723,67.9932 834.5723,69.5374 Q834.5723,71.0754 835.0759,71.8597 Q835.5794,72.644 836.5682,72.644 Q837.0321,72.644 837.4685,72.4457 Q837.9049,72.2473 838.3687,71.8201 Z " fill="#000000"/><text fill="#D8BC00" font-family="Open Sans,Avenir,Nunito,Arial,Helvetica,SansSerif" font-size="12.5" font-weight="bold" lengthAdjust="spacing" textLength="81.25" x="853.125" y="74.1211">KivaKitPanel</text><line style="stroke:#5E5E5E;stroke-width:1.0416666666666667;" x1="822.9167" x2="939.5833" y1="85.0911" y2="85.0911"/><line style="stroke:#5E5E5E;stroke-width:1.0416666666666667;" x1="822.9167" x2="939.5833" y1="93.4245" y2="93.4245"/><rect codeLine="32" fill="#282828" height="277.7486" id="TablePanel" rx="8.3333" ry="8.3333" style="stroke:#5E5E5E;stroke-width:1.0416666666666667;" width="476.0417" x="643.2292" y="164.1195"/><rect fill="#1B1B1A" height="31.3883" rx="8.3333" ry="8.3333" style="stroke:#1B1B1A;stroke-width:1.0416666666666667;" width="476.0417" x="643.2292" y="164.1195"/><rect fill="#1B1B1A" height="8.3333" style="stroke:#1B1B1A;stroke-width:1.0416666666666667;" width="476.0417" x="643.2292" y="187.1745"/><rect codeLine="32" fill="none" height="277.7486" id="TablePanel" rx="8.3333" ry="8.3333" style="stroke:#5E5E5E;stroke-width:1.0416666666666667;" width="476.0417" x="643.2292" y="164.1195"/><ellipse cx="839.0625" cy="179.8136" fill="#0066CF" rx="10.4167" ry="10.4167" style="stroke:#0086EF;stroke-width:1.0416666666666667;"/><path d="M840.9729,184.2387 Q840.5457,184.4584 840.0757,184.5683 Q839.6057,184.6781 839.0869,184.6781 Q837.2437,184.6781 836.2732,183.4635 Q835.3027,182.2489 835.3027,179.954 Q835.3027,177.653 836.2732,176.4384 Q837.2437,175.2238 839.0869,175.2238 Q839.6057,175.2238 840.0818,175.3337 Q840.5579,175.4435 840.9729,175.6632 L840.9729,177.6652 Q840.509,177.238 840.0726,177.0396 Q839.6362,176.8412 839.1724,176.8412 Q838.1836,176.8412 837.6801,177.6255 Q837.1765,178.4098 837.1765,179.954 Q837.1765,181.4921 837.6801,182.2764 Q838.1836,183.0607 839.1724,183.0607 Q839.6362,183.0607 840.0726,182.8623 Q840.509,182.664 840.9729,182.2367 Z " fill="#000000"/><text fill="#D8BC00" font-family="Open Sans,Avenir,Nunito,Arial,Helvetica,SansSerif" font-size="12.5" font-weight="bold" lengthAdjust="spacing" textLength="69.7917" x="861.9792" y="184.5378">TablePanel</text><line style="stroke:#5E5E5E;stroke-width:1.5625;" x1="644.2708" x2="1118.2292" y1="195.5078" y2="195.5078"/><ellipse cx="654.6875" cy="230.8777" fill="#84BE84" rx="3.125" ry="3.125" style="stroke:#038048;stroke-width:1.0416666666666667;"/><text fill="#D8BC00" font-family="Open Sans,Avenir,Nunito,Arial,Helvetica,SansSerif" font-size="11.4583" lengthAdjust="spacing" textLength="150" x="666.1458" y="237.7889">TablePanel(ClientLogPanel)</text><line style="stroke:#5E5E5E;stroke-width:1.0416666666666667;" x1="644.2708" x2="837.5" y1="213.7136" y2="213.7136"/><text fill="#D8BC00" font-family="Open Sans,Avenir,Nunito,Arial,Helvetica,SansSerif" font-size="11.4583" lengthAdjust="spacing" textLength="81.25" x="840.625" y="217.5232">(constructors)</text><line style="stroke:#5E5E5E;stroke-width:1.0416666666666667;" x1="925" x2="1118.2292" y1="213.7136" y2="213.7136"/><line style="stroke:#5E5E5E;stroke-width:1.0416666666666667;" x1="644.2708" x2="1118.2292" y1="247.4976" y2="247.4976"/><ellipse cx="654.6875" cy="258.9559" fill="#84BE84" rx="3.125" ry="3.125" style="stroke:#038048;stroke-width:1.0416666666666667;"/><text fill="#D8BC00" font-family="Open Sans,Avenir,Nunito,Arial,Helvetica,SansSerif" font-size="11.4583" lengthAdjust="spacing" textLength="66.6667" x="666.1458" y="265.8671">void scroll()</text><ellipse cx="654.6875" cy="278.7008" fill="#84BE84" rx="3.125" ry="3.125" style="stroke:#038048;stroke-width:1.0416666666666667;"/><text fill="#D8BC00" font-family="Open Sans,Avenir,Nunito,Arial,Helvetica,SansSerif" font-size="11.4583" lengthAdjust="spacing" textLength="73.9583" x="666.1458" y="285.612">void update()</text><ellipse cx="654.6875" cy="322.3572" fill="#84BE84" rx="3.125" ry="3.125" style="stroke:#038048;stroke-width:1.0416666666666667;"/><text fill="#D8BC00" font-family="Open Sans,Avenir,Nunito,Arial,Helvetica,SansSerif" font-size="11.4583" lengthAdjust="spacing" textLength="106.25" x="666.1458" y="329.2684">void add(LogEntry)</text><ellipse cx="654.6875" cy="342.1021" fill="#84BE84" rx="3.125" ry="3.125" style="stroke:#038048;stroke-width:1.0416666666666667;"/><text fill="#D8BC00" font-family="Open Sans,Avenir,Nunito,Arial,Helvetica,SansSerif" font-size="11.4583" lengthAdjust="spacing" textLength="201.0417" x="666.1458" y="349.0133">void addAll(List&lt;LogEntry&gt; entries)</text><ellipse cx="654.6875" cy="361.8469" fill="#84BE84" rx="3.125" ry="3.125" style="stroke:#038048;stroke-width:1.0416666666666667;"/><text fill="#D8BC00" font-family="Open Sans,Avenir,Nunito,Arial,Helvetica,SansSerif" font-size="11.4583" lengthAdjust="spacing" textLength="62.5" x="666.1458" y="368.7581">void clear()</text><ellipse cx="654.6875" cy="381.5918" fill="#84BE84" rx="3.125" ry="3.125" style="stroke:#038048;stroke-width:1.0416666666666667;"/><text fill="#D8BC00" font-family="Open Sans,Avenir,Nunito,Arial,Helvetica,SansSerif" font-size="11.4583" lengthAdjust="spacing" textLength="72.9167" x="666.1458" y="388.503">Count rows()</text><line style="stroke:#5E5E5E;stroke-width:1.0416666666666667;" x1="644.2708" x2="846.875" y1="305.1931" y2="305.1931"/><text fill="#D8BC00" font-family="Open Sans,Avenir,Nunito,Arial,Helvetica,SansSerif" font-size="11.4583" lengthAdjust="spacing" textLength="62.5" x="850" y="309.0027">(collection)</text><line style="stroke:#5E5E5E;stroke-width:1.0416666666666667;" x1="915.625" x2="1118.2292" y1="305.1931" y2="305.1931"/><ellipse cx="654.6875" cy="425.2482" fill="#84BE84" rx="3.125" ry="3.125" style="stroke:#038048;stroke-width:1.0416666666666667;"/><text fill="#D8BC00" font-family="Open Sans,Avenir,Nunito,Arial,Helvetica,SansSerif" font-size="11.4583" lengthAdjust="spacing" textLength="443.75" x="666.1458" y="432.1594">void filter(String searchText, String thread, String context, String messageType)</text><line style="stroke:#5E5E5E;stroke-width:1.0416666666666667;" x1="644.2708" x2="852.0833" y1="408.0841" y2="408.0841"/><text fill="#D8BC00" font-family="Open Sans,Avenir,Nunito,Arial,Helvetica,SansSerif" font-size="11.4583" lengthAdjust="spacing" textLength="52.0833" x="855.2083" y="411.8937">(filtering)</text><line style="stroke:#5E5E5E;stroke-width:1.0416666666666667;" x1="910.4167" x2="1118.2292" y1="408.0841" y2="408.0841"/><path codeLine="9" d="M365.625,122.8278 C365.625,169.8486 365.625,242.4736 365.625,279.1924 " fill="none" id="DefaultTableCellRenderer-backto-TableCellRenderer" style="stroke:#545454;stroke-width:1.5625;"/><polygon fill="none" points="358.3333,122.609,365.625,101.7757,372.9167,122.609,358.3333,122.609" style="stroke:#545454;stroke-width:1.5625;"/><path codeLine="14" d="M553.125,122.8278 C553.125,169.8486 553.125,242.4736 553.125,279.1924 " fill="none" id="RowFilter-backto-TableFilter" style="stroke:#545454;stroke-width:1.5625;"/><polygon fill="none" points="545.8333,122.609,553.125,101.7757,560.4167,122.609,545.8333,122.609" style="stroke:#545454;stroke-width:1.5625;"/><path codeLine="19" d="M129.1667,123.0049 C129.1667,149.3486 129.1667,183.682 129.1667,215.234 " fill="none" id="AbstractTableModel-backto-TableModel" style="stroke:#545454;stroke-width:1.5625;"/><polygon fill="none" points="121.875,122.609,129.1667,101.7757,136.4583,122.609,121.875,122.609" style="stroke:#545454;stroke-width:1.5625;"/><path codeLine="31" d="M881.25,122.9007 C881.25,135.1507 881.25,149.1299 881.25,163.7549 " fill="none" id="KivaKitPanel-backto-TablePanel" style="stroke:#545454;stroke-width:1.5625;"/><polygon fill="none" points="873.9583,122.609,881.25,101.7757,888.5417,122.609,873.9583,122.609" style="stroke:#545454;stroke-width:1.5625;"/></g></svg>
