<?xml version="1.0" encoding="UTF-8" standalone="no"?><svg xmlns="http://www.w3.org/2000/svg" xmlns:xlink="http://www.w3.org/1999/xlink" contentScriptType="application/ecmascript" contentStyleType="text/css" height="426.0417px" preserveAspectRatio="none" style="width:666px;height:426px;background:#333333;" version="1.1" viewBox="0 0 666 426" width="666.6667px" zoomAndPan="magnify"><defs/><g><rect fill="#48494B" height="41.2028" rx="8.3333" ry="8.3333" style="stroke:#545454;stroke-width:1.0416666666666667;" width="238.5417" x="206.7708" y="2.0833"/><text fill="#C0C0C0" font-family="Open Sans,Avenir,Nunito,Arial,Helvetica,SansSerif" font-size="20.8333" lengthAdjust="spacing" textLength="215.625" x="218.2292" y="30.5583">kivakit-commandline</text><rect fill="#1B1B1A" height="44.93" rx="8.3333" ry="8.3333" style="stroke:#5E5E5E;stroke-width:1.5625;" width="138.5417" x="178.6458" y="268.2861"/><polygon fill="#1B1B1A" points="299.4792,273.4945,299.4792,288.0778,311.9792,288.0778,311.9792,279.7445,305.7292,273.4945,299.4792,273.4945" style="stroke:#5E5E5E;stroke-width:1.5625;"/><line style="stroke:#5E5E5E;stroke-width:1.5625;" x1="305.7292" x2="305.7292" y1="273.4945" y2="279.7445"/><line style="stroke:#5E5E5E;stroke-width:1.5625;" x1="311.9792" x2="305.7292" y1="279.7445" y2="279.7445"/><text fill="#D8BC00" font-family="Open Sans,Avenir,Nunito,Arial,Helvetica,SansSerif" font-size="12.5" lengthAdjust="spacing" textLength="101.0417" x="192.1875" y="297.0378">cactus_metadata</text><rect fill="#1B1B1A" height="44.93" rx="8.3333" ry="8.3333" style="stroke:#5E5E5E;stroke-width:1.5625;" width="143.75" x="7.2917" y="160.9945"/><polygon fill="#1B1B1A" points="133.3333,166.2028,133.3333,180.7861,145.8333,180.7861,145.8333,172.4528,139.5833,166.2028,133.3333,166.2028" style="stroke:#5E5E5E;stroke-width:1.5625;"/><line style="stroke:#5E5E5E;stroke-width:1.5625;" x1="139.5833" x2="139.5833" y1="166.2028" y2="172.4528"/><line style="stroke:#5E5E5E;stroke-width:1.5625;" x1="145.8333" x2="139.5833" y1="172.4528" y2="172.4528"/><text fill="#D8BC00" font-family="Open Sans,Avenir,Nunito,Arial,Helvetica,SansSerif" font-size="12.5" lengthAdjust="spacing" textLength="106.25" x="20.8333" y="189.7461">kivakit_collections</text><rect fill="#1B1B1A" height="44.93" rx="8.3333" ry="8.3333" style="stroke:#5E5E5E;stroke-width:1.5625;" width="162.5" x="260.4167" y="53.7028"/><polygon fill="#1B1B1A" points="405.2083,58.9111,405.2083,73.4945,417.7083,73.4945,417.7083,65.1611,411.4583,58.9111,405.2083,58.9111" style="stroke:#5E5E5E;stroke-width:1.5625;"/><line style="stroke:#5E5E5E;stroke-width:1.5625;" x1="411.4583" x2="411.4583" y1="58.9111" y2="65.1611"/><line style="stroke:#5E5E5E;stroke-width:1.5625;" x1="417.7083" x2="411.4583" y1="65.1611" y2="65.1611"/><text fill="#D8BC00" font-family="Open Sans,Avenir,Nunito,Arial,Helvetica,SansSerif" font-size="12.5" lengthAdjust="spacing" textLength="125" x="273.9583" y="82.4544">kivakit_commandline</text><rect fill="#1B1B1A" height="44.93" rx="8.3333" ry="8.3333" style="stroke:#5E5E5E;stroke-width:1.5625;" width="145.8333" x="187.5" y="160.9945"/><polygon fill="#1B1B1A" points="315.625,166.2028,315.625,180.7861,328.125,180.7861,328.125,172.4528,321.875,166.2028,315.625,166.2028" style="stroke:#5E5E5E;stroke-width:1.5625;"/><line style="stroke:#5E5E5E;stroke-width:1.5625;" x1="321.875" x2="321.875" y1="166.2028" y2="172.4528"/><line style="stroke:#5E5E5E;stroke-width:1.5625;" x1="328.125" x2="321.875" y1="172.4528" y2="172.4528"/><text fill="#D8BC00" font-family="Open Sans,Avenir,Nunito,Arial,Helvetica,SansSerif" font-size="12.5" lengthAdjust="spacing" textLength="108.3333" x="201.0417" y="189.7461">kivakit_conversion</text><rect fill="#1B1B1A" height="44.93" rx="8.3333" ry="8.3333" style="stroke:#5E5E5E;stroke-width:1.5625;" width="108.3333" x="369.7917" y="160.9945"/><polygon fill="#1B1B1A" points="460.4167,166.2028,460.4167,180.7861,472.9167,180.7861,472.9167,172.4528,466.6667,166.2028,460.4167,166.2028" style="stroke:#5E5E5E;stroke-width:1.5625;"/><line style="stroke:#5E5E5E;stroke-width:1.5625;" x1="466.6667" x2="466.6667" y1="166.2028" y2="172.4528"/><line style="stroke:#5E5E5E;stroke-width:1.5625;" x1="472.9167" x2="466.6667" y1="172.4528" y2="172.4528"/><text fill="#D8BC00" font-family="Open Sans,Avenir,Nunito,Arial,Helvetica,SansSerif" font-size="12.5" lengthAdjust="spacing" textLength="70.8333" x="383.3333" y="189.7461">kivakit_core</text><rect fill="#1B1B1A" height="44.93" rx="8.3333" ry="8.3333" style="stroke:#5E5E5E;stroke-width:1.5625;" width="140.625" x="353.6458" y="268.2861"/><polygon fill="#1B1B1A" points="476.5625,273.4945,476.5625,288.0778,489.0625,288.0778,489.0625,279.7445,482.8125,273.4945,476.5625,273.4945" style="stroke:#5E5E5E;stroke-width:1.5625;"/><line style="stroke:#5E5E5E;stroke-width:1.5625;" x1="482.8125" x2="482.8125" y1="273.4945" y2="279.7445"/><line style="stroke:#5E5E5E;stroke-width:1.5625;" x1="489.0625" x2="482.8125" y1="279.7445" y2="279.7445"/><text fill="#D8BC00" font-family="Open Sans,Avenir,Nunito,Arial,Helvetica,SansSerif" font-size="12.5" lengthAdjust="spacing" textLength="103.125" x="367.1875" y="297.0378">kivakit_interfaces</text><rect fill="#1B1B1A" height="44.93" rx="8.3333" ry="8.3333" style="stroke:#5E5E5E;stroke-width:1.5625;" width="120.8333" x="531.25" y="268.2861"/><polygon fill="#1B1B1A" points="634.375,273.4945,634.375,288.0778,646.875,288.0778,646.875,279.7445,640.625,273.4945,634.375,273.4945" style="stroke:#5E5E5E;stroke-width:1.5625;"/><line style="stroke:#5E5E5E;stroke-width:1.5625;" x1="640.625" x2="640.625" y1="273.4945" y2="279.7445"/><line style="stroke:#5E5E5E;stroke-width:1.5625;" x1="646.875" x2="640.625" y1="279.7445" y2="279.7445"/><text fill="#D8BC00" font-family="Open Sans,Avenir,Nunito,Arial,Helvetica,SansSerif" font-size="12.5" lengthAdjust="spacing" textLength="83.3333" x="544.7917" y="297.0378">kivakit_mixins</text><rect fill="#1B1B1A" height="44.93" rx="8.3333" ry="8.3333" style="stroke:#5E5E5E;stroke-width:1.5625;" width="139.5833" x="514.5833" y="160.9945"/><polygon fill="#1B1B1A" points="636.4583,166.2028,636.4583,180.7861,648.9583,180.7861,648.9583,172.4528,642.7083,166.2028,636.4583,166.2028" style="stroke:#5E5E5E;stroke-width:1.5625;"/><line style="stroke:#5E5E5E;stroke-width:1.5625;" x1="642.7083" x2="642.7083" y1="166.2028" y2="172.4528"/><line style="stroke:#5E5E5E;stroke-width:1.5625;" x1="648.9583" x2="642.7083" y1="172.4528" y2="172.4528"/><text fill="#D8BC00" font-family="Open Sans,Avenir,Nunito,Arial,Helvetica,SansSerif" font-size="12.5" lengthAdjust="spacing" textLength="102.0833" x="528.125" y="189.7461">kivakit_validation</text><rect fill="#1B1B1A" height="44.93" rx="8.3333" ry="8.3333" style="stroke:#5E5E5E;stroke-width:1.5625;" width="155.2083" x="263.0208" y="375.5778"/><polygon fill="#1B1B1A" points="400.5208,380.7861,400.5208,395.3695,413.0208,395.3695,413.0208,387.0361,406.7708,380.7861,400.5208,380.7861" style="stroke:#5E5E5E;stroke-width:1.5625;"/><line style="stroke:#5E5E5E;stroke-width:1.5625;" x1="406.7708" x2="406.7708" y1="380.7861" y2="387.0361"/><line style="stroke:#5E5E5E;stroke-width:1.5625;" x1="413.0208" x2="406.7708" y1="387.0361" y2="387.0361"/><text fill="#D8BC00" font-family="Open Sans,Avenir,Nunito,Arial,Helvetica,SansSerif" font-size="12.5" lengthAdjust="spacing" textLength="117.7083" x="276.5625" y="404.3294">lexakai_annotations</text><rect fill="#1B1B1A" height="44.93" rx="8.3333" ry="8.3333" style="stroke:#5E5E5E;stroke-width:1.5625;" width="106.25" x="455.2083" y="375.5778"/><polygon fill="#1B1B1A" points="543.75,380.7861,543.75,395.3695,556.25,395.3695,556.25,387.0361,550,380.7861,543.75,380.7861" style="stroke:#5E5E5E;stroke-width:1.5625;"/><line style="stroke:#5E5E5E;stroke-width:1.5625;" x1="550" x2="550" y1="380.7861" y2="387.0361"/><line style="stroke:#5E5E5E;stroke-width:1.5625;" x1="556.25" x2="550" y1="387.0361" y2="387.0361"/><text fill="#D8BC00" font-family="Open Sans,Avenir,Nunito,Arial,Helvetica,SansSerif" font-size="12.5" lengthAdjust="spacing" textLength="68.75" x="468.75" y="404.3294">annotations</text><path d="M288.2292,98.557 C244.4063,116.1195 182.4688,140.9424 137.3854,159.0153 " fill="none" id="kivakit_commandline-to-kivakit_collections" style="stroke:#545454;stroke-width:1.5625;"/><polygon fill="#545454" points="132.5313,160.9632,142.7832,161.3501,137.3671,159.0289,139.6883,153.6128,132.5313,160.9632" style="stroke:#545454;stroke-width:1.5625;"/><path d="M324.8333,98.9424 C311.8958,115.6924 293.9792,138.8903 280.3229,156.5674 " fill="none" id="kivakit_commandline-to-kivakit_conversion" style="stroke:#545454;stroke-width:1.5625;"/><polygon fill="#545454" points="276.9479,160.9424,285.9768,156.0709,280.1321,156.8208,279.3822,150.9761,276.9479,160.9424" style="stroke:#545454;stroke-width:1.5625;"/><path d="M358.7188,98.9424 C371.8229,115.6924 389.9688,138.8903 403.7917,156.5674 " fill="none" id="kivakit_commandline-to-kivakit_core" style="stroke:#545454;stroke-width:1.5625;"/><polygon fill="#545454" points="407.2083,160.9424,404.7341,150.986,404.0076,156.8336,398.16,156.1071,407.2083,160.9424" style="stroke:#545454;stroke-width:1.5625;"/><path d="M391.0729,98.557 C431.4271,116.0465 488.3958,140.7445 530.0417,158.7965 " fill="none" id="kivakit_commandline-to-kivakit_validation" style="stroke:#545454;stroke-width:1.5625;"/><polygon fill="#545454" points="535.0313,160.9632,528.0753,153.4222,530.2494,158.899,524.7726,161.0731,535.0313,160.9632" style="stroke:#545454;stroke-width:1.5625;"/><path d="M387.9063,205.9736 C359.0729,223.2132 318.6458,247.3695 288.6354,265.307 " fill="none" id="kivakit_core-to-cactus_metadata" style="stroke:#545454;stroke-width:1.5625;"/><polygon fill="#545454" points="283.9167,268.1299,294.1024,266.9044,288.3893,265.4612,289.8325,259.7481,283.9167,268.1299" style="stroke:#545454;stroke-width:1.5625;"/><path d="M423.9583,206.234 C423.9583,222.7028 423.9583,245.4007 423.9583,262.9528 " fill="none" id="kivakit_core-to-kivakit_interfaces" style="stroke:#545454;stroke-width:1.5625;"/><polygon fill="#545454" points="423.9583,268.234,428.125,258.859,423.9583,263.0257,419.7917,258.859,423.9583,268.234" style="stroke:#545454;stroke-width:1.5625;"/><path d="M458.3021,205.9736 C485.7708,223.2132 524.2917,247.3695 552.875,265.307 " fill="none" id="kivakit_core-to-kivakit_mixins" style="stroke:#545454;stroke-width:1.5625;"/><polygon fill="#545454" points="557.3646,268.1299,551.6436,259.6139,552.9546,265.3588,547.2098,266.6698,557.3646,268.1299" style="stroke:#545454;stroke-width:1.5625;"/><path d="M441.4375,313.5257 C454.875,330.2757 473.4792,353.4736 487.6563,371.1507 " fill="none" id="kivakit_interfaces-to-annotations" style="stroke:#545454;stroke-width:1.5625;"/><polygon fill="#545454" points="491.1667,375.5257,488.5505,365.6057,487.9076,371.4631,482.0502,370.8202,491.1667,375.5257" style="stroke:#545454;stroke-width:1.5625;"/><path d="M406.6875,313.5257 C393.4167,330.2757 375.0417,353.4736 361.0417,371.1507 " fill="none" id="kivakit_interfaces-to-lexakai_annotations" style="stroke:#545454;stroke-width:1.5625;"/><polygon fill="#545454" points="357.5833,375.5257,366.6617,370.7472,360.8097,371.437,360.1198,365.585,357.5833,375.5257" style="stroke:#545454;stroke-width:1.5625;"/></g></svg>
