<?xml version="1.0" encoding="UTF-8" standalone="no"?><svg xmlns="http://www.w3.org/2000/svg" xmlns:xlink="http://www.w3.org/1999/xlink" contentScriptType="application/ecmascript" contentStyleType="text/css" height="543.75px" preserveAspectRatio="none" style="width:693px;height:543px;background:#333333;" version="1.1" viewBox="0 0 693 543" width="693.75px" zoomAndPan="magnify"><defs/><g><rect fill="#48494B" height="41.2028" rx="8.3333" ry="8.3333" style="stroke:#545454;stroke-width:1.0416666666666667;" width="138.5417" x="270.5729" y="2.0833"/><text fill="#C0C0C0" font-family="Open Sans,Avenir,Nunito,Arial,Helvetica,SansSerif" font-size="20.8333" lengthAdjust="spacing" textLength="115.625" x="282.0313" y="30.5583">HDFS Proxy</text><!--MD5=[784d533083758286c885e86b9fe3090e]
class BaseComponent--><rect codeLine="6" fill="#282828" height="48.055" id="BaseComponent" rx="8.3333" ry="8.3333" style="stroke:#5E5E5E;stroke-width:1.0416666666666667;" width="143.75" x="26.5625" y="196.932"/><rect fill="#1B1B1A" height="31.3883" rx="8.3333" ry="8.3333" style="stroke:#1B1B1A;stroke-width:1.0416666666666667;" width="143.75" x="26.5625" y="196.932"/><rect fill="#1B1B1A" height="8.3333" style="stroke:#1B1B1A;stroke-width:1.0416666666666667;" width="143.75" x="26.5625" y="219.987"/><rect codeLine="6" fill="none" height="48.055" id="BaseComponent" rx="8.3333" ry="8.3333" style="stroke:#5E5E5E;stroke-width:1.0416666666666667;" width="143.75" x="26.5625" y="196.932"/><ellipse cx="41.1458" cy="212.6261" fill="#C8AC00" rx="10.4167" ry="10.4167" style="stroke:#D8BC00;stroke-width:1.0416666666666667;"/><path d="M40.7389,209.3282 L39.8905,213.0575 L41.5934,213.0575 Z M39.6403,207.6803 L41.8437,207.6803 L44.3034,216.7928 L42.5028,216.7928 L41.9413,214.5406 L39.5304,214.5406 L38.9811,216.7928 L37.1806,216.7928 Z " fill="#000000"/><text fill="#D8BC00" font-family="Open Sans,Avenir,Nunito,Arial,Helvetica,SansSerif" font-size="12.5" font-style="italic" font-weight="bold" lengthAdjust="spacing" textLength="106.25" x="57.8125" y="217.3503">BaseComponent</text><line style="stroke:#5E5E5E;stroke-width:1.0416666666666667;" x1="27.6042" x2="169.2708" y1="228.3203" y2="228.3203"/><line style="stroke:#5E5E5E;stroke-width:1.0416666666666667;" x1="27.6042" x2="169.2708" y1="236.6536" y2="236.6536"/><!--MD5=[a43d4aecfac195d0414aef90f85113f2]
class HdfsProxy--><rect codeLine="8" fill="#282828" height="48.055" id="HdfsProxy" rx="8.3333" ry="8.3333" style="stroke:#5E5E5E;stroke-width:1.0416666666666667;" width="103.125" x="266.6667" y="53.7028"/><rect fill="#1B1B1A" height="31.3883" rx="8.3333" ry="8.3333" style="stroke:#1B1B1A;stroke-width:1.0416666666666667;" width="103.125" x="266.6667" y="53.7028"/><rect fill="#1B1B1A" height="8.3333" style="stroke:#1B1B1A;stroke-width:1.0416666666666667;" width="103.125" x="266.6667" y="76.7578"/><rect codeLine="8" fill="none" height="48.055" id="HdfsProxy" rx="8.3333" ry="8.3333" style="stroke:#5E5E5E;stroke-width:1.0416666666666667;" width="103.125" x="266.6667" y="53.7028"/><ellipse cx="281.25" cy="69.397" fill="#008400" rx="10.4167" ry="10.4167" style="stroke:#239C23;stroke-width:1.0416666666666667;"/><path d="M278.654,66.5588 L278.654,64.9719 L284.08,64.9719 L284.08,66.5588 L282.2673,66.5588 L282.2673,72.4976 L284.08,72.4976 L284.08,74.0845 L278.654,74.0845 L278.654,72.4976 L280.4667,72.4976 L280.4667,66.5588 Z " fill="#000000"/><text fill="#D8BC00" font-family="Open Sans,Avenir,Nunito,Arial,Helvetica,SansSerif" font-size="12.5" font-style="italic" font-weight="bold" lengthAdjust="spacing" textLength="65.625" x="297.9167" y="74.1211">HdfsProxy</text><line style="stroke:#5E5E5E;stroke-width:1.0416666666666667;" x1="267.7083" x2="368.75" y1="85.0911" y2="85.0911"/><line style="stroke:#5E5E5E;stroke-width:1.0416666666666667;" x1="267.7083" x2="368.75" y1="93.4245" y2="93.4245"/><!--MD5=[52cb8f0a2ed1a6531bd2eebe2b5c5a5f]
class HdfsFileSystem--><rect codeLine="11" fill="#282828" height="83.3781" id="HdfsFileSystem" rx="8.3333" ry="8.3333" style="stroke:#5E5E5E;stroke-width:1.0416666666666667;" width="182.2917" x="7.2917" y="407.8695"/><rect fill="#1B1B1A" height="31.3883" rx="8.3333" ry="8.3333" style="stroke:#1B1B1A;stroke-width:1.0416666666666667;" width="182.2917" x="7.2917" y="407.8695"/><rect fill="#1B1B1A" height="8.3333" style="stroke:#1B1B1A;stroke-width:1.0416666666666667;" width="182.2917" x="7.2917" y="430.9245"/><rect codeLine="11" fill="none" height="83.3781" id="HdfsFileSystem" rx="8.3333" ry="8.3333" style="stroke:#5E5E5E;stroke-width:1.0416666666666667;" width="182.2917" x="7.2917" y="407.8695"/><ellipse cx="42.0313" cy="423.5636" fill="#0066CF" rx="10.4167" ry="10.4167" style="stroke:#0086EF;stroke-width:1.0416666666666667;"/><path d="M43.9417,427.9887 Q43.5144,428.2084 43.0444,428.3183 Q42.5745,428.4281 42.0557,428.4281 Q40.2124,428.4281 39.2419,427.2135 Q38.2715,425.9989 38.2715,423.704 Q38.2715,421.403 39.2419,420.1884 Q40.2124,418.9738 42.0557,418.9738 Q42.5745,418.9738 43.0505,419.0837 Q43.5266,419.1935 43.9417,419.4132 L43.9417,421.4152 Q43.4778,420.988 43.0414,420.7896 Q42.605,420.5912 42.1411,420.5912 Q41.1523,420.5912 40.6488,421.3755 Q40.1453,422.1598 40.1453,423.704 Q40.1453,425.2421 40.6488,426.0264 Q41.1523,426.8107 42.1411,426.8107 Q42.605,426.8107 43.0414,426.6123 Q43.4778,426.414 43.9417,425.9867 Z " fill="#000000"/><text fill="#D8BC00" font-family="Open Sans,Avenir,Nunito,Arial,Helvetica,SansSerif" font-size="12.5" font-weight="bold" lengthAdjust="spacing" textLength="100" x="63.1771" y="428.2878">HdfsFileSystem</text><line style="stroke:#5E5E5E;stroke-width:1.5625;" x1="8.3333" x2="188.5417" y1="439.2578" y2="439.2578"/><ellipse cx="18.75" cy="474.6277" fill="#84BE84" rx="3.125" ry="3.125" style="stroke:#038048;stroke-width:1.0416666666666667;"/><text fill="#D8BC00" font-family="Open Sans,Avenir,Nunito,Arial,Helvetica,SansSerif" font-size="11.4583" lengthAdjust="spacing" textLength="150" x="30.2083" y="481.5389">HdfsFileSystem of(FilePath)</text><line style="stroke:#5E5E5E;stroke-width:1.0416666666666667;" x1="8.3333" x2="63.0208" y1="457.4636" y2="457.4636"/><text fill="#D8BC00" font-family="Open Sans,Avenir,Nunito,Arial,Helvetica,SansSerif" font-size="11.4583" lengthAdjust="spacing" textLength="64.5833" x="66.1458" y="461.2732">(filesystem)</text><line style="stroke:#5E5E5E;stroke-width:1.0416666666666667;" x1="133.8542" x2="188.5417" y1="457.4636" y2="457.4636"/><!--MD5=[c60af77fe5573b84a4aa4bce89659574]
class Server--><rect fill="#282828" height="48.055" id="Server" rx="8.3333" ry="8.3333" style="stroke:#5E5E5E;stroke-width:1.0416666666666667;" width="77.0833" x="406.7708" y="53.7028"/><rect fill="#1B1B1A" height="31.3883" rx="8.3333" ry="8.3333" style="stroke:#1B1B1A;stroke-width:1.0416666666666667;" width="77.0833" x="406.7708" y="53.7028"/><rect fill="#1B1B1A" height="8.3333" style="stroke:#1B1B1A;stroke-width:1.0416666666666667;" width="77.0833" x="406.7708" y="76.7578"/><rect fill="none" height="48.055" id="Server" rx="8.3333" ry="8.3333" style="stroke:#5E5E5E;stroke-width:1.0416666666666667;" width="77.0833" x="406.7708" y="53.7028"/><ellipse cx="421.3542" cy="69.397" fill="#0066CF" rx="10.4167" ry="10.4167" style="stroke:#0086EF;stroke-width:1.0416666666666667;"/><path d="M423.2646,73.822 Q422.8373,74.0417 422.3674,74.1516 Q421.8974,74.2615 421.3786,74.2615 Q419.5353,74.2615 418.5649,73.0469 Q417.5944,71.8323 417.5944,69.5374 Q417.5944,67.2363 418.5649,66.0217 Q419.5353,64.8071 421.3786,64.8071 Q421.8974,64.8071 422.3735,64.917 Q422.8495,65.0269 423.2646,65.2466 L423.2646,67.2485 Q422.8007,66.8213 422.3643,66.6229 Q421.9279,66.4246 421.464,66.4246 Q420.4753,66.4246 419.9717,67.2089 Q419.4682,67.9932 419.4682,69.5374 Q419.4682,71.0754 419.9717,71.8597 Q420.4753,72.644 421.464,72.644 Q421.9279,72.644 422.3643,72.4457 Q422.8007,72.2473 423.2646,71.8201 Z " fill="#000000"/><text fill="#D8BC00" font-family="Open Sans,Avenir,Nunito,Arial,Helvetica,SansSerif" font-size="12.5" font-weight="bold" lengthAdjust="spacing" textLength="39.5833" x="438.0208" y="74.1211">Server</text><line style="stroke:#5E5E5E;stroke-width:1.0416666666666667;" x1="407.8125" x2="482.8125" y1="85.0911" y2="85.0911"/><line style="stroke:#5E5E5E;stroke-width:1.0416666666666667;" x1="407.8125" x2="482.8125" y1="93.4245" y2="93.4245"/><!--MD5=[47e5d63b961104da57488cb09a3695b3]
class HdfsProxyServer--><rect codeLine="21" fill="#282828" height="111.4563" id="HdfsProxyServer" rx="8.3333" ry="8.3333" style="stroke:#5E5E5E;stroke-width:1.0416666666666667;" width="200" x="281.7708" y="165.1611"/><rect fill="#1B1B1A" height="31.3883" rx="8.3333" ry="8.3333" style="stroke:#1B1B1A;stroke-width:1.0416666666666667;" width="200" x="281.7708" y="165.1611"/><rect fill="#1B1B1A" height="8.3333" style="stroke:#1B1B1A;stroke-width:1.0416666666666667;" width="200" x="281.7708" y="188.2161"/><rect codeLine="21" fill="none" height="111.4563" id="HdfsProxyServer" rx="8.3333" ry="8.3333" style="stroke:#5E5E5E;stroke-width:1.0416666666666667;" width="200" x="281.7708" y="165.1611"/><ellipse cx="322.1354" cy="180.8553" fill="#0066CF" rx="10.4167" ry="10.4167" style="stroke:#0086EF;stroke-width:1.0416666666666667;"/><path d="M324.0458,185.2804 Q323.6186,185.5001 323.1486,185.6099 Q322.6786,185.7198 322.1598,185.7198 Q320.3166,185.7198 319.3461,184.5052 Q318.3757,183.2906 318.3757,180.9957 Q318.3757,178.6947 319.3461,177.4801 Q320.3166,176.2655 322.1598,176.2655 Q322.6786,176.2655 323.1547,176.3753 Q323.6308,176.4852 324.0458,176.7049 L324.0458,178.7069 Q323.5819,178.2796 323.1455,178.0813 Q322.7091,177.8829 322.2453,177.8829 Q321.2565,177.8829 320.753,178.6672 Q320.2494,179.4515 320.2494,180.9957 Q320.2494,182.5338 320.753,183.3181 Q321.2565,184.1024 322.2453,184.1024 Q322.7091,184.1024 323.1455,183.904 Q323.5819,183.7056 324.0458,183.2784 Z " fill="#000000"/><text fill="#D8BC00" font-family="Open Sans,Avenir,Nunito,Arial,Helvetica,SansSerif" font-size="12.5" font-weight="bold" lengthAdjust="spacing" textLength="105.2083" x="344.5313" y="185.5794">HdfsProxyServer</text><line style="stroke:#5E5E5E;stroke-width:1.5625;" x1="282.8125" x2="480.7292" y1="196.5495" y2="196.5495"/><ellipse cx="293.2292" cy="231.9194" fill="#84BE84" rx="3.125" ry="3.125" style="stroke:#038048;stroke-width:1.0416666666666667;"/><text fill="#D8BC00" font-family="Open Sans,Avenir,Nunito,Arial,Helvetica,SansSerif" font-size="11.4583" lengthAdjust="spacing" textLength="102.0833" x="304.6875" y="238.8306">HdfsProxyServer()</text><line style="stroke:#5E5E5E;stroke-width:1.0416666666666667;" x1="282.8125" x2="338.0208" y1="214.7552" y2="214.7552"/><text fill="#D8BC00" font-family="Open Sans,Avenir,Nunito,Arial,Helvetica,SansSerif" font-size="11.4583" lengthAdjust="spacing" textLength="81.25" x="341.1458" y="218.5649">(constructors)</text><line style="stroke:#5E5E5E;stroke-width:1.0416666666666667;" x1="425.5208" x2="480.7292" y1="214.7552" y2="214.7552"/><line style="stroke:#5E5E5E;stroke-width:1.0416666666666667;" x1="282.8125" x2="480.7292" y1="248.5392" y2="248.5392"/><ellipse cx="293.2292" cy="259.9976" fill="#84BE84" rx="3.125" ry="3.125" style="stroke:#038048;stroke-width:1.0416666666666667;"/><text fill="#D8BC00" font-family="Open Sans,Avenir,Nunito,Arial,Helvetica,SansSerif" font-size="11.4583" lengthAdjust="spacing" textLength="167.7083" x="304.6875" y="266.9088">void main(String[] arguments)</text><!--MD5=[06ff0d2d645b9b9a0439b67c381a347a]
class HdfsProxyServerSettings--><rect codeLine="29" fill="#282828" height="174.8576" id="HdfsProxyServerSettings" rx="8.3333" ry="8.3333" style="stroke:#5E5E5E;stroke-width:1.0416666666666667;" width="460.4167" x="226.5625" y="362.0361"/><rect fill="#1B1B1A" height="31.3883" rx="8.3333" ry="8.3333" style="stroke:#1B1B1A;stroke-width:1.0416666666666667;" width="460.4167" x="226.5625" y="362.0361"/><rect fill="#1B1B1A" height="8.3333" style="stroke:#1B1B1A;stroke-width:1.0416666666666667;" width="460.4167" x="226.5625" y="385.0911"/><rect codeLine="29" fill="none" height="174.8576" id="HdfsProxyServerSettings" rx="8.3333" ry="8.3333" style="stroke:#5E5E5E;stroke-width:1.0416666666666667;" width="460.4167" x="226.5625" y="362.0361"/><ellipse cx="370.3125" cy="377.7303" fill="#0066CF" rx="10.4167" ry="10.4167" style="stroke:#0086EF;stroke-width:1.0416666666666667;"/><path d="M372.2229,382.1554 Q371.7957,382.3751 371.3257,382.4849 Q370.8557,382.5948 370.3369,382.5948 Q368.4937,382.5948 367.5232,381.3802 Q366.5527,380.1656 366.5527,377.8707 Q366.5527,375.5697 367.5232,374.3551 Q368.4937,373.1405 370.3369,373.1405 Q370.8557,373.1405 371.3318,373.2503 Q371.8079,373.3602 372.2229,373.5799 L372.2229,375.5819 Q371.759,375.1546 371.3226,374.9563 Q370.8862,374.7579 370.4224,374.7579 Q369.4336,374.7579 368.9301,375.5422 Q368.4265,376.3265 368.4265,377.8707 Q368.4265,379.4088 368.9301,380.1931 Q369.4336,380.9774 370.4224,380.9774 Q370.8862,380.9774 371.3226,380.779 Q371.759,380.5806 372.2229,380.1534 Z " fill="#000000"/><text fill="#D8BC00" font-family="Open Sans,Avenir,Nunito,Arial,Helvetica,SansSerif" font-size="12.5" font-weight="bold" lengthAdjust="spacing" textLength="158.3333" x="393.2292" y="382.4544">HdfsProxyServerSettings</text><line style="stroke:#5E5E5E;stroke-width:1.5625;" x1="227.6042" x2="685.9375" y1="393.4245" y2="393.4245"/><line style="stroke:#5E5E5E;stroke-width:1.0416666666666667;" x1="227.6042" x2="685.9375" y1="401.7578" y2="401.7578"/><ellipse cx="238.0208" cy="413.2161" fill="#84BE84" rx="3.125" ry="3.125" style="stroke:#038048;stroke-width:1.0416666666666667;"/><text fill="#D8BC00" font-family="Open Sans,Avenir,Nunito,Arial,Helvetica,SansSerif" font-size="11.4583" lengthAdjust="spacing" textLength="302.0833" x="249.4792" y="420.1274">HdfsProxyServerSettings user(UserGroupInformation)</text><ellipse cx="238.0208" cy="456.8726" fill="#84BE84" rx="3.125" ry="3.125" style="stroke:#038048;stroke-width:1.0416666666666667;"/><text fill="#D8BC00" font-family="Open Sans,Avenir,Nunito,Arial,Helvetica,SansSerif" font-size="11.4583" lengthAdjust="spacing" textLength="210.4167" x="249.4792" y="463.7838">ResourceFolder configurationFolder()</text><ellipse cx="238.0208" cy="476.6174" fill="#84BE84" rx="3.125" ry="3.125" style="stroke:#038048;stroke-width:1.0416666666666667;"/><text fill="#D8BC00" font-family="Open Sans,Avenir,Nunito,Arial,Helvetica,SansSerif" font-size="11.4583" lengthAdjust="spacing" textLength="428.125" x="249.4792" y="483.5286">HdfsProxyServerSettings configurationFolder(ResourceFolder configuration)</text><line style="stroke:#5E5E5E;stroke-width:1.0416666666666667;" x1="227.6042" x2="421.3542" y1="439.7085" y2="439.7085"/><text fill="#D8BC00" font-family="Open Sans,Avenir,Nunito,Arial,Helvetica,SansSerif" font-size="11.4583" lengthAdjust="spacing" textLength="64.5833" x="424.4792" y="443.5181">(filesystem)</text><line style="stroke:#5E5E5E;stroke-width:1.0416666666666667;" x1="492.1875" x2="685.9375" y1="439.7085" y2="439.7085"/><ellipse cx="238.0208" cy="520.2738" fill="#84BE84" rx="3.125" ry="3.125" style="stroke:#038048;stroke-width:1.0416666666666667;"/><text fill="#D8BC00" font-family="Open Sans,Avenir,Nunito,Arial,Helvetica,SansSerif" font-size="11.4583" lengthAdjust="spacing" textLength="163.5417" x="249.4792" y="527.1851">UserGroupInformation user()</text><line style="stroke:#5E5E5E;stroke-width:1.0416666666666667;" x1="227.6042" x2="419.2708" y1="503.1097" y2="503.1097"/><text fill="#D8BC00" font-family="Open Sans,Avenir,Nunito,Arial,Helvetica,SansSerif" font-size="11.4583" lengthAdjust="spacing" textLength="68.75" x="422.3958" y="506.9194">(messaging)</text><line style="stroke:#5E5E5E;stroke-width:1.0416666666666667;" x1="494.2708" x2="685.9375" y1="503.1097" y2="503.1097"/><!--MD5=[0e8a40cd65eae97eb85d0e7f6baabad0]
reverse link BaseComponent to HdfsFileSystem--><path codeLine="10" d="M98.4375,265.932 C98.4375,306.9215 98.4375,367.5465 98.4375,407.5361 " fill="none" id="BaseComponent-backto-HdfsFileSystem" style="stroke:#545454;stroke-width:1.5625;"/><polygon fill="none" points="91.1458,265.734,98.4375,244.9007,105.7292,265.734,91.1458,265.734" style="stroke:#545454;stroke-width:1.5625;"/><!--MD5=[a1e1489de3059097d4e7637bf17c6bba]
reverse link Server to HdfsProxyServer--><path codeLine="17" d="M426.2917,120.9528 C420.0833,134.7445 413.0938,150.2757 406.5208,164.859 " fill="none" id="Server-backto-HdfsProxyServer" style="stroke:#545454;stroke-width:1.5625;"/><polygon fill="none" points="419.7604,117.7028,434.9583,101.6924,433.0625,123.682,419.7604,117.7028" style="stroke:#545454;stroke-width:1.5625;"/><!--MD5=[48ee1b74befca095646a062d8a5c04e0]
reverse link HdfsProxy to HdfsProxyServer--><path codeLine="18" d="M337.25,120.9528 C343.4583,134.7445 350.4479,150.2757 357.0208,164.859 " fill="none" id="HdfsProxy-backto-HdfsProxyServer" style="stroke:#545454;stroke-width:1.5625;"/><polygon fill="none" points="330.4792,123.682,328.5833,101.6924,343.7813,117.7028,330.4792,123.682" style="stroke:#545454;stroke-width:1.5625;"/><!--MD5=[b75e2e426678d196a43527de4bfdac5a]
link HdfsProxyServer to HdfsFileSystem--><path codeLine="19" d="M313.1875,276.7757 C264.2188,315.932 199.2188,367.9111 153.5938,404.3903 " fill="none" id="HdfsProxyServer-to-HdfsFileSystem" style="stroke:#545454;stroke-width:1.5625;"/><polygon fill="#545454" points="149.5208,407.6507,159.4409,405.0345,153.5835,404.3917,154.2264,398.5343,149.5208,407.6507" style="stroke:#545454;stroke-width:1.5625;"/><text fill="#A0A0A0" font-family="Open Sans,Avenir,Nunito,Arial,Helvetica,SansSerif" font-size="12.5" font-weight="bold" lengthAdjust="spacing" textLength="80.2083" x="278.6458" y="324.1211">delegates to</text><!--MD5=[fa971f00ddf8210f1ff0f8137cb2404c]
link HdfsProxyServer to HdfsProxyServerSettings--><path codeLine="20" d="M399.9271,276.7757 C407.8854,300.8174 417.4479,329.6924 426.4375,356.8486 " fill="none" id="HdfsProxyServer-to-HdfsProxyServerSettings" style="stroke:#545454;stroke-width:1.5625;"/><polygon fill="#545454" points="428.1042,361.9007,429.1108,351.691,426.4661,356.9567,421.2004,354.3119,428.1042,361.9007" style="stroke:#545454;stroke-width:1.5625;"/><text fill="#A0A0A0" font-family="Open Sans,Avenir,Nunito,Arial,Helvetica,SansSerif" font-size="12.5" font-weight="bold" lengthAdjust="spacing" textLength="101.0417" x="420.3125" y="324.1211">configures with</text><!--MD5=[285ff3fa60cbdd1a3791cafa2396410b]
@startuml

    !include lexakai.theme
    
    title "HDFS Proxy"
    
    abstract BaseComponent
    
    interface HdfsProxy
    
    BaseComponent <|- - HdfsFileSystem
    class HdfsFileSystem
    {
        - -(filesystem)- -
        +HdfsFileSystem of(FilePath)
    }
    
    Server <|- - HdfsProxyServer
    HdfsProxy <|- - HdfsProxyServer
    HdfsProxyServer - -> HdfsFileSystem : "delegates to"
    HdfsProxyServer - -> HdfsProxyServerSettings : "configures with"
    class HdfsProxyServer
    {
        - -(constructors)- -
        +HdfsProxyServer()
        - -
        +void main(String[] arguments)
    }
    
    class HdfsProxyServerSettings
    {
        - -
        +HdfsProxyServerSettings user(UserGroupInformation)
        - -(filesystem)- -
        +ResourceFolder configurationFolder()
        +HdfsProxyServerSettings configurationFolder(ResourceFolder configuration)
        - -(messaging)- -
        +UserGroupInformation user()
    }
    
@enduml

@startuml









skinparam backgroundColor #333333






skinparam  {
    defaultFontName   "Open Sans,Avenir,Nunito,Arial,Helvetica,SansSerif"
    defaultFontSize   12
    defaultTextAlignment left
    shadowing false
    RoundCorner 10
    TitleFontSize 18
}

skinparam defaultFontName       "Open Sans,Avenir,Nunito,Arial,Helvetica,SansSerif"
skinparam defaultFontSize       12
skinparam dpi                   100
skinparam shadowing             false
skinparam roundcorner           16
skinparam ParticipantPadding    40
skinparam BoxPadding            40
skinparam Padding               3
skinparam ArrowColor            #545454
skinparam stereotype {
    CBackgroundColor #0066cf
    CBorderColor #0086ef
    ABackgroundColor #C8Ac00
    ABorderColor #D8Bc00
    IBackgroundColor #008400
    IBorderColor #239c23
    EBackgroundColor #cf6300
    EBorderColor #ef8300
    NBackgroundColor #3380b9
    NBorderColor #004d86
}
skinparam title {
	FontColor	                 #c0c0c0
 	BorderColor                  #545454
	FontSize	    	         20
	BorderRoundCorner            16
	BorderThickness 	         1
	BackgroundColor              #48494b
}


skinparam legend {
	BackgroundColor #303030
	BorderColor #404040
	FontColor #a0a0a0
}

	skinparam swimlane {
	BorderColor #5e5e5e
	BorderThickness 2
	TitleBackgroundColor  #6d6d6d-#484848
	TitleFontColor #303030
}

skinparam activity {
		FontColor #C8Ac00
	BorderColor #333333
	BackgroundColor #333333-#333333
	BarColor #00FF00
	StartColor #0060a8
	EndColor #0060a8
	DiamondBackgroundColor #6d6d6d-#3a3a3a
  	DiamondBorderColor #3a3a3a
  	DiamondFontColor #fefefe
}


skinparam participant {
		FontColor #C8Ac00
	BorderColor #333333
	BackgroundColor #333333-#333333
	ParticipantBorderThickness 2
}


skinparam actor {
		FontColor #C8Ac00
	BorderColor #333333
	BackgroundColor #333333-#333333
}


skinparam arrow {
	Thickness 1.5
	Color #545454
	FontColor #a0a0a0
    FontStyle bold
    MessageAlignment center
}



skinparam sequence {
	BorderColor #303030
	TitleFontColor #303030
	BackgroundColor #333333
	StartColor #303030
	EndColor #303030
	BoxBackgroundColor #333333
	BoxBorderColor #484848
	BoxFontColor #484848
	LifeLineBorderColor #484848
	LifeLineBorderThickness 2
	LifeLineBackgroundColor #3a3a3a
	GroupBorderColor #484848
	GroupFontColor #484848
	GroupHeaderFontColor #0060a8
	GroupBackgroundColor #484848
	GroupHeaderBackgroundColor #333333
	DividerBackgroundColor #484848
    DividerBorderColor #484848
    DividerBorderThickness 2
    DividerFontColor #D8Bc00
	ReferenceBackgroundColor #333333
	ReferenceBorderColor #484848
	ReferenceFontColor #fefefe
	ReferenceHeaderBackgroundColor #484848
}


skinparam partition {
	BorderColor #303030
	FontColor #333333
	BackgroundColor #333333
}


skinparam collections {
		FontColor #C8Ac00
	BorderColor #333333
	BackgroundColor #333333-#333333
}


skinparam control {
		FontColor #C8Ac00
	BorderColor #333333
	BackgroundColor #333333-#333333
}


skinparam entity {
		FontColor #C8Ac00
	BorderColor #333333
	BackgroundColor #333333-#333333
}


skinparam boundary {
		FontColor #C8Ac00
	BorderColor #333333
	BackgroundColor #333333-#333333
}


skinparam agent {
	BackgroundColor #ff8000
	BorderColor #ff9933
	FontColor #484848
}


skinparam note {
	BorderThickness 1
	BackgroundColor #1b1b1a
	BorderColor #5e5e5e
	FontSize 11
	FontColor #a0a0a0
}


skinparam artifact {
	BorderThickness 10
	BorderColor #5e5e5e
	BackgroundColor #1b1b1a
	FontColor #D8Bc00
}


skinparam component {
		FontColor #C8Ac00
	BorderColor #333333
	BackgroundColor #333333-#333333
}


skinparam interface {
	BackgroundColor  #008400
	BorderColor  #007F00
	FontColor #484848
}


skinparam storage {
	BackgroundColor #ff8000
  	BorderColor #cc6600
	FontColor #222222
}


skinparam node {
	BackgroundColor #333333
	BorderColor #333333
	FontColor #C8Ac00
}


skinparam cloud {
	BackgroundColor #484848-black
	BorderColor #484848
	FontColor #D8Bc00
}


skinparam database {
		FontColor #C8Ac00
	BorderColor #333333
	BackgroundColor #333333-#333333
	BackgroundColor  #333333
}


skinparam class {
		FontColor #C8Ac00
	BorderColor #333333
	BackgroundColor #333333-#333333
	HeaderBackgroundColor #1b1b1a
    BackgroundColor #282828
    BorderColor #5e5e5e
 	StereotypeFontColor #a0a0a0
    StereotypeFontStyle bold
	BorderThickness 1
	AttributeFontColor #D8Bc00
	AttributeFontSize 11
    FontColor #D8Bc00
    FontStyle bold
}


skinparam object {
		FontColor #C8Ac00
	BorderColor #333333
	BackgroundColor #333333-#333333
	StereotypeFontColor #484848
	BorderThickness 1
	AttributeFontColor #fefefe
	AttributeFontSize 11
}


skinparam usecase {
		FontColor #C8Ac00
	BorderColor #333333
	BackgroundColor #333333-#333333
	BorderThickness 2
	StereotypeFontColor #303030
}


skinparam rectangle {
		FontColor #C8Ac00
	BorderColor #333333
	BackgroundColor #333333-#333333
	BackgroundColor #333333
	BorderThickness 2
	StereotypeFontColor #303030
}


skinparam package {
		FontColor #C8Ac00
	BorderColor #333333
	BackgroundColor #333333-#333333
	BackgroundColor #333333
	BorderThickness 2
}


skinparam folder {
	BackgroundColor #6d6d6d
  	BorderColor #ff8000
	FontColor #ff8000
	BorderThickness 2
}


skinparam frame {
	BackgroundColor #6d6d6d
  	BorderColor #0060a8
	FontColor #0060a8
	BorderThickness 2
}


skinparam state {
		FontColor #C8Ac00
	BorderColor #333333
	BackgroundColor #333333-#333333
	StartColor #0060a8
	EndColor #0060a8
	AttributeFontColor #fefefe
	AttributeFontSize 11
}


skinparam queue {
		FontColor #C8Ac00
	BorderColor #333333
	BackgroundColor #333333-#333333
}


skinparam card {
	BackgroundColor #0060a8
	BorderColor #004d86
	FontColor $INFO_TEXT
}


skinparam file {
	BackgroundColor #6d6d6d-#484848
	BorderColor #0060a8
	FontColor #fefefe
}


skinparam stack {
		FontColor #C8Ac00
	BorderColor #333333
	BackgroundColor #333333-#333333
}

    
    title "HDFS Proxy"
    
    abstract BaseComponent
    
    interface HdfsProxy
    
    BaseComponent <|- - HdfsFileSystem
    class HdfsFileSystem
    {
        - -(filesystem)- -
        +HdfsFileSystem of(FilePath)
    }
    
    Server <|- - HdfsProxyServer
    HdfsProxy <|- - HdfsProxyServer
    HdfsProxyServer - -> HdfsFileSystem : "delegates to"
    HdfsProxyServer - -> HdfsProxyServerSettings : "configures with"
    class HdfsProxyServer
    {
        - -(constructors)- -
        +HdfsProxyServer()
        - -
        +void main(String[] arguments)
    }
    
    class HdfsProxyServerSettings
    {
        - -
        +HdfsProxyServerSettings user(UserGroupInformation)
        - -(filesystem)- -
        +ResourceFolder configurationFolder()
        +HdfsProxyServerSettings configurationFolder(ResourceFolder configuration)
        - -(messaging)- -
        +UserGroupInformation user()
    }
    
@enduml

PlantUML version 1.2021.01(Tue Feb 02 00:55:08 MST 2021)
(GPL source distribution)
Java Runtime: OpenJDK Runtime Environment
JVM: OpenJDK 64-Bit Server VM
Default Encoding: UTF-8
Language: en
Country: US
--></g></svg>