<?xml version="1.0" encoding="UTF-8" standalone="no"?><svg xmlns="http://www.w3.org/2000/svg" xmlns:xlink="http://www.w3.org/1999/xlink" contentScriptType="application/ecmascript" contentStyleType="text/css" height="218.75px" preserveAspectRatio="none" style="width:2086px;height:218px;background:#333333;" version="1.1" viewBox="0 0 2086 218" width="2086.4583px" zoomAndPan="magnify"><defs/><g><rect fill="#48494B" height="41.2028" rx="8.3333" ry="8.3333" style="stroke:#545454;stroke-width:1.0416666666666667;" width="584.375" x="743.75" y="2.0833"/><text fill="#C0C0C0" font-family="Open Sans,Avenir,Nunito,Arial,Helvetica,SansSerif" font-size="20.8333" lengthAdjust="spacing" textLength="561.4583" x="755.2083" y="30.5583">com.telenav.kivakit.primitive.collections.internal.lexakai</text><rect codeLine="7" fill="#282828" height="48.055" id="UmlDiagramIdentifier" rx="8.3333" ry="8.3333" style="stroke:#5E5E5E;stroke-width:1.0416666666666667;" width="178.125" x="985.4167" y="53.7028"/><rect fill="#1B1B1A" height="31.3883" rx="8.3333" ry="8.3333" style="stroke:#1B1B1A;stroke-width:1.0416666666666667;" width="178.125" x="985.4167" y="53.7028"/><rect fill="#1B1B1A" height="8.3333" style="stroke:#1B1B1A;stroke-width:1.0416666666666667;" width="178.125" x="985.4167" y="76.7578"/><rect codeLine="7" fill="none" height="48.055" id="UmlDiagramIdentifier" rx="8.3333" ry="8.3333" style="stroke:#5E5E5E;stroke-width:1.0416666666666667;" width="178.125" x="985.4167" y="53.7028"/><ellipse cx="1000" cy="69.397" fill="#008400" rx="10.4167" ry="10.4167" style="stroke:#239C23;stroke-width:1.0416666666666667;"/><path d="M997.404,66.5588 L997.404,64.9719 L1002.83,64.9719 L1002.83,66.5588 L1001.0173,66.5588 L1001.0173,72.4976 L1002.83,72.4976 L1002.83,74.0845 L997.404,74.0845 L997.404,72.4976 L999.2167,72.4976 L999.2167,66.5588 Z " fill="#000000"/><text fill="#D8BC00" font-family="Open Sans,Avenir,Nunito,Arial,Helvetica,SansSerif" font-size="12.5" font-style="italic" font-weight="bold" lengthAdjust="spacing" textLength="140.625" x="1016.6667" y="74.1211">UmlDiagramIdentifier</text><line style="stroke:#5E5E5E;stroke-width:1.0416666666666667;" x1="986.4583" x2="1162.5" y1="85.0911" y2="85.0911"/><line style="stroke:#5E5E5E;stroke-width:1.0416666666666667;" x1="986.4583" x2="1162.5" y1="93.4245" y2="93.4245"/><rect codeLine="10" fill="#282828" height="48.055" id="DiagramPrimitiveArray" rx="8.3333" ry="8.3333" style="stroke:#5E5E5E;stroke-width:1.0416666666666667;" width="184.375" x="7.2917" y="164.1195"/><rect fill="#1B1B1A" height="31.3883" rx="8.3333" ry="8.3333" style="stroke:#1B1B1A;stroke-width:1.0416666666666667;" width="184.375" x="7.2917" y="164.1195"/><rect fill="#1B1B1A" height="8.3333" style="stroke:#1B1B1A;stroke-width:1.0416666666666667;" width="184.375" x="7.2917" y="187.1745"/><rect codeLine="10" fill="none" height="48.055" id="DiagramPrimitiveArray" rx="8.3333" ry="8.3333" style="stroke:#5E5E5E;stroke-width:1.0416666666666667;" width="184.375" x="7.2917" y="164.1195"/><ellipse cx="21.875" cy="179.8136" fill="#0066CF" rx="10.4167" ry="10.4167" style="stroke:#0086EF;stroke-width:1.0416666666666667;"/><path d="M23.7854,184.2387 Q23.3582,184.4584 22.8882,184.5683 Q22.4182,184.6781 21.8994,184.6781 Q20.0562,184.6781 19.0857,183.4635 Q18.1152,182.2489 18.1152,179.954 Q18.1152,177.653 19.0857,176.4384 Q20.0562,175.2238 21.8994,175.2238 Q22.4182,175.2238 22.8943,175.3337 Q23.3704,175.4435 23.7854,175.6632 L23.7854,177.6652 Q23.3215,177.238 22.8851,177.0396 Q22.4487,176.8412 21.9849,176.8412 Q20.9961,176.8412 20.4926,177.6255 Q19.989,178.4098 19.989,179.954 Q19.989,181.4921 20.4926,182.2764 Q20.9961,183.0607 21.9849,183.0607 Q22.4487,183.0607 22.8851,182.8623 Q23.3215,182.664 23.7854,182.2367 Z " fill="#000000"/><text fill="#D8BC00" font-family="Open Sans,Avenir,Nunito,Arial,Helvetica,SansSerif" font-size="12.5" font-weight="bold" lengthAdjust="spacing" textLength="146.875" x="38.5417" y="184.5378">DiagramPrimitiveArray</text><line style="stroke:#5E5E5E;stroke-width:1.0416666666666667;" x1="8.3333" x2="190.625" y1="195.5078" y2="195.5078"/><line style="stroke:#5E5E5E;stroke-width:1.0416666666666667;" x1="8.3333" x2="190.625" y1="203.8411" y2="203.8411"/><rect codeLine="15" fill="#282828" height="48.055" id="DiagramPrimitiveArrayArray" rx="8.3333" ry="8.3333" style="stroke:#5E5E5E;stroke-width:1.0416666666666667;" width="218.75" x="228.6458" y="164.1195"/><rect fill="#1B1B1A" height="31.3883" rx="8.3333" ry="8.3333" style="stroke:#1B1B1A;stroke-width:1.0416666666666667;" width="218.75" x="228.6458" y="164.1195"/><rect fill="#1B1B1A" height="8.3333" style="stroke:#1B1B1A;stroke-width:1.0416666666666667;" width="218.75" x="228.6458" y="187.1745"/><rect codeLine="15" fill="none" height="48.055" id="DiagramPrimitiveArrayArray" rx="8.3333" ry="8.3333" style="stroke:#5E5E5E;stroke-width:1.0416666666666667;" width="218.75" x="228.6458" y="164.1195"/><ellipse cx="243.2292" cy="179.8136" fill="#0066CF" rx="10.4167" ry="10.4167" style="stroke:#0086EF;stroke-width:1.0416666666666667;"/><path d="M245.1396,184.2387 Q244.7123,184.4584 244.2424,184.5683 Q243.7724,184.6781 243.2536,184.6781 Q241.4103,184.6781 240.4399,183.4635 Q239.4694,182.2489 239.4694,179.954 Q239.4694,177.653 240.4399,176.4384 Q241.4103,175.2238 243.2536,175.2238 Q243.7724,175.2238 244.2485,175.3337 Q244.7245,175.4435 245.1396,175.6632 L245.1396,177.6652 Q244.6757,177.238 244.2393,177.0396 Q243.8029,176.8412 243.339,176.8412 Q242.3503,176.8412 241.8467,177.6255 Q241.3432,178.4098 241.3432,179.954 Q241.3432,181.4921 241.8467,182.2764 Q242.3503,183.0607 243.339,183.0607 Q243.8029,183.0607 244.2393,182.8623 Q244.6757,182.664 245.1396,182.2367 Z " fill="#000000"/><text fill="#D8BC00" font-family="Open Sans,Avenir,Nunito,Arial,Helvetica,SansSerif" font-size="12.5" font-weight="bold" lengthAdjust="spacing" textLength="181.25" x="259.8958" y="184.5378">DiagramPrimitiveArrayArray</text><line style="stroke:#5E5E5E;stroke-width:1.0416666666666667;" x1="229.6875" x2="446.3542" y1="195.5078" y2="195.5078"/><line style="stroke:#5E5E5E;stroke-width:1.0416666666666667;" x1="229.6875" x2="446.3542" y1="203.8411" y2="203.8411"/><rect codeLine="20" fill="#282828" height="48.055" id="DiagramPrimitiveArrayBitIo" rx="8.3333" ry="8.3333" style="stroke:#5E5E5E;stroke-width:1.0416666666666667;" width="214.5833" x="483.8542" y="164.1195"/><rect fill="#1B1B1A" height="31.3883" rx="8.3333" ry="8.3333" style="stroke:#1B1B1A;stroke-width:1.0416666666666667;" width="214.5833" x="483.8542" y="164.1195"/><rect fill="#1B1B1A" height="8.3333" style="stroke:#1B1B1A;stroke-width:1.0416666666666667;" width="214.5833" x="483.8542" y="187.1745"/><rect codeLine="20" fill="none" height="48.055" id="DiagramPrimitiveArrayBitIo" rx="8.3333" ry="8.3333" style="stroke:#5E5E5E;stroke-width:1.0416666666666667;" width="214.5833" x="483.8542" y="164.1195"/><ellipse cx="498.4375" cy="179.8136" fill="#0066CF" rx="10.4167" ry="10.4167" style="stroke:#0086EF;stroke-width:1.0416666666666667;"/><path d="M500.3479,184.2387 Q499.9207,184.4584 499.4507,184.5683 Q498.9807,184.6781 498.4619,184.6781 Q496.6187,184.6781 495.6482,183.4635 Q494.6777,182.2489 494.6777,179.954 Q494.6777,177.653 495.6482,176.4384 Q496.6187,175.2238 498.4619,175.2238 Q498.9807,175.2238 499.4568,175.3337 Q499.9329,175.4435 500.3479,175.6632 L500.3479,177.6652 Q499.884,177.238 499.4476,177.0396 Q499.0112,176.8412 498.5474,176.8412 Q497.5586,176.8412 497.0551,177.6255 Q496.5515,178.4098 496.5515,179.954 Q496.5515,181.4921 497.0551,182.2764 Q497.5586,183.0607 498.5474,183.0607 Q499.0112,183.0607 499.4476,182.8623 Q499.884,182.664 500.3479,182.2367 Z " fill="#000000"/><text fill="#D8BC00" font-family="Open Sans,Avenir,Nunito,Arial,Helvetica,SansSerif" font-size="12.5" font-weight="bold" lengthAdjust="spacing" textLength="177.0833" x="515.1042" y="184.5378">DiagramPrimitiveArrayBitIo</text><line style="stroke:#5E5E5E;stroke-width:1.0416666666666667;" x1="484.8958" x2="697.3958" y1="195.5078" y2="195.5078"/><line style="stroke:#5E5E5E;stroke-width:1.0416666666666667;" x1="484.8958" x2="697.3958" y1="203.8411" y2="203.8411"/><rect codeLine="25" fill="#282828" height="48.055" id="DiagramPrimitiveCollection" rx="8.3333" ry="8.3333" style="stroke:#5E5E5E;stroke-width:1.0416666666666667;" width="215.625" x="735.4167" y="164.1195"/><rect fill="#1B1B1A" height="31.3883" rx="8.3333" ry="8.3333" style="stroke:#1B1B1A;stroke-width:1.0416666666666667;" width="215.625" x="735.4167" y="164.1195"/><rect fill="#1B1B1A" height="8.3333" style="stroke:#1B1B1A;stroke-width:1.0416666666666667;" width="215.625" x="735.4167" y="187.1745"/><rect codeLine="25" fill="none" height="48.055" id="DiagramPrimitiveCollection" rx="8.3333" ry="8.3333" style="stroke:#5E5E5E;stroke-width:1.0416666666666667;" width="215.625" x="735.4167" y="164.1195"/><ellipse cx="750" cy="179.8136" fill="#0066CF" rx="10.4167" ry="10.4167" style="stroke:#0086EF;stroke-width:1.0416666666666667;"/><path d="M751.9104,184.2387 Q751.4832,184.4584 751.0132,184.5683 Q750.5432,184.6781 750.0244,184.6781 Q748.1812,184.6781 747.2107,183.4635 Q746.2402,182.2489 746.2402,179.954 Q746.2402,177.653 747.2107,176.4384 Q748.1812,175.2238 750.0244,175.2238 Q750.5432,175.2238 751.0193,175.3337 Q751.4954,175.4435 751.9104,175.6632 L751.9104,177.6652 Q751.4465,177.238 751.0101,177.0396 Q750.5737,176.8412 750.1099,176.8412 Q749.1211,176.8412 748.6176,177.6255 Q748.114,178.4098 748.114,179.954 Q748.114,181.4921 748.6176,182.2764 Q749.1211,183.0607 750.1099,183.0607 Q750.5737,183.0607 751.0101,182.8623 Q751.4465,182.664 751.9104,182.2367 Z " fill="#000000"/><text fill="#D8BC00" font-family="Open Sans,Avenir,Nunito,Arial,Helvetica,SansSerif" font-size="12.5" font-weight="bold" lengthAdjust="spacing" textLength="178.125" x="766.6667" y="184.5378">DiagramPrimitiveCollection</text><line style="stroke:#5E5E5E;stroke-width:1.0416666666666667;" x1="736.4583" x2="950" y1="195.5078" y2="195.5078"/><line style="stroke:#5E5E5E;stroke-width:1.0416666666666667;" x1="736.4583" x2="950" y1="203.8411" y2="203.8411"/><rect codeLine="30" fill="#282828" height="48.055" id="DiagramPrimitiveList" rx="8.3333" ry="8.3333" style="stroke:#5E5E5E;stroke-width:1.0416666666666667;" width="173.9583" x="987.5" y="164.1195"/><rect fill="#1B1B1A" height="31.3883" rx="8.3333" ry="8.3333" style="stroke:#1B1B1A;stroke-width:1.0416666666666667;" width="173.9583" x="987.5" y="164.1195"/><rect fill="#1B1B1A" height="8.3333" style="stroke:#1B1B1A;stroke-width:1.0416666666666667;" width="173.9583" x="987.5" y="187.1745"/><rect codeLine="30" fill="none" height="48.055" id="DiagramPrimitiveList" rx="8.3333" ry="8.3333" style="stroke:#5E5E5E;stroke-width:1.0416666666666667;" width="173.9583" x="987.5" y="164.1195"/><ellipse cx="1002.0833" cy="179.8136" fill="#0066CF" rx="10.4167" ry="10.4167" style="stroke:#0086EF;stroke-width:1.0416666666666667;"/><path d="M1003.9937,184.2387 Q1003.5665,184.4584 1003.0965,184.5683 Q1002.6265,184.6781 1002.1077,184.6781 Q1000.2645,184.6781 999.294,183.4635 Q998.3236,182.2489 998.3236,179.954 Q998.3236,177.653 999.294,176.4384 Q1000.2645,175.2238 1002.1077,175.2238 Q1002.6265,175.2238 1003.1026,175.3337 Q1003.5787,175.4435 1003.9937,175.6632 L1003.9937,177.6652 Q1003.5299,177.238 1003.0935,177.0396 Q1002.6571,176.8412 1002.1932,176.8412 Q1001.2044,176.8412 1000.7009,177.6255 Q1000.1973,178.4098 1000.1973,179.954 Q1000.1973,181.4921 1000.7009,182.2764 Q1001.2044,183.0607 1002.1932,183.0607 Q1002.6571,183.0607 1003.0935,182.8623 Q1003.5299,182.664 1003.9937,182.2367 Z " fill="#000000"/><text fill="#D8BC00" font-family="Open Sans,Avenir,Nunito,Arial,Helvetica,SansSerif" font-size="12.5" font-weight="bold" lengthAdjust="spacing" textLength="136.4583" x="1018.75" y="184.5378">DiagramPrimitiveList</text><line style="stroke:#5E5E5E;stroke-width:1.0416666666666667;" x1="988.5417" x2="1160.4167" y1="195.5078" y2="195.5078"/><line style="stroke:#5E5E5E;stroke-width:1.0416666666666667;" x1="988.5417" x2="1160.4167" y1="203.8411" y2="203.8411"/><rect codeLine="35" fill="#282828" height="48.055" id="DiagramPrimitiveMap" rx="8.3333" ry="8.3333" style="stroke:#5E5E5E;stroke-width:1.0416666666666667;" width="177.0833" x="1198.4375" y="164.1195"/><rect fill="#1B1B1A" height="31.3883" rx="8.3333" ry="8.3333" style="stroke:#1B1B1A;stroke-width:1.0416666666666667;" width="177.0833" x="1198.4375" y="164.1195"/><rect fill="#1B1B1A" height="8.3333" style="stroke:#1B1B1A;stroke-width:1.0416666666666667;" width="177.0833" x="1198.4375" y="187.1745"/><rect codeLine="35" fill="none" height="48.055" id="DiagramPrimitiveMap" rx="8.3333" ry="8.3333" style="stroke:#5E5E5E;stroke-width:1.0416666666666667;" width="177.0833" x="1198.4375" y="164.1195"/><ellipse cx="1213.0208" cy="179.8136" fill="#0066CF" rx="10.4167" ry="10.4167" style="stroke:#0086EF;stroke-width:1.0416666666666667;"/><path d="M1214.9312,184.2387 Q1214.504,184.4584 1214.034,184.5683 Q1213.564,184.6781 1213.0452,184.6781 Q1211.202,184.6781 1210.2315,183.4635 Q1209.2611,182.2489 1209.2611,179.954 Q1209.2611,177.653 1210.2315,176.4384 Q1211.202,175.2238 1213.0452,175.2238 Q1213.564,175.2238 1214.0401,175.3337 Q1214.5162,175.4435 1214.9312,175.6632 L1214.9312,177.6652 Q1214.4674,177.238 1214.031,177.0396 Q1213.5946,176.8412 1213.1307,176.8412 Q1212.1419,176.8412 1211.6384,177.6255 Q1211.1348,178.4098 1211.1348,179.954 Q1211.1348,181.4921 1211.6384,182.2764 Q1212.1419,183.0607 1213.1307,183.0607 Q1213.5946,183.0607 1214.031,182.8623 Q1214.4674,182.664 1214.9312,182.2367 Z " fill="#000000"/><text fill="#D8BC00" font-family="Open Sans,Avenir,Nunito,Arial,Helvetica,SansSerif" font-size="12.5" font-weight="bold" lengthAdjust="spacing" textLength="139.5833" x="1229.6875" y="184.5378">DiagramPrimitiveMap</text><line style="stroke:#5E5E5E;stroke-width:1.0416666666666667;" x1="1199.4792" x2="1374.4792" y1="195.5078" y2="195.5078"/><line style="stroke:#5E5E5E;stroke-width:1.0416666666666667;" x1="1199.4792" x2="1374.4792" y1="203.8411" y2="203.8411"/><rect codeLine="40" fill="#282828" height="48.055" id="DiagramPrimitiveMultiMap" rx="8.3333" ry="8.3333" style="stroke:#5E5E5E;stroke-width:1.0416666666666667;" width="210.4167" x="1411.9792" y="164.1195"/><rect fill="#1B1B1A" height="31.3883" rx="8.3333" ry="8.3333" style="stroke:#1B1B1A;stroke-width:1.0416666666666667;" width="210.4167" x="1411.9792" y="164.1195"/><rect fill="#1B1B1A" height="8.3333" style="stroke:#1B1B1A;stroke-width:1.0416666666666667;" width="210.4167" x="1411.9792" y="187.1745"/><rect codeLine="40" fill="none" height="48.055" id="DiagramPrimitiveMultiMap" rx="8.3333" ry="8.3333" style="stroke:#5E5E5E;stroke-width:1.0416666666666667;" width="210.4167" x="1411.9792" y="164.1195"/><ellipse cx="1426.5625" cy="179.8136" fill="#0066CF" rx="10.4167" ry="10.4167" style="stroke:#0086EF;stroke-width:1.0416666666666667;"/><path d="M1428.4729,184.2387 Q1428.0457,184.4584 1427.5757,184.5683 Q1427.1057,184.6781 1426.5869,184.6781 Q1424.7437,184.6781 1423.7732,183.4635 Q1422.8027,182.2489 1422.8027,179.954 Q1422.8027,177.653 1423.7732,176.4384 Q1424.7437,175.2238 1426.5869,175.2238 Q1427.1057,175.2238 1427.5818,175.3337 Q1428.0579,175.4435 1428.4729,175.6632 L1428.4729,177.6652 Q1428.009,177.238 1427.5726,177.0396 Q1427.1362,176.8412 1426.6724,176.8412 Q1425.6836,176.8412 1425.1801,177.6255 Q1424.6765,178.4098 1424.6765,179.954 Q1424.6765,181.4921 1425.1801,182.2764 Q1425.6836,183.0607 1426.6724,183.0607 Q1427.1362,183.0607 1427.5726,182.8623 Q1428.009,182.664 1428.4729,182.2367 Z " fill="#000000"/><text fill="#D8BC00" font-family="Open Sans,Avenir,Nunito,Arial,Helvetica,SansSerif" font-size="12.5" font-weight="bold" lengthAdjust="spacing" textLength="172.9167" x="1443.2292" y="184.5378">DiagramPrimitiveMultiMap</text><line style="stroke:#5E5E5E;stroke-width:1.0416666666666667;" x1="1413.0208" x2="1621.3542" y1="195.5078" y2="195.5078"/><line style="stroke:#5E5E5E;stroke-width:1.0416666666666667;" x1="1413.0208" x2="1621.3542" y1="203.8411" y2="203.8411"/><rect codeLine="45" fill="#282828" height="48.055" id="DiagramPrimitiveSet" rx="8.3333" ry="8.3333" style="stroke:#5E5E5E;stroke-width:1.0416666666666667;" width="169.7917" x="1659.375" y="164.1195"/><rect fill="#1B1B1A" height="31.3883" rx="8.3333" ry="8.3333" style="stroke:#1B1B1A;stroke-width:1.0416666666666667;" width="169.7917" x="1659.375" y="164.1195"/><rect fill="#1B1B1A" height="8.3333" style="stroke:#1B1B1A;stroke-width:1.0416666666666667;" width="169.7917" x="1659.375" y="187.1745"/><rect codeLine="45" fill="none" height="48.055" id="DiagramPrimitiveSet" rx="8.3333" ry="8.3333" style="stroke:#5E5E5E;stroke-width:1.0416666666666667;" width="169.7917" x="1659.375" y="164.1195"/><ellipse cx="1673.9583" cy="179.8136" fill="#0066CF" rx="10.4167" ry="10.4167" style="stroke:#0086EF;stroke-width:1.0416666666666667;"/><path d="M1675.8687,184.2387 Q1675.4415,184.4584 1674.9715,184.5683 Q1674.5015,184.6781 1673.9827,184.6781 Q1672.1395,184.6781 1671.169,183.4635 Q1670.1986,182.2489 1670.1986,179.954 Q1670.1986,177.653 1671.169,176.4384 Q1672.1395,175.2238 1673.9827,175.2238 Q1674.5015,175.2238 1674.9776,175.3337 Q1675.4537,175.4435 1675.8687,175.6632 L1675.8687,177.6652 Q1675.4049,177.238 1674.9685,177.0396 Q1674.5321,176.8412 1674.0682,176.8412 Q1673.0794,176.8412 1672.5759,177.6255 Q1672.0723,178.4098 1672.0723,179.954 Q1672.0723,181.4921 1672.5759,182.2764 Q1673.0794,183.0607 1674.0682,183.0607 Q1674.5321,183.0607 1674.9685,182.8623 Q1675.4049,182.664 1675.8687,182.2367 Z " fill="#000000"/><text fill="#D8BC00" font-family="Open Sans,Avenir,Nunito,Arial,Helvetica,SansSerif" font-size="12.5" font-weight="bold" lengthAdjust="spacing" textLength="132.2917" x="1690.625" y="184.5378">DiagramPrimitiveSet</text><line style="stroke:#5E5E5E;stroke-width:1.0416666666666667;" x1="1660.4167" x2="1828.125" y1="195.5078" y2="195.5078"/><line style="stroke:#5E5E5E;stroke-width:1.0416666666666667;" x1="1660.4167" x2="1828.125" y1="203.8411" y2="203.8411"/><rect codeLine="50" fill="#282828" height="48.055" id="DiagramPrimitiveSplitArray" rx="8.3333" ry="8.3333" style="stroke:#5E5E5E;stroke-width:1.0416666666666667;" width="213.5417" x="1865.625" y="164.1195"/><rect fill="#1B1B1A" height="31.3883" rx="8.3333" ry="8.3333" style="stroke:#1B1B1A;stroke-width:1.0416666666666667;" width="213.5417" x="1865.625" y="164.1195"/><rect fill="#1B1B1A" height="8.3333" style="stroke:#1B1B1A;stroke-width:1.0416666666666667;" width="213.5417" x="1865.625" y="187.1745"/><rect codeLine="50" fill="none" height="48.055" id="DiagramPrimitiveSplitArray" rx="8.3333" ry="8.3333" style="stroke:#5E5E5E;stroke-width:1.0416666666666667;" width="213.5417" x="1865.625" y="164.1195"/><ellipse cx="1880.2083" cy="179.8136" fill="#0066CF" rx="10.4167" ry="10.4167" style="stroke:#0086EF;stroke-width:1.0416666666666667;"/><path d="M1882.1187,184.2387 Q1881.6915,184.4584 1881.2215,184.5683 Q1880.7515,184.6781 1880.2327,184.6781 Q1878.3895,184.6781 1877.419,183.4635 Q1876.4486,182.2489 1876.4486,179.954 Q1876.4486,177.653 1877.419,176.4384 Q1878.3895,175.2238 1880.2327,175.2238 Q1880.7515,175.2238 1881.2276,175.3337 Q1881.7037,175.4435 1882.1187,175.6632 L1882.1187,177.6652 Q1881.6549,177.238 1881.2185,177.0396 Q1880.7821,176.8412 1880.3182,176.8412 Q1879.3294,176.8412 1878.8259,177.6255 Q1878.3223,178.4098 1878.3223,179.954 Q1878.3223,181.4921 1878.8259,182.2764 Q1879.3294,183.0607 1880.3182,183.0607 Q1880.7821,183.0607 1881.2185,182.8623 Q1881.6549,182.664 1882.1187,182.2367 Z " fill="#000000"/><text fill="#D8BC00" font-family="Open Sans,Avenir,Nunito,Arial,Helvetica,SansSerif" font-size="12.5" font-weight="bold" lengthAdjust="spacing" textLength="176.0417" x="1896.875" y="184.5378">DiagramPrimitiveSplitArray</text><line style="stroke:#5E5E5E;stroke-width:1.0416666666666667;" x1="1866.6667" x2="2078.125" y1="195.5078" y2="195.5078"/><line style="stroke:#5E5E5E;stroke-width:1.0416666666666667;" x1="1866.6667" x2="2078.125" y1="203.8411" y2="203.8411"/><path codeLine="9" d="M964.1667,85.8382 C799.375,97.3382 479.4167,122.9528 209.8958,164.1195 C203.9896,165.0257 197.9271,166.0361 191.8229,167.1195 " fill="none" id="UmlDiagramIdentifier-backto-DiagramPrimitiveArray" style="stroke:#545454;stroke-width:1.5625;"/><polygon fill="none" points="964.125,78.5257,985.4063,84.3695,965.125,93.0778,964.125,78.5257" style="stroke:#545454;stroke-width:1.5625;"/><path codeLine="14" d="M964.25,92.8382 C842.0417,108.807 639.1771,136.234 465.1042,164.1195 C459.3438,165.0465 453.4479,166.0153 447.5,167.0153 " fill="none" id="UmlDiagramIdentifier-backto-DiagramPrimitiveArrayArray" style="stroke:#545454;stroke-width:1.5625;"/><polygon fill="none" points="963.3958,85.5882,985,90.1299,965.2813,100.057,963.3958,85.5882" style="stroke:#545454;stroke-width:1.5625;"/><path codeLine="19" d="M964.7083,103.307 C883.3542,121.5465 773.2396,146.2236 693.6563,164.057 " fill="none" id="UmlDiagramIdentifier-backto-DiagramPrimitiveArrayBitIo" style="stroke:#545454;stroke-width:1.5625;"/><polygon fill="none" points="963.3438,96.1403,985.2604,98.7028,966.5313,110.3695,963.3438,96.1403" style="stroke:#545454;stroke-width:1.5625;"/><path codeLine="24" d="M1006.5313,110.5361 C969.8646,127.7132 925.4479,148.5153 892.1979,164.0986 " fill="none" id="UmlDiagramIdentifier-backto-DiagramPrimitiveCollection" style="stroke:#545454;stroke-width:1.5625;"/><polygon fill="none" points="1003.4792,103.9111,1025.4375,101.682,1009.6667,117.1195,1003.4792,103.9111" style="stroke:#545454;stroke-width:1.5625;"/><path codeLine="29" d="M1074.4792,122.6195 C1074.4792,136.8382 1074.4792,152.0361 1074.4792,164.0986 " fill="none" id="UmlDiagramIdentifier-backto-DiagramPrimitiveList" style="stroke:#545454;stroke-width:1.5625;"/><polygon fill="none" points="1067.1875,122.5153,1074.4792,101.682,1081.7708,122.5153,1067.1875,122.5153" style="stroke:#545454;stroke-width:1.5625;"/><path codeLine="34" d="M1138.3229,111.2445 C1171.7396,128.2861 1211.8438,148.734 1241.9792,164.0986 " fill="none" id="UmlDiagramIdentifier-backto-DiagramPrimitiveMap" style="stroke:#545454;stroke-width:1.5625;"/><polygon fill="none" points="1134.7917,117.6403,1119.5417,101.682,1141.4167,104.6403,1134.7917,117.6403" style="stroke:#545454;stroke-width:1.5625;"/><path codeLine="39" d="M1184.3854,105.5986 C1257.875,123.5778 1353.5313,146.984 1423.4167,164.0882 " fill="none" id="UmlDiagramIdentifier-backto-DiagramPrimitiveMultiMap" style="stroke:#545454;stroke-width:1.5625;"/><polygon fill="none" points="1182.3021,112.5986,1163.8021,100.557,1185.7708,98.432,1182.3021,112.5986" style="stroke:#545454;stroke-width:1.5625;"/><path codeLine="44" d="M1184.5104,92.9945 C1298.9583,108.4007 1483.1667,134.6924 1641.1458,164.1195 C1647.0104,165.2132 1653.0417,166.3903 1659.1146,167.6299 " fill="none" id="UmlDiagramIdentifier-backto-DiagramPrimitiveSet" style="stroke:#545454;stroke-width:1.5625;"/><polygon fill="none" points="1183.3021,100.1924,1163.625,90.2028,1185.2396,85.734,1183.3021,100.1924" style="stroke:#545454;stroke-width:1.5625;"/><path codeLine="49" d="M1184.4792,88.3695 C1334.6667,102.1403 1612.1042,129.5986 1847.3958,164.1195 C1853.2917,164.984 1859.3333,165.9215 1865.4271,166.9111 " fill="none" id="UmlDiagramIdentifier-backto-DiagramPrimitiveSplitArray" style="stroke:#545454;stroke-width:1.5625;"/><polygon fill="none" points="1183.8021,95.6299,1163.7083,86.484,1185.125,81.109,1183.8021,95.6299" style="stroke:#545454;stroke-width:1.5625;"/></g></svg>
