<?xml version="1.0" encoding="UTF-8" standalone="no"?><svg xmlns="http://www.w3.org/2000/svg" xmlns:xlink="http://www.w3.org/1999/xlink" contentScriptType="application/ecmascript" contentStyleType="text/css" height="640.625px" preserveAspectRatio="none" style="width:981px;height:640px;background:#333333;" version="1.1" viewBox="0 0 981 640" width="981.25px" zoomAndPan="magnify"><defs/><g><rect fill="#48494B" height="41.2028" rx="8.3333" ry="8.3333" style="stroke:#545454;stroke-width:1.0416666666666667;" width="286.4583" x="340.3646" y="2.0833"/><text fill="#C0C0C0" font-family="Open Sans,Avenir,Nunito,Arial,Helvetica,SansSerif" font-size="20.8333" lengthAdjust="spacing" textLength="263.5417" x="351.8229" y="30.5583">kivakit-data-formats-xml</text><!--MD5=[53e810a96c27d4bd25e6a3839aaba16b]
entity gson--><rect fill="#1B1B1A" height="44.93" rx="8.3333" ry="8.3333" style="stroke:#5E5E5E;stroke-width:1.5625;" width="65.625" x="68.75" y="482.8695"/><polygon fill="#1B1B1A" points="116.6667,488.0778,116.6667,502.6611,129.1667,502.6611,129.1667,494.3278,122.9167,488.0778,116.6667,488.0778" style="stroke:#5E5E5E;stroke-width:1.5625;"/><line style="stroke:#5E5E5E;stroke-width:1.5625;" x1="122.9167" x2="122.9167" y1="488.0778" y2="494.3278"/><line style="stroke:#5E5E5E;stroke-width:1.5625;" x1="129.1667" x2="122.9167" y1="494.3278" y2="494.3278"/><text fill="#D8BC00" font-family="Open Sans,Avenir,Nunito,Arial,Helvetica,SansSerif" font-size="12.5" lengthAdjust="spacing" textLength="28.125" x="82.2917" y="511.6211">gson</text><!--MD5=[4aa4ddcf3dc6d6219283db0a9fd05165]
entity cactus_build_metadata--><rect fill="#1B1B1A" height="44.93" rx="8.3333" ry="8.3333" style="stroke:#5E5E5E;stroke-width:1.5625;" width="175" x="217.1875" y="482.8695"/><polygon fill="#1B1B1A" points="374.4792,488.0778,374.4792,502.6611,386.9792,502.6611,386.9792,494.3278,380.7292,488.0778,374.4792,488.0778" style="stroke:#5E5E5E;stroke-width:1.5625;"/><line style="stroke:#5E5E5E;stroke-width:1.5625;" x1="380.7292" x2="380.7292" y1="488.0778" y2="494.3278"/><line style="stroke:#5E5E5E;stroke-width:1.5625;" x1="386.9792" x2="380.7292" y1="494.3278" y2="494.3278"/><text fill="#D8BC00" font-family="Open Sans,Avenir,Nunito,Arial,Helvetica,SansSerif" font-size="12.5" lengthAdjust="spacing" textLength="137.5" x="230.7292" y="511.6211">cactus_build_metadata</text><!--MD5=[4facc4376e4b6bfc182ce14f42a813f9]
entity kivakit_collections--><rect fill="#1B1B1A" height="44.93" rx="8.3333" ry="8.3333" style="stroke:#5E5E5E;stroke-width:1.5625;" width="143.75" x="468.2292" y="268.2861"/><polygon fill="#1B1B1A" points="594.2708,273.4945,594.2708,288.0778,606.7708,288.0778,606.7708,279.7445,600.5208,273.4945,594.2708,273.4945" style="stroke:#5E5E5E;stroke-width:1.5625;"/><line style="stroke:#5E5E5E;stroke-width:1.5625;" x1="600.5208" x2="600.5208" y1="273.4945" y2="279.7445"/><line style="stroke:#5E5E5E;stroke-width:1.5625;" x1="606.7708" x2="600.5208" y1="279.7445" y2="279.7445"/><text fill="#D8BC00" font-family="Open Sans,Avenir,Nunito,Arial,Helvetica,SansSerif" font-size="12.5" lengthAdjust="spacing" textLength="106.25" x="481.7708" y="297.0378">kivakit_collections</text><!--MD5=[b7af8d5b7902cf06664f76dfe0f9e426]
entity kivakit_commandline--><rect fill="#1B1B1A" height="44.93" rx="8.3333" ry="8.3333" style="stroke:#5E5E5E;stroke-width:1.5625;" width="162.5" x="648.4375" y="268.2861"/><polygon fill="#1B1B1A" points="793.2292,273.4945,793.2292,288.0778,805.7292,288.0778,805.7292,279.7445,799.4792,273.4945,793.2292,273.4945" style="stroke:#5E5E5E;stroke-width:1.5625;"/><line style="stroke:#5E5E5E;stroke-width:1.5625;" x1="799.4792" x2="799.4792" y1="273.4945" y2="279.7445"/><line style="stroke:#5E5E5E;stroke-width:1.5625;" x1="805.7292" x2="799.4792" y1="279.7445" y2="279.7445"/><text fill="#D8BC00" font-family="Open Sans,Avenir,Nunito,Arial,Helvetica,SansSerif" font-size="12.5" lengthAdjust="spacing" textLength="125" x="661.9792" y="297.0378">kivakit_commandline</text><!--MD5=[76998a0b8e8a034fd4dce74d4f636366]
entity kivakit_component--><rect fill="#1B1B1A" height="44.93" rx="8.3333" ry="8.3333" style="stroke:#5E5E5E;stroke-width:1.5625;" width="148.9583" x="281.25" y="160.9945"/><polygon fill="#1B1B1A" points="412.5,166.2028,412.5,180.7861,425,180.7861,425,172.4528,418.75,166.2028,412.5,166.2028" style="stroke:#5E5E5E;stroke-width:1.5625;"/><line style="stroke:#5E5E5E;stroke-width:1.5625;" x1="418.75" x2="418.75" y1="166.2028" y2="172.4528"/><line style="stroke:#5E5E5E;stroke-width:1.5625;" x1="425" x2="418.75" y1="172.4528" y2="172.4528"/><text fill="#D8BC00" font-family="Open Sans,Avenir,Nunito,Arial,Helvetica,SansSerif" font-size="12.5" lengthAdjust="spacing" textLength="111.4583" x="294.7917" y="189.7461">kivakit_component</text><!--MD5=[dafc80021cd29aae9231cf20b1d6436c]
entity kivakit_conversion--><rect fill="#1B1B1A" height="44.93" rx="8.3333" ry="8.3333" style="stroke:#5E5E5E;stroke-width:1.5625;" width="145.8333" x="647.3958" y="375.5778"/><polygon fill="#1B1B1A" points="775.5208,380.7861,775.5208,395.3695,788.0208,395.3695,788.0208,387.0361,781.7708,380.7861,775.5208,380.7861" style="stroke:#5E5E5E;stroke-width:1.5625;"/><line style="stroke:#5E5E5E;stroke-width:1.5625;" x1="781.7708" x2="781.7708" y1="380.7861" y2="387.0361"/><line style="stroke:#5E5E5E;stroke-width:1.5625;" x1="788.0208" x2="781.7708" y1="387.0361" y2="387.0361"/><text fill="#D8BC00" font-family="Open Sans,Avenir,Nunito,Arial,Helvetica,SansSerif" font-size="12.5" lengthAdjust="spacing" textLength="108.3333" x="660.9375" y="404.3294">kivakit_conversion</text><!--MD5=[ae4286fb09ce878b5ed12f89a26eee54]
entity kivakit_core--><rect fill="#1B1B1A" height="44.93" rx="8.3333" ry="8.3333" style="stroke:#5E5E5E;stroke-width:1.5625;" width="108.3333" x="492.1875" y="375.5778"/><polygon fill="#1B1B1A" points="582.8125,380.7861,582.8125,395.3695,595.3125,395.3695,595.3125,387.0361,589.0625,380.7861,582.8125,380.7861" style="stroke:#5E5E5E;stroke-width:1.5625;"/><line style="stroke:#5E5E5E;stroke-width:1.5625;" x1="589.0625" x2="589.0625" y1="380.7861" y2="387.0361"/><line style="stroke:#5E5E5E;stroke-width:1.5625;" x1="595.3125" x2="589.0625" y1="387.0361" y2="387.0361"/><text fill="#D8BC00" font-family="Open Sans,Avenir,Nunito,Arial,Helvetica,SansSerif" font-size="12.5" lengthAdjust="spacing" textLength="70.8333" x="505.7292" y="404.3294">kivakit_core</text><!--MD5=[3bc1638b927efa9c727958ad844fa4ce]
entity kivakit_data_formats_xml--><rect fill="#1B1B1A" height="44.93" rx="8.3333" ry="8.3333" style="stroke:#5E5E5E;stroke-width:1.5625;" width="189.5833" x="349.4792" y="53.7028"/><polygon fill="#1B1B1A" points="521.3542,58.9111,521.3542,73.4945,533.8542,73.4945,533.8542,65.1611,527.6042,58.9111,521.3542,58.9111" style="stroke:#5E5E5E;stroke-width:1.5625;"/><line style="stroke:#5E5E5E;stroke-width:1.5625;" x1="527.6042" x2="527.6042" y1="58.9111" y2="65.1611"/><line style="stroke:#5E5E5E;stroke-width:1.5625;" x1="533.8542" x2="527.6042" y1="65.1611" y2="65.1611"/><text fill="#D8BC00" font-family="Open Sans,Avenir,Nunito,Arial,Helvetica,SansSerif" font-size="12.5" lengthAdjust="spacing" textLength="152.0833" x="363.0208" y="82.4544">kivakit_data_formats_xml</text><!--MD5=[b582392a7118229602de187c1b0722c2]
entity kivakit_interfaces--><rect fill="#1B1B1A" height="44.93" rx="8.3333" ry="8.3333" style="stroke:#5E5E5E;stroke-width:1.5625;" width="140.625" x="429.1667" y="482.8695"/><polygon fill="#1B1B1A" points="552.0833,488.0778,552.0833,502.6611,564.5833,502.6611,564.5833,494.3278,558.3333,488.0778,552.0833,488.0778" style="stroke:#5E5E5E;stroke-width:1.5625;"/><line style="stroke:#5E5E5E;stroke-width:1.5625;" x1="558.3333" x2="558.3333" y1="488.0778" y2="494.3278"/><line style="stroke:#5E5E5E;stroke-width:1.5625;" x1="564.5833" x2="558.3333" y1="494.3278" y2="494.3278"/><text fill="#D8BC00" font-family="Open Sans,Avenir,Nunito,Arial,Helvetica,SansSerif" font-size="12.5" lengthAdjust="spacing" textLength="103.125" x="442.7083" y="511.6211">kivakit_interfaces</text><!--MD5=[f41257055ff6c31a77f8312d5e694f18]
entity kivakit_mixins--><rect fill="#1B1B1A" height="44.93" rx="8.3333" ry="8.3333" style="stroke:#5E5E5E;stroke-width:1.5625;" width="120.8333" x="606.7708" y="482.8695"/><polygon fill="#1B1B1A" points="709.8958,488.0778,709.8958,502.6611,722.3958,502.6611,722.3958,494.3278,716.1458,488.0778,709.8958,488.0778" style="stroke:#5E5E5E;stroke-width:1.5625;"/><line style="stroke:#5E5E5E;stroke-width:1.5625;" x1="716.1458" x2="716.1458" y1="488.0778" y2="494.3278"/><line style="stroke:#5E5E5E;stroke-width:1.5625;" x1="722.3958" x2="716.1458" y1="494.3278" y2="494.3278"/><text fill="#D8BC00" font-family="Open Sans,Avenir,Nunito,Arial,Helvetica,SansSerif" font-size="12.5" lengthAdjust="spacing" textLength="83.3333" x="620.3125" y="511.6211">kivakit_mixins</text><!--MD5=[789122fdd47ca161e4432768ac68a470]
entity kivakit_resource--><rect fill="#1B1B1A" height="44.93" rx="8.3333" ry="8.3333" style="stroke:#5E5E5E;stroke-width:1.5625;" width="134.375" x="472.9167" y="160.9945"/><polygon fill="#1B1B1A" points="589.5833,166.2028,589.5833,180.7861,602.0833,180.7861,602.0833,172.4528,595.8333,166.2028,589.5833,166.2028" style="stroke:#5E5E5E;stroke-width:1.5625;"/><line style="stroke:#5E5E5E;stroke-width:1.5625;" x1="595.8333" x2="595.8333" y1="166.2028" y2="172.4528"/><line style="stroke:#5E5E5E;stroke-width:1.5625;" x1="602.0833" x2="595.8333" y1="172.4528" y2="172.4528"/><text fill="#D8BC00" font-family="Open Sans,Avenir,Nunito,Arial,Helvetica,SansSerif" font-size="12.5" lengthAdjust="spacing" textLength="96.875" x="486.4583" y="189.7461">kivakit_resource</text><!--MD5=[7b11bf8f6cdaefb37d9e26a0fe1bc824]
entity kivakit_serialization_gson--><rect fill="#1B1B1A" height="44.93" rx="8.3333" ry="8.3333" style="stroke:#5E5E5E;stroke-width:1.5625;" width="188.5417" x="7.2917" y="375.5778"/><polygon fill="#1B1B1A" points="178.125,380.7861,178.125,395.3695,190.625,395.3695,190.625,387.0361,184.375,380.7861,178.125,380.7861" style="stroke:#5E5E5E;stroke-width:1.5625;"/><line style="stroke:#5E5E5E;stroke-width:1.5625;" x1="184.375" x2="184.375" y1="380.7861" y2="387.0361"/><line style="stroke:#5E5E5E;stroke-width:1.5625;" x1="190.625" x2="184.375" y1="387.0361" y2="387.0361"/><text fill="#D8BC00" font-family="Open Sans,Avenir,Nunito,Arial,Helvetica,SansSerif" font-size="12.5" lengthAdjust="spacing" textLength="151.0417" x="20.8333" y="404.3294">kivakit_serialization_gson</text><!--MD5=[89af034859c241291c45f10ab75c9d6f]
entity kivakit_serialization_properties--><rect fill="#1B1B1A" height="44.93" rx="8.3333" ry="8.3333" style="stroke:#5E5E5E;stroke-width:1.5625;" width="222.9167" x="232.8125" y="375.5778"/><polygon fill="#1B1B1A" points="438.0208,380.7861,438.0208,395.3695,450.5208,395.3695,450.5208,387.0361,444.2708,380.7861,438.0208,380.7861" style="stroke:#5E5E5E;stroke-width:1.5625;"/><line style="stroke:#5E5E5E;stroke-width:1.5625;" x1="444.2708" x2="444.2708" y1="380.7861" y2="387.0361"/><line style="stroke:#5E5E5E;stroke-width:1.5625;" x1="450.5208" x2="444.2708" y1="387.0361" y2="387.0361"/><text fill="#D8BC00" font-family="Open Sans,Avenir,Nunito,Arial,Helvetica,SansSerif" font-size="12.5" lengthAdjust="spacing" textLength="185.4167" x="246.3542" y="404.3294">kivakit_serialization_properties</text><!--MD5=[9ba95bb9e8e31957d019d7ac74b23042]
entity kivakit_settings--><rect fill="#1B1B1A" height="44.93" rx="8.3333" ry="8.3333" style="stroke:#5E5E5E;stroke-width:1.5625;" width="128.125" x="280.2083" y="268.2861"/><polygon fill="#1B1B1A" points="390.625,273.4945,390.625,288.0778,403.125,288.0778,403.125,279.7445,396.875,273.4945,390.625,273.4945" style="stroke:#5E5E5E;stroke-width:1.5625;"/><line style="stroke:#5E5E5E;stroke-width:1.5625;" x1="396.875" x2="396.875" y1="273.4945" y2="279.7445"/><line style="stroke:#5E5E5E;stroke-width:1.5625;" x1="403.125" x2="396.875" y1="279.7445" y2="279.7445"/><text fill="#D8BC00" font-family="Open Sans,Avenir,Nunito,Arial,Helvetica,SansSerif" font-size="12.5" lengthAdjust="spacing" textLength="90.625" x="293.75" y="297.0378">kivakit_settings</text><!--MD5=[80d2a7f8a38f99556dcaa88e0cbe286e]
entity kivakit_validation--><rect fill="#1B1B1A" height="44.93" rx="8.3333" ry="8.3333" style="stroke:#5E5E5E;stroke-width:1.5625;" width="139.5833" x="829.6875" y="375.5778"/><polygon fill="#1B1B1A" points="951.5625,380.7861,951.5625,395.3695,964.0625,395.3695,964.0625,387.0361,957.8125,380.7861,951.5625,380.7861" style="stroke:#5E5E5E;stroke-width:1.5625;"/><line style="stroke:#5E5E5E;stroke-width:1.5625;" x1="957.8125" x2="957.8125" y1="380.7861" y2="387.0361"/><line style="stroke:#5E5E5E;stroke-width:1.5625;" x1="964.0625" x2="957.8125" y1="387.0361" y2="387.0361"/><text fill="#D8BC00" font-family="Open Sans,Avenir,Nunito,Arial,Helvetica,SansSerif" font-size="12.5" lengthAdjust="spacing" textLength="102.0833" x="843.2292" y="404.3294">kivakit_validation</text><!--MD5=[7b0fec798d1f32628676dfdf75f1f662]
entity lexakai_annotations--><rect fill="#1B1B1A" height="44.93" rx="8.3333" ry="8.3333" style="stroke:#5E5E5E;stroke-width:1.5625;" width="155.2083" x="327.0833" y="590.1611"/><polygon fill="#1B1B1A" points="464.5833,595.3695,464.5833,609.9528,477.0833,609.9528,477.0833,601.6195,470.8333,595.3695,464.5833,595.3695" style="stroke:#5E5E5E;stroke-width:1.5625;"/><line style="stroke:#5E5E5E;stroke-width:1.5625;" x1="470.8333" x2="470.8333" y1="595.3695" y2="601.6195"/><line style="stroke:#5E5E5E;stroke-width:1.5625;" x1="477.0833" x2="470.8333" y1="601.6195" y2="601.6195"/><text fill="#D8BC00" font-family="Open Sans,Avenir,Nunito,Arial,Helvetica,SansSerif" font-size="12.5" lengthAdjust="spacing" textLength="117.7083" x="340.625" y="618.9128">lexakai_annotations</text><!--MD5=[ce55b294004802c137560c2930be5b75]
entity junit--><rect fill="#1B1B1A" height="44.93" rx="8.3333" ry="8.3333" style="stroke:#5E5E5E;stroke-width:1.5625;" width="63.5417" x="764.5833" y="482.8695"/><polygon fill="#1B1B1A" points="810.4167,488.0778,810.4167,502.6611,822.9167,502.6611,822.9167,494.3278,816.6667,488.0778,810.4167,488.0778" style="stroke:#5E5E5E;stroke-width:1.5625;"/><line style="stroke:#5E5E5E;stroke-width:1.5625;" x1="816.6667" x2="816.6667" y1="488.0778" y2="494.3278"/><line style="stroke:#5E5E5E;stroke-width:1.5625;" x1="822.9167" x2="816.6667" y1="494.3278" y2="494.3278"/><text fill="#D8BC00" font-family="Open Sans,Avenir,Nunito,Arial,Helvetica,SansSerif" font-size="12.5" lengthAdjust="spacing" textLength="26.0417" x="778.125" y="511.6211">junit</text><!--MD5=[7f157d37bc1fd6ac970bb67ffdbc66a3]
entity hamcrest_core--><rect fill="#1B1B1A" height="44.93" rx="8.3333" ry="8.3333" style="stroke:#5E5E5E;stroke-width:1.5625;" width="125" x="733.8542" y="590.1611"/><polygon fill="#1B1B1A" points="841.1458,595.3695,841.1458,609.9528,853.6458,609.9528,853.6458,601.6195,847.3958,595.3695,841.1458,595.3695" style="stroke:#5E5E5E;stroke-width:1.5625;"/><line style="stroke:#5E5E5E;stroke-width:1.5625;" x1="847.3958" x2="847.3958" y1="595.3695" y2="601.6195"/><line style="stroke:#5E5E5E;stroke-width:1.5625;" x1="853.6458" x2="847.3958" y1="601.6195" y2="601.6195"/><text fill="#D8BC00" font-family="Open Sans,Avenir,Nunito,Arial,Helvetica,SansSerif" font-size="12.5" lengthAdjust="spacing" textLength="87.5" x="747.3958" y="618.9128">hamcrest_core</text><!--MD5=[b728e17b4e4da6aa8cb97e9b2766c5e6]
entity annotations--><rect fill="#1B1B1A" height="44.93" rx="8.3333" ry="8.3333" style="stroke:#5E5E5E;stroke-width:1.5625;" width="106.25" x="519.2708" y="590.1611"/><polygon fill="#1B1B1A" points="607.8125,595.3695,607.8125,609.9528,620.3125,609.9528,620.3125,601.6195,614.0625,595.3695,607.8125,595.3695" style="stroke:#5E5E5E;stroke-width:1.5625;"/><line style="stroke:#5E5E5E;stroke-width:1.5625;" x1="614.0625" x2="614.0625" y1="595.3695" y2="601.6195"/><line style="stroke:#5E5E5E;stroke-width:1.5625;" x1="620.3125" x2="614.0625" y1="601.6195" y2="601.6195"/><text fill="#D8BC00" font-family="Open Sans,Avenir,Nunito,Arial,Helvetica,SansSerif" font-size="12.5" lengthAdjust="spacing" textLength="68.75" x="532.8125" y="618.9128">annotations</text><!--MD5=[d68e7c4b3ca5f037bcb6997a0b4ed16b]
link junit to hamcrest_core--><path d="M796.3542,528.109 C796.3542,544.5778 796.3542,567.2757 796.3542,584.8278 " fill="none" id="junit-to-hamcrest_core" style="stroke:#545454;stroke-width:1.5625;"/><polygon fill="#545454" points="796.3542,590.109,800.5208,580.734,796.3542,584.9007,792.1875,580.734,796.3542,590.109" style="stroke:#545454;stroke-width:1.5625;"/><!--MD5=[cb06edfd5269da4fab280ecf1dfecc66]
link kivakit_collections to kivakit_core--><path d="M541.3958,313.5257 C542.375,329.9945 543.7292,352.6924 544.7708,370.2445 " fill="none" id="kivakit_collections-to-kivakit_core" style="stroke:#545454;stroke-width:1.5625;"/><polygon fill="#545454" points="545.0833,375.5257,548.6794,365.9174,544.7705,370.3268,540.3611,366.4179,545.0833,375.5257" style="stroke:#545454;stroke-width:1.5625;"/><!--MD5=[0ec4f870a8b9f530040c9be27d791a01]
link kivakit_commandline to kivakit_conversion--><path d="M727.75,313.5257 C726.2813,329.9945 724.25,352.6924 722.6875,370.2445 " fill="none" id="kivakit_commandline-to-kivakit_conversion" style="stroke:#545454;stroke-width:1.5625;"/><polygon fill="#545454" points="722.2188,375.5257,727.1985,366.5561,722.6796,370.3378,718.8979,365.8188,722.2188,375.5257" style="stroke:#545454;stroke-width:1.5625;"/><!--MD5=[233173b8414f4008c96b85f34b766932]
link kivakit_commandline to kivakit_validation--><path d="M764.4583,313.2653 C792.2708,330.5049 831.2604,354.6611 860.1979,372.5986 " fill="none" id="kivakit_commandline-to-kivakit_validation" style="stroke:#545454;stroke-width:1.5625;"/><polygon fill="#545454" points="864.7604,375.4215,858.9931,366.9369,860.3354,372.6745,854.5978,374.0168,864.7604,375.4215" style="stroke:#545454;stroke-width:1.5625;"/><!--MD5=[6553ae66f819c74bf4f1def35a2859e3]
link kivakit_component to kivakit_settings--><path d="M353.3542,206.234 C351.5625,222.7028 349.0938,245.4007 347.1771,262.9528 " fill="none" id="kivakit_component-to-kivakit_settings" style="stroke:#545454;stroke-width:1.5625;"/><polygon fill="#545454" points="346.6042,268.234,351.7387,259.3521,347.1548,263.0549,343.452,258.4711,346.6042,268.234" style="stroke:#545454;stroke-width:1.5625;"/><!--MD5=[a27c71d033f650a74e689916edfa2bee]
link kivakit_core to cactus_build_metadata--><path d="M497.1563,420.432 C456.9792,437.9215 400.25,462.6195 358.7917,480.6715 " fill="none" id="kivakit_core-to-cactus_build_metadata" style="stroke:#545454;stroke-width:1.5625;"/><polygon fill="#545454" points="353.8125,482.8382,364.0715,482.9096,358.5865,480.7561,360.7401,475.2711,353.8125,482.8382" style="stroke:#545454;stroke-width:1.5625;"/><!--MD5=[3eda3c974646e0509602a12450d4fa2b]
link kivakit_core to junit--><path d="M597.7708,420.4632 C638.1979,437.3486 695.9063,461.5153 746.3542,482.8695 C750.6354,484.682 755.1146,486.5778 759.5625,488.4736 " fill="none" id="kivakit_core-to-junit" style="stroke:#545454;stroke-width:1.5625;"/><polygon fill="#545454" points="764.3646,490.5257,757.3692,483.0213,759.572,488.4866,754.1067,490.6894,764.3646,490.5257" style="stroke:#545454;stroke-width:1.5625;"/><!--MD5=[50e8d2e340cfb1a2dae3d5796adb8458]
link kivakit_core to kivakit_interfaces--><path d="M536.6458,420.8174 C529.2396,437.432 519.0208,460.3695 511.1667,477.9945 " fill="none" id="kivakit_core-to-kivakit_interfaces" style="stroke:#545454;stroke-width:1.5625;"/><polygon fill="#545454" points="509.0208,482.8174,516.6319,475.9382,511.1334,478.0567,509.0149,472.5582,509.0208,482.8174" style="stroke:#545454;stroke-width:1.5625;"/><!--MD5=[cc9720141deba8e1bd3912e4e0759165]
link kivakit_core to kivakit_mixins--><path d="M571.0938,420.557 C590.6458,437.5778 617.9583,461.359 638.4688,479.2236 " fill="none" id="kivakit_core-to-kivakit_mixins" style="stroke:#545454;stroke-width:1.5625;"/><polygon fill="#545454" points="642.4792,482.7132,638.1475,473.4133,638.5521,479.2919,632.6735,479.6965,642.4792,482.7132" style="stroke:#545454;stroke-width:1.5625;"/><!--MD5=[d02dbbaee3f9d41e8577c893a1f14b60]
link kivakit_data_formats_xml to kivakit_component--><path d="M425.9271,98.9424 C411.8229,115.6924 392.3021,138.8903 377.4271,156.5674 " fill="none" id="kivakit_data_formats_xml-to-kivakit_component" style="stroke:#545454;stroke-width:1.5625;"/><polygon fill="#545454" points="373.75,160.9424,382.979,156.4616,377.1076,156.9608,376.6084,151.0894,373.75,160.9424" style="stroke:#545454;stroke-width:1.5625;"/><!--MD5=[cc14fc75ecbeaaaf56f7d8503a64acd9]
link kivakit_data_formats_xml to kivakit_resource--><path d="M464.125,98.9424 C479.5208,115.8382 500.875,139.2861 517.0313,157.0153 " fill="none" id="kivakit_data_formats_xml-to-kivakit_resource" style="stroke:#545454;stroke-width:1.5625;"/><polygon fill="#545454" points="520.6042,160.9424,517.351,151.2126,517.0888,157.0993,511.2021,156.8372,520.6042,160.9424" style="stroke:#545454;stroke-width:1.5625;"/><!--MD5=[ae0cbb2eeca1523bc78b042db62e2be7]
link kivakit_interfaces to annotations--><path d="M514.5833,528.109 C526.1979,544.859 542.2813,568.057 554.5313,585.734 " fill="none" id="kivakit_interfaces-to-annotations" style="stroke:#545454;stroke-width:1.5625;"/><polygon fill="#545454" points="557.5521,590.109,555.6342,580.0307,554.5843,585.8289,548.7861,584.7791,557.5521,590.109" style="stroke:#545454;stroke-width:1.5625;"/><!--MD5=[9b9898faa91efac5ccf8efb529e9a4f7]
link kivakit_interfaces to lexakai_annotations--><path d="M479.8333,528.109 C464.6146,545.0049 443.4896,568.4528 427.5104,586.182 " fill="none" id="kivakit_interfaces-to-lexakai_annotations" style="stroke:#545454;stroke-width:1.5625;"/><polygon fill="#545454" points="423.9792,590.109,433.3478,585.928,427.4634,586.2377,427.1537,580.3533,423.9792,590.109" style="stroke:#545454;stroke-width:1.5625;"/><!--MD5=[1f920e5641e1a651a42d763be0b203c8]
link kivakit_resource to kivakit_collections--><path d="M540.1042,206.234 C540.1042,222.7028 540.1042,245.4007 540.1042,262.9528 " fill="none" id="kivakit_resource-to-kivakit_collections" style="stroke:#545454;stroke-width:1.5625;"/><polygon fill="#545454" points="540.1042,268.234,544.2708,258.859,540.1042,263.0257,535.9375,258.859,540.1042,268.234" style="stroke:#545454;stroke-width:1.5625;"/><!--MD5=[593b722ec987ee2a5ff2f96e98ef63b5]
link kivakit_resource to kivakit_commandline--><path d="M578.9271,205.9736 C610.1042,223.2757 653.875,247.5674 686.2292,265.5257 " fill="none" id="kivakit_resource-to-kivakit_commandline" style="stroke:#545454;stroke-width:1.5625;"/><polygon fill="#545454" points="690.9167,268.1299,684.745,259.9347,686.3638,265.6005,680.6979,267.2193,690.9167,268.1299" style="stroke:#545454;stroke-width:1.5625;"/><!--MD5=[526b50f83d962021076ab4af7a206f26]
link kivakit_serialization_gson to gson--><path d="M101.5625,420.8174 C101.5625,437.2861 101.5625,459.984 101.5625,477.5361 " fill="none" id="kivakit_serialization_gson-to-gson" style="stroke:#545454;stroke-width:1.5625;"/><polygon fill="#545454" points="101.5625,482.8174,105.7292,473.4424,101.5625,477.609,97.3958,473.4424,101.5625,482.8174" style="stroke:#545454;stroke-width:1.5625;"/><!--MD5=[db7a3e58ae015a2db9e73bbbc331f313]
link kivakit_settings to kivakit_serialization_gson--><path d="M294.8646,313.1403 C254.5104,330.6299 197.5417,355.3278 155.8958,373.3799 " fill="none" id="kivakit_settings-to-kivakit_serialization_gson" style="stroke:#545454;stroke-width:1.5625;"/><polygon fill="#545454" points="150.9063,375.5465,161.1649,375.6564,155.6881,373.4823,157.8622,368.0055,150.9063,375.5465" style="stroke:#545454;stroke-width:1.5625;"/><!--MD5=[9a29ae8e9245e25ea51914d5ea8f3bfd]
link kivakit_settings to kivakit_serialization_properties--><path d="M344.2708,313.5257 C344.2708,329.9945 344.2708,352.6924 344.2708,370.2445 " fill="none" id="kivakit_settings-to-kivakit_serialization_properties" style="stroke:#545454;stroke-width:1.5625;"/><polygon fill="#545454" points="344.2708,375.5257,348.4375,366.1507,344.2708,370.3174,340.1042,366.1507,344.2708,375.5257" style="stroke:#545454;stroke-width:1.5625;"/><!--MD5=[803fb8f1c6b7eca5167ac84f9521dd89]
@startuml

    !include lexakai.theme
    
    title "kivakit-data-formats-xml"
    
    artifact gson
    artifact cactus_build_metadata
    artifact kivakit_collections
    artifact kivakit_commandline
    artifact kivakit_component
    artifact kivakit_conversion
    artifact kivakit_core
    artifact kivakit_data_formats_xml
    artifact kivakit_interfaces
    artifact kivakit_mixins
    artifact kivakit_resource
    artifact kivakit_serialization_gson
    artifact kivakit_serialization_properties
    artifact kivakit_settings
    artifact kivakit_validation
    artifact lexakai_annotations
    artifact junit
    artifact hamcrest_core
    artifact annotations
    junit - -> hamcrest_core
    kivakit_collections - -> kivakit_core
    kivakit_commandline - -> kivakit_conversion
    kivakit_commandline - -> kivakit_validation
    kivakit_component - -> kivakit_settings
    kivakit_core - -> cactus_build_metadata
    kivakit_core - -> junit
    kivakit_core - -> kivakit_interfaces
    kivakit_core - -> kivakit_mixins
    kivakit_data_formats_xml - -> kivakit_component
    kivakit_data_formats_xml - -> kivakit_resource
    kivakit_interfaces - -> annotations
    kivakit_interfaces - -> lexakai_annotations
    kivakit_resource - -> kivakit_collections
    kivakit_resource - -> kivakit_commandline
    kivakit_serialization_gson - -> gson
    kivakit_settings - -> kivakit_serialization_gson
    kivakit_settings - -> kivakit_serialization_properties
    
@enduml

@startuml









skinparam backgroundColor #333333






skinparam  {
    defaultFontName   "Open Sans,Avenir,Nunito,Arial,Helvetica,SansSerif"
    defaultFontSize   12
    defaultTextAlignment left
    shadowing false
    RoundCorner 10
    TitleFontSize 18
}

skinparam defaultFontName       "Open Sans,Avenir,Nunito,Arial,Helvetica,SansSerif"
skinparam defaultFontSize       12
skinparam dpi                   100
skinparam shadowing             false
skinparam roundcorner           16
skinparam ParticipantPadding    40
skinparam BoxPadding            40
skinparam Padding               3
skinparam ArrowColor            #545454
skinparam stereotype {
    CBackgroundColor #0066cf
    CBorderColor #0086ef
    ABackgroundColor #C8Ac00
    ABorderColor #D8Bc00
    IBackgroundColor #008400
    IBorderColor #239c23
    EBackgroundColor #cf6300
    EBorderColor #ef8300
    NBackgroundColor #3380b9
    NBorderColor #004d86
}
skinparam title {
	FontColor	                 #c0c0c0
 	BorderColor                  #545454
	FontSize	    	         20
	BorderRoundCorner            16
	BorderThickness 	         1
	BackgroundColor              #48494b
}


skinparam legend {
	BackgroundColor #303030
	BorderColor #404040
	FontColor #a0a0a0
}

	skinparam swimlane {
	BorderColor #5e5e5e
	BorderThickness 2
	TitleBackgroundColor  #6d6d6d-#484848
	TitleFontColor #303030
}

skinparam activity {
		FontColor #C8Ac00
	BorderColor #333333
	BackgroundColor #333333-#333333
	BarColor #00FF00
	StartColor #0060a8
	EndColor #0060a8
	DiamondBackgroundColor #6d6d6d-#3a3a3a
  	DiamondBorderColor #3a3a3a
  	DiamondFontColor #fefefe
}


skinparam participant {
		FontColor #C8Ac00
	BorderColor #333333
	BackgroundColor #333333-#333333
	ParticipantBorderThickness 2
}


skinparam actor {
		FontColor #C8Ac00
	BorderColor #333333
	BackgroundColor #333333-#333333
}


skinparam arrow {
	Thickness 1.5
	Color #545454
	FontColor #a0a0a0
    FontStyle bold
    MessageAlignment center
}



skinparam sequence {
	BorderColor #303030
	TitleFontColor #303030
	BackgroundColor #333333
	StartColor #303030
	EndColor #303030
	BoxBackgroundColor #333333
	BoxBorderColor #484848
	BoxFontColor #484848
	LifeLineBorderColor #484848
	LifeLineBorderThickness 2
	LifeLineBackgroundColor #3a3a3a
	GroupBorderColor #484848
	GroupFontColor #484848
	GroupHeaderFontColor #0060a8
	GroupBackgroundColor #484848
	GroupHeaderBackgroundColor #333333
	DividerBackgroundColor #484848
    DividerBorderColor #484848
    DividerBorderThickness 2
    DividerFontColor #D8Bc00
	ReferenceBackgroundColor #333333
	ReferenceBorderColor #484848
	ReferenceFontColor #fefefe
	ReferenceHeaderBackgroundColor #484848
}


skinparam partition {
	BorderColor #303030
	FontColor #333333
	BackgroundColor #333333
}


skinparam collections {
		FontColor #C8Ac00
	BorderColor #333333
	BackgroundColor #333333-#333333
}


skinparam control {
		FontColor #C8Ac00
	BorderColor #333333
	BackgroundColor #333333-#333333
}


skinparam entity {
		FontColor #C8Ac00
	BorderColor #333333
	BackgroundColor #333333-#333333
}


skinparam boundary {
		FontColor #C8Ac00
	BorderColor #333333
	BackgroundColor #333333-#333333
}


skinparam agent {
	BackgroundColor #ff8000
	BorderColor #ff9933
	FontColor #484848
}


skinparam note {
	BorderThickness 1
	BackgroundColor #1b1b1a
	BorderColor #5e5e5e
	FontSize 11
	FontColor #a0a0a0
}


skinparam artifact {
	BorderThickness 10
	BorderColor #5e5e5e
	BackgroundColor #1b1b1a
	FontColor #D8Bc00
}


skinparam component {
		FontColor #C8Ac00
	BorderColor #333333
	BackgroundColor #333333-#333333
}


skinparam interface {
	BackgroundColor  #008400
	BorderColor  #007F00
	FontColor #484848
}


skinparam storage {
	BackgroundColor #ff8000
  	BorderColor #cc6600
	FontColor #222222
}


skinparam node {
	BackgroundColor #333333
	BorderColor #333333
	FontColor #C8Ac00
}


skinparam cloud {
	BackgroundColor #484848-black
	BorderColor #484848
	FontColor #D8Bc00
}


skinparam database {
		FontColor #C8Ac00
	BorderColor #333333
	BackgroundColor #333333-#333333
	BackgroundColor  #333333
}


skinparam class {
		FontColor #C8Ac00
	BorderColor #333333
	BackgroundColor #333333-#333333
	HeaderBackgroundColor #1b1b1a
    BackgroundColor #282828
    BorderColor #5e5e5e
 	StereotypeFontColor #a0a0a0
    StereotypeFontStyle bold
	BorderThickness 1
	AttributeFontColor #D8Bc00
	AttributeFontSize 11
    FontColor #D8Bc00
    FontStyle bold
}


skinparam object {
		FontColor #C8Ac00
	BorderColor #333333
	BackgroundColor #333333-#333333
	StereotypeFontColor #484848
	BorderThickness 1
	AttributeFontColor #fefefe
	AttributeFontSize 11
}


skinparam usecase {
		FontColor #C8Ac00
	BorderColor #333333
	BackgroundColor #333333-#333333
	BorderThickness 2
	StereotypeFontColor #303030
}


skinparam rectangle {
		FontColor #C8Ac00
	BorderColor #333333
	BackgroundColor #333333-#333333
	BackgroundColor #333333
	BorderThickness 2
	StereotypeFontColor #303030
}


skinparam package {
		FontColor #C8Ac00
	BorderColor #333333
	BackgroundColor #333333-#333333
	BackgroundColor #333333
	BorderThickness 2
}


skinparam folder {
	BackgroundColor #6d6d6d
  	BorderColor #ff8000
	FontColor #ff8000
	BorderThickness 2
}


skinparam frame {
	BackgroundColor #6d6d6d
  	BorderColor #0060a8
	FontColor #0060a8
	BorderThickness 2
}


skinparam state {
		FontColor #C8Ac00
	BorderColor #333333
	BackgroundColor #333333-#333333
	StartColor #0060a8
	EndColor #0060a8
	AttributeFontColor #fefefe
	AttributeFontSize 11
}


skinparam queue {
		FontColor #C8Ac00
	BorderColor #333333
	BackgroundColor #333333-#333333
}


skinparam card {
	BackgroundColor #0060a8
	BorderColor #004d86
	FontColor $INFO_TEXT
}


skinparam file {
	BackgroundColor #6d6d6d-#484848
	BorderColor #0060a8
	FontColor #fefefe
}


skinparam stack {
		FontColor #C8Ac00
	BorderColor #333333
	BackgroundColor #333333-#333333
}

    
    title "kivakit-data-formats-xml"
    
    artifact gson
    artifact cactus_build_metadata
    artifact kivakit_collections
    artifact kivakit_commandline
    artifact kivakit_component
    artifact kivakit_conversion
    artifact kivakit_core
    artifact kivakit_data_formats_xml
    artifact kivakit_interfaces
    artifact kivakit_mixins
    artifact kivakit_resource
    artifact kivakit_serialization_gson
    artifact kivakit_serialization_properties
    artifact kivakit_settings
    artifact kivakit_validation
    artifact lexakai_annotations
    artifact junit
    artifact hamcrest_core
    artifact annotations
    junit - -> hamcrest_core
    kivakit_collections - -> kivakit_core
    kivakit_commandline - -> kivakit_conversion
    kivakit_commandline - -> kivakit_validation
    kivakit_component - -> kivakit_settings
    kivakit_core - -> cactus_build_metadata
    kivakit_core - -> junit
    kivakit_core - -> kivakit_interfaces
    kivakit_core - -> kivakit_mixins
    kivakit_data_formats_xml - -> kivakit_component
    kivakit_data_formats_xml - -> kivakit_resource
    kivakit_interfaces - -> annotations
    kivakit_interfaces - -> lexakai_annotations
    kivakit_resource - -> kivakit_collections
    kivakit_resource - -> kivakit_commandline
    kivakit_serialization_gson - -> gson
    kivakit_settings - -> kivakit_serialization_gson
    kivakit_settings - -> kivakit_serialization_properties
    
@enduml

PlantUML version 1.2021.01(Tue Feb 02 00:55:08 MST 2021)
(GPL source distribution)
Java Runtime: OpenJDK Runtime Environment
JVM: OpenJDK 64-Bit Server VM
Default Encoding: UTF-8
Language: en
Country: US
--></g></svg>