<?xml version="1.0" encoding="UTF-8" standalone="no"?><svg xmlns="http://www.w3.org/2000/svg" xmlns:xlink="http://www.w3.org/1999/xlink" contentScriptType="application/ecmascript" contentStyleType="text/css" height="688.5417px" preserveAspectRatio="none" style="width:891px;height:688px;background:#333333;" version="1.1" viewBox="0 0 891 688" width="891.6667px" zoomAndPan="magnify"><defs/><g><rect fill="#48494B" height="41.2028" rx="8.3333" ry="8.3333" style="stroke:#545454;stroke-width:1.0416666666666667;" width="343.75" x="266.6667" y="2.0833"/><text fill="#C0C0C0" font-family="Open Sans,Avenir,Nunito,Arial,Helvetica,SansSerif" font-size="20.8333" lengthAdjust="spacing" textLength="320.8333" x="278.125" y="30.5583">com.telenav.kivakit.resource.spi</text><rect codeLine="7" fill="#282828" height="48.055" id="BaseRepeater" rx="8.3333" ry="8.3333" style="stroke:#5E5E5E;stroke-width:1.0416666666666667;" width="123.9583" x="65.1042" y="53.7028"/><rect fill="#1B1B1A" height="31.3883" rx="8.3333" ry="8.3333" style="stroke:#1B1B1A;stroke-width:1.0416666666666667;" width="123.9583" x="65.1042" y="53.7028"/><rect fill="#1B1B1A" height="8.3333" style="stroke:#1B1B1A;stroke-width:1.0416666666666667;" width="123.9583" x="65.1042" y="76.7578"/><rect codeLine="7" fill="none" height="48.055" id="BaseRepeater" rx="8.3333" ry="8.3333" style="stroke:#5E5E5E;stroke-width:1.0416666666666667;" width="123.9583" x="65.1042" y="53.7028"/><ellipse cx="79.6875" cy="69.397" fill="#C8AC00" rx="10.4167" ry="10.4167" style="stroke:#D8BC00;stroke-width:1.0416666666666667;"/><path d="M79.2806,66.099 L78.4322,69.8283 L80.1351,69.8283 Z M78.182,64.4511 L80.3853,64.4511 L82.8451,73.5636 L81.0445,73.5636 L80.483,71.3114 L78.0721,71.3114 L77.5228,73.5636 L75.7222,73.5636 Z " fill="#000000"/><text fill="#D8BC00" font-family="Open Sans,Avenir,Nunito,Arial,Helvetica,SansSerif" font-size="12.5" font-style="italic" font-weight="bold" lengthAdjust="spacing" textLength="86.4583" x="96.3542" y="74.1211">BaseRepeater</text><line style="stroke:#5E5E5E;stroke-width:1.0416666666666667;" x1="66.1458" x2="188.0208" y1="85.0911" y2="85.0911"/><line style="stroke:#5E5E5E;stroke-width:1.0416666666666667;" x1="66.1458" x2="188.0208" y1="93.4245" y2="93.4245"/><rect codeLine="28" fill="#282828" height="48.055" id="RepeaterMixin" rx="8.3333" ry="8.3333" style="stroke:#5E5E5E;stroke-width:1.0416666666666667;" width="129.1667" x="308.3333" y="217.2445"/><rect fill="#1B1B1A" height="31.3883" rx="8.3333" ry="8.3333" style="stroke:#1B1B1A;stroke-width:1.0416666666666667;" width="129.1667" x="308.3333" y="217.2445"/><rect fill="#1B1B1A" height="8.3333" style="stroke:#1B1B1A;stroke-width:1.0416666666666667;" width="129.1667" x="308.3333" y="240.2995"/><rect codeLine="28" fill="none" height="48.055" id="RepeaterMixin" rx="8.3333" ry="8.3333" style="stroke:#5E5E5E;stroke-width:1.0416666666666667;" width="129.1667" x="308.3333" y="217.2445"/><ellipse cx="322.9167" cy="232.9386" fill="#008400" rx="10.4167" ry="10.4167" style="stroke:#239C23;stroke-width:1.0416666666666667;"/><path d="M320.3206,230.1005 L320.3206,228.5136 L325.7467,228.5136 L325.7467,230.1005 L323.9339,230.1005 L323.9339,236.0392 L325.7467,236.0392 L325.7467,237.6261 L320.3206,237.6261 L320.3206,236.0392 L322.1334,236.0392 L322.1334,230.1005 Z " fill="#000000"/><text fill="#D8BC00" font-family="Open Sans,Avenir,Nunito,Arial,Helvetica,SansSerif" font-size="12.5" font-style="italic" font-weight="bold" lengthAdjust="spacing" textLength="91.6667" x="339.5833" y="237.6628">RepeaterMixin</text><line style="stroke:#5E5E5E;stroke-width:1.0416666666666667;" x1="309.375" x2="436.4583" y1="248.6328" y2="248.6328"/><line style="stroke:#5E5E5E;stroke-width:1.0416666666666667;" x1="309.375" x2="436.4583" y1="256.9661" y2="256.9661"/><rect codeLine="13" fill="#282828" height="127.0345" id="ResourceFolderResolver" rx="8.3333" ry="8.3333" style="stroke:#5E5E5E;stroke-width:1.0416666666666667;" width="333.3333" x="496.875" y="402.1403"/><rect fill="#1B1B1A" height="31.3883" rx="8.3333" ry="8.3333" style="stroke:#1B1B1A;stroke-width:1.0416666666666667;" width="333.3333" x="496.875" y="402.1403"/><rect fill="#1B1B1A" height="8.3333" style="stroke:#1B1B1A;stroke-width:1.0416666666666667;" width="333.3333" x="496.875" y="425.1953"/><rect codeLine="13" fill="none" height="127.0345" id="ResourceFolderResolver" rx="8.3333" ry="8.3333" style="stroke:#5E5E5E;stroke-width:1.0416666666666667;" width="333.3333" x="496.875" y="402.1403"/><ellipse cx="579.1667" cy="417.8345" fill="#008400" rx="10.4167" ry="10.4167" style="stroke:#239C23;stroke-width:1.0416666666666667;"/><path d="M576.5706,414.9963 L576.5706,413.4094 L581.9967,413.4094 L581.9967,414.9963 L580.1839,414.9963 L580.1839,420.9351 L581.9967,420.9351 L581.9967,422.522 L576.5706,422.522 L576.5706,420.9351 L578.3834,420.9351 L578.3834,414.9963 Z " fill="#000000"/><text fill="#D8BC00" font-family="Open Sans,Avenir,Nunito,Arial,Helvetica,SansSerif" font-size="12.5" font-style="italic" font-weight="bold" lengthAdjust="spacing" textLength="154.1667" x="602.0833" y="422.5586">ResourceFolderResolver</text><line style="stroke:#5E5E5E;stroke-width:1.5625;" x1="497.9167" x2="829.1667" y1="433.5286" y2="433.5286"/><ellipse cx="508.3333" cy="468.8985" fill="#84BE84" rx="3.125" ry="3.125" style="stroke:#038048;stroke-width:1.0416666666666667;"/><text fill="#D8BC00" font-family="Open Sans,Avenir,Nunito,Arial,Helvetica,SansSerif" font-size="11.4583" lengthAdjust="spacing" textLength="301.0417" x="519.7917" y="475.8097">ResourceFolder&lt;?&gt; resolve(ResourceFolderIdentifier)</text><line style="stroke:#5E5E5E;stroke-width:1.0416666666666667;" x1="497.9167" x2="628.125" y1="451.7344" y2="451.7344"/><text fill="#D8BC00" font-family="Open Sans,Avenir,Nunito,Arial,Helvetica,SansSerif" font-size="11.4583" lengthAdjust="spacing" textLength="64.5833" x="631.25" y="455.544">(filesystem)</text><line style="stroke:#5E5E5E;stroke-width:1.0416666666666667;" x1="698.9583" x2="829.1667" y1="451.7344" y2="451.7344"/><ellipse cx="508.3333" cy="512.5549" fill="#84BE84" rx="3.125" ry="3.125" style="stroke:#038048;stroke-width:1.0416666666666667;"/><text fill="#D8BC00" font-family="Open Sans,Avenir,Nunito,Arial,Helvetica,SansSerif" font-size="11.4583" lengthAdjust="spacing" textLength="236.4583" x="519.7917" y="519.4661">boolean accepts(ResourceFolderIdentifier)</text><line style="stroke:#5E5E5E;stroke-width:1.0416666666666667;" x1="497.9167" x2="634.375" y1="495.3908" y2="495.3908"/><text fill="#D8BC00" font-family="Open Sans,Avenir,Nunito,Arial,Helvetica,SansSerif" font-size="11.4583" lengthAdjust="spacing" textLength="52.0833" x="637.5" y="499.2004">(filtering)</text><line style="stroke:#5E5E5E;stroke-width:1.0416666666666667;" x1="692.7083" x2="829.1667" y1="495.3908" y2="495.3908"/><rect fill="#282828" height="48.055" id="ResourceIdentifier" rx="8.3333" ry="8.3333" style="stroke:#5E5E5E;stroke-width:1.0416666666666667;" width="155.2083" x="468.2292" y="633.9111"/><rect fill="#1B1B1A" height="31.3883" rx="8.3333" ry="8.3333" style="stroke:#1B1B1A;stroke-width:1.0416666666666667;" width="155.2083" x="468.2292" y="633.9111"/><rect fill="#1B1B1A" height="8.3333" style="stroke:#1B1B1A;stroke-width:1.0416666666666667;" width="155.2083" x="468.2292" y="656.9661"/><rect fill="none" height="48.055" id="ResourceIdentifier" rx="8.3333" ry="8.3333" style="stroke:#5E5E5E;stroke-width:1.0416666666666667;" width="155.2083" x="468.2292" y="633.9111"/><ellipse cx="482.8125" cy="649.6053" fill="#0066CF" rx="10.4167" ry="10.4167" style="stroke:#0086EF;stroke-width:1.0416666666666667;"/><path d="M484.7229,654.0304 Q484.2957,654.2501 483.8257,654.3599 Q483.3557,654.4698 482.8369,654.4698 Q480.9937,654.4698 480.0232,653.2552 Q479.0527,652.0406 479.0527,649.7457 Q479.0527,647.4447 480.0232,646.2301 Q480.9937,645.0155 482.8369,645.0155 Q483.3557,645.0155 483.8318,645.1253 Q484.3079,645.2352 484.7229,645.4549 L484.7229,647.4569 Q484.259,647.0296 483.8226,646.8313 Q483.3862,646.6329 482.9224,646.6329 Q481.9336,646.6329 481.4301,647.4172 Q480.9265,648.2015 480.9265,649.7457 Q480.9265,651.2838 481.4301,652.0681 Q481.9336,652.8524 482.9224,652.8524 Q483.3862,652.8524 483.8226,652.654 Q484.259,652.4556 484.7229,652.0284 Z " fill="#000000"/><text fill="#D8BC00" font-family="Open Sans,Avenir,Nunito,Arial,Helvetica,SansSerif" font-size="12.5" font-weight="bold" lengthAdjust="spacing" textLength="117.7083" x="499.4792" y="654.3294">ResourceIdentifier</text><line style="stroke:#5E5E5E;stroke-width:1.0416666666666667;" x1="469.2708" x2="622.3958" y1="665.2995" y2="665.2995"/><line style="stroke:#5E5E5E;stroke-width:1.0416666666666667;" x1="469.2708" x2="622.3958" y1="673.6328" y2="673.6328"/><rect fill="#282828" height="48.055" id="ResourceFolder" rx="8.3333" ry="8.3333" style="stroke:#5E5E5E;stroke-width:1.0416666666666667;" width="136.4583" x="659.8958" y="633.9111"/><rect fill="#1B1B1A" height="31.3883" rx="8.3333" ry="8.3333" style="stroke:#1B1B1A;stroke-width:1.0416666666666667;" width="136.4583" x="659.8958" y="633.9111"/><rect fill="#1B1B1A" height="8.3333" style="stroke:#1B1B1A;stroke-width:1.0416666666666667;" width="136.4583" x="659.8958" y="656.9661"/><rect fill="none" height="48.055" id="ResourceFolder" rx="8.3333" ry="8.3333" style="stroke:#5E5E5E;stroke-width:1.0416666666666667;" width="136.4583" x="659.8958" y="633.9111"/><ellipse cx="674.4792" cy="649.6053" fill="#0066CF" rx="10.4167" ry="10.4167" style="stroke:#0086EF;stroke-width:1.0416666666666667;"/><path d="M676.3896,654.0304 Q675.9623,654.2501 675.4924,654.3599 Q675.0224,654.4698 674.5036,654.4698 Q672.6603,654.4698 671.6899,653.2552 Q670.7194,652.0406 670.7194,649.7457 Q670.7194,647.4447 671.6899,646.2301 Q672.6603,645.0155 674.5036,645.0155 Q675.0224,645.0155 675.4985,645.1253 Q675.9745,645.2352 676.3896,645.4549 L676.3896,647.4569 Q675.9257,647.0296 675.4893,646.8313 Q675.0529,646.6329 674.589,646.6329 Q673.6003,646.6329 673.0967,647.4172 Q672.5932,648.2015 672.5932,649.7457 Q672.5932,651.2838 673.0967,652.0681 Q673.6003,652.8524 674.589,652.8524 Q675.0529,652.8524 675.4893,652.654 Q675.9257,652.4556 676.3896,652.0284 Z " fill="#000000"/><text fill="#D8BC00" font-family="Open Sans,Avenir,Nunito,Arial,Helvetica,SansSerif" font-size="12.5" font-weight="bold" lengthAdjust="spacing" textLength="98.9583" x="691.1458" y="654.3294">ResourceFolder</text><line style="stroke:#5E5E5E;stroke-width:1.0416666666666667;" x1="660.9375" x2="795.3125" y1="665.2995" y2="665.2995"/><line style="stroke:#5E5E5E;stroke-width:1.0416666666666667;" x1="660.9375" x2="795.3125" y1="673.6328" y2="673.6328"/><rect codeLine="22" fill="#282828" height="83.3781" id="ResourceFolderResolverServiceLoader" rx="8.3333" ry="8.3333" style="stroke:#5E5E5E;stroke-width:1.0416666666666667;" width="384.375" x="500" y="199.5361"/><rect fill="#1B1B1A" height="31.3883" rx="8.3333" ry="8.3333" style="stroke:#1B1B1A;stroke-width:1.0416666666666667;" width="384.375" x="500" y="199.5361"/><rect fill="#1B1B1A" height="8.3333" style="stroke:#1B1B1A;stroke-width:1.0416666666666667;" width="384.375" x="500" y="222.5911"/><rect codeLine="22" fill="none" height="83.3781" id="ResourceFolderResolverServiceLoader" rx="8.3333" ry="8.3333" style="stroke:#5E5E5E;stroke-width:1.0416666666666667;" width="384.375" x="500" y="199.5361"/><ellipse cx="563.5417" cy="215.2303" fill="#0066CF" rx="10.4167" ry="10.4167" style="stroke:#0086EF;stroke-width:1.0416666666666667;"/><path d="M565.4521,219.6554 Q565.0248,219.8751 564.5549,219.9849 Q564.0849,220.0948 563.5661,220.0948 Q561.7228,220.0948 560.7524,218.8802 Q559.7819,217.6656 559.7819,215.3707 Q559.7819,213.0697 560.7524,211.8551 Q561.7228,210.6405 563.5661,210.6405 Q564.0849,210.6405 564.561,210.7503 Q565.037,210.8602 565.4521,211.0799 L565.4521,213.0819 Q564.9882,212.6546 564.5518,212.4563 Q564.1154,212.2579 563.6515,212.2579 Q562.6628,212.2579 562.1592,213.0422 Q561.6557,213.8265 561.6557,215.3707 Q561.6557,216.9088 562.1592,217.6931 Q562.6628,218.4774 563.6515,218.4774 Q564.1154,218.4774 564.5518,218.279 Q564.9882,218.0806 565.4521,217.6534 Z " fill="#000000"/><text fill="#D8BC00" font-family="Open Sans,Avenir,Nunito,Arial,Helvetica,SansSerif" font-size="12.5" font-weight="bold" lengthAdjust="spacing" textLength="242.7083" x="586.4583" y="219.9544">ResourceFolderResolverServiceLoader</text><line style="stroke:#5E5E5E;stroke-width:1.5625;" x1="501.0417" x2="883.3333" y1="230.9245" y2="230.9245"/><ellipse cx="511.4583" cy="266.2944" fill="#84BE84" rx="3.125" ry="3.125" style="stroke:#038048;stroke-width:1.0416666666666667;"/><text fill="#D8BC00" font-family="Open Sans,Avenir,Nunito,Arial,Helvetica,SansSerif" font-size="11.4583" lengthAdjust="spacing" textLength="352.0833" x="522.9167" y="273.2056">ResourceFolder&lt;?&gt; resolve(Listener, ResourceFolderIdentifier)</text><line style="stroke:#5E5E5E;stroke-width:1.0416666666666667;" x1="501.0417" x2="656.7708" y1="249.1302" y2="249.1302"/><text fill="#D8BC00" font-family="Open Sans,Avenir,Nunito,Arial,Helvetica,SansSerif" font-size="11.4583" lengthAdjust="spacing" textLength="64.5833" x="659.8958" y="252.9399">(filesystem)</text><line style="stroke:#5E5E5E;stroke-width:1.0416666666666667;" x1="727.6042" x2="883.3333" y1="249.1302" y2="249.1302"/><rect codeLine="32" fill="#282828" height="111.4563" id="ResourceResolver" rx="8.3333" ry="8.3333" style="stroke:#5E5E5E;stroke-width:1.0416666666666667;" width="238.5417" x="94.7917" y="409.432"/><rect fill="#1B1B1A" height="31.3883" rx="8.3333" ry="8.3333" style="stroke:#1B1B1A;stroke-width:1.0416666666666667;" width="238.5417" x="94.7917" y="409.432"/><rect fill="#1B1B1A" height="8.3333" style="stroke:#1B1B1A;stroke-width:1.0416666666666667;" width="238.5417" x="94.7917" y="432.487"/><rect codeLine="32" fill="none" height="111.4563" id="ResourceResolver" rx="8.3333" ry="8.3333" style="stroke:#5E5E5E;stroke-width:1.0416666666666667;" width="238.5417" x="94.7917" y="409.432"/><ellipse cx="150" cy="425.1261" fill="#008400" rx="10.4167" ry="10.4167" style="stroke:#239C23;stroke-width:1.0416666666666667;"/><path d="M147.404,422.288 L147.404,420.7011 L152.83,420.7011 L152.83,422.288 L151.0173,422.288 L151.0173,428.2267 L152.83,428.2267 L152.83,429.8136 L147.404,429.8136 L147.404,428.2267 L149.2167,428.2267 L149.2167,422.288 Z " fill="#000000"/><text fill="#D8BC00" font-family="Open Sans,Avenir,Nunito,Arial,Helvetica,SansSerif" font-size="12.5" font-style="italic" font-weight="bold" lengthAdjust="spacing" textLength="113.5417" x="172.9167" y="429.8503">ResourceResolver</text><line style="stroke:#5E5E5E;stroke-width:1.5625;" x1="95.8333" x2="332.2917" y1="440.8203" y2="440.8203"/><line style="stroke:#5E5E5E;stroke-width:1.0416666666666667;" x1="95.8333" x2="332.2917" y1="449.1536" y2="449.1536"/><ellipse cx="106.25" cy="460.612" fill="#84BE84" rx="3.125" ry="3.125" style="stroke:#038048;stroke-width:1.0416666666666667;"/><text fill="#D8BC00" font-family="Open Sans,Avenir,Nunito,Arial,Helvetica,SansSerif" font-size="11.4583" lengthAdjust="spacing" textLength="206.25" x="117.7083" y="467.5232">Resource resolve(ResourceIdentifier)</text><ellipse cx="106.25" cy="504.2684" fill="#84BE84" rx="3.125" ry="3.125" style="stroke:#038048;stroke-width:1.0416666666666667;"/><text fill="#D8BC00" font-family="Open Sans,Avenir,Nunito,Arial,Helvetica,SansSerif" font-size="11.4583" lengthAdjust="spacing" textLength="201.0417" x="117.7083" y="511.1796">boolean accepts(ResourceIdentifier)</text><line style="stroke:#5E5E5E;stroke-width:1.0416666666666667;" x1="95.8333" x2="184.8958" y1="487.1043" y2="487.1043"/><text fill="#D8BC00" font-family="Open Sans,Avenir,Nunito,Arial,Helvetica,SansSerif" font-size="11.4583" lengthAdjust="spacing" textLength="52.0833" x="188.0208" y="490.9139">(filtering)</text><line style="stroke:#5E5E5E;stroke-width:1.0416666666666667;" x1="243.2292" x2="332.2917" y1="487.1043" y2="487.1043"/><rect fill="#282828" height="48.055" id="ResourceFolderIdentifier" rx="8.3333" ry="8.3333" style="stroke:#5E5E5E;stroke-width:1.0416666666666667;" width="195.8333" x="51.0417" y="633.9111"/><rect fill="#1B1B1A" height="31.3883" rx="8.3333" ry="8.3333" style="stroke:#1B1B1A;stroke-width:1.0416666666666667;" width="195.8333" x="51.0417" y="633.9111"/><rect fill="#1B1B1A" height="8.3333" style="stroke:#1B1B1A;stroke-width:1.0416666666666667;" width="195.8333" x="51.0417" y="656.9661"/><rect fill="none" height="48.055" id="ResourceFolderIdentifier" rx="8.3333" ry="8.3333" style="stroke:#5E5E5E;stroke-width:1.0416666666666667;" width="195.8333" x="51.0417" y="633.9111"/><ellipse cx="65.625" cy="649.6053" fill="#0066CF" rx="10.4167" ry="10.4167" style="stroke:#0086EF;stroke-width:1.0416666666666667;"/><path d="M67.5354,654.0304 Q67.1082,654.2501 66.6382,654.3599 Q66.1682,654.4698 65.6494,654.4698 Q63.8062,654.4698 62.8357,653.2552 Q61.8652,652.0406 61.8652,649.7457 Q61.8652,647.4447 62.8357,646.2301 Q63.8062,645.0155 65.6494,645.0155 Q66.1682,645.0155 66.6443,645.1253 Q67.1204,645.2352 67.5354,645.4549 L67.5354,647.4569 Q67.0715,647.0296 66.6351,646.8313 Q66.1987,646.6329 65.7349,646.6329 Q64.7461,646.6329 64.2426,647.4172 Q63.739,648.2015 63.739,649.7457 Q63.739,651.2838 64.2426,652.0681 Q64.7461,652.8524 65.7349,652.8524 Q66.1987,652.8524 66.6351,652.654 Q67.0715,652.4556 67.5354,652.0284 Z " fill="#000000"/><text fill="#D8BC00" font-family="Open Sans,Avenir,Nunito,Arial,Helvetica,SansSerif" font-size="12.5" font-weight="bold" lengthAdjust="spacing" textLength="158.3333" x="82.2917" y="654.3294">ResourceFolderIdentifier</text><line style="stroke:#5E5E5E;stroke-width:1.0416666666666667;" x1="52.0833" x2="245.8333" y1="665.2995" y2="665.2995"/><line style="stroke:#5E5E5E;stroke-width:1.0416666666666667;" x1="52.0833" x2="245.8333" y1="673.6328" y2="673.6328"/><rect fill="#282828" height="48.055" id="Resource" rx="8.3333" ry="8.3333" style="stroke:#5E5E5E;stroke-width:1.0416666666666667;" width="95.8333" x="283.3333" y="633.9111"/><rect fill="#1B1B1A" height="31.3883" rx="8.3333" ry="8.3333" style="stroke:#1B1B1A;stroke-width:1.0416666666666667;" width="95.8333" x="283.3333" y="633.9111"/><rect fill="#1B1B1A" height="8.3333" style="stroke:#1B1B1A;stroke-width:1.0416666666666667;" width="95.8333" x="283.3333" y="656.9661"/><rect fill="none" height="48.055" id="Resource" rx="8.3333" ry="8.3333" style="stroke:#5E5E5E;stroke-width:1.0416666666666667;" width="95.8333" x="283.3333" y="633.9111"/><ellipse cx="297.9167" cy="649.6053" fill="#0066CF" rx="10.4167" ry="10.4167" style="stroke:#0086EF;stroke-width:1.0416666666666667;"/><path d="M299.8271,654.0304 Q299.3998,654.2501 298.9299,654.3599 Q298.4599,654.4698 297.9411,654.4698 Q296.0978,654.4698 295.1274,653.2552 Q294.1569,652.0406 294.1569,649.7457 Q294.1569,647.4447 295.1274,646.2301 Q296.0978,645.0155 297.9411,645.0155 Q298.4599,645.0155 298.936,645.1253 Q299.412,645.2352 299.8271,645.4549 L299.8271,647.4569 Q299.3632,647.0296 298.9268,646.8313 Q298.4904,646.6329 298.0265,646.6329 Q297.0378,646.6329 296.5342,647.4172 Q296.0307,648.2015 296.0307,649.7457 Q296.0307,651.2838 296.5342,652.0681 Q297.0378,652.8524 298.0265,652.8524 Q298.4904,652.8524 298.9268,652.654 Q299.3632,652.4556 299.8271,652.0284 Z " fill="#000000"/><text fill="#D8BC00" font-family="Open Sans,Avenir,Nunito,Arial,Helvetica,SansSerif" font-size="12.5" font-weight="bold" lengthAdjust="spacing" textLength="58.3333" x="314.5833" y="654.3294">Resource</text><line style="stroke:#5E5E5E;stroke-width:1.0416666666666667;" x1="284.375" x2="378.125" y1="665.2995" y2="665.2995"/><line style="stroke:#5E5E5E;stroke-width:1.0416666666666667;" x1="284.375" x2="378.125" y1="673.6328" y2="673.6328"/><rect codeLine="42" fill="#282828" height="111.4563" id="ResourceResolverServiceLoader" rx="8.3333" ry="8.3333" style="stroke:#5E5E5E;stroke-width:1.0416666666666667;" width="239.5833" x="7.2917" y="185.9945"/><rect fill="#1B1B1A" height="31.3883" rx="8.3333" ry="8.3333" style="stroke:#1B1B1A;stroke-width:1.0416666666666667;" width="239.5833" x="7.2917" y="185.9945"/><rect fill="#1B1B1A" height="8.3333" style="stroke:#1B1B1A;stroke-width:1.0416666666666667;" width="239.5833" x="7.2917" y="209.0495"/><rect codeLine="42" fill="none" height="111.4563" id="ResourceResolverServiceLoader" rx="8.3333" ry="8.3333" style="stroke:#5E5E5E;stroke-width:1.0416666666666667;" width="239.5833" x="7.2917" y="185.9945"/><ellipse cx="21.875" cy="201.6886" fill="#0066CF" rx="10.4167" ry="10.4167" style="stroke:#0086EF;stroke-width:1.0416666666666667;"/><path d="M23.7854,206.1137 Q23.3582,206.3334 22.8882,206.4433 Q22.4182,206.5531 21.8994,206.5531 Q20.0562,206.5531 19.0857,205.3385 Q18.1152,204.1239 18.1152,201.829 Q18.1152,199.528 19.0857,198.3134 Q20.0562,197.0988 21.8994,197.0988 Q22.4182,197.0988 22.8943,197.2087 Q23.3704,197.3185 23.7854,197.5382 L23.7854,199.5402 Q23.3215,199.113 22.8851,198.9146 Q22.4487,198.7162 21.9849,198.7162 Q20.9961,198.7162 20.4926,199.5005 Q19.989,200.2848 19.989,201.829 Q19.989,203.3671 20.4926,204.1514 Q20.9961,204.9357 21.9849,204.9357 Q22.4487,204.9357 22.8851,204.7373 Q23.3215,204.539 23.7854,204.1117 Z " fill="#000000"/><text fill="#D8BC00" font-family="Open Sans,Avenir,Nunito,Arial,Helvetica,SansSerif" font-size="12.5" font-weight="bold" lengthAdjust="spacing" textLength="202.0833" x="38.5417" y="206.4128">ResourceResolverServiceLoader</text><line style="stroke:#5E5E5E;stroke-width:1.5625;" x1="8.3333" x2="245.8333" y1="217.3828" y2="217.3828"/><line style="stroke:#5E5E5E;stroke-width:1.0416666666666667;" x1="8.3333" x2="245.8333" y1="225.7161" y2="225.7161"/><ellipse cx="18.75" cy="237.1745" fill="#84BE84" rx="3.125" ry="3.125" style="stroke:#038048;stroke-width:1.0416666666666667;"/><text fill="#D8BC00" font-family="Open Sans,Avenir,Nunito,Arial,Helvetica,SansSerif" font-size="11.4583" lengthAdjust="spacing" textLength="206.25" x="30.2083" y="244.0857">Resource resolve(ResourceIdentifier)</text><ellipse cx="18.75" cy="280.8309" fill="#84BE84" rx="3.125" ry="3.125" style="stroke:#038048;stroke-width:1.0416666666666667;"/><text fill="#D8BC00" font-family="Open Sans,Avenir,Nunito,Arial,Helvetica,SansSerif" font-size="11.4583" lengthAdjust="spacing" textLength="207.2917" x="30.2083" y="287.7421">ResourceResolverServiceLoader get()</text><line style="stroke:#5E5E5E;stroke-width:1.0416666666666667;" x1="8.3333" x2="100" y1="263.6668" y2="263.6668"/><text fill="#D8BC00" font-family="Open Sans,Avenir,Nunito,Arial,Helvetica,SansSerif" font-size="11.4583" lengthAdjust="spacing" textLength="47.9167" x="103.125" y="267.4764">(service)</text><line style="stroke:#5E5E5E;stroke-width:1.0416666666666667;" x1="154.1667" x2="245.8333" y1="263.6668" y2="263.6668"/><path codeLine="10" d="M412.5,279.557 C426.0833,291.9007 441.5625,305.4736 456.25,317.2445 C492.6042,346.3695 534.2083,376.5257 570.5417,401.9111 " fill="none" id="RepeaterMixin-backto-ResourceFolderResolver" style="stroke:#545454;stroke-width:1.5625;"/><polygon fill="none" points="407.4375,284.807,397.0625,265.3278,417.3229,274.0882,407.4375,284.807" style="stroke:#545454;stroke-width:1.5625;"/><path codeLine="11" d="M625.4896,528.182 C604.4896,562.0882 579.4479,602.5361 563.125,628.9111 " fill="none" id="ResourceFolderResolver-to-ResourceIdentifier" style="stroke:#545454;stroke-width:1.5625;"/><polygon fill="#545454" points="560.1771,633.6611,568.6477,627.8732,562.9134,629.2295,561.5571,623.4952,560.1771,633.6611" style="stroke:#545454;stroke-width:1.5625;"/><text fill="#A0A0A0" font-family="Open Sans,Avenir,Nunito,Arial,Helvetica,SansSerif" font-size="12.5" font-weight="bold" lengthAdjust="spacing" textLength="42.7083" x="595.8333" y="595.9961">parses</text><path codeLine="12" d="M684.4167,528.182 C695.8958,561.9424 709.5625,602.2028 718.5313,628.5778 " fill="none" id="ResourceFolderResolver-to-ResourceFolder" style="stroke:#545454;stroke-width:1.5625;"/><polygon fill="#545454" points="720.25,633.6611,721.1643,623.4427,718.5673,628.7321,713.2779,626.1351,720.25,633.6611" style="stroke:#545454;stroke-width:1.5625;"/><text fill="#A0A0A0" font-family="Open Sans,Avenir,Nunito,Arial,Helvetica,SansSerif" font-size="12.5" font-weight="bold" lengthAdjust="spacing" textLength="45.8333" x="712.5" y="595.9961">creates</text><path codeLine="21" d="M685.5833,296.5465 C681.4167,328.3486 676.125,368.6507 671.7813,401.8278 " fill="none" id="ResourceFolderResolverServiceLoader-backto-ResourceFolderResolver" style="stroke:#545454;stroke-width:1.5625;"/><polygon fill="#333333" points="687.3542,283.0361,682.4128,288.6936,685.7345,295.4308,690.6759,289.7733,687.3542,283.0361" style="stroke:#545454;stroke-width:1.5625;"/><text fill="#A0A0A0" font-family="Open Sans,Avenir,Nunito,Arial,Helvetica,SansSerif" font-size="12.5" font-weight="bold" lengthAdjust="spacing" textLength="8.3333" x="690.871" y="306.5809">1</text><text fill="#A0A0A0" font-family="Open Sans,Avenir,Nunito,Arial,Helvetica,SansSerif" font-size="12.5" font-weight="bold" lengthAdjust="spacing" textLength="6.25" x="662.6239" y="388.0913">*</text><path codeLine="29" d="M343.8333,282.9007 C318.4375,318.4007 281.3958,370.2028 253.4583,409.2445 " fill="none" id="RepeaterMixin-backto-ResourceResolver" style="stroke:#545454;stroke-width:1.5625;"/><polygon fill="none" points="338.2188,278.2132,356.2708,265.5153,350.0833,286.7028,338.2188,278.2132" style="stroke:#545454;stroke-width:1.5625;"/><path codeLine="30" d="M195.9583,519.9424 C183.8229,555.2757 168.4896,599.9215 158.7083,628.4424 " fill="none" id="ResourceResolver-to-ResourceFolderIdentifier" style="stroke:#545454;stroke-width:1.5625;"/><polygon fill="#545454" points="156.9479,633.5674,163.9403,626.0602,158.644,628.6429,156.0612,623.3465,156.9479,633.5674" style="stroke:#545454;stroke-width:1.5625;"/><text fill="#A0A0A0" font-family="Open Sans,Avenir,Nunito,Arial,Helvetica,SansSerif" font-size="12.5" font-weight="bold" lengthAdjust="spacing" textLength="42.7083" x="179.1667" y="595.9961">parses</text><path codeLine="31" d="M247.7083,519.9424 C269.3542,555.4215 296.75,600.2965 314.1354,628.7965 " fill="none" id="ResourceResolver-to-Resource" style="stroke:#545454;stroke-width:1.5625;"/><polygon fill="#545454" points="317.0521,633.5674,315.712,623.3961,314.3332,629.125,308.6042,627.7463,317.0521,633.5674" style="stroke:#545454;stroke-width:1.5625;"/><text fill="#A0A0A0" font-family="Open Sans,Avenir,Nunito,Arial,Helvetica,SansSerif" font-size="12.5" font-weight="bold" lengthAdjust="spacing" textLength="45.8333" x="301.0417" y="595.9961">creates</text><path codeLine="40" d="M127.0833,122.9528 C127.0833,142.3382 127.0833,165.2757 127.0833,185.6924 " fill="none" id="BaseRepeater-backto-ResourceResolverServiceLoader" style="stroke:#545454;stroke-width:1.5625;"/><polygon fill="none" points="119.7917,122.6715,127.0833,101.8382,134.375,122.6715,119.7917,122.6715" style="stroke:#545454;stroke-width:1.5625;"/><path codeLine="41" d="M153.6875,309.5361 C166.3333,341.5257 181.2396,379.2549 193.1458,409.3799 " fill="none" id="ResourceResolverServiceLoader-backto-ResourceResolver" style="stroke:#545454;stroke-width:1.5625;"/><polygon fill="#333333" points="148.6042,296.682,147.0282,304.0264,153.2016,308.3058,154.7775,300.9614,148.6042,296.682" style="stroke:#545454;stroke-width:1.5625;"/><text fill="#A0A0A0" font-family="Open Sans,Avenir,Nunito,Arial,Helvetica,SansSerif" font-size="12.5" font-weight="bold" lengthAdjust="spacing" textLength="8.3333" x="139.1468" y="321.0952">1</text><text fill="#A0A0A0" font-family="Open Sans,Avenir,Nunito,Arial,Helvetica,SansSerif" font-size="12.5" font-weight="bold" lengthAdjust="spacing" textLength="6.25" x="180.2901" y="395.2839">*</text></g></svg>
