<?xml version="1.0" encoding="UTF-8" standalone="no"?><svg xmlns="http://www.w3.org/2000/svg" xmlns:xlink="http://www.w3.org/1999/xlink" contentScriptType="application/ecmascript" contentStyleType="text/css" height="811.4583px" preserveAspectRatio="none" style="width:1373px;height:811px;background:#333333;" version="1.1" viewBox="0 0 1373 811" width="1373.9583px" zoomAndPan="magnify"><defs/><g><rect fill="#48494B" height="41.2028" rx="8.3333" ry="8.3333" style="stroke:#545454;stroke-width:1.0416666666666667;" width="229.1667" x="565.3646" y="2.0833"/><text fill="#C0C0C0" font-family="Open Sans,Avenir,Nunito,Arial,Helvetica,SansSerif" font-size="20.8333" lengthAdjust="spacing" textLength="206.25" x="576.8229" y="30.5583">Resources - Services</text><polygon fill="#333333" points="400.5208,654.7445,435.9375,654.7445,443.2292,681.9661,527.6042,681.9661,527.6042,759.9528,400.5208,759.9528,400.5208,654.7445" style="stroke:#333333;stroke-width:2.0833333333333335;"/><line style="stroke:#333333;stroke-width:2.0833333333333335;" x1="400.5208" x2="443.2292" y1="681.9661" y2="681.9661"/><text fill="#C8AC00" font-family="Open Sans,Avenir,Nunito,Arial,Helvetica,SansSerif" font-size="12.5" font-weight="bold" lengthAdjust="spacing" textLength="22.9167" x="407.8125" y="672.0378">File</text><polygon fill="#333333" points="1077.6042,654.7445,1130.7292,654.7445,1138.0208,681.9661,1204.6875,681.9661,1204.6875,759.9528,1077.6042,759.9528,1077.6042,654.7445" style="stroke:#333333;stroke-width:2.0833333333333335;"/><line style="stroke:#333333;stroke-width:2.0833333333333335;" x1="1077.6042" x2="1138.0208" y1="681.9661" y2="681.9661"/><text fill="#C8AC00" font-family="Open Sans,Avenir,Nunito,Arial,Helvetica,SansSerif" font-size="12.5" font-weight="bold" lengthAdjust="spacing" textLength="40.625" x="1084.8958" y="672.0378">Folder</text><polygon fill="#333333" points="1229.6875,654.7445,1294.2708,654.7445,1301.5625,681.9661,1356.7708,681.9661,1356.7708,759.9528,1229.6875,759.9528,1229.6875,654.7445" style="stroke:#333333;stroke-width:2.0833333333333335;"/><line style="stroke:#333333;stroke-width:2.0833333333333335;" x1="1229.6875" x2="1301.5625" y1="681.9661" y2="681.9661"/><text fill="#C8AC00" font-family="Open Sans,Avenir,Nunito,Arial,Helvetica,SansSerif" font-size="12.5" font-weight="bold" lengthAdjust="spacing" textLength="52.0833" x="1236.9792" y="672.0378">Package</text><polygon fill="#333333" points="552.6042,654.7445,675.5208,654.7445,682.8125,681.9661,685.9375,681.9661,685.9375,759.9528,552.6042,759.9528,552.6042,654.7445" style="stroke:#333333;stroke-width:2.0833333333333335;"/><line style="stroke:#333333;stroke-width:2.0833333333333335;" x1="552.6042" x2="682.8125" y1="681.9661" y2="681.9661"/><text fill="#C8AC00" font-family="Open Sans,Avenir,Nunito,Arial,Helvetica,SansSerif" font-size="12.5" font-weight="bold" lengthAdjust="spacing" textLength="110.4167" x="559.8958" y="672.0378">PackageResource</text><rect codeLine="13" fill="#282828" height="48.055" id="File.Resolver" rx="8.3333" ry="8.3333" style="stroke:#5E5E5E;stroke-width:1.0416666666666667;" width="92.7083" x="417.7083" y="695.3695"/><rect fill="#1B1B1A" height="31.3883" rx="8.3333" ry="8.3333" style="stroke:#1B1B1A;stroke-width:1.0416666666666667;" width="92.7083" x="417.7083" y="695.3695"/><rect fill="#1B1B1A" height="8.3333" style="stroke:#1B1B1A;stroke-width:1.0416666666666667;" width="92.7083" x="417.7083" y="718.4245"/><rect codeLine="13" fill="none" height="48.055" id="File.Resolver" rx="8.3333" ry="8.3333" style="stroke:#5E5E5E;stroke-width:1.0416666666666667;" width="92.7083" x="417.7083" y="695.3695"/><ellipse cx="432.2917" cy="711.0636" fill="#0066CF" rx="10.4167" ry="10.4167" style="stroke:#0086EF;stroke-width:1.0416666666666667;"/><path d="M434.2021,715.4887 Q433.7748,715.7084 433.3049,715.8183 Q432.8349,715.9281 432.3161,715.9281 Q430.4728,715.9281 429.5024,714.7135 Q428.5319,713.4989 428.5319,711.204 Q428.5319,708.903 429.5024,707.6884 Q430.4728,706.4738 432.3161,706.4738 Q432.8349,706.4738 433.311,706.5837 Q433.787,706.6935 434.2021,706.9132 L434.2021,708.9152 Q433.7382,708.488 433.3018,708.2896 Q432.8654,708.0912 432.4015,708.0912 Q431.4128,708.0912 430.9092,708.8755 Q430.4057,709.6598 430.4057,711.204 Q430.4057,712.7421 430.9092,713.5264 Q431.4128,714.3107 432.4015,714.3107 Q432.8654,714.3107 433.3018,714.1123 Q433.7382,713.914 434.2021,713.4867 Z " fill="#000000"/><text fill="#D8BC00" font-family="Open Sans,Avenir,Nunito,Arial,Helvetica,SansSerif" font-size="12.5" font-weight="bold" lengthAdjust="spacing" textLength="55.2083" x="448.9583" y="715.7878">Resolver</text><line style="stroke:#5E5E5E;stroke-width:1.0416666666666667;" x1="418.75" x2="509.375" y1="726.7578" y2="726.7578"/><line style="stroke:#5E5E5E;stroke-width:1.0416666666666667;" x1="418.75" x2="509.375" y1="735.0911" y2="735.0911"/><rect codeLine="18" fill="#282828" height="48.055" id="Folder.Resolver" rx="8.3333" ry="8.3333" style="stroke:#5E5E5E;stroke-width:1.0416666666666667;" width="92.7083" x="1094.7917" y="695.3695"/><rect fill="#1B1B1A" height="31.3883" rx="8.3333" ry="8.3333" style="stroke:#1B1B1A;stroke-width:1.0416666666666667;" width="92.7083" x="1094.7917" y="695.3695"/><rect fill="#1B1B1A" height="8.3333" style="stroke:#1B1B1A;stroke-width:1.0416666666666667;" width="92.7083" x="1094.7917" y="718.4245"/><rect codeLine="18" fill="none" height="48.055" id="Folder.Resolver" rx="8.3333" ry="8.3333" style="stroke:#5E5E5E;stroke-width:1.0416666666666667;" width="92.7083" x="1094.7917" y="695.3695"/><ellipse cx="1109.375" cy="711.0636" fill="#0066CF" rx="10.4167" ry="10.4167" style="stroke:#0086EF;stroke-width:1.0416666666666667;"/><path d="M1111.2854,715.4887 Q1110.8582,715.7084 1110.3882,715.8183 Q1109.9182,715.9281 1109.3994,715.9281 Q1107.5562,715.9281 1106.5857,714.7135 Q1105.6152,713.4989 1105.6152,711.204 Q1105.6152,708.903 1106.5857,707.6884 Q1107.5562,706.4738 1109.3994,706.4738 Q1109.9182,706.4738 1110.3943,706.5837 Q1110.8704,706.6935 1111.2854,706.9132 L1111.2854,708.9152 Q1110.8215,708.488 1110.3851,708.2896 Q1109.9487,708.0912 1109.4849,708.0912 Q1108.4961,708.0912 1107.9926,708.8755 Q1107.489,709.6598 1107.489,711.204 Q1107.489,712.7421 1107.9926,713.5264 Q1108.4961,714.3107 1109.4849,714.3107 Q1109.9487,714.3107 1110.3851,714.1123 Q1110.8215,713.914 1111.2854,713.4867 Z " fill="#000000"/><text fill="#D8BC00" font-family="Open Sans,Avenir,Nunito,Arial,Helvetica,SansSerif" font-size="12.5" font-weight="bold" lengthAdjust="spacing" textLength="55.2083" x="1126.0417" y="715.7878">Resolver</text><line style="stroke:#5E5E5E;stroke-width:1.0416666666666667;" x1="1095.8333" x2="1186.4583" y1="726.7578" y2="726.7578"/><line style="stroke:#5E5E5E;stroke-width:1.0416666666666667;" x1="1095.8333" x2="1186.4583" y1="735.0911" y2="735.0911"/><rect codeLine="23" fill="#282828" height="48.055" id="Package.Resolver" rx="8.3333" ry="8.3333" style="stroke:#5E5E5E;stroke-width:1.0416666666666667;" width="92.7083" x="1246.875" y="695.3695"/><rect fill="#1B1B1A" height="31.3883" rx="8.3333" ry="8.3333" style="stroke:#1B1B1A;stroke-width:1.0416666666666667;" width="92.7083" x="1246.875" y="695.3695"/><rect fill="#1B1B1A" height="8.3333" style="stroke:#1B1B1A;stroke-width:1.0416666666666667;" width="92.7083" x="1246.875" y="718.4245"/><rect codeLine="23" fill="none" height="48.055" id="Package.Resolver" rx="8.3333" ry="8.3333" style="stroke:#5E5E5E;stroke-width:1.0416666666666667;" width="92.7083" x="1246.875" y="695.3695"/><ellipse cx="1261.4583" cy="711.0636" fill="#0066CF" rx="10.4167" ry="10.4167" style="stroke:#0086EF;stroke-width:1.0416666666666667;"/><path d="M1263.3687,715.4887 Q1262.9415,715.7084 1262.4715,715.8183 Q1262.0015,715.9281 1261.4827,715.9281 Q1259.6395,715.9281 1258.669,714.7135 Q1257.6986,713.4989 1257.6986,711.204 Q1257.6986,708.903 1258.669,707.6884 Q1259.6395,706.4738 1261.4827,706.4738 Q1262.0015,706.4738 1262.4776,706.5837 Q1262.9537,706.6935 1263.3687,706.9132 L1263.3687,708.9152 Q1262.9049,708.488 1262.4685,708.2896 Q1262.0321,708.0912 1261.5682,708.0912 Q1260.5794,708.0912 1260.0759,708.8755 Q1259.5723,709.6598 1259.5723,711.204 Q1259.5723,712.7421 1260.0759,713.5264 Q1260.5794,714.3107 1261.5682,714.3107 Q1262.0321,714.3107 1262.4685,714.1123 Q1262.9049,713.914 1263.3687,713.4867 Z " fill="#000000"/><text fill="#D8BC00" font-family="Open Sans,Avenir,Nunito,Arial,Helvetica,SansSerif" font-size="12.5" font-weight="bold" lengthAdjust="spacing" textLength="55.2083" x="1278.125" y="715.7878">Resolver</text><line style="stroke:#5E5E5E;stroke-width:1.0416666666666667;" x1="1247.9167" x2="1338.5417" y1="726.7578" y2="726.7578"/><line style="stroke:#5E5E5E;stroke-width:1.0416666666666667;" x1="1247.9167" x2="1338.5417" y1="735.0911" y2="735.0911"/><rect codeLine="28" fill="#282828" height="48.055" id="PackageResource.Resolver" rx="8.3333" ry="8.3333" style="stroke:#5E5E5E;stroke-width:1.0416666666666667;" width="92.7083" x="569.7917" y="695.3695"/><rect fill="#1B1B1A" height="31.3883" rx="8.3333" ry="8.3333" style="stroke:#1B1B1A;stroke-width:1.0416666666666667;" width="92.7083" x="569.7917" y="695.3695"/><rect fill="#1B1B1A" height="8.3333" style="stroke:#1B1B1A;stroke-width:1.0416666666666667;" width="92.7083" x="569.7917" y="718.4245"/><rect codeLine="28" fill="none" height="48.055" id="PackageResource.Resolver" rx="8.3333" ry="8.3333" style="stroke:#5E5E5E;stroke-width:1.0416666666666667;" width="92.7083" x="569.7917" y="695.3695"/><ellipse cx="584.375" cy="711.0636" fill="#0066CF" rx="10.4167" ry="10.4167" style="stroke:#0086EF;stroke-width:1.0416666666666667;"/><path d="M586.2854,715.4887 Q585.8582,715.7084 585.3882,715.8183 Q584.9182,715.9281 584.3994,715.9281 Q582.5562,715.9281 581.5857,714.7135 Q580.6152,713.4989 580.6152,711.204 Q580.6152,708.903 581.5857,707.6884 Q582.5562,706.4738 584.3994,706.4738 Q584.9182,706.4738 585.3943,706.5837 Q585.8704,706.6935 586.2854,706.9132 L586.2854,708.9152 Q585.8215,708.488 585.3851,708.2896 Q584.9487,708.0912 584.4849,708.0912 Q583.4961,708.0912 582.9926,708.8755 Q582.489,709.6598 582.489,711.204 Q582.489,712.7421 582.9926,713.5264 Q583.4961,714.3107 584.4849,714.3107 Q584.9487,714.3107 585.3851,714.1123 Q585.8215,713.914 586.2854,713.4867 Z " fill="#000000"/><text fill="#D8BC00" font-family="Open Sans,Avenir,Nunito,Arial,Helvetica,SansSerif" font-size="12.5" font-weight="bold" lengthAdjust="spacing" textLength="55.2083" x="601.0417" y="715.7878">Resolver</text><line style="stroke:#5E5E5E;stroke-width:1.0416666666666667;" x1="570.8333" x2="661.4583" y1="726.7578" y2="726.7578"/><line style="stroke:#5E5E5E;stroke-width:1.0416666666666667;" x1="570.8333" x2="661.4583" y1="735.0911" y2="735.0911"/><rect codeLine="7" fill="#282828" height="48.055" id="BaseRepeater" rx="8.3333" ry="8.3333" style="stroke:#5E5E5E;stroke-width:1.0416666666666667;" width="123.9583" x="368.75" y="53.7028"/><rect fill="#1B1B1A" height="31.3883" rx="8.3333" ry="8.3333" style="stroke:#1B1B1A;stroke-width:1.0416666666666667;" width="123.9583" x="368.75" y="53.7028"/><rect fill="#1B1B1A" height="8.3333" style="stroke:#1B1B1A;stroke-width:1.0416666666666667;" width="123.9583" x="368.75" y="76.7578"/><rect codeLine="7" fill="none" height="48.055" id="BaseRepeater" rx="8.3333" ry="8.3333" style="stroke:#5E5E5E;stroke-width:1.0416666666666667;" width="123.9583" x="368.75" y="53.7028"/><ellipse cx="383.3333" cy="69.397" fill="#C8AC00" rx="10.4167" ry="10.4167" style="stroke:#D8BC00;stroke-width:1.0416666666666667;"/><path d="M382.9264,66.099 L382.078,69.8283 L383.7809,69.8283 Z M381.8278,64.4511 L384.0312,64.4511 L386.4909,73.5636 L384.6903,73.5636 L384.1288,71.3114 L381.7179,71.3114 L381.1686,73.5636 L379.3681,73.5636 Z " fill="#000000"/><text fill="#D8BC00" font-family="Open Sans,Avenir,Nunito,Arial,Helvetica,SansSerif" font-size="12.5" font-style="italic" font-weight="bold" lengthAdjust="spacing" textLength="86.4583" x="400" y="74.1211">BaseRepeater</text><line style="stroke:#5E5E5E;stroke-width:1.0416666666666667;" x1="369.7917" x2="491.6667" y1="85.0911" y2="85.0911"/><line style="stroke:#5E5E5E;stroke-width:1.0416666666666667;" x1="369.7917" x2="491.6667" y1="93.4245" y2="93.4245"/><rect codeLine="75" fill="#282828" height="111.4563" id="ResourceResolver" rx="8.3333" ry="8.3333" style="stroke:#5E5E5E;stroke-width:1.0416666666666667;" width="238.5417" x="331.7708" y="409.432"/><rect fill="#1B1B1A" height="31.3883" rx="8.3333" ry="8.3333" style="stroke:#1B1B1A;stroke-width:1.0416666666666667;" width="238.5417" x="331.7708" y="409.432"/><rect fill="#1B1B1A" height="8.3333" style="stroke:#1B1B1A;stroke-width:1.0416666666666667;" width="238.5417" x="331.7708" y="432.487"/><rect codeLine="75" fill="none" height="111.4563" id="ResourceResolver" rx="8.3333" ry="8.3333" style="stroke:#5E5E5E;stroke-width:1.0416666666666667;" width="238.5417" x="331.7708" y="409.432"/><ellipse cx="386.9792" cy="425.1261" fill="#008400" rx="10.4167" ry="10.4167" style="stroke:#239C23;stroke-width:1.0416666666666667;"/><path d="M384.3831,422.288 L384.3831,420.7011 L389.8092,420.7011 L389.8092,422.288 L387.9964,422.288 L387.9964,428.2267 L389.8092,428.2267 L389.8092,429.8136 L384.3831,429.8136 L384.3831,428.2267 L386.1959,428.2267 L386.1959,422.288 Z " fill="#000000"/><text fill="#D8BC00" font-family="Open Sans,Avenir,Nunito,Arial,Helvetica,SansSerif" font-size="12.5" font-style="italic" font-weight="bold" lengthAdjust="spacing" textLength="113.5417" x="409.8958" y="429.8503">ResourceResolver</text><line style="stroke:#5E5E5E;stroke-width:1.5625;" x1="332.8125" x2="569.2708" y1="440.8203" y2="440.8203"/><line style="stroke:#5E5E5E;stroke-width:1.0416666666666667;" x1="332.8125" x2="569.2708" y1="449.1536" y2="449.1536"/><ellipse cx="343.2292" cy="460.612" fill="#84BE84" rx="3.125" ry="3.125" style="stroke:#038048;stroke-width:1.0416666666666667;"/><text fill="#D8BC00" font-family="Open Sans,Avenir,Nunito,Arial,Helvetica,SansSerif" font-size="11.4583" lengthAdjust="spacing" textLength="206.25" x="354.6875" y="467.5232">Resource resolve(ResourceIdentifier)</text><ellipse cx="343.2292" cy="504.2684" fill="#84BE84" rx="3.125" ry="3.125" style="stroke:#038048;stroke-width:1.0416666666666667;"/><text fill="#D8BC00" font-family="Open Sans,Avenir,Nunito,Arial,Helvetica,SansSerif" font-size="11.4583" lengthAdjust="spacing" textLength="201.0417" x="354.6875" y="511.1796">boolean accepts(ResourceIdentifier)</text><line style="stroke:#5E5E5E;stroke-width:1.0416666666666667;" x1="332.8125" x2="421.875" y1="487.1043" y2="487.1043"/><text fill="#D8BC00" font-family="Open Sans,Avenir,Nunito,Arial,Helvetica,SansSerif" font-size="11.4583" lengthAdjust="spacing" textLength="52.0833" x="425" y="490.9139">(filtering)</text><line style="stroke:#5E5E5E;stroke-width:1.0416666666666667;" x1="480.2083" x2="569.2708" y1="487.1043" y2="487.1043"/><rect codeLine="46" fill="#282828" height="127.0345" id="ResourceFolderResolver" rx="8.3333" ry="8.3333" style="stroke:#5E5E5E;stroke-width:1.0416666666666667;" width="333.3333" x="828.6458" y="402.1403"/><rect fill="#1B1B1A" height="31.3883" rx="8.3333" ry="8.3333" style="stroke:#1B1B1A;stroke-width:1.0416666666666667;" width="333.3333" x="828.6458" y="402.1403"/><rect fill="#1B1B1A" height="8.3333" style="stroke:#1B1B1A;stroke-width:1.0416666666666667;" width="333.3333" x="828.6458" y="425.1953"/><rect codeLine="46" fill="none" height="127.0345" id="ResourceFolderResolver" rx="8.3333" ry="8.3333" style="stroke:#5E5E5E;stroke-width:1.0416666666666667;" width="333.3333" x="828.6458" y="402.1403"/><ellipse cx="910.9375" cy="417.8345" fill="#008400" rx="10.4167" ry="10.4167" style="stroke:#239C23;stroke-width:1.0416666666666667;"/><path d="M908.3415,414.9963 L908.3415,413.4094 L913.7675,413.4094 L913.7675,414.9963 L911.9548,414.9963 L911.9548,420.9351 L913.7675,420.9351 L913.7675,422.522 L908.3415,422.522 L908.3415,420.9351 L910.1542,420.9351 L910.1542,414.9963 Z " fill="#000000"/><text fill="#D8BC00" font-family="Open Sans,Avenir,Nunito,Arial,Helvetica,SansSerif" font-size="12.5" font-style="italic" font-weight="bold" lengthAdjust="spacing" textLength="154.1667" x="933.8542" y="422.5586">ResourceFolderResolver</text><line style="stroke:#5E5E5E;stroke-width:1.5625;" x1="829.6875" x2="1160.9375" y1="433.5286" y2="433.5286"/><ellipse cx="840.1042" cy="468.8985" fill="#84BE84" rx="3.125" ry="3.125" style="stroke:#038048;stroke-width:1.0416666666666667;"/><text fill="#D8BC00" font-family="Open Sans,Avenir,Nunito,Arial,Helvetica,SansSerif" font-size="11.4583" lengthAdjust="spacing" textLength="301.0417" x="851.5625" y="475.8097">ResourceFolder&lt;?&gt; resolve(ResourceFolderIdentifier)</text><line style="stroke:#5E5E5E;stroke-width:1.0416666666666667;" x1="829.6875" x2="959.8958" y1="451.7344" y2="451.7344"/><text fill="#D8BC00" font-family="Open Sans,Avenir,Nunito,Arial,Helvetica,SansSerif" font-size="11.4583" lengthAdjust="spacing" textLength="64.5833" x="963.0208" y="455.544">(filesystem)</text><line style="stroke:#5E5E5E;stroke-width:1.0416666666666667;" x1="1030.7292" x2="1160.9375" y1="451.7344" y2="451.7344"/><ellipse cx="840.1042" cy="512.5549" fill="#84BE84" rx="3.125" ry="3.125" style="stroke:#038048;stroke-width:1.0416666666666667;"/><text fill="#D8BC00" font-family="Open Sans,Avenir,Nunito,Arial,Helvetica,SansSerif" font-size="11.4583" lengthAdjust="spacing" textLength="236.4583" x="851.5625" y="519.4661">boolean accepts(ResourceFolderIdentifier)</text><line style="stroke:#5E5E5E;stroke-width:1.0416666666666667;" x1="829.6875" x2="966.1458" y1="495.3908" y2="495.3908"/><text fill="#D8BC00" font-family="Open Sans,Avenir,Nunito,Arial,Helvetica,SansSerif" font-size="11.4583" lengthAdjust="spacing" textLength="52.0833" x="969.2708" y="499.2004">(filtering)</text><line style="stroke:#5E5E5E;stroke-width:1.0416666666666667;" x1="1024.4792" x2="1160.9375" y1="495.3908" y2="495.3908"/><rect codeLine="32" fill="#282828" height="170.6909" id="ResourceFolderIdentifier" rx="8.3333" ry="8.3333" style="stroke:#5E5E5E;stroke-width:1.0416666666666667;" width="240.625" x="7.2917" y="633.9111"/><rect fill="#1B1B1A" height="31.3883" rx="8.3333" ry="8.3333" style="stroke:#1B1B1A;stroke-width:1.0416666666666667;" width="240.625" x="7.2917" y="633.9111"/><rect fill="#1B1B1A" height="8.3333" style="stroke:#1B1B1A;stroke-width:1.0416666666666667;" width="240.625" x="7.2917" y="656.9661"/><rect codeLine="32" fill="none" height="170.6909" id="ResourceFolderIdentifier" rx="8.3333" ry="8.3333" style="stroke:#5E5E5E;stroke-width:1.0416666666666667;" width="240.625" x="7.2917" y="633.9111"/><ellipse cx="42.0313" cy="649.6053" fill="#0066CF" rx="10.4167" ry="10.4167" style="stroke:#0086EF;stroke-width:1.0416666666666667;"/><path d="M43.9417,654.0304 Q43.5144,654.2501 43.0444,654.3599 Q42.5745,654.4698 42.0557,654.4698 Q40.2124,654.4698 39.2419,653.2552 Q38.2715,652.0406 38.2715,649.7457 Q38.2715,647.4447 39.2419,646.2301 Q40.2124,645.0155 42.0557,645.0155 Q42.5745,645.0155 43.0505,645.1253 Q43.5266,645.2352 43.9417,645.4549 L43.9417,647.4569 Q43.4778,647.0296 43.0414,646.8313 Q42.605,646.6329 42.1411,646.6329 Q41.1523,646.6329 40.6488,647.4172 Q40.1453,648.2015 40.1453,649.7457 Q40.1453,651.2838 40.6488,652.0681 Q41.1523,652.8524 42.1411,652.8524 Q42.605,652.8524 43.0414,652.654 Q43.4778,652.4556 43.9417,652.0284 Z " fill="#000000"/><text fill="#D8BC00" font-family="Open Sans,Avenir,Nunito,Arial,Helvetica,SansSerif" font-size="12.5" font-weight="bold" lengthAdjust="spacing" textLength="158.3333" x="63.1771" y="654.3294">ResourceFolderIdentifier</text><line style="stroke:#5E5E5E;stroke-width:1.5625;" x1="8.3333" x2="246.875" y1="665.2995" y2="665.2995"/><ellipse cx="18.75" cy="700.6694" fill="#84BE84" rx="3.125" ry="3.125" style="stroke:#038048;stroke-width:1.0416666666666667;"/><text fill="#D8BC00" font-family="Open Sans,Avenir,Nunito,Arial,Helvetica,SansSerif" font-size="11.4583" lengthAdjust="spacing" textLength="179.1667" x="30.2083" y="707.5806">ResourceFolderIdentifier(String)</text><line style="stroke:#5E5E5E;stroke-width:1.0416666666666667;" x1="8.3333" x2="83.8542" y1="683.5052" y2="683.5052"/><text fill="#D8BC00" font-family="Open Sans,Avenir,Nunito,Arial,Helvetica,SansSerif" font-size="11.4583" lengthAdjust="spacing" textLength="81.25" x="86.9792" y="687.3149">(constructors)</text><line style="stroke:#5E5E5E;stroke-width:1.0416666666666667;" x1="171.3542" x2="246.875" y1="683.5052" y2="683.5052"/><ellipse cx="18.75" cy="744.3258" fill="#84BE84" rx="3.125" ry="3.125" style="stroke:#038048;stroke-width:1.0416666666666667;"/><text fill="#D8BC00" font-family="Open Sans,Avenir,Nunito,Arial,Helvetica,SansSerif" font-size="11.4583" lengthAdjust="spacing" textLength="208.3333" x="30.2083" y="751.237">ResourceFolder&lt;?&gt; resolve(Listener)</text><line style="stroke:#5E5E5E;stroke-width:1.0416666666666667;" x1="8.3333" x2="92.1875" y1="727.1617" y2="727.1617"/><text fill="#D8BC00" font-family="Open Sans,Avenir,Nunito,Arial,Helvetica,SansSerif" font-size="11.4583" lengthAdjust="spacing" textLength="64.5833" x="95.3125" y="730.9713">(filesystem)</text><line style="stroke:#5E5E5E;stroke-width:1.0416666666666667;" x1="163.0208" x2="246.875" y1="727.1617" y2="727.1617"/><ellipse cx="18.75" cy="787.9822" fill="#84BE84" rx="3.125" ry="3.125" style="stroke:#038048;stroke-width:1.0416666666666667;"/><text fill="#D8BC00" font-family="Open Sans,Avenir,Nunito,Arial,Helvetica,SansSerif" font-size="11.4583" lengthAdjust="spacing" textLength="94.7917" x="30.2083" y="794.8934">String identifier()</text><line style="stroke:#5E5E5E;stroke-width:1.0416666666666667;" x1="8.3333" x2="99.4792" y1="770.8181" y2="770.8181"/><text fill="#D8BC00" font-family="Open Sans,Avenir,Nunito,Arial,Helvetica,SansSerif" font-size="11.4583" lengthAdjust="spacing" textLength="50" x="102.6042" y="774.6277">(identity)</text><line style="stroke:#5E5E5E;stroke-width:1.0416666666666667;" x1="155.7292" x2="246.875" y1="770.8181" y2="770.8181"/><rect codeLine="71" fill="#282828" height="48.055" id="RepeaterMixin" rx="8.3333" ry="8.3333" style="stroke:#5E5E5E;stroke-width:1.0416666666666667;" width="129.1667" x="611.9792" y="217.2445"/><rect fill="#1B1B1A" height="31.3883" rx="8.3333" ry="8.3333" style="stroke:#1B1B1A;stroke-width:1.0416666666666667;" width="129.1667" x="611.9792" y="217.2445"/><rect fill="#1B1B1A" height="8.3333" style="stroke:#1B1B1A;stroke-width:1.0416666666666667;" width="129.1667" x="611.9792" y="240.2995"/><rect codeLine="71" fill="none" height="48.055" id="RepeaterMixin" rx="8.3333" ry="8.3333" style="stroke:#5E5E5E;stroke-width:1.0416666666666667;" width="129.1667" x="611.9792" y="217.2445"/><ellipse cx="626.5625" cy="232.9386" fill="#008400" rx="10.4167" ry="10.4167" style="stroke:#239C23;stroke-width:1.0416666666666667;"/><path d="M623.9665,230.1005 L623.9665,228.5136 L629.3925,228.5136 L629.3925,230.1005 L627.5798,230.1005 L627.5798,236.0392 L629.3925,236.0392 L629.3925,237.6261 L623.9665,237.6261 L623.9665,236.0392 L625.7792,236.0392 L625.7792,230.1005 Z " fill="#000000"/><text fill="#D8BC00" font-family="Open Sans,Avenir,Nunito,Arial,Helvetica,SansSerif" font-size="12.5" font-style="italic" font-weight="bold" lengthAdjust="spacing" textLength="91.6667" x="643.2292" y="237.6628">RepeaterMixin</text><line style="stroke:#5E5E5E;stroke-width:1.0416666666666667;" x1="613.0208" x2="740.1042" y1="248.6328" y2="248.6328"/><line style="stroke:#5E5E5E;stroke-width:1.0416666666666667;" x1="613.0208" x2="740.1042" y1="256.9661" y2="256.9661"/><rect codeLine="61" fill="#282828" height="155.1127" id="ResourceIdentifier" rx="8.3333" ry="8.3333" style="stroke:#5E5E5E;stroke-width:1.0416666666666667;" width="181.25" x="703.6458" y="641.7236"/><rect fill="#1B1B1A" height="31.3883" rx="8.3333" ry="8.3333" style="stroke:#1B1B1A;stroke-width:1.0416666666666667;" width="181.25" x="703.6458" y="641.7236"/><rect fill="#1B1B1A" height="8.3333" style="stroke:#1B1B1A;stroke-width:1.0416666666666667;" width="181.25" x="703.6458" y="664.7786"/><rect codeLine="61" fill="none" height="155.1127" id="ResourceIdentifier" rx="8.3333" ry="8.3333" style="stroke:#5E5E5E;stroke-width:1.0416666666666667;" width="181.25" x="703.6458" y="641.7236"/><ellipse cx="729.9479" cy="657.4178" fill="#0066CF" rx="10.4167" ry="10.4167" style="stroke:#0086EF;stroke-width:1.0416666666666667;"/><path d="M731.8583,661.8429 Q731.4311,662.0626 730.9611,662.1724 Q730.4911,662.2823 729.9723,662.2823 Q728.1291,662.2823 727.1586,661.0677 Q726.1882,659.8531 726.1882,657.5582 Q726.1882,655.2572 727.1586,654.0426 Q728.1291,652.828 729.9723,652.828 Q730.4911,652.828 730.9672,652.9378 Q731.4433,653.0477 731.8583,653.2674 L731.8583,655.2694 Q731.3944,654.8421 730.958,654.6438 Q730.5216,654.4454 730.0578,654.4454 Q729.069,654.4454 728.5655,655.2297 Q728.0619,656.014 728.0619,657.5582 Q728.0619,659.0963 728.5655,659.8806 Q729.069,660.6649 730.0578,660.6649 Q730.5216,660.6649 730.958,660.4665 Q731.3944,660.2681 731.8583,659.8409 Z " fill="#000000"/><text fill="#D8BC00" font-family="Open Sans,Avenir,Nunito,Arial,Helvetica,SansSerif" font-size="12.5" font-weight="bold" lengthAdjust="spacing" textLength="117.7083" x="749.2188" y="662.1419">ResourceIdentifier</text><line style="stroke:#5E5E5E;stroke-width:1.5625;" x1="704.6875" x2="883.8542" y1="673.112" y2="673.112"/><ellipse cx="715.1042" cy="708.4819" fill="#84BE84" rx="3.125" ry="3.125" style="stroke:#038048;stroke-width:1.0416666666666667;"/><text fill="#D8BC00" font-family="Open Sans,Avenir,Nunito,Arial,Helvetica,SansSerif" font-size="11.4583" lengthAdjust="spacing" textLength="143.75" x="726.5625" y="715.3931">ResourceIdentifier(String)</text><line style="stroke:#5E5E5E;stroke-width:1.0416666666666667;" x1="704.6875" x2="750.5208" y1="691.3177" y2="691.3177"/><text fill="#D8BC00" font-family="Open Sans,Avenir,Nunito,Arial,Helvetica,SansSerif" font-size="11.4583" lengthAdjust="spacing" textLength="81.25" x="753.6458" y="695.1274">(constructors)</text><line style="stroke:#5E5E5E;stroke-width:1.0416666666666667;" x1="838.0208" x2="883.8542" y1="691.3177" y2="691.3177"/><line style="stroke:#5E5E5E;stroke-width:1.0416666666666667;" x1="704.6875" x2="883.8542" y1="725.1017" y2="725.1017"/><ellipse cx="715.1042" cy="736.5601" fill="#84BE84" rx="3.125" ry="3.125" style="stroke:#038048;stroke-width:1.0416666666666667;"/><text fill="#D8BC00" font-family="Open Sans,Avenir,Nunito,Arial,Helvetica,SansSerif" font-size="11.4583" lengthAdjust="spacing" textLength="148.9583" x="726.5625" y="743.4713">Resource resolve(Listener)</text><ellipse cx="715.1042" cy="780.2165" fill="#84BE84" rx="3.125" ry="3.125" style="stroke:#038048;stroke-width:1.0416666666666667;"/><text fill="#D8BC00" font-family="Open Sans,Avenir,Nunito,Arial,Helvetica,SansSerif" font-size="11.4583" lengthAdjust="spacing" textLength="94.7917" x="726.5625" y="787.1277">String identifier()</text><line style="stroke:#5E5E5E;stroke-width:1.0416666666666667;" x1="704.6875" x2="766.1458" y1="763.0524" y2="763.0524"/><text fill="#D8BC00" font-family="Open Sans,Avenir,Nunito,Arial,Helvetica,SansSerif" font-size="11.4583" lengthAdjust="spacing" textLength="50" x="769.2708" y="766.862">(identity)</text><line style="stroke:#5E5E5E;stroke-width:1.0416666666666667;" x1="822.3958" x2="883.8542" y1="763.0524" y2="763.0524"/><rect fill="#282828" height="48.055" id="ResourceFolder" rx="8.3333" ry="8.3333" style="stroke:#5E5E5E;stroke-width:1.0416666666666667;" width="136.4583" x="921.875" y="695.3695"/><rect fill="#1B1B1A" height="31.3883" rx="8.3333" ry="8.3333" style="stroke:#1B1B1A;stroke-width:1.0416666666666667;" width="136.4583" x="921.875" y="695.3695"/><rect fill="#1B1B1A" height="8.3333" style="stroke:#1B1B1A;stroke-width:1.0416666666666667;" width="136.4583" x="921.875" y="718.4245"/><rect fill="none" height="48.055" id="ResourceFolder" rx="8.3333" ry="8.3333" style="stroke:#5E5E5E;stroke-width:1.0416666666666667;" width="136.4583" x="921.875" y="695.3695"/><ellipse cx="936.4583" cy="711.0636" fill="#0066CF" rx="10.4167" ry="10.4167" style="stroke:#0086EF;stroke-width:1.0416666666666667;"/><path d="M938.3687,715.4887 Q937.9415,715.7084 937.4715,715.8183 Q937.0015,715.9281 936.4827,715.9281 Q934.6395,715.9281 933.669,714.7135 Q932.6986,713.4989 932.6986,711.204 Q932.6986,708.903 933.669,707.6884 Q934.6395,706.4738 936.4827,706.4738 Q937.0015,706.4738 937.4776,706.5837 Q937.9537,706.6935 938.3687,706.9132 L938.3687,708.9152 Q937.9049,708.488 937.4685,708.2896 Q937.0321,708.0912 936.5682,708.0912 Q935.5794,708.0912 935.0759,708.8755 Q934.5723,709.6598 934.5723,711.204 Q934.5723,712.7421 935.0759,713.5264 Q935.5794,714.3107 936.5682,714.3107 Q937.0321,714.3107 937.4685,714.1123 Q937.9049,713.914 938.3687,713.4867 Z " fill="#000000"/><text fill="#D8BC00" font-family="Open Sans,Avenir,Nunito,Arial,Helvetica,SansSerif" font-size="12.5" font-weight="bold" lengthAdjust="spacing" textLength="98.9583" x="953.125" y="715.7878">ResourceFolder</text><line style="stroke:#5E5E5E;stroke-width:1.0416666666666667;" x1="922.9167" x2="1057.2917" y1="726.7578" y2="726.7578"/><line style="stroke:#5E5E5E;stroke-width:1.0416666666666667;" x1="922.9167" x2="1057.2917" y1="735.0911" y2="735.0911"/><rect codeLine="55" fill="#282828" height="83.3781" id="ResourceFolderResolverServiceLoader" rx="8.3333" ry="8.3333" style="stroke:#5E5E5E;stroke-width:1.0416666666666667;" width="384.375" x="803.6458" y="199.5361"/><rect fill="#1B1B1A" height="31.3883" rx="8.3333" ry="8.3333" style="stroke:#1B1B1A;stroke-width:1.0416666666666667;" width="384.375" x="803.6458" y="199.5361"/><rect fill="#1B1B1A" height="8.3333" style="stroke:#1B1B1A;stroke-width:1.0416666666666667;" width="384.375" x="803.6458" y="222.5911"/><rect codeLine="55" fill="none" height="83.3781" id="ResourceFolderResolverServiceLoader" rx="8.3333" ry="8.3333" style="stroke:#5E5E5E;stroke-width:1.0416666666666667;" width="384.375" x="803.6458" y="199.5361"/><ellipse cx="867.1875" cy="215.2303" fill="#0066CF" rx="10.4167" ry="10.4167" style="stroke:#0086EF;stroke-width:1.0416666666666667;"/><path d="M869.0979,219.6554 Q868.6707,219.8751 868.2007,219.9849 Q867.7307,220.0948 867.2119,220.0948 Q865.3687,220.0948 864.3982,218.8802 Q863.4277,217.6656 863.4277,215.3707 Q863.4277,213.0697 864.3982,211.8551 Q865.3687,210.6405 867.2119,210.6405 Q867.7307,210.6405 868.2068,210.7503 Q868.6829,210.8602 869.0979,211.0799 L869.0979,213.0819 Q868.634,212.6546 868.1976,212.4563 Q867.7612,212.2579 867.2974,212.2579 Q866.3086,212.2579 865.8051,213.0422 Q865.3015,213.8265 865.3015,215.3707 Q865.3015,216.9088 865.8051,217.6931 Q866.3086,218.4774 867.2974,218.4774 Q867.7612,218.4774 868.1976,218.279 Q868.634,218.0806 869.0979,217.6534 Z " fill="#000000"/><text fill="#D8BC00" font-family="Open Sans,Avenir,Nunito,Arial,Helvetica,SansSerif" font-size="12.5" font-weight="bold" lengthAdjust="spacing" textLength="242.7083" x="890.1042" y="219.9544">ResourceFolderResolverServiceLoader</text><line style="stroke:#5E5E5E;stroke-width:1.5625;" x1="804.6875" x2="1186.9792" y1="230.9245" y2="230.9245"/><ellipse cx="815.1042" cy="266.2944" fill="#84BE84" rx="3.125" ry="3.125" style="stroke:#038048;stroke-width:1.0416666666666667;"/><text fill="#D8BC00" font-family="Open Sans,Avenir,Nunito,Arial,Helvetica,SansSerif" font-size="11.4583" lengthAdjust="spacing" textLength="352.0833" x="826.5625" y="273.2056">ResourceFolder&lt;?&gt; resolve(Listener, ResourceFolderIdentifier)</text><line style="stroke:#5E5E5E;stroke-width:1.0416666666666667;" x1="804.6875" x2="960.4167" y1="249.1302" y2="249.1302"/><text fill="#D8BC00" font-family="Open Sans,Avenir,Nunito,Arial,Helvetica,SansSerif" font-size="11.4583" lengthAdjust="spacing" textLength="64.5833" x="963.5417" y="252.9399">(filesystem)</text><line style="stroke:#5E5E5E;stroke-width:1.0416666666666667;" x1="1031.25" x2="1186.9792" y1="249.1302" y2="249.1302"/><rect fill="#282828" height="48.055" id="Resource" rx="8.3333" ry="8.3333" style="stroke:#5E5E5E;stroke-width:1.0416666666666667;" width="95.8333" x="284.8958" y="695.3695"/><rect fill="#1B1B1A" height="31.3883" rx="8.3333" ry="8.3333" style="stroke:#1B1B1A;stroke-width:1.0416666666666667;" width="95.8333" x="284.8958" y="695.3695"/><rect fill="#1B1B1A" height="8.3333" style="stroke:#1B1B1A;stroke-width:1.0416666666666667;" width="95.8333" x="284.8958" y="718.4245"/><rect fill="none" height="48.055" id="Resource" rx="8.3333" ry="8.3333" style="stroke:#5E5E5E;stroke-width:1.0416666666666667;" width="95.8333" x="284.8958" y="695.3695"/><ellipse cx="299.4792" cy="711.0636" fill="#0066CF" rx="10.4167" ry="10.4167" style="stroke:#0086EF;stroke-width:1.0416666666666667;"/><path d="M301.3896,715.4887 Q300.9623,715.7084 300.4924,715.8183 Q300.0224,715.9281 299.5036,715.9281 Q297.6603,715.9281 296.6899,714.7135 Q295.7194,713.4989 295.7194,711.204 Q295.7194,708.903 296.6899,707.6884 Q297.6603,706.4738 299.5036,706.4738 Q300.0224,706.4738 300.4985,706.5837 Q300.9745,706.6935 301.3896,706.9132 L301.3896,708.9152 Q300.9257,708.488 300.4893,708.2896 Q300.0529,708.0912 299.589,708.0912 Q298.6003,708.0912 298.0967,708.8755 Q297.5932,709.6598 297.5932,711.204 Q297.5932,712.7421 298.0967,713.5264 Q298.6003,714.3107 299.589,714.3107 Q300.0529,714.3107 300.4893,714.1123 Q300.9257,713.914 301.3896,713.4867 Z " fill="#000000"/><text fill="#D8BC00" font-family="Open Sans,Avenir,Nunito,Arial,Helvetica,SansSerif" font-size="12.5" font-weight="bold" lengthAdjust="spacing" textLength="58.3333" x="316.1458" y="715.7878">Resource</text><line style="stroke:#5E5E5E;stroke-width:1.0416666666666667;" x1="285.9375" x2="379.6875" y1="726.7578" y2="726.7578"/><line style="stroke:#5E5E5E;stroke-width:1.0416666666666667;" x1="285.9375" x2="379.6875" y1="735.0911" y2="735.0911"/><rect codeLine="85" fill="#282828" height="111.4563" id="ResourceResolverServiceLoader" rx="8.3333" ry="8.3333" style="stroke:#5E5E5E;stroke-width:1.0416666666666667;" width="239.5833" x="310.9375" y="185.9945"/><rect fill="#1B1B1A" height="31.3883" rx="8.3333" ry="8.3333" style="stroke:#1B1B1A;stroke-width:1.0416666666666667;" width="239.5833" x="310.9375" y="185.9945"/><rect fill="#1B1B1A" height="8.3333" style="stroke:#1B1B1A;stroke-width:1.0416666666666667;" width="239.5833" x="310.9375" y="209.0495"/><rect codeLine="85" fill="none" height="111.4563" id="ResourceResolverServiceLoader" rx="8.3333" ry="8.3333" style="stroke:#5E5E5E;stroke-width:1.0416666666666667;" width="239.5833" x="310.9375" y="185.9945"/><ellipse cx="325.5208" cy="201.6886" fill="#0066CF" rx="10.4167" ry="10.4167" style="stroke:#0086EF;stroke-width:1.0416666666666667;"/><path d="M327.4312,206.1137 Q327.004,206.3334 326.534,206.4433 Q326.064,206.5531 325.5452,206.5531 Q323.702,206.5531 322.7315,205.3385 Q321.7611,204.1239 321.7611,201.829 Q321.7611,199.528 322.7315,198.3134 Q323.702,197.0988 325.5452,197.0988 Q326.064,197.0988 326.5401,197.2087 Q327.0162,197.3185 327.4312,197.5382 L327.4312,199.5402 Q326.9674,199.113 326.531,198.9146 Q326.0946,198.7162 325.6307,198.7162 Q324.6419,198.7162 324.1384,199.5005 Q323.6348,200.2848 323.6348,201.829 Q323.6348,203.3671 324.1384,204.1514 Q324.6419,204.9357 325.6307,204.9357 Q326.0946,204.9357 326.531,204.7373 Q326.9674,204.539 327.4312,204.1117 Z " fill="#000000"/><text fill="#D8BC00" font-family="Open Sans,Avenir,Nunito,Arial,Helvetica,SansSerif" font-size="12.5" font-weight="bold" lengthAdjust="spacing" textLength="202.0833" x="342.1875" y="206.4128">ResourceResolverServiceLoader</text><line style="stroke:#5E5E5E;stroke-width:1.5625;" x1="311.9792" x2="549.4792" y1="217.3828" y2="217.3828"/><line style="stroke:#5E5E5E;stroke-width:1.0416666666666667;" x1="311.9792" x2="549.4792" y1="225.7161" y2="225.7161"/><ellipse cx="322.3958" cy="237.1745" fill="#84BE84" rx="3.125" ry="3.125" style="stroke:#038048;stroke-width:1.0416666666666667;"/><text fill="#D8BC00" font-family="Open Sans,Avenir,Nunito,Arial,Helvetica,SansSerif" font-size="11.4583" lengthAdjust="spacing" textLength="206.25" x="333.8542" y="244.0857">Resource resolve(ResourceIdentifier)</text><ellipse cx="322.3958" cy="280.8309" fill="#84BE84" rx="3.125" ry="3.125" style="stroke:#038048;stroke-width:1.0416666666666667;"/><text fill="#D8BC00" font-family="Open Sans,Avenir,Nunito,Arial,Helvetica,SansSerif" font-size="11.4583" lengthAdjust="spacing" textLength="207.2917" x="333.8542" y="287.7421">ResourceResolverServiceLoader get()</text><line style="stroke:#5E5E5E;stroke-width:1.0416666666666667;" x1="311.9792" x2="403.6458" y1="263.6668" y2="263.6668"/><text fill="#D8BC00" font-family="Open Sans,Avenir,Nunito,Arial,Helvetica,SansSerif" font-size="11.4583" lengthAdjust="spacing" textLength="47.9167" x="406.7708" y="267.4764">(service)</text><line style="stroke:#5E5E5E;stroke-width:1.0416666666666667;" x1="457.8125" x2="549.4792" y1="263.6668" y2="263.6668"/><path codeLine="12" d="M455.2813,540.734 C457.8854,593.4945 461.2083,660.609 462.9271,695.2653 " fill="none" id="ResourceResolver-backto-File.Resolver" style="stroke:#545454;stroke-width:1.5625;"/><polygon fill="none" points="447.9896,541.0361,454.2396,519.8695,462.5521,540.3174,447.9896,541.0361" style="stroke:#545454;stroke-width:1.5625;"/><path codeLine="17" d="M1041.4583,546.3278 C1071.4271,598.0153 1108.3958,661.7861 1127.8021,695.2653 " fill="none" id="ResourceFolderResolver-backto-Folder.Resolver" style="stroke:#545454;stroke-width:1.5625;"/><polygon fill="none" points="1035.125,549.9424,1030.9896,528.2653,1047.7396,542.6299,1035.125,549.9424" style="stroke:#545454;stroke-width:1.5625;"/><path codeLine="22" d="M1092.3333,541.3174 C1128.2083,569.6403 1168.8333,602.6195 1204.6875,633.9111 C1227.5625,653.8799 1252.5104,677.8695 1270.0729,695.1507 " fill="none" id="ResourceFolderResolver-backto-Package.Resolver" style="stroke:#545454;stroke-width:1.5625;"/><polygon fill="none" points="1087.5625,546.8486,1075.6875,528.234,1096.5729,535.3799,1087.5625,546.8486" style="stroke:#545454;stroke-width:1.5625;"/><path codeLine="27" d="M498.4167,537.5882 C533.0833,590.7965 578.1146,659.9215 601.1458,695.2653 " fill="none" id="ResourceResolver-backto-PackageResource.Resolver" style="stroke:#545454;stroke-width:1.5625;"/><polygon fill="none" points="492.1354,541.307,486.8646,519.8695,504.3542,533.3486,492.1354,541.307" style="stroke:#545454;stroke-width:1.5625;"/><path codeLine="43" d="M715.4583,279.7965 C729.0729,292.2445 744.7604,305.8278 759.8958,317.2445 C799.7396,347.2965 845.8542,377.1403 886.6458,402.0361 " fill="none" id="RepeaterMixin-backto-ResourceFolderResolver" style="stroke:#545454;stroke-width:1.5625;"/><polygon fill="none" points="710.2813,284.9424,700.0417,265.3903,720.2396,274.2861,710.2813,284.9424" style="stroke:#545454;stroke-width:1.5625;"/><path codeLine="44" d="M946.1354,528.2653 C919.8854,561.109 887.25,601.9528 858.9583,637.3382 " fill="none" id="ResourceFolderResolver-to-ResourceIdentifier" style="stroke:#545454;stroke-width:1.5625;"/><polygon fill="#545454" points="855.5313,641.6299,864.6372,636.904,858.7812,637.56,858.1253,631.704,855.5313,641.6299" style="stroke:#545454;stroke-width:1.5625;"/><text fill="#A0A0A0" font-family="Open Sans,Avenir,Nunito,Arial,Helvetica,SansSerif" font-size="12.5" font-weight="bold" lengthAdjust="spacing" textLength="42.7083" x="904.6875" y="595.9961">parses</text><path codeLine="45" d="M994.0417,528.2653 C992.9688,579.7028 991.5,650.7236 990.6979,689.7445 " fill="none" id="ResourceFolderResolver-to-ResourceFolder" style="stroke:#545454;stroke-width:1.5625;"/><polygon fill="#545454" points="990.5833,695.2653,994.9366,685.9755,990.6875,690.058,986.605,685.8089,990.5833,695.2653" style="stroke:#545454;stroke-width:1.5625;"/><text fill="#A0A0A0" font-family="Open Sans,Avenir,Nunito,Arial,Helvetica,SansSerif" font-size="12.5" font-weight="bold" lengthAdjust="spacing" textLength="45.8333" x="996.3542" y="595.9961">creates</text><path codeLine="54" d="M996.0938,296.9736 C995.9479,328.7132 995.7604,368.807 995.6042,401.8278 " fill="none" id="ResourceFolderResolverServiceLoader-backto-ResourceFolderResolver" style="stroke:#545454;stroke-width:1.5625;"/><polygon fill="#333333" points="996.1667,283.0361,991.9726,289.2678,996.1117,295.536,1000.3058,289.3044,996.1667,283.0361" style="stroke:#545454;stroke-width:1.5625;"/><text fill="#A0A0A0" font-family="Open Sans,Avenir,Nunito,Arial,Helvetica,SansSerif" font-size="12.5" font-weight="bold" lengthAdjust="spacing" textLength="8.3333" x="983.5993" y="306.5809">1</text><text fill="#A0A0A0" font-family="Open Sans,Avenir,Nunito,Arial,Helvetica,SansSerif" font-size="12.5" font-weight="bold" lengthAdjust="spacing" textLength="6.25" x="985.5775" y="388.0913">*</text><path codeLine="72" d="M637.6979,280.4736 C601.5833,316.0049 547.4167,369.2965 506.8125,409.2445 " fill="none" id="RepeaterMixin-backto-ResourceResolver" style="stroke:#545454;stroke-width:1.5625;"/><polygon fill="none" points="632.9479,274.932,652.9063,265.5153,643.1667,285.3278,632.9479,274.932" style="stroke:#545454;stroke-width:1.5625;"/><path codeLine="73" d="M382.0625,519.8695 C340.7396,552.0986 287.3333,593.7445 240.125,630.5465 " fill="none" id="ResourceResolver-to-ResourceFolderIdentifier" style="stroke:#545454;stroke-width:1.5625;"/><polygon fill="#545454" points="235.8646,633.8695,245.821,631.3953,239.9734,630.6688,240.6999,624.8212,235.8646,633.8695" style="stroke:#545454;stroke-width:1.5625;"/><text fill="#A0A0A0" font-family="Open Sans,Avenir,Nunito,Arial,Helvetica,SansSerif" font-size="12.5" font-weight="bold" lengthAdjust="spacing" textLength="42.7083" x="303.6458" y="595.9961">parses</text><path codeLine="74" d="M423.6354,519.9632 C414.125,538.7965 403.5521,560.109 394.2708,579.7445 C376.3854,617.5882 356.9896,661.9111 344.875,690.0361 " fill="none" id="ResourceResolver-to-Resource" style="stroke:#545454;stroke-width:1.5625;"/><polygon fill="#545454" points="342.6979,695.0882,350.2285,688.121,344.755,690.3033,342.5727,684.8298,342.6979,695.0882" style="stroke:#545454;stroke-width:1.5625;"/><text fill="#A0A0A0" font-family="Open Sans,Avenir,Nunito,Arial,Helvetica,SansSerif" font-size="12.5" font-weight="bold" lengthAdjust="spacing" textLength="45.8333" x="398.4375" y="595.9961">creates</text><path codeLine="83" d="M430.7292,122.9528 C430.7292,142.3382 430.7292,165.2757 430.7292,185.6924 " fill="none" id="BaseRepeater-backto-ResourceResolverServiceLoader" style="stroke:#545454;stroke-width:1.5625;"/><polygon fill="none" points="423.4375,122.6715,430.7292,101.8382,438.0208,122.6715,423.4375,122.6715" style="stroke:#545454;stroke-width:1.5625;"/><path codeLine="84" d="M437.1458,310.3903 C440.1354,342.1924 443.6458,379.5257 446.4583,409.3799 " fill="none" id="ResourceResolverServiceLoader-backto-ResourceResolver" style="stroke:#545454;stroke-width:1.5625;"/><polygon fill="#333333" points="435.8542,296.682,432.2895,303.2938,437.0218,309.1273,440.5864,302.5154,435.8542,296.682" style="stroke:#545454;stroke-width:1.5625;"/><text fill="#A0A0A0" font-family="Open Sans,Avenir,Nunito,Arial,Helvetica,SansSerif" font-size="12.5" font-weight="bold" lengthAdjust="spacing" textLength="8.3333" x="424.0911" y="321.0952">1</text><text fill="#A0A0A0" font-family="Open Sans,Avenir,Nunito,Arial,Helvetica,SansSerif" font-size="12.5" font-weight="bold" lengthAdjust="spacing" textLength="6.25" x="435.6953" y="395.2839">*</text></g></svg>
