<?xml version="1.0" encoding="UTF-8" standalone="no"?><svg xmlns="http://www.w3.org/2000/svg" xmlns:xlink="http://www.w3.org/1999/xlink" contentScriptType="application/ecmascript" contentStyleType="text/css" height="640.625px" preserveAspectRatio="none" style="width:1297px;height:640px;background:#333333;" version="1.1" viewBox="0 0 1297 640" width="1297.9167px" zoomAndPan="magnify"><defs/><g><rect fill="#48494B" height="41.2028" rx="8.3333" ry="8.3333" style="stroke:#545454;stroke-width:1.0416666666666667;" width="235.4167" x="523.9583" y="2.0833"/><text fill="#C0C0C0" font-family="Open Sans,Avenir,Nunito,Arial,Helvetica,SansSerif" font-size="20.8333" lengthAdjust="spacing" textLength="212.5" x="535.4167" y="30.5583">kivakit-network-http</text><!--MD5=[4aa4ddcf3dc6d6219283db0a9fd05165]
entity cactus_metadata--><rect fill="#1B1B1A" height="44.93" rx="8.3333" ry="8.3333" style="stroke:#5E5E5E;stroke-width:1.5625;" width="175" x="7.2917" y="482.8695"/><polygon fill="#1B1B1A" points="164.5833,488.0778,164.5833,502.6611,177.0833,502.6611,177.0833,494.3278,170.8333,488.0778,164.5833,488.0778" style="stroke:#5E5E5E;stroke-width:1.5625;"/><line style="stroke:#5E5E5E;stroke-width:1.5625;" x1="170.8333" x2="170.8333" y1="488.0778" y2="494.3278"/><line style="stroke:#5E5E5E;stroke-width:1.5625;" x1="177.0833" x2="170.8333" y1="494.3278" y2="494.3278"/><text fill="#D8BC00" font-family="Open Sans,Avenir,Nunito,Arial,Helvetica,SansSerif" font-size="12.5" lengthAdjust="spacing" textLength="137.5" x="20.8333" y="511.6211">cactus_metadata</text><!--MD5=[4facc4376e4b6bfc182ce14f42a813f9]
entity kivakit_collections--><rect fill="#1B1B1A" height="44.93" rx="8.3333" ry="8.3333" style="stroke:#5E5E5E;stroke-width:1.5625;" width="143.75" x="138.5417" y="375.5778"/><polygon fill="#1B1B1A" points="264.5833,380.7861,264.5833,395.3695,277.0833,395.3695,277.0833,387.0361,270.8333,380.7861,264.5833,380.7861" style="stroke:#5E5E5E;stroke-width:1.5625;"/><line style="stroke:#5E5E5E;stroke-width:1.5625;" x1="270.8333" x2="270.8333" y1="380.7861" y2="387.0361"/><line style="stroke:#5E5E5E;stroke-width:1.5625;" x1="277.0833" x2="270.8333" y1="387.0361" y2="387.0361"/><text fill="#D8BC00" font-family="Open Sans,Avenir,Nunito,Arial,Helvetica,SansSerif" font-size="12.5" lengthAdjust="spacing" textLength="106.25" x="152.0833" y="404.3294">kivakit_collections</text><!--MD5=[b7af8d5b7902cf06664f76dfe0f9e426]
entity kivakit_commandline--><rect fill="#1B1B1A" height="44.93" rx="8.3333" ry="8.3333" style="stroke:#5E5E5E;stroke-width:1.5625;" width="162.5" x="291.6667" y="268.2861"/><polygon fill="#1B1B1A" points="436.4583,273.4945,436.4583,288.0778,448.9583,288.0778,448.9583,279.7445,442.7083,273.4945,436.4583,273.4945" style="stroke:#5E5E5E;stroke-width:1.5625;"/><line style="stroke:#5E5E5E;stroke-width:1.5625;" x1="442.7083" x2="442.7083" y1="273.4945" y2="279.7445"/><line style="stroke:#5E5E5E;stroke-width:1.5625;" x1="448.9583" x2="442.7083" y1="279.7445" y2="279.7445"/><text fill="#D8BC00" font-family="Open Sans,Avenir,Nunito,Arial,Helvetica,SansSerif" font-size="12.5" lengthAdjust="spacing" textLength="125" x="305.2083" y="297.0378">kivakit_commandline</text><!--MD5=[dafc80021cd29aae9231cf20b1d6436c]
entity kivakit_conversion--><rect fill="#1B1B1A" height="44.93" rx="8.3333" ry="8.3333" style="stroke:#5E5E5E;stroke-width:1.5625;" width="145.8333" x="490.625" y="268.2861"/><polygon fill="#1B1B1A" points="618.75,273.4945,618.75,288.0778,631.25,288.0778,631.25,279.7445,625,273.4945,618.75,273.4945" style="stroke:#5E5E5E;stroke-width:1.5625;"/><line style="stroke:#5E5E5E;stroke-width:1.5625;" x1="625" x2="625" y1="273.4945" y2="279.7445"/><line style="stroke:#5E5E5E;stroke-width:1.5625;" x1="631.25" x2="625" y1="279.7445" y2="279.7445"/><text fill="#D8BC00" font-family="Open Sans,Avenir,Nunito,Arial,Helvetica,SansSerif" font-size="12.5" lengthAdjust="spacing" textLength="108.3333" x="504.1667" y="297.0378">kivakit_conversion</text><!--MD5=[ae4286fb09ce878b5ed12f89a26eee54]
entity kivakit_core--><rect fill="#1B1B1A" height="44.93" rx="8.3333" ry="8.3333" style="stroke:#5E5E5E;stroke-width:1.5625;" width="108.3333" x="318.75" y="375.5778"/><polygon fill="#1B1B1A" points="409.375,380.7861,409.375,395.3695,421.875,395.3695,421.875,387.0361,415.625,380.7861,409.375,380.7861" style="stroke:#5E5E5E;stroke-width:1.5625;"/><line style="stroke:#5E5E5E;stroke-width:1.5625;" x1="415.625" x2="415.625" y1="380.7861" y2="387.0361"/><line style="stroke:#5E5E5E;stroke-width:1.5625;" x1="421.875" x2="415.625" y1="387.0361" y2="387.0361"/><text fill="#D8BC00" font-family="Open Sans,Avenir,Nunito,Arial,Helvetica,SansSerif" font-size="12.5" lengthAdjust="spacing" textLength="70.8333" x="332.2917" y="404.3294">kivakit_core</text><!--MD5=[b582392a7118229602de187c1b0722c2]
entity kivakit_interfaces--><rect fill="#1B1B1A" height="44.93" rx="8.3333" ry="8.3333" style="stroke:#5E5E5E;stroke-width:1.5625;" width="140.625" x="219.2708" y="482.8695"/><polygon fill="#1B1B1A" points="342.1875,488.0778,342.1875,502.6611,354.6875,502.6611,354.6875,494.3278,348.4375,488.0778,342.1875,488.0778" style="stroke:#5E5E5E;stroke-width:1.5625;"/><line style="stroke:#5E5E5E;stroke-width:1.5625;" x1="348.4375" x2="348.4375" y1="488.0778" y2="494.3278"/><line style="stroke:#5E5E5E;stroke-width:1.5625;" x1="354.6875" x2="348.4375" y1="494.3278" y2="494.3278"/><text fill="#D8BC00" font-family="Open Sans,Avenir,Nunito,Arial,Helvetica,SansSerif" font-size="12.5" lengthAdjust="spacing" textLength="103.125" x="232.8125" y="511.6211">kivakit_interfaces</text><!--MD5=[f41257055ff6c31a77f8312d5e694f18]
entity kivakit_mixins--><rect fill="#1B1B1A" height="44.93" rx="8.3333" ry="8.3333" style="stroke:#5E5E5E;stroke-width:1.5625;" width="120.8333" x="396.875" y="482.8695"/><polygon fill="#1B1B1A" points="500,488.0778,500,502.6611,512.5,502.6611,512.5,494.3278,506.25,488.0778,500,488.0778" style="stroke:#5E5E5E;stroke-width:1.5625;"/><line style="stroke:#5E5E5E;stroke-width:1.5625;" x1="506.25" x2="506.25" y1="488.0778" y2="494.3278"/><line style="stroke:#5E5E5E;stroke-width:1.5625;" x1="512.5" x2="506.25" y1="494.3278" y2="494.3278"/><text fill="#D8BC00" font-family="Open Sans,Avenir,Nunito,Arial,Helvetica,SansSerif" font-size="12.5" lengthAdjust="spacing" textLength="83.3333" x="410.4167" y="511.6211">kivakit_mixins</text><!--MD5=[69aef7896e565a816d1082fbfba261ce]
entity kivakit_network_core--><rect fill="#1B1B1A" height="44.93" rx="8.3333" ry="8.3333" style="stroke:#5E5E5E;stroke-width:1.5625;" width="162.5" x="570.8333" y="160.9945"/><polygon fill="#1B1B1A" points="715.625,166.2028,715.625,180.7861,728.125,180.7861,728.125,172.4528,721.875,166.2028,715.625,166.2028" style="stroke:#5E5E5E;stroke-width:1.5625;"/><line style="stroke:#5E5E5E;stroke-width:1.5625;" x1="721.875" x2="721.875" y1="166.2028" y2="172.4528"/><line style="stroke:#5E5E5E;stroke-width:1.5625;" x1="728.125" x2="721.875" y1="172.4528" y2="172.4528"/><text fill="#D8BC00" font-family="Open Sans,Avenir,Nunito,Arial,Helvetica,SansSerif" font-size="12.5" lengthAdjust="spacing" textLength="125" x="584.375" y="189.7461">kivakit_network_core</text><!--MD5=[619e5058bf9878b2704e3a37e8725778]
entity kivakit_network_http--><rect fill="#1B1B1A" height="44.93" rx="8.3333" ry="8.3333" style="stroke:#5E5E5E;stroke-width:1.5625;" width="160.4167" x="657.2917" y="53.7028"/><polygon fill="#1B1B1A" points="800,58.9111,800,73.4945,812.5,73.4945,812.5,65.1611,806.25,58.9111,800,58.9111" style="stroke:#5E5E5E;stroke-width:1.5625;"/><line style="stroke:#5E5E5E;stroke-width:1.5625;" x1="806.25" x2="806.25" y1="58.9111" y2="65.1611"/><line style="stroke:#5E5E5E;stroke-width:1.5625;" x1="812.5" x2="806.25" y1="65.1611" y2="65.1611"/><text fill="#D8BC00" font-family="Open Sans,Avenir,Nunito,Arial,Helvetica,SansSerif" font-size="12.5" lengthAdjust="spacing" textLength="122.9167" x="670.8333" y="82.4544">kivakit_network_http</text><!--MD5=[789122fdd47ca161e4432768ac68a470]
entity kivakit_resource--><rect fill="#1B1B1A" height="44.93" rx="8.3333" ry="8.3333" style="stroke:#5E5E5E;stroke-width:1.5625;" width="134.375" x="673.4375" y="268.2861"/><polygon fill="#1B1B1A" points="790.1042,273.4945,790.1042,288.0778,802.6042,288.0778,802.6042,279.7445,796.3542,273.4945,790.1042,273.4945" style="stroke:#5E5E5E;stroke-width:1.5625;"/><line style="stroke:#5E5E5E;stroke-width:1.5625;" x1="796.3542" x2="796.3542" y1="273.4945" y2="279.7445"/><line style="stroke:#5E5E5E;stroke-width:1.5625;" x1="802.6042" x2="796.3542" y1="279.7445" y2="279.7445"/><text fill="#D8BC00" font-family="Open Sans,Avenir,Nunito,Arial,Helvetica,SansSerif" font-size="12.5" lengthAdjust="spacing" textLength="96.875" x="686.9792" y="297.0378">kivakit_resource</text><!--MD5=[80d2a7f8a38f99556dcaa88e0cbe286e]
entity kivakit_validation--><rect fill="#1B1B1A" height="44.93" rx="8.3333" ry="8.3333" style="stroke:#5E5E5E;stroke-width:1.5625;" width="139.5833" x="463.5417" y="375.5778"/><polygon fill="#1B1B1A" points="585.4167,380.7861,585.4167,395.3695,597.9167,395.3695,597.9167,387.0361,591.6667,380.7861,585.4167,380.7861" style="stroke:#5E5E5E;stroke-width:1.5625;"/><line style="stroke:#5E5E5E;stroke-width:1.5625;" x1="591.6667" x2="591.6667" y1="380.7861" y2="387.0361"/><line style="stroke:#5E5E5E;stroke-width:1.5625;" x1="597.9167" x2="591.6667" y1="387.0361" y2="387.0361"/><text fill="#D8BC00" font-family="Open Sans,Avenir,Nunito,Arial,Helvetica,SansSerif" font-size="12.5" lengthAdjust="spacing" textLength="102.0833" x="477.0833" y="404.3294">kivakit_validation</text><!--MD5=[7b0fec798d1f32628676dfdf75f1f662]
entity lexakai_annotations--><rect fill="#1B1B1A" height="44.93" rx="8.3333" ry="8.3333" style="stroke:#5E5E5E;stroke-width:1.5625;" width="155.2083" x="116.1458" y="590.1611"/><polygon fill="#1B1B1A" points="253.6458,595.3695,253.6458,609.9528,266.1458,609.9528,266.1458,601.6195,259.8958,595.3695,253.6458,595.3695" style="stroke:#5E5E5E;stroke-width:1.5625;"/><line style="stroke:#5E5E5E;stroke-width:1.5625;" x1="259.8958" x2="259.8958" y1="595.3695" y2="601.6195"/><line style="stroke:#5E5E5E;stroke-width:1.5625;" x1="266.1458" x2="259.8958" y1="601.6195" y2="601.6195"/><text fill="#D8BC00" font-family="Open Sans,Avenir,Nunito,Arial,Helvetica,SansSerif" font-size="12.5" lengthAdjust="spacing" textLength="117.7083" x="129.6875" y="618.9128">lexakai_annotations</text><!--MD5=[9fc9c5f092413c11c1c25bc16308703f]
entity commons_codec--><rect fill="#1B1B1A" height="44.93" rx="8.3333" ry="8.3333" style="stroke:#5E5E5E;stroke-width:1.5625;" width="136.4583" x="844.2708" y="268.2861"/><polygon fill="#1B1B1A" points="963.0208,273.4945,963.0208,288.0778,975.5208,288.0778,975.5208,279.7445,969.2708,273.4945,963.0208,273.4945" style="stroke:#5E5E5E;stroke-width:1.5625;"/><line style="stroke:#5E5E5E;stroke-width:1.5625;" x1="969.2708" x2="969.2708" y1="273.4945" y2="279.7445"/><line style="stroke:#5E5E5E;stroke-width:1.5625;" x1="975.5208" x2="969.2708" y1="279.7445" y2="279.7445"/><text fill="#D8BC00" font-family="Open Sans,Avenir,Nunito,Arial,Helvetica,SansSerif" font-size="12.5" lengthAdjust="spacing" textLength="98.9583" x="857.8125" y="297.0378">commons_codec</text><!--MD5=[2389a778b156a3639a4bce3531bc29c3]
entity commons_logging--><rect fill="#1B1B1A" height="44.93" rx="8.3333" ry="8.3333" style="stroke:#5E5E5E;stroke-width:1.5625;" width="143.75" x="1017.7083" y="268.2861"/><polygon fill="#1B1B1A" points="1143.75,273.4945,1143.75,288.0778,1156.25,288.0778,1156.25,279.7445,1150,273.4945,1143.75,273.4945" style="stroke:#5E5E5E;stroke-width:1.5625;"/><line style="stroke:#5E5E5E;stroke-width:1.5625;" x1="1150" x2="1150" y1="273.4945" y2="279.7445"/><line style="stroke:#5E5E5E;stroke-width:1.5625;" x1="1156.25" x2="1150" y1="279.7445" y2="279.7445"/><text fill="#D8BC00" font-family="Open Sans,Avenir,Nunito,Arial,Helvetica,SansSerif" font-size="12.5" lengthAdjust="spacing" textLength="106.25" x="1031.25" y="297.0378">commons_logging</text><!--MD5=[ce55b294004802c137560c2930be5b75]
entity junit--><rect fill="#1B1B1A" height="44.93" rx="8.3333" ry="8.3333" style="stroke:#5E5E5E;stroke-width:1.5625;" width="63.5417" x="554.6875" y="482.8695"/><polygon fill="#1B1B1A" points="600.5208,488.0778,600.5208,502.6611,613.0208,502.6611,613.0208,494.3278,606.7708,488.0778,600.5208,488.0778" style="stroke:#5E5E5E;stroke-width:1.5625;"/><line style="stroke:#5E5E5E;stroke-width:1.5625;" x1="606.7708" x2="606.7708" y1="488.0778" y2="494.3278"/><line style="stroke:#5E5E5E;stroke-width:1.5625;" x1="613.0208" x2="606.7708" y1="494.3278" y2="494.3278"/><text fill="#D8BC00" font-family="Open Sans,Avenir,Nunito,Arial,Helvetica,SansSerif" font-size="12.5" lengthAdjust="spacing" textLength="26.0417" x="568.2292" y="511.6211">junit</text><!--MD5=[4d84dd946d4c44d64e4fb3c2bb10389a]
entity httpclient--><rect fill="#1B1B1A" height="44.93" rx="8.3333" ry="8.3333" style="stroke:#5E5E5E;stroke-width:1.5625;" width="92.7083" x="954.6875" y="160.9945"/><polygon fill="#1B1B1A" points="1029.6875,166.2028,1029.6875,180.7861,1042.1875,180.7861,1042.1875,172.4528,1035.9375,166.2028,1029.6875,166.2028" style="stroke:#5E5E5E;stroke-width:1.5625;"/><line style="stroke:#5E5E5E;stroke-width:1.5625;" x1="1035.9375" x2="1035.9375" y1="166.2028" y2="172.4528"/><line style="stroke:#5E5E5E;stroke-width:1.5625;" x1="1042.1875" x2="1035.9375" y1="172.4528" y2="172.4528"/><text fill="#D8BC00" font-family="Open Sans,Avenir,Nunito,Arial,Helvetica,SansSerif" font-size="12.5" lengthAdjust="spacing" textLength="55.2083" x="968.2292" y="189.7461">httpclient</text><!--MD5=[1374b169c6b8870e9ee15755210fd002]
entity httpcore--><rect fill="#1B1B1A" height="44.93" rx="8.3333" ry="8.3333" style="stroke:#5E5E5E;stroke-width:1.5625;" width="87.5" x="1197.9167" y="268.2861"/><polygon fill="#1B1B1A" points="1267.7083,273.4945,1267.7083,288.0778,1280.2083,288.0778,1280.2083,279.7445,1273.9583,273.4945,1267.7083,273.4945" style="stroke:#5E5E5E;stroke-width:1.5625;"/><line style="stroke:#5E5E5E;stroke-width:1.5625;" x1="1273.9583" x2="1273.9583" y1="273.4945" y2="279.7445"/><line style="stroke:#5E5E5E;stroke-width:1.5625;" x1="1280.2083" x2="1273.9583" y1="279.7445" y2="279.7445"/><text fill="#D8BC00" font-family="Open Sans,Avenir,Nunito,Arial,Helvetica,SansSerif" font-size="12.5" lengthAdjust="spacing" textLength="50" x="1211.4583" y="297.0378">httpcore</text><!--MD5=[7f157d37bc1fd6ac970bb67ffdbc66a3]
entity hamcrest_core--><rect fill="#1B1B1A" height="44.93" rx="8.3333" ry="8.3333" style="stroke:#5E5E5E;stroke-width:1.5625;" width="125" x="523.9583" y="590.1611"/><polygon fill="#1B1B1A" points="631.25,595.3695,631.25,609.9528,643.75,609.9528,643.75,601.6195,637.5,595.3695,631.25,595.3695" style="stroke:#5E5E5E;stroke-width:1.5625;"/><line style="stroke:#5E5E5E;stroke-width:1.5625;" x1="637.5" x2="637.5" y1="595.3695" y2="601.6195"/><line style="stroke:#5E5E5E;stroke-width:1.5625;" x1="643.75" x2="637.5" y1="601.6195" y2="601.6195"/><text fill="#D8BC00" font-family="Open Sans,Avenir,Nunito,Arial,Helvetica,SansSerif" font-size="12.5" lengthAdjust="spacing" textLength="87.5" x="537.5" y="618.9128">hamcrest_core</text><!--MD5=[b728e17b4e4da6aa8cb97e9b2766c5e6]
entity annotations--><rect fill="#1B1B1A" height="44.93" rx="8.3333" ry="8.3333" style="stroke:#5E5E5E;stroke-width:1.5625;" width="106.25" x="308.3333" y="590.1611"/><polygon fill="#1B1B1A" points="396.875,595.3695,396.875,609.9528,409.375,609.9528,409.375,601.6195,403.125,595.3695,396.875,595.3695" style="stroke:#5E5E5E;stroke-width:1.5625;"/><line style="stroke:#5E5E5E;stroke-width:1.5625;" x1="403.125" x2="403.125" y1="595.3695" y2="601.6195"/><line style="stroke:#5E5E5E;stroke-width:1.5625;" x1="409.375" x2="403.125" y1="601.6195" y2="601.6195"/><text fill="#D8BC00" font-family="Open Sans,Avenir,Nunito,Arial,Helvetica,SansSerif" font-size="12.5" lengthAdjust="spacing" textLength="68.75" x="321.875" y="618.9128">annotations</text><!--MD5=[923ee6a6eae3e1d757d269661300cab9]
link httpclient to commons_codec--><path d="M982.6979,206.234 C968.5938,222.984 949.0729,246.182 934.1979,263.859 " fill="none" id="httpclient-to-commons_codec" style="stroke:#545454;stroke-width:1.5625;"/><polygon fill="#545454" points="930.5208,268.234,939.7498,263.7533,933.8785,264.2524,933.3793,258.3811,930.5208,268.234" style="stroke:#545454;stroke-width:1.5625;"/><!--MD5=[c333db81a2cf180100c7f76536e57fe3]
link httpclient to commons_logging--><path d="M1019.3854,206.234 C1033.4896,222.984 1053.0104,246.182 1067.8854,263.859 " fill="none" id="httpclient-to-commons_logging" style="stroke:#545454;stroke-width:1.5625;"/><polygon fill="#545454" points="1071.5625,268.234,1068.7041,258.3811,1068.2049,264.2524,1062.3335,263.7533,1071.5625,268.234" style="stroke:#545454;stroke-width:1.5625;"/><!--MD5=[eb2a6f0c186b5b958ac6ddd5ba3b959e]
link httpclient to httpcore--><path d="M1047.4375,204.7132 C1089.1667,222.9632 1150.2708,249.682 1192.7604,268.2549 " fill="none" id="httpclient-to-httpcore" style="stroke:#545454;stroke-width:1.5625;"/><polygon fill="#545454" points="1197.8438,270.484,1190.9162,262.917,1193.0697,268.4019,1187.5848,270.5554,1197.8438,270.484" style="stroke:#545454;stroke-width:1.5625;"/><!--MD5=[d68e7c4b3ca5f037bcb6997a0b4ed16b]
link junit to hamcrest_core--><path d="M586.4583,528.109 C586.4583,544.5778 586.4583,567.2757 586.4583,584.8278 " fill="none" id="junit-to-hamcrest_core" style="stroke:#545454;stroke-width:1.5625;"/><polygon fill="#545454" points="586.4583,590.109,590.625,580.734,586.4583,584.9007,582.2917,580.734,586.4583,590.109" style="stroke:#545454;stroke-width:1.5625;"/><!--MD5=[9286c1a5f216d35026583190a4d72b78]
link kivakit_commandline to kivakit_collections--><path d="M339.6354,313.2653 C313.1354,330.432 276.0104,354.4632 248.3542,372.3695 " fill="none" id="kivakit_commandline-to-kivakit_collections" style="stroke:#545454;stroke-width:1.5625;"/><polygon fill="#545454" points="243.6458,375.4215,253.7812,373.8325,248.0202,372.5946,249.2581,366.8335,243.6458,375.4215" style="stroke:#545454;stroke-width:1.5625;"/><!--MD5=[943c04cd0fe752834cf06c59f408a839]
link kivakit_commandline to kivakit_core--><path d="M372.9167,313.5257 C372.9167,329.9945 372.9167,352.6924 372.9167,370.2445 " fill="none" id="kivakit_commandline-to-kivakit_core" style="stroke:#545454;stroke-width:1.5625;"/><polygon fill="#545454" points="372.9167,375.5257,377.0833,366.1507,372.9167,370.3174,368.75,366.1507,372.9167,375.5257" style="stroke:#545454;stroke-width:1.5625;"/><!--MD5=[233173b8414f4008c96b85f34b766932]
link kivakit_commandline to kivakit_validation--><path d="M405.7708,313.2653 C431.9375,330.432 468.5833,354.4632 495.8854,372.3695 " fill="none" id="kivakit_commandline-to-kivakit_validation" style="stroke:#545454;stroke-width:1.5625;"/><polygon fill="#545454" points="500.5313,375.4215,494.9736,366.7981,496.1749,372.5669,490.4061,373.7682,500.5313,375.4215" style="stroke:#545454;stroke-width:1.5625;"/><!--MD5=[a27c71d033f650a74e689916edfa2bee]
link kivakit_core to cactus_metadata--><path d="M318.6354,419.5465 C272.0208,437.182 204.8542,462.5882 156.2604,480.9736 " fill="none" id="kivakit_core-to-cactus_metadata" style="stroke:#545454;stroke-width:1.5625;"/><polygon fill="#545454" points="151.3229,482.8382,161.5656,483.4205,156.1947,480.9964,158.6188,475.6256,151.3229,482.8382" style="stroke:#545454;stroke-width:1.5625;"/><!--MD5=[3eda3c974646e0509602a12450d4fa2b]
link kivakit_core to junit--><path d="M416.6458,420.557 C455.8854,439.8903 512.8125,467.9424 549.7396,486.1299 " fill="none" id="kivakit_core-to-junit" style="stroke:#545454;stroke-width:1.5625;"/><polygon fill="#545454" points="554.5938,488.5257,548.0113,480.6566,549.9175,486.2323,544.3418,488.1385,554.5938,488.5257" style="stroke:#545454;stroke-width:1.5625;"/><!--MD5=[50e8d2e340cfb1a2dae3d5796adb8458]
link kivakit_core to kivakit_interfaces--><path d="M355.6458,420.8174 C342.375,437.5674 324,460.7653 310,478.4424 " fill="none" id="kivakit_core-to-kivakit_interfaces" style="stroke:#545454;stroke-width:1.5625;"/><polygon fill="#545454" points="306.5417,482.8174,315.62,478.0388,309.768,478.7287,309.0781,472.8767,306.5417,482.8174" style="stroke:#545454;stroke-width:1.5625;"/><!--MD5=[cc9720141deba8e1bd3912e4e0759165]
link kivakit_core to kivakit_mixins--><path d="M390.3958,420.8174 C403.8333,437.5674 422.4375,460.7653 436.6146,478.4424 " fill="none" id="kivakit_core-to-kivakit_mixins" style="stroke:#545454;stroke-width:1.5625;"/><polygon fill="#545454" points="440.125,482.8174,437.5088,472.8973,436.8659,478.7547,431.0086,478.1118,440.125,482.8174" style="stroke:#545454;stroke-width:1.5625;"/><!--MD5=[ae0cbb2eeca1523bc78b042db62e2be7]
link kivakit_interfaces to annotations--><path d="M304.4792,528.109 C315.9271,544.859 331.7708,568.057 343.8438,585.734 " fill="none" id="kivakit_interfaces-to-annotations" style="stroke:#545454;stroke-width:1.5625;"/><polygon fill="#545454" points="346.8333,590.109,344.9957,580.0157,343.8997,585.8055,338.11,584.7095,346.8333,590.109" style="stroke:#545454;stroke-width:1.5625;"/><!--MD5=[9b9898faa91efac5ccf8efb529e9a4f7]
link kivakit_interfaces to lexakai_annotations--><path d="M269.7292,528.109 C254.3333,545.0049 232.9792,568.4528 216.8229,586.182 " fill="none" id="kivakit_interfaces-to-lexakai_annotations" style="stroke:#545454;stroke-width:1.5625;"/><polygon fill="#545454" points="213.25,590.109,222.6521,586.0038,216.7654,586.266,216.5032,580.3793,213.25,590.109" style="stroke:#545454;stroke-width:1.5625;"/><!--MD5=[af7e692cd727b0a63828c0c33aa81240]
link kivakit_network_core to kivakit_commandline--><path d="M595.25,205.8486 C548.5521,223.4528 482.5104,248.3382 434.5417,266.4111 " fill="none" id="kivakit_network_core-to-kivakit_commandline" style="stroke:#545454;stroke-width:1.5625;"/><polygon fill="#545454" points="429.6667,268.2549,439.9099,268.8268,434.5366,266.4082,436.9552,261.0348,429.6667,268.2549" style="stroke:#545454;stroke-width:1.5625;"/><!--MD5=[9bb584e9c76084b7a27dcc62deb64b83]
link kivakit_network_core to kivakit_conversion--><path d="M633.7396,206.234 C619.6354,222.984 600.1146,246.182 585.2396,263.859 " fill="none" id="kivakit_network_core-to-kivakit_conversion" style="stroke:#545454;stroke-width:1.5625;"/><polygon fill="#545454" points="581.5625,268.234,590.7915,263.7533,584.9201,264.2524,584.4209,258.3811,581.5625,268.234" style="stroke:#545454;stroke-width:1.5625;"/><!--MD5=[a3c7b599ee179008fb6e6c2769423111]
link kivakit_network_core to kivakit_resource--><path d="M670.4271,206.234 C684.5313,222.984 704.0521,246.182 718.9271,263.859 " fill="none" id="kivakit_network_core-to-kivakit_resource" style="stroke:#545454;stroke-width:1.5625;"/><polygon fill="#545454" points="722.6042,268.234,719.7457,258.3811,719.2465,264.2524,713.3752,263.7533,722.6042,268.234" style="stroke:#545454;stroke-width:1.5625;"/><!--MD5=[2da4dac6dcd51ddfc920d13d409dac31]
link kivakit_network_http to httpclient--><path d="M791.1458,98.557 C837.4688,117.0465 903.9479,143.5882 949.6146,161.8174 " fill="none" id="kivakit_network_http-to-httpclient" style="stroke:#545454;stroke-width:1.5625;"/><polygon fill="#545454" points="954.5208,163.7757,947.3443,156.4443,949.6799,161.8542,944.27,164.1898,954.5208,163.7757" style="stroke:#545454;stroke-width:1.5625;"/><!--MD5=[45c204851fd38ebf06aead51207b0728]
link kivakit_network_http to kivakit_network_core--><path d="M719.8021,98.9424 C706.1979,115.6924 687.3646,138.8903 673.0104,156.5674 " fill="none" id="kivakit_network_http-to-kivakit_network_core" style="stroke:#545454;stroke-width:1.5625;"/><polygon fill="#545454" points="669.4688,160.9424,678.6144,156.2938,672.7531,156.9001,672.1467,151.0388,669.4688,160.9424" style="stroke:#545454;stroke-width:1.5625;"/><!--MD5=[072bec7c9f4257b43165f88a45c56597]
@startuml

    !include lexakai.theme
    
    title "kivakit-network-http"
    
    artifact cactus_metadata
    artifact kivakit_collections
    artifact kivakit_commandline
    artifact kivakit_conversion
    artifact kivakit_core
    artifact kivakit_interfaces
    artifact kivakit_mixins
    artifact kivakit_network_core
    artifact kivakit_network_http
    artifact kivakit_resource
    artifact kivakit_validation
    artifact lexakai_annotations
    artifact commons_codec
    artifact commons_logging
    artifact junit
    artifact httpclient
    artifact httpcore
    artifact hamcrest_core
    artifact annotations
    httpclient - -> commons_codec
    httpclient - -> commons_logging
    httpclient - -> httpcore
    junit - -> hamcrest_core
    kivakit_commandline - -> kivakit_collections
    kivakit_commandline - -> kivakit_core
    kivakit_commandline - -> kivakit_validation
    kivakit_core - -> cactus_metadata
    kivakit_core - -> junit
    kivakit_core - -> kivakit_interfaces
    kivakit_core - -> kivakit_mixins
    kivakit_interfaces - -> annotations
    kivakit_interfaces - -> lexakai_annotations
    kivakit_network_core - -> kivakit_commandline
    kivakit_network_core - -> kivakit_conversion
    kivakit_network_core - -> kivakit_resource
    kivakit_network_http - -> httpclient
    kivakit_network_http - -> kivakit_network_core
    
@enduml

@startuml









skinparam backgroundColor #333333






skinparam  {
    defaultFontName   "Open Sans,Avenir,Nunito,Arial,Helvetica,SansSerif"
    defaultFontSize   12
    defaultTextAlignment left
    shadowing false
    RoundCorner 10
    TitleFontSize 18
}

skinparam defaultFontName       "Open Sans,Avenir,Nunito,Arial,Helvetica,SansSerif"
skinparam defaultFontSize       12
skinparam dpi                   100
skinparam shadowing             false
skinparam roundcorner           16
skinparam ParticipantPadding    40
skinparam BoxPadding            40
skinparam Padding               3
skinparam ArrowColor            #545454
skinparam stereotype {
    CBackgroundColor #0066cf
    CBorderColor #0086ef
    ABackgroundColor #C8Ac00
    ABorderColor #D8Bc00
    IBackgroundColor #008400
    IBorderColor #239c23
    EBackgroundColor #cf6300
    EBorderColor #ef8300
    NBackgroundColor #3380b9
    NBorderColor #004d86
}
skinparam title {
	FontColor	                 #c0c0c0
 	BorderColor                  #545454
	FontSize	    	         20
	BorderRoundCorner            16
	BorderThickness 	         1
	BackgroundColor              #48494b
}


skinparam legend {
	BackgroundColor #303030
	BorderColor #404040
	FontColor #a0a0a0
}

	skinparam swimlane {
	BorderColor #5e5e5e
	BorderThickness 2
	TitleBackgroundColor  #6d6d6d-#484848
	TitleFontColor #303030
}

skinparam activity {
		FontColor #C8Ac00
	BorderColor #333333
	BackgroundColor #333333-#333333
	BarColor #00FF00
	StartColor #0060a8
	EndColor #0060a8
	DiamondBackgroundColor #6d6d6d-#3a3a3a
  	DiamondBorderColor #3a3a3a
  	DiamondFontColor #fefefe
}


skinparam participant {
		FontColor #C8Ac00
	BorderColor #333333
	BackgroundColor #333333-#333333
	ParticipantBorderThickness 2
}


skinparam actor {
		FontColor #C8Ac00
	BorderColor #333333
	BackgroundColor #333333-#333333
}


skinparam arrow {
	Thickness 1.5
	Color #545454
	FontColor #a0a0a0
    FontStyle bold
    MessageAlignment center
}



skinparam sequence {
	BorderColor #303030
	TitleFontColor #303030
	BackgroundColor #333333
	StartColor #303030
	EndColor #303030
	BoxBackgroundColor #333333
	BoxBorderColor #484848
	BoxFontColor #484848
	LifeLineBorderColor #484848
	LifeLineBorderThickness 2
	LifeLineBackgroundColor #3a3a3a
	GroupBorderColor #484848
	GroupFontColor #484848
	GroupHeaderFontColor #0060a8
	GroupBackgroundColor #484848
	GroupHeaderBackgroundColor #333333
	DividerBackgroundColor #484848
    DividerBorderColor #484848
    DividerBorderThickness 2
    DividerFontColor #D8Bc00
	ReferenceBackgroundColor #333333
	ReferenceBorderColor #484848
	ReferenceFontColor #fefefe
	ReferenceHeaderBackgroundColor #484848
}


skinparam partition {
	BorderColor #303030
	FontColor #333333
	BackgroundColor #333333
}


skinparam collections {
		FontColor #C8Ac00
	BorderColor #333333
	BackgroundColor #333333-#333333
}


skinparam control {
		FontColor #C8Ac00
	BorderColor #333333
	BackgroundColor #333333-#333333
}


skinparam entity {
		FontColor #C8Ac00
	BorderColor #333333
	BackgroundColor #333333-#333333
}


skinparam boundary {
		FontColor #C8Ac00
	BorderColor #333333
	BackgroundColor #333333-#333333
}


skinparam agent {
	BackgroundColor #ff8000
	BorderColor #ff9933
	FontColor #484848
}


skinparam note {
	BorderThickness 1
	BackgroundColor #1b1b1a
	BorderColor #5e5e5e
	FontSize 11
	FontColor #a0a0a0
}


skinparam artifact {
	BorderThickness 10
	BorderColor #5e5e5e
	BackgroundColor #1b1b1a
	FontColor #D8Bc00
}


skinparam component {
		FontColor #C8Ac00
	BorderColor #333333
	BackgroundColor #333333-#333333
}


skinparam interface {
	BackgroundColor  #008400
	BorderColor  #007F00
	FontColor #484848
}


skinparam storage {
	BackgroundColor #ff8000
  	BorderColor #cc6600
	FontColor #222222
}


skinparam node {
	BackgroundColor #333333
	BorderColor #333333
	FontColor #C8Ac00
}


skinparam cloud {
	BackgroundColor #484848-black
	BorderColor #484848
	FontColor #D8Bc00
}


skinparam database {
		FontColor #C8Ac00
	BorderColor #333333
	BackgroundColor #333333-#333333
	BackgroundColor  #333333
}


skinparam class {
		FontColor #C8Ac00
	BorderColor #333333
	BackgroundColor #333333-#333333
	HeaderBackgroundColor #1b1b1a
    BackgroundColor #282828
    BorderColor #5e5e5e
 	StereotypeFontColor #a0a0a0
    StereotypeFontStyle bold
	BorderThickness 1
	AttributeFontColor #D8Bc00
	AttributeFontSize 11
    FontColor #D8Bc00
    FontStyle bold
}


skinparam object {
		FontColor #C8Ac00
	BorderColor #333333
	BackgroundColor #333333-#333333
	StereotypeFontColor #484848
	BorderThickness 1
	AttributeFontColor #fefefe
	AttributeFontSize 11
}


skinparam usecase {
		FontColor #C8Ac00
	BorderColor #333333
	BackgroundColor #333333-#333333
	BorderThickness 2
	StereotypeFontColor #303030
}


skinparam rectangle {
		FontColor #C8Ac00
	BorderColor #333333
	BackgroundColor #333333-#333333
	BackgroundColor #333333
	BorderThickness 2
	StereotypeFontColor #303030
}


skinparam package {
		FontColor #C8Ac00
	BorderColor #333333
	BackgroundColor #333333-#333333
	BackgroundColor #333333
	BorderThickness 2
}


skinparam folder {
	BackgroundColor #6d6d6d
  	BorderColor #ff8000
	FontColor #ff8000
	BorderThickness 2
}


skinparam frame {
	BackgroundColor #6d6d6d
  	BorderColor #0060a8
	FontColor #0060a8
	BorderThickness 2
}


skinparam state {
		FontColor #C8Ac00
	BorderColor #333333
	BackgroundColor #333333-#333333
	StartColor #0060a8
	EndColor #0060a8
	AttributeFontColor #fefefe
	AttributeFontSize 11
}


skinparam queue {
		FontColor #C8Ac00
	BorderColor #333333
	BackgroundColor #333333-#333333
}


skinparam card {
	BackgroundColor #0060a8
	BorderColor #004d86
	FontColor $INFO_TEXT
}


skinparam file {
	BackgroundColor #6d6d6d-#484848
	BorderColor #0060a8
	FontColor #fefefe
}


skinparam stack {
		FontColor #C8Ac00
	BorderColor #333333
	BackgroundColor #333333-#333333
}

    
    title "kivakit-network-http"
    
    artifact cactus_metadata
    artifact kivakit_collections
    artifact kivakit_commandline
    artifact kivakit_conversion
    artifact kivakit_core
    artifact kivakit_interfaces
    artifact kivakit_mixins
    artifact kivakit_network_core
    artifact kivakit_network_http
    artifact kivakit_resource
    artifact kivakit_validation
    artifact lexakai_annotations
    artifact commons_codec
    artifact commons_logging
    artifact junit
    artifact httpclient
    artifact httpcore
    artifact hamcrest_core
    artifact annotations
    httpclient - -> commons_codec
    httpclient - -> commons_logging
    httpclient - -> httpcore
    junit - -> hamcrest_core
    kivakit_commandline - -> kivakit_collections
    kivakit_commandline - -> kivakit_core
    kivakit_commandline - -> kivakit_validation
    kivakit_core - -> cactus_metadata
    kivakit_core - -> junit
    kivakit_core - -> kivakit_interfaces
    kivakit_core - -> kivakit_mixins
    kivakit_interfaces - -> annotations
    kivakit_interfaces - -> lexakai_annotations
    kivakit_network_core - -> kivakit_commandline
    kivakit_network_core - -> kivakit_conversion
    kivakit_network_core - -> kivakit_resource
    kivakit_network_http - -> httpclient
    kivakit_network_http - -> kivakit_network_core
    
@enduml

PlantUML version 1.2021.01(Tue Feb 02 00:55:08 MST 2021)
(GPL source distribution)
Java Runtime: OpenJDK Runtime Environment
JVM: OpenJDK 64-Bit Server VM
Default Encoding: UTF-8
Language: en
Country: US
--></g></svg>
