<?xml version="1.0" encoding="UTF-8" standalone="no"?><svg xmlns="http://www.w3.org/2000/svg" xmlns:xlink="http://www.w3.org/1999/xlink" contentScriptType="application/ecmascript" contentStyleType="text/css" height="147.9167px" preserveAspectRatio="none" style="width:420px;height:147px;background:#333333;" version="1.1" viewBox="0 0 420 147" width="420.8333px" zoomAndPan="magnify"><defs/><g><rect fill="#48494B" height="41.2028" rx="8.3333" ry="8.3333" style="stroke:#545454;stroke-width:1.0416666666666667;" width="408.3333" x="2.0833" y="2.0833"/><text fill="#C0C0C0" font-family="Open Sans,Avenir,Nunito,Arial,Helvetica,SansSerif" font-size="20.8333" lengthAdjust="spacing" textLength="385.4167" x="13.5417" y="30.5583">com.telenav.kivakit.math.trigonometry</text><rect codeLine="7" fill="#282828" height="87.5448" id="Trigonometry" rx="8.3333" ry="8.3333" style="stroke:#5E5E5E;stroke-width:1.0416666666666667;" width="256.25" x="78.6458" y="53.7028"/><rect fill="#1B1B1A" height="31.3883" rx="8.3333" ry="8.3333" style="stroke:#1B1B1A;stroke-width:1.0416666666666667;" width="256.25" x="78.6458" y="53.7028"/><rect fill="#1B1B1A" height="8.3333" style="stroke:#1B1B1A;stroke-width:1.0416666666666667;" width="256.25" x="78.6458" y="76.7578"/><rect codeLine="7" fill="none" height="87.5448" id="Trigonometry" rx="8.3333" ry="8.3333" style="stroke:#5E5E5E;stroke-width:1.0416666666666667;" width="256.25" x="78.6458" y="53.7028"/><ellipse cx="155.2083" cy="69.397" fill="#0066CF" rx="10.4167" ry="10.4167" style="stroke:#0086EF;stroke-width:1.0416666666666667;"/><path d="M157.1187,73.822 Q156.6915,74.0417 156.2215,74.1516 Q155.7515,74.2615 155.2327,74.2615 Q153.3895,74.2615 152.419,73.0469 Q151.4486,71.8323 151.4486,69.5374 Q151.4486,67.2363 152.419,66.0217 Q153.3895,64.8071 155.2327,64.8071 Q155.7515,64.8071 156.2276,64.917 Q156.7037,65.0269 157.1187,65.2466 L157.1187,67.2485 Q156.6549,66.8213 156.2185,66.6229 Q155.7821,66.4246 155.3182,66.4246 Q154.3294,66.4246 153.8259,67.2089 Q153.3223,67.9932 153.3223,69.5374 Q153.3223,71.0754 153.8259,71.8597 Q154.3294,72.644 155.3182,72.644 Q155.7821,72.644 156.2185,72.4457 Q156.6549,72.2473 157.1187,71.8201 Z " fill="#000000"/><text fill="#D8BC00" font-family="Open Sans,Avenir,Nunito,Arial,Helvetica,SansSerif" font-size="12.5" font-weight="bold" lengthAdjust="spacing" textLength="88.5417" x="178.125" y="74.1211">Trigonometry</text><line style="stroke:#5E5E5E;stroke-width:1.5625;" x1="79.6875" x2="333.8542" y1="85.0911" y2="85.0911"/><line style="stroke:#5E5E5E;stroke-width:1.0416666666666667;" x1="79.6875" x2="333.8542" y1="93.4245" y2="93.4245"/><ellipse cx="90.1042" cy="104.8828" fill="#84BE84" rx="3.125" ry="3.125" style="stroke:#038048;stroke-width:1.0416666666666667;"/><text fill="#D8BC00" font-family="Open Sans,Avenir,Nunito,Arial,Helvetica,SansSerif" font-size="11.4583" lengthAdjust="spacing" textLength="184.375" x="101.5625" y="111.794">double arcTangent(double value)</text><ellipse cx="90.1042" cy="124.6277" fill="#84BE84" rx="3.125" ry="3.125" style="stroke:#038048;stroke-width:1.0416666666666667;"/><text fill="#D8BC00" font-family="Open Sans,Avenir,Nunito,Arial,Helvetica,SansSerif" font-size="11.4583" lengthAdjust="spacing" textLength="223.9583" x="101.5625" y="131.5389">double arcTangent2(double y, double x)</text></g></svg>
