<?xml version="1.0" encoding="UTF-8" standalone="no"?><svg xmlns="http://www.w3.org/2000/svg" xmlns:xlink="http://www.w3.org/1999/xlink" contentScriptType="application/ecmascript" contentStyleType="text/css" height="533.3333px" preserveAspectRatio="none" style="width:1062px;height:533px;background:#333333;" version="1.1" viewBox="0 0 1062 533" width="1062.5px" zoomAndPan="magnify"><defs/><g><rect fill="#48494B" height="41.2028" rx="8.3333" ry="8.3333" style="stroke:#545454;stroke-width:1.0416666666666667;" width="153.125" x="447.3958" y="2.0833"/><text fill="#C0C0C0" font-family="Open Sans,Avenir,Nunito,Arial,Helvetica,SansSerif" font-size="20.8333" lengthAdjust="spacing" textLength="130.2083" x="458.8542" y="30.5583">kivakit-math</text><rect fill="#1B1B1A" height="44.93" rx="8.3333" ry="8.3333" style="stroke:#5E5E5E;stroke-width:1.5625;" width="138.5417" x="7.2917" y="375.5778"/><polygon fill="#1B1B1A" points="128.125,380.7861,128.125,395.3695,140.625,395.3695,140.625,387.0361,134.375,380.7861,128.125,380.7861" style="stroke:#5E5E5E;stroke-width:1.5625;"/><line style="stroke:#5E5E5E;stroke-width:1.5625;" x1="134.375" x2="134.375" y1="380.7861" y2="387.0361"/><line style="stroke:#5E5E5E;stroke-width:1.5625;" x1="140.625" x2="134.375" y1="387.0361" y2="387.0361"/><text fill="#D8BC00" font-family="Open Sans,Avenir,Nunito,Arial,Helvetica,SansSerif" font-size="12.5" lengthAdjust="spacing" textLength="101.0417" x="20.8333" y="404.3294">cactus_metadata</text><rect fill="#1B1B1A" height="44.93" rx="8.3333" ry="8.3333" style="stroke:#5E5E5E;stroke-width:1.5625;" width="143.75" x="420.3125" y="160.9945"/><polygon fill="#1B1B1A" points="546.3542,166.2028,546.3542,180.7861,558.8542,180.7861,558.8542,172.4528,552.6042,166.2028,546.3542,166.2028" style="stroke:#5E5E5E;stroke-width:1.5625;"/><line style="stroke:#5E5E5E;stroke-width:1.5625;" x1="552.6042" x2="552.6042" y1="166.2028" y2="172.4528"/><line style="stroke:#5E5E5E;stroke-width:1.5625;" x1="558.8542" x2="552.6042" y1="172.4528" y2="172.4528"/><text fill="#D8BC00" font-family="Open Sans,Avenir,Nunito,Arial,Helvetica,SansSerif" font-size="12.5" lengthAdjust="spacing" textLength="106.25" x="433.8542" y="189.7461">kivakit_collections</text><rect fill="#1B1B1A" height="44.93" rx="8.3333" ry="8.3333" style="stroke:#5E5E5E;stroke-width:1.5625;" width="162.5" x="760.9375" y="375.5778"/><polygon fill="#1B1B1A" points="905.7292,380.7861,905.7292,395.3695,918.2292,395.3695,918.2292,387.0361,911.9792,380.7861,905.7292,380.7861" style="stroke:#5E5E5E;stroke-width:1.5625;"/><line style="stroke:#5E5E5E;stroke-width:1.5625;" x1="911.9792" x2="911.9792" y1="380.7861" y2="387.0361"/><line style="stroke:#5E5E5E;stroke-width:1.5625;" x1="918.2292" x2="911.9792" y1="387.0361" y2="387.0361"/><text fill="#D8BC00" font-family="Open Sans,Avenir,Nunito,Arial,Helvetica,SansSerif" font-size="12.5" lengthAdjust="spacing" textLength="125" x="774.4792" y="404.3294">kivakit_commandline</text><rect fill="#1B1B1A" height="44.93" rx="8.3333" ry="8.3333" style="stroke:#5E5E5E;stroke-width:1.5625;" width="145.8333" x="708.8542" y="482.8695"/><polygon fill="#1B1B1A" points="836.9792,488.0778,836.9792,502.6611,849.4792,502.6611,849.4792,494.3278,843.2292,488.0778,836.9792,488.0778" style="stroke:#5E5E5E;stroke-width:1.5625;"/><line style="stroke:#5E5E5E;stroke-width:1.5625;" x1="843.2292" x2="843.2292" y1="488.0778" y2="494.3278"/><line style="stroke:#5E5E5E;stroke-width:1.5625;" x1="849.4792" x2="843.2292" y1="494.3278" y2="494.3278"/><text fill="#D8BC00" font-family="Open Sans,Avenir,Nunito,Arial,Helvetica,SansSerif" font-size="12.5" lengthAdjust="spacing" textLength="108.3333" x="722.3958" y="511.6211">kivakit_conversion</text><rect fill="#1B1B1A" height="44.93" rx="8.3333" ry="8.3333" style="stroke:#5E5E5E;stroke-width:1.5625;" width="108.3333" x="309.8958" y="268.2861"/><polygon fill="#1B1B1A" points="400.5208,273.4945,400.5208,288.0778,413.0208,288.0778,413.0208,279.7445,406.7708,273.4945,400.5208,273.4945" style="stroke:#5E5E5E;stroke-width:1.5625;"/><line style="stroke:#5E5E5E;stroke-width:1.5625;" x1="406.7708" x2="406.7708" y1="273.4945" y2="279.7445"/><line style="stroke:#5E5E5E;stroke-width:1.5625;" x1="413.0208" x2="406.7708" y1="279.7445" y2="279.7445"/><text fill="#D8BC00" font-family="Open Sans,Avenir,Nunito,Arial,Helvetica,SansSerif" font-size="12.5" lengthAdjust="spacing" textLength="70.8333" x="323.4375" y="297.0378">kivakit_core</text><rect fill="#1B1B1A" height="44.93" rx="8.3333" ry="8.3333" style="stroke:#5E5E5E;stroke-width:1.5625;" width="140.625" x="182.2917" y="375.5778"/><polygon fill="#1B1B1A" points="305.2083,380.7861,305.2083,395.3695,317.7083,395.3695,317.7083,387.0361,311.4583,380.7861,305.2083,380.7861" style="stroke:#5E5E5E;stroke-width:1.5625;"/><line style="stroke:#5E5E5E;stroke-width:1.5625;" x1="311.4583" x2="311.4583" y1="380.7861" y2="387.0361"/><line style="stroke:#5E5E5E;stroke-width:1.5625;" x1="317.7083" x2="311.4583" y1="387.0361" y2="387.0361"/><text fill="#D8BC00" font-family="Open Sans,Avenir,Nunito,Arial,Helvetica,SansSerif" font-size="12.5" lengthAdjust="spacing" textLength="103.125" x="195.8333" y="404.3294">kivakit_interfaces</text><rect fill="#1B1B1A" height="44.93" rx="8.3333" ry="8.3333" style="stroke:#5E5E5E;stroke-width:1.5625;" width="172.9167" x="514.0625" y="268.2861"/><polygon fill="#1B1B1A" points="669.2708,273.4945,669.2708,288.0778,681.7708,288.0778,681.7708,279.7445,675.5208,273.4945,669.2708,273.4945" style="stroke:#5E5E5E;stroke-width:1.5625;"/><line style="stroke:#5E5E5E;stroke-width:1.5625;" x1="675.5208" x2="675.5208" y1="273.4945" y2="279.7445"/><line style="stroke:#5E5E5E;stroke-width:1.5625;" x1="681.7708" x2="675.5208" y1="279.7445" y2="279.7445"/><text fill="#D8BC00" font-family="Open Sans,Avenir,Nunito,Arial,Helvetica,SansSerif" font-size="12.5" lengthAdjust="spacing" textLength="135.4167" x="527.6042" y="297.0378">kivakit_internal_testing</text><rect fill="#1B1B1A" height="44.93" rx="8.3333" ry="8.3333" style="stroke:#5E5E5E;stroke-width:1.5625;" width="112.5" x="639.0625" y="53.7028"/><polygon fill="#1B1B1A" points="733.8542,58.9111,733.8542,73.4945,746.3542,73.4945,746.3542,65.1611,740.1042,58.9111,733.8542,58.9111" style="stroke:#5E5E5E;stroke-width:1.5625;"/><line style="stroke:#5E5E5E;stroke-width:1.5625;" x1="740.1042" x2="740.1042" y1="58.9111" y2="65.1611"/><line style="stroke:#5E5E5E;stroke-width:1.5625;" x1="746.3542" x2="740.1042" y1="65.1611" y2="65.1611"/><text fill="#D8BC00" font-family="Open Sans,Avenir,Nunito,Arial,Helvetica,SansSerif" font-size="12.5" lengthAdjust="spacing" textLength="75" x="652.6042" y="82.4544">kivakit_math</text><rect fill="#1B1B1A" height="44.93" rx="8.3333" ry="8.3333" style="stroke:#5E5E5E;stroke-width:1.5625;" width="120.8333" x="359.8958" y="375.5778"/><polygon fill="#1B1B1A" points="463.0208,380.7861,463.0208,395.3695,475.5208,395.3695,475.5208,387.0361,469.2708,380.7861,463.0208,380.7861" style="stroke:#5E5E5E;stroke-width:1.5625;"/><line style="stroke:#5E5E5E;stroke-width:1.5625;" x1="469.2708" x2="469.2708" y1="380.7861" y2="387.0361"/><line style="stroke:#5E5E5E;stroke-width:1.5625;" x1="475.5208" x2="469.2708" y1="387.0361" y2="387.0361"/><text fill="#D8BC00" font-family="Open Sans,Avenir,Nunito,Arial,Helvetica,SansSerif" font-size="12.5" lengthAdjust="spacing" textLength="83.3333" x="373.4375" y="404.3294">kivakit_mixins</text><rect fill="#1B1B1A" height="44.93" rx="8.3333" ry="8.3333" style="stroke:#5E5E5E;stroke-width:1.5625;" width="134.375" x="723.9583" y="268.2861"/><polygon fill="#1B1B1A" points="840.625,273.4945,840.625,288.0778,853.125,288.0778,853.125,279.7445,846.875,273.4945,840.625,273.4945" style="stroke:#5E5E5E;stroke-width:1.5625;"/><line style="stroke:#5E5E5E;stroke-width:1.5625;" x1="846.875" x2="846.875" y1="273.4945" y2="279.7445"/><line style="stroke:#5E5E5E;stroke-width:1.5625;" x1="853.125" x2="846.875" y1="279.7445" y2="279.7445"/><text fill="#D8BC00" font-family="Open Sans,Avenir,Nunito,Arial,Helvetica,SansSerif" font-size="12.5" lengthAdjust="spacing" textLength="96.875" x="737.5" y="297.0378">kivakit_resource</text><rect fill="#1B1B1A" height="44.93" rx="8.3333" ry="8.3333" style="stroke:#5E5E5E;stroke-width:1.5625;" width="121.875" x="634.375" y="160.9945"/><polygon fill="#1B1B1A" points="738.5417,166.2028,738.5417,180.7861,751.0417,180.7861,751.0417,172.4528,744.7917,166.2028,738.5417,166.2028" style="stroke:#5E5E5E;stroke-width:1.5625;"/><line style="stroke:#5E5E5E;stroke-width:1.5625;" x1="744.7917" x2="744.7917" y1="166.2028" y2="172.4528"/><line style="stroke:#5E5E5E;stroke-width:1.5625;" x1="751.0417" x2="744.7917" y1="172.4528" y2="172.4528"/><text fill="#D8BC00" font-family="Open Sans,Avenir,Nunito,Arial,Helvetica,SansSerif" font-size="12.5" lengthAdjust="spacing" textLength="84.375" x="647.9167" y="189.7461">kivakit_testing</text><rect fill="#1B1B1A" height="44.93" rx="8.3333" ry="8.3333" style="stroke:#5E5E5E;stroke-width:1.5625;" width="139.5833" x="891.1458" y="482.8695"/><polygon fill="#1B1B1A" points="1013.0208,488.0778,1013.0208,502.6611,1025.5208,502.6611,1025.5208,494.3278,1019.2708,488.0778,1013.0208,488.0778" style="stroke:#5E5E5E;stroke-width:1.5625;"/><line style="stroke:#5E5E5E;stroke-width:1.5625;" x1="1019.2708" x2="1019.2708" y1="488.0778" y2="494.3278"/><line style="stroke:#5E5E5E;stroke-width:1.5625;" x1="1025.5208" x2="1019.2708" y1="494.3278" y2="494.3278"/><text fill="#D8BC00" font-family="Open Sans,Avenir,Nunito,Arial,Helvetica,SansSerif" font-size="12.5" lengthAdjust="spacing" textLength="102.0833" x="904.6875" y="511.6211">kivakit_validation</text><rect fill="#1B1B1A" height="44.93" rx="8.3333" ry="8.3333" style="stroke:#5E5E5E;stroke-width:1.5625;" width="155.2083" x="894.7917" y="268.2861"/><polygon fill="#1B1B1A" points="1032.2917,273.4945,1032.2917,288.0778,1044.7917,288.0778,1044.7917,279.7445,1038.5417,273.4945,1032.2917,273.4945" style="stroke:#5E5E5E;stroke-width:1.5625;"/><line style="stroke:#5E5E5E;stroke-width:1.5625;" x1="1038.5417" x2="1038.5417" y1="273.4945" y2="279.7445"/><line style="stroke:#5E5E5E;stroke-width:1.5625;" x1="1044.7917" x2="1038.5417" y1="279.7445" y2="279.7445"/><text fill="#D8BC00" font-family="Open Sans,Avenir,Nunito,Arial,Helvetica,SansSerif" font-size="12.5" lengthAdjust="spacing" textLength="117.7083" x="908.3333" y="297.0378">lexakai_annotations</text><rect fill="#1B1B1A" height="44.93" rx="8.3333" ry="8.3333" style="stroke:#5E5E5E;stroke-width:1.5625;" width="63.5417" x="517.7083" y="375.5778"/><polygon fill="#1B1B1A" points="563.5417,380.7861,563.5417,395.3695,576.0417,395.3695,576.0417,387.0361,569.7917,380.7861,563.5417,380.7861" style="stroke:#5E5E5E;stroke-width:1.5625;"/><line style="stroke:#5E5E5E;stroke-width:1.5625;" x1="569.7917" x2="569.7917" y1="380.7861" y2="387.0361"/><line style="stroke:#5E5E5E;stroke-width:1.5625;" x1="576.0417" x2="569.7917" y1="387.0361" y2="387.0361"/><text fill="#D8BC00" font-family="Open Sans,Avenir,Nunito,Arial,Helvetica,SansSerif" font-size="12.5" lengthAdjust="spacing" textLength="26.0417" x="531.25" y="404.3294">junit</text><rect fill="#1B1B1A" height="44.93" rx="8.3333" ry="8.3333" style="stroke:#5E5E5E;stroke-width:1.5625;" width="131.25" x="793.2292" y="160.9945"/><polygon fill="#1B1B1A" points="906.7708,166.2028,906.7708,180.7861,919.2708,180.7861,919.2708,172.4528,913.0208,166.2028,906.7708,166.2028" style="stroke:#5E5E5E;stroke-width:1.5625;"/><line style="stroke:#5E5E5E;stroke-width:1.5625;" x1="913.0208" x2="913.0208" y1="166.2028" y2="172.4528"/><line style="stroke:#5E5E5E;stroke-width:1.5625;" x1="919.2708" x2="913.0208" y1="172.4528" y2="172.4528"/><text fill="#D8BC00" font-family="Open Sans,Avenir,Nunito,Arial,Helvetica,SansSerif" font-size="12.5" lengthAdjust="spacing" textLength="93.75" x="806.7708" y="189.7461">commons_math</text><rect fill="#1B1B1A" height="44.93" rx="8.3333" ry="8.3333" style="stroke:#5E5E5E;stroke-width:1.5625;" width="125" x="486.9792" y="482.8695"/><polygon fill="#1B1B1A" points="594.2708,488.0778,594.2708,502.6611,606.7708,502.6611,606.7708,494.3278,600.5208,488.0778,594.2708,488.0778" style="stroke:#5E5E5E;stroke-width:1.5625;"/><line style="stroke:#5E5E5E;stroke-width:1.5625;" x1="600.5208" x2="600.5208" y1="488.0778" y2="494.3278"/><line style="stroke:#5E5E5E;stroke-width:1.5625;" x1="606.7708" x2="600.5208" y1="494.3278" y2="494.3278"/><text fill="#D8BC00" font-family="Open Sans,Avenir,Nunito,Arial,Helvetica,SansSerif" font-size="12.5" lengthAdjust="spacing" textLength="87.5" x="500.5208" y="511.6211">hamcrest_core</text><rect fill="#1B1B1A" height="44.93" rx="8.3333" ry="8.3333" style="stroke:#5E5E5E;stroke-width:1.5625;" width="106.25" x="618.2292" y="375.5778"/><polygon fill="#1B1B1A" points="706.7708,380.7861,706.7708,395.3695,719.2708,395.3695,719.2708,387.0361,713.0208,380.7861,706.7708,380.7861" style="stroke:#5E5E5E;stroke-width:1.5625;"/><line style="stroke:#5E5E5E;stroke-width:1.5625;" x1="713.0208" x2="713.0208" y1="380.7861" y2="387.0361"/><line style="stroke:#5E5E5E;stroke-width:1.5625;" x1="719.2708" x2="713.0208" y1="387.0361" y2="387.0361"/><text fill="#D8BC00" font-family="Open Sans,Avenir,Nunito,Arial,Helvetica,SansSerif" font-size="12.5" lengthAdjust="spacing" textLength="68.75" x="631.7708" y="404.3294">annotations</text><path d="M549.4792,420.8174 C549.4792,437.2861 549.4792,459.984 549.4792,477.5361 " fill="none" id="junit-to-hamcrest_core" style="stroke:#545454;stroke-width:1.5625;"/><polygon fill="#545454" points="549.4792,482.8174,553.6458,473.4424,549.4792,477.609,545.3125,473.4424,549.4792,482.8174" style="stroke:#545454;stroke-width:1.5625;"/><path d="M465.9479,205.9736 C445.2188,222.9945 416.2604,246.7757 394.5104,264.6403 " fill="none" id="kivakit_collections-to-kivakit_core" style="stroke:#545454;stroke-width:1.5625;"/><polygon fill="#545454" points="390.2604,268.1299,400.1482,265.3942,394.2835,264.822,394.8556,258.9573,390.2604,268.1299" style="stroke:#545454;stroke-width:1.5625;"/><path d="M829.6667,420.8174 C820.125,437.432 806.9479,460.3695 796.8333,477.9945 " fill="none" id="kivakit_commandline-to-kivakit_conversion" style="stroke:#545454;stroke-width:1.5625;"/><polygon fill="#545454" points="794.0625,482.8174,802.3444,476.7625,796.6562,478.3008,795.1179,472.6126,794.0625,482.8174" style="stroke:#545454;stroke-width:1.5625;"/><path d="M866.5,420.557 C885.7188,437.5778 912.5521,461.359 932.7188,479.2236 " fill="none" id="kivakit_commandline-to-kivakit_validation" style="stroke:#545454;stroke-width:1.5625;"/><polygon fill="#545454" points="936.6563,482.7132,932.3997,473.3787,932.7569,479.2604,926.8752,479.6176,936.6563,482.7132" style="stroke:#545454;stroke-width:1.5625;"/><path d="M309.6458,311.6403 C261.4896,329.2549 191.1667,354.9945 140.3646,373.5882 " fill="none" id="kivakit_core-to-cactus_metadata" style="stroke:#545454;stroke-width:1.5625;"/><polygon fill="#545454" points="135.2083,375.4736,145.4442,376.1656,140.0996,373.6841,142.581,368.3395,135.2083,375.4736" style="stroke:#545454;stroke-width:1.5625;"/><path d="M341.2396,313.2653 C323.3542,330.1507 298.4375,353.6715 279.5729,371.484 " fill="none" id="kivakit_core-to-kivakit_interfaces" style="stroke:#545454;stroke-width:1.5625;"/><polygon fill="#545454" points="275.3958,375.4215,285.0784,372.0304,279.1885,371.8519,279.367,365.9621,275.3958,375.4215" style="stroke:#545454;stroke-width:1.5625;"/><path d="M375.7188,313.5257 C384.6042,330.1403 396.8646,353.0778 406.2917,370.7028 " fill="none" id="kivakit_core-to-kivakit_mixins" style="stroke:#545454;stroke-width:1.5625;"/><polygon fill="#545454" points="408.8646,375.5257,408.1241,365.2932,406.4113,370.9314,400.7732,369.2185,408.8646,375.5257" style="stroke:#545454;stroke-width:1.5625;"/><path d="M615.1979,313.5257 C626.4792,330.2757 642.0938,353.4736 654,371.1507 " fill="none" id="kivakit_internal_testing-to-annotations" style="stroke:#545454;stroke-width:1.5625;"/><polygon fill="#545454" points="656.9375,375.5257,655.1639,365.421,654.0313,371.2036,648.2486,370.0709,656.9375,375.5257" style="stroke:#545454;stroke-width:1.5625;"/><path d="M589.9479,313.5257 C581.8854,330.1403 570.75,353.0778 562.2083,370.7028 " fill="none" id="kivakit_internal_testing-to-junit" style="stroke:#545454;stroke-width:1.5625;"/><polygon fill="#545454" points="559.8646,375.5257,567.7085,368.9133,562.1401,370.8408,560.2126,365.2724,559.8646,375.5257" style="stroke:#545454;stroke-width:1.5625;"/><path d="M728.8021,98.682 C755.5938,115.9215 793.1458,140.0778 821.0208,158.0153 " fill="none" id="kivakit_math-to-commons_math" style="stroke:#545454;stroke-width:1.5625;"/><polygon fill="#545454" points="825.4063,160.8382,819.7734,152.2637,821.0251,158.0218,815.267,159.2735,825.4063,160.8382" style="stroke:#545454;stroke-width:1.5625;"/><path d="M653.7188,98.682 C620.3125,115.984 573.4063,140.2757 538.75,158.234 " fill="none" id="kivakit_math-to-kivakit_collections" style="stroke:#545454;stroke-width:1.5625;"/><polygon fill="#545454" points="533.7292,160.8382,543.9703,160.2285,538.3545,158.4438,540.1391,152.828,533.7292,160.8382" style="stroke:#545454;stroke-width:1.5625;"/><path d="M695.3125,98.9424 C695.3125,115.4111 695.3125,138.109 695.3125,155.6611 " fill="none" id="kivakit_math-to-kivakit_testing" style="stroke:#545454;stroke-width:1.5625;"/><polygon fill="#545454" points="695.3125,160.9424,699.4792,151.5674,695.3125,155.734,691.1458,151.5674,695.3125,160.9424" style="stroke:#545454;stroke-width:1.5625;"/><path d="M801.7188,313.5257 C809.7813,330.1403 820.9167,353.0778 829.4583,370.7028 " fill="none" id="kivakit_resource-to-kivakit_commandline" style="stroke:#545454;stroke-width:1.5625;"/><polygon fill="#545454" points="831.8021,375.5257,831.4541,365.2724,829.5265,370.8408,823.9582,368.9133,831.8021,375.5257" style="stroke:#545454;stroke-width:1.5625;"/><path d="M675.6667,206.234 C660.4479,223.1299 639.3229,246.5778 623.3438,264.307 " fill="none" id="kivakit_testing-to-kivakit_internal_testing" style="stroke:#545454;stroke-width:1.5625;"/><polygon fill="#545454" points="619.8125,268.234,629.1811,264.053,623.2967,264.3627,622.987,258.4783,619.8125,268.234" style="stroke:#545454;stroke-width:1.5625;"/><path d="M715.1667,206.234 C730.5625,223.1299 751.9167,246.5778 768.0729,264.307 " fill="none" id="kivakit_testing-to-kivakit_resource" style="stroke:#545454;stroke-width:1.5625;"/><polygon fill="#545454" points="771.6458,268.234,768.3926,258.5043,768.1305,264.391,762.2438,264.1288,771.6458,268.234" style="stroke:#545454;stroke-width:1.5625;"/><path d="M751.7188,205.8486 C797.9792,223.4111 863.3542,248.234 910.9375,266.307 " fill="none" id="kivakit_testing-to-lexakai_annotations" style="stroke:#545454;stroke-width:1.5625;"/><polygon fill="#545454" points="916.0729,268.2549,908.7844,261.0348,911.203,266.4082,905.8296,268.8268,916.0729,268.2549" style="stroke:#545454;stroke-width:1.5625;"/></g></svg>
