<?xml version="1.0" encoding="UTF-8" standalone="no"?><svg xmlns="http://www.w3.org/2000/svg" xmlns:xlink="http://www.w3.org/1999/xlink" contentScriptType="application/ecmascript" contentStyleType="text/css" height="1320.8333px" preserveAspectRatio="none" style="width:627px;height:1320px;background:#333333;" version="1.1" viewBox="0 0 627 1320" width="627.0833px" zoomAndPan="magnify"><defs/><g><rect fill="#48494B" height="41.2028" rx="8.3333" ry="8.3333" style="stroke:#545454;stroke-width:1.0416666666666667;" width="147.9167" x="232.2917" y="2.0833"/><text fill="#C0C0C0" font-family="Open Sans,Avenir,Nunito,Arial,Helvetica,SansSerif" font-size="20.8333" lengthAdjust="spacing" textLength="125" x="243.75" y="30.5583">Applications</text><rect codeLine="7" fill="#282828" height="48.055" id="BaseComponent" rx="8.3333" ry="8.3333" style="stroke:#5E5E5E;stroke-width:1.0416666666666667;" width="143.75" x="53.125" y="53.7028"/><rect fill="#1B1B1A" height="31.3883" rx="8.3333" ry="8.3333" style="stroke:#1B1B1A;stroke-width:1.0416666666666667;" width="143.75" x="53.125" y="53.7028"/><rect fill="#1B1B1A" height="8.3333" style="stroke:#1B1B1A;stroke-width:1.0416666666666667;" width="143.75" x="53.125" y="76.7578"/><rect codeLine="7" fill="none" height="48.055" id="BaseComponent" rx="8.3333" ry="8.3333" style="stroke:#5E5E5E;stroke-width:1.0416666666666667;" width="143.75" x="53.125" y="53.7028"/><ellipse cx="67.7083" cy="69.397" fill="#C8AC00" rx="10.4167" ry="10.4167" style="stroke:#D8BC00;stroke-width:1.0416666666666667;"/><path d="M67.3014,66.099 L66.453,69.8283 L68.1559,69.8283 Z M66.2028,64.4511 L68.4062,64.4511 L70.8659,73.5636 L69.0653,73.5636 L68.5038,71.3114 L66.0929,71.3114 L65.5436,73.5636 L63.7431,73.5636 Z " fill="#000000"/><text fill="#D8BC00" font-family="Open Sans,Avenir,Nunito,Arial,Helvetica,SansSerif" font-size="12.5" font-style="italic" font-weight="bold" lengthAdjust="spacing" textLength="106.25" x="84.375" y="74.1211">BaseComponent</text><line style="stroke:#5E5E5E;stroke-width:1.0416666666666667;" x1="54.1667" x2="195.8333" y1="85.0911" y2="85.0911"/><line style="stroke:#5E5E5E;stroke-width:1.0416666666666667;" x1="54.1667" x2="195.8333" y1="93.4245" y2="93.4245"/><rect codeLine="9" fill="#282828" height="48.055" id="Named" rx="8.3333" ry="8.3333" style="stroke:#5E5E5E;stroke-width:1.0416666666666667;" width="82.2917" x="233.8542" y="53.7028"/><rect fill="#1B1B1A" height="31.3883" rx="8.3333" ry="8.3333" style="stroke:#1B1B1A;stroke-width:1.0416666666666667;" width="82.2917" x="233.8542" y="53.7028"/><rect fill="#1B1B1A" height="8.3333" style="stroke:#1B1B1A;stroke-width:1.0416666666666667;" width="82.2917" x="233.8542" y="76.7578"/><rect codeLine="9" fill="none" height="48.055" id="Named" rx="8.3333" ry="8.3333" style="stroke:#5E5E5E;stroke-width:1.0416666666666667;" width="82.2917" x="233.8542" y="53.7028"/><ellipse cx="248.4375" cy="69.397" fill="#008400" rx="10.4167" ry="10.4167" style="stroke:#239C23;stroke-width:1.0416666666666667;"/><path d="M245.8415,66.5588 L245.8415,64.9719 L251.2675,64.9719 L251.2675,66.5588 L249.4548,66.5588 L249.4548,72.4976 L251.2675,72.4976 L251.2675,74.0845 L245.8415,74.0845 L245.8415,72.4976 L247.6542,72.4976 L247.6542,66.5588 Z " fill="#000000"/><text fill="#D8BC00" font-family="Open Sans,Avenir,Nunito,Arial,Helvetica,SansSerif" font-size="12.5" font-style="italic" font-weight="bold" lengthAdjust="spacing" textLength="44.7917" x="265.1042" y="74.1211">Named</text><line style="stroke:#5E5E5E;stroke-width:1.0416666666666667;" x1="234.8958" x2="315.1042" y1="85.0911" y2="85.0911"/><line style="stroke:#5E5E5E;stroke-width:1.0416666666666667;" x1="234.8958" x2="315.1042" y1="93.4245" y2="93.4245"/><rect codeLine="10" fill="#282828" height="48.055" id="ApplicationMetadata" rx="8.3333" ry="8.3333" style="stroke:#5E5E5E;stroke-width:1.0416666666666667;" width="170.8333" x="353.125" y="53.7028"/><rect fill="#1B1B1A" height="31.3883" rx="8.3333" ry="8.3333" style="stroke:#1B1B1A;stroke-width:1.0416666666666667;" width="170.8333" x="353.125" y="53.7028"/><rect fill="#1B1B1A" height="8.3333" style="stroke:#1B1B1A;stroke-width:1.0416666666666667;" width="170.8333" x="353.125" y="76.7578"/><rect codeLine="10" fill="none" height="48.055" id="ApplicationMetadata" rx="8.3333" ry="8.3333" style="stroke:#5E5E5E;stroke-width:1.0416666666666667;" width="170.8333" x="353.125" y="53.7028"/><ellipse cx="367.7083" cy="69.397" fill="#008400" rx="10.4167" ry="10.4167" style="stroke:#239C23;stroke-width:1.0416666666666667;"/><path d="M365.1123,66.5588 L365.1123,64.9719 L370.5383,64.9719 L370.5383,66.5588 L368.7256,66.5588 L368.7256,72.4976 L370.5383,72.4976 L370.5383,74.0845 L365.1123,74.0845 L365.1123,72.4976 L366.925,72.4976 L366.925,66.5588 Z " fill="#000000"/><text fill="#D8BC00" font-family="Open Sans,Avenir,Nunito,Arial,Helvetica,SansSerif" font-size="12.5" font-style="italic" font-weight="bold" lengthAdjust="spacing" textLength="133.3333" x="384.375" y="74.1211">ApplicationMetadata</text><line style="stroke:#5E5E5E;stroke-width:1.0416666666666667;" x1="354.1667" x2="522.9167" y1="85.0911" y2="85.0911"/><line style="stroke:#5E5E5E;stroke-width:1.0416666666666667;" x1="354.1667" x2="522.9167" y1="93.4245" y2="93.4245"/><rect codeLine="19" fill="#282828" height="919.0063" id="Application" rx="8.3333" ry="8.3333" style="stroke:#5E5E5E;stroke-width:1.0416666666666667;" width="511.4583" x="18.75" y="185.9945"/><rect fill="#1B1B1A" height="31.3883" rx="8.3333" ry="8.3333" style="stroke:#1B1B1A;stroke-width:1.0416666666666667;" width="511.4583" x="18.75" y="185.9945"/><rect fill="#1B1B1A" height="8.3333" style="stroke:#1B1B1A;stroke-width:1.0416666666666667;" width="511.4583" x="18.75" y="209.0495"/><rect codeLine="19" fill="none" height="919.0063" id="Application" rx="8.3333" ry="8.3333" style="stroke:#5E5E5E;stroke-width:1.0416666666666667;" width="511.4583" x="18.75" y="185.9945"/><ellipse cx="230.2083" cy="201.6886" fill="#C8AC00" rx="10.4167" ry="10.4167" style="stroke:#D8BC00;stroke-width:1.0416666666666667;"/><path d="M229.8014,198.3907 L228.953,202.12 L230.6559,202.12 Z M228.7028,196.7428 L230.9062,196.7428 L233.3659,205.8553 L231.5653,205.8553 L231.0038,203.6031 L228.5929,203.6031 L228.0436,205.8553 L226.2431,205.8553 Z " fill="#000000"/><text fill="#D8BC00" font-family="Open Sans,Avenir,Nunito,Arial,Helvetica,SansSerif" font-size="12.5" font-style="italic" font-weight="bold" lengthAdjust="spacing" textLength="73.9583" x="253.125" y="206.4128">Application</text><line style="stroke:#5E5E5E;stroke-width:1.5625;" x1="19.7917" x2="529.1667" y1="217.3828" y2="217.3828"/><polygon fill="#FFFF44" points="30.2083,247.5444,34.375,251.711,30.2083,255.8777,26.0417,251.711" style="stroke:#B38D22;stroke-width:1.0416666666666667;"/><text fill="#D8BC00" font-family="Open Sans,Avenir,Nunito,Arial,Helvetica,SansSerif" font-size="11.4583" lengthAdjust="spacing" textLength="71.875" x="41.6667" y="259.6639">Application()</text><line style="stroke:#5E5E5E;stroke-width:1.0416666666666667;" x1="19.7917" x2="230.7292" y1="235.5886" y2="235.5886"/><text fill="#D8BC00" font-family="Open Sans,Avenir,Nunito,Arial,Helvetica,SansSerif" font-size="11.4583" lengthAdjust="spacing" textLength="81.25" x="233.8542" y="239.3982">(constructors)</text><line style="stroke:#5E5E5E;stroke-width:1.0416666666666667;" x1="318.2292" x2="529.1667" y1="235.5886" y2="235.5886"/><line style="stroke:#5E5E5E;stroke-width:1.0416666666666667;" x1="19.7917" x2="529.1667" y1="269.3726" y2="269.3726"/><ellipse cx="30.2083" cy="280.8309" fill="#84BE84" rx="3.125" ry="3.125" style="stroke:#038048;stroke-width:1.0416666666666667;"/><text fill="#D8BC00" font-family="Open Sans,Avenir,Nunito,Arial,Helvetica,SansSerif" font-size="11.4583" lengthAdjust="spacing" textLength="92.7083" x="41.6667" y="287.7421">Application get()</text><ellipse cx="30.2083" cy="300.5758" fill="#84BE84" rx="3.125" ry="3.125" style="stroke:#038048;stroke-width:1.0416666666666667;"/><text fill="#D8BC00" font-family="Open Sans,Avenir,Nunito,Arial,Helvetica,SansSerif" font-size="11.4583" lengthAdjust="spacing" textLength="131.25" x="41.6667" y="307.487">Set&lt;Project&gt; projects()</text><ellipse cx="30.2083" cy="320.3206" fill="#84BE84" rx="3.125" ry="3.125" style="stroke:#038048;stroke-width:1.0416666666666667;"/><text fill="#D8BC00" font-family="Open Sans,Avenir,Nunito,Arial,Helvetica,SansSerif" font-size="11.4583" lengthAdjust="spacing" textLength="66.6667" x="41.6667" y="327.2319">void ready()</text><polygon fill="#FFFF44" points="30.2083,334.8572,34.375,339.0238,30.2083,343.1905,26.0417,339.0238" style="stroke:#B38D22;stroke-width:1.0416666666666667;"/><text fill="#D8BC00" font-family="Open Sans,Avenir,Nunito,Arial,Helvetica,SansSerif" font-size="11.4583" lengthAdjust="spacing" textLength="165.625" x="41.6667" y="346.9767">boolean ignoreDeployments()</text><polygon fill="#FFFF44" points="30.2083,354.6021,34.375,358.7687,30.2083,362.9354,26.0417,358.7687" style="stroke:#B38D22;stroke-width:1.0416666666666667;"/><text fill="#D8BC00" font-family="Open Sans,Avenir,Nunito,Arial,Helvetica,SansSerif" font-size="11.4583" lengthAdjust="spacing" textLength="252.0833" x="41.6667" y="366.7216">ObjectSet&lt;StartUp.Option&gt; startupOptions()</text><ellipse cx="30.2083" cy="403.4668" fill="#84BE84" rx="3.125" ry="3.125" style="stroke:#038048;stroke-width:1.0416666666666667;"/><text fill="#D8BC00" font-family="Open Sans,Avenir,Nunito,Arial,Helvetica,SansSerif" font-size="11.4583" lengthAdjust="spacing" textLength="66.6667" x="41.6667" y="410.378">Build build()</text><line style="stroke:#5E5E5E;stroke-width:1.0416666666666667;" x1="19.7917" x2="244.2708" y1="386.3027" y2="386.3027"/><text fill="#D8BC00" font-family="Open Sans,Avenir,Nunito,Arial,Helvetica,SansSerif" font-size="11.4583" lengthAdjust="spacing" textLength="54.1667" x="247.3958" y="390.1123">(building)</text><line style="stroke:#5E5E5E;stroke-width:1.0416666666666667;" x1="304.6875" x2="529.1667" y1="386.3027" y2="386.3027"/><ellipse cx="30.2083" cy="447.1232" fill="#84BE84" rx="3.125" ry="3.125" style="stroke:#038048;stroke-width:1.0416666666666667;"/><text fill="#D8BC00" font-family="Open Sans,Avenir,Nunito,Arial,Helvetica,SansSerif" font-size="11.4583" lengthAdjust="spacing" textLength="278.125" x="41.6667" y="454.0344">Application addProject(Class&lt;? extends Project&gt;)</text><ellipse cx="30.2083" cy="466.8681" fill="#84BE84" rx="3.125" ry="3.125" style="stroke:#038048;stroke-width:1.0416666666666667;"/><text fill="#D8BC00" font-family="Open Sans,Avenir,Nunito,Arial,Helvetica,SansSerif" font-size="11.4583" lengthAdjust="spacing" textLength="223.9583" x="41.6667" y="473.7793">PropertyMap localizedProperties(Locale)</text><ellipse cx="30.2083" cy="486.613" fill="#84BE84" rx="3.125" ry="3.125" style="stroke:#038048;stroke-width:1.0416666666666667;"/><text fill="#D8BC00" font-family="Open Sans,Avenir,Nunito,Arial,Helvetica,SansSerif" font-size="11.4583" lengthAdjust="spacing" textLength="140.625" x="41.6667" y="493.5242">PropertyMap properties()</text><line style="stroke:#5E5E5E;stroke-width:1.0416666666666667;" x1="19.7917" x2="240.1042" y1="429.9591" y2="429.9591"/><text fill="#D8BC00" font-family="Open Sans,Avenir,Nunito,Arial,Helvetica,SansSerif" font-size="11.4583" lengthAdjust="spacing" textLength="62.5" x="243.2292" y="433.7687">(collection)</text><line style="stroke:#5E5E5E;stroke-width:1.0416666666666667;" x1="308.8542" x2="529.1667" y1="429.9591" y2="429.9591"/><ellipse cx="30.2083" cy="530.2694" fill="#84BE84" rx="3.125" ry="3.125" style="stroke:#038048;stroke-width:1.0416666666666667;"/><text fill="#D8BC00" font-family="Open Sans,Avenir,Nunito,Arial,Helvetica,SansSerif" font-size="11.4583" lengthAdjust="spacing" textLength="245.8333" x="41.6667" y="537.1806">T argument(int index, ArgumentParser&lt;T&gt;)</text><ellipse cx="30.2083" cy="550.0142" fill="#84BE84" rx="3.125" ry="3.125" style="stroke:#038048;stroke-width:1.0416666666666667;"/><text fill="#D8BC00" font-family="Open Sans,Avenir,Nunito,Arial,Helvetica,SansSerif" font-size="11.4583" lengthAdjust="spacing" textLength="190.625" x="41.6667" y="556.9255">T argument(ArgumentParser&lt;T&gt;)</text><ellipse cx="30.2083" cy="569.7591" fill="#84BE84" rx="3.125" ry="3.125" style="stroke:#038048;stroke-width:1.0416666666666667;"/><text fill="#D8BC00" font-family="Open Sans,Avenir,Nunito,Arial,Helvetica,SansSerif" font-size="11.4583" lengthAdjust="spacing" textLength="161.4583" x="41.6667" y="576.6703">ArgumentList argumentList()</text><ellipse cx="30.2083" cy="589.504" fill="#84BE84" rx="3.125" ry="3.125" style="stroke:#038048;stroke-width:1.0416666666666667;"/><text fill="#D8BC00" font-family="Open Sans,Avenir,Nunito,Arial,Helvetica,SansSerif" font-size="11.4583" lengthAdjust="spacing" textLength="271.875" x="41.6667" y="596.4152">ObjectList&lt;T&gt; arguments(ArgumentParser&lt;T&gt;)</text><ellipse cx="30.2083" cy="609.2489" fill="#84BE84" rx="3.125" ry="3.125" style="stroke:#038048;stroke-width:1.0416666666666667;"/><text fill="#D8BC00" font-family="Open Sans,Avenir,Nunito,Arial,Helvetica,SansSerif" font-size="11.4583" lengthAdjust="spacing" textLength="169.7917" x="41.6667" y="616.1601">CommandLine commandLine()</text><ellipse cx="30.2083" cy="628.9937" fill="#84BE84" rx="3.125" ry="3.125" style="stroke:#038048;stroke-width:1.0416666666666667;"/><text fill="#D8BC00" font-family="Open Sans,Avenir,Nunito,Arial,Helvetica,SansSerif" font-size="11.4583" lengthAdjust="spacing" textLength="218.75" x="41.6667" y="635.9049">T get(SwitchParser&lt;T&gt;, T defaultValue)</text><ellipse cx="30.2083" cy="648.7386" fill="#84BE84" rx="3.125" ry="3.125" style="stroke:#038048;stroke-width:1.0416666666666667;"/><text fill="#D8BC00" font-family="Open Sans,Avenir,Nunito,Arial,Helvetica,SansSerif" font-size="11.4583" lengthAdjust="spacing" textLength="133.3333" x="41.6667" y="655.6498">T get(SwitchParser&lt;T&gt;)</text><ellipse cx="30.2083" cy="668.4835" fill="#84BE84" rx="3.125" ry="3.125" style="stroke:#038048;stroke-width:1.0416666666666667;"/><text fill="#D8BC00" font-family="Open Sans,Avenir,Nunito,Arial,Helvetica,SansSerif" font-size="11.4583" lengthAdjust="spacing" textLength="172.9167" x="41.6667" y="675.3947">boolean has(SwitchParser&lt;T&gt;)</text><polygon fill="#FFFF44" points="30.2083,683.02,34.375,687.1867,30.2083,691.3534,26.0417,687.1867" style="stroke:#B38D22;stroke-width:1.0416666666666667;"/><text fill="#D8BC00" font-family="Open Sans,Avenir,Nunito,Arial,Helvetica,SansSerif" font-size="11.4583" lengthAdjust="spacing" textLength="261.4583" x="41.6667" y="695.1396">List&lt;ArgumentParser&lt;?&gt;&gt; argumentParsers()</text><polygon fill="#FFFF44" points="30.2083,702.7649,34.375,706.9316,30.2083,711.0982,26.0417,706.9316" style="stroke:#B38D22;stroke-width:1.0416666666666667;"/><text fill="#D8BC00" font-family="Open Sans,Avenir,Nunito,Arial,Helvetica,SansSerif" font-size="11.4583" lengthAdjust="spacing" textLength="255.2083" x="41.6667" y="714.8844">ObjectSet&lt;SwitchParser&lt;?&gt;&gt; switchParsers()</text><line style="stroke:#5E5E5E;stroke-width:1.0416666666666667;" x1="19.7917" x2="205.2083" y1="513.1053" y2="513.1053"/><text fill="#D8BC00" font-family="Open Sans,Avenir,Nunito,Arial,Helvetica,SansSerif" font-size="11.4583" lengthAdjust="spacing" textLength="132.2917" x="208.3333" y="516.9149">(command line parsing)</text><line style="stroke:#5E5E5E;stroke-width:1.0416666666666667;" x1="343.75" x2="529.1667" y1="513.1053" y2="513.1053"/><polygon fill="#FFFF44" points="30.2083,746.4213,34.375,750.588,30.2083,754.7546,26.0417,750.588" style="stroke:#B38D22;stroke-width:1.0416666666666667;"/><text fill="#D8BC00" font-family="Open Sans,Avenir,Nunito,Arial,Helvetica,SansSerif" font-size="11.4583" lengthAdjust="spacing" textLength="110.4167" x="41.6667" y="758.5409">Project newProject()</text><line style="stroke:#5E5E5E;stroke-width:1.0416666666666667;" x1="19.7917" x2="247.3958" y1="734.4655" y2="734.4655"/><text fill="#D8BC00" font-family="Open Sans,Avenir,Nunito,Arial,Helvetica,SansSerif" font-size="11.4583" lengthAdjust="spacing" textLength="47.9167" x="250.5208" y="738.2751">(factory)</text><line style="stroke:#5E5E5E;stroke-width:1.0416666666666667;" x1="301.5625" x2="529.1667" y1="734.4655" y2="734.4655"/><ellipse cx="30.2083" cy="795.2861" fill="#84BE84" rx="3.125" ry="3.125" style="stroke:#038048;stroke-width:1.0416666666666667;"/><text fill="#D8BC00" font-family="Open Sans,Avenir,Nunito,Arial,Helvetica,SansSerif" font-size="11.4583" lengthAdjust="spacing" textLength="111.4583" x="41.6667" y="802.1973">Identifier identifier()</text><ellipse cx="30.2083" cy="815.0309" fill="#84BE84" rx="3.125" ry="3.125" style="stroke:#038048;stroke-width:1.0416666666666667;"/><text fill="#D8BC00" font-family="Open Sans,Avenir,Nunito,Arial,Helvetica,SansSerif" font-size="11.4583" lengthAdjust="spacing" textLength="95.8333" x="41.6667" y="821.9421">Version version()</text><line style="stroke:#5E5E5E;stroke-width:1.0416666666666667;" x1="19.7917" x2="246.3542" y1="778.1219" y2="778.1219"/><text fill="#D8BC00" font-family="Open Sans,Avenir,Nunito,Arial,Helvetica,SansSerif" font-size="11.4583" lengthAdjust="spacing" textLength="50" x="249.4792" y="781.9316">(identity)</text><line style="stroke:#5E5E5E;stroke-width:1.0416666666666667;" x1="302.6042" x2="529.1667" y1="778.1219" y2="778.1219"/><ellipse cx="30.2083" cy="858.6873" fill="#84BE84" rx="3.125" ry="3.125" style="stroke:#038048;stroke-width:1.0416666666666667;"/><text fill="#D8BC00" font-family="Open Sans,Avenir,Nunito,Arial,Helvetica,SansSerif" font-size="11.4583" lengthAdjust="spacing" textLength="257.2917" x="41.6667" y="865.5986">void exit(String message, Object... arguments)</text><ellipse cx="30.2083" cy="878.4322" fill="#84BE84" rx="3.125" ry="3.125" style="stroke:#038048;stroke-width:1.0416666666666667;"/><text fill="#D8BC00" font-family="Open Sans,Avenir,Nunito,Arial,Helvetica,SansSerif" font-size="11.4583" lengthAdjust="spacing" textLength="428.125" x="41.6667" y="885.3434">Result&lt;ApplicationExit&gt; run(Class&lt;T&gt; applicationType, String[] arguments)</text><ellipse cx="30.2083" cy="898.1771" fill="#84BE84" rx="3.125" ry="3.125" style="stroke:#038048;stroke-width:1.0416666666666667;"/><text fill="#D8BC00" font-family="Open Sans,Avenir,Nunito,Arial,Helvetica,SansSerif" font-size="11.4583" lengthAdjust="spacing" textLength="479.1667" x="41.6667" y="905.0883">Result&lt;ApplicationExit&gt; run(Listener, Class&lt;T&gt; applicationType, String[] arguments)</text><ellipse cx="30.2083" cy="917.922" fill="#84BE84" rx="3.125" ry="3.125" style="stroke:#038048;stroke-width:1.0416666666666667;"/><text fill="#D8BC00" font-family="Open Sans,Avenir,Nunito,Arial,Helvetica,SansSerif" font-size="11.4583" lengthAdjust="spacing" textLength="273.9583" x="41.6667" y="924.8332">Result&lt;ApplicationExit&gt; run(String[] arguments)</text><polygon fill="#FFFF44" points="30.2083,932.4585,34.375,936.6252,30.2083,940.7918,26.0417,936.6252" style="stroke:#B38D22;stroke-width:1.0416666666666667;"/><text fill="#D8BC00" font-family="Open Sans,Avenir,Nunito,Arial,Helvetica,SansSerif" font-size="11.4583" lengthAdjust="spacing" textLength="71.875" x="41.6667" y="944.578">void onRun()</text><polygon fill="#FFFF44" points="30.2083,952.2034,34.375,956.37,30.2083,960.5367,26.0417,956.37" style="stroke:#B38D22;stroke-width:1.0416666666666667;"/><text fill="#D8BC00" font-family="Open Sans,Avenir,Nunito,Arial,Helvetica,SansSerif" font-size="11.4583" lengthAdjust="spacing" textLength="163.5417" x="41.6667" y="964.3229">void onSerializationInitialize()</text><line style="stroke:#5E5E5E;stroke-width:1.0416666666666667;" x1="19.7917" x2="244.7917" y1="841.5232" y2="841.5232"/><text fill="#D8BC00" font-family="Open Sans,Avenir,Nunito,Arial,Helvetica,SansSerif" font-size="11.4583" lengthAdjust="spacing" textLength="53.125" x="247.9167" y="845.3328">(lifecycle)</text><line style="stroke:#5E5E5E;stroke-width:1.0416666666666667;" x1="304.1667" x2="529.1667" y1="841.5232" y2="841.5232"/><polygon fill="#FFFF44" points="30.2083,995.8598,34.375,1000.0264,30.2083,1004.1931,26.0417,1000.0264" style="stroke:#B38D22;stroke-width:1.0416666666666667;"/><text fill="#D8BC00" font-family="Open Sans,Avenir,Nunito,Arial,Helvetica,SansSerif" font-size="11.4583" lengthAdjust="spacing" textLength="189.5833" x="41.6667" y="1007.9793">void onRegisterObjectSerializers()</text><line style="stroke:#5E5E5E;stroke-width:1.0416666666666667;" x1="19.7917" x2="247.9167" y1="983.904" y2="983.904"/><text fill="#D8BC00" font-family="Open Sans,Avenir,Nunito,Arial,Helvetica,SansSerif" font-size="11.4583" lengthAdjust="spacing" textLength="46.875" x="251.0417" y="987.7136">(lookup)</text><line style="stroke:#5E5E5E;stroke-width:1.0416666666666667;" x1="301.0417" x2="529.1667" y1="983.904" y2="983.904"/><ellipse cx="30.2083" cy="1044.7245" fill="#84BE84" rx="3.125" ry="3.125" style="stroke:#038048;stroke-width:1.0416666666666667;"/><text fill="#D8BC00" font-family="Open Sans,Avenir,Nunito,Arial,Helvetica,SansSerif" font-size="11.4583" lengthAdjust="spacing" textLength="208.3333" x="41.6667" y="1051.6357">String startupInformation(String title)</text><line style="stroke:#5E5E5E;stroke-width:1.0416666666666667;" x1="19.7917" x2="236.9792" y1="1027.5604" y2="1027.5604"/><text fill="#D8BC00" font-family="Open Sans,Avenir,Nunito,Arial,Helvetica,SansSerif" font-size="11.4583" lengthAdjust="spacing" textLength="68.75" x="240.1042" y="1031.37">(messaging)</text><line style="stroke:#5E5E5E;stroke-width:1.0416666666666667;" x1="311.9792" x2="529.1667" y1="1027.5604" y2="1027.5604"/><ellipse cx="30.2083" cy="1088.3809" fill="#84BE84" rx="3.125" ry="3.125" style="stroke:#038048;stroke-width:1.0416666666666667;"/><text fill="#D8BC00" font-family="Open Sans,Avenir,Nunito,Arial,Helvetica,SansSerif" font-size="11.4583" lengthAdjust="spacing" textLength="109.375" x="41.6667" y="1095.2922">void waitForReady()</text><line style="stroke:#5E5E5E;stroke-width:1.0416666666666667;" x1="19.7917" x2="248.9583" y1="1071.2168" y2="1071.2168"/><text fill="#D8BC00" font-family="Open Sans,Avenir,Nunito,Arial,Helvetica,SansSerif" font-size="11.4583" lengthAdjust="spacing" textLength="44.7917" x="252.0833" y="1075.0264">(thread)</text><line style="stroke:#5E5E5E;stroke-width:1.0416666666666667;" x1="300" x2="529.1667" y1="1071.2168" y2="1071.2168"/><rect fill="#282828" height="48.055" id="CommandLine" rx="8.3333" ry="8.3333" style="stroke:#5E5E5E;stroke-width:1.0416666666666667;" width="131.25" x="7.2917" y="1238.5986"/><rect fill="#1B1B1A" height="31.3883" rx="8.3333" ry="8.3333" style="stroke:#1B1B1A;stroke-width:1.0416666666666667;" width="131.25" x="7.2917" y="1238.5986"/><rect fill="#1B1B1A" height="8.3333" style="stroke:#1B1B1A;stroke-width:1.0416666666666667;" width="131.25" x="7.2917" y="1261.6536"/><rect fill="none" height="48.055" id="CommandLine" rx="8.3333" ry="8.3333" style="stroke:#5E5E5E;stroke-width:1.0416666666666667;" width="131.25" x="7.2917" y="1238.5986"/><ellipse cx="21.875" cy="1254.2928" fill="#0066CF" rx="10.4167" ry="10.4167" style="stroke:#0086EF;stroke-width:1.0416666666666667;"/><path d="M23.7854,1258.7179 Q23.3582,1258.9376 22.8882,1259.0474 Q22.4182,1259.1573 21.8994,1259.1573 Q20.0562,1259.1573 19.0857,1257.9427 Q18.1152,1256.7281 18.1152,1254.4332 Q18.1152,1252.1322 19.0857,1250.9176 Q20.0562,1249.703 21.8994,1249.703 Q22.4182,1249.703 22.8943,1249.8128 Q23.3704,1249.9227 23.7854,1250.1424 L23.7854,1252.1444 Q23.3215,1251.7171 22.8851,1251.5188 Q22.4487,1251.3204 21.9849,1251.3204 Q20.9961,1251.3204 20.4926,1252.1047 Q19.989,1252.889 19.989,1254.4332 Q19.989,1255.9713 20.4926,1256.7556 Q20.9961,1257.5399 21.9849,1257.5399 Q22.4487,1257.5399 22.8851,1257.3415 Q23.3215,1257.1431 23.7854,1256.7159 Z " fill="#000000"/><text fill="#D8BC00" font-family="Open Sans,Avenir,Nunito,Arial,Helvetica,SansSerif" font-size="12.5" font-weight="bold" lengthAdjust="spacing" textLength="93.75" x="38.5417" y="1259.0169">CommandLine</text><line style="stroke:#5E5E5E;stroke-width:1.0416666666666667;" x1="8.3333" x2="137.5" y1="1269.987" y2="1269.987"/><line style="stroke:#5E5E5E;stroke-width:1.0416666666666667;" x1="8.3333" x2="137.5" y1="1278.3203" y2="1278.3203"/><rect codeLine="66" fill="#282828" height="103.123" id="Application.Identifier" rx="8.3333" ry="8.3333" style="stroke:#5E5E5E;stroke-width:1.0416666666666667;" width="123.9583" x="204.6875" y="1210.9945"/><rect fill="#1B1B1A" height="31.3883" rx="8.3333" ry="8.3333" style="stroke:#1B1B1A;stroke-width:1.0416666666666667;" width="123.9583" x="204.6875" y="1210.9945"/><rect fill="#1B1B1A" height="8.3333" style="stroke:#1B1B1A;stroke-width:1.0416666666666667;" width="123.9583" x="204.6875" y="1234.0495"/><rect codeLine="66" fill="none" height="103.123" id="Application.Identifier" rx="8.3333" ry="8.3333" style="stroke:#5E5E5E;stroke-width:1.0416666666666667;" width="123.9583" x="204.6875" y="1210.9945"/><ellipse cx="231.4583" cy="1226.6886" fill="#0066CF" rx="10.4167" ry="10.4167" style="stroke:#0086EF;stroke-width:1.0416666666666667;"/><path d="M233.3687,1231.1137 Q232.9415,1231.3334 232.4715,1231.4433 Q232.0015,1231.5531 231.4827,1231.5531 Q229.6395,1231.5531 228.669,1230.3385 Q227.6986,1229.1239 227.6986,1226.829 Q227.6986,1224.528 228.669,1223.3134 Q229.6395,1222.0988 231.4827,1222.0988 Q232.0015,1222.0988 232.4776,1222.2087 Q232.9537,1222.3185 233.3687,1222.5382 L233.3687,1224.5402 Q232.9049,1224.113 232.4685,1223.9146 Q232.0321,1223.7162 231.5682,1223.7162 Q230.5794,1223.7162 230.0759,1224.5005 Q229.5723,1225.2848 229.5723,1226.829 Q229.5723,1228.3671 230.0759,1229.1514 Q230.5794,1229.9357 231.5682,1229.9357 Q232.0321,1229.9357 232.4685,1229.7373 Q232.9049,1229.539 233.3687,1229.1117 Z " fill="#000000"/><text fill="#D8BC00" font-family="Open Sans,Avenir,Nunito,Arial,Helvetica,SansSerif" font-size="12.5" font-weight="bold" lengthAdjust="spacing" textLength="59.375" x="250.8333" y="1231.4128">Identifier</text><line style="stroke:#5E5E5E;stroke-width:1.5625;" x1="205.7292" x2="327.6042" y1="1242.3828" y2="1242.3828"/><polygon fill="#FFFF44" points="216.1458,1272.5444,220.3125,1276.711,216.1458,1280.8777,211.9792,1276.711" style="stroke:#B38D22;stroke-width:1.0416666666666667;"/><text fill="#D8BC00" font-family="Open Sans,Avenir,Nunito,Arial,Helvetica,SansSerif" font-size="11.4583" lengthAdjust="spacing" textLength="58.3333" x="227.6042" y="1284.6639">Identifier()</text><ellipse cx="216.1458" cy="1297.4976" fill="#84BE84" rx="3.125" ry="3.125" style="stroke:#038048;stroke-width:1.0416666666666667;"/><text fill="#D8BC00" font-family="Open Sans,Avenir,Nunito,Arial,Helvetica,SansSerif" font-size="11.4583" lengthAdjust="spacing" textLength="91.6667" x="227.6042" y="1304.4088">Identifier(String)</text><line style="stroke:#5E5E5E;stroke-width:1.0416666666666667;" x1="205.7292" x2="222.9167" y1="1260.5886" y2="1260.5886"/><text fill="#D8BC00" font-family="Open Sans,Avenir,Nunito,Arial,Helvetica,SansSerif" font-size="11.4583" lengthAdjust="spacing" textLength="81.25" x="226.0417" y="1264.3982">(constructors)</text><line style="stroke:#5E5E5E;stroke-width:1.0416666666666667;" x1="310.4167" x2="327.6042" y1="1260.5886" y2="1260.5886"/><rect fill="#282828" height="48.055" id="Project" rx="8.3333" ry="8.3333" style="stroke:#5E5E5E;stroke-width:1.0416666666666667;" width="81.25" x="390.625" y="1238.5986"/><rect fill="#1B1B1A" height="31.3883" rx="8.3333" ry="8.3333" style="stroke:#1B1B1A;stroke-width:1.0416666666666667;" width="81.25" x="390.625" y="1238.5986"/><rect fill="#1B1B1A" height="8.3333" style="stroke:#1B1B1A;stroke-width:1.0416666666666667;" width="81.25" x="390.625" y="1261.6536"/><rect fill="none" height="48.055" id="Project" rx="8.3333" ry="8.3333" style="stroke:#5E5E5E;stroke-width:1.0416666666666667;" width="81.25" x="390.625" y="1238.5986"/><ellipse cx="405.2083" cy="1254.2928" fill="#0066CF" rx="10.4167" ry="10.4167" style="stroke:#0086EF;stroke-width:1.0416666666666667;"/><path d="M407.1187,1258.7179 Q406.6915,1258.9376 406.2215,1259.0474 Q405.7515,1259.1573 405.2327,1259.1573 Q403.3895,1259.1573 402.419,1257.9427 Q401.4486,1256.7281 401.4486,1254.4332 Q401.4486,1252.1322 402.419,1250.9176 Q403.3895,1249.703 405.2327,1249.703 Q405.7515,1249.703 406.2276,1249.8128 Q406.7037,1249.9227 407.1187,1250.1424 L407.1187,1252.1444 Q406.6549,1251.7171 406.2185,1251.5188 Q405.7821,1251.3204 405.3182,1251.3204 Q404.3294,1251.3204 403.8259,1252.1047 Q403.3223,1252.889 403.3223,1254.4332 Q403.3223,1255.9713 403.8259,1256.7556 Q404.3294,1257.5399 405.3182,1257.5399 Q405.7821,1257.5399 406.2185,1257.3415 Q406.6549,1257.1431 407.1187,1256.7159 Z " fill="#000000"/><text fill="#D8BC00" font-family="Open Sans,Avenir,Nunito,Arial,Helvetica,SansSerif" font-size="12.5" font-weight="bold" lengthAdjust="spacing" textLength="43.75" x="421.875" y="1259.0169">Project</text><line style="stroke:#5E5E5E;stroke-width:1.0416666666666667;" x1="391.6667" x2="470.8333" y1="1269.987" y2="1269.987"/><line style="stroke:#5E5E5E;stroke-width:1.0416666666666667;" x1="391.6667" x2="470.8333" y1="1278.3203" y2="1278.3203"/><rect codeLine="74" fill="#282828" height="48.055" id="Server" rx="8.3333" ry="8.3333" style="stroke:#5E5E5E;stroke-width:1.0416666666666667;" width="77.0833" x="542.7083" y="1238.5986"/><rect fill="#1B1B1A" height="31.3883" rx="8.3333" ry="8.3333" style="stroke:#1B1B1A;stroke-width:1.0416666666666667;" width="77.0833" x="542.7083" y="1238.5986"/><rect fill="#1B1B1A" height="8.3333" style="stroke:#1B1B1A;stroke-width:1.0416666666666667;" width="77.0833" x="542.7083" y="1261.6536"/><rect codeLine="74" fill="none" height="48.055" id="Server" rx="8.3333" ry="8.3333" style="stroke:#5E5E5E;stroke-width:1.0416666666666667;" width="77.0833" x="542.7083" y="1238.5986"/><ellipse cx="557.2917" cy="1254.2928" fill="#C8AC00" rx="10.4167" ry="10.4167" style="stroke:#D8BC00;stroke-width:1.0416666666666667;"/><path d="M556.8848,1250.9949 L556.0364,1254.7241 L557.7393,1254.7241 Z M555.7861,1249.3469 L557.9895,1249.3469 L560.4492,1258.4595 L558.6487,1258.4595 L558.0872,1256.2073 L555.6763,1256.2073 L555.127,1258.4595 L553.3264,1258.4595 Z " fill="#000000"/><text fill="#D8BC00" font-family="Open Sans,Avenir,Nunito,Arial,Helvetica,SansSerif" font-size="12.5" font-style="italic" font-weight="bold" lengthAdjust="spacing" textLength="39.5833" x="573.9583" y="1259.0169">Server</text><line style="stroke:#5E5E5E;stroke-width:1.0416666666666667;" x1="543.75" x2="618.75" y1="1269.987" y2="1269.987"/><line style="stroke:#5E5E5E;stroke-width:1.0416666666666667;" x1="543.75" x2="618.75" y1="1278.3203" y2="1278.3203"/><path codeLine="12" d="M136.5729,122.359 C141.1667,139.6507 146.9063,161.3174 153.4271,185.9007 " fill="none" id="BaseComponent-backto-Application" style="stroke:#545454;stroke-width:1.5625;"/><polygon fill="none" points="129.4479,123.932,131.1563,101.932,143.5521,120.2028,129.4479,123.932" style="stroke:#545454;stroke-width:1.5625;"/><path codeLine="13" d="M275,122.9424 C275,140.1403 275,161.5882 275,185.9007 " fill="none" id="Named-backto-Application" style="stroke:#545454;stroke-width:1.5625;"/><polygon fill="none" points="267.7083,122.7653,275,101.932,282.2917,122.7653,267.7083,122.7653" style="stroke:#545454;stroke-width:1.5625;"/><path codeLine="14" d="M426,122.057 C420.9896,139.4111 414.6979,161.1715 407.5417,185.9007 " fill="none" id="ApplicationMetadata-backto-Application" style="stroke:#545454;stroke-width:1.5625;"/><polygon fill="none" points="419.0313,119.9215,431.8229,101.932,433.0417,123.9736,419.0313,119.9215" style="stroke:#545454;stroke-width:1.5625;"/><path codeLine="15" d="M45.8021,1104.9424 C40.7188,1122.2653 36.1771,1139.5986 32.2917,1156.8278 C26.1875,1183.8799 39.4063,1213.1924 52.3646,1233.9007 " fill="none" id="Application-to-CommandLine" style="stroke:#545454;stroke-width:1.5625;"/><polygon fill="#545454" points="55.2917,1238.4424,53.727,1228.3032,52.4752,1234.0612,46.7172,1232.8095,55.2917,1238.4424" style="stroke:#545454;stroke-width:1.5625;"/><text fill="#A0A0A0" font-family="Open Sans,Avenir,Nunito,Arial,Helvetica,SansSerif" font-size="12.5" font-weight="bold" lengthAdjust="spacing" textLength="146.875" x="36.4583" y="1173.0794">parses arguments into</text><path codeLine="17" d="M224.2292,1117.3486 C214.8646,1139.0674 204.0833,1160.0049 191.6667,1179.7445 C175.6042,1205.2757 148.3542,1224.8903 124.0104,1238.5049 " fill="none" id="Application-backto-CommandLine" style="stroke:#545454;stroke-width:1.5625;"/><polygon fill="#333333" points="229.4271,1104.8382,223.1813,1109.0112,224.6311,1116.3816,230.8769,1112.2085,229.4271,1104.8382" style="stroke:#545454;stroke-width:1.5625;"/><path codeLine="16" d="M268.7813,1105.109 C268.2604,1144.1507 267.7813,1178.8695 267.4271,1205.6195 " fill="none" id="Application-to-Application.Identifier" style="stroke:#545454;stroke-width:1.5625;"/><polygon fill="#545454" points="267.3542,1210.859,271.6543,1201.5445,267.4286,1205.6512,263.3218,1201.4255,267.3542,1210.859" style="stroke:#545454;stroke-width:1.5625;"/><text fill="#A0A0A0" font-family="Open Sans,Avenir,Nunito,Arial,Helvetica,SansSerif" font-size="12.5" font-weight="bold" lengthAdjust="spacing" textLength="82.2917" x="272.9167" y="1173.0794">identified by</text><path codeLine="18" d="M394.9063,1118.4632 C408.0729,1170.2653 418.9896,1213.2445 425.3229,1238.1611 " fill="none" id="Application-backto-Project" style="stroke:#545454;stroke-width:1.5625;"/><polygon fill="#333333" points="391.5208,1105.109,389.0208,1112.1924,394.5978,1117.2244,397.0978,1110.1411,391.5208,1105.109" style="stroke:#545454;stroke-width:1.5625;"/><text fill="#A0A0A0" font-family="Open Sans,Avenir,Nunito,Arial,Helvetica,SansSerif" font-size="12.5" font-weight="bold" lengthAdjust="spacing" textLength="126.0417" x="412.5" y="1173.0794">initializes and uses</text><text fill="#A0A0A0" font-family="Open Sans,Avenir,Nunito,Arial,Helvetica,SansSerif" font-size="12.5" font-weight="bold" lengthAdjust="spacing" textLength="8.3333" x="381.9488" y="1128.3988">1</text><text fill="#A0A0A0" font-family="Open Sans,Avenir,Nunito,Arial,Helvetica,SansSerif" font-size="12.5" font-weight="bold" lengthAdjust="spacing" textLength="6.25" x="413.132" y="1224.4874">*</text><path codeLine="73" d="M537.2604,1124.1299 C542,1135.0778 546.6042,1145.984 551.0417,1156.8278 C562.2188,1184.1403 570.9896,1217.0361 576.1354,1238.5778 " fill="none" id="Application-backto-Server" style="stroke:#545454;stroke-width:1.5625;"/><polygon fill="none" points="530.5729,1127.0361,528.8646,1105.0257,543.9271,1121.1611,530.5729,1127.0361" style="stroke:#545454;stroke-width:1.5625;"/></g></svg>
