<?xml version="1.0" encoding="UTF-8" standalone="no"?><svg xmlns="http://www.w3.org/2000/svg" xmlns:xlink="http://www.w3.org/1999/xlink" contentScriptType="application/ecmascript" contentStyleType="text/css" height="641.6667px" preserveAspectRatio="none" style="width:1926px;height:641px;background:#333333;" version="1.1" viewBox="0 0 1926 641" width="1926.0417px" zoomAndPan="magnify"><defs/><g><rect fill="#48494B" height="41.2028" rx="8.3333" ry="8.3333" style="stroke:#545454;stroke-width:1.0416666666666667;" width="377.0833" x="767.4479" y="2.0833"/><text fill="#C0C0C0" font-family="Open Sans,Avenir,Nunito,Arial,Helvetica,SansSerif" font-size="20.8333" lengthAdjust="spacing" textLength="354.1667" x="778.9063" y="30.5583">com.telenav.kivakit.core.collections</text><!--MD5=[334491fe3395b7e97ffac59bc72f8221]
class Countable--><rect codeLine="7" fill="#282828" height="48.055" id="Countable" rx="8.3333" ry="8.3333" style="stroke:#5E5E5E;stroke-width:1.0416666666666667;" width="104.1667" x="986.9792" y="71.4111"/><rect fill="#1B1B1A" height="31.3883" rx="8.3333" ry="8.3333" style="stroke:#1B1B1A;stroke-width:1.0416666666666667;" width="104.1667" x="986.9792" y="71.4111"/><rect fill="#1B1B1A" height="8.3333" style="stroke:#1B1B1A;stroke-width:1.0416666666666667;" width="104.1667" x="986.9792" y="94.4661"/><rect codeLine="7" fill="none" height="48.055" id="Countable" rx="8.3333" ry="8.3333" style="stroke:#5E5E5E;stroke-width:1.0416666666666667;" width="104.1667" x="986.9792" y="71.4111"/><ellipse cx="1001.5625" cy="87.1053" fill="#008400" rx="10.4167" ry="10.4167" style="stroke:#239C23;stroke-width:1.0416666666666667;"/><path d="M998.9665,84.2672 L998.9665,82.6803 L1004.3925,82.6803 L1004.3925,84.2672 L1002.5798,84.2672 L1002.5798,90.2059 L1004.3925,90.2059 L1004.3925,91.7928 L998.9665,91.7928 L998.9665,90.2059 L1000.7792,90.2059 L1000.7792,84.2672 Z " fill="#000000"/><text fill="#D8BC00" font-family="Open Sans,Avenir,Nunito,Arial,Helvetica,SansSerif" font-size="12.5" font-style="italic" font-weight="bold" lengthAdjust="spacing" textLength="66.6667" x="1018.2292" y="91.8294">Countable</text><line style="stroke:#5E5E5E;stroke-width:1.0416666666666667;" x1="988.0208" x2="1090.1042" y1="102.7995" y2="102.7995"/><line style="stroke:#5E5E5E;stroke-width:1.0416666666666667;" x1="988.0208" x2="1090.1042" y1="111.1328" y2="111.1328"/><!--MD5=[680db2e54b1aeab47909911dbd9c18b9]
class Sized--><rect codeLine="8" fill="#282828" height="48.055" id="Sized" rx="8.3333" ry="8.3333" style="stroke:#5E5E5E;stroke-width:1.0416666666666667;" width="71.875" x="1128.125" y="71.4111"/><rect fill="#1B1B1A" height="31.3883" rx="8.3333" ry="8.3333" style="stroke:#1B1B1A;stroke-width:1.0416666666666667;" width="71.875" x="1128.125" y="71.4111"/><rect fill="#1B1B1A" height="8.3333" style="stroke:#1B1B1A;stroke-width:1.0416666666666667;" width="71.875" x="1128.125" y="94.4661"/><rect codeLine="8" fill="none" height="48.055" id="Sized" rx="8.3333" ry="8.3333" style="stroke:#5E5E5E;stroke-width:1.0416666666666667;" width="71.875" x="1128.125" y="71.4111"/><ellipse cx="1142.7083" cy="87.1053" fill="#008400" rx="10.4167" ry="10.4167" style="stroke:#239C23;stroke-width:1.0416666666666667;"/><path d="M1140.1123,84.2672 L1140.1123,82.6803 L1145.5383,82.6803 L1145.5383,84.2672 L1143.7256,84.2672 L1143.7256,90.2059 L1145.5383,90.2059 L1145.5383,91.7928 L1140.1123,91.7928 L1140.1123,90.2059 L1141.925,90.2059 L1141.925,84.2672 Z " fill="#000000"/><text fill="#D8BC00" font-family="Open Sans,Avenir,Nunito,Arial,Helvetica,SansSerif" font-size="12.5" font-style="italic" font-weight="bold" lengthAdjust="spacing" textLength="34.375" x="1159.375" y="91.8294">Sized</text><line style="stroke:#5E5E5E;stroke-width:1.0416666666666667;" x1="1129.1667" x2="1198.9583" y1="102.7995" y2="102.7995"/><line style="stroke:#5E5E5E;stroke-width:1.0416666666666667;" x1="1129.1667" x2="1198.9583" y1="111.1328" y2="111.1328"/><!--MD5=[93b6c7fd318afcbb262a6b60625b068e]
class Addable--><rect codeLine="9" fill="#282828" height="48.055" id="Addable" rx="8.3333" ry="8.3333" style="stroke:#5E5E5E;stroke-width:1.0416666666666667;" width="90.625" x="1236.4583" y="71.4111"/><rect fill="#1B1B1A" height="31.3883" rx="8.3333" ry="8.3333" style="stroke:#1B1B1A;stroke-width:1.0416666666666667;" width="90.625" x="1236.4583" y="71.4111"/><rect fill="#1B1B1A" height="8.3333" style="stroke:#1B1B1A;stroke-width:1.0416666666666667;" width="90.625" x="1236.4583" y="94.4661"/><rect codeLine="9" fill="none" height="48.055" id="Addable" rx="8.3333" ry="8.3333" style="stroke:#5E5E5E;stroke-width:1.0416666666666667;" width="90.625" x="1236.4583" y="71.4111"/><ellipse cx="1251.0417" cy="87.1053" fill="#008400" rx="10.4167" ry="10.4167" style="stroke:#239C23;stroke-width:1.0416666666666667;"/><path d="M1248.4456,84.2672 L1248.4456,82.6803 L1253.8717,82.6803 L1253.8717,84.2672 L1252.0589,84.2672 L1252.0589,90.2059 L1253.8717,90.2059 L1253.8717,91.7928 L1248.4456,91.7928 L1248.4456,90.2059 L1250.2584,90.2059 L1250.2584,84.2672 Z " fill="#000000"/><text fill="#D8BC00" font-family="Open Sans,Avenir,Nunito,Arial,Helvetica,SansSerif" font-size="12.5" font-style="italic" font-weight="bold" lengthAdjust="spacing" textLength="53.125" x="1267.7083" y="91.8294">Addable</text><line style="stroke:#5E5E5E;stroke-width:1.0416666666666667;" x1="1237.5" x2="1326.0417" y1="102.7995" y2="102.7995"/><line style="stroke:#5E5E5E;stroke-width:1.0416666666666667;" x1="1237.5" x2="1326.0417" y1="111.1328" y2="111.1328"/><!--MD5=[263187b48e10dd6c7af50c40a2af90e0]
class Joinable--><rect codeLine="10" fill="#282828" height="48.055" id="Joinable" rx="8.3333" ry="8.3333" style="stroke:#5E5E5E;stroke-width:1.0416666666666667;" width="90.625" x="1363.5417" y="71.4111"/><rect fill="#1B1B1A" height="31.3883" rx="8.3333" ry="8.3333" style="stroke:#1B1B1A;stroke-width:1.0416666666666667;" width="90.625" x="1363.5417" y="71.4111"/><rect fill="#1B1B1A" height="8.3333" style="stroke:#1B1B1A;stroke-width:1.0416666666666667;" width="90.625" x="1363.5417" y="94.4661"/><rect codeLine="10" fill="none" height="48.055" id="Joinable" rx="8.3333" ry="8.3333" style="stroke:#5E5E5E;stroke-width:1.0416666666666667;" width="90.625" x="1363.5417" y="71.4111"/><ellipse cx="1378.125" cy="87.1053" fill="#008400" rx="10.4167" ry="10.4167" style="stroke:#239C23;stroke-width:1.0416666666666667;"/><path d="M1375.529,84.2672 L1375.529,82.6803 L1380.955,82.6803 L1380.955,84.2672 L1379.1423,84.2672 L1379.1423,90.2059 L1380.955,90.2059 L1380.955,91.7928 L1375.529,91.7928 L1375.529,90.2059 L1377.3417,90.2059 L1377.3417,84.2672 Z " fill="#000000"/><text fill="#D8BC00" font-family="Open Sans,Avenir,Nunito,Arial,Helvetica,SansSerif" font-size="12.5" font-style="italic" font-weight="bold" lengthAdjust="spacing" textLength="53.125" x="1394.7917" y="91.8294">Joinable</text><line style="stroke:#5E5E5E;stroke-width:1.0416666666666667;" x1="1364.5833" x2="1453.125" y1="102.7995" y2="102.7995"/><line style="stroke:#5E5E5E;stroke-width:1.0416666666666667;" x1="1364.5833" x2="1453.125" y1="111.1328" y2="111.1328"/><!--MD5=[c160724f8e3bb89ca8141a12554ac2e3]
class Collection--><rect codeLine="11" fill="#282828" height="48.055" id="Collection" rx="8.3333" ry="8.3333" style="stroke:#5E5E5E;stroke-width:1.0416666666666667;" width="103.125" x="1490.625" y="71.4111"/><rect fill="#1B1B1A" height="31.3883" rx="8.3333" ry="8.3333" style="stroke:#1B1B1A;stroke-width:1.0416666666666667;" width="103.125" x="1490.625" y="71.4111"/><rect fill="#1B1B1A" height="8.3333" style="stroke:#1B1B1A;stroke-width:1.0416666666666667;" width="103.125" x="1490.625" y="94.4661"/><rect codeLine="11" fill="none" height="48.055" id="Collection" rx="8.3333" ry="8.3333" style="stroke:#5E5E5E;stroke-width:1.0416666666666667;" width="103.125" x="1490.625" y="71.4111"/><ellipse cx="1505.2083" cy="87.1053" fill="#008400" rx="10.4167" ry="10.4167" style="stroke:#239C23;stroke-width:1.0416666666666667;"/><path d="M1502.6123,84.2672 L1502.6123,82.6803 L1508.0383,82.6803 L1508.0383,84.2672 L1506.2256,84.2672 L1506.2256,90.2059 L1508.0383,90.2059 L1508.0383,91.7928 L1502.6123,91.7928 L1502.6123,90.2059 L1504.425,90.2059 L1504.425,84.2672 Z " fill="#000000"/><text fill="#D8BC00" font-family="Open Sans,Avenir,Nunito,Arial,Helvetica,SansSerif" font-size="12.5" font-style="italic" font-weight="bold" lengthAdjust="spacing" textLength="65.625" x="1521.875" y="91.8294">Collection</text><line style="stroke:#5E5E5E;stroke-width:1.0416666666666667;" x1="1491.6667" x2="1592.7083" y1="102.7995" y2="102.7995"/><line style="stroke:#5E5E5E;stroke-width:1.0416666666666667;" x1="1491.6667" x2="1592.7083" y1="111.1328" y2="111.1328"/><!--MD5=[896702bfce61b73dfbf765415205a76e]
class Sequence--><rect codeLine="12" fill="#282828" height="48.055" id="Sequence" rx="8.3333" ry="8.3333" style="stroke:#5E5E5E;stroke-width:1.0416666666666667;" width="97.9167" x="1630.7292" y="71.4111"/><rect fill="#1B1B1A" height="31.3883" rx="8.3333" ry="8.3333" style="stroke:#1B1B1A;stroke-width:1.0416666666666667;" width="97.9167" x="1630.7292" y="71.4111"/><rect fill="#1B1B1A" height="8.3333" style="stroke:#1B1B1A;stroke-width:1.0416666666666667;" width="97.9167" x="1630.7292" y="94.4661"/><rect codeLine="12" fill="none" height="48.055" id="Sequence" rx="8.3333" ry="8.3333" style="stroke:#5E5E5E;stroke-width:1.0416666666666667;" width="97.9167" x="1630.7292" y="71.4111"/><ellipse cx="1645.3125" cy="87.1053" fill="#008400" rx="10.4167" ry="10.4167" style="stroke:#239C23;stroke-width:1.0416666666666667;"/><path d="M1642.7165,84.2672 L1642.7165,82.6803 L1648.1425,82.6803 L1648.1425,84.2672 L1646.3298,84.2672 L1646.3298,90.2059 L1648.1425,90.2059 L1648.1425,91.7928 L1642.7165,91.7928 L1642.7165,90.2059 L1644.5292,90.2059 L1644.5292,84.2672 Z " fill="#000000"/><text fill="#D8BC00" font-family="Open Sans,Avenir,Nunito,Arial,Helvetica,SansSerif" font-size="12.5" font-style="italic" font-weight="bold" lengthAdjust="spacing" textLength="60.4167" x="1661.9792" y="91.8294">Sequence</text><line style="stroke:#5E5E5E;stroke-width:1.0416666666666667;" x1="1631.7708" x2="1727.6042" y1="102.7995" y2="102.7995"/><line style="stroke:#5E5E5E;stroke-width:1.0416666666666667;" x1="1631.7708" x2="1727.6042" y1="111.1328" y2="111.1328"/><!--MD5=[765c6fee8e87f2ef0c991739d072f9c1]
class StringFormattable--><rect codeLine="13" fill="#282828" height="48.055" id="StringFormattable" rx="8.3333" ry="8.3333" style="stroke:#5E5E5E;stroke-width:1.0416666666666667;" width="154.1667" x="1765.1042" y="71.4111"/><rect fill="#1B1B1A" height="31.3883" rx="8.3333" ry="8.3333" style="stroke:#1B1B1A;stroke-width:1.0416666666666667;" width="154.1667" x="1765.1042" y="71.4111"/><rect fill="#1B1B1A" height="8.3333" style="stroke:#1B1B1A;stroke-width:1.0416666666666667;" width="154.1667" x="1765.1042" y="94.4661"/><rect codeLine="13" fill="none" height="48.055" id="StringFormattable" rx="8.3333" ry="8.3333" style="stroke:#5E5E5E;stroke-width:1.0416666666666667;" width="154.1667" x="1765.1042" y="71.4111"/><ellipse cx="1779.6875" cy="87.1053" fill="#008400" rx="10.4167" ry="10.4167" style="stroke:#239C23;stroke-width:1.0416666666666667;"/><path d="M1777.0915,84.2672 L1777.0915,82.6803 L1782.5175,82.6803 L1782.5175,84.2672 L1780.7048,84.2672 L1780.7048,90.2059 L1782.5175,90.2059 L1782.5175,91.7928 L1777.0915,91.7928 L1777.0915,90.2059 L1778.9042,90.2059 L1778.9042,84.2672 Z " fill="#000000"/><text fill="#D8BC00" font-family="Open Sans,Avenir,Nunito,Arial,Helvetica,SansSerif" font-size="12.5" font-style="italic" font-weight="bold" lengthAdjust="spacing" textLength="116.6667" x="1796.3542" y="91.8294">StringFormattable</text><line style="stroke:#5E5E5E;stroke-width:1.0416666666666667;" x1="1766.1458" x2="1918.2292" y1="102.7995" y2="102.7995"/><line style="stroke:#5E5E5E;stroke-width:1.0416666666666667;" x1="1766.1458" x2="1918.2292" y1="111.1328" y2="111.1328"/><!--MD5=[f7c4391662c945ed36d44e2e8d2e2eab]
class BaseCollection--><rect codeLine="22" fill="#282828" height="435.7076" id="BaseCollection" rx="8.3333" ry="8.3333" style="stroke:#5E5E5E;stroke-width:1.0416666666666667;" width="343.75" x="1236.9792" y="199.5361"/><rect fill="#1B1B1A" height="31.3883" rx="8.3333" ry="8.3333" style="stroke:#1B1B1A;stroke-width:1.0416666666666667;" width="343.75" x="1236.9792" y="199.5361"/><rect fill="#1B1B1A" height="8.3333" style="stroke:#1B1B1A;stroke-width:1.0416666666666667;" width="343.75" x="1236.9792" y="222.5911"/><rect codeLine="22" fill="none" height="435.7076" id="BaseCollection" rx="8.3333" ry="8.3333" style="stroke:#5E5E5E;stroke-width:1.0416666666666667;" width="343.75" x="1236.9792" y="199.5361"/><ellipse cx="1330.7292" cy="215.2303" fill="#C8AC00" rx="10.4167" ry="10.4167" style="stroke:#D8BC00;stroke-width:1.0416666666666667;"/><path d="M1330.3223,211.9324 L1329.4739,215.6616 L1331.1768,215.6616 Z M1329.2236,210.2844 L1331.427,210.2844 L1333.8867,219.397 L1332.0862,219.397 L1331.5247,217.1448 L1329.1138,217.1448 L1328.5645,219.397 L1326.7639,219.397 Z " fill="#000000"/><text fill="#D8BC00" font-family="Open Sans,Avenir,Nunito,Arial,Helvetica,SansSerif" font-size="12.5" font-style="italic" font-weight="bold" lengthAdjust="spacing" textLength="95.8333" x="1353.6458" y="219.9544">BaseCollection</text><rect fill="#333333" height="23.055" style="stroke:#A0A0A0;stroke-width:1.0416666666666667;stroke-dasharray:2.0,2.0;" width="43.75" x="1540.1042" y="196.4111"/><text fill="#A0A0A0" font-family="Open Sans,Avenir,Nunito,Arial,Helvetica,SansSerif" font-size="12.5" font-weight="bold" lengthAdjust="spacing" textLength="35.4167" x="1544.2708" y="212.6628">Value</text><line style="stroke:#5E5E5E;stroke-width:1.5625;" x1="1238.0208" x2="1579.6875" y1="230.9245" y2="230.9245"/><polygon fill="#FFFF44" points="1248.4375,261.086,1252.6042,265.2527,1248.4375,269.4194,1244.2708,265.2527" style="stroke:#B38D22;stroke-width:1.0416666666666667;"/><text fill="#D8BC00" font-family="Open Sans,Avenir,Nunito,Arial,Helvetica,SansSerif" font-size="11.4583" lengthAdjust="spacing" textLength="143.75" x="1259.8958" y="273.2056">BaseCollection(Maximum)</text><line style="stroke:#5E5E5E;stroke-width:1.0416666666666667;" x1="1238.0208" x2="1365.1042" y1="249.1302" y2="249.1302"/><text fill="#D8BC00" font-family="Open Sans,Avenir,Nunito,Arial,Helvetica,SansSerif" font-size="11.4583" lengthAdjust="spacing" textLength="81.25" x="1368.2292" y="252.9399">(constructors)</text><line style="stroke:#5E5E5E;stroke-width:1.0416666666666667;" x1="1452.6042" x2="1579.6875" y1="249.1302" y2="249.1302"/><line style="stroke:#5E5E5E;stroke-width:1.0416666666666667;" x1="1238.0208" x2="1579.6875" y1="282.9142" y2="282.9142"/><ellipse cx="1248.4375" cy="294.3726" fill="#84BE84" rx="3.125" ry="3.125" style="stroke:#038048;stroke-width:1.0416666666666667;"/><text fill="#D8BC00" font-family="Open Sans,Avenir,Nunito,Arial,Helvetica,SansSerif" font-size="11.4583" lengthAdjust="spacing" textLength="294.7917" x="1259.8958" y="301.2838">BaseCollection&lt;Value&gt; with(Collection&lt;Value&gt; that)</text><ellipse cx="1248.4375" cy="314.1174" fill="#84BE84" rx="3.125" ry="3.125" style="stroke:#038048;stroke-width:1.0416666666666667;"/><text fill="#D8BC00" font-family="Open Sans,Avenir,Nunito,Arial,Helvetica,SansSerif" font-size="11.4583" lengthAdjust="spacing" textLength="280.2083" x="1259.8958" y="321.0286">BaseCollection&lt;Value&gt; with(Iterable&lt;Value&gt; that)</text><ellipse cx="1248.4375" cy="333.8623" fill="#84BE84" rx="3.125" ry="3.125" style="stroke:#038048;stroke-width:1.0416666666666667;"/><text fill="#D8BC00" font-family="Open Sans,Avenir,Nunito,Arial,Helvetica,SansSerif" font-size="11.4583" lengthAdjust="spacing" textLength="228.125" x="1259.8958" y="340.7735">BaseCollection&lt;Value&gt; with(Value[] that)</text><ellipse cx="1248.4375" cy="353.6072" fill="#84BE84" rx="3.125" ry="3.125" style="stroke:#038048;stroke-width:1.0416666666666667;"/><text fill="#D8BC00" font-family="Open Sans,Avenir,Nunito,Arial,Helvetica,SansSerif" font-size="11.4583" lengthAdjust="spacing" textLength="194.7917" x="1259.8958" y="360.5184">BaseCollection&lt;Value&gt; with(Value)</text><polygon fill="#FFFF44" points="1248.4375,368.1437,1252.6042,372.3104,1248.4375,376.4771,1244.2708,372.3104" style="stroke:#B38D22;stroke-width:1.0416666666666667;"/><text fill="#D8BC00" font-family="Open Sans,Avenir,Nunito,Arial,Helvetica,SansSerif" font-size="11.4583" lengthAdjust="spacing" textLength="216.6667" x="1259.8958" y="380.2633">Collection&lt;Value&gt; backingCollection()</text><ellipse cx="1248.4375" cy="417.0085" fill="#84BE84" rx="3.125" ry="3.125" style="stroke:#038048;stroke-width:1.0416666666666667;"/><text fill="#D8BC00" font-family="Open Sans,Avenir,Nunito,Arial,Helvetica,SansSerif" font-size="11.4583" lengthAdjust="spacing" textLength="200" x="1259.8958" y="423.9197">Value[] asArray(Class&lt;Value&gt; type)</text><ellipse cx="1248.4375" cy="436.7533" fill="#84BE84" rx="3.125" ry="3.125" style="stroke:#038048;stroke-width:1.0416666666666667;"/><text fill="#D8BC00" font-family="Open Sans,Avenir,Nunito,Arial,Helvetica,SansSerif" font-size="11.4583" lengthAdjust="spacing" textLength="130.2083" x="1259.8958" y="443.6646">StringList asStringList()</text><ellipse cx="1248.4375" cy="456.4982" fill="#84BE84" rx="3.125" ry="3.125" style="stroke:#038048;stroke-width:1.0416666666666667;"/><text fill="#D8BC00" font-family="Open Sans,Avenir,Nunito,Arial,Helvetica,SansSerif" font-size="11.4583" lengthAdjust="spacing" textLength="311.4583" x="1259.8958" y="463.4094">BaseCollection&lt;To&gt; map(Function&lt;Value,To&gt; mapper)</text><ellipse cx="1248.4375" cy="476.2431" fill="#84BE84" rx="3.125" ry="3.125" style="stroke:#038048;stroke-width:1.0416666666666667;"/><text fill="#D8BC00" font-family="Open Sans,Avenir,Nunito,Arial,Helvetica,SansSerif" font-size="11.4583" lengthAdjust="spacing" textLength="304.1667" x="1259.8958" y="483.1543">Iterable&lt;Value&gt; matchingAsIterable(Matcher&lt;Value&gt;)</text><ellipse cx="1248.4375" cy="495.988" fill="#84BE84" rx="3.125" ry="3.125" style="stroke:#038048;stroke-width:1.0416666666666667;"/><text fill="#D8BC00" font-family="Open Sans,Avenir,Nunito,Arial,Helvetica,SansSerif" font-size="11.4583" lengthAdjust="spacing" textLength="142.7083" x="1259.8958" y="502.8992">Maximum maximumSize()</text><ellipse cx="1248.4375" cy="515.7328" fill="#84BE84" rx="3.125" ry="3.125" style="stroke:#038048;stroke-width:1.0416666666666667;"/><text fill="#D8BC00" font-family="Open Sans,Avenir,Nunito,Arial,Helvetica,SansSerif" font-size="11.4583" lengthAdjust="spacing" textLength="257.2917" x="1259.8958" y="522.644">boolean removeAllMatching(Matcher&lt;Value&gt;)</text><ellipse cx="1248.4375" cy="535.4777" fill="#84BE84" rx="3.125" ry="3.125" style="stroke:#038048;stroke-width:1.0416666666666667;"/><text fill="#D8BC00" font-family="Open Sans,Avenir,Nunito,Arial,Helvetica,SansSerif" font-size="11.4583" lengthAdjust="spacing" textLength="258.3333" x="1259.8958" y="542.3889">BaseList&lt;Value&gt; sorted(Comparator&lt;Value&gt;)</text><ellipse cx="1248.4375" cy="555.2226" fill="#84BE84" rx="3.125" ry="3.125" style="stroke:#038048;stroke-width:1.0416666666666667;"/><text fill="#D8BC00" font-family="Open Sans,Avenir,Nunito,Arial,Helvetica,SansSerif" font-size="11.4583" lengthAdjust="spacing" textLength="141.6667" x="1259.8958" y="562.1338">BaseList&lt;Value&gt; sorted()</text><line style="stroke:#5E5E5E;stroke-width:1.0416666666666667;" x1="1238.0208" x2="1374.4792" y1="399.8444" y2="399.8444"/><text fill="#D8BC00" font-family="Open Sans,Avenir,Nunito,Arial,Helvetica,SansSerif" font-size="11.4583" lengthAdjust="spacing" textLength="62.5" x="1377.6042" y="403.654">(collection)</text><line style="stroke:#5E5E5E;stroke-width:1.0416666666666667;" x1="1443.2292" x2="1579.6875" y1="399.8444" y2="399.8444"/><polygon fill="#FFFF44" points="1248.4375,593.6707,1252.6042,597.8373,1248.4375,602.004,1244.2708,597.8373" style="stroke:#B38D22;stroke-width:1.0416666666666667;"/><text fill="#D8BC00" font-family="Open Sans,Avenir,Nunito,Arial,Helvetica,SansSerif" font-size="11.4583" lengthAdjust="spacing" textLength="219.7917" x="1259.8958" y="605.7902">BaseCollection&lt;Value&gt; newCollection()</text><polygon fill="#FFFF44" points="1248.4375,613.4155,1252.6042,617.5822,1248.4375,621.7489,1244.2708,617.5822" style="stroke:#B38D22;stroke-width:1.0416666666666667;"/><text fill="#D8BC00" font-family="Open Sans,Avenir,Nunito,Arial,Helvetica,SansSerif" font-size="11.4583" lengthAdjust="spacing" textLength="235.4167" x="1259.8958" y="625.5351">BaseCollection&lt;Value&gt; onNewCollection()</text><line style="stroke:#5E5E5E;stroke-width:1.0416666666666667;" x1="1238.0208" x2="1381.7708" y1="581.7149" y2="581.7149"/><text fill="#D8BC00" font-family="Open Sans,Avenir,Nunito,Arial,Helvetica,SansSerif" font-size="11.4583" lengthAdjust="spacing" textLength="47.9167" x="1384.8958" y="585.5245">(factory)</text><line style="stroke:#5E5E5E;stroke-width:1.0416666666666667;" x1="1435.9375" x2="1579.6875" y1="581.7149" y2="581.7149"/><!--MD5=[6b5cde746fb5922ba409e305181b0f4f]
class Collections--><rect codeLine="46" fill="#282828" height="67.7999" id="Collections" rx="8.3333" ry="8.3333" style="stroke:#5E5E5E;stroke-width:1.0416666666666667;" width="217.7083" x="209.375" y="61.5153"/><rect fill="#1B1B1A" height="31.3883" rx="8.3333" ry="8.3333" style="stroke:#1B1B1A;stroke-width:1.0416666666666667;" width="217.7083" x="209.375" y="61.5153"/><rect fill="#1B1B1A" height="8.3333" style="stroke:#1B1B1A;stroke-width:1.0416666666666667;" width="217.7083" x="209.375" y="84.5703"/><rect codeLine="46" fill="none" height="67.7999" id="Collections" rx="8.3333" ry="8.3333" style="stroke:#5E5E5E;stroke-width:1.0416666666666667;" width="217.7083" x="209.375" y="61.5153"/><ellipse cx="274.4792" cy="77.2095" fill="#0066CF" rx="10.4167" ry="10.4167" style="stroke:#0086EF;stroke-width:1.0416666666666667;"/><path d="M276.3896,81.6345 Q275.9623,81.8542 275.4924,81.9641 Q275.0224,82.074 274.5036,82.074 Q272.6603,82.074 271.6899,80.8594 Q270.7194,79.6448 270.7194,77.3499 Q270.7194,75.0488 271.6899,73.8342 Q272.6603,72.6196 274.5036,72.6196 Q275.0224,72.6196 275.4985,72.7295 Q275.9745,72.8394 276.3896,73.0591 L276.3896,75.061 Q275.9257,74.6338 275.4893,74.4354 Q275.0529,74.2371 274.589,74.2371 Q273.6003,74.2371 273.0967,75.0214 Q272.5932,75.8057 272.5932,77.3499 Q272.5932,78.8879 273.0967,79.6722 Q273.6003,80.4565 274.589,80.4565 Q275.0529,80.4565 275.4893,80.2582 Q275.9257,80.0598 276.3896,79.6326 Z " fill="#000000"/><text fill="#D8BC00" font-family="Open Sans,Avenir,Nunito,Arial,Helvetica,SansSerif" font-size="12.5" font-weight="bold" lengthAdjust="spacing" textLength="72.9167" x="297.3958" y="81.9336">Collections</text><line style="stroke:#5E5E5E;stroke-width:1.5625;" x1="210.4167" x2="426.0417" y1="92.9036" y2="92.9036"/><line style="stroke:#5E5E5E;stroke-width:1.0416666666666667;" x1="210.4167" x2="426.0417" y1="101.237" y2="101.237"/><ellipse cx="220.8333" cy="112.6953" fill="#84BE84" rx="3.125" ry="3.125" style="stroke:#038048;stroke-width:1.0416666666666667;"/><text fill="#D8BC00" font-family="Open Sans,Avenir,Nunito,Arial,Helvetica,SansSerif" font-size="11.4583" lengthAdjust="spacing" textLength="185.4167" x="232.2917" y="119.6065">T pickOne(Collection&lt;T&gt; values)</text><!--MD5=[5d1cc5807216f0e8084cf9b948201fc6]
class Lists--><rect codeLine="52" fill="#282828" height="83.3781" id="Lists" rx="8.3333" ry="8.3333" style="stroke:#5E5E5E;stroke-width:1.0416666666666667;" width="300" x="464.0625" y="53.7028"/><rect fill="#1B1B1A" height="31.3883" rx="8.3333" ry="8.3333" style="stroke:#1B1B1A;stroke-width:1.0416666666666667;" width="300" x="464.0625" y="53.7028"/><rect fill="#1B1B1A" height="8.3333" style="stroke:#1B1B1A;stroke-width:1.0416666666666667;" width="300" x="464.0625" y="76.7578"/><rect codeLine="52" fill="none" height="83.3781" id="Lists" rx="8.3333" ry="8.3333" style="stroke:#5E5E5E;stroke-width:1.0416666666666667;" width="300" x="464.0625" y="53.7028"/><ellipse cx="591.1458" cy="69.397" fill="#0066CF" rx="10.4167" ry="10.4167" style="stroke:#0086EF;stroke-width:1.0416666666666667;"/><path d="M593.0562,73.822 Q592.629,74.0417 592.159,74.1516 Q591.689,74.2615 591.1702,74.2615 Q589.327,74.2615 588.3565,73.0469 Q587.3861,71.8323 587.3861,69.5374 Q587.3861,67.2363 588.3565,66.0217 Q589.327,64.8071 591.1702,64.8071 Q591.689,64.8071 592.1651,64.917 Q592.6412,65.0269 593.0562,65.2466 L593.0562,67.2485 Q592.5924,66.8213 592.156,66.6229 Q591.7196,66.4246 591.2557,66.4246 Q590.2669,66.4246 589.7634,67.2089 Q589.2598,67.9932 589.2598,69.5374 Q589.2598,71.0754 589.7634,71.8597 Q590.2669,72.644 591.2557,72.644 Q591.7196,72.644 592.156,72.4457 Q592.5924,72.2473 593.0562,71.8201 Z " fill="#000000"/><text fill="#D8BC00" font-family="Open Sans,Avenir,Nunito,Arial,Helvetica,SansSerif" font-size="12.5" font-weight="bold" lengthAdjust="spacing" textLength="31.25" x="614.0625" y="74.1211">Lists</text><line style="stroke:#5E5E5E;stroke-width:1.5625;" x1="465.1042" x2="763.0208" y1="85.0911" y2="85.0911"/><ellipse cx="475.5208" cy="120.461" fill="#84BE84" rx="3.125" ry="3.125" style="stroke:#038048;stroke-width:1.0416666666666667;"/><text fill="#D8BC00" font-family="Open Sans,Avenir,Nunito,Arial,Helvetica,SansSerif" font-size="11.4583" lengthAdjust="spacing" textLength="267.7083" x="486.9792" y="127.3722">ArrayList&lt;Value&gt; newArrayList(Value... objects)</text><line style="stroke:#5E5E5E;stroke-width:1.0416666666666667;" x1="465.1042" x2="579.6875" y1="103.2969" y2="103.2969"/><text fill="#D8BC00" font-family="Open Sans,Avenir,Nunito,Arial,Helvetica,SansSerif" font-size="11.4583" lengthAdjust="spacing" textLength="62.5" x="582.8125" y="107.1065">(collection)</text><line style="stroke:#5E5E5E;stroke-width:1.0416666666666667;" x1="648.4375" x2="763.0208" y1="103.2969" y2="103.2969"/><!--MD5=[71ce0a3608bb8f95aef345b3150a8729]
class Maps--><rect codeLine="58" fill="#282828" height="83.3781" id="Maps" rx="8.3333" ry="8.3333" style="stroke:#5E5E5E;stroke-width:1.0416666666666667;" width="621.875" x="7.2917" y="375.5778"/><rect fill="#1B1B1A" height="31.3883" rx="8.3333" ry="8.3333" style="stroke:#1B1B1A;stroke-width:1.0416666666666667;" width="621.875" x="7.2917" y="375.5778"/><rect fill="#1B1B1A" height="8.3333" style="stroke:#1B1B1A;stroke-width:1.0416666666666667;" width="621.875" x="7.2917" y="398.6328"/><rect codeLine="58" fill="none" height="83.3781" id="Maps" rx="8.3333" ry="8.3333" style="stroke:#5E5E5E;stroke-width:1.0416666666666667;" width="621.875" x="7.2917" y="375.5778"/><ellipse cx="293.75" cy="391.272" fill="#0066CF" rx="10.4167" ry="10.4167" style="stroke:#0086EF;stroke-width:1.0416666666666667;"/><path d="M295.6604,395.697 Q295.2332,395.9167 294.7632,396.0266 Q294.2932,396.1365 293.7744,396.1365 Q291.9312,396.1365 290.9607,394.9219 Q289.9902,393.7073 289.9902,391.4124 Q289.9902,389.1113 290.9607,387.8967 Q291.9312,386.6821 293.7744,386.6821 Q294.2932,386.6821 294.7693,386.792 Q295.2454,386.9019 295.6604,387.1216 L295.6604,389.1235 Q295.1965,388.6963 294.7601,388.4979 Q294.3237,388.2996 293.8599,388.2996 Q292.8711,388.2996 292.3676,389.0839 Q291.864,389.8682 291.864,391.4124 Q291.864,392.9504 292.3676,393.7347 Q292.8711,394.519 293.8599,394.519 Q294.3237,394.519 294.7601,394.3207 Q295.1965,394.1223 295.6604,393.6951 Z " fill="#000000"/><text fill="#D8BC00" font-family="Open Sans,Avenir,Nunito,Arial,Helvetica,SansSerif" font-size="12.5" font-weight="bold" lengthAdjust="spacing" textLength="34.375" x="316.6667" y="395.9961">Maps</text><line style="stroke:#5E5E5E;stroke-width:1.5625;" x1="8.3333" x2="628.125" y1="406.9661" y2="406.9661"/><ellipse cx="18.75" cy="442.336" fill="#84BE84" rx="3.125" ry="3.125" style="stroke:#038048;stroke-width:1.0416666666666667;"/><text fill="#D8BC00" font-family="Open Sans,Avenir,Nunito,Arial,Helvetica,SansSerif" font-size="11.4583" lengthAdjust="spacing" textLength="589.5833" x="30.2083" y="449.2472">Map&lt;Key,Value&gt; deepCopy(Factory&lt;Map&lt;Key,Value&gt;&gt;, Map&lt;Key,Value&gt;, Function&lt;Value,Value&gt; clone)</text><line style="stroke:#5E5E5E;stroke-width:1.0416666666666667;" x1="8.3333" x2="282.8125" y1="425.1719" y2="425.1719"/><text fill="#D8BC00" font-family="Open Sans,Avenir,Nunito,Arial,Helvetica,SansSerif" font-size="11.4583" lengthAdjust="spacing" textLength="64.5833" x="285.9375" y="428.9815">(filesystem)</text><line style="stroke:#5E5E5E;stroke-width:1.0416666666666667;" x1="353.6458" x2="628.125" y1="425.1719" y2="425.1719"/><!--MD5=[b25f75870ad14b52537b79f435f612ff]
class Sets--><rect codeLine="64" fill="#282828" height="234.0922" id="Sets" rx="8.3333" ry="8.3333" style="stroke:#5E5E5E;stroke-width:1.0416666666666667;" width="534.375" x="665.625" y="300.057"/><rect fill="#1B1B1A" height="31.3883" rx="8.3333" ry="8.3333" style="stroke:#1B1B1A;stroke-width:1.0416666666666667;" width="534.375" x="665.625" y="300.057"/><rect fill="#1B1B1A" height="8.3333" style="stroke:#1B1B1A;stroke-width:1.0416666666666667;" width="534.375" x="665.625" y="323.112"/><rect codeLine="64" fill="none" height="234.0922" id="Sets" rx="8.3333" ry="8.3333" style="stroke:#5E5E5E;stroke-width:1.0416666666666667;" width="534.375" x="665.625" y="300.057"/><ellipse cx="911.9792" cy="315.7511" fill="#0066CF" rx="10.4167" ry="10.4167" style="stroke:#0086EF;stroke-width:1.0416666666666667;"/><path d="M913.8896,320.1762 Q913.4623,320.3959 912.9924,320.5058 Q912.5224,320.6156 912.0036,320.6156 Q910.1603,320.6156 909.1899,319.401 Q908.2194,318.1864 908.2194,315.8915 Q908.2194,313.5905 909.1899,312.3759 Q910.1603,311.1613 912.0036,311.1613 Q912.5224,311.1613 912.9985,311.2712 Q913.4745,311.381 913.8896,311.6007 L913.8896,313.6027 Q913.4257,313.1755 912.9893,312.9771 Q912.5529,312.7787 912.089,312.7787 Q911.1003,312.7787 910.5967,313.563 Q910.0932,314.3473 910.0932,315.8915 Q910.0932,317.4296 910.5967,318.2139 Q911.1003,318.9982 912.089,318.9982 Q912.5529,318.9982 912.9893,318.7998 Q913.4257,318.6015 913.8896,318.1742 Z " fill="#000000"/><text fill="#D8BC00" font-family="Open Sans,Avenir,Nunito,Arial,Helvetica,SansSerif" font-size="12.5" font-weight="bold" lengthAdjust="spacing" textLength="27.0833" x="934.8958" y="320.4753">Sets</text><line style="stroke:#5E5E5E;stroke-width:1.5625;" x1="666.6667" x2="1198.9583" y1="331.4453" y2="331.4453"/><line style="stroke:#5E5E5E;stroke-width:1.0416666666666667;" x1="666.6667" x2="1198.9583" y1="339.7786" y2="339.7786"/><ellipse cx="677.0833" cy="351.237" fill="#84BE84" rx="3.125" ry="3.125" style="stroke:#038048;stroke-width:1.0416666666666667;"/><text fill="#D8BC00" font-family="Open Sans,Avenir,Nunito,Arial,Helvetica,SansSerif" font-size="11.4583" lengthAdjust="spacing" textLength="153.125" x="688.5417" y="358.1482">Value pickOne(Set&lt;Value&gt;)</text><ellipse cx="677.0833" cy="370.9819" fill="#84BE84" rx="3.125" ry="3.125" style="stroke:#038048;stroke-width:1.0416666666666667;"/><text fill="#D8BC00" font-family="Open Sans,Avenir,Nunito,Arial,Helvetica,SansSerif" font-size="11.4583" lengthAdjust="spacing" textLength="211.4583" x="688.5417" y="377.8931">Set&lt;T&gt; unionOf(Set&lt;T&gt; a, Set&lt;T&gt; b)</text><ellipse cx="677.0833" cy="414.6383" fill="#84BE84" rx="3.125" ry="3.125" style="stroke:#038048;stroke-width:1.0416666666666667;"/><text fill="#D8BC00" font-family="Open Sans,Avenir,Nunito,Arial,Helvetica,SansSerif" font-size="11.4583" lengthAdjust="spacing" textLength="208.3333" x="688.5417" y="421.5495">HashSet&lt;T&gt; hashSet(Collection&lt;T&gt;)</text><ellipse cx="677.0833" cy="434.3831" fill="#84BE84" rx="3.125" ry="3.125" style="stroke:#038048;stroke-width:1.0416666666666667;"/><text fill="#D8BC00" font-family="Open Sans,Avenir,Nunito,Arial,Helvetica,SansSerif" font-size="11.4583" lengthAdjust="spacing" textLength="165.625" x="688.5417" y="441.2944">Set&lt;T&gt; hashSet(Iterable&lt;T&gt;)</text><ellipse cx="677.0833" cy="454.128" fill="#84BE84" rx="3.125" ry="3.125" style="stroke:#038048;stroke-width:1.0416666666666667;"/><text fill="#D8BC00" font-family="Open Sans,Avenir,Nunito,Arial,Helvetica,SansSerif" font-size="11.4583" lengthAdjust="spacing" textLength="153.125" x="688.5417" y="461.0392">Set&lt;T&gt; hashSet(T... values)</text><line style="stroke:#5E5E5E;stroke-width:1.0416666666666667;" x1="666.6667" x2="898.4375" y1="397.4742" y2="397.4742"/><text fill="#D8BC00" font-family="Open Sans,Avenir,Nunito,Arial,Helvetica,SansSerif" font-size="11.4583" lengthAdjust="spacing" textLength="62.5" x="901.5625" y="401.2838">(collection)</text><line style="stroke:#5E5E5E;stroke-width:1.0416666666666667;" x1="967.1875" x2="1198.9583" y1="397.4742" y2="397.4742"/><ellipse cx="677.0833" cy="497.7844" fill="#84BE84" rx="3.125" ry="3.125" style="stroke:#038048;stroke-width:1.0416666666666667;"/><text fill="#D8BC00" font-family="Open Sans,Avenir,Nunito,Arial,Helvetica,SansSerif" font-size="11.4583" lengthAdjust="spacing" textLength="502.0833" x="688.5417" y="504.6956">Set&lt;Value&gt; deepCopy(Factory&lt;Set&lt;Value&gt;&gt;, Set&lt;Value&gt;, Function&lt;Value,Value&gt; clone)</text><ellipse cx="677.0833" cy="517.5293" fill="#84BE84" rx="3.125" ry="3.125" style="stroke:#038048;stroke-width:1.0416666666666667;"/><text fill="#D8BC00" font-family="Open Sans,Avenir,Nunito,Arial,Helvetica,SansSerif" font-size="11.4583" lengthAdjust="spacing" textLength="331.25" x="688.5417" y="524.4405">Set&lt;Value&gt; deepCopy(Factory&lt;Set&lt;Value&gt;&gt;, Set&lt;Value&gt;)</text><line style="stroke:#5E5E5E;stroke-width:1.0416666666666667;" x1="666.6667" x2="897.3958" y1="480.6203" y2="480.6203"/><text fill="#D8BC00" font-family="Open Sans,Avenir,Nunito,Arial,Helvetica,SansSerif" font-size="11.4583" lengthAdjust="spacing" textLength="64.5833" x="900.5208" y="484.4299">(filesystem)</text><line style="stroke:#5E5E5E;stroke-width:1.0416666666666667;" x1="968.2292" x2="1198.9583" y1="480.6203" y2="480.6203"/><!--MD5=[1d25e2eb58d5113c1971f0bd1b409934]
reverse link Addable to BaseCollection--><path codeLine="15" d="M1299.2083,140.2757 C1305.8333,156.9528 1313.9063,177.2757 1322.6354,199.2445 " fill="none" id="Addable-backto-BaseCollection" style="stroke:#545454;stroke-width:1.5625;"/><polygon fill="none" points="1292.5104,143.182,1291.5938,121.1299,1306.0625,137.7965,1292.5104,143.182" style="stroke:#545454;stroke-width:1.5625;"/><!--MD5=[03273555464a5f5c5fb4236cbe9d4ae7]
reverse link Collection to BaseCollection--><path codeLine="16" d="M1523.8958,140.2757 C1516.9479,156.9528 1508.4688,177.2757 1499.3125,199.2445 " fill="none" id="Collection-backto-BaseCollection" style="stroke:#545454;stroke-width:1.5625;"/><polygon fill="none" points="1517.1354,137.5465,1531.8854,121.1195,1530.5938,143.1611,1517.1354,137.5465" style="stroke:#545454;stroke-width:1.5625;"/><!--MD5=[aa6be32f427ee0227f89692f85c4db98]
reverse link Countable to BaseCollection--><path codeLine="17" d="M1098.8125,130.7236 C1150.6563,160.5153 1217.5521,198.984 1218.2292,199.5361 C1224.4375,204.609 1230.6042,209.9007 1236.7292,215.359 " fill="none" id="Countable-backto-BaseCollection" style="stroke:#545454;stroke-width:1.5625;"/><polygon fill="none" points="1095.3021,137.1195,1080.8646,120.4215,1102.5625,124.4736,1095.3021,137.1195" style="stroke:#545454;stroke-width:1.5625;"/><!--MD5=[bfa226333fbf7bbc8ca2a2883f171d6f]
reverse link Joinable to BaseCollection--><path codeLine="18" d="M1408.8542,142.0049 C1408.8542,158.3486 1408.8542,178.0257 1408.8542,199.2445 " fill="none" id="Joinable-backto-BaseCollection" style="stroke:#545454;stroke-width:1.5625;"/><polygon fill="none" points="1401.5625,142.0778,1408.8542,121.2445,1416.1458,142.0778,1401.5625,142.0778" style="stroke:#545454;stroke-width:1.5625;"/><!--MD5=[0cd9a1833efd358a30a0fcd17da0fdca]
reverse link Sequence to BaseCollection--><path codeLine="19" d="M1645.5729,136.6924 C1628.1667,157.2445 1605.5521,183.9424 1581.2188,212.682 " fill="none" id="Sequence-backto-BaseCollection" style="stroke:#545454;stroke-width:1.5625;"/><polygon fill="none" points="1639.9479,132.057,1658.9688,120.8695,1651.0729,141.484,1639.9479,132.057" style="stroke:#545454;stroke-width:1.5625;"/><!--MD5=[7d69e13dcae986c5841637c957d1b9c3]
reverse link Sized to BaseCollection--><path codeLine="20" d="M1195.4792,137.4528 C1208.6354,154.6403 1225,176.0153 1242.7813,199.2445 " fill="none" id="Sized-backto-BaseCollection" style="stroke:#545454;stroke-width:1.5625;"/><polygon fill="none" points="1189.6979,141.8903,1182.8229,120.9215,1201.2813,133.0257,1189.6979,141.8903" style="stroke:#545454;stroke-width:1.5625;"/><!--MD5=[df394414caa509b399d54ef3dfd3957a]
reverse link StringFormattable to BaseCollection--><path codeLine="21" d="M1792.8958,132.7861 C1741.3333,170.8382 1657.4271,232.7653 1581.1771,289.0361 " fill="none" id="StringFormattable-backto-BaseCollection" style="stroke:#545454;stroke-width:1.5625;"/><polygon fill="none" points="1788.3125,127.109,1809.4063,120.5986,1796.9688,138.8382,1788.3125,127.109" style="stroke:#545454;stroke-width:1.5625;"/><!--MD5=[9a2465a8ba2ee7f8a1b8d036430def91]
link Collections to Lists--><!--MD5=[eba42dd7a146e78e2c97eb4b3c7b77b4]
link Collections to Maps--><!--MD5=[9ce21232bccadb84cd681a375c72fcaa]
link Maps to Sets--><!--MD5=[12f841161dfc24d3d91cc5c8b49d8685]
@startuml

    !include lexakai.theme
    
    title "com.telenav.kivakit.core.collections"
    
    interface Countable
    interface Sized
    interface Addable
    interface Joinable
    interface Collection
    interface Sequence
    interface StringFormattable
    
    Addable <|- - BaseCollection
    Collection <|- - BaseCollection
    Countable <|- - BaseCollection
    Joinable <|- - BaseCollection
    Sequence <|- - BaseCollection
    Sized <|- - BaseCollection
    StringFormattable <|- - BaseCollection
    abstract class BaseCollection<Value>
    {
        - -(constructors)- -
        #BaseCollection(Maximum)
        - -
        +BaseCollection<Value> with(Collection<Value> that)
        +BaseCollection<Value> with(Iterable<Value> that)
        +BaseCollection<Value> with(Value[] that)
        +BaseCollection<Value> with(Value)
        #Collection<Value> backingCollection()
        - -(collection)- -
        +Value[] asArray(Class<Value> type)
        +StringList asStringList()
        +BaseCollection<To> map(Function<Value,To> mapper)
        +Iterable<Value> matchingAsIterable(Matcher<Value>)
        +Maximum maximumSize()
        +boolean removeAllMatching(Matcher<Value>)
        +BaseList<Value> sorted(Comparator<Value>)
        +BaseList<Value> sorted()
        - -(factory)- -
        #BaseCollection<Value> newCollection()
        #BaseCollection<Value> onNewCollection()
    }
    
    class Collections
    {
        - -
        +T pickOne(Collection<T> values)
    }
    
    class Lists
    {
        - -(collection)- -
        +ArrayList<Value> newArrayList(Value... objects)
    }
    
    class Maps
    {
        - -(filesystem)- -
        +Map<Key,Value> deepCopy(Factory<Map<Key,Value>>, Map<Key,Value>, Function<Value,Value> clone)
    }
    
    class Sets
    {
        - -
        +Value pickOne(Set<Value>)
        +Set<T> unionOf(Set<T> a, Set<T> b)
        - -(collection)- -
        +HashSet<T> hashSet(Collection<T>)
        +Set<T> hashSet(Iterable<T>)
        +Set<T> hashSet(T... values)
        - -(filesystem)- -
        +Set<Value> deepCopy(Factory<Set<Value>>, Set<Value>, Function<Value,Value> clone)
        +Set<Value> deepCopy(Factory<Set<Value>>, Set<Value>)
    }
    
@enduml

@startuml









skinparam backgroundColor #333333






skinparam  {
    defaultFontName   "Open Sans,Avenir,Nunito,Arial,Helvetica,SansSerif"
    defaultFontSize   12
    defaultTextAlignment left
    shadowing false
    RoundCorner 10
    TitleFontSize 18
}

skinparam defaultFontName       "Open Sans,Avenir,Nunito,Arial,Helvetica,SansSerif"
skinparam defaultFontSize       12
skinparam dpi                   100
skinparam shadowing             false
skinparam roundcorner           16
skinparam ParticipantPadding    40
skinparam BoxPadding            40
skinparam Padding               3
skinparam ArrowColor            #545454
skinparam stereotype {
    CBackgroundColor #0066cf
    CBorderColor #0086ef
    ABackgroundColor #C8Ac00
    ABorderColor #D8Bc00
    IBackgroundColor #008400
    IBorderColor #239c23
    EBackgroundColor #cf6300
    EBorderColor #ef8300
    NBackgroundColor #3380b9
    NBorderColor #004d86
}
skinparam title {
	FontColor	                 #c0c0c0
 	BorderColor                  #545454
	FontSize	    	         20
	BorderRoundCorner            16
	BorderThickness 	         1
	BackgroundColor              #48494b
}


skinparam legend {
	BackgroundColor #303030
	BorderColor #404040
	FontColor #a0a0a0
}

	skinparam swimlane {
	BorderColor #5e5e5e
	BorderThickness 2
	TitleBackgroundColor  #6d6d6d-#484848
	TitleFontColor #303030
}

skinparam activity {
		FontColor #C8Ac00
	BorderColor #333333
	BackgroundColor #333333-#333333
	BarColor #00FF00
	StartColor #0060a8
	EndColor #0060a8
	DiamondBackgroundColor #6d6d6d-#3a3a3a
  	DiamondBorderColor #3a3a3a
  	DiamondFontColor #fefefe
}


skinparam participant {
		FontColor #C8Ac00
	BorderColor #333333
	BackgroundColor #333333-#333333
	ParticipantBorderThickness 2
}


skinparam actor {
		FontColor #C8Ac00
	BorderColor #333333
	BackgroundColor #333333-#333333
}


skinparam arrow {
	Thickness 1.5
	Color #545454
	FontColor #a0a0a0
    FontStyle bold
    MessageAlignment center
}



skinparam sequence {
	BorderColor #303030
	TitleFontColor #303030
	BackgroundColor #333333
	StartColor #303030
	EndColor #303030
	BoxBackgroundColor #333333
	BoxBorderColor #484848
	BoxFontColor #484848
	LifeLineBorderColor #484848
	LifeLineBorderThickness 2
	LifeLineBackgroundColor #3a3a3a
	GroupBorderColor #484848
	GroupFontColor #484848
	GroupHeaderFontColor #0060a8
	GroupBackgroundColor #484848
	GroupHeaderBackgroundColor #333333
	DividerBackgroundColor #484848
    DividerBorderColor #484848
    DividerBorderThickness 2
    DividerFontColor #D8Bc00
	ReferenceBackgroundColor #333333
	ReferenceBorderColor #484848
	ReferenceFontColor #fefefe
	ReferenceHeaderBackgroundColor #484848
}


skinparam partition {
	BorderColor #303030
	FontColor #333333
	BackgroundColor #333333
}


skinparam collections {
		FontColor #C8Ac00
	BorderColor #333333
	BackgroundColor #333333-#333333
}


skinparam control {
		FontColor #C8Ac00
	BorderColor #333333
	BackgroundColor #333333-#333333
}


skinparam entity {
		FontColor #C8Ac00
	BorderColor #333333
	BackgroundColor #333333-#333333
}


skinparam boundary {
		FontColor #C8Ac00
	BorderColor #333333
	BackgroundColor #333333-#333333
}


skinparam agent {
	BackgroundColor #ff8000
	BorderColor #ff9933
	FontColor #484848
}


skinparam note {
	BorderThickness 1
	BackgroundColor #1b1b1a
	BorderColor #5e5e5e
	FontSize 11
	FontColor #a0a0a0
}


skinparam artifact {
	BorderThickness 10
	BorderColor #5e5e5e
	BackgroundColor #1b1b1a
	FontColor #D8Bc00
}


skinparam component {
		FontColor #C8Ac00
	BorderColor #333333
	BackgroundColor #333333-#333333
}


skinparam interface {
	BackgroundColor  #008400
	BorderColor  #007F00
	FontColor #484848
}


skinparam storage {
	BackgroundColor #ff8000
  	BorderColor #cc6600
	FontColor #222222
}


skinparam node {
	BackgroundColor #333333
	BorderColor #333333
	FontColor #C8Ac00
}


skinparam cloud {
	BackgroundColor #484848-black
	BorderColor #484848
	FontColor #D8Bc00
}


skinparam database {
		FontColor #C8Ac00
	BorderColor #333333
	BackgroundColor #333333-#333333
	BackgroundColor  #333333
}


skinparam class {
		FontColor #C8Ac00
	BorderColor #333333
	BackgroundColor #333333-#333333
	HeaderBackgroundColor #1b1b1a
    BackgroundColor #282828
    BorderColor #5e5e5e
 	StereotypeFontColor #a0a0a0
    StereotypeFontStyle bold
	BorderThickness 1
	AttributeFontColor #D8Bc00
	AttributeFontSize 11
    FontColor #D8Bc00
    FontStyle bold
}


skinparam object {
		FontColor #C8Ac00
	BorderColor #333333
	BackgroundColor #333333-#333333
	StereotypeFontColor #484848
	BorderThickness 1
	AttributeFontColor #fefefe
	AttributeFontSize 11
}


skinparam usecase {
		FontColor #C8Ac00
	BorderColor #333333
	BackgroundColor #333333-#333333
	BorderThickness 2
	StereotypeFontColor #303030
}


skinparam rectangle {
		FontColor #C8Ac00
	BorderColor #333333
	BackgroundColor #333333-#333333
	BackgroundColor #333333
	BorderThickness 2
	StereotypeFontColor #303030
}


skinparam package {
		FontColor #C8Ac00
	BorderColor #333333
	BackgroundColor #333333-#333333
	BackgroundColor #333333
	BorderThickness 2
}


skinparam folder {
	BackgroundColor #6d6d6d
  	BorderColor #ff8000
	FontColor #ff8000
	BorderThickness 2
}


skinparam frame {
	BackgroundColor #6d6d6d
  	BorderColor #0060a8
	FontColor #0060a8
	BorderThickness 2
}


skinparam state {
		FontColor #C8Ac00
	BorderColor #333333
	BackgroundColor #333333-#333333
	StartColor #0060a8
	EndColor #0060a8
	AttributeFontColor #fefefe
	AttributeFontSize 11
}


skinparam queue {
		FontColor #C8Ac00
	BorderColor #333333
	BackgroundColor #333333-#333333
}


skinparam card {
	BackgroundColor #0060a8
	BorderColor #004d86
	FontColor $INFO_TEXT
}


skinparam file {
	BackgroundColor #6d6d6d-#484848
	BorderColor #0060a8
	FontColor #fefefe
}


skinparam stack {
		FontColor #C8Ac00
	BorderColor #333333
	BackgroundColor #333333-#333333
}

    
    title "com.telenav.kivakit.core.collections"
    
    interface Countable
    interface Sized
    interface Addable
    interface Joinable
    interface Collection
    interface Sequence
    interface StringFormattable
    
    Addable <|- - BaseCollection
    Collection <|- - BaseCollection
    Countable <|- - BaseCollection
    Joinable <|- - BaseCollection
    Sequence <|- - BaseCollection
    Sized <|- - BaseCollection
    StringFormattable <|- - BaseCollection
    abstract class BaseCollection<Value>
    {
        - -(constructors)- -
        #BaseCollection(Maximum)
        - -
        +BaseCollection<Value> with(Collection<Value> that)
        +BaseCollection<Value> with(Iterable<Value> that)
        +BaseCollection<Value> with(Value[] that)
        +BaseCollection<Value> with(Value)
        #Collection<Value> backingCollection()
        - -(collection)- -
        +Value[] asArray(Class<Value> type)
        +StringList asStringList()
        +BaseCollection<To> map(Function<Value,To> mapper)
        +Iterable<Value> matchingAsIterable(Matcher<Value>)
        +Maximum maximumSize()
        +boolean removeAllMatching(Matcher<Value>)
        +BaseList<Value> sorted(Comparator<Value>)
        +BaseList<Value> sorted()
        - -(factory)- -
        #BaseCollection<Value> newCollection()
        #BaseCollection<Value> onNewCollection()
    }
    
    class Collections
    {
        - -
        +T pickOne(Collection<T> values)
    }
    
    class Lists
    {
        - -(collection)- -
        +ArrayList<Value> newArrayList(Value... objects)
    }
    
    class Maps
    {
        - -(filesystem)- -
        +Map<Key,Value> deepCopy(Factory<Map<Key,Value>>, Map<Key,Value>, Function<Value,Value> clone)
    }
    
    class Sets
    {
        - -
        +Value pickOne(Set<Value>)
        +Set<T> unionOf(Set<T> a, Set<T> b)
        - -(collection)- -
        +HashSet<T> hashSet(Collection<T>)
        +Set<T> hashSet(Iterable<T>)
        +Set<T> hashSet(T... values)
        - -(filesystem)- -
        +Set<Value> deepCopy(Factory<Set<Value>>, Set<Value>, Function<Value,Value> clone)
        +Set<Value> deepCopy(Factory<Set<Value>>, Set<Value>)
    }
    
@enduml

PlantUML version 1.2021.01(Tue Feb 02 00:55:08 MST 2021)
(GPL source distribution)
Java Runtime: OpenJDK Runtime Environment
JVM: OpenJDK 64-Bit Server VM
Default Encoding: UTF-8
Language: en
Country: US
--></g></svg>