<?xml version="1.0" encoding="UTF-8" standalone="no"?><svg xmlns="http://www.w3.org/2000/svg" xmlns:xlink="http://www.w3.org/1999/xlink" contentScriptType="application/ecmascript" contentStyleType="text/css" height="448.9583px" preserveAspectRatio="none" style="width:1517px;height:448px;background:#333333;" version="1.1" viewBox="0 0 1517 448" width="1517.7083px" zoomAndPan="magnify"><defs/><g><rect fill="#48494B" height="41.2028" rx="8.3333" ry="8.3333" style="stroke:#545454;stroke-width:1.0416666666666667;" width="512.5" x="495.5729" y="2.0833"/><text fill="#C0C0C0" font-family="Open Sans,Avenir,Nunito,Arial,Helvetica,SansSerif" font-size="20.8333" lengthAdjust="spacing" textLength="489.5833" x="507.0313" y="30.5583">com.telenav.kivakit.resource.resources.packaged</text><!--MD5=[a895581b51b0debe0fc56e5f7d686e14]
class BaseReadableResource--><rect codeLine="6" fill="#282828" height="48.055" id="BaseReadableResource" rx="8.3333" ry="8.3333" style="stroke:#5E5E5E;stroke-width:1.0416666666666667;" width="184.375" x="157.8125" y="63.5986"/><rect fill="#1B1B1A" height="31.3883" rx="8.3333" ry="8.3333" style="stroke:#1B1B1A;stroke-width:1.0416666666666667;" width="184.375" x="157.8125" y="63.5986"/><rect fill="#1B1B1A" height="8.3333" style="stroke:#1B1B1A;stroke-width:1.0416666666666667;" width="184.375" x="157.8125" y="86.6536"/><rect codeLine="6" fill="none" height="48.055" id="BaseReadableResource" rx="8.3333" ry="8.3333" style="stroke:#5E5E5E;stroke-width:1.0416666666666667;" width="184.375" x="157.8125" y="63.5986"/><ellipse cx="172.3958" cy="79.2928" fill="#C8AC00" rx="10.4167" ry="10.4167" style="stroke:#D8BC00;stroke-width:1.0416666666666667;"/><path d="M171.9889,75.9949 L171.1405,79.7241 L172.8434,79.7241 Z M170.8903,74.3469 L173.0937,74.3469 L175.5534,83.4595 L173.7528,83.4595 L173.1913,81.2073 L170.7804,81.2073 L170.2311,83.4595 L168.4306,83.4595 Z " fill="#000000"/><text fill="#D8BC00" font-family="Open Sans,Avenir,Nunito,Arial,Helvetica,SansSerif" font-size="12.5" font-style="italic" font-weight="bold" lengthAdjust="spacing" textLength="146.875" x="189.0625" y="84.0169">BaseReadableResource</text><line style="stroke:#5E5E5E;stroke-width:1.0416666666666667;" x1="158.8542" x2="341.1458" y1="94.987" y2="94.987"/><line style="stroke:#5E5E5E;stroke-width:1.0416666666666667;" x1="158.8542" x2="341.1458" y1="103.3203" y2="103.3203"/><!--MD5=[119b8721f931f556e6a06e28498d939f]
class ResourceFolder--><rect codeLine="8" fill="#282828" height="48.055" id="ResourceFolder" rx="8.3333" ry="8.3333" style="stroke:#5E5E5E;stroke-width:1.0416666666666667;" width="136.4583" x="668.2292" y="63.5986"/><rect fill="#1B1B1A" height="31.3883" rx="8.3333" ry="8.3333" style="stroke:#1B1B1A;stroke-width:1.0416666666666667;" width="136.4583" x="668.2292" y="63.5986"/><rect fill="#1B1B1A" height="8.3333" style="stroke:#1B1B1A;stroke-width:1.0416666666666667;" width="136.4583" x="668.2292" y="86.6536"/><rect codeLine="8" fill="none" height="48.055" id="ResourceFolder" rx="8.3333" ry="8.3333" style="stroke:#5E5E5E;stroke-width:1.0416666666666667;" width="136.4583" x="668.2292" y="63.5986"/><ellipse cx="682.8125" cy="79.2928" fill="#008400" rx="10.4167" ry="10.4167" style="stroke:#239C23;stroke-width:1.0416666666666667;"/><path d="M680.2165,76.4547 L680.2165,74.8678 L685.6425,74.8678 L685.6425,76.4547 L683.8298,76.4547 L683.8298,82.3934 L685.6425,82.3934 L685.6425,83.9803 L680.2165,83.9803 L680.2165,82.3934 L682.0292,82.3934 L682.0292,76.4547 Z " fill="#000000"/><text fill="#D8BC00" font-family="Open Sans,Avenir,Nunito,Arial,Helvetica,SansSerif" font-size="12.5" font-style="italic" font-weight="bold" lengthAdjust="spacing" textLength="98.9583" x="699.4792" y="84.0169">ResourceFolder</text><line style="stroke:#5E5E5E;stroke-width:1.0416666666666667;" x1="669.2708" x2="803.6458" y1="94.987" y2="94.987"/><line style="stroke:#5E5E5E;stroke-width:1.0416666666666667;" x1="669.2708" x2="803.6458" y1="103.3203" y2="103.3203"/><!--MD5=[f645eb2002c2daa2d69d54eb8a14c446]
class ResourceResolver--><rect codeLine="9" fill="#282828" height="48.055" id="ResourceResolver" rx="8.3333" ry="8.3333" style="stroke:#5E5E5E;stroke-width:1.0416666666666667;" width="151.0417" x="953.6458" y="63.5986"/><rect fill="#1B1B1A" height="31.3883" rx="8.3333" ry="8.3333" style="stroke:#1B1B1A;stroke-width:1.0416666666666667;" width="151.0417" x="953.6458" y="63.5986"/><rect fill="#1B1B1A" height="8.3333" style="stroke:#1B1B1A;stroke-width:1.0416666666666667;" width="151.0417" x="953.6458" y="86.6536"/><rect codeLine="9" fill="none" height="48.055" id="ResourceResolver" rx="8.3333" ry="8.3333" style="stroke:#5E5E5E;stroke-width:1.0416666666666667;" width="151.0417" x="953.6458" y="63.5986"/><ellipse cx="968.2292" cy="79.2928" fill="#008400" rx="10.4167" ry="10.4167" style="stroke:#239C23;stroke-width:1.0416666666666667;"/><path d="M965.6331,76.4547 L965.6331,74.8678 L971.0592,74.8678 L971.0592,76.4547 L969.2464,76.4547 L969.2464,82.3934 L971.0592,82.3934 L971.0592,83.9803 L965.6331,83.9803 L965.6331,82.3934 L967.4459,82.3934 L967.4459,76.4547 Z " fill="#000000"/><text fill="#D8BC00" font-family="Open Sans,Avenir,Nunito,Arial,Helvetica,SansSerif" font-size="12.5" font-style="italic" font-weight="bold" lengthAdjust="spacing" textLength="113.5417" x="984.8958" y="84.0169">ResourceResolver</text><line style="stroke:#5E5E5E;stroke-width:1.0416666666666667;" x1="954.6875" x2="1103.6458" y1="94.987" y2="94.987"/><line style="stroke:#5E5E5E;stroke-width:1.0416666666666667;" x1="954.6875" x2="1103.6458" y1="103.3203" y2="103.3203"/><!--MD5=[a69974d336cccb0b8148ac06f55e93e6]
class ResourceFolderResolver--><rect codeLine="10" fill="#282828" height="48.055" id="ResourceFolderResolver" rx="8.3333" ry="8.3333" style="stroke:#5E5E5E;stroke-width:1.0416666666666667;" width="191.6667" x="1141.6667" y="63.5986"/><rect fill="#1B1B1A" height="31.3883" rx="8.3333" ry="8.3333" style="stroke:#1B1B1A;stroke-width:1.0416666666666667;" width="191.6667" x="1141.6667" y="63.5986"/><rect fill="#1B1B1A" height="8.3333" style="stroke:#1B1B1A;stroke-width:1.0416666666666667;" width="191.6667" x="1141.6667" y="86.6536"/><rect codeLine="10" fill="none" height="48.055" id="ResourceFolderResolver" rx="8.3333" ry="8.3333" style="stroke:#5E5E5E;stroke-width:1.0416666666666667;" width="191.6667" x="1141.6667" y="63.5986"/><ellipse cx="1156.25" cy="79.2928" fill="#008400" rx="10.4167" ry="10.4167" style="stroke:#239C23;stroke-width:1.0416666666666667;"/><path d="M1153.654,76.4547 L1153.654,74.8678 L1159.08,74.8678 L1159.08,76.4547 L1157.2673,76.4547 L1157.2673,82.3934 L1159.08,82.3934 L1159.08,83.9803 L1153.654,83.9803 L1153.654,82.3934 L1155.4667,82.3934 L1155.4667,76.4547 Z " fill="#000000"/><text fill="#D8BC00" font-family="Open Sans,Avenir,Nunito,Arial,Helvetica,SansSerif" font-size="12.5" font-style="italic" font-weight="bold" lengthAdjust="spacing" textLength="154.1667" x="1172.9167" y="84.0169">ResourceFolderResolver</text><line style="stroke:#5E5E5E;stroke-width:1.0416666666666667;" x1="1142.7083" x2="1332.2917" y1="94.987" y2="94.987"/><line style="stroke:#5E5E5E;stroke-width:1.0416666666666667;" x1="1142.7083" x2="1332.2917" y1="103.3203" y2="103.3203"/><!--MD5=[4e2ad48a1abc117fdc6f339da0f64213]
class Package--><rect codeLine="13" fill="#282828" height="258.0037" id="Package" rx="8.3333" ry="8.3333" style="stroke:#5E5E5E;stroke-width:1.0416666666666667;" width="418.75" x="527.0833" y="183.9111"/><rect fill="#1B1B1A" height="31.3883" rx="8.3333" ry="8.3333" style="stroke:#1B1B1A;stroke-width:1.0416666666666667;" width="418.75" x="527.0833" y="183.9111"/><rect fill="#1B1B1A" height="8.3333" style="stroke:#1B1B1A;stroke-width:1.0416666666666667;" width="418.75" x="527.0833" y="206.9661"/><rect codeLine="13" fill="none" height="258.0037" id="Package" rx="8.3333" ry="8.3333" style="stroke:#5E5E5E;stroke-width:1.0416666666666667;" width="418.75" x="527.0833" y="183.9111"/><ellipse cx="703.125" cy="199.6053" fill="#0066CF" rx="10.4167" ry="10.4167" style="stroke:#0086EF;stroke-width:1.0416666666666667;"/><path d="M705.0354,204.0304 Q704.6082,204.2501 704.1382,204.3599 Q703.6682,204.4698 703.1494,204.4698 Q701.3062,204.4698 700.3357,203.2552 Q699.3652,202.0406 699.3652,199.7457 Q699.3652,197.4447 700.3357,196.2301 Q701.3062,195.0155 703.1494,195.0155 Q703.6682,195.0155 704.1443,195.1253 Q704.6204,195.2352 705.0354,195.4549 L705.0354,197.4569 Q704.5715,197.0296 704.1351,196.8313 Q703.6987,196.6329 703.2349,196.6329 Q702.2461,196.6329 701.7426,197.4172 Q701.239,198.2015 701.239,199.7457 Q701.239,201.2838 701.7426,202.0681 Q702.2461,202.8524 703.2349,202.8524 Q703.6987,202.8524 704.1351,202.654 Q704.5715,202.4556 705.0354,202.0284 Z " fill="#000000"/><text fill="#D8BC00" font-family="Open Sans,Avenir,Nunito,Arial,Helvetica,SansSerif" font-size="12.5" font-weight="bold" lengthAdjust="spacing" textLength="52.0833" x="726.0417" y="204.3294">Package</text><line style="stroke:#5E5E5E;stroke-width:1.5625;" x1="528.125" x2="944.7917" y1="215.2995" y2="215.2995"/><polygon fill="#FFFF44" points="538.5417,245.461,542.7083,249.6277,538.5417,253.7944,534.375,249.6277" style="stroke:#B38D22;stroke-width:1.0416666666666667;"/><text fill="#D8BC00" font-family="Open Sans,Avenir,Nunito,Arial,Helvetica,SansSerif" font-size="11.4583" lengthAdjust="spacing" textLength="121.875" x="550" y="257.5806">Package(PackagePath)</text><line style="stroke:#5E5E5E;stroke-width:1.0416666666666667;" x1="528.125" x2="692.7083" y1="233.5052" y2="233.5052"/><text fill="#D8BC00" font-family="Open Sans,Avenir,Nunito,Arial,Helvetica,SansSerif" font-size="11.4583" lengthAdjust="spacing" textLength="81.25" x="695.8333" y="237.3149">(constructors)</text><line style="stroke:#5E5E5E;stroke-width:1.0416666666666667;" x1="780.2083" x2="944.7917" y1="233.5052" y2="233.5052"/><line style="stroke:#5E5E5E;stroke-width:1.0416666666666667;" x1="528.125" x2="944.7917" y1="267.2892" y2="267.2892"/><ellipse cx="538.5417" cy="278.7476" fill="#84BE84" rx="3.125" ry="3.125" style="stroke:#038048;stroke-width:1.0416666666666667;"/><text fill="#D8BC00" font-family="Open Sans,Avenir,Nunito,Arial,Helvetica,SansSerif" font-size="11.4583" lengthAdjust="spacing" textLength="150" x="550" y="285.6588">Package child(String name)</text><ellipse cx="538.5417" cy="298.4924" fill="#84BE84" rx="3.125" ry="3.125" style="stroke:#038048;stroke-width:1.0416666666666667;"/><text fill="#D8BC00" font-family="Open Sans,Avenir,Nunito,Arial,Helvetica,SansSerif" font-size="11.4583" lengthAdjust="spacing" textLength="386.4583" x="550" y="305.4036">Package packageFrom(Listener, Class&lt;?&gt; _packageType, String path)</text><ellipse cx="538.5417" cy="318.2373" fill="#84BE84" rx="3.125" ry="3.125" style="stroke:#038048;stroke-width:1.0416666666666667;"/><text fill="#D8BC00" font-family="Open Sans,Avenir,Nunito,Arial,Helvetica,SansSerif" font-size="11.4583" lengthAdjust="spacing" textLength="255.2083" x="550" y="325.1485">Package packageFrom(PackagePath _package)</text><ellipse cx="538.5417" cy="337.9822" fill="#84BE84" rx="3.125" ry="3.125" style="stroke:#038048;stroke-width:1.0416666666666667;"/><text fill="#D8BC00" font-family="Open Sans,Avenir,Nunito,Arial,Helvetica,SansSerif" font-size="11.4583" lengthAdjust="spacing" textLength="92.7083" x="550" y="344.8934">Package parent()</text><ellipse cx="538.5417" cy="381.6386" fill="#84BE84" rx="3.125" ry="3.125" style="stroke:#038048;stroke-width:1.0416666666666667;"/><text fill="#D8BC00" font-family="Open Sans,Avenir,Nunito,Arial,Helvetica,SansSerif" font-size="11.4583" lengthAdjust="spacing" textLength="275" x="550" y="388.5498">PropertyMap localizedProperties(Listener, Locale)</text><line style="stroke:#5E5E5E;stroke-width:1.0416666666666667;" x1="528.125" x2="702.0833" y1="364.4745" y2="364.4745"/><text fill="#D8BC00" font-family="Open Sans,Avenir,Nunito,Arial,Helvetica,SansSerif" font-size="11.4583" lengthAdjust="spacing" textLength="62.5" x="705.2083" y="368.2841">(collection)</text><line style="stroke:#5E5E5E;stroke-width:1.0416666666666667;" x1="770.8333" x2="944.7917" y1="364.4745" y2="364.4745"/><ellipse cx="538.5417" cy="425.295" fill="#84BE84" rx="3.125" ry="3.125" style="stroke:#038048;stroke-width:1.0416666666666667;"/><text fill="#D8BC00" font-family="Open Sans,Avenir,Nunito,Arial,Helvetica,SansSerif" font-size="11.4583" lengthAdjust="spacing" textLength="105.2083" x="550" y="432.2062">PackagePath path()</text><line style="stroke:#5E5E5E;stroke-width:1.0416666666666667;" x1="528.125" x2="716.6667" y1="408.1309" y2="408.1309"/><text fill="#D8BC00" font-family="Open Sans,Avenir,Nunito,Arial,Helvetica,SansSerif" font-size="11.4583" lengthAdjust="spacing" textLength="33.3333" x="719.7917" y="411.9405">(path)</text><line style="stroke:#5E5E5E;stroke-width:1.0416666666666667;" x1="756.25" x2="944.7917" y1="408.1309" y2="408.1309"/><!--MD5=[4dc55f260dcb1a8d214faea40618d838]
class PackageResource--><rect codeLine="29" fill="#282828" height="190.4358" id="PackageResource" rx="8.3333" ry="8.3333" style="stroke:#5E5E5E;stroke-width:1.0416666666666667;" width="481.25" x="9.375" y="217.7653"/><rect fill="#1B1B1A" height="31.3883" rx="8.3333" ry="8.3333" style="stroke:#1B1B1A;stroke-width:1.0416666666666667;" width="481.25" x="9.375" y="217.7653"/><rect fill="#1B1B1A" height="8.3333" style="stroke:#1B1B1A;stroke-width:1.0416666666666667;" width="481.25" x="9.375" y="240.8203"/><rect codeLine="29" fill="none" height="190.4358" id="PackageResource" rx="8.3333" ry="8.3333" style="stroke:#5E5E5E;stroke-width:1.0416666666666667;" width="481.25" x="9.375" y="217.7653"/><ellipse cx="187.5" cy="233.4595" fill="#0066CF" rx="10.4167" ry="10.4167" style="stroke:#0086EF;stroke-width:1.0416666666666667;"/><path d="M189.4104,237.8845 Q188.9832,238.1042 188.5132,238.2141 Q188.0432,238.324 187.5244,238.324 Q185.6812,238.324 184.7107,237.1094 Q183.7402,235.8948 183.7402,233.5999 Q183.7402,231.2988 184.7107,230.0842 Q185.6812,228.8696 187.5244,228.8696 Q188.0432,228.8696 188.5193,228.9795 Q188.9954,229.0894 189.4104,229.3091 L189.4104,231.311 Q188.9465,230.8838 188.5101,230.6854 Q188.0737,230.4871 187.6099,230.4871 Q186.6211,230.4871 186.1176,231.2714 Q185.614,232.0557 185.614,233.5999 Q185.614,235.1379 186.1176,235.9222 Q186.6211,236.7065 187.6099,236.7065 Q188.0737,236.7065 188.5101,236.5082 Q188.9465,236.3098 189.4104,235.8826 Z " fill="#000000"/><text fill="#D8BC00" font-family="Open Sans,Avenir,Nunito,Arial,Helvetica,SansSerif" font-size="12.5" font-weight="bold" lengthAdjust="spacing" textLength="110.4167" x="210.4167" y="238.1836">PackageResource</text><line style="stroke:#5E5E5E;stroke-width:1.5625;" x1="10.4167" x2="489.5833" y1="249.1536" y2="249.1536"/><polygon fill="#FFFF44" points="20.8333,279.3152,25,283.4819,20.8333,287.6485,16.6667,283.4819" style="stroke:#B38D22;stroke-width:1.0416666666666667;"/><text fill="#D8BC00" font-family="Open Sans,Avenir,Nunito,Arial,Helvetica,SansSerif" font-size="11.4583" lengthAdjust="spacing" textLength="329.1667" x="32.2917" y="291.4347">PackageResource(PackagePath, ModuleResource, FileName)</text><line style="stroke:#5E5E5E;stroke-width:1.0416666666666667;" x1="10.4167" x2="206.25" y1="267.3594" y2="267.3594"/><text fill="#D8BC00" font-family="Open Sans,Avenir,Nunito,Arial,Helvetica,SansSerif" font-size="11.4583" lengthAdjust="spacing" textLength="81.25" x="209.375" y="271.169">(constructors)</text><line style="stroke:#5E5E5E;stroke-width:1.0416666666666667;" x1="293.75" x2="489.5833" y1="267.3594" y2="267.3594"/><line style="stroke:#5E5E5E;stroke-width:1.0416666666666667;" x1="10.4167" x2="489.5833" y1="301.1434" y2="301.1434"/><ellipse cx="20.8333" cy="312.6017" fill="#84BE84" rx="3.125" ry="3.125" style="stroke:#038048;stroke-width:1.0416666666666667;"/><text fill="#D8BC00" font-family="Open Sans,Avenir,Nunito,Arial,Helvetica,SansSerif" font-size="11.4583" lengthAdjust="spacing" textLength="448.9583" x="32.2917" y="319.5129">PackageResource packageResource(Listener, PackagePath _package, String path)</text><ellipse cx="20.8333" cy="332.3466" fill="#84BE84" rx="3.125" ry="3.125" style="stroke:#038048;stroke-width:1.0416666666666667;"/><text fill="#D8BC00" font-family="Open Sans,Avenir,Nunito,Arial,Helvetica,SansSerif" font-size="11.4583" lengthAdjust="spacing" textLength="298.9583" x="32.2917" y="339.2578">PackageResource packageResource(ModuleResource)</text><ellipse cx="20.8333" cy="352.0915" fill="#84BE84" rx="3.125" ry="3.125" style="stroke:#038048;stroke-width:1.0416666666666667;"/><text fill="#D8BC00" font-family="Open Sans,Avenir,Nunito,Arial,Helvetica,SansSerif" font-size="11.4583" lengthAdjust="spacing" textLength="406.25" x="32.2917" y="359.0027">PackageResource packageResource(Listener, Class&lt;?&gt; type, String path)</text><ellipse cx="20.8333" cy="371.8363" fill="#84BE84" rx="3.125" ry="3.125" style="stroke:#038048;stroke-width:1.0416666666666667;"/><text fill="#D8BC00" font-family="Open Sans,Avenir,Nunito,Arial,Helvetica,SansSerif" font-size="11.4583" lengthAdjust="spacing" textLength="379.1667" x="32.2917" y="378.7476">PackageResource packageResource(PackagePath _package, FilePath)</text><ellipse cx="20.8333" cy="391.5812" fill="#84BE84" rx="3.125" ry="3.125" style="stroke:#038048;stroke-width:1.0416666666666667;"/><text fill="#D8BC00" font-family="Open Sans,Avenir,Nunito,Arial,Helvetica,SansSerif" font-size="11.4583" lengthAdjust="spacing" textLength="386.4583" x="32.2917" y="398.4924">PackageResource packageResource(PackagePath _package, FileName)</text><!--MD5=[086086abb757e9da978c82e642ec0587]
class Packaged--><rect codeLine="41" fill="#282828" height="67.7999" id="Packaged" rx="8.3333" ry="8.3333" style="stroke:#5E5E5E;stroke-width:1.0416666666666667;" width="140.625" x="1370.3125" y="53.7028"/><rect fill="#1B1B1A" height="31.3883" rx="8.3333" ry="8.3333" style="stroke:#1B1B1A;stroke-width:1.0416666666666667;" width="140.625" x="1370.3125" y="53.7028"/><rect fill="#1B1B1A" height="8.3333" style="stroke:#1B1B1A;stroke-width:1.0416666666666667;" width="140.625" x="1370.3125" y="76.7578"/><rect codeLine="41" fill="none" height="67.7999" id="Packaged" rx="8.3333" ry="8.3333" style="stroke:#5E5E5E;stroke-width:1.0416666666666667;" width="140.625" x="1370.3125" y="53.7028"/><ellipse cx="1404.1146" cy="69.397" fill="#008400" rx="10.4167" ry="10.4167" style="stroke:#239C23;stroke-width:1.0416666666666667;"/><path d="M1401.5186,66.5588 L1401.5186,64.9719 L1406.9446,64.9719 L1406.9446,66.5588 L1405.1318,66.5588 L1405.1318,72.4976 L1406.9446,72.4976 L1406.9446,74.0845 L1401.5186,74.0845 L1401.5186,72.4976 L1403.3313,72.4976 L1403.3313,66.5588 Z " fill="#000000"/><text fill="#D8BC00" font-family="Open Sans,Avenir,Nunito,Arial,Helvetica,SansSerif" font-size="12.5" font-style="italic" font-weight="bold" lengthAdjust="spacing" textLength="60.4167" x="1425.0521" y="74.1211">Packaged</text><line style="stroke:#5E5E5E;stroke-width:1.5625;" x1="1371.3542" x2="1509.8958" y1="85.0911" y2="85.0911"/><line style="stroke:#5E5E5E;stroke-width:1.0416666666666667;" x1="1371.3542" x2="1509.8958" y1="93.4245" y2="93.4245"/><ellipse cx="1381.7708" cy="104.8828" fill="#84BE84" rx="3.125" ry="3.125" style="stroke:#038048;stroke-width:1.0416666666666667;"/><text fill="#D8BC00" font-family="Open Sans,Avenir,Nunito,Arial,Helvetica,SansSerif" font-size="11.4583" lengthAdjust="spacing" textLength="108.3333" x="1393.2292" y="111.794">Package _package()</text><!--MD5=[015afbb1bbc276f5494b7bdde870d21c]
class Package.Resolver--><rect codeLine="48" fill="#282828" height="48.055" id="Package.Resolver" rx="8.3333" ry="8.3333" style="stroke:#5E5E5E;stroke-width:1.0416666666666667;" width="92.7083" x="1191.1458" y="289.1195"/><rect fill="#1B1B1A" height="31.3883" rx="8.3333" ry="8.3333" style="stroke:#1B1B1A;stroke-width:1.0416666666666667;" width="92.7083" x="1191.1458" y="289.1195"/><rect fill="#1B1B1A" height="8.3333" style="stroke:#1B1B1A;stroke-width:1.0416666666666667;" width="92.7083" x="1191.1458" y="312.1745"/><rect codeLine="48" fill="none" height="48.055" id="Package.Resolver" rx="8.3333" ry="8.3333" style="stroke:#5E5E5E;stroke-width:1.0416666666666667;" width="92.7083" x="1191.1458" y="289.1195"/><ellipse cx="1205.7292" cy="304.8136" fill="#0066CF" rx="10.4167" ry="10.4167" style="stroke:#0086EF;stroke-width:1.0416666666666667;"/><path d="M1207.6396,309.2387 Q1207.2123,309.4584 1206.7424,309.5683 Q1206.2724,309.6781 1205.7536,309.6781 Q1203.9103,309.6781 1202.9399,308.4635 Q1201.9694,307.2489 1201.9694,304.954 Q1201.9694,302.653 1202.9399,301.4384 Q1203.9103,300.2238 1205.7536,300.2238 Q1206.2724,300.2238 1206.7485,300.3337 Q1207.2245,300.4435 1207.6396,300.6632 L1207.6396,302.6652 Q1207.1757,302.238 1206.7393,302.0396 Q1206.3029,301.8412 1205.839,301.8412 Q1204.8503,301.8412 1204.3467,302.6255 Q1203.8432,303.4098 1203.8432,304.954 Q1203.8432,306.4921 1204.3467,307.2764 Q1204.8503,308.0607 1205.839,308.0607 Q1206.3029,308.0607 1206.7393,307.8623 Q1207.1757,307.664 1207.6396,307.2367 Z " fill="#000000"/><text fill="#D8BC00" font-family="Open Sans,Avenir,Nunito,Arial,Helvetica,SansSerif" font-size="12.5" font-weight="bold" lengthAdjust="spacing" textLength="55.2083" x="1222.3958" y="309.5378">Resolver</text><line style="stroke:#5E5E5E;stroke-width:1.0416666666666667;" x1="1192.1875" x2="1282.8125" y1="320.5078" y2="320.5078"/><line style="stroke:#5E5E5E;stroke-width:1.0416666666666667;" x1="1192.1875" x2="1282.8125" y1="328.8411" y2="328.8411"/><!--MD5=[5cbf81e4c366ca3564fecaf29c237d48]
class PackageResource.Resolver--><rect codeLine="53" fill="#282828" height="48.055" id="PackageResource.Resolver" rx="8.3333" ry="8.3333" style="stroke:#5E5E5E;stroke-width:1.0416666666666667;" width="92.7083" x="982.8125" y="289.1195"/><rect fill="#1B1B1A" height="31.3883" rx="8.3333" ry="8.3333" style="stroke:#1B1B1A;stroke-width:1.0416666666666667;" width="92.7083" x="982.8125" y="289.1195"/><rect fill="#1B1B1A" height="8.3333" style="stroke:#1B1B1A;stroke-width:1.0416666666666667;" width="92.7083" x="982.8125" y="312.1745"/><rect codeLine="53" fill="none" height="48.055" id="PackageResource.Resolver" rx="8.3333" ry="8.3333" style="stroke:#5E5E5E;stroke-width:1.0416666666666667;" width="92.7083" x="982.8125" y="289.1195"/><ellipse cx="997.3958" cy="304.8136" fill="#0066CF" rx="10.4167" ry="10.4167" style="stroke:#0086EF;stroke-width:1.0416666666666667;"/><path d="M999.3062,309.2387 Q998.879,309.4584 998.409,309.5683 Q997.939,309.6781 997.4202,309.6781 Q995.577,309.6781 994.6065,308.4635 Q993.6361,307.2489 993.6361,304.954 Q993.6361,302.653 994.6065,301.4384 Q995.577,300.2238 997.4202,300.2238 Q997.939,300.2238 998.4151,300.3337 Q998.8912,300.4435 999.3062,300.6632 L999.3062,302.6652 Q998.8424,302.238 998.406,302.0396 Q997.9696,301.8412 997.5057,301.8412 Q996.5169,301.8412 996.0134,302.6255 Q995.5098,303.4098 995.5098,304.954 Q995.5098,306.4921 996.0134,307.2764 Q996.5169,308.0607 997.5057,308.0607 Q997.9696,308.0607 998.406,307.8623 Q998.8424,307.664 999.3062,307.2367 Z " fill="#000000"/><text fill="#D8BC00" font-family="Open Sans,Avenir,Nunito,Arial,Helvetica,SansSerif" font-size="12.5" font-weight="bold" lengthAdjust="spacing" textLength="55.2083" x="1014.0625" y="309.5378">Resolver</text><line style="stroke:#5E5E5E;stroke-width:1.0416666666666667;" x1="983.8542" x2="1074.4792" y1="320.5078" y2="320.5078"/><line style="stroke:#5E5E5E;stroke-width:1.0416666666666667;" x1="983.8542" x2="1074.4792" y1="328.8411" y2="328.8411"/><!--MD5=[db03490a77fb7d8b89ab12e927498513]
reverse link ResourceFolder to Package--><path codeLine="12" d="M736.4583,132.7653 C736.4583,147.7236 736.4583,165.2757 736.4583,183.4424 " fill="none" id="ResourceFolder-backto-Package" style="stroke:#545454;stroke-width:1.5625;"/><polygon fill="none" points="729.1667,132.5049,736.4583,111.6715,743.75,132.5049,729.1667,132.5049" style="stroke:#545454;stroke-width:1.5625;"/><!--MD5=[828efa58960e0142d89c27cf70a5589d]
reverse link BaseReadableResource to PackageResource--><path codeLine="28" d="M250,132.5465 C250,156.807 250,187.9111 250,217.3903 " fill="none" id="BaseReadableResource-backto-PackageResource" style="stroke:#545454;stroke-width:1.5625;"/><polygon fill="none" points="242.7083,132.5049,250,111.6715,257.2917,132.5049,242.7083,132.5049" style="stroke:#545454;stroke-width:1.5625;"/><!--MD5=[788dcdbaf77d3ddef49f8edcea794ea8]
reverse link ResourceFolderResolver to Package.Resolver--><path codeLine="47" d="M1237.5,132.7236 C1237.5,179.7445 1237.5,252.3695 1237.5,289.0882 " fill="none" id="ResourceFolderResolver-backto-Package.Resolver" style="stroke:#545454;stroke-width:1.5625;"/><polygon fill="none" points="1230.2083,132.5049,1237.5,111.6715,1244.7917,132.5049,1230.2083,132.5049" style="stroke:#545454;stroke-width:1.5625;"/><!--MD5=[f0981f75adc7840478d2791913a1497f]
reverse link ResourceResolver to PackageResource.Resolver--><path codeLine="52" d="M1029.1667,132.7236 C1029.1667,179.7445 1029.1667,252.3695 1029.1667,289.0882 " fill="none" id="ResourceResolver-backto-PackageResource.Resolver" style="stroke:#545454;stroke-width:1.5625;"/><polygon fill="none" points="1021.875,132.5049,1029.1667,111.6715,1036.4583,132.5049,1021.875,132.5049" style="stroke:#545454;stroke-width:1.5625;"/><!--MD5=[fd4b3f9c916ffa04929703c1a22ca035]
@startuml

    !include lexakai.theme
    
    title "com.telenav.kivakit.resource.resources.packaged"
    
    abstract BaseReadableResource
    
    interface ResourceFolder
    interface ResourceResolver
    interface ResourceFolderResolver
    
    ResourceFolder <|- - Package
    class Package
    {
        - -(constructors)- -
        #Package(PackagePath)
        - -
        +Package child(String name)
        +Package packageFrom(Listener, Class<?> _packageType, String path)
        +Package packageFrom(PackagePath _package)
        +Package parent()
        - -(collection)- -
        +PropertyMap localizedProperties(Listener, Locale)
        - -(path)- -
        +PackagePath path()
    }
    
    BaseReadableResource <|- - PackageResource
    class PackageResource
    {
        - -(constructors)- -
        #PackageResource(PackagePath, ModuleResource, FileName)
        - -
        +PackageResource packageResource(Listener, PackagePath _package, String path)
        +PackageResource packageResource(ModuleResource)
        +PackageResource packageResource(Listener, Class<?> type, String path)
        +PackageResource packageResource(PackagePath _package, FilePath)
        +PackageResource packageResource(PackagePath _package, FileName)
    }
    
    interface Packaged
    {
        - -
        +Package _package()
    }
    
    ResourceFolderResolver <|- - Package.Resolver
    class Package.Resolver
    {
    }
    
    ResourceResolver <|- - PackageResource.Resolver
    class PackageResource.Resolver
    {
    }
    
@enduml

@startuml









skinparam backgroundColor #333333






skinparam  {
    defaultFontName   "Open Sans,Avenir,Nunito,Arial,Helvetica,SansSerif"
    defaultFontSize   12
    defaultTextAlignment left
    shadowing false
    RoundCorner 10
    TitleFontSize 18
}

skinparam defaultFontName       "Open Sans,Avenir,Nunito,Arial,Helvetica,SansSerif"
skinparam defaultFontSize       12
skinparam dpi                   100
skinparam shadowing             false
skinparam roundcorner           16
skinparam ParticipantPadding    40
skinparam BoxPadding            40
skinparam Padding               3
skinparam ArrowColor            #545454
skinparam stereotype {
    CBackgroundColor #0066cf
    CBorderColor #0086ef
    ABackgroundColor #C8Ac00
    ABorderColor #D8Bc00
    IBackgroundColor #008400
    IBorderColor #239c23
    EBackgroundColor #cf6300
    EBorderColor #ef8300
    NBackgroundColor #3380b9
    NBorderColor #004d86
}
skinparam title {
	FontColor	                 #c0c0c0
 	BorderColor                  #545454
	FontSize	    	         20
	BorderRoundCorner            16
	BorderThickness 	         1
	BackgroundColor              #48494b
}


skinparam legend {
	BackgroundColor #303030
	BorderColor #404040
	FontColor #a0a0a0
}

	skinparam swimlane {
	BorderColor #5e5e5e
	BorderThickness 2
	TitleBackgroundColor  #6d6d6d-#484848
	TitleFontColor #303030
}

skinparam activity {
		FontColor #C8Ac00
	BorderColor #333333
	BackgroundColor #333333-#333333
	BarColor #00FF00
	StartColor #0060a8
	EndColor #0060a8
	DiamondBackgroundColor #6d6d6d-#3a3a3a
  	DiamondBorderColor #3a3a3a
  	DiamondFontColor #fefefe
}


skinparam participant {
		FontColor #C8Ac00
	BorderColor #333333
	BackgroundColor #333333-#333333
	ParticipantBorderThickness 2
}


skinparam actor {
		FontColor #C8Ac00
	BorderColor #333333
	BackgroundColor #333333-#333333
}


skinparam arrow {
	Thickness 1.5
	Color #545454
	FontColor #a0a0a0
    FontStyle bold
    MessageAlignment center
}



skinparam sequence {
	BorderColor #303030
	TitleFontColor #303030
	BackgroundColor #333333
	StartColor #303030
	EndColor #303030
	BoxBackgroundColor #333333
	BoxBorderColor #484848
	BoxFontColor #484848
	LifeLineBorderColor #484848
	LifeLineBorderThickness 2
	LifeLineBackgroundColor #3a3a3a
	GroupBorderColor #484848
	GroupFontColor #484848
	GroupHeaderFontColor #0060a8
	GroupBackgroundColor #484848
	GroupHeaderBackgroundColor #333333
	DividerBackgroundColor #484848
    DividerBorderColor #484848
    DividerBorderThickness 2
    DividerFontColor #D8Bc00
	ReferenceBackgroundColor #333333
	ReferenceBorderColor #484848
	ReferenceFontColor #fefefe
	ReferenceHeaderBackgroundColor #484848
}


skinparam partition {
	BorderColor #303030
	FontColor #333333
	BackgroundColor #333333
}


skinparam collections {
		FontColor #C8Ac00
	BorderColor #333333
	BackgroundColor #333333-#333333
}


skinparam control {
		FontColor #C8Ac00
	BorderColor #333333
	BackgroundColor #333333-#333333
}


skinparam entity {
		FontColor #C8Ac00
	BorderColor #333333
	BackgroundColor #333333-#333333
}


skinparam boundary {
		FontColor #C8Ac00
	BorderColor #333333
	BackgroundColor #333333-#333333
}


skinparam agent {
	BackgroundColor #ff8000
	BorderColor #ff9933
	FontColor #484848
}


skinparam note {
	BorderThickness 1
	BackgroundColor #1b1b1a
	BorderColor #5e5e5e
	FontSize 11
	FontColor #a0a0a0
}


skinparam artifact {
	BorderThickness 10
	BorderColor #5e5e5e
	BackgroundColor #1b1b1a
	FontColor #D8Bc00
}


skinparam component {
		FontColor #C8Ac00
	BorderColor #333333
	BackgroundColor #333333-#333333
}


skinparam interface {
	BackgroundColor  #008400
	BorderColor  #007F00
	FontColor #484848
}


skinparam storage {
	BackgroundColor #ff8000
  	BorderColor #cc6600
	FontColor #222222
}


skinparam node {
	BackgroundColor #333333
	BorderColor #333333
	FontColor #C8Ac00
}


skinparam cloud {
	BackgroundColor #484848-black
	BorderColor #484848
	FontColor #D8Bc00
}


skinparam database {
		FontColor #C8Ac00
	BorderColor #333333
	BackgroundColor #333333-#333333
	BackgroundColor  #333333
}


skinparam class {
		FontColor #C8Ac00
	BorderColor #333333
	BackgroundColor #333333-#333333
	HeaderBackgroundColor #1b1b1a
    BackgroundColor #282828
    BorderColor #5e5e5e
 	StereotypeFontColor #a0a0a0
    StereotypeFontStyle bold
	BorderThickness 1
	AttributeFontColor #D8Bc00
	AttributeFontSize 11
    FontColor #D8Bc00
    FontStyle bold
}


skinparam object {
		FontColor #C8Ac00
	BorderColor #333333
	BackgroundColor #333333-#333333
	StereotypeFontColor #484848
	BorderThickness 1
	AttributeFontColor #fefefe
	AttributeFontSize 11
}


skinparam usecase {
		FontColor #C8Ac00
	BorderColor #333333
	BackgroundColor #333333-#333333
	BorderThickness 2
	StereotypeFontColor #303030
}


skinparam rectangle {
		FontColor #C8Ac00
	BorderColor #333333
	BackgroundColor #333333-#333333
	BackgroundColor #333333
	BorderThickness 2
	StereotypeFontColor #303030
}


skinparam package {
		FontColor #C8Ac00
	BorderColor #333333
	BackgroundColor #333333-#333333
	BackgroundColor #333333
	BorderThickness 2
}


skinparam folder {
	BackgroundColor #6d6d6d
  	BorderColor #ff8000
	FontColor #ff8000
	BorderThickness 2
}


skinparam frame {
	BackgroundColor #6d6d6d
  	BorderColor #0060a8
	FontColor #0060a8
	BorderThickness 2
}


skinparam state {
		FontColor #C8Ac00
	BorderColor #333333
	BackgroundColor #333333-#333333
	StartColor #0060a8
	EndColor #0060a8
	AttributeFontColor #fefefe
	AttributeFontSize 11
}


skinparam queue {
		FontColor #C8Ac00
	BorderColor #333333
	BackgroundColor #333333-#333333
}


skinparam card {
	BackgroundColor #0060a8
	BorderColor #004d86
	FontColor $INFO_TEXT
}


skinparam file {
	BackgroundColor #6d6d6d-#484848
	BorderColor #0060a8
	FontColor #fefefe
}


skinparam stack {
		FontColor #C8Ac00
	BorderColor #333333
	BackgroundColor #333333-#333333
}

    
    title "com.telenav.kivakit.resource.resources.packaged"
    
    abstract BaseReadableResource
    
    interface ResourceFolder
    interface ResourceResolver
    interface ResourceFolderResolver
    
    ResourceFolder <|- - Package
    class Package
    {
        - -(constructors)- -
        #Package(PackagePath)
        - -
        +Package child(String name)
        +Package packageFrom(Listener, Class<?> _packageType, String path)
        +Package packageFrom(PackagePath _package)
        +Package parent()
        - -(collection)- -
        +PropertyMap localizedProperties(Listener, Locale)
        - -(path)- -
        +PackagePath path()
    }
    
    BaseReadableResource <|- - PackageResource
    class PackageResource
    {
        - -(constructors)- -
        #PackageResource(PackagePath, ModuleResource, FileName)
        - -
        +PackageResource packageResource(Listener, PackagePath _package, String path)
        +PackageResource packageResource(ModuleResource)
        +PackageResource packageResource(Listener, Class<?> type, String path)
        +PackageResource packageResource(PackagePath _package, FilePath)
        +PackageResource packageResource(PackagePath _package, FileName)
    }
    
    interface Packaged
    {
        - -
        +Package _package()
    }
    
    ResourceFolderResolver <|- - Package.Resolver
    class Package.Resolver
    {
    }
    
    ResourceResolver <|- - PackageResource.Resolver
    class PackageResource.Resolver
    {
    }
    
@enduml

PlantUML version 1.2021.01(Tue Feb 02 00:55:08 MST 2021)
(GPL source distribution)
Java Runtime: OpenJDK Runtime Environment
JVM: OpenJDK 64-Bit Server VM
Default Encoding: UTF-8
Language: en
Country: US
--></g></svg>