<?xml version="1.0" encoding="UTF-8" standalone="no"?><svg xmlns="http://www.w3.org/2000/svg" xmlns:xlink="http://www.w3.org/1999/xlink" contentScriptType="application/ecmascript" contentStyleType="text/css" height="1137.5px" preserveAspectRatio="none" style="width:1209px;height:1137px;background:#333333;" version="1.1" viewBox="0 0 1209 1137" width="1209.375px" zoomAndPan="magnify"><defs/><g><rect fill="#48494B" height="41.2028" rx="8.3333" ry="8.3333" style="stroke:#545454;stroke-width:1.0416666666666667;" width="389.5833" x="402.8646" y="2.0833"/><text fill="#C0C0C0" font-family="Open Sans,Avenir,Nunito,Arial,Helvetica,SansSerif" font-size="20.8333" lengthAdjust="spacing" textLength="366.6667" x="414.3229" y="30.5583">com.telenav.kivakit.resource.reading</text><rect codeLine="7" fill="#282828" height="48.055" id="BaseRepeater" rx="8.3333" ry="8.3333" style="stroke:#5E5E5E;stroke-width:1.0416666666666667;" width="123.9583" x="195.8333" y="53.7028"/><rect fill="#1B1B1A" height="31.3883" rx="8.3333" ry="8.3333" style="stroke:#1B1B1A;stroke-width:1.0416666666666667;" width="123.9583" x="195.8333" y="53.7028"/><rect fill="#1B1B1A" height="8.3333" style="stroke:#1B1B1A;stroke-width:1.0416666666666667;" width="123.9583" x="195.8333" y="76.7578"/><rect codeLine="7" fill="none" height="48.055" id="BaseRepeater" rx="8.3333" ry="8.3333" style="stroke:#5E5E5E;stroke-width:1.0416666666666667;" width="123.9583" x="195.8333" y="53.7028"/><ellipse cx="210.4167" cy="69.397" fill="#C8AC00" rx="10.4167" ry="10.4167" style="stroke:#D8BC00;stroke-width:1.0416666666666667;"/><path d="M210.0098,66.099 L209.1614,69.8283 L210.8643,69.8283 Z M208.9111,64.4511 L211.1145,64.4511 L213.5742,73.5636 L211.7737,73.5636 L211.2122,71.3114 L208.8013,71.3114 L208.252,73.5636 L206.4514,73.5636 Z " fill="#000000"/><text fill="#D8BC00" font-family="Open Sans,Avenir,Nunito,Arial,Helvetica,SansSerif" font-size="12.5" font-style="italic" font-weight="bold" lengthAdjust="spacing" textLength="86.4583" x="227.0833" y="74.1211">BaseRepeater</text><line style="stroke:#5E5E5E;stroke-width:1.0416666666666667;" x1="196.875" x2="318.75" y1="85.0911" y2="85.0911"/><line style="stroke:#5E5E5E;stroke-width:1.0416666666666667;" x1="196.875" x2="318.75" y1="93.4245" y2="93.4245"/><rect codeLine="9" fill="#282828" height="48.055" id="Resource" rx="8.3333" ry="8.3333" style="stroke:#5E5E5E;stroke-width:1.0416666666666667;" width="95.8333" x="452.6042" y="53.7028"/><rect fill="#1B1B1A" height="31.3883" rx="8.3333" ry="8.3333" style="stroke:#1B1B1A;stroke-width:1.0416666666666667;" width="95.8333" x="452.6042" y="53.7028"/><rect fill="#1B1B1A" height="8.3333" style="stroke:#1B1B1A;stroke-width:1.0416666666666667;" width="95.8333" x="452.6042" y="76.7578"/><rect codeLine="9" fill="none" height="48.055" id="Resource" rx="8.3333" ry="8.3333" style="stroke:#5E5E5E;stroke-width:1.0416666666666667;" width="95.8333" x="452.6042" y="53.7028"/><ellipse cx="467.1875" cy="69.397" fill="#008400" rx="10.4167" ry="10.4167" style="stroke:#239C23;stroke-width:1.0416666666666667;"/><path d="M464.5915,66.5588 L464.5915,64.9719 L470.0175,64.9719 L470.0175,66.5588 L468.2048,66.5588 L468.2048,72.4976 L470.0175,72.4976 L470.0175,74.0845 L464.5915,74.0845 L464.5915,72.4976 L466.4042,72.4976 L466.4042,66.5588 Z " fill="#000000"/><text fill="#D8BC00" font-family="Open Sans,Avenir,Nunito,Arial,Helvetica,SansSerif" font-size="12.5" font-style="italic" font-weight="bold" lengthAdjust="spacing" textLength="58.3333" x="483.8542" y="74.1211">Resource</text><line style="stroke:#5E5E5E;stroke-width:1.0416666666666667;" x1="453.6458" x2="547.3958" y1="85.0911" y2="85.0911"/><line style="stroke:#5E5E5E;stroke-width:1.0416666666666667;" x1="453.6458" x2="547.3958" y1="93.4245" y2="93.4245"/><rect codeLine="13" fill="#282828" height="170.6909" id="BaseReadableResource" rx="8.3333" ry="8.3333" style="stroke:#5E5E5E;stroke-width:1.0416666666666667;" width="294.7917" x="353.125" y="177.1403"/><rect fill="#1B1B1A" height="31.3883" rx="8.3333" ry="8.3333" style="stroke:#1B1B1A;stroke-width:1.0416666666666667;" width="294.7917" x="353.125" y="177.1403"/><rect fill="#1B1B1A" height="8.3333" style="stroke:#1B1B1A;stroke-width:1.0416666666666667;" width="294.7917" x="353.125" y="200.1953"/><rect codeLine="13" fill="none" height="170.6909" id="BaseReadableResource" rx="8.3333" ry="8.3333" style="stroke:#5E5E5E;stroke-width:1.0416666666666667;" width="294.7917" x="353.125" y="177.1403"/><ellipse cx="419.7917" cy="192.8345" fill="#C8AC00" rx="10.4167" ry="10.4167" style="stroke:#D8BC00;stroke-width:1.0416666666666667;"/><path d="M419.3848,189.5365 L418.5364,193.2658 L420.2393,193.2658 Z M418.2861,187.8886 L420.4895,187.8886 L422.9492,197.0011 L421.1487,197.0011 L420.5872,194.7489 L418.1763,194.7489 L417.627,197.0011 L415.8264,197.0011 Z " fill="#000000"/><text fill="#D8BC00" font-family="Open Sans,Avenir,Nunito,Arial,Helvetica,SansSerif" font-size="12.5" font-style="italic" font-weight="bold" lengthAdjust="spacing" textLength="146.875" x="442.7083" y="197.5586">BaseReadableResource</text><line style="stroke:#5E5E5E;stroke-width:1.5625;" x1="354.1667" x2="646.875" y1="208.5286" y2="208.5286"/><polygon fill="#FFFF44" points="364.5833,238.6902,368.75,242.8569,364.5833,247.0235,360.4167,242.8569" style="stroke:#B38D22;stroke-width:1.0416666666666667;"/><text fill="#D8BC00" font-family="Open Sans,Avenir,Nunito,Arial,Helvetica,SansSerif" font-size="11.4583" lengthAdjust="spacing" textLength="135.4167" x="376.0417" y="250.8097">BaseReadableResource()</text><polygon fill="#FFFF44" points="364.5833,258.4351,368.75,262.6017,364.5833,266.7684,360.4167,262.6017" style="stroke:#B38D22;stroke-width:1.0416666666666667;"/><text fill="#D8BC00" font-family="Open Sans,Avenir,Nunito,Arial,Helvetica,SansSerif" font-size="11.4583" lengthAdjust="spacing" textLength="262.5" x="376.0417" y="270.5546">BaseReadableResource(BaseReadableResource)</text><polygon fill="#FFFF44" points="364.5833,278.1799,368.75,282.3466,364.5833,286.5133,360.4167,282.3466" style="stroke:#B38D22;stroke-width:1.0416666666666667;"/><text fill="#D8BC00" font-family="Open Sans,Avenir,Nunito,Arial,Helvetica,SansSerif" font-size="11.4583" lengthAdjust="spacing" textLength="211.4583" x="376.0417" y="290.2995">BaseReadableResource(ResourcePath)</text><line style="stroke:#5E5E5E;stroke-width:1.0416666666666667;" x1="354.1667" x2="456.7708" y1="226.7344" y2="226.7344"/><text fill="#D8BC00" font-family="Open Sans,Avenir,Nunito,Arial,Helvetica,SansSerif" font-size="11.4583" lengthAdjust="spacing" textLength="81.25" x="459.8958" y="230.544">(constructors)</text><line style="stroke:#5E5E5E;stroke-width:1.0416666666666667;" x1="544.2708" x2="646.875" y1="226.7344" y2="226.7344"/><line style="stroke:#5E5E5E;stroke-width:1.0416666666666667;" x1="354.1667" x2="646.875" y1="300.0081" y2="300.0081"/><ellipse cx="364.5833" cy="311.4665" fill="#84BE84" rx="3.125" ry="3.125" style="stroke:#038048;stroke-width:1.0416666666666667;"/><text fill="#D8BC00" font-family="Open Sans,Avenir,Nunito,Arial,Helvetica,SansSerif" font-size="11.4583" lengthAdjust="spacing" textLength="207.2917" x="376.0417" y="318.3777">BaseReadableResource codec(Codec)</text><polygon fill="#FFFF44" points="364.5833,326.003,368.75,330.1697,364.5833,334.3363,360.4167,330.1697" style="stroke:#B38D22;stroke-width:1.0416666666666667;"/><text fill="#D8BC00" font-family="Open Sans,Avenir,Nunito,Arial,Helvetica,SansSerif" font-size="11.4583" lengthAdjust="spacing" textLength="120.8333" x="376.0417" y="338.1226">void charset(Charset)</text><rect codeLine="25" fill="#282828" height="194.6025" id="LineReader" rx="8.3333" ry="8.3333" style="stroke:#5E5E5E;stroke-width:1.0416666666666667;" width="309.375" x="7.2917" y="165.1611"/><rect fill="#1B1B1A" height="31.3883" rx="8.3333" ry="8.3333" style="stroke:#1B1B1A;stroke-width:1.0416666666666667;" width="309.375" x="7.2917" y="165.1611"/><rect fill="#1B1B1A" height="8.3333" style="stroke:#1B1B1A;stroke-width:1.0416666666666667;" width="309.375" x="7.2917" y="188.2161"/><rect codeLine="25" fill="none" height="194.6025" id="LineReader" rx="8.3333" ry="8.3333" style="stroke:#5E5E5E;stroke-width:1.0416666666666667;" width="309.375" x="7.2917" y="165.1611"/><ellipse cx="119.2708" cy="180.8553" fill="#0066CF" rx="10.4167" ry="10.4167" style="stroke:#0086EF;stroke-width:1.0416666666666667;"/><path d="M121.1812,185.2804 Q120.754,185.5001 120.284,185.6099 Q119.814,185.7198 119.2952,185.7198 Q117.452,185.7198 116.4815,184.5052 Q115.5111,183.2906 115.5111,180.9957 Q115.5111,178.6947 116.4815,177.4801 Q117.452,176.2655 119.2952,176.2655 Q119.814,176.2655 120.2901,176.3753 Q120.7662,176.4852 121.1812,176.7049 L121.1812,178.7069 Q120.7174,178.2796 120.281,178.0813 Q119.8446,177.8829 119.3807,177.8829 Q118.3919,177.8829 117.8884,178.6672 Q117.3848,179.4515 117.3848,180.9957 Q117.3848,182.5338 117.8884,183.3181 Q118.3919,184.1024 119.3807,184.1024 Q119.8446,184.1024 120.281,183.904 Q120.7174,183.7056 121.1812,183.2784 Z " fill="#000000"/><text fill="#D8BC00" font-family="Open Sans,Avenir,Nunito,Arial,Helvetica,SansSerif" font-size="12.5" font-weight="bold" lengthAdjust="spacing" textLength="70.8333" x="142.1875" y="185.5794">LineReader</text><line style="stroke:#5E5E5E;stroke-width:1.5625;" x1="8.3333" x2="315.625" y1="196.5495" y2="196.5495"/><ellipse cx="18.75" cy="231.9194" fill="#84BE84" rx="3.125" ry="3.125" style="stroke:#038048;stroke-width:1.0416666666666667;"/><text fill="#D8BC00" font-family="Open Sans,Avenir,Nunito,Arial,Helvetica,SansSerif" font-size="11.4583" lengthAdjust="spacing" textLength="171.875" x="30.2083" y="238.8306">LineReader(ReadableResource)</text><ellipse cx="18.75" cy="251.6642" fill="#84BE84" rx="3.125" ry="3.125" style="stroke:#038048;stroke-width:1.0416666666666667;"/><text fill="#D8BC00" font-family="Open Sans,Avenir,Nunito,Arial,Helvetica,SansSerif" font-size="11.4583" lengthAdjust="spacing" textLength="277.0833" x="30.2083" y="258.5754">LineReader(ReadableResource, ProgressReporter)</text><line style="stroke:#5E5E5E;stroke-width:1.0416666666666667;" x1="8.3333" x2="118.2292" y1="214.7552" y2="214.7552"/><text fill="#D8BC00" font-family="Open Sans,Avenir,Nunito,Arial,Helvetica,SansSerif" font-size="11.4583" lengthAdjust="spacing" textLength="81.25" x="121.3542" y="218.5649">(constructors)</text><line style="stroke:#5E5E5E;stroke-width:1.0416666666666667;" x1="205.7292" x2="315.625" y1="214.7552" y2="214.7552"/><line style="stroke:#5E5E5E;stroke-width:1.0416666666666667;" x1="8.3333" x2="315.625" y1="268.2841" y2="268.2841"/><ellipse cx="18.75" cy="279.7424" fill="#84BE84" rx="3.125" ry="3.125" style="stroke:#038048;stroke-width:1.0416666666666667;"/><text fill="#D8BC00" font-family="Open Sans,Avenir,Nunito,Arial,Helvetica,SansSerif" font-size="11.4583" lengthAdjust="spacing" textLength="192.7083" x="30.2083" y="286.6536">boolean lines(Consumer&lt;String&gt;)</text><ellipse cx="18.75" cy="299.4873" fill="#84BE84" rx="3.125" ry="3.125" style="stroke:#038048;stroke-width:1.0416666666666667;"/><text fill="#D8BC00" font-family="Open Sans,Avenir,Nunito,Arial,Helvetica,SansSerif" font-size="11.4583" lengthAdjust="spacing" textLength="140.625" x="30.2083" y="306.3985">Stream&lt;String&gt; stream()</text><ellipse cx="18.75" cy="343.1437" fill="#84BE84" rx="3.125" ry="3.125" style="stroke:#038048;stroke-width:1.0416666666666667;"/><text fill="#D8BC00" font-family="Open Sans,Avenir,Nunito,Arial,Helvetica,SansSerif" font-size="11.4583" lengthAdjust="spacing" textLength="90.625" x="30.2083" y="350.0549">StringList lines()</text><line style="stroke:#5E5E5E;stroke-width:1.0416666666666667;" x1="8.3333" x2="127.6042" y1="325.9796" y2="325.9796"/><text fill="#D8BC00" font-family="Open Sans,Avenir,Nunito,Arial,Helvetica,SansSerif" font-size="11.4583" lengthAdjust="spacing" textLength="62.5" x="130.7292" y="329.7892">(collection)</text><line style="stroke:#5E5E5E;stroke-width:1.0416666666666667;" x1="196.3542" x2="315.625" y1="325.9796" y2="325.9796"/><rect codeLine="37" fill="#282828" height="48.055" id="ByteSized" rx="8.3333" ry="8.3333" style="stroke:#5E5E5E;stroke-width:1.0416666666666667;" width="100" x="785.9375" y="53.7028"/><rect fill="#1B1B1A" height="31.3883" rx="8.3333" ry="8.3333" style="stroke:#1B1B1A;stroke-width:1.0416666666666667;" width="100" x="785.9375" y="53.7028"/><rect fill="#1B1B1A" height="8.3333" style="stroke:#1B1B1A;stroke-width:1.0416666666666667;" width="100" x="785.9375" y="76.7578"/><rect codeLine="37" fill="none" height="48.055" id="ByteSized" rx="8.3333" ry="8.3333" style="stroke:#5E5E5E;stroke-width:1.0416666666666667;" width="100" x="785.9375" y="53.7028"/><ellipse cx="800.5208" cy="69.397" fill="#008400" rx="10.4167" ry="10.4167" style="stroke:#239C23;stroke-width:1.0416666666666667;"/><path d="M797.9248,66.5588 L797.9248,64.9719 L803.3508,64.9719 L803.3508,66.5588 L801.5381,66.5588 L801.5381,72.4976 L803.3508,72.4976 L803.3508,74.0845 L797.9248,74.0845 L797.9248,72.4976 L799.7375,72.4976 L799.7375,66.5588 Z " fill="#000000"/><text fill="#D8BC00" font-family="Open Sans,Avenir,Nunito,Arial,Helvetica,SansSerif" font-size="12.5" font-style="italic" font-weight="bold" lengthAdjust="spacing" textLength="62.5" x="817.1875" y="74.1211">ByteSized</text><line style="stroke:#5E5E5E;stroke-width:1.0416666666666667;" x1="786.9792" x2="884.8958" y1="85.0911" y2="85.0911"/><line style="stroke:#5E5E5E;stroke-width:1.0416666666666667;" x1="786.9792" x2="884.8958" y1="93.4245" y2="93.4245"/><rect codeLine="49" fill="#282828" height="166.5243" id="Readable" rx="8.3333" ry="8.3333" style="stroke:#5E5E5E;stroke-width:1.0416666666666667;" width="302.0833" x="684.8958" y="179.2236"/><rect fill="#1B1B1A" height="31.3883" rx="8.3333" ry="8.3333" style="stroke:#1B1B1A;stroke-width:1.0416666666666667;" width="302.0833" x="684.8958" y="179.2236"/><rect fill="#1B1B1A" height="8.3333" style="stroke:#1B1B1A;stroke-width:1.0416666666666667;" width="302.0833" x="684.8958" y="202.2786"/><rect codeLine="49" fill="none" height="166.5243" id="Readable" rx="8.3333" ry="8.3333" style="stroke:#5E5E5E;stroke-width:1.0416666666666667;" width="302.0833" x="684.8958" y="179.2236"/><ellipse cx="799.4792" cy="194.9178" fill="#008400" rx="10.4167" ry="10.4167" style="stroke:#239C23;stroke-width:1.0416666666666667;"/><path d="M796.8831,192.0797 L796.8831,190.4928 L802.3092,190.4928 L802.3092,192.0797 L800.4964,192.0797 L800.4964,198.0184 L802.3092,198.0184 L802.3092,199.6053 L796.8831,199.6053 L796.8831,198.0184 L798.6959,198.0184 L798.6959,192.0797 Z " fill="#000000"/><text fill="#D8BC00" font-family="Open Sans,Avenir,Nunito,Arial,Helvetica,SansSerif" font-size="12.5" font-style="italic" font-weight="bold" lengthAdjust="spacing" textLength="58.3333" x="822.3958" y="199.6419">Readable</text><line style="stroke:#5E5E5E;stroke-width:1.5625;" x1="685.9375" x2="985.9375" y1="210.612" y2="210.612"/><ellipse cx="696.3542" cy="245.9819" fill="#84BE84" rx="3.125" ry="3.125" style="stroke:#038048;stroke-width:1.0416666666666667;"/><text fill="#D8BC00" font-family="Open Sans,Avenir,Nunito,Arial,Helvetica,SansSerif" font-size="11.4583" lengthAdjust="spacing" textLength="115.625" x="707.8125" y="252.8931">boolean isReadable()</text><line style="stroke:#5E5E5E;stroke-width:1.0416666666666667;" x1="685.9375" x2="809.375" y1="228.8177" y2="228.8177"/><text fill="#D8BC00" font-family="Open Sans,Avenir,Nunito,Arial,Helvetica,SansSerif" font-size="11.4583" lengthAdjust="spacing" textLength="46.875" x="812.5" y="232.6274">(checks)</text><line style="stroke:#5E5E5E;stroke-width:1.0416666666666667;" x1="862.5" x2="985.9375" y1="228.8177" y2="228.8177"/><ellipse cx="696.3542" cy="289.6383" fill="#84BE84" rx="3.125" ry="3.125" style="stroke:#038048;stroke-width:1.0416666666666667;"/><text fill="#D8BC00" font-family="Open Sans,Avenir,Nunito,Arial,Helvetica,SansSerif" font-size="11.4583" lengthAdjust="spacing" textLength="187.5" x="707.8125" y="296.5495">InputStream onOpenForReading()</text><ellipse cx="696.3542" cy="309.3831" fill="#84BE84" rx="3.125" ry="3.125" style="stroke:#038048;stroke-width:1.0416666666666667;"/><text fill="#D8BC00" font-family="Open Sans,Avenir,Nunito,Arial,Helvetica,SansSerif" font-size="11.4583" lengthAdjust="spacing" textLength="170.8333" x="707.8125" y="316.2944">InputStream openForReading()</text><ellipse cx="696.3542" cy="329.128" fill="#84BE84" rx="3.125" ry="3.125" style="stroke:#038048;stroke-width:1.0416666666666667;"/><text fill="#D8BC00" font-family="Open Sans,Avenir,Nunito,Arial,Helvetica,SansSerif" font-size="11.4583" lengthAdjust="spacing" textLength="269.7917" x="707.8125" y="336.0392">InputStream openForReading(ProgressReporter)</text><line style="stroke:#5E5E5E;stroke-width:1.0416666666666667;" x1="685.9375" x2="816.1458" y1="272.4742" y2="272.4742"/><text fill="#D8BC00" font-family="Open Sans,Avenir,Nunito,Arial,Helvetica,SansSerif" font-size="11.4583" lengthAdjust="spacing" textLength="33.3333" x="819.2708" y="276.2838">(read)</text><line style="stroke:#5E5E5E;stroke-width:1.0416666666666667;" x1="855.7292" x2="985.9375" y1="272.4742" y2="272.4742"/><rect codeLine="50" fill="#282828" height="48.055" id="Repeater" rx="8.3333" ry="8.3333" style="stroke:#5E5E5E;stroke-width:1.0416666666666667;" width="93.75" x="1023.4375" y="238.5986"/><rect fill="#1B1B1A" height="31.3883" rx="8.3333" ry="8.3333" style="stroke:#1B1B1A;stroke-width:1.0416666666666667;" width="93.75" x="1023.4375" y="238.5986"/><rect fill="#1B1B1A" height="8.3333" style="stroke:#1B1B1A;stroke-width:1.0416666666666667;" width="93.75" x="1023.4375" y="261.6536"/><rect codeLine="50" fill="none" height="48.055" id="Repeater" rx="8.3333" ry="8.3333" style="stroke:#5E5E5E;stroke-width:1.0416666666666667;" width="93.75" x="1023.4375" y="238.5986"/><ellipse cx="1038.0208" cy="254.2928" fill="#008400" rx="10.4167" ry="10.4167" style="stroke:#239C23;stroke-width:1.0416666666666667;"/><path d="M1035.4248,251.4547 L1035.4248,249.8678 L1040.8508,249.8678 L1040.8508,251.4547 L1039.0381,251.4547 L1039.0381,257.3934 L1040.8508,257.3934 L1040.8508,258.9803 L1035.4248,258.9803 L1035.4248,257.3934 L1037.2375,257.3934 L1037.2375,251.4547 Z " fill="#000000"/><text fill="#D8BC00" font-family="Open Sans,Avenir,Nunito,Arial,Helvetica,SansSerif" font-size="12.5" font-style="italic" font-weight="bold" lengthAdjust="spacing" textLength="56.25" x="1054.6875" y="259.0169">Repeater</text><line style="stroke:#5E5E5E;stroke-width:1.0416666666666667;" x1="1024.4792" x2="1116.1458" y1="269.987" y2="269.987"/><line style="stroke:#5E5E5E;stroke-width:1.0416666666666667;" x1="1024.4792" x2="1116.1458" y1="278.3203" y2="278.3203"/><rect codeLine="54" fill="#282828" height="258.0037" id="ReadableResource" rx="8.3333" ry="8.3333" style="stroke:#5E5E5E;stroke-width:1.0416666666666667;" width="442.7083" x="731.25" y="423.4945"/><rect fill="#1B1B1A" height="31.3883" rx="8.3333" ry="8.3333" style="stroke:#1B1B1A;stroke-width:1.0416666666666667;" width="442.7083" x="731.25" y="423.4945"/><rect fill="#1B1B1A" height="8.3333" style="stroke:#1B1B1A;stroke-width:1.0416666666666667;" width="442.7083" x="731.25" y="446.5495"/><rect codeLine="54" fill="none" height="258.0037" id="ReadableResource" rx="8.3333" ry="8.3333" style="stroke:#5E5E5E;stroke-width:1.0416666666666667;" width="442.7083" x="731.25" y="423.4945"/><ellipse cx="886.9792" cy="439.1886" fill="#008400" rx="10.4167" ry="10.4167" style="stroke:#239C23;stroke-width:1.0416666666666667;"/><path d="M884.3831,436.3505 L884.3831,434.7636 L889.8092,434.7636 L889.8092,436.3505 L887.9964,436.3505 L887.9964,442.2892 L889.8092,442.2892 L889.8092,443.8761 L884.3831,443.8761 L884.3831,442.2892 L886.1959,442.2892 L886.1959,436.3505 Z " fill="#000000"/><text fill="#D8BC00" font-family="Open Sans,Avenir,Nunito,Arial,Helvetica,SansSerif" font-size="12.5" font-style="italic" font-weight="bold" lengthAdjust="spacing" textLength="116.6667" x="909.8958" y="443.9128">ReadableResource</text><line style="stroke:#5E5E5E;stroke-width:1.5625;" x1="732.2917" x2="1172.9167" y1="454.8828" y2="454.8828"/><line style="stroke:#5E5E5E;stroke-width:1.0416666666666667;" x1="732.2917" x2="1172.9167" y1="463.2161" y2="463.2161"/><ellipse cx="742.7083" cy="474.6745" fill="#84BE84" rx="3.125" ry="3.125" style="stroke:#038048;stroke-width:1.0416666666666667;"/><text fill="#D8BC00" font-family="Open Sans,Avenir,Nunito,Arial,Helvetica,SansSerif" font-size="11.4583" lengthAdjust="spacing" textLength="96.875" x="754.1667" y="481.5857">Charset charset()</text><ellipse cx="742.7083" cy="494.4194" fill="#84BE84" rx="3.125" ry="3.125" style="stroke:#038048;stroke-width:1.0416666666666667;"/><text fill="#D8BC00" font-family="Open Sans,Avenir,Nunito,Arial,Helvetica,SansSerif" font-size="11.4583" lengthAdjust="spacing" textLength="113.5417" x="754.1667" y="501.3306">Resource resource()</text><ellipse cx="742.7083" cy="538.0758" fill="#84BE84" rx="3.125" ry="3.125" style="stroke:#038048;stroke-width:1.0416666666666667;"/><text fill="#D8BC00" font-family="Open Sans,Avenir,Nunito,Arial,Helvetica,SansSerif" font-size="11.4583" lengthAdjust="spacing" textLength="194.7917" x="754.1667" y="544.987">StringResource asStringResource()</text><line style="stroke:#5E5E5E;stroke-width:1.0416666666666667;" x1="732.2917" x2="914.0625" y1="520.9117" y2="520.9117"/><text fill="#D8BC00" font-family="Open Sans,Avenir,Nunito,Arial,Helvetica,SansSerif" font-size="11.4583" lengthAdjust="spacing" textLength="70.8333" x="917.1875" y="524.7213">(conversion)</text><line style="stroke:#5E5E5E;stroke-width:1.0416666666666667;" x1="991.1458" x2="1172.9167" y1="520.9117" y2="520.9117"/><ellipse cx="742.7083" cy="581.7322" fill="#84BE84" rx="3.125" ry="3.125" style="stroke:#038048;stroke-width:1.0416666666666667;"/><text fill="#D8BC00" font-family="Open Sans,Avenir,Nunito,Arial,Helvetica,SansSerif" font-size="11.4583" lengthAdjust="spacing" textLength="410.4167" x="754.1667" y="588.6434">void copyTo(WritableResource destination, CopyMode, ProgressReporter)</text><line style="stroke:#5E5E5E;stroke-width:1.0416666666666667;" x1="732.2917" x2="917.1875" y1="564.5681" y2="564.5681"/><text fill="#D8BC00" font-family="Open Sans,Avenir,Nunito,Arial,Helvetica,SansSerif" font-size="11.4583" lengthAdjust="spacing" textLength="64.5833" x="920.3125" y="568.3777">(filesystem)</text><line style="stroke:#5E5E5E;stroke-width:1.0416666666666667;" x1="988.0208" x2="1172.9167" y1="564.5681" y2="564.5681"/><ellipse cx="742.7083" cy="625.3886" fill="#84BE84" rx="3.125" ry="3.125" style="stroke:#038048;stroke-width:1.0416666666666667;"/><text fill="#D8BC00" font-family="Open Sans,Avenir,Nunito,Arial,Helvetica,SansSerif" font-size="11.4583" lengthAdjust="spacing" textLength="237.5" x="754.1667" y="632.2998">ResourceReader reader(ProgressReporter)</text><ellipse cx="742.7083" cy="645.1335" fill="#84BE84" rx="3.125" ry="3.125" style="stroke:#038048;stroke-width:1.0416666666666667;"/><text fill="#D8BC00" font-family="Open Sans,Avenir,Nunito,Arial,Helvetica,SansSerif" font-size="11.4583" lengthAdjust="spacing" textLength="287.5" x="754.1667" y="652.0447">ResourceReader reader(ProgressReporter, Charset)</text><ellipse cx="742.7083" cy="664.8783" fill="#84BE84" rx="3.125" ry="3.125" style="stroke:#038048;stroke-width:1.0416666666666667;"/><text fill="#D8BC00" font-family="Open Sans,Avenir,Nunito,Arial,Helvetica,SansSerif" font-size="11.4583" lengthAdjust="spacing" textLength="138.5417" x="754.1667" y="671.7896">ResourceReader reader()</text><line style="stroke:#5E5E5E;stroke-width:1.0416666666666667;" x1="732.2917" x2="932.8125" y1="608.2245" y2="608.2245"/><text fill="#D8BC00" font-family="Open Sans,Avenir,Nunito,Arial,Helvetica,SansSerif" font-size="11.4583" lengthAdjust="spacing" textLength="33.3333" x="935.9375" y="612.0341">(read)</text><line style="stroke:#5E5E5E;stroke-width:1.0416666666666667;" x1="972.3958" x2="1172.9167" y1="608.2245" y2="608.2245"/><rect codeLine="69" fill="#282828" height="363.973" id="ResourceReader" rx="8.3333" ry="8.3333" style="stroke:#5E5E5E;stroke-width:1.0416666666666667;" width="500" x="702.6042" y="767.2445"/><rect fill="#1B1B1A" height="31.3883" rx="8.3333" ry="8.3333" style="stroke:#1B1B1A;stroke-width:1.0416666666666667;" width="500" x="702.6042" y="767.2445"/><rect fill="#1B1B1A" height="8.3333" style="stroke:#1B1B1A;stroke-width:1.0416666666666667;" width="500" x="702.6042" y="790.2995"/><rect codeLine="69" fill="none" height="363.973" id="ResourceReader" rx="8.3333" ry="8.3333" style="stroke:#5E5E5E;stroke-width:1.0416666666666667;" width="500" x="702.6042" y="767.2445"/><ellipse cx="894.2708" cy="782.9386" fill="#0066CF" rx="10.4167" ry="10.4167" style="stroke:#0086EF;stroke-width:1.0416666666666667;"/><path d="M896.1812,787.3637 Q895.754,787.5834 895.284,787.6933 Q894.814,787.8031 894.2952,787.8031 Q892.452,787.8031 891.4815,786.5885 Q890.5111,785.3739 890.5111,783.079 Q890.5111,780.778 891.4815,779.5634 Q892.452,778.3488 894.2952,778.3488 Q894.814,778.3488 895.2901,778.4587 Q895.7662,778.5685 896.1812,778.7882 L896.1812,780.7902 Q895.7174,780.363 895.281,780.1646 Q894.8446,779.9662 894.3807,779.9662 Q893.3919,779.9662 892.8884,780.7505 Q892.3848,781.5348 892.3848,783.079 Q892.3848,784.6171 892.8884,785.4014 Q893.3919,786.1857 894.3807,786.1857 Q894.8446,786.1857 895.281,785.9873 Q895.7174,785.789 896.1812,785.3617 Z " fill="#000000"/><text fill="#D8BC00" font-family="Open Sans,Avenir,Nunito,Arial,Helvetica,SansSerif" font-size="12.5" font-weight="bold" lengthAdjust="spacing" textLength="102.0833" x="917.1875" y="787.6628">ResourceReader</text><line style="stroke:#5E5E5E;stroke-width:1.5625;" x1="703.6458" x2="1201.5625" y1="798.6328" y2="798.6328"/><ellipse cx="714.0625" cy="834.0027" fill="#84BE84" rx="3.125" ry="3.125" style="stroke:#038048;stroke-width:1.0416666666666667;"/><text fill="#D8BC00" font-family="Open Sans,Avenir,Nunito,Arial,Helvetica,SansSerif" font-size="11.4583" lengthAdjust="spacing" textLength="256.25" x="725.5208" y="840.9139">ResourceReader(ProgressReporter, Resource)</text><ellipse cx="714.0625" cy="853.7476" fill="#84BE84" rx="3.125" ry="3.125" style="stroke:#038048;stroke-width:1.0416666666666667;"/><text fill="#D8BC00" font-family="Open Sans,Avenir,Nunito,Arial,Helvetica,SansSerif" font-size="11.4583" lengthAdjust="spacing" textLength="306.25" x="725.5208" y="860.6588">ResourceReader(ProgressReporter, Resource, Charset)</text><line style="stroke:#5E5E5E;stroke-width:1.0416666666666667;" x1="703.6458" x2="908.8542" y1="816.8386" y2="816.8386"/><text fill="#D8BC00" font-family="Open Sans,Avenir,Nunito,Arial,Helvetica,SansSerif" font-size="11.4583" lengthAdjust="spacing" textLength="81.25" x="911.9792" y="820.6482">(constructors)</text><line style="stroke:#5E5E5E;stroke-width:1.0416666666666667;" x1="996.3542" x2="1201.5625" y1="816.8386" y2="816.8386"/><ellipse cx="714.0625" cy="897.404" fill="#84BE84" rx="3.125" ry="3.125" style="stroke:#038048;stroke-width:1.0416666666666667;"/><text fill="#D8BC00" font-family="Open Sans,Avenir,Nunito,Arial,Helvetica,SansSerif" font-size="11.4583" lengthAdjust="spacing" textLength="97.9167" x="725.5208" y="904.3152">byte[] readBytes()</text><ellipse cx="714.0625" cy="917.1488" fill="#84BE84" rx="3.125" ry="3.125" style="stroke:#038048;stroke-width:1.0416666666666667;"/><text fill="#D8BC00" font-family="Open Sans,Avenir,Nunito,Arial,Helvetica,SansSerif" font-size="11.4583" lengthAdjust="spacing" textLength="118.75" x="725.5208" y="924.0601">StringList readLines()</text><ellipse cx="714.0625" cy="936.8937" fill="#84BE84" rx="3.125" ry="3.125" style="stroke:#038048;stroke-width:1.0416666666666667;"/><text fill="#D8BC00" font-family="Open Sans,Avenir,Nunito,Arial,Helvetica,SansSerif" font-size="11.4583" lengthAdjust="spacing" textLength="217.7083" x="725.5208" y="943.8049">StringList readLines(ProgressReporter)</text><ellipse cx="714.0625" cy="956.6386" fill="#84BE84" rx="3.125" ry="3.125" style="stroke:#038048;stroke-width:1.0416666666666667;"/><text fill="#D8BC00" font-family="Open Sans,Avenir,Nunito,Arial,Helvetica,SansSerif" font-size="11.4583" lengthAdjust="spacing" textLength="305.2083" x="725.5208" y="963.5498">void readLines(ProgressReporter, Consumer&lt;String&gt;)</text><ellipse cx="714.0625" cy="976.3835" fill="#84BE84" rx="3.125" ry="3.125" style="stroke:#038048;stroke-width:1.0416666666666667;"/><text fill="#D8BC00" font-family="Open Sans,Avenir,Nunito,Arial,Helvetica,SansSerif" font-size="11.4583" lengthAdjust="spacing" textLength="362.5" x="725.5208" y="983.2947">ObjectList&lt;T&gt; readList(ProgressReporter, Converter&lt;String,T&gt;)</text><ellipse cx="714.0625" cy="996.1283" fill="#84BE84" rx="3.125" ry="3.125" style="stroke:#038048;stroke-width:1.0416666666666667;"/><text fill="#D8BC00" font-family="Open Sans,Avenir,Nunito,Arial,Helvetica,SansSerif" font-size="11.4583" lengthAdjust="spacing" textLength="412.5" x="725.5208" y="1003.0396">ObjectList&lt;T&gt; readList(ProgressReporter, Function&lt;String,T&gt; converter)</text><ellipse cx="714.0625" cy="1015.8732" fill="#84BE84" rx="3.125" ry="3.125" style="stroke:#038048;stroke-width:1.0416666666666667;"/><text fill="#D8BC00" font-family="Open Sans,Avenir,Nunito,Arial,Helvetica,SansSerif" font-size="11.4583" lengthAdjust="spacing" textLength="467.7083" x="725.5208" y="1022.7844">void readObjects(ProgressReporter, Function&lt;String,T&gt; converter, Consumer&lt;T&gt;)</text><ellipse cx="714.0625" cy="1035.6181" fill="#84BE84" rx="3.125" ry="3.125" style="stroke:#038048;stroke-width:1.0416666666666667;"/><text fill="#D8BC00" font-family="Open Sans,Avenir,Nunito,Arial,Helvetica,SansSerif" font-size="11.4583" lengthAdjust="spacing" textLength="417.7083" x="725.5208" y="1042.5293">void readObjects(ProgressReporter, Converter&lt;String,T&gt;, Consumer&lt;T&gt;)</text><ellipse cx="714.0625" cy="1055.363" fill="#84BE84" rx="3.125" ry="3.125" style="stroke:#038048;stroke-width:1.0416666666666667;"/><text fill="#D8BC00" font-family="Open Sans,Avenir,Nunito,Arial,Helvetica,SansSerif" font-size="11.4583" lengthAdjust="spacing" textLength="356.25" x="725.5208" y="1062.2742">ObjectSet&lt;T&gt; readSet(ProgressReporter, Converter&lt;String,T&gt;)</text><ellipse cx="714.0625" cy="1075.1078" fill="#84BE84" rx="3.125" ry="3.125" style="stroke:#038048;stroke-width:1.0416666666666667;"/><text fill="#D8BC00" font-family="Open Sans,Avenir,Nunito,Arial,Helvetica,SansSerif" font-size="11.4583" lengthAdjust="spacing" textLength="193.75" x="725.5208" y="1082.019">String readText(ProgressReporter)</text><ellipse cx="714.0625" cy="1094.8527" fill="#84BE84" rx="3.125" ry="3.125" style="stroke:#038048;stroke-width:1.0416666666666667;"/><text fill="#D8BC00" font-family="Open Sans,Avenir,Nunito,Arial,Helvetica,SansSerif" font-size="11.4583" lengthAdjust="spacing" textLength="94.7917" x="725.5208" y="1101.7639">String readText()</text><ellipse cx="714.0625" cy="1114.5976" fill="#84BE84" rx="3.125" ry="3.125" style="stroke:#038048;stroke-width:1.0416666666666667;"/><text fill="#D8BC00" font-family="Open Sans,Avenir,Nunito,Arial,Helvetica,SansSerif" font-size="11.4583" lengthAdjust="spacing" textLength="110.4167" x="725.5208" y="1121.5088">Reader textReader()</text><line style="stroke:#5E5E5E;stroke-width:1.0416666666666667;" x1="703.6458" x2="932.8125" y1="880.2399" y2="880.2399"/><text fill="#D8BC00" font-family="Open Sans,Avenir,Nunito,Arial,Helvetica,SansSerif" font-size="11.4583" lengthAdjust="spacing" textLength="33.3333" x="935.9375" y="884.0495">(read)</text><line style="stroke:#5E5E5E;stroke-width:1.0416666666666667;" x1="972.3958" x2="1201.5625" y1="880.2399" y2="880.2399"/><path codeLine="11" d="M306.4375,115.3278 C329.9583,133.0465 359.2604,155.109 387.9063,176.6924 " fill="none" id="BaseRepeater-backto-BaseReadableResource" style="stroke:#545454;stroke-width:1.5625;"/><polygon fill="none" points="302.0625,121.1611,289.8125,102.807,310.8438,109.5153,302.0625,121.1611" style="stroke:#545454;stroke-width:1.5625;"/><path codeLine="12" d="M500.5208,124.1611 C500.5208,140.1715 500.5208,158.7132 500.5208,176.9007 " fill="none" id="Resource-backto-BaseReadableResource" style="stroke:#545454;stroke-width:1.5625;"/><polygon fill="none" points="493.2292,124.2653,500.5208,103.432,507.8125,124.2653,493.2292,124.2653" style="stroke:#545454;stroke-width:1.5625;"/><path codeLine="24" d="M235.4792,121.3174 C228.5729,134.484 220.6667,149.557 212.6563,164.8382 " fill="none" id="BaseRepeater-backto-LineReader" style="stroke:#545454;stroke-width:1.5625;"/><polygon fill="none" points="228.8125,118.3174,244.9479,103.2549,241.7292,125.0882,228.8125,118.3174" style="stroke:#545454;stroke-width:1.5625;"/><path codeLine="38" d="M835.9375,124.2028 C835.9375,140.807 835.9375,160.1403 835.9375,178.9736 " fill="none" id="ByteSized-backto-Readable" style="stroke:#545454;stroke-width:1.5625;"/><polygon fill="none" points="828.6458,124.2653,835.9375,103.432,843.2292,124.2653,828.6458,124.2653" style="stroke:#545454;stroke-width:1.5625;"/><path codeLine="51" d="M877.6979,366.6924 C885.1042,384.984 892.9063,404.234 900.5521,423.1195 " fill="none" id="Readable-backto-ReadableResource" style="stroke:#545454;stroke-width:1.5625;"/><polygon fill="none" points="871.0208,369.6403,869.9583,347.5986,884.5417,364.1715,871.0208,369.6403" style="stroke:#545454;stroke-width:1.5625;"/><path codeLine="52" d="M1052.4479,307.307 C1039.7813,338.307 1022.0833,381.609 1005.0938,423.1715 " fill="none" id="Repeater-backto-ReadableResource" style="stroke:#545454;stroke-width:1.5625;"/><polygon fill="none" points="1045.6563,304.6715,1060.2813,288.1403,1059.1458,310.182,1045.6563,304.6715" style="stroke:#545454;stroke-width:1.5625;"/><path codeLine="53" d="M952.6042,682.2549 C952.6042,707.2236 952.6042,733.859 952.6042,760.2757 " fill="none" id="ReadableResource-to-ResourceReader" style="stroke:#545454;stroke-width:1.5625;"/><polygon fill="#545454" points="952.6042,765.4007,956.7708,756.0257,952.6042,760.1924,948.4375,756.0257,952.6042,765.4007" style="stroke:#545454;stroke-width:1.5625;"/><text fill="#A0A0A0" font-family="Open Sans,Avenir,Nunito,Arial,Helvetica,SansSerif" font-size="12.5" font-weight="bold" lengthAdjust="spacing" textLength="56.25" x="956.7708" y="729.3294">provides</text></g></svg>

