<?xml version="1.0" encoding="UTF-8" standalone="no"?><svg xmlns="http://www.w3.org/2000/svg" xmlns:xlink="http://www.w3.org/1999/xlink" contentScriptType="application/ecmascript" contentStyleType="text/css" height="650px" preserveAspectRatio="none" style="width:618px;height:650px;background:#333333;" version="1.1" viewBox="0 0 618 650" width="618.75px" zoomAndPan="magnify"><defs/><g><rect fill="#48494B" height="41.2028" rx="8.3333" ry="8.3333" style="stroke:#545454;stroke-width:1.0416666666666667;" width="325" x="139.5833" y="2.0833"/><text fill="#C0C0C0" font-family="Open Sans,Avenir,Nunito,Arial,Helvetica,SansSerif" font-size="20.8333" lengthAdjust="spacing" textLength="302.0833" x="151.0417" y="30.5583">com.telenav.kivakit.properties</text><rect fill="#282828" height="48.055" id="VariableMap" rx="8.3333" ry="8.3333" style="stroke:#5E5E5E;stroke-width:1.0416666666666667;" width="116.6667" x="251.0417" y="53.7028"/><rect fill="#1B1B1A" height="31.3883" rx="8.3333" ry="8.3333" style="stroke:#1B1B1A;stroke-width:1.0416666666666667;" width="116.6667" x="251.0417" y="53.7028"/><rect fill="#1B1B1A" height="8.3333" style="stroke:#1B1B1A;stroke-width:1.0416666666666667;" width="116.6667" x="251.0417" y="76.7578"/><rect fill="none" height="48.055" id="VariableMap" rx="8.3333" ry="8.3333" style="stroke:#5E5E5E;stroke-width:1.0416666666666667;" width="116.6667" x="251.0417" y="53.7028"/><ellipse cx="265.625" cy="69.397" fill="#0066CF" rx="10.4167" ry="10.4167" style="stroke:#0086EF;stroke-width:1.0416666666666667;"/><path d="M267.5354,73.822 Q267.1082,74.0417 266.6382,74.1516 Q266.1682,74.2615 265.6494,74.2615 Q263.8062,74.2615 262.8357,73.0469 Q261.8652,71.8323 261.8652,69.5374 Q261.8652,67.2363 262.8357,66.0217 Q263.8062,64.8071 265.6494,64.8071 Q266.1682,64.8071 266.6443,64.917 Q267.1204,65.0269 267.5354,65.2466 L267.5354,67.2485 Q267.0715,66.8213 266.6351,66.6229 Q266.1987,66.4246 265.7349,66.4246 Q264.7461,66.4246 264.2426,67.2089 Q263.739,67.9932 263.739,69.5374 Q263.739,71.0754 264.2426,71.8597 Q264.7461,72.644 265.7349,72.644 Q266.1987,72.644 266.6351,72.4457 Q267.0715,72.2473 267.5354,71.8201 Z " fill="#000000"/><text fill="#D8BC00" font-family="Open Sans,Avenir,Nunito,Arial,Helvetica,SansSerif" font-size="12.5" font-weight="bold" lengthAdjust="spacing" textLength="79.1667" x="282.2917" y="74.1211">VariableMap</text><line style="stroke:#5E5E5E;stroke-width:1.0416666666666667;" x1="252.0833" x2="366.6667" y1="85.0911" y2="85.0911"/><line style="stroke:#5E5E5E;stroke-width:1.0416666666666667;" x1="252.0833" x2="366.6667" y1="93.4245" y2="93.4245"/><rect codeLine="8" fill="#282828" height="479.364" id="PropertyMap" rx="8.3333" ry="8.3333" style="stroke:#5E5E5E;stroke-width:1.0416666666666667;" width="604.1667" x="7.2917" y="164.1195"/><rect fill="#1B1B1A" height="31.3883" rx="8.3333" ry="8.3333" style="stroke:#1B1B1A;stroke-width:1.0416666666666667;" width="604.1667" x="7.2917" y="164.1195"/><rect fill="#1B1B1A" height="8.3333" style="stroke:#1B1B1A;stroke-width:1.0416666666666667;" width="604.1667" x="7.2917" y="187.1745"/><rect codeLine="8" fill="none" height="479.364" id="PropertyMap" rx="8.3333" ry="8.3333" style="stroke:#5E5E5E;stroke-width:1.0416666666666667;" width="604.1667" x="7.2917" y="164.1195"/><ellipse cx="261.4583" cy="179.8136" fill="#0066CF" rx="10.4167" ry="10.4167" style="stroke:#0086EF;stroke-width:1.0416666666666667;"/><path d="M263.3687,184.2387 Q262.9415,184.4584 262.4715,184.5683 Q262.0015,184.6781 261.4827,184.6781 Q259.6395,184.6781 258.669,183.4635 Q257.6986,182.2489 257.6986,179.954 Q257.6986,177.653 258.669,176.4384 Q259.6395,175.2238 261.4827,175.2238 Q262.0015,175.2238 262.4776,175.3337 Q262.9537,175.4435 263.3687,175.6632 L263.3687,177.6652 Q262.9049,177.238 262.4685,177.0396 Q262.0321,176.8412 261.5682,176.8412 Q260.5794,176.8412 260.0759,177.6255 Q259.5723,178.4098 259.5723,179.954 Q259.5723,181.4921 260.0759,182.2764 Q260.5794,183.0607 261.5682,183.0607 Q262.0321,183.0607 262.4685,182.8623 Q262.9049,182.664 263.3687,182.2367 Z " fill="#000000"/><text fill="#D8BC00" font-family="Open Sans,Avenir,Nunito,Arial,Helvetica,SansSerif" font-size="12.5" font-weight="bold" lengthAdjust="spacing" textLength="81.25" x="284.375" y="184.5378">PropertyMap</text><line style="stroke:#5E5E5E;stroke-width:1.5625;" x1="8.3333" x2="610.4167" y1="195.5078" y2="195.5078"/><ellipse cx="18.75" cy="230.8777" fill="#84BE84" rx="3.125" ry="3.125" style="stroke:#038048;stroke-width:1.0416666666666667;"/><text fill="#D8BC00" font-family="Open Sans,Avenir,Nunito,Arial,Helvetica,SansSerif" font-size="11.4583" lengthAdjust="spacing" textLength="79.1667" x="30.2083" y="237.7889">PropertyMap()</text><line style="stroke:#5E5E5E;stroke-width:1.0416666666666667;" x1="8.3333" x2="265.625" y1="213.7136" y2="213.7136"/><text fill="#D8BC00" font-family="Open Sans,Avenir,Nunito,Arial,Helvetica,SansSerif" font-size="11.4583" lengthAdjust="spacing" textLength="81.25" x="268.75" y="217.5232">(constructors)</text><line style="stroke:#5E5E5E;stroke-width:1.0416666666666667;" x1="353.125" x2="610.4167" y1="213.7136" y2="213.7136"/><line style="stroke:#5E5E5E;stroke-width:1.0416666666666667;" x1="8.3333" x2="610.4167" y1="247.4976" y2="247.4976"/><ellipse cx="18.75" cy="258.9559" fill="#84BE84" rx="3.125" ry="3.125" style="stroke:#038048;stroke-width:1.0416666666666667;"/><text fill="#D8BC00" font-family="Open Sans,Avenir,Nunito,Arial,Helvetica,SansSerif" font-size="11.4583" lengthAdjust="spacing" textLength="298.9583" x="30.2083" y="265.8671">T get(String key, StringConverter&lt;T&gt;, T defaultValue)</text><ellipse cx="18.75" cy="278.7008" fill="#84BE84" rx="3.125" ry="3.125" style="stroke:#038048;stroke-width:1.0416666666666667;"/><text fill="#D8BC00" font-family="Open Sans,Avenir,Nunito,Arial,Helvetica,SansSerif" font-size="11.4583" lengthAdjust="spacing" textLength="213.5417" x="30.2083" y="285.612">T get(String key, StringConverter&lt;T&gt;)</text><ellipse cx="18.75" cy="322.3572" fill="#84BE84" rx="3.125" ry="3.125" style="stroke:#038048;stroke-width:1.0416666666666667;"/><text fill="#D8BC00" font-family="Open Sans,Avenir,Nunito,Arial,Helvetica,SansSerif" font-size="11.4583" lengthAdjust="spacing" textLength="232.2917" x="30.2083" y="329.2684">void addProperties(Object, PropertyFilter)</text><ellipse cx="18.75" cy="342.1021" fill="#84BE84" rx="3.125" ry="3.125" style="stroke:#038048;stroke-width:1.0416666666666667;"/><text fill="#D8BC00" font-family="Open Sans,Avenir,Nunito,Arial,Helvetica,SansSerif" font-size="11.4583" lengthAdjust="spacing" textLength="284.375" x="30.2083" y="349.0133">PropertyMap comment(String key, String comment)</text><ellipse cx="18.75" cy="361.8469" fill="#84BE84" rx="3.125" ry="3.125" style="stroke:#038048;stroke-width:1.0416666666666667;"/><text fill="#D8BC00" font-family="Open Sans,Avenir,Nunito,Arial,Helvetica,SansSerif" font-size="11.4583" lengthAdjust="spacing" textLength="306.25" x="30.2083" y="368.7581">PropertyMap expandedWith(VariableMap&lt;String&gt; that)</text><ellipse cx="18.75" cy="381.5918" fill="#84BE84" rx="3.125" ry="3.125" style="stroke:#038048;stroke-width:1.0416666666666667;"/><text fill="#D8BC00" font-family="Open Sans,Avenir,Nunito,Arial,Helvetica,SansSerif" font-size="11.4583" lengthAdjust="spacing" textLength="571.875" x="30.2083" y="388.503">PropertyMap loadLocalizedPropertyMap(Listener, PackagePath, Locale, LocaleLanguage languageName)</text><ellipse cx="18.75" cy="401.3367" fill="#84BE84" rx="3.125" ry="3.125" style="stroke:#038048;stroke-width:1.0416666666666667;"/><text fill="#D8BC00" font-family="Open Sans,Avenir,Nunito,Arial,Helvetica,SansSerif" font-size="11.4583" lengthAdjust="spacing" textLength="295.8333" x="30.2083" y="408.2479">PropertyMap loadPropertyMap(Listener, InputStream)</text><ellipse cx="18.75" cy="421.0815" fill="#84BE84" rx="3.125" ry="3.125" style="stroke:#038048;stroke-width:1.0416666666666667;"/><text fill="#D8BC00" font-family="Open Sans,Avenir,Nunito,Arial,Helvetica,SansSerif" font-size="11.4583" lengthAdjust="spacing" textLength="407.2917" x="30.2083" y="427.9928">PropertyMap loadPropertyMap(Listener, ResourceFolder&lt;?&gt;, String path)</text><ellipse cx="18.75" cy="440.8264" fill="#84BE84" rx="3.125" ry="3.125" style="stroke:#038048;stroke-width:1.0416666666666667;"/><text fill="#D8BC00" font-family="Open Sans,Avenir,Nunito,Arial,Helvetica,SansSerif" font-size="11.4583" lengthAdjust="spacing" textLength="280.2083" x="30.2083" y="447.7376">PropertyMap loadPropertyMap(Listener, Resource)</text><ellipse cx="18.75" cy="460.5713" fill="#84BE84" rx="3.125" ry="3.125" style="stroke:#038048;stroke-width:1.0416666666666667;"/><text fill="#D8BC00" font-family="Open Sans,Avenir,Nunito,Arial,Helvetica,SansSerif" font-size="11.4583" lengthAdjust="spacing" textLength="154.1667" x="30.2083" y="467.4825">PropertyMap propertyMap()</text><ellipse cx="18.75" cy="480.3162" fill="#84BE84" rx="3.125" ry="3.125" style="stroke:#038048;stroke-width:1.0416666666666667;"/><text fill="#D8BC00" font-family="Open Sans,Avenir,Nunito,Arial,Helvetica,SansSerif" font-size="11.4583" lengthAdjust="spacing" textLength="327.0833" x="30.2083" y="487.2274">PropertyMap propertyMap(VariableMap&lt;String&gt; variables)</text><line style="stroke:#5E5E5E;stroke-width:1.0416666666666667;" x1="8.3333" x2="275" y1="305.1931" y2="305.1931"/><text fill="#D8BC00" font-family="Open Sans,Avenir,Nunito,Arial,Helvetica,SansSerif" font-size="11.4583" lengthAdjust="spacing" textLength="62.5" x="278.125" y="309.0027">(collection)</text><line style="stroke:#5E5E5E;stroke-width:1.0416666666666667;" x1="343.75" x2="610.4167" y1="305.1931" y2="305.1931"/><ellipse cx="18.75" cy="523.9726" fill="#84BE84" rx="3.125" ry="3.125" style="stroke:#038048;stroke-width:1.0416666666666667;"/><text fill="#D8BC00" font-family="Open Sans,Avenir,Nunito,Arial,Helvetica,SansSerif" font-size="11.4583" lengthAdjust="spacing" textLength="116.6667" x="30.2083" y="530.8838">File asFile(String key)</text><ellipse cx="18.75" cy="543.7174" fill="#84BE84" rx="3.125" ry="3.125" style="stroke:#038048;stroke-width:1.0416666666666667;"/><text fill="#D8BC00" font-family="Open Sans,Avenir,Nunito,Arial,Helvetica,SansSerif" font-size="11.4583" lengthAdjust="spacing" textLength="150" x="30.2083" y="550.6287">Folder asFolder(String key)</text><ellipse cx="18.75" cy="563.4623" fill="#84BE84" rx="3.125" ry="3.125" style="stroke:#038048;stroke-width:1.0416666666666667;"/><text fill="#D8BC00" font-family="Open Sans,Avenir,Nunito,Arial,Helvetica,SansSerif" font-size="11.4583" lengthAdjust="spacing" textLength="81.25" x="30.2083" y="570.3735">String asJson()</text><line style="stroke:#5E5E5E;stroke-width:1.0416666666666667;" x1="8.3333" x2="270.8333" y1="506.8085" y2="506.8085"/><text fill="#D8BC00" font-family="Open Sans,Avenir,Nunito,Arial,Helvetica,SansSerif" font-size="11.4583" lengthAdjust="spacing" textLength="70.8333" x="273.9583" y="510.6181">(conversion)</text><line style="stroke:#5E5E5E;stroke-width:1.0416666666666667;" x1="347.9167" x2="610.4167" y1="506.8085" y2="506.8085"/><ellipse cx="18.75" cy="607.1187" fill="#84BE84" rx="3.125" ry="3.125" style="stroke:#038048;stroke-width:1.0416666666666667;"/><text fill="#D8BC00" font-family="Open Sans,Avenir,Nunito,Arial,Helvetica,SansSerif" font-size="11.4583" lengthAdjust="spacing" textLength="244.7917" x="30.2083" y="614.0299">void save(WritableResource, String heading)</text><ellipse cx="18.75" cy="626.8636" fill="#84BE84" rx="3.125" ry="3.125" style="stroke:#038048;stroke-width:1.0416666666666667;"/><text fill="#D8BC00" font-family="Open Sans,Avenir,Nunito,Arial,Helvetica,SansSerif" font-size="11.4583" lengthAdjust="spacing" textLength="157.2917" x="30.2083" y="633.7748">void save(WritableResource)</text><line style="stroke:#5E5E5E;stroke-width:1.0416666666666667;" x1="8.3333" x2="288.5417" y1="589.9546" y2="589.9546"/><text fill="#D8BC00" font-family="Open Sans,Avenir,Nunito,Arial,Helvetica,SansSerif" font-size="11.4583" lengthAdjust="spacing" textLength="35.4167" x="291.6667" y="593.7642">(write)</text><line style="stroke:#5E5E5E;stroke-width:1.0416666666666667;" x1="330.2083" x2="610.4167" y1="589.9546" y2="589.9546"/><path codeLine="7" d="M309.375,123.984 C309.375,135.682 309.375,149.1195 309.375,163.6299 " fill="none" id="VariableMap-backto-PropertyMap" style="stroke:#545454;stroke-width:1.5625;"/><polygon fill="none" points="302.0833,124.4111,309.375,103.5778,316.6667,124.4111,302.0833,124.4111" style="stroke:#545454;stroke-width:1.5625;"/></g></svg>

