<?xml version="1.0" encoding="UTF-8" standalone="no"?><svg xmlns="http://www.w3.org/2000/svg" xmlns:xlink="http://www.w3.org/1999/xlink" contentScriptType="application/ecmascript" contentStyleType="text/css" height="218.75px" preserveAspectRatio="none" style="width:412px;height:218px;background:#333333;" version="1.1" viewBox="0 0 412 218" width="412.5px" zoomAndPan="magnify"><defs/><g><rect fill="#48494B" height="41.2028" rx="8.3333" ry="8.3333" style="stroke:#545454;stroke-width:1.0416666666666667;" width="400" x="2.0833" y="2.0833"/><text fill="#C0C0C0" font-family="Open Sans,Avenir,Nunito,Arial,Helvetica,SansSerif" font-size="20.8333" lengthAdjust="spacing" textLength="377.0833" x="13.5417" y="30.5583">com.telenav.kivakit.extraction.lexakai</text><rect codeLine="7" fill="#282828" height="48.055" id="UmlDiagramIdentifier" rx="8.3333" ry="8.3333" style="stroke:#5E5E5E;stroke-width:1.0416666666666667;" width="178.125" x="120.3125" y="53.7028"/><rect fill="#1B1B1A" height="31.3883" rx="8.3333" ry="8.3333" style="stroke:#1B1B1A;stroke-width:1.0416666666666667;" width="178.125" x="120.3125" y="53.7028"/><rect fill="#1B1B1A" height="8.3333" style="stroke:#1B1B1A;stroke-width:1.0416666666666667;" width="178.125" x="120.3125" y="76.7578"/><rect codeLine="7" fill="none" height="48.055" id="UmlDiagramIdentifier" rx="8.3333" ry="8.3333" style="stroke:#5E5E5E;stroke-width:1.0416666666666667;" width="178.125" x="120.3125" y="53.7028"/><ellipse cx="134.8958" cy="69.397" fill="#008400" rx="10.4167" ry="10.4167" style="stroke:#239C23;stroke-width:1.0416666666666667;"/><path d="M132.2998,66.5588 L132.2998,64.9719 L137.7258,64.9719 L137.7258,66.5588 L135.9131,66.5588 L135.9131,72.4976 L137.7258,72.4976 L137.7258,74.0845 L132.2998,74.0845 L132.2998,72.4976 L134.1125,72.4976 L134.1125,66.5588 Z " fill="#000000"/><text fill="#D8BC00" font-family="Open Sans,Avenir,Nunito,Arial,Helvetica,SansSerif" font-size="12.5" font-style="italic" font-weight="bold" lengthAdjust="spacing" textLength="140.625" x="151.5625" y="74.1211">UmlDiagramIdentifier</text><line style="stroke:#5E5E5E;stroke-width:1.0416666666666667;" x1="121.3542" x2="297.3958" y1="85.0911" y2="85.0911"/><line style="stroke:#5E5E5E;stroke-width:1.0416666666666667;" x1="121.3542" x2="297.3958" y1="93.4245" y2="93.4245"/><rect codeLine="10" fill="#282828" height="48.055" id="DiagramExtraction" rx="8.3333" ry="8.3333" style="stroke:#5E5E5E;stroke-width:1.0416666666666667;" width="157.2917" x="130.7292" y="164.1195"/><rect fill="#1B1B1A" height="31.3883" rx="8.3333" ry="8.3333" style="stroke:#1B1B1A;stroke-width:1.0416666666666667;" width="157.2917" x="130.7292" y="164.1195"/><rect fill="#1B1B1A" height="8.3333" style="stroke:#1B1B1A;stroke-width:1.0416666666666667;" width="157.2917" x="130.7292" y="187.1745"/><rect codeLine="10" fill="none" height="48.055" id="DiagramExtraction" rx="8.3333" ry="8.3333" style="stroke:#5E5E5E;stroke-width:1.0416666666666667;" width="157.2917" x="130.7292" y="164.1195"/><ellipse cx="145.3125" cy="179.8136" fill="#0066CF" rx="10.4167" ry="10.4167" style="stroke:#0086EF;stroke-width:1.0416666666666667;"/><path d="M147.2229,184.2387 Q146.7957,184.4584 146.3257,184.5683 Q145.8557,184.6781 145.3369,184.6781 Q143.4937,184.6781 142.5232,183.4635 Q141.5527,182.2489 141.5527,179.954 Q141.5527,177.653 142.5232,176.4384 Q143.4937,175.2238 145.3369,175.2238 Q145.8557,175.2238 146.3318,175.3337 Q146.8079,175.4435 147.2229,175.6632 L147.2229,177.6652 Q146.759,177.238 146.3226,177.0396 Q145.8862,176.8412 145.4224,176.8412 Q144.4336,176.8412 143.9301,177.6255 Q143.4265,178.4098 143.4265,179.954 Q143.4265,181.4921 143.9301,182.2764 Q144.4336,183.0607 145.4224,183.0607 Q145.8862,183.0607 146.3226,182.8623 Q146.759,182.664 147.2229,182.2367 Z " fill="#000000"/><text fill="#D8BC00" font-family="Open Sans,Avenir,Nunito,Arial,Helvetica,SansSerif" font-size="12.5" font-weight="bold" lengthAdjust="spacing" textLength="119.7917" x="161.9792" y="184.5378">DiagramExtraction</text><line style="stroke:#5E5E5E;stroke-width:1.0416666666666667;" x1="131.7708" x2="286.9792" y1="195.5078" y2="195.5078"/><line style="stroke:#5E5E5E;stroke-width:1.0416666666666667;" x1="131.7708" x2="286.9792" y1="203.8411" y2="203.8411"/><path codeLine="9" d="M209.375,122.6195 C209.375,136.8382 209.375,152.0361 209.375,164.0986 " fill="none" id="UmlDiagramIdentifier-backto-DiagramExtraction" style="stroke:#545454;stroke-width:1.5625;"/><polygon fill="none" points="202.0833,122.5153,209.375,101.682,216.6667,122.5153,202.0833,122.5153" style="stroke:#545454;stroke-width:1.5625;"/></g></svg>
