<?xml version="1.0" encoding="UTF-8" standalone="no"?><svg xmlns="http://www.w3.org/2000/svg" xmlns:xlink="http://www.w3.org/1999/xlink" contentScriptType="application/ecmascript" contentStyleType="text/css" height="546.875px" preserveAspectRatio="none" style="width:1211px;height:546px;background:#333333;" version="1.1" viewBox="0 0 1211 546" width="1211.4583px" zoomAndPan="magnify"><defs/><g><rect fill="#48494B" height="41.2028" rx="8.3333" ry="8.3333" style="stroke:#545454;stroke-width:1.0416666666666667;" width="419.7917" x="388.5417" y="2.0833"/><text fill="#C0C0C0" font-family="Open Sans,Avenir,Nunito,Arial,Helvetica,SansSerif" font-size="20.8333" lengthAdjust="spacing" textLength="396.875" x="400" y="30.5583">com.telenav.kivakit.network.http.secure</text><!--MD5=[8df819f5e81fc3610da04e695e451461]
cluster SecureHttpNetworkLocation--><polygon fill="#333333" points="16.6667,167.7653,208.3333,167.7653,215.625,194.987,228.125,194.987,228.125,325.057,16.6667,325.057,16.6667,167.7653" style="stroke:#333333;stroke-width:2.0833333333333335;"/><line style="stroke:#333333;stroke-width:2.0833333333333335;" x1="16.6667" x2="215.625" y1="194.987" y2="194.987"/><text fill="#C8AC00" font-family="Open Sans,Avenir,Nunito,Arial,Helvetica,SansSerif" font-size="12.5" font-weight="bold" lengthAdjust="spacing" textLength="179.1667" x="23.9583" y="185.0586">SecureHttpNetworkLocation</text><!--MD5=[a53e6068d0f21a7133b5b21f48e8694a]
class SecureHttpNetworkLocation.Converter--><rect codeLine="10" fill="#282828" height="83.3781" id="SecureHttpNetworkLocation.Converter" rx="8.3333" ry="8.3333" style="stroke:#5E5E5E;stroke-width:1.0416666666666667;" width="141.6667" x="61.4583" y="216.7236"/><rect fill="#1B1B1A" height="31.3883" rx="8.3333" ry="8.3333" style="stroke:#1B1B1A;stroke-width:1.0416666666666667;" width="141.6667" x="61.4583" y="216.7236"/><rect fill="#1B1B1A" height="8.3333" style="stroke:#1B1B1A;stroke-width:1.0416666666666667;" width="141.6667" x="61.4583" y="239.7786"/><rect codeLine="10" fill="none" height="83.3781" id="SecureHttpNetworkLocation.Converter" rx="8.3333" ry="8.3333" style="stroke:#5E5E5E;stroke-width:1.0416666666666667;" width="141.6667" x="61.4583" y="216.7236"/><ellipse cx="94.3229" cy="232.4178" fill="#0066CF" rx="10.4167" ry="10.4167" style="stroke:#0086EF;stroke-width:1.0416666666666667;"/><path d="M96.2333,236.8429 Q95.8061,237.0626 95.3361,237.1724 Q94.8661,237.2823 94.3473,237.2823 Q92.5041,237.2823 91.5336,236.0677 Q90.5632,234.8531 90.5632,232.5582 Q90.5632,230.2572 91.5336,229.0426 Q92.5041,227.828 94.3473,227.828 Q94.8661,227.828 95.3422,227.9378 Q95.8183,228.0477 96.2333,228.2674 L96.2333,230.2694 Q95.7694,229.8421 95.333,229.6438 Q94.8966,229.4454 94.4328,229.4454 Q93.444,229.4454 92.9405,230.2297 Q92.4369,231.014 92.4369,232.5582 Q92.4369,234.0963 92.9405,234.8806 Q93.444,235.6649 94.4328,235.6649 Q94.8966,235.6649 95.333,235.4665 Q95.7694,235.2681 96.2333,234.8409 Z " fill="#000000"/><text fill="#D8BC00" font-family="Open Sans,Avenir,Nunito,Arial,Helvetica,SansSerif" font-size="12.5" font-weight="bold" lengthAdjust="spacing" textLength="63.5417" x="115.0521" y="237.1419">Converter</text><line style="stroke:#5E5E5E;stroke-width:1.5625;" x1="62.5" x2="202.0833" y1="248.112" y2="248.112"/><ellipse cx="72.9167" cy="283.4819" fill="#84BE84" rx="3.125" ry="3.125" style="stroke:#038048;stroke-width:1.0416666666666667;"/><text fill="#D8BC00" font-family="Open Sans,Avenir,Nunito,Arial,Helvetica,SansSerif" font-size="11.4583" lengthAdjust="spacing" textLength="109.375" x="84.375" y="290.3931">Converter(Listener)</text><line style="stroke:#5E5E5E;stroke-width:1.0416666666666667;" x1="62.5" x2="88.5417" y1="266.3177" y2="266.3177"/><text fill="#D8BC00" font-family="Open Sans,Avenir,Nunito,Arial,Helvetica,SansSerif" font-size="11.4583" lengthAdjust="spacing" textLength="81.25" x="91.6667" y="270.1274">(constructors)</text><line style="stroke:#5E5E5E;stroke-width:1.0416666666666667;" x1="176.0417" x2="202.0833" y1="266.3177" y2="266.3177"/><!--MD5=[9aa687ed59f428548907e723dba1087a]
class BaseStringConverter--><rect codeLine="7" fill="#282828" height="48.055" id="BaseStringConverter" rx="8.3333" ry="8.3333" style="stroke:#5E5E5E;stroke-width:1.0416666666666667;" width="169.7917" x="47.3958" y="53.7028"/><rect fill="#1B1B1A" height="31.3883" rx="8.3333" ry="8.3333" style="stroke:#1B1B1A;stroke-width:1.0416666666666667;" width="169.7917" x="47.3958" y="53.7028"/><rect fill="#1B1B1A" height="8.3333" style="stroke:#1B1B1A;stroke-width:1.0416666666666667;" width="169.7917" x="47.3958" y="76.7578"/><rect codeLine="7" fill="none" height="48.055" id="BaseStringConverter" rx="8.3333" ry="8.3333" style="stroke:#5E5E5E;stroke-width:1.0416666666666667;" width="169.7917" x="47.3958" y="53.7028"/><ellipse cx="61.9792" cy="69.397" fill="#C8AC00" rx="10.4167" ry="10.4167" style="stroke:#D8BC00;stroke-width:1.0416666666666667;"/><path d="M61.5723,66.099 L60.7239,69.8283 L62.4268,69.8283 Z M60.4736,64.4511 L62.677,64.4511 L65.1367,73.5636 L63.3362,73.5636 L62.7747,71.3114 L60.3638,71.3114 L59.8145,73.5636 L58.0139,73.5636 Z " fill="#000000"/><text fill="#D8BC00" font-family="Open Sans,Avenir,Nunito,Arial,Helvetica,SansSerif" font-size="12.5" font-style="italic" font-weight="bold" lengthAdjust="spacing" textLength="132.2917" x="78.6458" y="74.1211">BaseStringConverter</text><line style="stroke:#5E5E5E;stroke-width:1.0416666666666667;" x1="48.4375" x2="216.1458" y1="85.0911" y2="85.0911"/><line style="stroke:#5E5E5E;stroke-width:1.0416666666666667;" x1="48.4375" x2="216.1458" y1="93.4245" y2="93.4245"/><!--MD5=[fad6ba2768857d695f61116a5bf9c0eb]
class HttpGetResource--><rect fill="#282828" height="48.055" id="HttpGetResource" rx="8.3333" ry="8.3333" style="stroke:#5E5E5E;stroke-width:1.0416666666666667;" width="145.8333" x="253.125" y="234.432"/><rect fill="#1B1B1A" height="31.3883" rx="8.3333" ry="8.3333" style="stroke:#1B1B1A;stroke-width:1.0416666666666667;" width="145.8333" x="253.125" y="234.432"/><rect fill="#1B1B1A" height="8.3333" style="stroke:#1B1B1A;stroke-width:1.0416666666666667;" width="145.8333" x="253.125" y="257.487"/><rect fill="none" height="48.055" id="HttpGetResource" rx="8.3333" ry="8.3333" style="stroke:#5E5E5E;stroke-width:1.0416666666666667;" width="145.8333" x="253.125" y="234.432"/><ellipse cx="267.7083" cy="250.1261" fill="#0066CF" rx="10.4167" ry="10.4167" style="stroke:#0086EF;stroke-width:1.0416666666666667;"/><path d="M269.6187,254.5512 Q269.1915,254.7709 268.7215,254.8808 Q268.2515,254.9906 267.7327,254.9906 Q265.8895,254.9906 264.919,253.776 Q263.9486,252.5614 263.9486,250.2665 Q263.9486,247.9655 264.919,246.7509 Q265.8895,245.5363 267.7327,245.5363 Q268.2515,245.5363 268.7276,245.6462 Q269.2037,245.756 269.6187,245.9757 L269.6187,247.9777 Q269.1549,247.5505 268.7185,247.3521 Q268.2821,247.1537 267.8182,247.1537 Q266.8294,247.1537 266.3259,247.938 Q265.8223,248.7223 265.8223,250.2665 Q265.8223,251.8046 266.3259,252.5889 Q266.8294,253.3732 267.8182,253.3732 Q268.2821,253.3732 268.7185,253.1748 Q269.1549,252.9765 269.6187,252.5492 Z " fill="#000000"/><text fill="#D8BC00" font-family="Open Sans,Avenir,Nunito,Arial,Helvetica,SansSerif" font-size="12.5" font-weight="bold" lengthAdjust="spacing" textLength="108.3333" x="284.375" y="254.8503">HttpGetResource</text><line style="stroke:#5E5E5E;stroke-width:1.0416666666666667;" x1="254.1667" x2="397.9167" y1="265.8203" y2="265.8203"/><line style="stroke:#5E5E5E;stroke-width:1.0416666666666667;" x1="254.1667" x2="397.9167" y1="274.1536" y2="274.1536"/><!--MD5=[7c117b586cff559e9ad9e915c29285a9]
class SecureHttpGetResource--><rect codeLine="17" fill="#282828" height="103.123" id="SecureHttpGetResource" rx="8.3333" ry="8.3333" style="stroke:#5E5E5E;stroke-width:1.0416666666666667;" width="485.4167" x="140.625" y="437.0361"/><rect fill="#1B1B1A" height="31.3883" rx="8.3333" ry="8.3333" style="stroke:#1B1B1A;stroke-width:1.0416666666666667;" width="485.4167" x="140.625" y="437.0361"/><rect fill="#1B1B1A" height="8.3333" style="stroke:#1B1B1A;stroke-width:1.0416666666666667;" width="485.4167" x="140.625" y="460.0911"/><rect codeLine="17" fill="none" height="103.123" id="SecureHttpGetResource" rx="8.3333" ry="8.3333" style="stroke:#5E5E5E;stroke-width:1.0416666666666667;" width="485.4167" x="140.625" y="437.0361"/><ellipse cx="301.0417" cy="452.7303" fill="#0066CF" rx="10.4167" ry="10.4167" style="stroke:#0086EF;stroke-width:1.0416666666666667;"/><path d="M302.9521,457.1554 Q302.5248,457.3751 302.0549,457.4849 Q301.5849,457.5948 301.0661,457.5948 Q299.2228,457.5948 298.2524,456.3802 Q297.2819,455.1656 297.2819,452.8707 Q297.2819,450.5697 298.2524,449.3551 Q299.2228,448.1405 301.0661,448.1405 Q301.5849,448.1405 302.061,448.2503 Q302.537,448.3602 302.9521,448.5799 L302.9521,450.5819 Q302.4882,450.1546 302.0518,449.9563 Q301.6154,449.7579 301.1515,449.7579 Q300.1628,449.7579 299.6592,450.5422 Q299.1557,451.3265 299.1557,452.8707 Q299.1557,454.4088 299.6592,455.1931 Q300.1628,455.9774 301.1515,455.9774 Q301.6154,455.9774 302.0518,455.779 Q302.4882,455.5806 302.9521,455.1534 Z " fill="#000000"/><text fill="#D8BC00" font-family="Open Sans,Avenir,Nunito,Arial,Helvetica,SansSerif" font-size="12.5" font-weight="bold" lengthAdjust="spacing" textLength="150" x="323.9583" y="457.4544">SecureHttpGetResource</text><line style="stroke:#5E5E5E;stroke-width:1.5625;" x1="141.6667" x2="625" y1="468.4245" y2="468.4245"/><ellipse cx="152.0833" cy="503.7944" fill="#84BE84" rx="3.125" ry="3.125" style="stroke:#038048;stroke-width:1.0416666666666667;"/><text fill="#D8BC00" font-family="Open Sans,Avenir,Nunito,Arial,Helvetica,SansSerif" font-size="11.4583" lengthAdjust="spacing" textLength="295.8333" x="163.5417" y="510.7056">SecureHttpGetResource(SecureHttpNetworkLocation)</text><ellipse cx="152.0833" cy="523.5392" fill="#84BE84" rx="3.125" ry="3.125" style="stroke:#038048;stroke-width:1.0416666666666667;"/><text fill="#D8BC00" font-family="Open Sans,Avenir,Nunito,Arial,Helvetica,SansSerif" font-size="11.4583" lengthAdjust="spacing" textLength="453.125" x="163.5417" y="530.4504">SecureHttpGetResource(SecureHttpNetworkLocation, NetworkAccessConstraints)</text><line style="stroke:#5E5E5E;stroke-width:1.0416666666666667;" x1="141.6667" x2="339.5833" y1="486.6302" y2="486.6302"/><text fill="#D8BC00" font-family="Open Sans,Avenir,Nunito,Arial,Helvetica,SansSerif" font-size="11.4583" lengthAdjust="spacing" textLength="81.25" x="342.7083" y="490.4399">(constructors)</text><line style="stroke:#5E5E5E;stroke-width:1.0416666666666667;" x1="427.0833" x2="625" y1="486.6302" y2="486.6302"/><!--MD5=[141e7cec292b27cdb82c0916bd340d3c]
class HttpNetworkLocation--><rect fill="#282828" height="48.055" id="HttpNetworkLocation" rx="8.3333" ry="8.3333" style="stroke:#5E5E5E;stroke-width:1.0416666666666667;" width="175" x="596.875" y="53.7028"/><rect fill="#1B1B1A" height="31.3883" rx="8.3333" ry="8.3333" style="stroke:#1B1B1A;stroke-width:1.0416666666666667;" width="175" x="596.875" y="53.7028"/><rect fill="#1B1B1A" height="8.3333" style="stroke:#1B1B1A;stroke-width:1.0416666666666667;" width="175" x="596.875" y="76.7578"/><rect fill="none" height="48.055" id="HttpNetworkLocation" rx="8.3333" ry="8.3333" style="stroke:#5E5E5E;stroke-width:1.0416666666666667;" width="175" x="596.875" y="53.7028"/><ellipse cx="611.4583" cy="69.397" fill="#0066CF" rx="10.4167" ry="10.4167" style="stroke:#0086EF;stroke-width:1.0416666666666667;"/><path d="M613.3687,73.822 Q612.9415,74.0417 612.4715,74.1516 Q612.0015,74.2615 611.4827,74.2615 Q609.6395,74.2615 608.669,73.0469 Q607.6986,71.8323 607.6986,69.5374 Q607.6986,67.2363 608.669,66.0217 Q609.6395,64.8071 611.4827,64.8071 Q612.0015,64.8071 612.4776,64.917 Q612.9537,65.0269 613.3687,65.2466 L613.3687,67.2485 Q612.9049,66.8213 612.4685,66.6229 Q612.0321,66.4246 611.5682,66.4246 Q610.5794,66.4246 610.0759,67.2089 Q609.5723,67.9932 609.5723,69.5374 Q609.5723,71.0754 610.0759,71.8597 Q610.5794,72.644 611.5682,72.644 Q612.0321,72.644 612.4685,72.4457 Q612.9049,72.2473 613.3687,71.8201 Z " fill="#000000"/><text fill="#D8BC00" font-family="Open Sans,Avenir,Nunito,Arial,Helvetica,SansSerif" font-size="12.5" font-weight="bold" lengthAdjust="spacing" textLength="137.5" x="628.125" y="74.1211">HttpNetworkLocation</text><line style="stroke:#5E5E5E;stroke-width:1.0416666666666667;" x1="597.9167" x2="770.8333" y1="85.0911" y2="85.0911"/><line style="stroke:#5E5E5E;stroke-width:1.0416666666666667;" x1="597.9167" x2="770.8333" y1="93.4245" y2="93.4245"/><!--MD5=[bd7a994f41277c0d52085b20a0f733a0]
class SecureHttpPostResource--><rect codeLine="39" fill="#282828" height="103.123" id="SecureHttpPostResource" rx="8.3333" ry="8.3333" style="stroke:#5E5E5E;stroke-width:1.0416666666666667;" width="429.1667" x="775" y="437.0361"/><rect fill="#1B1B1A" height="31.3883" rx="8.3333" ry="8.3333" style="stroke:#1B1B1A;stroke-width:1.0416666666666667;" width="429.1667" x="775" y="437.0361"/><rect fill="#1B1B1A" height="8.3333" style="stroke:#1B1B1A;stroke-width:1.0416666666666667;" width="429.1667" x="775" y="460.0911"/><rect codeLine="39" fill="none" height="103.123" id="SecureHttpPostResource" rx="8.3333" ry="8.3333" style="stroke:#5E5E5E;stroke-width:1.0416666666666667;" width="429.1667" x="775" y="437.0361"/><ellipse cx="904.1667" cy="452.7303" fill="#0066CF" rx="10.4167" ry="10.4167" style="stroke:#0086EF;stroke-width:1.0416666666666667;"/><path d="M906.0771,457.1554 Q905.6498,457.3751 905.1799,457.4849 Q904.7099,457.5948 904.1911,457.5948 Q902.3478,457.5948 901.3774,456.3802 Q900.4069,455.1656 900.4069,452.8707 Q900.4069,450.5697 901.3774,449.3551 Q902.3478,448.1405 904.1911,448.1405 Q904.7099,448.1405 905.186,448.2503 Q905.662,448.3602 906.0771,448.5799 L906.0771,450.5819 Q905.6132,450.1546 905.1768,449.9563 Q904.7404,449.7579 904.2765,449.7579 Q903.2878,449.7579 902.7842,450.5422 Q902.2807,451.3265 902.2807,452.8707 Q902.2807,454.4088 902.7842,455.1931 Q903.2878,455.9774 904.2765,455.9774 Q904.7404,455.9774 905.1768,455.779 Q905.6132,455.5806 906.0771,455.1534 Z " fill="#000000"/><text fill="#D8BC00" font-family="Open Sans,Avenir,Nunito,Arial,Helvetica,SansSerif" font-size="12.5" font-weight="bold" lengthAdjust="spacing" textLength="156.25" x="927.0833" y="457.4544">SecureHttpPostResource</text><line style="stroke:#5E5E5E;stroke-width:1.5625;" x1="776.0417" x2="1203.125" y1="468.4245" y2="468.4245"/><ellipse cx="786.4583" cy="503.7944" fill="#84BE84" rx="3.125" ry="3.125" style="stroke:#038048;stroke-width:1.0416666666666667;"/><text fill="#D8BC00" font-family="Open Sans,Avenir,Nunito,Arial,Helvetica,SansSerif" font-size="11.4583" lengthAdjust="spacing" textLength="396.875" x="797.9167" y="510.7056">SecureHttpPostResource(NetworkLocation, NetworkAccessConstraints)</text><ellipse cx="786.4583" cy="523.5392" fill="#84BE84" rx="3.125" ry="3.125" style="stroke:#038048;stroke-width:1.0416666666666667;"/><text fill="#D8BC00" font-family="Open Sans,Avenir,Nunito,Arial,Helvetica,SansSerif" font-size="11.4583" lengthAdjust="spacing" textLength="301.0417" x="797.9167" y="530.4504">SecureHttpPostResource(SecureHttpNetworkLocation)</text><line style="stroke:#5E5E5E;stroke-width:1.0416666666666667;" x1="776.0417" x2="945.8333" y1="486.6302" y2="486.6302"/><text fill="#D8BC00" font-family="Open Sans,Avenir,Nunito,Arial,Helvetica,SansSerif" font-size="11.4583" lengthAdjust="spacing" textLength="81.25" x="948.9583" y="490.4399">(constructors)</text><line style="stroke:#5E5E5E;stroke-width:1.0416666666666667;" x1="1033.3333" x2="1203.125" y1="486.6302" y2="486.6302"/><!--MD5=[1faf439c9bfb39542e17a40ecd42e819]
class SecureHttpNetworkLocation--><rect codeLine="27" fill="#282828" height="186.2691" id="SecureHttpNetworkLocation" rx="8.3333" ry="8.3333" style="stroke:#5E5E5E;stroke-width:1.0416666666666667;" width="497.9167" x="435.4167" y="165.1611"/><rect fill="#1B1B1A" height="31.3883" rx="8.3333" ry="8.3333" style="stroke:#1B1B1A;stroke-width:1.0416666666666667;" width="497.9167" x="435.4167" y="165.1611"/><rect fill="#1B1B1A" height="8.3333" style="stroke:#1B1B1A;stroke-width:1.0416666666666667;" width="497.9167" x="435.4167" y="188.2161"/><rect codeLine="27" fill="none" height="186.2691" id="SecureHttpNetworkLocation" rx="8.3333" ry="8.3333" style="stroke:#5E5E5E;stroke-width:1.0416666666666667;" width="497.9167" x="435.4167" y="165.1611"/><ellipse cx="587.5" cy="180.8553" fill="#0066CF" rx="10.4167" ry="10.4167" style="stroke:#0086EF;stroke-width:1.0416666666666667;"/><path d="M589.4104,185.2804 Q588.9832,185.5001 588.5132,185.6099 Q588.0432,185.7198 587.5244,185.7198 Q585.6812,185.7198 584.7107,184.5052 Q583.7402,183.2906 583.7402,180.9957 Q583.7402,178.6947 584.7107,177.4801 Q585.6812,176.2655 587.5244,176.2655 Q588.0432,176.2655 588.5193,176.3753 Q588.9954,176.4852 589.4104,176.7049 L589.4104,178.7069 Q588.9465,178.2796 588.5101,178.0813 Q588.0737,177.8829 587.6099,177.8829 Q586.6211,177.8829 586.1176,178.6672 Q585.614,179.4515 585.614,180.9957 Q585.614,182.5338 586.1176,183.3181 Q586.6211,184.1024 587.6099,184.1024 Q588.0737,184.1024 588.5101,183.904 Q588.9465,183.7056 589.4104,183.2784 Z " fill="#000000"/><text fill="#D8BC00" font-family="Open Sans,Avenir,Nunito,Arial,Helvetica,SansSerif" font-size="12.5" font-weight="bold" lengthAdjust="spacing" textLength="179.1667" x="610.4167" y="185.5794">SecureHttpNetworkLocation</text><line style="stroke:#5E5E5E;stroke-width:1.5625;" x1="436.4583" x2="932.2917" y1="196.5495" y2="196.5495"/><ellipse cx="446.875" cy="231.9194" fill="#84BE84" rx="3.125" ry="3.125" style="stroke:#038048;stroke-width:1.0416666666666667;"/><text fill="#D8BC00" font-family="Open Sans,Avenir,Nunito,Arial,Helvetica,SansSerif" font-size="11.4583" lengthAdjust="spacing" textLength="233.3333" x="458.3333" y="238.8306">SecureHttpNetworkLocation(NetworkPath)</text><ellipse cx="446.875" cy="251.6642" fill="#84BE84" rx="3.125" ry="3.125" style="stroke:#038048;stroke-width:1.0416666666666667;"/><text fill="#D8BC00" font-family="Open Sans,Avenir,Nunito,Arial,Helvetica,SansSerif" font-size="11.4583" lengthAdjust="spacing" textLength="182.2917" x="458.3333" y="258.5754">SecureHttpNetworkLocation(URI)</text><line style="stroke:#5E5E5E;stroke-width:1.0416666666666667;" x1="436.4583" x2="640.625" y1="214.7552" y2="214.7552"/><text fill="#D8BC00" font-family="Open Sans,Avenir,Nunito,Arial,Helvetica,SansSerif" font-size="11.4583" lengthAdjust="spacing" textLength="81.25" x="643.75" y="218.5649">(constructors)</text><line style="stroke:#5E5E5E;stroke-width:1.0416666666666667;" x1="728.125" x2="932.2917" y1="214.7552" y2="214.7552"/><ellipse cx="446.875" cy="295.3206" fill="#84BE84" rx="3.125" ry="3.125" style="stroke:#038048;stroke-width:1.0416666666666667;"/><text fill="#D8BC00" font-family="Open Sans,Avenir,Nunito,Arial,Helvetica,SansSerif" font-size="11.4583" lengthAdjust="spacing" textLength="465.625" x="458.3333" y="302.2319">SecureHttpNetworkLocation parseSecureHttpNetworkLocation(Listener, String path)</text><ellipse cx="446.875" cy="315.0655" fill="#84BE84" rx="3.125" ry="3.125" style="stroke:#038048;stroke-width:1.0416666666666667;"/><text fill="#D8BC00" font-family="Open Sans,Avenir,Nunito,Arial,Helvetica,SansSerif" font-size="11.4583" lengthAdjust="spacing" textLength="383.3333" x="458.3333" y="321.9767">SecureHttpNetworkLocation secureHttpNetworkLocation(String path)</text><ellipse cx="446.875" cy="334.8104" fill="#84BE84" rx="3.125" ry="3.125" style="stroke:#038048;stroke-width:1.0416666666666667;"/><text fill="#D8BC00" font-family="Open Sans,Avenir,Nunito,Arial,Helvetica,SansSerif" font-size="11.4583" lengthAdjust="spacing" textLength="391.6667" x="458.3333" y="341.7216">SecureHttpNetworkLocation secureHttpNetworkLocation(NetworkPath)</text><line style="stroke:#5E5E5E;stroke-width:1.0416666666666667;" x1="436.4583" x2="654.6875" y1="278.1565" y2="278.1565"/><text fill="#D8BC00" font-family="Open Sans,Avenir,Nunito,Arial,Helvetica,SansSerif" font-size="11.4583" lengthAdjust="spacing" textLength="53.125" x="657.8125" y="281.9661">(network)</text><line style="stroke:#5E5E5E;stroke-width:1.0416666666666667;" x1="714.0625" x2="932.2917" y1="278.1565" y2="278.1565"/><!--MD5=[1d9e1dbf485c7f50b25d1a9966e9bb48]
class HttpPostResource--><rect fill="#282828" height="48.055" id="HttpPostResource" rx="8.3333" ry="8.3333" style="stroke:#5E5E5E;stroke-width:1.0416666666666667;" width="152.0833" x="969.7917" y="234.432"/><rect fill="#1B1B1A" height="31.3883" rx="8.3333" ry="8.3333" style="stroke:#1B1B1A;stroke-width:1.0416666666666667;" width="152.0833" x="969.7917" y="234.432"/><rect fill="#1B1B1A" height="8.3333" style="stroke:#1B1B1A;stroke-width:1.0416666666666667;" width="152.0833" x="969.7917" y="257.487"/><rect fill="none" height="48.055" id="HttpPostResource" rx="8.3333" ry="8.3333" style="stroke:#5E5E5E;stroke-width:1.0416666666666667;" width="152.0833" x="969.7917" y="234.432"/><ellipse cx="984.375" cy="250.1261" fill="#0066CF" rx="10.4167" ry="10.4167" style="stroke:#0086EF;stroke-width:1.0416666666666667;"/><path d="M986.2854,254.5512 Q985.8582,254.7709 985.3882,254.8808 Q984.9182,254.9906 984.3994,254.9906 Q982.5562,254.9906 981.5857,253.776 Q980.6152,252.5614 980.6152,250.2665 Q980.6152,247.9655 981.5857,246.7509 Q982.5562,245.5363 984.3994,245.5363 Q984.9182,245.5363 985.3943,245.6462 Q985.8704,245.756 986.2854,245.9757 L986.2854,247.9777 Q985.8215,247.5505 985.3851,247.3521 Q984.9487,247.1537 984.4849,247.1537 Q983.4961,247.1537 982.9926,247.938 Q982.489,248.7223 982.489,250.2665 Q982.489,251.8046 982.9926,252.5889 Q983.4961,253.3732 984.4849,253.3732 Q984.9487,253.3732 985.3851,253.1748 Q985.8215,252.9765 986.2854,252.5492 Z " fill="#000000"/><text fill="#D8BC00" font-family="Open Sans,Avenir,Nunito,Arial,Helvetica,SansSerif" font-size="12.5" font-weight="bold" lengthAdjust="spacing" textLength="114.5833" x="1001.0417" y="254.8503">HttpPostResource</text><line style="stroke:#5E5E5E;stroke-width:1.0416666666666667;" x1="970.8333" x2="1120.8333" y1="265.8203" y2="265.8203"/><line style="stroke:#5E5E5E;stroke-width:1.0416666666666667;" x1="970.8333" x2="1120.8333" y1="274.1536" y2="274.1536"/><!--MD5=[99397de180f9dadf4545014b02871b52]
reverse link BaseStringConverter to SecureHttpNetworkLocation.Converter--><path codeLine="9" d="M132.2917,124.109 C132.2917,152.4632 132.2917,188.6924 132.2917,216.2132 " fill="none" id="BaseStringConverter-backto-SecureHttpNetworkLocation.Converter" style="stroke:#545454;stroke-width:1.5625;"/><polygon fill="none" points="125,124.4632,132.2917,103.6299,139.5833,124.4632,125,124.4632" style="stroke:#545454;stroke-width:1.5625;"/><!--MD5=[e3d422820a5c0a0ff4ea7ff864eb4aa5]
reverse link HttpGetResource to SecureHttpGetResource--><path codeLine="16" d="M337.2604,304.0882 C346.8125,342.1507 360.5521,396.859 370.5417,436.6299 " fill="none" id="HttpGetResource-backto-SecureHttpGetResource" style="stroke:#545454;stroke-width:1.5625;"/><polygon fill="none" points="330.2396,306.0674,332.2396,284.0882,344.3854,302.5153,330.2396,306.0674" style="stroke:#545454;stroke-width:1.5625;"/><!--MD5=[0985cc9e497acb77a530189cecc3546d]
reverse link HttpNetworkLocation to SecureHttpNetworkLocation--><path codeLine="24" d="M684.375,124.3903 C684.375,136.8174 684.375,150.7445 684.375,164.7861 " fill="none" id="HttpNetworkLocation-backto-SecureHttpNetworkLocation" style="stroke:#545454;stroke-width:1.5625;"/><polygon fill="none" points="677.0833,124.4632,684.375,103.6299,691.6667,124.4632,677.0833,124.4632" style="stroke:#545454;stroke-width:1.5625;"/><!--MD5=[f3d6450fcf7e20a426bf20df3cf273d0]
link SecureHttpNetworkLocation to SecureHttpGetResource--><path codeLine="25" d="M562.3646,351.8903 C526.1667,379.3278 487.6771,408.484 455.6979,432.7132 " fill="none" id="SecureHttpNetworkLocation-to-SecureHttpGetResource" style="stroke:#545454;stroke-width:1.5625;"/><polygon fill="#545454" points="451.8854,435.609,461.8762,433.2774,456.0395,432.4674,456.8495,426.6308,451.8854,435.609" style="stroke:#545454;stroke-width:1.5625;"/><text fill="#A0A0A0" font-family="Open Sans,Avenir,Nunito,Arial,Helvetica,SansSerif" font-size="12.5" font-weight="bold" lengthAdjust="spacing" textLength="45.8333" x="519.7917" y="399.1211">creates</text><!--MD5=[3c126acdd857e7bc41f2321be00a1f0e]
link SecureHttpNetworkLocation to SecureHttpPostResource--><path codeLine="26" d="M808.0729,351.8903 C844.7813,379.3278 883.7917,408.484 916.2083,432.7132 " fill="none" id="SecureHttpNetworkLocation-to-SecureHttpPostResource" style="stroke:#545454;stroke-width:1.5625;"/><polygon fill="#545454" points="920.0938,435.6195,915.058,426.6812,915.9146,432.5111,910.0847,433.3678,920.0938,435.6195" style="stroke:#545454;stroke-width:1.5625;"/><text fill="#A0A0A0" font-family="Open Sans,Avenir,Nunito,Arial,Helvetica,SansSerif" font-size="12.5" font-weight="bold" lengthAdjust="spacing" textLength="45.8333" x="877.0833" y="399.1211">creates</text><!--MD5=[030e3d0e44caaa5d23ac0da7d2adbba6]
reverse link HttpPostResource to SecureHttpPostResource--><path codeLine="38" d="M1034.8229,304.0882 C1025.4375,342.1507 1011.9479,396.859 1002.1458,436.6299 " fill="none" id="HttpPostResource-backto-SecureHttpPostResource" style="stroke:#545454;stroke-width:1.5625;"/><polygon fill="none" points="1027.6875,302.5778,1039.75,284.0882,1041.8438,306.0674,1027.6875,302.5778" style="stroke:#545454;stroke-width:1.5625;"/><!--MD5=[60175bf43d7b862d6121b944cc8e9f40]
@startuml

    !include lexakai.theme
    
    title "com.telenav.kivakit.network.http.secure"
    
    abstract BaseStringConverter
    
    BaseStringConverter <|- - SecureHttpNetworkLocation.Converter
    class SecureHttpNetworkLocation.Converter
    {
        - -(constructors)- -
        +Converter(Listener)
    }
    
    HttpGetResource <|- - SecureHttpGetResource
    class SecureHttpGetResource
    {
        - -(constructors)- -
        +SecureHttpGetResource(SecureHttpNetworkLocation)
        +SecureHttpGetResource(SecureHttpNetworkLocation, NetworkAccessConstraints)
    }
    
    HttpNetworkLocation <|- - SecureHttpNetworkLocation
    SecureHttpNetworkLocation - -> SecureHttpGetResource : "creates"
    SecureHttpNetworkLocation - -> SecureHttpPostResource : "creates"
    class SecureHttpNetworkLocation
    {
        - -(constructors)- -
        +SecureHttpNetworkLocation(NetworkPath)
        +SecureHttpNetworkLocation(URI)
        - -(network)- -
        +SecureHttpNetworkLocation parseSecureHttpNetworkLocation(Listener, String path)
        +SecureHttpNetworkLocation secureHttpNetworkLocation(String path)
        +SecureHttpNetworkLocation secureHttpNetworkLocation(NetworkPath)
    }
    
    HttpPostResource <|- - SecureHttpPostResource
    class SecureHttpPostResource
    {
        - -(constructors)- -
        +SecureHttpPostResource(NetworkLocation, NetworkAccessConstraints)
        +SecureHttpPostResource(SecureHttpNetworkLocation)
    }
    
@enduml

@startuml









skinparam backgroundColor #333333






skinparam  {
    defaultFontName   "Open Sans,Avenir,Nunito,Arial,Helvetica,SansSerif"
    defaultFontSize   12
    defaultTextAlignment left
    shadowing false
    RoundCorner 10
    TitleFontSize 18
}

skinparam defaultFontName       "Open Sans,Avenir,Nunito,Arial,Helvetica,SansSerif"
skinparam defaultFontSize       12
skinparam dpi                   100
skinparam shadowing             false
skinparam roundcorner           16
skinparam ParticipantPadding    40
skinparam BoxPadding            40
skinparam Padding               3
skinparam ArrowColor            #545454
skinparam stereotype {
    CBackgroundColor #0066cf
    CBorderColor #0086ef
    ABackgroundColor #C8Ac00
    ABorderColor #D8Bc00
    IBackgroundColor #008400
    IBorderColor #239c23
    EBackgroundColor #cf6300
    EBorderColor #ef8300
    NBackgroundColor #3380b9
    NBorderColor #004d86
}
skinparam title {
	FontColor	                 #c0c0c0
 	BorderColor                  #545454
	FontSize	    	         20
	BorderRoundCorner            16
	BorderThickness 	         1
	BackgroundColor              #48494b
}


skinparam legend {
	BackgroundColor #303030
	BorderColor #404040
	FontColor #a0a0a0
}

	skinparam swimlane {
	BorderColor #5e5e5e
	BorderThickness 2
	TitleBackgroundColor  #6d6d6d-#484848
	TitleFontColor #303030
}

skinparam activity {
		FontColor #C8Ac00
	BorderColor #333333
	BackgroundColor #333333-#333333
	BarColor #00FF00
	StartColor #0060a8
	EndColor #0060a8
	DiamondBackgroundColor #6d6d6d-#3a3a3a
  	DiamondBorderColor #3a3a3a
  	DiamondFontColor #fefefe
}


skinparam participant {
		FontColor #C8Ac00
	BorderColor #333333
	BackgroundColor #333333-#333333
	ParticipantBorderThickness 2
}


skinparam actor {
		FontColor #C8Ac00
	BorderColor #333333
	BackgroundColor #333333-#333333
}


skinparam arrow {
	Thickness 1.5
	Color #545454
	FontColor #a0a0a0
    FontStyle bold
    MessageAlignment center
}



skinparam sequence {
	BorderColor #303030
	TitleFontColor #303030
	BackgroundColor #333333
	StartColor #303030
	EndColor #303030
	BoxBackgroundColor #333333
	BoxBorderColor #484848
	BoxFontColor #484848
	LifeLineBorderColor #484848
	LifeLineBorderThickness 2
	LifeLineBackgroundColor #3a3a3a
	GroupBorderColor #484848
	GroupFontColor #484848
	GroupHeaderFontColor #0060a8
	GroupBackgroundColor #484848
	GroupHeaderBackgroundColor #333333
	DividerBackgroundColor #484848
    DividerBorderColor #484848
    DividerBorderThickness 2
    DividerFontColor #D8Bc00
	ReferenceBackgroundColor #333333
	ReferenceBorderColor #484848
	ReferenceFontColor #fefefe
	ReferenceHeaderBackgroundColor #484848
}


skinparam partition {
	BorderColor #303030
	FontColor #333333
	BackgroundColor #333333
}


skinparam collections {
		FontColor #C8Ac00
	BorderColor #333333
	BackgroundColor #333333-#333333
}


skinparam control {
		FontColor #C8Ac00
	BorderColor #333333
	BackgroundColor #333333-#333333
}


skinparam entity {
		FontColor #C8Ac00
	BorderColor #333333
	BackgroundColor #333333-#333333
}


skinparam boundary {
		FontColor #C8Ac00
	BorderColor #333333
	BackgroundColor #333333-#333333
}


skinparam agent {
	BackgroundColor #ff8000
	BorderColor #ff9933
	FontColor #484848
}


skinparam note {
	BorderThickness 1
	BackgroundColor #1b1b1a
	BorderColor #5e5e5e
	FontSize 11
	FontColor #a0a0a0
}


skinparam artifact {
	BorderThickness 10
	BorderColor #5e5e5e
	BackgroundColor #1b1b1a
	FontColor #D8Bc00
}


skinparam component {
		FontColor #C8Ac00
	BorderColor #333333
	BackgroundColor #333333-#333333
}


skinparam interface {
	BackgroundColor  #008400
	BorderColor  #007F00
	FontColor #484848
}


skinparam storage {
	BackgroundColor #ff8000
  	BorderColor #cc6600
	FontColor #222222
}


skinparam node {
	BackgroundColor #333333
	BorderColor #333333
	FontColor #C8Ac00
}


skinparam cloud {
	BackgroundColor #484848-black
	BorderColor #484848
	FontColor #D8Bc00
}


skinparam database {
		FontColor #C8Ac00
	BorderColor #333333
	BackgroundColor #333333-#333333
	BackgroundColor  #333333
}


skinparam class {
		FontColor #C8Ac00
	BorderColor #333333
	BackgroundColor #333333-#333333
	HeaderBackgroundColor #1b1b1a
    BackgroundColor #282828
    BorderColor #5e5e5e
 	StereotypeFontColor #a0a0a0
    StereotypeFontStyle bold
	BorderThickness 1
	AttributeFontColor #D8Bc00
	AttributeFontSize 11
    FontColor #D8Bc00
    FontStyle bold
}


skinparam object {
		FontColor #C8Ac00
	BorderColor #333333
	BackgroundColor #333333-#333333
	StereotypeFontColor #484848
	BorderThickness 1
	AttributeFontColor #fefefe
	AttributeFontSize 11
}


skinparam usecase {
		FontColor #C8Ac00
	BorderColor #333333
	BackgroundColor #333333-#333333
	BorderThickness 2
	StereotypeFontColor #303030
}


skinparam rectangle {
		FontColor #C8Ac00
	BorderColor #333333
	BackgroundColor #333333-#333333
	BackgroundColor #333333
	BorderThickness 2
	StereotypeFontColor #303030
}


skinparam package {
		FontColor #C8Ac00
	BorderColor #333333
	BackgroundColor #333333-#333333
	BackgroundColor #333333
	BorderThickness 2
}


skinparam folder {
	BackgroundColor #6d6d6d
  	BorderColor #ff8000
	FontColor #ff8000
	BorderThickness 2
}


skinparam frame {
	BackgroundColor #6d6d6d
  	BorderColor #0060a8
	FontColor #0060a8
	BorderThickness 2
}


skinparam state {
		FontColor #C8Ac00
	BorderColor #333333
	BackgroundColor #333333-#333333
	StartColor #0060a8
	EndColor #0060a8
	AttributeFontColor #fefefe
	AttributeFontSize 11
}


skinparam queue {
		FontColor #C8Ac00
	BorderColor #333333
	BackgroundColor #333333-#333333
}


skinparam card {
	BackgroundColor #0060a8
	BorderColor #004d86
	FontColor $INFO_TEXT
}


skinparam file {
	BackgroundColor #6d6d6d-#484848
	BorderColor #0060a8
	FontColor #fefefe
}


skinparam stack {
		FontColor #C8Ac00
	BorderColor #333333
	BackgroundColor #333333-#333333
}

    
    title "com.telenav.kivakit.network.http.secure"
    
    abstract BaseStringConverter
    
    BaseStringConverter <|- - SecureHttpNetworkLocation.Converter
    class SecureHttpNetworkLocation.Converter
    {
        - -(constructors)- -
        +Converter(Listener)
    }
    
    HttpGetResource <|- - SecureHttpGetResource
    class SecureHttpGetResource
    {
        - -(constructors)- -
        +SecureHttpGetResource(SecureHttpNetworkLocation)
        +SecureHttpGetResource(SecureHttpNetworkLocation, NetworkAccessConstraints)
    }
    
    HttpNetworkLocation <|- - SecureHttpNetworkLocation
    SecureHttpNetworkLocation - -> SecureHttpGetResource : "creates"
    SecureHttpNetworkLocation - -> SecureHttpPostResource : "creates"
    class SecureHttpNetworkLocation
    {
        - -(constructors)- -
        +SecureHttpNetworkLocation(NetworkPath)
        +SecureHttpNetworkLocation(URI)
        - -(network)- -
        +SecureHttpNetworkLocation parseSecureHttpNetworkLocation(Listener, String path)
        +SecureHttpNetworkLocation secureHttpNetworkLocation(String path)
        +SecureHttpNetworkLocation secureHttpNetworkLocation(NetworkPath)
    }
    
    HttpPostResource <|- - SecureHttpPostResource
    class SecureHttpPostResource
    {
        - -(constructors)- -
        +SecureHttpPostResource(NetworkLocation, NetworkAccessConstraints)
        +SecureHttpPostResource(SecureHttpNetworkLocation)
    }
    
@enduml

PlantUML version 1.2021.01(Tue Feb 02 00:55:08 MST 2021)
(GPL source distribution)
Java Runtime: OpenJDK Runtime Environment
JVM: OpenJDK 64-Bit Server VM
Default Encoding: UTF-8
Language: en
Country: US
--></g></svg>