<?xml version="1.0" encoding="UTF-8" standalone="no"?><svg xmlns="http://www.w3.org/2000/svg" xmlns:xlink="http://www.w3.org/1999/xlink" contentScriptType="application/ecmascript" contentStyleType="text/css" height="519.7917px" preserveAspectRatio="none" style="width:1120px;height:519px;background:#333333;" version="1.1" viewBox="0 0 1120 519" width="1120.8333px" zoomAndPan="magnify"><defs/><g><rect fill="#48494B" height="41.2028" rx="8.3333" ry="8.3333" style="stroke:#545454;stroke-width:1.0416666666666667;" width="662.5" x="222.1354" y="2.0833"/><text fill="#C0C0C0" font-family="Open Sans,Avenir,Nunito,Arial,Helvetica,SansSerif" font-size="20.8333" lengthAdjust="spacing" textLength="639.5833" x="233.5938" y="30.5583">com.telenav.kivakit.data.compression.codecs.huffman.character</text><polygon fill="#333333" points="541.1458,317.2445,710.9375,317.2445,718.2292,344.4661,752.6042,344.4661,752.6042,474.5361,541.1458,474.5361,541.1458,317.2445" style="stroke:#333333;stroke-width:2.0833333333333335;"/><line style="stroke:#333333;stroke-width:2.0833333333333335;" x1="541.1458" x2="718.2292" y1="344.4661" y2="344.4661"/><text fill="#C8AC00" font-family="Open Sans,Avenir,Nunito,Arial,Helvetica,SansSerif" font-size="12.5" font-weight="bold" lengthAdjust="spacing" textLength="157.2917" x="548.4375" y="334.5378">HuffmanCharacterCodec</text><rect codeLine="24" fill="#282828" height="83.3781" id="HuffmanCharacterCodec.Converter" rx="8.3333" ry="8.3333" style="stroke:#5E5E5E;stroke-width:1.0416666666666667;" width="141.6667" x="585.9375" y="366.2028"/><rect fill="#1B1B1A" height="31.3883" rx="8.3333" ry="8.3333" style="stroke:#1B1B1A;stroke-width:1.0416666666666667;" width="141.6667" x="585.9375" y="366.2028"/><rect fill="#1B1B1A" height="8.3333" style="stroke:#1B1B1A;stroke-width:1.0416666666666667;" width="141.6667" x="585.9375" y="389.2578"/><rect codeLine="24" fill="none" height="83.3781" id="HuffmanCharacterCodec.Converter" rx="8.3333" ry="8.3333" style="stroke:#5E5E5E;stroke-width:1.0416666666666667;" width="141.6667" x="585.9375" y="366.2028"/><ellipse cx="618.8021" cy="381.897" fill="#0066CF" rx="10.4167" ry="10.4167" style="stroke:#0086EF;stroke-width:1.0416666666666667;"/><path d="M620.7125,386.322 Q620.2852,386.5417 619.8153,386.6516 Q619.3453,386.7615 618.8265,386.7615 Q616.9832,386.7615 616.0128,385.5469 Q615.0423,384.3323 615.0423,382.0374 Q615.0423,379.7363 616.0128,378.5217 Q616.9832,377.3071 618.8265,377.3071 Q619.3453,377.3071 619.8214,377.417 Q620.2974,377.5269 620.7125,377.7466 L620.7125,379.7485 Q620.2486,379.3213 619.8122,379.1229 Q619.3758,378.9246 618.9119,378.9246 Q617.9232,378.9246 617.4196,379.7089 Q616.9161,380.4932 616.9161,382.0374 Q616.9161,383.5754 617.4196,384.3597 Q617.9232,385.144 618.9119,385.144 Q619.3758,385.144 619.8122,384.9457 Q620.2486,384.7473 620.7125,384.3201 Z " fill="#000000"/><text fill="#D8BC00" font-family="Open Sans,Avenir,Nunito,Arial,Helvetica,SansSerif" font-size="12.5" font-weight="bold" lengthAdjust="spacing" textLength="63.5417" x="639.5313" y="386.6211">Converter</text><line style="stroke:#5E5E5E;stroke-width:1.5625;" x1="586.9792" x2="726.5625" y1="397.5911" y2="397.5911"/><ellipse cx="597.3958" cy="432.961" fill="#84BE84" rx="3.125" ry="3.125" style="stroke:#038048;stroke-width:1.0416666666666667;"/><text fill="#D8BC00" font-family="Open Sans,Avenir,Nunito,Arial,Helvetica,SansSerif" font-size="11.4583" lengthAdjust="spacing" textLength="109.375" x="608.8542" y="439.8722">Converter(Listener)</text><line style="stroke:#5E5E5E;stroke-width:1.0416666666666667;" x1="586.9792" x2="613.0208" y1="415.7969" y2="415.7969"/><text fill="#D8BC00" font-family="Open Sans,Avenir,Nunito,Arial,Helvetica,SansSerif" font-size="11.4583" lengthAdjust="spacing" textLength="81.25" x="616.1458" y="419.6065">(constructors)</text><line style="stroke:#5E5E5E;stroke-width:1.0416666666666667;" x1="700.5208" x2="726.5625" y1="415.7969" y2="415.7969"/><rect codeLine="7" fill="#282828" height="48.055" id="BaseRepeater" rx="8.3333" ry="8.3333" style="stroke:#5E5E5E;stroke-width:1.0416666666666667;" width="123.9583" x="115.625" y="122.9736"/><rect fill="#1B1B1A" height="31.3883" rx="8.3333" ry="8.3333" style="stroke:#1B1B1A;stroke-width:1.0416666666666667;" width="123.9583" x="115.625" y="122.9736"/><rect fill="#1B1B1A" height="8.3333" style="stroke:#1B1B1A;stroke-width:1.0416666666666667;" width="123.9583" x="115.625" y="146.0286"/><rect codeLine="7" fill="none" height="48.055" id="BaseRepeater" rx="8.3333" ry="8.3333" style="stroke:#5E5E5E;stroke-width:1.0416666666666667;" width="123.9583" x="115.625" y="122.9736"/><ellipse cx="130.2083" cy="138.6678" fill="#C8AC00" rx="10.4167" ry="10.4167" style="stroke:#D8BC00;stroke-width:1.0416666666666667;"/><path d="M129.8014,135.3699 L128.953,139.0991 L130.6559,139.0991 Z M128.7028,133.7219 L130.9062,133.7219 L133.3659,142.8345 L131.5653,142.8345 L131.0038,140.5823 L128.5929,140.5823 L128.0436,142.8345 L126.2431,142.8345 Z " fill="#000000"/><text fill="#D8BC00" font-family="Open Sans,Avenir,Nunito,Arial,Helvetica,SansSerif" font-size="12.5" font-style="italic" font-weight="bold" lengthAdjust="spacing" textLength="86.4583" x="146.875" y="143.3919">BaseRepeater</text><line style="stroke:#5E5E5E;stroke-width:1.0416666666666667;" x1="116.6667" x2="238.5417" y1="154.362" y2="154.362"/><line style="stroke:#5E5E5E;stroke-width:1.0416666666666667;" x1="116.6667" x2="238.5417" y1="162.6953" y2="162.6953"/><rect codeLine="8" fill="#282828" height="48.055" id="BaseStringConverter" rx="8.3333" ry="8.3333" style="stroke:#5E5E5E;stroke-width:1.0416666666666667;" width="169.7917" x="571.875" y="122.9736"/><rect fill="#1B1B1A" height="31.3883" rx="8.3333" ry="8.3333" style="stroke:#1B1B1A;stroke-width:1.0416666666666667;" width="169.7917" x="571.875" y="122.9736"/><rect fill="#1B1B1A" height="8.3333" style="stroke:#1B1B1A;stroke-width:1.0416666666666667;" width="169.7917" x="571.875" y="146.0286"/><rect codeLine="8" fill="none" height="48.055" id="BaseStringConverter" rx="8.3333" ry="8.3333" style="stroke:#5E5E5E;stroke-width:1.0416666666666667;" width="169.7917" x="571.875" y="122.9736"/><ellipse cx="586.4583" cy="138.6678" fill="#C8AC00" rx="10.4167" ry="10.4167" style="stroke:#D8BC00;stroke-width:1.0416666666666667;"/><path d="M586.0514,135.3699 L585.203,139.0991 L586.9059,139.0991 Z M584.9528,133.7219 L587.1562,133.7219 L589.6159,142.8345 L587.8153,142.8345 L587.2538,140.5823 L584.8429,140.5823 L584.2936,142.8345 L582.4931,142.8345 Z " fill="#000000"/><text fill="#D8BC00" font-family="Open Sans,Avenir,Nunito,Arial,Helvetica,SansSerif" font-size="12.5" font-style="italic" font-weight="bold" lengthAdjust="spacing" textLength="132.2917" x="603.125" y="143.3919">BaseStringConverter</text><line style="stroke:#5E5E5E;stroke-width:1.0416666666666667;" x1="572.9167" x2="740.625" y1="154.362" y2="154.362"/><line style="stroke:#5E5E5E;stroke-width:1.0416666666666667;" x1="572.9167" x2="740.625" y1="162.6953" y2="162.6953"/><rect codeLine="10" fill="#282828" height="48.055" id="CharacterCodec" rx="8.3333" ry="8.3333" style="stroke:#5E5E5E;stroke-width:1.0416666666666667;" width="138.5417" x="276.0417" y="122.9736"/><rect fill="#1B1B1A" height="31.3883" rx="8.3333" ry="8.3333" style="stroke:#1B1B1A;stroke-width:1.0416666666666667;" width="138.5417" x="276.0417" y="122.9736"/><rect fill="#1B1B1A" height="8.3333" style="stroke:#1B1B1A;stroke-width:1.0416666666666667;" width="138.5417" x="276.0417" y="146.0286"/><rect codeLine="10" fill="none" height="48.055" id="CharacterCodec" rx="8.3333" ry="8.3333" style="stroke:#5E5E5E;stroke-width:1.0416666666666667;" width="138.5417" x="276.0417" y="122.9736"/><ellipse cx="290.625" cy="138.6678" fill="#008400" rx="10.4167" ry="10.4167" style="stroke:#239C23;stroke-width:1.0416666666666667;"/><path d="M288.029,135.8297 L288.029,134.2428 L293.455,134.2428 L293.455,135.8297 L291.6423,135.8297 L291.6423,141.7684 L293.455,141.7684 L293.455,143.3553 L288.029,143.3553 L288.029,141.7684 L289.8417,141.7684 L289.8417,135.8297 Z " fill="#000000"/><text fill="#D8BC00" font-family="Open Sans,Avenir,Nunito,Arial,Helvetica,SansSerif" font-size="12.5" font-style="italic" font-weight="bold" lengthAdjust="spacing" textLength="101.0417" x="307.2917" y="143.3919">CharacterCodec</text><line style="stroke:#5E5E5E;stroke-width:1.0416666666666667;" x1="277.0833" x2="413.5417" y1="154.362" y2="154.362"/><line style="stroke:#5E5E5E;stroke-width:1.0416666666666667;" x1="277.0833" x2="413.5417" y1="162.6953" y2="162.6953"/><rect codeLine="12" fill="#282828" height="186.2691" id="CharacterFrequencies" rx="8.3333" ry="8.3333" style="stroke:#5E5E5E;stroke-width:1.0416666666666667;" width="335.4167" x="778.6458" y="53.7028"/><rect fill="#1B1B1A" height="31.3883" rx="8.3333" ry="8.3333" style="stroke:#1B1B1A;stroke-width:1.0416666666666667;" width="335.4167" x="778.6458" y="53.7028"/><rect fill="#1B1B1A" height="8.3333" style="stroke:#1B1B1A;stroke-width:1.0416666666666667;" width="335.4167" x="778.6458" y="76.7578"/><rect codeLine="12" fill="none" height="186.2691" id="CharacterFrequencies" rx="8.3333" ry="8.3333" style="stroke:#5E5E5E;stroke-width:1.0416666666666667;" width="335.4167" x="778.6458" y="53.7028"/><ellipse cx="869.7917" cy="69.397" fill="#0066CF" rx="10.4167" ry="10.4167" style="stroke:#0086EF;stroke-width:1.0416666666666667;"/><path d="M871.7021,73.822 Q871.2748,74.0417 870.8049,74.1516 Q870.3349,74.2615 869.8161,74.2615 Q867.9728,74.2615 867.0024,73.0469 Q866.0319,71.8323 866.0319,69.5374 Q866.0319,67.2363 867.0024,66.0217 Q867.9728,64.8071 869.8161,64.8071 Q870.3349,64.8071 870.811,64.917 Q871.287,65.0269 871.7021,65.2466 L871.7021,67.2485 Q871.2382,66.8213 870.8018,66.6229 Q870.3654,66.4246 869.9015,66.4246 Q868.9128,66.4246 868.4092,67.2089 Q867.9057,67.9932 867.9057,69.5374 Q867.9057,71.0754 868.4092,71.8597 Q868.9128,72.644 869.9015,72.644 Q870.3654,72.644 870.8018,72.4457 Q871.2382,72.2473 871.7021,71.8201 Z " fill="#000000"/><text fill="#D8BC00" font-family="Open Sans,Avenir,Nunito,Arial,Helvetica,SansSerif" font-size="12.5" font-weight="bold" lengthAdjust="spacing" textLength="138.5417" x="892.7083" y="74.1211">CharacterFrequencies</text><line style="stroke:#5E5E5E;stroke-width:1.5625;" x1="779.6875" x2="1113.0208" y1="85.0911" y2="85.0911"/><ellipse cx="790.1042" cy="120.461" fill="#84BE84" rx="3.125" ry="3.125" style="stroke:#038048;stroke-width:1.0416666666666667;"/><text fill="#D8BC00" font-family="Open Sans,Avenir,Nunito,Arial,Helvetica,SansSerif" font-size="11.4583" lengthAdjust="spacing" textLength="218.75" x="801.5625" y="127.3722">Count escaped(Maximum occurrences)</text><line style="stroke:#5E5E5E;stroke-width:1.0416666666666667;" x1="779.6875" x2="911.9792" y1="103.2969" y2="103.2969"/><text fill="#D8BC00" font-family="Open Sans,Avenir,Nunito,Arial,Helvetica,SansSerif" font-size="11.4583" lengthAdjust="spacing" textLength="62.5" x="915.1042" y="107.1065">(collection)</text><line style="stroke:#5E5E5E;stroke-width:1.0416666666666667;" x1="980.7292" x2="1113.0208" y1="103.2969" y2="103.2969"/><ellipse cx="790.1042" cy="164.1174" fill="#84BE84" rx="3.125" ry="3.125" style="stroke:#038048;stroke-width:1.0416666666666667;"/><text fill="#D8BC00" font-family="Open Sans,Avenir,Nunito,Arial,Helvetica,SansSerif" font-size="11.4583" lengthAdjust="spacing" textLength="188.5417" x="801.5625" y="171.0286">CharacterFrequencies add(String)</text><ellipse cx="790.1042" cy="183.8623" fill="#84BE84" rx="3.125" ry="3.125" style="stroke:#038048;stroke-width:1.0416666666666667;"/><text fill="#D8BC00" font-family="Open Sans,Avenir,Nunito,Arial,Helvetica,SansSerif" font-size="11.4583" lengthAdjust="spacing" textLength="208.3333" x="801.5625" y="190.7735">CountMap&lt;Character&gt; frequencies()</text><ellipse cx="790.1042" cy="203.6072" fill="#84BE84" rx="3.125" ry="3.125" style="stroke:#038048;stroke-width:1.0416666666666667;"/><text fill="#D8BC00" font-family="Open Sans,Avenir,Nunito,Arial,Helvetica,SansSerif" font-size="11.4583" lengthAdjust="spacing" textLength="303.125" x="801.5625" y="210.5184">Symbols&lt;Character&gt; symbols(Minimum occurrences)</text><ellipse cx="790.1042" cy="223.3521" fill="#84BE84" rx="3.125" ry="3.125" style="stroke:#038048;stroke-width:1.0416666666666667;"/><text fill="#D8BC00" font-family="Open Sans,Avenir,Nunito,Arial,Helvetica,SansSerif" font-size="11.4583" lengthAdjust="spacing" textLength="179.1667" x="801.5625" y="230.2633">Symbols&lt;Character&gt; symbols()</text><line style="stroke:#5E5E5E;stroke-width:1.0416666666666667;" x1="779.6875" x2="914.5833" y1="146.9533" y2="146.9533"/><text fill="#D8BC00" font-family="Open Sans,Avenir,Nunito,Arial,Helvetica,SansSerif" font-size="11.4583" lengthAdjust="spacing" textLength="57.2917" x="917.7083" y="150.7629">(primitive)</text><line style="stroke:#5E5E5E;stroke-width:1.0416666666666667;" x1="978.125" x2="1113.0208" y1="146.9533" y2="146.9533"/><rect codeLine="32" fill="#282828" height="210.1807" id="HuffmanCharacterCodec" rx="8.3333" ry="8.3333" style="stroke:#5E5E5E;stroke-width:1.0416666666666667;" width="503.125" x="9.375" y="302.6611"/><rect fill="#1B1B1A" height="31.3883" rx="8.3333" ry="8.3333" style="stroke:#1B1B1A;stroke-width:1.0416666666666667;" width="503.125" x="9.375" y="302.6611"/><rect fill="#1B1B1A" height="8.3333" style="stroke:#1B1B1A;stroke-width:1.0416666666666667;" width="503.125" x="9.375" y="325.7161"/><rect codeLine="32" fill="none" height="210.1807" id="HuffmanCharacterCodec" rx="8.3333" ry="8.3333" style="stroke:#5E5E5E;stroke-width:1.0416666666666667;" width="503.125" x="9.375" y="302.6611"/><ellipse cx="175" cy="318.3553" fill="#0066CF" rx="10.4167" ry="10.4167" style="stroke:#0086EF;stroke-width:1.0416666666666667;"/><path d="M176.9104,322.7804 Q176.4832,323.0001 176.0132,323.1099 Q175.5432,323.2198 175.0244,323.2198 Q173.1812,323.2198 172.2107,322.0052 Q171.2402,320.7906 171.2402,318.4957 Q171.2402,316.1947 172.2107,314.9801 Q173.1812,313.7655 175.0244,313.7655 Q175.5432,313.7655 176.0193,313.8753 Q176.4954,313.9852 176.9104,314.2049 L176.9104,316.2069 Q176.4465,315.7796 176.0101,315.5813 Q175.5737,315.3829 175.1099,315.3829 Q174.1211,315.3829 173.6176,316.1672 Q173.114,316.9515 173.114,318.4957 Q173.114,320.0338 173.6176,320.8181 Q174.1211,321.6024 175.1099,321.6024 Q175.5737,321.6024 176.0101,321.404 Q176.4465,321.2056 176.9104,320.7784 Z " fill="#000000"/><text fill="#D8BC00" font-family="Open Sans,Avenir,Nunito,Arial,Helvetica,SansSerif" font-size="12.5" font-weight="bold" lengthAdjust="spacing" textLength="157.2917" x="197.9167" y="323.0794">HuffmanCharacterCodec</text><line style="stroke:#5E5E5E;stroke-width:1.5625;" x1="10.4167" x2="511.4583" y1="334.0495" y2="334.0495"/><polygon fill="#FFFF44" points="20.8333,364.211,25,368.3777,20.8333,372.5444,16.6667,368.3777" style="stroke:#B38D22;stroke-width:1.0416666666666667;"/><text fill="#D8BC00" font-family="Open Sans,Avenir,Nunito,Arial,Helvetica,SansSerif" font-size="11.4583" lengthAdjust="spacing" textLength="146.875" x="32.2917" y="376.3306">HuffmanCharacterCodec()</text><line style="stroke:#5E5E5E;stroke-width:1.0416666666666667;" x1="10.4167" x2="217.1875" y1="352.2552" y2="352.2552"/><text fill="#D8BC00" font-family="Open Sans,Avenir,Nunito,Arial,Helvetica,SansSerif" font-size="11.4583" lengthAdjust="spacing" textLength="81.25" x="220.3125" y="356.0649">(constructors)</text><line style="stroke:#5E5E5E;stroke-width:1.0416666666666667;" x1="304.6875" x2="511.4583" y1="352.2552" y2="352.2552"/><ellipse cx="20.8333" cy="413.0758" fill="#84BE84" rx="3.125" ry="3.125" style="stroke:#038048;stroke-width:1.0416666666666667;"/><text fill="#D8BC00" font-family="Open Sans,Avenir,Nunito,Arial,Helvetica,SansSerif" font-size="11.4583" lengthAdjust="spacing" textLength="152.0833" x="32.2917" y="419.987">PropertyMap asProperties()</text><line style="stroke:#5E5E5E;stroke-width:1.0416666666666667;" x1="10.4167" x2="226.5625" y1="395.9117" y2="395.9117"/><text fill="#D8BC00" font-family="Open Sans,Avenir,Nunito,Arial,Helvetica,SansSerif" font-size="11.4583" lengthAdjust="spacing" textLength="62.5" x="229.6875" y="399.7213">(collection)</text><line style="stroke:#5E5E5E;stroke-width:1.0416666666666667;" x1="295.3125" x2="511.4583" y1="395.9117" y2="395.9117"/><ellipse cx="20.8333" cy="456.7322" fill="#84BE84" rx="3.125" ry="3.125" style="stroke:#038048;stroke-width:1.0416666666666667;"/><text fill="#D8BC00" font-family="Open Sans,Avenir,Nunito,Arial,Helvetica,SansSerif" font-size="11.4583" lengthAdjust="spacing" textLength="470.8333" x="32.2917" y="463.6434">HuffmanCharacterCodec from(Listener, PropertyMap frequencies, Character escape)</text><ellipse cx="20.8333" cy="476.4771" fill="#84BE84" rx="3.125" ry="3.125" style="stroke:#038048;stroke-width:1.0416666666666667;"/><text fill="#D8BC00" font-family="Open Sans,Avenir,Nunito,Arial,Helvetica,SansSerif" font-size="11.4583" lengthAdjust="spacing" textLength="382.2917" x="32.2917" y="483.3883">HuffmanCharacterCodec from(Symbols&lt;Character&gt;, Maximum bits)</text><ellipse cx="20.8333" cy="496.2219" fill="#84BE84" rx="3.125" ry="3.125" style="stroke:#038048;stroke-width:1.0416666666666667;"/><text fill="#D8BC00" font-family="Open Sans,Avenir,Nunito,Arial,Helvetica,SansSerif" font-size="11.4583" lengthAdjust="spacing" textLength="297.9167" x="32.2917" y="503.1331">HuffmanCharacterCodec from(Symbols&lt;Character&gt;)</text><line style="stroke:#5E5E5E;stroke-width:1.0416666666666667;" x1="10.4167" x2="229.1667" y1="439.5681" y2="439.5681"/><text fill="#D8BC00" font-family="Open Sans,Avenir,Nunito,Arial,Helvetica,SansSerif" font-size="11.4583" lengthAdjust="spacing" textLength="57.2917" x="232.2917" y="443.3777">(primitive)</text><line style="stroke:#5E5E5E;stroke-width:1.0416666666666667;" x1="292.7083" x2="511.4583" y1="439.5681" y2="439.5681"/><path codeLine="23" d="M656.7708,191.932 C656.7708,240.5882 656.7708,318.3799 656.7708,365.8174 " fill="none" id="BaseStringConverter-backto-HuffmanCharacterCodec.Converter" style="stroke:#545454;stroke-width:1.5625;"/><polygon fill="none" points="649.4792,191.7757,656.7708,170.9424,664.0625,191.7757,649.4792,191.7757" style="stroke:#545454;stroke-width:1.5625;"/><path codeLine="30" d="M191.3854,190.7861 C201.1667,221.1715 214.75,263.3486 227.3125,302.3799 " fill="none" id="BaseRepeater-backto-HuffmanCharacterCodec" style="stroke:#545454;stroke-width:1.5625;"/><polygon fill="none" points="184.4479,193.0153,185,170.9424,198.3229,188.5465,184.4479,193.0153" style="stroke:#545454;stroke-width:1.5625;"/><path codeLine="31" d="M331.3542,190.7861 C321.4479,221.1715 307.7083,263.3486 294.9792,302.3799 " fill="none" id="CharacterCodec-backto-HuffmanCharacterCodec" style="stroke:#545454;stroke-width:1.5625;"/><polygon fill="none" points="324.4375,188.4945,337.8229,170.9424,338.3021,193.0153,324.4375,188.4945" style="stroke:#545454;stroke-width:1.5625;"/></g></svg>
