<?xml version="1.0" encoding="UTF-8" standalone="no"?><svg xmlns="http://www.w3.org/2000/svg" xmlns:xlink="http://www.w3.org/1999/xlink" contentScriptType="application/ecmascript" contentStyleType="text/css" height="684.375px" preserveAspectRatio="none" style="width:896px;height:684px;background:#333333;" version="1.1" viewBox="0 0 896 684" width="896.875px" zoomAndPan="magnify"><defs/><g><rect fill="#48494B" height="41.2028" rx="8.3333" ry="8.3333" style="stroke:#545454;stroke-width:1.0416666666666667;" width="758.3333" x="62.349" y="2.0833"/><text fill="#C0C0C0" font-family="Open Sans,Avenir,Nunito,Arial,Helvetica,SansSerif" font-size="20.8333" lengthAdjust="spacing" textLength="735.4167" x="73.8073" y="30.5583">com.telenav.kivakit.microservice.internal.protocols.rest.plugins.jetty.cycle</text><!--MD5=[784d533083758286c885e86b9fe3090e]
class BaseComponent--><rect codeLine="7" fill="#282828" height="48.055" id="BaseComponent" rx="8.3333" ry="8.3333" style="stroke:#5E5E5E;stroke-width:1.0416666666666667;" width="143.75" x="181.4688" y="53.7028"/><rect fill="#1B1B1A" height="31.3883" rx="8.3333" ry="8.3333" style="stroke:#1B1B1A;stroke-width:1.0416666666666667;" width="143.75" x="181.4688" y="53.7028"/><rect fill="#1B1B1A" height="8.3333" style="stroke:#1B1B1A;stroke-width:1.0416666666666667;" width="143.75" x="181.4688" y="76.7578"/><rect codeLine="7" fill="none" height="48.055" id="BaseComponent" rx="8.3333" ry="8.3333" style="stroke:#5E5E5E;stroke-width:1.0416666666666667;" width="143.75" x="181.4688" y="53.7028"/><ellipse cx="196.0521" cy="69.397" fill="#C8AC00" rx="10.4167" ry="10.4167" style="stroke:#D8BC00;stroke-width:1.0416666666666667;"/><path d="M195.6452,66.099 L194.7968,69.8283 L196.4997,69.8283 Z M194.5465,64.4511 L196.7499,64.4511 L199.2096,73.5636 L197.4091,73.5636 L196.8476,71.3114 L194.4367,71.3114 L193.8874,73.5636 L192.0868,73.5636 Z " fill="#000000"/><text fill="#D8BC00" font-family="Open Sans,Avenir,Nunito,Arial,Helvetica,SansSerif" font-size="12.5" font-style="italic" font-weight="bold" lengthAdjust="spacing" textLength="106.25" x="212.7188" y="74.1211">BaseComponent</text><line style="stroke:#5E5E5E;stroke-width:1.0416666666666667;" x1="182.5104" x2="324.1771" y1="85.0911" y2="85.0911"/><line style="stroke:#5E5E5E;stroke-width:1.0416666666666667;" x1="182.5104" x2="324.1771" y1="93.4245" y2="93.4245"/><!--MD5=[36b3fa94fea76c2c81d2011dadf3e845]
class RestRequestCycle--><rect codeLine="9" fill="#282828" height="48.055" id="RestRequestCycle" rx="8.3333" ry="8.3333" style="stroke:#5E5E5E;stroke-width:1.0416666666666667;" width="152.0833" x="46.0521" y="181.8278"/><rect fill="#1B1B1A" height="31.3883" rx="8.3333" ry="8.3333" style="stroke:#1B1B1A;stroke-width:1.0416666666666667;" width="152.0833" x="46.0521" y="181.8278"/><rect fill="#1B1B1A" height="8.3333" style="stroke:#1B1B1A;stroke-width:1.0416666666666667;" width="152.0833" x="46.0521" y="204.8828"/><rect codeLine="9" fill="none" height="48.055" id="RestRequestCycle" rx="8.3333" ry="8.3333" style="stroke:#5E5E5E;stroke-width:1.0416666666666667;" width="152.0833" x="46.0521" y="181.8278"/><ellipse cx="60.6354" cy="197.522" fill="#008400" rx="10.4167" ry="10.4167" style="stroke:#239C23;stroke-width:1.0416666666666667;"/><path d="M58.0394,194.6838 L58.0394,193.0969 L63.4654,193.0969 L63.4654,194.6838 L61.6527,194.6838 L61.6527,200.6226 L63.4654,200.6226 L63.4654,202.2095 L58.0394,202.2095 L58.0394,200.6226 L59.8521,200.6226 L59.8521,194.6838 Z " fill="#000000"/><text fill="#D8BC00" font-family="Open Sans,Avenir,Nunito,Arial,Helvetica,SansSerif" font-size="12.5" font-style="italic" font-weight="bold" lengthAdjust="spacing" textLength="114.5833" x="77.3021" y="202.2461">RestRequestCycle</text><line style="stroke:#5E5E5E;stroke-width:1.0416666666666667;" x1="47.0938" x2="197.0938" y1="213.2161" y2="213.2161"/><line style="stroke:#5E5E5E;stroke-width:1.0416666666666667;" x1="47.0938" x2="197.0938" y1="221.5495" y2="221.5495"/><!--MD5=[6430a31d6cac3b73765993489fb4581f]
class RestRequest--><rect codeLine="10" fill="#282828" height="48.055" id="RestRequest" rx="8.3333" ry="8.3333" style="stroke:#5E5E5E;stroke-width:1.0416666666666667;" width="117.7083" x="397.6146" y="53.7028"/><rect fill="#1B1B1A" height="31.3883" rx="8.3333" ry="8.3333" style="stroke:#1B1B1A;stroke-width:1.0416666666666667;" width="117.7083" x="397.6146" y="53.7028"/><rect fill="#1B1B1A" height="8.3333" style="stroke:#1B1B1A;stroke-width:1.0416666666666667;" width="117.7083" x="397.6146" y="76.7578"/><rect codeLine="10" fill="none" height="48.055" id="RestRequest" rx="8.3333" ry="8.3333" style="stroke:#5E5E5E;stroke-width:1.0416666666666667;" width="117.7083" x="397.6146" y="53.7028"/><ellipse cx="412.1979" cy="69.397" fill="#008400" rx="10.4167" ry="10.4167" style="stroke:#239C23;stroke-width:1.0416666666666667;"/><path d="M409.6019,66.5588 L409.6019,64.9719 L415.0279,64.9719 L415.0279,66.5588 L413.2152,66.5588 L413.2152,72.4976 L415.0279,72.4976 L415.0279,74.0845 L409.6019,74.0845 L409.6019,72.4976 L411.4146,72.4976 L411.4146,66.5588 Z " fill="#000000"/><text fill="#D8BC00" font-family="Open Sans,Avenir,Nunito,Arial,Helvetica,SansSerif" font-size="12.5" font-style="italic" font-weight="bold" lengthAdjust="spacing" textLength="80.2083" x="428.8646" y="74.1211">RestRequest</text><line style="stroke:#5E5E5E;stroke-width:1.0416666666666667;" x1="398.6563" x2="514.2813" y1="85.0911" y2="85.0911"/><line style="stroke:#5E5E5E;stroke-width:1.0416666666666667;" x1="398.6563" x2="514.2813" y1="93.4245" y2="93.4245"/><!--MD5=[1f181d73149018853c3b62e9dcdeb2d8]
class RestResponse--><rect codeLine="11" fill="#282828" height="48.055" id="RestResponse" rx="8.3333" ry="8.3333" style="stroke:#5E5E5E;stroke-width:1.0416666666666667;" width="128.125" x="662.1979" y="341.7236"/><rect fill="#1B1B1A" height="31.3883" rx="8.3333" ry="8.3333" style="stroke:#1B1B1A;stroke-width:1.0416666666666667;" width="128.125" x="662.1979" y="341.7236"/><rect fill="#1B1B1A" height="8.3333" style="stroke:#1B1B1A;stroke-width:1.0416666666666667;" width="128.125" x="662.1979" y="364.7786"/><rect codeLine="11" fill="none" height="48.055" id="RestResponse" rx="8.3333" ry="8.3333" style="stroke:#5E5E5E;stroke-width:1.0416666666666667;" width="128.125" x="662.1979" y="341.7236"/><ellipse cx="676.7813" cy="357.4178" fill="#008400" rx="10.4167" ry="10.4167" style="stroke:#239C23;stroke-width:1.0416666666666667;"/><path d="M674.1852,354.5797 L674.1852,352.9928 L679.6112,352.9928 L679.6112,354.5797 L677.7985,354.5797 L677.7985,360.5184 L679.6112,360.5184 L679.6112,362.1053 L674.1852,362.1053 L674.1852,360.5184 L675.998,360.5184 L675.998,354.5797 Z " fill="#000000"/><text fill="#D8BC00" font-family="Open Sans,Avenir,Nunito,Arial,Helvetica,SansSerif" font-size="12.5" font-style="italic" font-weight="bold" lengthAdjust="spacing" textLength="90.625" x="693.4479" y="362.1419">RestResponse</text><line style="stroke:#5E5E5E;stroke-width:1.0416666666666667;" x1="663.2396" x2="789.2813" y1="373.112" y2="373.112"/><line style="stroke:#5E5E5E;stroke-width:1.0416666666666667;" x1="663.2396" x2="789.2813" y1="381.4453" y2="381.4453"/><!--MD5=[d5ffbea224cb66456f52b11f1b43a3e0]
class TryTrait--><rect codeLine="12" fill="#282828" height="48.055" id="TryTrait" rx="8.3333" ry="8.3333" style="stroke:#5E5E5E;stroke-width:1.0416666666666667;" width="88.5417" x="801.7813" y="53.7028"/><rect fill="#1B1B1A" height="31.3883" rx="8.3333" ry="8.3333" style="stroke:#1B1B1A;stroke-width:1.0416666666666667;" width="88.5417" x="801.7813" y="53.7028"/><rect fill="#1B1B1A" height="8.3333" style="stroke:#1B1B1A;stroke-width:1.0416666666666667;" width="88.5417" x="801.7813" y="76.7578"/><rect codeLine="12" fill="none" height="48.055" id="TryTrait" rx="8.3333" ry="8.3333" style="stroke:#5E5E5E;stroke-width:1.0416666666666667;" width="88.5417" x="801.7813" y="53.7028"/><ellipse cx="816.3646" cy="69.397" fill="#008400" rx="10.4167" ry="10.4167" style="stroke:#239C23;stroke-width:1.0416666666666667;"/><path d="M813.7686,66.5588 L813.7686,64.9719 L819.1946,64.9719 L819.1946,66.5588 L817.3818,66.5588 L817.3818,72.4976 L819.1946,72.4976 L819.1946,74.0845 L813.7686,74.0845 L813.7686,72.4976 L815.5813,72.4976 L815.5813,66.5588 Z " fill="#000000"/><text fill="#D8BC00" font-family="Open Sans,Avenir,Nunito,Arial,Helvetica,SansSerif" font-size="12.5" font-style="italic" font-weight="bold" lengthAdjust="spacing" textLength="51.0417" x="833.0313" y="74.1211">TryTrait</text><line style="stroke:#5E5E5E;stroke-width:1.0416666666666667;" x1="802.8229" x2="889.2813" y1="85.0911" y2="85.0911"/><line style="stroke:#5E5E5E;stroke-width:1.0416666666666667;" x1="802.8229" x2="889.2813" y1="93.4245" y2="93.4245"/><!--MD5=[9bdb0d4f32141be721a31d2870f462be]
class RestProblemReportingTrait--><rect codeLine="13" fill="#282828" height="48.055" id="RestProblemReportingTrait" rx="8.3333" ry="8.3333" style="stroke:#5E5E5E;stroke-width:1.0416666666666667;" width="212.5" x="552.3021" y="53.7028"/><rect fill="#1B1B1A" height="31.3883" rx="8.3333" ry="8.3333" style="stroke:#1B1B1A;stroke-width:1.0416666666666667;" width="212.5" x="552.3021" y="53.7028"/><rect fill="#1B1B1A" height="8.3333" style="stroke:#1B1B1A;stroke-width:1.0416666666666667;" width="212.5" x="552.3021" y="76.7578"/><rect codeLine="13" fill="none" height="48.055" id="RestProblemReportingTrait" rx="8.3333" ry="8.3333" style="stroke:#5E5E5E;stroke-width:1.0416666666666667;" width="212.5" x="552.3021" y="53.7028"/><ellipse cx="566.8854" cy="69.397" fill="#008400" rx="10.4167" ry="10.4167" style="stroke:#239C23;stroke-width:1.0416666666666667;"/><path d="M564.2894,66.5588 L564.2894,64.9719 L569.7154,64.9719 L569.7154,66.5588 L567.9027,66.5588 L567.9027,72.4976 L569.7154,72.4976 L569.7154,74.0845 L564.2894,74.0845 L564.2894,72.4976 L566.1021,72.4976 L566.1021,66.5588 Z " fill="#000000"/><text fill="#D8BC00" font-family="Open Sans,Avenir,Nunito,Arial,Helvetica,SansSerif" font-size="12.5" font-style="italic" font-weight="bold" lengthAdjust="spacing" textLength="175" x="583.5521" y="74.1211">RestProblemReportingTrait</text><line style="stroke:#5E5E5E;stroke-width:1.0416666666666667;" x1="553.3438" x2="763.7604" y1="85.0911" y2="85.0911"/><line style="stroke:#5E5E5E;stroke-width:1.0416666666666667;" x1="553.3438" x2="763.7604" y1="93.4245" y2="93.4245"/><!--MD5=[1d1b167f6478e3b44cac2a7f12f6c031]
class JettyRestRequest--><rect codeLine="20" fill="#282828" height="83.3781" id="JettyRestRequest" rx="8.3333" ry="8.3333" style="stroke:#5E5E5E;stroke-width:1.0416666666666667;" width="368.75" x="308.5521" y="164.1195"/><rect fill="#1B1B1A" height="31.3883" rx="8.3333" ry="8.3333" style="stroke:#1B1B1A;stroke-width:1.0416666666666667;" width="368.75" x="308.5521" y="164.1195"/><rect fill="#1B1B1A" height="8.3333" style="stroke:#1B1B1A;stroke-width:1.0416666666666667;" width="368.75" x="308.5521" y="187.1745"/><rect codeLine="20" fill="none" height="83.3781" id="JettyRestRequest" rx="8.3333" ry="8.3333" style="stroke:#5E5E5E;stroke-width:1.0416666666666667;" width="368.75" x="308.5521" y="164.1195"/><ellipse cx="430.4271" cy="179.8136" fill="#0066CF" rx="10.4167" ry="10.4167" style="stroke:#0086EF;stroke-width:1.0416666666666667;"/><path d="M432.3375,184.2387 Q431.9102,184.4584 431.4403,184.5683 Q430.9703,184.6781 430.4515,184.6781 Q428.6082,184.6781 427.6378,183.4635 Q426.6673,182.2489 426.6673,179.954 Q426.6673,177.653 427.6378,176.4384 Q428.6082,175.2238 430.4515,175.2238 Q430.9703,175.2238 431.4464,175.3337 Q431.9224,175.4435 432.3375,175.6632 L432.3375,177.6652 Q431.8736,177.238 431.4372,177.0396 Q431.0008,176.8412 430.5369,176.8412 Q429.5482,176.8412 429.0446,177.6255 Q428.5411,178.4098 428.5411,179.954 Q428.5411,181.4921 429.0446,182.2764 Q429.5482,183.0607 430.5369,183.0607 Q431.0008,183.0607 431.4372,182.8623 Q431.8736,182.664 432.3375,182.2367 Z " fill="#000000"/><text fill="#D8BC00" font-family="Open Sans,Avenir,Nunito,Arial,Helvetica,SansSerif" font-size="12.5" font-weight="bold" lengthAdjust="spacing" textLength="110.4167" x="453.3438" y="184.5378">JettyRestRequest</text><line style="stroke:#5E5E5E;stroke-width:1.5625;" x1="309.5938" x2="676.2604" y1="195.5078" y2="195.5078"/><ellipse cx="320.0104" cy="230.8777" fill="#84BE84" rx="3.125" ry="3.125" style="stroke:#038048;stroke-width:1.0416666666666667;"/><text fill="#D8BC00" font-family="Open Sans,Avenir,Nunito,Arial,Helvetica,SansSerif" font-size="11.4583" lengthAdjust="spacing" textLength="336.4583" x="331.4688" y="237.7889">JettyRestRequest(JettyRestRequestCycle, HttpServletRequest)</text><line style="stroke:#5E5E5E;stroke-width:1.0416666666666667;" x1="309.5938" x2="449.1771" y1="213.7136" y2="213.7136"/><text fill="#D8BC00" font-family="Open Sans,Avenir,Nunito,Arial,Helvetica,SansSerif" font-size="11.4583" lengthAdjust="spacing" textLength="81.25" x="452.3021" y="217.5232">(constructors)</text><line style="stroke:#5E5E5E;stroke-width:1.0416666666666667;" x1="536.6771" x2="676.2604" y1="213.7136" y2="213.7136"/><!--MD5=[ee1c2a74680e55708e72dc4e8bf33817]
class JettyRestRequestCycle--><rect codeLine="31" fill="#282828" height="111.4563" id="JettyRestRequestCycle" rx="8.3333" ry="8.3333" style="stroke:#5E5E5E;stroke-width:1.0416666666666667;" width="461.4583" x="164.2813" y="309.9528"/><rect fill="#1B1B1A" height="31.3883" rx="8.3333" ry="8.3333" style="stroke:#1B1B1A;stroke-width:1.0416666666666667;" width="461.4583" x="164.2813" y="309.9528"/><rect fill="#1B1B1A" height="8.3333" style="stroke:#1B1B1A;stroke-width:1.0416666666666667;" width="461.4583" x="164.2813" y="333.0078"/><rect codeLine="31" fill="none" height="111.4563" id="JettyRestRequestCycle" rx="8.3333" ry="8.3333" style="stroke:#5E5E5E;stroke-width:1.0416666666666667;" width="461.4583" x="164.2813" y="309.9528"/><ellipse cx="315.3229" cy="325.647" fill="#0066CF" rx="10.4167" ry="10.4167" style="stroke:#0086EF;stroke-width:1.0416666666666667;"/><path d="M317.2333,330.072 Q316.8061,330.2917 316.3361,330.4016 Q315.8661,330.5115 315.3473,330.5115 Q313.5041,330.5115 312.5336,329.2969 Q311.5632,328.0823 311.5632,325.7874 Q311.5632,323.4863 312.5336,322.2717 Q313.5041,321.0571 315.3473,321.0571 Q315.8661,321.0571 316.3422,321.167 Q316.8183,321.2769 317.2333,321.4966 L317.2333,323.4985 Q316.7694,323.0713 316.333,322.8729 Q315.8966,322.6746 315.4328,322.6746 Q314.444,322.6746 313.9405,323.4589 Q313.4369,324.2432 313.4369,325.7874 Q313.4369,327.3254 313.9405,328.1097 Q314.444,328.894 315.4328,328.894 Q315.8966,328.894 316.333,328.6957 Q316.7694,328.4973 317.2333,328.0701 Z " fill="#000000"/><text fill="#D8BC00" font-family="Open Sans,Avenir,Nunito,Arial,Helvetica,SansSerif" font-size="12.5" font-weight="bold" lengthAdjust="spacing" textLength="144.7917" x="338.2396" y="330.3711">JettyRestRequestCycle</text><line style="stroke:#5E5E5E;stroke-width:1.5625;" x1="165.3229" x2="624.6979" y1="341.3411" y2="341.3411"/><ellipse cx="175.7396" cy="376.711" fill="#84BE84" rx="3.125" ry="3.125" style="stroke:#038048;stroke-width:1.0416666666666667;"/><text fill="#D8BC00" font-family="Open Sans,Avenir,Nunito,Arial,Helvetica,SansSerif" font-size="11.4583" lengthAdjust="spacing" textLength="429.1667" x="187.1979" y="383.6222">JettyRestRequestCycle(RestService, HttpServletRequest, HttpServletResponse)</text><line style="stroke:#5E5E5E;stroke-width:1.0416666666666667;" x1="165.3229" x2="351.2604" y1="359.5469" y2="359.5469"/><text fill="#D8BC00" font-family="Open Sans,Avenir,Nunito,Arial,Helvetica,SansSerif" font-size="11.4583" lengthAdjust="spacing" textLength="81.25" x="354.3854" y="363.3565">(constructors)</text><line style="stroke:#5E5E5E;stroke-width:1.0416666666666667;" x1="438.7604" x2="624.6979" y1="359.5469" y2="359.5469"/><line style="stroke:#5E5E5E;stroke-width:1.0416666666666667;" x1="165.3229" x2="624.6979" y1="393.3309" y2="393.3309"/><ellipse cx="175.7396" cy="404.7892" fill="#84BE84" rx="3.125" ry="3.125" style="stroke:#038048;stroke-width:1.0416666666666667;"/><text fill="#D8BC00" font-family="Open Sans,Avenir,Nunito,Arial,Helvetica,SansSerif" font-size="11.4583" lengthAdjust="spacing" textLength="170.8333" x="187.1979" y="411.7004">void attach(Microservlet&lt;?,?&gt;)</text><!--MD5=[148dcae9dc326249c649f2e53037cb08]
class JettyRestResponse--><rect codeLine="44" fill="#282828" height="83.3781" id="JettyRestResponse" rx="8.3333" ry="8.3333" style="stroke:#5E5E5E;stroke-width:1.0416666666666667;" width="387.5" x="201.2604" y="483.9111"/><rect fill="#1B1B1A" height="31.3883" rx="8.3333" ry="8.3333" style="stroke:#1B1B1A;stroke-width:1.0416666666666667;" width="387.5" x="201.2604" y="483.9111"/><rect fill="#1B1B1A" height="8.3333" style="stroke:#1B1B1A;stroke-width:1.0416666666666667;" width="387.5" x="201.2604" y="506.9661"/><rect codeLine="44" fill="none" height="83.3781" id="JettyRestResponse" rx="8.3333" ry="8.3333" style="stroke:#5E5E5E;stroke-width:1.0416666666666667;" width="387.5" x="201.2604" y="483.9111"/><ellipse cx="327.3021" cy="499.6053" fill="#0066CF" rx="10.4167" ry="10.4167" style="stroke:#0086EF;stroke-width:1.0416666666666667;"/><path d="M329.2125,504.0304 Q328.7852,504.2501 328.3153,504.3599 Q327.8453,504.4698 327.3265,504.4698 Q325.4832,504.4698 324.5128,503.2552 Q323.5423,502.0406 323.5423,499.7457 Q323.5423,497.4447 324.5128,496.2301 Q325.4832,495.0155 327.3265,495.0155 Q327.8453,495.0155 328.3214,495.1253 Q328.7974,495.2352 329.2125,495.4549 L329.2125,497.4569 Q328.7486,497.0296 328.3122,496.8313 Q327.8758,496.6329 327.4119,496.6329 Q326.4232,496.6329 325.9196,497.4172 Q325.4161,498.2015 325.4161,499.7457 Q325.4161,501.2838 325.9196,502.0681 Q326.4232,502.8524 327.4119,502.8524 Q327.8758,502.8524 328.3122,502.654 Q328.7486,502.4556 329.2125,502.0284 Z " fill="#000000"/><text fill="#D8BC00" font-family="Open Sans,Avenir,Nunito,Arial,Helvetica,SansSerif" font-size="12.5" font-weight="bold" lengthAdjust="spacing" textLength="120.8333" x="350.2188" y="504.3294">JettyRestResponse</text><line style="stroke:#5E5E5E;stroke-width:1.5625;" x1="202.3021" x2="587.7188" y1="515.2995" y2="515.2995"/><ellipse cx="212.7188" cy="550.6694" fill="#84BE84" rx="3.125" ry="3.125" style="stroke:#038048;stroke-width:1.0416666666666667;"/><text fill="#D8BC00" font-family="Open Sans,Avenir,Nunito,Arial,Helvetica,SansSerif" font-size="11.4583" lengthAdjust="spacing" textLength="355.2083" x="224.1771" y="557.5806">JettyRestResponse(JettyRestRequestCycle, HttpServletResponse)</text><line style="stroke:#5E5E5E;stroke-width:1.0416666666666667;" x1="202.3021" x2="351.2604" y1="533.5052" y2="533.5052"/><text fill="#D8BC00" font-family="Open Sans,Avenir,Nunito,Arial,Helvetica,SansSerif" font-size="11.4583" lengthAdjust="spacing" textLength="81.25" x="354.3854" y="537.3149">(constructors)</text><line style="stroke:#5E5E5E;stroke-width:1.0416666666666667;" x1="438.7604" x2="587.7188" y1="533.5052" y2="533.5052"/><!--MD5=[8cdbc9b94861a0551afe987ce92ce686]
class MicroservletErrorList--><rect fill="#282828" height="48.055" id="MicroservletErrorList" rx="8.3333" ry="8.3333" style="stroke:#5E5E5E;stroke-width:1.0416666666666667;" width="171.875" x="309.0729" y="629.7445"/><rect fill="#1B1B1A" height="31.3883" rx="8.3333" ry="8.3333" style="stroke:#1B1B1A;stroke-width:1.0416666666666667;" width="171.875" x="309.0729" y="629.7445"/><rect fill="#1B1B1A" height="8.3333" style="stroke:#1B1B1A;stroke-width:1.0416666666666667;" width="171.875" x="309.0729" y="652.7995"/><rect fill="none" height="48.055" id="MicroservletErrorList" rx="8.3333" ry="8.3333" style="stroke:#5E5E5E;stroke-width:1.0416666666666667;" width="171.875" x="309.0729" y="629.7445"/><ellipse cx="323.6563" cy="645.4386" fill="#0066CF" rx="10.4167" ry="10.4167" style="stroke:#0086EF;stroke-width:1.0416666666666667;"/><path d="M325.5667,649.8637 Q325.1394,650.0834 324.6694,650.1933 Q324.1995,650.3031 323.6807,650.3031 Q321.8374,650.3031 320.8669,649.0885 Q319.8965,647.8739 319.8965,645.579 Q319.8965,643.278 320.8669,642.0634 Q321.8374,640.8488 323.6807,640.8488 Q324.1995,640.8488 324.6755,640.9587 Q325.1516,641.0685 325.5667,641.2882 L325.5667,643.2902 Q325.1028,642.863 324.6664,642.6646 Q324.23,642.4662 323.7661,642.4662 Q322.7773,642.4662 322.2738,643.2505 Q321.7703,644.0348 321.7703,645.579 Q321.7703,647.1171 322.2738,647.9014 Q322.7773,648.6857 323.7661,648.6857 Q324.23,648.6857 324.6664,648.4873 Q325.1028,648.289 325.5667,647.8617 Z " fill="#000000"/><text fill="#D8BC00" font-family="Open Sans,Avenir,Nunito,Arial,Helvetica,SansSerif" font-size="12.5" font-weight="bold" lengthAdjust="spacing" textLength="134.375" x="340.3229" y="650.1628">MicroservletErrorList</text><line style="stroke:#5E5E5E;stroke-width:1.0416666666666667;" x1="310.1146" x2="479.9063" y1="661.1328" y2="661.1328"/><line style="stroke:#5E5E5E;stroke-width:1.0416666666666667;" x1="310.1146" x2="479.9063" y1="669.4661" y2="669.4661"/><!--MD5=[4adc97bc518f452239751d7150f362d9]
reverse link BaseComponent to JettyRestRequest--><path codeLine="15" d="M317.5625,112.484 C347.6042,128.2861 383.625,147.2445 415.1979,163.8486 " fill="none" id="BaseComponent-backto-JettyRestRequest" style="stroke:#545454;stroke-width:1.5625;"/><polygon fill="none" points="314.2813,119.0049,299.2396,102.8486,321.0729,106.0986,314.2813,119.0049" style="stroke:#545454;stroke-width:1.5625;"/><!--MD5=[ce037dd22b85a933d033a0f41c298f70]
reverse link TryTrait to JettyRestRequest--><path codeLine="16" d="M780.5729,102.6611 C714.5625,126.4424 657.8125,146.609 609.6979,163.6299 " fill="none" id="TryTrait-backto-JettyRestRequest" style="stroke:#545454;stroke-width:1.5625;"/><polygon fill="none" points="777.7917,95.9007,799.8646,95.6924,782.75,109.6195,777.7917,95.9007" style="stroke:#545454;stroke-width:1.5625;"/><!--MD5=[51285264b694a3810865f96a4eaad857]
reverse link RestRequest to JettyRestRequest--><path codeLine="17" d="M469.4167,123.4632 C473.25,136.7132 477.4271,151.1299 481.1771,164.0986 " fill="none" id="RestRequest-backto-JettyRestRequest" style="stroke:#545454;stroke-width:1.5625;"/><polygon fill="none" points="462.4688,125.6715,463.6771,103.6299,476.4792,121.6195,462.4688,125.6715" style="stroke:#545454;stroke-width:1.5625;"/><!--MD5=[25392fcb0d03f46099ef61ae2bb52e0f]
reverse link RestProblemReportingTrait to JettyRestRequest--><path codeLine="18" d="M610.2188,115.484 C590.2917,130.6507 567.125,148.2861 546.6667,163.8486 " fill="none" id="RestProblemReportingTrait-backto-JettyRestRequest" style="stroke:#545454;stroke-width:1.5625;"/><polygon fill="none" points="605.5417,109.8799,626.5313,103.0674,614.375,121.484,605.5417,109.8799" style="stroke:#545454;stroke-width:1.5625;"/><!--MD5=[a0702a4c839f27fa828ff078b6c9ba35]
reverse link JettyRestRequest to JettyRestRequestCycle--><path codeLine="19" d="M447.1563,260.234 C436.4792,276.109 425.6354,293.5465 416.4792,309.5361 " fill="none" id="JettyRestRequest-backto-JettyRestRequestCycle" style="stroke:#545454;stroke-width:1.5625;"/><polygon fill="#333333" points="454.75,249.182,447.7747,251.9693,447.6649,259.4801,454.6402,256.6927,454.75,249.182" style="stroke:#545454;stroke-width:1.5625;"/><!--MD5=[c711973ddb371e93a602fa20c2f1f4ec]
reverse link JettyRestRequestCycle to JettyRestRequest--><path codeLine="29" d="M450.9479,296.9528 C461.6875,280.2549 472,262.8695 479.9688,247.8799 " fill="none" id="JettyRestRequestCycle-backto-JettyRestRequest" style="stroke:#545454;stroke-width:1.5625;"/><polygon fill="#333333" points="443.5521,308.2132,450.4636,305.2714,450.4064,297.7601,443.4948,300.7019,443.5521,308.2132" style="stroke:#545454;stroke-width:1.5625;"/><!--MD5=[ca518d2484c7e47ebecb18efcc8f003c]
reverse link BaseComponent to JettyRestRequestCycle--><path codeLine="26" d="M256.7396,123.9215 C260.8646,159.182 269.9271,208.5257 289.8021,247.4528 C301.25,269.859 318.0521,291.2861 334.8854,309.557 " fill="none" id="BaseComponent-backto-JettyRestRequestCycle" style="stroke:#545454;stroke-width:1.5625;"/><polygon fill="none" points="249.5313,125.0778,254.7604,103.6403,264.0417,123.6611,249.5313,125.0778" style="stroke:#545454;stroke-width:1.5625;"/><!--MD5=[736ec4283899519e2d33a921288262fe]
reverse link RestRequestCycle to JettyRestRequestCycle--><path codeLine="27" d="M181.4583,241.1507 C216,261.1299 260.3438,286.7757 299.6771,309.5153 " fill="none" id="RestRequestCycle-backto-JettyRestRequestCycle" style="stroke:#545454;stroke-width:1.5625;"/><polygon fill="none" points="178.1146,247.6403,163.7292,230.9007,185.4167,235.0153,178.1146,247.6403" style="stroke:#545454;stroke-width:1.5625;"/><!--MD5=[9e517068fa2de3868e8f4fad3d0b33b1]
reverse link RestProblemReportingTrait to JettyRestRequestCycle--><path codeLine="28" d="M685.1042,121.484 C703.9167,157.8486 721.6875,209.9736 696.0521,247.4528 C678.1667,273.609 653.5104,293.932 625.9479,309.7132 " fill="none" id="RestProblemReportingTrait-backto-JettyRestRequestCycle" style="stroke:#545454;stroke-width:1.5625;"/><polygon fill="none" points="678.8438,125.234,674.9896,103.4945,691.5521,118.0882,678.8438,125.234" style="stroke:#545454;stroke-width:1.5625;"/><!--MD5=[f3806813754f56bb053f7da7e9c29a04]
reverse link JettyRestRequestCycle to JettyRestResponse--><path codeLine="30" d="M381.8021,436.9632 C381.5417,452.8903 382.0104,469.307 383.1979,483.5465 " fill="none" id="JettyRestRequestCycle-backto-JettyRestResponse" style="stroke:#545454;stroke-width:1.5625;"/><polygon fill="#333333" points="382.2292,423.4945,377.8655,429.6086,381.831,435.9881,386.1946,429.874,382.2292,423.4945" style="stroke:#545454;stroke-width:1.5625;"/><!--MD5=[b940837edbe3142915e212f8c27ca0d0]
reverse link JettyRestResponse to JettyRestRequestCycle--><path codeLine="42" d="M408.5208,468.8382 C409.2708,453.609 409.2604,437.1195 408.5,421.9215 " fill="none" id="JettyRestResponse-backto-JettyRestRequestCycle" style="stroke:#545454;stroke-width:1.5625;"/><polygon fill="#333333" points="407.625,481.9736,412.2078,476.022,408.4765,469.5027,403.8938,475.4543,407.625,481.9736" style="stroke:#545454;stroke-width:1.5625;"/><!--MD5=[0442efa2beb3440fc42abe2b5948439f]
reverse link BaseComponent to JettyRestResponse--><path codeLine="39" d="M159.3021,89.1299 C111.3542,99.7445 57.0208,121.1195 27.3021,164.1195 C6.25,194.5882 16.375,212.0674 27.3021,247.4528 C54.9271,336.9007 73.3958,362.3799 146.0521,421.4111 C178.1875,447.5153 217.8542,467.9007 256.0104,483.3903 " fill="none" id="BaseComponent-backto-JettyRestResponse" style="stroke:#545454;stroke-width:1.5625;"/><polygon fill="none" points="157.7396,82.0049,179.5833,85.2028,160.5104,96.3174,157.7396,82.0049" style="stroke:#545454;stroke-width:1.5625;"/><!--MD5=[ba945d5525d6b5d93d36cd683e8998a8]
reverse link RestResponse to JettyRestResponse--><path codeLine="40" d="M676.0104,402.3382 C665.6354,409.0465 654.625,415.734 643.9688,421.4111 C600.5208,444.5674 550.7083,466.1195 507.125,483.4632 " fill="none" id="RestResponse-backto-JettyRestResponse" style="stroke:#545454;stroke-width:1.5625;"/><polygon fill="none" points="671.6458,396.4736,693.0104,390.9215,679.7708,408.5882,671.6458,396.4736" style="stroke:#545454;stroke-width:1.5625;"/><!--MD5=[40c3a50b092a6caa15191a81e3a327f4]
reverse link TryTrait to JettyRestResponse--><path codeLine="41" d="M855.6979,123.2965 C868.4583,195.359 881.5833,337.7549 808.5521,421.4111 C778.5625,455.7653 681.5938,480.9424 589.0938,497.8174 " fill="none" id="TryTrait-backto-JettyRestResponse" style="stroke:#545454;stroke-width:1.5625;"/><polygon fill="none" points="848.625,125.1299,851.8125,103.2965,862.9375,122.3486,848.625,125.1299" style="stroke:#545454;stroke-width:1.5625;"/><!--MD5=[d638e091513c632d1df8b717cfd7cb62]
reverse link JettyRestResponse to MicroservletErrorList--><path codeLine="43" d="M395.0104,582.4528 C395.0104,599.0465 395.0104,616.307 395.0104,629.5674 " fill="none" id="JettyRestResponse-backto-MicroservletErrorList" style="stroke:#545454;stroke-width:1.5625;"/><polygon fill="#333333" points="395.0104,569.1195,390.8438,575.3695,395.0104,581.6195,399.1771,575.3695,395.0104,569.1195" style="stroke:#545454;stroke-width:1.5625;"/><!--MD5=[ec3b57c999157e392dacbaaf72a54823]
@startuml

    !include lexakai.theme
    
    title "com.telenav.kivakit.microservice.internal.protocols.rest.plugins.jetty.cycle"
    
    abstract BaseComponent
    
    interface RestRequestCycle
    interface RestRequest
    interface RestResponse
    interface TryTrait
    interface RestProblemReportingTrait
    
    BaseComponent <|- - JettyRestRequest
    TryTrait <|- - JettyRestRequest
    RestRequest <|- - JettyRestRequest
    RestProblemReportingTrait <|- - JettyRestRequest
    JettyRestRequest o- - JettyRestRequestCycle
    class JettyRestRequest
    {
        - -(constructors)- -
        +JettyRestRequest(JettyRestRequestCycle, HttpServletRequest)
    }
    
    BaseComponent <|- - JettyRestRequestCycle
    RestRequestCycle <|- - JettyRestRequestCycle
    RestProblemReportingTrait <|- - JettyRestRequestCycle
    JettyRestRequestCycle o- - JettyRestRequest
    JettyRestRequestCycle o- - JettyRestResponse
    class JettyRestRequestCycle
    {
        - -(constructors)- -
        +JettyRestRequestCycle(RestService, HttpServletRequest, HttpServletResponse)
        - -
        +void attach(Microservlet<?,?>)
    }
    
    BaseComponent <|- - JettyRestResponse
    RestResponse <|- - JettyRestResponse
    TryTrait <|- - JettyRestResponse
    JettyRestResponse o- - JettyRestRequestCycle
    JettyRestResponse o- - MicroservletErrorList
    class JettyRestResponse
    {
        - -(constructors)- -
        +JettyRestResponse(JettyRestRequestCycle, HttpServletResponse)
    }
    
@enduml

@startuml









skinparam backgroundColor #333333






skinparam  {
    defaultFontName   "Open Sans,Avenir,Nunito,Arial,Helvetica,SansSerif"
    defaultFontSize   12
    defaultTextAlignment left
    shadowing false
    RoundCorner 10
    TitleFontSize 18
}

skinparam defaultFontName       "Open Sans,Avenir,Nunito,Arial,Helvetica,SansSerif"
skinparam defaultFontSize       12
skinparam dpi                   100
skinparam shadowing             false
skinparam roundcorner           16
skinparam ParticipantPadding    40
skinparam BoxPadding            40
skinparam Padding               3
skinparam ArrowColor            #545454
skinparam stereotype {
    CBackgroundColor #0066cf
    CBorderColor #0086ef
    ABackgroundColor #C8Ac00
    ABorderColor #D8Bc00
    IBackgroundColor #008400
    IBorderColor #239c23
    EBackgroundColor #cf6300
    EBorderColor #ef8300
    NBackgroundColor #3380b9
    NBorderColor #004d86
}
skinparam title {
	FontColor	                 #c0c0c0
 	BorderColor                  #545454
	FontSize	    	         20
	BorderRoundCorner            16
	BorderThickness 	         1
	BackgroundColor              #48494b
}


skinparam legend {
	BackgroundColor #303030
	BorderColor #404040
	FontColor #a0a0a0
}

	skinparam swimlane {
	BorderColor #5e5e5e
	BorderThickness 2
	TitleBackgroundColor  #6d6d6d-#484848
	TitleFontColor #303030
}

skinparam activity {
		FontColor #C8Ac00
	BorderColor #333333
	BackgroundColor #333333-#333333
	BarColor #00FF00
	StartColor #0060a8
	EndColor #0060a8
	DiamondBackgroundColor #6d6d6d-#3a3a3a
  	DiamondBorderColor #3a3a3a
  	DiamondFontColor #fefefe
}


skinparam participant {
		FontColor #C8Ac00
	BorderColor #333333
	BackgroundColor #333333-#333333
	ParticipantBorderThickness 2
}


skinparam actor {
		FontColor #C8Ac00
	BorderColor #333333
	BackgroundColor #333333-#333333
}


skinparam arrow {
	Thickness 1.5
	Color #545454
	FontColor #a0a0a0
    FontStyle bold
    MessageAlignment center
}



skinparam sequence {
	BorderColor #303030
	TitleFontColor #303030
	BackgroundColor #333333
	StartColor #303030
	EndColor #303030
	BoxBackgroundColor #333333
	BoxBorderColor #484848
	BoxFontColor #484848
	LifeLineBorderColor #484848
	LifeLineBorderThickness 2
	LifeLineBackgroundColor #3a3a3a
	GroupBorderColor #484848
	GroupFontColor #484848
	GroupHeaderFontColor #0060a8
	GroupBackgroundColor #484848
	GroupHeaderBackgroundColor #333333
	DividerBackgroundColor #484848
    DividerBorderColor #484848
    DividerBorderThickness 2
    DividerFontColor #D8Bc00
	ReferenceBackgroundColor #333333
	ReferenceBorderColor #484848
	ReferenceFontColor #fefefe
	ReferenceHeaderBackgroundColor #484848
}


skinparam partition {
	BorderColor #303030
	FontColor #333333
	BackgroundColor #333333
}


skinparam collections {
		FontColor #C8Ac00
	BorderColor #333333
	BackgroundColor #333333-#333333
}


skinparam control {
		FontColor #C8Ac00
	BorderColor #333333
	BackgroundColor #333333-#333333
}


skinparam entity {
		FontColor #C8Ac00
	BorderColor #333333
	BackgroundColor #333333-#333333
}


skinparam boundary {
		FontColor #C8Ac00
	BorderColor #333333
	BackgroundColor #333333-#333333
}


skinparam agent {
	BackgroundColor #ff8000
	BorderColor #ff9933
	FontColor #484848
}


skinparam note {
	BorderThickness 1
	BackgroundColor #1b1b1a
	BorderColor #5e5e5e
	FontSize 11
	FontColor #a0a0a0
}


skinparam artifact {
	BorderThickness 10
	BorderColor #5e5e5e
	BackgroundColor #1b1b1a
	FontColor #D8Bc00
}


skinparam component {
		FontColor #C8Ac00
	BorderColor #333333
	BackgroundColor #333333-#333333
}


skinparam interface {
	BackgroundColor  #008400
	BorderColor  #007F00
	FontColor #484848
}


skinparam storage {
	BackgroundColor #ff8000
  	BorderColor #cc6600
	FontColor #222222
}


skinparam node {
	BackgroundColor #333333
	BorderColor #333333
	FontColor #C8Ac00
}


skinparam cloud {
	BackgroundColor #484848-black
	BorderColor #484848
	FontColor #D8Bc00
}


skinparam database {
		FontColor #C8Ac00
	BorderColor #333333
	BackgroundColor #333333-#333333
	BackgroundColor  #333333
}


skinparam class {
		FontColor #C8Ac00
	BorderColor #333333
	BackgroundColor #333333-#333333
	HeaderBackgroundColor #1b1b1a
    BackgroundColor #282828
    BorderColor #5e5e5e
 	StereotypeFontColor #a0a0a0
    StereotypeFontStyle bold
	BorderThickness 1
	AttributeFontColor #D8Bc00
	AttributeFontSize 11
    FontColor #D8Bc00
    FontStyle bold
}


skinparam object {
		FontColor #C8Ac00
	BorderColor #333333
	BackgroundColor #333333-#333333
	StereotypeFontColor #484848
	BorderThickness 1
	AttributeFontColor #fefefe
	AttributeFontSize 11
}


skinparam usecase {
		FontColor #C8Ac00
	BorderColor #333333
	BackgroundColor #333333-#333333
	BorderThickness 2
	StereotypeFontColor #303030
}


skinparam rectangle {
		FontColor #C8Ac00
	BorderColor #333333
	BackgroundColor #333333-#333333
	BackgroundColor #333333
	BorderThickness 2
	StereotypeFontColor #303030
}


skinparam package {
		FontColor #C8Ac00
	BorderColor #333333
	BackgroundColor #333333-#333333
	BackgroundColor #333333
	BorderThickness 2
}


skinparam folder {
	BackgroundColor #6d6d6d
  	BorderColor #ff8000
	FontColor #ff8000
	BorderThickness 2
}


skinparam frame {
	BackgroundColor #6d6d6d
  	BorderColor #0060a8
	FontColor #0060a8
	BorderThickness 2
}


skinparam state {
		FontColor #C8Ac00
	BorderColor #333333
	BackgroundColor #333333-#333333
	StartColor #0060a8
	EndColor #0060a8
	AttributeFontColor #fefefe
	AttributeFontSize 11
}


skinparam queue {
		FontColor #C8Ac00
	BorderColor #333333
	BackgroundColor #333333-#333333
}


skinparam card {
	BackgroundColor #0060a8
	BorderColor #004d86
	FontColor $INFO_TEXT
}


skinparam file {
	BackgroundColor #6d6d6d-#484848
	BorderColor #0060a8
	FontColor #fefefe
}


skinparam stack {
		FontColor #C8Ac00
	BorderColor #333333
	BackgroundColor #333333-#333333
}

    
    title "com.telenav.kivakit.microservice.internal.protocols.rest.plugins.jetty.cycle"
    
    abstract BaseComponent
    
    interface RestRequestCycle
    interface RestRequest
    interface RestResponse
    interface TryTrait
    interface RestProblemReportingTrait
    
    BaseComponent <|- - JettyRestRequest
    TryTrait <|- - JettyRestRequest
    RestRequest <|- - JettyRestRequest
    RestProblemReportingTrait <|- - JettyRestRequest
    JettyRestRequest o- - JettyRestRequestCycle
    class JettyRestRequest
    {
        - -(constructors)- -
        +JettyRestRequest(JettyRestRequestCycle, HttpServletRequest)
    }
    
    BaseComponent <|- - JettyRestRequestCycle
    RestRequestCycle <|- - JettyRestRequestCycle
    RestProblemReportingTrait <|- - JettyRestRequestCycle
    JettyRestRequestCycle o- - JettyRestRequest
    JettyRestRequestCycle o- - JettyRestResponse
    class JettyRestRequestCycle
    {
        - -(constructors)- -
        +JettyRestRequestCycle(RestService, HttpServletRequest, HttpServletResponse)
        - -
        +void attach(Microservlet<?,?>)
    }
    
    BaseComponent <|- - JettyRestResponse
    RestResponse <|- - JettyRestResponse
    TryTrait <|- - JettyRestResponse
    JettyRestResponse o- - JettyRestRequestCycle
    JettyRestResponse o- - MicroservletErrorList
    class JettyRestResponse
    {
        - -(constructors)- -
        +JettyRestResponse(JettyRestRequestCycle, HttpServletResponse)
    }
    
@enduml

PlantUML version 1.2021.01(Tue Feb 02 00:55:08 MST 2021)
(GPL source distribution)
Java Runtime: OpenJDK Runtime Environment
JVM: OpenJDK 64-Bit Server VM
Default Encoding: UTF-8
Language: en
Country: US
--></g></svg>