<?xml version="1.0" encoding="UTF-8" standalone="no"?><svg xmlns="http://www.w3.org/2000/svg" xmlns:xlink="http://www.w3.org/1999/xlink" contentScriptType="application/ecmascript" contentStyleType="text/css" height="353.125px" preserveAspectRatio="none" style="width:337px;height:353px;background:#333333;" version="1.1" viewBox="0 0 337 353" width="337.5px" zoomAndPan="magnify"><defs/><g><rect fill="#48494B" height="41.2028" rx="8.3333" ry="8.3333" style="stroke:#545454;stroke-width:1.0416666666666667;" width="325" x="2.0833" y="2.0833"/><text fill="#C0C0C0" font-family="Open Sans,Avenir,Nunito,Arial,Helvetica,SansSerif" font-size="20.8333" lengthAdjust="spacing" textLength="302.0833" x="13.5417" y="30.5583">com.telenav.kivakit.logs.email</text><!--MD5=[505565754f693a0fa517a94d5718b84f]
class BaseTextLog--><rect codeLine="7" fill="#282828" height="48.055" id="BaseTextLog" rx="8.3333" ry="8.3333" style="stroke:#5E5E5E;stroke-width:1.0416666666666667;" width="119.7917" x="116.4063" y="53.7028"/><rect fill="#1B1B1A" height="31.3883" rx="8.3333" ry="8.3333" style="stroke:#1B1B1A;stroke-width:1.0416666666666667;" width="119.7917" x="116.4063" y="53.7028"/><rect fill="#1B1B1A" height="8.3333" style="stroke:#1B1B1A;stroke-width:1.0416666666666667;" width="119.7917" x="116.4063" y="76.7578"/><rect codeLine="7" fill="none" height="48.055" id="BaseTextLog" rx="8.3333" ry="8.3333" style="stroke:#5E5E5E;stroke-width:1.0416666666666667;" width="119.7917" x="116.4063" y="53.7028"/><ellipse cx="130.9896" cy="69.397" fill="#C8AC00" rx="10.4167" ry="10.4167" style="stroke:#D8BC00;stroke-width:1.0416666666666667;"/><path d="M130.5827,66.099 L129.7343,69.8283 L131.4372,69.8283 Z M129.484,64.4511 L131.6874,64.4511 L134.1471,73.5636 L132.3466,73.5636 L131.7851,71.3114 L129.3742,71.3114 L128.8249,73.5636 L127.0243,73.5636 Z " fill="#000000"/><text fill="#D8BC00" font-family="Open Sans,Avenir,Nunito,Arial,Helvetica,SansSerif" font-size="12.5" font-style="italic" font-weight="bold" lengthAdjust="spacing" textLength="82.2917" x="147.6563" y="74.1211">BaseTextLog</text><line style="stroke:#5E5E5E;stroke-width:1.0416666666666667;" x1="117.4479" x2="235.1563" y1="85.0911" y2="85.0911"/><line style="stroke:#5E5E5E;stroke-width:1.0416666666666667;" x1="117.4479" x2="235.1563" y1="93.4245" y2="93.4245"/><!--MD5=[72030a0d78c07c2cc8b1b661dea82049]
class EmailLog--><rect codeLine="13" fill="#282828" height="48.055" id="EmailLog" rx="8.3333" ry="8.3333" style="stroke:#5E5E5E;stroke-width:1.0416666666666667;" width="96.875" x="127.8646" y="165.1611"/><rect fill="#1B1B1A" height="31.3883" rx="8.3333" ry="8.3333" style="stroke:#1B1B1A;stroke-width:1.0416666666666667;" width="96.875" x="127.8646" y="165.1611"/><rect fill="#1B1B1A" height="8.3333" style="stroke:#1B1B1A;stroke-width:1.0416666666666667;" width="96.875" x="127.8646" y="188.2161"/><rect codeLine="13" fill="none" height="48.055" id="EmailLog" rx="8.3333" ry="8.3333" style="stroke:#5E5E5E;stroke-width:1.0416666666666667;" width="96.875" x="127.8646" y="165.1611"/><ellipse cx="142.4479" cy="180.8553" fill="#0066CF" rx="10.4167" ry="10.4167" style="stroke:#0086EF;stroke-width:1.0416666666666667;"/><path d="M144.3583,185.2804 Q143.9311,185.5001 143.4611,185.6099 Q142.9911,185.7198 142.4723,185.7198 Q140.6291,185.7198 139.6586,184.5052 Q138.6882,183.2906 138.6882,180.9957 Q138.6882,178.6947 139.6586,177.4801 Q140.6291,176.2655 142.4723,176.2655 Q142.9911,176.2655 143.4672,176.3753 Q143.9433,176.4852 144.3583,176.7049 L144.3583,178.7069 Q143.8944,178.2796 143.458,178.0813 Q143.0216,177.8829 142.5578,177.8829 Q141.569,177.8829 141.0655,178.6672 Q140.5619,179.4515 140.5619,180.9957 Q140.5619,182.5338 141.0655,183.3181 Q141.569,184.1024 142.5578,184.1024 Q143.0216,184.1024 143.458,183.904 Q143.8944,183.7056 144.3583,183.2784 Z " fill="#000000"/><text fill="#D8BC00" font-family="Open Sans,Avenir,Nunito,Arial,Helvetica,SansSerif" font-size="12.5" font-weight="bold" lengthAdjust="spacing" textLength="59.375" x="159.1146" y="185.5794">EmailLog</text><line style="stroke:#5E5E5E;stroke-width:1.0416666666666667;" x1="128.9063" x2="223.6979" y1="196.5495" y2="196.5495"/><line style="stroke:#5E5E5E;stroke-width:1.0416666666666667;" x1="128.9063" x2="223.6979" y1="204.8828" y2="204.8828"/><!--MD5=[6a10e9b103e375a5f698786d329ce000]
class EmailAddress--><rect fill="#282828" height="48.055" id="EmailAddress" rx="8.3333" ry="8.3333" style="stroke:#5E5E5E;stroke-width:1.0416666666666667;" width="126.0417" x="32.0313" y="298.4945"/><rect fill="#1B1B1A" height="31.3883" rx="8.3333" ry="8.3333" style="stroke:#1B1B1A;stroke-width:1.0416666666666667;" width="126.0417" x="32.0313" y="298.4945"/><rect fill="#1B1B1A" height="8.3333" style="stroke:#1B1B1A;stroke-width:1.0416666666666667;" width="126.0417" x="32.0313" y="321.5495"/><rect fill="none" height="48.055" id="EmailAddress" rx="8.3333" ry="8.3333" style="stroke:#5E5E5E;stroke-width:1.0416666666666667;" width="126.0417" x="32.0313" y="298.4945"/><ellipse cx="46.6146" cy="314.1886" fill="#0066CF" rx="10.4167" ry="10.4167" style="stroke:#0086EF;stroke-width:1.0416666666666667;"/><path d="M48.525,318.6137 Q48.0977,318.8334 47.6278,318.9433 Q47.1578,319.0531 46.639,319.0531 Q44.7957,319.0531 43.8253,317.8385 Q42.8548,316.6239 42.8548,314.329 Q42.8548,312.028 43.8253,310.8134 Q44.7957,309.5988 46.639,309.5988 Q47.1578,309.5988 47.6339,309.7087 Q48.1099,309.8185 48.525,310.0382 L48.525,312.0402 Q48.0611,311.613 47.6247,311.4146 Q47.1883,311.2162 46.7244,311.2162 Q45.7357,311.2162 45.2321,312.0005 Q44.7286,312.7848 44.7286,314.329 Q44.7286,315.8671 45.2321,316.6514 Q45.7357,317.4357 46.7244,317.4357 Q47.1883,317.4357 47.6247,317.2373 Q48.0611,317.039 48.525,316.6117 Z " fill="#000000"/><text fill="#D8BC00" font-family="Open Sans,Avenir,Nunito,Arial,Helvetica,SansSerif" font-size="12.5" font-weight="bold" lengthAdjust="spacing" textLength="88.5417" x="63.2813" y="318.9128">EmailAddress</text><line style="stroke:#5E5E5E;stroke-width:1.0416666666666667;" x1="33.0729" x2="157.0313" y1="329.8828" y2="329.8828"/><line style="stroke:#5E5E5E;stroke-width:1.0416666666666667;" x1="33.0729" x2="157.0313" y1="338.2161" y2="338.2161"/><!--MD5=[dbd744789a27dfb7a38205596e031569]
class EmailSender--><rect fill="#282828" height="48.055" id="EmailSender" rx="8.3333" ry="8.3333" style="stroke:#5E5E5E;stroke-width:1.0416666666666667;" width="116.6667" x="195.0521" y="298.4945"/><rect fill="#1B1B1A" height="31.3883" rx="8.3333" ry="8.3333" style="stroke:#1B1B1A;stroke-width:1.0416666666666667;" width="116.6667" x="195.0521" y="298.4945"/><rect fill="#1B1B1A" height="8.3333" style="stroke:#1B1B1A;stroke-width:1.0416666666666667;" width="116.6667" x="195.0521" y="321.5495"/><rect fill="none" height="48.055" id="EmailSender" rx="8.3333" ry="8.3333" style="stroke:#5E5E5E;stroke-width:1.0416666666666667;" width="116.6667" x="195.0521" y="298.4945"/><ellipse cx="209.6354" cy="314.1886" fill="#0066CF" rx="10.4167" ry="10.4167" style="stroke:#0086EF;stroke-width:1.0416666666666667;"/><path d="M211.5458,318.6137 Q211.1186,318.8334 210.6486,318.9433 Q210.1786,319.0531 209.6598,319.0531 Q207.8166,319.0531 206.8461,317.8385 Q205.8757,316.6239 205.8757,314.329 Q205.8757,312.028 206.8461,310.8134 Q207.8166,309.5988 209.6598,309.5988 Q210.1786,309.5988 210.6547,309.7087 Q211.1308,309.8185 211.5458,310.0382 L211.5458,312.0402 Q211.0819,311.613 210.6455,311.4146 Q210.2091,311.2162 209.7453,311.2162 Q208.7565,311.2162 208.253,312.0005 Q207.7494,312.7848 207.7494,314.329 Q207.7494,315.8671 208.253,316.6514 Q208.7565,317.4357 209.7453,317.4357 Q210.2091,317.4357 210.6455,317.2373 Q211.0819,317.039 211.5458,316.6117 Z " fill="#000000"/><text fill="#D8BC00" font-family="Open Sans,Avenir,Nunito,Arial,Helvetica,SansSerif" font-size="12.5" font-weight="bold" lengthAdjust="spacing" textLength="79.1667" x="226.3021" y="318.9128">EmailSender</text><line style="stroke:#5E5E5E;stroke-width:1.0416666666666667;" x1="196.0938" x2="310.6771" y1="329.8828" y2="329.8828"/><line style="stroke:#5E5E5E;stroke-width:1.0416666666666667;" x1="196.0938" x2="310.6771" y1="338.2161" y2="338.2161"/><!--MD5=[995f975f0cef30c597c09877b15bb350]
reverse link BaseTextLog to EmailLog--><path codeLine="9" d="M176.3021,124.0674 C176.3021,138.1299 176.3021,153.0257 176.3021,164.9111 " fill="none" id="BaseTextLog-backto-EmailLog" style="stroke:#545454;stroke-width:1.5625;"/><polygon fill="none" points="169.0104,124.307,176.3021,103.4736,183.5938,124.307,169.0104,124.307" style="stroke:#545454;stroke-width:1.5625;"/><!--MD5=[98e55ff0a82284e95f90a41c664bcdee]
reverse link EmailLog to EmailAddress--><path codeLine="10" d="M115.3021,218.4632 C105.9167,225.557 97.5,234.1195 91.9271,244.3278 C83,260.6611 84.6875,281.984 88.0938,298.0674 " fill="none" id="EmailLog-backto-EmailAddress" style="stroke:#545454;stroke-width:1.5625;"/><polygon fill="#333333" points="126.2604,211.1403,118.7489,211.1495,115.8682,218.0867,123.3798,218.0776,126.2604,211.1403" style="stroke:#545454;stroke-width:1.5625;"/><text fill="#A0A0A0" font-family="Open Sans,Avenir,Nunito,Arial,Helvetica,SansSerif" font-size="12.5" font-weight="bold" lengthAdjust="spacing" textLength="31.25" x="96.0938" y="260.5794">from</text><!--MD5=[98e55ff0a82284e95f90a41c664bcdee]
reverse link EmailLog to EmailAddress--><path codeLine="12" d="M158.5625,226.6715 C151.8333,239.7236 143.8125,254.3799 135.6771,267.2445 C129.0729,277.6715 121.0521,288.6611 113.8958,297.9945 " fill="none" id="EmailLog-backto-EmailAddress-1" style="stroke:#545454;stroke-width:1.5625;"/><polygon fill="#333333" points="164.6042,214.7028,158.0732,218.4135,158.9865,225.8694,165.5175,222.1586,164.6042,214.7028" style="stroke:#545454;stroke-width:1.5625;"/><text fill="#A0A0A0" font-family="Open Sans,Avenir,Nunito,Arial,Helvetica,SansSerif" font-size="12.5" font-weight="bold" lengthAdjust="spacing" textLength="13.5417" x="152.3438" y="260.5794">to</text><text fill="#A0A0A0" font-family="Open Sans,Avenir,Nunito,Arial,Helvetica,SansSerif" font-size="12.5" font-weight="bold" lengthAdjust="spacing" textLength="8.3333" x="149.3981" y="236.9387">1</text><text fill="#A0A0A0" font-family="Open Sans,Avenir,Nunito,Arial,Helvetica,SansSerif" font-size="12.5" font-weight="bold" lengthAdjust="spacing" textLength="6.25" x="107.4331" y="284.3063">*</text><!--MD5=[b5e29602702cc332d2b36d5e3a7458de]
reverse link EmailLog to EmailSender--><path codeLine="11" d="M197.5417,226.3278 C210.9792,249.2132 227.9688,278.1403 239.6563,298.0361 " fill="none" id="EmailLog-backto-EmailSender" style="stroke:#545454;stroke-width:1.5625;"/><polygon fill="#333333" points="190.7083,214.682,190.2846,222.1816,197.0443,225.4572,197.4681,217.9576,190.7083,214.682" style="stroke:#545454;stroke-width:1.5625;"/><!--MD5=[fd364be7570a9e19d5f6ce2eb497aefa]
@startuml

    !include lexakai.theme
    
    title "com.telenav.kivakit.logs.email"
    
    abstract BaseTextLog
    
    BaseTextLog <|- - EmailLog
    EmailLog o- - EmailAddress : "from"
    EmailLog o- - EmailSender
    EmailLog "1" o- - "*" EmailAddress : "to"
    class EmailLog
    {
    }
    
@enduml

@startuml









skinparam backgroundColor #333333






skinparam  {
    defaultFontName   "Open Sans,Avenir,Nunito,Arial,Helvetica,SansSerif"
    defaultFontSize   12
    defaultTextAlignment left
    shadowing false
    RoundCorner 10
    TitleFontSize 18
}

skinparam defaultFontName       "Open Sans,Avenir,Nunito,Arial,Helvetica,SansSerif"
skinparam defaultFontSize       12
skinparam dpi                   100
skinparam shadowing             false
skinparam roundcorner           16
skinparam ParticipantPadding    40
skinparam BoxPadding            40
skinparam Padding               3
skinparam ArrowColor            #545454
skinparam stereotype {
    CBackgroundColor #0066cf
    CBorderColor #0086ef
    ABackgroundColor #C8Ac00
    ABorderColor #D8Bc00
    IBackgroundColor #008400
    IBorderColor #239c23
    EBackgroundColor #cf6300
    EBorderColor #ef8300
    NBackgroundColor #3380b9
    NBorderColor #004d86
}
skinparam title {
	FontColor	                 #c0c0c0
 	BorderColor                  #545454
	FontSize	    	         20
	BorderRoundCorner            16
	BorderThickness 	         1
	BackgroundColor              #48494b
}


skinparam legend {
	BackgroundColor #303030
	BorderColor #404040
	FontColor #a0a0a0
}

	skinparam swimlane {
	BorderColor #5e5e5e
	BorderThickness 2
	TitleBackgroundColor  #6d6d6d-#484848
	TitleFontColor #303030
}

skinparam activity {
		FontColor #C8Ac00
	BorderColor #333333
	BackgroundColor #333333-#333333
	BarColor #00FF00
	StartColor #0060a8
	EndColor #0060a8
	DiamondBackgroundColor #6d6d6d-#3a3a3a
  	DiamondBorderColor #3a3a3a
  	DiamondFontColor #fefefe
}


skinparam participant {
		FontColor #C8Ac00
	BorderColor #333333
	BackgroundColor #333333-#333333
	ParticipantBorderThickness 2
}


skinparam actor {
		FontColor #C8Ac00
	BorderColor #333333
	BackgroundColor #333333-#333333
}


skinparam arrow {
	Thickness 1.5
	Color #545454
	FontColor #a0a0a0
    FontStyle bold
    MessageAlignment center
}



skinparam sequence {
	BorderColor #303030
	TitleFontColor #303030
	BackgroundColor #333333
	StartColor #303030
	EndColor #303030
	BoxBackgroundColor #333333
	BoxBorderColor #484848
	BoxFontColor #484848
	LifeLineBorderColor #484848
	LifeLineBorderThickness 2
	LifeLineBackgroundColor #3a3a3a
	GroupBorderColor #484848
	GroupFontColor #484848
	GroupHeaderFontColor #0060a8
	GroupBackgroundColor #484848
	GroupHeaderBackgroundColor #333333
	DividerBackgroundColor #484848
    DividerBorderColor #484848
    DividerBorderThickness 2
    DividerFontColor #D8Bc00
	ReferenceBackgroundColor #333333
	ReferenceBorderColor #484848
	ReferenceFontColor #fefefe
	ReferenceHeaderBackgroundColor #484848
}


skinparam partition {
	BorderColor #303030
	FontColor #333333
	BackgroundColor #333333
}


skinparam collections {
		FontColor #C8Ac00
	BorderColor #333333
	BackgroundColor #333333-#333333
}


skinparam control {
		FontColor #C8Ac00
	BorderColor #333333
	BackgroundColor #333333-#333333
}


skinparam entity {
		FontColor #C8Ac00
	BorderColor #333333
	BackgroundColor #333333-#333333
}


skinparam boundary {
		FontColor #C8Ac00
	BorderColor #333333
	BackgroundColor #333333-#333333
}


skinparam agent {
	BackgroundColor #ff8000
	BorderColor #ff9933
	FontColor #484848
}


skinparam note {
	BorderThickness 1
	BackgroundColor #1b1b1a
	BorderColor #5e5e5e
	FontSize 11
	FontColor #a0a0a0
}


skinparam artifact {
	BorderThickness 10
	BorderColor #5e5e5e
	BackgroundColor #1b1b1a
	FontColor #D8Bc00
}


skinparam component {
		FontColor #C8Ac00
	BorderColor #333333
	BackgroundColor #333333-#333333
}


skinparam interface {
	BackgroundColor  #008400
	BorderColor  #007F00
	FontColor #484848
}


skinparam storage {
	BackgroundColor #ff8000
  	BorderColor #cc6600
	FontColor #222222
}


skinparam node {
	BackgroundColor #333333
	BorderColor #333333
	FontColor #C8Ac00
}


skinparam cloud {
	BackgroundColor #484848-black
	BorderColor #484848
	FontColor #D8Bc00
}


skinparam database {
		FontColor #C8Ac00
	BorderColor #333333
	BackgroundColor #333333-#333333
	BackgroundColor  #333333
}


skinparam class {
		FontColor #C8Ac00
	BorderColor #333333
	BackgroundColor #333333-#333333
	HeaderBackgroundColor #1b1b1a
    BackgroundColor #282828
    BorderColor #5e5e5e
 	StereotypeFontColor #a0a0a0
    StereotypeFontStyle bold
	BorderThickness 1
	AttributeFontColor #D8Bc00
	AttributeFontSize 11
    FontColor #D8Bc00
    FontStyle bold
}


skinparam object {
		FontColor #C8Ac00
	BorderColor #333333
	BackgroundColor #333333-#333333
	StereotypeFontColor #484848
	BorderThickness 1
	AttributeFontColor #fefefe
	AttributeFontSize 11
}


skinparam usecase {
		FontColor #C8Ac00
	BorderColor #333333
	BackgroundColor #333333-#333333
	BorderThickness 2
	StereotypeFontColor #303030
}


skinparam rectangle {
		FontColor #C8Ac00
	BorderColor #333333
	BackgroundColor #333333-#333333
	BackgroundColor #333333
	BorderThickness 2
	StereotypeFontColor #303030
}


skinparam package {
		FontColor #C8Ac00
	BorderColor #333333
	BackgroundColor #333333-#333333
	BackgroundColor #333333
	BorderThickness 2
}


skinparam folder {
	BackgroundColor #6d6d6d
  	BorderColor #ff8000
	FontColor #ff8000
	BorderThickness 2
}


skinparam frame {
	BackgroundColor #6d6d6d
  	BorderColor #0060a8
	FontColor #0060a8
	BorderThickness 2
}


skinparam state {
		FontColor #C8Ac00
	BorderColor #333333
	BackgroundColor #333333-#333333
	StartColor #0060a8
	EndColor #0060a8
	AttributeFontColor #fefefe
	AttributeFontSize 11
}


skinparam queue {
		FontColor #C8Ac00
	BorderColor #333333
	BackgroundColor #333333-#333333
}


skinparam card {
	BackgroundColor #0060a8
	BorderColor #004d86
	FontColor $INFO_TEXT
}


skinparam file {
	BackgroundColor #6d6d6d-#484848
	BorderColor #0060a8
	FontColor #fefefe
}


skinparam stack {
		FontColor #C8Ac00
	BorderColor #333333
	BackgroundColor #333333-#333333
}

    
    title "com.telenav.kivakit.logs.email"
    
    abstract BaseTextLog
    
    BaseTextLog <|- - EmailLog
    EmailLog o- - EmailAddress : "from"
    EmailLog o- - EmailSender
    EmailLog "1" o- - "*" EmailAddress : "to"
    class EmailLog
    {
    }
    
@enduml

PlantUML version 1.2021.01(Tue Feb 02 00:55:08 MST 2021)
(GPL source distribution)
Java Runtime: OpenJDK Runtime Environment
JVM: OpenJDK 64-Bit Server VM
Default Encoding: UTF-8
Language: en
Country: US
--></g></svg>