<?xml version="1.0" encoding="UTF-8" standalone="no"?><svg xmlns="http://www.w3.org/2000/svg" xmlns:xlink="http://www.w3.org/1999/xlink" contentScriptType="application/ecmascript" contentStyleType="text/css" height="321.875px" preserveAspectRatio="none" style="width:579px;height:321px;background:#333333;" version="1.1" viewBox="0 0 579 321" width="579.1667px" zoomAndPan="magnify"><defs/><g><rect fill="#48494B" height="41.2028" rx="8.3333" ry="8.3333" style="stroke:#545454;stroke-width:1.0416666666666667;" width="566.6667" x="2.0833" y="2.0833"/><text fill="#C0C0C0" font-family="Open Sans,Avenir,Nunito,Arial,Helvetica,SansSerif" font-size="20.8333" lengthAdjust="spacing" textLength="543.75" x="13.5417" y="30.5583">com.telenav.kivakit.ui.desktop.component.panel.titled</text><rect fill="#282828" height="48.055" id="KivaKitPanel" rx="8.3333" ry="8.3333" style="stroke:#5E5E5E;stroke-width:1.0416666666666667;" width="118.75" x="233.3333" y="53.7028"/><rect fill="#1B1B1A" height="31.3883" rx="8.3333" ry="8.3333" style="stroke:#1B1B1A;stroke-width:1.0416666666666667;" width="118.75" x="233.3333" y="53.7028"/><rect fill="#1B1B1A" height="8.3333" style="stroke:#1B1B1A;stroke-width:1.0416666666666667;" width="118.75" x="233.3333" y="76.7578"/><rect fill="none" height="48.055" id="KivaKitPanel" rx="8.3333" ry="8.3333" style="stroke:#5E5E5E;stroke-width:1.0416666666666667;" width="118.75" x="233.3333" y="53.7028"/><ellipse cx="247.9167" cy="69.397" fill="#0066CF" rx="10.4167" ry="10.4167" style="stroke:#0086EF;stroke-width:1.0416666666666667;"/><path d="M249.8271,73.822 Q249.3998,74.0417 248.9299,74.1516 Q248.4599,74.2615 247.9411,74.2615 Q246.0978,74.2615 245.1274,73.0469 Q244.1569,71.8323 244.1569,69.5374 Q244.1569,67.2363 245.1274,66.0217 Q246.0978,64.8071 247.9411,64.8071 Q248.4599,64.8071 248.936,64.917 Q249.412,65.0269 249.8271,65.2466 L249.8271,67.2485 Q249.3632,66.8213 248.9268,66.6229 Q248.4904,66.4246 248.0265,66.4246 Q247.0378,66.4246 246.5342,67.2089 Q246.0307,67.9932 246.0307,69.5374 Q246.0307,71.0754 246.5342,71.8597 Q247.0378,72.644 248.0265,72.644 Q248.4904,72.644 248.9268,72.4457 Q249.3632,72.2473 249.8271,71.8201 Z " fill="#000000"/><text fill="#D8BC00" font-family="Open Sans,Avenir,Nunito,Arial,Helvetica,SansSerif" font-size="12.5" font-weight="bold" lengthAdjust="spacing" textLength="81.25" x="264.5833" y="74.1211">KivaKitPanel</text><line style="stroke:#5E5E5E;stroke-width:1.0416666666666667;" x1="234.375" x2="351.0417" y1="85.0911" y2="85.0911"/><line style="stroke:#5E5E5E;stroke-width:1.0416666666666667;" x1="234.375" x2="351.0417" y1="93.4245" y2="93.4245"/><rect codeLine="8" fill="#282828" height="150.946" id="TitledPanel" rx="8.3333" ry="8.3333" style="stroke:#5E5E5E;stroke-width:1.0416666666666667;" width="209.375" x="188.0208" y="164.1195"/><rect fill="#1B1B1A" height="31.3883" rx="8.3333" ry="8.3333" style="stroke:#1B1B1A;stroke-width:1.0416666666666667;" width="209.375" x="188.0208" y="164.1195"/><rect fill="#1B1B1A" height="8.3333" style="stroke:#1B1B1A;stroke-width:1.0416666666666667;" width="209.375" x="188.0208" y="187.1745"/><rect codeLine="8" fill="none" height="150.946" id="TitledPanel" rx="8.3333" ry="8.3333" style="stroke:#5E5E5E;stroke-width:1.0416666666666667;" width="209.375" x="188.0208" y="164.1195"/><ellipse cx="249.4792" cy="179.8136" fill="#0066CF" rx="10.4167" ry="10.4167" style="stroke:#0086EF;stroke-width:1.0416666666666667;"/><path d="M251.3896,184.2387 Q250.9623,184.4584 250.4924,184.5683 Q250.0224,184.6781 249.5036,184.6781 Q247.6603,184.6781 246.6899,183.4635 Q245.7194,182.2489 245.7194,179.954 Q245.7194,177.653 246.6899,176.4384 Q247.6603,175.2238 249.5036,175.2238 Q250.0224,175.2238 250.4985,175.3337 Q250.9745,175.4435 251.3896,175.6632 L251.3896,177.6652 Q250.9257,177.238 250.4893,177.0396 Q250.0529,176.8412 249.589,176.8412 Q248.6003,176.8412 248.0967,177.6255 Q247.5932,178.4098 247.5932,179.954 Q247.5932,181.4921 248.0967,182.2764 Q248.6003,183.0607 249.589,183.0607 Q250.0529,183.0607 250.4893,182.8623 Q250.9257,182.664 251.3896,182.2367 Z " fill="#000000"/><text fill="#D8BC00" font-family="Open Sans,Avenir,Nunito,Arial,Helvetica,SansSerif" font-size="12.5" font-weight="bold" lengthAdjust="spacing" textLength="71.875" x="272.3958" y="184.5378">TitledPanel</text><line style="stroke:#5E5E5E;stroke-width:1.5625;" x1="189.0625" x2="396.3542" y1="195.5078" y2="195.5078"/><ellipse cx="199.4792" cy="230.8777" fill="#84BE84" rx="3.125" ry="3.125" style="stroke:#038048;stroke-width:1.0416666666666667;"/><text fill="#D8BC00" font-family="Open Sans,Avenir,Nunito,Arial,Helvetica,SansSerif" font-size="11.4583" lengthAdjust="spacing" textLength="68.75" x="210.9375" y="237.7889">TitledPanel()</text><line style="stroke:#5E5E5E;stroke-width:1.0416666666666667;" x1="189.0625" x2="248.9583" y1="213.7136" y2="213.7136"/><text fill="#D8BC00" font-family="Open Sans,Avenir,Nunito,Arial,Helvetica,SansSerif" font-size="11.4583" lengthAdjust="spacing" textLength="81.25" x="252.0833" y="217.5232">(constructors)</text><line style="stroke:#5E5E5E;stroke-width:1.0416666666666667;" x1="336.4583" x2="396.3542" y1="213.7136" y2="213.7136"/><line style="stroke:#5E5E5E;stroke-width:1.0416666666666667;" x1="189.0625" x2="396.3542" y1="247.4976" y2="247.4976"/><ellipse cx="199.4792" cy="258.9559" fill="#84BE84" rx="3.125" ry="3.125" style="stroke:#038048;stroke-width:1.0416666666666667;"/><text fill="#D8BC00" font-family="Open Sans,Avenir,Nunito,Arial,Helvetica,SansSerif" font-size="11.4583" lengthAdjust="spacing" textLength="177.0833" x="210.9375" y="265.8671">void content(JComponent child)</text><ellipse cx="199.4792" cy="278.7008" fill="#84BE84" rx="3.125" ry="3.125" style="stroke:#038048;stroke-width:1.0416666666666667;"/><text fill="#D8BC00" font-family="Open Sans,Avenir,Nunito,Arial,Helvetica,SansSerif" font-size="11.4583" lengthAdjust="spacing" textLength="116.6667" x="210.9375" y="285.612">void icon(ImageIcon)</text><ellipse cx="199.4792" cy="298.4456" fill="#84BE84" rx="3.125" ry="3.125" style="stroke:#038048;stroke-width:1.0416666666666667;"/><text fill="#D8BC00" font-family="Open Sans,Avenir,Nunito,Arial,Helvetica,SansSerif" font-size="11.4583" lengthAdjust="spacing" textLength="113.5417" x="210.9375" y="305.3569">void title(String title)</text><path codeLine="7" d="M292.7083,122.8799 C292.7083,135.6299 292.7083,149.9111 292.7083,163.9632 " fill="none" id="KivaKitPanel-backto-TitledPanel" style="stroke:#545454;stroke-width:1.5625;"/><polygon fill="none" points="285.4167,122.7861,292.7083,101.9528,300,122.7861,285.4167,122.7861" style="stroke:#545454;stroke-width:1.5625;"/></g></svg>
