<?xml version="1.0" encoding="UTF-8" standalone="no"?><svg xmlns="http://www.w3.org/2000/svg" xmlns:xlink="http://www.w3.org/1999/xlink" contentScriptType="application/ecmascript" contentStyleType="text/css" height="533.3333px" preserveAspectRatio="none" style="width:1052px;height:533px;background:#333333;" version="1.1" viewBox="0 0 1052 533" width="1052.0833px" zoomAndPan="magnify"><defs/><g><rect fill="#48494B" height="41.2028" rx="8.3333" ry="8.3333" style="stroke:#545454;stroke-width:1.0416666666666667;" width="179.1667" x="429.4271" y="2.0833"/><text fill="#C0C0C0" font-family="Open Sans,Avenir,Nunito,Arial,Helvetica,SansSerif" font-size="20.8333" lengthAdjust="spacing" textLength="156.25" x="440.8854" y="30.5583">kivakit-security</text><rect fill="#1B1B1A" height="44.93" rx="8.3333" ry="8.3333" style="stroke:#5E5E5E;stroke-width:1.5625;" width="138.5417" x="7.2917" y="268.2861"/><polygon fill="#1B1B1A" points="128.125,273.4945,128.125,288.0778,140.625,288.0778,140.625,279.7445,134.375,273.4945,128.125,273.4945" style="stroke:#5E5E5E;stroke-width:1.5625;"/><line style="stroke:#5E5E5E;stroke-width:1.5625;" x1="134.375" x2="134.375" y1="273.4945" y2="279.7445"/><line style="stroke:#5E5E5E;stroke-width:1.5625;" x1="140.625" x2="134.375" y1="279.7445" y2="279.7445"/><text fill="#D8BC00" font-family="Open Sans,Avenir,Nunito,Arial,Helvetica,SansSerif" font-size="12.5" lengthAdjust="spacing" textLength="101.0417" x="20.8333" y="297.0378">cactus_metadata</text><rect fill="#1B1B1A" height="44.93" rx="8.3333" ry="8.3333" style="stroke:#5E5E5E;stroke-width:1.5625;" width="143.75" x="697.3958" y="375.5778"/><polygon fill="#1B1B1A" points="823.4375,380.7861,823.4375,395.3695,835.9375,395.3695,835.9375,387.0361,829.6875,380.7861,823.4375,380.7861" style="stroke:#5E5E5E;stroke-width:1.5625;"/><line style="stroke:#5E5E5E;stroke-width:1.5625;" x1="829.6875" x2="829.6875" y1="380.7861" y2="387.0361"/><line style="stroke:#5E5E5E;stroke-width:1.5625;" x1="835.9375" x2="829.6875" y1="387.0361" y2="387.0361"/><text fill="#D8BC00" font-family="Open Sans,Avenir,Nunito,Arial,Helvetica,SansSerif" font-size="12.5" lengthAdjust="spacing" textLength="106.25" x="710.9375" y="404.3294">kivakit_collections</text><rect fill="#1B1B1A" height="44.93" rx="8.3333" ry="8.3333" style="stroke:#5E5E5E;stroke-width:1.5625;" width="162.5" x="877.6042" y="375.5778"/><polygon fill="#1B1B1A" points="1022.3958,380.7861,1022.3958,395.3695,1034.8958,395.3695,1034.8958,387.0361,1028.6458,380.7861,1022.3958,380.7861" style="stroke:#5E5E5E;stroke-width:1.5625;"/><line style="stroke:#5E5E5E;stroke-width:1.5625;" x1="1028.6458" x2="1028.6458" y1="380.7861" y2="387.0361"/><line style="stroke:#5E5E5E;stroke-width:1.5625;" x1="1034.8958" x2="1028.6458" y1="387.0361" y2="387.0361"/><text fill="#D8BC00" font-family="Open Sans,Avenir,Nunito,Arial,Helvetica,SansSerif" font-size="12.5" lengthAdjust="spacing" textLength="125" x="891.1458" y="404.3294">kivakit_commandline</text><rect fill="#1B1B1A" height="44.93" rx="8.3333" ry="8.3333" style="stroke:#5E5E5E;stroke-width:1.5625;" width="145.8333" x="183.8542" y="160.9945"/><polygon fill="#1B1B1A" points="311.9792,166.2028,311.9792,180.7861,324.4792,180.7861,324.4792,172.4528,318.2292,166.2028,311.9792,166.2028" style="stroke:#5E5E5E;stroke-width:1.5625;"/><line style="stroke:#5E5E5E;stroke-width:1.5625;" x1="318.2292" x2="318.2292" y1="166.2028" y2="172.4528"/><line style="stroke:#5E5E5E;stroke-width:1.5625;" x1="324.4792" x2="318.2292" y1="172.4528" y2="172.4528"/><text fill="#D8BC00" font-family="Open Sans,Avenir,Nunito,Arial,Helvetica,SansSerif" font-size="12.5" lengthAdjust="spacing" textLength="108.3333" x="197.3958" y="189.7461">kivakit_conversion</text><rect fill="#1B1B1A" height="44.93" rx="8.3333" ry="8.3333" style="stroke:#5E5E5E;stroke-width:1.5625;" width="108.3333" x="366.1458" y="160.9945"/><polygon fill="#1B1B1A" points="456.7708,166.2028,456.7708,180.7861,469.2708,180.7861,469.2708,172.4528,463.0208,166.2028,456.7708,166.2028" style="stroke:#5E5E5E;stroke-width:1.5625;"/><line style="stroke:#5E5E5E;stroke-width:1.5625;" x1="463.0208" x2="463.0208" y1="166.2028" y2="172.4528"/><line style="stroke:#5E5E5E;stroke-width:1.5625;" x1="469.2708" x2="463.0208" y1="172.4528" y2="172.4528"/><text fill="#D8BC00" font-family="Open Sans,Avenir,Nunito,Arial,Helvetica,SansSerif" font-size="12.5" lengthAdjust="spacing" textLength="70.8333" x="379.6875" y="189.7461">kivakit_core</text><rect fill="#1B1B1A" height="44.93" rx="8.3333" ry="8.3333" style="stroke:#5E5E5E;stroke-width:1.5625;" width="140.625" x="182.2917" y="268.2861"/><polygon fill="#1B1B1A" points="305.2083,273.4945,305.2083,288.0778,317.7083,288.0778,317.7083,279.7445,311.4583,273.4945,305.2083,273.4945" style="stroke:#5E5E5E;stroke-width:1.5625;"/><line style="stroke:#5E5E5E;stroke-width:1.5625;" x1="311.4583" x2="311.4583" y1="273.4945" y2="279.7445"/><line style="stroke:#5E5E5E;stroke-width:1.5625;" x1="317.7083" x2="311.4583" y1="279.7445" y2="279.7445"/><text fill="#D8BC00" font-family="Open Sans,Avenir,Nunito,Arial,Helvetica,SansSerif" font-size="12.5" lengthAdjust="spacing" textLength="103.125" x="195.8333" y="297.0378">kivakit_interfaces</text><rect fill="#1B1B1A" height="44.93" rx="8.3333" ry="8.3333" style="stroke:#5E5E5E;stroke-width:1.5625;" width="172.9167" x="517.1875" y="268.2861"/><polygon fill="#1B1B1A" points="672.3958,273.4945,672.3958,288.0778,684.8958,288.0778,684.8958,279.7445,678.6458,273.4945,672.3958,273.4945" style="stroke:#5E5E5E;stroke-width:1.5625;"/><line style="stroke:#5E5E5E;stroke-width:1.5625;" x1="678.6458" x2="678.6458" y1="273.4945" y2="279.7445"/><line style="stroke:#5E5E5E;stroke-width:1.5625;" x1="684.8958" x2="678.6458" y1="279.7445" y2="279.7445"/><text fill="#D8BC00" font-family="Open Sans,Avenir,Nunito,Arial,Helvetica,SansSerif" font-size="12.5" lengthAdjust="spacing" textLength="135.4167" x="530.7292" y="297.0378">kivakit_internal_testing</text><rect fill="#1B1B1A" height="44.93" rx="8.3333" ry="8.3333" style="stroke:#5E5E5E;stroke-width:1.5625;" width="120.8333" x="359.8958" y="268.2861"/><polygon fill="#1B1B1A" points="463.0208,273.4945,463.0208,288.0778,475.5208,288.0778,475.5208,279.7445,469.2708,273.4945,463.0208,273.4945" style="stroke:#5E5E5E;stroke-width:1.5625;"/><line style="stroke:#5E5E5E;stroke-width:1.5625;" x1="469.2708" x2="469.2708" y1="273.4945" y2="279.7445"/><line style="stroke:#5E5E5E;stroke-width:1.5625;" x1="475.5208" x2="469.2708" y1="279.7445" y2="279.7445"/><text fill="#D8BC00" font-family="Open Sans,Avenir,Nunito,Arial,Helvetica,SansSerif" font-size="12.5" lengthAdjust="spacing" textLength="83.3333" x="373.4375" y="297.0378">kivakit_mixins</text><rect fill="#1B1B1A" height="44.93" rx="8.3333" ry="8.3333" style="stroke:#5E5E5E;stroke-width:1.5625;" width="134.375" x="727.0833" y="268.2861"/><polygon fill="#1B1B1A" points="843.75,273.4945,843.75,288.0778,856.25,288.0778,856.25,279.7445,850,273.4945,843.75,273.4945" style="stroke:#5E5E5E;stroke-width:1.5625;"/><line style="stroke:#5E5E5E;stroke-width:1.5625;" x1="850" x2="850" y1="273.4945" y2="279.7445"/><line style="stroke:#5E5E5E;stroke-width:1.5625;" x1="856.25" x2="850" y1="279.7445" y2="279.7445"/><text fill="#D8BC00" font-family="Open Sans,Avenir,Nunito,Arial,Helvetica,SansSerif" font-size="12.5" lengthAdjust="spacing" textLength="96.875" x="740.625" y="297.0378">kivakit_resource</text><rect fill="#1B1B1A" height="44.93" rx="8.3333" ry="8.3333" style="stroke:#5E5E5E;stroke-width:1.5625;" width="128.125" x="439.5833" y="53.7028"/><polygon fill="#1B1B1A" points="550,58.9111,550,73.4945,562.5,73.4945,562.5,65.1611,556.25,58.9111,550,58.9111" style="stroke:#5E5E5E;stroke-width:1.5625;"/><line style="stroke:#5E5E5E;stroke-width:1.5625;" x1="556.25" x2="556.25" y1="58.9111" y2="65.1611"/><line style="stroke:#5E5E5E;stroke-width:1.5625;" x1="562.5" x2="556.25" y1="65.1611" y2="65.1611"/><text fill="#D8BC00" font-family="Open Sans,Avenir,Nunito,Arial,Helvetica,SansSerif" font-size="12.5" lengthAdjust="spacing" textLength="90.625" x="453.125" y="82.4544">kivakit_security</text><rect fill="#1B1B1A" height="44.93" rx="8.3333" ry="8.3333" style="stroke:#5E5E5E;stroke-width:1.5625;" width="121.875" x="527.0833" y="160.9945"/><polygon fill="#1B1B1A" points="631.25,166.2028,631.25,180.7861,643.75,180.7861,643.75,172.4528,637.5,166.2028,631.25,166.2028" style="stroke:#5E5E5E;stroke-width:1.5625;"/><line style="stroke:#5E5E5E;stroke-width:1.5625;" x1="637.5" x2="637.5" y1="166.2028" y2="172.4528"/><line style="stroke:#5E5E5E;stroke-width:1.5625;" x1="643.75" x2="637.5" y1="172.4528" y2="172.4528"/><text fill="#D8BC00" font-family="Open Sans,Avenir,Nunito,Arial,Helvetica,SansSerif" font-size="12.5" lengthAdjust="spacing" textLength="84.375" x="540.625" y="189.7461">kivakit_testing</text><rect fill="#1B1B1A" height="44.93" rx="8.3333" ry="8.3333" style="stroke:#5E5E5E;stroke-width:1.5625;" width="139.5833" x="889.0625" y="482.8695"/><polygon fill="#1B1B1A" points="1010.9375,488.0778,1010.9375,502.6611,1023.4375,502.6611,1023.4375,494.3278,1017.1875,488.0778,1010.9375,488.0778" style="stroke:#5E5E5E;stroke-width:1.5625;"/><line style="stroke:#5E5E5E;stroke-width:1.5625;" x1="1017.1875" x2="1017.1875" y1="488.0778" y2="494.3278"/><line style="stroke:#5E5E5E;stroke-width:1.5625;" x1="1023.4375" x2="1017.1875" y1="494.3278" y2="494.3278"/><text fill="#D8BC00" font-family="Open Sans,Avenir,Nunito,Arial,Helvetica,SansSerif" font-size="12.5" lengthAdjust="spacing" textLength="102.0833" x="902.6042" y="511.6211">kivakit_validation</text><rect fill="#1B1B1A" height="44.93" rx="8.3333" ry="8.3333" style="stroke:#5E5E5E;stroke-width:1.5625;" width="155.2083" x="685.4167" y="160.9945"/><polygon fill="#1B1B1A" points="822.9167,166.2028,822.9167,180.7861,835.4167,180.7861,835.4167,172.4528,829.1667,166.2028,822.9167,166.2028" style="stroke:#5E5E5E;stroke-width:1.5625;"/><line style="stroke:#5E5E5E;stroke-width:1.5625;" x1="829.1667" x2="829.1667" y1="166.2028" y2="172.4528"/><line style="stroke:#5E5E5E;stroke-width:1.5625;" x1="835.4167" x2="829.1667" y1="172.4528" y2="172.4528"/><text fill="#D8BC00" font-family="Open Sans,Avenir,Nunito,Arial,Helvetica,SansSerif" font-size="12.5" lengthAdjust="spacing" textLength="117.7083" x="698.9583" y="189.7461">lexakai_annotations</text><rect fill="#1B1B1A" height="44.93" rx="8.3333" ry="8.3333" style="stroke:#5E5E5E;stroke-width:1.5625;" width="63.5417" x="571.875" y="375.5778"/><polygon fill="#1B1B1A" points="617.7083,380.7861,617.7083,395.3695,630.2083,395.3695,630.2083,387.0361,623.9583,380.7861,617.7083,380.7861" style="stroke:#5E5E5E;stroke-width:1.5625;"/><line style="stroke:#5E5E5E;stroke-width:1.5625;" x1="623.9583" x2="623.9583" y1="380.7861" y2="387.0361"/><line style="stroke:#5E5E5E;stroke-width:1.5625;" x1="630.2083" x2="623.9583" y1="387.0361" y2="387.0361"/><text fill="#D8BC00" font-family="Open Sans,Avenir,Nunito,Arial,Helvetica,SansSerif" font-size="12.5" lengthAdjust="spacing" textLength="26.0417" x="585.4167" y="404.3294">junit</text><rect fill="#1B1B1A" height="44.93" rx="8.3333" ry="8.3333" style="stroke:#5E5E5E;stroke-width:1.5625;" width="125" x="541.1458" y="482.8695"/><polygon fill="#1B1B1A" points="648.4375,488.0778,648.4375,502.6611,660.9375,502.6611,660.9375,494.3278,654.6875,488.0778,648.4375,488.0778" style="stroke:#5E5E5E;stroke-width:1.5625;"/><line style="stroke:#5E5E5E;stroke-width:1.5625;" x1="654.6875" x2="654.6875" y1="488.0778" y2="494.3278"/><line style="stroke:#5E5E5E;stroke-width:1.5625;" x1="660.9375" x2="654.6875" y1="494.3278" y2="494.3278"/><text fill="#D8BC00" font-family="Open Sans,Avenir,Nunito,Arial,Helvetica,SansSerif" font-size="12.5" lengthAdjust="spacing" textLength="87.5" x="554.6875" y="511.6211">hamcrest_core</text><rect fill="#1B1B1A" height="44.93" rx="8.3333" ry="8.3333" style="stroke:#5E5E5E;stroke-width:1.5625;" width="106.25" x="199.4792" y="375.5778"/><polygon fill="#1B1B1A" points="288.0208,380.7861,288.0208,395.3695,300.5208,395.3695,300.5208,387.0361,294.2708,380.7861,288.0208,380.7861" style="stroke:#5E5E5E;stroke-width:1.5625;"/><line style="stroke:#5E5E5E;stroke-width:1.5625;" x1="294.2708" x2="294.2708" y1="380.7861" y2="387.0361"/><line style="stroke:#5E5E5E;stroke-width:1.5625;" x1="300.5208" x2="294.2708" y1="387.0361" y2="387.0361"/><text fill="#D8BC00" font-family="Open Sans,Avenir,Nunito,Arial,Helvetica,SansSerif" font-size="12.5" lengthAdjust="spacing" textLength="68.75" x="213.0208" y="404.3294">annotations</text><path d="M603.6458,420.8174 C603.6458,437.2861 603.6458,459.984 603.6458,477.5361 " fill="none" id="junit-to-hamcrest_core" style="stroke:#545454;stroke-width:1.5625;"/><polygon fill="#545454" points="603.6458,482.8174,607.8125,473.4424,603.6458,477.609,599.4792,473.4424,603.6458,482.8174" style="stroke:#545454;stroke-width:1.5625;"/><path d="M958.8542,420.8174 C958.8542,437.2861 958.8542,459.984 958.8542,477.5361 " fill="none" id="kivakit_commandline-to-kivakit_validation" style="stroke:#545454;stroke-width:1.5625;"/><polygon fill="#545454" points="958.8542,482.8174,963.0208,473.4424,958.8542,477.609,954.6875,473.4424,958.8542,482.8174" style="stroke:#545454;stroke-width:1.5625;"/><path d="M365.8438,201.0986 C307.8125,218.859 215.5938,247.0882 150.9063,266.8903 " fill="none" id="kivakit_core-to-cactus_metadata" style="stroke:#545454;stroke-width:1.5625;"/><polygon fill="#545454" points="145.9063,268.4111,156.0928,269.6301,150.8833,266.8763,153.6371,261.6668,145.9063,268.4111" style="stroke:#545454;stroke-width:1.5625;"/><path d="M385.9688,205.9736 C358.5,223.2132 319.9792,247.3695 291.3958,265.307 " fill="none" id="kivakit_core-to-kivakit_interfaces" style="stroke:#545454;stroke-width:1.5625;"/><polygon fill="#545454" points="286.9063,268.1299,297.0611,266.6698,291.3162,265.3588,292.6273,259.6139,286.9063,268.1299" style="stroke:#545454;stroke-width:1.5625;"/><path d="M420.3125,206.234 C420.3125,222.7028 420.3125,245.4007 420.3125,262.9528 " fill="none" id="kivakit_core-to-kivakit_mixins" style="stroke:#545454;stroke-width:1.5625;"/><polygon fill="#545454" points="420.3125,268.234,424.4792,258.859,420.3125,263.0257,416.1458,258.859,420.3125,268.234" style="stroke:#545454;stroke-width:1.5625;"/><path d="M252.6042,313.5257 C252.6042,329.9945 252.6042,352.6924 252.6042,370.2445 " fill="none" id="kivakit_interfaces-to-annotations" style="stroke:#545454;stroke-width:1.5625;"/><polygon fill="#545454" points="252.6042,375.5257,256.7708,366.1507,252.6042,370.3174,248.4375,366.1507,252.6042,375.5257" style="stroke:#545454;stroke-width:1.5625;"/><path d="M603.6458,313.5257 C603.6458,329.9945 603.6458,352.6924 603.6458,370.2445 " fill="none" id="kivakit_internal_testing-to-junit" style="stroke:#545454;stroke-width:1.5625;"/><polygon fill="#545454" points="603.6458,375.5257,607.8125,366.1507,603.6458,370.3174,599.4792,366.1507,603.6458,375.5257" style="stroke:#545454;stroke-width:1.5625;"/><path d="M789.0938,313.5257 C785.1771,329.9945 779.7813,352.6924 775.6146,370.2445 " fill="none" id="kivakit_resource-to-kivakit_collections" style="stroke:#545454;stroke-width:1.5625;"/><polygon fill="#545454" points="774.3542,375.5257,780.58,367.3716,775.5612,370.4592,772.4736,365.4403,774.3542,375.5257" style="stroke:#545454;stroke-width:1.5625;"/><path d="M827.9688,313.2653 C854.9375,330.5049 892.7292,354.6611 920.7813,372.5986 " fill="none" id="kivakit_resource-to-kivakit_commandline" style="stroke:#545454;stroke-width:1.5625;"/><polygon fill="#545454" points="925.1979,375.4215,919.5518,366.8557,920.8124,372.6119,915.0563,373.8725,925.1979,375.4215" style="stroke:#545454;stroke-width:1.5625;"/><path d="M453.3854,98.557 C412.3438,116.0465 354.3958,140.7445 312.0417,158.7965 " fill="none" id="kivakit_security-to-kivakit_conversion" style="stroke:#545454;stroke-width:1.5625;"/><polygon fill="#545454" points="306.9583,160.9632,317.2163,161.1269,311.7509,158.9241,313.9537,153.4588,306.9583,160.9632" style="stroke:#545454;stroke-width:1.5625;"/><path d="M486.375,98.9424 C473.1042,115.6924 454.7292,138.8903 440.7292,156.5674 " fill="none" id="kivakit_security-to-kivakit_core" style="stroke:#545454;stroke-width:1.5625;"/><polygon fill="#545454" points="437.2708,160.9424,446.3492,156.1638,440.4972,156.8537,439.8073,151.0017,437.2708,160.9424" style="stroke:#545454;stroke-width:1.5625;"/><path d="M521.125,98.9424 C534.5625,115.6924 553.1667,138.8903 567.3438,156.5674 " fill="none" id="kivakit_security-to-kivakit_testing" style="stroke:#545454;stroke-width:1.5625;"/><polygon fill="#545454" points="570.8542,160.9424,568.238,151.0223,567.5951,156.8797,561.7377,156.2368,570.8542,160.9424" style="stroke:#545454;stroke-width:1.5625;"/><path d="M556.4479,98.557 C599.6667,116.0882 660.6979,140.8486 705.2188,158.9007 " fill="none" id="kivakit_security-to-lexakai_annotations" style="stroke:#545454;stroke-width:1.5625;"/><polygon fill="#545454" points="710.2917,160.9632,703.1816,153.5673,705.4683,158.9981,700.0375,161.2848,710.2917,160.9632" style="stroke:#545454;stroke-width:1.5625;"/><path d="M591.2604,206.234 C593.7083,222.7028 597.0729,245.4007 599.6875,262.9528 " fill="none" id="kivakit_testing-to-kivakit_internal_testing" style="stroke:#545454;stroke-width:1.5625;"/><polygon fill="#545454" points="600.4688,268.234,603.1958,258.3439,599.6947,263.0836,594.955,259.5824,600.4688,268.234" style="stroke:#545454;stroke-width:1.5625;"/><path d="M630.2604,205.9736 C664.3229,223.3486 712.1875,247.7757 747.4271,265.7445 " fill="none" id="kivakit_testing-to-kivakit_resource" style="stroke:#545454;stroke-width:1.5625;"/><polygon fill="#545454" points="752.0938,268.1299,745.6328,260.1607,747.4533,265.765,741.849,267.5855,752.0938,268.1299" style="stroke:#545454;stroke-width:1.5625;"/></g></svg>
