<?xml version="1.0" encoding="UTF-8" standalone="no"?><svg xmlns="http://www.w3.org/2000/svg" xmlns:xlink="http://www.w3.org/1999/xlink" contentScriptType="application/ecmascript" contentStyleType="text/css" height="443.75px" preserveAspectRatio="none" style="width:633px;height:443px;background:#333333;" version="1.1" viewBox="0 0 633 443" width="633.3333px" zoomAndPan="magnify"><defs/><g><rect fill="#48494B" height="41.2028" rx="8.3333" ry="8.3333" style="stroke:#545454;stroke-width:1.0416666666666667;" width="620.8333" x="2.0833" y="2.0833"/><text fill="#C0C0C0" font-family="Open Sans,Avenir,Nunito,Arial,Helvetica,SansSerif" font-size="20.8333" lengthAdjust="spacing" textLength="597.9167" x="13.5417" y="30.5583">com.telenav.kivakit.primitive.collections.array.bits.io.output</text><rect codeLine="12" fill="#282828" height="127.0345" id="BaseBitWriter" rx="8.3333" ry="8.3333" style="stroke:#5E5E5E;stroke-width:1.0416666666666667;" width="168.75" x="235.4167" y="164.1195"/><rect fill="#1B1B1A" height="31.3883" rx="8.3333" ry="8.3333" style="stroke:#1B1B1A;stroke-width:1.0416666666666667;" width="168.75" x="235.4167" y="164.1195"/><rect fill="#1B1B1A" height="8.3333" style="stroke:#1B1B1A;stroke-width:1.0416666666666667;" width="168.75" x="235.4167" y="187.1745"/><rect codeLine="12" fill="none" height="127.0345" id="BaseBitWriter" rx="8.3333" ry="8.3333" style="stroke:#5E5E5E;stroke-width:1.0416666666666667;" width="168.75" x="235.4167" y="164.1195"/><ellipse cx="270.1563" cy="179.8136" fill="#C8AC00" rx="10.4167" ry="10.4167" style="stroke:#D8BC00;stroke-width:1.0416666666666667;"/><path d="M269.7493,176.5157 L268.901,180.245 L270.6038,180.245 Z M268.6507,174.8678 L270.8541,174.8678 L273.3138,183.9803 L271.5133,183.9803 L270.9517,181.7281 L268.5409,181.7281 L267.9915,183.9803 L266.191,183.9803 Z " fill="#000000"/><text fill="#D8BC00" font-family="Open Sans,Avenir,Nunito,Arial,Helvetica,SansSerif" font-size="12.5" font-style="italic" font-weight="bold" lengthAdjust="spacing" textLength="86.4583" x="291.3021" y="184.5378">BaseBitWriter</text><line style="stroke:#5E5E5E;stroke-width:1.5625;" x1="236.4583" x2="403.125" y1="195.5078" y2="195.5078"/><polygon fill="#FFFF44" points="246.875,225.6694,251.0417,229.836,246.875,234.0027,242.7083,229.836" style="stroke:#B38D22;stroke-width:1.0416666666666667;"/><text fill="#D8BC00" font-family="Open Sans,Avenir,Nunito,Arial,Helvetica,SansSerif" font-size="11.4583" lengthAdjust="spacing" textLength="136.4583" x="258.3333" y="237.7889">void onFlush(byte value)</text><line style="stroke:#5E5E5E;stroke-width:1.0416666666666667;" x1="236.4583" x2="307.2917" y1="213.7136" y2="213.7136"/><text fill="#D8BC00" font-family="Open Sans,Avenir,Nunito,Arial,Helvetica,SansSerif" font-size="11.4583" lengthAdjust="spacing" textLength="18.75" x="310.4167" y="217.5232">(io)</text><line style="stroke:#5E5E5E;stroke-width:1.0416666666666667;" x1="332.2917" x2="403.125" y1="213.7136" y2="213.7136"/><polygon fill="#FFFF44" points="246.875,269.3258,251.0417,273.4924,246.875,277.6591,242.7083,273.4924" style="stroke:#B38D22;stroke-width:1.0416666666666667;"/><text fill="#D8BC00" font-family="Open Sans,Avenir,Nunito,Arial,Helvetica,SansSerif" font-size="11.4583" lengthAdjust="spacing" textLength="134.375" x="258.3333" y="281.4453">void onWrite(byte value)</text><line style="stroke:#5E5E5E;stroke-width:1.0416666666666667;" x1="236.4583" x2="298.9583" y1="257.37" y2="257.37"/><text fill="#D8BC00" font-family="Open Sans,Avenir,Nunito,Arial,Helvetica,SansSerif" font-size="11.4583" lengthAdjust="spacing" textLength="35.4167" x="302.0833" y="261.1796">(write)</text><line style="stroke:#5E5E5E;stroke-width:1.0416666666666667;" x1="340.625" x2="403.125" y1="257.37" y2="257.37"/><rect codeLine="9" fill="#282828" height="48.055" id="BitWriter" rx="8.3333" ry="8.3333" style="stroke:#5E5E5E;stroke-width:1.0416666666666667;" width="93.75" x="272.9167" y="53.7028"/><rect fill="#1B1B1A" height="31.3883" rx="8.3333" ry="8.3333" style="stroke:#1B1B1A;stroke-width:1.0416666666666667;" width="93.75" x="272.9167" y="53.7028"/><rect fill="#1B1B1A" height="8.3333" style="stroke:#1B1B1A;stroke-width:1.0416666666666667;" width="93.75" x="272.9167" y="76.7578"/><rect codeLine="9" fill="none" height="48.055" id="BitWriter" rx="8.3333" ry="8.3333" style="stroke:#5E5E5E;stroke-width:1.0416666666666667;" width="93.75" x="272.9167" y="53.7028"/><ellipse cx="287.5" cy="69.397" fill="#008400" rx="10.4167" ry="10.4167" style="stroke:#239C23;stroke-width:1.0416666666666667;"/><path d="M284.904,66.5588 L284.904,64.9719 L290.33,64.9719 L290.33,66.5588 L288.5173,66.5588 L288.5173,72.4976 L290.33,72.4976 L290.33,74.0845 L284.904,74.0845 L284.904,72.4976 L286.7167,72.4976 L286.7167,66.5588 Z " fill="#000000"/><text fill="#D8BC00" font-family="Open Sans,Avenir,Nunito,Arial,Helvetica,SansSerif" font-size="12.5" font-style="italic" font-weight="bold" lengthAdjust="spacing" textLength="56.25" x="304.1667" y="74.1211">BitWriter</text><line style="stroke:#5E5E5E;stroke-width:1.0416666666666667;" x1="273.9583" x2="365.625" y1="85.0911" y2="85.0911"/><line style="stroke:#5E5E5E;stroke-width:1.0416666666666667;" x1="273.9583" x2="365.625" y1="93.4245" y2="93.4245"/><rect codeLine="21" fill="#282828" height="83.3781" id="BitOutput" rx="8.3333" ry="8.3333" style="stroke:#5E5E5E;stroke-width:1.0416666666666667;" width="222.9167" x="208.3333" y="353.7028"/><rect fill="#1B1B1A" height="31.3883" rx="8.3333" ry="8.3333" style="stroke:#1B1B1A;stroke-width:1.0416666666666667;" width="222.9167" x="208.3333" y="353.7028"/><rect fill="#1B1B1A" height="8.3333" style="stroke:#1B1B1A;stroke-width:1.0416666666666667;" width="222.9167" x="208.3333" y="376.7578"/><rect codeLine="21" fill="none" height="83.3781" id="BitOutput" rx="8.3333" ry="8.3333" style="stroke:#5E5E5E;stroke-width:1.0416666666666667;" width="222.9167" x="208.3333" y="353.7028"/><ellipse cx="280.7292" cy="369.397" fill="#0066CF" rx="10.4167" ry="10.4167" style="stroke:#0086EF;stroke-width:1.0416666666666667;"/><path d="M282.6396,373.822 Q282.2123,374.0417 281.7424,374.1516 Q281.2724,374.2615 280.7536,374.2615 Q278.9103,374.2615 277.9399,373.0469 Q276.9694,371.8323 276.9694,369.5374 Q276.9694,367.2363 277.9399,366.0217 Q278.9103,364.8071 280.7536,364.8071 Q281.2724,364.8071 281.7485,364.917 Q282.2245,365.0269 282.6396,365.2466 L282.6396,367.2485 Q282.1757,366.8213 281.7393,366.6229 Q281.3029,366.4246 280.839,366.4246 Q279.8503,366.4246 279.3467,367.2089 Q278.8432,367.9932 278.8432,369.5374 Q278.8432,371.0754 279.3467,371.8597 Q279.8503,372.644 280.839,372.644 Q281.3029,372.644 281.7393,372.4457 Q282.1757,372.2473 282.6396,371.8201 Z " fill="#000000"/><text fill="#D8BC00" font-family="Open Sans,Avenir,Nunito,Arial,Helvetica,SansSerif" font-size="12.5" font-weight="bold" lengthAdjust="spacing" textLength="63.5417" x="303.6458" y="374.1211">BitOutput</text><line style="stroke:#5E5E5E;stroke-width:1.5625;" x1="209.375" x2="430.2083" y1="385.0911" y2="385.0911"/><ellipse cx="219.7917" cy="420.461" fill="#84BE84" rx="3.125" ry="3.125" style="stroke:#038048;stroke-width:1.0416666666666667;"/><text fill="#D8BC00" font-family="Open Sans,Avenir,Nunito,Arial,Helvetica,SansSerif" font-size="11.4583" lengthAdjust="spacing" textLength="190.625" x="231.25" y="427.3722">BitOutput(Listener, OutputStream)</text><line style="stroke:#5E5E5E;stroke-width:1.0416666666666667;" x1="209.375" x2="276.0417" y1="403.2969" y2="403.2969"/><text fill="#D8BC00" font-family="Open Sans,Avenir,Nunito,Arial,Helvetica,SansSerif" font-size="11.4583" lengthAdjust="spacing" textLength="81.25" x="279.1667" y="407.1065">(constructors)</text><line style="stroke:#5E5E5E;stroke-width:1.0416666666666667;" x1="363.5417" x2="430.2083" y1="403.2969" y2="403.2969"/><path codeLine="11" d="M319.7917,123.057 C319.7917,135.9632 319.7917,150.307 319.7917,164.109 " fill="none" id="BitWriter-backto-BaseBitWriter" style="stroke:#545454;stroke-width:1.5625;"/><polygon fill="none" points="312.5,122.6507,319.7917,101.8174,327.0833,122.6507,312.5,122.6507" style="stroke:#545454;stroke-width:1.5625;"/><path codeLine="20" d="M319.7917,312.2653 C319.7917,326.682 319.7917,341.0778 319.7917,353.682 " fill="none" id="BaseBitWriter-backto-BitOutput" style="stroke:#545454;stroke-width:1.5625;"/><polygon fill="none" points="312.5,312.1507,319.7917,291.3174,327.0833,312.1507,312.5,312.1507" style="stroke:#545454;stroke-width:1.5625;"/></g></svg>
