<?xml version="1.0" encoding="UTF-8" standalone="no"?><svg xmlns="http://www.w3.org/2000/svg" xmlns:xlink="http://www.w3.org/1999/xlink" contentScriptType="application/ecmascript" contentStyleType="text/css" height="539.5833px" preserveAspectRatio="none" style="width:1305px;height:539px;background:#333333;" version="1.1" viewBox="0 0 1305 539" width="1305.2083px" zoomAndPan="magnify"><defs/><g><rect fill="#48494B" height="41.2028" rx="8.3333" ry="8.3333" style="stroke:#545454;stroke-width:1.0416666666666667;" width="548.9583" x="370.8333" y="2.0833"/><text fill="#C0C0C0" font-family="Open Sans,Avenir,Nunito,Arial,Helvetica,SansSerif" font-size="20.8333" lengthAdjust="spacing" textLength="526.0417" x="382.2917" y="30.5583">com.telenav.kivakit.core.logging.logs.text.formatters</text><polygon fill="#333333" points="1028.125,52.6611,1159.375,52.6611,1166.6667,79.8828,1208.3333,79.8828,1208.3333,214.1195,1028.125,214.1195,1028.125,52.6611" style="stroke:#333333;stroke-width:2.0833333333333335;"/><line style="stroke:#333333;stroke-width:2.0833333333333335;" x1="1028.125" x2="1166.6667" y1="79.8828" y2="79.8828"/><text fill="#C8AC00" font-family="Open Sans,Avenir,Nunito,Arial,Helvetica,SansSerif" font-size="12.5" font-weight="bold" lengthAdjust="spacing" textLength="118.75" x="1035.4167" y="69.9544">WideLogFormatter</text><rect codeLine="56" fill="#282828" height="87.5448" id="WideLogFormatter.TimeType" rx="8.3333" ry="8.3333" style="stroke:#5E5E5E;stroke-width:1.0416666666666667;" width="109.375" x="1073.4375" y="101.6195"/><rect fill="#1B1B1A" height="31.3883" rx="8.3333" ry="8.3333" style="stroke:#1B1B1A;stroke-width:1.0416666666666667;" width="109.375" x="1073.4375" y="101.6195"/><rect fill="#1B1B1A" height="8.3333" style="stroke:#1B1B1A;stroke-width:1.0416666666666667;" width="109.375" x="1073.4375" y="124.6745"/><rect codeLine="56" fill="none" height="87.5448" id="WideLogFormatter.TimeType" rx="8.3333" ry="8.3333" style="stroke:#5E5E5E;stroke-width:1.0416666666666667;" width="109.375" x="1073.4375" y="101.6195"/><ellipse cx="1091.7708" cy="117.3136" fill="#CF6300" rx="10.4167" ry="10.4167" style="stroke:#EF8300;stroke-width:1.0416666666666667;"/><path d="M1094.8267,122.0011 L1089.1504,122.0011 L1089.1504,112.8886 L1094.8267,112.8886 L1094.8267,114.4755 L1090.9509,114.4755 L1090.9509,116.4408 L1094.4604,116.4408 L1094.4604,118.0278 L1090.9509,118.0278 L1090.9509,120.4142 L1094.8267,120.4142 Z " fill="#000000"/><text fill="#D8BC00" font-family="Open Sans,Avenir,Nunito,Arial,Helvetica,SansSerif" font-size="12.5" font-weight="bold" lengthAdjust="spacing" textLength="63.5417" x="1109.2708" y="122.0378">TimeType</text><line style="stroke:#5E5E5E;stroke-width:1.0416666666666667;" x1="1074.4792" x2="1181.7708" y1="133.0078" y2="133.0078"/><text fill="#D8BC00" font-family="Open Sans,Avenir,Nunito,Arial,Helvetica,SansSerif" font-size="11.4583" lengthAdjust="spacing" textLength="90.625" x="1082.8125" y="151.3774">ABSOLUTE_TIME</text><text fill="#D8BC00" font-family="Open Sans,Avenir,Nunito,Arial,Helvetica,SansSerif" font-size="11.4583" lengthAdjust="spacing" textLength="47.9167" x="1082.8125" y="171.1222">ELAPSED</text><line style="stroke:#5E5E5E;stroke-width:1.0416666666666667;" x1="1074.4792" x2="1181.7708" y1="180.8309" y2="180.8309"/><rect codeLine="12" fill="#282828" height="67.7999" id="BaseColumnarFormatter" rx="8.3333" ry="8.3333" style="stroke:#5E5E5E;stroke-width:1.0416666666666667;" width="194.7917" x="621.3542" y="271.4111"/><rect fill="#1B1B1A" height="31.3883" rx="8.3333" ry="8.3333" style="stroke:#1B1B1A;stroke-width:1.0416666666666667;" width="194.7917" x="621.3542" y="271.4111"/><rect fill="#1B1B1A" height="8.3333" style="stroke:#1B1B1A;stroke-width:1.0416666666666667;" width="194.7917" x="621.3542" y="294.4661"/><rect codeLine="12" fill="none" height="67.7999" id="BaseColumnarFormatter" rx="8.3333" ry="8.3333" style="stroke:#5E5E5E;stroke-width:1.0416666666666667;" width="194.7917" x="621.3542" y="271.4111"/><ellipse cx="635.9375" cy="287.1053" fill="#C8AC00" rx="10.4167" ry="10.4167" style="stroke:#D8BC00;stroke-width:1.0416666666666667;"/><path d="M635.5306,283.8074 L634.6822,287.5366 L636.3851,287.5366 Z M634.432,282.1594 L636.6353,282.1594 L639.0951,291.272 L637.2945,291.272 L636.733,289.0198 L634.3221,289.0198 L633.7728,291.272 L631.9722,291.272 Z " fill="#000000"/><text fill="#D8BC00" font-family="Open Sans,Avenir,Nunito,Arial,Helvetica,SansSerif" font-size="12.5" font-style="italic" font-weight="bold" lengthAdjust="spacing" textLength="157.2917" x="652.6042" y="291.8294">BaseColumnarFormatter</text><line style="stroke:#5E5E5E;stroke-width:1.5625;" x1="622.3958" x2="815.1042" y1="302.7995" y2="302.7995"/><line style="stroke:#5E5E5E;stroke-width:1.0416666666666667;" x1="622.3958" x2="815.1042" y1="311.1328" y2="311.1328"/><ellipse cx="632.8125" cy="322.5911" fill="#84BE84" rx="3.125" ry="3.125" style="stroke:#038048;stroke-width:1.0416666666666667;"/><text fill="#D8BC00" font-family="Open Sans,Avenir,Nunito,Arial,Helvetica,SansSerif" font-size="11.4583" lengthAdjust="spacing" textLength="105.2083" x="644.2708" y="329.5024">LogFormatter get()</text><rect codeLine="9" fill="#282828" height="48.055" id="LogFormatter" rx="8.3333" ry="8.3333" style="stroke:#5E5E5E;stroke-width:1.0416666666666667;" width="125" x="875" y="121.4111"/><rect fill="#1B1B1A" height="31.3883" rx="8.3333" ry="8.3333" style="stroke:#1B1B1A;stroke-width:1.0416666666666667;" width="125" x="875" y="121.4111"/><rect fill="#1B1B1A" height="8.3333" style="stroke:#1B1B1A;stroke-width:1.0416666666666667;" width="125" x="875" y="144.4661"/><rect codeLine="9" fill="none" height="48.055" id="LogFormatter" rx="8.3333" ry="8.3333" style="stroke:#5E5E5E;stroke-width:1.0416666666666667;" width="125" x="875" y="121.4111"/><ellipse cx="889.5833" cy="137.1053" fill="#008400" rx="10.4167" ry="10.4167" style="stroke:#239C23;stroke-width:1.0416666666666667;"/><path d="M886.9873,134.2672 L886.9873,132.6803 L892.4133,132.6803 L892.4133,134.2672 L890.6006,134.2672 L890.6006,140.2059 L892.4133,140.2059 L892.4133,141.7928 L886.9873,141.7928 L886.9873,140.2059 L888.8,140.2059 L888.8,134.2672 Z " fill="#000000"/><text fill="#D8BC00" font-family="Open Sans,Avenir,Nunito,Arial,Helvetica,SansSerif" font-size="12.5" font-style="italic" font-weight="bold" lengthAdjust="spacing" textLength="87.5" x="906.25" y="141.8294">LogFormatter</text><line style="stroke:#5E5E5E;stroke-width:1.0416666666666667;" x1="876.0417" x2="998.9583" y1="152.7995" y2="152.7995"/><line style="stroke:#5E5E5E;stroke-width:1.0416666666666667;" x1="876.0417" x2="998.9583" y1="161.1328" y2="161.1328"/><rect codeLine="18" fill="#282828" height="83.3781" id="BaseColumnarFormatter.Column" rx="8.3333" ry="8.3333" style="stroke:#5E5E5E;stroke-width:1.0416666666666667;" width="248.9583" x="20.3125" y="263.5986"/><rect fill="#1B1B1A" height="31.3883" rx="8.3333" ry="8.3333" style="stroke:#1B1B1A;stroke-width:1.0416666666666667;" width="248.9583" x="20.3125" y="263.5986"/><rect fill="#1B1B1A" height="8.3333" style="stroke:#1B1B1A;stroke-width:1.0416666666666667;" width="248.9583" x="20.3125" y="286.6536"/><rect codeLine="18" fill="none" height="83.3781" id="BaseColumnarFormatter.Column" rx="8.3333" ry="8.3333" style="stroke:#5E5E5E;stroke-width:1.0416666666666667;" width="248.9583" x="20.3125" y="263.5986"/><ellipse cx="34.8958" cy="279.2928" fill="#0066CF" rx="10.4167" ry="10.4167" style="stroke:#0086EF;stroke-width:1.0416666666666667;"/><path d="M36.8062,283.7179 Q36.379,283.9376 35.909,284.0474 Q35.439,284.1573 34.9202,284.1573 Q33.077,284.1573 32.1065,282.9427 Q31.1361,281.7281 31.1361,279.4332 Q31.1361,277.1322 32.1065,275.9176 Q33.077,274.703 34.9202,274.703 Q35.439,274.703 35.9151,274.8128 Q36.3912,274.9227 36.8062,275.1424 L36.8062,277.1444 Q36.3424,276.7171 35.906,276.5188 Q35.4696,276.3204 35.0057,276.3204 Q34.0169,276.3204 33.5134,277.1047 Q33.0098,277.889 33.0098,279.4332 Q33.0098,280.9713 33.5134,281.7556 Q34.0169,282.5399 35.0057,282.5399 Q35.4696,282.5399 35.906,282.3415 Q36.3424,282.1431 36.8062,281.7159 Z " fill="#000000"/><text fill="#D8BC00" font-family="Open Sans,Avenir,Nunito,Arial,Helvetica,SansSerif" font-size="12.5" font-weight="bold" lengthAdjust="spacing" textLength="211.4583" x="51.5625" y="284.0169">BaseColumnarFormatter.Column</text><line style="stroke:#5E5E5E;stroke-width:1.5625;" x1="21.3542" x2="268.2292" y1="294.987" y2="294.987"/><polygon fill="#FFFF44" points="31.7708,325.1485,35.9375,329.3152,31.7708,333.4819,27.6042,329.3152" style="stroke:#B38D22;stroke-width:1.0416666666666667;"/><text fill="#D8BC00" font-family="Open Sans,Avenir,Nunito,Arial,Helvetica,SansSerif" font-size="11.4583" lengthAdjust="spacing" textLength="131.25" x="43.2292" y="337.2681">Column(int, int, Layout)</text><line style="stroke:#5E5E5E;stroke-width:1.0416666666666667;" x1="21.3542" x2="101.0417" y1="313.1927" y2="313.1927"/><text fill="#D8BC00" font-family="Open Sans,Avenir,Nunito,Arial,Helvetica,SansSerif" font-size="11.4583" lengthAdjust="spacing" textLength="81.25" x="104.1667" y="317.0024">(constructors)</text><line style="stroke:#5E5E5E;stroke-width:1.0416666666666667;" x1="188.5417" x2="268.2292" y1="313.1927" y2="313.1927"/><rect codeLine="24" fill="#282828" height="107.2896" id="BaseColumnarFormatter.Layout" rx="8.3333" ry="8.3333" style="stroke:#5E5E5E;stroke-width:1.0416666666666667;" width="241.6667" x="306.25" y="251.6195"/><rect fill="#1B1B1A" height="31.3883" rx="8.3333" ry="8.3333" style="stroke:#1B1B1A;stroke-width:1.0416666666666667;" width="241.6667" x="306.25" y="251.6195"/><rect fill="#1B1B1A" height="8.3333" style="stroke:#1B1B1A;stroke-width:1.0416666666666667;" width="241.6667" x="306.25" y="274.6745"/><rect codeLine="24" fill="none" height="107.2896" id="BaseColumnarFormatter.Layout" rx="8.3333" ry="8.3333" style="stroke:#5E5E5E;stroke-width:1.0416666666666667;" width="241.6667" x="306.25" y="251.6195"/><ellipse cx="320.8333" cy="267.3136" fill="#CF6300" rx="10.4167" ry="10.4167" style="stroke:#EF8300;stroke-width:1.0416666666666667;"/><path d="M323.8892,272.0011 L318.2129,272.0011 L318.2129,262.8886 L323.8892,262.8886 L323.8892,264.4755 L320.0134,264.4755 L320.0134,266.4408 L323.5229,266.4408 L323.5229,268.0278 L320.0134,268.0278 L320.0134,270.4142 L323.8892,270.4142 Z " fill="#000000"/><text fill="#D8BC00" font-family="Open Sans,Avenir,Nunito,Arial,Helvetica,SansSerif" font-size="12.5" font-weight="bold" lengthAdjust="spacing" textLength="204.1667" x="337.5" y="272.0378">BaseColumnarFormatter.Layout</text><line style="stroke:#5E5E5E;stroke-width:1.0416666666666667;" x1="307.2917" x2="546.875" y1="283.0078" y2="283.0078"/><text fill="#D8BC00" font-family="Open Sans,Avenir,Nunito,Arial,Helvetica,SansSerif" font-size="11.4583" lengthAdjust="spacing" textLength="56.25" x="315.625" y="301.3774">CLIP_LEFT</text><text fill="#D8BC00" font-family="Open Sans,Avenir,Nunito,Arial,Helvetica,SansSerif" font-size="11.4583" lengthAdjust="spacing" textLength="64.5833" x="315.625" y="321.1222">CLIP_RIGHT</text><text fill="#D8BC00" font-family="Open Sans,Avenir,Nunito,Arial,Helvetica,SansSerif" font-size="11.4583" lengthAdjust="spacing" textLength="31.25" x="315.625" y="340.8671">WRAP</text><line style="stroke:#5E5E5E;stroke-width:1.0416666666666667;" x1="307.2917" x2="546.875" y1="350.5758" y2="350.5758"/><rect codeLine="31" fill="#282828" height="111.4563" id="BaseColumnarFormatter.LineOutput" rx="8.3333" ry="8.3333" style="stroke:#5E5E5E;stroke-width:1.0416666666666667;" width="270.8333" x="9.375" y="421.4111"/><rect fill="#1B1B1A" height="31.3883" rx="8.3333" ry="8.3333" style="stroke:#1B1B1A;stroke-width:1.0416666666666667;" width="270.8333" x="9.375" y="421.4111"/><rect fill="#1B1B1A" height="8.3333" style="stroke:#1B1B1A;stroke-width:1.0416666666666667;" width="270.8333" x="9.375" y="444.4661"/><rect codeLine="31" fill="none" height="111.4563" id="BaseColumnarFormatter.LineOutput" rx="8.3333" ry="8.3333" style="stroke:#5E5E5E;stroke-width:1.0416666666666667;" width="270.8333" x="9.375" y="421.4111"/><ellipse cx="23.9583" cy="437.1053" fill="#0066CF" rx="10.4167" ry="10.4167" style="stroke:#0086EF;stroke-width:1.0416666666666667;"/><path d="M25.8687,441.5304 Q25.4415,441.7501 24.9715,441.8599 Q24.5015,441.9698 23.9827,441.9698 Q22.1395,441.9698 21.169,440.7552 Q20.1986,439.5406 20.1986,437.2457 Q20.1986,434.9447 21.169,433.7301 Q22.1395,432.5155 23.9827,432.5155 Q24.5015,432.5155 24.9776,432.6253 Q25.4537,432.7352 25.8687,432.9549 L25.8687,434.9569 Q25.4049,434.5296 24.9685,434.3313 Q24.5321,434.1329 24.0682,434.1329 Q23.0794,434.1329 22.5759,434.9172 Q22.0723,435.7015 22.0723,437.2457 Q22.0723,438.7838 22.5759,439.5681 Q23.0794,440.3524 24.0682,440.3524 Q24.5321,440.3524 24.9685,440.154 Q25.4049,439.9556 25.8687,439.5284 Z " fill="#000000"/><text fill="#D8BC00" font-family="Open Sans,Avenir,Nunito,Arial,Helvetica,SansSerif" font-size="12.5" font-weight="bold" lengthAdjust="spacing" textLength="233.3333" x="40.625" y="441.8294">BaseColumnarFormatter.LineOutput</text><line style="stroke:#5E5E5E;stroke-width:1.5625;" x1="10.4167" x2="279.1667" y1="452.7995" y2="452.7995"/><line style="stroke:#5E5E5E;stroke-width:1.0416666666666667;" x1="10.4167" x2="279.1667" y1="461.1328" y2="461.1328"/><polygon fill="#FFFF44" points="20.8333,467.3828,25,471.5495,20.8333,475.7161,16.6667,471.5495" style="stroke:#B38D22;stroke-width:1.0416666666666667;"/><text fill="#D8BC00" font-family="Open Sans,Avenir,Nunito,Arial,Helvetica,SansSerif" font-size="11.4583" lengthAdjust="spacing" textLength="82.2917" x="32.2917" y="479.5024">String format()</text><polygon fill="#FFFF44" points="20.8333,511.0392,25,515.2059,20.8333,519.3726,16.6667,515.2059" style="stroke:#B38D22;stroke-width:1.0416666666666667;"/><text fill="#D8BC00" font-family="Open Sans,Avenir,Nunito,Arial,Helvetica,SansSerif" font-size="11.4583" lengthAdjust="spacing" textLength="171.875" x="32.2917" y="523.1588">void add(Column, String value)</text><line style="stroke:#5E5E5E;stroke-width:1.0416666666666667;" x1="10.4167" x2="110.4167" y1="499.0835" y2="499.0835"/><text fill="#D8BC00" font-family="Open Sans,Avenir,Nunito,Arial,Helvetica,SansSerif" font-size="11.4583" lengthAdjust="spacing" textLength="62.5" x="113.5417" y="502.8931">(collection)</text><line style="stroke:#5E5E5E;stroke-width:1.0416666666666667;" x1="179.1667" x2="279.1667" y1="499.0835" y2="499.0835"/><rect codeLine="40" fill="#282828" height="67.7999" id="NarrowLogFormatter" rx="8.3333" ry="8.3333" style="stroke:#5E5E5E;stroke-width:1.0416666666666667;" width="268.75" x="621.875" y="443.2861"/><rect fill="#1B1B1A" height="31.3883" rx="8.3333" ry="8.3333" style="stroke:#1B1B1A;stroke-width:1.0416666666666667;" width="268.75" x="621.875" y="443.2861"/><rect fill="#1B1B1A" height="8.3333" style="stroke:#1B1B1A;stroke-width:1.0416666666666667;" width="268.75" x="621.875" y="466.3411"/><rect codeLine="40" fill="none" height="67.7999" id="NarrowLogFormatter" rx="8.3333" ry="8.3333" style="stroke:#5E5E5E;stroke-width:1.0416666666666667;" width="268.75" x="621.875" y="443.2861"/><ellipse cx="682.2917" cy="458.9803" fill="#0066CF" rx="10.4167" ry="10.4167" style="stroke:#0086EF;stroke-width:1.0416666666666667;"/><path d="M684.2021,463.4054 Q683.7748,463.6251 683.3049,463.7349 Q682.8349,463.8448 682.3161,463.8448 Q680.4728,463.8448 679.5024,462.6302 Q678.5319,461.4156 678.5319,459.1207 Q678.5319,456.8197 679.5024,455.6051 Q680.4728,454.3905 682.3161,454.3905 Q682.8349,454.3905 683.311,454.5003 Q683.787,454.6102 684.2021,454.8299 L684.2021,456.8319 Q683.7382,456.4046 683.3018,456.2063 Q682.8654,456.0079 682.4015,456.0079 Q681.4128,456.0079 680.9092,456.7922 Q680.4057,457.5765 680.4057,459.1207 Q680.4057,460.6588 680.9092,461.4431 Q681.4128,462.2274 682.4015,462.2274 Q682.8654,462.2274 683.3018,462.029 Q683.7382,461.8306 684.2021,461.4034 Z " fill="#000000"/><text fill="#D8BC00" font-family="Open Sans,Avenir,Nunito,Arial,Helvetica,SansSerif" font-size="12.5" font-weight="bold" lengthAdjust="spacing" textLength="133.3333" x="705.2083" y="463.7044">NarrowLogFormatter</text><line style="stroke:#5E5E5E;stroke-width:1.5625;" x1="622.9167" x2="889.5833" y1="474.6745" y2="474.6745"/><line style="stroke:#5E5E5E;stroke-width:1.0416666666666667;" x1="622.9167" x2="889.5833" y1="483.0078" y2="483.0078"/><ellipse cx="633.3333" cy="494.4661" fill="#84BE84" rx="3.125" ry="3.125" style="stroke:#038048;stroke-width:1.0416666666666667;"/><text fill="#D8BC00" font-family="Open Sans,Avenir,Nunito,Arial,Helvetica,SansSerif" font-size="11.4583" lengthAdjust="spacing" textLength="236.4583" x="644.7917" y="501.3774">String format(LogEntry, Formatter.Format)</text><rect codeLine="47" fill="#282828" height="48.055" id="SimpleLogFormatter" rx="8.3333" ry="8.3333" style="stroke:#5E5E5E;stroke-width:1.0416666666666667;" width="168.75" x="853.125" y="281.307"/><rect fill="#1B1B1A" height="31.3883" rx="8.3333" ry="8.3333" style="stroke:#1B1B1A;stroke-width:1.0416666666666667;" width="168.75" x="853.125" y="281.307"/><rect fill="#1B1B1A" height="8.3333" style="stroke:#1B1B1A;stroke-width:1.0416666666666667;" width="168.75" x="853.125" y="304.362"/><rect codeLine="47" fill="none" height="48.055" id="SimpleLogFormatter" rx="8.3333" ry="8.3333" style="stroke:#5E5E5E;stroke-width:1.0416666666666667;" width="168.75" x="853.125" y="281.307"/><ellipse cx="867.7083" cy="297.0011" fill="#0066CF" rx="10.4167" ry="10.4167" style="stroke:#0086EF;stroke-width:1.0416666666666667;"/><path d="M869.6187,301.4262 Q869.1915,301.6459 868.7215,301.7558 Q868.2515,301.8656 867.7327,301.8656 Q865.8895,301.8656 864.919,300.651 Q863.9486,299.4364 863.9486,297.1415 Q863.9486,294.8405 864.919,293.6259 Q865.8895,292.4113 867.7327,292.4113 Q868.2515,292.4113 868.7276,292.5212 Q869.2037,292.631 869.6187,292.8507 L869.6187,294.8527 Q869.1549,294.4255 868.7185,294.2271 Q868.2821,294.0287 867.8182,294.0287 Q866.8294,294.0287 866.3259,294.813 Q865.8223,295.5973 865.8223,297.1415 Q865.8223,298.6796 866.3259,299.4639 Q866.8294,300.2482 867.8182,300.2482 Q868.2821,300.2482 868.7185,300.0498 Q869.1549,299.8515 869.6187,299.4242 Z " fill="#000000"/><text fill="#D8BC00" font-family="Open Sans,Avenir,Nunito,Arial,Helvetica,SansSerif" font-size="12.5" font-weight="bold" lengthAdjust="spacing" textLength="131.25" x="884.375" y="301.7253">SimpleLogFormatter</text><line style="stroke:#5E5E5E;stroke-width:1.0416666666666667;" x1="854.1667" x2="1020.8333" y1="312.6953" y2="312.6953"/><line style="stroke:#5E5E5E;stroke-width:1.0416666666666667;" x1="854.1667" x2="1020.8333" y1="321.0286" y2="321.0286"/><rect codeLine="52" fill="#282828" height="48.055" id="TimeAndMessageLogFormatter" rx="8.3333" ry="8.3333" style="stroke:#5E5E5E;stroke-width:1.0416666666666667;" width="239.5833" x="1058.3333" y="281.307"/><rect fill="#1B1B1A" height="31.3883" rx="8.3333" ry="8.3333" style="stroke:#1B1B1A;stroke-width:1.0416666666666667;" width="239.5833" x="1058.3333" y="281.307"/><rect fill="#1B1B1A" height="8.3333" style="stroke:#1B1B1A;stroke-width:1.0416666666666667;" width="239.5833" x="1058.3333" y="304.362"/><rect codeLine="52" fill="none" height="48.055" id="TimeAndMessageLogFormatter" rx="8.3333" ry="8.3333" style="stroke:#5E5E5E;stroke-width:1.0416666666666667;" width="239.5833" x="1058.3333" y="281.307"/><ellipse cx="1072.9167" cy="297.0011" fill="#0066CF" rx="10.4167" ry="10.4167" style="stroke:#0086EF;stroke-width:1.0416666666666667;"/><path d="M1074.8271,301.4262 Q1074.3998,301.6459 1073.9299,301.7558 Q1073.4599,301.8656 1072.9411,301.8656 Q1071.0978,301.8656 1070.1274,300.651 Q1069.1569,299.4364 1069.1569,297.1415 Q1069.1569,294.8405 1070.1274,293.6259 Q1071.0978,292.4113 1072.9411,292.4113 Q1073.4599,292.4113 1073.936,292.5212 Q1074.412,292.631 1074.8271,292.8507 L1074.8271,294.8527 Q1074.3632,294.4255 1073.9268,294.2271 Q1073.4904,294.0287 1073.0265,294.0287 Q1072.0378,294.0287 1071.5342,294.813 Q1071.0307,295.5973 1071.0307,297.1415 Q1071.0307,298.6796 1071.5342,299.4639 Q1072.0378,300.2482 1073.0265,300.2482 Q1073.4904,300.2482 1073.9268,300.0498 Q1074.3632,299.8515 1074.8271,299.4242 Z " fill="#000000"/><text fill="#D8BC00" font-family="Open Sans,Avenir,Nunito,Arial,Helvetica,SansSerif" font-size="12.5" font-weight="bold" lengthAdjust="spacing" textLength="202.0833" x="1089.5833" y="301.7253">TimeAndMessageLogFormatter</text><line style="stroke:#5E5E5E;stroke-width:1.0416666666666667;" x1="1059.375" x2="1296.875" y1="312.6953" y2="312.6953"/><line style="stroke:#5E5E5E;stroke-width:1.0416666666666667;" x1="1059.375" x2="1296.875" y1="321.0286" y2="321.0286"/><rect codeLine="63" fill="#282828" height="67.7999" id="WideLogFormatter" rx="8.3333" ry="8.3333" style="stroke:#5E5E5E;stroke-width:1.0416666666666667;" width="268.75" x="316.6667" y="443.2861"/><rect fill="#1B1B1A" height="31.3883" rx="8.3333" ry="8.3333" style="stroke:#1B1B1A;stroke-width:1.0416666666666667;" width="268.75" x="316.6667" y="443.2861"/><rect fill="#1B1B1A" height="8.3333" style="stroke:#1B1B1A;stroke-width:1.0416666666666667;" width="268.75" x="316.6667" y="466.3411"/><rect codeLine="63" fill="none" height="67.7999" id="WideLogFormatter" rx="8.3333" ry="8.3333" style="stroke:#5E5E5E;stroke-width:1.0416666666666667;" width="268.75" x="316.6667" y="443.2861"/><ellipse cx="384.375" cy="458.9803" fill="#0066CF" rx="10.4167" ry="10.4167" style="stroke:#0086EF;stroke-width:1.0416666666666667;"/><path d="M386.2854,463.4054 Q385.8582,463.6251 385.3882,463.7349 Q384.9182,463.8448 384.3994,463.8448 Q382.5562,463.8448 381.5857,462.6302 Q380.6152,461.4156 380.6152,459.1207 Q380.6152,456.8197 381.5857,455.6051 Q382.5562,454.3905 384.3994,454.3905 Q384.9182,454.3905 385.3943,454.5003 Q385.8704,454.6102 386.2854,454.8299 L386.2854,456.8319 Q385.8215,456.4046 385.3851,456.2063 Q384.9487,456.0079 384.4849,456.0079 Q383.4961,456.0079 382.9926,456.7922 Q382.489,457.5765 382.489,459.1207 Q382.489,460.6588 382.9926,461.4431 Q383.4961,462.2274 384.4849,462.2274 Q384.9487,462.2274 385.3851,462.029 Q385.8215,461.8306 386.2854,461.4034 Z " fill="#000000"/><text fill="#D8BC00" font-family="Open Sans,Avenir,Nunito,Arial,Helvetica,SansSerif" font-size="12.5" font-weight="bold" lengthAdjust="spacing" textLength="118.75" x="407.2917" y="463.7044">WideLogFormatter</text><line style="stroke:#5E5E5E;stroke-width:1.5625;" x1="317.7083" x2="584.375" y1="474.6745" y2="474.6745"/><line style="stroke:#5E5E5E;stroke-width:1.0416666666666667;" x1="317.7083" x2="584.375" y1="483.0078" y2="483.0078"/><ellipse cx="328.125" cy="494.4661" fill="#84BE84" rx="3.125" ry="3.125" style="stroke:#038048;stroke-width:1.0416666666666667;"/><text fill="#D8BC00" font-family="Open Sans,Avenir,Nunito,Arial,Helvetica,SansSerif" font-size="11.4583" lengthAdjust="spacing" textLength="236.4583" x="339.5833" y="501.3774">String format(LogEntry, Formatter.Format)</text><path codeLine="11" d="M888.6563,181.6507 C851.4688,208.4736 800.6563,245.1403 764.3021,271.359 " fill="none" id="LogFormatter-backto-BaseColumnarFormatter" style="stroke:#545454;stroke-width:1.5625;"/><polygon fill="none" points="884.5313,175.6299,905.6875,169.359,893.0625,187.4632,884.5313,175.6299" style="stroke:#545454;stroke-width:1.5625;"/><path codeLine="39" d="M730.6042,359.9736 C736.625,387.2236 743.7396,419.4528 748.9479,443.0465 " fill="none" id="BaseColumnarFormatter-backto-NarrowLogFormatter" style="stroke:#545454;stroke-width:1.5625;"/><polygon fill="none" points="723.4375,361.359,726.0729,339.4424,737.6875,358.2132,723.4375,361.359" style="stroke:#545454;stroke-width:1.5625;"/><path codeLine="46" d="M937.5,190.3903 C937.5,219.8799 937.5,257.5153 937.5,281.2445 " fill="none" id="LogFormatter-backto-SimpleLogFormatter" style="stroke:#545454;stroke-width:1.5625;"/><polygon fill="none" points="930.2083,190.1924,937.5,169.359,944.7917,190.1924,930.2083,190.1924" style="stroke:#545454;stroke-width:1.5625;"/><path codeLine="51" d="M969.8542,185.307 C984.0729,200.7861 1001.6458,217.932 1019.7917,230.7861 C1048.9688,251.4424 1084.8958,268.6611 1115.1354,281.2236 " fill="none" id="LogFormatter-backto-TimeAndMessageLogFormatter" style="stroke:#545454;stroke-width:1.5625;"/><polygon fill="none" points="964.1875,189.9007,955.8854,169.4528,975.125,180.2549,964.1875,189.9007" style="stroke:#545454;stroke-width:1.5625;"/><path codeLine="62" d="M649.0417,350.5153 C603.2917,379.5361 544.4479,416.859 502.8333,443.2549 " fill="none" id="BaseColumnarFormatter-backto-WideLogFormatter" style="stroke:#545454;stroke-width:1.5625;"/><polygon fill="none" points="645.3125,344.2445,666.8125,339.2445,653.125,356.557,645.3125,344.2445" style="stroke:#545454;stroke-width:1.5625;"/></g></svg>
