<?xml version="1.0" encoding="UTF-8" standalone="no"?><svg xmlns="http://www.w3.org/2000/svg" xmlns:xlink="http://www.w3.org/1999/xlink" contentScriptType="application/ecmascript" contentStyleType="text/css" height="273.9583px" preserveAspectRatio="none" style="width:277px;height:273px;background:#333333;" version="1.1" viewBox="0 0 277 273" width="277.0833px" zoomAndPan="magnify"><defs/><g><rect fill="#48494B" height="41.2028" rx="8.3333" ry="8.3333" style="stroke:#545454;stroke-width:1.0416666666666667;" width="264.5833" x="2.0833" y="2.0833"/><text fill="#C0C0C0" font-family="Open Sans,Avenir,Nunito,Arial,Helvetica,SansSerif" font-size="20.8333" lengthAdjust="spacing" textLength="241.6667" x="13.5417" y="30.5583">com.telenav.kivakit.core</text><rect fill="#282828" height="48.055" id="Project" rx="8.3333" ry="8.3333" style="stroke:#5E5E5E;stroke-width:1.0416666666666667;" width="81.25" x="101.0417" y="53.7028"/><rect fill="#1B1B1A" height="31.3883" rx="8.3333" ry="8.3333" style="stroke:#1B1B1A;stroke-width:1.0416666666666667;" width="81.25" x="101.0417" y="53.7028"/><rect fill="#1B1B1A" height="8.3333" style="stroke:#1B1B1A;stroke-width:1.0416666666666667;" width="81.25" x="101.0417" y="76.7578"/><rect fill="none" height="48.055" id="Project" rx="8.3333" ry="8.3333" style="stroke:#5E5E5E;stroke-width:1.0416666666666667;" width="81.25" x="101.0417" y="53.7028"/><ellipse cx="115.625" cy="69.397" fill="#0066CF" rx="10.4167" ry="10.4167" style="stroke:#0086EF;stroke-width:1.0416666666666667;"/><path d="M117.5354,73.822 Q117.1082,74.0417 116.6382,74.1516 Q116.1682,74.2615 115.6494,74.2615 Q113.8062,74.2615 112.8357,73.0469 Q111.8652,71.8323 111.8652,69.5374 Q111.8652,67.2363 112.8357,66.0217 Q113.8062,64.8071 115.6494,64.8071 Q116.1682,64.8071 116.6443,64.917 Q117.1204,65.0269 117.5354,65.2466 L117.5354,67.2485 Q117.0715,66.8213 116.6351,66.6229 Q116.1987,66.4246 115.7349,66.4246 Q114.7461,66.4246 114.2426,67.2089 Q113.739,67.9932 113.739,69.5374 Q113.739,71.0754 114.2426,71.8597 Q114.7461,72.644 115.7349,72.644 Q116.1987,72.644 116.6351,72.4457 Q117.0715,72.2473 117.5354,71.8201 Z " fill="#000000"/><text fill="#D8BC00" font-family="Open Sans,Avenir,Nunito,Arial,Helvetica,SansSerif" font-size="12.5" font-weight="bold" lengthAdjust="spacing" textLength="43.75" x="132.2917" y="74.1211">Project</text><line style="stroke:#5E5E5E;stroke-width:1.0416666666666667;" x1="102.0833" x2="181.25" y1="85.0911" y2="85.0911"/><line style="stroke:#5E5E5E;stroke-width:1.0416666666666667;" x1="102.0833" x2="181.25" y1="93.4245" y2="93.4245"/><rect codeLine="8" fill="#282828" height="103.123" id="KivaKit" rx="8.3333" ry="8.3333" style="stroke:#5E5E5E;stroke-width:1.0416666666666667;" width="159.375" x="61.9792" y="164.1195"/><rect fill="#1B1B1A" height="31.3883" rx="8.3333" ry="8.3333" style="stroke:#1B1B1A;stroke-width:1.0416666666666667;" width="159.375" x="61.9792" y="164.1195"/><rect fill="#1B1B1A" height="8.3333" style="stroke:#1B1B1A;stroke-width:1.0416666666666667;" width="159.375" x="61.9792" y="187.1745"/><rect codeLine="8" fill="none" height="103.123" id="KivaKit" rx="8.3333" ry="8.3333" style="stroke:#5E5E5E;stroke-width:1.0416666666666667;" width="159.375" x="61.9792" y="164.1195"/><ellipse cx="110.9375" cy="179.8136" fill="#0066CF" rx="10.4167" ry="10.4167" style="stroke:#0086EF;stroke-width:1.0416666666666667;"/><path d="M112.8479,184.2387 Q112.4207,184.4584 111.9507,184.5683 Q111.4807,184.6781 110.9619,184.6781 Q109.1187,184.6781 108.1482,183.4635 Q107.1777,182.2489 107.1777,179.954 Q107.1777,177.653 108.1482,176.4384 Q109.1187,175.2238 110.9619,175.2238 Q111.4807,175.2238 111.9568,175.3337 Q112.4329,175.4435 112.8479,175.6632 L112.8479,177.6652 Q112.384,177.238 111.9476,177.0396 Q111.5112,176.8412 111.0474,176.8412 Q110.0586,176.8412 109.5551,177.6255 Q109.0515,178.4098 109.0515,179.954 Q109.0515,181.4921 109.5551,182.2764 Q110.0586,183.0607 111.0474,183.0607 Q111.5112,183.0607 111.9476,182.8623 Q112.384,182.664 112.8479,182.2367 Z " fill="#000000"/><text fill="#D8BC00" font-family="Open Sans,Avenir,Nunito,Arial,Helvetica,SansSerif" font-size="12.5" font-weight="bold" lengthAdjust="spacing" textLength="46.875" x="133.8542" y="184.5378">KivaKit</text><line style="stroke:#5E5E5E;stroke-width:1.5625;" x1="63.0208" x2="220.3125" y1="195.5078" y2="195.5078"/><ellipse cx="73.4375" cy="230.8777" fill="#84BE84" rx="3.125" ry="3.125" style="stroke:#038048;stroke-width:1.0416666666666667;"/><text fill="#D8BC00" font-family="Open Sans,Avenir,Nunito,Arial,Helvetica,SansSerif" font-size="11.4583" lengthAdjust="spacing" textLength="127.0833" x="84.8958" y="237.7889">Path cacheFolderPath()</text><ellipse cx="73.4375" cy="250.6226" fill="#84BE84" rx="3.125" ry="3.125" style="stroke:#038048;stroke-width:1.0416666666666667;"/><text fill="#D8BC00" font-family="Open Sans,Avenir,Nunito,Arial,Helvetica,SansSerif" font-size="11.4583" lengthAdjust="spacing" textLength="126.0417" x="84.8958" y="257.5338">Path homeFolderPath()</text><line style="stroke:#5E5E5E;stroke-width:1.0416666666666667;" x1="63.0208" x2="106.25" y1="213.7136" y2="213.7136"/><text fill="#D8BC00" font-family="Open Sans,Avenir,Nunito,Arial,Helvetica,SansSerif" font-size="11.4583" lengthAdjust="spacing" textLength="64.5833" x="109.375" y="217.5232">(filesystem)</text><line style="stroke:#5E5E5E;stroke-width:1.0416666666666667;" x1="177.0833" x2="220.3125" y1="213.7136" y2="213.7136"/><path codeLine="7" d="M141.6667,122.8382 C141.6667,135.9945 141.6667,150.5257 141.6667,164.0674 " fill="none" id="Project-backto-KivaKit" style="stroke:#545454;stroke-width:1.5625;"/><polygon fill="none" points="134.375,122.5986,141.6667,101.7653,148.9583,122.5986,134.375,122.5986" style="stroke:#545454;stroke-width:1.5625;"/></g></svg>
