<?xml version="1.0" encoding="UTF-8" standalone="no"?><svg xmlns="http://www.w3.org/2000/svg" xmlns:xlink="http://www.w3.org/1999/xlink" contentScriptType="application/ecmascript" contentStyleType="text/css" height="880.2083px" preserveAspectRatio="none" style="width:1962px;height:880px;background:#333333;" version="1.1" viewBox="0 0 1962 880" width="1962.5px" zoomAndPan="magnify"><defs/><g><rect fill="#48494B" height="41.2028" rx="8.3333" ry="8.3333" style="stroke:#545454;stroke-width:1.0416666666666667;" width="289.5833" x="829.4271" y="2.0833"/><text fill="#C0C0C0" font-family="Open Sans,Avenir,Nunito,Arial,Helvetica,SansSerif" font-size="20.8333" lengthAdjust="spacing" textLength="266.6667" x="840.8854" y="30.5583">com.telenav.kivakit.core.io</text><polygon fill="#333333" points="1521.3542,218.807,1548.4375,218.807,1555.7292,246.0286,1656.7708,246.0286,1656.7708,363.5986,1521.3542,363.5986,1521.3542,218.807" style="stroke:#333333;stroke-width:2.0833333333333335;"/><line style="stroke:#333333;stroke-width:2.0833333333333335;" x1="1521.3542" x2="1555.7292" y1="246.0286" y2="246.0286"/><text fill="#C8AC00" font-family="Open Sans,Avenir,Nunito,Arial,Helvetica,SansSerif" font-size="12.5" font-weight="bold" lengthAdjust="spacing" textLength="14.5833" x="1528.6458" y="236.1003">IO</text><polygon fill="#333333" points="1690.1042,200.5778,1820.3125,200.5778,1827.6042,227.7995,1945.3125,227.7995,1945.3125,381.8278,1690.1042,381.8278,1690.1042,200.5778" style="stroke:#333333;stroke-width:2.0833333333333335;"/><line style="stroke:#333333;stroke-width:2.0833333333333335;" x1="1690.1042" x2="1827.6042" y1="227.7995" y2="227.7995"/><text fill="#C8AC00" font-family="Open Sans,Avenir,Nunito,Arial,Helvetica,SansSerif" font-size="12.5" font-weight="bold" lengthAdjust="spacing" textLength="117.7083" x="1697.3958" y="217.8711">StringInputStream</text><rect codeLine="17" fill="#282828" height="87.5448" id="IO.CopyStyle" rx="8.3333" ry="8.3333" style="stroke:#5E5E5E;stroke-width:1.0416666666666667;" width="102.0833" x="1538.0208" y="259.432"/><rect fill="#1B1B1A" height="31.3883" rx="8.3333" ry="8.3333" style="stroke:#1B1B1A;stroke-width:1.0416666666666667;" width="102.0833" x="1538.0208" y="259.432"/><rect fill="#1B1B1A" height="8.3333" style="stroke:#1B1B1A;stroke-width:1.0416666666666667;" width="102.0833" x="1538.0208" y="282.487"/><rect codeLine="17" fill="none" height="87.5448" id="IO.CopyStyle" rx="8.3333" ry="8.3333" style="stroke:#5E5E5E;stroke-width:1.0416666666666667;" width="102.0833" x="1538.0208" y="259.432"/><ellipse cx="1552.6042" cy="275.1261" fill="#CF6300" rx="10.4167" ry="10.4167" style="stroke:#EF8300;stroke-width:1.0416666666666667;"/><path d="M1555.66,279.8136 L1549.9837,279.8136 L1549.9837,270.7011 L1555.66,270.7011 L1555.66,272.288 L1551.7843,272.288 L1551.7843,274.2533 L1555.2938,274.2533 L1555.2938,275.8403 L1551.7843,275.8403 L1551.7843,278.2267 L1555.66,278.2267 Z " fill="#000000"/><text fill="#D8BC00" font-family="Open Sans,Avenir,Nunito,Arial,Helvetica,SansSerif" font-size="12.5" font-weight="bold" lengthAdjust="spacing" textLength="64.5833" x="1569.2708" y="279.8503">CopyStyle</text><line style="stroke:#5E5E5E;stroke-width:1.0416666666666667;" x1="1539.0625" x2="1639.0625" y1="290.8203" y2="290.8203"/><text fill="#D8BC00" font-family="Open Sans,Avenir,Nunito,Arial,Helvetica,SansSerif" font-size="11.4583" lengthAdjust="spacing" textLength="55.2083" x="1547.3958" y="309.1899">BUFFERED</text><text fill="#D8BC00" font-family="Open Sans,Avenir,Nunito,Arial,Helvetica,SansSerif" font-size="11.4583" lengthAdjust="spacing" textLength="71.875" x="1547.3958" y="328.9347">UNBUFFERED</text><line style="stroke:#5E5E5E;stroke-width:1.0416666666666667;" x1="1539.0625" x2="1639.0625" y1="338.6434" y2="338.6434"/><rect codeLine="23" fill="#282828" height="107.2896" id="StringInputStream.EncodingErrorBehavior" rx="8.3333" ry="8.3333" style="stroke:#5E5E5E;stroke-width:1.0416666666666667;" width="184.375" x="1735.4167" y="249.5361"/><rect fill="#1B1B1A" height="31.3883" rx="8.3333" ry="8.3333" style="stroke:#1B1B1A;stroke-width:1.0416666666666667;" width="184.375" x="1735.4167" y="249.5361"/><rect fill="#1B1B1A" height="8.3333" style="stroke:#1B1B1A;stroke-width:1.0416666666666667;" width="184.375" x="1735.4167" y="272.5911"/><rect codeLine="23" fill="none" height="107.2896" id="StringInputStream.EncodingErrorBehavior" rx="8.3333" ry="8.3333" style="stroke:#5E5E5E;stroke-width:1.0416666666666667;" width="184.375" x="1735.4167" y="249.5361"/><ellipse cx="1750" cy="265.2303" fill="#CF6300" rx="10.4167" ry="10.4167" style="stroke:#EF8300;stroke-width:1.0416666666666667;"/><path d="M1753.0558,269.9178 L1747.3796,269.9178 L1747.3796,260.8053 L1753.0558,260.8053 L1753.0558,262.3922 L1749.1801,262.3922 L1749.1801,264.3575 L1752.6896,264.3575 L1752.6896,265.9444 L1749.1801,265.9444 L1749.1801,268.3309 L1753.0558,268.3309 Z " fill="#000000"/><text fill="#D8BC00" font-family="Open Sans,Avenir,Nunito,Arial,Helvetica,SansSerif" font-size="12.5" font-weight="bold" lengthAdjust="spacing" textLength="146.875" x="1766.6667" y="269.9544">EncodingErrorBehavior</text><line style="stroke:#5E5E5E;stroke-width:1.0416666666666667;" x1="1736.4583" x2="1918.75" y1="280.9245" y2="280.9245"/><text fill="#D8BC00" font-family="Open Sans,Avenir,Nunito,Arial,Helvetica,SansSerif" font-size="11.4583" lengthAdjust="spacing" textLength="29.1667" x="1744.7917" y="299.294">OMIT</text><text fill="#D8BC00" font-family="Open Sans,Avenir,Nunito,Arial,Helvetica,SansSerif" font-size="11.4583" lengthAdjust="spacing" textLength="48.9583" x="1744.7917" y="319.0389">REPLACE</text><text fill="#D8BC00" font-family="Open Sans,Avenir,Nunito,Arial,Helvetica,SansSerif" font-size="11.4583" lengthAdjust="spacing" textLength="41.6667" x="1744.7917" y="338.7838">THROW</text><line style="stroke:#5E5E5E;stroke-width:1.0416666666666667;" x1="1736.4583" x2="1918.75" y1="348.4924" y2="348.4924"/><rect codeLine="7" fill="#282828" height="48.055" id="ByteSized" rx="8.3333" ry="8.3333" style="stroke:#5E5E5E;stroke-width:1.0416666666666667;" width="100" x="1038.0208" y="279.2236"/><rect fill="#1B1B1A" height="31.3883" rx="8.3333" ry="8.3333" style="stroke:#1B1B1A;stroke-width:1.0416666666666667;" width="100" x="1038.0208" y="279.2236"/><rect fill="#1B1B1A" height="8.3333" style="stroke:#1B1B1A;stroke-width:1.0416666666666667;" width="100" x="1038.0208" y="302.2786"/><rect codeLine="7" fill="none" height="48.055" id="ByteSized" rx="8.3333" ry="8.3333" style="stroke:#5E5E5E;stroke-width:1.0416666666666667;" width="100" x="1038.0208" y="279.2236"/><ellipse cx="1052.6042" cy="294.9178" fill="#008400" rx="10.4167" ry="10.4167" style="stroke:#239C23;stroke-width:1.0416666666666667;"/><path d="M1050.0081,292.0797 L1050.0081,290.4928 L1055.4342,290.4928 L1055.4342,292.0797 L1053.6214,292.0797 L1053.6214,298.0184 L1055.4342,298.0184 L1055.4342,299.6053 L1050.0081,299.6053 L1050.0081,298.0184 L1051.8209,298.0184 L1051.8209,292.0797 Z " fill="#000000"/><text fill="#D8BC00" font-family="Open Sans,Avenir,Nunito,Arial,Helvetica,SansSerif" font-size="12.5" font-style="italic" font-weight="bold" lengthAdjust="spacing" textLength="62.5" x="1069.2708" y="299.6419">ByteSized</text><line style="stroke:#5E5E5E;stroke-width:1.0416666666666667;" x1="1039.0625" x2="1136.9792" y1="310.612" y2="310.612"/><line style="stroke:#5E5E5E;stroke-width:1.0416666666666667;" x1="1039.0625" x2="1136.9792" y1="318.9453" y2="318.9453"/><rect fill="#282828" height="48.055" id="OutputStream" rx="8.3333" ry="8.3333" style="stroke:#5E5E5E;stroke-width:1.0416666666666667;" width="128.125" x="1175" y="279.2236"/><rect fill="#1B1B1A" height="31.3883" rx="8.3333" ry="8.3333" style="stroke:#1B1B1A;stroke-width:1.0416666666666667;" width="128.125" x="1175" y="279.2236"/><rect fill="#1B1B1A" height="8.3333" style="stroke:#1B1B1A;stroke-width:1.0416666666666667;" width="128.125" x="1175" y="302.2786"/><rect fill="none" height="48.055" id="OutputStream" rx="8.3333" ry="8.3333" style="stroke:#5E5E5E;stroke-width:1.0416666666666667;" width="128.125" x="1175" y="279.2236"/><ellipse cx="1189.5833" cy="294.9178" fill="#0066CF" rx="10.4167" ry="10.4167" style="stroke:#0086EF;stroke-width:1.0416666666666667;"/><path d="M1191.4937,299.3429 Q1191.0665,299.5626 1190.5965,299.6724 Q1190.1265,299.7823 1189.6077,299.7823 Q1187.7645,299.7823 1186.794,298.5677 Q1185.8236,297.3531 1185.8236,295.0582 Q1185.8236,292.7572 1186.794,291.5426 Q1187.7645,290.328 1189.6077,290.328 Q1190.1265,290.328 1190.6026,290.4378 Q1191.0787,290.5477 1191.4937,290.7674 L1191.4937,292.7694 Q1191.0299,292.3421 1190.5935,292.1438 Q1190.1571,291.9454 1189.6932,291.9454 Q1188.7044,291.9454 1188.2009,292.7297 Q1187.6973,293.514 1187.6973,295.0582 Q1187.6973,296.5963 1188.2009,297.3806 Q1188.7044,298.1649 1189.6932,298.1649 Q1190.1571,298.1649 1190.5935,297.9665 Q1191.0299,297.7681 1191.4937,297.3409 Z " fill="#000000"/><text fill="#D8BC00" font-family="Open Sans,Avenir,Nunito,Arial,Helvetica,SansSerif" font-size="12.5" font-weight="bold" lengthAdjust="spacing" textLength="90.625" x="1206.25" y="299.6419">OutputStream</text><line style="stroke:#5E5E5E;stroke-width:1.0416666666666667;" x1="1176.0417" x2="1302.0833" y1="310.612" y2="310.612"/><line style="stroke:#5E5E5E;stroke-width:1.0416666666666667;" x1="1176.0417" x2="1302.0833" y1="318.9453" y2="318.9453"/><rect codeLine="11" fill="#282828" height="83.3781" id="ByteSizedOutputStream" rx="8.3333" ry="8.3333" style="stroke:#5E5E5E;stroke-width:1.0416666666666667;" width="248.9583" x="1085.4167" y="702.6611"/><rect fill="#1B1B1A" height="31.3883" rx="8.3333" ry="8.3333" style="stroke:#1B1B1A;stroke-width:1.0416666666666667;" width="248.9583" x="1085.4167" y="702.6611"/><rect fill="#1B1B1A" height="8.3333" style="stroke:#1B1B1A;stroke-width:1.0416666666666667;" width="248.9583" x="1085.4167" y="725.7161"/><rect codeLine="11" fill="none" height="83.3781" id="ByteSizedOutputStream" rx="8.3333" ry="8.3333" style="stroke:#5E5E5E;stroke-width:1.0416666666666667;" width="248.9583" x="1085.4167" y="702.6611"/><ellipse cx="1126.25" cy="718.3553" fill="#0066CF" rx="10.4167" ry="10.4167" style="stroke:#0086EF;stroke-width:1.0416666666666667;"/><path d="M1128.1604,722.7804 Q1127.7332,723.0001 1127.2632,723.1099 Q1126.7932,723.2198 1126.2744,723.2198 Q1124.4312,723.2198 1123.4607,722.0052 Q1122.4902,720.7906 1122.4902,718.4957 Q1122.4902,716.1947 1123.4607,714.9801 Q1124.4312,713.7655 1126.2744,713.7655 Q1126.7932,713.7655 1127.2693,713.8753 Q1127.7454,713.9852 1128.1604,714.2049 L1128.1604,716.2069 Q1127.6965,715.7796 1127.2601,715.5813 Q1126.8237,715.3829 1126.3599,715.3829 Q1125.3711,715.3829 1124.8676,716.1672 Q1124.364,716.9515 1124.364,718.4957 Q1124.364,720.0338 1124.8676,720.8181 Q1125.3711,721.6024 1126.3599,721.6024 Q1126.8237,721.6024 1127.2601,721.404 Q1127.6965,721.2056 1128.1604,720.7784 Z " fill="#000000"/><text fill="#D8BC00" font-family="Open Sans,Avenir,Nunito,Arial,Helvetica,SansSerif" font-size="12.5" font-weight="bold" lengthAdjust="spacing" textLength="153.125" x="1148.75" y="723.0794">ByteSizedOutputStream</text><line style="stroke:#5E5E5E;stroke-width:1.5625;" x1="1086.4583" x2="1333.3333" y1="734.0495" y2="734.0495"/><ellipse cx="1096.875" cy="769.4194" fill="#84BE84" rx="3.125" ry="3.125" style="stroke:#038048;stroke-width:1.0416666666666667;"/><text fill="#D8BC00" font-family="Open Sans,Avenir,Nunito,Arial,Helvetica,SansSerif" font-size="11.4583" lengthAdjust="spacing" textLength="216.6667" x="1108.3333" y="776.3306">ByteSizedOutputStream(OutputStream)</text><line style="stroke:#5E5E5E;stroke-width:1.0416666666666667;" x1="1086.4583" x2="1166.1458" y1="752.2552" y2="752.2552"/><text fill="#D8BC00" font-family="Open Sans,Avenir,Nunito,Arial,Helvetica,SansSerif" font-size="11.4583" lengthAdjust="spacing" textLength="81.25" x="1169.2708" y="756.0649">(constructors)</text><line style="stroke:#5E5E5E;stroke-width:1.0416666666666667;" x1="1253.6458" x2="1333.3333" y1="752.2552" y2="752.2552"/><rect codeLine="30" fill="#282828" height="499.1089" id="IO" rx="8.3333" ry="8.3333" style="stroke:#5E5E5E;stroke-width:1.0416666666666667;" width="329.1667" x="32.8125" y="53.7028"/><rect fill="#1B1B1A" height="31.3883" rx="8.3333" ry="8.3333" style="stroke:#1B1B1A;stroke-width:1.0416666666666667;" width="329.1667" x="32.8125" y="53.7028"/><rect fill="#1B1B1A" height="8.3333" style="stroke:#1B1B1A;stroke-width:1.0416666666666667;" width="329.1667" x="32.8125" y="76.7578"/><rect codeLine="30" fill="none" height="499.1089" id="IO" rx="8.3333" ry="8.3333" style="stroke:#5E5E5E;stroke-width:1.0416666666666667;" width="329.1667" x="32.8125" y="53.7028"/><ellipse cx="182.8125" cy="69.397" fill="#0066CF" rx="10.4167" ry="10.4167" style="stroke:#0086EF;stroke-width:1.0416666666666667;"/><path d="M184.7229,73.822 Q184.2957,74.0417 183.8257,74.1516 Q183.3557,74.2615 182.8369,74.2615 Q180.9937,74.2615 180.0232,73.0469 Q179.0527,71.8323 179.0527,69.5374 Q179.0527,67.2363 180.0232,66.0217 Q180.9937,64.8071 182.8369,64.8071 Q183.3557,64.8071 183.8318,64.917 Q184.3079,65.0269 184.7229,65.2466 L184.7229,67.2485 Q184.259,66.8213 183.8226,66.6229 Q183.3862,66.4246 182.9224,66.4246 Q181.9336,66.4246 181.4301,67.2089 Q180.9265,67.9932 180.9265,69.5374 Q180.9265,71.0754 181.4301,71.8597 Q181.9336,72.644 182.9224,72.644 Q183.3862,72.644 183.8226,72.4457 Q184.259,72.2473 184.7229,71.8201 Z " fill="#000000"/><text fill="#D8BC00" font-family="Open Sans,Avenir,Nunito,Arial,Helvetica,SansSerif" font-size="12.5" font-weight="bold" lengthAdjust="spacing" textLength="14.5833" x="205.7292" y="74.1211">IO</text><line style="stroke:#5E5E5E;stroke-width:1.5625;" x1="33.8542" x2="360.9375" y1="85.0911" y2="85.0911"/><line style="stroke:#5E5E5E;stroke-width:1.0416666666666667;" x1="33.8542" x2="360.9375" y1="93.4245" y2="93.4245"/><ellipse cx="44.2708" cy="104.8828" fill="#84BE84" rx="3.125" ry="3.125" style="stroke:#038048;stroke-width:1.0416666666666667;"/><text fill="#D8BC00" font-family="Open Sans,Avenir,Nunito,Arial,Helvetica,SansSerif" font-size="11.4583" lengthAdjust="spacing" textLength="192.7083" x="55.7292" y="111.794">void skip(InputStream, long offset)</text><ellipse cx="44.2708" cy="124.6277" fill="#84BE84" rx="3.125" ry="3.125" style="stroke:#038048;stroke-width:1.0416666666666667;"/><text fill="#D8BC00" font-family="Open Sans,Avenir,Nunito,Arial,Helvetica,SansSerif" font-size="11.4583" lengthAdjust="spacing" textLength="145.8333" x="55.7292" y="131.5389">String string(InputStream)</text><ellipse cx="44.2708" cy="144.3726" fill="#84BE84" rx="3.125" ry="3.125" style="stroke:#038048;stroke-width:1.0416666666666667;"/><text fill="#D8BC00" font-family="Open Sans,Avenir,Nunito,Arial,Helvetica,SansSerif" font-size="11.4583" lengthAdjust="spacing" textLength="130.2083" x="55.7292" y="151.2838">String string(Reader in)</text><ellipse cx="44.2708" cy="188.029" fill="#84BE84" rx="3.125" ry="3.125" style="stroke:#038048;stroke-width:1.0416666666666667;"/><text fill="#D8BC00" font-family="Open Sans,Avenir,Nunito,Arial,Helvetica,SansSerif" font-size="11.4583" lengthAdjust="spacing" textLength="235.4167" x="55.7292" y="194.9402">boolean copy(InputStream, OutputStream)</text><ellipse cx="44.2708" cy="207.7738" fill="#84BE84" rx="3.125" ry="3.125" style="stroke:#038048;stroke-width:1.0416666666666667;"/><text fill="#D8BC00" font-family="Open Sans,Avenir,Nunito,Arial,Helvetica,SansSerif" font-size="11.4583" lengthAdjust="spacing" textLength="296.875" x="55.7292" y="214.6851">boolean copy(InputStream, OutputStream, CopyStyle)</text><line style="stroke:#5E5E5E;stroke-width:1.0416666666666667;" x1="33.8542" x2="161.9792" y1="170.8649" y2="170.8649"/><text fill="#D8BC00" font-family="Open Sans,Avenir,Nunito,Arial,Helvetica,SansSerif" font-size="11.4583" lengthAdjust="spacing" textLength="64.5833" x="165.1042" y="174.6745">(filesystem)</text><line style="stroke:#5E5E5E;stroke-width:1.0416666666666667;" x1="232.8125" x2="360.9375" y1="170.8649" y2="170.8649"/><ellipse cx="44.2708" cy="251.4303" fill="#84BE84" rx="3.125" ry="3.125" style="stroke:#038048;stroke-width:1.0416666666666667;"/><text fill="#D8BC00" font-family="Open Sans,Avenir,Nunito,Arial,Helvetica,SansSerif" font-size="11.4583" lengthAdjust="spacing" textLength="101.0417" x="55.7292" y="258.3415">void close(ZipFile)</text><ellipse cx="44.2708" cy="271.1751" fill="#84BE84" rx="3.125" ry="3.125" style="stroke:#038048;stroke-width:1.0416666666666667;"/><text fill="#D8BC00" font-family="Open Sans,Avenir,Nunito,Arial,Helvetica,SansSerif" font-size="11.4583" lengthAdjust="spacing" textLength="145.8333" x="55.7292" y="278.0863">void close(AutoCloseable)</text><ellipse cx="44.2708" cy="290.92" fill="#84BE84" rx="3.125" ry="3.125" style="stroke:#038048;stroke-width:1.0416666666666667;"/><text fill="#D8BC00" font-family="Open Sans,Avenir,Nunito,Arial,Helvetica,SansSerif" font-size="11.4583" lengthAdjust="spacing" textLength="142.7083" x="55.7292" y="297.8312">void close(OutputStream)</text><ellipse cx="44.2708" cy="310.6649" fill="#84BE84" rx="3.125" ry="3.125" style="stroke:#038048;stroke-width:1.0416666666666667;"/><text fill="#D8BC00" font-family="Open Sans,Avenir,Nunito,Arial,Helvetica,SansSerif" font-size="11.4583" lengthAdjust="spacing" textLength="97.9167" x="55.7292" y="317.5761">void close(Writer)</text><ellipse cx="44.2708" cy="330.4097" fill="#84BE84" rx="3.125" ry="3.125" style="stroke:#038048;stroke-width:1.0416666666666667;"/><text fill="#D8BC00" font-family="Open Sans,Avenir,Nunito,Arial,Helvetica,SansSerif" font-size="11.4583" lengthAdjust="spacing" textLength="132.2917" x="55.7292" y="337.321">void close(InputStream)</text><ellipse cx="44.2708" cy="350.1546" fill="#84BE84" rx="3.125" ry="3.125" style="stroke:#038048;stroke-width:1.0416666666666667;"/><text fill="#D8BC00" font-family="Open Sans,Avenir,Nunito,Arial,Helvetica,SansSerif" font-size="11.4583" lengthAdjust="spacing" textLength="103.125" x="55.7292" y="357.0658">void close(Reader)</text><ellipse cx="44.2708" cy="369.8995" fill="#84BE84" rx="3.125" ry="3.125" style="stroke:#038048;stroke-width:1.0416666666666667;"/><text fill="#D8BC00" font-family="Open Sans,Avenir,Nunito,Arial,Helvetica,SansSerif" font-size="11.4583" lengthAdjust="spacing" textLength="289.5833" x="55.7292" y="376.8107">boolean copyAndClose(InputStream, OutputStream)</text><ellipse cx="44.2708" cy="389.6444" fill="#84BE84" rx="3.125" ry="3.125" style="stroke:#038048;stroke-width:1.0416666666666667;"/><text fill="#D8BC00" font-family="Open Sans,Avenir,Nunito,Arial,Helvetica,SansSerif" font-size="11.4583" lengthAdjust="spacing" textLength="118.75" x="55.7292" y="396.5556">void flush(Writer out)</text><ellipse cx="44.2708" cy="409.3892" fill="#84BE84" rx="3.125" ry="3.125" style="stroke:#038048;stroke-width:1.0416666666666667;"/><text fill="#D8BC00" font-family="Open Sans,Avenir,Nunito,Arial,Helvetica,SansSerif" font-size="11.4583" lengthAdjust="spacing" textLength="162.5" x="55.7292" y="416.3005">boolean flush(OutputStream)</text><line style="stroke:#5E5E5E;stroke-width:1.0416666666666667;" x1="33.8542" x2="184.8958" y1="234.2662" y2="234.2662"/><text fill="#D8BC00" font-family="Open Sans,Avenir,Nunito,Arial,Helvetica,SansSerif" font-size="11.4583" lengthAdjust="spacing" textLength="18.75" x="188.0208" y="238.0758">(io)</text><line style="stroke:#5E5E5E;stroke-width:1.0416666666666667;" x1="209.8958" x2="360.9375" y1="234.2662" y2="234.2662"/><ellipse cx="44.2708" cy="453.0457" fill="#84BE84" rx="3.125" ry="3.125" style="stroke:#038048;stroke-width:1.0416666666666667;"/><text fill="#D8BC00" font-family="Open Sans,Avenir,Nunito,Arial,Helvetica,SansSerif" font-size="11.4583" lengthAdjust="spacing" textLength="228.125" x="55.7292" y="459.9569">BufferedInputStream buffer(InputStream)</text><ellipse cx="44.2708" cy="472.7905" fill="#84BE84" rx="3.125" ry="3.125" style="stroke:#038048;stroke-width:1.0416666666666667;"/><text fill="#D8BC00" font-family="Open Sans,Avenir,Nunito,Arial,Helvetica,SansSerif" font-size="11.4583" lengthAdjust="spacing" textLength="141.6667" x="55.7292" y="479.7017">int readByte(InputStream)</text><ellipse cx="44.2708" cy="492.5354" fill="#84BE84" rx="3.125" ry="3.125" style="stroke:#038048;stroke-width:1.0416666666666667;"/><text fill="#D8BC00" font-family="Open Sans,Avenir,Nunito,Arial,Helvetica,SansSerif" font-size="11.4583" lengthAdjust="spacing" textLength="165.625" x="55.7292" y="499.4466">byte[] readBytes(InputStream)</text><line style="stroke:#5E5E5E;stroke-width:1.0416666666666667;" x1="33.8542" x2="177.6042" y1="435.8816" y2="435.8816"/><text fill="#D8BC00" font-family="Open Sans,Avenir,Nunito,Arial,Helvetica,SansSerif" font-size="11.4583" lengthAdjust="spacing" textLength="33.3333" x="180.7292" y="439.6912">(read)</text><line style="stroke:#5E5E5E;stroke-width:1.0416666666666667;" x1="217.1875" x2="360.9375" y1="435.8816" y2="435.8816"/><ellipse cx="44.2708" cy="536.1918" fill="#84BE84" rx="3.125" ry="3.125" style="stroke:#038048;stroke-width:1.0416666666666667;"/><text fill="#D8BC00" font-family="Open Sans,Avenir,Nunito,Arial,Helvetica,SansSerif" font-size="11.4583" lengthAdjust="spacing" textLength="248.9583" x="55.7292" y="543.103">BufferedOutputStream buffer(OutputStream)</text><line style="stroke:#5E5E5E;stroke-width:1.0416666666666667;" x1="33.8542" x2="176.5625" y1="519.0277" y2="519.0277"/><text fill="#D8BC00" font-family="Open Sans,Avenir,Nunito,Arial,Helvetica,SansSerif" font-size="11.4583" lengthAdjust="spacing" textLength="35.4167" x="179.6875" y="522.8373">(write)</text><line style="stroke:#5E5E5E;stroke-width:1.0416666666666667;" x1="218.2292" x2="360.9375" y1="519.0277" y2="519.0277"/><rect fill="#282828" height="48.055" id="InputStream" rx="8.3333" ry="8.3333" style="stroke:#5E5E5E;stroke-width:1.0416666666666667;" width="116.6667" x="834.8958" y="279.2236"/><rect fill="#1B1B1A" height="31.3883" rx="8.3333" ry="8.3333" style="stroke:#1B1B1A;stroke-width:1.0416666666666667;" width="116.6667" x="834.8958" y="279.2236"/><rect fill="#1B1B1A" height="8.3333" style="stroke:#1B1B1A;stroke-width:1.0416666666666667;" width="116.6667" x="834.8958" y="302.2786"/><rect fill="none" height="48.055" id="InputStream" rx="8.3333" ry="8.3333" style="stroke:#5E5E5E;stroke-width:1.0416666666666667;" width="116.6667" x="834.8958" y="279.2236"/><ellipse cx="849.4792" cy="294.9178" fill="#0066CF" rx="10.4167" ry="10.4167" style="stroke:#0086EF;stroke-width:1.0416666666666667;"/><path d="M851.3896,299.3429 Q850.9623,299.5626 850.4924,299.6724 Q850.0224,299.7823 849.5036,299.7823 Q847.6603,299.7823 846.6899,298.5677 Q845.7194,297.3531 845.7194,295.0582 Q845.7194,292.7572 846.6899,291.5426 Q847.6603,290.328 849.5036,290.328 Q850.0224,290.328 850.4985,290.4378 Q850.9745,290.5477 851.3896,290.7674 L851.3896,292.7694 Q850.9257,292.3421 850.4893,292.1438 Q850.0529,291.9454 849.589,291.9454 Q848.6003,291.9454 848.0967,292.7297 Q847.5932,293.514 847.5932,295.0582 Q847.5932,296.5963 848.0967,297.3806 Q848.6003,298.1649 849.589,298.1649 Q850.0529,298.1649 850.4893,297.9665 Q850.9257,297.7681 851.3896,297.3409 Z " fill="#000000"/><text fill="#D8BC00" font-family="Open Sans,Avenir,Nunito,Arial,Helvetica,SansSerif" font-size="12.5" font-weight="bold" lengthAdjust="spacing" textLength="79.1667" x="866.1458" y="299.6419">InputStream</text><line style="stroke:#5E5E5E;stroke-width:1.0416666666666667;" x1="835.9375" x2="950.5208" y1="310.612" y2="310.612"/><line style="stroke:#5E5E5E;stroke-width:1.0416666666666667;" x1="835.9375" x2="950.5208" y1="318.9453" y2="318.9453"/><rect codeLine="58" fill="#282828" height="83.3781" id="LimitedInputStream" rx="8.3333" ry="8.3333" style="stroke:#5E5E5E;stroke-width:1.0416666666666667;" width="252.0833" x="767.1875" y="702.6611"/><rect fill="#1B1B1A" height="31.3883" rx="8.3333" ry="8.3333" style="stroke:#1B1B1A;stroke-width:1.0416666666666667;" width="252.0833" x="767.1875" y="702.6611"/><rect fill="#1B1B1A" height="8.3333" style="stroke:#1B1B1A;stroke-width:1.0416666666666667;" width="252.0833" x="767.1875" y="725.7161"/><rect codeLine="58" fill="none" height="83.3781" id="LimitedInputStream" rx="8.3333" ry="8.3333" style="stroke:#5E5E5E;stroke-width:1.0416666666666667;" width="252.0833" x="767.1875" y="702.6611"/><ellipse cx="821.875" cy="718.3553" fill="#0066CF" rx="10.4167" ry="10.4167" style="stroke:#0086EF;stroke-width:1.0416666666666667;"/><path d="M823.7854,722.7804 Q823.3582,723.0001 822.8882,723.1099 Q822.4182,723.2198 821.8994,723.2198 Q820.0562,723.2198 819.0857,722.0052 Q818.1152,720.7906 818.1152,718.4957 Q818.1152,716.1947 819.0857,714.9801 Q820.0562,713.7655 821.8994,713.7655 Q822.4182,713.7655 822.8943,713.8753 Q823.3704,713.9852 823.7854,714.2049 L823.7854,716.2069 Q823.3215,715.7796 822.8851,715.5813 Q822.4487,715.3829 821.9849,715.3829 Q820.9961,715.3829 820.4926,716.1672 Q819.989,716.9515 819.989,718.4957 Q819.989,720.0338 820.4926,720.8181 Q820.9961,721.6024 821.9849,721.6024 Q822.4487,721.6024 822.8851,721.404 Q823.3215,721.2056 823.7854,720.7784 Z " fill="#000000"/><text fill="#D8BC00" font-family="Open Sans,Avenir,Nunito,Arial,Helvetica,SansSerif" font-size="12.5" font-weight="bold" lengthAdjust="spacing" textLength="128.125" x="844.7917" y="723.0794">LimitedInputStream</text><line style="stroke:#5E5E5E;stroke-width:1.5625;" x1="768.2292" x2="1018.2292" y1="734.0495" y2="734.0495"/><ellipse cx="778.6458" cy="769.4194" fill="#84BE84" rx="3.125" ry="3.125" style="stroke:#038048;stroke-width:1.0416666666666667;"/><text fill="#D8BC00" font-family="Open Sans,Avenir,Nunito,Arial,Helvetica,SansSerif" font-size="11.4583" lengthAdjust="spacing" textLength="219.7917" x="790.1042" y="776.3306">LimitedInputStream(InputStream, Bytes)</text><line style="stroke:#5E5E5E;stroke-width:1.0416666666666667;" x1="768.2292" x2="849.4792" y1="752.2552" y2="752.2552"/><text fill="#D8BC00" font-family="Open Sans,Avenir,Nunito,Arial,Helvetica,SansSerif" font-size="11.4583" lengthAdjust="spacing" textLength="81.25" x="852.6042" y="756.0649">(constructors)</text><line style="stroke:#5E5E5E;stroke-width:1.0416666666666667;" x1="936.9792" x2="1018.2292" y1="752.2552" y2="752.2552"/><rect fill="#282828" height="48.055" id="Reader" rx="8.3333" ry="8.3333" style="stroke:#5E5E5E;stroke-width:1.0416666666666667;" width="81.25" x="1420.3125" y="279.2236"/><rect fill="#1B1B1A" height="31.3883" rx="8.3333" ry="8.3333" style="stroke:#1B1B1A;stroke-width:1.0416666666666667;" width="81.25" x="1420.3125" y="279.2236"/><rect fill="#1B1B1A" height="8.3333" style="stroke:#1B1B1A;stroke-width:1.0416666666666667;" width="81.25" x="1420.3125" y="302.2786"/><rect fill="none" height="48.055" id="Reader" rx="8.3333" ry="8.3333" style="stroke:#5E5E5E;stroke-width:1.0416666666666667;" width="81.25" x="1420.3125" y="279.2236"/><ellipse cx="1434.8958" cy="294.9178" fill="#0066CF" rx="10.4167" ry="10.4167" style="stroke:#0086EF;stroke-width:1.0416666666666667;"/><path d="M1436.8062,299.3429 Q1436.379,299.5626 1435.909,299.6724 Q1435.439,299.7823 1434.9202,299.7823 Q1433.077,299.7823 1432.1065,298.5677 Q1431.1361,297.3531 1431.1361,295.0582 Q1431.1361,292.7572 1432.1065,291.5426 Q1433.077,290.328 1434.9202,290.328 Q1435.439,290.328 1435.9151,290.4378 Q1436.3912,290.5477 1436.8062,290.7674 L1436.8062,292.7694 Q1436.3424,292.3421 1435.906,292.1438 Q1435.4696,291.9454 1435.0057,291.9454 Q1434.0169,291.9454 1433.5134,292.7297 Q1433.0098,293.514 1433.0098,295.0582 Q1433.0098,296.5963 1433.5134,297.3806 Q1434.0169,298.1649 1435.0057,298.1649 Q1435.4696,298.1649 1435.906,297.9665 Q1436.3424,297.7681 1436.8062,297.3409 Z " fill="#000000"/><text fill="#D8BC00" font-family="Open Sans,Avenir,Nunito,Arial,Helvetica,SansSerif" font-size="12.5" font-weight="bold" lengthAdjust="spacing" textLength="43.75" x="1451.5625" y="299.6419">Reader</text><line style="stroke:#5E5E5E;stroke-width:1.0416666666666667;" x1="1421.3542" x2="1500.5208" y1="310.612" y2="310.612"/><line style="stroke:#5E5E5E;stroke-width:1.0416666666666667;" x1="1421.3542" x2="1500.5208" y1="318.9453" y2="318.9453"/><rect codeLine="65" fill="#282828" height="258.0037" id="LookAheadReader" rx="8.3333" ry="8.3333" style="stroke:#5E5E5E;stroke-width:1.0416666666666667;" width="180.2083" x="1370.8333" y="615.1611"/><rect fill="#1B1B1A" height="31.3883" rx="8.3333" ry="8.3333" style="stroke:#1B1B1A;stroke-width:1.0416666666666667;" width="180.2083" x="1370.8333" y="615.1611"/><rect fill="#1B1B1A" height="8.3333" style="stroke:#1B1B1A;stroke-width:1.0416666666666667;" width="180.2083" x="1370.8333" y="638.2161"/><rect codeLine="65" fill="none" height="258.0037" id="LookAheadReader" rx="8.3333" ry="8.3333" style="stroke:#5E5E5E;stroke-width:1.0416666666666667;" width="180.2083" x="1370.8333" y="615.1611"/><ellipse cx="1397.1354" cy="630.8553" fill="#0066CF" rx="10.4167" ry="10.4167" style="stroke:#0086EF;stroke-width:1.0416666666666667;"/><path d="M1399.0458,635.2804 Q1398.6186,635.5001 1398.1486,635.6099 Q1397.6786,635.7198 1397.1598,635.7198 Q1395.3166,635.7198 1394.3461,634.5052 Q1393.3757,633.2906 1393.3757,630.9957 Q1393.3757,628.6947 1394.3461,627.4801 Q1395.3166,626.2655 1397.1598,626.2655 Q1397.6786,626.2655 1398.1547,626.3753 Q1398.6308,626.4852 1399.0458,626.7049 L1399.0458,628.7069 Q1398.5819,628.2796 1398.1455,628.0813 Q1397.7091,627.8829 1397.2453,627.8829 Q1396.2565,627.8829 1395.753,628.6672 Q1395.2494,629.4515 1395.2494,630.9957 Q1395.2494,632.5338 1395.753,633.3181 Q1396.2565,634.1024 1397.2453,634.1024 Q1397.7091,634.1024 1398.1455,633.904 Q1398.5819,633.7056 1399.0458,633.2784 Z " fill="#000000"/><text fill="#D8BC00" font-family="Open Sans,Avenir,Nunito,Arial,Helvetica,SansSerif" font-size="12.5" font-weight="bold" lengthAdjust="spacing" textLength="116.6667" x="1416.4063" y="635.5794">LookAheadReader</text><line style="stroke:#5E5E5E;stroke-width:1.5625;" x1="1371.875" x2="1550" y1="646.5495" y2="646.5495"/><ellipse cx="1382.2917" cy="681.9194" fill="#84BE84" rx="3.125" ry="3.125" style="stroke:#038048;stroke-width:1.0416666666666667;"/><text fill="#D8BC00" font-family="Open Sans,Avenir,Nunito,Arial,Helvetica,SansSerif" font-size="11.4583" lengthAdjust="spacing" textLength="147.9167" x="1393.75" y="688.8306">LookAheadReader(Reader)</text><line style="stroke:#5E5E5E;stroke-width:1.0416666666666667;" x1="1371.875" x2="1417.1875" y1="664.7552" y2="664.7552"/><text fill="#D8BC00" font-family="Open Sans,Avenir,Nunito,Arial,Helvetica,SansSerif" font-size="11.4583" lengthAdjust="spacing" textLength="81.25" x="1420.3125" y="668.5649">(constructors)</text><line style="stroke:#5E5E5E;stroke-width:1.0416666666666667;" x1="1504.6875" x2="1550" y1="664.7552" y2="664.7552"/><line style="stroke:#5E5E5E;stroke-width:1.0416666666666667;" x1="1371.875" x2="1550" y1="698.5392" y2="698.5392"/><ellipse cx="1382.2917" cy="709.9976" fill="#84BE84" rx="3.125" ry="3.125" style="stroke:#038048;stroke-width:1.0416666666666667;"/><text fill="#D8BC00" font-family="Open Sans,Avenir,Nunito,Arial,Helvetica,SansSerif" font-size="11.4583" lengthAdjust="spacing" textLength="67.7083" x="1393.75" y="716.9088">int current()</text><ellipse cx="1382.2917" cy="729.7424" fill="#84BE84" rx="3.125" ry="3.125" style="stroke:#038048;stroke-width:1.0416666666666667;"/><text fill="#D8BC00" font-family="Open Sans,Avenir,Nunito,Arial,Helvetica,SansSerif" font-size="11.4583" lengthAdjust="spacing" textLength="90.625" x="1393.75" y="736.6536">int lineNumber()</text><ellipse cx="1382.2917" cy="749.4873" fill="#84BE84" rx="3.125" ry="3.125" style="stroke:#038048;stroke-width:1.0416666666666667;"/><text fill="#D8BC00" font-family="Open Sans,Avenir,Nunito,Arial,Helvetica,SansSerif" font-size="11.4583" lengthAdjust="spacing" textLength="85.4167" x="1393.75" y="756.3985">int lookAhead()</text><ellipse cx="1382.2917" cy="793.1437" fill="#84BE84" rx="3.125" ry="3.125" style="stroke:#038048;stroke-width:1.0416666666666667;"/><text fill="#D8BC00" font-family="Open Sans,Avenir,Nunito,Arial,Helvetica,SansSerif" font-size="11.4583" lengthAdjust="spacing" textLength="102.0833" x="1393.75" y="800.0549">boolean hasNext()</text><ellipse cx="1382.2917" cy="812.8886" fill="#84BE84" rx="3.125" ry="3.125" style="stroke:#038048;stroke-width:1.0416666666666667;"/><text fill="#D8BC00" font-family="Open Sans,Avenir,Nunito,Arial,Helvetica,SansSerif" font-size="11.4583" lengthAdjust="spacing" textLength="60.4167" x="1393.75" y="819.7998">void next()</text><line style="stroke:#5E5E5E;stroke-width:1.0416666666666667;" x1="1371.875" x2="1430.2083" y1="775.9796" y2="775.9796"/><text fill="#D8BC00" font-family="Open Sans,Avenir,Nunito,Arial,Helvetica,SansSerif" font-size="11.4583" lengthAdjust="spacing" textLength="55.2083" x="1433.3333" y="779.7892">(iteration)</text><line style="stroke:#5E5E5E;stroke-width:1.0416666666666667;" x1="1491.6667" x2="1550" y1="775.9796" y2="775.9796"/><ellipse cx="1382.2917" cy="856.545" fill="#84BE84" rx="3.125" ry="3.125" style="stroke:#038048;stroke-width:1.0416666666666667;"/><text fill="#D8BC00" font-family="Open Sans,Avenir,Nunito,Arial,Helvetica,SansSerif" font-size="11.4583" lengthAdjust="spacing" textLength="123.9583" x="1393.75" y="863.4562">boolean atEndOfLine()</text><line style="stroke:#5E5E5E;stroke-width:1.0416666666666667;" x1="1371.875" x2="1431.25" y1="839.3809" y2="839.3809"/><text fill="#D8BC00" font-family="Open Sans,Avenir,Nunito,Arial,Helvetica,SansSerif" font-size="11.4583" lengthAdjust="spacing" textLength="53.125" x="1434.375" y="843.1905">(lifecycle)</text><line style="stroke:#5E5E5E;stroke-width:1.0416666666666667;" x1="1490.625" x2="1550" y1="839.3809" y2="839.3809"/><rect codeLine="80" fill="#282828" height="166.5243" id="Nio" rx="8.3333" ry="8.3333" style="stroke:#5E5E5E;stroke-width:1.0416666666666667;" width="398.9583" x="398.9583" y="219.8486"/><rect fill="#1B1B1A" height="31.3883" rx="8.3333" ry="8.3333" style="stroke:#1B1B1A;stroke-width:1.0416666666666667;" width="398.9583" x="398.9583" y="219.8486"/><rect fill="#1B1B1A" height="8.3333" style="stroke:#1B1B1A;stroke-width:1.0416666666666667;" width="398.9583" x="398.9583" y="242.9036"/><rect codeLine="80" fill="none" height="166.5243" id="Nio" rx="8.3333" ry="8.3333" style="stroke:#5E5E5E;stroke-width:1.0416666666666667;" width="398.9583" x="398.9583" y="219.8486"/><ellipse cx="580.2083" cy="235.5428" fill="#0066CF" rx="10.4167" ry="10.4167" style="stroke:#0086EF;stroke-width:1.0416666666666667;"/><path d="M582.1187,239.9679 Q581.6915,240.1876 581.2215,240.2974 Q580.7515,240.4073 580.2327,240.4073 Q578.3895,240.4073 577.419,239.1927 Q576.4486,237.9781 576.4486,235.6832 Q576.4486,233.3822 577.419,232.1676 Q578.3895,230.953 580.2327,230.953 Q580.7515,230.953 581.2276,231.0628 Q581.7037,231.1727 582.1187,231.3924 L582.1187,233.3944 Q581.6549,232.9671 581.2185,232.7688 Q580.7821,232.5704 580.3182,232.5704 Q579.3294,232.5704 578.8259,233.3547 Q578.3223,234.139 578.3223,235.6832 Q578.3223,237.2213 578.8259,238.0056 Q579.3294,238.7899 580.3182,238.7899 Q580.7821,238.7899 581.2185,238.5915 Q581.6549,238.3931 582.1187,237.9659 Z " fill="#000000"/><text fill="#D8BC00" font-family="Open Sans,Avenir,Nunito,Arial,Helvetica,SansSerif" font-size="12.5" font-weight="bold" lengthAdjust="spacing" textLength="21.875" x="603.125" y="240.2669">Nio</text><line style="stroke:#5E5E5E;stroke-width:1.5625;" x1="400" x2="796.875" y1="251.237" y2="251.237"/><ellipse cx="410.4167" cy="286.6069" fill="#84BE84" rx="3.125" ry="3.125" style="stroke:#038048;stroke-width:1.0416666666666667;"/><text fill="#D8BC00" font-family="Open Sans,Avenir,Nunito,Arial,Helvetica,SansSerif" font-size="11.4583" lengthAdjust="spacing" textLength="236.4583" x="421.875" y="293.5181">List&lt;Path&gt; filesAndFolders(Listener, Path)</text><ellipse cx="410.4167" cy="306.3517" fill="#84BE84" rx="3.125" ry="3.125" style="stroke:#038048;stroke-width:1.0416666666666667;"/><text fill="#D8BC00" font-family="Open Sans,Avenir,Nunito,Arial,Helvetica,SansSerif" font-size="11.4583" lengthAdjust="spacing" textLength="195.8333" x="421.875" y="313.2629">FileSystem filesystem(Listener, URI)</text><ellipse cx="410.4167" cy="326.0966" fill="#84BE84" rx="3.125" ry="3.125" style="stroke:#038048;stroke-width:1.0416666666666667;"/><text fill="#D8BC00" font-family="Open Sans,Avenir,Nunito,Arial,Helvetica,SansSerif" font-size="11.4583" lengthAdjust="spacing" textLength="366.6667" x="421.875" y="333.0078">FileSystem filesystem(Listener, URI, Map&lt;String,String&gt; variables)</text><line style="stroke:#5E5E5E;stroke-width:1.0416666666666667;" x1="400" x2="563.0208" y1="269.4427" y2="269.4427"/><text fill="#D8BC00" font-family="Open Sans,Avenir,Nunito,Arial,Helvetica,SansSerif" font-size="11.4583" lengthAdjust="spacing" textLength="64.5833" x="566.1458" y="273.2524">(filesystem)</text><line style="stroke:#5E5E5E;stroke-width:1.0416666666666667;" x1="633.8542" x2="796.875" y1="269.4427" y2="269.4427"/><ellipse cx="410.4167" cy="369.753" fill="#84BE84" rx="3.125" ry="3.125" style="stroke:#038048;stroke-width:1.0416666666666667;"/><text fill="#D8BC00" font-family="Open Sans,Avenir,Nunito,Arial,Helvetica,SansSerif" font-size="11.4583" lengthAdjust="spacing" textLength="122.9167" x="421.875" y="376.6642">void close(FileSystem)</text><line style="stroke:#5E5E5E;stroke-width:1.0416666666666667;" x1="400" x2="585.9375" y1="352.5889" y2="352.5889"/><text fill="#D8BC00" font-family="Open Sans,Avenir,Nunito,Arial,Helvetica,SansSerif" font-size="11.4583" lengthAdjust="spacing" textLength="18.75" x="589.0625" y="356.3985">(io)</text><line style="stroke:#5E5E5E;stroke-width:1.0416666666666667;" x1="610.9375" x2="796.875" y1="352.5889" y2="352.5889"/><rect codeLine="91" fill="#282828" height="186.2691" id="StringInputStream" rx="8.3333" ry="8.3333" style="stroke:#5E5E5E;stroke-width:1.0416666666666667;" width="428.125" x="7.2917" y="651.0986"/><rect fill="#1B1B1A" height="31.3883" rx="8.3333" ry="8.3333" style="stroke:#1B1B1A;stroke-width:1.0416666666666667;" width="428.125" x="7.2917" y="651.0986"/><rect fill="#1B1B1A" height="8.3333" style="stroke:#1B1B1A;stroke-width:1.0416666666666667;" width="428.125" x="7.2917" y="674.1536"/><rect codeLine="91" fill="none" height="186.2691" id="StringInputStream" rx="8.3333" ry="8.3333" style="stroke:#5E5E5E;stroke-width:1.0416666666666667;" width="428.125" x="7.2917" y="651.0986"/><ellipse cx="155.2083" cy="666.7928" fill="#0066CF" rx="10.4167" ry="10.4167" style="stroke:#0086EF;stroke-width:1.0416666666666667;"/><path d="M157.1187,671.2179 Q156.6915,671.4376 156.2215,671.5474 Q155.7515,671.6573 155.2327,671.6573 Q153.3895,671.6573 152.419,670.4427 Q151.4486,669.2281 151.4486,666.9332 Q151.4486,664.6322 152.419,663.4176 Q153.3895,662.203 155.2327,662.203 Q155.7515,662.203 156.2276,662.3128 Q156.7037,662.4227 157.1187,662.6424 L157.1187,664.6444 Q156.6549,664.2171 156.2185,664.0188 Q155.7821,663.8204 155.3182,663.8204 Q154.3294,663.8204 153.8259,664.6047 Q153.3223,665.389 153.3223,666.9332 Q153.3223,668.4713 153.8259,669.2556 Q154.3294,670.0399 155.3182,670.0399 Q155.7821,670.0399 156.2185,669.8415 Q156.6549,669.6431 157.1187,669.2159 Z " fill="#000000"/><text fill="#D8BC00" font-family="Open Sans,Avenir,Nunito,Arial,Helvetica,SansSerif" font-size="12.5" font-weight="bold" lengthAdjust="spacing" textLength="117.7083" x="178.125" y="671.5169">StringInputStream</text><line style="stroke:#5E5E5E;stroke-width:1.5625;" x1="8.3333" x2="434.375" y1="682.487" y2="682.487"/><ellipse cx="18.75" cy="717.8569" fill="#84BE84" rx="3.125" ry="3.125" style="stroke:#038048;stroke-width:1.0416666666666667;"/><text fill="#D8BC00" font-family="Open Sans,Avenir,Nunito,Arial,Helvetica,SansSerif" font-size="11.4583" lengthAdjust="spacing" textLength="189.5833" x="30.2083" y="724.7681">StringInputStream(CharSequence)</text><ellipse cx="18.75" cy="737.6017" fill="#84BE84" rx="3.125" ry="3.125" style="stroke:#038048;stroke-width:1.0416666666666667;"/><text fill="#D8BC00" font-family="Open Sans,Avenir,Nunito,Arial,Helvetica,SansSerif" font-size="11.4583" lengthAdjust="spacing" textLength="239.5833" x="30.2083" y="744.5129">StringInputStream(CharSequence, Charset)</text><ellipse cx="18.75" cy="757.3466" fill="#84BE84" rx="3.125" ry="3.125" style="stroke:#038048;stroke-width:1.0416666666666667;"/><text fill="#D8BC00" font-family="Open Sans,Avenir,Nunito,Arial,Helvetica,SansSerif" font-size="11.4583" lengthAdjust="spacing" textLength="260.4167" x="30.2083" y="764.2578">StringInputStream(CharSequence, Charset, int)</text><ellipse cx="18.75" cy="777.0915" fill="#84BE84" rx="3.125" ry="3.125" style="stroke:#038048;stroke-width:1.0416666666666667;"/><text fill="#D8BC00" font-family="Open Sans,Avenir,Nunito,Arial,Helvetica,SansSerif" font-size="11.4583" lengthAdjust="spacing" textLength="395.8333" x="30.2083" y="784.0027">StringInputStream(CharSequence, Charset, int, EncodingErrorBehavior)</text><line style="stroke:#5E5E5E;stroke-width:1.0416666666666667;" x1="8.3333" x2="177.6042" y1="700.6927" y2="700.6927"/><text fill="#D8BC00" font-family="Open Sans,Avenir,Nunito,Arial,Helvetica,SansSerif" font-size="11.4583" lengthAdjust="spacing" textLength="81.25" x="180.7292" y="704.5024">(constructors)</text><line style="stroke:#5E5E5E;stroke-width:1.0416666666666667;" x1="265.1042" x2="434.375" y1="700.6927" y2="700.6927"/><ellipse cx="18.75" cy="820.7479" fill="#84BE84" rx="3.125" ry="3.125" style="stroke:#038048;stroke-width:1.0416666666666667;"/><text fill="#D8BC00" font-family="Open Sans,Avenir,Nunito,Arial,Helvetica,SansSerif" font-size="11.4583" lengthAdjust="spacing" textLength="150" x="30.2083" y="827.6591">StringInputStream rewind()</text><line style="stroke:#5E5E5E;stroke-width:1.0416666666666667;" x1="8.3333" x2="201.5625" y1="803.5838" y2="803.5838"/><text fill="#D8BC00" font-family="Open Sans,Avenir,Nunito,Arial,Helvetica,SansSerif" font-size="11.4583" lengthAdjust="spacing" textLength="33.3333" x="204.6875" y="807.3934">(read)</text><line style="stroke:#5E5E5E;stroke-width:1.0416666666666667;" x1="241.1458" x2="434.375" y1="803.5838" y2="803.5838"/><rect codeLine="102" fill="#282828" height="229.9255" id="StringReader" rx="8.3333" ry="8.3333" style="stroke:#5E5E5E;stroke-width:1.0416666666666667;" width="234.375" x="471.875" y="629.2236"/><rect fill="#1B1B1A" height="31.3883" rx="8.3333" ry="8.3333" style="stroke:#1B1B1A;stroke-width:1.0416666666666667;" width="234.375" x="471.875" y="629.2236"/><rect fill="#1B1B1A" height="8.3333" style="stroke:#1B1B1A;stroke-width:1.0416666666666667;" width="234.375" x="471.875" y="652.2786"/><rect codeLine="102" fill="none" height="229.9255" id="StringReader" rx="8.3333" ry="8.3333" style="stroke:#5E5E5E;stroke-width:1.0416666666666667;" width="234.375" x="471.875" y="629.2236"/><ellipse cx="540.625" cy="644.9178" fill="#0066CF" rx="10.4167" ry="10.4167" style="stroke:#0086EF;stroke-width:1.0416666666666667;"/><path d="M542.5354,649.3429 Q542.1082,649.5626 541.6382,649.6724 Q541.1682,649.7823 540.6494,649.7823 Q538.8062,649.7823 537.8357,648.5677 Q536.8652,647.3531 536.8652,645.0582 Q536.8652,642.7572 537.8357,641.5426 Q538.8062,640.328 540.6494,640.328 Q541.1682,640.328 541.6443,640.4378 Q542.1204,640.5477 542.5354,640.7674 L542.5354,642.7694 Q542.0715,642.3421 541.6351,642.1438 Q541.1987,641.9454 540.7349,641.9454 Q539.7461,641.9454 539.2426,642.7297 Q538.739,643.514 538.739,645.0582 Q538.739,646.5963 539.2426,647.3806 Q539.7461,648.1649 540.7349,648.1649 Q541.1987,648.1649 541.6351,647.9665 Q542.0715,647.7681 542.5354,647.3409 Z " fill="#000000"/><text fill="#D8BC00" font-family="Open Sans,Avenir,Nunito,Arial,Helvetica,SansSerif" font-size="12.5" font-weight="bold" lengthAdjust="spacing" textLength="82.2917" x="563.5417" y="649.6419">StringReader</text><line style="stroke:#5E5E5E;stroke-width:1.5625;" x1="472.9167" x2="705.2083" y1="660.612" y2="660.612"/><ellipse cx="483.3333" cy="695.9819" fill="#84BE84" rx="3.125" ry="3.125" style="stroke:#038048;stroke-width:1.0416666666666667;"/><text fill="#D8BC00" font-family="Open Sans,Avenir,Nunito,Arial,Helvetica,SansSerif" font-size="11.4583" lengthAdjust="spacing" textLength="147.9167" x="494.7917" y="702.8931">StringReader(InputStream)</text><ellipse cx="483.3333" cy="715.7267" fill="#84BE84" rx="3.125" ry="3.125" style="stroke:#038048;stroke-width:1.0416666666666667;"/><text fill="#D8BC00" font-family="Open Sans,Avenir,Nunito,Arial,Helvetica,SansSerif" font-size="11.4583" lengthAdjust="spacing" textLength="197.9167" x="494.7917" y="722.6379">StringReader(InputStream, Charset)</text><ellipse cx="483.3333" cy="735.4716" fill="#84BE84" rx="3.125" ry="3.125" style="stroke:#038048;stroke-width:1.0416666666666667;"/><text fill="#D8BC00" font-family="Open Sans,Avenir,Nunito,Arial,Helvetica,SansSerif" font-size="11.4583" lengthAdjust="spacing" textLength="187.5" x="494.7917" y="742.3828">StringReader(InputStream, String)</text><ellipse cx="483.3333" cy="755.2165" fill="#84BE84" rx="3.125" ry="3.125" style="stroke:#038048;stroke-width:1.0416666666666667;"/><text fill="#D8BC00" font-family="Open Sans,Avenir,Nunito,Arial,Helvetica,SansSerif" font-size="11.4583" lengthAdjust="spacing" textLength="118.75" x="494.7917" y="762.1277">StringReader(Reader)</text><line style="stroke:#5E5E5E;stroke-width:1.0416666666666667;" x1="472.9167" x2="545.3125" y1="678.8177" y2="678.8177"/><text fill="#D8BC00" font-family="Open Sans,Avenir,Nunito,Arial,Helvetica,SansSerif" font-size="11.4583" lengthAdjust="spacing" textLength="81.25" x="548.4375" y="682.6274">(constructors)</text><line style="stroke:#5E5E5E;stroke-width:1.0416666666666667;" x1="632.8125" x2="705.2083" y1="678.8177" y2="678.8177"/><ellipse cx="483.3333" cy="798.8729" fill="#84BE84" rx="3.125" ry="3.125" style="stroke:#038048;stroke-width:1.0416666666666667;"/><text fill="#D8BC00" font-family="Open Sans,Avenir,Nunito,Arial,Helvetica,SansSerif" font-size="11.4583" lengthAdjust="spacing" textLength="64.5833" x="494.7917" y="805.7841">void close()</text><line style="stroke:#5E5E5E;stroke-width:1.0416666666666667;" x1="472.9167" x2="576.5625" y1="781.7088" y2="781.7088"/><text fill="#D8BC00" font-family="Open Sans,Avenir,Nunito,Arial,Helvetica,SansSerif" font-size="11.4583" lengthAdjust="spacing" textLength="18.75" x="579.6875" y="785.5184">(io)</text><line style="stroke:#5E5E5E;stroke-width:1.0416666666666667;" x1="601.5625" x2="705.2083" y1="781.7088" y2="781.7088"/><ellipse cx="483.3333" cy="842.5293" fill="#84BE84" rx="3.125" ry="3.125" style="stroke:#038048;stroke-width:1.0416666666666667;"/><text fill="#D8BC00" font-family="Open Sans,Avenir,Nunito,Arial,Helvetica,SansSerif" font-size="11.4583" lengthAdjust="spacing" textLength="202.0833" x="494.7917" y="849.4405">String readString(ProgressReporter)</text><line style="stroke:#5E5E5E;stroke-width:1.0416666666666667;" x1="472.9167" x2="569.2708" y1="825.3652" y2="825.3652"/><text fill="#D8BC00" font-family="Open Sans,Avenir,Nunito,Arial,Helvetica,SansSerif" font-size="11.4583" lengthAdjust="spacing" textLength="33.3333" x="572.3958" y="829.1748">(read)</text><line style="stroke:#5E5E5E;stroke-width:1.0416666666666667;" x1="608.8542" x2="705.2083" y1="825.3652" y2="825.3652"/><path codeLine="9" d="M1236.1458,348.1507 C1230.4896,433.2965 1218.1042,619.7132 1212.6146,702.4007 " fill="none" id="OutputStream-backto-ByteSizedOutputStream" style="stroke:#545454;stroke-width:1.5625;"/><polygon fill="none" points="1228.875,347.5153,1237.5313,327.2132,1243.4271,348.484,1228.875,347.5153" style="stroke:#545454;stroke-width:1.5625;"/><path codeLine="10" d="M1099.9375,347.3799 C1113.625,396.932 1136.7813,480.682 1156.7708,552.6611 C1171.1146,604.307 1187.6979,663.7965 1198.4792,702.3903 " fill="none" id="ByteSized-backto-ByteSizedOutputStream" style="stroke:#545454;stroke-width:1.5625;"/><polygon fill="none" points="1092.875,349.2028,1094.3542,327.1715,1106.9375,345.3174,1092.875,349.2028" style="stroke:#545454;stroke-width:1.5625;"/><path codeLine="57" d="M893.2292,348.1507 C893.2292,433.2965 893.2292,619.7132 893.2292,702.4007 " fill="none" id="InputStream-backto-LimitedInputStream" style="stroke:#545454;stroke-width:1.5625;"/><polygon fill="none" points="885.9375,348.0465,893.2292,327.2132,900.5208,348.0465,885.9375,348.0465" style="stroke:#545454;stroke-width:1.5625;"/><path codeLine="64" d="M1460.9375,348.109 C1460.9375,409.8695 1460.9375,524.9632 1460.9375,615.0778 " fill="none" id="Reader-backto-LookAheadReader" style="stroke:#545454;stroke-width:1.5625;"/><polygon fill="none" points="1453.6458,348.0465,1460.9375,327.2132,1468.2292,348.0465,1453.6458,348.0465" style="stroke:#545454;stroke-width:1.5625;"/><path codeLine="90" d="M892.75,348.3382 C889.6042,404.5986 875.2292,500.807 816.1458,552.6611 C693.2708,660.5049 607.9167,561.0465 453.6458,615.1611 C426.2708,624.7653 398.2917,637.4007 371.6771,650.9945 " fill="none" id="InputStream-backto-StringInputStream" style="stroke:#545454;stroke-width:1.5625;"/><polygon fill="none" points="885.4792,347.807,893.5104,327.2445,900.0521,348.3278,885.4792,347.807" style="stroke:#545454;stroke-width:1.5625;"/></g></svg>
