<?xml version="1.0" encoding="UTF-8" standalone="no"?><svg xmlns="http://www.w3.org/2000/svg" xmlns:xlink="http://www.w3.org/1999/xlink" contentScriptType="application/ecmascript" contentStyleType="text/css" height="975px" preserveAspectRatio="none" style="width:1401px;height:975px;background:#333333;" version="1.1" viewBox="0 0 1401 975" width="1401.0417px" zoomAndPan="magnify"><defs/><g><rect fill="#48494B" height="41.2028" rx="8.3333" ry="8.3333" style="stroke:#545454;stroke-width:1.0416666666666667;" width="553.125" x="416.6667" y="2.0833"/><text fill="#C0C0C0" font-family="Open Sans,Avenir,Nunito,Arial,Helvetica,SansSerif" font-size="20.8333" lengthAdjust="spacing" textLength="530.2083" x="428.125" y="30.5583">com.telenav.kivakit.core.language.reflection.property</text><rect codeLine="7" fill="#282828" height="48.055" id="Named" rx="8.3333" ry="8.3333" style="stroke:#5E5E5E;stroke-width:1.0416666666666667;" width="82.2917" x="684.8958" y="142.7653"/><rect fill="#1B1B1A" height="31.3883" rx="8.3333" ry="8.3333" style="stroke:#1B1B1A;stroke-width:1.0416666666666667;" width="82.2917" x="684.8958" y="142.7653"/><rect fill="#1B1B1A" height="8.3333" style="stroke:#1B1B1A;stroke-width:1.0416666666666667;" width="82.2917" x="684.8958" y="165.8203"/><rect codeLine="7" fill="none" height="48.055" id="Named" rx="8.3333" ry="8.3333" style="stroke:#5E5E5E;stroke-width:1.0416666666666667;" width="82.2917" x="684.8958" y="142.7653"/><ellipse cx="699.4792" cy="158.4595" fill="#008400" rx="10.4167" ry="10.4167" style="stroke:#239C23;stroke-width:1.0416666666666667;"/><path d="M696.8831,155.6213 L696.8831,154.0344 L702.3092,154.0344 L702.3092,155.6213 L700.4964,155.6213 L700.4964,161.5601 L702.3092,161.5601 L702.3092,163.147 L696.8831,163.147 L696.8831,161.5601 L698.6959,161.5601 L698.6959,155.6213 Z " fill="#000000"/><text fill="#D8BC00" font-family="Open Sans,Avenir,Nunito,Arial,Helvetica,SansSerif" font-size="12.5" font-style="italic" font-weight="bold" lengthAdjust="spacing" textLength="44.7917" x="716.1458" y="163.1836">Named</text><line style="stroke:#5E5E5E;stroke-width:1.0416666666666667;" x1="685.9375" x2="766.1458" y1="174.1536" y2="174.1536"/><line style="stroke:#5E5E5E;stroke-width:1.0416666666666667;" x1="685.9375" x2="766.1458" y1="182.487" y2="182.487"/><rect codeLine="8" fill="#282828" height="48.055" id="Comparable" rx="8.3333" ry="8.3333" style="stroke:#5E5E5E;stroke-width:1.0416666666666667;" width="115.625" x="803.6458" y="142.7653"/><rect fill="#1B1B1A" height="31.3883" rx="8.3333" ry="8.3333" style="stroke:#1B1B1A;stroke-width:1.0416666666666667;" width="115.625" x="803.6458" y="142.7653"/><rect fill="#1B1B1A" height="8.3333" style="stroke:#1B1B1A;stroke-width:1.0416666666666667;" width="115.625" x="803.6458" y="165.8203"/><rect codeLine="8" fill="none" height="48.055" id="Comparable" rx="8.3333" ry="8.3333" style="stroke:#5E5E5E;stroke-width:1.0416666666666667;" width="115.625" x="803.6458" y="142.7653"/><ellipse cx="818.2292" cy="158.4595" fill="#008400" rx="10.4167" ry="10.4167" style="stroke:#239C23;stroke-width:1.0416666666666667;"/><path d="M815.6331,155.6213 L815.6331,154.0344 L821.0592,154.0344 L821.0592,155.6213 L819.2464,155.6213 L819.2464,161.5601 L821.0592,161.5601 L821.0592,163.147 L815.6331,163.147 L815.6331,161.5601 L817.4459,161.5601 L817.4459,155.6213 Z " fill="#000000"/><text fill="#D8BC00" font-family="Open Sans,Avenir,Nunito,Arial,Helvetica,SansSerif" font-size="12.5" font-style="italic" font-weight="bold" lengthAdjust="spacing" textLength="78.125" x="834.8958" y="163.1836">Comparable</text><line style="stroke:#5E5E5E;stroke-width:1.0416666666666667;" x1="804.6875" x2="918.2292" y1="174.1536" y2="174.1536"/><line style="stroke:#5E5E5E;stroke-width:1.0416666666666667;" x1="804.6875" x2="918.2292" y1="182.487" y2="182.487"/><rect codeLine="41" fill="#282828" height="225.7589" id="PropertyFilter" rx="8.3333" ry="8.3333" style="stroke:#5E5E5E;stroke-width:1.0416666666666667;" width="371.875" x="955.7292" y="53.7028"/><rect fill="#1B1B1A" height="31.3883" rx="8.3333" ry="8.3333" style="stroke:#1B1B1A;stroke-width:1.0416666666666667;" width="371.875" x="955.7292" y="53.7028"/><rect fill="#1B1B1A" height="8.3333" style="stroke:#1B1B1A;stroke-width:1.0416666666666667;" width="371.875" x="955.7292" y="76.7578"/><rect codeLine="41" fill="none" height="225.7589" id="PropertyFilter" rx="8.3333" ry="8.3333" style="stroke:#5E5E5E;stroke-width:1.0416666666666667;" width="371.875" x="955.7292" y="53.7028"/><ellipse cx="1090.625" cy="69.397" fill="#008400" rx="10.4167" ry="10.4167" style="stroke:#239C23;stroke-width:1.0416666666666667;"/><path d="M1088.029,66.5588 L1088.029,64.9719 L1093.455,64.9719 L1093.455,66.5588 L1091.6423,66.5588 L1091.6423,72.4976 L1093.455,72.4976 L1093.455,74.0845 L1088.029,74.0845 L1088.029,72.4976 L1089.8417,72.4976 L1089.8417,66.5588 Z " fill="#000000"/><text fill="#D8BC00" font-family="Open Sans,Avenir,Nunito,Arial,Helvetica,SansSerif" font-size="12.5" font-style="italic" font-weight="bold" lengthAdjust="spacing" textLength="87.5" x="1113.5417" y="74.1211">PropertyFilter</text><line style="stroke:#5E5E5E;stroke-width:1.5625;" x1="956.7708" x2="1326.5625" y1="85.0911" y2="85.0911"/><ellipse cx="967.1875" cy="120.461" fill="#84BE84" rx="3.125" ry="3.125" style="stroke:#038048;stroke-width:1.0416666666666667;"/><text fill="#D8BC00" font-family="Open Sans,Avenir,Nunito,Arial,Helvetica,SansSerif" font-size="11.4583" lengthAdjust="spacing" textLength="337.5" x="978.6458" y="127.3722">PropertyFilter beansProperties(PropertyMembers... included)</text><ellipse cx="967.1875" cy="140.2059" fill="#84BE84" rx="3.125" ry="3.125" style="stroke:#038048;stroke-width:1.0416666666666667;"/><text fill="#D8BC00" font-family="Open Sans,Avenir,Nunito,Arial,Helvetica,SansSerif" font-size="11.4583" lengthAdjust="spacing" textLength="187.5" x="978.6458" y="147.1171">boolean includeAsGetter(Method)</text><ellipse cx="967.1875" cy="159.9508" fill="#84BE84" rx="3.125" ry="3.125" style="stroke:#038048;stroke-width:1.0416666666666667;"/><text fill="#D8BC00" font-family="Open Sans,Avenir,Nunito,Arial,Helvetica,SansSerif" font-size="11.4583" lengthAdjust="spacing" textLength="185.4167" x="978.6458" y="166.862">boolean includeAsSetter(Method)</text><ellipse cx="967.1875" cy="179.6956" fill="#84BE84" rx="3.125" ry="3.125" style="stroke:#038048;stroke-width:1.0416666666666667;"/><text fill="#D8BC00" font-family="Open Sans,Avenir,Nunito,Arial,Helvetica,SansSerif" font-size="11.4583" lengthAdjust="spacing" textLength="148.9583" x="978.6458" y="186.6069">boolean includeField(Field)</text><ellipse cx="967.1875" cy="199.4405" fill="#84BE84" rx="3.125" ry="3.125" style="stroke:#038048;stroke-width:1.0416666666666667;"/><text fill="#D8BC00" font-family="Open Sans,Avenir,Nunito,Arial,Helvetica,SansSerif" font-size="11.4583" lengthAdjust="spacing" textLength="339.5833" x="978.6458" y="206.3517">PropertyFilter kivakitProperties(PropertyMembers... included)</text><line style="stroke:#5E5E5E;stroke-width:1.0416666666666667;" x1="956.7708" x2="1112.5" y1="103.2969" y2="103.2969"/><text fill="#D8BC00" font-family="Open Sans,Avenir,Nunito,Arial,Helvetica,SansSerif" font-size="11.4583" lengthAdjust="spacing" textLength="52.0833" x="1115.625" y="107.1065">(filtering)</text><line style="stroke:#5E5E5E;stroke-width:1.0416666666666667;" x1="1170.8333" x2="1326.5625" y1="103.2969" y2="103.2969"/><ellipse cx="967.1875" cy="243.0969" fill="#84BE84" rx="3.125" ry="3.125" style="stroke:#038048;stroke-width:1.0416666666666667;"/><text fill="#D8BC00" font-family="Open Sans,Avenir,Nunito,Arial,Helvetica,SansSerif" font-size="11.4583" lengthAdjust="spacing" textLength="145.8333" x="978.6458" y="250.0081">String nameForField(Field)</text><ellipse cx="967.1875" cy="262.8418" fill="#84BE84" rx="3.125" ry="3.125" style="stroke:#038048;stroke-width:1.0416666666666667;"/><text fill="#D8BC00" font-family="Open Sans,Avenir,Nunito,Arial,Helvetica,SansSerif" font-size="11.4583" lengthAdjust="spacing" textLength="177.0833" x="978.6458" y="269.753">String nameForMethod(Method)</text><line style="stroke:#5E5E5E;stroke-width:1.0416666666666667;" x1="956.7708" x2="1113.5417" y1="225.9328" y2="225.9328"/><text fill="#D8BC00" font-family="Open Sans,Avenir,Nunito,Arial,Helvetica,SansSerif" font-size="11.4583" lengthAdjust="spacing" textLength="50" x="1116.6667" y="229.7424">(naming)</text><line style="stroke:#5E5E5E;stroke-width:1.0416666666666667;" x1="1169.7917" x2="1326.5625" y1="225.9328" y2="225.9328"/><rect codeLine="11" fill="#282828" height="48.055" id="KivaKitExcludeProperty" rx="8.3333" ry="8.3333" style="stroke:#5E5E5E;stroke-width:1.0416666666666667;" width="187.5" x="7.2917" y="142.7653"/><rect fill="#1B1B1A" height="31.3883" rx="8.3333" ry="8.3333" style="stroke:#1B1B1A;stroke-width:1.0416666666666667;" width="187.5" x="7.2917" y="142.7653"/><rect fill="#1B1B1A" height="8.3333" style="stroke:#1B1B1A;stroke-width:1.0416666666666667;" width="187.5" x="7.2917" y="165.8203"/><rect codeLine="11" fill="none" height="48.055" id="KivaKitExcludeProperty" rx="8.3333" ry="8.3333" style="stroke:#5E5E5E;stroke-width:1.0416666666666667;" width="187.5" x="7.2917" y="142.7653"/><ellipse cx="21.875" cy="158.4595" fill="#3380B9" rx="10.4167" ry="10.4167" style="stroke:#004D86;stroke-width:1.0416666666666667;"/><path d="M23.6471,158.5185 Q23.6471,157.8288 23.3358,157.4382 Q23.0245,157.0475 22.4813,157.0475 Q21.9381,157.0475 21.6298,157.4382 Q21.3216,157.8288 21.3216,158.5185 Q21.3216,159.2143 21.6298,159.6049 Q21.9381,159.9955 22.4813,159.9955 Q23.0245,159.9955 23.3358,159.6049 Q23.6471,159.2143 23.6471,158.5185 Z M24.7823,161.0209 L23.586,161.0209 L23.586,160.5204 Q23.3541,160.8439 23.0398,160.9934 Q22.7254,161.143 22.286,161.143 Q21.285,161.143 20.6716,160.4228 Q20.0582,159.7026 20.0582,158.5185 Q20.0582,157.3405 20.6685,156.6233 Q21.2789,155.9062 22.286,155.9062 Q22.7193,155.9062 23.0489,156.0557 Q23.3785,156.2052 23.586,156.4921 L23.586,156.2419 Q23.586,155.4118 23.1313,154.9601 Q22.6766,154.5085 21.8343,154.5085 Q20.5648,154.5085 19.7622,155.6254 Q18.9596,156.7424 18.9596,158.5307 Q18.9596,160.4045 19.8873,161.5122 Q20.815,162.62 22.3592,162.62 Q22.8475,162.62 23.3053,162.4766 Q23.763,162.3332 24.1842,162.0463 L24.7457,163.1205 Q24.2513,163.4562 23.6684,163.6241 Q23.0855,163.7919 22.4202,163.7919 Q20.284,163.7919 19.0145,162.3698 Q17.745,160.9477 17.745,158.5307 Q17.745,156.1686 18.8863,154.7496 Q20.0277,153.3305 21.9076,153.3305 Q23.2381,153.3305 24.0102,154.1331 Q24.7823,154.9357 24.7823,156.3212 Z " fill="#000000"/><text fill="#D8BC00" font-family="Open Sans,Avenir,Nunito,Arial,Helvetica,SansSerif" font-size="12.5" font-weight="bold" lengthAdjust="spacing" textLength="150" x="38.5417" y="163.1836">KivaKitExcludeProperty</text><line style="stroke:#5E5E5E;stroke-width:1.0416666666666667;" x1="8.3333" x2="193.75" y1="174.1536" y2="174.1536"/><line style="stroke:#5E5E5E;stroke-width:1.0416666666666667;" x1="8.3333" x2="193.75" y1="182.487" y2="182.487"/><rect codeLine="13" fill="#282828" height="48.055" id="KivaKitIncludeProperty" rx="8.3333" ry="8.3333" style="stroke:#5E5E5E;stroke-width:1.0416666666666667;" width="185.4167" x="231.25" y="142.7653"/><rect fill="#1B1B1A" height="31.3883" rx="8.3333" ry="8.3333" style="stroke:#1B1B1A;stroke-width:1.0416666666666667;" width="185.4167" x="231.25" y="142.7653"/><rect fill="#1B1B1A" height="8.3333" style="stroke:#1B1B1A;stroke-width:1.0416666666666667;" width="185.4167" x="231.25" y="165.8203"/><rect codeLine="13" fill="none" height="48.055" id="KivaKitIncludeProperty" rx="8.3333" ry="8.3333" style="stroke:#5E5E5E;stroke-width:1.0416666666666667;" width="185.4167" x="231.25" y="142.7653"/><ellipse cx="245.8333" cy="158.4595" fill="#3380B9" rx="10.4167" ry="10.4167" style="stroke:#004D86;stroke-width:1.0416666666666667;"/><path d="M247.6054,158.5185 Q247.6054,157.8288 247.2941,157.4382 Q246.9828,157.0475 246.4396,157.0475 Q245.8964,157.0475 245.5882,157.4382 Q245.2799,157.8288 245.2799,158.5185 Q245.2799,159.2143 245.5882,159.6049 Q245.8964,159.9955 246.4396,159.9955 Q246.9828,159.9955 247.2941,159.6049 Q247.6054,159.2143 247.6054,158.5185 Z M248.7406,161.0209 L247.5444,161.0209 L247.5444,160.5204 Q247.3124,160.8439 246.9981,160.9934 Q246.6838,161.143 246.2443,161.143 Q245.2433,161.143 244.6299,160.4228 Q244.0165,159.7026 244.0165,158.5185 Q244.0165,157.3405 244.6269,156.6233 Q245.2372,155.9062 246.2443,155.9062 Q246.6777,155.9062 247.0072,156.0557 Q247.3368,156.2052 247.5444,156.4921 L247.5444,156.2419 Q247.5444,155.4118 247.0896,154.9601 Q246.6349,154.5085 245.7926,154.5085 Q244.5231,154.5085 243.7205,155.6254 Q242.9179,156.7424 242.9179,158.5307 Q242.9179,160.4045 243.8456,161.5122 Q244.7734,162.62 246.3175,162.62 Q246.8058,162.62 247.2636,162.4766 Q247.7214,162.3332 248.1425,162.0463 L248.704,163.1205 Q248.2096,163.4562 247.6267,163.6241 Q247.0439,163.7919 246.3786,163.7919 Q244.2424,163.7919 242.9728,162.3698 Q241.7033,160.9477 241.7033,158.5307 Q241.7033,156.1686 242.8446,154.7496 Q243.986,153.3305 245.8659,153.3305 Q247.1965,153.3305 247.9685,154.1331 Q248.7406,154.9357 248.7406,156.3212 Z " fill="#000000"/><text fill="#D8BC00" font-family="Open Sans,Avenir,Nunito,Arial,Helvetica,SansSerif" font-size="12.5" font-weight="bold" lengthAdjust="spacing" textLength="147.9167" x="262.5" y="163.1836">KivaKitIncludeProperty</text><line style="stroke:#5E5E5E;stroke-width:1.0416666666666667;" x1="232.2917" x2="415.625" y1="174.1536" y2="174.1536"/><line style="stroke:#5E5E5E;stroke-width:1.0416666666666667;" x1="232.2917" x2="415.625" y1="182.487" y2="182.487"/><rect codeLine="15" fill="#282828" height="48.055" id="KivaKitOptionalProperty" rx="8.3333" ry="8.3333" style="stroke:#5E5E5E;stroke-width:1.0416666666666667;" width="194.7917" x="453.6458" y="142.7653"/><rect fill="#1B1B1A" height="31.3883" rx="8.3333" ry="8.3333" style="stroke:#1B1B1A;stroke-width:1.0416666666666667;" width="194.7917" x="453.6458" y="142.7653"/><rect fill="#1B1B1A" height="8.3333" style="stroke:#1B1B1A;stroke-width:1.0416666666666667;" width="194.7917" x="453.6458" y="165.8203"/><rect codeLine="15" fill="none" height="48.055" id="KivaKitOptionalProperty" rx="8.3333" ry="8.3333" style="stroke:#5E5E5E;stroke-width:1.0416666666666667;" width="194.7917" x="453.6458" y="142.7653"/><ellipse cx="468.2292" cy="158.4595" fill="#3380B9" rx="10.4167" ry="10.4167" style="stroke:#004D86;stroke-width:1.0416666666666667;"/><path d="M470.0012,158.5185 Q470.0012,157.8288 469.6899,157.4382 Q469.3787,157.0475 468.8354,157.0475 Q468.2922,157.0475 467.984,157.4382 Q467.6758,157.8288 467.6758,158.5185 Q467.6758,159.2143 467.984,159.6049 Q468.2922,159.9955 468.8354,159.9955 Q469.3787,159.9955 469.6899,159.6049 Q470.0012,159.2143 470.0012,158.5185 Z M471.1365,161.0209 L469.9402,161.0209 L469.9402,160.5204 Q469.7083,160.8439 469.3939,160.9934 Q469.0796,161.143 468.6401,161.143 Q467.6392,161.143 467.0258,160.4228 Q466.4124,159.7026 466.4124,158.5185 Q466.4124,157.3405 467.0227,156.6233 Q467.6331,155.9062 468.6401,155.9062 Q469.0735,155.9062 469.4031,156.0557 Q469.7327,156.2052 469.9402,156.4921 L469.9402,156.2419 Q469.9402,155.4118 469.4855,154.9601 Q469.0308,154.5085 468.1885,154.5085 Q466.9189,154.5085 466.1163,155.6254 Q465.3137,156.7424 465.3137,158.5307 Q465.3137,160.4045 466.2415,161.5122 Q467.1692,162.62 468.7134,162.62 Q469.2017,162.62 469.6594,162.4766 Q470.1172,162.3332 470.5383,162.0463 L471.0999,163.1205 Q470.6055,163.4562 470.0226,163.6241 Q469.4397,163.7919 468.7744,163.7919 Q466.6382,163.7919 465.3687,162.3698 Q464.0991,160.9477 464.0991,158.5307 Q464.0991,156.1686 465.2405,154.7496 Q466.3818,153.3305 468.2617,153.3305 Q469.5923,153.3305 470.3644,154.1331 Q471.1365,154.9357 471.1365,156.3212 Z " fill="#000000"/><text fill="#D8BC00" font-family="Open Sans,Avenir,Nunito,Arial,Helvetica,SansSerif" font-size="12.5" font-weight="bold" lengthAdjust="spacing" textLength="157.2917" x="484.8958" y="163.1836">KivaKitOptionalProperty</text><line style="stroke:#5E5E5E;stroke-width:1.0416666666666667;" x1="454.6875" x2="647.3958" y1="174.1536" y2="174.1536"/><line style="stroke:#5E5E5E;stroke-width:1.0416666666666667;" x1="454.6875" x2="647.3958" y1="182.487" y2="182.487"/><rect codeLine="19" fill="#282828" height="396.2179" id="Property" rx="8.3333" ry="8.3333" style="stroke:#5E5E5E;stroke-width:1.0416666666666667;" width="268.75" x="603.125" y="342.2445"/><rect fill="#1B1B1A" height="31.3883" rx="8.3333" ry="8.3333" style="stroke:#1B1B1A;stroke-width:1.0416666666666667;" width="268.75" x="603.125" y="342.2445"/><rect fill="#1B1B1A" height="8.3333" style="stroke:#1B1B1A;stroke-width:1.0416666666666667;" width="268.75" x="603.125" y="365.2995"/><rect codeLine="19" fill="none" height="396.2179" id="Property" rx="8.3333" ry="8.3333" style="stroke:#5E5E5E;stroke-width:1.0416666666666667;" width="268.75" x="603.125" y="342.2445"/><ellipse cx="703.125" cy="357.9386" fill="#0066CF" rx="10.4167" ry="10.4167" style="stroke:#0086EF;stroke-width:1.0416666666666667;"/><path d="M705.0354,362.3637 Q704.6082,362.5834 704.1382,362.6933 Q703.6682,362.8031 703.1494,362.8031 Q701.3062,362.8031 700.3357,361.5885 Q699.3652,360.3739 699.3652,358.079 Q699.3652,355.778 700.3357,354.5634 Q701.3062,353.3488 703.1494,353.3488 Q703.6682,353.3488 704.1443,353.4587 Q704.6204,353.5685 705.0354,353.7882 L705.0354,355.7902 Q704.5715,355.363 704.1351,355.1646 Q703.6987,354.9662 703.2349,354.9662 Q702.2461,354.9662 701.7426,355.7505 Q701.239,356.5348 701.239,358.079 Q701.239,359.6171 701.7426,360.4014 Q702.2461,361.1857 703.2349,361.1857 Q703.6987,361.1857 704.1351,360.9873 Q704.5715,360.789 705.0354,360.3617 Z " fill="#000000"/><text fill="#D8BC00" font-family="Open Sans,Avenir,Nunito,Arial,Helvetica,SansSerif" font-size="12.5" font-weight="bold" lengthAdjust="spacing" textLength="54.1667" x="726.0417" y="362.6628">Property</text><line style="stroke:#5E5E5E;stroke-width:1.5625;" x1="604.1667" x2="870.8333" y1="373.6328" y2="373.6328"/><ellipse cx="614.5833" cy="409.0027" fill="#84BE84" rx="3.125" ry="3.125" style="stroke:#038048;stroke-width:1.0416666666666667;"/><text fill="#D8BC00" font-family="Open Sans,Avenir,Nunito,Arial,Helvetica,SansSerif" font-size="11.4583" lengthAdjust="spacing" textLength="168.75" x="626.0417" y="415.9139">Property(String, Getter, Setter)</text><line style="stroke:#5E5E5E;stroke-width:1.0416666666666667;" x1="604.1667" x2="693.75" y1="391.8386" y2="391.8386"/><text fill="#D8BC00" font-family="Open Sans,Avenir,Nunito,Arial,Helvetica,SansSerif" font-size="11.4583" lengthAdjust="spacing" textLength="81.25" x="696.875" y="395.6482">(constructors)</text><line style="stroke:#5E5E5E;stroke-width:1.0416666666666667;" x1="781.25" x2="870.8333" y1="391.8386" y2="391.8386"/><line style="stroke:#5E5E5E;stroke-width:1.0416666666666667;" x1="604.1667" x2="870.8333" y1="425.6226" y2="425.6226"/><ellipse cx="614.5833" cy="437.0809" fill="#84BE84" rx="3.125" ry="3.125" style="stroke:#038048;stroke-width:1.0416666666666667;"/><text fill="#D8BC00" font-family="Open Sans,Avenir,Nunito,Arial,Helvetica,SansSerif" font-size="11.4583" lengthAdjust="spacing" textLength="61.4583" x="626.0417" y="443.9921">Field field()</text><ellipse cx="614.5833" cy="456.8258" fill="#84BE84" rx="3.125" ry="3.125" style="stroke:#038048;stroke-width:1.0416666666666667;"/><text fill="#D8BC00" font-family="Open Sans,Avenir,Nunito,Arial,Helvetica,SansSerif" font-size="11.4583" lengthAdjust="spacing" textLength="102.0833" x="626.0417" y="463.737">Object get(Object)</text><ellipse cx="614.5833" cy="476.5706" fill="#84BE84" rx="3.125" ry="3.125" style="stroke:#038048;stroke-width:1.0416666666666667;"/><text fill="#D8BC00" font-family="Open Sans,Avenir,Nunito,Arial,Helvetica,SansSerif" font-size="11.4583" lengthAdjust="spacing" textLength="103.125" x="626.0417" y="483.4819">void getter(Getter)</text><ellipse cx="614.5833" cy="496.3155" fill="#84BE84" rx="3.125" ry="3.125" style="stroke:#038048;stroke-width:1.0416666666666667;"/><text fill="#D8BC00" font-family="Open Sans,Avenir,Nunito,Arial,Helvetica,SansSerif" font-size="11.4583" lengthAdjust="spacing" textLength="79.1667" x="626.0417" y="503.2267">Getter getter()</text><ellipse cx="614.5833" cy="516.0604" fill="#84BE84" rx="3.125" ry="3.125" style="stroke:#038048;stroke-width:1.0416666666666667;"/><text fill="#D8BC00" font-family="Open Sans,Avenir,Nunito,Arial,Helvetica,SansSerif" font-size="11.4583" lengthAdjust="spacing" textLength="102.0833" x="626.0417" y="522.9716">Member member()</text><ellipse cx="614.5833" cy="535.8053" fill="#84BE84" rx="3.125" ry="3.125" style="stroke:#038048;stroke-width:1.0416666666666667;"/><text fill="#D8BC00" font-family="Open Sans,Avenir,Nunito,Arial,Helvetica,SansSerif" font-size="11.4583" lengthAdjust="spacing" textLength="95.8333" x="626.0417" y="542.7165">Method method()</text><ellipse cx="614.5833" cy="555.5501" fill="#84BE84" rx="3.125" ry="3.125" style="stroke:#038048;stroke-width:1.0416666666666667;"/><text fill="#D8BC00" font-family="Open Sans,Avenir,Nunito,Arial,Helvetica,SansSerif" font-size="11.4583" lengthAdjust="spacing" textLength="100" x="626.0417" y="562.4613">void setter(Setter)</text><ellipse cx="614.5833" cy="575.295" fill="#84BE84" rx="3.125" ry="3.125" style="stroke:#038048;stroke-width:1.0416666666666667;"/><text fill="#D8BC00" font-family="Open Sans,Avenir,Nunito,Arial,Helvetica,SansSerif" font-size="11.4583" lengthAdjust="spacing" textLength="76.0417" x="626.0417" y="582.2062">Setter setter()</text><ellipse cx="614.5833" cy="595.0399" fill="#84BE84" rx="3.125" ry="3.125" style="stroke:#038048;stroke-width:1.0416666666666667;"/><text fill="#D8BC00" font-family="Open Sans,Avenir,Nunito,Arial,Helvetica,SansSerif" font-size="11.4583" lengthAdjust="spacing" textLength="86.4583" x="626.0417" y="601.9511">Type&lt;?&gt; type()</text><ellipse cx="614.5833" cy="638.6963" fill="#84BE84" rx="3.125" ry="3.125" style="stroke:#038048;stroke-width:1.0416666666666667;"/><text fill="#D8BC00" font-family="Open Sans,Avenir,Nunito,Arial,Helvetica,SansSerif" font-size="11.4583" lengthAdjust="spacing" textLength="123.9583" x="626.0417" y="645.6075">boolean isNull(Object)</text><ellipse cx="614.5833" cy="658.4412" fill="#84BE84" rx="3.125" ry="3.125" style="stroke:#038048;stroke-width:1.0416666666666667;"/><text fill="#D8BC00" font-family="Open Sans,Avenir,Nunito,Arial,Helvetica,SansSerif" font-size="11.4583" lengthAdjust="spacing" textLength="113.5417" x="626.0417" y="665.3524">boolean isOptional()</text><line style="stroke:#5E5E5E;stroke-width:1.0416666666666667;" x1="604.1667" x2="710.9375" y1="621.5322" y2="621.5322"/><text fill="#D8BC00" font-family="Open Sans,Avenir,Nunito,Arial,Helvetica,SansSerif" font-size="11.4583" lengthAdjust="spacing" textLength="46.875" x="714.0625" y="625.3418">(checks)</text><line style="stroke:#5E5E5E;stroke-width:1.0416666666666667;" x1="764.0625" x2="870.8333" y1="621.5322" y2="621.5322"/><ellipse cx="614.5833" cy="702.0976" fill="#84BE84" rx="3.125" ry="3.125" style="stroke:#038048;stroke-width:1.0416666666666667;"/><text fill="#D8BC00" font-family="Open Sans,Avenir,Nunito,Arial,Helvetica,SansSerif" font-size="11.4583" lengthAdjust="spacing" textLength="176.0417" x="626.0417" y="709.0088">ReflectionProblem clear(Object)</text><ellipse cx="614.5833" cy="721.8424" fill="#84BE84" rx="3.125" ry="3.125" style="stroke:#038048;stroke-width:1.0416666666666667;"/><text fill="#D8BC00" font-family="Open Sans,Avenir,Nunito,Arial,Helvetica,SansSerif" font-size="11.4583" lengthAdjust="spacing" textLength="236.4583" x="626.0417" y="728.7537">ReflectionProblem set(Object, Source&lt;T&gt;)</text><line style="stroke:#5E5E5E;stroke-width:1.0416666666666667;" x1="604.1667" x2="700" y1="684.9335" y2="684.9335"/><text fill="#D8BC00" font-family="Open Sans,Avenir,Nunito,Arial,Helvetica,SansSerif" font-size="11.4583" lengthAdjust="spacing" textLength="68.75" x="703.125" y="688.7431">(messaging)</text><line style="stroke:#5E5E5E;stroke-width:1.0416666666666667;" x1="775" x2="870.8333" y1="684.9335" y2="684.9335"/><rect codeLine="57" fill="#282828" height="308.905" id="PropertyFilterSet" rx="8.3333" ry="8.3333" style="stroke:#5E5E5E;stroke-width:1.0416666666666667;" width="393.75" x="944.7917" y="385.9945"/><rect fill="#1B1B1A" height="31.3883" rx="8.3333" ry="8.3333" style="stroke:#1B1B1A;stroke-width:1.0416666666666667;" width="393.75" x="944.7917" y="385.9945"/><rect fill="#1B1B1A" height="8.3333" style="stroke:#1B1B1A;stroke-width:1.0416666666666667;" width="393.75" x="944.7917" y="409.0495"/><rect codeLine="57" fill="none" height="308.905" id="PropertyFilterSet" rx="8.3333" ry="8.3333" style="stroke:#5E5E5E;stroke-width:1.0416666666666667;" width="393.75" x="944.7917" y="385.9945"/><ellipse cx="1080.7292" cy="401.6886" fill="#0066CF" rx="10.4167" ry="10.4167" style="stroke:#0086EF;stroke-width:1.0416666666666667;"/><path d="M1082.6396,406.1137 Q1082.2123,406.3334 1081.7424,406.4433 Q1081.2724,406.5531 1080.7536,406.5531 Q1078.9103,406.5531 1077.9399,405.3385 Q1076.9694,404.1239 1076.9694,401.829 Q1076.9694,399.528 1077.9399,398.3134 Q1078.9103,397.0988 1080.7536,397.0988 Q1081.2724,397.0988 1081.7485,397.2087 Q1082.2245,397.3185 1082.6396,397.5382 L1082.6396,399.5402 Q1082.1757,399.113 1081.7393,398.9146 Q1081.3029,398.7162 1080.839,398.7162 Q1079.8503,398.7162 1079.3467,399.5005 Q1078.8432,400.2848 1078.8432,401.829 Q1078.8432,403.3671 1079.3467,404.1514 Q1079.8503,404.9357 1080.839,404.9357 Q1081.3029,404.9357 1081.7393,404.7373 Q1082.1757,404.539 1082.6396,404.1117 Z " fill="#000000"/><text fill="#D8BC00" font-family="Open Sans,Avenir,Nunito,Arial,Helvetica,SansSerif" font-size="12.5" font-weight="bold" lengthAdjust="spacing" textLength="107.2917" x="1103.6458" y="406.4128">PropertyFilterSet</text><line style="stroke:#5E5E5E;stroke-width:1.5625;" x1="945.8333" x2="1337.5" y1="417.3828" y2="417.3828"/><ellipse cx="956.25" cy="452.7527" fill="#84BE84" rx="3.125" ry="3.125" style="stroke:#038048;stroke-width:1.0416666666666667;"/><text fill="#D8BC00" font-family="Open Sans,Avenir,Nunito,Arial,Helvetica,SansSerif" font-size="11.4583" lengthAdjust="spacing" textLength="361.4583" x="967.7083" y="459.6639">PropertyFilterSet(PropertyNamingConvention, PropertyMembers)</text><line style="stroke:#5E5E5E;stroke-width:1.0416666666666667;" x1="945.8333" x2="1097.9167" y1="435.5886" y2="435.5886"/><text fill="#D8BC00" font-family="Open Sans,Avenir,Nunito,Arial,Helvetica,SansSerif" font-size="11.4583" lengthAdjust="spacing" textLength="81.25" x="1101.0417" y="439.3982">(constructors)</text><line style="stroke:#5E5E5E;stroke-width:1.0416666666666667;" x1="1185.4167" x2="1337.5" y1="435.5886" y2="435.5886"/><polygon fill="#FFFF44" points="956.25,491.2008,960.4167,495.3674,956.25,499.5341,952.0833,495.3674" style="stroke:#B38D22;stroke-width:1.0416666666666667;"/><text fill="#D8BC00" font-family="Open Sans,Avenir,Nunito,Arial,Helvetica,SansSerif" font-size="11.4583" lengthAdjust="spacing" textLength="141.6667" x="967.7083" y="503.3203">boolean isGetter(Method)</text><polygon fill="#FFFF44" points="956.25,510.9456,960.4167,515.1123,956.25,519.279,952.0833,515.1123" style="stroke:#B38D22;stroke-width:1.0416666666666667;"/><text fill="#D8BC00" font-family="Open Sans,Avenir,Nunito,Arial,Helvetica,SansSerif" font-size="11.4583" lengthAdjust="spacing" textLength="139.5833" x="967.7083" y="523.0652">boolean isIncluded(Field)</text><polygon fill="#FFFF44" points="956.25,530.6905,960.4167,534.8572,956.25,539.0238,952.0833,534.8572" style="stroke:#B38D22;stroke-width:1.0416666666666667;"/><text fill="#D8BC00" font-family="Open Sans,Avenir,Nunito,Arial,Helvetica,SansSerif" font-size="11.4583" lengthAdjust="spacing" textLength="155.2083" x="967.7083" y="542.8101">boolean isIncluded(Method)</text><polygon fill="#FFFF44" points="956.25,550.4354,960.4167,554.6021,956.25,558.7687,952.0833,554.6021" style="stroke:#B38D22;stroke-width:1.0416666666666667;"/><text fill="#D8BC00" font-family="Open Sans,Avenir,Nunito,Arial,Helvetica,SansSerif" font-size="11.4583" lengthAdjust="spacing" textLength="195.8333" x="967.7083" y="562.5549">boolean isKivaKitExcluded(Method)</text><polygon fill="#FFFF44" points="956.25,570.1803,960.4167,574.3469,956.25,578.5136,952.0833,574.3469" style="stroke:#B38D22;stroke-width:1.0416666666666667;"/><text fill="#D8BC00" font-family="Open Sans,Avenir,Nunito,Arial,Helvetica,SansSerif" font-size="11.4583" lengthAdjust="spacing" textLength="180.2083" x="967.7083" y="582.2998">boolean isKivaKitExcluded(Field)</text><polygon fill="#FFFF44" points="956.25,589.9251,960.4167,594.0918,956.25,598.2585,952.0833,594.0918" style="stroke:#B38D22;stroke-width:1.0416666666666667;"/><text fill="#D8BC00" font-family="Open Sans,Avenir,Nunito,Arial,Helvetica,SansSerif" font-size="11.4583" lengthAdjust="spacing" textLength="177.0833" x="967.7083" y="602.0447">boolean isKivaKitIncluded(Field)</text><polygon fill="#FFFF44" points="956.25,609.67,960.4167,613.8367,956.25,618.0033,952.0833,613.8367" style="stroke:#B38D22;stroke-width:1.0416666666666667;"/><text fill="#D8BC00" font-family="Open Sans,Avenir,Nunito,Arial,Helvetica,SansSerif" font-size="11.4583" lengthAdjust="spacing" textLength="192.7083" x="967.7083" y="621.7896">boolean isKivaKitIncluded(Method)</text><polygon fill="#FFFF44" points="956.25,629.4149,960.4167,633.5815,956.25,637.7482,952.0833,633.5815" style="stroke:#B38D22;stroke-width:1.0416666666666667;"/><text fill="#D8BC00" font-family="Open Sans,Avenir,Nunito,Arial,Helvetica,SansSerif" font-size="11.4583" lengthAdjust="spacing" textLength="139.5833" x="967.7083" y="641.5344">boolean isSetter(Method)</text><line style="stroke:#5E5E5E;stroke-width:1.0416666666666667;" x1="945.8333" x2="1115.1042" y1="479.245" y2="479.245"/><text fill="#D8BC00" font-family="Open Sans,Avenir,Nunito,Arial,Helvetica,SansSerif" font-size="11.4583" lengthAdjust="spacing" textLength="46.875" x="1118.2292" y="483.0546">(checks)</text><line style="stroke:#5E5E5E;stroke-width:1.0416666666666667;" x1="1168.2292" x2="1337.5" y1="479.245" y2="479.245"/><ellipse cx="956.25" cy="678.2796" fill="#84BE84" rx="3.125" ry="3.125" style="stroke:#038048;stroke-width:1.0416666666666667;"/><text fill="#D8BC00" font-family="Open Sans,Avenir,Nunito,Arial,Helvetica,SansSerif" font-size="11.4583" lengthAdjust="spacing" textLength="193.75" x="967.7083" y="685.1908">Set&lt;PropertyMembers&gt; included()</text><line style="stroke:#5E5E5E;stroke-width:1.0416666666666667;" x1="945.8333" x2="1112.5" y1="661.1155" y2="661.1155"/><text fill="#D8BC00" font-family="Open Sans,Avenir,Nunito,Arial,Helvetica,SansSerif" font-size="11.4583" lengthAdjust="spacing" textLength="52.0833" x="1115.625" y="664.9251">(filtering)</text><line style="stroke:#5E5E5E;stroke-width:1.0416666666666667;" x1="1170.8333" x2="1337.5" y1="661.1155" y2="661.1155"/><rect codeLine="83" fill="#282828" height="87.5448" id="PropertyNamingConvention" rx="8.3333" ry="8.3333" style="stroke:#5E5E5E;stroke-width:1.0416666666666667;" width="216.6667" x="892.7083" y="850.5778"/><rect fill="#1B1B1A" height="31.3883" rx="8.3333" ry="8.3333" style="stroke:#1B1B1A;stroke-width:1.0416666666666667;" width="216.6667" x="892.7083" y="850.5778"/><rect fill="#1B1B1A" height="8.3333" style="stroke:#1B1B1A;stroke-width:1.0416666666666667;" width="216.6667" x="892.7083" y="873.6328"/><rect codeLine="83" fill="none" height="87.5448" id="PropertyNamingConvention" rx="8.3333" ry="8.3333" style="stroke:#5E5E5E;stroke-width:1.0416666666666667;" width="216.6667" x="892.7083" y="850.5778"/><ellipse cx="907.2917" cy="866.272" fill="#CF6300" rx="10.4167" ry="10.4167" style="stroke:#EF8300;stroke-width:1.0416666666666667;"/><path d="M910.3475,870.9595 L904.6712,870.9595 L904.6712,861.8469 L910.3475,861.8469 L910.3475,863.4338 L906.4718,863.4338 L906.4718,865.3992 L909.9813,865.3992 L909.9813,866.9861 L906.4718,866.9861 L906.4718,869.3726 L910.3475,869.3726 Z " fill="#000000"/><text fill="#D8BC00" font-family="Open Sans,Avenir,Nunito,Arial,Helvetica,SansSerif" font-size="12.5" font-weight="bold" lengthAdjust="spacing" textLength="179.1667" x="923.9583" y="870.9961">PropertyNamingConvention</text><line style="stroke:#5E5E5E;stroke-width:1.0416666666666667;" x1="893.75" x2="1108.3333" y1="881.9661" y2="881.9661"/><text fill="#D8BC00" font-family="Open Sans,Avenir,Nunito,Arial,Helvetica,SansSerif" font-size="11.4583" lengthAdjust="spacing" textLength="68.75" x="902.0833" y="900.3357">JAVA_BEANS</text><text fill="#D8BC00" font-family="Open Sans,Avenir,Nunito,Arial,Helvetica,SansSerif" font-size="11.4583" lengthAdjust="spacing" textLength="43.75" x="902.0833" y="920.0806">KIVAKIT</text><line style="stroke:#5E5E5E;stroke-width:1.0416666666666667;" x1="893.75" x2="1108.3333" y1="929.7892" y2="929.7892"/><rect codeLine="74" fill="#282828" height="146.7794" id="PropertyMembers" rx="8.3333" ry="8.3333" style="stroke:#5E5E5E;stroke-width:1.0416666666666667;" width="222.9167" x="1170.8333" y="821.4111"/><rect fill="#1B1B1A" height="31.3883" rx="8.3333" ry="8.3333" style="stroke:#1B1B1A;stroke-width:1.0416666666666667;" width="222.9167" x="1170.8333" y="821.4111"/><rect fill="#1B1B1A" height="8.3333" style="stroke:#1B1B1A;stroke-width:1.0416666666666667;" width="222.9167" x="1170.8333" y="844.4661"/><rect codeLine="74" fill="none" height="146.7794" id="PropertyMembers" rx="8.3333" ry="8.3333" style="stroke:#5E5E5E;stroke-width:1.0416666666666667;" width="222.9167" x="1170.8333" y="821.4111"/><ellipse cx="1218.2292" cy="837.1053" fill="#CF6300" rx="10.4167" ry="10.4167" style="stroke:#EF8300;stroke-width:1.0416666666666667;"/><path d="M1221.285,841.7928 L1215.6087,841.7928 L1215.6087,832.6803 L1221.285,832.6803 L1221.285,834.2672 L1217.4093,834.2672 L1217.4093,836.2325 L1220.9188,836.2325 L1220.9188,837.8194 L1217.4093,837.8194 L1217.4093,840.2059 L1221.285,840.2059 Z " fill="#000000"/><text fill="#D8BC00" font-family="Open Sans,Avenir,Nunito,Arial,Helvetica,SansSerif" font-size="12.5" font-weight="bold" lengthAdjust="spacing" textLength="113.5417" x="1241.1458" y="841.8294">PropertyMembers</text><line style="stroke:#5E5E5E;stroke-width:1.0416666666666667;" x1="1171.875" x2="1392.7083" y1="852.7995" y2="852.7995"/><text fill="#D8BC00" font-family="Open Sans,Avenir,Nunito,Arial,Helvetica,SansSerif" font-size="11.4583" lengthAdjust="spacing" textLength="204.1667" x="1180.2083" y="871.169">CONVERTED_FIELDS_AND_METHODS</text><text fill="#D8BC00" font-family="Open Sans,Avenir,Nunito,Arial,Helvetica,SansSerif" font-size="11.4583" lengthAdjust="spacing" textLength="100" x="1180.2083" y="890.9139">INCLUDED_FIELDS</text><text fill="#D8BC00" font-family="Open Sans,Avenir,Nunito,Arial,Helvetica,SansSerif" font-size="11.4583" lengthAdjust="spacing" textLength="192.7083" x="1180.2083" y="910.6588">INCLUDED_FIELDS_AND_METHODS</text><text fill="#D8BC00" font-family="Open Sans,Avenir,Nunito,Arial,Helvetica,SansSerif" font-size="11.4583" lengthAdjust="spacing" textLength="132.2917" x="1180.2083" y="930.4036">NON_PUBLIC_METHODS</text><text fill="#D8BC00" font-family="Open Sans,Avenir,Nunito,Arial,Helvetica,SansSerif" font-size="11.4583" lengthAdjust="spacing" textLength="100" x="1180.2083" y="950.1485">PUBLIC_METHODS</text><line style="stroke:#5E5E5E;stroke-width:1.0416666666666667;" x1="1171.875" x2="1392.7083" y1="959.8572" y2="959.8572"/><rect codeLine="89" fill="#282828" height="87.5448" id="PropertyPurpose" rx="8.3333" ry="8.3333" style="stroke:#5E5E5E;stroke-width:1.0416666666666667;" width="143.75" x="29.1667" y="496.4111"/><rect fill="#1B1B1A" height="31.3883" rx="8.3333" ry="8.3333" style="stroke:#1B1B1A;stroke-width:1.0416666666666667;" width="143.75" x="29.1667" y="496.4111"/><rect fill="#1B1B1A" height="8.3333" style="stroke:#1B1B1A;stroke-width:1.0416666666666667;" width="143.75" x="29.1667" y="519.4661"/><rect codeLine="89" fill="none" height="87.5448" id="PropertyPurpose" rx="8.3333" ry="8.3333" style="stroke:#5E5E5E;stroke-width:1.0416666666666667;" width="143.75" x="29.1667" y="496.4111"/><ellipse cx="43.75" cy="512.1053" fill="#CF6300" rx="10.4167" ry="10.4167" style="stroke:#EF8300;stroke-width:1.0416666666666667;"/><path d="M46.8058,516.7928 L41.1296,516.7928 L41.1296,507.6803 L46.8058,507.6803 L46.8058,509.2672 L42.9301,509.2672 L42.9301,511.2325 L46.4396,511.2325 L46.4396,512.8194 L42.9301,512.8194 L42.9301,515.2059 L46.8058,515.2059 Z " fill="#000000"/><text fill="#D8BC00" font-family="Open Sans,Avenir,Nunito,Arial,Helvetica,SansSerif" font-size="12.5" font-weight="bold" lengthAdjust="spacing" textLength="106.25" x="60.4167" y="516.8294">PropertyPurpose</text><line style="stroke:#5E5E5E;stroke-width:1.0416666666666667;" x1="30.2083" x2="171.875" y1="527.7995" y2="527.7995"/><text fill="#D8BC00" font-family="Open Sans,Avenir,Nunito,Arial,Helvetica,SansSerif" font-size="11.4583" lengthAdjust="spacing" textLength="73.9583" x="38.5417" y="546.169">CONVERSION</text><text fill="#D8BC00" font-family="Open Sans,Avenir,Nunito,Arial,Helvetica,SansSerif" font-size="11.4583" lengthAdjust="spacing" textLength="75" x="38.5417" y="565.9139">FORMATTING</text><line style="stroke:#5E5E5E;stroke-width:1.0416666666666667;" x1="30.2083" x2="171.875" y1="575.6226" y2="575.6226"/><rect codeLine="95" fill="#282828" height="67.7999" id="PropertyValues" rx="8.3333" ry="8.3333" style="stroke:#5E5E5E;stroke-width:1.0416666666666667;" width="176.0417" x="209.8958" y="506.307"/><rect fill="#1B1B1A" height="31.3883" rx="8.3333" ry="8.3333" style="stroke:#1B1B1A;stroke-width:1.0416666666666667;" width="176.0417" x="209.8958" y="506.307"/><rect fill="#1B1B1A" height="8.3333" style="stroke:#1B1B1A;stroke-width:1.0416666666666667;" width="176.0417" x="209.8958" y="529.362"/><rect codeLine="95" fill="none" height="67.7999" id="PropertyValues" rx="8.3333" ry="8.3333" style="stroke:#5E5E5E;stroke-width:1.0416666666666667;" width="176.0417" x="209.8958" y="506.307"/><ellipse cx="243.2292" cy="522.0011" fill="#008400" rx="10.4167" ry="10.4167" style="stroke:#239C23;stroke-width:1.0416666666666667;"/><path d="M240.6331,519.163 L240.6331,517.5761 L246.0592,517.5761 L246.0592,519.163 L244.2464,519.163 L244.2464,525.1017 L246.0592,525.1017 L246.0592,526.6886 L240.6331,526.6886 L240.6331,525.1017 L242.4459,525.1017 L242.4459,519.163 Z " fill="#000000"/><text fill="#D8BC00" font-family="Open Sans,Avenir,Nunito,Arial,Helvetica,SansSerif" font-size="12.5" font-style="italic" font-weight="bold" lengthAdjust="spacing" textLength="96.875" x="264.0625" y="526.7253">PropertyValues</text><line style="stroke:#5E5E5E;stroke-width:1.5625;" x1="210.9375" x2="384.8958" y1="537.6953" y2="537.6953"/><line style="stroke:#5E5E5E;stroke-width:1.0416666666666667;" x1="210.9375" x2="384.8958" y1="546.0286" y2="546.0286"/><ellipse cx="221.3542" cy="557.487" fill="#84BE84" rx="3.125" ry="3.125" style="stroke:#038048;stroke-width:1.0416666666666667;"/><text fill="#D8BC00" font-family="Open Sans,Avenir,Nunito,Arial,Helvetica,SansSerif" font-size="11.4583" lengthAdjust="spacing" textLength="143.75" x="232.8125" y="564.3982">Object valueFor(Property)</text><path codeLine="17" d="M727.3958,211.5778 C728.4167,244.7445 729.9063,292.8695 731.4167,342.057 " fill="none" id="Named-backto-Property" style="stroke:#545454;stroke-width:1.5625;"/><polygon fill="none" points="720.1042,211.7653,726.75,190.7132,734.6771,211.3174,720.1042,211.7653" style="stroke:#545454;stroke-width:1.5625;"/><path codeLine="18" d="M847.1563,210.6195 C836.0729,243.8174 819.8542,292.3903 803.2813,342.057 " fill="none" id="Comparable-backto-Property" style="stroke:#545454;stroke-width:1.5625;"/><polygon fill="none" points="840.2813,208.1715,853.8021,190.7132,854.1146,212.7861,840.2813,208.1715" style="stroke:#545454;stroke-width:1.5625;"/><path codeLine="54" d="M1141.6667,301.307 C1141.6667,328.7653 1141.6667,357.8695 1141.6667,385.9528 " fill="none" id="PropertyFilter-backto-PropertyFilterSet" style="stroke:#545454;stroke-width:1.5625;"/><polygon fill="none" points="1134.375,301.0257,1141.6667,280.1924,1148.9583,301.0257,1134.375,301.0257" style="stroke:#545454;stroke-width:1.5625;"/><path codeLine="55" d="M1075.3333,707.2757 C1054.2396,760.0882 1032.6667,814.0986 1018.2396,850.2132 " fill="none" id="PropertyFilterSet-backto-PropertyNamingConvention" style="stroke:#545454;stroke-width:1.5625;"/><polygon fill="#333333" points="1080.3958,694.609,1074.206,698.8646,1075.7534,706.215,1081.9433,701.9595,1080.3958,694.609" style="stroke:#545454;stroke-width:1.5625;"/><path codeLine="56" d="M1208.1146,707.5778 C1224.1042,747.609 1240.3646,788.3174 1253.5729,821.3799 " fill="none" id="PropertyFilterSet-backto-PropertyMembers" style="stroke:#545454;stroke-width:1.5625;"/><polygon fill="#333333" points="1202.9375,694.609,1201.39,701.9595,1207.5799,706.215,1209.1273,698.8646,1202.9375,694.609" style="stroke:#545454;stroke-width:1.5625;"/><text fill="#A0A0A0" font-family="Open Sans,Avenir,Nunito,Arial,Helvetica,SansSerif" font-size="12.5" font-weight="bold" lengthAdjust="spacing" textLength="8.3333" x="1194.2625" y="718.3087">1</text><text fill="#A0A0A0" font-family="Open Sans,Avenir,Nunito,Arial,Helvetica,SansSerif" font-size="12.5" font-weight="bold" lengthAdjust="spacing" textLength="6.25" x="1240.5918" y="807.1179">*</text></g></svg>
