<?xml version="1.0" encoding="UTF-8" standalone="no"?><svg xmlns="http://www.w3.org/2000/svg" xmlns:xlink="http://www.w3.org/1999/xlink" contentScriptType="application/ecmascript" contentStyleType="text/css" height="406.25px" preserveAspectRatio="none" style="width:1080px;height:406px;background:#333333;" version="1.1" viewBox="0 0 1080 406" width="1080.2083px" zoomAndPan="magnify"><defs/><g><rect fill="#48494B" height="41.2028" rx="8.3333" ry="8.3333" style="stroke:#545454;stroke-width:1.0416666666666667;" width="194.7917" x="435.4167" y="2.0833"/><text fill="#C0C0C0" font-family="Open Sans,Avenir,Nunito,Arial,Helvetica,SansSerif" font-size="20.8333" lengthAdjust="spacing" textLength="171.875" x="446.875" y="30.5583">diagram-module</text><rect codeLine="7" fill="#282828" height="345.3166" id="ModuleResource" rx="8.3333" ry="8.3333" style="stroke:#5E5E5E;stroke-width:1.0416666666666667;" width="402.0833" x="9.375" y="53.7028"/><rect fill="#1B1B1A" height="31.3883" rx="8.3333" ry="8.3333" style="stroke:#1B1B1A;stroke-width:1.0416666666666667;" width="402.0833" x="9.375" y="53.7028"/><rect fill="#1B1B1A" height="8.3333" style="stroke:#1B1B1A;stroke-width:1.0416666666666667;" width="402.0833" x="9.375" y="76.7578"/><rect codeLine="7" fill="none" height="345.3166" id="ModuleResource" rx="8.3333" ry="8.3333" style="stroke:#5E5E5E;stroke-width:1.0416666666666667;" width="402.0833" x="9.375" y="53.7028"/><ellipse cx="150" cy="69.397" fill="#0066CF" rx="10.4167" ry="10.4167" style="stroke:#0086EF;stroke-width:1.0416666666666667;"/><path d="M151.9104,73.822 Q151.4832,74.0417 151.0132,74.1516 Q150.5432,74.2615 150.0244,74.2615 Q148.1812,74.2615 147.2107,73.0469 Q146.2402,71.8323 146.2402,69.5374 Q146.2402,67.2363 147.2107,66.0217 Q148.1812,64.8071 150.0244,64.8071 Q150.5432,64.8071 151.0193,64.917 Q151.4954,65.0269 151.9104,65.2466 L151.9104,67.2485 Q151.4465,66.8213 151.0101,66.6229 Q150.5737,66.4246 150.1099,66.4246 Q149.1211,66.4246 148.6176,67.2089 Q148.114,67.9932 148.114,69.5374 Q148.114,71.0754 148.6176,71.8597 Q149.1211,72.644 150.1099,72.644 Q150.5737,72.644 151.0101,72.4457 Q151.4465,72.2473 151.9104,71.8201 Z " fill="#000000"/><text fill="#D8BC00" font-family="Open Sans,Avenir,Nunito,Arial,Helvetica,SansSerif" font-size="12.5" font-weight="bold" lengthAdjust="spacing" textLength="106.25" x="172.9167" y="74.1211">ModuleResource</text><line style="stroke:#5E5E5E;stroke-width:1.5625;" x1="10.4167" x2="410.4167" y1="85.0911" y2="85.0911"/><polygon fill="#FFFF44" points="20.8333,115.2527,25,119.4194,20.8333,123.586,16.6667,119.4194" style="stroke:#B38D22;stroke-width:1.0416666666666667;"/><text fill="#D8BC00" font-family="Open Sans,Avenir,Nunito,Arial,Helvetica,SansSerif" font-size="11.4583" lengthAdjust="spacing" textLength="226.0417" x="32.2917" y="127.3722">ModuleResource(PackageReference, URI)</text><line style="stroke:#5E5E5E;stroke-width:1.0416666666666667;" x1="10.4167" x2="166.6667" y1="103.2969" y2="103.2969"/><text fill="#D8BC00" font-family="Open Sans,Avenir,Nunito,Arial,Helvetica,SansSerif" font-size="11.4583" lengthAdjust="spacing" textLength="81.25" x="169.7917" y="107.1065">(constructors)</text><line style="stroke:#5E5E5E;stroke-width:1.0416666666666667;" x1="254.1667" x2="410.4167" y1="103.2969" y2="103.2969"/><line style="stroke:#5E5E5E;stroke-width:1.0416666666666667;" x1="10.4167" x2="410.4167" y1="137.0809" y2="137.0809"/><ellipse cx="20.8333" cy="148.5392" fill="#84BE84" rx="3.125" ry="3.125" style="stroke:#038048;stroke-width:1.0416666666666667;"/><text fill="#D8BC00" font-family="Open Sans,Avenir,Nunito,Arial,Helvetica,SansSerif" font-size="11.4583" lengthAdjust="spacing" textLength="369.7917" x="32.2917" y="155.4504">ModuleResource moduleResource(Listener, ModuleReference, URI)</text><ellipse cx="20.8333" cy="168.2841" fill="#84BE84" rx="3.125" ry="3.125" style="stroke:#038048;stroke-width:1.0416666666666667;"/><text fill="#D8BC00" font-family="Open Sans,Avenir,Nunito,Arial,Helvetica,SansSerif" font-size="11.4583" lengthAdjust="spacing" textLength="212.5" x="32.2917" y="175.1953">PackageReference packageReference()</text><ellipse cx="20.8333" cy="211.9405" fill="#84BE84" rx="3.125" ry="3.125" style="stroke:#038048;stroke-width:1.0416666666666667;"/><text fill="#D8BC00" font-family="Open Sans,Avenir,Nunito,Arial,Helvetica,SansSerif" font-size="11.4583" lengthAdjust="spacing" textLength="45.8333" x="32.2917" y="218.8517">URI uri()</text><line style="stroke:#5E5E5E;stroke-width:1.0416666666666667;" x1="10.4167" x2="180.7292" y1="194.7764" y2="194.7764"/><text fill="#D8BC00" font-family="Open Sans,Avenir,Nunito,Arial,Helvetica,SansSerif" font-size="11.4583" lengthAdjust="spacing" textLength="53.125" x="183.8542" y="198.586">(network)</text><line style="stroke:#5E5E5E;stroke-width:1.0416666666666667;" x1="240.1042" x2="410.4167" y1="194.7764" y2="194.7764"/><ellipse cx="20.8333" cy="255.5969" fill="#84BE84" rx="3.125" ry="3.125" style="stroke:#038048;stroke-width:1.0416666666666667;"/><text fill="#D8BC00" font-family="Open Sans,Avenir,Nunito,Arial,Helvetica,SansSerif" font-size="11.4583" lengthAdjust="spacing" textLength="143.75" x="32.2917" y="262.5081">Path fileNameAsJavaPath()</text><ellipse cx="20.8333" cy="275.3418" fill="#84BE84" rx="3.125" ry="3.125" style="stroke:#038048;stroke-width:1.0416666666666667;"/><text fill="#D8BC00" font-family="Open Sans,Avenir,Nunito,Arial,Helvetica,SansSerif" font-size="11.4583" lengthAdjust="spacing" textLength="81.25" x="32.2917" y="282.253">Path javaPath()</text><line style="stroke:#5E5E5E;stroke-width:1.0416666666666667;" x1="10.4167" x2="190.625" y1="238.4328" y2="238.4328"/><text fill="#D8BC00" font-family="Open Sans,Avenir,Nunito,Arial,Helvetica,SansSerif" font-size="11.4583" lengthAdjust="spacing" textLength="33.3333" x="193.75" y="242.2424">(path)</text><line style="stroke:#5E5E5E;stroke-width:1.0416666666666667;" x1="230.2083" x2="410.4167" y1="238.4328" y2="238.4328"/><ellipse cx="20.8333" cy="318.9982" fill="#84BE84" rx="3.125" ry="3.125" style="stroke:#038048;stroke-width:1.0416666666666667;"/><text fill="#D8BC00" font-family="Open Sans,Avenir,Nunito,Arial,Helvetica,SansSerif" font-size="11.4583" lengthAdjust="spacing" textLength="62.5" x="32.2917" y="325.9094">Bytes size()</text><line style="stroke:#5E5E5E;stroke-width:1.0416666666666667;" x1="10.4167" x2="178.6458" y1="301.8341" y2="301.8341"/><text fill="#D8BC00" font-family="Open Sans,Avenir,Nunito,Arial,Helvetica,SansSerif" font-size="11.4583" lengthAdjust="spacing" textLength="57.2917" x="181.7708" y="305.6437">(primitive)</text><line style="stroke:#5E5E5E;stroke-width:1.0416666666666667;" x1="242.1875" x2="410.4167" y1="301.8341" y2="301.8341"/><ellipse cx="20.8333" cy="362.6546" fill="#84BE84" rx="3.125" ry="3.125" style="stroke:#038048;stroke-width:1.0416666666666667;"/><text fill="#D8BC00" font-family="Open Sans,Avenir,Nunito,Arial,Helvetica,SansSerif" font-size="11.4583" lengthAdjust="spacing" textLength="80.2083" x="32.2917" y="369.5658">Time created()</text><ellipse cx="20.8333" cy="382.3995" fill="#84BE84" rx="3.125" ry="3.125" style="stroke:#038048;stroke-width:1.0416666666666667;"/><text fill="#D8BC00" font-family="Open Sans,Avenir,Nunito,Arial,Helvetica,SansSerif" font-size="11.4583" lengthAdjust="spacing" textLength="106.25" x="32.2917" y="389.3107">Time lastModified()</text><line style="stroke:#5E5E5E;stroke-width:1.0416666666666667;" x1="10.4167" x2="191.1458" y1="345.4905" y2="345.4905"/><text fill="#D8BC00" font-family="Open Sans,Avenir,Nunito,Arial,Helvetica,SansSerif" font-size="11.4583" lengthAdjust="spacing" textLength="32.2917" x="194.2708" y="349.3001">(time)</text><line style="stroke:#5E5E5E;stroke-width:1.0416666666666667;" x1="229.6875" x2="410.4167" y1="345.4905" y2="345.4905"/><rect codeLine="26" fill="#282828" height="170.6909" id="Modules" rx="8.3333" ry="8.3333" style="stroke:#5E5E5E;stroke-width:1.0416666666666667;" width="625" x="447.9167" y="141.2028"/><rect fill="#1B1B1A" height="31.3883" rx="8.3333" ry="8.3333" style="stroke:#1B1B1A;stroke-width:1.0416666666666667;" width="625" x="447.9167" y="141.2028"/><rect fill="#1B1B1A" height="8.3333" style="stroke:#1B1B1A;stroke-width:1.0416666666666667;" width="625" x="447.9167" y="164.2578"/><rect codeLine="26" fill="none" height="170.6909" id="Modules" rx="8.3333" ry="8.3333" style="stroke:#5E5E5E;stroke-width:1.0416666666666667;" width="625" x="447.9167" y="141.2028"/><ellipse cx="725.5208" cy="156.897" fill="#0066CF" rx="10.4167" ry="10.4167" style="stroke:#0086EF;stroke-width:1.0416666666666667;"/><path d="M727.4312,161.322 Q727.004,161.5417 726.534,161.6516 Q726.064,161.7615 725.5452,161.7615 Q723.702,161.7615 722.7315,160.5469 Q721.7611,159.3323 721.7611,157.0374 Q721.7611,154.7363 722.7315,153.5217 Q723.702,152.3071 725.5452,152.3071 Q726.064,152.3071 726.5401,152.417 Q727.0162,152.5269 727.4312,152.7466 L727.4312,154.7485 Q726.9674,154.3213 726.531,154.1229 Q726.0946,153.9246 725.6307,153.9246 Q724.6419,153.9246 724.1384,154.7089 Q723.6348,155.4932 723.6348,157.0374 Q723.6348,158.5754 724.1384,159.3597 Q724.6419,160.144 725.6307,160.144 Q726.0946,160.144 726.531,159.9457 Q726.9674,159.7473 727.4312,159.3201 Z " fill="#000000"/><text fill="#D8BC00" font-family="Open Sans,Avenir,Nunito,Arial,Helvetica,SansSerif" font-size="12.5" font-weight="bold" lengthAdjust="spacing" textLength="55.2083" x="748.4375" y="161.6211">Modules</text><line style="stroke:#5E5E5E;stroke-width:1.5625;" x1="448.9583" x2="1071.875" y1="172.5911" y2="172.5911"/><line style="stroke:#5E5E5E;stroke-width:1.0416666666666667;" x1="448.9583" x2="1071.875" y1="180.9245" y2="180.9245"/><ellipse cx="459.375" cy="192.3828" fill="#84BE84" rx="3.125" ry="3.125" style="stroke:#038048;stroke-width:1.0416666666666667;"/><text fill="#D8BC00" font-family="Open Sans,Avenir,Nunito,Arial,Helvetica,SansSerif" font-size="11.4583" lengthAdjust="spacing" textLength="306.25" x="470.8333" y="199.294">ModuleResource moduleResource(Listener, StringPath)</text><ellipse cx="459.375" cy="236.0392" fill="#84BE84" rx="3.125" ry="3.125" style="stroke:#038048;stroke-width:1.0416666666666667;"/><text fill="#D8BC00" font-family="Open Sans,Avenir,Nunito,Arial,Helvetica,SansSerif" font-size="11.4583" lengthAdjust="spacing" textLength="443.75" x="470.8333" y="242.9504">List&lt;ModuleResource&gt; allNestedModuleResources(Listener, PackageReference)</text><ellipse cx="459.375" cy="255.7841" fill="#84BE84" rx="3.125" ry="3.125" style="stroke:#038048;stroke-width:1.0416666666666667;"/><text fill="#D8BC00" font-family="Open Sans,Avenir,Nunito,Arial,Helvetica,SansSerif" font-size="11.4583" lengthAdjust="spacing" textLength="393.75" x="470.8333" y="262.6953">List&lt;ModuleResource&gt; moduleResources(Listener, PackageReference)</text><ellipse cx="459.375" cy="275.529" fill="#84BE84" rx="3.125" ry="3.125" style="stroke:#038048;stroke-width:1.0416666666666667;"/><text fill="#D8BC00" font-family="Open Sans,Avenir,Nunito,Arial,Helvetica,SansSerif" font-size="11.4583" lengthAdjust="spacing" textLength="430.2083" x="470.8333" y="282.4402">List&lt;ModuleResource&gt; nestedModuleResources(Listener, PackageReference)</text><ellipse cx="459.375" cy="295.2738" fill="#84BE84" rx="3.125" ry="3.125" style="stroke:#038048;stroke-width:1.0416666666666667;"/><text fill="#D8BC00" font-family="Open Sans,Avenir,Nunito,Arial,Helvetica,SansSerif" font-size="11.4583" lengthAdjust="spacing" textLength="592.7083" x="470.8333" y="302.1851">List&lt;ModuleResource&gt; nestedModuleResources(Listener, PackageReference, Matcher&lt;ModuleResource&gt;)</text><line style="stroke:#5E5E5E;stroke-width:1.0416666666666667;" x1="448.9583" x2="726.0417" y1="218.8751" y2="218.8751"/><text fill="#D8BC00" font-family="Open Sans,Avenir,Nunito,Arial,Helvetica,SansSerif" font-size="11.4583" lengthAdjust="spacing" textLength="62.5" x="729.1667" y="222.6847">(collection)</text><line style="stroke:#5E5E5E;stroke-width:1.0416666666666667;" x1="794.7917" x2="1071.875" y1="218.8751" y2="218.8751"/></g></svg>
