<?xml version="1.0" encoding="UTF-8" standalone="no"?><svg xmlns="http://www.w3.org/2000/svg" xmlns:xlink="http://www.w3.org/1999/xlink" contentScriptType="application/ecmascript" contentStyleType="text/css" height="523.9583px" preserveAspectRatio="none" style="width:2011px;height:523px;background:#333333;" version="1.1" viewBox="0 0 2011 523" width="2011.4583px" zoomAndPan="magnify"><defs/><g><rect fill="#48494B" height="41.2028" rx="8.3333" ry="8.3333" style="stroke:#545454;stroke-width:1.0416666666666667;" width="498.9583" x="749.2188" y="2.0833"/><text fill="#C0C0C0" font-family="Open Sans,Avenir,Nunito,Arial,Helvetica,SansSerif" font-size="20.8333" lengthAdjust="spacing" textLength="476.0417" x="760.6771" y="30.5583">com.telenav.kivakit.microservice.protocols.grpc</text><!--MD5=[784d533083758286c885e86b9fe3090e]
class BaseComponent--><rect codeLine="7" fill="#282828" height="48.055" id="BaseComponent" rx="8.3333" ry="8.3333" style="stroke:#5E5E5E;stroke-width:1.0416666666666667;" width="143.75" x="932.8125" y="53.7028"/><rect fill="#1B1B1A" height="31.3883" rx="8.3333" ry="8.3333" style="stroke:#1B1B1A;stroke-width:1.0416666666666667;" width="143.75" x="932.8125" y="53.7028"/><rect fill="#1B1B1A" height="8.3333" style="stroke:#1B1B1A;stroke-width:1.0416666666666667;" width="143.75" x="932.8125" y="76.7578"/><rect codeLine="7" fill="none" height="48.055" id="BaseComponent" rx="8.3333" ry="8.3333" style="stroke:#5E5E5E;stroke-width:1.0416666666666667;" width="143.75" x="932.8125" y="53.7028"/><ellipse cx="947.3958" cy="69.397" fill="#C8AC00" rx="10.4167" ry="10.4167" style="stroke:#D8BC00;stroke-width:1.0416666666666667;"/><path d="M946.9889,66.099 L946.1405,69.8283 L947.8434,69.8283 Z M945.8903,64.4511 L948.0937,64.4511 L950.5534,73.5636 L948.7528,73.5636 L948.1913,71.3114 L945.7804,71.3114 L945.2311,73.5636 L943.4306,73.5636 Z " fill="#000000"/><text fill="#D8BC00" font-family="Open Sans,Avenir,Nunito,Arial,Helvetica,SansSerif" font-size="12.5" font-style="italic" font-weight="bold" lengthAdjust="spacing" textLength="106.25" x="964.0625" y="74.1211">BaseComponent</text><line style="stroke:#5E5E5E;stroke-width:1.0416666666666667;" x1="933.8542" x2="1075.5208" y1="85.0911" y2="85.0911"/><line style="stroke:#5E5E5E;stroke-width:1.0416666666666667;" x1="933.8542" x2="1075.5208" y1="93.4245" y2="93.4245"/><!--MD5=[1c38f4b24c2a8cc40df1b1f481d76b9f]
class Startable--><rect codeLine="9" fill="#282828" height="48.055" id="Startable" rx="8.3333" ry="8.3333" style="stroke:#5E5E5E;stroke-width:1.0416666666666667;" width="94.7917" x="1384.375" y="53.7028"/><rect fill="#1B1B1A" height="31.3883" rx="8.3333" ry="8.3333" style="stroke:#1B1B1A;stroke-width:1.0416666666666667;" width="94.7917" x="1384.375" y="53.7028"/><rect fill="#1B1B1A" height="8.3333" style="stroke:#1B1B1A;stroke-width:1.0416666666666667;" width="94.7917" x="1384.375" y="76.7578"/><rect codeLine="9" fill="none" height="48.055" id="Startable" rx="8.3333" ry="8.3333" style="stroke:#5E5E5E;stroke-width:1.0416666666666667;" width="94.7917" x="1384.375" y="53.7028"/><ellipse cx="1398.9583" cy="69.397" fill="#008400" rx="10.4167" ry="10.4167" style="stroke:#239C23;stroke-width:1.0416666666666667;"/><path d="M1396.3623,66.5588 L1396.3623,64.9719 L1401.7883,64.9719 L1401.7883,66.5588 L1399.9756,66.5588 L1399.9756,72.4976 L1401.7883,72.4976 L1401.7883,74.0845 L1396.3623,74.0845 L1396.3623,72.4976 L1398.175,72.4976 L1398.175,66.5588 Z " fill="#000000"/><text fill="#D8BC00" font-family="Open Sans,Avenir,Nunito,Arial,Helvetica,SansSerif" font-size="12.5" font-style="italic" font-weight="bold" lengthAdjust="spacing" textLength="57.2917" x="1415.625" y="74.1211">Startable</text><line style="stroke:#5E5E5E;stroke-width:1.0416666666666667;" x1="1385.4167" x2="1478.125" y1="85.0911" y2="85.0911"/><line style="stroke:#5E5E5E;stroke-width:1.0416666666666667;" x1="1385.4167" x2="1478.125" y1="93.4245" y2="93.4245"/><!--MD5=[c6dd7699ff04048cb9365e543f81bf42]
class Initializable--><rect codeLine="10" fill="#282828" height="48.055" id="Initializable" rx="8.3333" ry="8.3333" style="stroke:#5E5E5E;stroke-width:1.0416666666666667;" width="113.5417" x="1515.625" y="53.7028"/><rect fill="#1B1B1A" height="31.3883" rx="8.3333" ry="8.3333" style="stroke:#1B1B1A;stroke-width:1.0416666666666667;" width="113.5417" x="1515.625" y="53.7028"/><rect fill="#1B1B1A" height="8.3333" style="stroke:#1B1B1A;stroke-width:1.0416666666666667;" width="113.5417" x="1515.625" y="76.7578"/><rect codeLine="10" fill="none" height="48.055" id="Initializable" rx="8.3333" ry="8.3333" style="stroke:#5E5E5E;stroke-width:1.0416666666666667;" width="113.5417" x="1515.625" y="53.7028"/><ellipse cx="1530.2083" cy="69.397" fill="#008400" rx="10.4167" ry="10.4167" style="stroke:#239C23;stroke-width:1.0416666666666667;"/><path d="M1527.6123,66.5588 L1527.6123,64.9719 L1533.0383,64.9719 L1533.0383,66.5588 L1531.2256,66.5588 L1531.2256,72.4976 L1533.0383,72.4976 L1533.0383,74.0845 L1527.6123,74.0845 L1527.6123,72.4976 L1529.425,72.4976 L1529.425,66.5588 Z " fill="#000000"/><text fill="#D8BC00" font-family="Open Sans,Avenir,Nunito,Arial,Helvetica,SansSerif" font-size="12.5" font-style="italic" font-weight="bold" lengthAdjust="spacing" textLength="76.0417" x="1546.875" y="74.1211">Initializable</text><line style="stroke:#5E5E5E;stroke-width:1.0416666666666667;" x1="1516.6667" x2="1628.125" y1="85.0911" y2="85.0911"/><line style="stroke:#5E5E5E;stroke-width:1.0416666666666667;" x1="1516.6667" x2="1628.125" y1="93.4245" y2="93.4245"/><!--MD5=[02d8e9e1cff711f67da7e3a29e67b3ab]
class Stoppable--><rect codeLine="11" fill="#282828" height="48.055" id="Stoppable" rx="8.3333" ry="8.3333" style="stroke:#5E5E5E;stroke-width:1.0416666666666667;" width="102.0833" x="1666.1458" y="53.7028"/><rect fill="#1B1B1A" height="31.3883" rx="8.3333" ry="8.3333" style="stroke:#1B1B1A;stroke-width:1.0416666666666667;" width="102.0833" x="1666.1458" y="53.7028"/><rect fill="#1B1B1A" height="8.3333" style="stroke:#1B1B1A;stroke-width:1.0416666666666667;" width="102.0833" x="1666.1458" y="76.7578"/><rect codeLine="11" fill="none" height="48.055" id="Stoppable" rx="8.3333" ry="8.3333" style="stroke:#5E5E5E;stroke-width:1.0416666666666667;" width="102.0833" x="1666.1458" y="53.7028"/><ellipse cx="1680.7292" cy="69.397" fill="#008400" rx="10.4167" ry="10.4167" style="stroke:#239C23;stroke-width:1.0416666666666667;"/><path d="M1678.1331,66.5588 L1678.1331,64.9719 L1683.5592,64.9719 L1683.5592,66.5588 L1681.7464,66.5588 L1681.7464,72.4976 L1683.5592,72.4976 L1683.5592,74.0845 L1678.1331,74.0845 L1678.1331,72.4976 L1679.9459,72.4976 L1679.9459,66.5588 Z " fill="#000000"/><text fill="#D8BC00" font-family="Open Sans,Avenir,Nunito,Arial,Helvetica,SansSerif" font-size="12.5" font-style="italic" font-weight="bold" lengthAdjust="spacing" textLength="64.5833" x="1697.3958" y="74.1211">Stoppable</text><line style="stroke:#5E5E5E;stroke-width:1.0416666666666667;" x1="1667.1875" x2="1767.1875" y1="85.0911" y2="85.0911"/><line style="stroke:#5E5E5E;stroke-width:1.0416666666666667;" x1="1667.1875" x2="1767.1875" y1="93.4245" y2="93.4245"/><!--MD5=[a94b7fe66d39def5be5f554d194e5c0e]
class MicroservletMountTarget--><rect codeLine="12" fill="#282828" height="48.055" id="MicroservletMountTarget" rx="8.3333" ry="8.3333" style="stroke:#5E5E5E;stroke-width:1.0416666666666667;" width="200" x="1804.6875" y="53.7028"/><rect fill="#1B1B1A" height="31.3883" rx="8.3333" ry="8.3333" style="stroke:#1B1B1A;stroke-width:1.0416666666666667;" width="200" x="1804.6875" y="53.7028"/><rect fill="#1B1B1A" height="8.3333" style="stroke:#1B1B1A;stroke-width:1.0416666666666667;" width="200" x="1804.6875" y="76.7578"/><rect codeLine="12" fill="none" height="48.055" id="MicroservletMountTarget" rx="8.3333" ry="8.3333" style="stroke:#5E5E5E;stroke-width:1.0416666666666667;" width="200" x="1804.6875" y="53.7028"/><ellipse cx="1819.2708" cy="69.397" fill="#008400" rx="10.4167" ry="10.4167" style="stroke:#239C23;stroke-width:1.0416666666666667;"/><path d="M1816.6748,66.5588 L1816.6748,64.9719 L1822.1008,64.9719 L1822.1008,66.5588 L1820.2881,66.5588 L1820.2881,72.4976 L1822.1008,72.4976 L1822.1008,74.0845 L1816.6748,74.0845 L1816.6748,72.4976 L1818.4875,72.4976 L1818.4875,66.5588 Z " fill="#000000"/><text fill="#D8BC00" font-family="Open Sans,Avenir,Nunito,Arial,Helvetica,SansSerif" font-size="12.5" font-style="italic" font-weight="bold" lengthAdjust="spacing" textLength="162.5" x="1835.9375" y="74.1211">MicroservletMountTarget</text><line style="stroke:#5E5E5E;stroke-width:1.0416666666666667;" x1="1805.7292" x2="2003.6458" y1="85.0911" y2="85.0911"/><line style="stroke:#5E5E5E;stroke-width:1.0416666666666667;" x1="1805.7292" x2="2003.6458" y1="93.4245" y2="93.4245"/><!--MD5=[8588b078c57d53cd1546ff4b06b03daa]
class MicroserviceGrpcClient--><rect codeLine="15" fill="#282828" height="218.514" id="MicroserviceGrpcClient" rx="8.3333" ry="8.3333" style="stroke:#5E5E5E;stroke-width:1.0416666666666667;" width="634.375" x="9.375" y="165.1611"/><rect fill="#1B1B1A" height="31.3883" rx="8.3333" ry="8.3333" style="stroke:#1B1B1A;stroke-width:1.0416666666666667;" width="634.375" x="9.375" y="165.1611"/><rect fill="#1B1B1A" height="8.3333" style="stroke:#1B1B1A;stroke-width:1.0416666666666667;" width="634.375" x="9.375" y="188.2161"/><rect codeLine="15" fill="none" height="218.514" id="MicroserviceGrpcClient" rx="8.3333" ry="8.3333" style="stroke:#5E5E5E;stroke-width:1.0416666666666667;" width="634.375" x="9.375" y="165.1611"/><ellipse cx="245.3125" cy="180.8553" fill="#0066CF" rx="10.4167" ry="10.4167" style="stroke:#0086EF;stroke-width:1.0416666666666667;"/><path d="M247.2229,185.2804 Q246.7957,185.5001 246.3257,185.6099 Q245.8557,185.7198 245.3369,185.7198 Q243.4937,185.7198 242.5232,184.5052 Q241.5527,183.2906 241.5527,180.9957 Q241.5527,178.6947 242.5232,177.4801 Q243.4937,176.2655 245.3369,176.2655 Q245.8557,176.2655 246.3318,176.3753 Q246.8079,176.4852 247.2229,176.7049 L247.2229,178.7069 Q246.759,178.2796 246.3226,178.0813 Q245.8862,177.8829 245.4224,177.8829 Q244.4336,177.8829 243.9301,178.6672 Q243.4265,179.4515 243.4265,180.9957 Q243.4265,182.5338 243.9301,183.3181 Q244.4336,184.1024 245.4224,184.1024 Q245.8862,184.1024 246.3226,183.904 Q246.759,183.7056 247.2229,183.2784 Z " fill="#000000"/><text fill="#D8BC00" font-family="Open Sans,Avenir,Nunito,Arial,Helvetica,SansSerif" font-size="12.5" font-weight="bold" lengthAdjust="spacing" textLength="147.9167" x="268.2292" y="185.5794">MicroserviceGrpcClient</text><line style="stroke:#5E5E5E;stroke-width:1.5625;" x1="10.4167" x2="642.7083" y1="196.5495" y2="196.5495"/><ellipse cx="20.8333" cy="231.9194" fill="#84BE84" rx="3.125" ry="3.125" style="stroke:#038048;stroke-width:1.0416666666666667;"/><text fill="#D8BC00" font-family="Open Sans,Avenir,Nunito,Arial,Helvetica,SansSerif" font-size="11.4583" lengthAdjust="spacing" textLength="210.4167" x="32.2917" y="238.8306">MicroserviceGrpcClient(Port, Version)</text><line style="stroke:#5E5E5E;stroke-width:1.0416666666666667;" x1="10.4167" x2="282.8125" y1="214.7552" y2="214.7552"/><text fill="#D8BC00" font-family="Open Sans,Avenir,Nunito,Arial,Helvetica,SansSerif" font-size="11.4583" lengthAdjust="spacing" textLength="81.25" x="285.9375" y="218.5649">(constructors)</text><line style="stroke:#5E5E5E;stroke-width:1.0416666666666667;" x1="370.3125" x2="642.7083" y1="214.7552" y2="214.7552"/><line style="stroke:#5E5E5E;stroke-width:1.0416666666666667;" x1="10.4167" x2="642.7083" y1="248.5392" y2="248.5392"/><ellipse cx="20.8333" cy="259.9976" fill="#84BE84" rx="3.125" ry="3.125" style="stroke:#038048;stroke-width:1.0416666666666667;"/><text fill="#D8BC00" font-family="Open Sans,Avenir,Nunito,Arial,Helvetica,SansSerif" font-size="11.4583" lengthAdjust="spacing" textLength="387.5" x="32.2917" y="266.9088">T request(String path, MicroservletRequest, Class&lt;T&gt; responseType)</text><ellipse cx="20.8333" cy="279.7424" fill="#84BE84" rx="3.125" ry="3.125" style="stroke:#038048;stroke-width:1.0416666666666667;"/><text fill="#D8BC00" font-family="Open Sans,Avenir,Nunito,Arial,Helvetica,SansSerif" font-size="11.4583" lengthAdjust="spacing" textLength="602.0833" x="32.2917" y="286.6536">MicroservletFutureResponse&lt;T&gt; requestFuture(String path, MicroservletRequest, Class&lt;T&gt; responseType)</text><ellipse cx="20.8333" cy="323.3988" fill="#84BE84" rx="3.125" ry="3.125" style="stroke:#038048;stroke-width:1.0416666666666667;"/><text fill="#D8BC00" font-family="Open Sans,Avenir,Nunito,Arial,Helvetica,SansSerif" font-size="11.4583" lengthAdjust="spacing" textLength="60.4167" x="32.2917" y="330.3101">void stop()</text><line style="stroke:#5E5E5E;stroke-width:1.0416666666666667;" x1="10.4167" x2="296.875" y1="306.2347" y2="306.2347"/><text fill="#D8BC00" font-family="Open Sans,Avenir,Nunito,Arial,Helvetica,SansSerif" font-size="11.4583" lengthAdjust="spacing" textLength="53.125" x="300" y="310.0444">(lifecycle)</text><line style="stroke:#5E5E5E;stroke-width:1.0416666666666667;" x1="356.25" x2="642.7083" y1="306.2347" y2="306.2347"/><polygon fill="#FFFF44" points="20.8333,361.8469,25,366.0136,20.8333,370.1803,16.6667,366.0136" style="stroke:#B38D22;stroke-width:1.0416666666666667;"/><text fill="#D8BC00" font-family="Open Sans,Avenir,Nunito,Arial,Helvetica,SansSerif" font-size="11.4583" lengthAdjust="spacing" textLength="189.5833" x="32.2917" y="373.9665">void onRegisterObjectSerializers()</text><line style="stroke:#5E5E5E;stroke-width:1.0416666666666667;" x1="10.4167" x2="300" y1="349.8912" y2="349.8912"/><text fill="#D8BC00" font-family="Open Sans,Avenir,Nunito,Arial,Helvetica,SansSerif" font-size="11.4583" lengthAdjust="spacing" textLength="46.875" x="303.125" y="353.7008">(lookup)</text><line style="stroke:#5E5E5E;stroke-width:1.0416666666666667;" x1="353.125" x2="642.7083" y1="349.8912" y2="349.8912"/><!--MD5=[6c186dc36282f5210cbedcbcb5e7f869]
class MicroserviceGrpcService--><rect codeLine="34" fill="#282828" height="155.1127" id="MicroserviceGrpcService" rx="8.3333" ry="8.3333" style="stroke:#5E5E5E;stroke-width:1.0416666666666667;" width="558.3333" x="1366.1458" y="196.932"/><rect fill="#1B1B1A" height="31.3883" rx="8.3333" ry="8.3333" style="stroke:#1B1B1A;stroke-width:1.0416666666666667;" width="558.3333" x="1366.1458" y="196.932"/><rect fill="#1B1B1A" height="8.3333" style="stroke:#1B1B1A;stroke-width:1.0416666666666667;" width="558.3333" x="1366.1458" y="219.987"/><rect codeLine="34" fill="none" height="155.1127" id="MicroserviceGrpcService" rx="8.3333" ry="8.3333" style="stroke:#5E5E5E;stroke-width:1.0416666666666667;" width="558.3333" x="1366.1458" y="196.932"/><ellipse cx="1560.9375" cy="212.6261" fill="#0066CF" rx="10.4167" ry="10.4167" style="stroke:#0086EF;stroke-width:1.0416666666666667;"/><path d="M1562.8479,217.0512 Q1562.4207,217.2709 1561.9507,217.3808 Q1561.4807,217.4906 1560.9619,217.4906 Q1559.1187,217.4906 1558.1482,216.276 Q1557.1777,215.0614 1557.1777,212.7665 Q1557.1777,210.4655 1558.1482,209.2509 Q1559.1187,208.0363 1560.9619,208.0363 Q1561.4807,208.0363 1561.9568,208.1462 Q1562.4329,208.256 1562.8479,208.4757 L1562.8479,210.4777 Q1562.384,210.0505 1561.9476,209.8521 Q1561.5112,209.6537 1561.0474,209.6537 Q1560.0586,209.6537 1559.5551,210.438 Q1559.0515,211.2223 1559.0515,212.7665 Q1559.0515,214.3046 1559.5551,215.0889 Q1560.0586,215.8732 1561.0474,215.8732 Q1561.5112,215.8732 1561.9476,215.6748 Q1562.384,215.4765 1562.8479,215.0492 Z " fill="#000000"/><text fill="#D8BC00" font-family="Open Sans,Avenir,Nunito,Arial,Helvetica,SansSerif" font-size="12.5" font-weight="bold" lengthAdjust="spacing" textLength="154.1667" x="1583.8542" y="217.3503">MicroserviceGrpcService</text><line style="stroke:#5E5E5E;stroke-width:1.5625;" x1="1367.1875" x2="1923.4375" y1="228.3203" y2="228.3203"/><ellipse cx="1377.6042" cy="263.6902" fill="#84BE84" rx="3.125" ry="3.125" style="stroke:#038048;stroke-width:1.0416666666666667;"/><text fill="#D8BC00" font-family="Open Sans,Avenir,Nunito,Arial,Helvetica,SansSerif" font-size="11.4583" lengthAdjust="spacing" textLength="240.625" x="1389.0625" y="270.6014">MicroserviceGrpcService(Microservice&lt;?&gt;)</text><line style="stroke:#5E5E5E;stroke-width:1.0416666666666667;" x1="1367.1875" x2="1601.5625" y1="246.5261" y2="246.5261"/><text fill="#D8BC00" font-family="Open Sans,Avenir,Nunito,Arial,Helvetica,SansSerif" font-size="11.4583" lengthAdjust="spacing" textLength="81.25" x="1604.6875" y="250.3357">(constructors)</text><line style="stroke:#5E5E5E;stroke-width:1.0416666666666667;" x1="1689.0625" x2="1923.4375" y1="246.5261" y2="246.5261"/><line style="stroke:#5E5E5E;stroke-width:1.0416666666666667;" x1="1367.1875" x2="1923.4375" y1="280.3101" y2="280.3101"/><ellipse cx="1377.6042" cy="291.7684" fill="#84BE84" rx="3.125" ry="3.125" style="stroke:#038048;stroke-width:1.0416666666666667;"/><text fill="#D8BC00" font-family="Open Sans,Avenir,Nunito,Arial,Helvetica,SansSerif" font-size="11.4583" lengthAdjust="spacing" textLength="526.0417" x="1389.0625" y="298.6796">^void mount(String path, Class&lt;? extends MicroservletRequestHandler&gt; requestHandlerType)</text><ellipse cx="1377.6042" cy="335.4248" fill="#84BE84" rx="3.125" ry="3.125" style="stroke:#038048;stroke-width:1.0416666666666667;"/><text fill="#D8BC00" font-family="Open Sans,Avenir,Nunito,Arial,Helvetica,SansSerif" font-size="11.4583" lengthAdjust="spacing" textLength="167.7083" x="1389.0625" y="342.336">void writeProtoFilesTo(Folder)</text><line style="stroke:#5E5E5E;stroke-width:1.0416666666666667;" x1="1367.1875" x2="1609.8958" y1="318.2607" y2="318.2607"/><text fill="#D8BC00" font-family="Open Sans,Avenir,Nunito,Arial,Helvetica,SansSerif" font-size="11.4583" lengthAdjust="spacing" textLength="64.5833" x="1613.0208" y="322.0703">(filesystem)</text><line style="stroke:#5E5E5E;stroke-width:1.0416666666666667;" x1="1680.7292" x2="1923.4375" y1="318.2607" y2="318.2607"/><!--MD5=[9ba173eb5680e013adbbda04deea3881]
class Microservlet--><rect fill="#282828" height="48.055" id="Microservlet" rx="8.3333" ry="8.3333" style="stroke:#5E5E5E;stroke-width:1.0416666666666667;" width="116.6667" x="1586.9792" y="469.3278"/><rect fill="#1B1B1A" height="31.3883" rx="8.3333" ry="8.3333" style="stroke:#1B1B1A;stroke-width:1.0416666666666667;" width="116.6667" x="1586.9792" y="469.3278"/><rect fill="#1B1B1A" height="8.3333" style="stroke:#1B1B1A;stroke-width:1.0416666666666667;" width="116.6667" x="1586.9792" y="492.3828"/><rect fill="none" height="48.055" id="Microservlet" rx="8.3333" ry="8.3333" style="stroke:#5E5E5E;stroke-width:1.0416666666666667;" width="116.6667" x="1586.9792" y="469.3278"/><ellipse cx="1601.5625" cy="485.022" fill="#0066CF" rx="10.4167" ry="10.4167" style="stroke:#0086EF;stroke-width:1.0416666666666667;"/><path d="M1603.4729,489.447 Q1603.0457,489.6667 1602.5757,489.7766 Q1602.1057,489.8865 1601.5869,489.8865 Q1599.7437,489.8865 1598.7732,488.6719 Q1597.8027,487.4573 1597.8027,485.1624 Q1597.8027,482.8613 1598.7732,481.6467 Q1599.7437,480.4321 1601.5869,480.4321 Q1602.1057,480.4321 1602.5818,480.542 Q1603.0579,480.6519 1603.4729,480.8716 L1603.4729,482.8735 Q1603.009,482.4463 1602.5726,482.2479 Q1602.1362,482.0496 1601.6724,482.0496 Q1600.6836,482.0496 1600.1801,482.8339 Q1599.6765,483.6182 1599.6765,485.1624 Q1599.6765,486.7004 1600.1801,487.4847 Q1600.6836,488.269 1601.6724,488.269 Q1602.1362,488.269 1602.5726,488.0707 Q1603.009,487.8723 1603.4729,487.4451 Z " fill="#000000"/><text fill="#D8BC00" font-family="Open Sans,Avenir,Nunito,Arial,Helvetica,SansSerif" font-size="12.5" font-weight="bold" lengthAdjust="spacing" textLength="79.1667" x="1618.2292" y="489.7461">Microservlet</text><line style="stroke:#5E5E5E;stroke-width:1.0416666666666667;" x1="1588.0208" x2="1702.6042" y1="500.7161" y2="500.7161"/><line style="stroke:#5E5E5E;stroke-width:1.0416666666666667;" x1="1588.0208" x2="1702.6042" y1="509.0495" y2="509.0495"/><!--MD5=[2333cb1b7b2d5990db2c271c731a49c1]
class MicroservletFutureResponse--><rect codeLine="45" fill="#282828" height="111.4563" id="MicroservletFutureResponse" rx="8.3333" ry="8.3333" style="stroke:#5E5E5E;stroke-width:1.0416666666666667;" width="648.9583" x="680.2083" y="218.807"/><rect fill="#1B1B1A" height="31.3883" rx="8.3333" ry="8.3333" style="stroke:#1B1B1A;stroke-width:1.0416666666666667;" width="648.9583" x="680.2083" y="218.807"/><rect fill="#1B1B1A" height="8.3333" style="stroke:#1B1B1A;stroke-width:1.0416666666666667;" width="648.9583" x="680.2083" y="241.862"/><rect codeLine="45" fill="none" height="111.4563" id="MicroservletFutureResponse" rx="8.3333" ry="8.3333" style="stroke:#5E5E5E;stroke-width:1.0416666666666667;" width="648.9583" x="680.2083" y="218.807"/><ellipse cx="896.3542" cy="234.5011" fill="#0066CF" rx="10.4167" ry="10.4167" style="stroke:#0086EF;stroke-width:1.0416666666666667;"/><path d="M898.2646,238.9262 Q897.8373,239.1459 897.3674,239.2558 Q896.8974,239.3656 896.3786,239.3656 Q894.5353,239.3656 893.5649,238.151 Q892.5944,236.9364 892.5944,234.6415 Q892.5944,232.3405 893.5649,231.1259 Q894.5353,229.9113 896.3786,229.9113 Q896.8974,229.9113 897.3735,230.0212 Q897.8495,230.131 898.2646,230.3507 L898.2646,232.3527 Q897.8007,231.9255 897.3643,231.7271 Q896.9279,231.5287 896.464,231.5287 Q895.4753,231.5287 894.9717,232.313 Q894.4682,233.0973 894.4682,234.6415 Q894.4682,236.1796 894.9717,236.9639 Q895.4753,237.7482 896.464,237.7482 Q896.9279,237.7482 897.3643,237.5498 Q897.8007,237.3515 898.2646,236.9242 Z " fill="#000000"/><text fill="#D8BC00" font-family="Open Sans,Avenir,Nunito,Arial,Helvetica,SansSerif" font-size="12.5" font-weight="bold" lengthAdjust="spacing" textLength="183.3333" x="919.2708" y="239.2253">MicroservletFutureResponse</text><rect fill="#333333" height="23.055" style="stroke:#A0A0A0;stroke-width:1.0416666666666667;stroke-dasharray:2.0,2.0;" width="16.6667" x="1315.625" y="215.682"/><text fill="#A0A0A0" font-family="Open Sans,Avenir,Nunito,Arial,Helvetica,SansSerif" font-size="12.5" font-weight="bold" lengthAdjust="spacing" textLength="8.3333" x="1319.7917" y="231.9336">T</text><line style="stroke:#5E5E5E;stroke-width:1.5625;" x1="681.25" x2="1328.125" y1="250.1953" y2="250.1953"/><ellipse cx="691.6667" cy="285.5652" fill="#84BE84" rx="3.125" ry="3.125" style="stroke:#038048;stroke-width:1.0416666666666667;"/><text fill="#D8BC00" font-family="Open Sans,Avenir,Nunito,Arial,Helvetica,SansSerif" font-size="11.4583" lengthAdjust="spacing" textLength="616.6667" x="703.125" y="292.4764">MicroservletFutureResponse(MicroservletResponderFutureStub, MicroservletGrpcRequestProtobuf, Class&lt;T&gt;)</text><line style="stroke:#5E5E5E;stroke-width:1.0416666666666667;" x1="681.25" x2="960.9375" y1="268.4011" y2="268.4011"/><text fill="#D8BC00" font-family="Open Sans,Avenir,Nunito,Arial,Helvetica,SansSerif" font-size="11.4583" lengthAdjust="spacing" textLength="81.25" x="964.0625" y="272.2107">(constructors)</text><line style="stroke:#5E5E5E;stroke-width:1.0416666666666667;" x1="1048.4375" x2="1328.125" y1="268.4011" y2="268.4011"/><line style="stroke:#5E5E5E;stroke-width:1.0416666666666667;" x1="681.25" x2="1328.125" y1="302.1851" y2="302.1851"/><ellipse cx="691.6667" cy="313.6434" fill="#84BE84" rx="3.125" ry="3.125" style="stroke:#038048;stroke-width:1.0416666666666667;"/><text fill="#D8BC00" font-family="Open Sans,Avenir,Nunito,Arial,Helvetica,SansSerif" font-size="11.4583" lengthAdjust="spacing" textLength="36.4583" x="703.125" y="320.5546">T get()</text><!--MD5=[3d53a1678c1b1b292093d1941c2d0806]
reverse link BaseComponent to MicroserviceGrpcClient--><path codeLine="14" d="M912.2292,100.2965 C843.0104,116.8799 746.1563,140.9736 661.9792,165.1611 C656.0938,166.8486 650.1667,168.5778 644.1875,170.3278 " fill="none" id="BaseComponent-backto-MicroserviceGrpcClient" style="stroke:#545454;stroke-width:1.5625;"/><polygon fill="none" points="910.8229,93.1403,932.7813,95.4007,914.1979,107.3278,910.8229,93.1403" style="stroke:#545454;stroke-width:1.5625;"/><!--MD5=[c2c08bcbd03c6a653c9029de09e4b8fe]
reverse link BaseComponent to MicroserviceGrpcService--><path codeLine="28" d="M1097.4167,99.4007 C1166.7708,115.5361 1263.6667,139.4528 1347.3958,165.1611 C1378.5625,174.734 1411.2708,185.682 1443.125,196.8486 " fill="none" id="BaseComponent-backto-MicroserviceGrpcService" style="stroke:#545454;stroke-width:1.5625;"/><polygon fill="none" points="1095.4792,106.4424,1076.8229,94.6507,1098.7604,92.2236,1095.4792,106.4424" style="stroke:#545454;stroke-width:1.5625;"/><!--MD5=[5d4a1b0a1e476ec057636ea1e3d9f4de]
reverse link Initializable to MicroserviceGrpcService--><path codeLine="29" d="M1588.3646,121.3695 C1596.6146,143.4111 1606.9479,170.9945 1616.5313,196.5986 " fill="none" id="Initializable-backto-MicroserviceGrpcService" style="stroke:#545454;stroke-width:1.5625;"/><polygon fill="none" points="1581.5208,123.8799,1581.0417,101.8174,1595.1771,118.7653,1581.5208,123.8799" style="stroke:#545454;stroke-width:1.5625;"/><!--MD5=[9a255a3b34c4f0cab6fc54c4fb99b022]
reverse link Startable to MicroserviceGrpcService--><path codeLine="30" d="M1472.6667,116.0049 C1497.6771,138.8278 1530.6146,168.8695 1561.0104,196.5986 " fill="none" id="Startable-backto-MicroserviceGrpcService" style="stroke:#545454;stroke-width:1.5625;"/><polygon fill="none" points="1467.5833,121.2445,1457.1042,101.8174,1477.4063,110.4632,1467.5833,121.2445" style="stroke:#545454;stroke-width:1.5625;"/><!--MD5=[e02d49f130d5d48b525d4819cfa25b05]
reverse link Stoppable to MicroserviceGrpcService--><path codeLine="31" d="M1701.4479,121.3695 C1693.3125,143.4111 1683.1354,170.9945 1673.6875,196.5986 " fill="none" id="Stoppable-backto-MicroserviceGrpcService" style="stroke:#545454;stroke-width:1.5625;"/><polygon fill="none" points="1694.6042,118.8382,1708.6563,101.8174,1708.2917,123.8799,1694.6042,118.8382" style="stroke:#545454;stroke-width:1.5625;"/><!--MD5=[2b2d19c75f122b92178f8d2ec2b97ef5]
reverse link MicroservletMountTarget to MicroserviceGrpcService--><path codeLine="32" d="M1857.1458,114.4111 C1826.4375,137.4736 1785.2813,168.3799 1747.4167,196.8174 " fill="none" id="MicroservletMountTarget-backto-MicroserviceGrpcService" style="stroke:#545454;stroke-width:1.5625;"/><polygon fill="none" points="1852.875,108.4945,1873.9167,101.8174,1861.6354,120.1507,1852.875,108.4945" style="stroke:#545454;stroke-width:1.5625;"/><!--MD5=[79b90f9c80eb0540d1f97aa6b1ec8a98]
link MicroserviceGrpcService to Microservlet--><path codeLine="33" d="M1645.3125,352.2757 C1645.3125,390.8486 1645.3125,435.2861 1645.3125,463.557 " fill="none" id="MicroserviceGrpcService-to-Microservlet" style="stroke:#545454;stroke-width:1.5625;"/><polygon fill="#545454" points="1645.3125,468.9945,1649.4792,459.6195,1645.3125,463.7861,1641.1458,459.6195,1645.3125,468.9945" style="stroke:#545454;stroke-width:1.5625;"/><text fill="#A0A0A0" font-family="Open Sans,Avenir,Nunito,Arial,Helvetica,SansSerif" font-size="12.5" font-weight="bold" lengthAdjust="spacing" textLength="50" x="1649.4792" y="431.4128">mounts</text><!--MD5=[d5db73a8784e29260e944b4d7d35a8ca]
reverse link BaseComponent to MicroservletFutureResponse--><path codeLine="44" d="M1004.6875,122.859 C1004.6875,151.2757 1004.6875,188.4111 1004.6875,218.7028 " fill="none" id="BaseComponent-backto-MicroservletFutureResponse" style="stroke:#545454;stroke-width:1.5625;"/><polygon fill="none" points="997.3958,122.6507,1004.6875,101.8174,1011.9792,122.6507,997.3958,122.6507" style="stroke:#545454;stroke-width:1.5625;"/><!--MD5=[ec81c4a11fae6fa8b22c9f0296c30ca8]
@startuml

    !include lexakai.theme
    
    title "com.telenav.kivakit.microservice.protocols.grpc"
    
    abstract BaseComponent
    
    interface Startable
    interface Initializable
    interface Stoppable
    interface MicroservletMountTarget
    
    BaseComponent <|- - MicroserviceGrpcClient
    class MicroserviceGrpcClient
    {
        - -(constructors)- -
        +MicroserviceGrpcClient(Port, Version)
        - -
        +T request(String path, MicroservletRequest, Class<T> responseType)
        +MicroservletFutureResponse<T> requestFuture(String path, MicroservletRequest, Class<T> responseType)
        - -(lifecycle)- -
        +void stop()
        - -(lookup)- -
        #void onRegisterObjectSerializers()
    }
    
    BaseComponent <|- - MicroserviceGrpcService
    Initializable <|- - MicroserviceGrpcService
    Startable <|- - MicroserviceGrpcService
    Stoppable <|- - MicroserviceGrpcService
    MicroservletMountTarget <|- - MicroserviceGrpcService
    MicroserviceGrpcService - -> Microservlet : "mounts"
    class MicroserviceGrpcService
    {
        - -(constructors)- -
        +MicroserviceGrpcService(Microservice<?>)
        - -
        +^void mount(String path, Class<? extends MicroservletRequestHandler> requestHandlerType)
        - -(filesystem)- -
        +void writeProtoFilesTo(Folder)
    }
    
    BaseComponent <|- - MicroservletFutureResponse
    class MicroservletFutureResponse<T>
    {
        - -(constructors)- -
        +MicroservletFutureResponse(MicroservletResponderFutureStub, MicroservletGrpcRequestProtobuf, Class<T>)
        - -
        +T get()
    }
    
@enduml

@startuml









skinparam backgroundColor #333333






skinparam  {
    defaultFontName   "Open Sans,Avenir,Nunito,Arial,Helvetica,SansSerif"
    defaultFontSize   12
    defaultTextAlignment left
    shadowing false
    RoundCorner 10
    TitleFontSize 18
}

skinparam defaultFontName       "Open Sans,Avenir,Nunito,Arial,Helvetica,SansSerif"
skinparam defaultFontSize       12
skinparam dpi                   100
skinparam shadowing             false
skinparam roundcorner           16
skinparam ParticipantPadding    40
skinparam BoxPadding            40
skinparam Padding               3
skinparam ArrowColor            #545454
skinparam stereotype {
    CBackgroundColor #0066cf
    CBorderColor #0086ef
    ABackgroundColor #C8Ac00
    ABorderColor #D8Bc00
    IBackgroundColor #008400
    IBorderColor #239c23
    EBackgroundColor #cf6300
    EBorderColor #ef8300
    NBackgroundColor #3380b9
    NBorderColor #004d86
}
skinparam title {
	FontColor	                 #c0c0c0
 	BorderColor                  #545454
	FontSize	    	         20
	BorderRoundCorner            16
	BorderThickness 	         1
	BackgroundColor              #48494b
}


skinparam legend {
	BackgroundColor #303030
	BorderColor #404040
	FontColor #a0a0a0
}

	skinparam swimlane {
	BorderColor #5e5e5e
	BorderThickness 2
	TitleBackgroundColor  #6d6d6d-#484848
	TitleFontColor #303030
}

skinparam activity {
		FontColor #C8Ac00
	BorderColor #333333
	BackgroundColor #333333-#333333
	BarColor #00FF00
	StartColor #0060a8
	EndColor #0060a8
	DiamondBackgroundColor #6d6d6d-#3a3a3a
  	DiamondBorderColor #3a3a3a
  	DiamondFontColor #fefefe
}


skinparam participant {
		FontColor #C8Ac00
	BorderColor #333333
	BackgroundColor #333333-#333333
	ParticipantBorderThickness 2
}


skinparam actor {
		FontColor #C8Ac00
	BorderColor #333333
	BackgroundColor #333333-#333333
}


skinparam arrow {
	Thickness 1.5
	Color #545454
	FontColor #a0a0a0
    FontStyle bold
    MessageAlignment center
}



skinparam sequence {
	BorderColor #303030
	TitleFontColor #303030
	BackgroundColor #333333
	StartColor #303030
	EndColor #303030
	BoxBackgroundColor #333333
	BoxBorderColor #484848
	BoxFontColor #484848
	LifeLineBorderColor #484848
	LifeLineBorderThickness 2
	LifeLineBackgroundColor #3a3a3a
	GroupBorderColor #484848
	GroupFontColor #484848
	GroupHeaderFontColor #0060a8
	GroupBackgroundColor #484848
	GroupHeaderBackgroundColor #333333
	DividerBackgroundColor #484848
    DividerBorderColor #484848
    DividerBorderThickness 2
    DividerFontColor #D8Bc00
	ReferenceBackgroundColor #333333
	ReferenceBorderColor #484848
	ReferenceFontColor #fefefe
	ReferenceHeaderBackgroundColor #484848
}


skinparam partition {
	BorderColor #303030
	FontColor #333333
	BackgroundColor #333333
}


skinparam collections {
		FontColor #C8Ac00
	BorderColor #333333
	BackgroundColor #333333-#333333
}


skinparam control {
		FontColor #C8Ac00
	BorderColor #333333
	BackgroundColor #333333-#333333
}


skinparam entity {
		FontColor #C8Ac00
	BorderColor #333333
	BackgroundColor #333333-#333333
}


skinparam boundary {
		FontColor #C8Ac00
	BorderColor #333333
	BackgroundColor #333333-#333333
}


skinparam agent {
	BackgroundColor #ff8000
	BorderColor #ff9933
	FontColor #484848
}


skinparam note {
	BorderThickness 1
	BackgroundColor #1b1b1a
	BorderColor #5e5e5e
	FontSize 11
	FontColor #a0a0a0
}


skinparam artifact {
	BorderThickness 10
	BorderColor #5e5e5e
	BackgroundColor #1b1b1a
	FontColor #D8Bc00
}


skinparam component {
		FontColor #C8Ac00
	BorderColor #333333
	BackgroundColor #333333-#333333
}


skinparam interface {
	BackgroundColor  #008400
	BorderColor  #007F00
	FontColor #484848
}


skinparam storage {
	BackgroundColor #ff8000
  	BorderColor #cc6600
	FontColor #222222
}


skinparam node {
	BackgroundColor #333333
	BorderColor #333333
	FontColor #C8Ac00
}


skinparam cloud {
	BackgroundColor #484848-black
	BorderColor #484848
	FontColor #D8Bc00
}


skinparam database {
		FontColor #C8Ac00
	BorderColor #333333
	BackgroundColor #333333-#333333
	BackgroundColor  #333333
}


skinparam class {
		FontColor #C8Ac00
	BorderColor #333333
	BackgroundColor #333333-#333333
	HeaderBackgroundColor #1b1b1a
    BackgroundColor #282828
    BorderColor #5e5e5e
 	StereotypeFontColor #a0a0a0
    StereotypeFontStyle bold
	BorderThickness 1
	AttributeFontColor #D8Bc00
	AttributeFontSize 11
    FontColor #D8Bc00
    FontStyle bold
}


skinparam object {
		FontColor #C8Ac00
	BorderColor #333333
	BackgroundColor #333333-#333333
	StereotypeFontColor #484848
	BorderThickness 1
	AttributeFontColor #fefefe
	AttributeFontSize 11
}


skinparam usecase {
		FontColor #C8Ac00
	BorderColor #333333
	BackgroundColor #333333-#333333
	BorderThickness 2
	StereotypeFontColor #303030
}


skinparam rectangle {
		FontColor #C8Ac00
	BorderColor #333333
	BackgroundColor #333333-#333333
	BackgroundColor #333333
	BorderThickness 2
	StereotypeFontColor #303030
}


skinparam package {
		FontColor #C8Ac00
	BorderColor #333333
	BackgroundColor #333333-#333333
	BackgroundColor #333333
	BorderThickness 2
}


skinparam folder {
	BackgroundColor #6d6d6d
  	BorderColor #ff8000
	FontColor #ff8000
	BorderThickness 2
}


skinparam frame {
	BackgroundColor #6d6d6d
  	BorderColor #0060a8
	FontColor #0060a8
	BorderThickness 2
}


skinparam state {
		FontColor #C8Ac00
	BorderColor #333333
	BackgroundColor #333333-#333333
	StartColor #0060a8
	EndColor #0060a8
	AttributeFontColor #fefefe
	AttributeFontSize 11
}


skinparam queue {
		FontColor #C8Ac00
	BorderColor #333333
	BackgroundColor #333333-#333333
}


skinparam card {
	BackgroundColor #0060a8
	BorderColor #004d86
	FontColor $INFO_TEXT
}


skinparam file {
	BackgroundColor #6d6d6d-#484848
	BorderColor #0060a8
	FontColor #fefefe
}


skinparam stack {
		FontColor #C8Ac00
	BorderColor #333333
	BackgroundColor #333333-#333333
}

    
    title "com.telenav.kivakit.microservice.protocols.grpc"
    
    abstract BaseComponent
    
    interface Startable
    interface Initializable
    interface Stoppable
    interface MicroservletMountTarget
    
    BaseComponent <|- - MicroserviceGrpcClient
    class MicroserviceGrpcClient
    {
        - -(constructors)- -
        +MicroserviceGrpcClient(Port, Version)
        - -
        +T request(String path, MicroservletRequest, Class<T> responseType)
        +MicroservletFutureResponse<T> requestFuture(String path, MicroservletRequest, Class<T> responseType)
        - -(lifecycle)- -
        +void stop()
        - -(lookup)- -
        #void onRegisterObjectSerializers()
    }
    
    BaseComponent <|- - MicroserviceGrpcService
    Initializable <|- - MicroserviceGrpcService
    Startable <|- - MicroserviceGrpcService
    Stoppable <|- - MicroserviceGrpcService
    MicroservletMountTarget <|- - MicroserviceGrpcService
    MicroserviceGrpcService - -> Microservlet : "mounts"
    class MicroserviceGrpcService
    {
        - -(constructors)- -
        +MicroserviceGrpcService(Microservice<?>)
        - -
        +^void mount(String path, Class<? extends MicroservletRequestHandler> requestHandlerType)
        - -(filesystem)- -
        +void writeProtoFilesTo(Folder)
    }
    
    BaseComponent <|- - MicroservletFutureResponse
    class MicroservletFutureResponse<T>
    {
        - -(constructors)- -
        +MicroservletFutureResponse(MicroservletResponderFutureStub, MicroservletGrpcRequestProtobuf, Class<T>)
        - -
        +T get()
    }
    
@enduml

PlantUML version 1.2021.01(Tue Feb 02 00:55:08 MST 2021)
(GPL source distribution)
Java Runtime: OpenJDK Runtime Environment
JVM: OpenJDK 64-Bit Server VM
Default Encoding: UTF-8
Language: en
Country: US
--></g></svg>