<?xml version="1.0" encoding="UTF-8" standalone="no"?><svg xmlns="http://www.w3.org/2000/svg" xmlns:xlink="http://www.w3.org/1999/xlink" contentScriptType="application/ecmascript" contentStyleType="text/css" height="630.2083px" preserveAspectRatio="none" style="width:920px;height:630px;background:#333333;" version="1.1" viewBox="0 0 920 630" width="920.8333px" zoomAndPan="magnify"><defs/><g><rect fill="#48494B" height="41.2028" rx="8.3333" ry="8.3333" style="stroke:#545454;stroke-width:1.0416666666666667;" width="408.3333" x="249.2188" y="2.0833"/><text fill="#C0C0C0" font-family="Open Sans,Avenir,Nunito,Arial,Helvetica,SansSerif" font-size="20.8333" lengthAdjust="spacing" textLength="385.4167" x="260.6771" y="30.5583">com.telenav.kivakit.core.language.trait</text><rect codeLine="7" fill="#282828" height="48.055" id="Repeater" rx="8.3333" ry="8.3333" style="stroke:#5E5E5E;stroke-width:1.0416666666666667;" width="93.75" x="7.2917" y="282.8695"/><rect fill="#1B1B1A" height="31.3883" rx="8.3333" ry="8.3333" style="stroke:#1B1B1A;stroke-width:1.0416666666666667;" width="93.75" x="7.2917" y="282.8695"/><rect fill="#1B1B1A" height="8.3333" style="stroke:#1B1B1A;stroke-width:1.0416666666666667;" width="93.75" x="7.2917" y="305.9245"/><rect codeLine="7" fill="none" height="48.055" id="Repeater" rx="8.3333" ry="8.3333" style="stroke:#5E5E5E;stroke-width:1.0416666666666667;" width="93.75" x="7.2917" y="282.8695"/><ellipse cx="21.875" cy="298.5636" fill="#008400" rx="10.4167" ry="10.4167" style="stroke:#239C23;stroke-width:1.0416666666666667;"/><path d="M19.279,295.7255 L19.279,294.1386 L24.705,294.1386 L24.705,295.7255 L22.8923,295.7255 L22.8923,301.6642 L24.705,301.6642 L24.705,303.2511 L19.279,303.2511 L19.279,301.6642 L21.0917,301.6642 L21.0917,295.7255 Z " fill="#000000"/><text fill="#D8BC00" font-family="Open Sans,Avenir,Nunito,Arial,Helvetica,SansSerif" font-size="12.5" font-style="italic" font-weight="bold" lengthAdjust="spacing" textLength="56.25" x="38.5417" y="303.2878">Repeater</text><line style="stroke:#5E5E5E;stroke-width:1.0416666666666667;" x1="8.3333" x2="100" y1="314.2578" y2="314.2578"/><line style="stroke:#5E5E5E;stroke-width:1.0416666666666667;" x1="8.3333" x2="100" y1="322.5911" y2="322.5911"/><rect codeLine="8" fill="#282828" height="48.055" id="ResultTrait" rx="8.3333" ry="8.3333" style="stroke:#5E5E5E;stroke-width:1.0416666666666667;" width="108.3333" x="137.5" y="282.8695"/><rect fill="#1B1B1A" height="31.3883" rx="8.3333" ry="8.3333" style="stroke:#1B1B1A;stroke-width:1.0416666666666667;" width="108.3333" x="137.5" y="282.8695"/><rect fill="#1B1B1A" height="8.3333" style="stroke:#1B1B1A;stroke-width:1.0416666666666667;" width="108.3333" x="137.5" y="305.9245"/><rect codeLine="8" fill="none" height="48.055" id="ResultTrait" rx="8.3333" ry="8.3333" style="stroke:#5E5E5E;stroke-width:1.0416666666666667;" width="108.3333" x="137.5" y="282.8695"/><ellipse cx="152.0833" cy="298.5636" fill="#008400" rx="10.4167" ry="10.4167" style="stroke:#239C23;stroke-width:1.0416666666666667;"/><path d="M149.4873,295.7255 L149.4873,294.1386 L154.9133,294.1386 L154.9133,295.7255 L153.1006,295.7255 L153.1006,301.6642 L154.9133,301.6642 L154.9133,303.2511 L149.4873,303.2511 L149.4873,301.6642 L151.3,301.6642 L151.3,295.7255 Z " fill="#000000"/><text fill="#D8BC00" font-family="Open Sans,Avenir,Nunito,Arial,Helvetica,SansSerif" font-size="12.5" font-style="italic" font-weight="bold" lengthAdjust="spacing" textLength="70.8333" x="168.75" y="303.2878">ResultTrait</text><line style="stroke:#5E5E5E;stroke-width:1.0416666666666667;" x1="138.5417" x2="244.7917" y1="314.2578" y2="314.2578"/><line style="stroke:#5E5E5E;stroke-width:1.0416666666666667;" x1="138.5417" x2="244.7917" y1="322.5911" y2="322.5911"/><rect codeLine="9" fill="#282828" height="48.055" id="TripwireTrait" rx="8.3333" ry="8.3333" style="stroke:#5E5E5E;stroke-width:1.0416666666666667;" width="120.8333" x="282.2917" y="282.8695"/><rect fill="#1B1B1A" height="31.3883" rx="8.3333" ry="8.3333" style="stroke:#1B1B1A;stroke-width:1.0416666666666667;" width="120.8333" x="282.2917" y="282.8695"/><rect fill="#1B1B1A" height="8.3333" style="stroke:#1B1B1A;stroke-width:1.0416666666666667;" width="120.8333" x="282.2917" y="305.9245"/><rect codeLine="9" fill="none" height="48.055" id="TripwireTrait" rx="8.3333" ry="8.3333" style="stroke:#5E5E5E;stroke-width:1.0416666666666667;" width="120.8333" x="282.2917" y="282.8695"/><ellipse cx="296.875" cy="298.5636" fill="#008400" rx="10.4167" ry="10.4167" style="stroke:#239C23;stroke-width:1.0416666666666667;"/><path d="M294.279,295.7255 L294.279,294.1386 L299.705,294.1386 L299.705,295.7255 L297.8923,295.7255 L297.8923,301.6642 L299.705,301.6642 L299.705,303.2511 L294.279,303.2511 L294.279,301.6642 L296.0917,301.6642 L296.0917,295.7255 Z " fill="#000000"/><text fill="#D8BC00" font-family="Open Sans,Avenir,Nunito,Arial,Helvetica,SansSerif" font-size="12.5" font-style="italic" font-weight="bold" lengthAdjust="spacing" textLength="83.3333" x="313.5417" y="303.2878">TripwireTrait</text><line style="stroke:#5E5E5E;stroke-width:1.0416666666666667;" x1="283.3333" x2="402.0833" y1="314.2578" y2="314.2578"/><line style="stroke:#5E5E5E;stroke-width:1.0416666666666667;" x1="283.3333" x2="402.0833" y1="322.5911" y2="322.5911"/><rect codeLine="38" fill="#282828" height="166.5243" id="TryTrait" rx="8.3333" ry="8.3333" style="stroke:#5E5E5E;stroke-width:1.0416666666666667;" width="473.9583" x="440.1042" y="223.4945"/><rect fill="#1B1B1A" height="31.3883" rx="8.3333" ry="8.3333" style="stroke:#1B1B1A;stroke-width:1.0416666666666667;" width="473.9583" x="440.1042" y="223.4945"/><rect fill="#1B1B1A" height="8.3333" style="stroke:#1B1B1A;stroke-width:1.0416666666666667;" width="473.9583" x="440.1042" y="246.5495"/><rect codeLine="38" fill="none" height="166.5243" id="TryTrait" rx="8.3333" ry="8.3333" style="stroke:#5E5E5E;stroke-width:1.0416666666666667;" width="473.9583" x="440.1042" y="223.4945"/><ellipse cx="644.2708" cy="239.1886" fill="#008400" rx="10.4167" ry="10.4167" style="stroke:#239C23;stroke-width:1.0416666666666667;"/><path d="M641.6748,236.3505 L641.6748,234.7636 L647.1008,234.7636 L647.1008,236.3505 L645.2881,236.3505 L645.2881,242.2892 L647.1008,242.2892 L647.1008,243.8761 L641.6748,243.8761 L641.6748,242.2892 L643.4875,242.2892 L643.4875,236.3505 Z " fill="#000000"/><text fill="#D8BC00" font-family="Open Sans,Avenir,Nunito,Arial,Helvetica,SansSerif" font-size="12.5" font-style="italic" font-weight="bold" lengthAdjust="spacing" textLength="51.0417" x="667.1875" y="243.9128">TryTrait</text><line style="stroke:#5E5E5E;stroke-width:1.5625;" x1="441.1458" x2="913.0208" y1="254.8828" y2="254.8828"/><line style="stroke:#5E5E5E;stroke-width:1.0416666666666667;" x1="441.1458" x2="913.0208" y1="263.2161" y2="263.2161"/><ellipse cx="451.5625" cy="274.6745" fill="#84BE84" rx="3.125" ry="3.125" style="stroke:#038048;stroke-width:1.0416666666666667;"/><text fill="#D8BC00" font-family="Open Sans,Avenir,Nunito,Arial,Helvetica,SansSerif" font-size="11.4583" lengthAdjust="spacing" textLength="390.625" x="463.0208" y="281.5857">T tryCatch(UncheckedCode&lt;T&gt;, String message, Object... arguments)</text><ellipse cx="451.5625" cy="294.4194" fill="#84BE84" rx="3.125" ry="3.125" style="stroke:#038048;stroke-width:1.0416666666666667;"/><text fill="#D8BC00" font-family="Open Sans,Avenir,Nunito,Arial,Helvetica,SansSerif" font-size="11.4583" lengthAdjust="spacing" textLength="427.0833" x="463.0208" y="301.3306">boolean tryCatch(UncheckedVoidCode, String message, Object... arguments)</text><ellipse cx="451.5625" cy="314.1642" fill="#84BE84" rx="3.125" ry="3.125" style="stroke:#038048;stroke-width:1.0416666666666667;"/><text fill="#D8BC00" font-family="Open Sans,Avenir,Nunito,Arial,Helvetica,SansSerif" font-size="11.4583" lengthAdjust="spacing" textLength="441.6667" x="463.0208" y="321.0754">void tryCatchThrow(UncheckedVoidCode, String message, Object... arguments)</text><ellipse cx="451.5625" cy="333.9091" fill="#84BE84" rx="3.125" ry="3.125" style="stroke:#038048;stroke-width:1.0416666666666667;"/><text fill="#D8BC00" font-family="Open Sans,Avenir,Nunito,Arial,Helvetica,SansSerif" font-size="11.4583" lengthAdjust="spacing" textLength="426.0417" x="463.0208" y="340.8203">T tryCatchThrow(UncheckedCode&lt;T&gt;, String message, Object... arguments)</text><ellipse cx="451.5625" cy="353.654" fill="#84BE84" rx="3.125" ry="3.125" style="stroke:#038048;stroke-width:1.0416666666666667;"/><text fill="#D8BC00" font-family="Open Sans,Avenir,Nunito,Arial,Helvetica,SansSerif" font-size="11.4583" lengthAdjust="spacing" textLength="337.5" x="463.0208" y="360.5652">T tryFinally(UncheckedCode&lt;T&gt;, UncheckedVoidCode after)</text><ellipse cx="451.5625" cy="373.3988" fill="#84BE84" rx="3.125" ry="3.125" style="stroke:#038048;stroke-width:1.0416666666666667;"/><text fill="#D8BC00" font-family="Open Sans,Avenir,Nunito,Arial,Helvetica,SansSerif" font-size="11.4583" lengthAdjust="spacing" textLength="289.5833" x="463.0208" y="380.3101">void tryFinally(UncheckedVoidCode, Runnable after)</text><rect codeLine="15" fill="#282828" height="170.6909" id="LanguageTrait" rx="8.3333" ry="8.3333" style="stroke:#5E5E5E;stroke-width:1.0416666666666667;" width="433.3333" x="50" y="452.6611"/><rect fill="#1B1B1A" height="31.3883" rx="8.3333" ry="8.3333" style="stroke:#1B1B1A;stroke-width:1.0416666666666667;" width="433.3333" x="50" y="452.6611"/><rect fill="#1B1B1A" height="8.3333" style="stroke:#1B1B1A;stroke-width:1.0416666666666667;" width="433.3333" x="50" y="475.7161"/><rect codeLine="15" fill="none" height="170.6909" id="LanguageTrait" rx="8.3333" ry="8.3333" style="stroke:#5E5E5E;stroke-width:1.0416666666666667;" width="433.3333" x="50" y="452.6611"/><ellipse cx="213.0208" cy="468.3553" fill="#008400" rx="10.4167" ry="10.4167" style="stroke:#239C23;stroke-width:1.0416666666666667;"/><path d="M210.4248,465.5172 L210.4248,463.9303 L215.8508,463.9303 L215.8508,465.5172 L214.0381,465.5172 L214.0381,471.4559 L215.8508,471.4559 L215.8508,473.0428 L210.4248,473.0428 L210.4248,471.4559 L212.2375,471.4559 L212.2375,465.5172 Z " fill="#000000"/><text fill="#D8BC00" font-family="Open Sans,Avenir,Nunito,Arial,Helvetica,SansSerif" font-size="12.5" font-style="italic" font-weight="bold" lengthAdjust="spacing" textLength="92.7083" x="235.9375" y="473.0794">LanguageTrait</text><line style="stroke:#5E5E5E;stroke-width:1.5625;" x1="51.0417" x2="482.2917" y1="484.0495" y2="484.0495"/><line style="stroke:#5E5E5E;stroke-width:1.0416666666666667;" x1="51.0417" x2="482.2917" y1="492.3828" y2="492.3828"/><ellipse cx="61.4583" cy="503.8411" fill="#84BE84" rx="3.125" ry="3.125" style="stroke:#038048;stroke-width:1.0416666666666667;"/><text fill="#D8BC00" font-family="Open Sans,Avenir,Nunito,Arial,Helvetica,SansSerif" font-size="11.4583" lengthAdjust="spacing" textLength="267.7083" x="72.9167" y="510.7524">Out ifNonNullApply(In value, Function&lt;In,Out&gt;)</text><ellipse cx="61.4583" cy="523.586" fill="#84BE84" rx="3.125" ry="3.125" style="stroke:#038048;stroke-width:1.0416666666666667;"/><text fill="#D8BC00" font-family="Open Sans,Avenir,Nunito,Arial,Helvetica,SansSerif" font-size="11.4583" lengthAdjust="spacing" textLength="212.5" x="72.9167" y="530.4972">T ifNullDefault(T value, T defaultValue)</text><ellipse cx="61.4583" cy="567.2424" fill="#84BE84" rx="3.125" ry="3.125" style="stroke:#038048;stroke-width:1.0416666666666667;"/><text fill="#D8BC00" font-family="Open Sans,Avenir,Nunito,Arial,Helvetica,SansSerif" font-size="11.4583" lengthAdjust="spacing" textLength="392.7083" x="72.9167" y="574.1536">boolean isFalseOr(boolean value, String message, Object... arguments)</text><ellipse cx="61.4583" cy="586.9873" fill="#84BE84" rx="3.125" ry="3.125" style="stroke:#038048;stroke-width:1.0416666666666667;"/><text fill="#D8BC00" font-family="Open Sans,Avenir,Nunito,Arial,Helvetica,SansSerif" font-size="11.4583" lengthAdjust="spacing" textLength="401.0417" x="72.9167" y="593.8985">boolean isNonNullOr(Object value, String message, Object... arguments)</text><ellipse cx="61.4583" cy="606.7322" fill="#84BE84" rx="3.125" ry="3.125" style="stroke:#038048;stroke-width:1.0416666666666667;"/><text fill="#D8BC00" font-family="Open Sans,Avenir,Nunito,Arial,Helvetica,SansSerif" font-size="11.4583" lengthAdjust="spacing" textLength="390.625" x="72.9167" y="613.6434">boolean isTrueOr(boolean value, String message, Object... arguments)</text><line style="stroke:#5E5E5E;stroke-width:1.0416666666666667;" x1="51.0417" x2="240.1042" y1="550.0783" y2="550.0783"/><text fill="#D8BC00" font-family="Open Sans,Avenir,Nunito,Arial,Helvetica,SansSerif" font-size="11.4583" lengthAdjust="spacing" textLength="46.875" x="243.2292" y="553.8879">(checks)</text><line style="stroke:#5E5E5E;stroke-width:1.0416666666666667;" x1="293.2292" x2="482.2917" y1="550.0783" y2="550.0783"/><rect codeLine="35" fill="#282828" height="107.2896" id="SilentTryTrait" rx="8.3333" ry="8.3333" style="stroke:#5E5E5E;stroke-width:1.0416666666666667;" width="340.625" x="374.4792" y="53.7028"/><rect fill="#1B1B1A" height="31.3883" rx="8.3333" ry="8.3333" style="stroke:#1B1B1A;stroke-width:1.0416666666666667;" width="340.625" x="374.4792" y="53.7028"/><rect fill="#1B1B1A" height="8.3333" style="stroke:#1B1B1A;stroke-width:1.0416666666666667;" width="340.625" x="374.4792" y="76.7578"/><rect codeLine="35" fill="none" height="107.2896" id="SilentTryTrait" rx="8.3333" ry="8.3333" style="stroke:#5E5E5E;stroke-width:1.0416666666666667;" width="340.625" x="374.4792" y="53.7028"/><ellipse cx="493.75" cy="69.397" fill="#008400" rx="10.4167" ry="10.4167" style="stroke:#239C23;stroke-width:1.0416666666666667;"/><path d="M491.154,66.5588 L491.154,64.9719 L496.58,64.9719 L496.58,66.5588 L494.7673,66.5588 L494.7673,72.4976 L496.58,72.4976 L496.58,74.0845 L491.154,74.0845 L491.154,72.4976 L492.9667,72.4976 L492.9667,66.5588 Z " fill="#000000"/><text fill="#D8BC00" font-family="Open Sans,Avenir,Nunito,Arial,Helvetica,SansSerif" font-size="12.5" font-style="italic" font-weight="bold" lengthAdjust="spacing" textLength="87.5" x="516.6667" y="74.1211">SilentTryTrait</text><line style="stroke:#5E5E5E;stroke-width:1.5625;" x1="375.5208" x2="714.0625" y1="85.0911" y2="85.0911"/><line style="stroke:#5E5E5E;stroke-width:1.0416666666666667;" x1="375.5208" x2="714.0625" y1="93.4245" y2="93.4245"/><ellipse cx="385.9375" cy="104.8828" fill="#84BE84" rx="3.125" ry="3.125" style="stroke:#038048;stroke-width:1.0416666666666667;"/><text fill="#D8BC00" font-family="Open Sans,Avenir,Nunito,Arial,Helvetica,SansSerif" font-size="11.4583" lengthAdjust="spacing" textLength="198.9583" x="397.3958" y="111.794">void tryCatch(UncheckedVoidCode)</text><ellipse cx="385.9375" cy="124.6277" fill="#84BE84" rx="3.125" ry="3.125" style="stroke:#038048;stroke-width:1.0416666666666667;"/><text fill="#D8BC00" font-family="Open Sans,Avenir,Nunito,Arial,Helvetica,SansSerif" font-size="11.4583" lengthAdjust="spacing" textLength="183.3333" x="397.3958" y="131.5389">T tryCatch(UncheckedCode&lt;T&gt;)</text><ellipse cx="385.9375" cy="144.3726" fill="#84BE84" rx="3.125" ry="3.125" style="stroke:#038048;stroke-width:1.0416666666666667;"/><text fill="#D8BC00" font-family="Open Sans,Avenir,Nunito,Arial,Helvetica,SansSerif" font-size="11.4583" lengthAdjust="spacing" textLength="308.3333" x="397.3958" y="151.2838">T tryCatchDefault(UncheckedCode&lt;T&gt;, T defaultValue)</text><rect codeLine="34" fill="#282828" height="48.055" id="Broadcaster" rx="8.3333" ry="8.3333" style="stroke:#5E5E5E;stroke-width:1.0416666666666667;" width="113.5417" x="751.5625" y="83.3903"/><rect fill="#1B1B1A" height="31.3883" rx="8.3333" ry="8.3333" style="stroke:#1B1B1A;stroke-width:1.0416666666666667;" width="113.5417" x="751.5625" y="83.3903"/><rect fill="#1B1B1A" height="8.3333" style="stroke:#1B1B1A;stroke-width:1.0416666666666667;" width="113.5417" x="751.5625" y="106.4453"/><rect codeLine="34" fill="none" height="48.055" id="Broadcaster" rx="8.3333" ry="8.3333" style="stroke:#5E5E5E;stroke-width:1.0416666666666667;" width="113.5417" x="751.5625" y="83.3903"/><ellipse cx="766.1458" cy="99.0845" fill="#008400" rx="10.4167" ry="10.4167" style="stroke:#239C23;stroke-width:1.0416666666666667;"/><path d="M763.5498,96.2463 L763.5498,94.6594 L768.9758,94.6594 L768.9758,96.2463 L767.1631,96.2463 L767.1631,102.1851 L768.9758,102.1851 L768.9758,103.772 L763.5498,103.772 L763.5498,102.1851 L765.3625,102.1851 L765.3625,96.2463 Z " fill="#000000"/><text fill="#D8BC00" font-family="Open Sans,Avenir,Nunito,Arial,Helvetica,SansSerif" font-size="12.5" font-style="italic" font-weight="bold" lengthAdjust="spacing" textLength="76.0417" x="782.8125" y="103.8086">Broadcaster</text><line style="stroke:#5E5E5E;stroke-width:1.0416666666666667;" x1="752.6042" x2="864.0625" y1="114.7786" y2="114.7786"/><line style="stroke:#5E5E5E;stroke-width:1.0416666666666667;" x1="752.6042" x2="864.0625" y1="123.112" y2="123.112"/><path codeLine="11" d="M511,400.609 C480.1771,417.8174 448.125,435.7132 417.7813,452.6611 " fill="none" id="TryTrait-backto-LanguageTrait" style="stroke:#545454;stroke-width:1.5625;"/><polygon fill="none" points="507.75,394.0674,529.4896,390.2757,514.8542,406.807,507.75,394.0674" style="stroke:#545454;stroke-width:1.5625;"/><path codeLine="12" d="M328.3229,351.2236 C318.8438,379.7757 306.125,418.109 294.7083,452.5361 " fill="none" id="TripwireTrait-backto-LanguageTrait" style="stroke:#545454;stroke-width:1.5625;"/><polygon fill="none" points="321.5208,348.5778,335,331.109,335.3542,353.1715,321.5208,348.5778" style="stroke:#545454;stroke-width:1.5625;"/><path codeLine="13" d="M205.8542,351.2236 C215.1979,379.7757 227.7396,418.109 239.0104,452.5361 " fill="none" id="ResultTrait-backto-LanguageTrait" style="stroke:#545454;stroke-width:1.5625;"/><polygon fill="none" points="198.8229,353.1715,199.2708,331.109,212.6771,348.6403,198.8229,353.1715" style="stroke:#545454;stroke-width:1.5625;"/><path codeLine="14" d="M83.8438,347.7132 C94.5,361.4632 106.8333,376.7653 118.75,390.1611 C137.2708,410.9736 158.0417,432.557 178.0104,452.5674 " fill="none" id="Repeater-backto-LanguageTrait" style="stroke:#545454;stroke-width:1.5625;"/><polygon fill="none" points="77.8021,351.8174,70.9792,330.8278,89.4063,342.984,77.8021,351.8174" style="stroke:#545454;stroke-width:1.5625;"/><path codeLine="36" d="M781.375,148.9424 C767.1354,170.359 749.1146,197.4528 732.0833,223.0674 " fill="none" id="Broadcaster-backto-TryTrait" style="stroke:#545454;stroke-width:1.5625;"/><polygon fill="none" points="775.4167,144.734,793.0208,131.4215,787.5521,152.807,775.4167,144.734" style="stroke:#545454;stroke-width:1.5625;"/><path codeLine="37" d="M592.0729,178.9424 C601.7188,193.3382 611.9479,208.5986 621.8438,223.359 " fill="none" id="SilentTryTrait-backto-TryTrait" style="stroke:#545454;stroke-width:1.5625;"/><polygon fill="none" points="585.7813,182.6507,580.2396,161.2861,597.8958,174.5361,585.7813,182.6507" style="stroke:#545454;stroke-width:1.5625;"/></g></svg>
