<?xml version="1.0" encoding="UTF-8" standalone="no"?><svg xmlns="http://www.w3.org/2000/svg" xmlns:xlink="http://www.w3.org/1999/xlink" contentScriptType="application/ecmascript" contentStyleType="text/css" height="692.7083px" preserveAspectRatio="none" style="width:526px;height:692px;background:#333333;" version="1.1" viewBox="0 0 526 692" width="526.0417px" zoomAndPan="magnify"><defs/><g><rect fill="#48494B" height="41.2028" rx="8.3333" ry="8.3333" style="stroke:#545454;stroke-width:1.0416666666666667;" width="513.5417" x="2.0833" y="2.0833"/><text fill="#C0C0C0" font-family="Open Sans,Avenir,Nunito,Arial,Helvetica,SansSerif" font-size="20.8333" lengthAdjust="spacing" textLength="490.625" x="13.5417" y="30.5583">com.telenav.kivakit.core.messaging.broadcasters</text><!--MD5=[44642bf1951becf690e71f855555764a]
class Broadcaster--><rect codeLine="7" fill="#282828" height="48.055" id="Broadcaster" rx="8.3333" ry="8.3333" style="stroke:#5E5E5E;stroke-width:1.0416666666666667;" width="113.5417" x="209.375" y="53.7028"/><rect fill="#1B1B1A" height="31.3883" rx="8.3333" ry="8.3333" style="stroke:#1B1B1A;stroke-width:1.0416666666666667;" width="113.5417" x="209.375" y="53.7028"/><rect fill="#1B1B1A" height="8.3333" style="stroke:#1B1B1A;stroke-width:1.0416666666666667;" width="113.5417" x="209.375" y="76.7578"/><rect codeLine="7" fill="none" height="48.055" id="Broadcaster" rx="8.3333" ry="8.3333" style="stroke:#5E5E5E;stroke-width:1.0416666666666667;" width="113.5417" x="209.375" y="53.7028"/><ellipse cx="223.9583" cy="69.397" fill="#008400" rx="10.4167" ry="10.4167" style="stroke:#239C23;stroke-width:1.0416666666666667;"/><path d="M221.3623,66.5588 L221.3623,64.9719 L226.7883,64.9719 L226.7883,66.5588 L224.9756,66.5588 L224.9756,72.4976 L226.7883,72.4976 L226.7883,74.0845 L221.3623,74.0845 L221.3623,72.4976 L223.175,72.4976 L223.175,66.5588 Z " fill="#000000"/><text fill="#D8BC00" font-family="Open Sans,Avenir,Nunito,Arial,Helvetica,SansSerif" font-size="12.5" font-style="italic" font-weight="bold" lengthAdjust="spacing" textLength="76.0417" x="240.625" y="74.1211">Broadcaster</text><line style="stroke:#5E5E5E;stroke-width:1.0416666666666667;" x1="210.4167" x2="321.875" y1="85.0911" y2="85.0911"/><line style="stroke:#5E5E5E;stroke-width:1.0416666666666667;" x1="210.4167" x2="321.875" y1="93.4245" y2="93.4245"/><!--MD5=[a55b2a1f62e9d2a601cfebbabb1e84b9]
class AudienceMember--><rect codeLine="11" fill="#282828" height="103.123" id="AudienceMember" rx="8.3333" ry="8.3333" style="stroke:#5E5E5E;stroke-width:1.0416666666666667;" width="236.4583" x="147.9167" y="472.4528"/><rect fill="#1B1B1A" height="31.3883" rx="8.3333" ry="8.3333" style="stroke:#1B1B1A;stroke-width:1.0416666666666667;" width="236.4583" x="147.9167" y="472.4528"/><rect fill="#1B1B1A" height="8.3333" style="stroke:#1B1B1A;stroke-width:1.0416666666666667;" width="236.4583" x="147.9167" y="495.5078"/><rect codeLine="11" fill="none" height="103.123" id="AudienceMember" rx="8.3333" ry="8.3333" style="stroke:#5E5E5E;stroke-width:1.0416666666666667;" width="236.4583" x="147.9167" y="472.4528"/><ellipse cx="203.125" cy="488.147" fill="#0066CF" rx="10.4167" ry="10.4167" style="stroke:#0086EF;stroke-width:1.0416666666666667;"/><path d="M205.0354,492.572 Q204.6082,492.7917 204.1382,492.9016 Q203.6682,493.0115 203.1494,493.0115 Q201.3062,493.0115 200.3357,491.7969 Q199.3652,490.5823 199.3652,488.2874 Q199.3652,485.9863 200.3357,484.7717 Q201.3062,483.5571 203.1494,483.5571 Q203.6682,483.5571 204.1443,483.667 Q204.6204,483.7769 205.0354,483.9966 L205.0354,485.9985 Q204.5715,485.5713 204.1351,485.3729 Q203.6987,485.1746 203.2349,485.1746 Q202.2461,485.1746 201.7426,485.9589 Q201.239,486.7432 201.239,488.2874 Q201.239,489.8254 201.7426,490.6097 Q202.2461,491.394 203.2349,491.394 Q203.6987,491.394 204.1351,491.1957 Q204.5715,490.9973 205.0354,490.5701 Z " fill="#000000"/><text fill="#D8BC00" font-family="Open Sans,Avenir,Nunito,Arial,Helvetica,SansSerif" font-size="12.5" font-weight="bold" lengthAdjust="spacing" textLength="111.4583" x="226.0417" y="492.8711">AudienceMember</text><line style="stroke:#5E5E5E;stroke-width:1.5625;" x1="148.9583" x2="383.3333" y1="503.8411" y2="503.8411"/><ellipse cx="159.375" cy="539.211" fill="#84BE84" rx="3.125" ry="3.125" style="stroke:#038048;stroke-width:1.0416666666666667;"/><text fill="#D8BC00" font-family="Open Sans,Avenir,Nunito,Arial,Helvetica,SansSerif" font-size="11.4583" lengthAdjust="spacing" textLength="97.9167" x="170.8333" y="546.1222">Listener listener()</text><ellipse cx="159.375" cy="558.9559" fill="#84BE84" rx="3.125" ry="3.125" style="stroke:#038048;stroke-width:1.0416666666666667;"/><text fill="#D8BC00" font-family="Open Sans,Avenir,Nunito,Arial,Helvetica,SansSerif" font-size="11.4583" lengthAdjust="spacing" textLength="204.1667" x="170.8333" y="565.8671">void receive(Transmittable message)</text><line style="stroke:#5E5E5E;stroke-width:1.0416666666666667;" x1="148.9583" x2="228.6458" y1="522.0469" y2="522.0469"/><text fill="#D8BC00" font-family="Open Sans,Avenir,Nunito,Arial,Helvetica,SansSerif" font-size="11.4583" lengthAdjust="spacing" textLength="68.75" x="231.7708" y="525.8565">(messaging)</text><line style="stroke:#5E5E5E;stroke-width:1.0416666666666667;" x1="303.6458" x2="383.3333" y1="522.0469" y2="522.0469"/><!--MD5=[085076096658226fe7d3ac7a26d9b629]
class Listener--><rect fill="#282828" height="48.055" id="Listener" rx="8.3333" ry="8.3333" style="stroke:#5E5E5E;stroke-width:1.0416666666666667;" width="89.5833" x="163.0208" y="638.0778"/><rect fill="#1B1B1A" height="31.3883" rx="8.3333" ry="8.3333" style="stroke:#1B1B1A;stroke-width:1.0416666666666667;" width="89.5833" x="163.0208" y="638.0778"/><rect fill="#1B1B1A" height="8.3333" style="stroke:#1B1B1A;stroke-width:1.0416666666666667;" width="89.5833" x="163.0208" y="661.1328"/><rect fill="none" height="48.055" id="Listener" rx="8.3333" ry="8.3333" style="stroke:#5E5E5E;stroke-width:1.0416666666666667;" width="89.5833" x="163.0208" y="638.0778"/><ellipse cx="177.6042" cy="653.772" fill="#0066CF" rx="10.4167" ry="10.4167" style="stroke:#0086EF;stroke-width:1.0416666666666667;"/><path d="M179.5146,658.197 Q179.0873,658.4167 178.6174,658.5266 Q178.1474,658.6365 177.6286,658.6365 Q175.7853,658.6365 174.8149,657.4219 Q173.8444,656.2073 173.8444,653.9124 Q173.8444,651.6113 174.8149,650.3967 Q175.7853,649.1821 177.6286,649.1821 Q178.1474,649.1821 178.6235,649.292 Q179.0995,649.4019 179.5146,649.6216 L179.5146,651.6235 Q179.0507,651.1963 178.6143,650.9979 Q178.1779,650.7996 177.714,650.7996 Q176.7253,650.7996 176.2217,651.5839 Q175.7182,652.3682 175.7182,653.9124 Q175.7182,655.4504 176.2217,656.2347 Q176.7253,657.019 177.714,657.019 Q178.1779,657.019 178.6143,656.8207 Q179.0507,656.6223 179.5146,656.1951 Z " fill="#000000"/><text fill="#D8BC00" font-family="Open Sans,Avenir,Nunito,Arial,Helvetica,SansSerif" font-size="12.5" font-weight="bold" lengthAdjust="spacing" textLength="52.0833" x="194.2708" y="658.4961">Listener</text><line style="stroke:#5E5E5E;stroke-width:1.0416666666666667;" x1="164.0625" x2="251.5625" y1="669.4661" y2="669.4661"/><line style="stroke:#5E5E5E;stroke-width:1.0416666666666667;" x1="164.0625" x2="251.5625" y1="677.7995" y2="677.7995"/><!--MD5=[bddb511951cf0a1d6a79f67b0c2ed87d]
class Filter--><rect fill="#282828" height="48.055" id="Filter" rx="8.3333" ry="8.3333" style="stroke:#5E5E5E;stroke-width:1.0416666666666667;" width="70.8333" x="289.0625" y="638.0778"/><rect fill="#1B1B1A" height="31.3883" rx="8.3333" ry="8.3333" style="stroke:#1B1B1A;stroke-width:1.0416666666666667;" width="70.8333" x="289.0625" y="638.0778"/><rect fill="#1B1B1A" height="8.3333" style="stroke:#1B1B1A;stroke-width:1.0416666666666667;" width="70.8333" x="289.0625" y="661.1328"/><rect fill="none" height="48.055" id="Filter" rx="8.3333" ry="8.3333" style="stroke:#5E5E5E;stroke-width:1.0416666666666667;" width="70.8333" x="289.0625" y="638.0778"/><ellipse cx="303.6458" cy="653.772" fill="#0066CF" rx="10.4167" ry="10.4167" style="stroke:#0086EF;stroke-width:1.0416666666666667;"/><path d="M305.5562,658.197 Q305.129,658.4167 304.659,658.5266 Q304.189,658.6365 303.6702,658.6365 Q301.827,658.6365 300.8565,657.4219 Q299.8861,656.2073 299.8861,653.9124 Q299.8861,651.6113 300.8565,650.3967 Q301.827,649.1821 303.6702,649.1821 Q304.189,649.1821 304.6651,649.292 Q305.1412,649.4019 305.5562,649.6216 L305.5562,651.6235 Q305.0924,651.1963 304.656,650.9979 Q304.2196,650.7996 303.7557,650.7996 Q302.7669,650.7996 302.2634,651.5839 Q301.7598,652.3682 301.7598,653.9124 Q301.7598,655.4504 302.2634,656.2347 Q302.7669,657.019 303.7557,657.019 Q304.2196,657.019 304.656,656.8207 Q305.0924,656.6223 305.5562,656.1951 Z " fill="#000000"/><text fill="#D8BC00" font-family="Open Sans,Avenir,Nunito,Arial,Helvetica,SansSerif" font-size="12.5" font-weight="bold" lengthAdjust="spacing" textLength="33.3333" x="320.3125" y="658.4961">Filter</text><line style="stroke:#5E5E5E;stroke-width:1.0416666666666667;" x1="290.1042" x2="358.8542" y1="669.4661" y2="669.4661"/><line style="stroke:#5E5E5E;stroke-width:1.0416666666666667;" x1="290.1042" x2="358.8542" y1="677.7995" y2="677.7995"/><!--MD5=[873ba24e1a4ad5eb78e001e5b8541c33]
class Multicaster--><rect codeLine="20" fill="#282828" height="245.5037" id="Multicaster" rx="8.3333" ry="8.3333" style="stroke:#5E5E5E;stroke-width:1.0416666666666667;" width="195.8333" x="168.2292" y="164.1195"/><rect fill="#1B1B1A" height="31.3883" rx="8.3333" ry="8.3333" style="stroke:#1B1B1A;stroke-width:1.0416666666666667;" width="195.8333" x="168.2292" y="164.1195"/><rect fill="#1B1B1A" height="8.3333" style="stroke:#1B1B1A;stroke-width:1.0416666666666667;" width="195.8333" x="168.2292" y="187.1745"/><rect codeLine="20" fill="none" height="245.5037" id="Multicaster" rx="8.3333" ry="8.3333" style="stroke:#5E5E5E;stroke-width:1.0416666666666667;" width="195.8333" x="168.2292" y="164.1195"/><ellipse cx="222.9167" cy="179.8136" fill="#0066CF" rx="10.4167" ry="10.4167" style="stroke:#0086EF;stroke-width:1.0416666666666667;"/><path d="M224.8271,184.2387 Q224.3998,184.4584 223.9299,184.5683 Q223.4599,184.6781 222.9411,184.6781 Q221.0978,184.6781 220.1274,183.4635 Q219.1569,182.2489 219.1569,179.954 Q219.1569,177.653 220.1274,176.4384 Q221.0978,175.2238 222.9411,175.2238 Q223.4599,175.2238 223.936,175.3337 Q224.412,175.4435 224.8271,175.6632 L224.8271,177.6652 Q224.3632,177.238 223.9268,177.0396 Q223.4904,176.8412 223.0265,176.8412 Q222.0378,176.8412 221.5342,177.6255 Q221.0307,178.4098 221.0307,179.954 Q221.0307,181.4921 221.5342,182.2764 Q222.0378,183.0607 223.0265,183.0607 Q223.4904,183.0607 223.9268,182.8623 Q224.3632,182.664 224.8271,182.2367 Z " fill="#000000"/><text fill="#D8BC00" font-family="Open Sans,Avenir,Nunito,Arial,Helvetica,SansSerif" font-size="12.5" font-weight="bold" lengthAdjust="spacing" textLength="71.875" x="245.8333" y="184.5378">Multicaster</text><line style="stroke:#5E5E5E;stroke-width:1.5625;" x1="169.2708" x2="363.0208" y1="195.5078" y2="195.5078"/><polygon fill="#FFFF44" points="179.6875,225.6694,183.8542,229.836,179.6875,234.0027,175.5208,229.836" style="stroke:#B38D22;stroke-width:1.0416666666666667;"/><text fill="#D8BC00" font-family="Open Sans,Avenir,Nunito,Arial,Helvetica,SansSerif" font-size="11.4583" lengthAdjust="spacing" textLength="69.7917" x="191.1458" y="237.7889">Multicaster()</text><polygon fill="#FFFF44" points="179.6875,245.4142,183.8542,249.5809,179.6875,253.7476,175.5208,249.5809" style="stroke:#B38D22;stroke-width:1.0416666666666667;"/><text fill="#D8BC00" font-family="Open Sans,Avenir,Nunito,Arial,Helvetica,SansSerif" font-size="11.4583" lengthAdjust="spacing" textLength="131.25" x="191.1458" y="257.5338">Multicaster(Multicaster)</text><polygon fill="#FFFF44" points="179.6875,265.1591,183.8542,269.3258,179.6875,273.4924,175.5208,269.3258" style="stroke:#B38D22;stroke-width:1.0416666666666667;"/><text fill="#D8BC00" font-family="Open Sans,Avenir,Nunito,Arial,Helvetica,SansSerif" font-size="11.4583" lengthAdjust="spacing" textLength="103.125" x="191.1458" y="277.2786">Multicaster(String)</text><ellipse cx="179.6875" cy="290.1123" fill="#84BE84" rx="3.125" ry="3.125" style="stroke:#038048;stroke-width:1.0416666666666667;"/><text fill="#D8BC00" font-family="Open Sans,Avenir,Nunito,Arial,Helvetica,SansSerif" font-size="11.4583" lengthAdjust="spacing" textLength="123.9583" x="191.1458" y="297.0235">Multicaster(Class&lt;?&gt;)</text><ellipse cx="179.6875" cy="309.8572" fill="#84BE84" rx="3.125" ry="3.125" style="stroke:#038048;stroke-width:1.0416666666666667;"/><text fill="#D8BC00" font-family="Open Sans,Avenir,Nunito,Arial,Helvetica,SansSerif" font-size="11.4583" lengthAdjust="spacing" textLength="163.5417" x="191.1458" y="316.7684">Multicaster(String, Class&lt;?&gt;)</text><line style="stroke:#5E5E5E;stroke-width:1.0416666666666667;" x1="169.2708" x2="222.3958" y1="213.7136" y2="213.7136"/><text fill="#D8BC00" font-family="Open Sans,Avenir,Nunito,Arial,Helvetica,SansSerif" font-size="11.4583" lengthAdjust="spacing" textLength="81.25" x="225.5208" y="217.5232">(constructors)</text><line style="stroke:#5E5E5E;stroke-width:1.0416666666666667;" x1="309.8958" x2="363.0208" y1="213.7136" y2="213.7136"/><ellipse cx="179.6875" cy="353.5136" fill="#84BE84" rx="3.125" ry="3.125" style="stroke:#038048;stroke-width:1.0416666666666667;"/><text fill="#D8BC00" font-family="Open Sans,Avenir,Nunito,Arial,Helvetica,SansSerif" font-size="11.4583" lengthAdjust="spacing" textLength="90.625" x="191.1458" y="360.4248">boolean isDeaf()</text><ellipse cx="179.6875" cy="373.2585" fill="#84BE84" rx="3.125" ry="3.125" style="stroke:#038048;stroke-width:1.0416666666666667;"/><text fill="#D8BC00" font-family="Open Sans,Avenir,Nunito,Arial,Helvetica,SansSerif" font-size="11.4583" lengthAdjust="spacing" textLength="157.2917" x="191.1458" y="380.1697">List&lt;String&gt; listenerChain()</text><ellipse cx="179.6875" cy="393.0033" fill="#84BE84" rx="3.125" ry="3.125" style="stroke:#038048;stroke-width:1.0416666666666667;"/><text fill="#D8BC00" font-family="Open Sans,Avenir,Nunito,Arial,Helvetica,SansSerif" font-size="11.4583" lengthAdjust="spacing" textLength="111.4583" x="191.1458" y="399.9146">String listenerTree()</text><line style="stroke:#5E5E5E;stroke-width:1.0416666666666667;" x1="169.2708" x2="228.6458" y1="336.3495" y2="336.3495"/><text fill="#D8BC00" font-family="Open Sans,Avenir,Nunito,Arial,Helvetica,SansSerif" font-size="11.4583" lengthAdjust="spacing" textLength="68.75" x="231.7708" y="340.1591">(messaging)</text><line style="stroke:#5E5E5E;stroke-width:1.0416666666666667;" x1="303.6458" x2="363.0208" y1="336.3495" y2="336.3495"/><!--MD5=[39a181cac5526d92d84037827ac9aa45]
reverse link AudienceMember to Listener--><path codeLine="9" d="M238.9479,588.4528 C231.3333,606.1924 223.5417,624.3486 217.6563,638.057 " fill="none" id="AudienceMember-backto-Listener" style="stroke:#545454;stroke-width:1.5625;"/><polygon fill="#333333" points="244.4271,575.6715,238.1365,579.7767,239.5064,587.1623,245.797,583.0571,244.4271,575.6715" style="stroke:#545454;stroke-width:1.5625;"/><!--MD5=[4b4c57f4e920e4b761e40f320ffe151d]
reverse link AudienceMember to Filter--><path codeLine="10" d="M293.3438,588.4528 C300.9583,606.1924 308.75,624.3486 314.6354,638.057 " fill="none" id="AudienceMember-backto-Filter" style="stroke:#545454;stroke-width:1.5625;"/><polygon fill="#333333" points="287.8646,575.6715,286.4947,583.0571,292.7853,587.1623,294.1552,579.7767,287.8646,575.6715" style="stroke:#545454;stroke-width:1.5625;"/><!--MD5=[34fbd23c56651f111d903632f001ca95]
reverse link Broadcaster to Multicaster--><path codeLine="18" d="M266.1458,122.5778 C266.1458,135.0674 266.1458,149.307 266.1458,164.057 " fill="none" id="Broadcaster-backto-Multicaster" style="stroke:#545454;stroke-width:1.5625;"/><polygon fill="none" points="258.8542,122.5153,266.1458,101.682,273.4375,122.5153,258.8542,122.5153" style="stroke:#545454;stroke-width:1.5625;"/><!--MD5=[f5dda83dfb732df56896ad1d6cb40bd4]
reverse link Multicaster to AudienceMember--><path codeLine="19" d="M266.1458,423.8695 C266.1458,441.057 266.1458,457.7028 266.1458,472.2965 " fill="none" id="Multicaster-backto-AudienceMember" style="stroke:#545454;stroke-width:1.5625;"/><polygon fill="#333333" points="266.1458,409.9945,261.9792,416.2445,266.1458,422.4945,270.3125,416.2445,266.1458,409.9945" style="stroke:#545454;stroke-width:1.5625;"/><text fill="#A0A0A0" font-family="Open Sans,Avenir,Nunito,Arial,Helvetica,SansSerif" font-size="12.5" font-weight="bold" lengthAdjust="spacing" textLength="8.3333" x="254.2432" y="433.3462">1</text><text fill="#A0A0A0" font-family="Open Sans,Avenir,Nunito,Arial,Helvetica,SansSerif" font-size="12.5" font-weight="bold" lengthAdjust="spacing" textLength="6.25" x="255.931" y="458.3332">*</text><!--MD5=[7abed0582e2f5d7d691a662330cd3288]
@startuml

    !include lexakai.theme
    
    title "com.telenav.kivakit.core.messaging.broadcasters"
    
    interface Broadcaster
    
    AudienceMember o- - Listener
    AudienceMember o- - Filter
    class AudienceMember
    {
        - -(messaging)- -
        +Listener listener()
        +void receive(Transmittable message)
    }
    
    Broadcaster <|- - Multicaster
    Multicaster "1" o- - "*" AudienceMember
    class Multicaster
    {
        - -(constructors)- -
        #Multicaster()
        #Multicaster(Multicaster)
        #Multicaster(String)
        +Multicaster(Class<?>)
        +Multicaster(String, Class<?>)
        - -(messaging)- -
        +boolean isDeaf()
        +List<String> listenerChain()
        +String listenerTree()
    }
    
@enduml

@startuml









skinparam backgroundColor #333333






skinparam  {
    defaultFontName   "Open Sans,Avenir,Nunito,Arial,Helvetica,SansSerif"
    defaultFontSize   12
    defaultTextAlignment left
    shadowing false
    RoundCorner 10
    TitleFontSize 18
}

skinparam defaultFontName       "Open Sans,Avenir,Nunito,Arial,Helvetica,SansSerif"
skinparam defaultFontSize       12
skinparam dpi                   100
skinparam shadowing             false
skinparam roundcorner           16
skinparam ParticipantPadding    40
skinparam BoxPadding            40
skinparam Padding               3
skinparam ArrowColor            #545454
skinparam stereotype {
    CBackgroundColor #0066cf
    CBorderColor #0086ef
    ABackgroundColor #C8Ac00
    ABorderColor #D8Bc00
    IBackgroundColor #008400
    IBorderColor #239c23
    EBackgroundColor #cf6300
    EBorderColor #ef8300
    NBackgroundColor #3380b9
    NBorderColor #004d86
}
skinparam title {
	FontColor	                 #c0c0c0
 	BorderColor                  #545454
	FontSize	    	         20
	BorderRoundCorner            16
	BorderThickness 	         1
	BackgroundColor              #48494b
}


skinparam legend {
	BackgroundColor #303030
	BorderColor #404040
	FontColor #a0a0a0
}

	skinparam swimlane {
	BorderColor #5e5e5e
	BorderThickness 2
	TitleBackgroundColor  #6d6d6d-#484848
	TitleFontColor #303030
}

skinparam activity {
		FontColor #C8Ac00
	BorderColor #333333
	BackgroundColor #333333-#333333
	BarColor #00FF00
	StartColor #0060a8
	EndColor #0060a8
	DiamondBackgroundColor #6d6d6d-#3a3a3a
  	DiamondBorderColor #3a3a3a
  	DiamondFontColor #fefefe
}


skinparam participant {
		FontColor #C8Ac00
	BorderColor #333333
	BackgroundColor #333333-#333333
	ParticipantBorderThickness 2
}


skinparam actor {
		FontColor #C8Ac00
	BorderColor #333333
	BackgroundColor #333333-#333333
}


skinparam arrow {
	Thickness 1.5
	Color #545454
	FontColor #a0a0a0
    FontStyle bold
    MessageAlignment center
}



skinparam sequence {
	BorderColor #303030
	TitleFontColor #303030
	BackgroundColor #333333
	StartColor #303030
	EndColor #303030
	BoxBackgroundColor #333333
	BoxBorderColor #484848
	BoxFontColor #484848
	LifeLineBorderColor #484848
	LifeLineBorderThickness 2
	LifeLineBackgroundColor #3a3a3a
	GroupBorderColor #484848
	GroupFontColor #484848
	GroupHeaderFontColor #0060a8
	GroupBackgroundColor #484848
	GroupHeaderBackgroundColor #333333
	DividerBackgroundColor #484848
    DividerBorderColor #484848
    DividerBorderThickness 2
    DividerFontColor #D8Bc00
	ReferenceBackgroundColor #333333
	ReferenceBorderColor #484848
	ReferenceFontColor #fefefe
	ReferenceHeaderBackgroundColor #484848
}


skinparam partition {
	BorderColor #303030
	FontColor #333333
	BackgroundColor #333333
}


skinparam collections {
		FontColor #C8Ac00
	BorderColor #333333
	BackgroundColor #333333-#333333
}


skinparam control {
		FontColor #C8Ac00
	BorderColor #333333
	BackgroundColor #333333-#333333
}


skinparam entity {
		FontColor #C8Ac00
	BorderColor #333333
	BackgroundColor #333333-#333333
}


skinparam boundary {
		FontColor #C8Ac00
	BorderColor #333333
	BackgroundColor #333333-#333333
}


skinparam agent {
	BackgroundColor #ff8000
	BorderColor #ff9933
	FontColor #484848
}


skinparam note {
	BorderThickness 1
	BackgroundColor #1b1b1a
	BorderColor #5e5e5e
	FontSize 11
	FontColor #a0a0a0
}


skinparam artifact {
	BorderThickness 10
	BorderColor #5e5e5e
	BackgroundColor #1b1b1a
	FontColor #D8Bc00
}


skinparam component {
		FontColor #C8Ac00
	BorderColor #333333
	BackgroundColor #333333-#333333
}


skinparam interface {
	BackgroundColor  #008400
	BorderColor  #007F00
	FontColor #484848
}


skinparam storage {
	BackgroundColor #ff8000
  	BorderColor #cc6600
	FontColor #222222
}


skinparam node {
	BackgroundColor #333333
	BorderColor #333333
	FontColor #C8Ac00
}


skinparam cloud {
	BackgroundColor #484848-black
	BorderColor #484848
	FontColor #D8Bc00
}


skinparam database {
		FontColor #C8Ac00
	BorderColor #333333
	BackgroundColor #333333-#333333
	BackgroundColor  #333333
}


skinparam class {
		FontColor #C8Ac00
	BorderColor #333333
	BackgroundColor #333333-#333333
	HeaderBackgroundColor #1b1b1a
    BackgroundColor #282828
    BorderColor #5e5e5e
 	StereotypeFontColor #a0a0a0
    StereotypeFontStyle bold
	BorderThickness 1
	AttributeFontColor #D8Bc00
	AttributeFontSize 11
    FontColor #D8Bc00
    FontStyle bold
}


skinparam object {
		FontColor #C8Ac00
	BorderColor #333333
	BackgroundColor #333333-#333333
	StereotypeFontColor #484848
	BorderThickness 1
	AttributeFontColor #fefefe
	AttributeFontSize 11
}


skinparam usecase {
		FontColor #C8Ac00
	BorderColor #333333
	BackgroundColor #333333-#333333
	BorderThickness 2
	StereotypeFontColor #303030
}


skinparam rectangle {
		FontColor #C8Ac00
	BorderColor #333333
	BackgroundColor #333333-#333333
	BackgroundColor #333333
	BorderThickness 2
	StereotypeFontColor #303030
}


skinparam package {
		FontColor #C8Ac00
	BorderColor #333333
	BackgroundColor #333333-#333333
	BackgroundColor #333333
	BorderThickness 2
}


skinparam folder {
	BackgroundColor #6d6d6d
  	BorderColor #ff8000
	FontColor #ff8000
	BorderThickness 2
}


skinparam frame {
	BackgroundColor #6d6d6d
  	BorderColor #0060a8
	FontColor #0060a8
	BorderThickness 2
}


skinparam state {
		FontColor #C8Ac00
	BorderColor #333333
	BackgroundColor #333333-#333333
	StartColor #0060a8
	EndColor #0060a8
	AttributeFontColor #fefefe
	AttributeFontSize 11
}


skinparam queue {
		FontColor #C8Ac00
	BorderColor #333333
	BackgroundColor #333333-#333333
}


skinparam card {
	BackgroundColor #0060a8
	BorderColor #004d86
	FontColor $INFO_TEXT
}


skinparam file {
	BackgroundColor #6d6d6d-#484848
	BorderColor #0060a8
	FontColor #fefefe
}


skinparam stack {
		FontColor #C8Ac00
	BorderColor #333333
	BackgroundColor #333333-#333333
}

    
    title "com.telenav.kivakit.core.messaging.broadcasters"
    
    interface Broadcaster
    
    AudienceMember o- - Listener
    AudienceMember o- - Filter
    class AudienceMember
    {
        - -(messaging)- -
        +Listener listener()
        +void receive(Transmittable message)
    }
    
    Broadcaster <|- - Multicaster
    Multicaster "1" o- - "*" AudienceMember
    class Multicaster
    {
        - -(constructors)- -
        #Multicaster()
        #Multicaster(Multicaster)
        #Multicaster(String)
        +Multicaster(Class<?>)
        +Multicaster(String, Class<?>)
        - -(messaging)- -
        +boolean isDeaf()
        +List<String> listenerChain()
        +String listenerTree()
    }
    
@enduml

PlantUML version 1.2021.01(Tue Feb 02 00:55:08 MST 2021)
(GPL source distribution)
Java Runtime: OpenJDK Runtime Environment
JVM: OpenJDK 64-Bit Server VM
Default Encoding: UTF-8
Language: en
Country: US
--></g></svg>