<?xml version="1.0" encoding="UTF-8" standalone="no"?><svg xmlns="http://www.w3.org/2000/svg" xmlns:xlink="http://www.w3.org/1999/xlink" contentScriptType="application/ecmascript" contentStyleType="text/css" height="400px" preserveAspectRatio="none" style="width:620px;height:400px;background:#333333;" version="1.1" viewBox="0 0 620 400" width="620.8333px" zoomAndPan="magnify"><defs/><g><rect fill="#48494B" height="41.2028" rx="8.3333" ry="8.3333" style="stroke:#545454;stroke-width:1.0416666666666667;" width="608.3333" x="2.0833" y="2.0833"/><text fill="#C0C0C0" font-family="Open Sans,Avenir,Nunito,Arial,Helvetica,SansSerif" font-size="20.8333" lengthAdjust="spacing" textLength="585.4167" x="13.5417" y="30.5583">com.telenav.kivakit.core.language.reflection.filters.method</text><rect fill="#282828" height="48.055" id="PropertyFilterSet" rx="8.3333" ry="8.3333" style="stroke:#5E5E5E;stroke-width:1.0416666666666667;" width="144.7917" x="241.1458" y="53.7028"/><rect fill="#1B1B1A" height="31.3883" rx="8.3333" ry="8.3333" style="stroke:#1B1B1A;stroke-width:1.0416666666666667;" width="144.7917" x="241.1458" y="53.7028"/><rect fill="#1B1B1A" height="8.3333" style="stroke:#1B1B1A;stroke-width:1.0416666666666667;" width="144.7917" x="241.1458" y="76.7578"/><rect fill="none" height="48.055" id="PropertyFilterSet" rx="8.3333" ry="8.3333" style="stroke:#5E5E5E;stroke-width:1.0416666666666667;" width="144.7917" x="241.1458" y="53.7028"/><ellipse cx="255.7292" cy="69.397" fill="#0066CF" rx="10.4167" ry="10.4167" style="stroke:#0086EF;stroke-width:1.0416666666666667;"/><path d="M257.6396,73.822 Q257.2123,74.0417 256.7424,74.1516 Q256.2724,74.2615 255.7536,74.2615 Q253.9103,74.2615 252.9399,73.0469 Q251.9694,71.8323 251.9694,69.5374 Q251.9694,67.2363 252.9399,66.0217 Q253.9103,64.8071 255.7536,64.8071 Q256.2724,64.8071 256.7485,64.917 Q257.2245,65.0269 257.6396,65.2466 L257.6396,67.2485 Q257.1757,66.8213 256.7393,66.6229 Q256.3029,66.4246 255.839,66.4246 Q254.8503,66.4246 254.3467,67.2089 Q253.8432,67.9932 253.8432,69.5374 Q253.8432,71.0754 254.3467,71.8597 Q254.8503,72.644 255.839,72.644 Q256.3029,72.644 256.7393,72.4457 Q257.1757,72.2473 257.6396,71.8201 Z " fill="#000000"/><text fill="#D8BC00" font-family="Open Sans,Avenir,Nunito,Arial,Helvetica,SansSerif" font-size="12.5" font-weight="bold" lengthAdjust="spacing" textLength="107.2917" x="272.3958" y="74.1211">PropertyFilterSet</text><line style="stroke:#5E5E5E;stroke-width:1.0416666666666667;" x1="242.1875" x2="384.8958" y1="85.0911" y2="85.0911"/><line style="stroke:#5E5E5E;stroke-width:1.0416666666666667;" x1="242.1875" x2="384.8958" y1="93.4245" y2="93.4245"/><rect codeLine="8" fill="#282828" height="83.3781" id="AllMethods" rx="8.3333" ry="8.3333" style="stroke:#5E5E5E;stroke-width:1.0416666666666667;" width="258.3333" x="184.375" y="164.1195"/><rect fill="#1B1B1A" height="31.3883" rx="8.3333" ry="8.3333" style="stroke:#1B1B1A;stroke-width:1.0416666666666667;" width="258.3333" x="184.375" y="164.1195"/><rect fill="#1B1B1A" height="8.3333" style="stroke:#1B1B1A;stroke-width:1.0416666666666667;" width="258.3333" x="184.375" y="187.1745"/><rect codeLine="8" fill="none" height="83.3781" id="AllMethods" rx="8.3333" ry="8.3333" style="stroke:#5E5E5E;stroke-width:1.0416666666666667;" width="258.3333" x="184.375" y="164.1195"/><ellipse cx="269.2708" cy="179.8136" fill="#0066CF" rx="10.4167" ry="10.4167" style="stroke:#0086EF;stroke-width:1.0416666666666667;"/><path d="M271.1812,184.2387 Q270.754,184.4584 270.284,184.5683 Q269.814,184.6781 269.2952,184.6781 Q267.452,184.6781 266.4815,183.4635 Q265.5111,182.2489 265.5111,179.954 Q265.5111,177.653 266.4815,176.4384 Q267.452,175.2238 269.2952,175.2238 Q269.814,175.2238 270.2901,175.3337 Q270.7662,175.4435 271.1812,175.6632 L271.1812,177.6652 Q270.7174,177.238 270.281,177.0396 Q269.8446,176.8412 269.3807,176.8412 Q268.3919,176.8412 267.8884,177.6255 Q267.3848,178.4098 267.3848,179.954 Q267.3848,181.4921 267.8884,182.2764 Q268.3919,183.0607 269.3807,183.0607 Q269.8446,183.0607 270.281,182.8623 Q270.7174,182.664 271.1812,182.2367 Z " fill="#000000"/><text fill="#D8BC00" font-family="Open Sans,Avenir,Nunito,Arial,Helvetica,SansSerif" font-size="12.5" font-weight="bold" lengthAdjust="spacing" textLength="73.9583" x="292.1875" y="184.5378">AllMethods</text><line style="stroke:#5E5E5E;stroke-width:1.5625;" x1="185.4167" x2="441.6667" y1="195.5078" y2="195.5078"/><ellipse cx="195.8333" cy="230.8777" fill="#84BE84" rx="3.125" ry="3.125" style="stroke:#038048;stroke-width:1.0416666666666667;"/><text fill="#D8BC00" font-family="Open Sans,Avenir,Nunito,Arial,Helvetica,SansSerif" font-size="11.4583" lengthAdjust="spacing" textLength="226.0417" x="207.2917" y="237.7889">AllMethods(PropertyNamingConvention)</text><line style="stroke:#5E5E5E;stroke-width:1.0416666666666667;" x1="185.4167" x2="269.7917" y1="213.7136" y2="213.7136"/><text fill="#D8BC00" font-family="Open Sans,Avenir,Nunito,Arial,Helvetica,SansSerif" font-size="11.4583" lengthAdjust="spacing" textLength="81.25" x="272.9167" y="217.5232">(constructors)</text><line style="stroke:#5E5E5E;stroke-width:1.0416666666666667;" x1="357.2917" x2="441.6667" y1="213.7136" y2="213.7136"/><rect codeLine="15" fill="#282828" height="83.3781" id="NamedMethod" rx="8.3333" ry="8.3333" style="stroke:#5E5E5E;stroke-width:1.0416666666666667;" width="315.625" x="155.7292" y="309.9528"/><rect fill="#1B1B1A" height="31.3883" rx="8.3333" ry="8.3333" style="stroke:#1B1B1A;stroke-width:1.0416666666666667;" width="315.625" x="155.7292" y="309.9528"/><rect fill="#1B1B1A" height="8.3333" style="stroke:#1B1B1A;stroke-width:1.0416666666666667;" width="315.625" x="155.7292" y="333.0078"/><rect codeLine="15" fill="none" height="83.3781" id="NamedMethod" rx="8.3333" ry="8.3333" style="stroke:#5E5E5E;stroke-width:1.0416666666666667;" width="315.625" x="155.7292" y="309.9528"/><ellipse cx="259.375" cy="325.647" fill="#0066CF" rx="10.4167" ry="10.4167" style="stroke:#0086EF;stroke-width:1.0416666666666667;"/><path d="M261.2854,330.072 Q260.8582,330.2917 260.3882,330.4016 Q259.9182,330.5115 259.3994,330.5115 Q257.5562,330.5115 256.5857,329.2969 Q255.6152,328.0823 255.6152,325.7874 Q255.6152,323.4863 256.5857,322.2717 Q257.5562,321.0571 259.3994,321.0571 Q259.9182,321.0571 260.3943,321.167 Q260.8704,321.2769 261.2854,321.4966 L261.2854,323.4985 Q260.8215,323.0713 260.3851,322.8729 Q259.9487,322.6746 259.4849,322.6746 Q258.4961,322.6746 257.9926,323.4589 Q257.489,324.2432 257.489,325.7874 Q257.489,327.3254 257.9926,328.1097 Q258.4961,328.894 259.4849,328.894 Q259.9487,328.894 260.3851,328.6957 Q260.8215,328.4973 261.2854,328.0701 Z " fill="#000000"/><text fill="#D8BC00" font-family="Open Sans,Avenir,Nunito,Arial,Helvetica,SansSerif" font-size="12.5" font-weight="bold" lengthAdjust="spacing" textLength="93.75" x="282.2917" y="330.3711">NamedMethod</text><line style="stroke:#5E5E5E;stroke-width:1.5625;" x1="156.7708" x2="470.3125" y1="341.3411" y2="341.3411"/><ellipse cx="167.1875" cy="376.711" fill="#84BE84" rx="3.125" ry="3.125" style="stroke:#038048;stroke-width:1.0416666666666667;"/><text fill="#D8BC00" font-family="Open Sans,Avenir,Nunito,Arial,Helvetica,SansSerif" font-size="11.4583" lengthAdjust="spacing" textLength="283.3333" x="178.6458" y="383.6222">NamedMethod(PropertyNamingConvention, String)</text><line style="stroke:#5E5E5E;stroke-width:1.0416666666666667;" x1="156.7708" x2="269.7917" y1="359.5469" y2="359.5469"/><text fill="#D8BC00" font-family="Open Sans,Avenir,Nunito,Arial,Helvetica,SansSerif" font-size="11.4583" lengthAdjust="spacing" textLength="81.25" x="272.9167" y="363.3565">(constructors)</text><line style="stroke:#5E5E5E;stroke-width:1.0416666666666667;" x1="357.2917" x2="470.3125" y1="359.5469" y2="359.5469"/><path codeLine="7" d="M313.5417,122.682 C313.5417,136.0778 313.5417,150.7445 313.5417,163.9215 " fill="none" id="PropertyFilterSet-backto-AllMethods" style="stroke:#545454;stroke-width:1.5625;"/><polygon fill="none" points="306.25,122.6507,313.5417,101.8174,320.8333,122.6507,306.25,122.6507" style="stroke:#545454;stroke-width:1.5625;"/><path codeLine="14" d="M313.5417,268.6924 C313.5417,282.5465 313.5417,296.9111 313.5417,309.6715 " fill="none" id="AllMethods-backto-NamedMethod" style="stroke:#545454;stroke-width:1.5625;"/><polygon fill="none" points="306.25,268.4736,313.5417,247.6403,320.8333,268.4736,306.25,268.4736" style="stroke:#545454;stroke-width:1.5625;"/></g></svg>
