<?xml version="1.0" encoding="UTF-8" standalone="no"?><svg xmlns="http://www.w3.org/2000/svg" xmlns:xlink="http://www.w3.org/1999/xlink" contentScriptType="application/ecmascript" contentStyleType="text/css" height="381.25px" preserveAspectRatio="none" style="width:334px;height:381px;background:#333333;" version="1.1" viewBox="0 0 334 381" width="334.375px" zoomAndPan="magnify"><defs/><g><rect fill="#48494B" height="41.2028" rx="8.3333" ry="8.3333" style="stroke:#545454;stroke-width:1.0416666666666667;" width="321.875" x="2.0833" y="2.0833"/><text fill="#C0C0C0" font-family="Open Sans,Avenir,Nunito,Arial,Helvetica,SansSerif" font-size="20.8333" lengthAdjust="spacing" textLength="298.9583" x="13.5417" y="30.5583">com.telenav.kivakit.core.math</text><rect codeLine="7" fill="#282828" height="48.055" id="Resettable" rx="8.3333" ry="8.3333" style="stroke:#5E5E5E;stroke-width:1.0416666666666667;" width="105.2083" x="117.7083" y="53.7028"/><rect fill="#1B1B1A" height="31.3883" rx="8.3333" ry="8.3333" style="stroke:#1B1B1A;stroke-width:1.0416666666666667;" width="105.2083" x="117.7083" y="53.7028"/><rect fill="#1B1B1A" height="8.3333" style="stroke:#1B1B1A;stroke-width:1.0416666666666667;" width="105.2083" x="117.7083" y="76.7578"/><rect codeLine="7" fill="none" height="48.055" id="Resettable" rx="8.3333" ry="8.3333" style="stroke:#5E5E5E;stroke-width:1.0416666666666667;" width="105.2083" x="117.7083" y="53.7028"/><ellipse cx="132.2917" cy="69.397" fill="#008400" rx="10.4167" ry="10.4167" style="stroke:#239C23;stroke-width:1.0416666666666667;"/><path d="M129.6956,66.5588 L129.6956,64.9719 L135.1217,64.9719 L135.1217,66.5588 L133.3089,66.5588 L133.3089,72.4976 L135.1217,72.4976 L135.1217,74.0845 L129.6956,74.0845 L129.6956,72.4976 L131.5084,72.4976 L131.5084,66.5588 Z " fill="#000000"/><text fill="#D8BC00" font-family="Open Sans,Avenir,Nunito,Arial,Helvetica,SansSerif" font-size="12.5" font-style="italic" font-weight="bold" lengthAdjust="spacing" textLength="67.7083" x="148.9583" y="74.1211">Resettable</text><line style="stroke:#5E5E5E;stroke-width:1.0416666666666667;" x1="118.75" x2="221.875" y1="85.0911" y2="85.0911"/><line style="stroke:#5E5E5E;stroke-width:1.0416666666666667;" x1="118.75" x2="221.875" y1="93.4245" y2="93.4245"/><rect codeLine="10" fill="#282828" height="210.1807" id="Average" rx="8.3333" ry="8.3333" style="stroke:#5E5E5E;stroke-width:1.0416666666666667;" width="159.375" x="90.625" y="164.1195"/><rect fill="#1B1B1A" height="31.3883" rx="8.3333" ry="8.3333" style="stroke:#1B1B1A;stroke-width:1.0416666666666667;" width="159.375" x="90.625" y="164.1195"/><rect fill="#1B1B1A" height="8.3333" style="stroke:#1B1B1A;stroke-width:1.0416666666666667;" width="159.375" x="90.625" y="187.1745"/><rect codeLine="10" fill="none" height="210.1807" id="Average" rx="8.3333" ry="8.3333" style="stroke:#5E5E5E;stroke-width:1.0416666666666667;" width="159.375" x="90.625" y="164.1195"/><ellipse cx="136.9792" cy="179.8136" fill="#0066CF" rx="10.4167" ry="10.4167" style="stroke:#0086EF;stroke-width:1.0416666666666667;"/><path d="M138.8896,184.2387 Q138.4623,184.4584 137.9924,184.5683 Q137.5224,184.6781 137.0036,184.6781 Q135.1603,184.6781 134.1899,183.4635 Q133.2194,182.2489 133.2194,179.954 Q133.2194,177.653 134.1899,176.4384 Q135.1603,175.2238 137.0036,175.2238 Q137.5224,175.2238 137.9985,175.3337 Q138.4745,175.4435 138.8896,175.6632 L138.8896,177.6652 Q138.4257,177.238 137.9893,177.0396 Q137.5529,176.8412 137.089,176.8412 Q136.1003,176.8412 135.5967,177.6255 Q135.0932,178.4098 135.0932,179.954 Q135.0932,181.4921 135.5967,182.2764 Q136.1003,183.0607 137.089,183.0607 Q137.5529,183.0607 137.9893,182.8623 Q138.4257,182.664 138.8896,182.2367 Z " fill="#000000"/><text fill="#D8BC00" font-family="Open Sans,Avenir,Nunito,Arial,Helvetica,SansSerif" font-size="12.5" font-weight="bold" lengthAdjust="spacing" textLength="52.0833" x="159.8958" y="184.5378">Average</text><line style="stroke:#5E5E5E;stroke-width:1.5625;" x1="91.6667" x2="248.9583" y1="195.5078" y2="195.5078"/><line style="stroke:#5E5E5E;stroke-width:1.0416666666666667;" x1="91.6667" x2="248.9583" y1="203.8411" y2="203.8411"/><ellipse cx="102.0833" cy="215.2995" fill="#84BE84" rx="3.125" ry="3.125" style="stroke:#038048;stroke-width:1.0416666666666667;"/><text fill="#D8BC00" font-family="Open Sans,Avenir,Nunito,Arial,Helvetica,SansSerif" font-size="11.4583" lengthAdjust="spacing" textLength="93.75" x="113.5417" y="222.2107">double average()</text><ellipse cx="102.0833" cy="235.0444" fill="#84BE84" rx="3.125" ry="3.125" style="stroke:#038048;stroke-width:1.0416666666666667;"/><text fill="#D8BC00" font-family="Open Sans,Avenir,Nunito,Arial,Helvetica,SansSerif" font-size="11.4583" lengthAdjust="spacing" textLength="71.875" x="113.5417" y="241.9556">int samples()</text><ellipse cx="102.0833" cy="254.7892" fill="#84BE84" rx="3.125" ry="3.125" style="stroke:#038048;stroke-width:1.0416666666666667;"/><text fill="#D8BC00" font-family="Open Sans,Avenir,Nunito,Arial,Helvetica,SansSerif" font-size="11.4583" lengthAdjust="spacing" textLength="75" x="113.5417" y="261.7004">double total()</text><ellipse cx="102.0833" cy="298.4456" fill="#84BE84" rx="3.125" ry="3.125" style="stroke:#038048;stroke-width:1.0416666666666667;"/><text fill="#D8BC00" font-family="Open Sans,Avenir,Nunito,Arial,Helvetica,SansSerif" font-size="11.4583" lengthAdjust="spacing" textLength="127.0833" x="113.5417" y="305.3569">void add(double value)</text><ellipse cx="102.0833" cy="318.1905" fill="#84BE84" rx="3.125" ry="3.125" style="stroke:#038048;stroke-width:1.0416666666666667;"/><text fill="#D8BC00" font-family="Open Sans,Avenir,Nunito,Arial,Helvetica,SansSerif" font-size="11.4583" lengthAdjust="spacing" textLength="127.0833" x="113.5417" y="325.1017">void add(Average that)</text><ellipse cx="102.0833" cy="337.9354" fill="#84BE84" rx="3.125" ry="3.125" style="stroke:#038048;stroke-width:1.0416666666666667;"/><text fill="#D8BC00" font-family="Open Sans,Avenir,Nunito,Arial,Helvetica,SansSerif" font-size="11.4583" lengthAdjust="spacing" textLength="105.2083" x="113.5417" y="344.8466">double maximum()</text><ellipse cx="102.0833" cy="357.6803" fill="#84BE84" rx="3.125" ry="3.125" style="stroke:#038048;stroke-width:1.0416666666666667;"/><text fill="#D8BC00" font-family="Open Sans,Avenir,Nunito,Arial,Helvetica,SansSerif" font-size="11.4583" lengthAdjust="spacing" textLength="102.0833" x="113.5417" y="364.5915">double minimum()</text><line style="stroke:#5E5E5E;stroke-width:1.0416666666666667;" x1="91.6667" x2="148.9583" y1="281.2815" y2="281.2815"/><text fill="#D8BC00" font-family="Open Sans,Avenir,Nunito,Arial,Helvetica,SansSerif" font-size="11.4583" lengthAdjust="spacing" textLength="36.4583" x="152.0833" y="285.0911">(math)</text><line style="stroke:#5E5E5E;stroke-width:1.0416666666666667;" x1="191.6667" x2="248.9583" y1="281.2815" y2="281.2815"/><path codeLine="9" d="M170.3125,122.8903 C170.3125,135.3382 170.3125,149.432 170.3125,163.8278 " fill="none" id="Resettable-backto-Average" style="stroke:#545454;stroke-width:1.5625;"/><polygon fill="none" points="163.0208,122.7861,170.3125,101.9528,177.6042,122.7861,163.0208,122.7861" style="stroke:#545454;stroke-width:1.5625;"/></g></svg>
