<?xml version="1.0" encoding="UTF-8" standalone="no"?><svg xmlns="http://www.w3.org/2000/svg" xmlns:xlink="http://www.w3.org/1999/xlink" contentScriptType="application/ecmascript" contentStyleType="text/css" height="860.4167px" preserveAspectRatio="none" style="width:386px;height:860px;background:#333333;" version="1.1" viewBox="0 0 386 860" width="386.4583px" zoomAndPan="magnify"><defs/><g><rect fill="#48494B" height="41.2028" rx="8.3333" ry="8.3333" style="stroke:#545454;stroke-width:1.0416666666666667;" width="358.3333" x="6.7708" y="2.0833"/><text fill="#C0C0C0" font-family="Open Sans,Avenir,Nunito,Arial,Helvetica,SansSerif" font-size="20.8333" lengthAdjust="spacing" textLength="335.4167" x="18.2292" y="30.5583">com.telenav.kivakit.core.progress</text><rect codeLine="7" fill="#282828" height="67.7999" id="ProgressListener" rx="8.3333" ry="8.3333" style="stroke:#5E5E5E;stroke-width:1.0416666666666667;" width="145.8333" x="120.3125" y="785.9945"/><rect fill="#1B1B1A" height="31.3883" rx="8.3333" ry="8.3333" style="stroke:#1B1B1A;stroke-width:1.0416666666666667;" width="145.8333" x="120.3125" y="785.9945"/><rect fill="#1B1B1A" height="8.3333" style="stroke:#1B1B1A;stroke-width:1.0416666666666667;" width="145.8333" x="120.3125" y="809.0495"/><rect codeLine="7" fill="none" height="67.7999" id="ProgressListener" rx="8.3333" ry="8.3333" style="stroke:#5E5E5E;stroke-width:1.0416666666666667;" width="145.8333" x="120.3125" y="785.9945"/><ellipse cx="134.8958" cy="801.6886" fill="#008400" rx="10.4167" ry="10.4167" style="stroke:#239C23;stroke-width:1.0416666666666667;"/><path d="M132.2998,798.8505 L132.2998,797.2636 L137.7258,797.2636 L137.7258,798.8505 L135.9131,798.8505 L135.9131,804.7892 L137.7258,804.7892 L137.7258,806.3761 L132.2998,806.3761 L132.2998,804.7892 L134.1125,804.7892 L134.1125,798.8505 Z " fill="#000000"/><text fill="#D8BC00" font-family="Open Sans,Avenir,Nunito,Arial,Helvetica,SansSerif" font-size="12.5" font-style="italic" font-weight="bold" lengthAdjust="spacing" textLength="108.3333" x="151.5625" y="806.4128">ProgressListener</text><line style="stroke:#5E5E5E;stroke-width:1.5625;" x1="121.3542" x2="265.1042" y1="817.3828" y2="817.3828"/><line style="stroke:#5E5E5E;stroke-width:1.0416666666666667;" x1="121.3542" x2="265.1042" y1="825.7161" y2="825.7161"/><ellipse cx="131.7708" cy="837.1745" fill="#84BE84" rx="3.125" ry="3.125" style="stroke:#038048;stroke-width:1.0416666666666667;"/><text fill="#D8BC00" font-family="Open Sans,Avenir,Nunito,Arial,Helvetica,SansSerif" font-size="11.4583" lengthAdjust="spacing" textLength="101.0417" x="143.2292" y="844.0857">void at(Percent at)</text><rect codeLine="13" fill="#282828" height="48.055" id="Resettable" rx="8.3333" ry="8.3333" style="stroke:#5E5E5E;stroke-width:1.0416666666666667;" width="105.2083" x="140.625" y="53.7028"/><rect fill="#1B1B1A" height="31.3883" rx="8.3333" ry="8.3333" style="stroke:#1B1B1A;stroke-width:1.0416666666666667;" width="105.2083" x="140.625" y="53.7028"/><rect fill="#1B1B1A" height="8.3333" style="stroke:#1B1B1A;stroke-width:1.0416666666666667;" width="105.2083" x="140.625" y="76.7578"/><rect codeLine="13" fill="none" height="48.055" id="Resettable" rx="8.3333" ry="8.3333" style="stroke:#5E5E5E;stroke-width:1.0416666666666667;" width="105.2083" x="140.625" y="53.7028"/><ellipse cx="155.2083" cy="69.397" fill="#008400" rx="10.4167" ry="10.4167" style="stroke:#239C23;stroke-width:1.0416666666666667;"/><path d="M152.6123,66.5588 L152.6123,64.9719 L158.0383,64.9719 L158.0383,66.5588 L156.2256,66.5588 L156.2256,72.4976 L158.0383,72.4976 L158.0383,74.0845 L152.6123,74.0845 L152.6123,72.4976 L154.425,72.4976 L154.425,66.5588 Z " fill="#000000"/><text fill="#D8BC00" font-family="Open Sans,Avenir,Nunito,Arial,Helvetica,SansSerif" font-size="12.5" font-style="italic" font-weight="bold" lengthAdjust="spacing" textLength="67.7083" x="171.875" y="74.1211">Resettable</text><line style="stroke:#5E5E5E;stroke-width:1.0416666666666667;" x1="141.6667" x2="244.7917" y1="85.0911" y2="85.0911"/><line style="stroke:#5E5E5E;stroke-width:1.0416666666666667;" x1="141.6667" x2="244.7917" y1="93.4245" y2="93.4245"/><rect codeLine="16" fill="#282828" height="535.5204" id="ProgressReporter" rx="8.3333" ry="8.3333" style="stroke:#5E5E5E;stroke-width:1.0416666666666667;" width="371.875" x="7.2917" y="165.1611"/><rect fill="#1B1B1A" height="31.3883" rx="8.3333" ry="8.3333" style="stroke:#1B1B1A;stroke-width:1.0416666666666667;" width="371.875" x="7.2917" y="165.1611"/><rect fill="#1B1B1A" height="8.3333" style="stroke:#1B1B1A;stroke-width:1.0416666666666667;" width="371.875" x="7.2917" y="188.2161"/><rect codeLine="16" fill="none" height="535.5204" id="ProgressReporter" rx="8.3333" ry="8.3333" style="stroke:#5E5E5E;stroke-width:1.0416666666666667;" width="371.875" x="7.2917" y="165.1611"/><ellipse cx="130.2083" cy="180.8553" fill="#008400" rx="10.4167" ry="10.4167" style="stroke:#239C23;stroke-width:1.0416666666666667;"/><path d="M127.6123,178.0172 L127.6123,176.4303 L133.0383,176.4303 L133.0383,178.0172 L131.2256,178.0172 L131.2256,183.9559 L133.0383,183.9559 L133.0383,185.5428 L127.6123,185.5428 L127.6123,183.9559 L129.425,183.9559 L129.425,178.0172 Z " fill="#000000"/><text fill="#D8BC00" font-family="Open Sans,Avenir,Nunito,Arial,Helvetica,SansSerif" font-size="12.5" font-style="italic" font-weight="bold" lengthAdjust="spacing" textLength="111.4583" x="153.125" y="185.5794">ProgressReporter</text><line style="stroke:#5E5E5E;stroke-width:1.5625;" x1="8.3333" x2="378.125" y1="196.5495" y2="196.5495"/><line style="stroke:#5E5E5E;stroke-width:1.0416666666666667;" x1="8.3333" x2="378.125" y1="204.8828" y2="204.8828"/><ellipse cx="18.75" cy="216.3411" fill="#84BE84" rx="3.125" ry="3.125" style="stroke:#038048;stroke-width:1.0416666666666667;"/><text fill="#D8BC00" font-family="Open Sans,Avenir,Nunito,Arial,Helvetica,SansSerif" font-size="11.4583" lengthAdjust="spacing" textLength="213.5417" x="30.2083" y="223.2524">ProgressReporter phase(String phase)</text><ellipse cx="18.75" cy="236.086" fill="#84BE84" rx="3.125" ry="3.125" style="stroke:#038048;stroke-width:1.0416666666666667;"/><text fill="#D8BC00" font-family="Open Sans,Avenir,Nunito,Arial,Helvetica,SansSerif" font-size="11.4583" lengthAdjust="spacing" textLength="257.2917" x="30.2083" y="242.9972">ProgressReporter steps(BaseCount&lt;?&gt; steps)</text><ellipse cx="18.75" cy="279.7424" fill="#84BE84" rx="3.125" ry="3.125" style="stroke:#038048;stroke-width:1.0416666666666667;"/><text fill="#D8BC00" font-family="Open Sans,Avenir,Nunito,Arial,Helvetica,SansSerif" font-size="11.4583" lengthAdjust="spacing" textLength="117.7083" x="30.2083" y="286.6536">boolean isIndefinite()</text><line style="stroke:#5E5E5E;stroke-width:1.0416666666666667;" x1="8.3333" x2="166.6667" y1="262.5783" y2="262.5783"/><text fill="#D8BC00" font-family="Open Sans,Avenir,Nunito,Arial,Helvetica,SansSerif" font-size="11.4583" lengthAdjust="spacing" textLength="46.875" x="169.7917" y="266.3879">(checks)</text><line style="stroke:#5E5E5E;stroke-width:1.0416666666666667;" x1="219.7917" x2="378.125" y1="262.5783" y2="262.5783"/><ellipse cx="18.75" cy="323.3988" fill="#84BE84" rx="3.125" ry="3.125" style="stroke:#038048;stroke-width:1.0416666666666667;"/><text fill="#D8BC00" font-family="Open Sans,Avenir,Nunito,Arial,Helvetica,SansSerif" font-size="11.4583" lengthAdjust="spacing" textLength="76.0417" x="30.2083" y="330.3101">Count steps()</text><line style="stroke:#5E5E5E;stroke-width:1.0416666666666667;" x1="8.3333" x2="158.8542" y1="306.2347" y2="306.2347"/><text fill="#D8BC00" font-family="Open Sans,Avenir,Nunito,Arial,Helvetica,SansSerif" font-size="11.4583" lengthAdjust="spacing" textLength="62.5" x="161.9792" y="310.0444">(collection)</text><line style="stroke:#5E5E5E;stroke-width:1.0416666666666667;" x1="227.6042" x2="378.125" y1="306.2347" y2="306.2347"/><ellipse cx="18.75" cy="367.0553" fill="#84BE84" rx="3.125" ry="3.125" style="stroke:#038048;stroke-width:1.0416666666666667;"/><text fill="#D8BC00" font-family="Open Sans,Avenir,Nunito,Arial,Helvetica,SansSerif" font-size="11.4583" lengthAdjust="spacing" textLength="60.4167" x="30.2083" y="373.9665">void next()</text><ellipse cx="18.75" cy="386.8001" fill="#84BE84" rx="3.125" ry="3.125" style="stroke:#038048;stroke-width:1.0416666666666667;"/><text fill="#D8BC00" font-family="Open Sans,Avenir,Nunito,Arial,Helvetica,SansSerif" font-size="11.4583" lengthAdjust="spacing" textLength="128.125" x="30.2083" y="393.7113">void next(Count steps)</text><ellipse cx="18.75" cy="406.545" fill="#84BE84" rx="3.125" ry="3.125" style="stroke:#038048;stroke-width:1.0416666666666667;"/><text fill="#D8BC00" font-family="Open Sans,Avenir,Nunito,Arial,Helvetica,SansSerif" font-size="11.4583" lengthAdjust="spacing" textLength="108.3333" x="30.2083" y="413.4562">void next(int steps)</text><line style="stroke:#5E5E5E;stroke-width:1.0416666666666667;" x1="8.3333" x2="162.5" y1="349.8912" y2="349.8912"/><text fill="#D8BC00" font-family="Open Sans,Avenir,Nunito,Arial,Helvetica,SansSerif" font-size="11.4583" lengthAdjust="spacing" textLength="55.2083" x="165.625" y="353.7008">(iteration)</text><line style="stroke:#5E5E5E;stroke-width:1.0416666666666667;" x1="223.9583" x2="378.125" y1="349.8912" y2="349.8912"/><ellipse cx="18.75" cy="450.2014" fill="#84BE84" rx="3.125" ry="3.125" style="stroke:#038048;stroke-width:1.0416666666666667;"/><text fill="#D8BC00" font-family="Open Sans,Avenir,Nunito,Arial,Helvetica,SansSerif" font-size="11.4583" lengthAdjust="spacing" textLength="56.25" x="30.2083" y="457.1126">void end()</text><ellipse cx="18.75" cy="469.9463" fill="#84BE84" rx="3.125" ry="3.125" style="stroke:#038048;stroke-width:1.0416666666666667;"/><text fill="#D8BC00" font-family="Open Sans,Avenir,Nunito,Arial,Helvetica,SansSerif" font-size="11.4583" lengthAdjust="spacing" textLength="257.2917" x="30.2083" y="476.8575">void end(String message, Object... arguments)</text><ellipse cx="18.75" cy="489.6912" fill="#84BE84" rx="3.125" ry="3.125" style="stroke:#038048;stroke-width:1.0416666666666667;"/><text fill="#D8BC00" font-family="Open Sans,Avenir,Nunito,Arial,Helvetica,SansSerif" font-size="11.4583" lengthAdjust="spacing" textLength="136.4583" x="30.2083" y="496.6024">ProgressReporter start()</text><ellipse cx="18.75" cy="509.436" fill="#84BE84" rx="3.125" ry="3.125" style="stroke:#038048;stroke-width:1.0416666666666667;"/><text fill="#D8BC00" font-family="Open Sans,Avenir,Nunito,Arial,Helvetica,SansSerif" font-size="11.4583" lengthAdjust="spacing" textLength="198.9583" x="30.2083" y="516.3472">ProgressReporter start(String label)</text><line style="stroke:#5E5E5E;stroke-width:1.0416666666666667;" x1="8.3333" x2="163.5417" y1="433.0373" y2="433.0373"/><text fill="#D8BC00" font-family="Open Sans,Avenir,Nunito,Arial,Helvetica,SansSerif" font-size="11.4583" lengthAdjust="spacing" textLength="53.125" x="166.6667" y="436.8469">(lifecycle)</text><line style="stroke:#5E5E5E;stroke-width:1.0416666666666667;" x1="222.9167" x2="378.125" y1="433.0373" y2="433.0373"/><ellipse cx="18.75" cy="553.0924" fill="#84BE84" rx="3.125" ry="3.125" style="stroke:#038048;stroke-width:1.0416666666666667;"/><text fill="#D8BC00" font-family="Open Sans,Avenir,Nunito,Arial,Helvetica,SansSerif" font-size="11.4583" lengthAdjust="spacing" textLength="138.5417" x="30.2083" y="560.0037">ProgressReporter none()</text><line style="stroke:#5E5E5E;stroke-width:1.0416666666666667;" x1="8.3333" x2="167.7083" y1="535.9283" y2="535.9283"/><text fill="#D8BC00" font-family="Open Sans,Avenir,Nunito,Arial,Helvetica,SansSerif" font-size="11.4583" lengthAdjust="spacing" textLength="44.7917" x="170.8333" y="539.738">(logical)</text><line style="stroke:#5E5E5E;stroke-width:1.0416666666666667;" x1="218.75" x2="378.125" y1="535.9283" y2="535.9283"/><ellipse cx="18.75" cy="596.7489" fill="#84BE84" rx="3.125" ry="3.125" style="stroke:#038048;stroke-width:1.0416666666666667;"/><text fill="#D8BC00" font-family="Open Sans,Avenir,Nunito,Arial,Helvetica,SansSerif" font-size="11.4583" lengthAdjust="spacing" textLength="246.875" x="30.2083" y="603.6601">ProgressReporter listener(ProgressListener)</text><line style="stroke:#5E5E5E;stroke-width:1.0416666666666667;" x1="8.3333" x2="155.7292" y1="579.5848" y2="579.5848"/><text fill="#D8BC00" font-family="Open Sans,Avenir,Nunito,Arial,Helvetica,SansSerif" font-size="11.4583" lengthAdjust="spacing" textLength="68.75" x="158.8542" y="583.3944">(messaging)</text><line style="stroke:#5E5E5E;stroke-width:1.0416666666666667;" x1="230.7292" x2="378.125" y1="579.5848" y2="579.5848"/><ellipse cx="18.75" cy="640.4053" fill="#84BE84" rx="3.125" ry="3.125" style="stroke:#038048;stroke-width:1.0416666666666667;"/><text fill="#D8BC00" font-family="Open Sans,Avenir,Nunito,Arial,Helvetica,SansSerif" font-size="11.4583" lengthAdjust="spacing" textLength="308.3333" x="30.2083" y="647.3165">ProgressiveInputStream progressiveInput(InputStream)</text><line style="stroke:#5E5E5E;stroke-width:1.0416666666666667;" x1="8.3333" x2="173.4375" y1="623.2412" y2="623.2412"/><text fill="#D8BC00" font-family="Open Sans,Avenir,Nunito,Arial,Helvetica,SansSerif" font-size="11.4583" lengthAdjust="spacing" textLength="33.3333" x="176.5625" y="627.0508">(read)</text><line style="stroke:#5E5E5E;stroke-width:1.0416666666666667;" x1="213.0208" x2="378.125" y1="623.2412" y2="623.2412"/><ellipse cx="18.75" cy="684.0617" fill="#84BE84" rx="3.125" ry="3.125" style="stroke:#038048;stroke-width:1.0416666666666667;"/><text fill="#D8BC00" font-family="Open Sans,Avenir,Nunito,Arial,Helvetica,SansSerif" font-size="11.4583" lengthAdjust="spacing" textLength="339.5833" x="30.2083" y="690.9729">ProgressiveOutputStream progressiveOutput(OutputStream)</text><line style="stroke:#5E5E5E;stroke-width:1.0416666666666667;" x1="8.3333" x2="172.3958" y1="666.8976" y2="666.8976"/><text fill="#D8BC00" font-family="Open Sans,Avenir,Nunito,Arial,Helvetica,SansSerif" font-size="11.4583" lengthAdjust="spacing" textLength="35.4167" x="175.5208" y="670.7072">(write)</text><line style="stroke:#5E5E5E;stroke-width:1.0416666666666667;" x1="214.0625" x2="378.125" y1="666.8976" y2="666.8976"/><path codeLine="14" d="M193.2292,122.7965 C193.2292,135.0674 193.2292,149.3486 193.2292,164.9007 " fill="none" id="Resettable-backto-ProgressReporter" style="stroke:#545454;stroke-width:1.5625;"/><polygon fill="none" points="185.9375,122.7028,193.2292,101.8695,200.5208,122.7028,185.9375,122.7028" style="stroke:#545454;stroke-width:1.5625;"/><path codeLine="15" d="M193.2292,700.7132 C193.2292,731.682 193.2292,759.609 193.2292,780.5257 " fill="none" id="ProgressReporter-to-ProgressListener" style="stroke:#545454;stroke-width:1.5625;"/><polygon fill="#545454" points="193.2292,785.9632,197.3958,776.5882,193.2292,780.7549,189.0625,776.5882,193.2292,785.9632" style="stroke:#545454;stroke-width:1.5625;"/><text fill="#A0A0A0" font-family="Open Sans,Avenir,Nunito,Arial,Helvetica,SansSerif" font-size="12.5" font-weight="bold" lengthAdjust="spacing" textLength="126.0417" x="197.3958" y="748.0794">reports progress to</text></g></svg>
