<?xml version="1.0" encoding="UTF-8" standalone="no"?><svg xmlns="http://www.w3.org/2000/svg" xmlns:xlink="http://www.w3.org/1999/xlink" contentScriptType="application/ecmascript" contentStyleType="text/css" height="812.5px" preserveAspectRatio="none" style="width:1070px;height:812px;background:#333333;" version="1.1" viewBox="0 0 1070 812" width="1070.8333px" zoomAndPan="magnify"><defs/><g><rect fill="#48494B" height="41.2028" rx="8.3333" ry="8.3333" style="stroke:#545454;stroke-width:1.0416666666666667;" width="208.3333" x="424.2188" y="2.0833"/><text fill="#C0C0C0" font-family="Open Sans,Avenir,Nunito,Arial,Helvetica,SansSerif" font-size="20.8333" lengthAdjust="spacing" textLength="185.4167" x="435.6771" y="30.5583">diagram-primitive</text><rect codeLine="7" fill="#282828" height="214.3473" id="Arrays" rx="8.3333" ry="8.3333" style="stroke:#5E5E5E;stroke-width:1.0416666666666667;" width="358.3333" x="7.2917" y="53.7028"/><rect fill="#1B1B1A" height="31.3883" rx="8.3333" ry="8.3333" style="stroke:#1B1B1A;stroke-width:1.0416666666666667;" width="358.3333" x="7.2917" y="53.7028"/><rect fill="#1B1B1A" height="8.3333" style="stroke:#1B1B1A;stroke-width:1.0416666666666667;" width="358.3333" x="7.2917" y="76.7578"/><rect codeLine="7" fill="none" height="214.3473" id="Arrays" rx="8.3333" ry="8.3333" style="stroke:#5E5E5E;stroke-width:1.0416666666666667;" width="358.3333" x="7.2917" y="53.7028"/><ellipse cx="158.3333" cy="69.397" fill="#0066CF" rx="10.4167" ry="10.4167" style="stroke:#0086EF;stroke-width:1.0416666666666667;"/><path d="M160.2437,73.822 Q159.8165,74.0417 159.3465,74.1516 Q158.8765,74.2615 158.3577,74.2615 Q156.5145,74.2615 155.544,73.0469 Q154.5736,71.8323 154.5736,69.5374 Q154.5736,67.2363 155.544,66.0217 Q156.5145,64.8071 158.3577,64.8071 Q158.8765,64.8071 159.3526,64.917 Q159.8287,65.0269 160.2437,65.2466 L160.2437,67.2485 Q159.7799,66.8213 159.3435,66.6229 Q158.9071,66.4246 158.4432,66.4246 Q157.4544,66.4246 156.9509,67.2089 Q156.4473,67.9932 156.4473,69.5374 Q156.4473,71.0754 156.9509,71.8597 Q157.4544,72.644 158.4432,72.644 Q158.9071,72.644 159.3435,72.4457 Q159.7799,72.2473 160.2437,71.8201 Z " fill="#000000"/><text fill="#D8BC00" font-family="Open Sans,Avenir,Nunito,Arial,Helvetica,SansSerif" font-size="12.5" font-weight="bold" lengthAdjust="spacing" textLength="41.6667" x="181.25" y="74.1211">Arrays</text><line style="stroke:#5E5E5E;stroke-width:1.5625;" x1="8.3333" x2="364.5833" y1="85.0911" y2="85.0911"/><line style="stroke:#5E5E5E;stroke-width:1.0416666666666667;" x1="8.3333" x2="364.5833" y1="93.4245" y2="93.4245"/><ellipse cx="18.75" cy="104.8828" fill="#84BE84" rx="3.125" ry="3.125" style="stroke:#038048;stroke-width:1.0416666666666667;"/><text fill="#D8BC00" font-family="Open Sans,Avenir,Nunito,Arial,Helvetica,SansSerif" font-size="11.4583" lengthAdjust="spacing" textLength="152.0833" x="30.2083" y="111.794">T[] concatenate(T[] a, T[] b)</text><ellipse cx="18.75" cy="124.6277" fill="#84BE84" rx="3.125" ry="3.125" style="stroke:#038048;stroke-width:1.0416666666666667;"/><text fill="#D8BC00" font-family="Open Sans,Avenir,Nunito,Arial,Helvetica,SansSerif" font-size="11.4583" lengthAdjust="spacing" textLength="172.9167" x="30.2083" y="131.5389">long[] reverse(long[] elements)</text><ellipse cx="18.75" cy="144.3726" fill="#84BE84" rx="3.125" ry="3.125" style="stroke:#038048;stroke-width:1.0416666666666667;"/><text fill="#D8BC00" font-family="Open Sans,Avenir,Nunito,Arial,Helvetica,SansSerif" font-size="11.4583" lengthAdjust="spacing" textLength="152.0833" x="30.2083" y="151.2838">int[] reverse(int[] elements)</text><ellipse cx="18.75" cy="164.1174" fill="#84BE84" rx="3.125" ry="3.125" style="stroke:#038048;stroke-width:1.0416666666666667;"/><text fill="#D8BC00" font-family="Open Sans,Avenir,Nunito,Arial,Helvetica,SansSerif" font-size="11.4583" lengthAdjust="spacing" textLength="326.0417" x="30.2083" y="171.0286">void reverseRange(long[] array, int fromIndex, int toIndex)</text><ellipse cx="18.75" cy="207.7738" fill="#84BE84" rx="3.125" ry="3.125" style="stroke:#038048;stroke-width:1.0416666666666667;"/><text fill="#D8BC00" font-family="Open Sans,Avenir,Nunito,Arial,Helvetica,SansSerif" font-size="11.4583" lengthAdjust="spacing" textLength="203.125" x="30.2083" y="214.6851">boolean contains(T[] array, T object)</text><line style="stroke:#5E5E5E;stroke-width:1.0416666666666667;" x1="8.3333" x2="152.0833" y1="190.6097" y2="190.6097"/><text fill="#D8BC00" font-family="Open Sans,Avenir,Nunito,Arial,Helvetica,SansSerif" font-size="11.4583" lengthAdjust="spacing" textLength="62.5" x="155.2083" y="194.4194">(collection)</text><line style="stroke:#5E5E5E;stroke-width:1.0416666666666667;" x1="220.8333" x2="364.5833" y1="190.6097" y2="190.6097"/><ellipse cx="18.75" cy="251.4303" fill="#84BE84" rx="3.125" ry="3.125" style="stroke:#038048;stroke-width:1.0416666666666667;"/><text fill="#D8BC00" font-family="Open Sans,Avenir,Nunito,Arial,Helvetica,SansSerif" font-size="11.4583" lengthAdjust="spacing" textLength="227.0833" x="30.2083" y="258.3415">String asHexadecimalString(byte[] bytes)</text><line style="stroke:#5E5E5E;stroke-width:1.0416666666666667;" x1="8.3333" x2="147.9167" y1="234.2662" y2="234.2662"/><text fill="#D8BC00" font-family="Open Sans,Avenir,Nunito,Arial,Helvetica,SansSerif" font-size="11.4583" lengthAdjust="spacing" textLength="70.8333" x="151.0417" y="238.0758">(conversion)</text><line style="stroke:#5E5E5E;stroke-width:1.0416666666666667;" x1="225" x2="364.5833" y1="234.2662" y2="234.2662"/><rect codeLine="20" fill="#282828" height="103.123" id="Booleans" rx="8.3333" ry="8.3333" style="stroke:#5E5E5E;stroke-width:1.0416666666666667;" width="159.375" x="402.6042" y="109.432"/><rect fill="#1B1B1A" height="31.3883" rx="8.3333" ry="8.3333" style="stroke:#1B1B1A;stroke-width:1.0416666666666667;" width="159.375" x="402.6042" y="109.432"/><rect fill="#1B1B1A" height="8.3333" style="stroke:#1B1B1A;stroke-width:1.0416666666666667;" width="159.375" x="402.6042" y="132.487"/><rect codeLine="20" fill="none" height="103.123" id="Booleans" rx="8.3333" ry="8.3333" style="stroke:#5E5E5E;stroke-width:1.0416666666666667;" width="159.375" x="402.6042" y="109.432"/><ellipse cx="445.3125" cy="125.1261" fill="#0066CF" rx="10.4167" ry="10.4167" style="stroke:#0086EF;stroke-width:1.0416666666666667;"/><path d="M447.2229,129.5512 Q446.7957,129.7709 446.3257,129.8808 Q445.8557,129.9906 445.3369,129.9906 Q443.4937,129.9906 442.5232,128.776 Q441.5527,127.5614 441.5527,125.2665 Q441.5527,122.9655 442.5232,121.7509 Q443.4937,120.5363 445.3369,120.5363 Q445.8557,120.5363 446.3318,120.6462 Q446.8079,120.756 447.2229,120.9757 L447.2229,122.9777 Q446.759,122.5505 446.3226,122.3521 Q445.8862,122.1537 445.4224,122.1537 Q444.4336,122.1537 443.9301,122.938 Q443.4265,123.7223 443.4265,125.2665 Q443.4265,126.8046 443.9301,127.5889 Q444.4336,128.3732 445.4224,128.3732 Q445.8862,128.3732 446.3226,128.1748 Q446.759,127.9765 447.2229,127.5492 Z " fill="#000000"/><text fill="#D8BC00" font-family="Open Sans,Avenir,Nunito,Arial,Helvetica,SansSerif" font-size="12.5" font-weight="bold" lengthAdjust="spacing" textLength="59.375" x="468.2292" y="129.8503">Booleans</text><line style="stroke:#5E5E5E;stroke-width:1.5625;" x1="403.6458" x2="560.9375" y1="140.8203" y2="140.8203"/><ellipse cx="414.0625" cy="176.1902" fill="#84BE84" rx="3.125" ry="3.125" style="stroke:#038048;stroke-width:1.0416666666666667;"/><text fill="#D8BC00" font-family="Open Sans,Avenir,Nunito,Arial,Helvetica,SansSerif" font-size="11.4583" lengthAdjust="spacing" textLength="127.0833" x="425.5208" y="183.1014">boolean isFalse(String)</text><ellipse cx="414.0625" cy="195.9351" fill="#84BE84" rx="3.125" ry="3.125" style="stroke:#038048;stroke-width:1.0416666666666667;"/><text fill="#D8BC00" font-family="Open Sans,Avenir,Nunito,Arial,Helvetica,SansSerif" font-size="11.4583" lengthAdjust="spacing" textLength="125" x="425.5208" y="202.8463">boolean isTrue(String)</text><line style="stroke:#5E5E5E;stroke-width:1.0416666666666667;" x1="403.6458" x2="455.7292" y1="159.0261" y2="159.0261"/><text fill="#D8BC00" font-family="Open Sans,Avenir,Nunito,Arial,Helvetica,SansSerif" font-size="11.4583" lengthAdjust="spacing" textLength="46.875" x="458.8542" y="162.8357">(checks)</text><line style="stroke:#5E5E5E;stroke-width:1.0416666666666667;" x1="508.8542" x2="560.9375" y1="159.0261" y2="159.0261"/><rect codeLine="27" fill="#282828" height="214.3473" id="Doubles" rx="8.3333" ry="8.3333" style="stroke:#5E5E5E;stroke-width:1.0416666666666667;" width="465.625" x="598.4375" y="53.7028"/><rect fill="#1B1B1A" height="31.3883" rx="8.3333" ry="8.3333" style="stroke:#1B1B1A;stroke-width:1.0416666666666667;" width="465.625" x="598.4375" y="53.7028"/><rect fill="#1B1B1A" height="8.3333" style="stroke:#1B1B1A;stroke-width:1.0416666666666667;" width="465.625" x="598.4375" y="76.7578"/><rect codeLine="27" fill="none" height="214.3473" id="Doubles" rx="8.3333" ry="8.3333" style="stroke:#5E5E5E;stroke-width:1.0416666666666667;" width="465.625" x="598.4375" y="53.7028"/><ellipse cx="796.875" cy="69.397" fill="#0066CF" rx="10.4167" ry="10.4167" style="stroke:#0086EF;stroke-width:1.0416666666666667;"/><path d="M798.7854,73.822 Q798.3582,74.0417 797.8882,74.1516 Q797.4182,74.2615 796.8994,74.2615 Q795.0562,74.2615 794.0857,73.0469 Q793.1152,71.8323 793.1152,69.5374 Q793.1152,67.2363 794.0857,66.0217 Q795.0562,64.8071 796.8994,64.8071 Q797.4182,64.8071 797.8943,64.917 Q798.3704,65.0269 798.7854,65.2466 L798.7854,67.2485 Q798.3215,66.8213 797.8851,66.6229 Q797.4487,66.4246 796.9849,66.4246 Q795.9961,66.4246 795.4926,67.2089 Q794.989,67.9932 794.989,69.5374 Q794.989,71.0754 795.4926,71.8597 Q795.9961,72.644 796.9849,72.644 Q797.4487,72.644 797.8851,72.4457 Q798.3215,72.2473 798.7854,71.8201 Z " fill="#000000"/><text fill="#D8BC00" font-family="Open Sans,Avenir,Nunito,Arial,Helvetica,SansSerif" font-size="12.5" font-weight="bold" lengthAdjust="spacing" textLength="54.1667" x="819.7917" y="74.1211">Doubles</text><line style="stroke:#5E5E5E;stroke-width:1.5625;" x1="599.4792" x2="1063.0208" y1="85.0911" y2="85.0911"/><line style="stroke:#5E5E5E;stroke-width:1.0416666666666667;" x1="599.4792" x2="1063.0208" y1="93.4245" y2="93.4245"/><ellipse cx="609.8958" cy="104.8828" fill="#84BE84" rx="3.125" ry="3.125" style="stroke:#038048;stroke-width:1.0416666666666667;"/><text fill="#D8BC00" font-family="Open Sans,Avenir,Nunito,Arial,Helvetica,SansSerif" font-size="11.4583" lengthAdjust="spacing" textLength="226.0417" x="621.3542" y="111.794">String format(double value, int decimals)</text><ellipse cx="609.8958" cy="124.6277" fill="#84BE84" rx="3.125" ry="3.125" style="stroke:#038048;stroke-width:1.0416666666666667;"/><text fill="#D8BC00" font-family="Open Sans,Avenir,Nunito,Arial,Helvetica,SansSerif" font-size="11.4583" lengthAdjust="spacing" textLength="153.125" x="621.3542" y="131.5389">String format(double value)</text><ellipse cx="609.8958" cy="144.3726" fill="#84BE84" rx="3.125" ry="3.125" style="stroke:#038048;stroke-width:1.0416666666666667;"/><text fill="#D8BC00" font-family="Open Sans,Avenir,Nunito,Arial,Helvetica,SansSerif" font-size="11.4583" lengthAdjust="spacing" textLength="368.75" x="621.3542" y="151.2838">double inRange(double value, double minimum, double maximum)</text><ellipse cx="609.8958" cy="164.1174" fill="#84BE84" rx="3.125" ry="3.125" style="stroke:#038048;stroke-width:1.0416666666666667;"/><text fill="#D8BC00" font-family="Open Sans,Avenir,Nunito,Arial,Helvetica,SansSerif" font-size="11.4583" lengthAdjust="spacing" textLength="144.7917" x="621.3542" y="171.0286">int rounded(double value)</text><ellipse cx="609.8958" cy="207.7738" fill="#84BE84" rx="3.125" ry="3.125" style="stroke:#038048;stroke-width:1.0416666666666667;"/><text fill="#D8BC00" font-family="Open Sans,Avenir,Nunito,Arial,Helvetica,SansSerif" font-size="11.4583" lengthAdjust="spacing" textLength="433.3333" x="621.3542" y="214.6851">boolean isBetweenInclusive(double value, double minimum, double maximum)</text><line style="stroke:#5E5E5E;stroke-width:1.0416666666666667;" x1="599.4792" x2="804.6875" y1="190.6097" y2="190.6097"/><text fill="#D8BC00" font-family="Open Sans,Avenir,Nunito,Arial,Helvetica,SansSerif" font-size="11.4583" lengthAdjust="spacing" textLength="46.875" x="807.8125" y="194.4194">(checks)</text><line style="stroke:#5E5E5E;stroke-width:1.0416666666666667;" x1="857.8125" x2="1063.0208" y1="190.6097" y2="190.6097"/><ellipse cx="609.8958" cy="251.4303" fill="#84BE84" rx="3.125" ry="3.125" style="stroke:#038048;stroke-width:1.0416666666666667;"/><text fill="#D8BC00" font-family="Open Sans,Avenir,Nunito,Arial,Helvetica,SansSerif" font-size="11.4583" lengthAdjust="spacing" textLength="286.4583" x="621.3542" y="258.3415">double fastParse(String value, double denominator)</text><line style="stroke:#5E5E5E;stroke-width:1.0416666666666667;" x1="599.4792" x2="802.6042" y1="234.2662" y2="234.2662"/><text fill="#D8BC00" font-family="Open Sans,Avenir,Nunito,Arial,Helvetica,SansSerif" font-size="11.4583" lengthAdjust="spacing" textLength="51.0417" x="805.7292" y="238.0758">(parsing)</text><line style="stroke:#5E5E5E;stroke-width:1.0416666666666667;" x1="859.8958" x2="1063.0208" y1="234.2662" y2="234.2662"/><rect codeLine="40" fill="#282828" height="475.1973" id="Ints" rx="8.3333" ry="8.3333" style="stroke:#5E5E5E;stroke-width:1.0416666666666667;" width="354.1667" x="9.375" y="330.7861"/><rect fill="#1B1B1A" height="31.3883" rx="8.3333" ry="8.3333" style="stroke:#1B1B1A;stroke-width:1.0416666666666667;" width="354.1667" x="9.375" y="330.7861"/><rect fill="#1B1B1A" height="8.3333" style="stroke:#1B1B1A;stroke-width:1.0416666666666667;" width="354.1667" x="9.375" y="353.8411"/><rect codeLine="40" fill="none" height="475.1973" id="Ints" rx="8.3333" ry="8.3333" style="stroke:#5E5E5E;stroke-width:1.0416666666666667;" width="354.1667" x="9.375" y="330.7861"/><ellipse cx="166.6667" cy="346.4803" fill="#0066CF" rx="10.4167" ry="10.4167" style="stroke:#0086EF;stroke-width:1.0416666666666667;"/><path d="M168.5771,350.9054 Q168.1498,351.1251 167.6799,351.2349 Q167.2099,351.3448 166.6911,351.3448 Q164.8478,351.3448 163.8774,350.1302 Q162.9069,348.9156 162.9069,346.6207 Q162.9069,344.3197 163.8774,343.1051 Q164.8478,341.8905 166.6911,341.8905 Q167.2099,341.8905 167.686,342.0003 Q168.162,342.1102 168.5771,342.3299 L168.5771,344.3319 Q168.1132,343.9046 167.6768,343.7063 Q167.2404,343.5079 166.7765,343.5079 Q165.7878,343.5079 165.2842,344.2922 Q164.7807,345.0765 164.7807,346.6207 Q164.7807,348.1588 165.2842,348.9431 Q165.7878,349.7274 166.7765,349.7274 Q167.2404,349.7274 167.6768,349.529 Q168.1132,349.3306 168.5771,348.9034 Z " fill="#000000"/><text fill="#D8BC00" font-family="Open Sans,Avenir,Nunito,Arial,Helvetica,SansSerif" font-size="12.5" font-weight="bold" lengthAdjust="spacing" textLength="25" x="189.5833" y="351.2044">Ints</text><line style="stroke:#5E5E5E;stroke-width:1.5625;" x1="10.4167" x2="362.5" y1="362.1745" y2="362.1745"/><line style="stroke:#5E5E5E;stroke-width:1.0416666666666667;" x1="10.4167" x2="362.5" y1="370.5078" y2="370.5078"/><ellipse cx="20.8333" cy="381.9661" fill="#84BE84" rx="3.125" ry="3.125" style="stroke:#038048;stroke-width:1.0416666666666667;"/><text fill="#D8BC00" font-family="Open Sans,Avenir,Nunito,Arial,Helvetica,SansSerif" font-size="11.4583" lengthAdjust="spacing" textLength="187.5" x="32.2917" y="388.8774">String commaSeparated(int value)</text><ellipse cx="20.8333" cy="401.711" fill="#84BE84" rx="3.125" ry="3.125" style="stroke:#038048;stroke-width:1.0416666666666667;"/><text fill="#D8BC00" font-family="Open Sans,Avenir,Nunito,Arial,Helvetica,SansSerif" font-size="11.4583" lengthAdjust="spacing" textLength="104.1667" x="32.2917" y="408.6222">int digits(int value)</text><ellipse cx="20.8333" cy="421.4559" fill="#84BE84" rx="3.125" ry="3.125" style="stroke:#038048;stroke-width:1.0416666666666667;"/><text fill="#D8BC00" font-family="Open Sans,Avenir,Nunito,Arial,Helvetica,SansSerif" font-size="11.4583" lengthAdjust="spacing" textLength="234.375" x="32.2917" y="428.3671">int forHighLow(int highWord, int lowWord)</text><ellipse cx="20.8333" cy="441.2008" fill="#84BE84" rx="3.125" ry="3.125" style="stroke:#038048;stroke-width:1.0416666666666667;"/><text fill="#D8BC00" font-family="Open Sans,Avenir,Nunito,Arial,Helvetica,SansSerif" font-size="11.4583" lengthAdjust="spacing" textLength="97.9167" x="32.2917" y="448.112">int high(int value)</text><ellipse cx="20.8333" cy="460.9456" fill="#84BE84" rx="3.125" ry="3.125" style="stroke:#038048;stroke-width:1.0416666666666667;"/><text fill="#D8BC00" font-family="Open Sans,Avenir,Nunito,Arial,Helvetica,SansSerif" font-size="11.4583" lengthAdjust="spacing" textLength="321.875" x="32.2917" y="467.8569">int inRangeInclusive(int value, int minimum, int maximum)</text><ellipse cx="20.8333" cy="480.6905" fill="#84BE84" rx="3.125" ry="3.125" style="stroke:#038048;stroke-width:1.0416666666666667;"/><text fill="#D8BC00" font-family="Open Sans,Avenir,Nunito,Arial,Helvetica,SansSerif" font-size="11.4583" lengthAdjust="spacing" textLength="91.6667" x="32.2917" y="487.6017">int low(int value)</text><ellipse cx="20.8333" cy="500.4354" fill="#84BE84" rx="3.125" ry="3.125" style="stroke:#038048;stroke-width:1.0416666666666667;"/><text fill="#D8BC00" font-family="Open Sans,Avenir,Nunito,Arial,Helvetica,SansSerif" font-size="11.4583" lengthAdjust="spacing" textLength="146.875" x="32.2917" y="507.3466">int powerOfTen(int power)</text><ellipse cx="20.8333" cy="520.1803" fill="#84BE84" rx="3.125" ry="3.125" style="stroke:#038048;stroke-width:1.0416666666666667;"/><text fill="#D8BC00" font-family="Open Sans,Avenir,Nunito,Arial,Helvetica,SansSerif" font-size="11.4583" lengthAdjust="spacing" textLength="202.0833" x="32.2917" y="527.0915">int quantized(int value, int quantum)</text><ellipse cx="20.8333" cy="539.9251" fill="#84BE84" rx="3.125" ry="3.125" style="stroke:#038048;stroke-width:1.0416666666666667;"/><text fill="#D8BC00" font-family="Open Sans,Avenir,Nunito,Arial,Helvetica,SansSerif" font-size="11.4583" lengthAdjust="spacing" textLength="144.7917" x="32.2917" y="546.8363">int rounded(double value)</text><ellipse cx="20.8333" cy="559.67" fill="#84BE84" rx="3.125" ry="3.125" style="stroke:#038048;stroke-width:1.0416666666666667;"/><text fill="#D8BC00" font-family="Open Sans,Avenir,Nunito,Arial,Helvetica,SansSerif" font-size="11.4583" lengthAdjust="spacing" textLength="180.2083" x="32.2917" y="566.5812">int signExtend(int value, int bits)</text><ellipse cx="20.8333" cy="603.3264" fill="#84BE84" rx="3.125" ry="3.125" style="stroke:#038048;stroke-width:1.0416666666666667;"/><text fill="#D8BC00" font-family="Open Sans,Avenir,Nunito,Arial,Helvetica,SansSerif" font-size="11.4583" lengthAdjust="spacing" textLength="301.0417" x="32.2917" y="610.2376">boolean isBetweenExclusive(int value, int low, int high)</text><ellipse cx="20.8333" cy="623.0713" fill="#84BE84" rx="3.125" ry="3.125" style="stroke:#038048;stroke-width:1.0416666666666667;"/><text fill="#D8BC00" font-family="Open Sans,Avenir,Nunito,Arial,Helvetica,SansSerif" font-size="11.4583" lengthAdjust="spacing" textLength="297.9167" x="32.2917" y="629.9825">boolean isBetweenInclusive(int value, int low, int high)</text><line style="stroke:#5E5E5E;stroke-width:1.0416666666666667;" x1="10.4167" x2="159.8958" y1="586.1623" y2="586.1623"/><text fill="#D8BC00" font-family="Open Sans,Avenir,Nunito,Arial,Helvetica,SansSerif" font-size="11.4583" lengthAdjust="spacing" textLength="46.875" x="163.0208" y="589.9719">(checks)</text><line style="stroke:#5E5E5E;stroke-width:1.0416666666666667;" x1="213.0208" x2="362.5" y1="586.1623" y2="586.1623"/><ellipse cx="20.8333" cy="666.7277" fill="#84BE84" rx="3.125" ry="3.125" style="stroke:#038048;stroke-width:1.0416666666666667;"/><text fill="#D8BC00" font-family="Open Sans,Avenir,Nunito,Arial,Helvetica,SansSerif" font-size="11.4583" lengthAdjust="spacing" textLength="184.375" x="32.2917" y="673.6389">String toHex(int value, int length)</text><ellipse cx="20.8333" cy="686.4726" fill="#84BE84" rx="3.125" ry="3.125" style="stroke:#038048;stroke-width:1.0416666666666667;"/><text fill="#D8BC00" font-family="Open Sans,Avenir,Nunito,Arial,Helvetica,SansSerif" font-size="11.4583" lengthAdjust="spacing" textLength="125" x="32.2917" y="693.3838">String toHex(int value)</text><line style="stroke:#5E5E5E;stroke-width:1.0416666666666667;" x1="10.4167" x2="147.9167" y1="649.5636" y2="649.5636"/><text fill="#D8BC00" font-family="Open Sans,Avenir,Nunito,Arial,Helvetica,SansSerif" font-size="11.4583" lengthAdjust="spacing" textLength="70.8333" x="151.0417" y="653.3732">(conversion)</text><line style="stroke:#5E5E5E;stroke-width:1.0416666666666667;" x1="225" x2="362.5" y1="649.5636" y2="649.5636"/><ellipse cx="20.8333" cy="730.129" fill="#84BE84" rx="3.125" ry="3.125" style="stroke:#038048;stroke-width:1.0416666666666667;"/><text fill="#D8BC00" font-family="Open Sans,Avenir,Nunito,Arial,Helvetica,SansSerif" font-size="11.4583" lengthAdjust="spacing" textLength="229.1667" x="32.2917" y="737.0402">int parseFast(String text, int invalidValue)</text><ellipse cx="20.8333" cy="749.8739" fill="#84BE84" rx="3.125" ry="3.125" style="stroke:#038048;stroke-width:1.0416666666666667;"/><text fill="#D8BC00" font-family="Open Sans,Avenir,Nunito,Arial,Helvetica,SansSerif" font-size="11.4583" lengthAdjust="spacing" textLength="138.5417" x="32.2917" y="756.7851">int parseFast(String text)</text><ellipse cx="20.8333" cy="769.6187" fill="#84BE84" rx="3.125" ry="3.125" style="stroke:#038048;stroke-width:1.0416666666666667;"/><text fill="#D8BC00" font-family="Open Sans,Avenir,Nunito,Arial,Helvetica,SansSerif" font-size="11.4583" lengthAdjust="spacing" textLength="198.9583" x="32.2917" y="776.5299">int parseFastNaturalNumber(String)</text><ellipse cx="20.8333" cy="789.3636" fill="#84BE84" rx="3.125" ry="3.125" style="stroke:#038048;stroke-width:1.0416666666666667;"/><text fill="#D8BC00" font-family="Open Sans,Avenir,Nunito,Arial,Helvetica,SansSerif" font-size="11.4583" lengthAdjust="spacing" textLength="181.25" x="32.2917" y="796.2748">int parseInt(Listener, String text)</text><line style="stroke:#5E5E5E;stroke-width:1.0416666666666667;" x1="10.4167" x2="157.8125" y1="712.9649" y2="712.9649"/><text fill="#D8BC00" font-family="Open Sans,Avenir,Nunito,Arial,Helvetica,SansSerif" font-size="11.4583" lengthAdjust="spacing" textLength="51.0417" x="160.9375" y="716.7745">(parsing)</text><line style="stroke:#5E5E5E;stroke-width:1.0416666666666667;" x1="215.1042" x2="362.5" y1="712.9649" y2="712.9649"/><rect codeLine="66" fill="#282828" height="420.1294" id="Longs" rx="8.3333" ry="8.3333" style="stroke:#5E5E5E;stroke-width:1.0416666666666667;" width="386.4583" x="400.5208" y="358.3903"/><rect fill="#1B1B1A" height="31.3883" rx="8.3333" ry="8.3333" style="stroke:#1B1B1A;stroke-width:1.0416666666666667;" width="386.4583" x="400.5208" y="358.3903"/><rect fill="#1B1B1A" height="8.3333" style="stroke:#1B1B1A;stroke-width:1.0416666666666667;" width="386.4583" x="400.5208" y="381.4453"/><rect codeLine="66" fill="none" height="420.1294" id="Longs" rx="8.3333" ry="8.3333" style="stroke:#5E5E5E;stroke-width:1.0416666666666667;" width="386.4583" x="400.5208" y="358.3903"/><ellipse cx="566.6667" cy="374.0845" fill="#0066CF" rx="10.4167" ry="10.4167" style="stroke:#0086EF;stroke-width:1.0416666666666667;"/><path d="M568.5771,378.5095 Q568.1498,378.7292 567.6799,378.8391 Q567.2099,378.949 566.6911,378.949 Q564.8478,378.949 563.8774,377.7344 Q562.9069,376.5198 562.9069,374.2249 Q562.9069,371.9238 563.8774,370.7092 Q564.8478,369.4946 566.6911,369.4946 Q567.2099,369.4946 567.686,369.6045 Q568.162,369.7144 568.5771,369.9341 L568.5771,371.936 Q568.1132,371.5088 567.6768,371.3104 Q567.2404,371.1121 566.7765,371.1121 Q565.7878,371.1121 565.2842,371.8964 Q564.7807,372.6807 564.7807,374.2249 Q564.7807,375.7629 565.2842,376.5472 Q565.7878,377.3315 566.7765,377.3315 Q567.2404,377.3315 567.6768,377.1332 Q568.1132,376.9348 568.5771,376.5076 Z " fill="#000000"/><text fill="#D8BC00" font-family="Open Sans,Avenir,Nunito,Arial,Helvetica,SansSerif" font-size="12.5" font-weight="bold" lengthAdjust="spacing" textLength="39.5833" x="589.5833" y="378.8086">Longs</text><line style="stroke:#5E5E5E;stroke-width:1.5625;" x1="401.5625" x2="785.9375" y1="389.7786" y2="389.7786"/><line style="stroke:#5E5E5E;stroke-width:1.0416666666666667;" x1="401.5625" x2="785.9375" y1="398.112" y2="398.112"/><ellipse cx="411.9792" cy="409.5703" fill="#84BE84" rx="3.125" ry="3.125" style="stroke:#038048;stroke-width:1.0416666666666667;"/><text fill="#D8BC00" font-family="Open Sans,Avenir,Nunito,Arial,Helvetica,SansSerif" font-size="11.4583" lengthAdjust="spacing" textLength="197.9167" x="423.4375" y="416.4815">String commaSeparated(long value)</text><ellipse cx="411.9792" cy="429.3152" fill="#84BE84" rx="3.125" ry="3.125" style="stroke:#038048;stroke-width:1.0416666666666667;"/><text fill="#D8BC00" font-family="Open Sans,Avenir,Nunito,Arial,Helvetica,SansSerif" font-size="11.4583" lengthAdjust="spacing" textLength="186.4583" x="423.4375" y="436.2264">long forHighLow(int high, int low)</text><ellipse cx="411.9792" cy="449.0601" fill="#84BE84" rx="3.125" ry="3.125" style="stroke:#038048;stroke-width:1.0416666666666667;"/><text fill="#D8BC00" font-family="Open Sans,Avenir,Nunito,Arial,Helvetica,SansSerif" font-size="11.4583" lengthAdjust="spacing" textLength="108.3333" x="423.4375" y="455.9713">int high(long value)</text><ellipse cx="411.9792" cy="468.8049" fill="#84BE84" rx="3.125" ry="3.125" style="stroke:#038048;stroke-width:1.0416666666666667;"/><text fill="#D8BC00" font-family="Open Sans,Avenir,Nunito,Arial,Helvetica,SansSerif" font-size="11.4583" lengthAdjust="spacing" textLength="301.0417" x="423.4375" y="475.7161">long inRangeInclusive(long value, long min, long max)</text><ellipse cx="411.9792" cy="488.5498" fill="#84BE84" rx="3.125" ry="3.125" style="stroke:#038048;stroke-width:1.0416666666666667;"/><text fill="#D8BC00" font-family="Open Sans,Avenir,Nunito,Arial,Helvetica,SansSerif" font-size="11.4583" lengthAdjust="spacing" textLength="102.0833" x="423.4375" y="495.461">int low(long value)</text><ellipse cx="411.9792" cy="508.2947" fill="#84BE84" rx="3.125" ry="3.125" style="stroke:#038048;stroke-width:1.0416666666666667;"/><text fill="#D8BC00" font-family="Open Sans,Avenir,Nunito,Arial,Helvetica,SansSerif" font-size="11.4583" lengthAdjust="spacing" textLength="354.1667" x="423.4375" y="515.2059">long random(Random, long minimum, long maximumExclusive)</text><ellipse cx="411.9792" cy="551.9511" fill="#84BE84" rx="3.125" ry="3.125" style="stroke:#038048;stroke-width:1.0416666666666667;"/><text fill="#D8BC00" font-family="Open Sans,Avenir,Nunito,Arial,Helvetica,SansSerif" font-size="11.4583" lengthAdjust="spacing" textLength="332.2917" x="423.4375" y="558.8623">boolean isBetweenExclusive(long value, long low, long high)</text><ellipse cx="411.9792" cy="571.696" fill="#84BE84" rx="3.125" ry="3.125" style="stroke:#038048;stroke-width:1.0416666666666667;"/><text fill="#D8BC00" font-family="Open Sans,Avenir,Nunito,Arial,Helvetica,SansSerif" font-size="11.4583" lengthAdjust="spacing" textLength="329.1667" x="423.4375" y="578.6072">boolean isBetweenInclusive(long value, long low, long high)</text><line style="stroke:#5E5E5E;stroke-width:1.0416666666666667;" x1="401.5625" x2="567.1875" y1="534.787" y2="534.787"/><text fill="#D8BC00" font-family="Open Sans,Avenir,Nunito,Arial,Helvetica,SansSerif" font-size="11.4583" lengthAdjust="spacing" textLength="46.875" x="570.3125" y="538.5966">(checks)</text><line style="stroke:#5E5E5E;stroke-width:1.0416666666666667;" x1="620.3125" x2="785.9375" y1="534.787" y2="534.787"/><ellipse cx="411.9792" cy="615.3524" fill="#84BE84" rx="3.125" ry="3.125" style="stroke:#038048;stroke-width:1.0416666666666667;"/><text fill="#D8BC00" font-family="Open Sans,Avenir,Nunito,Arial,Helvetica,SansSerif" font-size="11.4583" lengthAdjust="spacing" textLength="205.2083" x="423.4375" y="622.2636">String toHex(long value, long length)</text><ellipse cx="411.9792" cy="635.0972" fill="#84BE84" rx="3.125" ry="3.125" style="stroke:#038048;stroke-width:1.0416666666666667;"/><text fill="#D8BC00" font-family="Open Sans,Avenir,Nunito,Arial,Helvetica,SansSerif" font-size="11.4583" lengthAdjust="spacing" textLength="135.4167" x="423.4375" y="642.0085">String toHex(long value)</text><line style="stroke:#5E5E5E;stroke-width:1.0416666666666667;" x1="401.5625" x2="555.2083" y1="598.1883" y2="598.1883"/><text fill="#D8BC00" font-family="Open Sans,Avenir,Nunito,Arial,Helvetica,SansSerif" font-size="11.4583" lengthAdjust="spacing" textLength="70.8333" x="558.3333" y="601.9979">(conversion)</text><line style="stroke:#5E5E5E;stroke-width:1.0416666666666667;" x1="632.2917" x2="785.9375" y1="598.1883" y2="598.1883"/><ellipse cx="411.9792" cy="678.7537" fill="#84BE84" rx="3.125" ry="3.125" style="stroke:#038048;stroke-width:1.0416666666666667;"/><text fill="#D8BC00" font-family="Open Sans,Avenir,Nunito,Arial,Helvetica,SansSerif" font-size="11.4583" lengthAdjust="spacing" textLength="123.9583" x="423.4375" y="685.6649">long parseFast(String)</text><ellipse cx="411.9792" cy="698.4985" fill="#84BE84" rx="3.125" ry="3.125" style="stroke:#038048;stroke-width:1.0416666666666667;"/><text fill="#D8BC00" font-family="Open Sans,Avenir,Nunito,Arial,Helvetica,SansSerif" font-size="11.4583" lengthAdjust="spacing" textLength="194.7917" x="423.4375" y="705.4097">long parseFast(String, long invalid)</text><ellipse cx="411.9792" cy="718.2434" fill="#84BE84" rx="3.125" ry="3.125" style="stroke:#038048;stroke-width:1.0416666666666667;"/><text fill="#D8BC00" font-family="Open Sans,Avenir,Nunito,Arial,Helvetica,SansSerif" font-size="11.4583" lengthAdjust="spacing" textLength="209.375" x="423.4375" y="725.1546">long parseFastNaturalNumber(String)</text><line style="stroke:#5E5E5E;stroke-width:1.0416666666666667;" x1="401.5625" x2="565.1042" y1="661.5896" y2="661.5896"/><text fill="#D8BC00" font-family="Open Sans,Avenir,Nunito,Arial,Helvetica,SansSerif" font-size="11.4583" lengthAdjust="spacing" textLength="51.0417" x="568.2292" y="665.3992">(parsing)</text><line style="stroke:#5E5E5E;stroke-width:1.0416666666666667;" x1="622.3958" x2="785.9375" y1="661.5896" y2="661.5896"/><ellipse cx="411.9792" cy="761.8998" fill="#84BE84" rx="3.125" ry="3.125" style="stroke:#038048;stroke-width:1.0416666666666667;"/><text fill="#D8BC00" font-family="Open Sans,Avenir,Nunito,Arial,Helvetica,SansSerif" font-size="11.4583" lengthAdjust="spacing" textLength="311.4583" x="423.4375" y="768.811">boolean searchWords(long value, int bits, int searchFor)</text><line style="stroke:#5E5E5E;stroke-width:1.0416666666666667;" x1="401.5625" x2="567.7083" y1="744.7357" y2="744.7357"/><text fill="#D8BC00" font-family="Open Sans,Avenir,Nunito,Arial,Helvetica,SansSerif" font-size="11.4583" lengthAdjust="spacing" textLength="45.8333" x="570.8333" y="748.5453">(search)</text><line style="stroke:#5E5E5E;stroke-width:1.0416666666666667;" x1="619.7917" x2="785.9375" y1="744.7357" y2="744.7357"/><rect codeLine="89" fill="#282828" height="174.8576" id="Primes" rx="8.3333" ry="8.3333" style="stroke:#5E5E5E;stroke-width:1.0416666666666667;" width="229.1667" x="823.9583" y="480.7861"/><rect fill="#1B1B1A" height="31.3883" rx="8.3333" ry="8.3333" style="stroke:#1B1B1A;stroke-width:1.0416666666666667;" width="229.1667" x="823.9583" y="480.7861"/><rect fill="#1B1B1A" height="8.3333" style="stroke:#1B1B1A;stroke-width:1.0416666666666667;" width="229.1667" x="823.9583" y="503.8411"/><rect codeLine="89" fill="none" height="174.8576" id="Primes" rx="8.3333" ry="8.3333" style="stroke:#5E5E5E;stroke-width:1.0416666666666667;" width="229.1667" x="823.9583" y="480.7861"/><ellipse cx="909.375" cy="496.4803" fill="#0066CF" rx="10.4167" ry="10.4167" style="stroke:#0086EF;stroke-width:1.0416666666666667;"/><path d="M911.2854,500.9054 Q910.8582,501.1251 910.3882,501.2349 Q909.9182,501.3448 909.3994,501.3448 Q907.5562,501.3448 906.5857,500.1302 Q905.6152,498.9156 905.6152,496.6207 Q905.6152,494.3197 906.5857,493.1051 Q907.5562,491.8905 909.3994,491.8905 Q909.9182,491.8905 910.3943,492.0003 Q910.8704,492.1102 911.2854,492.3299 L911.2854,494.3319 Q910.8215,493.9046 910.3851,493.7063 Q909.9487,493.5079 909.4849,493.5079 Q908.4961,493.5079 907.9926,494.2922 Q907.489,495.0765 907.489,496.6207 Q907.489,498.1588 907.9926,498.9431 Q908.4961,499.7274 909.4849,499.7274 Q909.9487,499.7274 910.3851,499.529 Q910.8215,499.3306 911.2854,498.9034 Z " fill="#000000"/><text fill="#D8BC00" font-family="Open Sans,Avenir,Nunito,Arial,Helvetica,SansSerif" font-size="12.5" font-weight="bold" lengthAdjust="spacing" textLength="43.75" x="932.2917" y="501.2044">Primes</text><line style="stroke:#5E5E5E;stroke-width:1.5625;" x1="825" x2="1052.0833" y1="512.1745" y2="512.1745"/><line style="stroke:#5E5E5E;stroke-width:1.0416666666666667;" x1="825" x2="1052.0833" y1="520.5078" y2="520.5078"/><ellipse cx="835.4167" cy="531.9661" fill="#84BE84" rx="3.125" ry="3.125" style="stroke:#038048;stroke-width:1.0416666666666667;"/><text fill="#D8BC00" font-family="Open Sans,Avenir,Nunito,Arial,Helvetica,SansSerif" font-size="11.4583" lengthAdjust="spacing" textLength="132.2917" x="846.875" y="538.8774">void main(String[] args)</text><ellipse cx="835.4167" cy="551.711" fill="#84BE84" rx="3.125" ry="3.125" style="stroke:#038048;stroke-width:1.0416666666666667;"/><text fill="#D8BC00" font-family="Open Sans,Avenir,Nunito,Arial,Helvetica,SansSerif" font-size="11.4583" lengthAdjust="spacing" textLength="175" x="846.875" y="558.6222">int primePowerOfTwo(int value)</text><ellipse cx="835.4167" cy="595.3674" fill="#84BE84" rx="3.125" ry="3.125" style="stroke:#038048;stroke-width:1.0416666666666667;"/><text fill="#D8BC00" font-family="Open Sans,Avenir,Nunito,Arial,Helvetica,SansSerif" font-size="11.4583" lengthAdjust="spacing" textLength="121.875" x="846.875" y="602.2786">boolean isPrime(long)</text><line style="stroke:#5E5E5E;stroke-width:1.0416666666666667;" x1="825" x2="911.9792" y1="578.2033" y2="578.2033"/><text fill="#D8BC00" font-family="Open Sans,Avenir,Nunito,Arial,Helvetica,SansSerif" font-size="11.4583" lengthAdjust="spacing" textLength="46.875" x="915.1042" y="582.0129">(checks)</text><line style="stroke:#5E5E5E;stroke-width:1.0416666666666667;" x1="965.1042" x2="1052.0833" y1="578.2033" y2="578.2033"/><ellipse cx="835.4167" cy="639.0238" fill="#84BE84" rx="3.125" ry="3.125" style="stroke:#038048;stroke-width:1.0416666666666667;"/><text fill="#D8BC00" font-family="Open Sans,Avenir,Nunito,Arial,Helvetica,SansSerif" font-size="11.4583" lengthAdjust="spacing" textLength="196.875" x="846.875" y="645.9351">long primeAllocationSize(long size)</text><line style="stroke:#5E5E5E;stroke-width:1.0416666666666667;" x1="825" x2="904.1667" y1="621.8597" y2="621.8597"/><text fill="#D8BC00" font-family="Open Sans,Avenir,Nunito,Arial,Helvetica,SansSerif" font-size="11.4583" lengthAdjust="spacing" textLength="62.5" x="907.2917" y="625.6694">(collection)</text><line style="stroke:#5E5E5E;stroke-width:1.0416666666666667;" x1="972.9167" x2="1052.0833" y1="621.8597" y2="621.8597"/></g></svg>
