<?xml version="1.0" encoding="UTF-8" standalone="no"?><svg xmlns="http://www.w3.org/2000/svg" xmlns:xlink="http://www.w3.org/1999/xlink" contentScriptType="application/ecmascript" contentStyleType="text/css" height="747.9167px" preserveAspectRatio="none" style="width:1713px;height:747px;background:#333333;" version="1.1" viewBox="0 0 1713 747" width="1713.5417px" zoomAndPan="magnify"><defs/><g><rect fill="#48494B" height="41.2028" rx="8.3333" ry="8.3333" style="stroke:#545454;stroke-width:1.0416666666666667;" width="234.375" x="732.2917" y="2.0833"/><text fill="#C0C0C0" font-family="Open Sans,Avenir,Nunito,Arial,Helvetica,SansSerif" font-size="20.8333" lengthAdjust="spacing" textLength="211.4583" x="743.75" y="30.5583">kivakit-configuration</text><!--MD5=[4f079977920bf52107586fb847a1e92c]
entity kryo--><rect fill="#1B1B1A" height="44.93" rx="8.3333" ry="8.3333" style="stroke:#5E5E5E;stroke-width:1.5625;" width="63.5417" x="183.8542" y="482.8695"/><polygon fill="#1B1B1A" points="229.6875,488.0778,229.6875,502.6611,242.1875,502.6611,242.1875,494.3278,235.9375,488.0778,229.6875,488.0778" style="stroke:#5E5E5E;stroke-width:1.5625;"/><line style="stroke:#5E5E5E;stroke-width:1.5625;" x1="235.9375" x2="235.9375" y1="488.0778" y2="494.3278"/><line style="stroke:#5E5E5E;stroke-width:1.5625;" x1="242.1875" x2="235.9375" y1="494.3278" y2="494.3278"/><text fill="#D8BC00" font-family="Open Sans,Avenir,Nunito,Arial,Helvetica,SansSerif" font-size="12.5" lengthAdjust="spacing" textLength="26.0417" x="197.3958" y="511.6211">kryo</text><!--MD5=[745ab22dbfa32e29a2660b9e5bc2262a]
entity minlog--><rect fill="#1B1B1A" height="44.93" rx="8.3333" ry="8.3333" style="stroke:#5E5E5E;stroke-width:1.5625;" width="77.0833" x="7.2917" y="590.1611"/><polygon fill="#1B1B1A" points="66.6667,595.3695,66.6667,609.9528,79.1667,609.9528,79.1667,601.6195,72.9167,595.3695,66.6667,595.3695" style="stroke:#5E5E5E;stroke-width:1.5625;"/><line style="stroke:#5E5E5E;stroke-width:1.5625;" x1="72.9167" x2="72.9167" y1="595.3695" y2="601.6195"/><line style="stroke:#5E5E5E;stroke-width:1.5625;" x1="79.1667" x2="72.9167" y1="601.6195" y2="601.6195"/><text fill="#D8BC00" font-family="Open Sans,Avenir,Nunito,Arial,Helvetica,SansSerif" font-size="12.5" lengthAdjust="spacing" textLength="39.5833" x="20.8333" y="618.9128">minlog</text><!--MD5=[5d0bc62e6e2e5a8467f655d5e580826c]
entity reflectasm--><rect fill="#1B1B1A" height="44.93" rx="8.3333" ry="8.3333" style="stroke:#5E5E5E;stroke-width:1.5625;" width="100" x="120.8333" y="590.1611"/><polygon fill="#1B1B1A" points="203.125,595.3695,203.125,609.9528,215.625,609.9528,215.625,601.6195,209.375,595.3695,203.125,595.3695" style="stroke:#5E5E5E;stroke-width:1.5625;"/><line style="stroke:#5E5E5E;stroke-width:1.5625;" x1="209.375" x2="209.375" y1="595.3695" y2="601.6195"/><line style="stroke:#5E5E5E;stroke-width:1.5625;" x1="215.625" x2="209.375" y1="601.6195" y2="601.6195"/><text fill="#D8BC00" font-family="Open Sans,Avenir,Nunito,Arial,Helvetica,SansSerif" font-size="12.5" lengthAdjust="spacing" textLength="62.5" x="134.375" y="618.9128">reflectasm</text><!--MD5=[07375bd6ced801b2ef86c9d3f68eec61]
entity jackson_annotations--><rect fill="#1B1B1A" height="44.93" rx="8.3333" ry="8.3333" style="stroke:#5E5E5E;stroke-width:1.5625;" width="158.3333" x="695.8333" y="482.8695"/><polygon fill="#1B1B1A" points="836.4583,488.0778,836.4583,502.6611,848.9583,502.6611,848.9583,494.3278,842.7083,488.0778,836.4583,488.0778" style="stroke:#5E5E5E;stroke-width:1.5625;"/><line style="stroke:#5E5E5E;stroke-width:1.5625;" x1="842.7083" x2="842.7083" y1="488.0778" y2="494.3278"/><line style="stroke:#5E5E5E;stroke-width:1.5625;" x1="848.9583" x2="842.7083" y1="494.3278" y2="494.3278"/><text fill="#D8BC00" font-family="Open Sans,Avenir,Nunito,Arial,Helvetica,SansSerif" font-size="12.5" lengthAdjust="spacing" textLength="120.8333" x="709.375" y="511.6211">jackson_annotations</text><!--MD5=[53e810a96c27d4bd25e6a3839aaba16b]
entity gson--><rect fill="#1B1B1A" height="44.93" rx="8.3333" ry="8.3333" style="stroke:#5E5E5E;stroke-width:1.5625;" width="65.625" x="389.0625" y="590.1611"/><polygon fill="#1B1B1A" points="436.9792,595.3695,436.9792,609.9528,449.4792,609.9528,449.4792,601.6195,443.2292,595.3695,436.9792,595.3695" style="stroke:#5E5E5E;stroke-width:1.5625;"/><line style="stroke:#5E5E5E;stroke-width:1.5625;" x1="443.2292" x2="443.2292" y1="595.3695" y2="601.6195"/><line style="stroke:#5E5E5E;stroke-width:1.5625;" x1="449.4792" x2="443.2292" y1="601.6195" y2="601.6195"/><text fill="#D8BC00" font-family="Open Sans,Avenir,Nunito,Arial,Helvetica,SansSerif" font-size="12.5" lengthAdjust="spacing" textLength="28.125" x="402.6042" y="618.9128">gson</text><!--MD5=[4aa4ddcf3dc6d6219283db0a9fd05165]
entity cactus_build_metadata--><rect fill="#1B1B1A" height="44.93" rx="8.3333" ry="8.3333" style="stroke:#5E5E5E;stroke-width:1.5625;" width="175" x="890.625" y="482.8695"/><polygon fill="#1B1B1A" points="1047.9167,488.0778,1047.9167,502.6611,1060.4167,502.6611,1060.4167,494.3278,1054.1667,488.0778,1047.9167,488.0778" style="stroke:#5E5E5E;stroke-width:1.5625;"/><line style="stroke:#5E5E5E;stroke-width:1.5625;" x1="1054.1667" x2="1054.1667" y1="488.0778" y2="494.3278"/><line style="stroke:#5E5E5E;stroke-width:1.5625;" x1="1060.4167" x2="1054.1667" y1="494.3278" y2="494.3278"/><text fill="#D8BC00" font-family="Open Sans,Avenir,Nunito,Arial,Helvetica,SansSerif" font-size="12.5" lengthAdjust="spacing" textLength="137.5" x="904.1667" y="511.6211">cactus_build_metadata</text><!--MD5=[4facc4376e4b6bfc182ce14f42a813f9]
entity kivakit_collections--><rect fill="#1B1B1A" height="44.93" rx="8.3333" ry="8.3333" style="stroke:#5E5E5E;stroke-width:1.5625;" width="143.75" x="714.5833" y="268.2861"/><polygon fill="#1B1B1A" points="840.625,273.4945,840.625,288.0778,853.125,288.0778,853.125,279.7445,846.875,273.4945,840.625,273.4945" style="stroke:#5E5E5E;stroke-width:1.5625;"/><line style="stroke:#5E5E5E;stroke-width:1.5625;" x1="846.875" x2="846.875" y1="273.4945" y2="279.7445"/><line style="stroke:#5E5E5E;stroke-width:1.5625;" x1="853.125" x2="846.875" y1="279.7445" y2="279.7445"/><text fill="#D8BC00" font-family="Open Sans,Avenir,Nunito,Arial,Helvetica,SansSerif" font-size="12.5" lengthAdjust="spacing" textLength="106.25" x="728.125" y="297.0378">kivakit_collections</text><!--MD5=[b7af8d5b7902cf06664f76dfe0f9e426]
entity kivakit_commandline--><rect fill="#1B1B1A" height="44.93" rx="8.3333" ry="8.3333" style="stroke:#5E5E5E;stroke-width:1.5625;" width="162.5" x="947.9167" y="268.2861"/><polygon fill="#1B1B1A" points="1092.7083,273.4945,1092.7083,288.0778,1105.2083,288.0778,1105.2083,279.7445,1098.9583,273.4945,1092.7083,273.4945" style="stroke:#5E5E5E;stroke-width:1.5625;"/><line style="stroke:#5E5E5E;stroke-width:1.5625;" x1="1098.9583" x2="1098.9583" y1="273.4945" y2="279.7445"/><line style="stroke:#5E5E5E;stroke-width:1.5625;" x1="1105.2083" x2="1098.9583" y1="279.7445" y2="279.7445"/><text fill="#D8BC00" font-family="Open Sans,Avenir,Nunito,Arial,Helvetica,SansSerif" font-size="12.5" lengthAdjust="spacing" textLength="125" x="961.4583" y="297.0378">kivakit_commandline</text><!--MD5=[c68e98f234d4ac85d03ca04aa775ddf3]
entity kivakit_configuration--><rect fill="#1B1B1A" height="44.93" rx="8.3333" ry="8.3333" style="stroke:#5E5E5E;stroke-width:1.5625;" width="159.375" x="949.4792" y="53.7028"/><polygon fill="#1B1B1A" points="1091.1458,58.9111,1091.1458,73.4945,1103.6458,73.4945,1103.6458,65.1611,1097.3958,58.9111,1091.1458,58.9111" style="stroke:#5E5E5E;stroke-width:1.5625;"/><line style="stroke:#5E5E5E;stroke-width:1.5625;" x1="1097.3958" x2="1097.3958" y1="58.9111" y2="65.1611"/><line style="stroke:#5E5E5E;stroke-width:1.5625;" x1="1103.6458" x2="1097.3958" y1="65.1611" y2="65.1611"/><text fill="#D8BC00" font-family="Open Sans,Avenir,Nunito,Arial,Helvetica,SansSerif" font-size="12.5" lengthAdjust="spacing" textLength="121.875" x="963.0208" y="82.4544">kivakit_configuration</text><!--MD5=[17eeaa61da6b3f8cb25de5876b62ec23]
entity kivakit_kernel--><rect fill="#1B1B1A" height="44.93" rx="8.3333" ry="8.3333" style="stroke:#5E5E5E;stroke-width:1.5625;" width="119.7917" x="1120.3125" y="375.5778"/><polygon fill="#1B1B1A" points="1222.3958,380.7861,1222.3958,395.3695,1234.8958,395.3695,1234.8958,387.0361,1228.6458,380.7861,1222.3958,380.7861" style="stroke:#5E5E5E;stroke-width:1.5625;"/><line style="stroke:#5E5E5E;stroke-width:1.5625;" x1="1228.6458" x2="1228.6458" y1="380.7861" y2="387.0361"/><line style="stroke:#5E5E5E;stroke-width:1.5625;" x1="1234.8958" x2="1228.6458" y1="387.0361" y2="387.0361"/><text fill="#D8BC00" font-family="Open Sans,Avenir,Nunito,Arial,Helvetica,SansSerif" font-size="12.5" lengthAdjust="spacing" textLength="82.2917" x="1133.8542" y="404.3294">kivakit_kernel</text><!--MD5=[789122fdd47ca161e4432768ac68a470]
entity kivakit_resource--><rect fill="#1B1B1A" height="44.93" rx="8.3333" ry="8.3333" style="stroke:#5E5E5E;stroke-width:1.5625;" width="134.375" x="961.9792" y="160.9945"/><polygon fill="#1B1B1A" points="1078.6458,166.2028,1078.6458,180.7861,1091.1458,180.7861,1091.1458,172.4528,1084.8958,166.2028,1078.6458,166.2028" style="stroke:#5E5E5E;stroke-width:1.5625;"/><line style="stroke:#5E5E5E;stroke-width:1.5625;" x1="1084.8958" x2="1084.8958" y1="166.2028" y2="172.4528"/><line style="stroke:#5E5E5E;stroke-width:1.5625;" x1="1091.1458" x2="1084.8958" y1="172.4528" y2="172.4528"/><text fill="#D8BC00" font-family="Open Sans,Avenir,Nunito,Arial,Helvetica,SansSerif" font-size="12.5" lengthAdjust="spacing" textLength="96.875" x="975.5208" y="189.7461">kivakit_resource</text><!--MD5=[90c7e8c0eae90f7cdcf1e82754bc9c37]
entity kivakit_serialization_core--><rect fill="#1B1B1A" height="44.93" rx="8.3333" ry="8.3333" style="stroke:#5E5E5E;stroke-width:1.5625;" width="186.4583" x="1147.3958" y="268.2861"/><polygon fill="#1B1B1A" points="1316.1458,273.4945,1316.1458,288.0778,1328.6458,288.0778,1328.6458,279.7445,1322.3958,273.4945,1316.1458,273.4945" style="stroke:#5E5E5E;stroke-width:1.5625;"/><line style="stroke:#5E5E5E;stroke-width:1.5625;" x1="1322.3958" x2="1322.3958" y1="273.4945" y2="279.7445"/><line style="stroke:#5E5E5E;stroke-width:1.5625;" x1="1328.6458" x2="1322.3958" y1="279.7445" y2="279.7445"/><text fill="#D8BC00" font-family="Open Sans,Avenir,Nunito,Arial,Helvetica,SansSerif" font-size="12.5" lengthAdjust="spacing" textLength="148.9583" x="1160.9375" y="297.0378">kivakit_serialization_core</text><!--MD5=[71ec73b64d97786e160c020912518960]
entity kivakit_serialization_json--><rect fill="#1B1B1A" height="44.93" rx="8.3333" ry="8.3333" style="stroke:#5E5E5E;stroke-width:1.5625;" width="185.4167" x="306.25" y="482.8695"/><polygon fill="#1B1B1A" points="473.9583,488.0778,473.9583,502.6611,486.4583,502.6611,486.4583,494.3278,480.2083,488.0778,473.9583,488.0778" style="stroke:#5E5E5E;stroke-width:1.5625;"/><line style="stroke:#5E5E5E;stroke-width:1.5625;" x1="480.2083" x2="480.2083" y1="488.0778" y2="494.3278"/><line style="stroke:#5E5E5E;stroke-width:1.5625;" x1="486.4583" x2="480.2083" y1="494.3278" y2="494.3278"/><text fill="#D8BC00" font-family="Open Sans,Avenir,Nunito,Arial,Helvetica,SansSerif" font-size="12.5" lengthAdjust="spacing" textLength="147.9167" x="319.7917" y="511.6211">kivakit_serialization_json</text><!--MD5=[7bf535908c90dd3c1fbc894d9b1c5a2e]
entity kivakit_serialization_kryo--><rect fill="#1B1B1A" height="44.93" rx="8.3333" ry="8.3333" style="stroke:#5E5E5E;stroke-width:1.5625;" width="186.4583" x="403.6458" y="375.5778"/><polygon fill="#1B1B1A" points="572.3958,380.7861,572.3958,395.3695,584.8958,395.3695,584.8958,387.0361,578.6458,380.7861,572.3958,380.7861" style="stroke:#5E5E5E;stroke-width:1.5625;"/><line style="stroke:#5E5E5E;stroke-width:1.5625;" x1="578.6458" x2="578.6458" y1="380.7861" y2="387.0361"/><line style="stroke:#5E5E5E;stroke-width:1.5625;" x1="584.8958" x2="578.6458" y1="387.0361" y2="387.0361"/><text fill="#D8BC00" font-family="Open Sans,Avenir,Nunito,Arial,Helvetica,SansSerif" font-size="12.5" lengthAdjust="spacing" textLength="148.9583" x="417.1875" y="404.3294">kivakit_serialization_kryo</text><!--MD5=[11024e5ca6382b1a0f630f967447af59]
entity kivakit_test--><rect fill="#1B1B1A" height="44.93" rx="8.3333" ry="8.3333" style="stroke:#5E5E5E;stroke-width:1.5625;" width="104.1667" x="734.375" y="375.5778"/><polygon fill="#1B1B1A" points="820.8333,380.7861,820.8333,395.3695,833.3333,395.3695,833.3333,387.0361,827.0833,380.7861,820.8333,380.7861" style="stroke:#5E5E5E;stroke-width:1.5625;"/><line style="stroke:#5E5E5E;stroke-width:1.5625;" x1="827.0833" x2="827.0833" y1="380.7861" y2="387.0361"/><line style="stroke:#5E5E5E;stroke-width:1.5625;" x1="833.3333" x2="827.0833" y1="387.0361" y2="387.0361"/><text fill="#D8BC00" font-family="Open Sans,Avenir,Nunito,Arial,Helvetica,SansSerif" font-size="12.5" lengthAdjust="spacing" textLength="66.6667" x="747.9167" y="404.3294">kivakit_test</text><!--MD5=[7b0fec798d1f32628676dfdf75f1f662]
entity lexakai_annotations--><rect fill="#1B1B1A" height="44.93" rx="8.3333" ry="8.3333" style="stroke:#5E5E5E;stroke-width:1.5625;" width="155.2083" x="1102.6042" y="482.8695"/><polygon fill="#1B1B1A" points="1240.1042,488.0778,1240.1042,502.6611,1252.6042,502.6611,1252.6042,494.3278,1246.3542,488.0778,1240.1042,488.0778" style="stroke:#5E5E5E;stroke-width:1.5625;"/><line style="stroke:#5E5E5E;stroke-width:1.5625;" x1="1246.3542" x2="1246.3542" y1="488.0778" y2="494.3278"/><line style="stroke:#5E5E5E;stroke-width:1.5625;" x1="1252.6042" x2="1246.3542" y1="494.3278" y2="494.3278"/><text fill="#D8BC00" font-family="Open Sans,Avenir,Nunito,Arial,Helvetica,SansSerif" font-size="12.5" lengthAdjust="spacing" textLength="117.7083" x="1116.1458" y="511.6211">lexakai_annotations</text><!--MD5=[b9ccc173c089e3d2abf77c8581e74aca]
entity kryo_serializers--><rect fill="#1B1B1A" height="44.93" rx="8.3333" ry="8.3333" style="stroke:#5E5E5E;stroke-width:1.5625;" width="131.25" x="528.125" y="482.8695"/><polygon fill="#1B1B1A" points="641.6667,488.0778,641.6667,502.6611,654.1667,502.6611,654.1667,494.3278,647.9167,488.0778,641.6667,488.0778" style="stroke:#5E5E5E;stroke-width:1.5625;"/><line style="stroke:#5E5E5E;stroke-width:1.5625;" x1="647.9167" x2="647.9167" y1="488.0778" y2="494.3278"/><line style="stroke:#5E5E5E;stroke-width:1.5625;" x1="654.1667" x2="647.9167" y1="494.3278" y2="494.3278"/><text fill="#D8BC00" font-family="Open Sans,Avenir,Nunito,Arial,Helvetica,SansSerif" font-size="12.5" lengthAdjust="spacing" textLength="93.75" x="541.6667" y="511.6211">kryo_serializers</text><!--MD5=[23cc7f88cfa1ae4b54fca2963c42906f]
entity swagger_annotations--><rect fill="#1B1B1A" height="44.93" rx="8.3333" ry="8.3333" style="stroke:#5E5E5E;stroke-width:1.5625;" width="162.5" x="1294.7917" y="482.8695"/><polygon fill="#1B1B1A" points="1439.5833,488.0778,1439.5833,502.6611,1452.0833,502.6611,1452.0833,494.3278,1445.8333,488.0778,1439.5833,488.0778" style="stroke:#5E5E5E;stroke-width:1.5625;"/><line style="stroke:#5E5E5E;stroke-width:1.5625;" x1="1445.8333" x2="1445.8333" y1="488.0778" y2="494.3278"/><line style="stroke:#5E5E5E;stroke-width:1.5625;" x1="1452.0833" x2="1445.8333" y1="494.3278" y2="494.3278"/><text fill="#D8BC00" font-family="Open Sans,Avenir,Nunito,Arial,Helvetica,SansSerif" font-size="12.5" lengthAdjust="spacing" textLength="125" x="1308.3333" y="511.6211">swagger_annotations</text><!--MD5=[ce55b294004802c137560c2930be5b75]
entity junit--><rect fill="#1B1B1A" height="44.93" rx="8.3333" ry="8.3333" style="stroke:#5E5E5E;stroke-width:1.5625;" width="63.5417" x="1494.2708" y="482.8695"/><polygon fill="#1B1B1A" points="1540.1042,488.0778,1540.1042,502.6611,1552.6042,502.6611,1552.6042,494.3278,1546.3542,488.0778,1540.1042,488.0778" style="stroke:#5E5E5E;stroke-width:1.5625;"/><line style="stroke:#5E5E5E;stroke-width:1.5625;" x1="1546.3542" x2="1546.3542" y1="488.0778" y2="494.3278"/><line style="stroke:#5E5E5E;stroke-width:1.5625;" x1="1552.6042" x2="1546.3542" y1="494.3278" y2="494.3278"/><text fill="#D8BC00" font-family="Open Sans,Avenir,Nunito,Arial,Helvetica,SansSerif" font-size="12.5" lengthAdjust="spacing" textLength="26.0417" x="1507.8125" y="511.6211">junit</text><!--MD5=[7f157d37bc1fd6ac970bb67ffdbc66a3]
entity hamcrest_core--><rect fill="#1B1B1A" height="44.93" rx="8.3333" ry="8.3333" style="stroke:#5E5E5E;stroke-width:1.5625;" width="125" x="1463.5417" y="590.1611"/><polygon fill="#1B1B1A" points="1570.8333,595.3695,1570.8333,609.9528,1583.3333,609.9528,1583.3333,601.6195,1577.0833,595.3695,1570.8333,595.3695" style="stroke:#5E5E5E;stroke-width:1.5625;"/><line style="stroke:#5E5E5E;stroke-width:1.5625;" x1="1577.0833" x2="1577.0833" y1="595.3695" y2="601.6195"/><line style="stroke:#5E5E5E;stroke-width:1.5625;" x1="1583.3333" x2="1577.0833" y1="601.6195" y2="601.6195"/><text fill="#D8BC00" font-family="Open Sans,Avenir,Nunito,Arial,Helvetica,SansSerif" font-size="12.5" lengthAdjust="spacing" textLength="87.5" x="1477.0833" y="618.9128">hamcrest_core</text><!--MD5=[b728e17b4e4da6aa8cb97e9b2766c5e6]
entity annotations--><rect fill="#1B1B1A" height="44.93" rx="8.3333" ry="8.3333" style="stroke:#5E5E5E;stroke-width:1.5625;" width="106.25" x="1594.7917" y="482.8695"/><polygon fill="#1B1B1A" points="1683.3333,488.0778,1683.3333,502.6611,1695.8333,502.6611,1695.8333,494.3278,1689.5833,488.0778,1683.3333,488.0778" style="stroke:#5E5E5E;stroke-width:1.5625;"/><line style="stroke:#5E5E5E;stroke-width:1.5625;" x1="1689.5833" x2="1689.5833" y1="488.0778" y2="494.3278"/><line style="stroke:#5E5E5E;stroke-width:1.5625;" x1="1695.8333" x2="1689.5833" y1="494.3278" y2="494.3278"/><text fill="#D8BC00" font-family="Open Sans,Avenir,Nunito,Arial,Helvetica,SansSerif" font-size="12.5" lengthAdjust="spacing" textLength="68.75" x="1608.3333" y="511.6211">annotations</text><!--MD5=[b3c862d1486667ad9c7edef6529b2202]
entity objenesis--><rect fill="#1B1B1A" height="44.93" rx="8.3333" ry="8.3333" style="stroke:#5E5E5E;stroke-width:1.5625;" width="94.7917" x="257.8125" y="590.1611"/><polygon fill="#1B1B1A" points="334.8958,595.3695,334.8958,609.9528,347.3958,609.9528,347.3958,601.6195,341.1458,595.3695,334.8958,595.3695" style="stroke:#5E5E5E;stroke-width:1.5625;"/><line style="stroke:#5E5E5E;stroke-width:1.5625;" x1="341.1458" x2="341.1458" y1="595.3695" y2="601.6195"/><line style="stroke:#5E5E5E;stroke-width:1.5625;" x1="347.3958" x2="341.1458" y1="601.6195" y2="601.6195"/><text fill="#D8BC00" font-family="Open Sans,Avenir,Nunito,Arial,Helvetica,SansSerif" font-size="12.5" lengthAdjust="spacing" textLength="57.2917" x="271.3542" y="618.9128">objenesis</text><!--MD5=[92e2ad58d19962135e7ff93f22958550]
entity asm--><rect fill="#1B1B1A" height="44.93" rx="8.3333" ry="8.3333" style="stroke:#5E5E5E;stroke-width:1.5625;" width="62.5" x="139.5833" y="697.4528"/><polygon fill="#1B1B1A" points="184.375,702.6611,184.375,717.2445,196.875,717.2445,196.875,708.9111,190.625,702.6611,184.375,702.6611" style="stroke:#5E5E5E;stroke-width:1.5625;"/><line style="stroke:#5E5E5E;stroke-width:1.5625;" x1="190.625" x2="190.625" y1="702.6611" y2="708.9111"/><line style="stroke:#5E5E5E;stroke-width:1.5625;" x1="196.875" x2="190.625" y1="708.9111" y2="708.9111"/><text fill="#D8BC00" font-family="Open Sans,Avenir,Nunito,Arial,Helvetica,SansSerif" font-size="12.5" lengthAdjust="spacing" textLength="25" x="153.125" y="726.2044">asm</text><!--MD5=[d68e7c4b3ca5f037bcb6997a0b4ed16b]
link junit to hamcrest_core--><path d="M1526.0417,528.109 C1526.0417,544.5778 1526.0417,567.2757 1526.0417,584.8278 " fill="none" id="junit-to-hamcrest_core" style="stroke:#545454;stroke-width:1.5625;"/><polygon fill="#545454" points="1526.0417,590.109,1530.2083,580.734,1526.0417,584.9007,1521.875,580.734,1526.0417,590.109" style="stroke:#545454;stroke-width:1.5625;"/><!--MD5=[dac09380e252b6a73b9cbaef097b7dbb]
link kivakit_collections to kivakit_serialization_kryo--><path d="M727.5104,313.1403 C679.0625,330.7445 610.5521,355.6299 560.8021,373.7028 " fill="none" id="kivakit_collections-to-kivakit_serialization_kryo" style="stroke:#545454;stroke-width:1.5625;"/><polygon fill="#545454" points="555.7396,375.5465,565.9728,376.276,560.6374,373.775,563.1384,368.4395,555.7396,375.5465" style="stroke:#545454;stroke-width:1.5625;"/><!--MD5=[7a9a7670444eec57e073e1e035a347ff]
link kivakit_collections to kivakit_test--><path d="M786.4583,313.5257 C786.4583,329.9945 786.4583,352.6924 786.4583,370.2445 " fill="none" id="kivakit_collections-to-kivakit_test" style="stroke:#545454;stroke-width:1.5625;"/><polygon fill="#545454" points="786.4583,375.5257,790.625,366.1507,786.4583,370.3174,782.2917,366.1507,786.4583,375.5257" style="stroke:#545454;stroke-width:1.5625;"/><!--MD5=[ad08ab7f315d351dcdfee1c003ccf5cf]
link kivakit_commandline to kivakit_kernel--><path d="M1060.0938,313.2653 C1084.7396,330.432 1119.2396,354.4632 1144.9479,372.3695 " fill="none" id="kivakit_commandline-to-kivakit_kernel" style="stroke:#545454;stroke-width:1.5625;"/><polygon fill="#545454" points="1149.3229,375.4215,1144.0135,366.643,1145.0498,372.4438,1139.2491,373.48,1149.3229,375.4215" style="stroke:#545454;stroke-width:1.5625;"/><!--MD5=[3b28c85aebf84fa8aaa5822a1e458ff1]
link kivakit_configuration to kivakit_resource--><path d="M1029.1667,98.9424 C1029.1667,115.4111 1029.1667,138.109 1029.1667,155.6611 " fill="none" id="kivakit_configuration-to-kivakit_resource" style="stroke:#545454;stroke-width:1.5625;"/><polygon fill="#545454" points="1029.1667,160.9424,1033.3333,151.5674,1029.1667,155.734,1025,151.5674,1029.1667,160.9424" style="stroke:#545454;stroke-width:1.5625;"/><!--MD5=[a2f7c49e80f0067c62cb523636c9f00e]
link kivakit_kernel to annotations--><path d="M1240.2396,410.182 C1318.0938,425.0153 1457.9167,452.859 1576.0417,482.8695 C1580.3958,483.9736 1584.875,485.1715 1589.3854,486.4111 " fill="none" id="kivakit_kernel-to-annotations" style="stroke:#545454;stroke-width:1.5625;"/><polygon fill="#545454" points="1594.6667,487.8903,1586.7559,481.358,1589.6498,486.4909,1584.5169,489.3849,1594.6667,487.8903" style="stroke:#545454;stroke-width:1.5625;"/><!--MD5=[4bb5cdf1dd69a57413676b3f513d3923]
link kivakit_kernel to cactus_build_metadata--><path d="M1138.8229,420.557 C1105.5833,437.859 1058.9271,462.1507 1024.4479,480.109 " fill="none" id="kivakit_kernel-to-cactus_build_metadata" style="stroke:#545454;stroke-width:1.5625;"/><polygon fill="#545454" points="1019.4479,482.7132,1029.6874,482.0775,1024.0671,480.3071,1025.8376,474.6868,1019.4479,482.7132" style="stroke:#545454;stroke-width:1.5625;"/><!--MD5=[ce1de3a0fcf0456409f45c00bcbf6819]
link kivakit_kernel to jackson_annotations--><path d="M1119.9792,414.6507 C1050.9479,432.5778 937.3229,462.0778 859.4688,482.2965 " fill="none" id="kivakit_kernel-to-jackson_annotations" style="stroke:#545454;stroke-width:1.5625;"/><polygon fill="#545454" points="854.3958,483.609,864.517,485.2865,859.4371,482.3004,862.4232,477.2205,854.3958,483.609" style="stroke:#545454;stroke-width:1.5625;"/><!--MD5=[1866acf2ddf7045e9492d220d182168e]
link kivakit_kernel to junit--><path d="M1240.1458,413.8278 C1300.1771,429.182 1394.8958,454.8278 1475,482.8695 C1479.5938,484.4736 1484.3646,486.2861 1489.0729,488.1507 " fill="none" id="kivakit_kernel-to-junit" style="stroke:#545454;stroke-width:1.5625;"/><polygon fill="#545454" points="1494.1354,490.1924,1487.0058,482.8154,1489.3068,488.2401,1483.8821,490.5411,1494.1354,490.1924" style="stroke:#545454;stroke-width:1.5625;"/><!--MD5=[049e1cbc60d7a94f708d5cd284874347]
link kivakit_kernel to lexakai_annotations--><path d="M1180.2083,420.8174 C1180.2083,437.2861 1180.2083,459.984 1180.2083,477.5361 " fill="none" id="kivakit_kernel-to-lexakai_annotations" style="stroke:#545454;stroke-width:1.5625;"/><polygon fill="#545454" points="1180.2083,482.8174,1184.375,473.4424,1180.2083,477.609,1176.0417,473.4424,1180.2083,482.8174" style="stroke:#545454;stroke-width:1.5625;"/><!--MD5=[ceaa58f2fdab01bf1e0ddaf38b77f8a7]
link kivakit_kernel to swagger_annotations--><path d="M1220.3125,420.557 C1252.5208,437.859 1297.7396,462.1507 1331.1563,480.109 " fill="none" id="kivakit_kernel-to-swagger_annotations" style="stroke:#545454;stroke-width:1.5625;"/><polygon fill="#545454" points="1335.9896,482.7132,1329.7137,474.5975,1331.4048,480.2422,1325.7601,481.9332,1335.9896,482.7132" style="stroke:#545454;stroke-width:1.5625;"/><!--MD5=[1f920e5641e1a651a42d763be0b203c8]
link kivakit_resource to kivakit_collections--><path d="M979.7604,205.8486 C939.4063,223.3382 882.4375,248.0361 840.7917,266.0882 " fill="none" id="kivakit_resource-to-kivakit_collections" style="stroke:#545454;stroke-width:1.5625;"/><polygon fill="#545454" points="835.8021,268.2549,846.0607,268.3648,840.5839,266.1907,842.758,260.7139,835.8021,268.2549" style="stroke:#545454;stroke-width:1.5625;"/><!--MD5=[593b722ec987ee2a5ff2f96e98ef63b5]
link kivakit_resource to kivakit_commandline--><path d="M1029.1667,206.234 C1029.1667,222.7028 1029.1667,245.4007 1029.1667,262.9528 " fill="none" id="kivakit_resource-to-kivakit_commandline" style="stroke:#545454;stroke-width:1.5625;"/><polygon fill="#545454" points="1029.1667,268.234,1033.3333,258.859,1029.1667,263.0257,1025,258.859,1029.1667,268.234" style="stroke:#545454;stroke-width:1.5625;"/><!--MD5=[5b04580b86b31fc18c828f7ddaf27421]
link kivakit_resource to kivakit_serialization_core--><path d="M1072.4688,205.9736 C1107.3958,223.3486 1156.4688,247.7757 1192.5938,265.7445 " fill="none" id="kivakit_resource-to-kivakit_serialization_core" style="stroke:#545454;stroke-width:1.5625;"/><polygon fill="#545454" points="1197.3854,268.1299,1190.8534,260.2188,1192.724,265.8066,1187.1362,267.6771,1197.3854,268.1299" style="stroke:#545454;stroke-width:1.5625;"/><!--MD5=[d2bf964ad93828bbd6db58c445a24c18]
link kivakit_serialization_json to gson--><path d="M403.7083,528.109 C407.2917,544.5778 412.2396,567.2757 416.0625,584.8278 " fill="none" id="kivakit_serialization_json-to-gson" style="stroke:#545454;stroke-width:1.5625;"/><polygon fill="#545454" points="417.2083,590.109,419.2981,580.0649,416.1069,585.0185,411.1533,581.8273,417.2083,590.109" style="stroke:#545454;stroke-width:1.5625;"/><!--MD5=[19b1e15b14c7ce5e4068d5bfe7f377e5]
link kivakit_serialization_kryo to kivakit_serialization_json--><path d="M476.5833,420.8174 C460.8542,437.7132 439.0417,461.1611 422.5313,478.8903 " fill="none" id="kivakit_serialization_kryo-to-kivakit_serialization_json" style="stroke:#545454;stroke-width:1.5625;"/><polygon fill="#545454" points="418.8854,482.8174,428.3288,478.808,422.4397,479.0103,422.2374,473.1212,418.8854,482.8174" style="stroke:#545454;stroke-width:1.5625;"/><!--MD5=[40faeed4b9f18330bf0f83fa88774571]
link kivakit_serialization_kryo to kryo--><path d="M439.625,420.432 C383.6771,441.359 300.1875,472.5882 252.5208,490.4215 " fill="none" id="kivakit_serialization_kryo-to-kryo" style="stroke:#545454;stroke-width:1.5625;"/><polygon fill="#545454" points="247.4479,492.3174,257.689,492.927,252.3246,490.4886,254.763,485.1242,247.4479,492.3174" style="stroke:#545454;stroke-width:1.5625;"/><!--MD5=[03df8de183ef6689edc51eb2e13fe23e]
link kivakit_serialization_kryo to kryo_serializers--><path d="M516.9479,420.8174 C532.5104,437.7132 554.0938,461.1611 570.4271,478.8903 " fill="none" id="kivakit_serialization_kryo-to-kryo_serializers" style="stroke:#545454;stroke-width:1.5625;"/><polygon fill="#545454" points="574.0313,482.8174,570.7388,473.1008,570.5004,478.9886,564.6127,478.7502,574.0313,482.8174" style="stroke:#545454;stroke-width:1.5625;"/><!--MD5=[8c32f0e7b0abeba01afd276f5a66ee84]
link kryo to minlog--><path d="M183.6875,526.0986 C155.7813,543.3903 115.1771,568.5465 85.25,587.0882 " fill="none" id="kryo-to-minlog" style="stroke:#545454;stroke-width:1.5625;"/><polygon fill="#545454" points="80.5521,590.0049,90.7126,588.5849,84.9729,587.2512,86.3066,581.5115,80.5521,590.0049" style="stroke:#545454;stroke-width:1.5625;"/><!--MD5=[e75c16e47fcf6c43b15d3c25536a9ed0]
link kryo to objenesis--><path d="M234.1875,528.109 C248.4583,544.859 268.2083,568.057 283.2604,585.734 " fill="none" id="kryo-to-objenesis" style="stroke:#545454;stroke-width:1.5625;"/><polygon fill="#545454" points="286.9792,590.109,284.0811,580.2676,283.6056,586.141,277.7322,585.6654,286.9792,590.109" style="stroke:#545454;stroke-width:1.5625;"/><!--MD5=[e061beb27669383d030ce0c5c656b006]
link kryo to reflectasm--><path d="M206.3438,528.109 C199.2708,544.7236 189.5,567.6611 182,585.2861 " fill="none" id="kryo-to-reflectasm" style="stroke:#545454;stroke-width:1.5625;"/><polygon fill="#545454" points="179.9479,590.109,187.4523,583.1137,181.987,585.3165,179.7842,579.8511,179.9479,590.109" style="stroke:#545454;stroke-width:1.5625;"/><!--MD5=[338783537f3f9263e4097f5ff0c514d3]
link reflectasm to asm--><path d="M170.8333,635.4007 C170.8333,651.8695 170.8333,674.5674 170.8333,692.1195 " fill="none" id="reflectasm-to-asm" style="stroke:#545454;stroke-width:1.5625;"/><polygon fill="#545454" points="170.8333,697.4007,175,688.0257,170.8333,692.1924,166.6667,688.0257,170.8333,697.4007" style="stroke:#545454;stroke-width:1.5625;"/><!--MD5=[03e009d377acc80a0147ec82d326c72b]
@startuml

    !include lexakai.theme
    
    title "kivakit-configuration"
    
    artifact kryo
    artifact minlog
    artifact reflectasm
    artifact jackson_annotations
    artifact gson
    artifact cactus_build_metadata
    artifact kivakit_collections
    artifact kivakit_commandline
    artifact kivakit_configuration
    artifact kivakit_kernel
    artifact kivakit_resource
    artifact kivakit_serialization_core
    artifact kivakit_serialization_json
    artifact kivakit_serialization_kryo
    artifact kivakit_test
    artifact lexakai_annotations
    artifact kryo_serializers
    artifact swagger_annotations
    artifact junit
    artifact hamcrest_core
    artifact annotations
    artifact objenesis
    artifact asm
    junit - -> hamcrest_core
    kivakit_collections - -> kivakit_serialization_kryo
    kivakit_collections - -> kivakit_test
    kivakit_commandline - -> kivakit_kernel
    kivakit_configuration - -> kivakit_resource
    kivakit_kernel - -> annotations
    kivakit_kernel - -> cactus_build_metadata
    kivakit_kernel - -> jackson_annotations
    kivakit_kernel - -> junit
    kivakit_kernel - -> lexakai_annotations
    kivakit_kernel - -> swagger_annotations
    kivakit_resource - -> kivakit_collections
    kivakit_resource - -> kivakit_commandline
    kivakit_resource - -> kivakit_serialization_core
    kivakit_serialization_json - -> gson
    kivakit_serialization_kryo - -> kivakit_serialization_json
    kivakit_serialization_kryo - -> kryo
    kivakit_serialization_kryo - -> kryo_serializers
    kryo - -> minlog
    kryo - -> objenesis
    kryo - -> reflectasm
    reflectasm - -> asm
    
@enduml

@startuml









skinparam backgroundColor #333333






skinparam  {
    defaultFontName   "Open Sans,Avenir,Nunito,Arial,Helvetica,SansSerif"
    defaultFontSize   12
    defaultTextAlignment left
    shadowing false
    RoundCorner 10
    TitleFontSize 18
}

skinparam defaultFontName       "Open Sans,Avenir,Nunito,Arial,Helvetica,SansSerif"
skinparam defaultFontSize       12
skinparam dpi                   100
skinparam shadowing             false
skinparam roundcorner           16
skinparam ParticipantPadding    40
skinparam BoxPadding            40
skinparam Padding               3
skinparam ArrowColor            #545454
skinparam stereotype {
    CBackgroundColor #0066cf
    CBorderColor #0086ef
    ABackgroundColor #C8Ac00
    ABorderColor #D8Bc00
    IBackgroundColor #008400
    IBorderColor #239c23
    EBackgroundColor #cf6300
    EBorderColor #ef8300
    NBackgroundColor #3380b9
    NBorderColor #004d86
}
skinparam title {
	FontColor	                 #c0c0c0
 	BorderColor                  #545454
	FontSize	    	         20
	BorderRoundCorner            16
	BorderThickness 	         1
	BackgroundColor              #48494b
}


skinparam legend {
	BackgroundColor #303030
	BorderColor #404040
	FontColor #a0a0a0
}

	skinparam swimlane {
	BorderColor #5e5e5e
	BorderThickness 2
	TitleBackgroundColor  #6d6d6d-#484848
	TitleFontColor #303030
}

skinparam activity {
		FontColor #C8Ac00
	BorderColor #333333
	BackgroundColor #333333-#333333
	BarColor #00FF00
	StartColor #0060a8
	EndColor #0060a8
	DiamondBackgroundColor #6d6d6d-#3a3a3a
  	DiamondBorderColor #3a3a3a
  	DiamondFontColor #fefefe
}


skinparam participant {
		FontColor #C8Ac00
	BorderColor #333333
	BackgroundColor #333333-#333333
	ParticipantBorderThickness 2
}


skinparam actor {
		FontColor #C8Ac00
	BorderColor #333333
	BackgroundColor #333333-#333333
}


skinparam arrow {
	Thickness 1.5
	Color #545454
	FontColor #a0a0a0
    FontStyle bold
    MessageAlignment center
}



skinparam sequence {
	BorderColor #303030
	TitleFontColor #303030
	BackgroundColor #333333
	StartColor #303030
	EndColor #303030
	BoxBackgroundColor #333333
	BoxBorderColor #484848
	BoxFontColor #484848
	LifeLineBorderColor #484848
	LifeLineBorderThickness 2
	LifeLineBackgroundColor #3a3a3a
	GroupBorderColor #484848
	GroupFontColor #484848
	GroupHeaderFontColor #0060a8
	GroupBackgroundColor #484848
	GroupHeaderBackgroundColor #333333
	DividerBackgroundColor #484848
    DividerBorderColor #484848
    DividerBorderThickness 2
    DividerFontColor #D8Bc00
	ReferenceBackgroundColor #333333
	ReferenceBorderColor #484848
	ReferenceFontColor #fefefe
	ReferenceHeaderBackgroundColor #484848
}


skinparam partition {
	BorderColor #303030
	FontColor #333333
	BackgroundColor #333333
}


skinparam collections {
		FontColor #C8Ac00
	BorderColor #333333
	BackgroundColor #333333-#333333
}


skinparam control {
		FontColor #C8Ac00
	BorderColor #333333
	BackgroundColor #333333-#333333
}


skinparam entity {
		FontColor #C8Ac00
	BorderColor #333333
	BackgroundColor #333333-#333333
}


skinparam boundary {
		FontColor #C8Ac00
	BorderColor #333333
	BackgroundColor #333333-#333333
}


skinparam agent {
	BackgroundColor #ff8000
	BorderColor #ff9933
	FontColor #484848
}


skinparam note {
	BorderThickness 1
	BackgroundColor #1b1b1a
	BorderColor #5e5e5e
	FontSize 11
	FontColor #a0a0a0
}


skinparam artifact {
	BorderThickness 10
	BorderColor #5e5e5e
	BackgroundColor #1b1b1a
	FontColor #D8Bc00
}


skinparam component {
		FontColor #C8Ac00
	BorderColor #333333
	BackgroundColor #333333-#333333
}


skinparam interface {
	BackgroundColor  #008400
	BorderColor  #007F00
	FontColor #484848
}


skinparam storage {
	BackgroundColor #ff8000
  	BorderColor #cc6600
	FontColor #222222
}


skinparam node {
	BackgroundColor #333333
	BorderColor #333333
	FontColor #C8Ac00
}


skinparam cloud {
	BackgroundColor #484848-black
	BorderColor #484848
	FontColor #D8Bc00
}


skinparam database {
		FontColor #C8Ac00
	BorderColor #333333
	BackgroundColor #333333-#333333
	BackgroundColor  #333333
}


skinparam class {
		FontColor #C8Ac00
	BorderColor #333333
	BackgroundColor #333333-#333333
	HeaderBackgroundColor #1b1b1a
    BackgroundColor #282828
    BorderColor #5e5e5e
 	StereotypeFontColor #a0a0a0
    StereotypeFontStyle bold
	BorderThickness 1
	AttributeFontColor #D8Bc00
	AttributeFontSize 11
    FontColor #D8Bc00
    FontStyle bold
}


skinparam object {
		FontColor #C8Ac00
	BorderColor #333333
	BackgroundColor #333333-#333333
	StereotypeFontColor #484848
	BorderThickness 1
	AttributeFontColor #fefefe
	AttributeFontSize 11
}


skinparam usecase {
		FontColor #C8Ac00
	BorderColor #333333
	BackgroundColor #333333-#333333
	BorderThickness 2
	StereotypeFontColor #303030
}


skinparam rectangle {
		FontColor #C8Ac00
	BorderColor #333333
	BackgroundColor #333333-#333333
	BackgroundColor #333333
	BorderThickness 2
	StereotypeFontColor #303030
}


skinparam package {
		FontColor #C8Ac00
	BorderColor #333333
	BackgroundColor #333333-#333333
	BackgroundColor #333333
	BorderThickness 2
}


skinparam folder {
	BackgroundColor #6d6d6d
  	BorderColor #ff8000
	FontColor #ff8000
	BorderThickness 2
}


skinparam frame {
	BackgroundColor #6d6d6d
  	BorderColor #0060a8
	FontColor #0060a8
	BorderThickness 2
}


skinparam state {
		FontColor #C8Ac00
	BorderColor #333333
	BackgroundColor #333333-#333333
	StartColor #0060a8
	EndColor #0060a8
	AttributeFontColor #fefefe
	AttributeFontSize 11
}


skinparam queue {
		FontColor #C8Ac00
	BorderColor #333333
	BackgroundColor #333333-#333333
}


skinparam card {
	BackgroundColor #0060a8
	BorderColor #004d86
	FontColor $INFO_TEXT
}


skinparam file {
	BackgroundColor #6d6d6d-#484848
	BorderColor #0060a8
	FontColor #fefefe
}


skinparam stack {
		FontColor #C8Ac00
	BorderColor #333333
	BackgroundColor #333333-#333333
}

    
    title "kivakit-configuration"
    
    artifact kryo
    artifact minlog
    artifact reflectasm
    artifact jackson_annotations
    artifact gson
    artifact cactus_build_metadata
    artifact kivakit_collections
    artifact kivakit_commandline
    artifact kivakit_configuration
    artifact kivakit_kernel
    artifact kivakit_resource
    artifact kivakit_serialization_core
    artifact kivakit_serialization_json
    artifact kivakit_serialization_kryo
    artifact kivakit_test
    artifact lexakai_annotations
    artifact kryo_serializers
    artifact swagger_annotations
    artifact junit
    artifact hamcrest_core
    artifact annotations
    artifact objenesis
    artifact asm
    junit - -> hamcrest_core
    kivakit_collections - -> kivakit_serialization_kryo
    kivakit_collections - -> kivakit_test
    kivakit_commandline - -> kivakit_kernel
    kivakit_configuration - -> kivakit_resource
    kivakit_kernel - -> annotations
    kivakit_kernel - -> cactus_build_metadata
    kivakit_kernel - -> jackson_annotations
    kivakit_kernel - -> junit
    kivakit_kernel - -> lexakai_annotations
    kivakit_kernel - -> swagger_annotations
    kivakit_resource - -> kivakit_collections
    kivakit_resource - -> kivakit_commandline
    kivakit_resource - -> kivakit_serialization_core
    kivakit_serialization_json - -> gson
    kivakit_serialization_kryo - -> kivakit_serialization_json
    kivakit_serialization_kryo - -> kryo
    kivakit_serialization_kryo - -> kryo_serializers
    kryo - -> minlog
    kryo - -> objenesis
    kryo - -> reflectasm
    reflectasm - -> asm
    
@enduml

PlantUML version 1.2021.01(Tue Feb 02 00:55:08 MST 2021)
(GPL source distribution)
Java Runtime: Java(TM) SE Runtime Environment
JVM: Java HotSpot(TM) 64-Bit Server VM
Default Encoding: UTF-8
Language: en
Country: US
--></g></svg>