<?xml version="1.0" encoding="UTF-8" standalone="no"?><svg xmlns="http://www.w3.org/2000/svg" xmlns:xlink="http://www.w3.org/1999/xlink" contentScriptType="application/ecmascript" contentStyleType="text/css" height="218.75px" preserveAspectRatio="none" style="width:1421px;height:218px;background:#333333;" version="1.1" viewBox="0 0 1421 218" width="1421.875px" zoomAndPan="magnify"><defs/><g><rect fill="#48494B" height="41.2028" rx="8.3333" ry="8.3333" style="stroke:#545454;stroke-width:1.0416666666666667;" width="407.2917" x="500" y="2.0833"/><text fill="#C0C0C0" font-family="Open Sans,Avenir,Nunito,Arial,Helvetica,SansSerif" font-size="20.8333" lengthAdjust="spacing" textLength="384.375" x="511.4583" y="30.5583">com.telenav.kivakit.conversion.lexakai</text><rect codeLine="7" fill="#282828" height="48.055" id="UmlDiagramIdentifier" rx="8.3333" ry="8.3333" style="stroke:#5E5E5E;stroke-width:1.0416666666666667;" width="178.125" x="614.0625" y="53.7028"/><rect fill="#1B1B1A" height="31.3883" rx="8.3333" ry="8.3333" style="stroke:#1B1B1A;stroke-width:1.0416666666666667;" width="178.125" x="614.0625" y="53.7028"/><rect fill="#1B1B1A" height="8.3333" style="stroke:#1B1B1A;stroke-width:1.0416666666666667;" width="178.125" x="614.0625" y="76.7578"/><rect codeLine="7" fill="none" height="48.055" id="UmlDiagramIdentifier" rx="8.3333" ry="8.3333" style="stroke:#5E5E5E;stroke-width:1.0416666666666667;" width="178.125" x="614.0625" y="53.7028"/><ellipse cx="628.6458" cy="69.397" fill="#008400" rx="10.4167" ry="10.4167" style="stroke:#239C23;stroke-width:1.0416666666666667;"/><path d="M626.0498,66.5588 L626.0498,64.9719 L631.4758,64.9719 L631.4758,66.5588 L629.6631,66.5588 L629.6631,72.4976 L631.4758,72.4976 L631.4758,74.0845 L626.0498,74.0845 L626.0498,72.4976 L627.8625,72.4976 L627.8625,66.5588 Z " fill="#000000"/><text fill="#D8BC00" font-family="Open Sans,Avenir,Nunito,Arial,Helvetica,SansSerif" font-size="12.5" font-style="italic" font-weight="bold" lengthAdjust="spacing" textLength="140.625" x="645.3125" y="74.1211">UmlDiagramIdentifier</text><line style="stroke:#5E5E5E;stroke-width:1.0416666666666667;" x1="615.1042" x2="791.1458" y1="85.0911" y2="85.0911"/><line style="stroke:#5E5E5E;stroke-width:1.0416666666666667;" x1="615.1042" x2="791.1458" y1="93.4245" y2="93.4245"/><rect codeLine="10" fill="#282828" height="48.055" id="DiagramConversion" rx="8.3333" ry="8.3333" style="stroke:#5E5E5E;stroke-width:1.0416666666666667;" width="166.6667" x="7.2917" y="164.1195"/><rect fill="#1B1B1A" height="31.3883" rx="8.3333" ry="8.3333" style="stroke:#1B1B1A;stroke-width:1.0416666666666667;" width="166.6667" x="7.2917" y="164.1195"/><rect fill="#1B1B1A" height="8.3333" style="stroke:#1B1B1A;stroke-width:1.0416666666666667;" width="166.6667" x="7.2917" y="187.1745"/><rect codeLine="10" fill="none" height="48.055" id="DiagramConversion" rx="8.3333" ry="8.3333" style="stroke:#5E5E5E;stroke-width:1.0416666666666667;" width="166.6667" x="7.2917" y="164.1195"/><ellipse cx="21.875" cy="179.8136" fill="#0066CF" rx="10.4167" ry="10.4167" style="stroke:#0086EF;stroke-width:1.0416666666666667;"/><path d="M23.7854,184.2387 Q23.3582,184.4584 22.8882,184.5683 Q22.4182,184.6781 21.8994,184.6781 Q20.0562,184.6781 19.0857,183.4635 Q18.1152,182.2489 18.1152,179.954 Q18.1152,177.653 19.0857,176.4384 Q20.0562,175.2238 21.8994,175.2238 Q22.4182,175.2238 22.8943,175.3337 Q23.3704,175.4435 23.7854,175.6632 L23.7854,177.6652 Q23.3215,177.238 22.8851,177.0396 Q22.4487,176.8412 21.9849,176.8412 Q20.9961,176.8412 20.4926,177.6255 Q19.989,178.4098 19.989,179.954 Q19.989,181.4921 20.4926,182.2764 Q20.9961,183.0607 21.9849,183.0607 Q22.4487,183.0607 22.8851,182.8623 Q23.3215,182.664 23.7854,182.2367 Z " fill="#000000"/><text fill="#D8BC00" font-family="Open Sans,Avenir,Nunito,Arial,Helvetica,SansSerif" font-size="12.5" font-weight="bold" lengthAdjust="spacing" textLength="129.1667" x="38.5417" y="184.5378">DiagramConversion</text><line style="stroke:#5E5E5E;stroke-width:1.0416666666666667;" x1="8.3333" x2="172.9167" y1="195.5078" y2="195.5078"/><line style="stroke:#5E5E5E;stroke-width:1.0416666666666667;" x1="8.3333" x2="172.9167" y1="203.8411" y2="203.8411"/><rect codeLine="15" fill="#282828" height="48.055" id="DiagramConversionLanguage" rx="8.3333" ry="8.3333" style="stroke:#5E5E5E;stroke-width:1.0416666666666667;" width="229.1667" x="210.4167" y="164.1195"/><rect fill="#1B1B1A" height="31.3883" rx="8.3333" ry="8.3333" style="stroke:#1B1B1A;stroke-width:1.0416666666666667;" width="229.1667" x="210.4167" y="164.1195"/><rect fill="#1B1B1A" height="8.3333" style="stroke:#1B1B1A;stroke-width:1.0416666666666667;" width="229.1667" x="210.4167" y="187.1745"/><rect codeLine="15" fill="none" height="48.055" id="DiagramConversionLanguage" rx="8.3333" ry="8.3333" style="stroke:#5E5E5E;stroke-width:1.0416666666666667;" width="229.1667" x="210.4167" y="164.1195"/><ellipse cx="225" cy="179.8136" fill="#0066CF" rx="10.4167" ry="10.4167" style="stroke:#0086EF;stroke-width:1.0416666666666667;"/><path d="M226.9104,184.2387 Q226.4832,184.4584 226.0132,184.5683 Q225.5432,184.6781 225.0244,184.6781 Q223.1812,184.6781 222.2107,183.4635 Q221.2402,182.2489 221.2402,179.954 Q221.2402,177.653 222.2107,176.4384 Q223.1812,175.2238 225.0244,175.2238 Q225.5432,175.2238 226.0193,175.3337 Q226.4954,175.4435 226.9104,175.6632 L226.9104,177.6652 Q226.4465,177.238 226.0101,177.0396 Q225.5737,176.8412 225.1099,176.8412 Q224.1211,176.8412 223.6176,177.6255 Q223.114,178.4098 223.114,179.954 Q223.114,181.4921 223.6176,182.2764 Q224.1211,183.0607 225.1099,183.0607 Q225.5737,183.0607 226.0101,182.8623 Q226.4465,182.664 226.9104,182.2367 Z " fill="#000000"/><text fill="#D8BC00" font-family="Open Sans,Avenir,Nunito,Arial,Helvetica,SansSerif" font-size="12.5" font-weight="bold" lengthAdjust="spacing" textLength="191.6667" x="241.6667" y="184.5378">DiagramConversionLanguage</text><line style="stroke:#5E5E5E;stroke-width:1.0416666666666667;" x1="211.4583" x2="438.5417" y1="195.5078" y2="195.5078"/><line style="stroke:#5E5E5E;stroke-width:1.0416666666666667;" x1="211.4583" x2="438.5417" y1="203.8411" y2="203.8411"/><rect codeLine="20" fill="#282828" height="48.055" id="DiagramConversionOther" rx="8.3333" ry="8.3333" style="stroke:#5E5E5E;stroke-width:1.0416666666666667;" width="203.125" x="476.5625" y="164.1195"/><rect fill="#1B1B1A" height="31.3883" rx="8.3333" ry="8.3333" style="stroke:#1B1B1A;stroke-width:1.0416666666666667;" width="203.125" x="476.5625" y="164.1195"/><rect fill="#1B1B1A" height="8.3333" style="stroke:#1B1B1A;stroke-width:1.0416666666666667;" width="203.125" x="476.5625" y="187.1745"/><rect codeLine="20" fill="none" height="48.055" id="DiagramConversionOther" rx="8.3333" ry="8.3333" style="stroke:#5E5E5E;stroke-width:1.0416666666666667;" width="203.125" x="476.5625" y="164.1195"/><ellipse cx="491.1458" cy="179.8136" fill="#0066CF" rx="10.4167" ry="10.4167" style="stroke:#0086EF;stroke-width:1.0416666666666667;"/><path d="M493.0562,184.2387 Q492.629,184.4584 492.159,184.5683 Q491.689,184.6781 491.1702,184.6781 Q489.327,184.6781 488.3565,183.4635 Q487.3861,182.2489 487.3861,179.954 Q487.3861,177.653 488.3565,176.4384 Q489.327,175.2238 491.1702,175.2238 Q491.689,175.2238 492.1651,175.3337 Q492.6412,175.4435 493.0562,175.6632 L493.0562,177.6652 Q492.5924,177.238 492.156,177.0396 Q491.7196,176.8412 491.2557,176.8412 Q490.2669,176.8412 489.7634,177.6255 Q489.2598,178.4098 489.2598,179.954 Q489.2598,181.4921 489.7634,182.2764 Q490.2669,183.0607 491.2557,183.0607 Q491.7196,183.0607 492.156,182.8623 Q492.5924,182.664 493.0562,182.2367 Z " fill="#000000"/><text fill="#D8BC00" font-family="Open Sans,Avenir,Nunito,Arial,Helvetica,SansSerif" font-size="12.5" font-weight="bold" lengthAdjust="spacing" textLength="165.625" x="507.8125" y="184.5378">DiagramConversionOther</text><line style="stroke:#5E5E5E;stroke-width:1.0416666666666667;" x1="477.6042" x2="678.6458" y1="195.5078" y2="195.5078"/><line style="stroke:#5E5E5E;stroke-width:1.0416666666666667;" x1="477.6042" x2="678.6458" y1="203.8411" y2="203.8411"/><rect codeLine="25" fill="#282828" height="48.055" id="DiagramConversionPrimitive" rx="8.3333" ry="8.3333" style="stroke:#5E5E5E;stroke-width:1.0416666666666667;" width="223.9583" x="716.1458" y="164.1195"/><rect fill="#1B1B1A" height="31.3883" rx="8.3333" ry="8.3333" style="stroke:#1B1B1A;stroke-width:1.0416666666666667;" width="223.9583" x="716.1458" y="164.1195"/><rect fill="#1B1B1A" height="8.3333" style="stroke:#1B1B1A;stroke-width:1.0416666666666667;" width="223.9583" x="716.1458" y="187.1745"/><rect codeLine="25" fill="none" height="48.055" id="DiagramConversionPrimitive" rx="8.3333" ry="8.3333" style="stroke:#5E5E5E;stroke-width:1.0416666666666667;" width="223.9583" x="716.1458" y="164.1195"/><ellipse cx="730.7292" cy="179.8136" fill="#0066CF" rx="10.4167" ry="10.4167" style="stroke:#0086EF;stroke-width:1.0416666666666667;"/><path d="M732.6396,184.2387 Q732.2123,184.4584 731.7424,184.5683 Q731.2724,184.6781 730.7536,184.6781 Q728.9103,184.6781 727.9399,183.4635 Q726.9694,182.2489 726.9694,179.954 Q726.9694,177.653 727.9399,176.4384 Q728.9103,175.2238 730.7536,175.2238 Q731.2724,175.2238 731.7485,175.3337 Q732.2245,175.4435 732.6396,175.6632 L732.6396,177.6652 Q732.1757,177.238 731.7393,177.0396 Q731.3029,176.8412 730.839,176.8412 Q729.8503,176.8412 729.3467,177.6255 Q728.8432,178.4098 728.8432,179.954 Q728.8432,181.4921 729.3467,182.2764 Q729.8503,183.0607 730.839,183.0607 Q731.3029,183.0607 731.7393,182.8623 Q732.1757,182.664 732.6396,182.2367 Z " fill="#000000"/><text fill="#D8BC00" font-family="Open Sans,Avenir,Nunito,Arial,Helvetica,SansSerif" font-size="12.5" font-weight="bold" lengthAdjust="spacing" textLength="186.4583" x="747.3958" y="184.5378">DiagramConversionPrimitive</text><line style="stroke:#5E5E5E;stroke-width:1.0416666666666667;" x1="717.1875" x2="939.0625" y1="195.5078" y2="195.5078"/><line style="stroke:#5E5E5E;stroke-width:1.0416666666666667;" x1="717.1875" x2="939.0625" y1="203.8411" y2="203.8411"/><rect codeLine="30" fill="#282828" height="48.055" id="DiagramConversionTime" rx="8.3333" ry="8.3333" style="stroke:#5E5E5E;stroke-width:1.0416666666666667;" width="198.9583" x="976.5625" y="164.1195"/><rect fill="#1B1B1A" height="31.3883" rx="8.3333" ry="8.3333" style="stroke:#1B1B1A;stroke-width:1.0416666666666667;" width="198.9583" x="976.5625" y="164.1195"/><rect fill="#1B1B1A" height="8.3333" style="stroke:#1B1B1A;stroke-width:1.0416666666666667;" width="198.9583" x="976.5625" y="187.1745"/><rect codeLine="30" fill="none" height="48.055" id="DiagramConversionTime" rx="8.3333" ry="8.3333" style="stroke:#5E5E5E;stroke-width:1.0416666666666667;" width="198.9583" x="976.5625" y="164.1195"/><ellipse cx="991.1458" cy="179.8136" fill="#0066CF" rx="10.4167" ry="10.4167" style="stroke:#0086EF;stroke-width:1.0416666666666667;"/><path d="M993.0562,184.2387 Q992.629,184.4584 992.159,184.5683 Q991.689,184.6781 991.1702,184.6781 Q989.327,184.6781 988.3565,183.4635 Q987.3861,182.2489 987.3861,179.954 Q987.3861,177.653 988.3565,176.4384 Q989.327,175.2238 991.1702,175.2238 Q991.689,175.2238 992.1651,175.3337 Q992.6412,175.4435 993.0562,175.6632 L993.0562,177.6652 Q992.5924,177.238 992.156,177.0396 Q991.7196,176.8412 991.2557,176.8412 Q990.2669,176.8412 989.7634,177.6255 Q989.2598,178.4098 989.2598,179.954 Q989.2598,181.4921 989.7634,182.2764 Q990.2669,183.0607 991.2557,183.0607 Q991.7196,183.0607 992.156,182.8623 Q992.5924,182.664 993.0562,182.2367 Z " fill="#000000"/><text fill="#D8BC00" font-family="Open Sans,Avenir,Nunito,Arial,Helvetica,SansSerif" font-size="12.5" font-weight="bold" lengthAdjust="spacing" textLength="161.4583" x="1007.8125" y="184.5378">DiagramConversionTime</text><line style="stroke:#5E5E5E;stroke-width:1.0416666666666667;" x1="977.6042" x2="1174.4792" y1="195.5078" y2="195.5078"/><line style="stroke:#5E5E5E;stroke-width:1.0416666666666667;" x1="977.6042" x2="1174.4792" y1="203.8411" y2="203.8411"/><rect codeLine="35" fill="#282828" height="48.055" id="DiagramConversionValue" rx="8.3333" ry="8.3333" style="stroke:#5E5E5E;stroke-width:1.0416666666666667;" width="202.0833" x="1212.5" y="164.1195"/><rect fill="#1B1B1A" height="31.3883" rx="8.3333" ry="8.3333" style="stroke:#1B1B1A;stroke-width:1.0416666666666667;" width="202.0833" x="1212.5" y="164.1195"/><rect fill="#1B1B1A" height="8.3333" style="stroke:#1B1B1A;stroke-width:1.0416666666666667;" width="202.0833" x="1212.5" y="187.1745"/><rect codeLine="35" fill="none" height="48.055" id="DiagramConversionValue" rx="8.3333" ry="8.3333" style="stroke:#5E5E5E;stroke-width:1.0416666666666667;" width="202.0833" x="1212.5" y="164.1195"/><ellipse cx="1227.0833" cy="179.8136" fill="#0066CF" rx="10.4167" ry="10.4167" style="stroke:#0086EF;stroke-width:1.0416666666666667;"/><path d="M1228.9937,184.2387 Q1228.5665,184.4584 1228.0965,184.5683 Q1227.6265,184.6781 1227.1077,184.6781 Q1225.2645,184.6781 1224.294,183.4635 Q1223.3236,182.2489 1223.3236,179.954 Q1223.3236,177.653 1224.294,176.4384 Q1225.2645,175.2238 1227.1077,175.2238 Q1227.6265,175.2238 1228.1026,175.3337 Q1228.5787,175.4435 1228.9937,175.6632 L1228.9937,177.6652 Q1228.5299,177.238 1228.0935,177.0396 Q1227.6571,176.8412 1227.1932,176.8412 Q1226.2044,176.8412 1225.7009,177.6255 Q1225.1973,178.4098 1225.1973,179.954 Q1225.1973,181.4921 1225.7009,182.2764 Q1226.2044,183.0607 1227.1932,183.0607 Q1227.6571,183.0607 1228.0935,182.8623 Q1228.5299,182.664 1228.9937,182.2367 Z " fill="#000000"/><text fill="#D8BC00" font-family="Open Sans,Avenir,Nunito,Arial,Helvetica,SansSerif" font-size="12.5" font-weight="bold" lengthAdjust="spacing" textLength="164.5833" x="1243.75" y="184.5378">DiagramConversionValue</text><line style="stroke:#5E5E5E;stroke-width:1.0416666666666667;" x1="1213.5417" x2="1413.5417" y1="195.5078" y2="195.5078"/><line style="stroke:#5E5E5E;stroke-width:1.0416666666666667;" x1="1213.5417" x2="1413.5417" y1="203.8411" y2="203.8411"/><path codeLine="9" d="M593.0521,95.2132 C489.25,111.2236 329.4688,137.0049 191.6667,164.1195 C185.9271,165.2445 180.0208,166.4632 174.0833,167.7132 " fill="none" id="UmlDiagramIdentifier-backto-DiagramConversion" style="stroke:#545454;stroke-width:1.5625;"/><polygon fill="none" points="591.9896,87.9945,613.6875,92.0465,594.1979,102.4111,591.9896,87.9945" style="stroke:#545454;stroke-width:1.5625;"/><path codeLine="14" d="M602.6458,107.484 C540.8333,125.2028 462.6979,147.5882 405.0729,164.0986 " fill="none" id="UmlDiagramIdentifier-backto-DiagramConversionLanguage" style="stroke:#545454;stroke-width:1.5625;"/><polygon fill="none" points="600.8958,100.4007,622.9375,101.682,604.9167,114.4215,600.8958,100.4007" style="stroke:#545454;stroke-width:1.5625;"/><path codeLine="19" d="M660.8125,115.3695 C642.2083,131.5049 620.9167,149.9528 604.5938,164.0986 " fill="none" id="UmlDiagramIdentifier-backto-DiagramConversionOther" style="stroke:#545454;stroke-width:1.5625;"/><polygon fill="none" points="656.0938,109.807,676.6146,101.682,665.6458,120.8278,656.0938,109.807" style="stroke:#545454;stroke-width:1.5625;"/><path codeLine="24" d="M745.4375,115.3695 C764.0417,131.5049 785.3333,149.9528 801.6563,164.0986 " fill="none" id="UmlDiagramIdentifier-backto-DiagramConversionPrimitive" style="stroke:#545454;stroke-width:1.5625;"/><polygon fill="none" points="740.6042,120.8278,729.6354,101.682,750.1563,109.807,740.6042,120.8278" style="stroke:#545454;stroke-width:1.5625;"/><path codeLine="29" d="M802.6146,107.609 C863.5104,125.2965 940.3646,147.6195 997.0729,164.0986 " fill="none" id="UmlDiagramIdentifier-backto-DiagramConversionTime" style="stroke:#545454;stroke-width:1.5625;"/><polygon fill="none" points="800.1875,114.4945,782.2083,101.682,804.25,100.484,800.1875,114.4945" style="stroke:#545454;stroke-width:1.5625;"/><path codeLine="34" d="M813.0208,97.2965 C912.5208,114.2549 1063.0729,140.2445 1193.75,164.1195 C1199.7917,165.2236 1206,166.3695 1212.2604,167.5361 " fill="none" id="UmlDiagramIdentifier-backto-DiagramConversionValue" style="stroke:#545454;stroke-width:1.5625;"/><polygon fill="none" points="811.5938,104.4528,792.2813,93.7653,814.0417,90.0778,811.5938,104.4528" style="stroke:#545454;stroke-width:1.5625;"/></g></svg>
