<?xml version="1.0" encoding="UTF-8" standalone="no"?><svg xmlns="http://www.w3.org/2000/svg" xmlns:xlink="http://www.w3.org/1999/xlink" contentScriptType="application/ecmascript" contentStyleType="text/css" height="254.1667px" preserveAspectRatio="none" style="width:487px;height:254px;background:#333333;" version="1.1" viewBox="0 0 487 254" width="487.5px" zoomAndPan="magnify"><defs/><g><rect fill="#48494B" height="41.2028" rx="8.3333" ry="8.3333" style="stroke:#545454;stroke-width:1.0416666666666667;" width="475" x="2.0833" y="2.0833"/><text fill="#C0C0C0" font-family="Open Sans,Avenir,Nunito,Arial,Helvetica,SansSerif" font-size="20.8333" lengthAdjust="spacing" textLength="452.0833" x="13.5417" y="30.5583">com.telenav.kivakit.conversion.core.identifier</text><rect fill="#282828" height="48.055" id="QuantizableConverter" rx="8.3333" ry="8.3333" style="stroke:#5E5E5E;stroke-width:1.0416666666666667;" width="179.1667" x="147.3958" y="53.7028"/><rect fill="#1B1B1A" height="31.3883" rx="8.3333" ry="8.3333" style="stroke:#1B1B1A;stroke-width:1.0416666666666667;" width="179.1667" x="147.3958" y="53.7028"/><rect fill="#1B1B1A" height="8.3333" style="stroke:#1B1B1A;stroke-width:1.0416666666666667;" width="179.1667" x="147.3958" y="76.7578"/><rect fill="none" height="48.055" id="QuantizableConverter" rx="8.3333" ry="8.3333" style="stroke:#5E5E5E;stroke-width:1.0416666666666667;" width="179.1667" x="147.3958" y="53.7028"/><ellipse cx="161.9792" cy="69.397" fill="#0066CF" rx="10.4167" ry="10.4167" style="stroke:#0086EF;stroke-width:1.0416666666666667;"/><path d="M163.8896,73.822 Q163.4623,74.0417 162.9924,74.1516 Q162.5224,74.2615 162.0036,74.2615 Q160.1603,74.2615 159.1899,73.0469 Q158.2194,71.8323 158.2194,69.5374 Q158.2194,67.2363 159.1899,66.0217 Q160.1603,64.8071 162.0036,64.8071 Q162.5224,64.8071 162.9985,64.917 Q163.4745,65.0269 163.8896,65.2466 L163.8896,67.2485 Q163.4257,66.8213 162.9893,66.6229 Q162.5529,66.4246 162.089,66.4246 Q161.1003,66.4246 160.5967,67.2089 Q160.0932,67.9932 160.0932,69.5374 Q160.0932,71.0754 160.5967,71.8597 Q161.1003,72.644 162.089,72.644 Q162.5529,72.644 162.9893,72.4457 Q163.4257,72.2473 163.8896,71.8201 Z " fill="#000000"/><text fill="#D8BC00" font-family="Open Sans,Avenir,Nunito,Arial,Helvetica,SansSerif" font-size="12.5" font-weight="bold" lengthAdjust="spacing" textLength="141.6667" x="178.6458" y="74.1211">QuantizableConverter</text><line style="stroke:#5E5E5E;stroke-width:1.0416666666666667;" x1="148.4375" x2="325.5208" y1="85.0911" y2="85.0911"/><line style="stroke:#5E5E5E;stroke-width:1.0416666666666667;" x1="148.4375" x2="325.5208" y1="93.4245" y2="93.4245"/><rect codeLine="8" fill="#282828" height="83.3781" id="IdentifierConverter" rx="8.3333" ry="8.3333" style="stroke:#5E5E5E;stroke-width:1.0416666666666667;" width="191.6667" x="17.1875" y="164.1195"/><rect fill="#1B1B1A" height="31.3883" rx="8.3333" ry="8.3333" style="stroke:#1B1B1A;stroke-width:1.0416666666666667;" width="191.6667" x="17.1875" y="164.1195"/><rect fill="#1B1B1A" height="8.3333" style="stroke:#1B1B1A;stroke-width:1.0416666666666667;" width="191.6667" x="17.1875" y="187.1745"/><rect codeLine="8" fill="none" height="83.3781" id="IdentifierConverter" rx="8.3333" ry="8.3333" style="stroke:#5E5E5E;stroke-width:1.0416666666666667;" width="191.6667" x="17.1875" y="164.1195"/><ellipse cx="45.8333" cy="179.8136" fill="#0066CF" rx="10.4167" ry="10.4167" style="stroke:#0086EF;stroke-width:1.0416666666666667;"/><path d="M47.7437,184.2387 Q47.3165,184.4584 46.8465,184.5683 Q46.3765,184.6781 45.8577,184.6781 Q44.0145,184.6781 43.044,183.4635 Q42.0736,182.2489 42.0736,179.954 Q42.0736,177.653 43.044,176.4384 Q44.0145,175.2238 45.8577,175.2238 Q46.3765,175.2238 46.8526,175.3337 Q47.3287,175.4435 47.7437,175.6632 L47.7437,177.6652 Q47.2799,177.238 46.8435,177.0396 Q46.4071,176.8412 45.9432,176.8412 Q44.9544,176.8412 44.4509,177.6255 Q43.9473,178.4098 43.9473,179.954 Q43.9473,181.4921 44.4509,182.2764 Q44.9544,183.0607 45.9432,183.0607 Q46.4071,183.0607 46.8435,182.8623 Q47.2799,182.664 47.7437,182.2367 Z " fill="#000000"/><text fill="#D8BC00" font-family="Open Sans,Avenir,Nunito,Arial,Helvetica,SansSerif" font-size="12.5" font-weight="bold" lengthAdjust="spacing" textLength="122.9167" x="65.625" y="184.5378">IdentifierConverter</text><line style="stroke:#5E5E5E;stroke-width:1.5625;" x1="18.2292" x2="207.8125" y1="195.5078" y2="195.5078"/><ellipse cx="28.6458" cy="230.8777" fill="#84BE84" rx="3.125" ry="3.125" style="stroke:#038048;stroke-width:1.0416666666666667;"/><text fill="#D8BC00" font-family="Open Sans,Avenir,Nunito,Arial,Helvetica,SansSerif" font-size="11.4583" lengthAdjust="spacing" textLength="159.375" x="40.1042" y="237.7889">IdentifierConverter(Listener)</text><line style="stroke:#5E5E5E;stroke-width:1.0416666666666667;" x1="18.2292" x2="69.2708" y1="213.7136" y2="213.7136"/><text fill="#D8BC00" font-family="Open Sans,Avenir,Nunito,Arial,Helvetica,SansSerif" font-size="11.4583" lengthAdjust="spacing" textLength="81.25" x="72.3958" y="217.5232">(constructors)</text><line style="stroke:#5E5E5E;stroke-width:1.0416666666666667;" x1="156.7708" x2="207.8125" y1="213.7136" y2="213.7136"/><rect codeLine="15" fill="#282828" height="83.3781" id="IntegerIdentifierConverter" rx="8.3333" ry="8.3333" style="stroke:#5E5E5E;stroke-width:1.0416666666666667;" width="231.25" x="245.3125" y="164.1195"/><rect fill="#1B1B1A" height="31.3883" rx="8.3333" ry="8.3333" style="stroke:#1B1B1A;stroke-width:1.0416666666666667;" width="231.25" x="245.3125" y="164.1195"/><rect fill="#1B1B1A" height="8.3333" style="stroke:#1B1B1A;stroke-width:1.0416666666666667;" width="231.25" x="245.3125" y="187.1745"/><rect codeLine="15" fill="none" height="83.3781" id="IntegerIdentifierConverter" rx="8.3333" ry="8.3333" style="stroke:#5E5E5E;stroke-width:1.0416666666666667;" width="231.25" x="245.3125" y="164.1195"/><ellipse cx="271.1458" cy="179.8136" fill="#0066CF" rx="10.4167" ry="10.4167" style="stroke:#0086EF;stroke-width:1.0416666666666667;"/><path d="M273.0562,184.2387 Q272.629,184.4584 272.159,184.5683 Q271.689,184.6781 271.1702,184.6781 Q269.327,184.6781 268.3565,183.4635 Q267.3861,182.2489 267.3861,179.954 Q267.3861,177.653 268.3565,176.4384 Q269.327,175.2238 271.1702,175.2238 Q271.689,175.2238 272.1651,175.3337 Q272.6412,175.4435 273.0562,175.6632 L273.0562,177.6652 Q272.5924,177.238 272.156,177.0396 Q271.7196,176.8412 271.2557,176.8412 Q270.2669,176.8412 269.7634,177.6255 Q269.2598,178.4098 269.2598,179.954 Q269.2598,181.4921 269.7634,182.2764 Q270.2669,183.0607 271.2557,183.0607 Q271.7196,183.0607 272.156,182.8623 Q272.5924,182.664 273.0562,182.2367 Z " fill="#000000"/><text fill="#D8BC00" font-family="Open Sans,Avenir,Nunito,Arial,Helvetica,SansSerif" font-size="12.5" font-weight="bold" lengthAdjust="spacing" textLength="168.75" x="290.3125" y="184.5378">IntegerIdentifierConverter</text><line style="stroke:#5E5E5E;stroke-width:1.5625;" x1="246.3542" x2="475.5208" y1="195.5078" y2="195.5078"/><ellipse cx="256.7708" cy="230.8777" fill="#84BE84" rx="3.125" ry="3.125" style="stroke:#038048;stroke-width:1.0416666666666667;"/><text fill="#D8BC00" font-family="Open Sans,Avenir,Nunito,Arial,Helvetica,SansSerif" font-size="11.4583" lengthAdjust="spacing" textLength="198.9583" x="268.2292" y="237.7889">IntegerIdentifierConverter(Listener)</text><line style="stroke:#5E5E5E;stroke-width:1.0416666666666667;" x1="246.3542" x2="317.1875" y1="213.7136" y2="213.7136"/><text fill="#D8BC00" font-family="Open Sans,Avenir,Nunito,Arial,Helvetica,SansSerif" font-size="11.4583" lengthAdjust="spacing" textLength="81.25" x="320.3125" y="217.5232">(constructors)</text><line style="stroke:#5E5E5E;stroke-width:1.0416666666666667;" x1="404.6875" x2="475.5208" y1="213.7136" y2="213.7136"/><path codeLine="7" d="M199.4167,116.8903 C184.8021,131.7549 168.0313,148.8174 153.1667,163.9215 " fill="none" id="QuantizableConverter-backto-IdentifierConverter" style="stroke:#545454;stroke-width:1.5625;"/><polygon fill="none" points="194.4375,111.557,214.2396,101.8174,204.8333,121.7861,194.4375,111.557" style="stroke:#545454;stroke-width:1.5625;"/><path codeLine="14" d="M274.5417,116.8903 C289.1563,131.7549 305.9271,148.8174 320.7917,163.9215 " fill="none" id="QuantizableConverter-backto-IntegerIdentifierConverter" style="stroke:#545454;stroke-width:1.5625;"/><polygon fill="none" points="269.125,121.7861,259.7188,101.8174,279.5208,111.557,269.125,121.7861" style="stroke:#545454;stroke-width:1.5625;"/></g></svg>
