<?xml version="1.0" encoding="UTF-8" standalone="no"?><svg xmlns="http://www.w3.org/2000/svg" xmlns:xlink="http://www.w3.org/1999/xlink" contentScriptType="application/ecmascript" contentStyleType="text/css" height="317.7083px" preserveAspectRatio="none" style="width:1132px;height:317px;background:#333333;" version="1.1" viewBox="0 0 1132 317" width="1132.2917px" zoomAndPan="magnify"><defs/><g><rect fill="#48494B" height="41.2028" rx="8.3333" ry="8.3333" style="stroke:#545454;stroke-width:1.0416666666666667;" width="251.0417" x="433.5938" y="2.0833"/><text fill="#C0C0C0" font-family="Open Sans,Avenir,Nunito,Arial,Helvetica,SansSerif" font-size="20.8333" lengthAdjust="spacing" textLength="228.125" x="445.0521" y="30.5583">Converters - Language</text><rect codeLine="7" fill="#282828" height="48.055" id="BaseStringConverter" rx="8.3333" ry="8.3333" style="stroke:#5E5E5E;stroke-width:1.0416666666666667;" width="169.7917" x="494.7917" y="85.4736"/><rect fill="#1B1B1A" height="31.3883" rx="8.3333" ry="8.3333" style="stroke:#1B1B1A;stroke-width:1.0416666666666667;" width="169.7917" x="494.7917" y="85.4736"/><rect fill="#1B1B1A" height="8.3333" style="stroke:#1B1B1A;stroke-width:1.0416666666666667;" width="169.7917" x="494.7917" y="108.5286"/><rect codeLine="7" fill="none" height="48.055" id="BaseStringConverter" rx="8.3333" ry="8.3333" style="stroke:#5E5E5E;stroke-width:1.0416666666666667;" width="169.7917" x="494.7917" y="85.4736"/><ellipse cx="509.375" cy="101.1678" fill="#C8AC00" rx="10.4167" ry="10.4167" style="stroke:#D8BC00;stroke-width:1.0416666666666667;"/><path d="M508.9681,97.8699 L508.1197,101.5991 L509.8226,101.5991 Z M507.8695,96.2219 L510.0728,96.2219 L512.5326,105.3345 L510.732,105.3345 L510.1705,103.0823 L507.7596,103.0823 L507.2103,105.3345 L505.4097,105.3345 Z " fill="#000000"/><text fill="#D8BC00" font-family="Open Sans,Avenir,Nunito,Arial,Helvetica,SansSerif" font-size="12.5" font-style="italic" font-weight="bold" lengthAdjust="spacing" textLength="132.2917" x="526.0417" y="105.8919">BaseStringConverter</text><line style="stroke:#5E5E5E;stroke-width:1.0416666666666667;" x1="495.8333" x2="663.5417" y1="116.862" y2="116.862"/><line style="stroke:#5E5E5E;stroke-width:1.0416666666666667;" x1="495.8333" x2="663.5417" y1="125.1953" y2="125.1953"/><rect codeLine="10" fill="#282828" height="83.3781" id="ClassConverter" rx="8.3333" ry="8.3333" style="stroke:#5E5E5E;stroke-width:1.0416666666666667;" width="171.875" x="7.2917" y="227.6611"/><rect fill="#1B1B1A" height="31.3883" rx="8.3333" ry="8.3333" style="stroke:#1B1B1A;stroke-width:1.0416666666666667;" width="171.875" x="7.2917" y="227.6611"/><rect fill="#1B1B1A" height="8.3333" style="stroke:#1B1B1A;stroke-width:1.0416666666666667;" width="171.875" x="7.2917" y="250.7161"/><rect codeLine="10" fill="none" height="83.3781" id="ClassConverter" rx="8.3333" ry="8.3333" style="stroke:#5E5E5E;stroke-width:1.0416666666666667;" width="171.875" x="7.2917" y="227.6611"/><ellipse cx="37.8125" cy="243.3553" fill="#0066CF" rx="10.4167" ry="10.4167" style="stroke:#0086EF;stroke-width:1.0416666666666667;"/><path d="M39.7229,247.7804 Q39.2957,248.0001 38.8257,248.1099 Q38.3557,248.2198 37.8369,248.2198 Q35.9937,248.2198 35.0232,247.0052 Q34.0527,245.7906 34.0527,243.4957 Q34.0527,241.1947 35.0232,239.9801 Q35.9937,238.7655 37.8369,238.7655 Q38.3557,238.7655 38.8318,238.8753 Q39.3079,238.9852 39.7229,239.2049 L39.7229,241.2069 Q39.259,240.7796 38.8226,240.5813 Q38.3862,240.3829 37.9224,240.3829 Q36.9336,240.3829 36.4301,241.1672 Q35.9265,241.9515 35.9265,243.4957 Q35.9265,245.0338 36.4301,245.8181 Q36.9336,246.6024 37.9224,246.6024 Q38.3862,246.6024 38.8226,246.404 Q39.259,246.2056 39.7229,245.7784 Z " fill="#000000"/><text fill="#D8BC00" font-family="Open Sans,Avenir,Nunito,Arial,Helvetica,SansSerif" font-size="12.5" font-weight="bold" lengthAdjust="spacing" textLength="98.9583" x="58.0208" y="248.0794">ClassConverter</text><line style="stroke:#5E5E5E;stroke-width:1.5625;" x1="8.3333" x2="178.125" y1="259.0495" y2="259.0495"/><ellipse cx="18.75" cy="294.4194" fill="#84BE84" rx="3.125" ry="3.125" style="stroke:#038048;stroke-width:1.0416666666666667;"/><text fill="#D8BC00" font-family="Open Sans,Avenir,Nunito,Arial,Helvetica,SansSerif" font-size="11.4583" lengthAdjust="spacing" textLength="139.5833" x="30.2083" y="301.3306">ClassConverter(Listener)</text><line style="stroke:#5E5E5E;stroke-width:1.0416666666666667;" x1="8.3333" x2="49.4792" y1="277.2552" y2="277.2552"/><text fill="#D8BC00" font-family="Open Sans,Avenir,Nunito,Arial,Helvetica,SansSerif" font-size="11.4583" lengthAdjust="spacing" textLength="81.25" x="52.6042" y="281.0649">(constructors)</text><line style="stroke:#5E5E5E;stroke-width:1.0416666666666667;" x1="136.9792" x2="178.125" y1="277.2552" y2="277.2552"/><rect codeLine="17" fill="#282828" height="83.3781" id="EnumConverter" rx="8.3333" ry="8.3333" style="stroke:#5E5E5E;stroke-width:1.0416666666666667;" width="235.4167" x="216.1458" y="227.6611"/><rect fill="#1B1B1A" height="31.3883" rx="8.3333" ry="8.3333" style="stroke:#1B1B1A;stroke-width:1.0416666666666667;" width="235.4167" x="216.1458" y="227.6611"/><rect fill="#1B1B1A" height="8.3333" style="stroke:#1B1B1A;stroke-width:1.0416666666666667;" width="235.4167" x="216.1458" y="250.7161"/><rect codeLine="17" fill="none" height="83.3781" id="EnumConverter" rx="8.3333" ry="8.3333" style="stroke:#5E5E5E;stroke-width:1.0416666666666667;" width="235.4167" x="216.1458" y="227.6611"/><ellipse cx="267.1875" cy="243.3553" fill="#0066CF" rx="10.4167" ry="10.4167" style="stroke:#0086EF;stroke-width:1.0416666666666667;"/><path d="M269.0979,247.7804 Q268.6707,248.0001 268.2007,248.1099 Q267.7307,248.2198 267.2119,248.2198 Q265.3687,248.2198 264.3982,247.0052 Q263.4277,245.7906 263.4277,243.4957 Q263.4277,241.1947 264.3982,239.9801 Q265.3687,238.7655 267.2119,238.7655 Q267.7307,238.7655 268.2068,238.8753 Q268.6829,238.9852 269.0979,239.2049 L269.0979,241.2069 Q268.634,240.7796 268.1976,240.5813 Q267.7612,240.3829 267.2974,240.3829 Q266.3086,240.3829 265.8051,241.1672 Q265.3015,241.9515 265.3015,243.4957 Q265.3015,245.0338 265.8051,245.8181 Q266.3086,246.6024 267.2974,246.6024 Q267.7612,246.6024 268.1976,246.404 Q268.634,246.2056 269.0979,245.7784 Z " fill="#000000"/><text fill="#D8BC00" font-family="Open Sans,Avenir,Nunito,Arial,Helvetica,SansSerif" font-size="12.5" font-weight="bold" lengthAdjust="spacing" textLength="100" x="290.1042" y="248.0794">EnumConverter</text><rect fill="#333333" height="23.055" style="stroke:#A0A0A0;stroke-width:1.0416666666666667;stroke-dasharray:2.0,2.0;" width="16.6667" x="438.0208" y="224.5361"/><text fill="#A0A0A0" font-family="Open Sans,Avenir,Nunito,Arial,Helvetica,SansSerif" font-size="12.5" font-weight="bold" lengthAdjust="spacing" textLength="8.3333" x="442.1875" y="240.7878">T</text><line style="stroke:#5E5E5E;stroke-width:1.5625;" x1="217.1875" x2="450.5208" y1="259.0495" y2="259.0495"/><ellipse cx="227.6042" cy="294.4194" fill="#84BE84" rx="3.125" ry="3.125" style="stroke:#038048;stroke-width:1.0416666666666667;"/><text fill="#D8BC00" font-family="Open Sans,Avenir,Nunito,Arial,Helvetica,SansSerif" font-size="11.4583" lengthAdjust="spacing" textLength="203.125" x="239.0625" y="301.3306">EnumConverter(Listener, Class&lt;T&gt;)</text><line style="stroke:#5E5E5E;stroke-width:1.0416666666666667;" x1="217.1875" x2="290.1042" y1="277.2552" y2="277.2552"/><text fill="#D8BC00" font-family="Open Sans,Avenir,Nunito,Arial,Helvetica,SansSerif" font-size="11.4583" lengthAdjust="spacing" textLength="81.25" x="293.2292" y="281.0649">(constructors)</text><line style="stroke:#5E5E5E;stroke-width:1.0416666666666667;" x1="377.6042" x2="450.5208" y1="277.2552" y2="277.2552"/><rect codeLine="24" fill="#282828" height="83.3781" id="IdentityConverter" rx="8.3333" ry="8.3333" style="stroke:#5E5E5E;stroke-width:1.0416666666666667;" width="183.3333" x="488.0208" y="227.6611"/><rect fill="#1B1B1A" height="31.3883" rx="8.3333" ry="8.3333" style="stroke:#1B1B1A;stroke-width:1.0416666666666667;" width="183.3333" x="488.0208" y="227.6611"/><rect fill="#1B1B1A" height="8.3333" style="stroke:#1B1B1A;stroke-width:1.0416666666666667;" width="183.3333" x="488.0208" y="250.7161"/><rect codeLine="24" fill="none" height="83.3781" id="IdentityConverter" rx="8.3333" ry="8.3333" style="stroke:#5E5E5E;stroke-width:1.0416666666666667;" width="183.3333" x="488.0208" y="227.6611"/><ellipse cx="517.1354" cy="243.3553" fill="#0066CF" rx="10.4167" ry="10.4167" style="stroke:#0086EF;stroke-width:1.0416666666666667;"/><path d="M519.0458,247.7804 Q518.6186,248.0001 518.1486,248.1099 Q517.6786,248.2198 517.1598,248.2198 Q515.3166,248.2198 514.3461,247.0052 Q513.3757,245.7906 513.3757,243.4957 Q513.3757,241.1947 514.3461,239.9801 Q515.3166,238.7655 517.1598,238.7655 Q517.6786,238.7655 518.1547,238.8753 Q518.6308,238.9852 519.0458,239.2049 L519.0458,241.2069 Q518.5819,240.7796 518.1455,240.5813 Q517.7091,240.3829 517.2453,240.3829 Q516.2565,240.3829 515.753,241.1672 Q515.2494,241.9515 515.2494,243.4957 Q515.2494,245.0338 515.753,245.8181 Q516.2565,246.6024 517.2453,246.6024 Q517.7091,246.6024 518.1455,246.404 Q518.5819,246.2056 519.0458,245.7784 Z " fill="#000000"/><text fill="#D8BC00" font-family="Open Sans,Avenir,Nunito,Arial,Helvetica,SansSerif" font-size="12.5" font-weight="bold" lengthAdjust="spacing" textLength="113.5417" x="537.0313" y="248.0794">IdentityConverter</text><line style="stroke:#5E5E5E;stroke-width:1.5625;" x1="489.0625" x2="670.3125" y1="259.0495" y2="259.0495"/><ellipse cx="499.4792" cy="294.4194" fill="#84BE84" rx="3.125" ry="3.125" style="stroke:#038048;stroke-width:1.0416666666666667;"/><text fill="#D8BC00" font-family="Open Sans,Avenir,Nunito,Arial,Helvetica,SansSerif" font-size="11.4583" lengthAdjust="spacing" textLength="151.0417" x="510.9375" y="301.3306">IdentityConverter(Listener)</text><line style="stroke:#5E5E5E;stroke-width:1.0416666666666667;" x1="489.0625" x2="535.9375" y1="277.2552" y2="277.2552"/><text fill="#D8BC00" font-family="Open Sans,Avenir,Nunito,Arial,Helvetica,SansSerif" font-size="11.4583" lengthAdjust="spacing" textLength="81.25" x="539.0625" y="281.0649">(constructors)</text><line style="stroke:#5E5E5E;stroke-width:1.0416666666666667;" x1="623.4375" x2="670.3125" y1="277.2552" y2="277.2552"/><rect codeLine="30" fill="#282828" height="111.4563" id="ObjectPopulator" rx="8.3333" ry="8.3333" style="stroke:#5E5E5E;stroke-width:1.0416666666666667;" width="355.2083" x="701.0417" y="53.7028"/><rect fill="#1B1B1A" height="31.3883" rx="8.3333" ry="8.3333" style="stroke:#1B1B1A;stroke-width:1.0416666666666667;" width="355.2083" x="701.0417" y="53.7028"/><rect fill="#1B1B1A" height="8.3333" style="stroke:#1B1B1A;stroke-width:1.0416666666666667;" width="355.2083" x="701.0417" y="76.7578"/><rect codeLine="30" fill="none" height="111.4563" id="ObjectPopulator" rx="8.3333" ry="8.3333" style="stroke:#5E5E5E;stroke-width:1.0416666666666667;" width="355.2083" x="701.0417" y="53.7028"/><ellipse cx="819.2708" cy="69.397" fill="#0066CF" rx="10.4167" ry="10.4167" style="stroke:#0086EF;stroke-width:1.0416666666666667;"/><path d="M821.1812,73.822 Q820.754,74.0417 820.284,74.1516 Q819.814,74.2615 819.2952,74.2615 Q817.452,74.2615 816.4815,73.0469 Q815.5111,71.8323 815.5111,69.5374 Q815.5111,67.2363 816.4815,66.0217 Q817.452,64.8071 819.2952,64.8071 Q819.814,64.8071 820.2901,64.917 Q820.7662,65.0269 821.1812,65.2466 L821.1812,67.2485 Q820.7174,66.8213 820.281,66.6229 Q819.8446,66.4246 819.3807,66.4246 Q818.3919,66.4246 817.8884,67.2089 Q817.3848,67.9932 817.3848,69.5374 Q817.3848,71.0754 817.8884,71.8597 Q818.3919,72.644 819.3807,72.644 Q819.8446,72.644 820.281,72.4457 Q820.7174,72.2473 821.1812,71.8201 Z " fill="#000000"/><text fill="#D8BC00" font-family="Open Sans,Avenir,Nunito,Arial,Helvetica,SansSerif" font-size="12.5" font-weight="bold" lengthAdjust="spacing" textLength="104.1667" x="842.1875" y="74.1211">ObjectPopulator</text><line style="stroke:#5E5E5E;stroke-width:1.5625;" x1="702.0833" x2="1055.2083" y1="85.0911" y2="85.0911"/><ellipse cx="712.5" cy="120.461" fill="#84BE84" rx="3.125" ry="3.125" style="stroke:#038048;stroke-width:1.0416666666666667;"/><text fill="#D8BC00" font-family="Open Sans,Avenir,Nunito,Arial,Helvetica,SansSerif" font-size="11.4583" lengthAdjust="spacing" textLength="322.9167" x="723.9583" y="127.3722">ObjectPopulator(PropertyFilter, Source&lt;PropertyValues&gt;)</text><line style="stroke:#5E5E5E;stroke-width:1.0416666666666667;" x1="702.0833" x2="834.8958" y1="103.2969" y2="103.2969"/><text fill="#D8BC00" font-family="Open Sans,Avenir,Nunito,Arial,Helvetica,SansSerif" font-size="11.4583" lengthAdjust="spacing" textLength="81.25" x="838.0208" y="107.1065">(constructors)</text><line style="stroke:#5E5E5E;stroke-width:1.0416666666666667;" x1="922.3958" x2="1055.2083" y1="103.2969" y2="103.2969"/><line style="stroke:#5E5E5E;stroke-width:1.0416666666666667;" x1="702.0833" x2="1055.2083" y1="137.0809" y2="137.0809"/><ellipse cx="712.5" cy="148.5392" fill="#84BE84" rx="3.125" ry="3.125" style="stroke:#038048;stroke-width:1.0416666666666667;"/><text fill="#D8BC00" font-family="Open Sans,Avenir,Nunito,Arial,Helvetica,SansSerif" font-size="11.4583" lengthAdjust="spacing" textLength="112.5" x="723.9583" y="155.4504">T populate(T object)</text><rect codeLine="39" fill="#282828" height="83.3781" id="PatternConverter" rx="8.3333" ry="8.3333" style="stroke:#5E5E5E;stroke-width:1.0416666666666667;" width="181.25" x="707.8125" y="227.6611"/><rect fill="#1B1B1A" height="31.3883" rx="8.3333" ry="8.3333" style="stroke:#1B1B1A;stroke-width:1.0416666666666667;" width="181.25" x="707.8125" y="227.6611"/><rect fill="#1B1B1A" height="8.3333" style="stroke:#1B1B1A;stroke-width:1.0416666666666667;" width="181.25" x="707.8125" y="250.7161"/><rect codeLine="39" fill="none" height="83.3781" id="PatternConverter" rx="8.3333" ry="8.3333" style="stroke:#5E5E5E;stroke-width:1.0416666666666667;" width="181.25" x="707.8125" y="227.6611"/><ellipse cx="737.8646" cy="243.3553" fill="#0066CF" rx="10.4167" ry="10.4167" style="stroke:#0086EF;stroke-width:1.0416666666666667;"/><path d="M739.775,247.7804 Q739.3477,248.0001 738.8778,248.1099 Q738.4078,248.2198 737.889,248.2198 Q736.0457,248.2198 735.0753,247.0052 Q734.1048,245.7906 734.1048,243.4957 Q734.1048,241.1947 735.0753,239.9801 Q736.0457,238.7655 737.889,238.7655 Q738.4078,238.7655 738.8839,238.8753 Q739.3599,238.9852 739.775,239.2049 L739.775,241.2069 Q739.3111,240.7796 738.8747,240.5813 Q738.4383,240.3829 737.9744,240.3829 Q736.9857,240.3829 736.4821,241.1672 Q735.9786,241.9515 735.9786,243.4957 Q735.9786,245.0338 736.4821,245.8181 Q736.9857,246.6024 737.9744,246.6024 Q738.4383,246.6024 738.8747,246.404 Q739.3111,246.2056 739.775,245.7784 Z " fill="#000000"/><text fill="#D8BC00" font-family="Open Sans,Avenir,Nunito,Arial,Helvetica,SansSerif" font-size="12.5" font-weight="bold" lengthAdjust="spacing" textLength="109.375" x="757.9688" y="248.0794">PatternConverter</text><line style="stroke:#5E5E5E;stroke-width:1.5625;" x1="708.8542" x2="888.0208" y1="259.0495" y2="259.0495"/><ellipse cx="719.2708" cy="294.4194" fill="#84BE84" rx="3.125" ry="3.125" style="stroke:#038048;stroke-width:1.0416666666666667;"/><text fill="#D8BC00" font-family="Open Sans,Avenir,Nunito,Arial,Helvetica,SansSerif" font-size="11.4583" lengthAdjust="spacing" textLength="148.9583" x="730.7292" y="301.3306">PatternConverter(Listener)</text><line style="stroke:#5E5E5E;stroke-width:1.0416666666666667;" x1="708.8542" x2="754.6875" y1="277.2552" y2="277.2552"/><text fill="#D8BC00" font-family="Open Sans,Avenir,Nunito,Arial,Helvetica,SansSerif" font-size="11.4583" lengthAdjust="spacing" textLength="81.25" x="757.8125" y="281.0649">(constructors)</text><line style="stroke:#5E5E5E;stroke-width:1.0416666666666667;" x1="842.1875" x2="888.0208" y1="277.2552" y2="277.2552"/><rect codeLine="46" fill="#282828" height="83.3781" id="ThrowableConverter" rx="8.3333" ry="8.3333" style="stroke:#5E5E5E;stroke-width:1.0416666666666667;" width="200" x="925.5208" y="227.6611"/><rect fill="#1B1B1A" height="31.3883" rx="8.3333" ry="8.3333" style="stroke:#1B1B1A;stroke-width:1.0416666666666667;" width="200" x="925.5208" y="227.6611"/><rect fill="#1B1B1A" height="8.3333" style="stroke:#1B1B1A;stroke-width:1.0416666666666667;" width="200" x="925.5208" y="250.7161"/><rect codeLine="46" fill="none" height="83.3781" id="ThrowableConverter" rx="8.3333" ry="8.3333" style="stroke:#5E5E5E;stroke-width:1.0416666666666667;" width="200" x="925.5208" y="227.6611"/><ellipse cx="954.1667" cy="243.3553" fill="#0066CF" rx="10.4167" ry="10.4167" style="stroke:#0086EF;stroke-width:1.0416666666666667;"/><path d="M956.0771,247.7804 Q955.6498,248.0001 955.1799,248.1099 Q954.7099,248.2198 954.1911,248.2198 Q952.3478,248.2198 951.3774,247.0052 Q950.4069,245.7906 950.4069,243.4957 Q950.4069,241.1947 951.3774,239.9801 Q952.3478,238.7655 954.1911,238.7655 Q954.7099,238.7655 955.186,238.8753 Q955.662,238.9852 956.0771,239.2049 L956.0771,241.2069 Q955.6132,240.7796 955.1768,240.5813 Q954.7404,240.3829 954.2765,240.3829 Q953.2878,240.3829 952.7842,241.1672 Q952.2807,241.9515 952.2807,243.4957 Q952.2807,245.0338 952.7842,245.8181 Q953.2878,246.6024 954.2765,246.6024 Q954.7404,246.6024 955.1768,246.404 Q955.6132,246.2056 956.0771,245.7784 Z " fill="#000000"/><text fill="#D8BC00" font-family="Open Sans,Avenir,Nunito,Arial,Helvetica,SansSerif" font-size="12.5" font-weight="bold" lengthAdjust="spacing" textLength="131.25" x="973.9583" y="248.0794">ThrowableConverter</text><line style="stroke:#5E5E5E;stroke-width:1.5625;" x1="926.5625" x2="1124.4792" y1="259.0495" y2="259.0495"/><ellipse cx="936.9792" cy="294.4194" fill="#84BE84" rx="3.125" ry="3.125" style="stroke:#038048;stroke-width:1.0416666666666667;"/><text fill="#D8BC00" font-family="Open Sans,Avenir,Nunito,Arial,Helvetica,SansSerif" font-size="11.4583" lengthAdjust="spacing" textLength="167.7083" x="948.4375" y="301.3306">ThrowableConverter(Listener)</text><line style="stroke:#5E5E5E;stroke-width:1.0416666666666667;" x1="926.5625" x2="981.7708" y1="277.2552" y2="277.2552"/><text fill="#D8BC00" font-family="Open Sans,Avenir,Nunito,Arial,Helvetica,SansSerif" font-size="11.4583" lengthAdjust="spacing" textLength="81.25" x="984.8958" y="281.0649">(constructors)</text><line style="stroke:#5E5E5E;stroke-width:1.0416666666666667;" x1="1069.2708" x2="1124.4792" y1="277.2552" y2="277.2552"/><path codeLine="9" d="M478.1146,139.3695 C400.6875,161.9424 291.6875,194.8695 197.3958,227.6611 C191.5313,229.7028 185.5,231.8695 179.4479,234.0882 " fill="none" id="BaseStringConverter-backto-ClassConverter" style="stroke:#545454;stroke-width:1.5625;"/><polygon fill="none" points="476.5313,132.234,498.5729,133.432,480.5938,146.2445,476.5313,132.234" style="stroke:#545454;stroke-width:1.5625;"/><path codeLine="16" d="M525.9688,144.9632 C488.0729,169.2861 437.1667,201.9632 397.2813,227.5674 " fill="none" id="BaseStringConverter-backto-EnumConverter" style="stroke:#545454;stroke-width:1.5625;"/><polygon fill="none" points="522.4688,138.5361,543.9375,133.4215,530.3438,150.807,522.4688,138.5361" style="stroke:#545454;stroke-width:1.5625;"/><path codeLine="23" d="M579.6875,154.307 C579.6875,177.234 579.6875,205.1195 579.6875,227.5674 " fill="none" id="BaseStringConverter-backto-IdentityConverter" style="stroke:#545454;stroke-width:1.5625;"/><polygon fill="none" points="572.3958,154.2549,579.6875,133.4215,586.9792,154.2549,572.3958,154.2549" style="stroke:#545454;stroke-width:1.5625;"/><path codeLine="38" d="M628.4167,145.6299 C662.0313,169.8799 706.8229,202.1924 742,227.5674 " fill="none" id="BaseStringConverter-backto-PatternConverter" style="stroke:#545454;stroke-width:1.5625;"/><polygon fill="none" points="624.125,151.5257,611.5,133.4215,632.6563,139.6924,624.125,151.5257" style="stroke:#545454;stroke-width:1.5625;"/><path codeLine="45" d="M636.8021,143.5778 C651.5,151.307 667.5,159.057 682.8125,165.1611 C779.2188,203.5882 808.7083,196.8278 907.8125,227.6611 C913.5938,229.4632 919.5208,231.3486 925.4792,233.2965 " fill="none" id="BaseStringConverter-backto-ThrowableConverter" style="stroke:#545454;stroke-width:1.5625;"/><polygon fill="none" points="633.2188,149.932,618.3958,133.5674,640.1875,137.1195,633.2188,149.932" style="stroke:#545454;stroke-width:1.5625;"/></g></svg>
