<?xml version="1.0" encoding="UTF-8" standalone="no"?><svg xmlns="http://www.w3.org/2000/svg" xmlns:xlink="http://www.w3.org/1999/xlink" contentScriptType="application/ecmascript" contentStyleType="text/css" height="773.9583px" preserveAspectRatio="none" style="width:670px;height:773px;background:#333333;" version="1.1" viewBox="0 0 670 773" width="670.8333px" zoomAndPan="magnify"><defs/><g><rect fill="#48494B" height="41.2028" rx="8.3333" ry="8.3333" style="stroke:#545454;stroke-width:1.0416666666666667;" width="513.5417" x="71.3542" y="2.0833"/><text fill="#C0C0C0" font-family="Open Sans,Avenir,Nunito,Arial,Helvetica,SansSerif" font-size="20.8333" lengthAdjust="spacing" textLength="490.625" x="82.8125" y="30.5583">com.telenav.kivakit.core.messaging.broadcasters</text><!--MD5=[44642bf1951becf690e71f855555764a]
class Broadcaster--><rect codeLine="7" fill="#282828" height="48.055" id="Broadcaster" rx="8.3333" ry="8.3333" style="stroke:#5E5E5E;stroke-width:1.0416666666666667;" width="113.5417" x="69.2708" y="53.7028"/><rect fill="#1B1B1A" height="31.3883" rx="8.3333" ry="8.3333" style="stroke:#1B1B1A;stroke-width:1.0416666666666667;" width="113.5417" x="69.2708" y="53.7028"/><rect fill="#1B1B1A" height="8.3333" style="stroke:#1B1B1A;stroke-width:1.0416666666666667;" width="113.5417" x="69.2708" y="76.7578"/><rect codeLine="7" fill="none" height="48.055" id="Broadcaster" rx="8.3333" ry="8.3333" style="stroke:#5E5E5E;stroke-width:1.0416666666666667;" width="113.5417" x="69.2708" y="53.7028"/><ellipse cx="83.8542" cy="69.397" fill="#008400" rx="10.4167" ry="10.4167" style="stroke:#239C23;stroke-width:1.0416666666666667;"/><path d="M81.2581,66.5588 L81.2581,64.9719 L86.6842,64.9719 L86.6842,66.5588 L84.8714,66.5588 L84.8714,72.4976 L86.6842,72.4976 L86.6842,74.0845 L81.2581,74.0845 L81.2581,72.4976 L83.0709,72.4976 L83.0709,66.5588 Z " fill="#000000"/><text fill="#D8BC00" font-family="Open Sans,Avenir,Nunito,Arial,Helvetica,SansSerif" font-size="12.5" font-style="italic" font-weight="bold" lengthAdjust="spacing" textLength="76.0417" x="100.5208" y="74.1211">Broadcaster</text><line style="stroke:#5E5E5E;stroke-width:1.0416666666666667;" x1="70.3125" x2="181.7708" y1="85.0911" y2="85.0911"/><line style="stroke:#5E5E5E;stroke-width:1.0416666666666667;" x1="70.3125" x2="181.7708" y1="93.4245" y2="93.4245"/><!--MD5=[a55b2a1f62e9d2a601cfebbabb1e84b9]
class AudienceMember--><rect codeLine="11" fill="#282828" height="103.123" id="AudienceMember" rx="8.3333" ry="8.3333" style="stroke:#5E5E5E;stroke-width:1.0416666666666667;" width="236.4583" x="7.2917" y="533.9111"/><rect fill="#1B1B1A" height="31.3883" rx="8.3333" ry="8.3333" style="stroke:#1B1B1A;stroke-width:1.0416666666666667;" width="236.4583" x="7.2917" y="533.9111"/><rect fill="#1B1B1A" height="8.3333" style="stroke:#1B1B1A;stroke-width:1.0416666666666667;" width="236.4583" x="7.2917" y="556.9661"/><rect codeLine="11" fill="none" height="103.123" id="AudienceMember" rx="8.3333" ry="8.3333" style="stroke:#5E5E5E;stroke-width:1.0416666666666667;" width="236.4583" x="7.2917" y="533.9111"/><ellipse cx="62.5" cy="549.6053" fill="#0066CF" rx="10.4167" ry="10.4167" style="stroke:#0086EF;stroke-width:1.0416666666666667;"/><path d="M64.4104,554.0304 Q63.9832,554.2501 63.5132,554.3599 Q63.0432,554.4698 62.5244,554.4698 Q60.6812,554.4698 59.7107,553.2552 Q58.7402,552.0406 58.7402,549.7457 Q58.7402,547.4447 59.7107,546.2301 Q60.6812,545.0155 62.5244,545.0155 Q63.0432,545.0155 63.5193,545.1253 Q63.9954,545.2352 64.4104,545.4549 L64.4104,547.4569 Q63.9465,547.0296 63.5101,546.8313 Q63.0737,546.6329 62.6099,546.6329 Q61.6211,546.6329 61.1176,547.4172 Q60.614,548.2015 60.614,549.7457 Q60.614,551.2838 61.1176,552.0681 Q61.6211,552.8524 62.6099,552.8524 Q63.0737,552.8524 63.5101,552.654 Q63.9465,552.4556 64.4104,552.0284 Z " fill="#000000"/><text fill="#D8BC00" font-family="Open Sans,Avenir,Nunito,Arial,Helvetica,SansSerif" font-size="12.5" font-weight="bold" lengthAdjust="spacing" textLength="111.4583" x="85.4167" y="554.3294">AudienceMember</text><line style="stroke:#5E5E5E;stroke-width:1.5625;" x1="8.3333" x2="242.7083" y1="565.2995" y2="565.2995"/><ellipse cx="18.75" cy="600.6694" fill="#84BE84" rx="3.125" ry="3.125" style="stroke:#038048;stroke-width:1.0416666666666667;"/><text fill="#D8BC00" font-family="Open Sans,Avenir,Nunito,Arial,Helvetica,SansSerif" font-size="11.4583" lengthAdjust="spacing" textLength="97.9167" x="30.2083" y="607.5806">Listener listener()</text><ellipse cx="18.75" cy="620.4142" fill="#84BE84" rx="3.125" ry="3.125" style="stroke:#038048;stroke-width:1.0416666666666667;"/><text fill="#D8BC00" font-family="Open Sans,Avenir,Nunito,Arial,Helvetica,SansSerif" font-size="11.4583" lengthAdjust="spacing" textLength="204.1667" x="30.2083" y="627.3254">void receive(Transmittable message)</text><line style="stroke:#5E5E5E;stroke-width:1.0416666666666667;" x1="8.3333" x2="88.0208" y1="583.5052" y2="583.5052"/><text fill="#D8BC00" font-family="Open Sans,Avenir,Nunito,Arial,Helvetica,SansSerif" font-size="11.4583" lengthAdjust="spacing" textLength="68.75" x="91.1458" y="587.3149">(messaging)</text><line style="stroke:#5E5E5E;stroke-width:1.0416666666666667;" x1="163.0208" x2="242.7083" y1="583.5052" y2="583.5052"/><!--MD5=[085076096658226fe7d3ac7a26d9b629]
class Listener--><rect fill="#282828" height="48.055" id="Listener" rx="8.3333" ry="8.3333" style="stroke:#5E5E5E;stroke-width:1.0416666666666667;" width="89.5833" x="22.9167" y="719.3278"/><rect fill="#1B1B1A" height="31.3883" rx="8.3333" ry="8.3333" style="stroke:#1B1B1A;stroke-width:1.0416666666666667;" width="89.5833" x="22.9167" y="719.3278"/><rect fill="#1B1B1A" height="8.3333" style="stroke:#1B1B1A;stroke-width:1.0416666666666667;" width="89.5833" x="22.9167" y="742.3828"/><rect fill="none" height="48.055" id="Listener" rx="8.3333" ry="8.3333" style="stroke:#5E5E5E;stroke-width:1.0416666666666667;" width="89.5833" x="22.9167" y="719.3278"/><ellipse cx="37.5" cy="735.022" fill="#0066CF" rx="10.4167" ry="10.4167" style="stroke:#0086EF;stroke-width:1.0416666666666667;"/><path d="M39.4104,739.447 Q38.9832,739.6667 38.5132,739.7766 Q38.0432,739.8865 37.5244,739.8865 Q35.6812,739.8865 34.7107,738.6719 Q33.7402,737.4573 33.7402,735.1624 Q33.7402,732.8613 34.7107,731.6467 Q35.6812,730.4321 37.5244,730.4321 Q38.0432,730.4321 38.5193,730.542 Q38.9954,730.6519 39.4104,730.8716 L39.4104,732.8735 Q38.9465,732.4463 38.5101,732.2479 Q38.0737,732.0496 37.6099,732.0496 Q36.6211,732.0496 36.1176,732.8339 Q35.614,733.6182 35.614,735.1624 Q35.614,736.7004 36.1176,737.4847 Q36.6211,738.269 37.6099,738.269 Q38.0737,738.269 38.5101,738.0707 Q38.9465,737.8723 39.4104,737.4451 Z " fill="#000000"/><text fill="#D8BC00" font-family="Open Sans,Avenir,Nunito,Arial,Helvetica,SansSerif" font-size="12.5" font-weight="bold" lengthAdjust="spacing" textLength="52.0833" x="54.1667" y="739.7461">Listener</text><line style="stroke:#5E5E5E;stroke-width:1.0416666666666667;" x1="23.9583" x2="111.4583" y1="750.7161" y2="750.7161"/><line style="stroke:#5E5E5E;stroke-width:1.0416666666666667;" x1="23.9583" x2="111.4583" y1="759.0495" y2="759.0495"/><!--MD5=[bddb511951cf0a1d6a79f67b0c2ed87d]
class Filter--><rect fill="#282828" height="48.055" id="Filter" rx="8.3333" ry="8.3333" style="stroke:#5E5E5E;stroke-width:1.0416666666666667;" width="70.8333" x="148.9583" y="719.3278"/><rect fill="#1B1B1A" height="31.3883" rx="8.3333" ry="8.3333" style="stroke:#1B1B1A;stroke-width:1.0416666666666667;" width="70.8333" x="148.9583" y="719.3278"/><rect fill="#1B1B1A" height="8.3333" style="stroke:#1B1B1A;stroke-width:1.0416666666666667;" width="70.8333" x="148.9583" y="742.3828"/><rect fill="none" height="48.055" id="Filter" rx="8.3333" ry="8.3333" style="stroke:#5E5E5E;stroke-width:1.0416666666666667;" width="70.8333" x="148.9583" y="719.3278"/><ellipse cx="163.5417" cy="735.022" fill="#0066CF" rx="10.4167" ry="10.4167" style="stroke:#0086EF;stroke-width:1.0416666666666667;"/><path d="M165.4521,739.447 Q165.0248,739.6667 164.5549,739.7766 Q164.0849,739.8865 163.5661,739.8865 Q161.7228,739.8865 160.7524,738.6719 Q159.7819,737.4573 159.7819,735.1624 Q159.7819,732.8613 160.7524,731.6467 Q161.7228,730.4321 163.5661,730.4321 Q164.0849,730.4321 164.561,730.542 Q165.037,730.6519 165.4521,730.8716 L165.4521,732.8735 Q164.9882,732.4463 164.5518,732.2479 Q164.1154,732.0496 163.6515,732.0496 Q162.6628,732.0496 162.1592,732.8339 Q161.6557,733.6182 161.6557,735.1624 Q161.6557,736.7004 162.1592,737.4847 Q162.6628,738.269 163.6515,738.269 Q164.1154,738.269 164.5518,738.0707 Q164.9882,737.8723 165.4521,737.4451 Z " fill="#000000"/><text fill="#D8BC00" font-family="Open Sans,Avenir,Nunito,Arial,Helvetica,SansSerif" font-size="12.5" font-weight="bold" lengthAdjust="spacing" textLength="33.3333" x="180.2083" y="739.7461">Filter</text><line style="stroke:#5E5E5E;stroke-width:1.0416666666666667;" x1="150" x2="218.75" y1="750.7161" y2="750.7161"/><line style="stroke:#5E5E5E;stroke-width:1.0416666666666667;" x1="150" x2="218.75" y1="759.0495" y2="759.0495"/><!--MD5=[5ec8c00c13391aeaac8c08bdf7a77295]
class Repeater--><rect codeLine="18" fill="#282828" height="48.055" id="Repeater" rx="8.3333" ry="8.3333" style="stroke:#5E5E5E;stroke-width:1.0416666666666667;" width="93.75" x="306.25" y="53.7028"/><rect fill="#1B1B1A" height="31.3883" rx="8.3333" ry="8.3333" style="stroke:#1B1B1A;stroke-width:1.0416666666666667;" width="93.75" x="306.25" y="53.7028"/><rect fill="#1B1B1A" height="8.3333" style="stroke:#1B1B1A;stroke-width:1.0416666666666667;" width="93.75" x="306.25" y="76.7578"/><rect codeLine="18" fill="none" height="48.055" id="Repeater" rx="8.3333" ry="8.3333" style="stroke:#5E5E5E;stroke-width:1.0416666666666667;" width="93.75" x="306.25" y="53.7028"/><ellipse cx="320.8333" cy="69.397" fill="#008400" rx="10.4167" ry="10.4167" style="stroke:#239C23;stroke-width:1.0416666666666667;"/><path d="M318.2373,66.5588 L318.2373,64.9719 L323.6633,64.9719 L323.6633,66.5588 L321.8506,66.5588 L321.8506,72.4976 L323.6633,72.4976 L323.6633,74.0845 L318.2373,74.0845 L318.2373,72.4976 L320.05,72.4976 L320.05,66.5588 Z " fill="#000000"/><text fill="#D8BC00" font-family="Open Sans,Avenir,Nunito,Arial,Helvetica,SansSerif" font-size="12.5" font-style="italic" font-weight="bold" lengthAdjust="spacing" textLength="56.25" x="337.5" y="74.1211">Repeater</text><line style="stroke:#5E5E5E;stroke-width:1.0416666666666667;" x1="307.2917" x2="398.9583" y1="85.0911" y2="85.0911"/><line style="stroke:#5E5E5E;stroke-width:1.0416666666666667;" x1="307.2917" x2="398.9583" y1="93.4245" y2="93.4245"/><!--MD5=[f337a389c522181825ddf99de7b526da]
class GlobalRepeater--><rect codeLine="20" fill="#282828" height="48.055" id="GlobalRepeater" rx="8.3333" ry="8.3333" style="stroke:#5E5E5E;stroke-width:1.0416666666666667;" width="135.4167" x="285.4167" y="283.3903"/><rect fill="#1B1B1A" height="31.3883" rx="8.3333" ry="8.3333" style="stroke:#1B1B1A;stroke-width:1.0416666666666667;" width="135.4167" x="285.4167" y="283.3903"/><rect fill="#1B1B1A" height="8.3333" style="stroke:#1B1B1A;stroke-width:1.0416666666666667;" width="135.4167" x="285.4167" y="306.4453"/><rect codeLine="20" fill="none" height="48.055" id="GlobalRepeater" rx="8.3333" ry="8.3333" style="stroke:#5E5E5E;stroke-width:1.0416666666666667;" width="135.4167" x="285.4167" y="283.3903"/><ellipse cx="300" cy="299.0845" fill="#008400" rx="10.4167" ry="10.4167" style="stroke:#239C23;stroke-width:1.0416666666666667;"/><path d="M297.404,296.2463 L297.404,294.6594 L302.83,294.6594 L302.83,296.2463 L301.0173,296.2463 L301.0173,302.1851 L302.83,302.1851 L302.83,303.772 L297.404,303.772 L297.404,302.1851 L299.2167,302.1851 L299.2167,296.2463 Z " fill="#000000"/><text fill="#D8BC00" font-family="Open Sans,Avenir,Nunito,Arial,Helvetica,SansSerif" font-size="12.5" font-style="italic" font-weight="bold" lengthAdjust="spacing" textLength="97.9167" x="316.6667" y="303.8086">GlobalRepeater</text><line style="stroke:#5E5E5E;stroke-width:1.0416666666666667;" x1="286.4583" x2="419.7917" y1="314.7786" y2="314.7786"/><line style="stroke:#5E5E5E;stroke-width:1.0416666666666667;" x1="286.4583" x2="419.7917" y1="323.112" y2="323.112"/><!--MD5=[873ba24e1a4ad5eb78e001e5b8541c33]
class Multicaster--><rect codeLine="26" fill="#282828" height="245.5037" id="Multicaster" rx="8.3333" ry="8.3333" style="stroke:#5E5E5E;stroke-width:1.0416666666666667;" width="195.8333" x="28.125" y="185.4736"/><rect fill="#1B1B1A" height="31.3883" rx="8.3333" ry="8.3333" style="stroke:#1B1B1A;stroke-width:1.0416666666666667;" width="195.8333" x="28.125" y="185.4736"/><rect fill="#1B1B1A" height="8.3333" style="stroke:#1B1B1A;stroke-width:1.0416666666666667;" width="195.8333" x="28.125" y="208.5286"/><rect codeLine="26" fill="none" height="245.5037" id="Multicaster" rx="8.3333" ry="8.3333" style="stroke:#5E5E5E;stroke-width:1.0416666666666667;" width="195.8333" x="28.125" y="185.4736"/><ellipse cx="82.8125" cy="201.1678" fill="#0066CF" rx="10.4167" ry="10.4167" style="stroke:#0086EF;stroke-width:1.0416666666666667;"/><path d="M84.7229,205.5929 Q84.2957,205.8126 83.8257,205.9224 Q83.3557,206.0323 82.8369,206.0323 Q80.9937,206.0323 80.0232,204.8177 Q79.0527,203.6031 79.0527,201.3082 Q79.0527,199.0072 80.0232,197.7926 Q80.9937,196.578 82.8369,196.578 Q83.3557,196.578 83.8318,196.6878 Q84.3079,196.7977 84.7229,197.0174 L84.7229,199.0194 Q84.259,198.5921 83.8226,198.3938 Q83.3862,198.1954 82.9224,198.1954 Q81.9336,198.1954 81.4301,198.9797 Q80.9265,199.764 80.9265,201.3082 Q80.9265,202.8463 81.4301,203.6306 Q81.9336,204.4149 82.9224,204.4149 Q83.3862,204.4149 83.8226,204.2165 Q84.259,204.0181 84.7229,203.5909 Z " fill="#000000"/><text fill="#D8BC00" font-family="Open Sans,Avenir,Nunito,Arial,Helvetica,SansSerif" font-size="12.5" font-weight="bold" lengthAdjust="spacing" textLength="71.875" x="105.7292" y="205.8919">Multicaster</text><line style="stroke:#5E5E5E;stroke-width:1.5625;" x1="29.1667" x2="222.9167" y1="216.862" y2="216.862"/><polygon fill="#FFFF44" points="39.5833,247.0235,43.75,251.1902,39.5833,255.3569,35.4167,251.1902" style="stroke:#B38D22;stroke-width:1.0416666666666667;"/><text fill="#D8BC00" font-family="Open Sans,Avenir,Nunito,Arial,Helvetica,SansSerif" font-size="11.4583" lengthAdjust="spacing" textLength="69.7917" x="51.0417" y="259.1431">Multicaster()</text><polygon fill="#FFFF44" points="39.5833,266.7684,43.75,270.9351,39.5833,275.1017,35.4167,270.9351" style="stroke:#B38D22;stroke-width:1.0416666666666667;"/><text fill="#D8BC00" font-family="Open Sans,Avenir,Nunito,Arial,Helvetica,SansSerif" font-size="11.4583" lengthAdjust="spacing" textLength="131.25" x="51.0417" y="278.8879">Multicaster(Multicaster)</text><polygon fill="#FFFF44" points="39.5833,286.5133,43.75,290.6799,39.5833,294.8466,35.4167,290.6799" style="stroke:#B38D22;stroke-width:1.0416666666666667;"/><text fill="#D8BC00" font-family="Open Sans,Avenir,Nunito,Arial,Helvetica,SansSerif" font-size="11.4583" lengthAdjust="spacing" textLength="103.125" x="51.0417" y="298.6328">Multicaster(String)</text><ellipse cx="39.5833" cy="311.4665" fill="#84BE84" rx="3.125" ry="3.125" style="stroke:#038048;stroke-width:1.0416666666666667;"/><text fill="#D8BC00" font-family="Open Sans,Avenir,Nunito,Arial,Helvetica,SansSerif" font-size="11.4583" lengthAdjust="spacing" textLength="123.9583" x="51.0417" y="318.3777">Multicaster(Class&lt;?&gt;)</text><ellipse cx="39.5833" cy="331.2113" fill="#84BE84" rx="3.125" ry="3.125" style="stroke:#038048;stroke-width:1.0416666666666667;"/><text fill="#D8BC00" font-family="Open Sans,Avenir,Nunito,Arial,Helvetica,SansSerif" font-size="11.4583" lengthAdjust="spacing" textLength="163.5417" x="51.0417" y="338.1226">Multicaster(String, Class&lt;?&gt;)</text><line style="stroke:#5E5E5E;stroke-width:1.0416666666666667;" x1="29.1667" x2="82.2917" y1="235.0677" y2="235.0677"/><text fill="#D8BC00" font-family="Open Sans,Avenir,Nunito,Arial,Helvetica,SansSerif" font-size="11.4583" lengthAdjust="spacing" textLength="81.25" x="85.4167" y="238.8774">(constructors)</text><line style="stroke:#5E5E5E;stroke-width:1.0416666666666667;" x1="169.7917" x2="222.9167" y1="235.0677" y2="235.0677"/><ellipse cx="39.5833" cy="374.8678" fill="#84BE84" rx="3.125" ry="3.125" style="stroke:#038048;stroke-width:1.0416666666666667;"/><text fill="#D8BC00" font-family="Open Sans,Avenir,Nunito,Arial,Helvetica,SansSerif" font-size="11.4583" lengthAdjust="spacing" textLength="90.625" x="51.0417" y="381.779">boolean isDeaf()</text><ellipse cx="39.5833" cy="394.6126" fill="#84BE84" rx="3.125" ry="3.125" style="stroke:#038048;stroke-width:1.0416666666666667;"/><text fill="#D8BC00" font-family="Open Sans,Avenir,Nunito,Arial,Helvetica,SansSerif" font-size="11.4583" lengthAdjust="spacing" textLength="138.5417" x="51.0417" y="401.5238">StringList listenerChain()</text><ellipse cx="39.5833" cy="414.3575" fill="#84BE84" rx="3.125" ry="3.125" style="stroke:#038048;stroke-width:1.0416666666666667;"/><text fill="#D8BC00" font-family="Open Sans,Avenir,Nunito,Arial,Helvetica,SansSerif" font-size="11.4583" lengthAdjust="spacing" textLength="111.4583" x="51.0417" y="421.2687">String listenerTree()</text><line style="stroke:#5E5E5E;stroke-width:1.0416666666666667;" x1="29.1667" x2="88.5417" y1="357.7037" y2="357.7037"/><text fill="#D8BC00" font-family="Open Sans,Avenir,Nunito,Arial,Helvetica,SansSerif" font-size="11.4583" lengthAdjust="spacing" textLength="68.75" x="91.6667" y="361.5133">(messaging)</text><line style="stroke:#5E5E5E;stroke-width:1.0416666666666667;" x1="163.5417" x2="222.9167" y1="357.7037" y2="357.7037"/><!--MD5=[b8cfd8c4119a3b0a7a46bfc5fc780f85]
class Error--><rect fill="#282828" height="48.055" id="Error" rx="8.3333" ry="8.3333" style="stroke:#5E5E5E;stroke-width:1.0416666666666667;" width="68.75" x="526.0417" y="53.7028"/><rect fill="#1B1B1A" height="31.3883" rx="8.3333" ry="8.3333" style="stroke:#1B1B1A;stroke-width:1.0416666666666667;" width="68.75" x="526.0417" y="53.7028"/><rect fill="#1B1B1A" height="8.3333" style="stroke:#1B1B1A;stroke-width:1.0416666666666667;" width="68.75" x="526.0417" y="76.7578"/><rect fill="none" height="48.055" id="Error" rx="8.3333" ry="8.3333" style="stroke:#5E5E5E;stroke-width:1.0416666666666667;" width="68.75" x="526.0417" y="53.7028"/><ellipse cx="540.625" cy="69.397" fill="#0066CF" rx="10.4167" ry="10.4167" style="stroke:#0086EF;stroke-width:1.0416666666666667;"/><path d="M542.5354,73.822 Q542.1082,74.0417 541.6382,74.1516 Q541.1682,74.2615 540.6494,74.2615 Q538.8062,74.2615 537.8357,73.0469 Q536.8652,71.8323 536.8652,69.5374 Q536.8652,67.2363 537.8357,66.0217 Q538.8062,64.8071 540.6494,64.8071 Q541.1682,64.8071 541.6443,64.917 Q542.1204,65.0269 542.5354,65.2466 L542.5354,67.2485 Q542.0715,66.8213 541.6351,66.6229 Q541.1987,66.4246 540.7349,66.4246 Q539.7461,66.4246 539.2426,67.2089 Q538.739,67.9932 538.739,69.5374 Q538.739,71.0754 539.2426,71.8597 Q539.7461,72.644 540.7349,72.644 Q541.1987,72.644 541.6351,72.4457 Q542.0715,72.2473 542.5354,71.8201 Z " fill="#000000"/><text fill="#D8BC00" font-family="Open Sans,Avenir,Nunito,Arial,Helvetica,SansSerif" font-size="12.5" font-weight="bold" lengthAdjust="spacing" textLength="31.25" x="557.2917" y="74.1211">Error</text><line style="stroke:#5E5E5E;stroke-width:1.0416666666666667;" x1="527.0833" x2="593.75" y1="85.0911" y2="85.0911"/><line style="stroke:#5E5E5E;stroke-width:1.0416666666666667;" x1="527.0833" x2="593.75" y1="93.4245" y2="93.4245"/><!--MD5=[fbf0f0f0be8286738698d2090c06f1a8]
class NoListenerError--><rect codeLine="41" fill="#282828" height="83.3781" id="NoListenerError" rx="8.3333" ry="8.3333" style="stroke:#5E5E5E;stroke-width:1.0416666666666667;" width="206.25" x="457.2917" y="265.682"/><rect fill="#1B1B1A" height="31.3883" rx="8.3333" ry="8.3333" style="stroke:#1B1B1A;stroke-width:1.0416666666666667;" width="206.25" x="457.2917" y="265.682"/><rect fill="#1B1B1A" height="8.3333" style="stroke:#1B1B1A;stroke-width:1.0416666666666667;" width="206.25" x="457.2917" y="288.737"/><rect codeLine="41" fill="none" height="83.3781" id="NoListenerError" rx="8.3333" ry="8.3333" style="stroke:#5E5E5E;stroke-width:1.0416666666666667;" width="206.25" x="457.2917" y="265.682"/><ellipse cx="502.6042" cy="281.3761" fill="#0066CF" rx="10.4167" ry="10.4167" style="stroke:#0086EF;stroke-width:1.0416666666666667;"/><path d="M504.5146,285.8012 Q504.0873,286.0209 503.6174,286.1308 Q503.1474,286.2406 502.6286,286.2406 Q500.7853,286.2406 499.8149,285.026 Q498.8444,283.8114 498.8444,281.5165 Q498.8444,279.2155 499.8149,278.0009 Q500.7853,276.7863 502.6286,276.7863 Q503.1474,276.7863 503.6235,276.8962 Q504.0995,277.006 504.5146,277.2257 L504.5146,279.2277 Q504.0507,278.8005 503.6143,278.6021 Q503.1779,278.4037 502.714,278.4037 Q501.7253,278.4037 501.2217,279.188 Q500.7182,279.9723 500.7182,281.5165 Q500.7182,283.0546 501.2217,283.8389 Q501.7253,284.6232 502.714,284.6232 Q503.1779,284.6232 503.6143,284.4248 Q504.0507,284.2265 504.5146,283.7992 Z " fill="#000000"/><text fill="#D8BC00" font-family="Open Sans,Avenir,Nunito,Arial,Helvetica,SansSerif" font-size="12.5" font-weight="bold" lengthAdjust="spacing" textLength="101.0417" x="525.5208" y="286.1003">NoListenerError</text><line style="stroke:#5E5E5E;stroke-width:1.5625;" x1="458.3333" x2="662.5" y1="297.0703" y2="297.0703"/><ellipse cx="468.75" cy="332.4402" fill="#84BE84" rx="3.125" ry="3.125" style="stroke:#038048;stroke-width:1.0416666666666667;"/><text fill="#D8BC00" font-family="Open Sans,Avenir,Nunito,Arial,Helvetica,SansSerif" font-size="11.4583" lengthAdjust="spacing" textLength="173.9583" x="480.2083" y="339.3514">NoListenerError(String, Object)</text><line style="stroke:#5E5E5E;stroke-width:1.0416666666666667;" x1="458.3333" x2="516.6667" y1="315.2761" y2="315.2761"/><text fill="#D8BC00" font-family="Open Sans,Avenir,Nunito,Arial,Helvetica,SansSerif" font-size="11.4583" lengthAdjust="spacing" textLength="81.25" x="519.7917" y="319.0857">(constructors)</text><line style="stroke:#5E5E5E;stroke-width:1.0416666666666667;" x1="604.1667" x2="662.5" y1="315.2761" y2="315.2761"/><!--MD5=[39a181cac5526d92d84037827ac9aa45]
reverse link AudienceMember to Listener--><path codeLine="9" d="M102.1667,649.9528 C93.0417,674.3799 83.2083,700.7236 76.3958,718.984 " fill="none" id="AudienceMember-backto-Listener" style="stroke:#545454;stroke-width:1.5625;"/><polygon fill="#333333" points="106.875,637.3382,100.7859,641.7367,102.504,649.0491,108.5931,644.6506,106.875,637.3382" style="stroke:#545454;stroke-width:1.5625;"/><!--MD5=[4b4c57f4e920e4b761e40f320ffe151d]
reverse link AudienceMember to Filter--><path codeLine="10" d="M149.9167,649.9528 C159.0417,674.3799 168.875,700.7236 175.6875,718.984 " fill="none" id="AudienceMember-backto-Filter" style="stroke:#545454;stroke-width:1.5625;"/><polygon fill="#333333" points="145.2083,637.3382,143.4902,644.6506,149.5793,649.0491,151.2974,641.7367,145.2083,637.3382" style="stroke:#545454;stroke-width:1.5625;"/><!--MD5=[eef1c68172e74584093053bcaa63142e]
reverse link Repeater to GlobalRepeater--><path codeLine="19" d="M353.125,123.8799 C353.125,171.8903 353.125,245.9007 353.125,283.1715 " fill="none" id="Repeater-backto-GlobalRepeater" style="stroke:#545454;stroke-width:1.5625;"/><polygon fill="none" points="345.8333,124.1924,353.125,103.359,360.4167,124.1924,345.8333,124.1924" style="stroke:#545454;stroke-width:1.5625;"/><!--MD5=[34fbd23c56651f111d903632f001ca95]
reverse link Broadcaster to Multicaster--><path codeLine="24" d="M126.0417,124.2028 C126.0417,142.1715 126.0417,163.7653 126.0417,185.7236 " fill="none" id="Broadcaster-backto-Multicaster" style="stroke:#545454;stroke-width:1.5625;"/><polygon fill="none" points="118.75,124.2965,126.0417,103.4632,133.3333,124.2965,118.75,124.2965" style="stroke:#545454;stroke-width:1.5625;"/><!--MD5=[f5dda83dfb732df56896ad1d6cb40bd4]
reverse link Multicaster to AudienceMember--><path codeLine="25" d="M126.0417,445.2653 C126.0417,477.0049 126.0417,508.8486 126.0417,533.9945 " fill="none" id="Multicaster-backto-AudienceMember" style="stroke:#545454;stroke-width:1.5625;"/><polygon fill="#333333" points="126.0417,431.7965,121.875,438.0465,126.0417,444.2965,130.2083,438.0465,126.0417,431.7965" style="stroke:#545454;stroke-width:1.5625;"/><text fill="#A0A0A0" font-family="Open Sans,Avenir,Nunito,Arial,Helvetica,SansSerif" font-size="12.5" font-weight="bold" lengthAdjust="spacing" textLength="8.3333" x="114.0934" y="454.3349">1</text><text fill="#A0A0A0" font-family="Open Sans,Avenir,Nunito,Arial,Helvetica,SansSerif" font-size="12.5" font-weight="bold" lengthAdjust="spacing" textLength="6.25" x="115.861" y="519.6769">*</text><!--MD5=[ccaffa6076cd74893ffb5f5daa97ed33]
reverse link Error to NoListenerError--><path codeLine="40" d="M560.4167,124.1299 C560.4167,165.432 560.4167,225.8174 560.4167,265.5778 " fill="none" id="Error-backto-NoListenerError" style="stroke:#545454;stroke-width:1.5625;"/><polygon fill="none" points="553.125,124.1924,560.4167,103.359,567.7083,124.1924,553.125,124.1924" style="stroke:#545454;stroke-width:1.5625;"/><!--MD5=[1d57c15fee0667da853a40a8cbb06203]
@startuml

    !include lexakai.theme
    
    title "com.telenav.kivakit.core.messaging.broadcasters"
    
    interface Broadcaster
    
    AudienceMember o- - Listener
    AudienceMember o- - Filter
    class AudienceMember
    {
        - -(messaging)- -
        +Listener listener()
        +void receive(Transmittable message)
    }
    
    interface Repeater
    Repeater <|- - GlobalRepeater
    interface GlobalRepeater
    {
    }
    
    Broadcaster <|- - Multicaster
    Multicaster "1" o- - "*" AudienceMember
    class Multicaster
    {
        - -(constructors)- -
        #Multicaster()
        #Multicaster(Multicaster)
        #Multicaster(String)
        +Multicaster(Class<?>)
        +Multicaster(String, Class<?>)
        - -(messaging)- -
        +boolean isDeaf()
        +StringList listenerChain()
        +String listenerTree()
    }
    
    Error <|- - NoListenerError
    class NoListenerError
    {
        - -(constructors)- -
        +NoListenerError(String, Object)
    }
    
@enduml

@startuml









skinparam backgroundColor #333333






skinparam  {
    defaultFontName   "Open Sans,Avenir,Nunito,Arial,Helvetica,SansSerif"
    defaultFontSize   12
    defaultTextAlignment left
    shadowing false
    RoundCorner 10
    TitleFontSize 18
}

skinparam defaultFontName       "Open Sans,Avenir,Nunito,Arial,Helvetica,SansSerif"
skinparam defaultFontSize       12
skinparam dpi                   100
skinparam shadowing             false
skinparam roundcorner           16
skinparam ParticipantPadding    40
skinparam BoxPadding            40
skinparam Padding               3
skinparam ArrowColor            #545454
skinparam stereotype {
    CBackgroundColor #0066cf
    CBorderColor #0086ef
    ABackgroundColor #C8Ac00
    ABorderColor #D8Bc00
    IBackgroundColor #008400
    IBorderColor #239c23
    EBackgroundColor #cf6300
    EBorderColor #ef8300
    NBackgroundColor #3380b9
    NBorderColor #004d86
}
skinparam title {
	FontColor	                 #c0c0c0
 	BorderColor                  #545454
	FontSize	    	         20
	BorderRoundCorner            16
	BorderThickness 	         1
	BackgroundColor              #48494b
}


skinparam legend {
	BackgroundColor #303030
	BorderColor #404040
	FontColor #a0a0a0
}

	skinparam swimlane {
	BorderColor #5e5e5e
	BorderThickness 2
	TitleBackgroundColor  #6d6d6d-#484848
	TitleFontColor #303030
}

skinparam activity {
		FontColor #C8Ac00
	BorderColor #333333
	BackgroundColor #333333-#333333
	BarColor #00FF00
	StartColor #0060a8
	EndColor #0060a8
	DiamondBackgroundColor #6d6d6d-#3a3a3a
  	DiamondBorderColor #3a3a3a
  	DiamondFontColor #fefefe
}


skinparam participant {
		FontColor #C8Ac00
	BorderColor #333333
	BackgroundColor #333333-#333333
	ParticipantBorderThickness 2
}


skinparam actor {
		FontColor #C8Ac00
	BorderColor #333333
	BackgroundColor #333333-#333333
}


skinparam arrow {
	Thickness 1.5
	Color #545454
	FontColor #a0a0a0
    FontStyle bold
    MessageAlignment center
}



skinparam sequence {
	BorderColor #303030
	TitleFontColor #303030
	BackgroundColor #333333
	StartColor #303030
	EndColor #303030
	BoxBackgroundColor #333333
	BoxBorderColor #484848
	BoxFontColor #484848
	LifeLineBorderColor #484848
	LifeLineBorderThickness 2
	LifeLineBackgroundColor #3a3a3a
	GroupBorderColor #484848
	GroupFontColor #484848
	GroupHeaderFontColor #0060a8
	GroupBackgroundColor #484848
	GroupHeaderBackgroundColor #333333
	DividerBackgroundColor #484848
    DividerBorderColor #484848
    DividerBorderThickness 2
    DividerFontColor #D8Bc00
	ReferenceBackgroundColor #333333
	ReferenceBorderColor #484848
	ReferenceFontColor #fefefe
	ReferenceHeaderBackgroundColor #484848
}


skinparam partition {
	BorderColor #303030
	FontColor #333333
	BackgroundColor #333333
}


skinparam collections {
		FontColor #C8Ac00
	BorderColor #333333
	BackgroundColor #333333-#333333
}


skinparam control {
		FontColor #C8Ac00
	BorderColor #333333
	BackgroundColor #333333-#333333
}


skinparam entity {
		FontColor #C8Ac00
	BorderColor #333333
	BackgroundColor #333333-#333333
}


skinparam boundary {
		FontColor #C8Ac00
	BorderColor #333333
	BackgroundColor #333333-#333333
}


skinparam agent {
	BackgroundColor #ff8000
	BorderColor #ff9933
	FontColor #484848
}


skinparam note {
	BorderThickness 1
	BackgroundColor #1b1b1a
	BorderColor #5e5e5e
	FontSize 11
	FontColor #a0a0a0
}


skinparam artifact {
	BorderThickness 10
	BorderColor #5e5e5e
	BackgroundColor #1b1b1a
	FontColor #D8Bc00
}


skinparam component {
		FontColor #C8Ac00
	BorderColor #333333
	BackgroundColor #333333-#333333
}


skinparam interface {
	BackgroundColor  #008400
	BorderColor  #007F00
	FontColor #484848
}


skinparam storage {
	BackgroundColor #ff8000
  	BorderColor #cc6600
	FontColor #222222
}


skinparam node {
	BackgroundColor #333333
	BorderColor #333333
	FontColor #C8Ac00
}


skinparam cloud {
	BackgroundColor #484848-black
	BorderColor #484848
	FontColor #D8Bc00
}


skinparam database {
		FontColor #C8Ac00
	BorderColor #333333
	BackgroundColor #333333-#333333
	BackgroundColor  #333333
}


skinparam class {
		FontColor #C8Ac00
	BorderColor #333333
	BackgroundColor #333333-#333333
	HeaderBackgroundColor #1b1b1a
    BackgroundColor #282828
    BorderColor #5e5e5e
 	StereotypeFontColor #a0a0a0
    StereotypeFontStyle bold
	BorderThickness 1
	AttributeFontColor #D8Bc00
	AttributeFontSize 11
    FontColor #D8Bc00
    FontStyle bold
}


skinparam object {
		FontColor #C8Ac00
	BorderColor #333333
	BackgroundColor #333333-#333333
	StereotypeFontColor #484848
	BorderThickness 1
	AttributeFontColor #fefefe
	AttributeFontSize 11
}


skinparam usecase {
		FontColor #C8Ac00
	BorderColor #333333
	BackgroundColor #333333-#333333
	BorderThickness 2
	StereotypeFontColor #303030
}


skinparam rectangle {
		FontColor #C8Ac00
	BorderColor #333333
	BackgroundColor #333333-#333333
	BackgroundColor #333333
	BorderThickness 2
	StereotypeFontColor #303030
}


skinparam package {
		FontColor #C8Ac00
	BorderColor #333333
	BackgroundColor #333333-#333333
	BackgroundColor #333333
	BorderThickness 2
}


skinparam folder {
	BackgroundColor #6d6d6d
  	BorderColor #ff8000
	FontColor #ff8000
	BorderThickness 2
}


skinparam frame {
	BackgroundColor #6d6d6d
  	BorderColor #0060a8
	FontColor #0060a8
	BorderThickness 2
}


skinparam state {
		FontColor #C8Ac00
	BorderColor #333333
	BackgroundColor #333333-#333333
	StartColor #0060a8
	EndColor #0060a8
	AttributeFontColor #fefefe
	AttributeFontSize 11
}


skinparam queue {
		FontColor #C8Ac00
	BorderColor #333333
	BackgroundColor #333333-#333333
}


skinparam card {
	BackgroundColor #0060a8
	BorderColor #004d86
	FontColor $INFO_TEXT
}


skinparam file {
	BackgroundColor #6d6d6d-#484848
	BorderColor #0060a8
	FontColor #fefefe
}


skinparam stack {
		FontColor #C8Ac00
	BorderColor #333333
	BackgroundColor #333333-#333333
}

    
    title "com.telenav.kivakit.core.messaging.broadcasters"
    
    interface Broadcaster
    
    AudienceMember o- - Listener
    AudienceMember o- - Filter
    class AudienceMember
    {
        - -(messaging)- -
        +Listener listener()
        +void receive(Transmittable message)
    }
    
    interface Repeater
    Repeater <|- - GlobalRepeater
    interface GlobalRepeater
    {
    }
    
    Broadcaster <|- - Multicaster
    Multicaster "1" o- - "*" AudienceMember
    class Multicaster
    {
        - -(constructors)- -
        #Multicaster()
        #Multicaster(Multicaster)
        #Multicaster(String)
        +Multicaster(Class<?>)
        +Multicaster(String, Class<?>)
        - -(messaging)- -
        +boolean isDeaf()
        +StringList listenerChain()
        +String listenerTree()
    }
    
    Error <|- - NoListenerError
    class NoListenerError
    {
        - -(constructors)- -
        +NoListenerError(String, Object)
    }
    
@enduml

PlantUML version 1.2021.01(Tue Feb 02 00:55:08 MST 2021)
(GPL source distribution)
Java Runtime: OpenJDK Runtime Environment
JVM: OpenJDK 64-Bit Server VM
Default Encoding: UTF-8
Language: en
Country: US
--></g></svg>